<svg xmlns="http://www.w3.org/2000/svg" xmlns:xlink="http://www.w3.org/1999/xlink" stroke-miterlimit="10" stroke-linecap="square" stroke="none" fill="none" viewBox="0.0 0.0 960.0 720.0" version="1.1"><clipPath id="p.0"><path clip-rule="nonzero" d="m0 0l960.0 0l0 720.0l-960.0 0l0 -720.0z"></path></clipPath><g clip-path="url(#p.0)"><path fill-rule="evenodd" d="m0 0l960.0 0l0 720.0l-960.0 0z" fill-opacity="0.0" fill="#000000"></path><path fill-rule="evenodd" d="m208.5748 170.89896l247.62204 0l0 42.015747l-247.62204 0z" fill-opacity="0.0" fill="#000000"></path><path fill-rule="nonzero" d="m219.40292 197.81895l0 -13.0625l1.984375 0l4.75 7.75l-0.953125 -0.015625l4.8125 -7.734375l1.875 0l0 13.0625l-2.015625 0l0 -5.359375q0 -1.671875 0.078125 -3.015625q0.078125 -1.34375 0.296875 -2.671875l0.25 0.6875l-4.265625 6.609375l-1.234375 0l-4.140625 -6.53125l0.203125 -0.765625q0.203125 1.25 0.28125 2.578125q0.09375 1.3125 0.09375 3.109375l0 5.359375l-2.015625 0zm20.040878 0.1875q-1.4375 0 -2.578125 -0.65625q-1.125 -0.671875 -1.78125 -1.8125q-0.640625 -1.15625 -0.640625 -2.625q0 -1.46875 0.640625 -2.609375q0.65625 -1.15625 1.78125 -1.8125q1.140625 -0.671875 2.578125 -0.671875q1.40625 0 2.53125 0.671875q1.140625 0.65625 1.796875 1.8125q0.65625 1.140625 0.65625 2.609375q0 1.46875 -0.65625 2.625q-0.65625 1.140625 -1.796875 1.8125q-1.125 0.65625 -2.53125 0.65625zm0 -1.75q0.875 0 1.5625 -0.4375q0.6875 -0.4375 1.078125 -1.1875q0.390625 -0.765625 0.375 -1.71875q0.015625 -0.96875 -0.375 -1.71875q-0.390625 -0.765625 -1.078125 -1.1875q-0.6875 -0.4375 -1.5625 -0.4375q-0.875 0 -1.578125 0.4375q-0.703125 0.4375 -1.09375 1.203125q-0.390625 0.75 -0.375 1.703125q-0.015625 0.953125 0.375 1.71875q0.390625 0.75 1.09375 1.1875q0.703125 0.4375 1.578125 0.4375zm10.504852 1.75q-1.046875 0 -1.828125 -0.484375q-0.765625 -0.484375 -1.1875 -1.359375q-0.421875 -0.875 -0.421875 -2.09375l0 -6.046875l1.921875 0l0 5.53125q0 0.84375 0.265625 1.46875q0.28125 0.625 0.78125 0.96875q0.515625 0.328125 1.25 0.328125q0.53125 0 0.984375 -0.171875q0.453125 -0.171875 0.78125 -0.484375q0.328125 -0.328125 0.5 -0.765625q0.1875 -0.453125 0.1875 -0.984375l0 -5.890625l1.921875 0l0 9.796875l-1.921875 0l0 -2.046875l0.34375 -0.234375q-0.21875 0.703125 -0.75 1.265625q-0.53125 0.546875 -1.265625 0.875q-0.734375 0.328125 -1.5625 0.328125zm7.849533 -0.1875l0 -9.796875l1.921875 0l0 2.015625l-0.34375 0.21875q0.1875 -0.640625 0.734375 -1.1875q0.546875 -0.5625 1.28125 -0.90625q0.75 -0.34375 1.53125 -0.34375q1.125 0 1.859375 0.4375q0.75 0.4375 1.125 1.34375q0.375 0.890625 0.375 2.25l0 5.96875l-1.921875 0l0 -5.84375q0 -0.828125 -0.21875 -1.375q-0.21875 -0.5625 -0.6875 -0.8125q-0.46875 -0.25 -1.15625 -0.21875q-0.5625 0 -1.03125 0.1875q-0.46875 0.171875 -0.8125 0.5q-0.34375 0.3125 -0.546875 0.734375q-0.1875 0.40625 -0.1875 0.890625l0 5.9375l-0.953125 0q-0.234375 0 -0.484375 0q-0.25 0 -0.484375 0zm12.319214 0l0 -12.296875l1.921875 0l0 12.296875l-1.921875 0zm-2.046875 -7.921875l0 -1.875l6.234375 0l0 1.875l-6.234375 0zm11.664429 8.109375q-1.203125 0 -2.203125 -0.671875q-1.0 -0.671875 -1.609375 -1.828125q-0.59375 -1.15625 -0.59375 -2.609375q0 -1.484375 0.609375 -2.625q0.609375 -1.140625 1.640625 -1.796875q1.046875 -0.65625 2.328125 -0.65625q0.765625 0 1.390625 0.234375q0.640625 0.21875 1.109375 0.625q0.484375 0.390625 0.78125 0.921875q0.3125 0.515625 0.390625 1.109375l-0.421875 -0.140625l0 -2.546875l1.9375 0l0 9.796875l-1.9375 0l0 -2.328125l0.4375 -0.140625q-0.109375 0.515625 -0.453125 1.0q-0.34375 0.46875 -0.875 0.84375q-0.53125 0.359375 -1.171875 0.59375q-0.640625 0.21875 -1.359375 0.21875zm0.5 -1.765625q0.890625 0 1.546875 -0.421875q0.671875 -0.4375 1.046875 -1.1875q0.390625 -0.765625 0.390625 -1.734375q0 -0.953125 -0.390625 -1.703125q-0.375 -0.75 -1.046875 -1.171875q-0.65625 -0.4375 -1.546875 -0.4375q-0.859375 0 -1.515625 0.4375q-0.65625 0.421875 -1.046875 1.171875q-0.375 0.75 -0.375 1.703125q0 0.96875 0.375 1.734375q0.390625 0.75 1.046875 1.1875q0.65625 0.421875 1.515625 0.421875zm7.856262 1.578125l0 -9.796875l1.921875 0l0 9.796875l-1.921875 0zm0.9375 -11.953125q-0.609375 0 -0.953125 -0.3125q-0.328125 -0.328125 -0.328125 -0.90625q0 -0.546875 0.34375 -0.875q0.34375 -0.34375 0.9375 -0.34375q0.609375 0 0.9375 0.328125q0.34375 0.3125 0.34375 0.890625q0 0.546875 -0.34375 0.890625q-0.34375 0.328125 -0.9375 0.328125zm3.936432 11.953125l0 -9.796875l1.921875 0l0 2.015625l-0.34375 0.21875q0.1875 -0.640625 0.734375 -1.1875q0.546875 -0.5625 1.28125 -0.90625q0.75 -0.34375 1.53125 -0.34375q1.125 0 1.859375 0.4375q0.75 0.4375 1.125 1.34375q0.375 0.890625 0.375 2.25l0 5.96875l-1.921875 0l0 -5.84375q0 -0.828125 -0.21875 -1.375q-0.21875 -0.5625 -0.6875 -0.8125q-0.46875 -0.25 -1.15625 -0.21875q-0.5625 0 -1.03125 0.1875q-0.46875 0.171875 -0.8125 0.5q-0.34375 0.3125 -0.546875 0.734375q-0.1875 0.40625 -0.1875 0.890625l0 5.9375l-0.953125 0q-0.234375 0 -0.484375 0q-0.25 0 -0.484375 0zm16.808594 0l0 -13.0625l5.109375 0q1.40625 0 2.53125 0.46875q1.125 0.46875 1.921875 1.34375q0.8125 0.875 1.234375 2.078125q0.4375 1.1875 0.4375 2.640625q0 1.453125 -0.4375 2.65625q-0.421875 1.203125 -1.21875 2.078125q-0.796875 0.859375 -1.9375 1.328125q-1.125 0.46875 -2.53125 0.46875l-5.109375 0zm2.015625 -1.734375l-0.0625 -0.203125l3.0625 0q0.984375 0 1.765625 -0.3125q0.78125 -0.328125 1.3125 -0.90625q0.53125 -0.59375 0.796875 -1.453125q0.28125 -0.859375 0.28125 -1.921875q0 -1.0625 -0.28125 -1.90625q-0.265625 -0.859375 -0.8125 -1.453125q-0.546875 -0.59375 -1.3125 -0.90625q-0.765625 -0.328125 -1.75 -0.328125l-3.109375 0l0.109375 -0.15625l0 9.546875zm15.22052 1.921875q-1.203125 0 -2.203125 -0.671875q-1.0 -0.671875 -1.609375 -1.828125q-0.59375 -1.15625 -0.59375 -2.609375q0 -1.484375 0.609375 -2.625q0.609375 -1.140625 1.640625 -1.796875q1.046875 -0.65625 2.328125 -0.65625q0.765625 0 1.390625 0.234375q0.640625 0.21875 1.109375 0.625q0.484375 0.390625 0.78125 0.921875q0.3125 0.515625 0.390625 1.109375l-0.421875 -0.140625l0 -2.546875l1.9375 0l0 9.796875l-1.9375 0l0 -2.328125l0.4375 -0.140625q-0.109375 0.515625 -0.453125 1.0q-0.34375 0.46875 -0.875 0.84375q-0.53125 0.359375 -1.171875 0.59375q-0.640625 0.21875 -1.359375 0.21875zm0.5 -1.765625q0.890625 0 1.546875 -0.421875q0.671875 -0.4375 1.046875 -1.1875q0.390625 -0.765625 0.390625 -1.734375q0 -0.953125 -0.390625 -1.703125q-0.375 -0.75 -1.046875 -1.171875q-0.65625 -0.4375 -1.546875 -0.4375q-0.859375 0 -1.515625 0.4375q-0.65625 0.421875 -1.046875 1.171875q-0.375 0.75 -0.375 1.703125q0 0.96875 0.375 1.734375q0.390625 0.75 1.046875 1.1875q0.65625 0.421875 1.515625 0.421875zm7.543762 1.578125l0 -9.796875l1.9375 0l0 3.078125l-0.1875 -0.75q0.203125 -0.703125 0.703125 -1.28125q0.5 -0.578125 1.140625 -0.90625q0.640625 -0.34375 1.328125 -0.34375q0.3125 0 0.59375 0.0625q0.296875 0.046875 0.46875 0.125l-0.5 2.09375q-0.21875 -0.09375 -0.5 -0.15625q-0.265625 -0.078125 -0.53125 -0.078125q-0.5 0 -0.953125 0.203125q-0.453125 0.1875 -0.8125 0.546875q-0.34375 0.34375 -0.546875 0.796875q-0.203125 0.453125 -0.203125 1.0l0 5.40625l-1.9375 0zm9.268463 -3.0625l-0.09375 -2.09375l4.6875 -4.640625l2.59375 0l-7.1875 6.734375zm-1.75 3.0625l0 -13.8125l1.921875 0l0 13.8125l-1.921875 0zm6.609375 0l-3.703125 -4.3125l1.359375 -1.25l4.796875 5.5625l-2.453125 0z" fill="#ffffff"></path><path fill-rule="evenodd" d="m220.7664 221.18242l247.62206 0l0 42.01573l-247.62206 0z" fill-opacity="0.0" fill="#000000"></path><path fill-rule="nonzero" d="m231.59453 248.10242l0 -13.0625l1.984375 0l4.75 7.75l-0.953125 -0.015625l4.8125 -7.734375l1.875 0l0 13.0625l-2.015625 0l0 -5.359375q0 -1.671875 0.078125 -3.015625q0.078125 -1.34375 0.296875 -2.671875l0.25 0.6875l-4.265625 6.609375l-1.234375 0l-4.140625 -6.53125l0.203125 -0.765625q0.203125 1.25 0.28125 2.578125q0.09375 1.3125 0.09375 3.109375l0 5.359375l-2.015625 0zm20.040878 0.1875q-1.4375 0 -2.578125 -0.65625q-1.125 -0.671875 -1.78125 -1.8125q-0.640625 -1.15625 -0.640625 -2.625q0 -1.46875 0.640625 -2.609375q0.65625 -1.15625 1.78125 -1.8125q1.140625 -0.671875 2.578125 -0.671875q1.40625 0 2.53125 0.671875q1.140625 0.65625 1.796875 1.8125q0.65625 1.140625 0.65625 2.609375q0 1.46875 -0.65625 2.625q-0.65625 1.140625 -1.796875 1.8125q-1.125 0.65625 -2.53125 0.65625zm0 -1.75q0.875 0 1.5625 -0.4375q0.6875 -0.4375 1.078125 -1.1875q0.390625 -0.765625 0.375 -1.71875q0.015625 -0.96875 -0.375 -1.71875q-0.390625 -0.765625 -1.078125 -1.1875q-0.6875 -0.4375 -1.5625 -0.4375q-0.875 0 -1.578125 0.4375q-0.703125 0.4375 -1.09375 1.203125q-0.390625 0.75 -0.375 1.703125q-0.015625 0.953125 0.375 1.71875q0.390625 0.75 1.09375 1.1875q0.703125 0.4375 1.578125 0.4375zm10.504852 1.75q-1.046875 0 -1.828125 -0.484375q-0.765625 -0.484375 -1.1875 -1.359375q-0.421875 -0.875 -0.421875 -2.09375l0 -6.046875l1.921875 0l0 5.53125q0 0.84375 0.265625 1.46875q0.28125 0.625 0.78125 0.96875q0.515625 0.328125 1.25 0.328125q0.53125 0 0.984375 -0.171875q0.453125 -0.171875 0.78125 -0.484375q0.328125 -0.328125 0.5 -0.765625q0.1875 -0.453125 0.1875 -0.984375l0 -5.890625l1.921875 0l0 9.796875l-1.921875 0l0 -2.046875l0.34375 -0.234375q-0.21875 0.703125 -0.75 1.265625q-0.53125 0.546875 -1.265625 0.875q-0.734375 0.328125 -1.5625 0.328125zm7.8495483 -0.1875l0 -9.796875l1.921875 0l0 2.015625l-0.34375 0.21875q0.1875 -0.640625 0.734375 -1.1875q0.546875 -0.5625 1.28125 -0.90625q0.75 -0.34375 1.53125 -0.34375q1.125 0 1.859375 0.4375q0.75 0.4375 1.125 1.34375q0.375 0.890625 0.375 2.25l0 5.96875l-1.921875 0l0 -5.84375q0 -0.828125 -0.21875 -1.375q-0.21875 -0.5625 -0.6875 -0.8125q-0.46875 -0.25 -1.15625 -0.21875q-0.5625 0 -1.03125 0.1875q-0.46875 0.171875 -0.8125 0.5q-0.34375 0.3125 -0.546875 0.734375q-0.1875 0.40625 -0.1875 0.890625l0 5.9375l-0.953125 0q-0.234375 0 -0.484375 0q-0.25 0 -0.484375 0zm12.319214 0l0 -12.296875l1.921875 0l0 12.296875l-1.921875 0zm-2.046875 -7.921875l0 -1.875l6.234375 0l0 1.875l-6.234375 0zm11.664398 8.109375q-1.203125 0 -2.203125 -0.671875q-1.0 -0.671875 -1.609375 -1.828125q-0.59375 -1.15625 -0.59375 -2.609375q0 -1.484375 0.609375 -2.625q0.609375 -1.140625 1.640625 -1.796875q1.046875 -0.65625 2.328125 -0.65625q0.765625 0 1.390625 0.234375q0.640625 0.21875 1.109375 0.625q0.484375 0.390625 0.78125 0.921875q0.3125 0.515625 0.390625 1.109375l-0.421875 -0.140625l0 -2.546875l1.9375 0l0 9.796875l-1.9375 0l0 -2.328125l0.4375 -0.140625q-0.109375 0.515625 -0.453125 1.0q-0.34375 0.46875 -0.875 0.84375q-0.53125 0.359375 -1.171875 0.59375q-0.640625 0.21875 -1.359375 0.21875zm0.5 -1.765625q0.890625 0 1.546875 -0.421875q0.671875 -0.4375 1.046875 -1.1875q0.390625 -0.765625 0.390625 -1.734375q0 -0.953125 -0.390625 -1.703125q-0.375 -0.75 -1.046875 -1.171875q-0.65625 -0.4375 -1.546875 -0.4375q-0.859375 0 -1.515625 0.4375q-0.65625 0.421875 -1.046875 1.171875q-0.375 0.75 -0.375 1.703125q0 0.96875 0.375 1.734375q0.390625 0.75 1.046875 1.1875q0.65625 0.421875 1.515625 0.421875zm7.8562927 1.578125l0 -9.796875l1.921875 0l0 9.796875l-1.921875 0zm0.9375 -11.953125q-0.609375 0 -0.953125 -0.3125q-0.328125 -0.328125 -0.328125 -0.90625q0 -0.546875 0.34375 -0.875q0.34375 -0.34375 0.9375 -0.34375q0.609375 0 0.9375 0.328125q0.34375 0.3125 0.34375 0.890625q0 0.546875 -0.34375 0.890625q-0.34375 0.328125 -0.9375 0.328125zm3.936432 11.953125l0 -9.796875l1.921875 0l0 2.015625l-0.34375 0.21875q0.1875 -0.640625 0.734375 -1.1875q0.546875 -0.5625 1.28125 -0.90625q0.75 -0.34375 1.53125 -0.34375q1.125 0 1.859375 0.4375q0.75 0.4375 1.125 1.34375q0.375 0.890625 0.375 2.25l0 5.96875l-1.921875 0l0 -5.84375q0 -0.828125 -0.21875 -1.375q-0.21875 -0.5625 -0.6875 -0.8125q-0.46875 -0.25 -1.15625 -0.21875q-0.5625 0 -1.03125 0.1875q-0.46875 0.171875 -0.8125 0.5q-0.34375 0.3125 -0.546875 0.734375q-0.1875 0.40625 -0.1875 0.890625l0 5.9375l-0.953125 0q-0.234375 0 -0.484375 0q-0.25 0 -0.484375 0zm16.808594 0l0 -13.0625l5.109375 0q1.40625 0 2.53125 0.46875q1.125 0.46875 1.921875 1.34375q0.8125 0.875 1.234375 2.078125q0.4375 1.1875 0.4375 2.640625q0 1.453125 -0.4375 2.65625q-0.421875 1.203125 -1.21875 2.078125q-0.796875 0.859375 -1.9375 1.328125q-1.125 0.46875 -2.53125 0.46875l-5.109375 0zm2.015625 -1.734375l-0.0625 -0.203125l3.0625 0q0.984375 0 1.765625 -0.3125q0.78125 -0.328125 1.3125 -0.90625q0.53125 -0.59375 0.796875 -1.453125q0.28125 -0.859375 0.28125 -1.921875q0 -1.0625 -0.28125 -1.90625q-0.265625 -0.859375 -0.8125 -1.453125q-0.546875 -0.59375 -1.3125 -0.90625q-0.765625 -0.328125 -1.75 -0.328125l-3.109375 0l0.109375 -0.15625l0 9.546875zm15.2204895 1.921875q-1.203125 0 -2.203125 -0.671875q-1.0 -0.671875 -1.609375 -1.828125q-0.59375 -1.15625 -0.59375 -2.609375q0 -1.484375 0.609375 -2.625q0.609375 -1.140625 1.640625 -1.796875q1.046875 -0.65625 2.328125 -0.65625q0.765625 0 1.390625 0.234375q0.640625 0.21875 1.109375 0.625q0.484375 0.390625 0.78125 0.921875q0.3125 0.515625 0.390625 1.109375l-0.421875 -0.140625l0 -2.546875l1.9375 0l0 9.796875l-1.9375 0l0 -2.328125l0.4375 -0.140625q-0.109375 0.515625 -0.453125 1.0q-0.34375 0.46875 -0.875 0.84375q-0.53125 0.359375 -1.171875 0.59375q-0.640625 0.21875 -1.359375 0.21875zm0.5 -1.765625q0.890625 0 1.546875 -0.421875q0.671875 -0.4375 1.046875 -1.1875q0.390625 -0.765625 0.390625 -1.734375q0 -0.953125 -0.390625 -1.703125q-0.375 -0.75 -1.046875 -1.171875q-0.65625 -0.4375 -1.546875 -0.4375q-0.859375 0 -1.515625 0.4375q-0.65625 0.421875 -1.046875 1.171875q-0.375 0.75 -0.375 1.703125q0 0.96875 0.375 1.734375q0.390625 0.75 1.046875 1.1875q0.65625 0.421875 1.515625 0.421875zm7.5437927 1.578125l0 -9.796875l1.9375 0l0 3.078125l-0.1875 -0.75q0.203125 -0.703125 0.703125 -1.28125q0.5 -0.578125 1.140625 -0.90625q0.640625 -0.34375 1.328125 -0.34375q0.3125 0 0.59375 0.0625q0.296875 0.046875 0.46875 0.125l-0.5 2.09375q-0.21875 -0.09375 -0.5 -0.15625q-0.265625 -0.078125 -0.53125 -0.078125q-0.5 0 -0.953125 0.203125q-0.453125 0.1875 -0.8125 0.546875q-0.34375 0.34375 -0.546875 0.796875q-0.203125 0.453125 -0.203125 1.0l0 5.40625l-1.9375 0zm9.268463 -3.0625l-0.09375 -2.09375l4.6875 -4.640625l2.59375 0l-7.1875 6.734375zm-1.75 3.0625l0 -13.8125l1.921875 0l0 13.8125l-1.921875 0zm6.609375 0l-3.703125 -4.3125l1.359375 -1.25l4.796875 5.5625l-2.453125 0zm13.273621 3.46875q-2.265625 -1.421875 -3.46875 -3.546875q-1.1875 -2.125 -1.1875 -4.734375q0 -2.59375 1.203125 -4.71875q1.203125 -2.140625 3.46875 -3.5625l1.03125 1.15625q-1.90625 1.328125 -2.90625 3.171875q-0.984375 1.828125 -0.984375 3.953125q0 2.125 0.984375 3.96875q1.0 1.828125 2.90625 3.15625l-1.046875 1.15625zm3.250061 -3.46875l0 -13.0625l5.453125 0q1.25 0 2.109375 0.375q0.859375 0.375 1.296875 1.109375q0.4375 0.734375 0.4375 1.796875q0 1.0625 -0.59375 1.8125q-0.59375 0.75 -1.625 1.03125l0 -0.375q0.875 0.1875 1.515625 0.671875q0.65625 0.46875 1.015625 1.1875q0.375 0.703125 0.375 1.609375q0 0.9375 -0.296875 1.65625q-0.28125 0.71875 -0.859375 1.203125q-0.5625 0.484375 -1.375 0.734375q-0.796875 0.25 -1.8125 0.25l-5.640625 0zm2.015625 -1.9375l3.5 0q0.765625 0 1.296875 -0.21875q0.53125 -0.234375 0.8125 -0.671875q0.296875 -0.4375 0.296875 -1.046875q0 -0.578125 -0.3125 -0.984375q-0.296875 -0.421875 -0.859375 -0.625q-0.5625 -0.21875 -1.328125 -0.21875l-3.40625 0l0 3.765625zm0 -5.71875l3.3125 0q0.5625 0 1.0 -0.21875q0.4375 -0.21875 0.6875 -0.609375q0.265625 -0.390625 0.265625 -0.90625q0 -0.828125 -0.5625 -1.28125q-0.5625 -0.453125 -1.609375 -0.453125l-3.09375 0l0 3.46875zm10.180176 7.65625l0 -13.8125l1.921875 0l0 13.8125l-1.921875 0zm7.995636 0.1875q-1.046875 0 -1.828125 -0.484375q-0.765625 -0.484375 -1.1875 -1.359375q-0.421875 -0.875 -0.421875 -2.09375l0 -6.046875l1.921875 0l0 5.53125q0 0.84375 0.265625 1.46875q0.28125 0.625 0.78125 0.96875q0.515625 0.328125 1.25 0.328125q0.53125 0 0.984375 -0.171875q0.453125 -0.171875 0.78125 -0.484375q0.328125 -0.328125 0.5 -0.765625q0.1875 -0.453125 0.1875 -0.984375l0 -5.890625l1.921875 0l0 9.796875l-1.921875 0l0 -2.046875l0.34375 -0.234375q-0.21875 0.703125 -0.75 1.265625q-0.53125 0.546875 -1.265625 0.875q-0.734375 0.328125 -1.5625 0.328125zm7.849518 -0.1875l0 -9.796875l1.9375 0l0 3.078125l-0.1875 -0.75q0.203125 -0.703125 0.703125 -1.28125q0.5 -0.578125 1.140625 -0.90625q0.640625 -0.34375 1.328125 -0.34375q0.3125 0 0.59375 0.0625q0.296875 0.046875 0.46875 0.125l-0.5 2.09375q-0.21875 -0.09375 -0.5 -0.15625q-0.265625 -0.078125 -0.53125 -0.078125q-0.5 0 -0.953125 0.203125q-0.453125 0.1875 -0.8125 0.546875q-0.34375 0.34375 -0.546875 0.796875q-0.203125 0.453125 -0.203125 1.0l0 5.40625l-1.9375 0zm7.518463 0l0 -9.796875l1.9375 0l0 3.078125l-0.1875 -0.75q0.203125 -0.703125 0.703125 -1.28125q0.5 -0.578125 1.140625 -0.90625q0.640625 -0.34375 1.328125 -0.34375q0.3125 0 0.59375 0.0625q0.296875 0.046875 0.46875 0.125l-0.5 2.09375q-0.21875 -0.09375 -0.5 -0.15625q-0.265625 -0.078125 -0.53125 -0.078125q-0.5 0 -0.953125 0.203125q-0.453125 0.1875 -0.8125 0.546875q-0.34375 0.34375 -0.546875 0.796875q-0.203125 0.453125 -0.203125 1.0l0 5.40625l-1.9375 0zm11.670319 0.1875q-1.5 0 -2.671875 -0.640625q-1.15625 -0.640625 -1.828125 -1.765625q-0.65625 -1.125 -0.65625 -2.578125q0 -1.15625 0.375 -2.109375q0.375 -0.953125 1.03125 -1.640625q0.65625 -0.703125 1.578125 -1.078125q0.9375 -0.390625 2.015625 -0.390625q0.953125 0 1.765625 0.359375q0.828125 0.359375 1.421875 1.0q0.609375 0.640625 0.9375 1.515625q0.328125 0.859375 0.3125 1.875l-0.015625 0.828125l-8.0 0l-0.4375 -1.53125l6.765625 0l-0.265625 0.3125l0 -0.4375q-0.0625 -0.625 -0.421875 -1.109375q-0.34375 -0.484375 -0.890625 -0.765625q-0.546875 -0.28125 -1.171875 -0.28125q-1.015625 0 -1.703125 0.390625q-0.6875 0.375 -1.046875 1.125q-0.34375 0.734375 -0.34375 1.8125q0 1.015625 0.421875 1.78125q0.421875 0.75 1.203125 1.171875q0.796875 0.40625 1.8125 0.40625q0.734375 0 1.359375 -0.234375q0.625 -0.25 1.359375 -0.890625l0.96875 1.359375q-0.453125 0.453125 -1.09375 0.796875q-0.640625 0.328125 -1.359375 0.53125q-0.71875 0.1875 -1.421875 0.1875zm10.448181 0q-1.34375 0 -2.390625 -0.65625q-1.046875 -0.671875 -1.671875 -1.8125q-0.609375 -1.15625 -0.609375 -2.625q0 -1.46875 0.59375 -2.609375q0.609375 -1.15625 1.65625 -1.8125q1.046875 -0.671875 2.375 -0.671875q0.71875 0 1.40625 0.234375q0.6875 0.234375 1.21875 0.640625q0.546875 0.390625 0.84375 0.875q0.3125 0.46875 0.3125 0.953125l-0.5625 0.046875l0 -6.5625l1.921875 0l0 13.8125l-1.921875 0l0 -2.328125l0.375 0q0 0.4375 -0.296875 0.890625q-0.296875 0.4375 -0.796875 0.8125q-0.484375 0.359375 -1.140625 0.59375q-0.640625 0.21875 -1.3125 0.21875zm0.265625 -1.65625q0.875 0 1.546875 -0.453125q0.671875 -0.453125 1.046875 -1.21875q0.390625 -0.78125 0.390625 -1.765625q0 -0.984375 -0.390625 -1.75q-0.375 -0.78125 -1.046875 -1.234375q-0.671875 -0.453125 -1.546875 -0.453125q-0.875 0 -1.546875 0.453125q-0.671875 0.453125 -1.0625 1.234375q-0.375 0.765625 -0.375 1.75q0 0.984375 0.375 1.765625q0.390625 0.765625 1.0625 1.21875q0.671875 0.453125 1.546875 0.453125zm7.546814 4.9375l-1.03125 -1.15625q1.90625 -1.328125 2.890625 -3.15625q1.0 -1.84375 1.0 -3.96875q0 -2.125 -1.0 -3.953125q-0.984375 -1.84375 -2.890625 -3.171875l1.046875 -1.15625q2.265625 1.421875 3.453125 3.546875q1.203125 2.125 1.203125 4.734375q0 2.59375 -1.203125 4.734375q-1.203125 2.125 -3.46875 3.546875z" fill="#ffffff"></path><path fill-rule="evenodd" d="m251.05249 278.13516l247.62204 0l0 42.015747l-247.62204 0z" fill-opacity="0.0" fill="#000000"></path><path fill-rule="nonzero" d="m261.8806 305.05518l0 -13.0625l1.984375 0l4.75 7.75l-0.953125 -0.015625l4.8125 -7.734375l1.875 0l0 13.0625l-2.015625 0l0 -5.359375q0 -1.671875 0.078125 -3.015625q0.078125 -1.34375 0.296875 -2.671875l0.25 0.6875l-4.265625 6.609375l-1.234375 0l-4.140625 -6.53125l0.203125 -0.765625q0.203125 1.25 0.28125 2.578125q0.09375 1.3125 0.09375 3.109375l0 5.359375l-2.015625 0zm20.040894 0.1875q-1.4375 0 -2.578125 -0.65625q-1.125 -0.671875 -1.78125 -1.8125q-0.640625 -1.15625 -0.640625 -2.625q0 -1.46875 0.640625 -2.609375q0.65625 -1.15625 1.78125 -1.8125q1.140625 -0.671875 2.578125 -0.671875q1.40625 0 2.53125 0.671875q1.140625 0.65625 1.796875 1.8125q0.65625 1.140625 0.65625 2.609375q0 1.46875 -0.65625 2.625q-0.65625 1.140625 -1.796875 1.8125q-1.125 0.65625 -2.53125 0.65625zm0 -1.75q0.875 0 1.5625 -0.4375q0.6875 -0.4375 1.078125 -1.1875q0.390625 -0.765625 0.375 -1.71875q0.015625 -0.96875 -0.375 -1.71875q-0.390625 -0.765625 -1.078125 -1.1875q-0.6875 -0.4375 -1.5625 -0.4375q-0.875 0 -1.578125 0.4375q-0.703125 0.4375 -1.09375 1.203125q-0.390625 0.75 -0.375 1.703125q-0.015625 0.953125 0.375 1.71875q0.390625 0.75 1.09375 1.1875q0.703125 0.4375 1.578125 0.4375zm10.504852 1.75q-1.046875 0 -1.828125 -0.484375q-0.765625 -0.484375 -1.1875 -1.359375q-0.421875 -0.875 -0.421875 -2.09375l0 -6.046875l1.921875 0l0 5.53125q0 0.84375 0.265625 1.46875q0.28125 0.625 0.78125 0.96875q0.515625 0.328125 1.25 0.328125q0.53125 0 0.984375 -0.171875q0.453125 -0.171875 0.78125 -0.484375q0.328125 -0.328125 0.5 -0.765625q0.1875 -0.453125 0.1875 -0.984375l0 -5.890625l1.921875 0l0 9.796875l-1.921875 0l0 -2.046875l0.34375 -0.234375q-0.21875 0.703125 -0.75 1.265625q-0.53125 0.546875 -1.265625 0.875q-0.734375 0.328125 -1.5625 0.328125zm7.849518 -0.1875l0 -9.796875l1.921875 0l0 2.015625l-0.34375 0.21875q0.1875 -0.640625 0.734375 -1.1875q0.546875 -0.5625 1.28125 -0.90625q0.75 -0.34375 1.53125 -0.34375q1.125 0 1.859375 0.4375q0.75 0.4375 1.125 1.34375q0.375 0.890625 0.375 2.25l0 5.96875l-1.921875 0l0 -5.84375q0 -0.828125 -0.21875 -1.375q-0.21875 -0.5625 -0.6875 -0.8125q-0.46875 -0.25 -1.15625 -0.21875q-0.5625 0 -1.03125 0.1875q-0.46875 0.171875 -0.8125 0.5q-0.34375 0.3125 -0.546875 0.734375q-0.1875 0.40625 -0.1875 0.890625l0 5.9375l-0.953125 0q-0.234375 0 -0.484375 0q-0.25 0 -0.484375 0zm12.319214 0l0 -12.296875l1.921875 0l0 12.296875l-1.921875 0zm-2.046875 -7.921875l0 -1.875l6.234375 0l0 1.875l-6.234375 0zm11.664429 8.109375q-1.203125 0 -2.203125 -0.671875q-1.0 -0.671875 -1.609375 -1.828125q-0.59375 -1.15625 -0.59375 -2.609375q0 -1.484375 0.609375 -2.625q0.609375 -1.140625 1.640625 -1.796875q1.046875 -0.65625 2.328125 -0.65625q0.765625 0 1.390625 0.234375q0.640625 0.21875 1.109375 0.625q0.484375 0.390625 0.78125 0.921875q0.3125 0.515625 0.390625 1.109375l-0.421875 -0.140625l0 -2.546875l1.9375 0l0 9.796875l-1.9375 0l0 -2.328125l0.4375 -0.140625q-0.109375 0.515625 -0.453125 1.0q-0.34375 0.46875 -0.875 0.84375q-0.53125 0.359375 -1.171875 0.59375q-0.640625 0.21875 -1.359375 0.21875zm0.5 -1.765625q0.890625 0 1.546875 -0.421875q0.671875 -0.4375 1.046875 -1.1875q0.390625 -0.765625 0.390625 -1.734375q0 -0.953125 -0.390625 -1.703125q-0.375 -0.75 -1.046875 -1.171875q-0.65625 -0.4375 -1.546875 -0.4375q-0.859375 0 -1.515625 0.4375q-0.65625 0.421875 -1.046875 1.171875q-0.375 0.75 -0.375 1.703125q0 0.96875 0.375 1.734375q0.390625 0.75 1.046875 1.1875q0.65625 0.421875 1.515625 0.421875zm7.856262 1.578125l0 -9.796875l1.921875 0l0 9.796875l-1.921875 0zm0.9375 -11.953125q-0.609375 0 -0.953125 -0.3125q-0.328125 -0.328125 -0.328125 -0.90625q0 -0.546875 0.34375 -0.875q0.34375 -0.34375 0.9375 -0.34375q0.609375 0 0.9375 0.328125q0.34375 0.3125 0.34375 0.890625q0 0.546875 -0.34375 0.890625q-0.34375 0.328125 -0.9375 0.328125zm3.936432 11.953125l0 -9.796875l1.921875 0l0 2.015625l-0.34375 0.21875q0.1875 -0.640625 0.734375 -1.1875q0.546875 -0.5625 1.28125 -0.90625q0.75 -0.34375 1.53125 -0.34375q1.125 0 1.859375 0.4375q0.75 0.4375 1.125 1.34375q0.375 0.890625 0.375 2.25l0 5.96875l-1.921875 0l0 -5.84375q0 -0.828125 -0.21875 -1.375q-0.21875 -0.5625 -0.6875 -0.8125q-0.46875 -0.25 -1.15625 -0.21875q-0.5625 0 -1.03125 0.1875q-0.46875 0.171875 -0.8125 0.5q-0.34375 0.3125 -0.546875 0.734375q-0.1875 0.40625 -0.1875 0.890625l0 5.9375l-0.953125 0q-0.234375 0 -0.484375 0q-0.25 0 -0.484375 0zm16.808594 0l0 -13.0625l2.015625 0l0 11.125l6.125 0l0 1.9375l-8.140625 0zm11.003235 0l0 -9.796875l1.921875 0l0 9.796875l-1.921875 0zm0.9375 -11.953125q-0.609375 0 -0.953125 -0.3125q-0.328125 -0.328125 -0.328125 -0.90625q0 -0.546875 0.34375 -0.875q0.34375 -0.34375 0.9375 -0.34375q0.609375 0 0.9375 0.328125q0.34375 0.3125 0.34375 0.890625q0 0.546875 -0.34375 0.890625q-0.34375 0.328125 -0.9375 0.328125zm8.327057 16.25q-1.046875 0 -2.09375 -0.328125q-1.03125 -0.328125 -1.65625 -0.859375l0.703125 -1.484375q0.375 0.28125 0.875 0.484375q0.5 0.21875 1.0625 0.34375q0.5625 0.125 1.109375 0.125q1.015625 0 1.703125 -0.34375q0.703125 -0.328125 1.046875 -0.984375q0.359375 -0.65625 0.359375 -1.625l0 -1.875l0.203125 0.125q-0.09375 0.578125 -0.609375 1.109375q-0.515625 0.53125 -1.28125 0.875q-0.75 0.328125 -1.5625 0.328125q-1.390625 0 -2.484375 -0.65625q-1.09375 -0.671875 -1.734375 -1.8125q-0.625 -1.15625 -0.625 -2.625q0 -1.46875 0.625 -2.609375q0.625 -1.15625 1.703125 -1.8125q1.09375 -0.671875 2.46875 -0.671875q0.546875 0 1.0625 0.140625q0.53125 0.140625 0.984375 0.390625q0.453125 0.25 0.796875 0.546875q0.359375 0.296875 0.578125 0.640625q0.234375 0.328125 0.28125 0.625l-0.40625 0.15625l0 -2.296875l1.921875 0l0 9.203125q0 1.171875 -0.34375 2.078125q-0.34375 0.90625 -1.0 1.53125q-0.65625 0.625 -1.59375 0.953125q-0.921875 0.328125 -2.09375 0.328125zm0.0625 -5.875q0.921875 0 1.625 -0.421875q0.71875 -0.4375 1.109375 -1.1875q0.390625 -0.75 0.390625 -1.71875q0 -0.96875 -0.40625 -1.71875q-0.40625 -0.765625 -1.109375 -1.1875q-0.6875 -0.4375 -1.609375 -0.4375q-0.890625 0 -1.59375 0.4375q-0.703125 0.4375 -1.109375 1.203125q-0.390625 0.75 -0.390625 1.703125q0 0.953125 0.390625 1.71875q0.40625 0.75 1.109375 1.1875q0.703125 0.421875 1.59375 0.421875zm7.654785 1.578125l0 -13.8125l1.921875 0l0 6.03125l-0.34375 0.21875q0.1875 -0.640625 0.734375 -1.1875q0.546875 -0.5625 1.28125 -0.90625q0.75 -0.34375 1.53125 -0.34375q1.125 0 1.859375 0.4375q0.75 0.4375 1.125 1.34375q0.375 0.890625 0.375 2.25l0 5.96875l-1.921875 0l0 -5.84375q0 -0.828125 -0.21875 -1.375q-0.21875 -0.5625 -0.6875 -0.8125q-0.46875 -0.25 -1.15625 -0.21875q-0.5625 0 -1.03125 0.1875q-0.46875 0.171875 -0.8125 0.5q-0.34375 0.3125 -0.546875 0.734375q-0.1875 0.40625 -0.1875 0.890625l0 5.9375l-0.953125 0q-0.234375 0 -0.484375 0q-0.25 0 -0.484375 0zm12.319214 0l0 -12.296875l1.921875 0l0 12.296875l-1.921875 0zm-2.046875 -7.921875l0 -1.875l6.234375 0l0 1.875l-6.234375 0zm17.278381 11.390625q-2.265625 -1.421875 -3.46875 -3.546875q-1.1875 -2.125 -1.1875 -4.734375q0 -2.59375 1.203125 -4.71875q1.203125 -2.140625 3.46875 -3.5625l1.03125 1.15625q-1.90625 1.328125 -2.90625 3.171875q-0.984375 1.828125 -0.984375 3.953125q0 2.125 0.984375 3.96875q1.0 1.828125 2.90625 3.15625l-1.046875 1.15625zm3.250061 -3.46875l0 -13.0625l5.453125 0q1.25 0 2.109375 0.375q0.859375 0.375 1.296875 1.109375q0.4375 0.734375 0.4375 1.796875q0 1.0625 -0.59375 1.8125q-0.59375 0.75 -1.625 1.03125l0 -0.375q0.875 0.1875 1.515625 0.671875q0.65625 0.46875 1.015625 1.1875q0.375 0.703125 0.375 1.609375q0 0.9375 -0.296875 1.65625q-0.28125 0.71875 -0.859375 1.203125q-0.5625 0.484375 -1.375 0.734375q-0.796875 0.25 -1.8125 0.25l-5.640625 0zm2.015625 -1.9375l3.5 0q0.765625 0 1.296875 -0.21875q0.53125 -0.234375 0.8125 -0.671875q0.296875 -0.4375 0.296875 -1.046875q0 -0.578125 -0.3125 -0.984375q-0.296875 -0.421875 -0.859375 -0.625q-0.5625 -0.21875 -1.328125 -0.21875l-3.40625 0l0 3.765625zm0 -5.71875l3.3125 0q0.5625 0 1.0 -0.21875q0.4375 -0.21875 0.6875 -0.609375q0.265625 -0.390625 0.265625 -0.90625q0 -0.828125 -0.5625 -1.28125q-0.5625 -0.453125 -1.609375 -0.453125l-3.09375 0l0 3.46875zm10.180145 7.65625l0 -13.8125l1.921875 0l0 13.8125l-1.921875 0zm7.995636 0.1875q-1.046875 0 -1.828125 -0.484375q-0.765625 -0.484375 -1.1875 -1.359375q-0.421875 -0.875 -0.421875 -2.09375l0 -6.046875l1.921875 0l0 5.53125q0 0.84375 0.265625 1.46875q0.28125 0.625 0.78125 0.96875q0.515625 0.328125 1.25 0.328125q0.53125 0 0.984375 -0.171875q0.453125 -0.171875 0.78125 -0.484375q0.328125 -0.328125 0.5 -0.765625q0.1875 -0.453125 0.1875 -0.984375l0 -5.890625l1.921875 0l0 9.796875l-1.921875 0l0 -2.046875l0.34375 -0.234375q-0.21875 0.703125 -0.75 1.265625q-0.53125 0.546875 -1.265625 0.875q-0.734375 0.328125 -1.5625 0.328125zm7.8495483 -0.1875l0 -9.796875l1.9375 0l0 3.078125l-0.1875 -0.75q0.203125 -0.703125 0.703125 -1.28125q0.5 -0.578125 1.140625 -0.90625q0.640625 -0.34375 1.328125 -0.34375q0.3125 0 0.59375 0.0625q0.296875 0.046875 0.46875 0.125l-0.5 2.09375q-0.21875 -0.09375 -0.5 -0.15625q-0.265625 -0.078125 -0.53125 -0.078125q-0.5 0 -0.953125 0.203125q-0.453125 0.1875 -0.8125 0.546875q-0.34375 0.34375 -0.546875 0.796875q-0.203125 0.453125 -0.203125 1.0l0 5.40625l-1.9375 0zm7.518463 0l0 -9.796875l1.9375 0l0 3.078125l-0.1875 -0.75q0.203125 -0.703125 0.703125 -1.28125q0.5 -0.578125 1.140625 -0.90625q0.640625 -0.34375 1.328125 -0.34375q0.3125 0 0.59375 0.0625q0.296875 0.046875 0.46875 0.125l-0.5 2.09375q-0.21875 -0.09375 -0.5 -0.15625q-0.265625 -0.078125 -0.53125 -0.078125q-0.5 0 -0.953125 0.203125q-0.453125 0.1875 -0.8125 0.546875q-0.34375 0.34375 -0.546875 0.796875q-0.203125 0.453125 -0.203125 1.0l0 5.40625l-1.9375 0zm11.670288 0.1875q-1.5 0 -2.671875 -0.640625q-1.15625 -0.640625 -1.828125 -1.765625q-0.65625 -1.125 -0.65625 -2.578125q0 -1.15625 0.375 -2.109375q0.375 -0.953125 1.03125 -1.640625q0.65625 -0.703125 1.578125 -1.078125q0.9375 -0.390625 2.015625 -0.390625q0.953125 0 1.765625 0.359375q0.828125 0.359375 1.421875 1.0q0.609375 0.640625 0.9375 1.515625q0.328125 0.859375 0.3125 1.875l-0.015625 0.828125l-8.0 0l-0.4375 -1.53125l6.765625 0l-0.265625 0.3125l0 -0.4375q-0.0625 -0.625 -0.421875 -1.109375q-0.34375 -0.484375 -0.890625 -0.765625q-0.546875 -0.28125 -1.171875 -0.28125q-1.015625 0 -1.703125 0.390625q-0.6875 0.375 -1.046875 1.125q-0.34375 0.734375 -0.34375 1.8125q0 1.015625 0.421875 1.78125q0.421875 0.75 1.203125 1.171875q0.796875 0.40625 1.8125 0.40625q0.734375 0 1.359375 -0.234375q0.625 -0.25 1.359375 -0.890625l0.96875 1.359375q-0.453125 0.453125 -1.09375 0.796875q-0.640625 0.328125 -1.359375 0.53125q-0.71875 0.1875 -1.421875 0.1875zm10.448212 0q-1.34375 0 -2.390625 -0.65625q-1.046875 -0.671875 -1.671875 -1.8125q-0.609375 -1.15625 -0.609375 -2.625q0 -1.46875 0.59375 -2.609375q0.609375 -1.15625 1.65625 -1.8125q1.046875 -0.671875 2.375 -0.671875q0.71875 0 1.40625 0.234375q0.6875 0.234375 1.21875 0.640625q0.546875 0.390625 0.84375 0.875q0.3125 0.46875 0.3125 0.953125l-0.5625 0.046875l0 -6.5625l1.921875 0l0 13.8125l-1.921875 0l0 -2.328125l0.375 0q0 0.4375 -0.296875 0.890625q-0.296875 0.4375 -0.796875 0.8125q-0.484375 0.359375 -1.140625 0.59375q-0.640625 0.21875 -1.3125 0.21875zm0.265625 -1.65625q0.875 0 1.546875 -0.453125q0.671875 -0.453125 1.046875 -1.21875q0.390625 -0.78125 0.390625 -1.765625q0 -0.984375 -0.390625 -1.75q-0.375 -0.78125 -1.046875 -1.234375q-0.671875 -0.453125 -1.546875 -0.453125q-0.875 0 -1.546875 0.453125q-0.671875 0.453125 -1.0625 1.234375q-0.375 0.765625 -0.375 1.75q0 0.984375 0.375 1.765625q0.390625 0.765625 1.0625 1.21875q0.671875 0.453125 1.546875 0.453125zm7.546814 4.9375l-1.03125 -1.15625q1.90625 -1.328125 2.890625 -3.15625q1.0 -1.84375 1.0 -3.96875q0 -2.125 -1.0 -3.953125q-0.984375 -1.84375 -2.890625 -3.171875l1.046875 -1.15625q2.265625 1.421875 3.453125 3.546875q1.203125 2.125 1.203125 4.734375q0 2.59375 -1.203125 4.734375q-1.203125 2.125 -3.46875 3.546875z" fill="#ffffff"></path><path fill-rule="evenodd" d="m268.00525 349.3714l247.62207 0l0 42.015747l-247.62207 0z" fill-opacity="0.0" fill="#000000"></path><path fill-rule="nonzero" d="m278.83337 376.29138l0 -13.0625l1.984375 0l4.75 7.75l-0.953125 -0.015625l4.8125 -7.734375l1.875 0l0 13.0625l-2.015625 0l0 -5.359375q0 -1.671875 0.078125 -3.015625q0.078125 -1.34375 0.296875 -2.671875l0.25 0.6875l-4.265625 6.609375l-1.234375 0l-4.140625 -6.53125l0.203125 -0.765625q0.203125 1.25 0.28125 2.578125q0.09375 1.3125 0.09375 3.109375l0 5.359375l-2.015625 0zm20.040894 0.1875q-1.4375 0 -2.578125 -0.65625q-1.125 -0.671875 -1.78125 -1.8125q-0.640625 -1.15625 -0.640625 -2.625q0 -1.46875 0.640625 -2.609375q0.65625 -1.15625 1.78125 -1.8125q1.140625 -0.671875 2.578125 -0.671875q1.40625 0 2.53125 0.671875q1.140625 0.65625 1.796875 1.8125q0.65625 1.140625 0.65625 2.609375q0 1.46875 -0.65625 2.625q-0.65625 1.140625 -1.796875 1.8125q-1.125 0.65625 -2.53125 0.65625zm0 -1.75q0.875 0 1.5625 -0.4375q0.6875 -0.4375 1.078125 -1.1875q0.390625 -0.765625 0.375 -1.71875q0.015625 -0.96875 -0.375 -1.71875q-0.390625 -0.765625 -1.078125 -1.1875q-0.6875 -0.4375 -1.5625 -0.4375q-0.875 0 -1.578125 0.4375q-0.703125 0.4375 -1.09375 1.203125q-0.390625 0.75 -0.375 1.703125q-0.015625 0.953125 0.375 1.71875q0.390625 0.75 1.09375 1.1875q0.703125 0.4375 1.578125 0.4375zm10.504852 1.75q-1.046875 0 -1.828125 -0.484375q-0.765625 -0.484375 -1.1875 -1.359375q-0.421875 -0.875 -0.421875 -2.09375l0 -6.046875l1.921875 0l0 5.53125q0 0.84375 0.265625 1.46875q0.28125 0.625 0.78125 0.96875q0.515625 0.328125 1.25 0.328125q0.53125 0 0.984375 -0.171875q0.453125 -0.171875 0.78125 -0.484375q0.328125 -0.328125 0.5 -0.765625q0.1875 -0.453125 0.1875 -0.984375l0 -5.890625l1.921875 0l0 9.796875l-1.921875 0l0 -2.046875l0.34375 -0.234375q-0.21875 0.703125 -0.75 1.265625q-0.53125 0.546875 -1.265625 0.875q-0.734375 0.328125 -1.5625 0.328125zm7.849518 -0.1875l0 -9.796875l1.921875 0l0 2.015625l-0.34375 0.21875q0.1875 -0.640625 0.734375 -1.1875q0.546875 -0.5625 1.28125 -0.90625q0.75 -0.34375 1.53125 -0.34375q1.125 0 1.859375 0.4375q0.75 0.4375 1.125 1.34375q0.375 0.890625 0.375 2.25l0 5.96875l-1.921875 0l0 -5.84375q0 -0.828125 -0.21875 -1.375q-0.21875 -0.5625 -0.6875 -0.8125q-0.46875 -0.25 -1.15625 -0.21875q-0.5625 0 -1.03125 0.1875q-0.46875 0.171875 -0.8125 0.5q-0.34375 0.3125 -0.546875 0.734375q-0.1875 0.40625 -0.1875 0.890625l0 5.9375l-0.953125 0q-0.234375 0 -0.484375 0q-0.25 0 -0.484375 0zm12.319214 0l0 -12.296875l1.921875 0l0 12.296875l-1.921875 0zm-2.046875 -7.921875l0 -1.875l6.234375 0l0 1.875l-6.234375 0zm11.664429 8.109375q-1.203125 0 -2.203125 -0.671875q-1.0 -0.671875 -1.609375 -1.828125q-0.59375 -1.15625 -0.59375 -2.609375q0 -1.484375 0.609375 -2.625q0.609375 -1.140625 1.640625 -1.796875q1.046875 -0.65625 2.328125 -0.65625q0.765625 0 1.390625 0.234375q0.640625 0.21875 1.109375 0.625q0.484375 0.390625 0.78125 0.921875q0.3125 0.515625 0.390625 1.109375l-0.421875 -0.140625l0 -2.546875l1.9375 0l0 9.796875l-1.9375 0l0 -2.328125l0.4375 -0.140625q-0.109375 0.515625 -0.453125 1.0q-0.34375 0.46875 -0.875 0.84375q-0.53125 0.359375 -1.171875 0.59375q-0.640625 0.21875 -1.359375 0.21875zm0.5 -1.765625q0.890625 0 1.546875 -0.421875q0.671875 -0.4375 1.046875 -1.1875q0.390625 -0.765625 0.390625 -1.734375q0 -0.953125 -0.390625 -1.703125q-0.375 -0.75 -1.046875 -1.171875q-0.65625 -0.4375 -1.546875 -0.4375q-0.859375 0 -1.515625 0.4375q-0.65625 0.421875 -1.046875 1.171875q-0.375 0.75 -0.375 1.703125q0 0.96875 0.375 1.734375q0.390625 0.75 1.046875 1.1875q0.65625 0.421875 1.515625 0.421875zm7.856262 1.578125l0 -9.796875l1.921875 0l0 9.796875l-1.921875 0zm0.9375 -11.953125q-0.609375 0 -0.953125 -0.3125q-0.328125 -0.328125 -0.328125 -0.90625q0 -0.546875 0.34375 -0.875q0.34375 -0.34375 0.9375 -0.34375q0.609375 0 0.9375 0.328125q0.34375 0.3125 0.34375 0.890625q0 0.546875 -0.34375 0.890625q-0.34375 0.328125 -0.9375 0.328125zm3.936432 11.953125l0 -9.796875l1.921875 0l0 2.015625l-0.34375 0.21875q0.1875 -0.640625 0.734375 -1.1875q0.546875 -0.5625 1.28125 -0.90625q0.75 -0.34375 1.53125 -0.34375q1.125 0 1.859375 0.4375q0.75 0.4375 1.125 1.34375q0.375 0.890625 0.375 2.25l0 5.96875l-1.921875 0l0 -5.84375q0 -0.828125 -0.21875 -1.375q-0.21875 -0.5625 -0.6875 -0.8125q-0.46875 -0.25 -1.15625 -0.21875q-0.5625 0 -1.03125 0.1875q-0.46875 0.171875 -0.8125 0.5q-0.34375 0.3125 -0.546875 0.734375q-0.1875 0.40625 -0.1875 0.890625l0 5.9375l-0.953125 0q-0.234375 0 -0.484375 0q-0.25 0 -0.484375 0zm16.808594 0l0 -13.0625l2.015625 0l0 11.125l6.125 0l0 1.9375l-8.140625 0zm11.003235 0l0 -9.796875l1.921875 0l0 9.796875l-1.921875 0zm0.9375 -11.953125q-0.609375 0 -0.953125 -0.3125q-0.328125 -0.328125 -0.328125 -0.90625q0 -0.546875 0.34375 -0.875q0.34375 -0.34375 0.9375 -0.34375q0.609375 0 0.9375 0.328125q0.34375 0.3125 0.34375 0.890625q0 0.546875 -0.34375 0.890625q-0.34375 0.328125 -0.9375 0.328125zm8.327057 16.25q-1.046875 0 -2.09375 -0.328125q-1.03125 -0.328125 -1.65625 -0.859375l0.703125 -1.484375q0.375 0.28125 0.875 0.484375q0.5 0.21875 1.0625 0.34375q0.5625 0.125 1.109375 0.125q1.015625 0 1.703125 -0.34375q0.703125 -0.328125 1.046875 -0.984375q0.359375 -0.65625 0.359375 -1.625l0 -1.875l0.203125 0.125q-0.09375 0.578125 -0.609375 1.109375q-0.515625 0.53125 -1.28125 0.875q-0.75 0.328125 -1.5625 0.328125q-1.390625 0 -2.484375 -0.65625q-1.09375 -0.671875 -1.734375 -1.8125q-0.625 -1.15625 -0.625 -2.625q0 -1.46875 0.625 -2.609375q0.625 -1.15625 1.703125 -1.8125q1.09375 -0.671875 2.46875 -0.671875q0.546875 0 1.0625 0.140625q0.53125 0.140625 0.984375 0.390625q0.453125 0.25 0.796875 0.546875q0.359375 0.296875 0.578125 0.640625q0.234375 0.328125 0.28125 0.625l-0.40625 0.15625l0 -2.296875l1.921875 0l0 9.203125q0 1.171875 -0.34375 2.078125q-0.34375 0.90625 -1.0 1.53125q-0.65625 0.625 -1.59375 0.953125q-0.921875 0.328125 -2.09375 0.328125zm0.0625 -5.875q0.921875 0 1.625 -0.421875q0.71875 -0.4375 1.109375 -1.1875q0.390625 -0.75 0.390625 -1.71875q0 -0.96875 -0.40625 -1.71875q-0.40625 -0.765625 -1.109375 -1.1875q-0.6875 -0.4375 -1.609375 -0.4375q-0.890625 0 -1.59375 0.4375q-0.703125 0.4375 -1.109375 1.203125q-0.390625 0.75 -0.390625 1.703125q0 0.953125 0.390625 1.71875q0.40625 0.75 1.109375 1.1875q0.703125 0.421875 1.59375 0.421875zm7.654785 1.578125l0 -13.8125l1.921875 0l0 6.03125l-0.34375 0.21875q0.1875 -0.640625 0.734375 -1.1875q0.546875 -0.5625 1.28125 -0.90625q0.75 -0.34375 1.53125 -0.34375q1.125 0 1.859375 0.4375q0.75 0.4375 1.125 1.34375q0.375 0.890625 0.375 2.25l0 5.96875l-1.921875 0l0 -5.84375q0 -0.828125 -0.21875 -1.375q-0.21875 -0.5625 -0.6875 -0.8125q-0.46875 -0.25 -1.15625 -0.21875q-0.5625 0 -1.03125 0.1875q-0.46875 0.171875 -0.8125 0.5q-0.34375 0.3125 -0.546875 0.734375q-0.1875 0.40625 -0.1875 0.890625l0 5.9375l-0.953125 0q-0.234375 0 -0.484375 0q-0.25 0 -0.484375 0zm12.319214 0l0 -12.296875l1.921875 0l0 12.296875l-1.921875 0zm-2.046875 -7.921875l0 -1.875l6.234375 0l0 1.875l-6.234375 0z" fill="#ffffff"></path><path fill-rule="evenodd" d="m285.91077 420.6076l247.62207 0l0 42.015747l-247.62207 0z" fill-opacity="0.0" fill="#000000"></path><path fill-rule="nonzero" d="m302.03577 447.71512q-1.359375 0 -2.5 -0.484375q-1.140625 -0.484375 -1.984375 -1.390625q-0.828125 -0.90625 -1.296875 -2.140625q-0.453125 -1.234375 -0.453125 -2.703125q0 -1.390625 0.5 -2.59375q0.5 -1.203125 1.375 -2.109375q0.875 -0.921875 2.03125 -1.421875q1.15625 -0.515625 2.5 -0.515625q0.953125 0 1.859375 0.296875q0.90625 0.28125 1.640625 0.796875q0.734375 0.515625 1.203125 1.171875l-1.34375 1.390625q-0.546875 -0.546875 -1.09375 -0.90625q-0.546875 -0.359375 -1.125 -0.546875q-0.5625 -0.1875 -1.140625 -0.1875q-0.921875 0 -1.71875 0.34375q-0.78125 0.34375 -1.375 0.96875q-0.578125 0.609375 -0.921875 1.46875q-0.328125 0.84375 -0.328125 1.84375q0 1.0625 0.3125 1.9375q0.328125 0.859375 0.921875 1.484375q0.609375 0.609375 1.4375 0.9375q0.828125 0.328125 1.84375 0.328125q0.609375 0 1.203125 -0.171875q0.59375 -0.171875 1.109375 -0.484375q0.53125 -0.3125 0.96875 -0.75l1.0 1.640625q-0.421875 0.515625 -1.171875 0.921875q-0.734375 0.40625 -1.640625 0.640625q-0.890625 0.234375 -1.8125 0.234375zm10.323853 0q-1.046875 0 -1.828125 -0.484375q-0.765625 -0.484375 -1.1875 -1.359375q-0.421875 -0.875 -0.421875 -2.09375l0 -6.046875l1.921875 0l0 5.53125q0 0.84375 0.265625 1.46875q0.28125 0.625 0.78125 0.96875q0.515625 0.328125 1.25 0.328125q0.53125 0 0.984375 -0.171875q0.453125 -0.171875 0.78125 -0.484375q0.328125 -0.328125 0.5 -0.765625q0.1875 -0.453125 0.1875 -0.984375l0 -5.890625l1.921875 0l0 9.796875l-1.921875 0l0 -2.046875l0.34375 -0.234375q-0.21875 0.703125 -0.75 1.265625q-0.53125 0.546875 -1.265625 0.875q-0.734375 0.328125 -1.5625 0.328125zm13.005768 0q-0.640625 0 -1.265625 -0.203125q-0.625 -0.203125 -1.140625 -0.546875q-0.515625 -0.359375 -0.859375 -0.765625q-0.34375 -0.421875 -0.453125 -0.859375l0.484375 -0.25l0 2.375l-1.921875 0l0 -13.75l1.921875 0l0 6.25l-0.296875 -0.15625q0.09375 -0.4375 0.40625 -0.828125q0.3125 -0.40625 0.8125 -0.734375q0.5 -0.328125 1.078125 -0.515625q0.578125 -0.203125 1.171875 -0.203125q1.328125 0 2.34375 0.65625q1.03125 0.65625 1.625 1.796875q0.59375 1.140625 0.59375 2.625q0 1.46875 -0.59375 2.625q-0.578125 1.15625 -1.609375 1.828125q-1.015625 0.65625 -2.296875 0.65625zm-0.328125 -1.75q0.859375 0 1.53125 -0.4375q0.671875 -0.4375 1.0625 -1.1875q0.390625 -0.765625 0.390625 -1.734375q0 -0.953125 -0.390625 -1.703125q-0.375 -0.765625 -1.046875 -1.1875q-0.671875 -0.4375 -1.546875 -0.4375q-0.875 0 -1.546875 0.4375q-0.671875 0.421875 -1.0625 1.1875q-0.390625 0.75 -0.390625 1.703125q0 0.96875 0.390625 1.734375q0.390625 0.75 1.0625 1.1875q0.671875 0.4375 1.546875 0.4375zm11.4878235 1.75q-1.5 0 -2.671875 -0.640625q-1.15625 -0.640625 -1.828125 -1.765625q-0.65625 -1.125 -0.65625 -2.578125q0 -1.15625 0.375 -2.109375q0.375 -0.953125 1.03125 -1.640625q0.65625 -0.703125 1.578125 -1.078125q0.9375 -0.390625 2.015625 -0.390625q0.953125 0 1.765625 0.359375q0.828125 0.359375 1.421875 1.0q0.609375 0.640625 0.9375 1.515625q0.328125 0.859375 0.3125 1.875l-0.015625 0.828125l-8.0 0l-0.4375 -1.53125l6.765625 0l-0.265625 0.3125l0 -0.4375q-0.0625 -0.625 -0.421875 -1.109375q-0.34375 -0.484375 -0.890625 -0.765625q-0.546875 -0.28125 -1.171875 -0.28125q-1.015625 0 -1.703125 0.390625q-0.6875 0.375 -1.046875 1.125q-0.34375 0.734375 -0.34375 1.8125q0 1.015625 0.421875 1.78125q0.421875 0.75 1.203125 1.171875q0.796875 0.40625 1.8125 0.40625q0.734375 0 1.359375 -0.234375q0.625 -0.25 1.359375 -0.890625l0.96875 1.359375q-0.453125 0.453125 -1.09375 0.796875q-0.640625 0.328125 -1.359375 0.53125q-0.71875 0.1875 -1.421875 0.1875zm9.635681 0q-1.234375 0 -2.21875 -0.421875q-0.984375 -0.4375 -1.640625 -1.28125l1.296875 -1.109375q0.5625 0.640625 1.21875 0.9375q0.671875 0.28125 1.515625 0.28125q0.328125 0 0.609375 -0.078125q0.296875 -0.078125 0.515625 -0.25q0.21875 -0.171875 0.328125 -0.40625q0.109375 -0.234375 0.109375 -0.515625q0 -0.484375 -0.359375 -0.78125q-0.1875 -0.125 -0.59375 -0.28125q-0.390625 -0.15625 -1.03125 -0.328125q-1.078125 -0.28125 -1.765625 -0.625q-0.6875 -0.359375 -1.0625 -0.8125q-0.28125 -0.359375 -0.421875 -0.765625q-0.125 -0.421875 -0.125 -0.9375q0 -0.609375 0.265625 -1.125q0.28125 -0.515625 0.75 -0.890625q0.484375 -0.390625 1.125 -0.59375q0.640625 -0.203125 1.375 -0.203125q0.6875 0 1.359375 0.1875q0.6875 0.1875 1.265625 0.546875q0.578125 0.34375 0.96875 0.828125l-1.09375 1.21875q-0.359375 -0.359375 -0.78125 -0.625q-0.421875 -0.265625 -0.859375 -0.40625q-0.421875 -0.15625 -0.765625 -0.15625q-0.390625 0 -0.71875 0.078125q-0.3125 0.0625 -0.53125 0.21875q-0.203125 0.140625 -0.328125 0.375q-0.109375 0.21875 -0.109375 0.5q0.015625 0.234375 0.125 0.453125q0.109375 0.21875 0.296875 0.359375q0.203125 0.15625 0.609375 0.328125q0.40625 0.15625 1.046875 0.3125q0.921875 0.234375 1.53125 0.53125q0.609375 0.28125 0.96875 0.65625q0.375 0.359375 0.515625 0.828125q0.15625 0.46875 0.15625 1.046875q0 0.828125 -0.484375 1.5q-0.46875 0.65625 -1.28125 1.03125q-0.796875 0.375 -1.78125 0.375z" fill="#ffffff"></path><path fill-rule="evenodd" d="m301.91077 507.0853l247.62207 0l0 42.015778l-247.62207 0z" fill-opacity="0.0" fill="#000000"></path><path fill-rule="nonzero" d="m316.77014 534.1928q-1.0625 0 -1.96875 -0.28125q-0.90625 -0.28125 -1.640625 -0.84375q-0.734375 -0.578125 -1.3125 -1.40625l1.375 -1.59375q0.921875 1.3125 1.75 1.8125q0.84375 0.5 2.0 0.5q0.703125 0 1.28125 -0.21875q0.578125 -0.234375 0.90625 -0.625q0.34375 -0.390625 0.34375 -0.890625q0 -0.328125 -0.109375 -0.625q-0.109375 -0.3125 -0.34375 -0.546875q-0.234375 -0.25 -0.59375 -0.453125q-0.359375 -0.203125 -0.84375 -0.359375q-0.484375 -0.15625 -1.125 -0.265625q-1.0 -0.21875 -1.75 -0.546875q-0.75 -0.34375 -1.25 -0.84375q-0.5 -0.5 -0.75 -1.140625q-0.25 -0.640625 -0.25 -1.453125q0 -0.78125 0.34375 -1.453125q0.359375 -0.671875 0.953125 -1.15625q0.609375 -0.5 1.421875 -0.765625q0.828125 -0.28125 1.78125 -0.28125q1.015625 0 1.84375 0.265625q0.84375 0.265625 1.5 0.78125q0.65625 0.5 1.078125 1.25l-1.421875 1.40625q-0.359375 -0.625 -0.828125 -1.03125q-0.46875 -0.421875 -1.03125 -0.640625q-0.5625 -0.21875 -1.1875 -0.21875q-0.734375 0 -1.28125 0.234375q-0.53125 0.21875 -0.84375 0.625q-0.3125 0.390625 -0.3125 0.9375q0 0.390625 0.15625 0.71875q0.15625 0.328125 0.453125 0.578125q0.3125 0.25 0.828125 0.453125q0.53125 0.1875 1.25 0.328125q1.03125 0.234375 1.828125 0.578125q0.8125 0.34375 1.359375 0.8125q0.5625 0.46875 0.84375 1.046875q0.296875 0.578125 0.296875 1.25q0 1.25 -0.578125 2.171875q-0.578125 0.90625 -1.640625 1.40625q-1.0625 0.484375 -2.53125 0.484375zm7.125885 3.921875l0 -13.90625l1.9375 0l0 2.234375l-0.296875 -0.15625q0.109375 -0.5625 0.625 -1.078125q0.53125 -0.515625 1.28125 -0.84375q0.765625 -0.328125 1.5625 -0.328125q1.328125 0 2.34375 0.65625q1.03125 0.65625 1.625 1.796875q0.609375 1.140625 0.609375 2.609375q0 1.453125 -0.59375 2.609375q-0.59375 1.140625 -1.625 1.8125q-1.015625 0.65625 -2.296875 0.65625q-0.859375 0 -1.671875 -0.34375q-0.796875 -0.34375 -1.359375 -0.890625q-0.5625 -0.546875 -0.6875 -1.125l0.484375 -0.25l0 6.546875l-1.9375 0zm4.84375 -5.71875q0.859375 0 1.53125 -0.421875q0.671875 -0.4375 1.0625 -1.171875q0.390625 -0.75 0.390625 -1.703125q0 -0.953125 -0.390625 -1.6875q-0.375 -0.734375 -1.046875 -1.15625q-0.65625 -0.4375 -1.546875 -0.4375q-0.875 0 -1.546875 0.421875q-0.671875 0.421875 -1.0625 1.171875q-0.390625 0.734375 -0.390625 1.6875q0 0.953125 0.390625 1.703125q0.390625 0.734375 1.0625 1.171875q0.671875 0.421875 1.546875 0.421875zm10.69397 1.796875q-1.203125 0 -2.203125 -0.671875q-1.0 -0.671875 -1.609375 -1.828125q-0.59375 -1.15625 -0.59375 -2.609375q0 -1.484375 0.609375 -2.625q0.609375 -1.140625 1.640625 -1.796875q1.046875 -0.65625 2.328125 -0.65625q0.765625 0 1.390625 0.234375q0.640625 0.21875 1.109375 0.625q0.484375 0.390625 0.78125 0.921875q0.3125 0.515625 0.390625 1.109375l-0.421875 -0.140625l0 -2.546875l1.9375 0l0 9.796875l-1.9375 0l0 -2.328125l0.4375 -0.140625q-0.109375 0.515625 -0.453125 1.0q-0.34375 0.46875 -0.875 0.84375q-0.53125 0.359375 -1.171875 0.59375q-0.640625 0.21875 -1.359375 0.21875zm0.5 -1.765625q0.890625 0 1.546875 -0.421875q0.671875 -0.4375 1.046875 -1.1875q0.390625 -0.765625 0.390625 -1.734375q0 -0.953125 -0.390625 -1.703125q-0.375 -0.75 -1.046875 -1.171875q-0.65625 -0.4375 -1.546875 -0.4375q-0.859375 0 -1.515625 0.4375q-0.65625 0.421875 -1.046875 1.171875q-0.375 0.75 -0.375 1.703125q0 0.96875 0.375 1.734375q0.390625 0.75 1.046875 1.1875q0.65625 0.421875 1.515625 0.421875zm11.700012 1.765625q-1.359375 0 -2.4375 -0.671875q-1.0625 -0.671875 -1.6875 -1.828125q-0.625 -1.15625 -0.625 -2.59375q0 -1.4375 0.625 -2.59375q0.625 -1.15625 1.6875 -1.828125q1.078125 -0.671875 2.4375 -0.671875q1.3125 0 2.375 0.53125q1.078125 0.53125 1.640625 1.453125l-1.0625 1.296875q-0.296875 -0.421875 -0.765625 -0.78125q-0.46875 -0.359375 -1.0 -0.5625q-0.515625 -0.203125 -1.0 -0.203125q-0.890625 0 -1.59375 0.4375q-0.703125 0.4375 -1.109375 1.203125q-0.40625 0.765625 -0.40625 1.71875q0 0.953125 0.421875 1.71875q0.4375 0.75 1.140625 1.203125q0.703125 0.4375 1.5625 0.4375q0.515625 0 0.984375 -0.171875q0.46875 -0.171875 0.921875 -0.5q0.453125 -0.34375 0.84375 -0.828125l1.0625 1.3125q-0.59375 0.84375 -1.703125 1.390625q-1.109375 0.53125 -2.3125 0.53125zm10.38736 0q-1.5 0 -2.671875 -0.640625q-1.15625 -0.640625 -1.828125 -1.765625q-0.65625 -1.125 -0.65625 -2.578125q0 -1.15625 0.375 -2.109375q0.375 -0.953125 1.03125 -1.640625q0.65625 -0.703125 1.578125 -1.078125q0.9375 -0.390625 2.015625 -0.390625q0.953125 0 1.765625 0.359375q0.828125 0.359375 1.421875 1.0q0.609375 0.640625 0.9375 1.515625q0.328125 0.859375 0.3125 1.875l-0.015625 0.828125l-8.0 0l-0.4375 -1.53125l6.765625 0l-0.265625 0.3125l0 -0.4375q-0.0625 -0.625 -0.421875 -1.109375q-0.34375 -0.484375 -0.890625 -0.765625q-0.546875 -0.28125 -1.171875 -0.28125q-1.015625 0 -1.703125 0.390625q-0.6875 0.375 -1.046875 1.125q-0.34375 0.734375 -0.34375 1.8125q0 1.015625 0.421875 1.78125q0.421875 0.75 1.203125 1.171875q0.796875 0.40625 1.8125 0.40625q0.734375 0 1.359375 -0.234375q0.625 -0.25 1.359375 -0.890625l0.96875 1.359375q-0.453125 0.453125 -1.09375 0.796875q-0.640625 0.328125 -1.359375 0.53125q-0.71875 0.1875 -1.421875 0.1875zm14.796936 -0.1875l-4.140625 -9.796875l2.078125 0l2.984375 7.328125l-0.359375 0.171875l3.1875 -7.5l1.984375 0l-4.34375 9.796875l-1.390625 0zm7.877533 0l-0.609375 -1.53125l3.984375 -4.5q0.3125 -0.328125 0.65625 -0.765625q0.359375 -0.4375 0.671875 -0.90625q0.3125 -0.46875 0.5 -0.921875q0.203125 -0.453125 0.203125 -0.875q0 -0.59375 -0.234375 -1.015625q-0.234375 -0.421875 -0.671875 -0.640625q-0.4375 -0.21875 -1.046875 -0.21875q-0.546875 0 -1.078125 0.3125q-0.515625 0.3125 -0.9375 0.890625q-0.421875 0.578125 -0.671875 1.34375l-1.546875 -0.96875q0.3125 -1.078125 0.953125 -1.84375q0.65625 -0.78125 1.546875 -1.1875q0.90625 -0.421875 1.96875 -0.421875q1.109375 0 1.96875 0.46875q0.859375 0.453125 1.34375 1.265625q0.484375 0.8125 0.484375 1.875q0 0.421875 -0.09375 0.875q-0.09375 0.4375 -0.296875 0.921875q-0.203125 0.46875 -0.53125 0.984375q-0.3125 0.515625 -0.75 1.078125q-0.4375 0.5625 -1.0 1.171875l-2.96875 3.234375l-0.375 -0.5625l6.421875 0l0 1.9375l-7.890625 0zm19.119263 3.46875q-2.265625 -1.421875 -3.46875 -3.546875q-1.1875 -2.125 -1.1875 -4.734375q0 -2.59375 1.203125 -4.71875q1.203125 -2.140625 3.46875 -3.5625l1.03125 1.15625q-1.90625 1.328125 -2.90625 3.171875q-0.984375 1.828125 -0.984375 3.953125q0 2.125 0.984375 3.96875q1.0 1.828125 2.90625 3.15625l-1.046875 1.15625zm3.250061 -3.46875l0 -13.0625l5.3125 0q1.0625 0 1.921875 0.53125q0.875 0.53125 1.390625 1.453125q0.53125 0.90625 0.53125 2.03125q0 1.125 -0.53125 2.046875q-0.515625 0.90625 -1.390625 1.453125q-0.859375 0.546875 -1.921875 0.546875l-3.296875 0l0 5.0l-2.015625 0zm2.015625 -6.9375l3.265625 0q0.5 0 0.90625 -0.28125q0.421875 -0.296875 0.671875 -0.765625q0.25 -0.484375 0.25 -1.0625q0 -0.578125 -0.25 -1.046875q-0.25 -0.46875 -0.671875 -0.75q-0.40625 -0.28125 -0.90625 -0.28125l-3.265625 0l0 4.1875zm13.547668 7.125q-1.4375 0 -2.578125 -0.65625q-1.125 -0.671875 -1.78125 -1.8125q-0.640625 -1.15625 -0.640625 -2.625q0 -1.46875 0.640625 -2.609375q0.65625 -1.15625 1.78125 -1.8125q1.140625 -0.671875 2.578125 -0.671875q1.40625 0 2.53125 0.671875q1.140625 0.65625 1.796875 1.8125q0.65625 1.140625 0.65625 2.609375q0 1.46875 -0.65625 2.625q-0.65625 1.140625 -1.796875 1.8125q-1.125 0.65625 -2.53125 0.65625zm0 -1.75q0.875 0 1.5625 -0.4375q0.6875 -0.4375 1.078125 -1.1875q0.390625 -0.765625 0.375 -1.71875q0.015625 -0.96875 -0.375 -1.71875q-0.390625 -0.765625 -1.078125 -1.1875q-0.6875 -0.4375 -1.5625 -0.4375q-0.875 0 -1.578125 0.4375q-0.703125 0.4375 -1.09375 1.203125q-0.390625 0.75 -0.375 1.703125q-0.015625 0.953125 0.375 1.71875q0.390625 0.75 1.09375 1.1875q0.703125 0.4375 1.578125 0.4375zm7.0986023 1.5625l0 -13.8125l1.921875 0l0 13.8125l-1.921875 0zm6.012085 4.296875l1.984375 -4.578125l0.015625 1.53125l-4.890625 -11.046875l2.234375 0l3.0625 7.203125q0.09375 0.1875 0.21875 0.578125q0.140625 0.375 0.234375 0.75l-0.484375 0.109375q0.140625 -0.390625 0.28125 -0.78125q0.140625 -0.390625 0.265625 -0.78125l2.5625 -7.078125l2.28125 0l-4.03125 9.796875l-1.65625 4.296875l-2.078125 0zm15.151794 -4.109375q-1.390625 0 -2.5625 -0.5q-1.15625 -0.515625 -2.03125 -1.40625q-0.859375 -0.90625 -1.34375 -2.125q-0.46875 -1.234375 -0.46875 -2.6875q0 -1.453125 0.46875 -2.671875q0.484375 -1.21875 1.34375 -2.125q0.875 -0.90625 2.03125 -1.40625q1.171875 -0.515625 2.5625 -0.515625q1.375 0 2.53125 0.515625q1.171875 0.5 2.046875 1.421875q0.875 0.90625 1.34375 2.125q0.46875 1.21875 0.46875 2.65625q0 1.4375 -0.46875 2.65625q-0.46875 1.21875 -1.34375 2.140625q-0.875 0.90625 -2.046875 1.421875q-1.15625 0.5 -2.53125 0.5zm0 -1.953125q0.953125 0 1.734375 -0.359375q0.796875 -0.359375 1.375 -1.0q0.578125 -0.640625 0.90625 -1.5q0.328125 -0.875 0.328125 -1.90625q0 -1.03125 -0.328125 -1.890625q-0.328125 -0.875 -0.90625 -1.515625q-0.578125 -0.640625 -1.375 -0.984375q-0.78125 -0.359375 -1.734375 -0.359375q-0.953125 0 -1.75 0.359375q-0.796875 0.34375 -1.390625 0.984375q-0.578125 0.625 -0.890625 1.5q-0.3125 0.859375 -0.3125 1.90625q0 1.03125 0.3125 1.90625q0.3125 0.875 0.890625 1.515625q0.59375 0.625 1.390625 0.984375q0.796875 0.359375 1.75 0.359375zm13.151672 1.953125q-1.0625 0 -1.96875 -0.28125q-0.90625 -0.28125 -1.640625 -0.84375q-0.734375 -0.578125 -1.3125 -1.40625l1.375 -1.59375q0.921875 1.3125 1.75 1.8125q0.84375 0.5 2.0 0.5q0.703125 0 1.28125 -0.21875q0.578125 -0.234375 0.90625 -0.625q0.34375 -0.390625 0.34375 -0.890625q0 -0.328125 -0.109375 -0.625q-0.109375 -0.3125 -0.34375 -0.546875q-0.234375 -0.25 -0.59375 -0.453125q-0.359375 -0.203125 -0.84375 -0.359375q-0.484375 -0.15625 -1.125 -0.265625q-1.0 -0.21875 -1.75 -0.546875q-0.75 -0.34375 -1.25 -0.84375q-0.5 -0.5 -0.75 -1.140625q-0.25 -0.640625 -0.25 -1.453125q0 -0.78125 0.34375 -1.453125q0.359375 -0.671875 0.953125 -1.15625q0.609375 -0.5 1.421875 -0.765625q0.828125 -0.28125 1.78125 -0.28125q1.015625 0 1.84375 0.265625q0.84375 0.265625 1.5 0.78125q0.65625 0.5 1.078125 1.25l-1.421875 1.40625q-0.359375 -0.625 -0.828125 -1.03125q-0.46875 -0.421875 -1.03125 -0.640625q-0.5625 -0.21875 -1.1875 -0.21875q-0.734375 0 -1.28125 0.234375q-0.53125 0.21875 -0.84375 0.625q-0.3125 0.390625 -0.3125 0.9375q0 0.390625 0.15625 0.71875q0.15625 0.328125 0.453125 0.578125q0.3125 0.25 0.828125 0.453125q0.53125 0.1875 1.25 0.328125q1.03125 0.234375 1.828125 0.578125q0.8125 0.34375 1.359375 0.8125q0.5625 0.46875 0.84375 1.046875q0.296875 0.578125 0.296875 1.25q0 1.25 -0.578125 2.171875q-0.578125 0.90625 -1.640625 1.40625q-1.0625 0.484375 -2.53125 0.484375zm12.740265 -0.1875l-0.609375 -1.53125l3.984375 -4.5q0.3125 -0.328125 0.65625 -0.765625q0.359375 -0.4375 0.671875 -0.90625q0.3125 -0.46875 0.5 -0.921875q0.203125 -0.453125 0.203125 -0.875q0 -0.59375 -0.234375 -1.015625q-0.234375 -0.421875 -0.671875 -0.640625q-0.4375 -0.21875 -1.046875 -0.21875q-0.546875 0 -1.078125 0.3125q-0.515625 0.3125 -0.9375 0.890625q-0.421875 0.578125 -0.671875 1.34375l-1.546875 -0.96875q0.3125 -1.078125 0.953125 -1.84375q0.65625 -0.78125 1.546875 -1.1875q0.90625 -0.421875 1.96875 -0.421875q1.109375 0 1.96875 0.46875q0.859375 0.453125 1.34375 1.265625q0.484375 0.8125 0.484375 1.875q0 0.421875 -0.09375 0.875q-0.09375 0.4375 -0.296875 0.921875q-0.203125 0.46875 -0.53125 0.984375q-0.3125 0.515625 -0.75 1.078125q-0.4375 0.5625 -1.0 1.171875l-2.96875 3.234375l-0.375 -0.5625l6.421875 0l0 1.9375l-7.890625 0zm9.895508 3.46875l-1.03125 -1.15625q1.90625 -1.328125 2.890625 -3.15625q1.0 -1.84375 1.0 -3.96875q0 -2.125 -1.0 -3.953125q-0.984375 -1.84375 -2.890625 -3.171875l1.046875 -1.15625q2.265625 1.421875 3.453125 3.546875q1.203125 2.125 1.203125 4.734375q0 2.59375 -1.203125 4.734375q-1.203125 2.125 -3.46875 3.546875z" fill="#ffffff"></path><path fill-rule="evenodd" d="m399.81628 405.94357l247.62201 0l0 42.015747l-247.62201 0z" fill-opacity="0.0" fill="#000000"></path><path fill-rule="nonzero" d="m410.6444 432.86356l0 -13.0625l1.8125 0l7.984375 10.6875l-0.296875 0.171875q-0.078125 -0.46875 -0.140625 -1.015625q-0.046875 -0.546875 -0.09375 -1.171875q-0.046875 -0.625 -0.078125 -1.328125q-0.03125 -0.703125 -0.046875 -1.46875q-0.015625 -0.765625 -0.015625 -1.578125l0 -4.296875l2.015625 0l0 13.0625l-1.84375 0l-7.859375 -10.296875l0.203125 -0.265625q0.09375 1.140625 0.15625 1.9375q0.0625 0.796875 0.109375 1.34375q0.046875 0.546875 0.0625 0.890625q0.03125 0.34375 0.03125 0.578125q0.015625 0.21875 0.015625 0.390625l0 5.421875l-2.015625 0zm18.075653 0.1875q-1.203125 0 -2.203125 -0.671875q-1.0 -0.671875 -1.609375 -1.828125q-0.59375 -1.15625 -0.59375 -2.609375q0 -1.484375 0.609375 -2.625q0.609375 -1.140625 1.640625 -1.796875q1.046875 -0.65625 2.328125 -0.65625q0.765625 0 1.390625 0.234375q0.640625 0.21875 1.109375 0.625q0.484375 0.390625 0.78125 0.921875q0.3125 0.515625 0.390625 1.109375l-0.421875 -0.140625l0 -2.546875l1.9375 0l0 9.796875l-1.9375 0l0 -2.328125l0.4375 -0.140625q-0.109375 0.515625 -0.453125 1.0q-0.34375 0.46875 -0.875 0.84375q-0.53125 0.359375 -1.171875 0.59375q-0.640625 0.21875 -1.359375 0.21875zm0.5 -1.765625q0.890625 0 1.546875 -0.421875q0.671875 -0.4375 1.046875 -1.1875q0.390625 -0.765625 0.390625 -1.734375q0 -0.953125 -0.390625 -1.703125q-0.375 -0.75 -1.046875 -1.171875q-0.65625 -0.4375 -1.546875 -0.4375q-0.859375 0 -1.515625 0.4375q-0.65625 0.421875 -1.046875 1.171875q-0.375 0.75 -0.375 1.703125q0 0.96875 0.375 1.734375q0.390625 0.75 1.046875 1.1875q0.65625 0.421875 1.515625 0.421875zm7.543762 1.578125l0 -9.796875l1.921875 0l0 2.015625l-0.34375 0.21875q0.1875 -0.640625 0.734375 -1.1875q0.546875 -0.5625 1.28125 -0.90625q0.75 -0.34375 1.53125 -0.34375q1.125 0 1.859375 0.4375q0.75 0.4375 1.125 1.34375q0.375 0.890625 0.375 2.25l0 5.96875l-1.921875 0l0 -5.84375q0 -0.828125 -0.21875 -1.375q-0.21875 -0.5625 -0.6875 -0.8125q-0.46875 -0.25 -1.15625 -0.21875q-0.5625 0 -1.03125 0.1875q-0.46875 0.171875 -0.8125 0.5q-0.34375 0.3125 -0.546875 0.734375q-0.1875 0.40625 -0.1875 0.890625l0 5.9375l-0.953125 0q-0.234375 0 -0.484375 0q-0.25 0 -0.484375 0zm11.100464 4.109375l0 -13.90625l1.9375 0l0 2.234375l-0.296875 -0.15625q0.109375 -0.5625 0.625 -1.078125q0.53125 -0.515625 1.28125 -0.84375q0.765625 -0.328125 1.5625 -0.328125q1.328125 0 2.34375 0.65625q1.03125 0.65625 1.625 1.796875q0.609375 1.140625 0.609375 2.609375q0 1.453125 -0.59375 2.609375q-0.59375 1.140625 -1.625 1.8125q-1.015625 0.65625 -2.296875 0.65625q-0.859375 0 -1.671875 -0.34375q-0.796875 -0.34375 -1.359375 -0.890625q-0.5625 -0.546875 -0.6875 -1.125l0.484375 -0.25l0 6.546875l-1.9375 0zm4.84375 -5.71875q0.859375 0 1.53125 -0.421875q0.671875 -0.4375 1.0625 -1.171875q0.390625 -0.75 0.390625 -1.703125q0 -0.953125 -0.390625 -1.6875q-0.375 -0.734375 -1.046875 -1.15625q-0.65625 -0.4375 -1.546875 -0.4375q-0.875 0 -1.546875 0.421875q-0.671875 0.421875 -1.0625 1.171875q-0.390625 0.734375 -0.390625 1.6875q0 0.953125 0.390625 1.703125q0.390625 0.734375 1.0625 1.171875q0.671875 0.421875 1.546875 0.421875zm10.365845 1.796875q-1.046875 0 -1.828125 -0.484375q-0.765625 -0.484375 -1.1875 -1.359375q-0.421875 -0.875 -0.421875 -2.09375l0 -6.046875l1.921875 0l0 5.53125q0 0.84375 0.265625 1.46875q0.28125 0.625 0.78125 0.96875q0.515625 0.328125 1.25 0.328125q0.53125 0 0.984375 -0.171875q0.453125 -0.171875 0.78125 -0.484375q0.328125 -0.328125 0.5 -0.765625q0.1875 -0.453125 0.1875 -0.984375l0 -5.890625l1.921875 0l0 9.796875l-1.921875 0l0 -2.046875l0.34375 -0.234375q-0.21875 0.703125 -0.75 1.265625q-0.53125 0.546875 -1.265625 0.875q-0.734375 0.328125 -1.5625 0.328125zm13.557678 -0.1875l0 -13.0625l5.453125 0q1.25 0 2.109375 0.375q0.859375 0.375 1.296875 1.109375q0.4375 0.734375 0.4375 1.796875q0 1.0625 -0.59375 1.8125q-0.59375 0.75 -1.625 1.03125l0 -0.375q0.875 0.1875 1.515625 0.671875q0.65625 0.46875 1.015625 1.1875q0.375 0.703125 0.375 1.609375q0 0.9375 -0.296875 1.65625q-0.28125 0.71875 -0.859375 1.203125q-0.5625 0.484375 -1.375 0.734375q-0.796875 0.25 -1.8125 0.25l-5.640625 0zm2.015625 -1.9375l3.5 0q0.765625 0 1.296875 -0.21875q0.53125 -0.234375 0.8125 -0.671875q0.296875 -0.4375 0.296875 -1.046875q0 -0.578125 -0.3125 -0.984375q-0.296875 -0.421875 -0.859375 -0.625q-0.5625 -0.21875 -1.328125 -0.21875l-3.40625 0l0 3.765625zm0 -5.71875l3.3125 0q0.5625 0 1.0 -0.21875q0.4375 -0.21875 0.6875 -0.609375q0.265625 -0.390625 0.265625 -0.90625q0 -0.828125 -0.5625 -1.28125q-0.5625 -0.453125 -1.609375 -0.453125l-3.09375 0l0 3.46875zm10.204895 7.65625l0 -9.796875l1.9375 0l0 3.078125l-0.1875 -0.75q0.203125 -0.703125 0.703125 -1.28125q0.5 -0.578125 1.140625 -0.90625q0.640625 -0.34375 1.328125 -0.34375q0.3125 0 0.59375 0.0625q0.296875 0.046875 0.46875 0.125l-0.5 2.09375q-0.21875 -0.09375 -0.5 -0.15625q-0.265625 -0.078125 -0.53125 -0.078125q-0.5 0 -0.953125 0.203125q-0.453125 0.1875 -0.8125 0.546875q-0.34375 0.34375 -0.546875 0.796875q-0.203125 0.453125 -0.203125 1.0l0 5.40625l-1.9375 0zm7.830963 0l0 -9.796875l1.921875 0l0 9.796875l-1.921875 0zm0.9375 -11.953125q-0.609375 0 -0.953125 -0.3125q-0.328125 -0.328125 -0.328125 -0.90625q0 -0.546875 0.34375 -0.875q0.34375 -0.34375 0.9375 -0.34375q0.609375 0 0.9375 0.328125q0.34375 0.3125 0.34375 0.890625q0 0.546875 -0.34375 0.890625q-0.34375 0.328125 -0.9375 0.328125zm8.014557 12.140625q-1.34375 0 -2.390625 -0.65625q-1.046875 -0.671875 -1.671875 -1.8125q-0.609375 -1.15625 -0.609375 -2.625q0 -1.46875 0.59375 -2.609375q0.609375 -1.15625 1.65625 -1.8125q1.046875 -0.671875 2.375 -0.671875q0.71875 0 1.40625 0.234375q0.6875 0.234375 1.21875 0.640625q0.546875 0.390625 0.84375 0.875q0.3125 0.46875 0.3125 0.953125l-0.5625 0.046875l0 -6.5625l1.921875 0l0 13.8125l-1.921875 0l0 -2.328125l0.375 0q0 0.4375 -0.296875 0.890625q-0.296875 0.4375 -0.796875 0.8125q-0.484375 0.359375 -1.140625 0.59375q-0.640625 0.21875 -1.3125 0.21875zm0.265625 -1.65625q0.875 0 1.546875 -0.453125q0.671875 -0.453125 1.046875 -1.21875q0.390625 -0.78125 0.390625 -1.765625q0 -0.984375 -0.390625 -1.75q-0.375 -0.78125 -1.046875 -1.234375q-0.671875 -0.453125 -1.546875 -0.453125q-0.875 0 -1.546875 0.453125q-0.671875 0.453125 -1.0625 1.234375q-0.375 0.765625 -0.375 1.75q0 0.984375 0.375 1.765625q0.390625 0.765625 1.0625 1.21875q0.671875 0.453125 1.546875 0.453125zm11.8749695 5.765625q-1.046875 0 -2.09375 -0.328125q-1.03125 -0.328125 -1.65625 -0.859375l0.703125 -1.484375q0.375 0.28125 0.875 0.484375q0.5 0.21875 1.0625 0.34375q0.5625 0.125 1.109375 0.125q1.015625 0 1.703125 -0.34375q0.703125 -0.328125 1.046875 -0.984375q0.359375 -0.65625 0.359375 -1.625l0 -1.875l0.203125 0.125q-0.09375 0.578125 -0.609375 1.109375q-0.515625 0.53125 -1.28125 0.875q-0.75 0.328125 -1.5625 0.328125q-1.390625 0 -2.484375 -0.65625q-1.09375 -0.671875 -1.734375 -1.8125q-0.625 -1.15625 -0.625 -2.625q0 -1.46875 0.625 -2.609375q0.625 -1.15625 1.703125 -1.8125q1.09375 -0.671875 2.46875 -0.671875q0.546875 0 1.0625 0.140625q0.53125 0.140625 0.984375 0.390625q0.453125 0.25 0.796875 0.546875q0.359375 0.296875 0.578125 0.640625q0.234375 0.328125 0.28125 0.625l-0.40625 0.15625l0 -2.296875l1.921875 0l0 9.203125q0 1.171875 -0.34375 2.078125q-0.34375 0.90625 -1.0 1.53125q-0.65625 0.625 -1.59375 0.953125q-0.921875 0.328125 -2.09375 0.328125zm0.0625 -5.875q0.921875 0 1.625 -0.421875q0.71875 -0.4375 1.109375 -1.1875q0.390625 -0.75 0.390625 -1.71875q0 -0.96875 -0.40625 -1.71875q-0.40625 -0.765625 -1.109375 -1.1875q-0.6875 -0.4375 -1.609375 -0.4375q-0.890625 0 -1.59375 0.4375q-0.703125 0.4375 -1.109375 1.203125q-0.390625 0.75 -0.390625 1.703125q0 0.953125 0.390625 1.71875q0.40625 0.75 1.109375 1.1875q0.703125 0.421875 1.59375 0.421875zm12.217285 1.765625q-1.5 0 -2.671875 -0.640625q-1.15625 -0.640625 -1.828125 -1.765625q-0.65625 -1.125 -0.65625 -2.578125q0 -1.15625 0.375 -2.109375q0.375 -0.953125 1.03125 -1.640625q0.65625 -0.703125 1.578125 -1.078125q0.9375 -0.390625 2.015625 -0.390625q0.953125 0 1.765625 0.359375q0.828125 0.359375 1.421875 1.0q0.609375 0.640625 0.9375 1.515625q0.328125 0.859375 0.3125 1.875l-0.015625 0.828125l-8.0 0l-0.4375 -1.53125l6.765625 0l-0.265625 0.3125l0 -0.4375q-0.0625 -0.625 -0.421875 -1.109375q-0.34375 -0.484375 -0.890625 -0.765625q-0.546875 -0.28125 -1.171875 -0.28125q-1.015625 0 -1.703125 0.390625q-0.6875 0.375 -1.046875 1.125q-0.34375 0.734375 -0.34375 1.8125q0 1.015625 0.421875 1.78125q0.421875 0.75 1.203125 1.171875q0.796875 0.40625 1.8125 0.40625q0.734375 0 1.359375 -0.234375q0.625 -0.25 1.359375 -0.890625l0.96875 1.359375q-0.453125 0.453125 -1.09375 0.796875q-0.640625 0.328125 -1.359375 0.53125q-0.71875 0.1875 -1.421875 0.1875zm15.656311 3.28125q-2.265625 -1.421875 -3.46875 -3.546875q-1.1875 -2.125 -1.1875 -4.734375q0 -2.59375 1.203125 -4.71875q1.203125 -2.140625 3.46875 -3.5625l1.03125 1.15625q-1.90625 1.328125 -2.90625 3.171875q-0.984375 1.828125 -0.984375 3.953125q0 2.125 0.984375 3.96875q1.0 1.828125 2.90625 3.15625l-1.046875 1.15625zm3.250061 -3.46875l0 -13.0625l5.3125 0q1.0625 0 1.921875 0.53125q0.875 0.53125 1.390625 1.453125q0.53125 0.90625 0.53125 2.03125q0 1.125 -0.53125 2.046875q-0.515625 0.90625 -1.390625 1.453125q-0.859375 0.546875 -1.921875 0.546875l-3.296875 0l0 5.0l-2.015625 0zm2.015625 -6.9375l3.265625 0q0.5 0 0.90625 -0.28125q0.421875 -0.296875 0.671875 -0.765625q0.25 -0.484375 0.25 -1.0625q0 -0.578125 -0.25 -1.046875q-0.25 -0.46875 -0.671875 -0.75q-0.40625 -0.28125 -0.90625 -0.28125l-3.265625 0l0 4.1875zm13.547668 7.125q-1.4375 0 -2.578125 -0.65625q-1.125 -0.671875 -1.78125 -1.8125q-0.640625 -1.15625 -0.640625 -2.625q0 -1.46875 0.640625 -2.609375q0.65625 -1.15625 1.78125 -1.8125q1.140625 -0.671875 2.578125 -0.671875q1.40625 0 2.53125 0.671875q1.140625 0.65625 1.796875 1.8125q0.65625 1.140625 0.65625 2.609375q0 1.46875 -0.65625 2.625q-0.65625 1.140625 -1.796875 1.8125q-1.125 0.65625 -2.53125 0.65625zm0 -1.75q0.875 0 1.5625 -0.4375q0.6875 -0.4375 1.078125 -1.1875q0.390625 -0.765625 0.375 -1.71875q0.015625 -0.96875 -0.375 -1.71875q-0.390625 -0.765625 -1.078125 -1.1875q-0.6875 -0.4375 -1.5625 -0.4375q-0.875 0 -1.578125 0.4375q-0.703125 0.4375 -1.09375 1.203125q-0.390625 0.75 -0.375 1.703125q-0.015625 0.953125 0.375 1.71875q0.390625 0.75 1.09375 1.1875q0.703125 0.4375 1.578125 0.4375zm7.098572 1.5625l0 -13.8125l1.921875 0l0 13.8125l-1.921875 0zm6.012085 4.296875l1.984375 -4.578125l0.015625 1.53125l-4.890625 -11.046875l2.234375 0l3.0625 7.203125q0.09375 0.1875 0.21875 0.578125q0.140625 0.375 0.234375 0.75l-0.484375 0.109375q0.140625 -0.390625 0.28125 -0.78125q0.140625 -0.390625 0.265625 -0.78125l2.5625 -7.078125l2.28125 0l-4.03125 9.796875l-1.65625 4.296875l-2.078125 0zm15.151794 -4.109375q-1.390625 0 -2.5625 -0.5q-1.15625 -0.515625 -2.03125 -1.40625q-0.859375 -0.90625 -1.34375 -2.125q-0.46875 -1.234375 -0.46875 -2.6875q0 -1.453125 0.46875 -2.671875q0.484375 -1.21875 1.34375 -2.125q0.875 -0.90625 2.03125 -1.40625q1.171875 -0.515625 2.5625 -0.515625q1.375 0 2.53125 0.515625q1.171875 0.5 2.046875 1.421875q0.875 0.90625 1.34375 2.125q0.46875 1.21875 0.46875 2.65625q0 1.4375 -0.46875 2.65625q-0.46875 1.21875 -1.34375 2.140625q-0.875 0.90625 -2.046875 1.421875q-1.15625 0.5 -2.53125 0.5zm0 -1.953125q0.953125 0 1.734375 -0.359375q0.796875 -0.359375 1.375 -1.0q0.578125 -0.640625 0.90625 -1.5q0.328125 -0.875 0.328125 -1.90625q0 -1.03125 -0.328125 -1.890625q-0.328125 -0.875 -0.90625 -1.515625q-0.578125 -0.640625 -1.375 -0.984375q-0.78125 -0.359375 -1.734375 -0.359375q-0.953125 0 -1.75 0.359375q-0.796875 0.34375 -1.390625 0.984375q-0.578125 0.625 -0.890625 1.5q-0.3125 0.859375 -0.3125 1.90625q0 1.03125 0.3125 1.90625q0.3125 0.875 0.890625 1.515625q0.59375 0.625 1.390625 0.984375q0.796875 0.359375 1.75 0.359375zm13.151672 1.953125q-1.0625 0 -1.96875 -0.28125q-0.90625 -0.28125 -1.640625 -0.84375q-0.734375 -0.578125 -1.3125 -1.40625l1.375 -1.59375q0.921875 1.3125 1.75 1.8125q0.84375 0.5 2.0 0.5q0.703125 0 1.28125 -0.21875q0.578125 -0.234375 0.90625 -0.625q0.34375 -0.390625 0.34375 -0.890625q0 -0.328125 -0.109375 -0.625q-0.109375 -0.3125 -0.34375 -0.546875q-0.234375 -0.25 -0.59375 -0.453125q-0.359375 -0.203125 -0.84375 -0.359375q-0.484375 -0.15625 -1.125 -0.265625q-1.0 -0.21875 -1.75 -0.546875q-0.75 -0.34375 -1.25 -0.84375q-0.5 -0.5 -0.75 -1.140625q-0.25 -0.640625 -0.25 -1.453125q0 -0.78125 0.34375 -1.453125q0.359375 -0.671875 0.953125 -1.15625q0.609375 -0.5 1.421875 -0.765625q0.828125 -0.28125 1.78125 -0.28125q1.015625 0 1.84375 0.265625q0.84375 0.265625 1.5 0.78125q0.65625 0.5 1.078125 1.25l-1.421875 1.40625q-0.359375 -0.625 -0.828125 -1.03125q-0.46875 -0.421875 -1.03125 -0.640625q-0.5625 -0.21875 -1.1875 -0.21875q-0.734375 0 -1.28125 0.234375q-0.53125 0.21875 -0.84375 0.625q-0.3125 0.390625 -0.3125 0.9375q0 0.390625 0.15625 0.71875q0.15625 0.328125 0.453125 0.578125q0.3125 0.25 0.828125 0.453125q0.53125 0.1875 1.25 0.328125q1.03125 0.234375 1.828125 0.578125q0.8125 0.34375 1.359375 0.8125q0.5625 0.46875 0.84375 1.046875q0.296875 0.578125 0.296875 1.25q0 1.25 -0.578125 2.171875q-0.578125 0.90625 -1.640625 1.40625q-1.0625 0.484375 -2.53125 0.484375zm17.56842 -0.1875l0 -10.515625l0.46875 0.109375l-4.28125 5.234375l-0.078125 -0.21875l8.109375 0l0 1.84375l-9.359375 0l-0.859375 -1.671875l6.390625 -7.84375l1.546875 0l0 13.0625l-1.9375 0zm6.4106445 3.46875l-1.03125 -1.15625q1.90625 -1.328125 2.890625 -3.15625q1.0 -1.84375 1.0 -3.96875q0 -2.125 -1.0 -3.953125q-0.984375 -1.84375 -2.890625 -3.171875l1.046875 -1.15625q2.265625 1.421875 3.453125 3.546875q1.203125 2.125 1.203125 4.734375q0 2.59375 -1.203125 4.734375q-1.203125 2.125 -3.46875 3.546875z" fill="#ffffff"></path><path fill-rule="evenodd" d="m456.19684 342.03937l247.62207 0l0 42.015747l-247.62207 0z" fill-opacity="0.0" fill="#000000"></path><path fill-rule="nonzero" d="m471.0562 369.14688q-1.0625 0 -1.96875 -0.28125q-0.90625 -0.28125 -1.640625 -0.84375q-0.734375 -0.578125 -1.3125 -1.40625l1.375 -1.59375q0.921875 1.3125 1.75 1.8125q0.84375 0.5 2.0 0.5q0.703125 0 1.28125 -0.21875q0.578125 -0.234375 0.90625 -0.625q0.34375 -0.390625 0.34375 -0.890625q0 -0.328125 -0.109375 -0.625q-0.109375 -0.3125 -0.34375 -0.546875q-0.234375 -0.25 -0.59375 -0.453125q-0.359375 -0.203125 -0.84375 -0.359375q-0.484375 -0.15625 -1.125 -0.265625q-1.0 -0.21875 -1.75 -0.546875q-0.75 -0.34375 -1.25 -0.84375q-0.5 -0.5 -0.75 -1.140625q-0.25 -0.640625 -0.25 -1.453125q0 -0.78125 0.34375 -1.453125q0.359375 -0.671875 0.953125 -1.15625q0.609375 -0.5 1.421875 -0.765625q0.828125 -0.28125 1.78125 -0.28125q1.015625 0 1.84375 0.265625q0.84375 0.265625 1.5 0.78125q0.65625 0.5 1.078125 1.25l-1.421875 1.40625q-0.359375 -0.625 -0.828125 -1.03125q-0.46875 -0.421875 -1.03125 -0.640625q-0.5625 -0.21875 -1.1875 -0.21875q-0.734375 0 -1.28125 0.234375q-0.53125 0.21875 -0.84375 0.625q-0.3125 0.390625 -0.3125 0.9375q0 0.390625 0.15625 0.71875q0.15625 0.328125 0.453125 0.578125q0.3125 0.25 0.828125 0.453125q0.53125 0.1875 1.25 0.328125q1.03125 0.234375 1.828125 0.578125q0.8125 0.34375 1.359375 0.8125q0.5625 0.46875 0.84375 1.046875q0.296875 0.578125 0.296875 1.25q0 1.25 -0.578125 2.171875q-0.578125 0.90625 -1.640625 1.40625q-1.0625 0.484375 -2.53125 0.484375zm10.563385 0q-1.046875 0 -1.828125 -0.484375q-0.765625 -0.484375 -1.1875 -1.359375q-0.421875 -0.875 -0.421875 -2.09375l0 -6.046875l1.921875 0l0 5.53125q0 0.84375 0.265625 1.46875q0.28125 0.625 0.78125 0.96875q0.515625 0.328125 1.25 0.328125q0.53125 0 0.984375 -0.171875q0.453125 -0.171875 0.78125 -0.484375q0.328125 -0.328125 0.5 -0.765625q0.1875 -0.453125 0.1875 -0.984375l0 -5.890625l1.921875 0l0 9.796875l-1.921875 0l0 -2.046875l0.34375 -0.234375q-0.21875 0.703125 -0.75 1.265625q-0.53125 0.546875 -1.265625 0.875q-0.734375 0.328125 -1.5625 0.328125zm7.8495483 -0.1875l0 -9.796875l1.921875 0l0 2.015625l-0.34375 0.21875q0.1875 -0.640625 0.734375 -1.1875q0.546875 -0.5625 1.28125 -0.90625q0.75 -0.34375 1.53125 -0.34375q1.125 0 1.859375 0.4375q0.75 0.4375 1.125 1.34375q0.375 0.890625 0.375 2.25l0 5.96875l-1.921875 0l0 -5.84375q0 -0.828125 -0.21875 -1.375q-0.21875 -0.5625 -0.6875 -0.8125q-0.46875 -0.25 -1.15625 -0.21875q-0.5625 0 -1.03125 0.1875q-0.46875 0.171875 -0.8125 0.5q-0.34375 0.3125 -0.546875 0.734375q-0.1875 0.40625 -0.1875 0.890625l0 5.9375l-0.953125 0q-0.234375 0 -0.484375 0q-0.25 0 -0.484375 0zm14.366089 0.1875q-1.234375 0 -2.21875 -0.421875q-0.984375 -0.4375 -1.640625 -1.28125l1.296875 -1.109375q0.5625 0.640625 1.21875 0.9375q0.671875 0.28125 1.515625 0.28125q0.328125 0 0.609375 -0.078125q0.296875 -0.078125 0.515625 -0.25q0.21875 -0.171875 0.328125 -0.40625q0.109375 -0.234375 0.109375 -0.515625q0 -0.484375 -0.359375 -0.78125q-0.1875 -0.125 -0.59375 -0.28125q-0.390625 -0.15625 -1.03125 -0.328125q-1.078125 -0.28125 -1.765625 -0.625q-0.6875 -0.359375 -1.0625 -0.8125q-0.28125 -0.359375 -0.421875 -0.765625q-0.125 -0.421875 -0.125 -0.9375q0 -0.609375 0.265625 -1.125q0.28125 -0.515625 0.75 -0.890625q0.484375 -0.390625 1.125 -0.59375q0.640625 -0.203125 1.375 -0.203125q0.6875 0 1.359375 0.1875q0.6875 0.1875 1.265625 0.546875q0.578125 0.34375 0.96875 0.828125l-1.09375 1.21875q-0.359375 -0.359375 -0.78125 -0.625q-0.421875 -0.265625 -0.859375 -0.40625q-0.421875 -0.15625 -0.765625 -0.15625q-0.390625 0 -0.71875 0.078125q-0.3125 0.0625 -0.53125 0.21875q-0.203125 0.140625 -0.328125 0.375q-0.109375 0.21875 -0.109375 0.5q0.015625 0.234375 0.125 0.453125q0.109375 0.21875 0.296875 0.359375q0.203125 0.15625 0.609375 0.328125q0.40625 0.15625 1.046875 0.3125q0.921875 0.234375 1.53125 0.53125q0.609375 0.28125 0.96875 0.65625q0.375 0.359375 0.515625 0.828125q0.15625 0.46875 0.15625 1.046875q0 0.828125 -0.484375 1.5q-0.46875 0.65625 -1.28125 1.03125q-0.796875 0.375 -1.78125 0.375zm10.233185 0q-1.5 0 -2.6718445 -0.640625q-1.15625 -0.640625 -1.828125 -1.765625q-0.65625 -1.125 -0.65625 -2.578125q0 -1.15625 0.375 -2.109375q0.375 -0.953125 1.03125 -1.640625q0.65625 -0.703125 1.578125 -1.078125q0.9374695 -0.390625 2.0155945 -0.390625q0.953125 0 1.765625 0.359375q0.828125 0.359375 1.421875 1.0q0.609375 0.640625 0.9375 1.515625q0.328125 0.859375 0.3125 1.875l-0.015625 0.828125l-7.9999695 0l-0.4375 -1.53125l6.7655945 0l-0.265625 0.3125l0 -0.4375q-0.0625 -0.625 -0.421875 -1.109375q-0.34375 -0.484375 -0.890625 -0.765625q-0.546875 -0.28125 -1.171875 -0.28125q-1.015625 0 -1.703125 0.390625q-0.6874695 0.375 -1.0468445 1.125q-0.34375 0.734375 -0.34375 1.8125q0 1.015625 0.421875 1.78125q0.421875 0.75 1.2030945 1.171875q0.796875 0.40625 1.8125 0.40625q0.734375 0 1.359375 -0.234375q0.625 -0.25 1.359375 -0.890625l0.96875 1.359375q-0.453125 0.453125 -1.09375 0.796875q-0.640625 0.328125 -1.359375 0.53125q-0.71875 0.1875 -1.421875 0.1875zm7.588867 -0.1875l0 -12.296875l1.921875 0l0 12.296875l-1.921875 0zm-2.046875 -7.921875l0 -1.875l6.234375 0l0 1.875l-6.234375 0z" fill="#ffffff"></path><path fill-rule="evenodd" d="m476.958 269.46982l247.62207 0l0 42.015747l-247.62207 0z" fill-opacity="0.0" fill="#000000"></path><path fill-rule="nonzero" d="m493.083 296.5773q-1.359375 0 -2.5 -0.484375q-1.140625 -0.484375 -1.984375 -1.390625q-0.828125 -0.90625 -1.296875 -2.140625q-0.453125 -1.234375 -0.453125 -2.703125q0 -1.390625 0.5 -2.59375q0.5 -1.203125 1.375 -2.109375q0.875 -0.921875 2.03125 -1.421875q1.15625 -0.515625 2.5 -0.515625q0.953125 0 1.859375 0.296875q0.90625 0.28125 1.640625 0.796875q0.734375 0.515625 1.203125 1.171875l-1.34375 1.390625q-0.546875 -0.546875 -1.09375 -0.90625q-0.546875 -0.359375 -1.125 -0.546875q-0.5625 -0.1875 -1.140625 -0.1875q-0.921875 0 -1.71875 0.34375q-0.78125 0.34375 -1.375 0.96875q-0.578125 0.609375 -0.921875 1.46875q-0.328125 0.84375 -0.328125 1.84375q0 1.0625 0.3125 1.9375q0.328125 0.859375 0.921875 1.484375q0.609375 0.609375 1.4375 0.9375q0.828125 0.328125 1.84375 0.328125q0.609375 0 1.203125 -0.171875q0.59375 -0.171875 1.109375 -0.484375q0.53125 -0.3125 0.96875 -0.75l1.0 1.640625q-0.421875 0.515625 -1.171875 0.921875q-0.734375 0.40625 -1.640625 0.640625q-0.890625 0.234375 -1.8125 0.234375zm11.292603 0q-1.4375 0 -2.578125 -0.65625q-1.125 -0.671875 -1.78125 -1.8125q-0.640625 -1.15625 -0.640625 -2.625q0 -1.46875 0.640625 -2.609375q0.65625 -1.15625 1.78125 -1.8125q1.140625 -0.671875 2.578125 -0.671875q1.40625 0 2.53125 0.671875q1.140625 0.65625 1.796875 1.8125q0.65625 1.140625 0.65625 2.609375q0 1.46875 -0.65625 2.625q-0.65625 1.140625 -1.796875 1.8125q-1.125 0.65625 -2.53125 0.65625zm0 -1.75q0.875 0 1.5625 -0.4375q0.6875 -0.4375 1.078125 -1.1875q0.390625 -0.765625 0.375 -1.71875q0.015625 -0.96875 -0.375 -1.71875q-0.390625 -0.765625 -1.078125 -1.1875q-0.6875 -0.4375 -1.5625 -0.4375q-0.875 0 -1.578125 0.4375q-0.703125 0.4375 -1.09375 1.203125q-0.390625 0.75 -0.375 1.703125q-0.015625 0.953125 0.375 1.71875q0.390625 0.75 1.09375 1.1875q0.703125 0.4375 1.578125 0.4375zm7.0361023 1.5625l0 -9.796875l1.9374695 0l0 2.09375l-0.359375 0.21875q0.15625 -0.484375 0.46875 -0.921875q0.328125 -0.453125 0.796875 -0.796875q0.484375 -0.34375 1.03125 -0.546875q0.5625 -0.21875 1.140625 -0.21875q0.828125 0 1.46875 0.28125q0.640625 0.28125 1.046875 0.84375q0.40625 0.5625 0.59375 1.40625l-0.296875 -0.078125l0.125 -0.3125q0.21875 -0.4375 0.578125 -0.8125q0.359375 -0.390625 0.828125 -0.6875q0.46875 -0.296875 0.984375 -0.46875q0.53125 -0.171875 1.03125 -0.171875q1.09375 0 1.8125 0.453125q0.71875 0.453125 1.078125 1.375q0.375 0.90625 0.375 2.265625l0 5.875l-1.9375 0l0 -5.765625q0 -0.84375 -0.21875 -1.375q-0.21875 -0.53125 -0.65625 -0.78125q-0.421875 -0.265625 -1.09375 -0.265625q-0.515625 0 -0.984375 0.1875q-0.453125 0.171875 -0.796875 0.484375q-0.328125 0.3125 -0.515625 0.734375q-0.171875 0.421875 -0.171875 0.921875l0 5.859375l-1.953125 0l0 -5.796875q0 -0.765625 -0.21875 -1.296875q-0.21875 -0.53125 -0.65625 -0.8125q-0.421875 -0.28125 -1.046875 -0.28125q-0.515625 0 -0.96875 0.1875q-0.4375 0.171875 -0.78125 0.484375q-0.328125 0.296875 -0.515625 0.71875q-0.1875 0.421875 -0.1875 0.90625l0 5.890625l-1.9374695 0zm17.182404 0l0 -9.796875l1.9375 0l0 2.09375l-0.359375 0.21875q0.15625 -0.484375 0.46875 -0.921875q0.328125 -0.453125 0.796875 -0.796875q0.484375 -0.34375 1.03125 -0.546875q0.5625 -0.21875 1.140625 -0.21875q0.828125 0 1.46875 0.28125q0.640625 0.28125 1.046875 0.84375q0.40625 0.5625 0.59375 1.40625l-0.296875 -0.078125l0.125 -0.3125q0.21875 -0.4375 0.578125 -0.8125q0.359375 -0.390625 0.828125 -0.6875q0.46875 -0.296875 0.984375 -0.46875q0.53125 -0.171875 1.03125 -0.171875q1.09375 0 1.8125 0.453125q0.71875 0.453125 1.078125 1.375q0.375 0.90625 0.375 2.265625l0 5.875l-1.9375 0l0 -5.765625q0 -0.84375 -0.21875 -1.375q-0.21875 -0.53125 -0.65625 -0.78125q-0.421875 -0.265625 -1.09375 -0.265625q-0.515625 0 -0.984375 0.1875q-0.453125 0.171875 -0.796875 0.484375q-0.328125 0.3125 -0.515625 0.734375q-0.171875 0.421875 -0.171875 0.921875l0 5.859375l-1.953125 0l0 -5.796875q0 -0.765625 -0.21875 -1.296875q-0.21875 -0.53125 -0.65625 -0.8125q-0.421875 -0.28125 -1.046875 -0.28125q-0.515625 0 -0.96875 0.1875q-0.4375 0.171875 -0.78125 0.484375q-0.328125 0.296875 -0.515625 0.71875q-0.1875 0.421875 -0.1875 0.90625l0 5.890625l-1.9375 0zm20.651123 0.1875q-1.046875 0 -1.828125 -0.484375q-0.765625 -0.484375 -1.1875 -1.359375q-0.421875 -0.875 -0.421875 -2.09375l0 -6.046875l1.921875 0l0 5.53125q0 0.84375 0.265625 1.46875q0.28125 0.625 0.78125 0.96875q0.515625 0.328125 1.25 0.328125q0.53125 0 0.984375 -0.171875q0.453125 -0.171875 0.78125 -0.484375q0.328125 -0.328125 0.5 -0.765625q0.1875 -0.453125 0.1875 -0.984375l0 -5.890625l1.921875 0l0 9.796875l-1.921875 0l0 -2.046875l0.34375 -0.234375q-0.21875 0.703125 -0.75 1.265625q-0.53125 0.546875 -1.265625 0.875q-0.734375 0.328125 -1.5625 0.328125zm7.8495483 -0.1875l0 -9.796875l1.921875 0l0 2.015625l-0.34375 0.21875q0.1875 -0.640625 0.734375 -1.1875q0.546875 -0.5625 1.28125 -0.90625q0.75 -0.34375 1.53125 -0.34375q1.125 0 1.859375 0.4375q0.75 0.4375 1.125 1.34375q0.375 0.890625 0.375 2.25l0 5.96875l-1.921875 0l0 -5.84375q0 -0.828125 -0.21875 -1.375q-0.21875 -0.5625 -0.6875 -0.8125q-0.46875 -0.25 -1.15625 -0.21875q-0.5625 0 -1.03125 0.1875q-0.46875 0.171875 -0.8125 0.5q-0.34375 0.3125 -0.546875 0.734375q-0.1875 0.40625 -0.1875 0.890625l0 5.9375l-0.953125 0q-0.234375 0 -0.484375 0q-0.25 0 -0.484375 0zm11.412964 0l0 -9.796875l1.921875 0l0 9.796875l-1.921875 0zm0.9375 -11.953125q-0.609375 0 -0.953125 -0.3125q-0.328125 -0.328125 -0.328125 -0.90625q0 -0.546875 0.34375 -0.875q0.34375 -0.34375 0.9375 -0.34375q0.609375 0 0.9375 0.328125q0.34375 0.3125 0.34375 0.890625q0 0.546875 -0.34375 0.890625q-0.34375 0.328125 -0.9375 0.328125zm5.1552124 11.953125l0 -12.296875l1.921875 0l0 12.296875l-1.921875 0zm-2.046875 -7.921875l0 -1.875l6.234375 0l0 1.875l-6.234375 0zm9.632751 12.21875l1.984375 -4.578125l0.015625 1.53125l-4.890625 -11.046875l2.234375 0l3.0625 7.203125q0.09375 0.1875 0.21875 0.578125q0.140625 0.375 0.234375 0.75l-0.484375 0.109375q0.140625 -0.390625 0.28125 -0.78125q0.140625 -0.390625 0.265625 -0.78125l2.5625 -7.078125l2.28125 0l-4.03125 9.796875l-1.65625 4.296875l-2.078125 0zm17.391113 -4.296875l0 -11.125l-3.65625 0l0 -1.9375l9.4375 0l0 1.9375l-3.765625 0l0 11.125l-2.015625 0zm7.7772827 0l0 -13.8125l1.921875 0l0 6.03125l-0.34375 0.21875q0.1875 -0.640625 0.734375 -1.1875q0.546875 -0.5625 1.28125 -0.90625q0.75 -0.34375 1.53125 -0.34375q1.125 0 1.859375 0.4375q0.75 0.4375 1.125 1.34375q0.375 0.890625 0.375 2.25l0 5.96875l-1.921875 0l0 -5.84375q0 -0.828125 -0.21875 -1.375q-0.21875 -0.5625 -0.6875 -0.8125q-0.46875 -0.25 -1.15625 -0.21875q-0.5625 0 -1.03125 0.1875q-0.46875 0.171875 -0.8125 0.5q-0.34375 0.3125 -0.546875 0.734375q-0.1875 0.40625 -0.1875 0.890625l0 5.9375l-0.953125 0q-0.234375 0 -0.484375 0q-0.25 0 -0.484375 0zm15.662964 0.1875q-1.5 0 -2.671875 -0.640625q-1.15625 -0.640625 -1.828125 -1.765625q-0.65625 -1.125 -0.65625 -2.578125q0 -1.15625 0.375 -2.109375q0.375 -0.953125 1.03125 -1.640625q0.65625 -0.703125 1.578125 -1.078125q0.9375 -0.390625 2.015625 -0.390625q0.953125 0 1.765625 0.359375q0.828125 0.359375 1.421875 1.0q0.609375 0.640625 0.9375 1.515625q0.328125 0.859375 0.3125 1.875l-0.015625 0.828125l-8.0 0l-0.4375 -1.53125l6.765625 0l-0.265625 0.3125l0 -0.4375q-0.0625 -0.625 -0.421875 -1.109375q-0.34375 -0.484375 -0.890625 -0.765625q-0.546875 -0.28125 -1.171875 -0.28125q-1.015625 0 -1.703125 0.390625q-0.6875 0.375 -1.046875 1.125q-0.34375 0.734375 -0.34375 1.8125q0 1.015625 0.421875 1.78125q0.421875 0.75 1.203125 1.171875q0.796875 0.40625 1.8125 0.40625q0.734375 0 1.359375 -0.234375q0.625 -0.25 1.359375 -0.890625l0.96875 1.359375q-0.453125 0.453125 -1.09375 0.796875q-0.640625 0.328125 -1.359375 0.53125q-0.71875 0.1875 -1.421875 0.1875zm6.338806 -0.1875l0 -9.796875l1.9375 0l0 2.09375l-0.359375 0.21875q0.15625 -0.484375 0.46875 -0.921875q0.328125 -0.453125 0.796875 -0.796875q0.484375 -0.34375 1.03125 -0.546875q0.5625 -0.21875 1.140625 -0.21875q0.828125 0 1.46875 0.28125q0.640625 0.28125 1.046875 0.84375q0.40625 0.5625 0.59375 1.40625l-0.296875 -0.078125l0.125 -0.3125q0.21875 -0.4375 0.578125 -0.8125q0.359375 -0.390625 0.828125 -0.6875q0.46875 -0.296875 0.984375 -0.46875q0.53125 -0.171875 1.03125 -0.171875q1.09375 0 1.8125 0.453125q0.71875 0.453125 1.078125 1.375q0.375 0.90625 0.375 2.265625l0 5.875l-1.9375 0l0 -5.765625q0 -0.84375 -0.21875 -1.375q-0.21875 -0.53125 -0.65625 -0.78125q-0.421875 -0.265625 -1.09375 -0.265625q-0.515625 0 -0.984375 0.1875q-0.453125 0.171875 -0.796875 0.484375q-0.328125 0.3125 -0.515625 0.734375q-0.171875 0.421875 -0.171875 0.921875l0 5.859375l-1.953125 0l0 -5.796875q0 -0.765625 -0.21875 -1.296875q-0.21875 -0.53125 -0.65625 -0.8125q-0.421875 -0.28125 -1.046875 -0.28125q-0.515625 0 -0.96875 0.1875q-0.4375 0.171875 -0.78125 0.484375q-0.328125 0.296875 -0.515625 0.71875q-0.1875 0.421875 -0.1875 0.90625l0 5.890625l-1.9375 0zm21.776184 0.1875q-1.5 0 -2.671875 -0.640625q-1.15625 -0.640625 -1.828125 -1.765625q-0.65625 -1.125 -0.65625 -2.578125q0 -1.15625 0.375 -2.109375q0.375 -0.953125 1.03125 -1.640625q0.65625 -0.703125 1.578125 -1.078125q0.9375 -0.390625 2.015625 -0.390625q0.953125 0 1.765625 0.359375q0.828125 0.359375 1.421875 1.0q0.609375 0.640625 0.9375 1.515625q0.328125 0.859375 0.3125 1.875l-0.015625 0.828125l-8.0 0l-0.4375 -1.53125l6.765625 0l-0.265625 0.3125l0 -0.4375q-0.0625 -0.625 -0.421875 -1.109375q-0.34375 -0.484375 -0.890625 -0.765625q-0.546875 -0.28125 -1.171875 -0.28125q-1.015625 0 -1.703125 0.390625q-0.6875 0.375 -1.046875 1.125q-0.34375 0.734375 -0.34375 1.8125q0 1.015625 0.421875 1.78125q0.421875 0.75 1.203125 1.171875q0.796875 0.40625 1.8125 0.40625q0.734375 0 1.359375 -0.234375q0.625 -0.25 1.359375 -0.890625l0.96875 1.359375q-0.453125 0.453125 -1.09375 0.796875q-0.640625 0.328125 -1.359375 0.53125q-0.71875 0.1875 -1.421875 0.1875z" fill="#ffffff"></path></g></svg>