<svg version="1.1" xmlns="http://www.w3.org/2000/svg" xmlns:xlink="http://www.w3.org/1999/xlink" width="244.82345" height="40.9" viewBox="0,0,244.82345,40.9"><g transform="translate(-117.58827,-159.55)"><g data-paper-data="{&quot;isPaintingLayer&quot;:true}" fill="#ffffff" fill-rule="nonzero" stroke="none" stroke-width="1" stroke-linecap="square" stroke-linejoin="miter" stroke-miterlimit="10" stroke-dasharray="" stroke-dashoffset="0" style="mix-blend-mode: normal"><path d="M121.74452,173.94063l-4.15625,-13.0625h2.14063l2.51563,8.17188c0.07291,0.19791 0.14063,0.43229 0.20313,0.70313c0.0625,0.27084 0.11979,0.54166 0.17188,0.8125c0.05209,0.27084 0.09896,0.52604 0.14063,0.76563c0.04166,0.23959 0.08334,0.43229 0.125,0.57813l-0.54687,-0.01562c0.1875,-0.66666 0.33334,-1.17709 0.4375,-1.53125c0.10416,-0.36459 0.1875,-0.64062 0.25,-0.82812c0.0625,-0.19791 0.11979,-0.36459 0.17188,-0.5l2.34375,-5.89062h1.8125l2.28125,5.89063c0.125,0.30209 0.23438,0.59896 0.32813,0.89063c0.09375,0.29166 0.17708,0.58334 0.25,0.875c0.07291,0.29166 0.15625,0.59896 0.25,0.92188l-0.5,0.125c0.0625,-0.33334 0.10938,-0.59375 0.14063,-0.78125c0.03125,-0.19791 0.05729,-0.35937 0.07813,-0.48437c0.03125,-0.125 0.05729,-0.24479 0.07813,-0.35937c0.03125,-0.125 0.07291,-0.27604 0.125,-0.45312c0.0625,-0.1875 0.14063,-0.44271 0.23438,-0.76562l2.48438,-8.125h2.17188l-4.17187,13.0625h-1.39062l-3.45313,-8.17187l0.17188,0.07813l-3.32812,8.09375zM140.35948,174.12813c-0.80209,0 -1.53646,-0.22396 -2.20312,-0.67187c-0.66667,-0.44791 -1.20312,-1.05729 -1.60937,-1.82812c-0.39584,-0.77084 -0.59375,-1.64062 -0.59375,-2.60937c0,-0.98959 0.20313,-1.86459 0.60938,-2.625c0.40625,-0.76041 0.95313,-1.35937 1.64063,-1.79687c0.69791,-0.4375 1.47396,-0.65625 2.32813,-0.65625c0.51041,0 0.97396,0.07813 1.39063,0.23438c0.42708,0.14584 0.79688,0.35416 1.10938,0.625c0.32291,0.26041 0.58333,0.56771 0.78125,0.92188c0.20833,0.34375 0.33854,0.71354 0.39063,1.10938l-0.42187,-0.14062v-2.54687h1.9375v9.79688h-1.9375v-2.32812l0.4375,-0.14062c-0.07292,0.34375 -0.22396,0.67709 -0.45312,1c-0.22917,0.3125 -0.52084,0.59375 -0.875,0.84375c-0.35417,0.23959 -0.74479,0.4375 -1.17187,0.59375c-0.42709,0.14584 -0.88021,0.21875 -1.35937,0.21875zM140.85948,172.3625c0.59375,0 1.10938,-0.14062 1.54688,-0.42187c0.44791,-0.29166 0.79688,-0.6875 1.04688,-1.1875c0.26041,-0.51041 0.39063,-1.08854 0.39063,-1.73437c0,-0.63541 -0.13021,-1.20312 -0.39062,-1.70312c-0.25,-0.5 -0.59896,-0.89062 -1.04687,-1.17187c-0.4375,-0.29166 -0.95312,-0.4375 -1.54687,-0.4375c-0.57292,0 -1.07812,0.14584 -1.51562,0.4375c-0.4375,0.28125 -0.78646,0.67188 -1.04687,1.17188c-0.25,0.5 -0.375,1.06771 -0.375,1.70313c0,0.64584 0.125,1.22396 0.375,1.73438c0.26041,0.5 0.60938,0.89584 1.04688,1.1875c0.4375,0.28125 0.94271,0.42188 1.51563,0.42188zM148.71576,173.94063v-9.79687h1.92188v9.79688zM149.65326,161.9875c-0.40625,0 -0.72396,-0.10416 -0.95312,-0.3125c-0.21875,-0.21875 -0.32812,-0.52084 -0.32812,-0.90625c0,-0.36459 0.11459,-0.65625 0.34375,-0.875c0.22916,-0.22916 0.54166,-0.34375 0.9375,-0.34375c0.40625,0 0.71875,0.10938 0.9375,0.32813c0.22916,0.20834 0.34375,0.50521 0.34375,0.89063c0,0.36459 -0.11459,0.66146 -0.34375,0.89063c-0.22916,0.21875 -0.54166,0.32813 -0.9375,0.32813zM154.80844,173.94063v-12.29687h1.92188v12.29688zM152.76157,166.01875v-1.875h6.23438v1.875zM161.06619,173.94063v-9.79687h1.92188v9.79688zM162.00369,161.9875c-0.40625,0 -0.72396,-0.10416 -0.95312,-0.3125c-0.21875,-0.21875 -0.32812,-0.52084 -0.32812,-0.90625c0,-0.36459 0.11459,-0.65625 0.34375,-0.875c0.22916,-0.22916 0.54166,-0.34375 0.9375,-0.34375c0.40625,0 0.71875,0.10938 0.9375,0.32813c0.22916,0.20834 0.34375,0.50521 0.34375,0.89063c0,0.36459 -0.11459,0.66146 -0.34375,0.89063c-0.22916,0.21875 -0.54166,0.32813 -0.9375,0.32813zM165.94013,173.94063v-9.79687h1.92188v2.01563l-0.34375,0.21875c0.125,-0.42709 0.36979,-0.82291 0.73438,-1.1875c0.36458,-0.375 0.79166,-0.67709 1.28125,-0.90625c0.5,-0.22916 1.01041,-0.34375 1.53125,-0.34375c0.75,0 1.36979,0.14584 1.85938,0.4375c0.5,0.29166 0.875,0.73959 1.125,1.34375c0.25,0.59375 0.375,1.34375 0.375,2.25v5.96875h-1.92187v-5.84375c0,-0.55209 -0.07292,-1.01041 -0.21875,-1.375c-0.14584,-0.375 -0.375,-0.64584 -0.6875,-0.8125c-0.3125,-0.16666 -0.69792,-0.23959 -1.15625,-0.21875c-0.375,0 -0.71875,0.0625 -1.03125,0.1875c-0.3125,0.11459 -0.58334,0.28125 -0.8125,0.5c-0.22917,0.20834 -0.41146,0.45313 -0.54687,0.73438c-0.125,0.27084 -0.1875,0.56771 -0.1875,0.89063v5.9375h-0.95312c-0.15625,0 -0.31771,0 -0.48437,0c-0.16667,0 -0.32812,0 -0.48437,0zM181.43121,178.2375c-0.69792,0 -1.39584,-0.10937 -2.09375,-0.32812c-0.6875,-0.21875 -1.23959,-0.50521 -1.65625,-0.85937l0.70313,-1.48437c0.25,0.1875 0.54166,0.34896 0.875,0.48438c0.33333,0.14584 0.6875,0.26041 1.0625,0.34375c0.375,0.08334 0.74479,0.125 1.10938,0.125c0.67708,0 1.24479,-0.11459 1.70313,-0.34375c0.46875,-0.21875 0.81771,-0.54687 1.04688,-0.98437c0.23958,-0.4375 0.35938,-0.97916 0.35938,-1.625v-1.875l0.20313,0.125c-0.0625,0.38541 -0.26562,0.75521 -0.60937,1.10938c-0.34375,0.35416 -0.77084,0.64584 -1.28125,0.875c-0.5,0.21875 -1.02084,0.32813 -1.5625,0.32813c-0.92709,0 -1.75521,-0.21875 -2.48437,-0.65625c-0.72917,-0.44791 -1.30729,-1.05209 -1.73437,-1.8125c-0.41667,-0.77084 -0.625,-1.64584 -0.625,-2.625c0,-0.97916 0.20833,-1.84896 0.625,-2.60937c0.41666,-0.77084 0.98438,-1.375 1.70313,-1.8125c0.72916,-0.44791 1.55208,-0.67187 2.46875,-0.67187c0.36458,0 0.71875,0.04688 1.0625,0.14063c0.35416,0.09375 0.68229,0.22396 0.98438,0.39063c0.30208,0.16666 0.56771,0.34896 0.79688,0.54688c0.23958,0.19791 0.43229,0.41146 0.57813,0.64063c0.15625,0.21875 0.25,0.42709 0.28125,0.625l-0.40625,0.15625v-2.29687h1.92188v9.20313c0,0.78125 -0.11459,1.47396 -0.34375,2.07813c-0.22917,0.60416 -0.5625,1.11459 -1,1.53125c-0.4375,0.41666 -0.96875,0.73438 -1.59375,0.95313c-0.61459,0.21875 -1.3125,0.32813 -2.09375,0.32813zM181.49371,172.3625c0.61458,0 1.15625,-0.14062 1.625,-0.42187c0.47916,-0.29166 0.84896,-0.6875 1.10938,-1.1875c0.26041,-0.5 0.39063,-1.07291 0.39063,-1.71875c0,-0.64584 -0.13542,-1.21875 -0.40625,-1.71875c-0.27084,-0.51041 -0.64062,-0.90625 -1.10937,-1.1875c-0.45834,-0.29166 -0.99479,-0.4375 -1.60937,-0.4375c-0.59375,0 -1.125,0.14584 -1.59375,0.4375c-0.46875,0.29166 -0.83854,0.69271 -1.10937,1.20313c-0.26042,0.5 -0.39062,1.06771 -0.39062,1.70313c0,0.63541 0.13021,1.20834 0.39063,1.71875c0.27083,0.5 0.64063,0.89584 1.10938,1.1875c0.46875,0.28125 1,0.42188 1.59375,0.42188zM195.43475,173.94063v-10.89062c0,-0.5625 0.125,-1.0625 0.375,-1.5c0.25,-0.4375 0.58854,-0.77604 1.01563,-1.01562c0.4375,-0.25 0.94271,-0.375 1.51563,-0.375c0.39584,0 0.76563,0.07291 1.10938,0.21875c0.35417,0.14584 0.64063,0.34375 0.85938,0.59375l-0.65625,1.46875c-0.16666,-0.14584 -0.34896,-0.26562 -0.54687,-0.35937c-0.1875,-0.09375 -0.36458,-0.14062 -0.53125,-0.14062c-0.26041,0 -0.48437,0.04166 -0.67187,0.125c-0.17708,0.08334 -0.3125,0.20834 -0.40625,0.375c-0.08333,0.16666 -0.125,0.36979 -0.125,0.60938v10.89063h-0.96875c-0.15625,0 -0.31771,0 -0.48437,0c-0.15625,0 -0.31771,0 -0.48437,0zM193.87225,166.08125v-1.76562h5.8125v1.76563zM205.73708,174.12813c-0.95833,0 -1.81771,-0.21875 -2.57812,-0.65625c-0.75,-0.44791 -1.34375,-1.05209 -1.78125,-1.8125c-0.42708,-0.77084 -0.64062,-1.64584 -0.64062,-2.625c0,-0.97916 0.21354,-1.84896 0.64063,-2.60937c0.4375,-0.77084 1.03125,-1.375 1.78125,-1.8125c0.76042,-0.44791 1.61979,-0.67187 2.57813,-0.67187c0.9375,0 1.78125,0.22396 2.53125,0.67188c0.76042,0.4375 1.35938,1.04166 1.79688,1.8125c0.4375,0.76041 0.65625,1.63021 0.65625,2.60938c0,0.97916 -0.21875,1.85416 -0.65625,2.625c-0.4375,0.76041 -1.03646,1.36459 -1.79687,1.8125c-0.75,0.4375 -1.59375,0.65625 -2.53125,0.65625zM205.73708,172.37813c0.58334,0 1.10417,-0.14584 1.5625,-0.4375c0.45834,-0.29166 0.81771,-0.6875 1.07813,-1.1875c0.26042,-0.51041 0.38542,-1.08334 0.375,-1.71875c0.01042,-0.64584 -0.11458,-1.21875 -0.375,-1.71875c-0.26041,-0.51041 -0.61979,-0.90625 -1.07812,-1.1875c-0.45833,-0.29166 -0.97916,-0.4375 -1.5625,-0.4375c-0.58333,0 -1.10937,0.14584 -1.57812,0.4375c-0.46875,0.29166 -0.83333,0.69271 -1.09375,1.20313c-0.26041,0.5 -0.38541,1.06771 -0.375,1.70313c-0.01041,0.63541 0.11459,1.20834 0.375,1.71875c0.26042,0.5 0.625,0.89584 1.09375,1.1875c0.46875,0.29166 0.99479,0.4375 1.57813,0.4375zM212.80443,173.94063v-9.79687h1.9375v3.07813l-0.1875,-0.75c0.13541,-0.46875 0.36979,-0.89584 0.70313,-1.28125c0.33334,-0.38541 0.71354,-0.6875 1.14063,-0.90625c0.42709,-0.22916 0.86979,-0.34375 1.32813,-0.34375c0.20834,0 0.40625,0.02084 0.59375,0.0625c0.19791,0.03125 0.35416,0.07291 0.46875,0.125l-0.5,2.09375c-0.14584,-0.0625 -0.3125,-0.11459 -0.5,-0.15625c-0.17709,-0.05209 -0.35416,-0.07812 -0.53125,-0.07812c-0.33334,0 -0.65104,0.06771 -0.95312,0.20313c-0.30209,0.125 -0.57291,0.30729 -0.8125,0.54688c-0.22916,0.22916 -0.41146,0.49479 -0.54687,0.79688c-0.13541,0.30209 -0.20312,0.63541 -0.20312,1v5.40625zM226.7654,173.94063v-12.29687h1.92188v12.29688zM224.71852,166.01875v-1.875h6.23438v1.875zM232.71065,173.94063v-13.8125h1.92188v6.03125l-0.34375,0.21875c0.125,-0.42709 0.36979,-0.82291 0.73438,-1.1875c0.36459,-0.375 0.79167,-0.67709 1.28125,-0.90625c0.5,-0.22916 1.01042,-0.34375 1.53125,-0.34375c0.75,0 1.36979,0.14584 1.85938,0.4375c0.5,0.29166 0.875,0.73959 1.125,1.34375c0.25,0.59375 0.375,1.34375 0.375,2.25v5.96875h-1.92187v-5.84375c0,-0.55209 -0.07291,-1.01041 -0.21875,-1.375c-0.14583,-0.375 -0.375,-0.64584 -0.6875,-0.8125c-0.3125,-0.16666 -0.69791,-0.23959 -1.15625,-0.21875c-0.375,0 -0.71875,0.0625 -1.03125,0.1875c-0.3125,0.11459 -0.58333,0.28125 -0.8125,0.5c-0.22916,0.20834 -0.41146,0.45313 -0.54687,0.73438c-0.125,0.27084 -0.1875,0.56771 -0.1875,0.89063v5.9375h-0.95312c-0.15625,0 -0.31771,0 -0.48437,0c-0.16666,0 -0.32812,0 -0.48437,0zM248.37361,174.12813c-1,0 -1.89062,-0.21354 -2.67187,-0.64062c-0.77084,-0.42709 -1.38021,-1.01562 -1.82812,-1.76562c-0.4375,-0.75 -0.65625,-1.60937 -0.65625,-2.57812c0,-0.77084 0.125,-1.47396 0.375,-2.10937c0.25,-0.63541 0.59375,-1.18229 1.03125,-1.64062c0.4375,-0.46875 0.96354,-0.82812 1.57813,-1.07812c0.625,-0.26041 1.29688,-0.39062 2.01563,-0.39062c0.63541,0 1.22396,0.11979 1.76563,0.35938c0.55208,0.23959 1.02604,0.57291 1.42188,1c0.40625,0.42709 0.71875,0.93229 0.9375,1.51563c0.21875,0.57291 0.32291,1.19791 0.3125,1.875l-0.01562,0.82813h-8l-0.4375,-1.53125h6.76563l-0.26562,0.3125v-0.4375c-0.04167,-0.41666 -0.18229,-0.78646 -0.42187,-1.10937c-0.22917,-0.32291 -0.52604,-0.57812 -0.89062,-0.76562c-0.36459,-0.1875 -0.75521,-0.28125 -1.17187,-0.28125c-0.67709,0 -1.24479,0.13021 -1.70312,0.39063c-0.45834,0.25 -0.80729,0.625 -1.04687,1.125c-0.22917,0.48959 -0.34375,1.09375 -0.34375,1.8125c0,0.67709 0.14063,1.27084 0.42188,1.78125c0.28125,0.5 0.68229,0.89063 1.20313,1.17188c0.53125,0.27084 1.13541,0.40625 1.8125,0.40625c0.48958,0 0.94271,-0.07812 1.35938,-0.23437c0.41666,-0.16666 0.86979,-0.46354 1.35938,-0.89062l0.96875,1.35938c-0.30209,0.30209 -0.66667,0.56771 -1.09375,0.79688c-0.42709,0.21875 -0.88021,0.39584 -1.35937,0.53125c-0.47917,0.125 -0.95312,0.1875 -1.42187,0.1875zM260.4518,173.94063v-13.0625h5.3125c0.70834,0 1.34896,0.17709 1.92188,0.53125c0.58334,0.35416 1.04688,0.83854 1.39063,1.45313c0.35417,0.60416 0.53125,1.28125 0.53125,2.03125c0,0.75 -0.17708,1.43229 -0.53125,2.04688c-0.34375,0.60416 -0.80729,1.08854 -1.39062,1.45313c-0.57291,0.36459 -1.21354,0.54688 -1.92187,0.54688h-3.29687v5zM262.46742,167.00312h3.26563c0.33334,0 0.63542,-0.09375 0.90625,-0.28125c0.28125,-0.19791 0.50521,-0.45312 0.67188,-0.76562c0.16667,-0.32291 0.25,-0.67709 0.25,-1.0625c0,-0.38541 -0.08333,-0.73437 -0.25,-1.04687c-0.16666,-0.3125 -0.39062,-0.5625 -0.67187,-0.75c-0.27083,-0.1875 -0.57291,-0.28125 -0.90625,-0.28125h-3.26562zM276.01506,174.12813c-0.95833,0 -1.81771,-0.21875 -2.57812,-0.65625c-0.75,-0.44791 -1.34375,-1.05209 -1.78125,-1.8125c-0.42708,-0.77084 -0.64062,-1.64584 -0.64062,-2.625c0,-0.97916 0.21354,-1.84896 0.64063,-2.60937c0.4375,-0.77084 1.03125,-1.375 1.78125,-1.8125c0.76042,-0.44791 1.61979,-0.67187 2.57813,-0.67187c0.9375,0 1.78125,0.22396 2.53125,0.67188c0.76042,0.4375 1.35938,1.04166 1.79688,1.8125c0.4375,0.76041 0.65625,1.63021 0.65625,2.60938c0,0.97916 -0.21875,1.85416 -0.65625,2.625c-0.4375,0.76041 -1.03646,1.36459 -1.79687,1.8125c-0.75,0.4375 -1.59375,0.65625 -2.53125,0.65625zM276.01506,172.37813c0.58334,0 1.10417,-0.14584 1.5625,-0.4375c0.45834,-0.29166 0.81771,-0.6875 1.07813,-1.1875c0.26042,-0.51041 0.38542,-1.08334 0.375,-1.71875c0.01042,-0.64584 -0.11458,-1.21875 -0.375,-1.71875c-0.26041,-0.51041 -0.61979,-0.90625 -1.07812,-1.1875c-0.45833,-0.29166 -0.97916,-0.4375 -1.5625,-0.4375c-0.58333,0 -1.10937,0.14584 -1.57812,0.4375c-0.46875,0.29166 -0.83333,0.69271 -1.09375,1.20313c-0.26041,0.5 -0.38541,1.06771 -0.375,1.70313c-0.01041,0.63541 0.11459,1.20834 0.375,1.71875c0.26042,0.5 0.625,0.89584 1.09375,1.1875c0.46875,0.29166 0.99479,0.4375 1.57813,0.4375zM283.11366,173.94063v-13.8125h1.92188v13.8125zM289.12575,178.2375l1.98438,-4.57812l0.01563,1.53125l-4.89062,-11.04687h2.23438l3.0625,7.20313c0.0625,0.125 0.13542,0.31771 0.21875,0.57813c0.09375,0.25 0.17188,0.5 0.23438,0.75l-0.48437,0.10938c0.09375,-0.26041 0.1875,-0.52084 0.28125,-0.78125c0.09375,-0.26041 0.18229,-0.52084 0.26563,-0.78125l2.5625,-7.07812h2.28125l-4.03125,9.79688l-1.65625,4.29688zM304.27754,174.12813c-0.92709,0 -1.78125,-0.16666 -2.5625,-0.5c-0.77084,-0.34375 -1.44792,-0.8125 -2.03125,-1.40625c-0.57292,-0.60416 -1.02084,-1.3125 -1.34375,-2.125c-0.3125,-0.82291 -0.46875,-1.71875 -0.46875,-2.6875c0,-0.96875 0.15625,-1.85937 0.46875,-2.67187c0.32291,-0.8125 0.77083,-1.52084 1.34375,-2.125c0.58333,-0.60416 1.26041,-1.07291 2.03125,-1.40625c0.78125,-0.34375 1.63541,-0.51562 2.5625,-0.51562c0.91666,0 1.76041,0.17188 2.53125,0.51563c0.78125,0.33334 1.46354,0.80729 2.04688,1.42188c0.58333,0.60416 1.03125,1.3125 1.34375,2.125c0.3125,0.8125 0.46875,1.69791 0.46875,2.65625c0,0.95834 -0.15625,1.84375 -0.46875,2.65625c-0.3125,0.8125 -0.76042,1.52604 -1.34375,2.14063c-0.58334,0.60416 -1.26562,1.07813 -2.04687,1.42188c-0.77084,0.33334 -1.61459,0.5 -2.53125,0.5zM304.27754,172.175c0.63541,0 1.21354,-0.11979 1.73438,-0.35937c0.53125,-0.23959 0.98958,-0.57291 1.375,-1c0.38541,-0.42709 0.6875,-0.92709 0.90625,-1.5c0.21875,-0.58334 0.32813,-1.21875 0.32813,-1.90625c0,-0.6875 -0.10937,-1.31771 -0.32812,-1.89062c-0.21875,-0.58334 -0.52084,-1.08854 -0.90625,-1.51562c-0.38542,-0.42709 -0.84375,-0.75521 -1.375,-0.98437c-0.52084,-0.23959 -1.09896,-0.35937 -1.73437,-0.35937c-0.63542,0 -1.21875,0.11979 -1.75,0.35938c-0.53125,0.22916 -0.99479,0.55729 -1.39062,0.98438c-0.38542,0.41666 -0.68229,0.91666 -0.89062,1.5c-0.20834,0.57291 -0.3125,1.20834 -0.3125,1.90625c0,0.6875 0.10416,1.32291 0.3125,1.90625c0.20833,0.58334 0.50521,1.08854 0.89063,1.51563c0.39583,0.41666 0.85938,0.74479 1.39063,0.98438c0.53125,0.23959 1.11458,0.35938 1.75,0.35938zM317.42921,174.12813c-0.70833,0 -1.36458,-0.09375 -1.96875,-0.28125c-0.60416,-0.1875 -1.15104,-0.46875 -1.64062,-0.84375c-0.48958,-0.38541 -0.92708,-0.85416 -1.3125,-1.40625l1.375,-1.59375c0.61459,0.875 1.19792,1.47916 1.75,1.8125c0.5625,0.33334 1.22917,0.5 2,0.5c0.46875,0 0.89584,-0.07291 1.28125,-0.21875c0.38542,-0.15625 0.6875,-0.36459 0.90625,-0.625c0.22917,-0.26041 0.34375,-0.55729 0.34375,-0.89062c0,-0.21875 -0.03646,-0.42709 -0.10937,-0.625c-0.07291,-0.20834 -0.1875,-0.39062 -0.34375,-0.54687c-0.15625,-0.16666 -0.35416,-0.31771 -0.59375,-0.45312c-0.23958,-0.13541 -0.52083,-0.25521 -0.84375,-0.35937c-0.32291,-0.10416 -0.69791,-0.19271 -1.125,-0.26562c-0.66666,-0.14584 -1.25,-0.32812 -1.75,-0.54687c-0.5,-0.22916 -0.91666,-0.51041 -1.25,-0.84375c-0.33333,-0.33334 -0.58333,-0.71354 -0.75,-1.14062c-0.16666,-0.42709 -0.25,-0.91146 -0.25,-1.45312c0,-0.52084 0.11459,-1.00521 0.34375,-1.45312c0.23959,-0.44791 0.55729,-0.83334 0.95313,-1.15625c0.40625,-0.33334 0.88021,-0.58854 1.42188,-0.76562c0.55209,-0.1875 1.14584,-0.28125 1.78125,-0.28125c0.67709,0 1.29167,0.08854 1.84375,0.26563c0.5625,0.17709 1.0625,0.4375 1.5,0.78125c0.4375,0.33334 0.79688,0.75 1.07813,1.25l-1.42187,1.40625c-0.23959,-0.41666 -0.51562,-0.76041 -0.82812,-1.03125c-0.3125,-0.28125 -0.65625,-0.49479 -1.03125,-0.64062c-0.375,-0.14584 -0.77083,-0.21875 -1.1875,-0.21875c-0.48958,0 -0.91666,0.07813 -1.28125,0.23438c-0.35416,0.14584 -0.63541,0.35416 -0.84375,0.625c-0.20833,0.26041 -0.3125,0.57291 -0.3125,0.9375c0,0.26041 0.05209,0.5 0.15625,0.71875c0.10417,0.21875 0.25521,0.41146 0.45313,0.57813c0.20834,0.16666 0.48438,0.31771 0.82813,0.45313c0.35417,0.125 0.77084,0.23438 1.25,0.32813c0.6875,0.15625 1.29688,0.34896 1.82813,0.57813c0.54167,0.22916 0.99479,0.5 1.35938,0.8125c0.375,0.3125 0.65625,0.66146 0.84375,1.04688c0.19791,0.38541 0.29688,0.80209 0.29688,1.25c0,0.83334 -0.19271,1.55729 -0.57812,2.17188c-0.38542,0.60416 -0.93229,1.07291 -1.64062,1.40625c-0.70833,0.32291 -1.55208,0.48438 -2.53125,0.48438zM338.21635,173.94063l-4.04687,-5.85937l-5.1875,-7.20312h2.54688l3.95313,5.78125l5.28125,7.28125zM328.88823,173.94063l4.96875,-7.10937l1.25,1.46875l-3.85937,5.64063zM335.77885,167.87813l-1.21875,-1.42187l3.65625,-5.57812h2.35938zM347.93422,174.05c-1.01041,0 -1.91666,-0.21875 -2.71875,-0.65625c-0.79166,-0.44791 -1.41666,-1.05729 -1.875,-1.82812c-0.44791,-0.78125 -0.67187,-1.66146 -0.67187,-2.64062v-8.0625h2.01563v7.89063c0,0.63541 0.14584,1.20834 0.4375,1.71875c0.30209,0.5 0.69792,0.90104 1.1875,1.20313c0.5,0.29166 1.04167,0.4375 1.625,0.4375c0.61459,0 1.17188,-0.14584 1.67188,-0.4375c0.51042,-0.30209 0.91667,-0.70312 1.21875,-1.20312c0.30209,-0.51041 0.45313,-1.08334 0.45313,-1.71875v-7.89062h1.90625v8.0625c0,0.97916 -0.22916,1.85938 -0.6875,2.64063c-0.44791,0.77084 -1.07291,1.38021 -1.875,1.82813c-0.79166,0.4375 -1.6875,0.65625 -2.6875,0.65625zM356.17735,173.94063v-1.85937h2.10938v-9.32812h-2.10937v-1.875h6.23438v1.875h-2.10937v9.32813h2.10938v1.85938z"/><path d="M118.96327,196.34063v-13.0625h2.01563v11.125h6.125v1.9375zM133.68691,196.52813c-0.95834,0 -1.81771,-0.21875 -2.57812,-0.65625c-0.75,-0.44791 -1.34375,-1.05209 -1.78125,-1.8125c-0.42709,-0.77084 -0.64062,-1.64584 -0.64062,-2.625c0,-0.97916 0.21354,-1.84896 0.64063,-2.60937c0.4375,-0.77084 1.03125,-1.375 1.78125,-1.8125c0.76041,-0.44791 1.61979,-0.67187 2.57813,-0.67187c0.9375,0 1.78125,0.22396 2.53125,0.67188c0.76041,0.4375 1.35938,1.04166 1.79688,1.8125c0.4375,0.76041 0.65625,1.63021 0.65625,2.60938c0,0.97916 -0.21875,1.85416 -0.65625,2.625c-0.4375,0.76041 -1.03646,1.36459 -1.79687,1.8125c-0.75,0.4375 -1.59375,0.65625 -2.53125,0.65625zM133.68691,194.77813c0.58334,0 1.10416,-0.14584 1.5625,-0.4375c0.45834,-0.29166 0.81771,-0.6875 1.07813,-1.1875c0.26041,-0.51041 0.38541,-1.08334 0.375,-1.71875c0.01041,-0.64584 -0.11459,-1.21875 -0.375,-1.71875c-0.26041,-0.51041 -0.61979,-0.90625 -1.07812,-1.1875c-0.45834,-0.29166 -0.97916,-0.4375 -1.5625,-0.4375c-0.58334,0 -1.10937,0.14584 -1.57812,0.4375c-0.46875,0.29166 -0.83334,0.69271 -1.09375,1.20313c-0.26041,0.5 -0.38541,1.06771 -0.375,1.70313c-0.01041,0.63541 0.11459,1.20834 0.375,1.71875c0.26041,0.5 0.625,0.89584 1.09375,1.1875c0.46875,0.29166 0.99479,0.4375 1.57813,0.4375zM144.51988,196.52813c-0.80209,0 -1.53646,-0.22396 -2.20312,-0.67187c-0.66666,-0.44791 -1.20312,-1.05729 -1.60937,-1.82812c-0.39584,-0.77084 -0.59375,-1.64062 -0.59375,-2.60937c0,-0.98959 0.20313,-1.86459 0.60938,-2.625c0.40625,-0.76041 0.95313,-1.35937 1.64063,-1.79687c0.69791,-0.4375 1.47396,-0.65625 2.32813,-0.65625c0.51041,0 0.97396,0.07813 1.39063,0.23438c0.42709,0.14584 0.79688,0.35416 1.10938,0.625c0.32291,0.26041 0.58334,0.56771 0.78125,0.92188c0.20834,0.34375 0.33854,0.71354 0.39063,1.10938l-0.42187,-0.14062v-2.54687h1.9375v9.79688h-1.9375v-2.32812l0.4375,-0.14062c-0.07291,0.34375 -0.22396,0.67709 -0.45312,1c-0.22916,0.3125 -0.52084,0.59375 -0.875,0.84375c-0.35416,0.23959 -0.74479,0.4375 -1.17187,0.59375c-0.42709,0.14584 -0.88021,0.21875 -1.35937,0.21875zM145.01988,194.7625c0.59375,0 1.10938,-0.14062 1.54688,-0.42187c0.44791,-0.29166 0.79688,-0.6875 1.04688,-1.1875c0.26041,-0.51041 0.39063,-1.08854 0.39063,-1.73437c0,-0.63541 -0.13021,-1.20312 -0.39062,-1.70312c-0.25,-0.5 -0.59896,-0.89062 -1.04687,-1.17187c-0.4375,-0.29166 -0.95312,-0.4375 -1.54687,-0.4375c-0.57291,0 -1.07812,0.14584 -1.51562,0.4375c-0.4375,0.28125 -0.78646,0.67188 -1.04687,1.17188c-0.25,0.5 -0.375,1.06771 -0.375,1.70313c0,0.64584 0.125,1.22396 0.375,1.73438c0.26041,0.5 0.60938,0.89584 1.04688,1.1875c0.4375,0.28125 0.94271,0.42188 1.51563,0.42188zM156.64178,196.52813c-0.89584,0 -1.69271,-0.21875 -2.39062,-0.65625c-0.69792,-0.44791 -1.25521,-1.05209 -1.67187,-1.8125c-0.40625,-0.77084 -0.60937,-1.64584 -0.60937,-2.625c0,-0.97916 0.19791,-1.84896 0.59375,-2.60937c0.40625,-0.77084 0.95833,-1.375 1.65625,-1.8125c0.69791,-0.44791 1.48958,-0.67187 2.375,-0.67187c0.47916,0 0.94791,0.07813 1.40625,0.23438c0.45833,0.15625 0.86458,0.36979 1.21875,0.64063c0.36458,0.26041 0.64583,0.55209 0.84375,0.875c0.20833,0.3125 0.3125,0.63021 0.3125,0.95313l-0.5625,0.04688v-6.5625h1.92188v13.8125h-1.92187v-2.32812h0.375c0,0.29166 -0.09896,0.58854 -0.29687,0.89063c-0.19792,0.29166 -0.46354,0.5625 -0.79687,0.8125c-0.32292,0.23959 -0.70312,0.4375 -1.14062,0.59375c-0.42709,0.14584 -0.86459,0.21875 -1.3125,0.21875zM156.90741,194.87188c0.58333,0 1.09896,-0.15104 1.54688,-0.45312c0.44791,-0.30209 0.79688,-0.70834 1.04688,-1.21875c0.26041,-0.52084 0.39063,-1.10937 0.39063,-1.76562c0,-0.65625 -0.13021,-1.23959 -0.39062,-1.75c-0.25,-0.52084 -0.59896,-0.93229 -1.04687,-1.23437c-0.44792,-0.30209 -0.96354,-0.45312 -1.54687,-0.45312c-0.58334,0 -1.09896,0.15104 -1.54687,0.45313c-0.44792,0.30209 -0.80209,0.71354 -1.0625,1.23438c-0.25,0.51041 -0.375,1.09375 -0.375,1.75c0,0.65625 0.125,1.24479 0.375,1.76563c0.26041,0.51041 0.61458,0.91666 1.0625,1.21875c0.44791,0.30209 0.96354,0.45313 1.54688,0.45313zM174.1311,196.52813c-0.70834,0 -1.36459,-0.09375 -1.96875,-0.28125c-0.60416,-0.1875 -1.15104,-0.46875 -1.64062,-0.84375c-0.48959,-0.38541 -0.92709,-0.85416 -1.3125,-1.40625l1.375,-1.59375c0.61459,0.875 1.19791,1.47916 1.75,1.8125c0.5625,0.33334 1.22916,0.5 2,0.5c0.46875,0 0.89584,-0.07291 1.28125,-0.21875c0.38541,-0.15625 0.6875,-0.36459 0.90625,-0.625c0.22916,-0.26041 0.34375,-0.55729 0.34375,-0.89062c0,-0.21875 -0.03646,-0.42709 -0.10937,-0.625c-0.07291,-0.20834 -0.1875,-0.39062 -0.34375,-0.54687c-0.15625,-0.16666 -0.35416,-0.31771 -0.59375,-0.45312c-0.23959,-0.13541 -0.52084,-0.25521 -0.84375,-0.35937c-0.32291,-0.10416 -0.69791,-0.19271 -1.125,-0.26562c-0.66666,-0.14584 -1.25,-0.32812 -1.75,-0.54687c-0.5,-0.22916 -0.91666,-0.51041 -1.25,-0.84375c-0.33334,-0.33334 -0.58334,-0.71354 -0.75,-1.14062c-0.16666,-0.42709 -0.25,-0.91146 -0.25,-1.45312c0,-0.52084 0.11459,-1.00521 0.34375,-1.45312c0.23959,-0.44791 0.55729,-0.83334 0.95313,-1.15625c0.40625,-0.33334 0.88021,-0.58854 1.42188,-0.76562c0.55209,-0.1875 1.14584,-0.28125 1.78125,-0.28125c0.67709,0 1.29166,0.08854 1.84375,0.26563c0.5625,0.17709 1.0625,0.4375 1.5,0.78125c0.4375,0.33334 0.79688,0.75 1.07813,1.25l-1.42187,1.40625c-0.23959,-0.41666 -0.51562,-0.76041 -0.82812,-1.03125c-0.3125,-0.28125 -0.65625,-0.49479 -1.03125,-0.64062c-0.375,-0.14584 -0.77084,-0.21875 -1.1875,-0.21875c-0.48959,0 -0.91666,0.07813 -1.28125,0.23438c-0.35416,0.14584 -0.63541,0.35416 -0.84375,0.625c-0.20834,0.26041 -0.3125,0.57291 -0.3125,0.9375c0,0.26041 0.05209,0.5 0.15625,0.71875c0.10416,0.21875 0.25521,0.41146 0.45313,0.57813c0.20834,0.16666 0.48438,0.31771 0.82813,0.45313c0.35416,0.125 0.77084,0.23438 1.25,0.32813c0.6875,0.15625 1.29688,0.34896 1.82813,0.57813c0.54166,0.22916 0.99479,0.5 1.35938,0.8125c0.375,0.3125 0.65625,0.66146 0.84375,1.04688c0.19791,0.38541 0.29688,0.80209 0.29688,1.25c0,0.83334 -0.19271,1.55729 -0.57812,2.17188c-0.38541,0.60416 -0.93229,1.07291 -1.64062,1.40625c-0.70834,0.32291 -1.55209,0.48438 -2.53125,0.48438zM185.81949,196.52813c-1,0 -1.89062,-0.21354 -2.67187,-0.64062c-0.77084,-0.42709 -1.38021,-1.01562 -1.82812,-1.76562c-0.4375,-0.75 -0.65625,-1.60937 -0.65625,-2.57812c0,-0.77084 0.125,-1.47396 0.375,-2.10937c0.25,-0.63541 0.59375,-1.18229 1.03125,-1.64062c0.4375,-0.46875 0.96354,-0.82812 1.57813,-1.07812c0.625,-0.26041 1.29688,-0.39062 2.01563,-0.39062c0.63541,0 1.22396,0.11979 1.76563,0.35938c0.55208,0.23959 1.02604,0.57291 1.42188,1c0.40625,0.42709 0.71875,0.93229 0.9375,1.51563c0.21875,0.57291 0.32291,1.19791 0.3125,1.875l-0.01562,0.82813h-8l-0.4375,-1.53125h6.76563l-0.26562,0.3125v-0.4375c-0.04167,-0.41666 -0.18229,-0.78646 -0.42187,-1.10937c-0.22917,-0.32291 -0.52604,-0.57812 -0.89062,-0.76562c-0.36459,-0.1875 -0.75521,-0.28125 -1.17187,-0.28125c-0.67709,0 -1.24479,0.13021 -1.70312,0.39063c-0.45834,0.25 -0.80729,0.625 -1.04687,1.125c-0.22917,0.48959 -0.34375,1.09375 -0.34375,1.8125c0,0.67709 0.14063,1.27084 0.42188,1.78125c0.28125,0.5 0.68229,0.89063 1.20313,1.17188c0.53125,0.27084 1.13541,0.40625 1.8125,0.40625c0.48958,0 0.94271,-0.07812 1.35938,-0.23437c0.41666,-0.16666 0.86979,-0.46354 1.35938,-0.89062l0.96875,1.35938c-0.30209,0.30209 -0.66667,0.56771 -1.09375,0.79688c-0.42709,0.21875 -0.88021,0.39584 -1.35937,0.53125c-0.47917,0.125 -0.95312,0.1875 -1.42187,0.1875zM192.18956,196.34063v-9.79687h1.9375v3.07813l-0.1875,-0.75c0.13541,-0.46875 0.36979,-0.89584 0.70313,-1.28125c0.33333,-0.38541 0.71354,-0.6875 1.14063,-0.90625c0.42708,-0.22916 0.86979,-0.34375 1.32813,-0.34375c0.20833,0 0.40625,0.02084 0.59375,0.0625c0.19791,0.03125 0.35416,0.07291 0.46875,0.125l-0.5,2.09375c-0.14584,-0.0625 -0.3125,-0.11459 -0.5,-0.15625c-0.17709,-0.05209 -0.35417,-0.07812 -0.53125,-0.07812c-0.33334,0 -0.65104,0.06771 -0.95312,0.20313c-0.30209,0.125 -0.57292,0.30729 -0.8125,0.54688c-0.22917,0.22916 -0.41146,0.49479 -0.54687,0.79688c-0.13542,0.30209 -0.20312,0.63541 -0.20312,1v5.40625zM203.84447,196.34063l-4.14062,-9.79687h2.07813l2.98438,7.32813l-0.35937,0.17188l3.1875,-7.5h1.98438l-4.34375,9.79688zM211.64387,196.34063v-9.79687h1.92188v9.79688zM212.58137,184.3875c-0.40625,0 -0.72396,-0.10416 -0.95312,-0.3125c-0.21875,-0.21875 -0.32812,-0.52084 -0.32812,-0.90625c0,-0.36459 0.11459,-0.65625 0.34375,-0.875c0.22916,-0.22916 0.54166,-0.34375 0.9375,-0.34375c0.40625,0 0.71875,0.10938 0.9375,0.32813c0.22916,0.20834 0.34375,0.50521 0.34375,0.89063c0,0.36459 -0.11459,0.66146 -0.34375,0.89063c-0.22916,0.21875 -0.54166,0.32813 -0.9375,0.32813zM220.67406,196.52813c-0.90625,0 -1.71875,-0.22396 -2.4375,-0.67187c-0.70833,-0.44791 -1.27083,-1.05729 -1.6875,-1.82812c-0.41666,-0.77084 -0.625,-1.63541 -0.625,-2.59375c0,-0.95834 0.20834,-1.82291 0.625,-2.59375c0.41667,-0.77084 0.97917,-1.38021 1.6875,-1.82812c0.71875,-0.44791 1.53125,-0.67187 2.4375,-0.67187c0.875,0 1.66667,0.17709 2.375,0.53125c0.71875,0.35416 1.26563,0.83854 1.64063,1.45313l-1.0625,1.29688c-0.19791,-0.28125 -0.45312,-0.54166 -0.76562,-0.78125c-0.3125,-0.23959 -0.64583,-0.42709 -1,-0.5625c-0.34375,-0.13541 -0.67708,-0.20312 -1,-0.20312c-0.59375,0 -1.125,0.14584 -1.59375,0.4375c-0.46875,0.29166 -0.83854,0.69271 -1.10937,1.20313c-0.27083,0.51041 -0.40625,1.08334 -0.40625,1.71875c0,0.63541 0.14063,1.20834 0.42188,1.71875c0.29167,0.5 0.67188,0.90104 1.14063,1.20313c0.46875,0.29166 0.98959,0.4375 1.5625,0.4375c0.34375,0 0.67188,-0.05729 0.98438,-0.17187c0.3125,-0.11459 0.61979,-0.28125 0.92188,-0.5c0.30209,-0.22916 0.58334,-0.50521 0.84375,-0.82812l1.0625,1.3125c-0.39583,0.5625 -0.96354,1.02604 -1.70312,1.39063c-0.73958,0.35416 -1.51041,0.53125 -2.3125,0.53125zM231.06139,196.52813c-1,0 -1.89062,-0.21354 -2.67187,-0.64062c-0.77084,-0.42709 -1.38021,-1.01562 -1.82812,-1.76562c-0.4375,-0.75 -0.65625,-1.60937 -0.65625,-2.57812c0,-0.77084 0.125,-1.47396 0.375,-2.10937c0.25,-0.63541 0.59375,-1.18229 1.03125,-1.64062c0.4375,-0.46875 0.96354,-0.82812 1.57813,-1.07812c0.625,-0.26041 1.29688,-0.39062 2.01563,-0.39062c0.63541,0 1.22396,0.11979 1.76563,0.35938c0.55208,0.23959 1.02604,0.57291 1.42188,1c0.40625,0.42709 0.71875,0.93229 0.9375,1.51563c0.21875,0.57291 0.32291,1.19791 0.3125,1.875l-0.01562,0.82813h-8l-0.4375,-1.53125h6.76563l-0.26562,0.3125v-0.4375c-0.04167,-0.41666 -0.18229,-0.78646 -0.42187,-1.10937c-0.22917,-0.32291 -0.52604,-0.57812 -0.89062,-0.76562c-0.36459,-0.1875 -0.75521,-0.28125 -1.17187,-0.28125c-0.67709,0 -1.24479,0.13021 -1.70312,0.39063c-0.45834,0.25 -0.80729,0.625 -1.04687,1.125c-0.22917,0.48959 -0.34375,1.09375 -0.34375,1.8125c0,0.67709 0.14063,1.27084 0.42188,1.78125c0.28125,0.5 0.68229,0.89063 1.20313,1.17188c0.53125,0.27084 1.13541,0.40625 1.8125,0.40625c0.48958,0 0.94271,-0.07812 1.35938,-0.23437c0.41666,-0.16666 0.86979,-0.46354 1.35938,-0.89062l0.96875,1.35938c-0.30209,0.30209 -0.66667,0.56771 -1.09375,0.79688c-0.42709,0.21875 -0.88021,0.39584 -1.35937,0.53125c-0.47917,0.125 -0.95312,0.1875 -1.42187,0.1875zM243.87398,196.34063v-12.29687h1.92188v12.29688zM241.8271,188.41875v-1.875h6.23438v1.875zM254.13213,196.52813c-0.95834,0 -1.81771,-0.21875 -2.57812,-0.65625c-0.75,-0.44791 -1.34375,-1.05209 -1.78125,-1.8125c-0.42709,-0.77084 -0.64062,-1.64584 -0.64062,-2.625c0,-0.97916 0.21354,-1.84896 0.64063,-2.60937c0.4375,-0.77084 1.03125,-1.375 1.78125,-1.8125c0.76041,-0.44791 1.61979,-0.67187 2.57813,-0.67187c0.9375,0 1.78125,0.22396 2.53125,0.67188c0.76042,0.4375 1.35938,1.04166 1.79688,1.8125c0.4375,0.76041 0.65625,1.63021 0.65625,2.60938c0,0.97916 -0.21875,1.85416 -0.65625,2.625c-0.4375,0.76041 -1.03646,1.36459 -1.79687,1.8125c-0.75,0.4375 -1.59375,0.65625 -2.53125,0.65625zM254.13213,194.77813c0.58333,0 1.10417,-0.14584 1.5625,-0.4375c0.45833,-0.29166 0.81771,-0.6875 1.07813,-1.1875c0.26042,-0.51041 0.38542,-1.08334 0.375,-1.71875c0.01042,-0.64584 -0.11458,-1.21875 -0.375,-1.71875c-0.26042,-0.51041 -0.61979,-0.90625 -1.07812,-1.1875c-0.45833,-0.29166 -0.97917,-0.4375 -1.5625,-0.4375c-0.58334,0 -1.10937,0.14584 -1.57812,0.4375c-0.46875,0.29166 -0.83334,0.69271 -1.09375,1.20313c-0.26042,0.5 -0.38542,1.06771 -0.375,1.70313c-0.01042,0.63541 0.11458,1.20834 0.375,1.71875c0.26041,0.5 0.625,0.89584 1.09375,1.1875c0.46875,0.29166 0.99479,0.4375 1.57813,0.4375zM269.68886,196.52813c-0.82291,0 -1.5625,-0.14062 -2.21875,-0.42187c-0.65625,-0.29166 -1.20312,-0.71875 -1.64062,-1.28125l1.29688,-1.10937c0.375,0.42709 0.78125,0.73959 1.21875,0.9375c0.44792,0.1875 0.95313,0.28125 1.51563,0.28125c0.21875,0 0.42188,-0.02604 0.60938,-0.07812c0.19792,-0.05209 0.36979,-0.13541 0.51563,-0.25c0.14584,-0.11459 0.25521,-0.25 0.32813,-0.40625c0.07292,-0.15625 0.10938,-0.32812 0.10938,-0.51562c0,-0.32291 -0.11979,-0.58334 -0.35937,-0.78125c-0.125,-0.08334 -0.32291,-0.17709 -0.59375,-0.28125c-0.26041,-0.10416 -0.60416,-0.21354 -1.03125,-0.32812c-0.71875,-0.1875 -1.30729,-0.39584 -1.76562,-0.625c-0.45833,-0.23959 -0.8125,-0.51041 -1.0625,-0.8125c-0.1875,-0.23959 -0.32812,-0.49479 -0.42187,-0.76562c-0.08333,-0.28125 -0.125,-0.59375 -0.125,-0.9375c0,-0.40625 0.08854,-0.78125 0.26563,-1.125c0.1875,-0.34375 0.4375,-0.64062 0.75,-0.89062c0.32292,-0.26041 0.69792,-0.45834 1.125,-0.59375c0.42709,-0.13541 0.88542,-0.20312 1.375,-0.20312c0.45834,0 0.91146,0.0625 1.35938,0.1875c0.45834,0.125 0.88021,0.30729 1.26563,0.54688c0.38542,0.22916 0.70834,0.50521 0.96875,0.82813l-1.09375,1.21875c-0.23958,-0.23959 -0.5,-0.44791 -0.78125,-0.625c-0.28125,-0.17709 -0.56771,-0.3125 -0.85937,-0.40625c-0.28125,-0.10416 -0.53646,-0.15625 -0.76562,-0.15625c-0.26041,0 -0.5,0.02604 -0.71875,0.07813c-0.20833,0.04166 -0.38541,0.11459 -0.53125,0.21875c-0.13541,0.09375 -0.24479,0.21875 -0.32812,0.375c-0.07291,0.14584 -0.10937,0.3125 -0.10937,0.5c0.01042,0.15625 0.05209,0.30729 0.125,0.45313c0.07292,0.14584 0.17188,0.26563 0.29688,0.35938c0.13542,0.10416 0.33854,0.21354 0.60938,0.32813c0.27084,0.10416 0.61979,0.20834 1.04688,0.3125c0.61459,0.15625 1.125,0.33334 1.53125,0.53125c0.40625,0.1875 0.72917,0.40625 0.96875,0.65625c0.25,0.23959 0.42188,0.51563 0.51563,0.82813c0.10417,0.3125 0.15625,0.66146 0.15625,1.04688c0,0.55209 -0.16146,1.05209 -0.48437,1.5c-0.3125,0.4375 -0.73958,0.78125 -1.28125,1.03125c-0.53125,0.25 -1.125,0.375 -1.78125,0.375zM276.57832,196.34063v-12.29687h1.92188v12.29688zM274.53145,188.41875v-1.875h6.23438v1.875zM286.8365,196.52813c-0.95833,0 -1.81771,-0.21875 -2.57812,-0.65625c-0.75,-0.44791 -1.34375,-1.05209 -1.78125,-1.8125c-0.42708,-0.77084 -0.64062,-1.64584 -0.64062,-2.625c0,-0.97916 0.21354,-1.84896 0.64063,-2.60937c0.4375,-0.77084 1.03125,-1.375 1.78125,-1.8125c0.76042,-0.44791 1.61979,-0.67187 2.57813,-0.67187c0.9375,0 1.78125,0.22396 2.53125,0.67188c0.76042,0.4375 1.35938,1.04166 1.79688,1.8125c0.4375,0.76041 0.65625,1.63021 0.65625,2.60938c0,0.97916 -0.21875,1.85416 -0.65625,2.625c-0.4375,0.76041 -1.03646,1.36459 -1.79687,1.8125c-0.75,0.4375 -1.59375,0.65625 -2.53125,0.65625zM286.8365,194.77813c0.58334,0 1.10417,-0.14584 1.5625,-0.4375c0.45834,-0.29166 0.81771,-0.6875 1.07813,-1.1875c0.26042,-0.51041 0.38542,-1.08334 0.375,-1.71875c0.01042,-0.64584 -0.11458,-1.21875 -0.375,-1.71875c-0.26041,-0.51041 -0.61979,-0.90625 -1.07812,-1.1875c-0.45833,-0.29166 -0.97916,-0.4375 -1.5625,-0.4375c-0.58333,0 -1.10937,0.14584 -1.57812,0.4375c-0.46875,0.29166 -0.83333,0.69271 -1.09375,1.20313c-0.26041,0.5 -0.38541,1.06771 -0.375,1.70313c-0.01041,0.63541 0.11459,1.20834 0.375,1.71875c0.26042,0.5 0.625,0.89584 1.09375,1.1875c0.46875,0.29166 0.99479,0.4375 1.57813,0.4375zM293.90385,200.45v-13.90625h1.9375v2.23438l-0.29687,-0.15625c0.07291,-0.375 0.28125,-0.73437 0.625,-1.07812c0.35416,-0.34375 0.78125,-0.625 1.28125,-0.84375c0.51041,-0.21875 1.03125,-0.32812 1.5625,-0.32812c0.88541,0 1.66666,0.21875 2.34375,0.65625c0.6875,0.4375 1.22916,1.03646 1.625,1.79688c0.40625,0.76041 0.60938,1.63021 0.60938,2.60938c0,0.96875 -0.19792,1.83854 -0.59375,2.60938c-0.39584,0.76041 -0.9375,1.36459 -1.625,1.8125c-0.67709,0.4375 -1.44271,0.65625 -2.29687,0.65625c-0.57292,0 -1.13021,-0.11459 -1.67187,-0.34375c-0.53125,-0.22916 -0.98437,-0.52604 -1.35937,-0.89062c-0.375,-0.36459 -0.60417,-0.73959 -0.6875,-1.125l0.48438,-0.25v6.54688zM298.7476,194.73125c0.57291,0 1.08333,-0.14062 1.53125,-0.42187c0.44791,-0.29166 0.80208,-0.68229 1.0625,-1.17187c0.26041,-0.5 0.39063,-1.06771 0.39063,-1.70312c0,-0.63541 -0.13021,-1.19791 -0.39062,-1.6875c-0.25,-0.48959 -0.59896,-0.875 -1.04687,-1.15625c-0.4375,-0.29166 -0.95312,-0.4375 -1.54687,-0.4375c-0.58334,0 -1.09896,0.14063 -1.54687,0.42188c-0.44792,0.28125 -0.80209,0.67188 -1.0625,1.17188c-0.26042,0.48959 -0.39062,1.05209 -0.39062,1.6875c0,0.63541 0.13021,1.20313 0.39063,1.70313c0.26041,0.48959 0.61458,0.88021 1.0625,1.17188c0.44791,0.28125 0.96354,0.42188 1.54688,0.42188zM306.4572,196.54375c-0.40625,0 -0.72396,-0.11979 -0.95312,-0.35937c-0.21875,-0.23959 -0.32812,-0.58334 -0.32812,-1.03125c0,-0.41666 0.11459,-0.75521 0.34375,-1.01562c0.23959,-0.26041 0.55209,-0.39062 0.9375,-0.39062c0.41667,0 0.73438,0.125 0.95313,0.375c0.22917,0.23959 0.34375,0.58334 0.34375,1.03125c0,0.40625 -0.11979,0.73959 -0.35937,1c-0.23958,0.26041 -0.55208,0.39063 -0.9375,0.39063zM309.9572,196.54375c-0.40625,0 -0.72396,-0.11979 -0.95312,-0.35937c-0.21875,-0.23959 -0.32812,-0.58334 -0.32812,-1.03125c0,-0.41666 0.11459,-0.75521 0.34375,-1.01562c0.23959,-0.26041 0.55209,-0.39062 0.9375,-0.39062c0.41667,0 0.73438,0.125 0.95313,0.375c0.22917,0.23959 0.34375,0.58334 0.34375,1.03125c0,0.40625 -0.11979,0.73959 -0.35937,1c-0.23958,0.26041 -0.55208,0.39063 -0.9375,0.39063zM313.48845,196.54375c-0.40625,0 -0.72396,-0.11979 -0.95312,-0.35937c-0.21875,-0.23959 -0.32812,-0.58334 -0.32812,-1.03125c0,-0.41666 0.11459,-0.75521 0.34375,-1.01562c0.23959,-0.26041 0.55209,-0.39062 0.9375,-0.39062c0.41667,0 0.73438,0.125 0.95313,0.375c0.22917,0.23959 0.34375,0.58334 0.34375,1.03125c0,0.40625 -0.11979,0.73959 -0.35937,1c-0.23958,0.26041 -0.55208,0.39063 -0.9375,0.39063z"/></g></g></svg>