<svg version="1.1" xmlns="http://www.w3.org/2000/svg" xmlns:xlink="http://www.w3.org/1999/xlink" width="14.16835" height="68.51563" viewBox="0,0,14.16835,68.51563"><g transform="translate(-232.91582,-145.74219)"><g data-paper-data="{&quot;isPaintingLayer&quot;:true}" fill="#ffffff" fill-rule="nonzero" stroke="none" stroke-width="1" stroke-linecap="square" stroke-linejoin="miter" stroke-miterlimit="10" stroke-dasharray="" stroke-dashoffset="0" style="mix-blend-mode: normal"><path d="M240,214.25781c2.25567,0 4.01789,-0.66966 5.2867,-2.00895c1.19833,-1.33929 1.79748,-3.27775 1.79748,-5.81537c0,-2.25567 -0.6344,-4.12363 -1.90321,-5.6039c-1.33929,-1.48028 -3.06629,-2.22041 -5.18097,-2.22041c-2.25567,0 -3.98264,0.70488 -5.18097,2.11468c-1.26881,1.33929 -1.90321,3.2425 -1.90321,5.70964c0,2.32615 0.66966,4.22936 2.00895,5.70964c1.26881,1.4098 2.96055,2.11468 5.07523,2.11468zM240,161.39082c2.25567,0 4.01789,-0.66966 5.2867,-2.00895c1.19833,-1.33929 1.79748,-3.27775 1.79748,-5.81537c0,-2.25567 -0.6344,-4.12363 -1.90321,-5.6039c-1.33929,-1.48028 -3.06629,-2.22041 -5.18097,-2.22041c-2.25567,0 -3.98264,0.70488 -5.18097,2.11468c-1.26881,1.33929 -1.90321,3.2425 -1.90321,5.70964c0,2.32615 0.66966,4.22936 2.00895,5.70964c1.26881,1.4098 2.96055,2.11468 5.07523,2.11468z"/></g></g></svg>