<svg version="1.1" xmlns="http://www.w3.org/2000/svg" xmlns:xlink="http://www.w3.org/1999/xlink" width="235.86445" height="130.57253" viewBox="0,0,235.86445,130.57253"><g transform="translate(-124.1854,-110.31257)"><g data-paper-data="{&quot;isPaintingLayer&quot;:true}" stroke="none" stroke-width="1" stroke-linejoin="miter" stroke-miterlimit="10" stroke-dasharray="" stroke-dashoffset="0" style="mix-blend-mode: normal"><path d="M124.1854,132.07509c0,-12.01911 9.42343,-21.76252 21.04783,-21.76252h193.76879c5.58223,0 10.93586,2.29284 14.8831,6.3741c3.94723,4.08126 6.16473,9.61665 6.16473,15.38842v87.04749c0,12.01911 -9.42341,21.76252 -21.04783,21.76252h-193.76879c-11.6244,0 -21.04783,-9.74341 -21.04783,-21.76252z" fill-opacity="0.79738" fill="#202020" fill-rule="evenodd" stroke-linecap="square"/><path d="M197.58523,129.98057v0c0,-1.35836 1.10116,-2.45954 2.45954,-2.45954h19.06951c0.65231,0 1.27789,0.25913 1.73915,0.72039c0.46126,0.46126 0.72039,1.08685 0.72039,1.73916v18.70304c0,1.35836 -1.10116,2.45954 -2.45954,2.45954h-19.06951c-1.35836,0 -2.45954,-1.10116 -2.45954,-2.45954z" fill-opacity="0.64252" fill="#373737" fill-rule="evenodd" stroke-linecap="square"/><path d="M228.46826,129.98058v0c0,-1.35836 1.10116,-2.45954 2.45954,-2.45954h19.06951c0.65231,0 1.27789,0.25913 1.73915,0.72039c0.46126,0.46126 0.72039,1.08685 0.72039,1.73916v18.70304c0,1.35836 -1.10116,2.45954 -2.45954,2.45954h-19.06951c-1.35836,0 -2.45954,-1.10116 -2.45954,-2.45954z" fill-opacity="0.64252" fill="#373737" fill-rule="evenodd" stroke-linecap="square"/><path d="M197.58523,161.63568v0c0,-1.35836 1.10116,-2.45954 2.45954,-2.45954h19.06951c0.65231,0 1.27789,0.25913 1.73915,0.72039c0.46126,0.46126 0.72039,1.08685 0.72039,1.73916v18.70304c0,1.35836 -1.10116,2.45954 -2.45954,2.45954h-19.06951c-1.35836,0 -2.45954,-1.10116 -2.45954,-2.45954z" fill-opacity="0.64252" fill="#373737" fill-rule="evenodd" stroke-linecap="square"/><path d="M228.46826,161.63568v0c0,-1.35836 1.10116,-2.45954 2.45954,-2.45954h19.06951c0.65231,0 1.27789,0.25913 1.73915,0.72039c0.46126,0.46126 0.72039,1.08685 0.72039,1.73916v18.70304c0,1.35836 -1.10116,2.45954 -2.45954,2.45954h-19.06951c-1.35836,0 -2.45954,-1.10116 -2.45954,-2.45954z" fill-opacity="0.64252" fill="#373737" fill-rule="evenodd" stroke-linecap="square"/><path d="M259.35128,129.98058v0c0,-1.35836 1.10116,-2.45954 2.45954,-2.45954h19.06951c0.65231,0 1.27789,0.25913 1.73915,0.72039c0.46126,0.46126 0.72039,1.08685 0.72039,1.73916v18.70304c0,1.35836 -1.10116,2.45954 -2.45954,2.45954h-19.06951c-1.35836,0 -2.45954,-1.10116 -2.45954,-2.45954z" fill-opacity="0.64252" fill="#373737" fill-rule="evenodd" stroke-linecap="square"/><path d="M259.05116,161.63568v0c0,-1.35836 1.10116,-2.45954 2.45954,-2.45954h19.06951c0.65231,0 1.27789,0.25913 1.73915,0.72039c0.46126,0.46126 0.72039,1.08685 0.72039,1.73916v18.70304c0,1.35836 -1.10116,2.45954 -2.45954,2.45954h-19.06951c-1.35836,0 -2.45954,-1.10116 -2.45954,-2.45954z" fill-opacity="0.64252" fill="#373737" fill-rule="evenodd" stroke-linecap="square"/><path d="M198.35731,191.74663v0c0,-1.35836 1.10116,-2.45954 2.45954,-2.45954h19.06951c0.65231,0 1.27789,0.25913 1.73915,0.72039c0.46126,0.46126 0.72039,1.08685 0.72039,1.73916v18.70304c0,1.35836 -1.10116,2.45954 -2.45954,2.45954h-19.06951c-1.35836,0 -2.45954,-1.10116 -2.45954,-2.45954z" fill-opacity="0.64252" fill="#373737" fill-rule="evenodd" stroke-linecap="square"/><path d="M229.24033,191.74663v0c0,-1.35836 1.10116,-2.45954 2.45954,-2.45954h19.06951c0.65231,0 1.27789,0.25913 1.73915,0.72039c0.46126,0.46126 0.72039,1.08685 0.72039,1.73916v18.70304c0,1.35836 -1.10116,2.45954 -2.45954,2.45954h-19.06951c-1.35836,0 -2.45954,-1.10116 -2.45954,-2.45954z" fill-opacity="0.64252" fill="#373737" fill-rule="evenodd" stroke-linecap="square"/><path d="M297.4553,131.70153c0,-2.33571 1.89347,-4.22918 4.22918,-4.22918h38.9343c1.12165,0 2.19736,0.44557 2.99049,1.2387c0.79312,0.79312 1.23869,1.86883 1.23869,2.99048v16.9162c0,2.33571 -1.89346,4.22918 -4.22918,4.22918h-38.9343c-2.33571,0 -4.22918,-1.89347 -4.22918,-4.22918z" fill-opacity="0.55645" fill="#303030" fill-rule="evenodd" stroke-linecap="square"/><text transform="translate(305.90459,117.73842) scale(0.1576,0.1576)" font-size="40" xml:space="preserve" fill="#ffffff" fill-rule="nonzero" stroke="none" stroke-width="1" stroke-linecap="butt" stroke-linejoin="miter" stroke-miterlimit="10" stroke-dasharray="" stroke-dashoffset="0" font-family="Sans Serif" font-weight="normal" text-anchor="start" style="mix-blend-mode: normal"><tspan x="0" dy="0">Your day:</tspan></text><path d="M296.88081,166.71798c0,-2.33571 1.89347,-4.22917 4.22918,-4.22917h38.9343c1.12165,0 2.19736,0.44557 2.99049,1.2387c0.79312,0.79313 1.23869,1.86883 1.23869,2.99048v16.91621c0,2.33571 -1.89346,4.22918 -4.22918,4.22918h-38.9343c-2.33571,0 -4.22918,-1.89347 -4.22918,-4.22918z" fill-opacity="0.55645" fill="#303030" fill-rule="evenodd" stroke-linecap="square"/><path d="M296.30633,201.30562c0,-2.33571 1.89347,-4.22918 4.22918,-4.22918h38.9343c1.12165,0 2.19737,0.44557 2.99049,1.2387c0.79312,0.79313 1.23869,1.86884 1.23869,2.99048v16.9162c0,2.33571 -1.89346,4.22918 -4.22918,4.22918h-38.9343c-2.33571,0 -4.22918,-1.89347 -4.22918,-4.22918z" fill-opacity="0.55645" fill="#303030" fill-rule="evenodd" stroke-linecap="square"/><path d="M132.40758,129.97269v0c0,-1.47675 1.19714,-2.67391 2.67391,-2.67391h20.73158c0.70916,0 1.38927,0.28172 1.89073,0.78318c0.50146,0.50146 0.78318,1.18158 0.78318,1.89074v20.33317c0,1.47675 -1.19714,2.67391 -2.67391,2.67391h-20.73158c-1.47675,0 -2.67391,-1.19714 -2.67391,-2.67391z" fill-opacity="0.64252" fill="#373737" fill-rule="evenodd" stroke-linecap="square"/><path d="M163.99358,130.68463v0c0,-1.47675 1.19714,-2.67391 2.67391,-2.67391h20.73158c0.70917,0 1.38926,0.28171 1.89073,0.78318c0.50146,0.50146 0.78318,1.18158 0.78318,1.89075v20.33317c0,1.47675 -1.19713,2.67391 -2.67391,2.67391h-20.73158c-1.47675,0 -2.67391,-1.19714 -2.67391,-2.67391z" fill-opacity="0.64252" fill="#373737" fill-rule="evenodd" stroke-linecap="square"/><path d="M132.54503,160.9842v0c0,-1.47675 1.19714,-2.67391 2.67391,-2.67391h20.73158c0.70917,0 1.38926,0.28172 1.89073,0.78318c0.50146,0.50146 0.78318,1.18158 0.78318,1.89074v20.33317c0,1.47675 -1.19714,2.67391 -2.67391,2.67391h-20.73158c-1.47675,0 -2.67391,-1.19714 -2.67391,-2.67391z" fill-opacity="0.64252" fill="#373737" fill-rule="evenodd" stroke-linecap="square"/><path d="M164.70551,161.41301v0c0,-1.47675 1.19714,-2.67391 2.67391,-2.67391h20.73158c0.70917,0 1.38927,0.28172 1.89073,0.78318c0.50146,0.50146 0.78318,1.18158 0.78318,1.89074v20.33317c0,1.47675 -1.19714,2.67391 -2.67391,2.67391h-20.73158c-1.47675,0 -2.67391,-1.19714 -2.67391,-2.67391z" fill-opacity="0.64252" fill="#373737" fill-rule="evenodd" stroke-linecap="square"/><path d="M131.07017,195.58546c0,-2.33571 2.40743,-4.22917 5.37714,-4.22917h49.50257c1.4261,0 2.79381,0.44557 3.80222,1.2387c1.00841,0.79313 1.57492,1.86883 1.57492,2.99048v16.91621c0,2.33571 -2.40742,4.22918 -5.37714,4.22918h-49.50257c-2.96971,0 -5.37714,-1.89347 -5.37714,-4.22918z" fill-opacity="0.55645" fill="#303030" fill-rule="evenodd" stroke-linecap="square"/><text transform="translate(144.09889,119.03572) scale(0.14404,0.14404)" font-size="40" xml:space="preserve" fill="#ffffff" fill-rule="nonzero" stroke="none" stroke-width="1" stroke-linecap="butt" stroke-linejoin="miter" stroke-miterlimit="10" stroke-dasharray="" stroke-dashoffset="0" font-family="Sans Serif" font-weight="normal" text-anchor="start" style="mix-blend-mode: normal"><tspan x="0" dy="0">Recent Files:</tspan></text><text transform="translate(231.42972,118.03243) scale(0.14404,0.14404)" font-size="40" xml:space="preserve" fill="#ffffff" fill-rule="nonzero" stroke="none" stroke-width="1" stroke-linecap="butt" stroke-linejoin="miter" stroke-miterlimit="10" stroke-dasharray="" stroke-dashoffset="0" font-family="Sans Serif" font-weight="normal" text-anchor="start" style="mix-blend-mode: normal"><tspan x="0" dy="0">Apps:</tspan></text></g></g></svg>