<svg version="1.1" xmlns="http://www.w3.org/2000/svg" xmlns:xlink="http://www.w3.org/1999/xlink" width="21.58322" height="27.89234" viewBox="0,0,21.58322,27.89234"><g transform="translate(-264.81955,-166.82737)"><g data-paper-data="{&quot;isPaintingLayer&quot;:true}" stroke="none" stroke-width="1" stroke-linecap="square" stroke-linejoin="miter" stroke-miterlimit="10" stroke-dasharray="" stroke-dashoffset="0" style="mix-blend-mode: normal"><path d="M264.81955,168.5514c0,-0.95215 0.41182,-1.72403 0.91982,-1.72403h19.74357c0.24395,0 0.47791,0.18164 0.65041,0.50495c0.1725,0.32331 0.26942,0.76183 0.26942,1.21908v24.44429c0,0.95215 -0.41182,1.72402 -0.91983,1.72402h-19.74357c-0.508,0 -0.91982,-0.77187 -0.91982,-1.72402z" fill-opacity="0.69355" fill="#2d2d2d" fill-rule="evenodd"/><path d="M274.31231,188.85349c-0.64118,0 -1.24351,-0.07772 -1.80697,-0.23316c-0.56347,-0.13601 -1.07836,-0.34002 -1.54467,-0.61204c-0.46632,-0.27202 -0.88406,-0.60232 -1.25322,-0.99092c-0.34974,-0.3886 -0.66061,-0.82577 -0.93263,-1.31151l2.41901,-2.50645c0.23316,0.34974 0.4566,0.64118 0.67033,0.87434c0.21373,0.21373 0.41774,0.39831 0.61204,0.55375c0.21373,0.13601 0.42745,0.24288 0.64118,0.32059c0.23316,0.05829 0.47603,0.08743 0.72862,0.08743c0.40803,0 0.75776,-0.09715 1.04921,-0.29145c0.31087,-0.1943 0.54403,-0.4566 0.69947,-0.78691c0.17487,-0.33031 0.2623,-0.7189 0.2623,-1.16579v-7.92737h-3.17678v-3.67224h9.99665v3.67224h-2.68132v8.42283c0,0.85492 -0.14572,1.62239 -0.43717,2.30244c-0.29145,0.68005 -0.69947,1.26294 -1.22408,1.74868c-0.50518,0.48574 -1.1075,0.86462 -1.80697,1.13665c-0.68005,0.25258 -1.41837,0.37888 -2.215,0.37888z" fill="#ffffff" fill-rule="nonzero"/></g></g></svg>