<svg version="1.1" xmlns="http://www.w3.org/2000/svg" xmlns:xlink="http://www.w3.org/1999/xlink" width="117.84097" height="92.70043" viewBox="0,0,117.84097,92.70043"><g transform="translate(-180.06239,-134.54887)"><g data-paper-data="{&quot;isPaintingLayer&quot;:true}" fill-rule="evenodd" stroke="none" stroke-linecap="square" stroke-linejoin="miter" stroke-miterlimit="10" stroke-dasharray="" stroke-dashoffset="0" style="mix-blend-mode: normal"><path d="M180.06241,143.68357v0c0,-5.04496 4.08974,-9.1347 9.13472,-9.1347h99.57153c2.42269,0 4.74613,0.9624 6.45921,2.67549c1.71308,1.71309 2.6755,4.03654 2.6755,6.4592v74.43104c0,5.04496 -4.08976,9.1347 -9.13473,9.1347h-99.57153c-5.04497,0 -9.13471,-4.08974 -9.13471,-9.1347z" fill-opacity="0.47404" fill="#adadad" stroke-width="0"/><path d="M190.36073,148.64672v0c0,-4.25027 3.44553,-7.6958 7.69581,-7.6958h83.88692c2.04107,0 3.99853,0.81081 5.44176,2.25404c1.44323,1.44324 2.25406,3.40069 2.25406,5.44174v62.70658c0,4.25027 -3.44554,7.69579 -7.69582,7.69579h-83.88692c-4.25028,0 -7.69581,-3.44552 -7.69581,-7.69579z" fill="#ffffff" stroke-width="0"/><path d="M276.05341,148.25874v0c0,-2.26842 1.83889,-4.10735 4.10733,-4.10735v0c1.08934,0 2.13405,0.43274 2.90433,1.20302c0.77028,0.77028 1.20304,1.81499 1.20304,2.90433v0c0,2.26843 -1.83894,4.10735 -4.10737,4.10735v0c-2.26843,0 -4.10733,-1.83892 -4.10733,-4.10735z" fill="#b7b7b7" stroke-width="1"/><path d="M265.65046,148.25874v0c0,-2.26842 1.83889,-4.10735 4.10733,-4.10735v0c1.08934,0 2.13405,0.43274 2.90433,1.20302c0.77028,0.77028 1.20304,1.81499 1.20304,2.90433v0c0,2.26843 -1.83894,4.10735 -4.10737,4.10735v0c-2.26843,0 -4.10733,-1.83892 -4.10733,-4.10735z" fill="#b7b7b7" stroke-width="1"/><path d="M256.14126,180.00001l-6.51366,2.31641v-4.63283zM251.41244,168.58605l-2.96703,6.24442l-3.27589,-3.27586zM240.00001,163.85872l2.3164,6.51367h-4.63283zM228.58603,168.58605l6.24444,2.96856l-3.27589,3.27586zM223.85874,180.00001l6.51366,-2.31641v4.63283zM228.58603,191.41249l2.96855,-6.24293l3.27589,3.27586zM240.00001,196.14128l-2.31644,-6.51367h4.63283zM251.41244,191.41249l-6.24293,-2.96706l3.27589,-3.27586zM231.92937,180.00001v0c0,-4.45728 3.61336,-8.07063 8.07063,-8.07063c4.45728,0 8.07063,3.61335 8.07063,8.07063c0,4.45729 -3.61335,8.07063 -8.07063,8.07063c-4.45727,0 -8.07063,-3.61335 -8.07063,-8.07063z" fill="#ffd966" stroke-width="1"/></g></g></svg>