<svg version="1.1" xmlns="http://www.w3.org/2000/svg" xmlns:xlink="http://www.w3.org/1999/xlink" width="26.09652" height="11.96068" viewBox="0,0,26.09652,11.96068"><g transform="translate(-226.95174,-174.01966)"><g data-paper-data="{&quot;isPaintingLayer&quot;:true}" fill="#ffffff" fill-rule="nonzero" stroke="none" stroke-width="1" stroke-linecap="square" stroke-linejoin="miter" stroke-miterlimit="10" stroke-dasharray="" stroke-dashoffset="0" style="mix-blend-mode: normal"><path d="M226.95174,183.32352l3.26292,-8.44519h1.33346l3.24271,8.44519h-1.38396l-1.92947,-5.09135c-0.02694,-0.05388 -0.07408,-0.18857 -0.14142,-0.40408c-0.06735,-0.22224 -0.14816,-0.46469 -0.24244,-0.72734c-0.08755,-0.26938 -0.16837,-0.51183 -0.24245,-0.72734c-0.06735,-0.22224 -0.11449,-0.36704 -0.14143,-0.43438l0.28285,-0.0101c-0.04714,0.13469 -0.10776,0.30642 -0.18184,0.5152c-0.06735,0.20878 -0.13806,0.43102 -0.21214,0.66673c-0.07408,0.23571 -0.14816,0.45795 -0.22224,0.66672c-0.07408,0.20204 -0.1347,0.37041 -0.18184,0.5051l-1.91936,5.04084zM228.39631,181.22232l0.48489,-1.25263h3.83872l0.5556,1.25263zM235.96061,185.98032v-8.99069h1.25263v1.44457l-0.19194,-0.10101c0.04714,-0.24245 0.18184,-0.4748 0.40408,-0.69703c0.22898,-0.22224 0.5051,-0.40408 0.82836,-0.5455c0.32999,-0.14142 0.66672,-0.21214 1.01019,-0.21214c0.57244,0 1.07753,0.14142 1.51528,0.42428c0.44449,0.28286 0.79469,0.67009 1.0506,1.16172c0.26265,0.49162 0.39397,1.05397 0.39397,1.68702c0,0.62632 -0.12796,1.18866 -0.38388,1.68702c-0.25592,0.49162 -0.60611,0.88223 -1.0506,1.17182c-0.43775,0.28286 -0.93274,0.42428 -1.48498,0.42428c-0.37041,0 -0.73071,-0.07408 -1.08091,-0.22224c-0.34346,-0.14816 -0.63642,-0.3401 -0.87887,-0.57581c-0.24245,-0.23571 -0.3906,-0.47816 -0.44448,-0.72734l0.31315,-0.16163v4.2327zM239.0922,182.28302c0.37041,0 0.7004,-0.09091 0.98999,-0.27275c0.28959,-0.18857 0.51856,-0.44112 0.68693,-0.75764c0.16836,-0.32326 0.25255,-0.6903 0.25255,-1.10111c0,-0.41081 -0.08419,-0.77448 -0.25255,-1.091c-0.16163,-0.31653 -0.38723,-0.5657 -0.67682,-0.74754c-0.28285,-0.18857 -0.61622,-0.28286 -1.00009,-0.28286c-0.37714,0 -0.7105,0.09092 -1.00009,0.27276c-0.28959,0.18184 -0.51856,0.43438 -0.68693,0.75764c-0.16836,0.31653 -0.25255,0.68019 -0.25255,1.091c0,0.41081 0.08419,0.77785 0.25255,1.10111c0.16836,0.31653 0.39733,0.56907 0.68693,0.75764c0.28959,0.18184 0.62295,0.27275 1.00009,0.27275zM243.57153,183.32352v-6.33389h1.25263v1.99007l-0.12122,-0.48489c0.08755,-0.30306 0.23908,-0.57918 0.45458,-0.82836c0.2155,-0.24918 0.46132,-0.44448 0.73744,-0.58591c0.27612,-0.14816 0.56234,-0.22225 0.85866,-0.22225c0.13469,0 0.26265,0.01347 0.38387,0.04041c0.12796,0.02021 0.22898,0.04714 0.30306,0.08082l-0.32326,1.35366c-0.09428,-0.04041 -0.20204,-0.07408 -0.32326,-0.10102c-0.11449,-0.03367 -0.22897,-0.05051 -0.34346,-0.05051c-0.2155,0 -0.42091,0.04378 -0.61622,0.13133c-0.19531,0.08082 -0.37041,0.19867 -0.5253,0.35357c-0.14816,0.14816 -0.26601,0.3199 -0.35356,0.5152c-0.08755,0.1953 -0.13133,0.41081 -0.13133,0.64652v3.49525zM248.63441,183.32352v-6.33389h1.24254v6.33389zM249.24053,175.59557c-0.26265,0 -0.46805,-0.06735 -0.61621,-0.20204c-0.14142,-0.14142 -0.21214,-0.33673 -0.21214,-0.58591c0,-0.23571 0.07408,-0.42428 0.22224,-0.56571c0.14816,-0.14816 0.3502,-0.22225 0.60612,-0.22225c0.26265,0 0.46469,0.07072 0.60612,0.21214c0.14816,0.13469 0.22224,0.32663 0.22224,0.57581c0,0.23571 -0.07408,0.42765 -0.22224,0.57581c-0.14816,0.14142 -0.3502,0.21214 -0.60612,0.21214zM251.80572,183.32352v-8.93007h1.24254v8.93007z"/></g></g></svg>