<svg version="1.1" xmlns="http://www.w3.org/2000/svg" xmlns:xlink="http://www.w3.org/1999/xlink" width="40.31905" height="60.26563" viewBox="0,0,40.31905,60.26563"><g transform="translate(-219.84047,-149.86719)"><g data-paper-data="{&quot;isPaintingLayer&quot;:true}" fill="#ffffff" fill-rule="nonzero" stroke="none" stroke-width="1" stroke-linecap="square" stroke-linejoin="miter" stroke-miterlimit="10" stroke-dasharray="" stroke-dashoffset="0" style="mix-blend-mode: normal"><path d="M240.35492,210.13281c-2.93402,0 -5.67874,-0.49689 -8.23417,-1.49067c-2.50812,-1.04109 -4.68496,-2.50812 -6.53055,-4.40102c-1.79828,-1.89291 -3.21796,-4.11709 -4.25905,-6.67252c-0.99378,-2.60275 -1.49067,-5.41847 -1.49067,-8.44713c0,-1.467 0.18928,-3.07599 0.56787,-4.82693c0.37859,-1.79828 0.97011,-3.76217 1.77461,-5.89169c0.8045,-2.12953 1.77461,-4.35371 2.91035,-6.67252c1.13575,-2.31881 2.43713,-4.70863 3.90413,-7.16941l8.58909,-14.69374h6.45957l0.35492,0.85181l-9.58287,16.11342c-1.37237,2.2715 -2.60275,4.51932 -3.69118,6.7435c-1.08843,2.17684 -2.12953,4.37735 -3.12331,6.60153c-0.94646,2.22418 -1.86926,4.49568 -2.76839,6.81449l-1.20673,-6.10465c1.08843,-1.79828 2.2715,-3.35993 3.54921,-4.68496c1.27772,-1.37237 2.65009,-2.55543 4.11709,-3.54921c1.467,-0.99378 3.02865,-1.72729 4.68496,-2.20051c1.65631,-0.52056 3.35993,-0.78083 5.11087,-0.78083c3.45456,0 6.57787,0.89913 9.36992,2.6974c2.79205,1.79828 5.03988,4.1644 6.7435,7.09842c1.70362,2.93402 2.55543,6.1993 2.55543,9.79583c0,3.97512 -0.87548,7.548 -2.62642,10.71862c-1.75094,3.17062 -4.14076,5.65507 -7.16941,7.45335c-3.02865,1.79828 -6.36491,2.6974 -10.00878,2.6974zM240.07098,203.95718c2.55543,0 4.8506,-0.61519 6.88547,-1.84559c2.03487,-1.27772 3.64387,-2.95767 4.82693,-5.03988c1.18306,-2.12953 1.77461,-4.51932 1.77461,-7.16941c0,-2.50812 -0.59154,-4.80326 -1.77461,-6.88547c-1.18306,-2.12953 -2.79205,-3.83315 -4.82693,-5.11087c-2.03487,-1.27772 -4.30637,-1.91657 -6.81449,-1.91657c-2.65009,0 -5.01621,0.61519 -7.09842,1.84559c-2.03487,1.2304 -3.64387,2.91035 -4.82693,5.03988c-1.18306,2.08221 -1.77461,4.37735 -1.77461,6.88547c0,2.6974 0.59154,5.11087 1.77461,7.24039c1.18306,2.08221 2.79205,3.76217 4.82693,5.03988c2.08221,1.27772 4.42469,1.91657 7.02744,1.91657z"/></g></g></svg>