<svg version="1.1" xmlns="http://www.w3.org/2000/svg" xmlns:xlink="http://www.w3.org/1999/xlink" width="558.41002" height="342.42093" viewBox="0,0,558.41002,342.42093"><g transform="translate(178.15223,65.71391)"><g data-paper-data="{&quot;isPaintingLayer&quot;:true}" stroke="none" stroke-width="1" stroke-linejoin="miter" stroke-miterlimit="10" stroke-dasharray="" stroke-dashoffset="0" style="mix-blend-mode: normal"><path d="M99.74221,95.24792c0,-6.60253 5.35241,-11.95493 11.95493,-11.95493h256.60572c3.17065,0 6.21144,1.25953 8.45341,3.50151c2.24199,2.24198 3.50152,5.28276 3.50152,8.45341v169.50418c0,6.60253 -5.3524,11.95493 -11.95493,11.95493h-256.60572c-6.60252,0 -11.95493,-5.3524 -11.95493,-11.95493z" fill="#323232" fill-rule="evenodd" stroke-linecap="square"/><path d="M-152.38058,-65.71391h218.11023v42.01575h-218.11023z" fill-opacity="0" fill="#000000" fill-rule="evenodd" stroke-linecap="square"/><path d="M112.44755,104.24627v-10.26339h4.37054c0.5811,0 1.11719,0.14732 1.60826,0.44196c0.49925,0.28646 0.89621,0.67522 1.19085,1.16629c0.29464,0.49107 0.44196,1.04353 0.44196,1.65737c0,0.56473 -0.14732,1.08854 -0.44196,1.57143c-0.29464,0.4747 -0.6875,0.85528 -1.17857,1.14174c-0.48289,0.28646 -1.02307,0.42969 -1.62054,0.42969h-2.78683v3.85491zM118.54911,104.24627l-2.61496,-4.62835l1.63281,-0.3683l2.89732,5.00893zM114.03126,98.86904h2.93415c0.27827,0 0.5279,-0.06957 0.74888,-0.20871c0.22917,-0.14732 0.40513,-0.34375 0.5279,-0.58929c0.13095,-0.25372 0.19643,-0.532 0.19643,-0.83482c0,-0.34375 -0.08184,-0.64249 -0.24554,-0.89621c-0.1555,-0.26191 -0.37649,-0.46652 -0.66295,-0.61384c-0.28646,-0.14732 -0.61384,-0.22098 -0.98214,-0.22098h-2.51674zM125.5461,104.39359c-0.78571,0 -1.48549,-0.16778 -2.09933,-0.50335c-0.60566,-0.33557 -1.08445,-0.79799 -1.43638,-1.38728c-0.34375,-0.58929 -0.51563,-1.26451 -0.51563,-2.02567c0,-0.60566 0.09821,-1.15811 0.29464,-1.65737c0.19643,-0.49925 0.46652,-0.92894 0.81027,-1.28906c0.34375,-0.3683 0.75707,-0.65067 1.23996,-0.8471c0.49107,-0.20461 1.01897,-0.30692 1.58371,-0.30692c0.49925,0 0.96168,0.09412 1.38728,0.28237c0.43378,0.18825 0.80617,0.45015 1.11719,0.78571c0.3192,0.33557 0.56473,0.73251 0.73661,1.19085c0.17187,0.45015 0.25372,0.94122 0.24554,1.47321l-0.01228,0.65067h-6.28571l-0.34375,-1.20312h5.31585l-0.20871,0.24554v-0.34375c-0.03274,-0.32738 -0.14323,-0.61793 -0.33147,-0.87165c-0.18006,-0.25372 -0.41332,-0.45424 -0.69978,-0.60156c-0.28646,-0.14732 -0.59338,-0.22098 -0.92076,-0.22098c-0.532,0 -0.97805,0.10231 -1.33817,0.30692c-0.36012,0.19643 -0.6343,0.49107 -0.82254,0.88393c-0.18006,0.38467 -0.27009,0.85937 -0.27009,1.42411c0,0.532 0.11049,0.99851 0.33147,1.39955c0.22098,0.39286 0.53608,0.69978 0.94531,0.92076c0.41741,0.2128 0.89211,0.3192 1.42411,0.3192c0.38467,0 0.7407,-0.06138 1.06808,-0.18415c0.32738,-0.13095 0.68341,-0.36421 1.06808,-0.69978l0.76116,1.06808c-0.23735,0.23735 -0.52381,0.44606 -0.85937,0.62612c-0.33557,0.17188 -0.69159,0.31101 -1.06808,0.41741c-0.37649,0.09821 -0.74888,0.14732 -1.11719,0.14732zM133.11701,104.39359c-0.64658,0 -1.22768,-0.11049 -1.7433,-0.33147c-0.51562,-0.22917 -0.94531,-0.56473 -1.28906,-1.0067l1.01897,-0.87165c0.29464,0.33557 0.61384,0.5811 0.95759,0.73661c0.35193,0.14732 0.74888,0.22098 1.19085,0.22098c0.17188,0 0.33147,-0.02046 0.47879,-0.06138c0.1555,-0.04092 0.29055,-0.1064 0.40513,-0.19643c0.11458,-0.09003 0.20052,-0.19643 0.25781,-0.3192c0.05729,-0.12277 0.08594,-0.25781 0.08594,-0.40513c0,-0.25372 -0.09412,-0.45833 -0.28237,-0.61384c-0.09821,-0.06548 -0.25372,-0.13914 -0.46652,-0.22098c-0.20461,-0.08184 -0.4747,-0.16778 -0.81027,-0.25781c-0.56473,-0.14732 -1.02716,-0.31101 -1.38728,-0.49107c-0.36012,-0.18825 -0.63839,-0.40104 -0.83482,-0.63839c-0.14732,-0.18825 -0.25781,-0.38876 -0.33147,-0.60156c-0.06548,-0.22098 -0.09821,-0.46652 -0.09821,-0.73661c0,-0.3192 0.06957,-0.61384 0.20871,-0.88393c0.14732,-0.27009 0.34375,-0.50335 0.58929,-0.69978c0.25372,-0.20461 0.54836,-0.36012 0.88393,-0.46652c0.33557,-0.1064 0.69568,-0.1596 1.08036,-0.1596c0.36012,0 0.71615,0.04911 1.06808,0.14732c0.36012,0.09821 0.69159,0.24144 0.99442,0.42969c0.30283,0.18006 0.55654,0.39695 0.76115,0.65067l-0.85937,0.95759c-0.18825,-0.18825 -0.39286,-0.35193 -0.61384,-0.49107c-0.22098,-0.13914 -0.44606,-0.24554 -0.67522,-0.3192c-0.22098,-0.08184 -0.4215,-0.12277 -0.60156,-0.12277c-0.20461,0 -0.39286,0.02046 -0.56473,0.06138c-0.16369,0.03274 -0.30283,0.09003 -0.41741,0.17187c-0.1064,0.07366 -0.19233,0.17188 -0.25781,0.29464c-0.05729,0.11458 -0.08594,0.24554 -0.08594,0.39286c0.00818,0.12277 0.04092,0.24144 0.09821,0.35603c0.05729,0.11458 0.13504,0.20871 0.23326,0.28237c0.1064,0.08184 0.266,0.16778 0.47879,0.25781c0.2128,0.08184 0.48698,0.16369 0.82254,0.24554c0.48289,0.12277 0.88393,0.26191 1.20313,0.41741c0.3192,0.14732 0.57292,0.3192 0.76116,0.51562c0.19642,0.18825 0.33147,0.40513 0.40513,0.65067c0.08184,0.24554 0.12277,0.51972 0.12277,0.82254c0,0.43378 -0.12686,0.82664 -0.38057,1.17857c-0.24554,0.34375 -0.5811,0.61384 -1.0067,0.81027c-0.41741,0.19643 -0.88393,0.29464 -1.39955,0.29464zM141.15738,104.39359c-0.78571,0 -1.48549,-0.16778 -2.09933,-0.50335c-0.60566,-0.33557 -1.08445,-0.79799 -1.43638,-1.38728c-0.34375,-0.58929 -0.51562,-1.26451 -0.51562,-2.02567c0,-0.60566 0.09821,-1.15811 0.29464,-1.65737c0.19643,-0.49925 0.46652,-0.92894 0.81027,-1.28906c0.34375,-0.3683 0.75707,-0.65067 1.23996,-0.8471c0.49107,-0.20461 1.01897,-0.30692 1.58371,-0.30692c0.49925,0 0.96168,0.09412 1.38728,0.28237c0.43378,0.18825 0.80617,0.45015 1.11719,0.78571c0.3192,0.33557 0.56473,0.73251 0.73661,1.19085c0.17187,0.45015 0.25372,0.94122 0.24554,1.47321l-0.01228,0.65067h-6.28571l-0.34375,-1.20312h5.31585l-0.20871,0.24554v-0.34375c-0.03274,-0.32738 -0.14323,-0.61793 -0.33147,-0.87165c-0.18006,-0.25372 -0.41332,-0.45424 -0.69978,-0.60156c-0.28646,-0.14732 -0.59338,-0.22098 -0.92076,-0.22098c-0.532,0 -0.97805,0.10231 -1.33817,0.30692c-0.36012,0.19643 -0.6343,0.49107 -0.82254,0.88393c-0.18006,0.38467 -0.27009,0.85937 -0.27009,1.42411c0,0.532 0.11049,0.99851 0.33147,1.39955c0.22098,0.39286 0.53609,0.69978 0.94531,0.92076c0.41741,0.2128 0.89211,0.3192 1.42411,0.3192c0.38467,0 0.7407,-0.06138 1.06808,-0.18415c0.32738,-0.13095 0.68341,-0.36421 1.06808,-0.69978l0.76116,1.06808c-0.23735,0.23735 -0.52381,0.44606 -0.85937,0.62612c-0.33557,0.17188 -0.69159,0.31101 -1.06808,0.41741c-0.37649,0.09821 -0.74888,0.14732 -1.11719,0.14732zM147.12003,104.24627v-9.66183h1.51004v9.66183zM145.51177,98.02194v-1.47321h4.89844v1.47321zM156.27626,104.24627v-10.26339h4.17411c0.55655,0 1.0599,0.13914 1.51004,0.41741c0.45833,0.27827 0.82254,0.65885 1.09263,1.14174c0.27827,0.4747 0.41741,1.0067 0.41741,1.59598c0,0.58929 -0.13914,1.12537 -0.41741,1.60826c-0.27009,0.4747 -0.6343,0.85528 -1.09263,1.14174c-0.45015,0.28646 -0.9535,0.42969 -1.51004,0.42969h-2.5904v3.92857zM157.85996,98.79538h2.56585c0.26191,0 0.49925,-0.07366 0.71205,-0.22098c0.22098,-0.1555 0.39695,-0.35603 0.5279,-0.60156c0.13095,-0.25372 0.19643,-0.532 0.19643,-0.83482c0,-0.30283 -0.06548,-0.57701 -0.19643,-0.82254c-0.13095,-0.24554 -0.30692,-0.44196 -0.5279,-0.58929c-0.2128,-0.14732 -0.45015,-0.22098 -0.71205,-0.22098h-2.56585zM168.0012,104.39359c-0.63021,0 -1.20722,-0.17597 -1.73103,-0.5279c-0.52381,-0.35193 -0.94531,-0.83073 -1.26451,-1.43638c-0.31101,-0.60566 -0.46652,-1.28906 -0.46652,-2.05022c0,-0.77753 0.1596,-1.46503 0.47879,-2.0625c0.3192,-0.59747 0.74888,-1.06808 1.28906,-1.41183c0.54836,-0.34375 1.15811,-0.51563 1.82924,-0.51563c0.40104,0 0.76525,0.06138 1.09263,0.18415c0.33557,0.11458 0.62612,0.27827 0.87165,0.49107c0.25372,0.20461 0.45833,0.44606 0.61384,0.72433c0.16369,0.27009 0.266,0.56064 0.30692,0.87165l-0.33147,-0.11049v-2.00112h1.52232v7.69754h-1.52232v-1.82924l0.34375,-0.11049c-0.05729,0.27009 -0.17597,0.532 -0.35603,0.78571c-0.18006,0.24554 -0.40923,0.46652 -0.6875,0.66295c-0.27827,0.18825 -0.58519,0.34375 -0.92076,0.46652c-0.33557,0.11458 -0.69159,0.17187 -1.06808,0.17187zM168.39405,103.00631c0.46652,0 0.87165,-0.11049 1.2154,-0.33147c0.35193,-0.22917 0.62612,-0.54018 0.82254,-0.93304c0.20461,-0.40104 0.30692,-0.85528 0.30692,-1.36272c0,-0.49925 -0.10231,-0.94531 -0.30692,-1.33817c-0.19643,-0.39286 -0.47061,-0.69978 -0.82254,-0.92076c-0.34375,-0.22917 -0.74888,-0.34375 -1.2154,-0.34375c-0.45015,0 -0.8471,0.11458 -1.19085,0.34375c-0.34375,0.22098 -0.61793,0.5279 -0.82254,0.92076c-0.19643,0.39286 -0.29464,0.83892 -0.29464,1.33817c0,0.50744 0.09821,0.96168 0.29464,1.36272c0.20461,0.39286 0.47879,0.70387 0.82254,0.93304c0.34375,0.22098 0.7407,0.33147 1.19085,0.33147zM176.88716,104.39359c-0.64658,0 -1.22768,-0.11049 -1.7433,-0.33147c-0.51562,-0.22917 -0.94531,-0.56473 -1.28906,-1.0067l1.01897,-0.87165c0.29464,0.33557 0.61384,0.5811 0.95759,0.73661c0.35193,0.14732 0.74888,0.22098 1.19085,0.22098c0.17187,0 0.33147,-0.02046 0.47879,-0.06138c0.1555,-0.04092 0.29055,-0.1064 0.40513,-0.19643c0.11458,-0.09003 0.20052,-0.19643 0.25781,-0.3192c0.05729,-0.12277 0.08594,-0.25781 0.08594,-0.40513c0,-0.25372 -0.09412,-0.45833 -0.28237,-0.61384c-0.09821,-0.06548 -0.25372,-0.13914 -0.46652,-0.22098c-0.20461,-0.08184 -0.4747,-0.16778 -0.81027,-0.25781c-0.56473,-0.14732 -1.02716,-0.31101 -1.38728,-0.49107c-0.36012,-0.18825 -0.63839,-0.40104 -0.83482,-0.63839c-0.14732,-0.18825 -0.25781,-0.38876 -0.33147,-0.60156c-0.06548,-0.22098 -0.09821,-0.46652 -0.09821,-0.73661c0,-0.3192 0.06957,-0.61384 0.20871,-0.88393c0.14732,-0.27009 0.34375,-0.50335 0.58929,-0.69978c0.25372,-0.20461 0.54836,-0.36012 0.88393,-0.46652c0.33557,-0.1064 0.69568,-0.1596 1.08036,-0.1596c0.36012,0 0.71615,0.04911 1.06808,0.14732c0.36012,0.09821 0.69159,0.24144 0.99442,0.42969c0.30283,0.18006 0.55655,0.39695 0.76116,0.65067l-0.85938,0.95759c-0.18825,-0.18825 -0.39286,-0.35193 -0.61384,-0.49107c-0.22098,-0.13914 -0.44606,-0.24554 -0.67522,-0.3192c-0.22098,-0.08184 -0.4215,-0.12277 -0.60156,-0.12277c-0.20461,0 -0.39286,0.02046 -0.56473,0.06138c-0.16369,0.03274 -0.30283,0.09003 -0.41741,0.17187c-0.1064,0.07366 -0.19234,0.17188 -0.25781,0.29464c-0.05729,0.11458 -0.08594,0.24554 -0.08594,0.39286c0.00818,0.12277 0.04092,0.24144 0.09821,0.35603c0.05729,0.11458 0.13504,0.20871 0.23326,0.28237c0.1064,0.08184 0.266,0.16778 0.47879,0.25781c0.2128,0.08184 0.48698,0.16369 0.82254,0.24554c0.48289,0.12277 0.88393,0.26191 1.20312,0.41741c0.3192,0.14732 0.57292,0.3192 0.76116,0.51562c0.19643,0.18825 0.33147,0.40513 0.40513,0.65067c0.08184,0.24554 0.12277,0.51972 0.12277,0.82254c0,0.43378 -0.12686,0.82664 -0.38058,1.17857c-0.24554,0.34375 -0.5811,0.61384 -1.0067,0.81027c-0.41741,0.19643 -0.88393,0.29464 -1.39955,0.29464zM183.90857,104.39359c-0.64658,0 -1.22768,-0.11049 -1.7433,-0.33147c-0.51563,-0.22917 -0.94531,-0.56473 -1.28906,-1.0067l1.01897,-0.87165c0.29464,0.33557 0.61384,0.5811 0.95759,0.73661c0.35193,0.14732 0.74888,0.22098 1.19085,0.22098c0.17188,0 0.33147,-0.02046 0.47879,-0.06138c0.1555,-0.04092 0.29055,-0.1064 0.40513,-0.19643c0.11458,-0.09003 0.20052,-0.19643 0.25781,-0.3192c0.05729,-0.12277 0.08594,-0.25781 0.08594,-0.40513c0,-0.25372 -0.09412,-0.45833 -0.28237,-0.61384c-0.09821,-0.06548 -0.25372,-0.13914 -0.46652,-0.22098c-0.20461,-0.08184 -0.4747,-0.16778 -0.81027,-0.25781c-0.56473,-0.14732 -1.02716,-0.31101 -1.38728,-0.49107c-0.36012,-0.18825 -0.63839,-0.40104 -0.83482,-0.63839c-0.14732,-0.18825 -0.25781,-0.38876 -0.33147,-0.60156c-0.06548,-0.22098 -0.09821,-0.46652 -0.09821,-0.73661c0,-0.3192 0.06957,-0.61384 0.20871,-0.88393c0.14732,-0.27009 0.34375,-0.50335 0.58929,-0.69978c0.25372,-0.20461 0.54836,-0.36012 0.88393,-0.46652c0.33557,-0.1064 0.69568,-0.1596 1.08036,-0.1596c0.36012,0 0.71615,0.04911 1.06808,0.14732c0.36012,0.09821 0.69159,0.24144 0.99442,0.42969c0.30283,0.18006 0.55655,0.39695 0.76116,0.65067l-0.85937,0.95759c-0.18825,-0.18825 -0.39286,-0.35193 -0.61384,-0.49107c-0.22098,-0.13914 -0.44606,-0.24554 -0.67522,-0.3192c-0.22098,-0.08184 -0.4215,-0.12277 -0.60156,-0.12277c-0.20461,0 -0.39286,0.02046 -0.56473,0.06138c-0.16369,0.03274 -0.30283,0.09003 -0.41741,0.17187c-0.1064,0.07366 -0.19233,0.17188 -0.25781,0.29464c-0.05729,0.11458 -0.08594,0.24554 -0.08594,0.39286c0.00818,0.12277 0.04092,0.24144 0.09821,0.35603c0.05729,0.11458 0.13504,0.20871 0.23326,0.28237c0.1064,0.08184 0.266,0.16778 0.47879,0.25781c0.2128,0.08184 0.48698,0.16369 0.82254,0.24554c0.48289,0.12277 0.88393,0.26191 1.20313,0.41741c0.3192,0.14732 0.57292,0.3192 0.76116,0.51562c0.19643,0.18825 0.33147,0.40513 0.40513,0.65067c0.08184,0.24554 0.12277,0.51972 0.12277,0.82254c0,0.43378 -0.12686,0.82664 -0.38058,1.17857c-0.24554,0.34375 -0.5811,0.61384 -1.0067,0.81027c-0.41741,0.19643 -0.88393,0.29464 -1.39955,0.29464zM190.25475,104.24627l-2.62723,-7.69754l1.52232,-0.01228l1.87835,5.75781l-0.33147,-0.02455l2.03795,-4.50558h0.90848l2.05022,4.51786l-0.39286,0.02455l1.89063,-5.75781h1.52232l-2.5904,7.69754h-1.04353l-2.14844,-4.89844l0.34375,0.04911l-1.98884,4.84933zM203.33297,104.39359c-0.75298,0 -1.4282,-0.17187 -2.02567,-0.51562c-0.58929,-0.35193 -1.0558,-0.82664 -1.39955,-1.42411c-0.33557,-0.60566 -0.50335,-1.29316 -0.50335,-2.0625c0,-0.76934 0.16778,-1.45275 0.50335,-2.05022c0.34375,-0.60566 0.81027,-1.08036 1.39955,-1.42411c0.59747,-0.35193 1.27269,-0.5279 2.02567,-0.5279c0.73661,0 1.39955,0.17597 1.98884,0.5279c0.59747,0.34375 1.06808,0.81845 1.41183,1.42411c0.34375,0.59747 0.51562,1.28088 0.51562,2.05022c0,0.76934 -0.17187,1.45684 -0.51562,2.0625c-0.34375,0.59747 -0.81436,1.07217 -1.41183,1.42411c-0.58929,0.34375 -1.25223,0.51563 -1.98884,0.51563zM203.33297,103.01859c0.45833,0 0.86756,-0.11458 1.22768,-0.34375c0.36012,-0.22917 0.64249,-0.54018 0.8471,-0.93304c0.20461,-0.40104 0.30283,-0.85119 0.29464,-1.35045c0.00818,-0.50744 -0.09003,-0.95759 -0.29464,-1.35045c-0.20461,-0.40104 -0.48698,-0.71205 -0.8471,-0.93304c-0.36012,-0.22917 -0.76934,-0.34375 -1.22768,-0.34375c-0.45833,0 -0.87165,0.11458 -1.23996,0.34375c-0.3683,0.22917 -0.65476,0.54427 -0.85937,0.94531c-0.20461,0.39286 -0.30283,0.83892 -0.29464,1.33817c-0.00818,0.49925 0.09003,0.94941 0.29464,1.35045c0.20461,0.39286 0.49107,0.70387 0.85938,0.93304c0.3683,0.22917 0.78162,0.34375 1.23996,0.34375zM208.88589,104.24627v-7.69754h1.52232v2.41853l-0.14732,-0.58929c0.1064,-0.3683 0.29055,-0.70387 0.55246,-1.0067c0.26191,-0.30283 0.56064,-0.54018 0.89621,-0.71205c0.33557,-0.18006 0.68341,-0.27009 1.04353,-0.27009c0.16369,0 0.3192,0.01637 0.46652,0.04911c0.1555,0.02455 0.27827,0.05729 0.3683,0.09821l-0.39286,1.64509c-0.11458,-0.04911 -0.24554,-0.09003 -0.39286,-0.12277c-0.13914,-0.04092 -0.27827,-0.06138 -0.41741,-0.06138c-0.26191,0 -0.51153,0.0532 -0.74888,0.1596c-0.23735,0.09821 -0.45015,0.24144 -0.63839,0.42969c-0.18006,0.18006 -0.32329,0.38876 -0.42969,0.62612c-0.1064,0.23735 -0.1596,0.49925 -0.1596,0.78571v4.24777zM217.67483,104.39359c-0.70387,0 -1.32999,-0.17187 -1.87835,-0.51562c-0.54836,-0.35193 -0.98624,-0.82664 -1.31362,-1.42411c-0.3192,-0.60566 -0.47879,-1.29316 -0.47879,-2.0625c0,-0.76934 0.1555,-1.45275 0.46652,-2.05022c0.3192,-0.60566 0.75298,-1.08036 1.30134,-1.42411c0.54836,-0.35193 1.17039,-0.5279 1.86607,-0.5279c0.37649,0 0.74479,0.06138 1.10491,0.18415c0.36012,0.12277 0.67932,0.29055 0.95759,0.50335c0.28646,0.20461 0.50744,0.43378 0.66295,0.6875c0.16369,0.24554 0.24554,0.49516 0.24554,0.74888l-0.44196,0.03683v-5.15625h1.51004v10.85268h-1.51004v-1.82924h0.29464c0,0.22917 -0.07775,0.46242 -0.23326,0.69978c-0.1555,0.22917 -0.36421,0.44196 -0.62612,0.63839c-0.25372,0.18825 -0.55246,0.34375 -0.89621,0.46652c-0.33557,0.11458 -0.67932,0.17187 -1.03125,0.17187zM217.88354,103.09225c0.45833,0 0.86347,-0.11867 1.2154,-0.35603c0.35193,-0.23735 0.62612,-0.55655 0.82254,-0.95759c0.20461,-0.40923 0.30692,-0.87165 0.30692,-1.38728c0,-0.51563 -0.10231,-0.97396 -0.30692,-1.375c-0.19643,-0.40923 -0.47061,-0.73251 -0.82254,-0.96987c-0.35193,-0.23735 -0.75707,-0.35603 -1.2154,-0.35603c-0.45833,0 -0.86347,0.11867 -1.2154,0.35603c-0.35193,0.23735 -0.63021,0.56064 -0.83482,0.96987c-0.19643,0.40104 -0.29464,0.85938 -0.29464,1.375c0,0.51562 0.09821,0.97805 0.29464,1.38728c0.20461,0.40104 0.48289,0.72024 0.83482,0.95759c0.35193,0.23735 0.75707,0.35603 1.2154,0.35603z" fill="#ffffff" fill-rule="nonzero" stroke-linecap="square"/><path d="M-178.15223,21.56168h445.88974v42.01575h-445.88974z" fill-opacity="0" fill="#000000" fill-rule="evenodd" stroke-linecap="square"/><path d="M120.52416,150.55512h238.95169v58.88977h-238.95169z" fill-opacity="0" fill="#000000" fill-rule="evenodd" stroke-linecap="square"/><path d="M154.50185,183.69238c-0.63928,0 -1.22712,-0.1139 -1.76353,-0.34168c-0.53641,-0.22779 -1.003,-0.55478 -1.3998,-0.98096c-0.38944,-0.42619 -0.69439,-0.92953 -0.91483,-1.51002c-0.21309,-0.5805 -0.31964,-1.2161 -0.31964,-1.90681c0,-0.65397 0.11757,-1.26386 0.35271,-1.82966c0.23513,-0.5658 0.55845,-1.06179 0.96994,-1.48797c0.41149,-0.43353 0.88911,-0.76787 1.43287,-1.003c0.54375,-0.24249 1.1316,-0.36372 1.76353,-0.36372c0.44823,0 0.88544,0.06981 1.31163,0.20942c0.42619,0.13226 0.81196,0.31964 1.15732,0.56213c0.34536,0.24249 0.62826,0.51804 0.8487,0.82666l-0.9479,0.98097c-0.25718,-0.25718 -0.51437,-0.47028 -0.77154,-0.63928c-0.25718,-0.169 -0.52171,-0.29759 -0.79359,-0.38577c-0.26453,-0.08818 -0.53273,-0.13226 -0.80461,-0.13226c-0.43353,0 -0.83768,0.08083 -1.21243,0.24249c-0.3674,0.16166 -0.69072,0.38944 -0.96994,0.68337c-0.27188,0.28657 -0.48865,0.63193 -0.6503,1.03607c-0.15431,0.39679 -0.23146,0.83033 -0.23146,1.3006c0,0.49966 0.07348,0.95525 0.22044,1.36674c0.15431,0.40414 0.37107,0.75318 0.6503,1.0471c0.28657,0.28657 0.62459,0.50701 1.01403,0.66132c0.38944,0.15431 0.82298,0.23147 1.3006,0.23147c0.28657,0 0.56947,-0.04041 0.8487,-0.12124c0.27922,-0.08083 0.54008,-0.19472 0.78257,-0.34168c0.24984,-0.14696 0.47762,-0.32331 0.68337,-0.52906l0.70541,1.15732c-0.1984,0.24249 -0.47394,0.45925 -0.82665,0.6503c-0.34536,0.19105 -0.73113,0.34169 -1.15731,0.45191c-0.41884,0.11022 -0.84503,0.16533 -1.27856,0.16533zM162.46778,183.69238c-0.67602,0 -1.28223,-0.15431 -1.81864,-0.46293c-0.52906,-0.31597 -0.9479,-0.74215 -1.25651,-1.27856c-0.30127,-0.54375 -0.4519,-1.16099 -0.4519,-1.85171c0,-0.69072 0.15063,-1.30428 0.45191,-1.84068c0.30862,-0.54375 0.72746,-0.96994 1.25651,-1.27856c0.53641,-0.31597 1.14262,-0.47394 1.81864,-0.47394c0.66132,0 1.25651,0.15798 1.78557,0.47395c0.53641,0.30862 0.95892,0.73481 1.26754,1.27856c0.30862,0.53641 0.46293,1.14997 0.46293,1.84069c0,0.69072 -0.15431,1.30795 -0.46293,1.85171c-0.30862,0.53641 -0.73113,0.96259 -1.26753,1.27856c-0.52906,0.30862 -1.12425,0.46293 -1.78557,0.46293zM162.46778,182.45791c0.41149,0 0.77889,-0.10287 1.10221,-0.30862c0.32331,-0.20575 0.57682,-0.48497 0.76053,-0.83768c0.1837,-0.36006 0.27188,-0.76419 0.26453,-1.21243c0.00735,-0.45558 -0.08083,-0.85972 -0.26453,-1.21243c-0.1837,-0.36006 -0.43721,-0.63928 -0.76052,-0.83768c-0.32331,-0.20575 -0.69072,-0.30862 -1.10221,-0.30862c-0.41149,0 -0.78256,0.10287 -1.11322,0.30862c-0.33066,0.20575 -0.58784,0.48865 -0.77154,0.8487c-0.1837,0.35271 -0.27188,0.75318 -0.26453,1.20141c-0.00735,0.44823 0.08083,0.85237 0.26453,1.21243c0.1837,0.35271 0.44088,0.63193 0.77154,0.83768c0.33066,0.20575 0.70174,0.30862 1.11323,0.30862zM167.45317,183.56011v-6.91083h1.35572v1.42185l-0.24249,0.15431c0.08818,-0.30127 0.26085,-0.5805 0.51804,-0.83768c0.25718,-0.26453 0.55845,-0.47762 0.90381,-0.63928c0.35271,-0.16166 0.71276,-0.24249 1.08016,-0.24249c0.52906,0 0.96627,0.10287 1.31163,0.30862c0.35271,0.20575 0.61724,0.52171 0.79359,0.9479c0.17635,0.41884 0.26453,0.9479 0.26453,1.58718v4.21043h-1.35571v-4.12225c0,-0.38944 -0.05144,-0.71276 -0.15431,-0.96994c-0.10287,-0.26453 -0.26453,-0.45558 -0.48497,-0.57315c-0.22044,-0.11757 -0.49232,-0.169 -0.81563,-0.15431c-0.26453,0 -0.50701,0.04409 -0.72746,0.13226c-0.22044,0.08083 -0.41149,0.1984 -0.57315,0.35271c-0.16166,0.14696 -0.29025,0.31964 -0.38577,0.51804c-0.08818,0.19105 -0.13226,0.40047 -0.13226,0.62826v4.18838h-0.67234c-0.11022,0 -0.22412,0 -0.34168,0c-0.11757,0 -0.23146,0 -0.34168,0zM176.03307,183.56011v-7.68237c0,-0.39679 0.08818,-0.7495 0.26453,-1.05812c0.17635,-0.30862 0.41516,-0.54743 0.71644,-0.71643c0.30862,-0.17635 0.665,-0.26453 1.06914,-0.26453c0.27922,0 0.54008,0.05144 0.78257,0.15431c0.24984,0.10287 0.45191,0.24249 0.60622,0.41884l-0.46293,1.03607c-0.11757,-0.10287 -0.24616,-0.18737 -0.38577,-0.2535c-0.13226,-0.06613 -0.25718,-0.09919 -0.37475,-0.09919c-0.1837,0 -0.34168,0.02939 -0.47394,0.08818c-0.12491,0.05878 -0.22044,0.14696 -0.28657,0.26453c-0.05878,0.11757 -0.08818,0.26085 -0.08818,0.42986v7.68238h-0.68337c-0.11022,0 -0.22412,0 -0.34168,0c-0.11022,0 -0.22412,0 -0.34168,0zM174.93087,178.01602v-1.24549h4.10021v1.2455zM180.67335,183.56011v-6.91083h1.35572v6.91083zM181.33468,175.12824c-0.28657,0 -0.51069,-0.07348 -0.67234,-0.22044c-0.15431,-0.15431 -0.23146,-0.3674 -0.23146,-0.63928c0,-0.25718 0.08083,-0.46293 0.24249,-0.61724c0.16166,-0.16166 0.3821,-0.24249 0.66132,-0.24249c0.28657,0 0.50701,0.07716 0.66132,0.23147c0.16166,0.14696 0.24249,0.35638 0.24249,0.62826c0,0.25718 -0.08083,0.4666 -0.24249,0.62826c-0.16166,0.15431 -0.3821,0.23147 -0.66132,0.23147zM184.11415,183.56011v-6.91083h1.36674v2.17135l-0.13226,-0.52906c0.09553,-0.33066 0.26085,-0.63193 0.496,-0.90381c0.23513,-0.27188 0.50334,-0.48497 0.80461,-0.63928c0.30127,-0.16166 0.61356,-0.24249 0.93688,-0.24249c0.14696,0 0.28657,0.01469 0.41884,0.04409c0.13962,0.02204 0.24984,0.05144 0.33066,0.08818l-0.35271,1.47696c-0.10287,-0.04409 -0.22044,-0.08083 -0.35271,-0.11022c-0.12491,-0.03674 -0.24984,-0.05511 -0.37475,-0.05511c-0.23513,0 -0.45925,0.04776 -0.67234,0.14329c-0.21309,0.08818 -0.40414,0.21677 -0.57315,0.38578c-0.16166,0.16166 -0.29025,0.34903 -0.38577,0.56213c-0.09553,0.21309 -0.14328,0.44823 -0.14328,0.70541v3.81363zM189.39572,183.56011v-6.91083h1.36674v1.47696l-0.2535,0.15431c0.07348,-0.22779 0.1837,-0.44456 0.33066,-0.6503c0.15431,-0.21309 0.34169,-0.40047 0.56213,-0.56212c0.22779,-0.16166 0.47028,-0.29025 0.72746,-0.38577c0.26453,-0.10287 0.53273,-0.15431 0.80461,-0.15431c0.38944,0 0.73481,0.06613 1.03607,0.1984c0.30127,0.13226 0.54743,0.33066 0.73848,0.59519c0.19105,0.26453 0.33066,0.59519 0.41884,0.99199l-0.20942,-0.05511l0.08818,-0.22044c0.10287,-0.20575 0.23881,-0.39679 0.40782,-0.57315c0.169,-0.1837 0.36373,-0.34536 0.58417,-0.48497c0.22044,-0.13962 0.45191,-0.24984 0.69439,-0.33066c0.24984,-0.08083 0.49232,-0.12124 0.72746,-0.12124c0.51437,0 0.94055,0.10655 1.27856,0.31964c0.33801,0.21309 0.59152,0.53641 0.76053,0.96994c0.17635,0.42619 0.26453,0.95892 0.26453,1.5982v4.14429h-1.36674v-4.06714c0,-0.39679 -0.05144,-0.72011 -0.15431,-0.96994c-0.10287,-0.24984 -0.25718,-0.43353 -0.46293,-0.5511c-0.1984,-0.12491 -0.45558,-0.18737 -0.77154,-0.18737c-0.24249,0 -0.47394,0.04409 -0.69439,0.13226c-0.21309,0.08083 -0.40047,0.19472 -0.56212,0.34169c-0.15431,0.14696 -0.27555,0.31964 -0.36372,0.51804c-0.08083,0.1984 -0.12124,0.41516 -0.12124,0.6503v4.13327h-1.37775v-4.08918c0,-0.36006 -0.05144,-0.665 -0.15431,-0.91483c-0.10287,-0.24984 -0.25718,-0.44088 -0.46293,-0.57315c-0.1984,-0.13226 -0.44456,-0.1984 -0.73847,-0.1984c-0.24249,0 -0.47028,0.04409 -0.68337,0.13226c-0.20575,0.08083 -0.38944,0.19472 -0.5511,0.34169c-0.15431,0.13962 -0.27555,0.30862 -0.36372,0.50701c-0.08818,0.1984 -0.13226,0.41149 -0.13226,0.63928v4.15532zM206.38064,186.59118l1.3998,-3.22946l0.01103,1.08016l-3.4499,-7.79259h1.57616l2.16032,5.08117c0.04409,0.08818 0.09553,0.22412 0.15431,0.40782c0.06613,0.17635 0.12125,0.35271 0.16533,0.52906l-0.34168,0.07716c0.06613,-0.1837 0.13226,-0.3674 0.1984,-0.5511c0.06613,-0.1837 0.12859,-0.3674 0.18738,-0.5511l1.80762,-4.99299h1.60922l-2.84369,6.91083l-1.16834,3.03107zM215.84603,183.69238c-0.67602,0 -1.28223,-0.15431 -1.81864,-0.46293c-0.52906,-0.31597 -0.9479,-0.74215 -1.25651,-1.27856c-0.30127,-0.54375 -0.4519,-1.16099 -0.4519,-1.85171c0,-0.69072 0.15063,-1.30428 0.45191,-1.84068c0.30862,-0.54375 0.72746,-0.96994 1.25651,-1.27856c0.53641,-0.31597 1.14262,-0.47394 1.81864,-0.47394c0.66132,0 1.25651,0.15798 1.78557,0.47395c0.53641,0.30862 0.95892,0.73481 1.26754,1.27856c0.30862,0.53641 0.46293,1.14997 0.46293,1.84069c0,0.69072 -0.15431,1.30795 -0.46293,1.85171c-0.30862,0.53641 -0.73113,0.96259 -1.26753,1.27856c-0.52906,0.30862 -1.12425,0.46293 -1.78557,0.46293zM215.84603,182.45791c0.41149,0 0.77889,-0.10287 1.10221,-0.30862c0.32331,-0.20575 0.57682,-0.48497 0.76053,-0.83768c0.1837,-0.36006 0.27188,-0.76419 0.26453,-1.21243c0.00735,-0.45558 -0.08083,-0.85972 -0.26453,-1.21243c-0.1837,-0.36006 -0.43721,-0.63928 -0.76052,-0.83768c-0.32331,-0.20575 -0.69072,-0.30862 -1.10221,-0.30862c-0.41149,0 -0.78256,0.10287 -1.11322,0.30862c-0.33066,0.20575 -0.58784,0.48865 -0.77154,0.8487c-0.1837,0.35271 -0.27188,0.75318 -0.26453,1.20141c-0.00735,0.44823 0.08083,0.85237 0.26453,1.21243c0.1837,0.35271 0.44088,0.63193 0.77154,0.83768c0.33066,0.20575 0.70174,0.30862 1.11323,0.30862zM223.25628,183.69238c-0.49232,0 -0.92218,-0.1139 -1.28958,-0.34168c-0.36006,-0.22779 -0.63928,-0.54743 -0.83768,-0.95892c-0.1984,-0.41149 -0.29759,-0.90381 -0.29759,-1.47696v-4.26553h1.35572v3.90181c0,0.39679 0.06246,0.74215 0.18738,1.03607c0.13226,0.29392 0.31597,0.52171 0.5511,0.68337c0.24249,0.15431 0.53641,0.23147 0.88176,0.23147c0.24984,0 0.4813,-0.04041 0.69439,-0.12124c0.21309,-0.08083 0.39679,-0.19472 0.5511,-0.34168c0.15431,-0.15431 0.27188,-0.33434 0.35271,-0.54008c0.08818,-0.21309 0.13226,-0.44456 0.13226,-0.69439v-4.15531h1.35572v6.91083h-1.35571v-1.44389l0.24249,-0.16533c-0.10287,0.33066 -0.27922,0.62826 -0.52906,0.89279c-0.24984,0.25718 -0.54743,0.46293 -0.89278,0.61724c-0.34536,0.15431 -0.71276,0.23147 -1.10221,0.23147zM228.79343,183.56011v-6.91083h1.36674v2.17135l-0.13226,-0.52906c0.09553,-0.33066 0.26085,-0.63193 0.496,-0.90381c0.23513,-0.27188 0.50334,-0.48497 0.80461,-0.63928c0.30127,-0.16166 0.61356,-0.24249 0.93688,-0.24249c0.14696,0 0.28657,0.01469 0.41884,0.04409c0.13962,0.02204 0.24984,0.05144 0.33066,0.08818l-0.35271,1.47696c-0.10287,-0.04409 -0.22044,-0.08083 -0.35271,-0.11022c-0.12491,-0.03674 -0.24984,-0.05511 -0.37475,-0.05511c-0.23513,0 -0.45925,0.04776 -0.67234,0.14329c-0.21309,0.08818 -0.40414,0.21677 -0.57315,0.38578c-0.16166,0.16166 -0.29025,0.34903 -0.38577,0.56213c-0.09553,0.21309 -0.14328,0.44823 -0.14328,0.70541v3.81363zM237.78194,183.56011v-6.91083h1.35572v1.42185l-0.24249,0.15431c0.08818,-0.30127 0.26085,-0.5805 0.51804,-0.83768c0.25718,-0.26453 0.55845,-0.47762 0.90381,-0.63928c0.35271,-0.16166 0.71276,-0.24249 1.08016,-0.24249c0.52906,0 0.96627,0.10287 1.31163,0.30862c0.35271,0.20575 0.61724,0.52171 0.79359,0.9479c0.17635,0.41884 0.26453,0.9479 0.26453,1.58718v4.21043h-1.35571v-4.12225c0,-0.38944 -0.05144,-0.71276 -0.15431,-0.96994c-0.10287,-0.26453 -0.26453,-0.45558 -0.48497,-0.57315c-0.22044,-0.11757 -0.49232,-0.169 -0.81563,-0.15431c-0.26453,0 -0.50701,0.04409 -0.72746,0.13226c-0.22044,0.08083 -0.41149,0.1984 -0.57315,0.35271c-0.16166,0.14696 -0.29025,0.31964 -0.38577,0.51804c-0.08818,0.19105 -0.13226,0.40047 -0.13226,0.62826v4.18838h-0.67234c-0.11022,0 -0.22412,0 -0.34168,0c-0.11757,0 -0.23146,0 -0.34168,0zM248.83077,183.69238c-0.70541,0 -1.33367,-0.15063 -1.88477,-0.4519c-0.54375,-0.30127 -0.97362,-0.71643 -1.28958,-1.24549c-0.30862,-0.52906 -0.46293,-1.13527 -0.46293,-1.81864c0,-0.54375 0.08818,-1.03975 0.26453,-1.48797c0.17635,-0.44823 0.41884,-0.834 0.72746,-1.15731c0.30862,-0.33066 0.67969,-0.58417 1.11323,-0.76052c0.44088,-0.1837 0.91483,-0.27555 1.42185,-0.27555c0.44823,0 0.8634,0.0845 1.2455,0.25351c0.38944,0.169 0.72378,0.40414 1.00301,0.70541c0.28657,0.30127 0.50701,0.65765 0.66132,1.06914c0.15431,0.40414 0.22779,0.84503 0.22044,1.32265l-0.01102,0.58417h-5.64329l-0.30862,-1.08016h4.77255l-0.18737,0.22044v-0.30862c-0.02939,-0.29392 -0.12859,-0.55478 -0.29759,-0.78256c-0.16166,-0.22779 -0.37107,-0.40781 -0.62825,-0.54008c-0.25718,-0.13226 -0.53273,-0.1984 -0.82665,-0.1984c-0.47762,0 -0.87809,0.09185 -1.2014,0.27555c-0.32331,0.17635 -0.56947,0.44088 -0.73847,0.79359c-0.16166,0.34536 -0.24249,0.77154 -0.24249,1.27856c0,0.47762 0.0992,0.89646 0.2976,1.25651c0.1984,0.35271 0.4813,0.62826 0.8487,0.82666c0.37475,0.19105 0.80094,0.28657 1.27856,0.28657c0.34536,0 0.665,-0.05511 0.95892,-0.16533c0.29392,-0.11757 0.61356,-0.32699 0.95892,-0.62825l0.68337,0.95892c-0.21309,0.21309 -0.47028,0.40047 -0.77154,0.56213c-0.30127,0.15431 -0.62091,0.27922 -0.95892,0.37475c-0.33801,0.08818 -0.67234,0.13226 -1.003,0.13226zM254.89002,183.56011l-2.35872,-6.91083l1.36674,-0.01102l1.68638,5.16935l-0.29759,-0.02204l1.82966,-4.04509h0.81563l1.84069,4.05612l-0.35271,0.02204l1.6974,-5.16934h1.36674l-2.32565,6.91083h-0.93687l-1.92886,-4.3978l0.30862,0.04409l-1.78557,4.35372zM267.40579,186.45891v-9.80963h1.36674v1.57616l-0.20942,-0.11022c0.05144,-0.26453 0.1984,-0.51803 0.44088,-0.76052c0.24984,-0.24249 0.5511,-0.44088 0.90381,-0.59519c0.36006,-0.15431 0.72746,-0.23146 1.10221,-0.23146c0.62459,0 1.17569,0.15431 1.65331,0.46293c0.48497,0.30862 0.86707,0.73113 1.14629,1.26754c0.28658,0.53641 0.42987,1.14997 0.42987,1.84069c0,0.68337 -0.13962,1.29693 -0.41885,1.84069c-0.27922,0.53641 -0.66132,0.96259 -1.14629,1.27856c-0.47762,0.30862 -1.0177,0.46293 -1.62024,0.46293c-0.40414,0 -0.79726,-0.08083 -1.17936,-0.24249c-0.37475,-0.16166 -0.69439,-0.37107 -0.95892,-0.62825c-0.26453,-0.25718 -0.42619,-0.52171 -0.48497,-0.79359l0.34169,-0.17635v4.61825zM270.82263,182.42484c0.40414,0 0.76419,-0.09919 1.08016,-0.29759c0.31597,-0.20575 0.5658,-0.4813 0.7495,-0.82665c0.1837,-0.35271 0.27555,-0.75318 0.27555,-1.2014c0,-0.44823 -0.09185,-0.84503 -0.27555,-1.19038c-0.17635,-0.34536 -0.42251,-0.61724 -0.73847,-0.81563c-0.30862,-0.20575 -0.67234,-0.30862 -1.09118,-0.30862c-0.41149,0 -0.77522,0.0992 -1.09118,0.2976c-0.31597,0.1984 -0.5658,0.47395 -0.7495,0.82666c-0.1837,0.34536 -0.27555,0.74215 -0.27555,1.19038c0,0.44823 0.09185,0.8487 0.27555,1.20141c0.1837,0.34536 0.43353,0.62091 0.7495,0.82666c0.31597,0.1984 0.67969,0.2976 1.09119,0.2976zM278.36629,183.69238c-0.5658,0 -1.08384,-0.15798 -1.55411,-0.47394c-0.47028,-0.31597 -0.84869,-0.74582 -1.13527,-1.28958c-0.27922,-0.54375 -0.41884,-1.15731 -0.41884,-1.84068c0,-0.69806 0.14329,-1.3153 0.42986,-1.85171c0.28657,-0.53641 0.67235,-0.95892 1.15732,-1.26753c0.49232,-0.30862 1.03975,-0.46293 1.64229,-0.46293c0.36006,0 0.68704,0.05511 0.98097,0.16533c0.30127,0.10287 0.56213,0.24984 0.78257,0.44088c0.22779,0.1837 0.41149,0.40047 0.5511,0.6503c0.14696,0.24249 0.23881,0.50334 0.27555,0.78257l-0.29759,-0.09919v-1.79659h1.36674v6.91083h-1.36674v-1.64228l0.30862,-0.09919c-0.05144,0.24249 -0.15798,0.47762 -0.31964,0.70541c-0.16166,0.22044 -0.3674,0.41884 -0.61724,0.59519c-0.24984,0.169 -0.52538,0.30862 -0.82665,0.41884c-0.30127,0.10287 -0.62091,0.15431 -0.95892,0.15431zM278.719,182.44688c0.41884,0 0.78257,-0.09919 1.09119,-0.29759c0.31597,-0.20575 0.56213,-0.48497 0.73848,-0.83768c0.1837,-0.36006 0.27555,-0.76787 0.27555,-1.22344c0,-0.44823 -0.09185,-0.84869 -0.27555,-1.2014c-0.17635,-0.35271 -0.42251,-0.62825 -0.73847,-0.82665c-0.30862,-0.20575 -0.67234,-0.30862 -1.09118,-0.30862c-0.40414,0 -0.76052,0.10287 -1.06914,0.30862c-0.30862,0.1984 -0.55478,0.47395 -0.73847,0.82666c-0.17635,0.35271 -0.26453,0.75318 -0.26453,1.20141c0,0.45558 0.08818,0.8634 0.26453,1.22345c0.1837,0.35271 0.42986,0.63193 0.73848,0.83768c0.30862,0.1984 0.665,0.2976 1.06914,0.2976zM286.34406,183.69238c-0.5805,0 -1.10221,-0.09919 -1.56513,-0.29759c-0.46293,-0.20575 -0.84869,-0.50701 -1.15731,-0.90381l0.91483,-0.78256c0.26453,0.30127 0.5511,0.52171 0.85972,0.66132c0.31597,0.13226 0.67235,0.1984 1.06914,0.1984c0.15431,0 0.2976,-0.01837 0.42986,-0.05511c0.13962,-0.03674 0.26085,-0.09553 0.36373,-0.17635c0.10287,-0.08083 0.18003,-0.17635 0.23147,-0.28657c0.05144,-0.11022 0.07716,-0.23146 0.07716,-0.36372c0,-0.22779 -0.0845,-0.41149 -0.2535,-0.5511c-0.08818,-0.05878 -0.22779,-0.12491 -0.41884,-0.1984c-0.1837,-0.07348 -0.42619,-0.15063 -0.72746,-0.23146c-0.50701,-0.13226 -0.92218,-0.27922 -1.24549,-0.44088c-0.32331,-0.169 -0.57315,-0.36006 -0.7495,-0.57315c-0.13226,-0.169 -0.23146,-0.34903 -0.29759,-0.54008c-0.05878,-0.1984 -0.08818,-0.41884 -0.08818,-0.66132c0,-0.28657 0.06246,-0.5511 0.18738,-0.79359c0.13226,-0.24249 0.30862,-0.4519 0.52906,-0.62825c0.22779,-0.1837 0.49232,-0.32331 0.79359,-0.41884c0.30127,-0.09553 0.62459,-0.14328 0.96994,-0.14328c0.32331,0 0.64295,0.04409 0.95892,0.13226c0.32331,0.08818 0.62091,0.21677 0.89279,0.38578c0.27188,0.16166 0.49966,0.35638 0.68337,0.58417l-0.77154,0.85972c-0.169,-0.169 -0.35271,-0.31597 -0.5511,-0.44088c-0.1984,-0.12491 -0.40047,-0.22044 -0.60621,-0.28657c-0.1984,-0.07348 -0.37843,-0.11022 -0.54008,-0.11022c-0.1837,0 -0.35271,0.01837 -0.50701,0.05511c-0.14696,0.02939 -0.27188,0.08083 -0.37475,0.15431c-0.09553,0.06613 -0.17268,0.15431 -0.23146,0.26453c-0.05144,0.10287 -0.07715,0.22044 -0.07715,0.35271c0.00735,0.11022 0.03674,0.21677 0.08818,0.31964c0.05144,0.10287 0.12125,0.18738 0.20942,0.25351c0.09553,0.07348 0.23881,0.15063 0.42986,0.23147c0.19105,0.07348 0.43721,0.14696 0.73848,0.22044c0.43353,0.11022 0.79359,0.23513 1.08016,0.37475c0.28657,0.13226 0.51437,0.28657 0.68337,0.46293c0.17635,0.169 0.2976,0.36373 0.36373,0.58417c0.07348,0.22044 0.11022,0.4666 0.11022,0.73848c0,0.38944 -0.1139,0.74215 -0.34169,1.05812c-0.22044,0.30862 -0.52171,0.5511 -0.90381,0.72746c-0.37475,0.17635 -0.79359,0.26453 -1.25651,0.26453zM292.64786,183.69238c-0.5805,0 -1.10221,-0.09919 -1.56513,-0.29759c-0.46293,-0.20575 -0.84869,-0.50701 -1.15731,-0.90381l0.91483,-0.78256c0.26453,0.30127 0.5511,0.52171 0.85972,0.66132c0.31597,0.13226 0.67235,0.1984 1.06914,0.1984c0.15431,0 0.2976,-0.01837 0.42986,-0.05511c0.13962,-0.03674 0.26085,-0.09553 0.36373,-0.17635c0.10287,-0.08083 0.18003,-0.17635 0.23147,-0.28657c0.05144,-0.11022 0.07716,-0.23146 0.07716,-0.36372c0,-0.22779 -0.0845,-0.41149 -0.2535,-0.5511c-0.08818,-0.05878 -0.22779,-0.12491 -0.41884,-0.1984c-0.1837,-0.07348 -0.42619,-0.15063 -0.72746,-0.23146c-0.50701,-0.13226 -0.92218,-0.27922 -1.24549,-0.44088c-0.32331,-0.169 -0.57315,-0.36006 -0.7495,-0.57315c-0.13226,-0.169 -0.23146,-0.34903 -0.29759,-0.54008c-0.05878,-0.1984 -0.08818,-0.41884 -0.08818,-0.66132c0,-0.28657 0.06246,-0.5511 0.18738,-0.79359c0.13226,-0.24249 0.30862,-0.4519 0.52906,-0.62825c0.22779,-0.1837 0.49232,-0.32331 0.79359,-0.41884c0.30127,-0.09553 0.62459,-0.14328 0.96994,-0.14328c0.32331,0 0.64295,0.04409 0.95892,0.13226c0.32331,0.08818 0.62091,0.21677 0.89279,0.38578c0.27188,0.16166 0.49966,0.35638 0.68337,0.58417l-0.77154,0.85972c-0.169,-0.169 -0.35271,-0.31597 -0.5511,-0.44088c-0.1984,-0.12491 -0.40047,-0.22044 -0.60621,-0.28657c-0.1984,-0.07348 -0.37843,-0.11022 -0.54008,-0.11022c-0.1837,0 -0.35271,0.01837 -0.50701,0.05511c-0.14696,0.02939 -0.27188,0.08083 -0.37475,0.15431c-0.09553,0.06613 -0.17268,0.15431 -0.23146,0.26453c-0.05144,0.10287 -0.07715,0.22044 -0.07715,0.35271c0.00735,0.11022 0.03674,0.21677 0.08818,0.31964c0.05144,0.10287 0.12125,0.18738 0.20942,0.25351c0.09553,0.07348 0.23881,0.15063 0.42986,0.23147c0.19105,0.07348 0.43721,0.14696 0.73848,0.22044c0.43353,0.11022 0.79359,0.23513 1.08016,0.37475c0.28657,0.13226 0.51437,0.28657 0.68337,0.46293c0.17635,0.169 0.2976,0.36373 0.36373,0.58417c0.07348,0.22044 0.11022,0.4666 0.11022,0.73848c0,0.38944 -0.1139,0.74215 -0.34168,1.05812c-0.22044,0.30862 -0.52171,0.5511 -0.90381,0.72746c-0.37475,0.17635 -0.79359,0.26453 -1.25651,0.26453zM298.34545,183.56011l-2.35872,-6.91083l1.36674,-0.01102l1.68638,5.16935l-0.29759,-0.02204l1.82966,-4.04509h0.81563l1.84069,4.05612l-0.35271,0.02204l1.6974,-5.16934h1.36674l-2.32565,6.91083h-0.93687l-1.92886,-4.3978l0.30862,0.04409l-1.78557,4.35372zM310.08704,183.69238c-0.67602,0 -1.28223,-0.15431 -1.81864,-0.46293c-0.52906,-0.31597 -0.9479,-0.74215 -1.25651,-1.27856c-0.30127,-0.54375 -0.4519,-1.16099 -0.4519,-1.85171c0,-0.69072 0.15063,-1.30428 0.45191,-1.84068c0.30862,-0.54375 0.72746,-0.96994 1.25651,-1.27856c0.53641,-0.31597 1.14262,-0.47394 1.81864,-0.47394c0.66132,0 1.25651,0.15798 1.78557,0.47395c0.53641,0.30862 0.95892,0.73481 1.26754,1.27856c0.30862,0.53641 0.46293,1.14997 0.46293,1.84069c0,0.69072 -0.15431,1.30795 -0.46293,1.85171c-0.30862,0.53641 -0.73113,0.96259 -1.26753,1.27856c-0.52906,0.30862 -1.12425,0.46293 -1.78557,0.46293zM310.08704,182.45791c0.41149,0 0.77889,-0.10287 1.10221,-0.30862c0.32331,-0.20575 0.57682,-0.48497 0.76053,-0.83768c0.1837,-0.36006 0.27188,-0.76419 0.26453,-1.21243c0.00735,-0.45558 -0.08083,-0.85972 -0.26453,-1.21243c-0.1837,-0.36006 -0.43721,-0.63928 -0.76052,-0.83768c-0.32331,-0.20575 -0.69072,-0.30862 -1.10221,-0.30862c-0.41149,0 -0.78256,0.10287 -1.11322,0.30862c-0.33066,0.20575 -0.58784,0.48865 -0.77154,0.8487c-0.1837,0.35271 -0.27188,0.75318 -0.26453,1.20141c-0.00735,0.44823 0.08083,0.85237 0.26453,1.21243c0.1837,0.35271 0.44088,0.63193 0.77154,0.83768c0.33066,0.20575 0.70174,0.30862 1.11323,0.30862zM315.07243,183.56011v-6.91083h1.36674v2.17135l-0.13226,-0.52906c0.09553,-0.33066 0.26085,-0.63193 0.496,-0.90381c0.23513,-0.27188 0.50334,-0.48497 0.80461,-0.63928c0.30127,-0.16166 0.61356,-0.24249 0.93688,-0.24249c0.14696,0 0.28657,0.01469 0.41884,0.04409c0.13962,0.02204 0.24984,0.05144 0.33066,0.08818l-0.35271,1.47696c-0.10287,-0.04409 -0.22044,-0.08083 -0.35271,-0.11022c-0.12491,-0.03674 -0.24984,-0.05511 -0.37475,-0.05511c-0.23513,0 -0.45925,0.04776 -0.67234,0.14329c-0.21309,0.08818 -0.40414,0.21677 -0.57315,0.38578c-0.16166,0.16166 -0.29025,0.34903 -0.38577,0.56213c-0.09553,0.21309 -0.14328,0.44823 -0.14328,0.70541v3.81363zM322.9631,183.69238c-0.63193,0 -1.19406,-0.15431 -1.68637,-0.46293c-0.49232,-0.31597 -0.88544,-0.74215 -1.17936,-1.27856c-0.28657,-0.54375 -0.42986,-1.16099 -0.42986,-1.85171c0,-0.69072 0.13962,-1.30428 0.41884,-1.84068c0.28657,-0.54375 0.67602,-0.96994 1.16834,-1.27856c0.49232,-0.31597 1.05077,-0.47394 1.67535,-0.47394c0.33801,0 0.66867,0.05511 0.99199,0.16533c0.32331,0.11022 0.60988,0.26085 0.85972,0.45191c0.25718,0.1837 0.45558,0.38944 0.59519,0.61724c0.14696,0.22044 0.22044,0.44456 0.22044,0.67235l-0.39679,0.03307v-4.62926h1.35572v9.7435h-1.35571v-1.64228h0.26453c0,0.20575 -0.06981,0.41516 -0.20942,0.62826c-0.13962,0.20575 -0.32699,0.39679 -0.56212,0.57315c-0.22779,0.169 -0.49599,0.30862 -0.80461,0.41884c-0.30127,0.10287 -0.60988,0.15431 -0.92585,0.15431zM323.15048,182.52404c0.41149,0 0.77522,-0.10655 1.09119,-0.31964c0.31597,-0.21309 0.56213,-0.49966 0.73848,-0.85972c0.1837,-0.3674 0.27555,-0.78256 0.27555,-1.24549c0,-0.46293 -0.09185,-0.87441 -0.27555,-1.23447c-0.17635,-0.3674 -0.42251,-0.65765 -0.73847,-0.87074c-0.31597,-0.21309 -0.67969,-0.31964 -1.09118,-0.31964c-0.41149,0 -0.77522,0.10655 -1.09118,0.31964c-0.31597,0.21309 -0.5658,0.50334 -0.7495,0.87075c-0.17635,0.36006 -0.26453,0.77154 -0.26453,1.23447c0,0.46293 0.08818,0.87809 0.26453,1.2455c0.1837,0.36006 0.43353,0.64663 0.7495,0.85972c0.31597,0.21309 0.67969,0.31964 1.09119,0.31964zM328.9811,183.7034c-0.28657,0 -0.51069,-0.0845 -0.67234,-0.2535c-0.15431,-0.169 -0.23146,-0.41149 -0.23146,-0.72746c0,-0.29392 0.08083,-0.53273 0.24249,-0.71643c0.169,-0.1837 0.38944,-0.27555 0.66132,-0.27555c0.29392,0 0.51804,0.08818 0.67235,0.26453c0.16166,0.169 0.24249,0.41149 0.24249,0.72746c0,0.28657 -0.0845,0.52171 -0.2535,0.70541c-0.169,0.1837 -0.38944,0.27555 -0.66132,0.27555z" fill="#ffffff" fill-rule="nonzero" stroke-linecap="square"/><text transform="translate(187.5,225.85313) scale(0.31308,0.31308)" font-size="40" xml:space="preserve" fill="#ffffff" fill-rule="nonzero" stroke="none" stroke-width="1" stroke-linecap="butt" stroke-linejoin="miter" stroke-miterlimit="10" stroke-dasharray="" stroke-dashoffset="0" font-family="Sans Serif" font-weight="normal" text-anchor="start" style="mix-blend-mode: normal"><tspan x="0" dy="0">(ALL LOWERCASE)</tspan></text></g></g></svg>