<svg version="1.1" xmlns="http://www.w3.org/2000/svg" xmlns:xlink="http://www.w3.org/1999/xlink" width="21.58322" height="27.89234" viewBox="0,0,21.58322,27.89234"><g transform="translate(-314.98989,-103.91214)"><g data-paper-data="{&quot;isPaintingLayer&quot;:true}" stroke="none" stroke-width="1" stroke-linecap="square" stroke-linejoin="miter" stroke-miterlimit="10" stroke-dasharray="" stroke-dashoffset="0" style="mix-blend-mode: normal"><path d="M314.98989,105.63617c0,-0.95215 0.41182,-1.72403 0.91982,-1.72403h19.74357c0.24395,0 0.47791,0.18164 0.65041,0.50495c0.1725,0.32331 0.26942,0.76183 0.26942,1.21908v24.44429c0,0.95215 -0.41182,1.72402 -0.91983,1.72402h-19.74357c-0.508,0 -0.91982,-0.77187 -0.91982,-1.72402z" fill-opacity="0.69355" fill="#2d2d2d" fill-rule="evenodd"/><path d="M323.68875,126.23068l-0.08751,-0.26252l5.45461,-10.99672l0.72923,1.51679c-0.17501,0.58338 -0.44726,1.11815 -0.81673,1.6043c-0.36947,0.48615 -0.80701,0.90424 -1.31261,1.25427c-0.5056,0.35003 -1.03064,0.62228 -1.57513,0.81673c-0.54449,0.19446 -1.05981,0.29169 -1.54596,0.29169c-0.95285,0 -1.82792,-0.2528 -2.62521,-0.75839c-0.79729,-0.52504 -1.43901,-1.21537 -1.92516,-2.071c-0.4667,-0.85563 -0.70006,-1.79875 -0.70006,-2.82939c0,-1.1862 0.28196,-2.26546 0.8459,-3.23776c0.56394,-0.9723 1.33205,-1.74041 2.30435,-2.30435c0.99175,-0.58338 2.10017,-0.87507 3.32527,-0.87507c0.89451,0 1.7307,0.16529 2.50854,0.49587c0.77784,0.31113 1.45845,0.74867 2.04183,1.31261c0.60282,0.54449 1.06953,1.1862 1.40011,1.92516c0.33059,0.7195 0.49587,1.48762 0.49587,2.30435c0,0.60282 -0.04861,1.1862 -0.14585,1.75014c-0.09723,0.56394 -0.2528,1.14732 -0.4667,1.75014c-0.21391,0.60282 -0.4667,1.2251 -0.75839,1.86682c-0.29169,0.64172 -0.63199,1.3515 -1.02092,2.12934l-2.18768,4.31701zM325.55556,117.12995c0.5056,0 0.95285,-0.11668 1.34177,-0.35003c0.40837,-0.23335 0.7195,-0.54449 0.93341,-0.93341c0.23335,-0.38892 0.35003,-0.82646 0.35003,-1.31261c0,-0.5056 -0.11668,-0.96258 -0.35003,-1.37094c-0.21391,-0.40837 -0.51532,-0.72923 -0.90424,-0.96258c-0.38892,-0.23335 -0.8459,-0.35003 -1.37094,-0.35003c-0.48615,0 -0.92368,0.11668 -1.31261,0.35003c-0.36947,0.21391 -0.67089,0.52504 -0.90424,0.93341c-0.21391,0.40837 -0.32086,0.87507 -0.32086,1.40011c0,0.44726 0.10695,0.86534 0.32086,1.25427c0.23335,0.38892 0.54449,0.70978 0.93341,0.96258c0.38892,0.2528 0.81673,0.3792 1.28344,0.3792z" fill="#ffffff" fill-rule="nonzero"/></g></g></svg>