<svg version="1.1" xmlns="http://www.w3.org/2000/svg" xmlns:xlink="http://www.w3.org/1999/xlink" width="720" height="540" viewBox="0,0,720,540"><defs><clipPath id="clip-1"><path d="M-120,450v-540h720v540z" fill="none" fill-rule="nonzero" stroke-linecap="butt"/></clipPath></defs><g transform="translate(120,90)"><g clip-path="url(#clip-1)" data-paper-data="{&quot;isPaintingLayer&quot;:true}" stroke="none" stroke-width="1" stroke-linejoin="miter" stroke-miterlimit="10" stroke-dasharray="" stroke-dashoffset="0" style="mix-blend-mode: normal"><path d="M-136.3964,-73.39339h960v720h-960z" fill-opacity="0" fill="#000000" fill-rule="evenodd" stroke-linecap="square"/><path d="M-34.49089,170.41801v0c0,-15.254 12.36581,-27.6198 27.61981,-27.6198h782.8391c7.32525,0 14.35046,2.90993 19.53015,8.08965c5.17975,5.17972 8.08966,12.20493 8.08966,19.53015v56.19348c0,15.254 -12.36578,27.61978 -27.61981,27.61978h-782.8391v0c-15.254,0 -27.61981,-12.36579 -27.61981,-27.61978z" fill="#434343" fill-rule="evenodd" stroke-linecap="square"/><path d="M34.07867,-3.86846h241.92126v42.01575h-241.92126z" fill-opacity="0" fill="#000000" fill-rule="evenodd" stroke-linecap="square"/><path d="M44.90679,23.05154v-13.0625h5.3125c0.70833,0 1.34896,0.17709 1.92188,0.53125c0.58333,0.35416 1.04688,0.83854 1.39063,1.45313c0.35417,0.60416 0.53125,1.28125 0.53125,2.03125c0,0.75 -0.17708,1.43229 -0.53125,2.04688c-0.34375,0.60416 -0.80729,1.08854 -1.39062,1.45313c-0.57292,0.36459 -1.21354,0.54688 -1.92187,0.54688h-3.29687v5zM46.92242,16.11404h3.26563c0.33333,0 0.63542,-0.09375 0.90625,-0.28125c0.28125,-0.19791 0.50521,-0.45312 0.67188,-0.76562c0.16667,-0.32291 0.25,-0.67709 0.25,-1.0625c0,-0.38541 -0.08333,-0.73437 -0.25,-1.04687c-0.16667,-0.3125 -0.39062,-0.5625 -0.67187,-0.75c-0.27083,-0.1875 -0.57292,-0.28125 -0.90625,-0.28125h-3.26562zM60.47007,23.23904c-0.95833,0 -1.81771,-0.21875 -2.57812,-0.65625c-0.75,-0.44791 -1.34375,-1.05209 -1.78125,-1.8125c-0.42708,-0.77084 -0.64062,-1.64584 -0.64062,-2.625c0,-0.97916 0.21354,-1.84896 0.64063,-2.60937c0.4375,-0.77084 1.03125,-1.375 1.78125,-1.8125c0.76042,-0.44791 1.61979,-0.67187 2.57813,-0.67187c0.9375,0 1.78125,0.22396 2.53125,0.67188c0.76042,0.4375 1.35938,1.04166 1.79688,1.8125c0.4375,0.76041 0.65625,1.63021 0.65625,2.60938c0,0.97916 -0.21875,1.85416 -0.65625,2.625c-0.4375,0.76041 -1.03646,1.36459 -1.79687,1.8125c-0.75,0.4375 -1.59375,0.65625 -2.53125,0.65625zM60.47007,21.48904c0.58333,0 1.10417,-0.14584 1.5625,-0.4375c0.45834,-0.29166 0.81771,-0.6875 1.07813,-1.1875c0.26042,-0.51041 0.38542,-1.08334 0.375,-1.71875c0.01042,-0.64584 -0.11458,-1.21875 -0.375,-1.71875c-0.26041,-0.51041 -0.61979,-0.90625 -1.07812,-1.1875c-0.45833,-0.29166 -0.97916,-0.4375 -1.5625,-0.4375c-0.58333,0 -1.10937,0.14584 -1.57812,0.4375c-0.46875,0.29166 -0.83333,0.69271 -1.09375,1.20313c-0.26042,0.5 -0.38542,1.06771 -0.375,1.70313c-0.01042,0.63541 0.11458,1.20834 0.375,1.71875c0.26042,0.5 0.625,0.89584 1.09375,1.1875c0.46875,0.29166 0.99479,0.4375 1.57813,0.4375zM67.56867,23.05154v-13.8125h1.92188v13.8125zM73.58077,27.34841l1.98438,-4.57812l0.01563,1.53125l-4.89062,-11.04687h2.23438l3.0625,7.20313c0.0625,0.125 0.13541,0.31771 0.21875,0.57813c0.09375,0.25 0.17188,0.5 0.23438,0.75l-0.48437,0.10938c0.09375,-0.26041 0.1875,-0.52084 0.28125,-0.78125c0.09375,-0.26041 0.18229,-0.52084 0.26563,-0.78125l2.5625,-7.07812h2.28125l-4.03125,9.79688l-1.65625,4.29688zM88.73255,23.23904c-0.92709,0 -1.78125,-0.16666 -2.5625,-0.5c-0.77084,-0.34375 -1.44791,-0.8125 -2.03125,-1.40625c-0.57291,-0.60416 -1.02084,-1.3125 -1.34375,-2.125c-0.3125,-0.82291 -0.46875,-1.71875 -0.46875,-2.6875c0,-0.96875 0.15625,-1.85937 0.46875,-2.67187c0.32291,-0.8125 0.77084,-1.52084 1.34375,-2.125c0.58334,-0.60416 1.26041,-1.07291 2.03125,-1.40625c0.78125,-0.34375 1.63541,-0.51562 2.5625,-0.51562c0.91666,0 1.76041,0.17188 2.53125,0.51563c0.78125,0.33334 1.46354,0.80729 2.04688,1.42188c0.58334,0.60416 1.03125,1.3125 1.34375,2.125c0.3125,0.8125 0.46875,1.69791 0.46875,2.65625c0,0.95834 -0.15625,1.84375 -0.46875,2.65625c-0.3125,0.8125 -0.76041,1.52604 -1.34375,2.14063c-0.58334,0.60416 -1.26562,1.07813 -2.04687,1.42188c-0.77084,0.33334 -1.61459,0.5 -2.53125,0.5zM88.73255,21.28591c0.63541,0 1.21354,-0.11979 1.73438,-0.35937c0.53125,-0.23959 0.98959,-0.57291 1.375,-1c0.38541,-0.42709 0.6875,-0.92709 0.90625,-1.5c0.21875,-0.58334 0.32813,-1.21875 0.32813,-1.90625c0,-0.6875 -0.10937,-1.31771 -0.32812,-1.89062c-0.21875,-0.58334 -0.52084,-1.08854 -0.90625,-1.51562c-0.38541,-0.42709 -0.84375,-0.75521 -1.375,-0.98437c-0.52084,-0.23959 -1.09896,-0.35937 -1.73437,-0.35937c-0.63541,0 -1.21875,0.11979 -1.75,0.35938c-0.53125,0.22916 -0.99479,0.55729 -1.39062,0.98438c-0.38541,0.41666 -0.68229,0.91666 -0.89062,1.5c-0.20834,0.57291 -0.3125,1.20834 -0.3125,1.90625c0,0.6875 0.10416,1.32291 0.3125,1.90625c0.20834,0.58334 0.50521,1.08854 0.89063,1.51563c0.39584,0.41666 0.85938,0.74479 1.39063,0.98438c0.53125,0.23959 1.11459,0.35938 1.75,0.35938zM101.88424,23.23904c-0.70833,0 -1.36458,-0.09375 -1.96875,-0.28125c-0.60416,-0.1875 -1.15104,-0.46875 -1.64062,-0.84375c-0.48958,-0.38541 -0.92708,-0.85416 -1.3125,-1.40625l1.375,-1.59375c0.61459,0.875 1.19792,1.47916 1.75,1.8125c0.5625,0.33334 1.22917,0.5 2,0.5c0.46875,0 0.89584,-0.07291 1.28125,-0.21875c0.38542,-0.15625 0.6875,-0.36459 0.90625,-0.625c0.22917,-0.26041 0.34375,-0.55729 0.34375,-0.89062c0,-0.21875 -0.03646,-0.42709 -0.10937,-0.625c-0.07291,-0.20834 -0.1875,-0.39062 -0.34375,-0.54687c-0.15625,-0.16666 -0.35416,-0.31771 -0.59375,-0.45312c-0.23958,-0.13541 -0.52083,-0.25521 -0.84375,-0.35937c-0.32291,-0.10416 -0.69791,-0.19271 -1.125,-0.26562c-0.66666,-0.14584 -1.25,-0.32812 -1.75,-0.54687c-0.5,-0.22916 -0.91666,-0.51041 -1.25,-0.84375c-0.33333,-0.33334 -0.58333,-0.71354 -0.75,-1.14062c-0.16666,-0.42709 -0.25,-0.91146 -0.25,-1.45312c0,-0.52084 0.11459,-1.00521 0.34375,-1.45312c0.23959,-0.44791 0.55729,-0.83334 0.95313,-1.15625c0.40625,-0.33334 0.88021,-0.58854 1.42188,-0.76562c0.55209,-0.1875 1.14584,-0.28125 1.78125,-0.28125c0.67709,0 1.29167,0.08854 1.84375,0.26563c0.5625,0.17709 1.0625,0.4375 1.5,0.78125c0.4375,0.33334 0.79688,0.75 1.07813,1.25l-1.42187,1.40625c-0.23958,-0.41666 -0.51562,-0.76041 -0.82812,-1.03125c-0.3125,-0.28125 -0.65625,-0.49479 -1.03125,-0.64062c-0.375,-0.14584 -0.77083,-0.21875 -1.1875,-0.21875c-0.48958,0 -0.91666,0.07813 -1.28125,0.23438c-0.35416,0.14584 -0.63541,0.35416 -0.84375,0.625c-0.20833,0.26041 -0.3125,0.57291 -0.3125,0.9375c0,0.26041 0.05209,0.5 0.15625,0.71875c0.10417,0.21875 0.25521,0.41146 0.45313,0.57813c0.20834,0.16666 0.48438,0.31771 0.82813,0.45313c0.35417,0.125 0.77084,0.23438 1.25,0.32813c0.6875,0.15625 1.29688,0.34896 1.82813,0.57813c0.54167,0.22916 0.99479,0.5 1.35938,0.8125c0.375,0.3125 0.65625,0.66146 0.84375,1.04688c0.19792,0.38541 0.29688,0.80209 0.29688,1.25c0,0.83334 -0.19271,1.55729 -0.57812,2.17188c-0.38541,0.60416 -0.93229,1.07291 -1.64062,1.40625c-0.70833,0.32291 -1.55208,0.48438 -2.53125,0.48438zM114.71825,23.05154v-13.0625h1.8125l7.98438,10.6875l-0.29687,0.17188c-0.05209,-0.3125 -0.09896,-0.65104 -0.14062,-1.01562c-0.03125,-0.36459 -0.0625,-0.75521 -0.09375,-1.17187c-0.03125,-0.41666 -0.05729,-0.85937 -0.07812,-1.32812c-0.02084,-0.46875 -0.03646,-0.95834 -0.04687,-1.46875c-0.01042,-0.51041 -0.01562,-1.03646 -0.01562,-1.57812v-4.29687h2.01563v13.0625h-1.84375l-7.85937,-10.29687l0.20313,-0.26562c0.0625,0.76041 0.11458,1.40625 0.15625,1.9375c0.04166,0.53125 0.07813,0.97916 0.10938,1.34375c0.03125,0.36459 0.05208,0.66146 0.0625,0.89063c0.02083,0.22916 0.03125,0.42188 0.03125,0.57813c0.01041,0.14584 0.01563,0.27604 0.01563,0.39063v5.42188zM133.59078,23.23904c-1,0 -1.89062,-0.21354 -2.67187,-0.64062c-0.77084,-0.42709 -1.38021,-1.01562 -1.82812,-1.76562c-0.4375,-0.75 -0.65625,-1.60937 -0.65625,-2.57812c0,-0.77084 0.125,-1.47396 0.375,-2.10937c0.25,-0.63541 0.59375,-1.18229 1.03125,-1.64062c0.4375,-0.46875 0.96354,-0.82812 1.57813,-1.07812c0.625,-0.26041 1.29688,-0.39062 2.01563,-0.39062c0.63541,0 1.22396,0.11979 1.76563,0.35938c0.55209,0.23959 1.02604,0.57291 1.42188,1c0.40625,0.42709 0.71875,0.93229 0.9375,1.51563c0.21875,0.57291 0.32291,1.19791 0.3125,1.875l-0.01562,0.82813h-8l-0.4375,-1.53125h6.76563l-0.26562,0.3125v-0.4375c-0.04166,-0.41666 -0.18229,-0.78646 -0.42187,-1.10937c-0.22916,-0.32291 -0.52604,-0.57812 -0.89062,-0.76562c-0.36459,-0.1875 -0.75521,-0.28125 -1.17187,-0.28125c-0.67709,0 -1.24479,0.13021 -1.70312,0.39063c-0.45834,0.25 -0.80729,0.625 -1.04687,1.125c-0.22916,0.48959 -0.34375,1.09375 -0.34375,1.8125c0,0.67709 0.14063,1.27084 0.42188,1.78125c0.28125,0.5 0.68229,0.89063 1.20313,1.17188c0.53125,0.27084 1.13541,0.40625 1.8125,0.40625c0.48959,0 0.94271,-0.07812 1.35938,-0.23437c0.41666,-0.16666 0.86979,-0.46354 1.35938,-0.89062l0.96875,1.35938c-0.30209,0.30209 -0.66666,0.56771 -1.09375,0.79688c-0.42709,0.21875 -0.88021,0.39584 -1.35937,0.53125c-0.47916,0.125 -0.95312,0.1875 -1.42187,0.1875zM142.18044,23.05154l-3.34375,-9.79687l1.9375,-0.01562l2.39063,7.32813l-0.42187,-0.03125l2.59375,-5.73437h1.15625l2.60938,5.75l-0.5,0.03125l2.40625,-7.32812h1.9375l-3.29687,9.79688h-1.32812l-2.73437,-6.23437l0.4375,0.0625l-2.53125,6.17188zM157.87148,23.23904c-0.82291,0 -1.5625,-0.14062 -2.21875,-0.42187c-0.65625,-0.29166 -1.20312,-0.71875 -1.64062,-1.28125l1.29688,-1.10937c0.375,0.42709 0.78125,0.73959 1.21875,0.9375c0.44791,0.1875 0.95313,0.28125 1.51563,0.28125c0.21875,0 0.42188,-0.02604 0.60938,-0.07812c0.19791,-0.05209 0.36979,-0.13541 0.51563,-0.25c0.14584,-0.11459 0.25521,-0.25 0.32813,-0.40625c0.07291,-0.15625 0.10938,-0.32812 0.10938,-0.51562c0,-0.32291 -0.11979,-0.58334 -0.35937,-0.78125c-0.125,-0.08334 -0.32291,-0.17709 -0.59375,-0.28125c-0.26041,-0.10416 -0.60416,-0.21354 -1.03125,-0.32812c-0.71875,-0.1875 -1.30729,-0.39584 -1.76562,-0.625c-0.45834,-0.23959 -0.8125,-0.51041 -1.0625,-0.8125c-0.1875,-0.23959 -0.32812,-0.49479 -0.42187,-0.76562c-0.08334,-0.28125 -0.125,-0.59375 -0.125,-0.9375c0,-0.40625 0.08854,-0.78125 0.26563,-1.125c0.1875,-0.34375 0.4375,-0.64062 0.75,-0.89062c0.32291,-0.26041 0.69791,-0.45834 1.125,-0.59375c0.42709,-0.13541 0.88541,-0.20312 1.375,-0.20312c0.45834,0 0.91146,0.0625 1.35938,0.1875c0.45834,0.125 0.88021,0.30729 1.26563,0.54688c0.38541,0.22916 0.70834,0.50521 0.96875,0.82813l-1.09375,1.21875c-0.23959,-0.23959 -0.5,-0.44791 -0.78125,-0.625c-0.28125,-0.17709 -0.56771,-0.3125 -0.85937,-0.40625c-0.28125,-0.10416 -0.53646,-0.15625 -0.76562,-0.15625c-0.26041,0 -0.5,0.02604 -0.71875,0.07813c-0.20834,0.04166 -0.38541,0.11459 -0.53125,0.21875c-0.13541,0.09375 -0.24479,0.21875 -0.32812,0.375c-0.07291,0.14584 -0.10937,0.3125 -0.10937,0.5c0.01041,0.15625 0.05209,0.30729 0.125,0.45313c0.07291,0.14584 0.17188,0.26563 0.29688,0.35938c0.13541,0.10416 0.33854,0.21354 0.60938,0.32813c0.27084,0.10416 0.61979,0.20834 1.04688,0.3125c0.61459,0.15625 1.125,0.33334 1.53125,0.53125c0.40625,0.1875 0.72916,0.40625 0.96875,0.65625c0.25,0.23959 0.42188,0.51563 0.51563,0.82813c0.10416,0.3125 0.15625,0.66146 0.15625,1.04688c0,0.55209 -0.16146,1.05209 -0.48437,1.5c-0.3125,0.4375 -0.73959,0.78125 -1.28125,1.03125c-0.53125,0.25 -1.125,0.375 -1.78125,0.375z" fill="#ffffff" fill-rule="nonzero" stroke-linecap="square"/><path d="M55.912,61.11416l-0.10937,-2.26562l6.85938,-6.84375h2.64063zM54.24013,65.06728v-13.0625h2.01563v13.0625zM62.89638,65.06728l-5,-6.67187l1.5,-1.29687l6.01563,7.96875zM71.13463,65.25478c-1,0 -1.89062,-0.21354 -2.67187,-0.64062c-0.77084,-0.42708 -1.38021,-1.01562 -1.82812,-1.76562c-0.4375,-0.75 -0.65625,-1.60937 -0.65625,-2.57812c0,-0.77083 0.125,-1.47396 0.375,-2.10937c0.25,-0.63542 0.59375,-1.18229 1.03125,-1.64062c0.4375,-0.46875 0.96354,-0.82812 1.57813,-1.07812c0.625,-0.26042 1.29688,-0.39062 2.01563,-0.39062c0.63541,0 1.22396,0.11979 1.76563,0.35938c0.55208,0.23958 1.02604,0.57292 1.42188,1c0.40625,0.42708 0.71875,0.93229 0.9375,1.51563c0.21875,0.57292 0.32291,1.19792 0.3125,1.875l-0.01562,0.82813h-8l-0.4375,-1.53125h6.76563l-0.26562,0.3125v-0.4375c-0.04167,-0.41667 -0.18229,-0.78646 -0.42187,-1.10937c-0.22917,-0.32292 -0.52604,-0.57812 -0.89062,-0.76562c-0.36459,-0.1875 -0.75521,-0.28125 -1.17187,-0.28125c-0.67709,0 -1.24479,0.13021 -1.70312,0.39063c-0.45834,0.25 -0.80729,0.625 -1.04687,1.125c-0.22917,0.48958 -0.34375,1.09375 -0.34375,1.8125c0,0.67708 0.14063,1.27083 0.42188,1.78125c0.28125,0.5 0.68229,0.89063 1.20313,1.17188c0.53125,0.27083 1.13541,0.40625 1.8125,0.40625c0.48958,0 0.94271,-0.07812 1.35938,-0.23437c0.41666,-0.16667 0.86979,-0.46354 1.35938,-0.89062l0.96875,1.35938c-0.30209,0.30208 -0.66667,0.56771 -1.09375,0.79688c-0.42709,0.21875 -0.88021,0.39583 -1.35937,0.53125c-0.47917,0.125 -0.95312,0.1875 -1.42187,0.1875zM82.0672,65.25478c-1,0 -1.89062,-0.21354 -2.67187,-0.64062c-0.77084,-0.42708 -1.38021,-1.01562 -1.82812,-1.76562c-0.4375,-0.75 -0.65625,-1.60937 -0.65625,-2.57812c0,-0.77083 0.125,-1.47396 0.375,-2.10937c0.25,-0.63542 0.59375,-1.18229 1.03125,-1.64062c0.4375,-0.46875 0.96354,-0.82812 1.57813,-1.07812c0.625,-0.26042 1.29688,-0.39062 2.01563,-0.39062c0.63541,0 1.22396,0.11979 1.76563,0.35938c0.55209,0.23958 1.02604,0.57292 1.42188,1c0.40625,0.42708 0.71875,0.93229 0.9375,1.51563c0.21875,0.57292 0.32291,1.19792 0.3125,1.875l-0.01562,0.82813h-8l-0.4375,-1.53125h6.76563l-0.26562,0.3125v-0.4375c-0.04166,-0.41667 -0.18229,-0.78646 -0.42187,-1.10937c-0.22916,-0.32292 -0.52604,-0.57812 -0.89062,-0.76562c-0.36459,-0.1875 -0.75521,-0.28125 -1.17187,-0.28125c-0.67709,0 -1.24479,0.13021 -1.70312,0.39063c-0.45834,0.25 -0.80729,0.625 -1.04687,1.125c-0.22916,0.48958 -0.34375,1.09375 -0.34375,1.8125c0,0.67708 0.14063,1.27083 0.42188,1.78125c0.28125,0.5 0.68229,0.89063 1.20313,1.17188c0.53125,0.27083 1.13541,0.40625 1.8125,0.40625c0.48959,0 0.94271,-0.07812 1.35938,-0.23437c0.41666,-0.16667 0.86979,-0.46354 1.35938,-0.89062l0.96875,1.35938c-0.30209,0.30208 -0.66666,0.56771 -1.09375,0.79688c-0.42709,0.21875 -0.88021,0.39583 -1.35937,0.53125c-0.47916,0.125 -0.95312,0.1875 -1.42187,0.1875zM88.43727,69.17666v-13.90625h1.9375v2.23438l-0.29687,-0.15625c0.07292,-0.375 0.28125,-0.73437 0.625,-1.07812c0.35417,-0.34375 0.78125,-0.625 1.28125,-0.84375c0.51042,-0.21875 1.03125,-0.32812 1.5625,-0.32812c0.88542,0 1.66667,0.21875 2.34375,0.65625c0.6875,0.4375 1.22917,1.03646 1.625,1.79688c0.40625,0.76042 0.60938,1.63021 0.60938,2.60938c0,0.96875 -0.19792,1.83854 -0.59375,2.60938c-0.39584,0.76042 -0.9375,1.36458 -1.625,1.8125c-0.67708,0.4375 -1.44271,0.65625 -2.29687,0.65625c-0.57291,0 -1.13021,-0.11458 -1.67187,-0.34375c-0.53125,-0.22917 -0.98437,-0.52604 -1.35937,-0.89062c-0.375,-0.36458 -0.60416,-0.73958 -0.6875,-1.125l0.48438,-0.25v6.54688zM93.28102,63.45791c0.57292,0 1.08334,-0.14062 1.53125,-0.42187c0.44792,-0.29167 0.80209,-0.68229 1.0625,-1.17187c0.26042,-0.5 0.39063,-1.06771 0.39063,-1.70312c0,-0.63542 -0.13021,-1.19792 -0.39062,-1.6875c-0.25,-0.48958 -0.59896,-0.875 -1.04687,-1.15625c-0.4375,-0.29167 -0.95312,-0.4375 -1.54687,-0.4375c-0.58333,0 -1.09896,0.14063 -1.54687,0.42188c-0.44791,0.28125 -0.80208,0.67188 -1.0625,1.17188c-0.26041,0.48958 -0.39062,1.05208 -0.39062,1.6875c0,0.63542 0.13021,1.20313 0.39063,1.70313c0.26042,0.48958 0.61459,0.88021 1.0625,1.17188c0.44792,0.28125 0.96354,0.42188 1.54688,0.42188zM105.74562,65.06728v-9.79687h1.92188v9.79688zM106.68312,53.11416c-0.40625,0 -0.72396,-0.10417 -0.95312,-0.3125c-0.21875,-0.21875 -0.32812,-0.52083 -0.32812,-0.90625c0,-0.36458 0.11459,-0.65625 0.34375,-0.875c0.22917,-0.22917 0.54167,-0.34375 0.9375,-0.34375c0.40625,0 0.71875,0.10938 0.9375,0.32813c0.22917,0.20833 0.34375,0.50521 0.34375,0.89063c0,0.36458 -0.11458,0.66146 -0.34375,0.89063c-0.22916,0.21875 -0.54166,0.32813 -0.9375,0.32813zM110.61955,65.06728v-9.79687h1.92188v2.01563l-0.34375,0.21875c0.125,-0.42708 0.36979,-0.82292 0.73438,-1.1875c0.36459,-0.375 0.79167,-0.67708 1.28125,-0.90625c0.5,-0.22917 1.01042,-0.34375 1.53125,-0.34375c0.75,0 1.36979,0.14583 1.85938,0.4375c0.5,0.29167 0.875,0.73958 1.125,1.34375c0.25,0.59375 0.375,1.34375 0.375,2.25v5.96875h-1.92187v-5.84375c0,-0.55208 -0.07291,-1.01042 -0.21875,-1.375c-0.14583,-0.375 -0.375,-0.64583 -0.6875,-0.8125c-0.3125,-0.16667 -0.69791,-0.23958 -1.15625,-0.21875c-0.375,0 -0.71875,0.0625 -1.03125,0.1875c-0.3125,0.11458 -0.58333,0.28125 -0.8125,0.5c-0.22916,0.20833 -0.41146,0.45313 -0.54687,0.73438c-0.125,0.27083 -0.1875,0.56771 -0.1875,0.89063v5.9375h-0.95312c-0.15625,0 -0.31771,0 -0.48437,0c-0.16666,0 -0.32812,0 -0.48437,0zM128.16254,65.06728v-12.29687h1.92188v12.29688zM126.11566,57.14541v-1.875h6.23438v1.875zM138.42068,65.25478c-0.95834,0 -1.81771,-0.21875 -2.57812,-0.65625c-0.75,-0.44792 -1.34375,-1.05208 -1.78125,-1.8125c-0.42709,-0.77083 -0.64062,-1.64583 -0.64062,-2.625c0,-0.97917 0.21354,-1.84896 0.64063,-2.60937c0.4375,-0.77083 1.03125,-1.375 1.78125,-1.8125c0.76041,-0.44792 1.61979,-0.67187 2.57813,-0.67187c0.9375,0 1.78125,0.22396 2.53125,0.67188c0.76041,0.4375 1.35938,1.04167 1.79688,1.8125c0.4375,0.76042 0.65625,1.63021 0.65625,2.60938c0,0.97917 -0.21875,1.85417 -0.65625,2.625c-0.4375,0.76042 -1.03646,1.36458 -1.79687,1.8125c-0.75,0.4375 -1.59375,0.65625 -2.53125,0.65625zM138.42068,63.50478c0.58333,0 1.10416,-0.14583 1.5625,-0.4375c0.45833,-0.29167 0.81771,-0.6875 1.07813,-1.1875c0.26041,-0.51042 0.38541,-1.08333 0.375,-1.71875c0.01041,-0.64583 -0.11459,-1.21875 -0.375,-1.71875c-0.26042,-0.51042 -0.61979,-0.90625 -1.07812,-1.1875c-0.45834,-0.29167 -0.97917,-0.4375 -1.5625,-0.4375c-0.58334,0 -1.10937,0.14583 -1.57812,0.4375c-0.46875,0.29167 -0.83334,0.69271 -1.09375,1.20313c-0.26042,0.5 -0.38542,1.06771 -0.375,1.70313c-0.01042,0.63542 0.11458,1.20833 0.375,1.71875c0.26041,0.5 0.625,0.89583 1.09375,1.1875c0.46875,0.29167 0.99479,0.4375 1.57813,0.4375zM148.92554,65.25478c-0.69792,0 -1.30729,-0.16146 -1.82812,-0.48437c-0.51042,-0.32292 -0.90625,-0.77604 -1.1875,-1.35937c-0.28125,-0.58333 -0.42187,-1.28125 -0.42187,-2.09375v-6.04687h1.92188v5.53125c0,0.5625 0.08854,1.05208 0.26563,1.46875c0.1875,0.41667 0.44792,0.73958 0.78125,0.96875c0.34375,0.21875 0.76042,0.32813 1.25,0.32813c0.35417,0 0.68229,-0.05729 0.98438,-0.17187c0.30208,-0.11458 0.5625,-0.27604 0.78125,-0.48437c0.21875,-0.21875 0.38542,-0.47396 0.5,-0.76562c0.125,-0.30208 0.1875,-0.63021 0.1875,-0.98437v-5.89062h1.92188v9.79688h-1.92187v-2.04687l0.34375,-0.23437c-0.14584,0.46875 -0.39584,0.89063 -0.75,1.26563c-0.35417,0.36458 -0.77604,0.65625 -1.26562,0.875c-0.48958,0.21875 -1.01042,0.32813 -1.5625,0.32813zM160.93133,65.25478c-0.90625,0 -1.71875,-0.22396 -2.4375,-0.67187c-0.70834,-0.44792 -1.27084,-1.05729 -1.6875,-1.82812c-0.41667,-0.77083 -0.625,-1.63542 -0.625,-2.59375c0,-0.95833 0.20833,-1.82292 0.625,-2.59375c0.41666,-0.77083 0.97916,-1.38021 1.6875,-1.82812c0.71875,-0.44792 1.53125,-0.67187 2.4375,-0.67187c0.875,0 1.66667,0.17708 2.375,0.53125c0.71875,0.35417 1.26563,0.83854 1.64063,1.45313l-1.0625,1.29688c-0.19792,-0.28125 -0.45312,-0.54167 -0.76562,-0.78125c-0.3125,-0.23958 -0.64583,-0.42708 -1,-0.5625c-0.34375,-0.13542 -0.67708,-0.20312 -1,-0.20312c-0.59375,0 -1.125,0.14583 -1.59375,0.4375c-0.46875,0.29167 -0.83854,0.69271 -1.10937,1.20313c-0.27084,0.51042 -0.40625,1.08333 -0.40625,1.71875c0,0.63542 0.14063,1.20833 0.42188,1.71875c0.29166,0.5 0.67188,0.90104 1.14063,1.20313c0.46875,0.29167 0.98958,0.4375 1.5625,0.4375c0.34375,0 0.67188,-0.05729 0.98438,-0.17187c0.3125,-0.11458 0.61979,-0.28125 0.92188,-0.5c0.30208,-0.22917 0.58333,-0.50521 0.84375,-0.82812l1.0625,1.3125c-0.39583,0.5625 -0.96354,1.02604 -1.70312,1.39063c-0.73958,0.35417 -1.51042,0.53125 -2.3125,0.53125zM166.75616,65.06728v-13.8125h1.92188v6.03125l-0.34375,0.21875c0.125,-0.42708 0.36979,-0.82292 0.73438,-1.1875c0.36458,-0.375 0.79166,-0.67708 1.28125,-0.90625c0.5,-0.22917 1.01041,-0.34375 1.53125,-0.34375c0.75,0 1.36979,0.14583 1.85938,0.4375c0.5,0.29167 0.875,0.73958 1.125,1.34375c0.25,0.59375 0.375,1.34375 0.375,2.25v5.96875h-1.92187v-5.84375c0,-0.55208 -0.07292,-1.01042 -0.21875,-1.375c-0.14584,-0.375 -0.375,-0.64583 -0.6875,-0.8125c-0.3125,-0.16667 -0.69792,-0.23958 -1.15625,-0.21875c-0.375,0 -0.71875,0.0625 -1.03125,0.1875c-0.3125,0.11458 -0.58334,0.28125 -0.8125,0.5c-0.22917,0.20833 -0.41146,0.45313 -0.54687,0.73438c-0.125,0.27083 -0.1875,0.56771 -0.1875,0.89063v5.9375h-0.95312c-0.15625,0 -0.31771,0 -0.48437,0c-0.16667,0 -0.32812,0 -0.48437,0zM185.48663,65.06728l-3.34375,-9.79687l1.9375,-0.01562l2.39063,7.32813l-0.42187,-0.03125l2.59375,-5.73437h1.15625l2.60938,5.75l-0.5,0.03125l2.40625,-7.32812h1.9375l-3.29687,9.79688h-1.32812l-2.73437,-6.23437l0.4375,0.0625l-2.53125,6.17188zM198.3179,65.06728v-9.79687h1.92188v9.79688zM199.2554,53.11416c-0.40625,0 -0.72396,-0.10417 -0.95312,-0.3125c-0.21875,-0.21875 -0.32812,-0.52083 -0.32812,-0.90625c0,-0.36458 0.11458,-0.65625 0.34375,-0.875c0.22916,-0.22917 0.54166,-0.34375 0.9375,-0.34375c0.40625,0 0.71875,0.10938 0.9375,0.32813c0.22916,0.20833 0.34375,0.50521 0.34375,0.89063c0,0.36458 -0.11459,0.66146 -0.34375,0.89063c-0.22917,0.21875 -0.54167,0.32813 -0.9375,0.32813zM204.41058,65.06728v-12.29687h1.92188v12.29688zM202.36371,57.14541v-1.875h6.23438v1.875zM210.35583,65.06728v-13.8125h1.92188v6.03125l-0.34375,0.21875c0.125,-0.42708 0.36979,-0.82292 0.73438,-1.1875c0.36458,-0.375 0.79166,-0.67708 1.28125,-0.90625c0.5,-0.22917 1.01041,-0.34375 1.53125,-0.34375c0.75,0 1.36979,0.14583 1.85938,0.4375c0.5,0.29167 0.875,0.73958 1.125,1.34375c0.25,0.59375 0.375,1.34375 0.375,2.25v5.96875h-1.92187v-5.84375c0,-0.55208 -0.07292,-1.01042 -0.21875,-1.375c-0.14584,-0.375 -0.375,-0.64583 -0.6875,-0.8125c-0.3125,-0.16667 -0.69792,-0.23958 -1.15625,-0.21875c-0.375,0 -0.71875,0.0625 -1.03125,0.1875c-0.3125,0.11458 -0.58334,0.28125 -0.8125,0.5c-0.22917,0.20833 -0.41146,0.45313 -0.54687,0.73438c-0.125,0.27083 -0.1875,0.56771 -0.1875,0.89063v5.9375h-0.95312c-0.15625,0 -0.31771,0 -0.48437,0c-0.16667,0 -0.32812,0 -0.48437,0zM227.8988,65.06728v-12.29687h1.92188v12.29688zM225.85193,57.14541v-1.875h6.23438v1.875zM233.84405,65.06728v-13.8125h1.92188v6.03125l-0.34375,0.21875c0.125,-0.42708 0.36979,-0.82292 0.73438,-1.1875c0.36458,-0.375 0.79166,-0.67708 1.28125,-0.90625c0.5,-0.22917 1.01041,-0.34375 1.53125,-0.34375c0.75,0 1.36979,0.14583 1.85938,0.4375c0.5,0.29167 0.875,0.73958 1.125,1.34375c0.25,0.59375 0.375,1.34375 0.375,2.25v5.96875h-1.92187v-5.84375c0,-0.55208 -0.07292,-1.01042 -0.21875,-1.375c-0.14584,-0.375 -0.375,-0.64583 -0.6875,-0.8125c-0.3125,-0.16667 -0.69792,-0.23958 -1.15625,-0.21875c-0.375,0 -0.71875,0.0625 -1.03125,0.1875c-0.3125,0.11458 -0.58334,0.28125 -0.8125,0.5c-0.22917,0.20833 -0.41146,0.45313 -0.54687,0.73438c-0.125,0.27083 -0.1875,0.56771 -0.1875,0.89063v5.9375h-0.95312c-0.15625,0 -0.31771,0 -0.48437,0c-0.16667,0 -0.32812,0 -0.48437,0zM249.50702,65.25478c-1,0 -1.89062,-0.21354 -2.67187,-0.64062c-0.77084,-0.42708 -1.38021,-1.01562 -1.82812,-1.76562c-0.4375,-0.75 -0.65625,-1.60937 -0.65625,-2.57812c0,-0.77083 0.125,-1.47396 0.375,-2.10937c0.25,-0.63542 0.59375,-1.18229 1.03125,-1.64062c0.4375,-0.46875 0.96354,-0.82812 1.57813,-1.07812c0.625,-0.26042 1.29688,-0.39062 2.01563,-0.39062c0.63541,0 1.22396,0.11979 1.76563,0.35938c0.55208,0.23958 1.02604,0.57292 1.42188,1c0.40625,0.42708 0.71875,0.93229 0.9375,1.51563c0.21875,0.57292 0.32291,1.19792 0.3125,1.875l-0.01562,0.82813h-8l-0.4375,-1.53125h6.76563l-0.26562,0.3125v-0.4375c-0.04167,-0.41667 -0.18229,-0.78646 -0.42187,-1.10937c-0.22917,-0.32292 -0.52604,-0.57812 -0.89062,-0.76562c-0.36459,-0.1875 -0.75521,-0.28125 -1.17187,-0.28125c-0.67709,0 -1.24479,0.13021 -1.70312,0.39063c-0.45834,0.25 -0.80729,0.625 -1.04687,1.125c-0.22917,0.48958 -0.34375,1.09375 -0.34375,1.8125c0,0.67708 0.14063,1.27083 0.42188,1.78125c0.28125,0.5 0.68229,0.89063 1.20313,1.17188c0.53125,0.27083 1.13541,0.40625 1.8125,0.40625c0.48958,0 0.94271,-0.07812 1.35938,-0.23437c0.41666,-0.16667 0.86979,-0.46354 1.35938,-0.89062l0.96875,1.35938c-0.30209,0.30208 -0.66667,0.56771 -1.09375,0.79688c-0.42709,0.21875 -0.88021,0.39583 -1.35937,0.53125c-0.47917,0.125 -0.95312,0.1875 -1.42187,0.1875z" fill="#ffffff" fill-rule="nonzero" stroke-linecap="square"/><path d="M53.787,87.46728v-13.8125h1.92188v13.8125zM62.01744,87.65478c-0.80209,0 -1.53646,-0.22396 -2.20312,-0.67187c-0.66667,-0.44791 -1.20312,-1.05729 -1.60937,-1.82812c-0.39583,-0.77084 -0.59375,-1.64062 -0.59375,-2.60937c0,-0.98959 0.20313,-1.86459 0.60938,-2.625c0.40625,-0.76041 0.95313,-1.35937 1.64063,-1.79687c0.69792,-0.4375 1.47396,-0.65625 2.32813,-0.65625c0.51041,0 0.97396,0.07813 1.39063,0.23438c0.42709,0.14584 0.79688,0.35416 1.10938,0.625c0.32291,0.26041 0.58334,0.56771 0.78125,0.92188c0.20834,0.34375 0.33854,0.71354 0.39063,1.10938l-0.42187,-0.14062v-2.54687h1.9375v9.79688h-1.9375v-2.32812l0.4375,-0.14062c-0.07291,0.34375 -0.22396,0.67709 -0.45312,1c-0.22916,0.3125 -0.52084,0.59375 -0.875,0.84375c-0.35416,0.23959 -0.74479,0.4375 -1.17187,0.59375c-0.42709,0.14584 -0.88021,0.21875 -1.35937,0.21875zM62.51744,85.88915c0.59375,0 1.10938,-0.14062 1.54688,-0.42187c0.44791,-0.29166 0.79688,-0.6875 1.04688,-1.1875c0.26041,-0.51041 0.39063,-1.08854 0.39063,-1.73437c0,-0.63541 -0.13021,-1.20312 -0.39062,-1.70312c-0.25,-0.5 -0.59896,-0.89062 -1.04687,-1.17187c-0.4375,-0.29166 -0.95312,-0.4375 -1.54687,-0.4375c-0.57291,0 -1.07812,0.14584 -1.51562,0.4375c-0.4375,0.28125 -0.78646,0.67188 -1.04687,1.17188c-0.25,0.5 -0.375,1.06771 -0.375,1.70313c0,0.64584 0.125,1.22396 0.375,1.73438c0.26042,0.5 0.60938,0.89584 1.04688,1.1875c0.4375,0.28125 0.94271,0.42188 1.51563,0.42188zM71.27997,87.46728v-12.29687h1.92188v12.29688zM69.23309,79.5454v-1.875h6.23438v1.875zM81.69438,87.65478c-1,0 -1.89062,-0.21354 -2.67187,-0.64062c-0.77084,-0.42709 -1.38021,-1.01562 -1.82812,-1.76562c-0.4375,-0.75 -0.65625,-1.60937 -0.65625,-2.57812c0,-0.77084 0.125,-1.47396 0.375,-2.10937c0.25,-0.63541 0.59375,-1.18229 1.03125,-1.64062c0.4375,-0.46875 0.96354,-0.82812 1.57813,-1.07812c0.625,-0.26041 1.29688,-0.39062 2.01563,-0.39062c0.63541,0 1.22396,0.11979 1.76563,0.35938c0.55209,0.23959 1.02604,0.57291 1.42188,1c0.40625,0.42709 0.71875,0.93229 0.9375,1.51563c0.21875,0.57291 0.32291,1.19791 0.3125,1.875l-0.01562,0.82813h-8l-0.4375,-1.53125h6.76563l-0.26562,0.3125v-0.4375c-0.04166,-0.41666 -0.18229,-0.78646 -0.42187,-1.10937c-0.22916,-0.32291 -0.52604,-0.57812 -0.89062,-0.76562c-0.36459,-0.1875 -0.75521,-0.28125 -1.17187,-0.28125c-0.67709,0 -1.24479,0.13021 -1.70312,0.39063c-0.45834,0.25 -0.80729,0.625 -1.04687,1.125c-0.22916,0.48959 -0.34375,1.09375 -0.34375,1.8125c0,0.67709 0.14063,1.27084 0.42188,1.78125c0.28125,0.5 0.68229,0.89063 1.20313,1.17188c0.53125,0.27084 1.13541,0.40625 1.8125,0.40625c0.48959,0 0.94271,-0.07812 1.35938,-0.23437c0.41666,-0.16666 0.86979,-0.46354 1.35938,-0.89062l0.96875,1.35938c-0.30209,0.30209 -0.66666,0.56771 -1.09375,0.79688c-0.42709,0.21875 -0.88021,0.39584 -1.35937,0.53125c-0.47916,0.125 -0.95312,0.1875 -1.42187,0.1875zM91.33008,87.65478c-0.82291,0 -1.5625,-0.14062 -2.21875,-0.42187c-0.65625,-0.29166 -1.20312,-0.71875 -1.64062,-1.28125l1.29688,-1.10937c0.375,0.42709 0.78125,0.73959 1.21875,0.9375c0.44791,0.1875 0.95313,0.28125 1.51563,0.28125c0.21875,0 0.42188,-0.02604 0.60938,-0.07812c0.19791,-0.05209 0.36979,-0.13541 0.51563,-0.25c0.14584,-0.11459 0.25521,-0.25 0.32813,-0.40625c0.07291,-0.15625 0.10938,-0.32812 0.10938,-0.51562c0,-0.32291 -0.11979,-0.58334 -0.35937,-0.78125c-0.125,-0.08334 -0.32291,-0.17709 -0.59375,-0.28125c-0.26041,-0.10416 -0.60416,-0.21354 -1.03125,-0.32812c-0.71875,-0.1875 -1.30729,-0.39584 -1.76562,-0.625c-0.45834,-0.23959 -0.8125,-0.51041 -1.0625,-0.8125c-0.1875,-0.23959 -0.32812,-0.49479 -0.42187,-0.76562c-0.08334,-0.28125 -0.125,-0.59375 -0.125,-0.9375c0,-0.40625 0.08854,-0.78125 0.26563,-1.125c0.1875,-0.34375 0.4375,-0.64062 0.75,-0.89062c0.32291,-0.26041 0.69791,-0.45834 1.125,-0.59375c0.42709,-0.13541 0.88541,-0.20312 1.375,-0.20312c0.45834,0 0.91146,0.0625 1.35938,0.1875c0.45834,0.125 0.88021,0.30729 1.26563,0.54688c0.38541,0.22916 0.70834,0.50521 0.96875,0.82813l-1.09375,1.21875c-0.23959,-0.23959 -0.5,-0.44791 -0.78125,-0.625c-0.28125,-0.17709 -0.56771,-0.3125 -0.85937,-0.40625c-0.28125,-0.10416 -0.53646,-0.15625 -0.76562,-0.15625c-0.26041,0 -0.5,0.02604 -0.71875,0.07813c-0.20834,0.04166 -0.38541,0.11459 -0.53125,0.21875c-0.13541,0.09375 -0.24479,0.21875 -0.32812,0.375c-0.07291,0.14584 -0.10937,0.3125 -0.10937,0.5c0.01041,0.15625 0.05209,0.30729 0.125,0.45313c0.07291,0.14584 0.17188,0.26563 0.29688,0.35938c0.13541,0.10416 0.33854,0.21354 0.60938,0.32813c0.27084,0.10416 0.61979,0.20834 1.04688,0.3125c0.61459,0.15625 1.125,0.33334 1.53125,0.53125c0.40625,0.1875 0.72916,0.40625 0.96875,0.65625c0.25,0.23959 0.42188,0.51563 0.51563,0.82813c0.10416,0.3125 0.15625,0.66146 0.15625,1.04688c0,0.55209 -0.16146,1.05209 -0.48437,1.5c-0.3125,0.4375 -0.73959,0.78125 -1.28125,1.03125c-0.53125,0.25 -1.125,0.375 -1.78125,0.375zM98.21954,87.46728v-12.29687h1.92188v12.29688zM96.17267,79.5454v-1.875h6.23438v1.875zM113.15417,87.65478c-0.80209,0 -1.53646,-0.22396 -2.20312,-0.67187c-0.66666,-0.44791 -1.20312,-1.05729 -1.60937,-1.82812c-0.39584,-0.77084 -0.59375,-1.64062 -0.59375,-2.60937c0,-0.98959 0.20313,-1.86459 0.60938,-2.625c0.40625,-0.76041 0.95313,-1.35937 1.64063,-1.79687c0.69791,-0.4375 1.47396,-0.65625 2.32813,-0.65625c0.51041,0 0.97396,0.07813 1.39063,0.23438c0.42709,0.14584 0.79688,0.35416 1.10938,0.625c0.32291,0.26041 0.58334,0.56771 0.78125,0.92188c0.20834,0.34375 0.33854,0.71354 0.39063,1.10938l-0.42187,-0.14062v-2.54687h1.9375v9.79688h-1.9375v-2.32812l0.4375,-0.14062c-0.07291,0.34375 -0.22396,0.67709 -0.45312,1c-0.22916,0.3125 -0.52084,0.59375 -0.875,0.84375c-0.35416,0.23959 -0.74479,0.4375 -1.17187,0.59375c-0.42709,0.14584 -0.88021,0.21875 -1.35937,0.21875zM113.65417,85.88915c0.59375,0 1.10938,-0.14062 1.54688,-0.42187c0.44791,-0.29166 0.79688,-0.6875 1.04688,-1.1875c0.26041,-0.51041 0.39063,-1.08854 0.39063,-1.73437c0,-0.63541 -0.13021,-1.20312 -0.39062,-1.70312c-0.25,-0.5 -0.59896,-0.89062 -1.04687,-1.17187c-0.4375,-0.29166 -0.95312,-0.4375 -1.54687,-0.4375c-0.57291,0 -1.07812,0.14584 -1.51562,0.4375c-0.4375,0.28125 -0.78646,0.67188 -1.04687,1.17188c-0.25,0.5 -0.375,1.06771 -0.375,1.70313c0,0.64584 0.125,1.22396 0.375,1.73438c0.26041,0.5 0.60938,0.89584 1.04688,1.1875c0.4375,0.28125 0.94271,0.42188 1.51563,0.42188zM121.19797,87.46728v-9.79687h1.92188v2.01563l-0.34375,0.21875c0.125,-0.42709 0.36979,-0.82291 0.73438,-1.1875c0.36458,-0.375 0.79166,-0.67709 1.28125,-0.90625c0.5,-0.22916 1.01042,-0.34375 1.53125,-0.34375c0.75,0 1.36979,0.14584 1.85938,0.4375c0.5,0.29166 0.875,0.73959 1.125,1.34375c0.25,0.59375 0.375,1.34375 0.375,2.25v5.96875h-1.92187v-5.84375c0,-0.55209 -0.07291,-1.01041 -0.21875,-1.375c-0.14583,-0.375 -0.375,-0.64584 -0.6875,-0.8125c-0.3125,-0.16666 -0.69791,-0.23959 -1.15625,-0.21875c-0.375,0 -0.71875,0.0625 -1.03125,0.1875c-0.3125,0.11459 -0.58334,0.28125 -0.8125,0.5c-0.22917,0.20834 -0.41146,0.45313 -0.54687,0.73438c-0.125,0.27084 -0.1875,0.56771 -0.1875,0.89063v5.9375h-0.95312c-0.15625,0 -0.31771,0 -0.48437,0c-0.16667,0 -0.32812,0 -0.48437,0zM132.29843,87.46728v-9.79687h1.92188v2.01563l-0.34375,0.21875c0.125,-0.42709 0.36979,-0.82291 0.73438,-1.1875c0.36459,-0.375 0.79167,-0.67709 1.28125,-0.90625c0.5,-0.22916 1.01042,-0.34375 1.53125,-0.34375c0.75,0 1.36979,0.14584 1.85938,0.4375c0.5,0.29166 0.875,0.73959 1.125,1.34375c0.25,0.59375 0.375,1.34375 0.375,2.25v5.96875h-1.92187v-5.84375c0,-0.55209 -0.07292,-1.01041 -0.21875,-1.375c-0.14584,-0.375 -0.375,-0.64584 -0.6875,-0.8125c-0.3125,-0.16666 -0.69792,-0.23959 -1.15625,-0.21875c-0.375,0 -0.71875,0.0625 -1.03125,0.1875c-0.3125,0.11459 -0.58333,0.28125 -0.8125,0.5c-0.22916,0.20834 -0.41146,0.45313 -0.54687,0.73438c-0.125,0.27084 -0.1875,0.56771 -0.1875,0.89063v5.9375h-0.95312c-0.15625,0 -0.31771,0 -0.48437,0c-0.16666,0 -0.32812,0 -0.48437,0zM147.80514,87.65478c-0.95833,0 -1.81771,-0.21875 -2.57812,-0.65625c-0.75,-0.44791 -1.34375,-1.05209 -1.78125,-1.8125c-0.42708,-0.77084 -0.64062,-1.64584 -0.64062,-2.625c0,-0.97916 0.21354,-1.84896 0.64063,-2.60937c0.4375,-0.77084 1.03125,-1.375 1.78125,-1.8125c0.76042,-0.44791 1.61979,-0.67187 2.57813,-0.67187c0.9375,0 1.78125,0.22396 2.53125,0.67188c0.76042,0.4375 1.35938,1.04166 1.79688,1.8125c0.4375,0.76041 0.65625,1.63021 0.65625,2.60938c0,0.97916 -0.21875,1.85416 -0.65625,2.625c-0.4375,0.76041 -1.03646,1.36459 -1.79687,1.8125c-0.75,0.4375 -1.59375,0.65625 -2.53125,0.65625zM147.80514,85.90478c0.58333,0 1.10417,-0.14584 1.5625,-0.4375c0.45833,-0.29166 0.81771,-0.6875 1.07813,-1.1875c0.26042,-0.51041 0.38542,-1.08334 0.375,-1.71875c0.01042,-0.64584 -0.11458,-1.21875 -0.375,-1.71875c-0.26042,-0.51041 -0.61979,-0.90625 -1.07812,-1.1875c-0.45833,-0.29166 -0.97917,-0.4375 -1.5625,-0.4375c-0.58333,0 -1.10937,0.14584 -1.57812,0.4375c-0.46875,0.29166 -0.83333,0.69271 -1.09375,1.20313c-0.26042,0.5 -0.38542,1.06771 -0.375,1.70313c-0.01042,0.63541 0.11458,1.20834 0.375,1.71875c0.26042,0.5 0.625,0.89584 1.09375,1.1875c0.46875,0.29166 0.99479,0.4375 1.57813,0.4375zM158.31,87.65478c-0.69791,0 -1.30729,-0.16146 -1.82812,-0.48437c-0.51041,-0.32291 -0.90625,-0.77604 -1.1875,-1.35937c-0.28125,-0.58334 -0.42187,-1.28125 -0.42187,-2.09375v-6.04687h1.92188v5.53125c0,0.5625 0.08854,1.05209 0.26563,1.46875c0.1875,0.41666 0.44791,0.73959 0.78125,0.96875c0.34375,0.21875 0.76041,0.32813 1.25,0.32813c0.35416,0 0.68229,-0.05729 0.98438,-0.17187c0.30209,-0.11459 0.5625,-0.27604 0.78125,-0.48437c0.21875,-0.21875 0.38541,-0.47396 0.5,-0.76562c0.125,-0.30209 0.1875,-0.63021 0.1875,-0.98437v-5.89062h1.92188v9.79688h-1.92187v-2.04687l0.34375,-0.23437c-0.14584,0.46875 -0.39584,0.89063 -0.75,1.26563c-0.35417,0.36459 -0.77604,0.65625 -1.26563,0.875c-0.48959,0.21875 -1.01041,0.32813 -1.5625,0.32813zM166.15951,87.46728v-9.79687h1.92188v2.01563l-0.34375,0.21875c0.125,-0.42709 0.36979,-0.82291 0.73438,-1.1875c0.36458,-0.375 0.79166,-0.67709 1.28125,-0.90625c0.5,-0.22916 1.01041,-0.34375 1.53125,-0.34375c0.75,0 1.36979,0.14584 1.85938,0.4375c0.5,0.29166 0.875,0.73959 1.125,1.34375c0.25,0.59375 0.375,1.34375 0.375,2.25v5.96875h-1.92187v-5.84375c0,-0.55209 -0.07292,-1.01041 -0.21875,-1.375c-0.14584,-0.375 -0.375,-0.64584 -0.6875,-0.8125c-0.3125,-0.16666 -0.69792,-0.23959 -1.15625,-0.21875c-0.375,0 -0.71875,0.0625 -1.03125,0.1875c-0.3125,0.11459 -0.58334,0.28125 -0.8125,0.5c-0.22917,0.20834 -0.41146,0.45313 -0.54687,0.73438c-0.125,0.27084 -0.1875,0.56771 -0.1875,0.89063v5.9375h-0.95312c-0.15625,0 -0.31771,0 -0.48437,0c-0.16667,0 -0.32812,0 -0.48437,0zM181.41623,87.65478c-0.90625,0 -1.71875,-0.22396 -2.4375,-0.67187c-0.70833,-0.44791 -1.27083,-1.05729 -1.6875,-1.82812c-0.41666,-0.77084 -0.625,-1.63541 -0.625,-2.59375c0,-0.95834 0.20834,-1.82291 0.625,-2.59375c0.41667,-0.77084 0.97917,-1.38021 1.6875,-1.82812c0.71875,-0.44791 1.53125,-0.67187 2.4375,-0.67187c0.875,0 1.66667,0.17709 2.375,0.53125c0.71875,0.35416 1.26563,0.83854 1.64063,1.45313l-1.0625,1.29688c-0.19791,-0.28125 -0.45312,-0.54166 -0.76562,-0.78125c-0.3125,-0.23959 -0.64583,-0.42709 -1,-0.5625c-0.34375,-0.13541 -0.67708,-0.20312 -1,-0.20312c-0.59375,0 -1.125,0.14584 -1.59375,0.4375c-0.46875,0.29166 -0.83854,0.69271 -1.10937,1.20313c-0.27083,0.51041 -0.40625,1.08334 -0.40625,1.71875c0,0.63541 0.14063,1.20834 0.42188,1.71875c0.29167,0.5 0.67188,0.90104 1.14063,1.20313c0.46875,0.29166 0.98959,0.4375 1.5625,0.4375c0.34375,0 0.67188,-0.05729 0.98438,-0.17187c0.3125,-0.11459 0.61979,-0.28125 0.92188,-0.5c0.30209,-0.22916 0.58334,-0.50521 0.84375,-0.82812l1.0625,1.3125c-0.39583,0.5625 -0.96354,1.02604 -1.70312,1.39063c-0.73958,0.35416 -1.51041,0.53125 -2.3125,0.53125zM191.80359,87.65478c-1,0 -1.89062,-0.21354 -2.67187,-0.64062c-0.77083,-0.42709 -1.38021,-1.01562 -1.82812,-1.76562c-0.4375,-0.75 -0.65625,-1.60937 -0.65625,-2.57812c0,-0.77084 0.125,-1.47396 0.375,-2.10937c0.25,-0.63541 0.59375,-1.18229 1.03125,-1.64062c0.4375,-0.46875 0.96354,-0.82812 1.57813,-1.07812c0.625,-0.26041 1.29688,-0.39062 2.01563,-0.39062c0.63542,0 1.22396,0.11979 1.76563,0.35938c0.55209,0.23959 1.02604,0.57291 1.42188,1c0.40625,0.42709 0.71875,0.93229 0.9375,1.51563c0.21875,0.57291 0.32292,1.19791 0.3125,1.875l-0.01562,0.82813h-8l-0.4375,-1.53125h6.76563l-0.26562,0.3125v-0.4375c-0.04166,-0.41666 -0.18229,-0.78646 -0.42187,-1.10937c-0.22916,-0.32291 -0.52604,-0.57812 -0.89062,-0.76562c-0.36458,-0.1875 -0.75521,-0.28125 -1.17187,-0.28125c-0.67708,0 -1.24479,0.13021 -1.70312,0.39063c-0.45833,0.25 -0.80729,0.625 -1.04687,1.125c-0.22916,0.48959 -0.34375,1.09375 -0.34375,1.8125c0,0.67709 0.14063,1.27084 0.42188,1.78125c0.28125,0.5 0.68229,0.89063 1.20313,1.17188c0.53125,0.27084 1.13542,0.40625 1.8125,0.40625c0.48959,0 0.94271,-0.07812 1.35938,-0.23437c0.41667,-0.16666 0.86979,-0.46354 1.35938,-0.89062l0.96875,1.35938c-0.30208,0.30209 -0.66666,0.56771 -1.09375,0.79688c-0.42708,0.21875 -0.88021,0.39584 -1.35937,0.53125c-0.47916,0.125 -0.95312,0.1875 -1.42187,0.1875zM198.14239,87.46728v-9.79687h1.9375v2.09375l-0.35937,0.21875c0.10416,-0.32291 0.26041,-0.63021 0.46875,-0.92187c0.21875,-0.30209 0.48438,-0.56771 0.79688,-0.79687c0.32291,-0.22916 0.66666,-0.41146 1.03125,-0.54687c0.375,-0.14584 0.75521,-0.21875 1.14063,-0.21875c0.55208,0 1.04166,0.09375 1.46875,0.28125c0.42708,0.1875 0.77604,0.46875 1.04688,0.84375c0.27083,0.375 0.46875,0.84375 0.59375,1.40625l-0.29687,-0.07812l0.125,-0.3125c0.14583,-0.29166 0.33854,-0.5625 0.57813,-0.8125c0.23958,-0.26041 0.51563,-0.48959 0.82813,-0.6875c0.3125,-0.19791 0.64063,-0.35416 0.98438,-0.46875c0.35416,-0.11459 0.69791,-0.17187 1.03125,-0.17187c0.72916,0 1.33333,0.15104 1.8125,0.45313c0.47916,0.30209 0.83854,0.76041 1.07813,1.375c0.25,0.60416 0.375,1.35938 0.375,2.26563v5.875h-1.9375v-5.76562c0,-0.5625 -0.07292,-1.02084 -0.21875,-1.375c-0.14584,-0.35416 -0.36459,-0.61459 -0.65625,-0.78125c-0.28125,-0.17709 -0.64584,-0.26562 -1.09375,-0.26562c-0.34375,0 -0.67187,0.0625 -0.98437,0.1875c-0.30209,0.11459 -0.56771,0.27604 -0.79687,0.48438c-0.21875,0.20834 -0.39062,0.45313 -0.51562,0.73438c-0.11459,0.28125 -0.17187,0.58854 -0.17187,0.92188v5.85938h-1.95312v-5.79687c0,-0.51041 -0.07292,-0.94271 -0.21875,-1.29687c-0.14584,-0.35416 -0.36459,-0.625 -0.65625,-0.8125c-0.28125,-0.1875 -0.63021,-0.28125 -1.04687,-0.28125c-0.34375,0 -0.66667,0.0625 -0.96875,0.1875c-0.29167,0.11459 -0.55209,0.27604 -0.78125,0.48438c-0.21875,0.19791 -0.39062,0.4375 -0.51562,0.71875c-0.125,0.28125 -0.1875,0.58334 -0.1875,0.90625v5.89063zM219.91855,87.65478c-1,0 -1.89062,-0.21354 -2.67187,-0.64062c-0.77083,-0.42709 -1.38021,-1.01562 -1.82812,-1.76562c-0.4375,-0.75 -0.65625,-1.60937 -0.65625,-2.57812c0,-0.77084 0.125,-1.47396 0.375,-2.10937c0.25,-0.63541 0.59375,-1.18229 1.03125,-1.64062c0.4375,-0.46875 0.96354,-0.82812 1.57813,-1.07812c0.625,-0.26041 1.29688,-0.39062 2.01563,-0.39062c0.63542,0 1.22396,0.11979 1.76563,0.35938c0.55209,0.23959 1.02604,0.57291 1.42188,1c0.40625,0.42709 0.71875,0.93229 0.9375,1.51563c0.21875,0.57291 0.32292,1.19791 0.3125,1.875l-0.01562,0.82813h-8l-0.4375,-1.53125h6.76563l-0.26562,0.3125v-0.4375c-0.04166,-0.41666 -0.18229,-0.78646 -0.42187,-1.10937c-0.22916,-0.32291 -0.52604,-0.57812 -0.89062,-0.76562c-0.36458,-0.1875 -0.75521,-0.28125 -1.17187,-0.28125c-0.67708,0 -1.24479,0.13021 -1.70312,0.39063c-0.45833,0.25 -0.80729,0.625 -1.04687,1.125c-0.22916,0.48959 -0.34375,1.09375 -0.34375,1.8125c0,0.67709 0.14063,1.27084 0.42188,1.78125c0.28125,0.5 0.68229,0.89063 1.20313,1.17188c0.53125,0.27084 1.13542,0.40625 1.8125,0.40625c0.48959,0 0.94271,-0.07812 1.35938,-0.23437c0.41667,-0.16666 0.86979,-0.46354 1.35938,-0.89062l0.96875,1.35938c-0.30208,0.30209 -0.66666,0.56771 -1.09375,0.79688c-0.42708,0.21875 -0.88021,0.39584 -1.35937,0.53125c-0.47916,0.125 -0.95312,0.1875 -1.42187,0.1875zM226.28863,87.46728v-9.79687h1.92188v2.01563l-0.34375,0.21875c0.125,-0.42709 0.36979,-0.82291 0.73438,-1.1875c0.36458,-0.375 0.79166,-0.67709 1.28125,-0.90625c0.5,-0.22916 1.01041,-0.34375 1.53125,-0.34375c0.75,0 1.36979,0.14584 1.85938,0.4375c0.5,0.29166 0.875,0.73959 1.125,1.34375c0.25,0.59375 0.375,1.34375 0.375,2.25v5.96875h-1.92187v-5.84375c0,-0.55209 -0.07291,-1.01041 -0.21875,-1.375c-0.14583,-0.375 -0.375,-0.64584 -0.6875,-0.8125c-0.3125,-0.16666 -0.69792,-0.23959 -1.15625,-0.21875c-0.375,0 -0.71875,0.0625 -1.03125,0.1875c-0.3125,0.11459 -0.58334,0.28125 -0.8125,0.5c-0.22917,0.20834 -0.41146,0.45313 -0.54687,0.73438c-0.125,0.27084 -0.1875,0.56771 -0.1875,0.89063v5.9375h-0.95312c-0.15625,0 -0.31771,0 -0.48437,0c-0.16667,0 -0.32812,0 -0.48437,0zM238.60785,87.46728v-12.29687h1.92188v12.29688zM236.56097,79.5454v-1.875h6.23438v1.875zM248.19205,87.65478c-0.82291,0 -1.5625,-0.14062 -2.21875,-0.42187c-0.65625,-0.29166 -1.20312,-0.71875 -1.64062,-1.28125l1.29688,-1.10937c0.375,0.42709 0.78125,0.73959 1.21875,0.9375c0.44792,0.1875 0.95313,0.28125 1.51563,0.28125c0.21875,0 0.42188,-0.02604 0.60938,-0.07812c0.19792,-0.05209 0.36979,-0.13541 0.51563,-0.25c0.14584,-0.11459 0.25521,-0.25 0.32813,-0.40625c0.07292,-0.15625 0.10938,-0.32812 0.10938,-0.51562c0,-0.32291 -0.11979,-0.58334 -0.35937,-0.78125c-0.125,-0.08334 -0.32291,-0.17709 -0.59375,-0.28125c-0.26041,-0.10416 -0.60416,-0.21354 -1.03125,-0.32812c-0.71875,-0.1875 -1.30729,-0.39584 -1.76562,-0.625c-0.45833,-0.23959 -0.8125,-0.51041 -1.0625,-0.8125c-0.1875,-0.23959 -0.32812,-0.49479 -0.42187,-0.76562c-0.08333,-0.28125 -0.125,-0.59375 -0.125,-0.9375c0,-0.40625 0.08854,-0.78125 0.26563,-1.125c0.1875,-0.34375 0.4375,-0.64062 0.75,-0.89062c0.32292,-0.26041 0.69792,-0.45834 1.125,-0.59375c0.42709,-0.13541 0.88542,-0.20312 1.375,-0.20312c0.45834,0 0.91146,0.0625 1.35938,0.1875c0.45834,0.125 0.88021,0.30729 1.26563,0.54688c0.38542,0.22916 0.70834,0.50521 0.96875,0.82813l-1.09375,1.21875c-0.23958,-0.23959 -0.5,-0.44791 -0.78125,-0.625c-0.28125,-0.17709 -0.56771,-0.3125 -0.85937,-0.40625c-0.28125,-0.10416 -0.53646,-0.15625 -0.76562,-0.15625c-0.26041,0 -0.5,0.02604 -0.71875,0.07813c-0.20833,0.04166 -0.38541,0.11459 -0.53125,0.21875c-0.13541,0.09375 -0.24479,0.21875 -0.32812,0.375c-0.07291,0.14584 -0.10937,0.3125 -0.10937,0.5c0.01042,0.15625 0.05209,0.30729 0.125,0.45313c0.07292,0.14584 0.17188,0.26563 0.29688,0.35938c0.13542,0.10416 0.33854,0.21354 0.60938,0.32813c0.27084,0.10416 0.61979,0.20834 1.04688,0.3125c0.61459,0.15625 1.125,0.33334 1.53125,0.53125c0.40625,0.1875 0.72917,0.40625 0.96875,0.65625c0.25,0.23959 0.42188,0.51563 0.51563,0.82813c0.10417,0.3125 0.15625,0.66146 0.15625,1.04688c0,0.55209 -0.16146,1.05209 -0.48437,1.5c-0.3125,0.4375 -0.73958,0.78125 -1.28125,1.03125c-0.53125,0.25 -1.125,0.375 -1.78125,0.375z" fill="#ffffff" fill-rule="nonzero" stroke-linecap="square"/><path d="M58.162,110.05479c-0.95833,0 -1.81771,-0.21875 -2.57812,-0.65625c-0.75,-0.44792 -1.34375,-1.05209 -1.78125,-1.8125c-0.42708,-0.77084 -0.64062,-1.64584 -0.64062,-2.625c0,-0.97917 0.21354,-1.84896 0.64063,-2.60937c0.4375,-0.77084 1.03125,-1.375 1.78125,-1.8125c0.76042,-0.44792 1.61979,-0.67187 2.57813,-0.67187c0.9375,0 1.78125,0.22396 2.53125,0.67188c0.76042,0.4375 1.35938,1.04166 1.79688,1.8125c0.4375,0.76041 0.65625,1.63021 0.65625,2.60938c0,0.97916 -0.21875,1.85416 -0.65625,2.625c-0.4375,0.76041 -1.03646,1.36458 -1.79688,1.8125c-0.75,0.4375 -1.59375,0.65625 -2.53125,0.65625zM58.162,108.30479c0.58333,0 1.10417,-0.14584 1.5625,-0.4375c0.45833,-0.29167 0.81771,-0.6875 1.07813,-1.1875c0.26042,-0.51042 0.38542,-1.08334 0.375,-1.71875c0.01041,-0.64584 -0.11459,-1.21875 -0.375,-1.71875c-0.26042,-0.51042 -0.61979,-0.90625 -1.07812,-1.1875c-0.45833,-0.29167 -0.97917,-0.4375 -1.5625,-0.4375c-0.58333,0 -1.10937,0.14583 -1.57812,0.4375c-0.46875,0.29166 -0.83333,0.69271 -1.09375,1.20313c-0.26042,0.5 -0.38542,1.06771 -0.375,1.70313c-0.01042,0.63541 0.11458,1.20833 0.375,1.71875c0.26042,0.5 0.625,0.89583 1.09375,1.1875c0.46875,0.29166 0.99479,0.4375 1.57813,0.4375zM65.22935,109.86729v-9.79687h1.92188v2.01563l-0.34375,0.21875c0.125,-0.42709 0.36979,-0.82292 0.73438,-1.1875c0.36458,-0.375 0.79167,-0.67709 1.28125,-0.90625c0.5,-0.22917 1.01042,-0.34375 1.53125,-0.34375c0.75,0 1.36979,0.14583 1.85938,0.4375c0.5,0.29166 0.875,0.73958 1.125,1.34375c0.25,0.59375 0.375,1.34375 0.375,2.25v5.96875h-1.92187v-5.84375c0,-0.55209 -0.07291,-1.01042 -0.21875,-1.375c-0.14583,-0.375 -0.375,-0.64584 -0.6875,-0.8125c-0.3125,-0.16667 -0.69792,-0.23959 -1.15625,-0.21875c-0.375,0 -0.71875,0.0625 -1.03125,0.1875c-0.3125,0.11458 -0.58333,0.28125 -0.8125,0.5c-0.22917,0.20833 -0.41146,0.45313 -0.54687,0.73438c-0.125,0.27083 -0.1875,0.56771 -0.1875,0.89063v5.9375h-0.95312c-0.15625,0 -0.31771,0 -0.48437,0c-0.16667,0 -0.32812,0 -0.48437,0zM82.03795,109.86729v-13.0625h5.3125c0.70833,0 1.34896,0.17708 1.92188,0.53125c0.58333,0.35416 1.04688,0.83854 1.39063,1.45313c0.35416,0.60416 0.53125,1.28125 0.53125,2.03125c0,0.75 -0.17709,1.43229 -0.53125,2.04688c-0.34375,0.60416 -0.80729,1.08854 -1.39062,1.45313c-0.57292,0.36458 -1.21354,0.54688 -1.92187,0.54688h-3.29687v5zM84.05357,102.92979h3.26563c0.33333,0 0.63541,-0.09375 0.90625,-0.28125c0.28125,-0.19792 0.50521,-0.45312 0.67188,-0.76562c0.16666,-0.32292 0.25,-0.67709 0.25,-1.0625c0,-0.38542 -0.08334,-0.73437 -0.25,-1.04687c-0.16667,-0.3125 -0.39062,-0.5625 -0.67187,-0.75c-0.27084,-0.1875 -0.57292,-0.28125 -0.90625,-0.28125h-3.26562zM97.60123,110.05479c-0.95834,0 -1.81771,-0.21875 -2.57812,-0.65625c-0.75,-0.44792 -1.34375,-1.05209 -1.78125,-1.8125c-0.42709,-0.77084 -0.64062,-1.64584 -0.64062,-2.625c0,-0.97917 0.21354,-1.84896 0.64063,-2.60937c0.4375,-0.77084 1.03125,-1.375 1.78125,-1.8125c0.76041,-0.44792 1.61979,-0.67187 2.57813,-0.67187c0.9375,0 1.78125,0.22396 2.53125,0.67188c0.76041,0.4375 1.35938,1.04166 1.79688,1.8125c0.4375,0.76041 0.65625,1.63021 0.65625,2.60938c0,0.97916 -0.21875,1.85416 -0.65625,2.625c-0.4375,0.76041 -1.03646,1.36458 -1.79687,1.8125c-0.75,0.4375 -1.59375,0.65625 -2.53125,0.65625zM97.60123,108.30479c0.58334,0 1.10416,-0.14584 1.5625,-0.4375c0.45834,-0.29167 0.81771,-0.6875 1.07813,-1.1875c0.26041,-0.51042 0.38541,-1.08334 0.375,-1.71875c0.01041,-0.64584 -0.11459,-1.21875 -0.375,-1.71875c-0.26041,-0.51042 -0.61979,-0.90625 -1.07812,-1.1875c-0.45834,-0.29167 -0.97916,-0.4375 -1.5625,-0.4375c-0.58334,0 -1.10937,0.14583 -1.57812,0.4375c-0.46875,0.29166 -0.83334,0.69271 -1.09375,1.20313c-0.26041,0.5 -0.38541,1.06771 -0.375,1.70313c-0.01041,0.63541 0.11459,1.20833 0.375,1.71875c0.26041,0.5 0.625,0.89583 1.09375,1.1875c0.46875,0.29166 0.99479,0.4375 1.57813,0.4375zM104.69983,109.86729v-13.8125h1.92188v13.8125zM110.71193,114.16416l1.98438,-4.57812l0.01563,1.53125l-4.89062,-11.04687h2.23438l3.0625,7.20313c0.0625,0.125 0.13541,0.31771 0.21875,0.57813c0.09375,0.25 0.17188,0.5 0.23438,0.75l-0.48437,0.10938c0.09375,-0.26042 0.1875,-0.52084 0.28125,-0.78125c0.09375,-0.26042 0.18229,-0.52084 0.26563,-0.78125l2.5625,-7.07812h2.28125l-4.03125,9.79688l-1.65625,4.29688zM125.86371,110.05479c-0.92709,0 -1.78125,-0.16667 -2.5625,-0.5c-0.77084,-0.34375 -1.44791,-0.8125 -2.03125,-1.40625c-0.57291,-0.60417 -1.02084,-1.3125 -1.34375,-2.125c-0.3125,-0.82292 -0.46875,-1.71875 -0.46875,-2.6875c0,-0.96875 0.15625,-1.85937 0.46875,-2.67187c0.32291,-0.8125 0.77084,-1.52084 1.34375,-2.125c0.58334,-0.60417 1.26041,-1.07292 2.03125,-1.40625c0.78125,-0.34375 1.63541,-0.51562 2.5625,-0.51562c0.91666,0 1.76041,0.17188 2.53125,0.51563c0.78125,0.33333 1.46354,0.80729 2.04688,1.42188c0.58334,0.60416 1.03125,1.3125 1.34375,2.125c0.3125,0.8125 0.46875,1.69791 0.46875,2.65625c0,0.95833 -0.15625,1.84375 -0.46875,2.65625c-0.3125,0.8125 -0.76041,1.52604 -1.34375,2.14063c-0.58334,0.60416 -1.26562,1.07813 -2.04687,1.42188c-0.77084,0.33333 -1.61459,0.5 -2.53125,0.5zM125.86371,108.10166c0.63541,0 1.21354,-0.11979 1.73438,-0.35937c0.53125,-0.23959 0.98959,-0.57292 1.375,-1c0.38541,-0.42709 0.6875,-0.92709 0.90625,-1.5c0.21875,-0.58334 0.32813,-1.21875 0.32813,-1.90625c0,-0.6875 -0.10937,-1.31771 -0.32812,-1.89062c-0.21875,-0.58334 -0.52084,-1.08854 -0.90625,-1.51562c-0.38541,-0.42709 -0.84375,-0.75521 -1.375,-0.98437c-0.52084,-0.23959 -1.09896,-0.35937 -1.73437,-0.35937c-0.63541,0 -1.21875,0.11979 -1.75,0.35938c-0.53125,0.22916 -0.99479,0.55729 -1.39062,0.98438c-0.38541,0.41666 -0.68229,0.91666 -0.89062,1.5c-0.20834,0.57291 -0.3125,1.20833 -0.3125,1.90625c0,0.6875 0.10416,1.32291 0.3125,1.90625c0.20834,0.58333 0.50521,1.08854 0.89063,1.51563c0.39584,0.41666 0.85938,0.74479 1.39063,0.98438c0.53125,0.23958 1.11459,0.35938 1.75,0.35938zM139.01541,110.05479c-0.70834,0 -1.36459,-0.09375 -1.96875,-0.28125c-0.60417,-0.1875 -1.15104,-0.46875 -1.64063,-0.84375c-0.48958,-0.38542 -0.92708,-0.85417 -1.3125,-1.40625l1.375,-1.59375c0.61459,0.875 1.19792,1.47916 1.75,1.8125c0.5625,0.33333 1.22916,0.5 2,0.5c0.46875,0 0.89583,-0.07292 1.28125,-0.21875c0.38541,-0.15625 0.6875,-0.36459 0.90625,-0.625c0.22916,-0.26042 0.34375,-0.55729 0.34375,-0.89062c0,-0.21875 -0.03646,-0.42709 -0.10937,-0.625c-0.07292,-0.20834 -0.1875,-0.39062 -0.34375,-0.54687c-0.15625,-0.16667 -0.35417,-0.31771 -0.59375,-0.45312c-0.23959,-0.13542 -0.52084,-0.25521 -0.84375,-0.35937c-0.32292,-0.10417 -0.69792,-0.19271 -1.125,-0.26562c-0.66667,-0.14584 -1.25,-0.32812 -1.75,-0.54687c-0.5,-0.22917 -0.91667,-0.51042 -1.25,-0.84375c-0.33334,-0.33334 -0.58334,-0.71354 -0.75,-1.14062c-0.16666,-0.42709 -0.25,-0.91146 -0.25,-1.45312c0,-0.52084 0.11459,-1.00521 0.34375,-1.45312c0.23959,-0.44792 0.55729,-0.83334 0.95313,-1.15625c0.40625,-0.33334 0.88021,-0.58854 1.42188,-0.76562c0.55208,-0.1875 1.14583,-0.28125 1.78125,-0.28125c0.67708,0 1.29166,0.08854 1.84375,0.26563c0.5625,0.17708 1.0625,0.4375 1.5,0.78125c0.4375,0.33333 0.79688,0.75 1.07813,1.25l-1.42187,1.40625c-0.23959,-0.41667 -0.51562,-0.76042 -0.82812,-1.03125c-0.3125,-0.28125 -0.65625,-0.49479 -1.03125,-0.64062c-0.375,-0.14584 -0.77084,-0.21875 -1.1875,-0.21875c-0.48959,0 -0.91667,0.07813 -1.28125,0.23438c-0.35417,0.14583 -0.63542,0.35416 -0.84375,0.625c-0.20834,0.26041 -0.3125,0.57291 -0.3125,0.9375c0,0.26041 0.05208,0.5 0.15625,0.71875c0.10416,0.21875 0.25521,0.41146 0.45313,0.57813c0.20833,0.16666 0.48438,0.31771 0.82813,0.45313c0.35416,0.125 0.77083,0.23438 1.25,0.32813c0.6875,0.15625 1.29688,0.34896 1.82813,0.57813c0.54166,0.22916 0.99479,0.5 1.35938,0.8125c0.375,0.3125 0.65625,0.66146 0.84375,1.04688c0.19791,0.38541 0.29688,0.80208 0.29688,1.25c0,0.83333 -0.19271,1.55729 -0.57812,2.17188c-0.38542,0.60416 -0.93229,1.07291 -1.64062,1.40625c-0.70834,0.32291 -1.55209,0.48438 -2.53125,0.48438z" fill="#ffffff" fill-rule="nonzero" stroke-linecap="square"/><path d="M43.412,278.90846h241.92125v42.01574h-241.92125z" fill-opacity="0" fill="#000000" fill-rule="evenodd" stroke-linecap="square"/><path d="M52.88075,305.82844l5.04688,-13.0625h2.0625l5.01563,13.0625h-2.14062l-2.98438,-7.875c-0.04167,-0.08334 -0.11458,-0.29167 -0.21875,-0.625c-0.10417,-0.34375 -0.22917,-0.71875 -0.375,-1.125c-0.13542,-0.41667 -0.26042,-0.79167 -0.375,-1.125c-0.10417,-0.34375 -0.17708,-0.56771 -0.21875,-0.67187l0.4375,-0.01562c-0.07292,0.20833 -0.16667,0.47396 -0.28125,0.79688c-0.10417,0.32291 -0.21354,0.66666 -0.32812,1.03125c-0.11458,0.36458 -0.22917,0.70833 -0.34375,1.03125c-0.11458,0.3125 -0.20833,0.57291 -0.28125,0.78125l-2.96875,7.79688zM55.11513,302.57844l0.75,-1.9375h5.9375l0.85938,1.9375zM66.84637,305.82844v-13.8125h1.92188v13.8125zM71.5291,305.82844v-13.8125h1.92188v13.8125zM80.52933,305.82844l5.04688,-13.0625h2.0625l5.01563,13.0625h-2.14062l-2.98437,-7.875c-0.04166,-0.08334 -0.11459,-0.29167 -0.21875,-0.625c-0.10416,-0.34375 -0.22916,-0.71875 -0.375,-1.125c-0.13541,-0.41667 -0.26041,-0.79167 -0.375,-1.125c-0.10416,-0.34375 -0.17709,-0.56771 -0.21875,-0.67187l0.4375,-0.01562c-0.07291,0.20833 -0.16666,0.47396 -0.28125,0.79688c-0.10416,0.32291 -0.21354,0.66666 -0.32812,1.03125c-0.11459,0.36458 -0.22916,0.70833 -0.34375,1.03125c-0.11459,0.3125 -0.20834,0.57291 -0.28125,0.78125l-2.96875,7.79688zM82.7637,302.57844l0.75,-1.9375h5.9375l0.85938,1.9375zM94.4637,305.82844v-9.79687h1.9375v3.07813l-0.1875,-0.75c0.13541,-0.46875 0.36979,-0.89584 0.70313,-1.28125c0.33334,-0.38542 0.71354,-0.6875 1.14063,-0.90625c0.42709,-0.22917 0.86979,-0.34375 1.32813,-0.34375c0.20834,0 0.40625,0.02083 0.59375,0.0625c0.19791,0.03125 0.35416,0.07291 0.46875,0.125l-0.5,2.09375c-0.14584,-0.0625 -0.3125,-0.11459 -0.5,-0.15625c-0.17709,-0.05209 -0.35416,-0.07812 -0.53125,-0.07812c-0.33334,0 -0.65104,0.06771 -0.95312,0.20313c-0.30209,0.125 -0.57291,0.30729 -0.8125,0.54688c-0.22916,0.22916 -0.41146,0.49479 -0.54687,0.79688c-0.13541,0.30208 -0.20312,0.63541 -0.20312,1v5.40625zM103.57425,305.82844v-12.29687h1.92188v12.29688zM101.52737,297.90656v-1.875h6.23438v1.875zM109.832,305.82844v-9.79687h1.92188v9.79688zM110.7695,293.87531c-0.40625,0 -0.72396,-0.10417 -0.95312,-0.3125c-0.21875,-0.21875 -0.32812,-0.52084 -0.32812,-0.90625c0,-0.36459 0.11459,-0.65625 0.34375,-0.875c0.22916,-0.22917 0.54166,-0.34375 0.9375,-0.34375c0.40625,0 0.71875,0.10938 0.9375,0.32813c0.22917,0.20833 0.34375,0.50521 0.34375,0.89063c0,0.36458 -0.11458,0.66146 -0.34375,0.89063c-0.22916,0.21875 -0.54166,0.32813 -0.9375,0.32813zM118.86218,306.01594c-0.90625,0 -1.71875,-0.22396 -2.4375,-0.67188c-0.70834,-0.44791 -1.27084,-1.05729 -1.6875,-1.82812c-0.41666,-0.77083 -0.625,-1.63541 -0.625,-2.59375c0,-0.95833 0.20834,-1.82291 0.625,-2.59375c0.41666,-0.77084 0.97916,-1.38021 1.6875,-1.82812c0.71875,-0.44792 1.53125,-0.67187 2.4375,-0.67187c0.875,0 1.66666,0.17708 2.375,0.53125c0.71875,0.35416 1.26563,0.83854 1.64063,1.45313l-1.0625,1.29688c-0.19791,-0.28125 -0.45312,-0.54167 -0.76562,-0.78125c-0.3125,-0.23959 -0.64584,-0.42709 -1,-0.5625c-0.34375,-0.13542 -0.67709,-0.20312 -1,-0.20312c-0.59375,0 -1.125,0.14583 -1.59375,0.4375c-0.46875,0.29166 -0.83854,0.69271 -1.10937,1.20313c-0.27084,0.51041 -0.40625,1.08333 -0.40625,1.71875c0,0.63542 0.14063,1.20834 0.42188,1.71875c0.29166,0.5 0.67188,0.90104 1.14063,1.20313c0.46875,0.29167 0.98959,0.4375 1.5625,0.4375c0.34375,0 0.67188,-0.05729 0.98438,-0.17187c0.3125,-0.11458 0.61979,-0.28125 0.92188,-0.5c0.30209,-0.22916 0.58334,-0.50521 0.84375,-0.82812l1.0625,1.3125c-0.39584,0.5625 -0.96354,1.02604 -1.70312,1.39063c-0.73959,0.35417 -1.51041,0.53125 -2.3125,0.53125zM124.71829,305.82844v-13.8125h1.92188v13.8125zM133.74561,306.01594c-1,0 -1.89062,-0.21354 -2.67187,-0.64063c-0.77084,-0.42708 -1.38021,-1.01562 -1.82812,-1.76562c-0.4375,-0.75 -0.65625,-1.60937 -0.65625,-2.57812c0,-0.77083 0.125,-1.47396 0.375,-2.10937c0.25,-0.63542 0.59375,-1.18229 1.03125,-1.64062c0.4375,-0.46875 0.96354,-0.82812 1.57813,-1.07812c0.625,-0.26042 1.29688,-0.39062 2.01563,-0.39062c0.63541,0 1.22396,0.11979 1.76563,0.35938c0.55208,0.23958 1.02604,0.57291 1.42187,1c0.40625,0.42708 0.71875,0.93229 0.9375,1.51563c0.21875,0.57291 0.32292,1.19791 0.3125,1.875l-0.01562,0.82813h-8l-0.4375,-1.53125h6.76562l-0.26562,0.3125v-0.4375c-0.04166,-0.41666 -0.18229,-0.78646 -0.42187,-1.10937c-0.22916,-0.32292 -0.52604,-0.57812 -0.89062,-0.76562c-0.36459,-0.1875 -0.75521,-0.28125 -1.17187,-0.28125c-0.67709,0 -1.24479,0.13021 -1.70312,0.39063c-0.45834,0.25 -0.80729,0.625 -1.04687,1.125c-0.22917,0.48958 -0.34375,1.09375 -0.34375,1.8125c0,0.67709 0.14063,1.27084 0.42188,1.78125c0.28125,0.5 0.68229,0.89063 1.20313,1.17188c0.53125,0.27084 1.13541,0.40625 1.8125,0.40625c0.48958,0 0.94271,-0.07812 1.35938,-0.23437c0.41666,-0.16666 0.86979,-0.46354 1.35937,-0.89062l0.96875,1.35938c-0.30208,0.30209 -0.66666,0.56771 -1.09375,0.79688c-0.42708,0.21875 -0.88021,0.39584 -1.35937,0.53125c-0.47917,0.125 -0.95312,0.1875 -1.42187,0.1875zM143.38129,306.01594c-0.82291,0 -1.5625,-0.14062 -2.21875,-0.42187c-0.65625,-0.29167 -1.20312,-0.71875 -1.64062,-1.28125l1.29688,-1.10937c0.375,0.42709 0.78125,0.73959 1.21875,0.9375c0.44791,0.1875 0.95313,0.28125 1.51563,0.28125c0.21875,0 0.42188,-0.02604 0.60938,-0.07812c0.19791,-0.05208 0.36979,-0.13541 0.51563,-0.25c0.14584,-0.11458 0.25521,-0.25 0.32813,-0.40625c0.07291,-0.15625 0.10938,-0.32812 0.10938,-0.51562c0,-0.32291 -0.11979,-0.58333 -0.35937,-0.78125c-0.125,-0.08333 -0.32291,-0.17708 -0.59375,-0.28125c-0.26041,-0.10416 -0.60416,-0.21354 -1.03125,-0.32812c-0.71875,-0.1875 -1.30729,-0.39583 -1.76562,-0.625c-0.45834,-0.23958 -0.8125,-0.51041 -1.0625,-0.8125c-0.1875,-0.23958 -0.32812,-0.49479 -0.42187,-0.76562c-0.08334,-0.28125 -0.125,-0.59375 -0.125,-0.9375c0,-0.40625 0.08854,-0.78125 0.26563,-1.125c0.1875,-0.34375 0.4375,-0.64062 0.75,-0.89062c0.32291,-0.26042 0.69791,-0.45834 1.125,-0.59375c0.42709,-0.13542 0.88541,-0.20312 1.375,-0.20312c0.45834,0 0.91146,0.0625 1.35938,0.1875c0.45834,0.125 0.88021,0.30729 1.26563,0.54688c0.38541,0.22916 0.70834,0.50521 0.96875,0.82813l-1.09375,1.21875c-0.23959,-0.23959 -0.5,-0.44792 -0.78125,-0.625c-0.28125,-0.17709 -0.56771,-0.3125 -0.85937,-0.40625c-0.28125,-0.10417 -0.53646,-0.15625 -0.76562,-0.15625c-0.26041,0 -0.5,0.02604 -0.71875,0.07813c-0.20834,0.04166 -0.38541,0.11458 -0.53125,0.21875c-0.13541,0.09375 -0.24479,0.21875 -0.32812,0.375c-0.07291,0.14583 -0.10937,0.3125 -0.10937,0.5c0.01041,0.15625 0.05209,0.30729 0.125,0.45313c0.07291,0.14583 0.17188,0.26563 0.29688,0.35938c0.13541,0.10416 0.33854,0.21354 0.60938,0.32812c0.27084,0.10417 0.61979,0.20834 1.04688,0.3125c0.61459,0.15625 1.125,0.33334 1.53125,0.53125c0.40625,0.1875 0.72916,0.40625 0.96875,0.65625c0.25,0.23959 0.42188,0.51563 0.51563,0.82813c0.10416,0.3125 0.15625,0.66146 0.15625,1.04688c0,0.55209 -0.16146,1.05209 -0.48437,1.5c-0.3125,0.4375 -0.73959,0.78125 -1.28125,1.03125c-0.53125,0.25 -1.125,0.375 -1.78125,0.375zM149.83325,306.01594c-0.40625,0 -0.72396,-0.11979 -0.95312,-0.35937c-0.21875,-0.23959 -0.32812,-0.58334 -0.32812,-1.03125c0,-0.41666 0.11459,-0.75521 0.34375,-1.01562c0.23959,-0.26041 0.55209,-0.39062 0.9375,-0.39062c0.41666,0 0.73438,0.125 0.95313,0.375c0.22916,0.23959 0.34375,0.58334 0.34375,1.03125c0,0.40625 -0.11979,0.73959 -0.35937,1c-0.23959,0.26041 -0.55209,0.39063 -0.9375,0.39063zM149.83325,298.64094c-0.40625,0 -0.72396,-0.11979 -0.95312,-0.35937c-0.21875,-0.23959 -0.32812,-0.58334 -0.32812,-1.03125c0,-0.41667 0.11459,-0.75521 0.34375,-1.01562c0.23959,-0.26042 0.55209,-0.39062 0.9375,-0.39062c0.41666,0 0.73438,0.125 0.95313,0.375c0.22916,0.23958 0.34375,0.58333 0.34375,1.03125c0,0.40625 -0.11979,0.73958 -0.35937,1c-0.23959,0.26041 -0.55209,0.39063 -0.9375,0.39063z" fill="#ffffff" fill-rule="nonzero" stroke-linecap="square"/></g></g></svg>