<svg version="1.1" xmlns="http://www.w3.org/2000/svg" xmlns:xlink="http://www.w3.org/1999/xlink" width="78.75" height="50.08047" viewBox="0,0,78.75,50.08047"><g transform="translate(-350,-37.91667)"><g data-paper-data="{&quot;isPaintingLayer&quot;:true}" fill-rule="nonzero" stroke-linecap="butt" stroke-linejoin="miter" stroke-miterlimit="10" stroke-dasharray="" stroke-dashoffset="0" style="mix-blend-mode: normal"><path d="M398.04913,79.00001c0,4.96898 -4.05143,8.99713 -9.04913,8.99713c-4.9977,0 -9.04913,-4.02815 -9.04913,-8.99713c0,-4.96898 4.05143,-8.99713 9.04913,-8.99713c4.9977,0 9.04913,4.02815 9.04913,8.99713z" fill="#ff0000" stroke="none" stroke-width="0"/><path d="M386.1,83l-0.76667,-0.76667l3.06667,-3.06667l-3.06667,-3.06667l0.76667,-0.76667l3.06667,3.06667l3.06667,-3.06667l0.76667,0.76667l-3.06667,3.06667l3.06667,3.06667l-0.76667,0.76667l-3.06667,-3.06667z" fill="#ffffff" stroke="#ffffff" stroke-width="0.5"/><path d="M350,57.5v-19.58333h78.75v19.58333z" fill-opacity="0.57258" fill="#000000" stroke="none" stroke-width="0"/><text transform="translate(353.25,50.5421) scale(0.258,0.258)" font-size="40" xml:space="preserve" fill="#ffffff" fill-rule="nonzero" stroke="none" stroke-width="1" stroke-linecap="butt" stroke-linejoin="miter" stroke-miterlimit="10" stroke-dasharray="" stroke-dashoffset="0" font-family="Sans Serif" font-weight="normal" text-anchor="start" style="mix-blend-mode: normal"><tspan x="0" dy="0">Close Window</tspan></text></g></g></svg>