<svg version="1.1" xmlns="http://www.w3.org/2000/svg" xmlns:xlink="http://www.w3.org/1999/xlink" width="52.16931" height="11.70812" viewBox="0,0,52.16931,11.70812"><g transform="translate(-213.91534,-174.14594)"><g data-paper-data="{&quot;isPaintingLayer&quot;:true}" fill="#ffffff" fill-rule="nonzero" stroke="none" stroke-width="1" stroke-linecap="square" stroke-linejoin="miter" stroke-miterlimit="10" stroke-dasharray="" stroke-dashoffset="0" style="mix-blend-mode: normal"><path d="M213.91535,183.07603v-8.44519h1.30315v8.44519zM214.49117,179.47976v-1.25264h4.35392v1.25264zM214.49117,175.88348v-1.25264h4.89942v1.25264zM223.63204,183.19725c-0.64652,0 -1.22233,-0.13805 -1.72742,-0.41418c-0.49836,-0.27612 -0.89233,-0.65663 -1.18192,-1.14151c-0.28285,-0.48489 -0.42428,-1.04049 -0.42428,-1.66681c0,-0.49836 0.08082,-0.95294 0.24245,-1.36375c0.16163,-0.41081 0.38387,-0.76438 0.66672,-1.0607c0.28285,-0.30306 0.62295,-0.5354 1.02029,-0.69703c0.40408,-0.16836 0.83846,-0.25255 1.30315,-0.25255c0.41081,0 0.79131,0.07745 1.14151,0.23235c0.35693,0.15489 0.66336,0.3704 0.91927,0.64652c0.26265,0.27612 0.46469,0.60274 0.60612,0.97988c0.14142,0.37041 0.20877,0.77448 0.20203,1.21223l-0.0101,0.5354h-5.17218l-0.28285,-0.98998h4.37412l-0.17173,0.20203v-0.28285c-0.02694,-0.26938 -0.11786,-0.50846 -0.27275,-0.71724c-0.14816,-0.20878 -0.3401,-0.37377 -0.57581,-0.495c-0.23571,-0.12122 -0.48826,-0.18183 -0.75764,-0.18183c-0.43775,0 -0.80479,0.08419 -1.10111,0.25255c-0.29632,0.16163 -0.52193,0.40407 -0.67682,0.72733c-0.14816,0.31652 -0.22225,0.70713 -0.22225,1.17182c0,0.43775 0.09091,0.82162 0.27275,1.15162c0.18184,0.32326 0.44112,0.57581 0.77785,0.75764c0.34346,0.1751 0.73407,0.26265 1.17182,0.26265c0.31652,0 0.60948,-0.05051 0.87886,-0.15153c0.26938,-0.10775 0.56234,-0.29969 0.87887,-0.57581l0.62632,0.87887c-0.19531,0.19531 -0.43101,0.36704 -0.70713,0.5152c-0.27612,0.14142 -0.56907,0.25592 -0.87887,0.34347c-0.30979,0.08082 -0.61622,0.12122 -0.91927,0.12122zM231.08406,183.19725c-0.27612,0 -0.54887,-0.04378 -0.81825,-0.13133c-0.26938,-0.08755 -0.5152,-0.2054 -0.73744,-0.35356c-0.22224,-0.15489 -0.40744,-0.3199 -0.5556,-0.495c-0.14816,-0.18184 -0.24582,-0.36703 -0.29296,-0.5556l0.31316,-0.16163v1.53548h-1.24253v-8.88967h1.24253v4.04076l-0.19194,-0.10102c0.04041,-0.18857 0.12796,-0.36704 0.26265,-0.5354c0.13469,-0.1751 0.3098,-0.33337 0.5253,-0.47479c0.2155,-0.14142 0.44785,-0.25254 0.69703,-0.33336c0.24918,-0.08755 0.50173,-0.13132 0.75765,-0.13132c0.57244,0 1.07753,0.14142 1.51528,0.42428c0.44449,0.28285 0.79468,0.67009 1.0506,1.16172c0.25592,0.49162 0.38387,1.05733 0.38387,1.69712c0,0.63305 -0.12796,1.19876 -0.38387,1.69712c-0.24918,0.49836 -0.59601,0.89233 -1.04049,1.18192c-0.43775,0.28285 -0.93275,0.42428 -1.48498,0.42428zM230.87193,182.06584c0.37041,0 0.7004,-0.09428 0.98999,-0.28285c0.28959,-0.18857 0.51857,-0.44449 0.68693,-0.76775c0.16836,-0.32999 0.25255,-0.70376 0.25255,-1.12131c0,-0.41081 -0.08419,-0.77784 -0.25255,-1.10111c-0.16163,-0.32999 -0.38724,-0.58591 -0.67683,-0.76774c-0.28959,-0.18857 -0.62295,-0.28285 -1.00009,-0.28285c-0.37714,0 -0.71049,0.09428 -1.00008,0.28285c-0.28959,0.18184 -0.51856,0.43775 -0.68693,0.76774c-0.16836,0.32326 -0.25255,0.6903 -0.25255,1.10111c0,0.41755 0.08419,0.79131 0.25255,1.12131c0.16836,0.32326 0.39734,0.57918 0.68693,0.76775c0.28959,0.18857 0.62295,0.28285 1.00008,0.28285zM235.34928,183.07603v-6.33389h1.25263v1.99007l-0.12122,-0.48489c0.08755,-0.30306 0.23908,-0.57918 0.45458,-0.82836c0.2155,-0.24918 0.46132,-0.44449 0.73744,-0.58591c0.27612,-0.14816 0.56234,-0.22224 0.85866,-0.22224c0.13469,0 0.26265,0.01346 0.38387,0.0404c0.12796,0.02021 0.22898,0.04714 0.30306,0.08082l-0.32326,1.35366c-0.09428,-0.04041 -0.20204,-0.07408 -0.32327,-0.10102c-0.11449,-0.03368 -0.22897,-0.05051 -0.34346,-0.05051c-0.2155,0 -0.42091,0.04378 -0.61621,0.13133c-0.19531,0.08082 -0.3704,0.19868 -0.52529,0.35357c-0.14816,0.14816 -0.26602,0.31989 -0.35357,0.51519c-0.08755,0.19531 -0.13133,0.41081 -0.13133,0.64652v3.49526zM242.43254,183.19725c-0.45122,0 -0.84519,-0.10438 -1.18192,-0.31315c-0.32999,-0.20878 -0.58591,-0.50173 -0.76775,-0.87887c-0.18184,-0.37714 -0.27275,-0.82836 -0.27275,-1.35366v-3.90944h1.24254v3.57607c0,0.36367 0.05724,0.68019 0.17173,0.94958c0.12122,0.26938 0.28959,0.47816 0.50509,0.62632c0.22224,0.14142 0.49163,0.21214 0.80815,0.21214c0.22898,0 0.44111,-0.03704 0.63642,-0.11112c0.19531,-0.07408 0.36367,-0.17847 0.5051,-0.31316c0.14142,-0.14142 0.24918,-0.30642 0.32326,-0.49499c0.08082,-0.19531 0.12123,-0.40744 0.12123,-0.63642v-3.80842h1.24253v6.33389h-1.24253v-1.32335l0.22224,-0.15153c-0.09428,0.30306 -0.25592,0.57581 -0.48489,0.81825c-0.22898,0.23571 -0.50173,0.42428 -0.81825,0.5657c-0.31652,0.14142 -0.65326,0.21214 -1.01019,0.21214zM249.942,183.19725c-0.51856,0 -0.99335,-0.14479 -1.42436,-0.43438c-0.43102,-0.28959 -0.77785,-0.68356 -1.0405,-1.18192c-0.25592,-0.49836 -0.38387,-1.0607 -0.38387,-1.68702c0,-0.63979 0.13133,-1.20549 0.39397,-1.69712c0.26265,-0.49162 0.61621,-0.87886 1.0607,-1.16172c0.45122,-0.28285 0.95295,-0.42428 1.50518,-0.42428c0.32999,0 0.62968,0.0505 0.89907,0.15152c0.27612,0.09428 0.5152,0.22898 0.71724,0.40408c0.20878,0.16836 0.37714,0.36703 0.50509,0.59601c0.13469,0.22224 0.21887,0.46132 0.25255,0.71724l-0.27275,-0.09091v-1.64661h1.25263v6.33389h-1.25263v-1.50519l0.28285,-0.09091c-0.04714,0.22224 -0.14479,0.43774 -0.29295,0.64652c-0.14816,0.20204 -0.33673,0.38388 -0.56571,0.54551c-0.22898,0.15489 -0.48152,0.28285 -0.75764,0.38387c-0.27612,0.09428 -0.56907,0.14142 -0.87887,0.14142zM250.26526,182.05574c0.38387,0 0.71724,-0.09091 1.00009,-0.27275c0.28959,-0.18857 0.5152,-0.44449 0.67683,-0.76775c0.16836,-0.32999 0.25254,-0.70376 0.25254,-1.12131c0,-0.41081 -0.08418,-0.77784 -0.25254,-1.10111c-0.16163,-0.32326 -0.38724,-0.57581 -0.67683,-0.75764c-0.28285,-0.18857 -0.61622,-0.28285 -1.00009,-0.28285c-0.37041,0 -0.69702,0.09428 -0.97988,0.28285c-0.28285,0.18184 -0.50847,0.43438 -0.67683,0.75764c-0.16163,0.32326 -0.24245,0.6903 -0.24245,1.10111c0,0.41755 0.08082,0.79131 0.24245,1.12131c0.16836,0.32326 0.39398,0.57918 0.67683,0.76775c0.28285,0.18184 0.60947,0.27275 0.97988,0.27275zM255.14248,183.07603v-6.33389h1.25264v1.99007l-0.12122,-0.48489c0.08755,-0.30306 0.23908,-0.57918 0.45459,-0.82836c0.2155,-0.24918 0.46132,-0.44449 0.73744,-0.58591c0.27612,-0.14816 0.56234,-0.22224 0.85866,-0.22224c0.13469,0 0.26265,0.01346 0.38387,0.0404c0.12796,0.02021 0.22898,0.04714 0.30306,0.08082l-0.32326,1.35366c-0.09428,-0.04041 -0.20204,-0.07408 -0.32326,-0.10102c-0.11449,-0.03368 -0.22897,-0.05051 -0.34346,-0.05051c-0.2155,0 -0.42091,0.04378 -0.61622,0.13133c-0.19531,0.08082 -0.3704,0.19868 -0.52529,0.35357c-0.14816,0.14816 -0.26602,0.31989 -0.35357,0.51519c-0.08755,0.19531 -0.13132,0.41081 -0.13132,0.64652v3.49526zM261.06403,185.85405l1.28294,-2.95986l0.0101,0.98999l-3.1619,-7.14204h1.44457l1.97997,4.65698c0.04041,0.08082 0.08755,0.20541 0.14143,0.37377c0.06061,0.16163 0.11111,0.32326 0.15152,0.48489l-0.31315,0.07072c0.06061,-0.16836 0.12122,-0.33673 0.18183,-0.5051c0.06061,-0.16836 0.11786,-0.33673 0.17173,-0.50509l1.65671,-4.57616h1.47488l-2.60629,6.33389l-1.07081,2.77802z"/></g></g></svg>