<svg version="1.1" xmlns="http://www.w3.org/2000/svg" xmlns:xlink="http://www.w3.org/1999/xlink" width="38.51652" height="21.00901" viewBox="0,0,38.51652,21.00901"><g transform="translate(-220.74174,-169.4955)"><g data-paper-data="{&quot;isPaintingLayer&quot;:true}" fill="#ffffff" fill-rule="nonzero" stroke="none" stroke-width="1" stroke-linecap="butt" stroke-linejoin="miter" stroke-miterlimit="10" stroke-dasharray="" stroke-dashoffset="0" style="mix-blend-mode: normal"><path d="M222.49249,190.5045v-3.5015h35.01502v3.5015zM224.50586,179.91246l-2.27598,-1.31306l1.48814,-2.62613h-2.97628v-2.62613h2.97628l-1.48814,-2.53859l2.27598,-1.31306l1.48814,2.53859l1.48814,-2.53859l2.27598,1.31306l-1.48814,2.53859h2.97628v2.62613h-2.97628l1.48814,2.62613l-2.27598,1.31306l-1.48814,-2.62613zM238.51186,179.91246l-2.27598,-1.31306l1.48814,-2.62613h-2.97628v-2.62613h2.97628l-1.48814,-2.53859l2.27598,-1.31306l1.48814,2.53859l1.48814,-2.53859l2.27598,1.31306l-1.48814,2.53859h2.97628v2.62613h-2.97628l1.48814,2.62613l-2.27598,1.31306l-1.48814,-2.62613zM252.51787,179.91246l-2.27598,-1.31306l1.48814,-2.62613h-2.97628v-2.62613h2.97628l-1.48814,-2.53859l2.27598,-1.31306l1.48814,2.53859l1.48814,-2.53859l2.27598,1.31306l-1.48814,2.53859h2.97628v2.62613h-2.97628l1.48814,2.62613l-2.27598,1.31306l-1.48814,-2.62613z"/></g></g></svg>