<svg version="1.1" xmlns="http://www.w3.org/2000/svg" xmlns:xlink="http://www.w3.org/1999/xlink" width="20.713" height="20.51607" viewBox="0,0,20.713,20.51607"><g transform="translate(-229.6435,-167.76488)"><g data-paper-data="{&quot;isPaintingLayer&quot;:true}" fill="none" fill-rule="nonzero" stroke-width="2" stroke-linecap="butt" stroke-linejoin="miter" stroke-miterlimit="10" stroke-dasharray="" stroke-dashoffset="0" style="mix-blend-mode: normal"><path d="M249.3565,180.38c-1.14532,3.98523 -4.81788,6.90095 -9.17145,6.90095c-5.26965,0 -9.54155,-4.2719 -9.54155,-9.54155c0,-4.12924 2.62299,-7.64584 6.29369,-8.97452" stroke="#00c1ff"/><path d="M234.79886,175.48476c0.89053,-1.88008 2.80534,-3.18041 5.02386,-3.18041c3.06841,0 5.55584,2.48743 5.55584,5.55584c0,3.06841 -2.48743,5.55584 -5.55584,5.55584c-1.7529,0 -3.31619,-0.81179 -4.33446,-2.07992" stroke="#0059af"/><path d="M237.91055,177.98097c0,-1.13397 0.91927,-2.05325 2.05325,-2.05325c1.13397,0 2.05325,0.91927 2.05325,2.05325c0,1.13397 -0.91927,2.05325 -2.05325,2.05325c-1.13397,0 -2.05325,-0.91927 -2.05325,-2.05325z" stroke="#000000"/></g></g></svg>