<svg xmlns="http://www.w3.org/2000/svg" xmlns:xlink="http://www.w3.org/1999/xlink" stroke-miterlimit="10" stroke-linecap="square" stroke="none" fill="none" viewBox="0.0 0.0 960.0 720.0" version="1.1"><clipPath id="p.0"><path clip-rule="nonzero" d="m0 0l960.0 0l0 720.0l-960.0 0l0 -720.0z"></path></clipPath><g clip-path="url(#p.0)"><path fill-rule="evenodd" d="m0 0l960.0 0l0 720.0l-960.0 0z" fill-opacity="0.0" fill="#000000"></path><path fill-rule="evenodd" d="m220.0 112.06601l0 0c0 -10.8719635 8.813461 -19.685432 19.68544 -19.685432l230.14095 0c5.220886 0 10.227966 2.0739975 13.919708 5.765732c3.6917114 3.6917343 5.7657166 8.698799 5.7657166 13.919701l0 78.739365c0 10.8719635 -8.813477 19.68544 -19.685425 19.68544l-230.14095 0c-10.871979 0 -19.68544 -8.813477 -19.68544 -19.68544z" fill="#ffffff"></path><path fill-rule="evenodd" d="m210.48819 302.3495l0 0c0 -10.871979 8.813461 -19.685455 19.685425 -19.685455l230.14096 0c5.220886 0 10.227966 2.0740051 13.919708 5.765747c3.6917114 3.691742 5.7657166 8.6987915 5.7657166 13.919708l0 78.73935c0 10.871979 -8.813477 19.685455 -19.685425 19.685455l-230.14096 0c-10.8719635 0 -19.685425 -8.813477 -19.685425 -19.685455z" fill="#434343"></path><path fill-rule="evenodd" d="m220.0 320.71127l193.32285 0l0 42.015747l-193.32285 0z" fill-opacity="0.0" fill="#000000"></path><path fill-rule="nonzero" d="m234.85938 347.8188q-1.0625 0 -1.96875 -0.28125q-0.90625 -0.28125 -1.640625 -0.84375q-0.734375 -0.578125 -1.3125 -1.40625l1.375 -1.59375q0.921875 1.3125 1.75 1.8125q0.84375 0.5 2.0 0.5q0.703125 0 1.28125 -0.21875q0.578125 -0.234375 0.90625 -0.625q0.34375 -0.390625 0.34375 -0.890625q0 -0.328125 -0.109375 -0.625q-0.109375 -0.3125 -0.34375 -0.546875q-0.234375 -0.25 -0.59375 -0.453125q-0.359375 -0.203125 -0.84375 -0.359375q-0.484375 -0.15625 -1.125 -0.265625q-1.0 -0.21875 -1.75 -0.546875q-0.75 -0.34375 -1.25 -0.84375q-0.5 -0.5 -0.75 -1.140625q-0.25 -0.640625 -0.25 -1.453125q0 -0.78125 0.34375 -1.453125q0.359375 -0.671875 0.953125 -1.15625q0.609375 -0.5 1.421875 -0.765625q0.828125 -0.28125 1.78125 -0.28125q1.015625 0 1.84375 0.265625q0.84375 0.265625 1.5 0.78125q0.65625 0.5 1.078125 1.25l-1.421875 1.40625q-0.359375 -0.625 -0.828125 -1.03125q-0.46875 -0.421875 -1.03125 -0.640625q-0.5625 -0.21875 -1.1875 -0.21875q-0.734375 0 -1.28125 0.234375q-0.53125 0.21875 -0.84375 0.625q-0.3125 0.390625 -0.3125 0.9375q0 0.390625 0.15625 0.71875q0.15625 0.328125 0.453125 0.578125q0.3125 0.25 0.828125 0.453125q0.53125 0.1875 1.25 0.328125q1.03125 0.234375 1.828125 0.578125q0.8125 0.34375 1.359375 0.8125q0.5625 0.46875 0.84375 1.046875q0.296875 0.578125 0.296875 1.25q0 1.25 -0.578125 2.171875q-0.578125 0.90625 -1.640625 1.40625q-1.0625 0.484375 -2.53125 0.484375zm11.688385 0q-1.5 0 -2.671875 -0.640625q-1.15625 -0.640625 -1.828125 -1.765625q-0.65625 -1.125 -0.65625 -2.578125q0 -1.15625 0.375 -2.109375q0.375 -0.953125 1.03125 -1.640625q0.65625 -0.703125 1.578125 -1.078125q0.9375 -0.390625 2.015625 -0.390625q0.953125 0 1.765625 0.359375q0.828125 0.359375 1.421875 1.0q0.609375 0.640625 0.9375 1.515625q0.328125 0.859375 0.3125 1.875l-0.015625 0.828125l-8.0 0l-0.4375 -1.53125l6.765625 0l-0.265625 0.3125l0 -0.4375q-0.0625 -0.625 -0.421875 -1.109375q-0.34375 -0.484375 -0.890625 -0.765625q-0.546875 -0.28125 -1.171875 -0.28125q-1.015625 0 -1.703125 0.390625q-0.6875 0.375 -1.046875 1.125q-0.34375 0.734375 -0.34375 1.8125q0 1.015625 0.421875 1.78125q0.421875 0.75 1.203125 1.171875q0.796875 0.40625 1.8125 0.40625q0.734375 0 1.359375 -0.234375q0.625 -0.25 1.359375 -0.890625l0.96875 1.359375q-0.453125 0.453125 -1.09375 0.796875q-0.640625 0.328125 -1.359375 0.53125q-0.71875 0.1875 -1.421875 0.1875zm10.135712 0q-1.2031403 0 -2.2031403 -0.671875q-1.0 -0.671875 -1.609375 -1.828125q-0.59375 -1.15625 -0.59375 -2.609375q0 -1.484375 0.609375 -2.625q0.609375 -1.140625 1.640625 -1.796875q1.046875 -0.65625 2.3281403 -0.65625q0.765625 0 1.390625 0.234375q0.640625 0.21875 1.109375 0.625q0.484375 0.390625 0.78125 0.921875q0.3125 0.515625 0.390625 1.109375l-0.421875 -0.140625l0 -2.546875l1.9375 0l0 9.796875l-1.9375 0l0 -2.328125l0.4375 -0.140625q-0.109375 0.515625 -0.453125 1.0q-0.34375 0.46875 -0.875 0.84375q-0.53125 0.359375 -1.171875 0.59375q-0.640625 0.21875 -1.359375 0.21875zm0.5 -1.765625q0.890625 0 1.546875 -0.421875q0.671875 -0.4375 1.046875 -1.1875q0.390625 -0.765625 0.390625 -1.734375q0 -0.953125 -0.390625 -1.703125q-0.375 -0.75 -1.046875 -1.171875q-0.65625 -0.4375 -1.546875 -0.4375q-0.859375 0 -1.5156403 0.4375q-0.65625 0.421875 -1.046875 1.171875q-0.375 0.75 -0.375 1.703125q0 0.96875 0.375 1.734375q0.390625 0.75 1.046875 1.1875q0.65626526 0.421875 1.5156403 0.421875zm7.543762 1.578125l0 -9.796875l1.9375 0l0 3.078125l-0.1875 -0.75q0.203125 -0.703125 0.703125 -1.28125q0.5 -0.578125 1.140625 -0.90625q0.640625 -0.34375 1.328125 -0.34375q0.3125 0 0.59375 0.0625q0.296875 0.046875 0.46875 0.125l-0.5 2.09375q-0.21875 -0.09375 -0.5 -0.15625q-0.265625 -0.078125 -0.53125 -0.078125q-0.5 0 -0.953125 0.203125q-0.453125 0.1875 -0.8125 0.546875q-0.34375 0.34375 -0.546875 0.796875q-0.203125 0.453125 -0.203125 1.0l0 5.40625l-1.9375 0zm11.264038 0.1875q-1.359375 0 -2.4375 -0.671875q-1.0625 -0.671875 -1.6875 -1.828125q-0.625 -1.15625 -0.625 -2.59375q0 -1.4375 0.625 -2.59375q0.625 -1.15625 1.6875 -1.828125q1.078125 -0.671875 2.4375 -0.671875q1.3125 0 2.375 0.53125q1.078125 0.53125 1.640625 1.453125l-1.0625 1.296875q-0.296875 -0.421875 -0.765625 -0.78125q-0.46875 -0.359375 -1.0 -0.5625q-0.515625 -0.203125 -1.0 -0.203125q-0.890625 0 -1.59375 0.4375q-0.703125 0.4375 -1.109375 1.203125q-0.40625 0.765625 -0.40625 1.71875q0 0.953125 0.421875 1.71875q0.4375 0.75 1.140625 1.203125q0.703125 0.4375 1.5625 0.4375q0.515625 0 0.984375 -0.171875q0.46875 -0.171875 0.921875 -0.5q0.453125 -0.34375 0.84375 -0.828125l1.0625 1.3125q-0.59375 0.84375 -1.703125 1.390625q-1.109375 0.53125 -2.3125 0.53125zm5.8248596 -0.1875l0 -13.8125l1.921875 0l0 6.03125l-0.34375 0.21875q0.1875 -0.640625 0.734375 -1.1875q0.546875 -0.5625 1.28125 -0.90625q0.75 -0.34375 1.53125 -0.34375q1.125 0 1.859375 0.4375q0.75 0.4375 1.125 1.34375q0.375 0.890625 0.375 2.25l0 5.96875l-1.921875 0l0 -5.84375q0 -0.828125 -0.21875 -1.375q-0.21875 -0.5625 -0.6875 -0.8125q-0.46875 -0.25 -1.15625 -0.21875q-0.5625 0 -1.03125 0.1875q-0.46875 0.171875 -0.8125 0.5q-0.34375 0.3125 -0.546875 0.734375q-0.1875 0.40625 -0.1875 0.890625l0 5.9375l-0.953125 0q-0.234375 0 -0.484375 0q-0.25 0 -0.484375 0zm11.412964 0l0 -9.796875l1.921875 0l0 9.796875l-1.921875 0zm0.9375 -11.953125q-0.609375 0 -0.953125 -0.3125q-0.328125 -0.328125 -0.328125 -0.90625q0 -0.546875 0.34375 -0.875q0.34375 -0.34375 0.9375 -0.34375q0.609375 0 0.9375 0.328125q0.34375 0.3125 0.34375 0.890625q0 0.546875 -0.34375 0.890625q-0.34375 0.328125 -0.9375 0.328125zm3.936432 11.953125l0 -9.796875l1.921875 0l0 2.015625l-0.34375 0.21875q0.1875 -0.640625 0.734375 -1.1875q0.546875 -0.5625 1.28125 -0.90625q0.75 -0.34375 1.53125 -0.34375q1.125 0 1.859375 0.4375q0.75 0.4375 1.125 1.34375q0.375 0.890625 0.375 2.25l0 5.96875l-1.921875 0l0 -5.84375q0 -0.828125 -0.21875 -1.375q-0.21875 -0.5625 -0.6875 -0.8125q-0.46875 -0.25 -1.15625 -0.21875q-0.5625 0 -1.03125 0.1875q-0.46875 0.171875 -0.8125 0.5q-0.34375 0.3125 -0.546875 0.734375q-0.1875 0.40625 -0.1875 0.890625l0 5.9375l-0.953125 0q-0.234375 0 -0.484375 0q-0.25 0 -0.484375 0zm15.491089 4.296875q-1.046875 0 -2.09375 -0.328125q-1.03125 -0.328125 -1.65625 -0.859375l0.703125 -1.484375q0.375 0.28125 0.875 0.484375q0.5 0.21875 1.0625 0.34375q0.5625 0.125 1.109375 0.125q1.015625 0 1.703125 -0.34375q0.703125 -0.328125 1.046875 -0.984375q0.359375 -0.65625 0.359375 -1.625l0 -1.875l0.203125 0.125q-0.09375 0.578125 -0.609375 1.109375q-0.515625 0.53125 -1.28125 0.875q-0.75 0.328125 -1.5625 0.328125q-1.390625 0 -2.484375 -0.65625q-1.09375 -0.671875 -1.734375 -1.8125q-0.625 -1.15625 -0.625 -2.625q0 -1.46875 0.625 -2.609375q0.625 -1.15625 1.703125 -1.8125q1.09375 -0.671875 2.46875 -0.671875q0.546875 0 1.0625 0.140625q0.53125 0.140625 0.984375 0.390625q0.453125 0.25 0.796875 0.546875q0.359375 0.296875 0.578125 0.640625q0.234375 0.328125 0.28125 0.625l-0.40625 0.15625l0 -2.296875l1.921875 0l0 9.203125q0 1.171875 -0.34375 2.078125q-0.34375 0.90625 -1.0 1.53125q-0.65625 0.625 -1.59375 0.953125q-0.921875 0.328125 -2.09375 0.328125zm0.0625 -5.875q0.921875 0 1.625 -0.421875q0.71875 -0.4375 1.109375 -1.1875q0.390625 -0.75 0.390625 -1.71875q0 -0.96875 -0.40625 -1.71875q-0.40625 -0.765625 -1.109375 -1.1875q-0.6875 -0.4375 -1.609375 -0.4375q-0.890625 0 -1.59375 0.4375q-0.703125 0.4375 -1.109375 1.203125q-0.390625 0.75 -0.390625 1.703125q0 0.953125 0.390625 1.71875q0.40625 0.75 1.109375 1.1875q0.703125 0.421875 1.59375 0.421875zm8.436035 1.78125q-0.609375 0 -0.953125 -0.359375q-0.328125 -0.359375 -0.328125 -1.03125q0 -0.625 0.34375 -1.015625q0.359375 -0.390625 0.9375 -0.390625q0.625 0 0.953125 0.375q0.34375 0.359375 0.34375 1.03125q0 0.609375 -0.359375 1.0q-0.359375 0.390625 -0.9375 0.390625zm3.5 0q-0.609375 0 -0.953125 -0.359375q-0.328125 -0.359375 -0.328125 -1.03125q0 -0.625 0.34375 -1.015625q0.359375 -0.390625 0.9375 -0.390625q0.625 0 0.953125 0.375q0.34375 0.359375 0.34375 1.03125q0 0.609375 -0.359375 1.0q-0.359375 0.390625 -0.9375 0.390625zm3.53125 0q-0.609375 0 -0.953125 -0.359375q-0.328125 -0.359375 -0.328125 -1.03125q0 -0.625 0.34375 -1.015625q0.359375 -0.390625 0.9375 -0.390625q0.625 0 0.953125 0.375q0.34375 0.359375 0.34375 1.03125q0 0.609375 -0.359375 1.0q-0.359375 0.390625 -0.9375 0.390625z" fill="#ffffff"></path><path fill-rule="evenodd" d="m237.9029 133.28346l193.32281 0l0 42.015747l-193.32281 0z" fill-opacity="0.0" fill="#000000"></path><path fill-rule="nonzero" d="m248.73102 160.20346l0 -13.0625l2.015625 0l0 11.125l6.125 0l0 1.9375l-8.140625 0zm14.723633 0.1875q-1.4375 0 -2.578125 -0.65625q-1.125 -0.671875 -1.78125 -1.8125q-0.640625 -1.15625 -0.640625 -2.625q0 -1.46875 0.640625 -2.609375q0.65625 -1.15625 1.78125 -1.8125q1.140625 -0.671875 2.578125 -0.671875q1.40625 0 2.53125 0.671875q1.140625 0.65625 1.796875 1.8125q0.65625 1.140625 0.65625 2.609375q0 1.46875 -0.65625 2.625q-0.65625 1.140625 -1.796875 1.8125q-1.125 0.65625 -2.53125 0.65625zm0 -1.75q0.875 0 1.5625 -0.4375q0.6875 -0.4375 1.078125 -1.1875q0.390625 -0.765625 0.375 -1.71875q0.015625 -0.96875 -0.375 -1.71875q-0.390625 -0.765625 -1.078125 -1.1875q-0.6875 -0.4375 -1.5625 -0.4375q-0.875 0 -1.578125 0.4375q-0.703125 0.4375 -1.09375 1.203125q-0.390625 0.75 -0.375 1.703125q-0.015625 0.953125 0.375 1.71875q0.390625 0.75 1.09375 1.1875q0.703125 0.4375 1.578125 0.4375zm10.832977 1.75q-1.203125 0 -2.203125 -0.671875q-1.0 -0.671875 -1.609375 -1.828125q-0.59375 -1.15625 -0.59375 -2.609375q0 -1.484375 0.609375 -2.625q0.609375 -1.140625 1.640625 -1.796875q1.046875 -0.65625 2.328125 -0.65625q0.765625 0 1.390625 0.234375q0.640625 0.21875 1.109375 0.625q0.484375 0.390625 0.78125 0.921875q0.3125 0.515625 0.390625 1.109375l-0.421875 -0.140625l0 -2.546875l1.9375 0l0 9.796875l-1.9375 0l0 -2.328125l0.4375 -0.140625q-0.109375 0.515625 -0.453125 1.0q-0.34375 0.46875 -0.875 0.84375q-0.53125 0.359375 -1.171875 0.59375q-0.640625 0.21875 -1.359375 0.21875zm0.5 -1.765625q0.890625 0 1.546875 -0.421875q0.671875 -0.4375 1.046875 -1.1875q0.390625 -0.765625 0.390625 -1.734375q0 -0.953125 -0.390625 -1.703125q-0.375 -0.75 -1.046875 -1.171875q-0.65625 -0.4375 -1.546875 -0.4375q-0.859375 0 -1.515625 0.4375q-0.65625 0.421875 -1.046875 1.171875q-0.375 0.75 -0.375 1.703125q0 0.96875 0.375 1.734375q0.390625 0.75 1.046875 1.1875q0.65625 0.421875 1.515625 0.421875zm11.621887 1.765625q-1.34375 0 -2.390625 -0.65625q-1.046875 -0.671875 -1.671875 -1.8125q-0.609375 -1.15625 -0.609375 -2.625q0 -1.46875 0.59375 -2.609375q0.609375 -1.15625 1.65625 -1.8125q1.046875 -0.671875 2.375 -0.671875q0.71875 0 1.40625 0.234375q0.6875 0.234375 1.21875 0.640625q0.546875 0.390625 0.84375 0.875q0.3125 0.46875 0.3125 0.953125l-0.5625 0.046875l0 -6.5625l1.921875 0l0 13.8125l-1.921875 0l0 -2.328125l0.375 0q0 0.4375 -0.296875 0.890625q-0.296875 0.4375 -0.796875 0.8125q-0.484375 0.359375 -1.140625 0.59375q-0.640625 0.21875 -1.3125 0.21875zm0.265625 -1.65625q0.875 0 1.546875 -0.453125q0.671875 -0.453125 1.046875 -1.21875q0.390625 -0.78125 0.390625 -1.765625q0 -0.984375 -0.390625 -1.75q-0.375 -0.78125 -1.046875 -1.234375q-0.671875 -0.453125 -1.546875 -0.453125q-0.875 0 -1.546875 0.453125q-0.671875 0.453125 -1.0625 1.234375q-0.375 0.765625 -0.375 1.75q0 0.984375 0.375 1.765625q0.390625 0.765625 1.0625 1.21875q0.671875 0.453125 1.546875 0.453125zm7.796814 1.46875l0 -9.796875l1.921875 0l0 9.796875l-1.921875 0zm0.9375 -11.953125q-0.609375 0 -0.953125 -0.3125q-0.328125 -0.328125 -0.328125 -0.90625q0 -0.546875 0.34375 -0.875q0.34375 -0.34375 0.9375 -0.34375q0.609375 0 0.9375 0.328125q0.34375 0.3125 0.34375 0.890625q0 0.546875 -0.34375 0.890625q-0.34375 0.328125 -0.9375 0.328125zm3.936432 11.953125l0 -9.796875l1.921875 0l0 2.015625l-0.34375 0.21875q0.1875 -0.640625 0.734375 -1.1875q0.546875 -0.5625 1.28125 -0.90625q0.75 -0.34375 1.53125 -0.34375q1.125 0 1.859375 0.4375q0.75 0.4375 1.125 1.34375q0.375 0.890625 0.375 2.25l0 5.96875l-1.921875 0l0 -5.84375q0 -0.828125 -0.21875 -1.375q-0.21875 -0.5625 -0.6875 -0.8125q-0.46875 -0.25 -1.15625 -0.21875q-0.5625 0 -1.03125 0.1875q-0.46875 0.171875 -0.8125 0.5q-0.34375 0.3125 -0.546875 0.734375q-0.1875 0.40625 -0.1875 0.890625l0 5.9375l-0.953125 0q-0.234375 0 -0.484375 0q-0.25 0 -0.484375 0zm15.491089 4.296875q-1.046875 0 -2.09375 -0.328125q-1.03125 -0.328125 -1.65625 -0.859375l0.703125 -1.484375q0.375 0.28125 0.875 0.484375q0.5 0.21875 1.0625 0.34375q0.5625 0.125 1.109375 0.125q1.015625 0 1.703125 -0.34375q0.703125 -0.328125 1.046875 -0.984375q0.359375 -0.65625 0.359375 -1.625l0 -1.875l0.203125 0.125q-0.09375 0.578125 -0.609375 1.109375q-0.515625 0.53125 -1.28125 0.875q-0.75 0.328125 -1.5625 0.328125q-1.390625 0 -2.484375 -0.65625q-1.09375 -0.671875 -1.734375 -1.8125q-0.625 -1.15625 -0.625 -2.625q0 -1.46875 0.625 -2.609375q0.625 -1.15625 1.703125 -1.8125q1.09375 -0.671875 2.46875 -0.671875q0.546875 0 1.0625 0.140625q0.53125 0.140625 0.984375 0.390625q0.453125 0.25 0.796875 0.546875q0.359375 0.296875 0.578125 0.640625q0.234375 0.328125 0.28125 0.625l-0.40625 0.15625l0 -2.296875l1.921875 0l0 9.203125q0 1.171875 -0.34375 2.078125q-0.34375 0.90625 -1.0 1.53125q-0.65625 0.625 -1.59375 0.953125q-0.921875 0.328125 -2.09375 0.328125zm0.0625 -5.875q0.921875 0 1.625 -0.421875q0.71875 -0.4375 1.109375 -1.1875q0.390625 -0.75 0.390625 -1.71875q0 -0.96875 -0.40625 -1.71875q-0.40625 -0.765625 -1.109375 -1.1875q-0.6875 -0.4375 -1.609375 -0.4375q-0.890625 0 -1.59375 0.4375q-0.703125 0.4375 -1.109375 1.203125q-0.390625 0.75 -0.390625 1.703125q0 0.953125 0.390625 1.71875q0.40625 0.75 1.109375 1.1875q0.703125 0.421875 1.59375 0.421875zm18.44104 1.6875q-1.515625 0 -2.71875 -0.65625q-1.1875 -0.671875 -1.875 -1.828125q-0.671875 -1.171875 -0.671875 -2.640625l0 -8.0625l2.015625 0l0 7.890625q0 0.953125 0.4375 1.71875q0.453125 0.75 1.1875 1.203125q0.75 0.4375 1.625 0.4375q0.921875 0 1.671875 -0.4375q0.765625 -0.453125 1.21875 -1.203125q0.453125 -0.765625 0.453125 -1.71875l0 -7.890625l1.90625 0l0 8.0625q0 1.46875 -0.6875 2.640625q-0.671875 1.15625 -1.875 1.828125q-1.1875 0.65625 -2.6875 0.65625zm8.243134 -0.109375l0 -1.859375l2.109375 0l0 -9.328125l-2.109375 0l0 -1.875l6.234375 0l0 1.875l-2.109375 0l0 9.328125l2.109375 0l0 1.859375l-6.234375 0zm9.698944 0.203125q-0.609375 0 -0.953125 -0.359375q-0.328125 -0.359375 -0.328125 -1.03125q0 -0.625 0.34375 -1.015625q0.359375 -0.390625 0.9375 -0.390625q0.625 0 0.953125 0.375q0.34375 0.359375 0.34375 1.03125q0 0.609375 -0.359375 1.0q-0.359375 0.390625 -0.9375 0.390625zm3.5 0q-0.609375 0 -0.953125 -0.359375q-0.328125 -0.359375 -0.328125 -1.03125q0 -0.625 0.34375 -1.015625q0.359375 -0.390625 0.9375 -0.390625q0.625 0 0.953125 0.375q0.34375 0.359375 0.34375 1.03125q0 0.609375 -0.359375 1.0q-0.359375 0.390625 -0.9375 0.390625zm3.53125 0q-0.609375 0 -0.953125 -0.359375q-0.328125 -0.359375 -0.328125 -1.03125q0 -0.625 0.34375 -1.015625q0.359375 -0.390625 0.9375 -0.390625q0.625 0 0.953125 0.375q0.34375 0.359375 0.34375 1.03125q0 0.609375 -0.359375 1.0q-0.359375 0.390625 -0.9375 0.390625z" fill="#000000"></path></g></svg>