<svg version="1.1" xmlns="http://www.w3.org/2000/svg" xmlns:xlink="http://www.w3.org/1999/xlink" width="41.21655" height="61.49884" viewBox="0,0,41.21655,61.49884"><g transform="translate(-219.39173,-149.25058)"><g data-paper-data="{&quot;isPaintingLayer&quot;:true}" fill="#ffffff" fill-rule="nonzero" stroke="none" stroke-width="1" stroke-linecap="square" stroke-linejoin="miter" stroke-miterlimit="10" stroke-dasharray="" stroke-dashoffset="0" style="mix-blend-mode: normal"><path d="M238.29773,210.74942l-0.28975,-0.86924l17.60214,-36.65302l0.5795,4.1289c-1.11071,2.02823 -2.34213,3.815 -3.69427,5.36033c-1.30386,1.49702 -2.72845,2.77675 -4.27377,3.83915c-1.54532,1.01411 -3.16306,1.81092 -4.85327,2.39041c-1.6419,0.53121 -3.35625,0.7968 -5.14301,0.7968c-3.47697,0 -6.64003,-0.89339 -9.48922,-2.68016c-2.84919,-1.78677 -5.11886,-4.15305 -6.80906,-7.09881c-1.6902,-2.94576 -2.53529,-6.20541 -2.53529,-9.77897c0,-3.95987 0.91752,-7.53342 2.7526,-10.72065c1.83507,-3.18722 4.3462,-5.67422 7.53342,-7.46099c3.18722,-1.83507 6.71247,-2.7526 10.57578,-2.7526c2.84919,0 5.5052,0.53121 7.96805,1.59361c2.46285,1.01411 4.6118,2.4387 6.44688,4.27377c1.88336,1.83507 3.33209,3.98402 4.3462,6.44688c1.0624,2.46285 1.59361,5.09473 1.59361,7.89561c0,1.6902 -0.21731,3.52525 -0.65193,5.5052c-0.43462,1.97995 -1.0624,4.08061 -1.88336,6.302c-0.77265,2.22138 -1.6902,4.56352 -2.7526,7.02637c-1.01411,2.41457 -2.12482,4.87742 -3.33209,7.38856l-7.17124,15.06686zM239.67403,183.36831c2.60772,0 4.94986,-0.62777 7.02637,-1.88336c2.07652,-1.25558 3.71843,-2.92163 4.9257,-4.99814c1.20727,-2.07652 1.81092,-4.37036 1.81092,-6.88149c0,-2.60772 -0.60364,-4.97399 -1.81092,-7.09881c-1.15899,-2.12482 -2.77675,-3.79086 -4.85327,-4.99814c-2.07652,-1.25558 -4.39449,-1.88336 -6.95394,-1.88336c-2.55944,0 -4.85327,0.62777 -6.88149,1.88336c-2.02823,1.20727 -3.62184,2.84919 -4.78083,4.9257c-1.15899,2.07652 -1.73848,4.41865 -1.73848,7.02637c0,2.55944 0.5795,4.87742 1.73848,6.95394c1.15899,2.07652 2.7526,3.76672 4.78083,5.07058c2.02823,1.25558 4.27377,1.88336 6.73662,1.88336z"/></g></g></svg>