<svg version="1.1" xmlns="http://www.w3.org/2000/svg" xmlns:xlink="http://www.w3.org/1999/xlink" width="48.26955" height="72.02257" viewBox="0,0,48.26955,72.02257"><g transform="translate(-215.86523,-143.98871)"><g data-paper-data="{&quot;isPaintingLayer&quot;:true}" fill="#ffffff" fill-rule="nonzero" stroke="none" stroke-width="1" stroke-linecap="square" stroke-linejoin="miter" stroke-miterlimit="10" stroke-dasharray="" stroke-dashoffset="0" style="mix-blend-mode: normal"><path d="M238.00644,216.01129l-0.33933,-1.01799l20.61423,-42.92511l0.67866,4.83544c-1.30077,2.3753 -2.74292,4.46782 -4.32644,6.27759c-1.52698,1.75319 -3.19534,3.25191 -5.0051,4.49611c-1.80976,1.18765 -3.70433,2.12081 -5.68376,2.79946c-1.92286,0.62211 -3.93057,0.93315 -6.02309,0.93315c-4.07195,0 -7.77628,-1.04627 -11.11302,-3.13879c-3.33674,-2.09252 -5.9948,-4.86372 -7.97423,-8.31356c-1.97943,-3.44984 -2.96913,-7.26729 -2.96913,-11.45235c0,-4.63749 1.07453,-8.82255 3.22363,-12.55517c2.14909,-3.73262 5.08993,-6.6452 8.82255,-8.73772c3.73262,-2.14909 7.86111,-3.22363 12.38551,-3.22363c3.33674,0 6.44725,0.62211 9.33155,1.86631c2.8843,1.18765 5.40098,2.85601 7.55007,5.0051c2.20564,2.14909 3.90228,4.66577 5.08993,7.55007c1.2442,2.8843 1.86631,5.96654 1.86631,9.24671c0,1.97943 -0.2545,4.12849 -0.76349,6.44725c-0.50899,2.31876 -1.2442,4.77889 -2.20564,7.3804c-0.90487,2.60151 -1.97943,5.34443 -3.22363,8.22873c-1.18765,2.82775 -2.48842,5.71205 -3.90228,8.65289l-8.39839,17.64511zM239.61825,183.9447c3.05396,0 5.79688,-0.7352 8.22873,-2.20564c2.43185,-1.47043 4.35473,-3.42158 5.76859,-5.85342c1.41386,-2.43185 2.12081,-5.11822 2.12081,-8.05906c0,-3.05396 -0.70694,-5.82514 -2.12081,-8.31356c-1.35732,-2.48842 -3.25191,-4.43956 -5.68376,-5.85342c-2.43185,-1.47043 -5.14648,-2.20564 -8.1439,-2.20564c-2.99741,0 -5.68376,0.7352 -8.05906,2.20564c-2.3753,1.41386 -4.24161,3.33674 -5.59893,5.76859c-1.35732,2.43185 -2.03597,5.17477 -2.03597,8.22873c0,2.99741 0.67866,5.71205 2.03597,8.1439c1.35732,2.43185 3.22363,4.41128 5.59893,5.93826c2.3753,1.47043 5.0051,2.20564 7.8894,2.20564z"/></g></g></svg>