<svg version="1.1" xmlns="http://www.w3.org/2000/svg" xmlns:xlink="http://www.w3.org/1999/xlink" width="561.33383" height="342.42093" viewBox="0,0,561.33383,342.42093"><g transform="translate(178.15223,65.71391)"><g data-paper-data="{&quot;isPaintingLayer&quot;:true}" stroke="none" stroke-width="1" stroke-linecap="square" stroke-linejoin="miter" stroke-miterlimit="10" stroke-dasharray="" stroke-dashoffset="0" style="mix-blend-mode: normal"><path d="M99.74221,95.24792c0,-6.60253 5.35241,-11.95493 11.95493,-11.95493h256.60572c3.17065,0 6.21144,1.25953 8.45341,3.50151c2.24199,2.24198 3.50152,5.28276 3.50152,8.45341v169.50418c0,6.60253 -5.3524,11.95493 -11.95493,11.95493h-256.60572c-6.60252,0 -11.95493,-5.3524 -11.95493,-11.95493z" fill="#323232" fill-rule="evenodd"/><path d="M-152.38058,-65.71391h218.11023v42.01575h-218.11023z" fill-opacity="0" fill="#000000" fill-rule="evenodd"/><path d="M112.44755,104.24627v-10.26339h4.37054c0.5811,0 1.11719,0.14732 1.60826,0.44196c0.49925,0.28646 0.89621,0.67522 1.19085,1.16629c0.29464,0.49107 0.44196,1.04353 0.44196,1.65737c0,0.56473 -0.14732,1.08854 -0.44196,1.57143c-0.29464,0.4747 -0.6875,0.85528 -1.17857,1.14174c-0.48289,0.28646 -1.02307,0.42969 -1.62054,0.42969h-2.78683v3.85491zM118.54911,104.24627l-2.61496,-4.62835l1.63281,-0.3683l2.89732,5.00893zM114.03126,98.86904h2.93415c0.27827,0 0.5279,-0.06957 0.74888,-0.20871c0.22917,-0.14732 0.40513,-0.34375 0.5279,-0.58929c0.13095,-0.25372 0.19643,-0.532 0.19643,-0.83482c0,-0.34375 -0.08184,-0.64249 -0.24554,-0.89621c-0.1555,-0.26191 -0.37649,-0.46652 -0.66295,-0.61384c-0.28646,-0.14732 -0.61384,-0.22098 -0.98214,-0.22098h-2.51674zM125.5461,104.39359c-0.78571,0 -1.48549,-0.16778 -2.09933,-0.50335c-0.60566,-0.33557 -1.08445,-0.79799 -1.43638,-1.38728c-0.34375,-0.58929 -0.51563,-1.26451 -0.51563,-2.02567c0,-0.60566 0.09821,-1.15811 0.29464,-1.65737c0.19643,-0.49925 0.46652,-0.92894 0.81027,-1.28906c0.34375,-0.3683 0.75707,-0.65067 1.23996,-0.8471c0.49107,-0.20461 1.01897,-0.30692 1.58371,-0.30692c0.49925,0 0.96168,0.09412 1.38728,0.28237c0.43378,0.18825 0.80617,0.45015 1.11719,0.78571c0.3192,0.33557 0.56473,0.73251 0.73661,1.19085c0.17187,0.45015 0.25372,0.94122 0.24554,1.47321l-0.01228,0.65067h-6.28571l-0.34375,-1.20312h5.31585l-0.20871,0.24554v-0.34375c-0.03274,-0.32738 -0.14323,-0.61793 -0.33147,-0.87165c-0.18006,-0.25372 -0.41332,-0.45424 -0.69978,-0.60156c-0.28646,-0.14732 -0.59338,-0.22098 -0.92076,-0.22098c-0.532,0 -0.97805,0.10231 -1.33817,0.30692c-0.36012,0.19643 -0.6343,0.49107 -0.82254,0.88393c-0.18006,0.38467 -0.27009,0.85937 -0.27009,1.42411c0,0.532 0.11049,0.99851 0.33147,1.39955c0.22098,0.39286 0.53608,0.69978 0.94531,0.92076c0.41741,0.2128 0.89211,0.3192 1.42411,0.3192c0.38467,0 0.7407,-0.06138 1.06808,-0.18415c0.32738,-0.13095 0.68341,-0.36421 1.06808,-0.69978l0.76116,1.06808c-0.23735,0.23735 -0.52381,0.44606 -0.85937,0.62612c-0.33557,0.17188 -0.69159,0.31101 -1.06808,0.41741c-0.37649,0.09821 -0.74888,0.14732 -1.11719,0.14732zM133.11701,104.39359c-0.64658,0 -1.22768,-0.11049 -1.7433,-0.33147c-0.51562,-0.22917 -0.94531,-0.56473 -1.28906,-1.0067l1.01897,-0.87165c0.29464,0.33557 0.61384,0.5811 0.95759,0.73661c0.35193,0.14732 0.74888,0.22098 1.19085,0.22098c0.17188,0 0.33147,-0.02046 0.47879,-0.06138c0.1555,-0.04092 0.29055,-0.1064 0.40513,-0.19643c0.11458,-0.09003 0.20052,-0.19643 0.25781,-0.3192c0.05729,-0.12277 0.08594,-0.25781 0.08594,-0.40513c0,-0.25372 -0.09412,-0.45833 -0.28237,-0.61384c-0.09821,-0.06548 -0.25372,-0.13914 -0.46652,-0.22098c-0.20461,-0.08184 -0.4747,-0.16778 -0.81027,-0.25781c-0.56473,-0.14732 -1.02716,-0.31101 -1.38728,-0.49107c-0.36012,-0.18825 -0.63839,-0.40104 -0.83482,-0.63839c-0.14732,-0.18825 -0.25781,-0.38876 -0.33147,-0.60156c-0.06548,-0.22098 -0.09821,-0.46652 -0.09821,-0.73661c0,-0.3192 0.06957,-0.61384 0.20871,-0.88393c0.14732,-0.27009 0.34375,-0.50335 0.58929,-0.69978c0.25372,-0.20461 0.54836,-0.36012 0.88393,-0.46652c0.33557,-0.1064 0.69568,-0.1596 1.08036,-0.1596c0.36012,0 0.71615,0.04911 1.06808,0.14732c0.36012,0.09821 0.69159,0.24144 0.99442,0.42969c0.30283,0.18006 0.55654,0.39695 0.76115,0.65067l-0.85937,0.95759c-0.18825,-0.18825 -0.39286,-0.35193 -0.61384,-0.49107c-0.22098,-0.13914 -0.44606,-0.24554 -0.67522,-0.3192c-0.22098,-0.08184 -0.4215,-0.12277 -0.60156,-0.12277c-0.20461,0 -0.39286,0.02046 -0.56473,0.06138c-0.16369,0.03274 -0.30283,0.09003 -0.41741,0.17187c-0.1064,0.07366 -0.19233,0.17188 -0.25781,0.29464c-0.05729,0.11458 -0.08594,0.24554 -0.08594,0.39286c0.00818,0.12277 0.04092,0.24144 0.09821,0.35603c0.05729,0.11458 0.13504,0.20871 0.23326,0.28237c0.1064,0.08184 0.266,0.16778 0.47879,0.25781c0.2128,0.08184 0.48698,0.16369 0.82254,0.24554c0.48289,0.12277 0.88393,0.26191 1.20313,0.41741c0.3192,0.14732 0.57292,0.3192 0.76116,0.51562c0.19642,0.18825 0.33147,0.40513 0.40513,0.65067c0.08184,0.24554 0.12277,0.51972 0.12277,0.82254c0,0.43378 -0.12686,0.82664 -0.38057,1.17857c-0.24554,0.34375 -0.5811,0.61384 -1.0067,0.81027c-0.41741,0.19643 -0.88393,0.29464 -1.39955,0.29464zM141.15738,104.39359c-0.78571,0 -1.48549,-0.16778 -2.09933,-0.50335c-0.60566,-0.33557 -1.08445,-0.79799 -1.43638,-1.38728c-0.34375,-0.58929 -0.51562,-1.26451 -0.51562,-2.02567c0,-0.60566 0.09821,-1.15811 0.29464,-1.65737c0.19643,-0.49925 0.46652,-0.92894 0.81027,-1.28906c0.34375,-0.3683 0.75707,-0.65067 1.23996,-0.8471c0.49107,-0.20461 1.01897,-0.30692 1.58371,-0.30692c0.49925,0 0.96168,0.09412 1.38728,0.28237c0.43378,0.18825 0.80617,0.45015 1.11719,0.78571c0.3192,0.33557 0.56473,0.73251 0.73661,1.19085c0.17187,0.45015 0.25372,0.94122 0.24554,1.47321l-0.01228,0.65067h-6.28571l-0.34375,-1.20312h5.31585l-0.20871,0.24554v-0.34375c-0.03274,-0.32738 -0.14323,-0.61793 -0.33147,-0.87165c-0.18006,-0.25372 -0.41332,-0.45424 -0.69978,-0.60156c-0.28646,-0.14732 -0.59338,-0.22098 -0.92076,-0.22098c-0.532,0 -0.97805,0.10231 -1.33817,0.30692c-0.36012,0.19643 -0.6343,0.49107 -0.82254,0.88393c-0.18006,0.38467 -0.27009,0.85937 -0.27009,1.42411c0,0.532 0.11049,0.99851 0.33147,1.39955c0.22098,0.39286 0.53609,0.69978 0.94531,0.92076c0.41741,0.2128 0.89211,0.3192 1.42411,0.3192c0.38467,0 0.7407,-0.06138 1.06808,-0.18415c0.32738,-0.13095 0.68341,-0.36421 1.06808,-0.69978l0.76116,1.06808c-0.23735,0.23735 -0.52381,0.44606 -0.85937,0.62612c-0.33557,0.17188 -0.69159,0.31101 -1.06808,0.41741c-0.37649,0.09821 -0.74888,0.14732 -1.11719,0.14732zM147.12003,104.24627v-9.66183h1.51004v9.66183zM145.51177,98.02194v-1.47321h4.89844v1.47321zM156.27626,104.24627v-10.26339h4.17411c0.55655,0 1.0599,0.13914 1.51004,0.41741c0.45833,0.27827 0.82254,0.65885 1.09263,1.14174c0.27827,0.4747 0.41741,1.0067 0.41741,1.59598c0,0.58929 -0.13914,1.12537 -0.41741,1.60826c-0.27009,0.4747 -0.6343,0.85528 -1.09263,1.14174c-0.45015,0.28646 -0.9535,0.42969 -1.51004,0.42969h-2.5904v3.92857zM157.85996,98.79538h2.56585c0.26191,0 0.49925,-0.07366 0.71205,-0.22098c0.22098,-0.1555 0.39695,-0.35603 0.5279,-0.60156c0.13095,-0.25372 0.19643,-0.532 0.19643,-0.83482c0,-0.30283 -0.06548,-0.57701 -0.19643,-0.82254c-0.13095,-0.24554 -0.30692,-0.44196 -0.5279,-0.58929c-0.2128,-0.14732 -0.45015,-0.22098 -0.71205,-0.22098h-2.56585zM168.0012,104.39359c-0.63021,0 -1.20722,-0.17597 -1.73103,-0.5279c-0.52381,-0.35193 -0.94531,-0.83073 -1.26451,-1.43638c-0.31101,-0.60566 -0.46652,-1.28906 -0.46652,-2.05022c0,-0.77753 0.1596,-1.46503 0.47879,-2.0625c0.3192,-0.59747 0.74888,-1.06808 1.28906,-1.41183c0.54836,-0.34375 1.15811,-0.51563 1.82924,-0.51563c0.40104,0 0.76525,0.06138 1.09263,0.18415c0.33557,0.11458 0.62612,0.27827 0.87165,0.49107c0.25372,0.20461 0.45833,0.44606 0.61384,0.72433c0.16369,0.27009 0.266,0.56064 0.30692,0.87165l-0.33147,-0.11049v-2.00112h1.52232v7.69754h-1.52232v-1.82924l0.34375,-0.11049c-0.05729,0.27009 -0.17597,0.532 -0.35603,0.78571c-0.18006,0.24554 -0.40923,0.46652 -0.6875,0.66295c-0.27827,0.18825 -0.58519,0.34375 -0.92076,0.46652c-0.33557,0.11458 -0.69159,0.17187 -1.06808,0.17187zM168.39405,103.00631c0.46652,0 0.87165,-0.11049 1.2154,-0.33147c0.35193,-0.22917 0.62612,-0.54018 0.82254,-0.93304c0.20461,-0.40104 0.30692,-0.85528 0.30692,-1.36272c0,-0.49925 -0.10231,-0.94531 -0.30692,-1.33817c-0.19643,-0.39286 -0.47061,-0.69978 -0.82254,-0.92076c-0.34375,-0.22917 -0.74888,-0.34375 -1.2154,-0.34375c-0.45015,0 -0.8471,0.11458 -1.19085,0.34375c-0.34375,0.22098 -0.61793,0.5279 -0.82254,0.92076c-0.19643,0.39286 -0.29464,0.83892 -0.29464,1.33817c0,0.50744 0.09821,0.96168 0.29464,1.36272c0.20461,0.39286 0.47879,0.70387 0.82254,0.93304c0.34375,0.22098 0.7407,0.33147 1.19085,0.33147zM176.88716,104.39359c-0.64658,0 -1.22768,-0.11049 -1.7433,-0.33147c-0.51562,-0.22917 -0.94531,-0.56473 -1.28906,-1.0067l1.01897,-0.87165c0.29464,0.33557 0.61384,0.5811 0.95759,0.73661c0.35193,0.14732 0.74888,0.22098 1.19085,0.22098c0.17187,0 0.33147,-0.02046 0.47879,-0.06138c0.1555,-0.04092 0.29055,-0.1064 0.40513,-0.19643c0.11458,-0.09003 0.20052,-0.19643 0.25781,-0.3192c0.05729,-0.12277 0.08594,-0.25781 0.08594,-0.40513c0,-0.25372 -0.09412,-0.45833 -0.28237,-0.61384c-0.09821,-0.06548 -0.25372,-0.13914 -0.46652,-0.22098c-0.20461,-0.08184 -0.4747,-0.16778 -0.81027,-0.25781c-0.56473,-0.14732 -1.02716,-0.31101 -1.38728,-0.49107c-0.36012,-0.18825 -0.63839,-0.40104 -0.83482,-0.63839c-0.14732,-0.18825 -0.25781,-0.38876 -0.33147,-0.60156c-0.06548,-0.22098 -0.09821,-0.46652 -0.09821,-0.73661c0,-0.3192 0.06957,-0.61384 0.20871,-0.88393c0.14732,-0.27009 0.34375,-0.50335 0.58929,-0.69978c0.25372,-0.20461 0.54836,-0.36012 0.88393,-0.46652c0.33557,-0.1064 0.69568,-0.1596 1.08036,-0.1596c0.36012,0 0.71615,0.04911 1.06808,0.14732c0.36012,0.09821 0.69159,0.24144 0.99442,0.42969c0.30283,0.18006 0.55655,0.39695 0.76116,0.65067l-0.85938,0.95759c-0.18825,-0.18825 -0.39286,-0.35193 -0.61384,-0.49107c-0.22098,-0.13914 -0.44606,-0.24554 -0.67522,-0.3192c-0.22098,-0.08184 -0.4215,-0.12277 -0.60156,-0.12277c-0.20461,0 -0.39286,0.02046 -0.56473,0.06138c-0.16369,0.03274 -0.30283,0.09003 -0.41741,0.17187c-0.1064,0.07366 -0.19234,0.17188 -0.25781,0.29464c-0.05729,0.11458 -0.08594,0.24554 -0.08594,0.39286c0.00818,0.12277 0.04092,0.24144 0.09821,0.35603c0.05729,0.11458 0.13504,0.20871 0.23326,0.28237c0.1064,0.08184 0.266,0.16778 0.47879,0.25781c0.2128,0.08184 0.48698,0.16369 0.82254,0.24554c0.48289,0.12277 0.88393,0.26191 1.20312,0.41741c0.3192,0.14732 0.57292,0.3192 0.76116,0.51562c0.19643,0.18825 0.33147,0.40513 0.40513,0.65067c0.08184,0.24554 0.12277,0.51972 0.12277,0.82254c0,0.43378 -0.12686,0.82664 -0.38058,1.17857c-0.24554,0.34375 -0.5811,0.61384 -1.0067,0.81027c-0.41741,0.19643 -0.88393,0.29464 -1.39955,0.29464zM183.90857,104.39359c-0.64658,0 -1.22768,-0.11049 -1.7433,-0.33147c-0.51563,-0.22917 -0.94531,-0.56473 -1.28906,-1.0067l1.01897,-0.87165c0.29464,0.33557 0.61384,0.5811 0.95759,0.73661c0.35193,0.14732 0.74888,0.22098 1.19085,0.22098c0.17188,0 0.33147,-0.02046 0.47879,-0.06138c0.1555,-0.04092 0.29055,-0.1064 0.40513,-0.19643c0.11458,-0.09003 0.20052,-0.19643 0.25781,-0.3192c0.05729,-0.12277 0.08594,-0.25781 0.08594,-0.40513c0,-0.25372 -0.09412,-0.45833 -0.28237,-0.61384c-0.09821,-0.06548 -0.25372,-0.13914 -0.46652,-0.22098c-0.20461,-0.08184 -0.4747,-0.16778 -0.81027,-0.25781c-0.56473,-0.14732 -1.02716,-0.31101 -1.38728,-0.49107c-0.36012,-0.18825 -0.63839,-0.40104 -0.83482,-0.63839c-0.14732,-0.18825 -0.25781,-0.38876 -0.33147,-0.60156c-0.06548,-0.22098 -0.09821,-0.46652 -0.09821,-0.73661c0,-0.3192 0.06957,-0.61384 0.20871,-0.88393c0.14732,-0.27009 0.34375,-0.50335 0.58929,-0.69978c0.25372,-0.20461 0.54836,-0.36012 0.88393,-0.46652c0.33557,-0.1064 0.69568,-0.1596 1.08036,-0.1596c0.36012,0 0.71615,0.04911 1.06808,0.14732c0.36012,0.09821 0.69159,0.24144 0.99442,0.42969c0.30283,0.18006 0.55655,0.39695 0.76116,0.65067l-0.85937,0.95759c-0.18825,-0.18825 -0.39286,-0.35193 -0.61384,-0.49107c-0.22098,-0.13914 -0.44606,-0.24554 -0.67522,-0.3192c-0.22098,-0.08184 -0.4215,-0.12277 -0.60156,-0.12277c-0.20461,0 -0.39286,0.02046 -0.56473,0.06138c-0.16369,0.03274 -0.30283,0.09003 -0.41741,0.17187c-0.1064,0.07366 -0.19233,0.17188 -0.25781,0.29464c-0.05729,0.11458 -0.08594,0.24554 -0.08594,0.39286c0.00818,0.12277 0.04092,0.24144 0.09821,0.35603c0.05729,0.11458 0.13504,0.20871 0.23326,0.28237c0.1064,0.08184 0.266,0.16778 0.47879,0.25781c0.2128,0.08184 0.48698,0.16369 0.82254,0.24554c0.48289,0.12277 0.88393,0.26191 1.20313,0.41741c0.3192,0.14732 0.57292,0.3192 0.76116,0.51562c0.19643,0.18825 0.33147,0.40513 0.40513,0.65067c0.08184,0.24554 0.12277,0.51972 0.12277,0.82254c0,0.43378 -0.12686,0.82664 -0.38058,1.17857c-0.24554,0.34375 -0.5811,0.61384 -1.0067,0.81027c-0.41741,0.19643 -0.88393,0.29464 -1.39955,0.29464zM190.25475,104.24627l-2.62723,-7.69754l1.52232,-0.01228l1.87835,5.75781l-0.33147,-0.02455l2.03795,-4.50558h0.90848l2.05022,4.51786l-0.39286,0.02455l1.89063,-5.75781h1.52232l-2.5904,7.69754h-1.04353l-2.14844,-4.89844l0.34375,0.04911l-1.98884,4.84933zM203.33297,104.39359c-0.75298,0 -1.4282,-0.17187 -2.02567,-0.51562c-0.58929,-0.35193 -1.0558,-0.82664 -1.39955,-1.42411c-0.33557,-0.60566 -0.50335,-1.29316 -0.50335,-2.0625c0,-0.76934 0.16778,-1.45275 0.50335,-2.05022c0.34375,-0.60566 0.81027,-1.08036 1.39955,-1.42411c0.59747,-0.35193 1.27269,-0.5279 2.02567,-0.5279c0.73661,0 1.39955,0.17597 1.98884,0.5279c0.59747,0.34375 1.06808,0.81845 1.41183,1.42411c0.34375,0.59747 0.51562,1.28088 0.51562,2.05022c0,0.76934 -0.17187,1.45684 -0.51562,2.0625c-0.34375,0.59747 -0.81436,1.07217 -1.41183,1.42411c-0.58929,0.34375 -1.25223,0.51563 -1.98884,0.51563zM203.33297,103.01859c0.45833,0 0.86756,-0.11458 1.22768,-0.34375c0.36012,-0.22917 0.64249,-0.54018 0.8471,-0.93304c0.20461,-0.40104 0.30283,-0.85119 0.29464,-1.35045c0.00818,-0.50744 -0.09003,-0.95759 -0.29464,-1.35045c-0.20461,-0.40104 -0.48698,-0.71205 -0.8471,-0.93304c-0.36012,-0.22917 -0.76934,-0.34375 -1.22768,-0.34375c-0.45833,0 -0.87165,0.11458 -1.23996,0.34375c-0.3683,0.22917 -0.65476,0.54427 -0.85937,0.94531c-0.20461,0.39286 -0.30283,0.83892 -0.29464,1.33817c-0.00818,0.49925 0.09003,0.94941 0.29464,1.35045c0.20461,0.39286 0.49107,0.70387 0.85938,0.93304c0.3683,0.22917 0.78162,0.34375 1.23996,0.34375zM208.88589,104.24627v-7.69754h1.52232v2.41853l-0.14732,-0.58929c0.1064,-0.3683 0.29055,-0.70387 0.55246,-1.0067c0.26191,-0.30283 0.56064,-0.54018 0.89621,-0.71205c0.33557,-0.18006 0.68341,-0.27009 1.04353,-0.27009c0.16369,0 0.3192,0.01637 0.46652,0.04911c0.1555,0.02455 0.27827,0.05729 0.3683,0.09821l-0.39286,1.64509c-0.11458,-0.04911 -0.24554,-0.09003 -0.39286,-0.12277c-0.13914,-0.04092 -0.27827,-0.06138 -0.41741,-0.06138c-0.26191,0 -0.51153,0.0532 -0.74888,0.1596c-0.23735,0.09821 -0.45015,0.24144 -0.63839,0.42969c-0.18006,0.18006 -0.32329,0.38876 -0.42969,0.62612c-0.1064,0.23735 -0.1596,0.49925 -0.1596,0.78571v4.24777zM217.67483,104.39359c-0.70387,0 -1.32999,-0.17187 -1.87835,-0.51562c-0.54836,-0.35193 -0.98624,-0.82664 -1.31362,-1.42411c-0.3192,-0.60566 -0.47879,-1.29316 -0.47879,-2.0625c0,-0.76934 0.1555,-1.45275 0.46652,-2.05022c0.3192,-0.60566 0.75298,-1.08036 1.30134,-1.42411c0.54836,-0.35193 1.17039,-0.5279 1.86607,-0.5279c0.37649,0 0.74479,0.06138 1.10491,0.18415c0.36012,0.12277 0.67932,0.29055 0.95759,0.50335c0.28646,0.20461 0.50744,0.43378 0.66295,0.6875c0.16369,0.24554 0.24554,0.49516 0.24554,0.74888l-0.44196,0.03683v-5.15625h1.51004v10.85268h-1.51004v-1.82924h0.29464c0,0.22917 -0.07775,0.46242 -0.23326,0.69978c-0.1555,0.22917 -0.36421,0.44196 -0.62612,0.63839c-0.25372,0.18825 -0.55246,0.34375 -0.89621,0.46652c-0.33557,0.11458 -0.67932,0.17187 -1.03125,0.17187zM217.88354,103.09225c0.45833,0 0.86347,-0.11867 1.2154,-0.35603c0.35193,-0.23735 0.62612,-0.55655 0.82254,-0.95759c0.20461,-0.40923 0.30692,-0.87165 0.30692,-1.38728c0,-0.51563 -0.10231,-0.97396 -0.30692,-1.375c-0.19643,-0.40923 -0.47061,-0.73251 -0.82254,-0.96987c-0.35193,-0.23735 -0.75707,-0.35603 -1.2154,-0.35603c-0.45833,0 -0.86347,0.11867 -1.2154,0.35603c-0.35193,0.23735 -0.63021,0.56064 -0.83482,0.96987c-0.19643,0.40104 -0.29464,0.85938 -0.29464,1.375c0,0.51562 0.09821,0.97805 0.29464,1.38728c0.20461,0.40104 0.48289,0.72024 0.83482,0.95759c0.35193,0.23735 0.75707,0.35603 1.2154,0.35603z" fill="#ffffff" fill-rule="nonzero"/><path d="M-178.15223,21.56168h445.88974v42.01575h-445.88974z" fill-opacity="0" fill="#000000" fill-rule="evenodd"/><path d="M120.52416,150.55512h238.95169v58.88977h-238.95169z" fill-opacity="0" fill="#000000" fill-rule="evenodd"/><path d="M130.3184,165.80738h252.8632v41.81105h-252.8632z" fill-opacity="0" fill="#000000" fill-rule="evenodd"/><path d="M137.32345,183.22274v-8.45053h3.43682c0.45824,0 0.87268,0.11456 1.24332,0.34368c0.37737,0.22912 0.67726,0.54248 0.89964,0.94007c0.22912,0.39086 0.34368,0.82888 0.34368,1.31408c0,0.4852 -0.11456,0.92659 -0.34368,1.32419c-0.22238,0.39086 -0.52226,0.70421 -0.89963,0.94007c-0.37064,0.23586 -0.78508,0.35379 -1.24332,0.35379h-2.13285v3.23465zM138.62741,178.73466h2.11264c0.21564,0 0.41107,-0.06065 0.58628,-0.18195c0.18195,-0.12804 0.32684,-0.29314 0.43466,-0.4953c0.10782,-0.20891 0.16173,-0.43802 0.16173,-0.68736c0,-0.24934 -0.05391,-0.47509 -0.16173,-0.67725c-0.10782,-0.20217 -0.2527,-0.3639 -0.43465,-0.4852c-0.17521,-0.1213 -0.37064,-0.18195 -0.58628,-0.18195h-2.11263zM146.97736,183.34404c-0.51889,0 -0.99398,-0.14489 -1.42527,-0.43465c-0.43129,-0.28977 -0.77833,-0.68399 -1.04115,-1.18267c-0.25607,-0.49867 -0.38411,-1.06137 -0.38411,-1.68808c0,-0.64019 0.13141,-1.20625 0.39423,-1.69819c0.26282,-0.49194 0.61661,-0.87942 1.06137,-1.16245c0.45151,-0.28303 0.95355,-0.42455 1.50614,-0.42455c0.33021,0 0.63008,0.05054 0.89964,0.15163c0.27629,0.09434 0.51553,0.22912 0.71769,0.40433c0.20891,0.16847 0.37737,0.36727 0.50541,0.59639c0.13478,0.22238 0.21901,0.46161 0.25271,0.71769l-0.27292,-0.09097v-1.64765h1.25343v6.3379h-1.25343v-1.50613l0.28303,-0.09097c-0.04717,0.22238 -0.14489,0.43802 -0.29314,0.64693c-0.14826,0.20217 -0.33694,0.38411 -0.56606,0.54585c-0.22912,0.15499 -0.48183,0.28303 -0.75812,0.38411c-0.27629,0.09434 -0.56943,0.14152 -0.87942,0.14152zM147.30083,182.2018c0.38411,0 0.71769,-0.09097 1.00072,-0.27292c0.28977,-0.18869 0.51553,-0.44476 0.67726,-0.76823c0.16847,-0.33021 0.25271,-0.70421 0.25271,-1.12202c0,-0.41107 -0.08424,-0.77833 -0.2527,-1.1018c-0.16173,-0.32347 -0.38749,-0.57617 -0.67725,-0.75812c-0.28303,-0.18869 -0.6166,-0.28303 -1.00072,-0.28303c-0.37064,0 -0.69747,0.09434 -0.9805,0.28303c-0.28303,0.18195 -0.50878,0.43466 -0.67725,0.75812c-0.16173,0.32347 -0.2426,0.69073 -0.2426,1.10181c0,0.41781 0.08087,0.79182 0.2426,1.12202c0.16847,0.32347 0.39423,0.57954 0.67726,0.76823c0.28303,0.18195 0.60987,0.27293 0.98051,0.27293zM154.29376,183.34404c-0.53237,0 -1.01083,-0.09097 -1.43538,-0.27292c-0.42455,-0.18869 -0.77833,-0.46498 -1.06137,-0.82888l0.83899,-0.71769c0.2426,0.27629 0.50541,0.47846 0.78845,0.6065c0.28977,0.1213 0.61661,0.18195 0.98051,0.18195c0.14152,0 0.27293,-0.01685 0.39423,-0.05054c0.12804,-0.03369 0.23923,-0.08761 0.33358,-0.16173c0.09434,-0.07413 0.1651,-0.16173 0.21228,-0.26282c0.04717,-0.10108 0.07076,-0.21227 0.07076,-0.33357c0,-0.20891 -0.0775,-0.37737 -0.23249,-0.50541c-0.08087,-0.05391 -0.20891,-0.11456 -0.38411,-0.18195c-0.16847,-0.06739 -0.39086,-0.13815 -0.66715,-0.21227c-0.46498,-0.1213 -0.84573,-0.25607 -1.14223,-0.40433c-0.29651,-0.15499 -0.52563,-0.33021 -0.68736,-0.52563c-0.1213,-0.15499 -0.21227,-0.32009 -0.27292,-0.4953c-0.05391,-0.18195 -0.08087,-0.38411 -0.08087,-0.6065c0,-0.26282 0.05728,-0.50541 0.17184,-0.7278c0.1213,-0.22238 0.28303,-0.41444 0.4852,-0.57617c0.20891,-0.16847 0.45151,-0.29651 0.7278,-0.38411c0.27629,-0.08761 0.57281,-0.1314 0.88953,-0.1314c0.29651,0 0.58965,0.04043 0.87942,0.1213c0.29651,0.08087 0.56944,0.1988 0.81877,0.35379c0.24934,0.14826 0.45824,0.32684 0.62671,0.53574l-0.70758,0.78845c-0.15499,-0.15499 -0.32347,-0.28977 -0.50542,-0.40433c-0.18195,-0.11456 -0.36727,-0.20217 -0.55595,-0.26282c-0.18195,-0.06739 -0.34705,-0.10108 -0.4953,-0.10108c-0.16847,0 -0.32347,0.01685 -0.46498,0.05054c-0.13478,0.02696 -0.24934,0.07413 -0.34368,0.14152c-0.08761,0.06065 -0.15836,0.14152 -0.21227,0.2426c-0.04717,0.09434 -0.07075,0.20217 -0.07075,0.32347c0.00674,0.10108 0.03369,0.1988 0.08087,0.29314c0.04717,0.09434 0.11119,0.17184 0.19206,0.23249c0.08761,0.06739 0.21901,0.13815 0.39423,0.21228c0.17521,0.06739 0.40096,0.13478 0.67726,0.20217c0.39759,0.10108 0.7278,0.21564 0.99062,0.34368c0.26282,0.1213 0.47172,0.26282 0.62671,0.42455c0.16173,0.15499 0.27293,0.33358 0.33358,0.53574c0.06739,0.20217 0.10108,0.42792 0.10108,0.67726c0,0.35716 -0.10445,0.68062 -0.31335,0.9704c-0.20217,0.28303 -0.47846,0.50541 -0.82889,0.66715c-0.34368,0.16173 -0.7278,0.2426 -1.15234,0.2426zM160.07495,183.34404c-0.53237,0 -1.01083,-0.09097 -1.43538,-0.27292c-0.42455,-0.18869 -0.77833,-0.46498 -1.06137,-0.82888l0.83899,-0.71769c0.2426,0.27629 0.50541,0.47846 0.78845,0.6065c0.28977,0.1213 0.61661,0.18195 0.98051,0.18195c0.14152,0 0.27293,-0.01685 0.39423,-0.05054c0.12804,-0.03369 0.23923,-0.08761 0.33358,-0.16173c0.09434,-0.07413 0.1651,-0.16173 0.21228,-0.26282c0.04717,-0.10108 0.07076,-0.21227 0.07076,-0.33357c0,-0.20891 -0.0775,-0.37737 -0.23249,-0.50541c-0.08087,-0.05391 -0.20891,-0.11456 -0.38411,-0.18195c-0.16847,-0.06739 -0.39086,-0.13815 -0.66715,-0.21227c-0.46498,-0.1213 -0.84573,-0.25607 -1.14223,-0.40433c-0.29651,-0.15499 -0.52563,-0.33021 -0.68736,-0.52563c-0.1213,-0.15499 -0.21227,-0.32009 -0.27292,-0.4953c-0.05391,-0.18195 -0.08087,-0.38411 -0.08087,-0.6065c0,-0.26282 0.05728,-0.50541 0.17184,-0.7278c0.1213,-0.22238 0.28303,-0.41444 0.4852,-0.57617c0.20891,-0.16847 0.45151,-0.29651 0.7278,-0.38411c0.27629,-0.08761 0.57281,-0.1314 0.88953,-0.1314c0.29651,0 0.58965,0.04043 0.87942,0.1213c0.29651,0.08087 0.56943,0.1988 0.81877,0.35379c0.24934,0.14826 0.45824,0.32684 0.62671,0.53574l-0.70758,0.78845c-0.15499,-0.15499 -0.32347,-0.28977 -0.50541,-0.40433c-0.18195,-0.11456 -0.36727,-0.20217 -0.55595,-0.26282c-0.18195,-0.06739 -0.34705,-0.10108 -0.4953,-0.10108c-0.16847,0 -0.32347,0.01685 -0.46498,0.05054c-0.13478,0.02696 -0.24934,0.07413 -0.34368,0.14152c-0.08761,0.06065 -0.15836,0.14152 -0.21227,0.2426c-0.04717,0.09434 -0.07075,0.20217 -0.07075,0.32347c0.00674,0.10108 0.03369,0.1988 0.08087,0.29314c0.04717,0.09434 0.11119,0.17184 0.19206,0.23249c0.08761,0.06739 0.21901,0.13815 0.39423,0.21228c0.17521,0.06739 0.40096,0.13478 0.67726,0.20217c0.39759,0.10108 0.7278,0.21564 0.99061,0.34368c0.26282,0.1213 0.47172,0.26282 0.62671,0.42455c0.16173,0.15499 0.27293,0.33358 0.33358,0.53574c0.06739,0.20217 0.10108,0.42792 0.10108,0.67726c0,0.35716 -0.10445,0.68062 -0.31335,0.9704c-0.20217,0.28303 -0.47846,0.50541 -0.82888,0.66715c-0.34368,0.16173 -0.7278,0.2426 -1.15234,0.2426zM165.30018,183.22274l-2.16317,-6.33789l1.25343,-0.01011l1.54657,4.74079l-0.27292,-0.02022l1.67798,-3.70974h0.74801l1.68809,3.71985l-0.32347,0.02022l1.55668,-4.74078h1.25343l-2.13285,6.3379h-0.8592l-1.76895,-4.0332l0.28303,0.04043l-1.63754,3.99278zM176.06835,183.34404c-0.61997,0 -1.17593,-0.14152 -1.66786,-0.42455c-0.4852,-0.28977 -0.86931,-0.68062 -1.15234,-1.17256c-0.27629,-0.49867 -0.41444,-1.06474 -0.41444,-1.69819c0,-0.63345 0.13815,-1.19615 0.41444,-1.68808c0.28303,-0.49867 0.66715,-0.88953 1.15234,-1.17256c0.49194,-0.28977 1.04789,-0.43465 1.66787,-0.43465c0.6065,0 1.15234,0.14489 1.63754,0.43466c0.49194,0.28303 0.87942,0.67389 1.16246,1.17256c0.28303,0.49194 0.42455,1.05463 0.42455,1.68809c0,0.63345 -0.14152,1.19952 -0.42455,1.69819c-0.28303,0.49194 -0.67052,0.88279 -1.16245,1.17256c-0.4852,0.28303 -1.03105,0.42455 -1.63754,0.42455zM176.06835,182.21192c0.37737,0 0.71432,-0.09434 1.01083,-0.28303c0.29651,-0.18869 0.529,-0.44476 0.69748,-0.76823c0.16847,-0.33021 0.24934,-0.70084 0.2426,-1.11191c0.00674,-0.41781 -0.07413,-0.78845 -0.2426,-1.11191c-0.16847,-0.33021 -0.40096,-0.58628 -0.69747,-0.76823c-0.29651,-0.18869 -0.63345,-0.28303 -1.01083,-0.28303c-0.37737,0 -0.71769,0.09434 -1.02093,0.28303c-0.30325,0.18869 -0.53911,0.44814 -0.70758,0.77834c-0.16847,0.32347 -0.24934,0.69073 -0.2426,1.10181c-0.00674,0.41107 0.07413,0.78171 0.2426,1.11191c0.16847,0.32347 0.40433,0.57954 0.70758,0.76823c0.30325,0.18869 0.64356,0.28303 1.02094,0.28303zM180.64043,183.22274v-6.33789h1.25343v1.99134l-0.1213,-0.4852c0.08761,-0.30325 0.23923,-0.57954 0.45488,-0.82888c0.21564,-0.24934 0.46161,-0.44476 0.73791,-0.58628c0.27629,-0.14826 0.56269,-0.22238 0.85921,-0.22238c0.13478,0 0.26282,0.01348 0.38411,0.04043c0.12804,0.02022 0.22912,0.04717 0.30325,0.08087l-0.32347,1.35451c-0.09434,-0.04043 -0.20217,-0.07413 -0.32347,-0.10108c-0.11456,-0.03369 -0.22912,-0.05054 -0.34368,-0.05054c-0.21564,0 -0.42118,0.0438 -0.6166,0.13141c-0.19542,0.08087 -0.37064,0.1988 -0.52563,0.35379c-0.14826,0.14826 -0.26619,0.32009 -0.35379,0.51553c-0.08761,0.19542 -0.1314,0.41107 -0.1314,0.64693v3.49747zM187.87695,183.34404c-0.57954,0 -1.09507,-0.14152 -1.54656,-0.42455c-0.45151,-0.28977 -0.81203,-0.68062 -1.08158,-1.17256c-0.26282,-0.49867 -0.39422,-1.06474 -0.39422,-1.69819c0,-0.63345 0.12804,-1.19615 0.38411,-1.68808c0.26282,-0.49867 0.61997,-0.88953 1.07148,-1.17256c0.45151,-0.28977 0.96365,-0.43465 1.53646,-0.43465c0.30999,0 0.61324,0.05054 0.90975,0.15163c0.29651,0.10108 0.55932,0.23923 0.78845,0.41444c0.23586,0.16847 0.41781,0.35716 0.54585,0.56606c0.13478,0.20217 0.20217,0.4077 0.20217,0.61661l-0.3639,0.03033v-4.24548h1.24332v8.93573h-1.24332v-1.50613h0.2426c0,0.18869 -0.06402,0.38074 -0.19205,0.57618c-0.12804,0.18869 -0.29988,0.3639 -0.51552,0.52563c-0.20891,0.15499 -0.45487,0.28303 -0.7379,0.38411c-0.27629,0.09434 -0.55932,0.14152 -0.8491,0.14152zM188.04879,182.27257c0.37737,0 0.71095,-0.09771 1.00072,-0.29314c0.28977,-0.19542 0.51553,-0.45824 0.67726,-0.78845c0.16847,-0.33694 0.25271,-0.71769 0.25271,-1.14223c0,-0.42455 -0.08424,-0.80192 -0.2527,-1.13213c-0.16173,-0.33694 -0.38749,-0.60313 -0.67725,-0.79855c-0.28977,-0.19542 -0.62334,-0.29314 -1.00072,-0.29314c-0.37737,0 -0.71095,0.09771 -1.00072,0.29314c-0.28977,0.19542 -0.51889,0.46161 -0.68736,0.79856c-0.16173,0.33021 -0.2426,0.70758 -0.2426,1.13213c0,0.42455 0.08087,0.80529 0.2426,1.14224c0.16847,0.33021 0.39759,0.59302 0.68736,0.78845c0.28977,0.19542 0.62334,0.29314 1.00072,0.29314zM195.00325,183.34404c-0.53237,0 -1.01083,-0.09097 -1.43538,-0.27292c-0.42455,-0.18869 -0.77833,-0.46498 -1.06137,-0.82888l0.83899,-0.71769c0.2426,0.27629 0.50541,0.47846 0.78845,0.6065c0.28977,0.1213 0.61661,0.18195 0.98051,0.18195c0.14152,0 0.27293,-0.01685 0.39423,-0.05054c0.12804,-0.03369 0.23923,-0.08761 0.33358,-0.16173c0.09434,-0.07413 0.1651,-0.16173 0.21228,-0.26282c0.04717,-0.10108 0.07076,-0.21227 0.07076,-0.33357c0,-0.20891 -0.0775,-0.37737 -0.23249,-0.50541c-0.08087,-0.05391 -0.20891,-0.11456 -0.38411,-0.18195c-0.16847,-0.06739 -0.39086,-0.13815 -0.66715,-0.21227c-0.46498,-0.1213 -0.84573,-0.25607 -1.14223,-0.40433c-0.29651,-0.15499 -0.52563,-0.33021 -0.68736,-0.52563c-0.1213,-0.15499 -0.21227,-0.32009 -0.27292,-0.4953c-0.05391,-0.18195 -0.08087,-0.38411 -0.08087,-0.6065c0,-0.26282 0.05728,-0.50541 0.17184,-0.7278c0.1213,-0.22238 0.28303,-0.41444 0.4852,-0.57617c0.20891,-0.16847 0.45151,-0.29651 0.7278,-0.38411c0.27629,-0.08761 0.57281,-0.1314 0.88953,-0.1314c0.29651,0 0.58965,0.04043 0.87942,0.1213c0.29651,0.08087 0.56943,0.1988 0.81877,0.35379c0.24934,0.14826 0.45824,0.32684 0.62671,0.53574l-0.70758,0.78845c-0.15499,-0.15499 -0.32347,-0.28977 -0.50541,-0.40433c-0.18195,-0.11456 -0.36727,-0.20217 -0.55595,-0.26282c-0.18195,-0.06739 -0.34705,-0.10108 -0.4953,-0.10108c-0.16847,0 -0.32347,0.01685 -0.46498,0.05054c-0.13478,0.02696 -0.24934,0.07413 -0.34368,0.14152c-0.08761,0.06065 -0.15836,0.14152 -0.21227,0.2426c-0.04717,0.09434 -0.07075,0.20217 -0.07075,0.32347c0.00674,0.10108 0.03369,0.1988 0.08087,0.29314c0.04717,0.09434 0.11119,0.17184 0.19206,0.23249c0.08761,0.06739 0.21901,0.13815 0.39423,0.21228c0.17521,0.06739 0.40096,0.13478 0.67726,0.20217c0.39759,0.10108 0.7278,0.21564 0.99061,0.34368c0.26282,0.1213 0.47172,0.26282 0.62671,0.42455c0.16173,0.15499 0.27293,0.33358 0.33358,0.53574c0.06739,0.20217 0.10108,0.42792 0.10108,0.67726c0,0.35716 -0.10445,0.68062 -0.31335,0.9704c-0.20217,0.28303 -0.47846,0.50541 -0.82888,0.66715c-0.34368,0.16173 -0.7278,0.2426 -1.15234,0.2426zM204.68948,183.34404c-0.57954,0 -1.09507,-0.14152 -1.54656,-0.42455c-0.45151,-0.28977 -0.81203,-0.68062 -1.08158,-1.17256c-0.26282,-0.49867 -0.39422,-1.06474 -0.39422,-1.69819c0,-0.63345 0.12804,-1.19615 0.38411,-1.68808c0.26282,-0.49867 0.61997,-0.88953 1.07148,-1.17256c0.45151,-0.28977 0.96365,-0.43465 1.53646,-0.43465c0.30999,0 0.61324,0.05054 0.90975,0.15163c0.29651,0.10108 0.55932,0.23923 0.78845,0.41444c0.23586,0.16847 0.41781,0.35716 0.54585,0.56606c0.13478,0.20217 0.20217,0.4077 0.20217,0.61661l-0.3639,0.03033v-4.24548h1.24332v8.93573h-1.24332v-1.50613h0.2426c0,0.18869 -0.06402,0.38074 -0.19205,0.57618c-0.12804,0.18869 -0.29988,0.3639 -0.51552,0.52563c-0.20891,0.15499 -0.45487,0.28303 -0.7379,0.38411c-0.27629,0.09434 -0.55932,0.14152 -0.8491,0.14152zM204.86132,182.27257c0.37737,0 0.71095,-0.09771 1.00072,-0.29314c0.28977,-0.19542 0.51553,-0.45824 0.67726,-0.78845c0.16847,-0.33694 0.25271,-0.71769 0.25271,-1.14223c0,-0.42455 -0.08424,-0.80192 -0.2527,-1.13213c-0.16173,-0.33694 -0.38749,-0.60313 -0.67725,-0.79855c-0.28977,-0.19542 -0.62334,-0.29314 -1.00072,-0.29314c-0.37737,0 -0.71095,0.09771 -1.00072,0.29314c-0.28977,0.19542 -0.51889,0.46161 -0.68736,0.79856c-0.16173,0.33021 -0.2426,0.70758 -0.2426,1.13213c0,0.42455 0.08087,0.80529 0.2426,1.14224c0.16847,0.33021 0.39759,0.59302 0.68736,0.78845c0.28977,0.19542 0.62334,0.29314 1.00072,0.29314zM212.55369,183.34404c-0.61997,0 -1.17593,-0.14152 -1.66786,-0.42455c-0.4852,-0.28977 -0.86931,-0.68062 -1.15234,-1.17256c-0.27629,-0.49867 -0.41444,-1.06474 -0.41444,-1.69819c0,-0.63345 0.13815,-1.19615 0.41444,-1.68808c0.28303,-0.49867 0.66715,-0.88953 1.15234,-1.17256c0.49194,-0.28977 1.04789,-0.43465 1.66787,-0.43465c0.6065,0 1.15234,0.14489 1.63754,0.43466c0.49194,0.28303 0.87942,0.67389 1.16246,1.17256c0.28303,0.49194 0.42455,1.05463 0.42455,1.68809c0,0.63345 -0.14152,1.19952 -0.42455,1.69819c-0.28303,0.49194 -0.67052,0.88279 -1.16245,1.17256c-0.4852,0.28303 -1.03105,0.42455 -1.63754,0.42455zM212.55369,182.21192c0.37737,0 0.71432,-0.09434 1.01083,-0.28303c0.29651,-0.18869 0.529,-0.44476 0.69748,-0.76823c0.16847,-0.33021 0.24934,-0.70084 0.2426,-1.11191c0.00674,-0.41781 -0.07413,-0.78845 -0.2426,-1.11191c-0.16847,-0.33021 -0.40096,-0.58628 -0.69747,-0.76823c-0.29651,-0.18869 -0.63345,-0.28303 -1.01083,-0.28303c-0.37737,0 -0.71769,0.09434 -1.02093,0.28303c-0.30325,0.18869 -0.53911,0.44814 -0.70758,0.77834c-0.16847,0.32347 -0.24934,0.69073 -0.2426,1.10181c-0.00674,0.41107 0.07413,0.78171 0.2426,1.11191c0.16847,0.32347 0.40433,0.57954 0.70758,0.76823c0.30325,0.18869 0.64356,0.28303 1.02094,0.28303zM217.12577,183.22274v-6.33789h1.24332v1.30397l-0.22238,0.14152c0.08087,-0.27629 0.23923,-0.53237 0.47509,-0.76823c0.23586,-0.2426 0.51216,-0.43802 0.82888,-0.58628c0.32347,-0.14826 0.65367,-0.22238 0.99061,-0.22238c0.4852,0 0.88616,0.09434 1.20289,0.28303c0.32347,0.18869 0.56606,0.47846 0.7278,0.86931c0.16173,0.38411 0.2426,0.86931 0.2426,1.45559v3.86137h-1.24332v-3.7805c0,-0.35716 -0.04717,-0.65367 -0.14152,-0.88953c-0.09434,-0.2426 -0.2426,-0.41781 -0.44476,-0.52563c-0.20217,-0.10782 -0.45151,-0.15499 -0.74801,-0.14152c-0.2426,0 -0.46498,0.04043 -0.66715,0.1213c-0.20217,0.07413 -0.37737,0.18195 -0.52563,0.32347c-0.14826,0.13478 -0.26619,0.29314 -0.35379,0.47509c-0.08087,0.17521 -0.1213,0.36727 -0.1213,0.57618v3.84115h-0.6166c-0.10108,0 -0.20554,0 -0.31335,0c-0.10782,0 -0.21227,0 -0.31335,0zM224.13516,177.49134l-0.45487,-0.55595c0.30999,-0.14826 0.56606,-0.31335 0.76823,-0.4953c0.20217,-0.18195 0.30325,-0.34368 0.30325,-0.4852c0,-0.10108 -0.0438,-0.19205 -0.1314,-0.27292c-0.08761,-0.08761 -0.16847,-0.16173 -0.2426,-0.22238c-0.17521,-0.14152 -0.29314,-0.25944 -0.35379,-0.35379c-0.06065,-0.10108 -0.09097,-0.20217 -0.09097,-0.30325c0,-0.19542 0.06739,-0.35042 0.20217,-0.46498c0.14152,-0.1213 0.32009,-0.18195 0.53574,-0.18195c0.22238,0 0.42455,0.06065 0.6065,0.18195c0.18195,0.11456 0.32347,0.27293 0.42455,0.47509c0.10782,0.20217 0.16173,0.43802 0.16173,0.70758c0,0.20891 -0.0438,0.41444 -0.1314,0.61661c-0.08761,0.20217 -0.21227,0.39423 -0.374,0.57618c-0.15499,0.17521 -0.33694,0.33021 -0.54585,0.46498c-0.20891,0.13478 -0.43465,0.23923 -0.67725,0.31336zM228.00415,183.22274v-7.95522h1.24332v7.95523zM226.67996,178.09784v-1.21299h4.03321v1.21299zM235.2095,183.22274v-6.33789h1.25343v1.35451l-0.23249,0.14152c0.06739,-0.20891 0.16847,-0.4077 0.30325,-0.59639c0.14152,-0.19542 0.31336,-0.36727 0.51553,-0.51552c0.20891,-0.14826 0.43129,-0.26619 0.66715,-0.35379c0.2426,-0.09434 0.48856,-0.14152 0.7379,-0.14152c0.35716,0 0.67389,0.06065 0.95018,0.18195c0.27629,0.1213 0.50204,0.30325 0.67726,0.54585c0.17521,0.2426 0.30325,0.54585 0.38411,0.90975l-0.19205,-0.05054l0.08087,-0.20217c0.09434,-0.18869 0.21901,-0.3639 0.37401,-0.52563c0.15499,-0.16847 0.33358,-0.31672 0.53574,-0.44476c0.20217,-0.12804 0.41444,-0.22912 0.63683,-0.30325c0.22912,-0.07413 0.45151,-0.11119 0.66715,-0.11119c0.47172,0 0.86257,0.09771 1.17256,0.29314c0.30999,0.19542 0.54248,0.49194 0.69748,0.88953c0.16173,0.39086 0.2426,0.87942 0.2426,1.4657v3.80072h-1.25343v-3.72995c0,-0.3639 -0.04717,-0.66041 -0.14152,-0.88953c-0.09434,-0.22912 -0.23586,-0.39759 -0.42455,-0.50541c-0.18195,-0.11456 -0.41781,-0.17184 -0.70758,-0.17184c-0.22238,0 -0.43465,0.04043 -0.63682,0.1213c-0.19542,0.07413 -0.36727,0.17858 -0.51552,0.31336c-0.14152,0.13478 -0.2527,0.29314 -0.33357,0.47509c-0.07413,0.18195 -0.11119,0.38074 -0.11119,0.59639v3.79061h-1.26353v-3.75017c0,-0.33021 -0.04717,-0.60987 -0.14152,-0.83898c-0.09434,-0.22912 -0.23586,-0.40433 -0.42455,-0.52563c-0.18195,-0.1213 -0.4077,-0.18195 -0.67725,-0.18195c-0.22238,0 -0.43129,0.04043 -0.62671,0.1213c-0.18869,0.07413 -0.35716,0.17858 -0.50541,0.31336c-0.14152,0.12804 -0.2527,0.28303 -0.33357,0.46498c-0.08087,0.18195 -0.1213,0.37737 -0.1213,0.58628v3.81083zM248.78163,183.34404c-0.51889,0 -0.99398,-0.14489 -1.42527,-0.43465c-0.43129,-0.28977 -0.77833,-0.68399 -1.04115,-1.18267c-0.25607,-0.49867 -0.38411,-1.06137 -0.38411,-1.68808c0,-0.64019 0.13141,-1.20625 0.39423,-1.69819c0.26282,-0.49194 0.61661,-0.87942 1.06137,-1.16245c0.45151,-0.28303 0.95355,-0.42455 1.50613,-0.42455c0.33021,0 0.63008,0.05054 0.89964,0.15163c0.27629,0.09434 0.51553,0.22912 0.71769,0.40433c0.20891,0.16847 0.37737,0.36727 0.50541,0.59639c0.13478,0.22238 0.21901,0.46161 0.25271,0.71769l-0.27292,-0.09097v-1.64765h1.25343v6.3379h-1.25343v-1.50613l0.28303,-0.09097c-0.04717,0.22238 -0.14489,0.43802 -0.29314,0.64693c-0.14826,0.20217 -0.33694,0.38411 -0.56606,0.54585c-0.22912,0.15499 -0.48183,0.28303 -0.75812,0.38411c-0.27629,0.09434 -0.56943,0.14152 -0.87942,0.14152zM249.10509,182.2018c0.38411,0 0.71769,-0.09097 1.00072,-0.27292c0.28977,-0.18869 0.51553,-0.44476 0.67726,-0.76823c0.16847,-0.33021 0.25271,-0.70421 0.25271,-1.12202c0,-0.41107 -0.08424,-0.77833 -0.2527,-1.1018c-0.16173,-0.32347 -0.38749,-0.57617 -0.67725,-0.75812c-0.28303,-0.18869 -0.61661,-0.28303 -1.00072,-0.28303c-0.37064,0 -0.69747,0.09434 -0.9805,0.28303c-0.28303,0.18195 -0.50878,0.43466 -0.67725,0.75812c-0.16173,0.32347 -0.2426,0.69073 -0.2426,1.10181c0,0.41781 0.08087,0.79182 0.2426,1.12202c0.16847,0.32347 0.39422,0.57954 0.67725,0.76823c0.28303,0.18195 0.60987,0.27293 0.98051,0.27293zM254.77384,183.22274v-7.95522h1.24332v7.95523zM253.44966,178.09784v-1.21299h4.0332v1.21299zM261.24842,183.34404c-0.58628,0 -1.11191,-0.14489 -1.57689,-0.43465c-0.45824,-0.28977 -0.82214,-0.68399 -1.0917,-1.18267c-0.26956,-0.49867 -0.40433,-1.058 -0.40433,-1.67798c0,-0.61997 0.13478,-1.1793 0.40433,-1.67798c0.26956,-0.49867 0.63345,-0.8929 1.0917,-1.18267c0.46498,-0.28977 0.99061,-0.43465 1.57689,-0.43465c0.56606,0 1.07822,0.11456 1.53646,0.34368c0.46498,0.22912 0.81877,0.54248 1.06137,0.94007l-0.68736,0.83899c-0.12804,-0.18195 -0.29314,-0.35042 -0.4953,-0.50541c-0.20217,-0.15499 -0.41781,-0.27629 -0.64693,-0.3639c-0.22238,-0.08761 -0.43802,-0.1314 -0.64693,-0.1314c-0.38411,0 -0.7278,0.09434 -1.03105,0.28303c-0.30325,0.18869 -0.54248,0.44814 -0.71769,0.77834c-0.17521,0.33021 -0.26282,0.70084 -0.26282,1.11191c0,0.41107 0.09098,0.78171 0.27293,1.11191c0.18869,0.32347 0.43466,0.58291 0.73791,0.77834c0.30325,0.18869 0.64019,0.28303 1.01083,0.28303c0.22238,0 0.43466,-0.03706 0.63683,-0.11119c0.20217,-0.07413 0.40096,-0.18195 0.59639,-0.32347c0.19542,-0.14826 0.37737,-0.32684 0.54585,-0.53574l0.68736,0.8491c-0.25607,0.3639 -0.62334,0.66378 -1.1018,0.89964c-0.47846,0.22912 -0.97714,0.34368 -1.49603,0.34368zM265.0167,183.22274v-8.93573h1.24332v3.9018l-0.22238,0.14152c0.08087,-0.27629 0.23923,-0.53237 0.47509,-0.76823c0.23586,-0.2426 0.51216,-0.43802 0.82888,-0.58628c0.32347,-0.14826 0.65367,-0.22238 0.99061,-0.22238c0.4852,0 0.88616,0.09434 1.20289,0.28303c0.32347,0.18869 0.56606,0.47846 0.7278,0.86931c0.16173,0.38411 0.2426,0.86931 0.2426,1.45559v3.86137h-1.24332v-3.7805c0,-0.35716 -0.04717,-0.65367 -0.14152,-0.88953c-0.09434,-0.2426 -0.2426,-0.41781 -0.44476,-0.52563c-0.20217,-0.10782 -0.45151,-0.15499 -0.74801,-0.14152c-0.2426,0 -0.46498,0.04043 -0.66715,0.1213c-0.20217,0.07413 -0.37737,0.18195 -0.52563,0.32347c-0.14826,0.13478 -0.26619,0.29314 -0.35379,0.47509c-0.08087,0.17521 -0.1213,0.36727 -0.1213,0.57618v3.84115h-0.6166c-0.10108,0 -0.20554,0 -0.31335,0c-0.10782,0 -0.21227,0 -0.31335,0zM272.38999,185.38592l-0.45487,-0.55595c0.27629,-0.16173 0.50204,-0.34705 0.67726,-0.55595c0.18195,-0.20891 0.27293,-0.39086 0.27293,-0.54585c0,-0.08087 -0.02022,-0.15836 -0.06065,-0.23249c-0.04043,-0.07413 -0.12467,-0.18195 -0.2527,-0.32347c-0.16173,-0.14826 -0.26619,-0.27629 -0.31335,-0.38411c-0.04717,-0.10782 -0.07075,-0.21901 -0.07075,-0.33357c0,-0.19542 0.06739,-0.35042 0.20217,-0.46498c0.13478,-0.1213 0.31336,-0.18195 0.53574,-0.18195c0.19542,0 0.37401,0.06065 0.53574,0.18195c0.16847,0.11456 0.29988,0.27629 0.39423,0.4852c0.09434,0.20217 0.14152,0.43466 0.14152,0.69748c0,0.2426 -0.04043,0.47509 -0.1213,0.69748c-0.08087,0.22912 -0.19542,0.43802 -0.34368,0.62671c-0.14152,0.19542 -0.30999,0.37064 -0.50541,0.52563c-0.18869,0.15499 -0.40096,0.27629 -0.63682,0.3639zM279.58827,183.22274v-7.95522h1.24332v7.95523zM278.26408,178.09784v-1.21299h4.03321v1.21299zM283.43443,183.22274v-6.33789h1.25343v1.99134l-0.1213,-0.4852c0.08761,-0.30325 0.23923,-0.57954 0.45488,-0.82888c0.21564,-0.24934 0.46161,-0.44476 0.73791,-0.58628c0.27629,-0.14826 0.56269,-0.22238 0.85921,-0.22238c0.13478,0 0.26282,0.01348 0.38411,0.04043c0.12804,0.02022 0.22912,0.04717 0.30325,0.08087l-0.32347,1.35451c-0.09434,-0.04043 -0.20217,-0.07413 -0.32347,-0.10108c-0.11456,-0.03369 -0.22912,-0.05054 -0.34368,-0.05054c-0.21564,0 -0.42118,0.0438 -0.6166,0.13141c-0.19542,0.08087 -0.37064,0.1988 -0.52563,0.35379c-0.14826,0.14826 -0.26619,0.32009 -0.35379,0.51553c-0.08761,0.19542 -0.1314,0.41107 -0.1314,0.64693v3.49747zM289.35973,186.00252l1.28376,-2.96173l0.01011,0.99061l-3.16389,-7.14656h1.44549l1.98122,4.65992c0.04043,0.08087 0.08761,0.20554 0.14152,0.37401c0.06065,0.16173 0.11119,0.32347 0.15163,0.4852l-0.31335,0.07076c0.06065,-0.16847 0.1213,-0.33694 0.18195,-0.50541c0.06065,-0.16847 0.11793,-0.33694 0.17184,-0.50541l1.65776,-4.57905h1.47581l-2.60794,6.3379l-1.07148,2.77978zM301.64163,183.34404c-0.64693,0 -1.2231,-0.13815 -1.72851,-0.41444c-0.49867,-0.27629 -0.8929,-0.65704 -1.18267,-1.14223c-0.28303,-0.4852 -0.42455,-1.04115 -0.42455,-1.66786c0,-0.49867 0.08087,-0.95355 0.2426,-1.36462c0.16173,-0.41107 0.38411,-0.76486 0.66715,-1.06137c0.28303,-0.30325 0.62334,-0.53574 1.02094,-0.69747c0.40433,-0.16847 0.83899,-0.2527 1.30397,-0.2527c0.41107,0 0.79182,0.0775 1.14224,0.23249c0.35716,0.15499 0.66378,0.37064 0.91986,0.64693c0.26282,0.27629 0.46498,0.60313 0.6065,0.98051c0.14152,0.37064 0.20891,0.77497 0.20217,1.21299l-0.01011,0.53574h-5.17544l-0.28303,-0.99061h4.37689l-0.17184,0.20217v-0.28303c-0.02696,-0.26956 -0.11793,-0.50878 -0.27292,-0.71769c-0.14826,-0.20891 -0.34031,-0.374 -0.57617,-0.4953c-0.23586,-0.1213 -0.48857,-0.18195 -0.75812,-0.18195c-0.43802,0 -0.80529,0.08424 -1.1018,0.25271c-0.29651,0.16173 -0.52226,0.40433 -0.67725,0.7278c-0.14826,0.31672 -0.22238,0.70758 -0.22238,1.17256c0,0.43802 0.09098,0.82214 0.27293,1.15234c0.18195,0.32347 0.44139,0.57618 0.77834,0.75812c0.34368,0.17521 0.73454,0.26282 1.17256,0.26282c0.31672,0 0.60987,-0.05054 0.87942,-0.15162c0.26956,-0.10782 0.56269,-0.29988 0.87942,-0.57617l0.62671,0.87942c-0.19542,0.19542 -0.43129,0.36727 -0.70758,0.51553c-0.27629,0.14152 -0.56943,0.25607 -0.87942,0.34368c-0.30999,0.08087 -0.6166,0.1213 -0.91985,0.1213zM305.76264,183.22274v-6.33789h1.24332v1.30397l-0.22238,0.14152c0.08087,-0.27629 0.23923,-0.53237 0.47509,-0.76823c0.23586,-0.2426 0.51216,-0.43802 0.82888,-0.58628c0.32347,-0.14826 0.65367,-0.22238 0.99061,-0.22238c0.4852,0 0.88616,0.09434 1.20289,0.28303c0.32347,0.18869 0.56606,0.47846 0.7278,0.86931c0.16173,0.38411 0.2426,0.86931 0.2426,1.45559v3.86137h-1.24332v-3.7805c0,-0.35716 -0.04717,-0.65367 -0.14152,-0.88953c-0.09434,-0.2426 -0.2426,-0.41781 -0.44476,-0.52563c-0.20217,-0.10782 -0.45151,-0.15499 -0.74801,-0.14152c-0.2426,0 -0.46498,0.04043 -0.66715,0.1213c-0.20217,0.07413 -0.37737,0.18195 -0.52563,0.32347c-0.14826,0.13478 -0.26619,0.29314 -0.35379,0.47509c-0.08087,0.17521 -0.1213,0.36727 -0.1213,0.57618v3.84115h-0.6166c-0.10108,0 -0.20554,0 -0.31335,0c-0.10782,0 -0.21227,0 -0.31335,0zM313.73231,183.22274v-7.95522h1.24332v7.95523zM312.40812,178.09784v-1.21299h4.03321v1.21299zM320.4697,183.34404c-0.64693,0 -1.2231,-0.13815 -1.72851,-0.41444c-0.49867,-0.27629 -0.8929,-0.65704 -1.18267,-1.14223c-0.28303,-0.4852 -0.42455,-1.04115 -0.42455,-1.66786c0,-0.49867 0.08087,-0.95355 0.2426,-1.36462c0.16173,-0.41107 0.38411,-0.76486 0.66715,-1.06137c0.28303,-0.30325 0.62334,-0.53574 1.02094,-0.69747c0.40433,-0.16847 0.83899,-0.2527 1.30397,-0.2527c0.41107,0 0.79182,0.0775 1.14224,0.23249c0.35716,0.15499 0.66378,0.37064 0.91986,0.64693c0.26282,0.27629 0.46498,0.60313 0.6065,0.98051c0.14152,0.37064 0.20891,0.77497 0.20217,1.21299l-0.01011,0.53574h-5.17544l-0.28303,-0.99061h4.37689l-0.17184,0.20217v-0.28303c-0.02696,-0.26956 -0.11793,-0.50878 -0.27292,-0.71769c-0.14826,-0.20891 -0.34031,-0.374 -0.57617,-0.4953c-0.23586,-0.1213 -0.48857,-0.18195 -0.75812,-0.18195c-0.43802,0 -0.80529,0.08424 -1.1018,0.25271c-0.29651,0.16173 -0.52226,0.40433 -0.67725,0.7278c-0.14826,0.31672 -0.22238,0.70758 -0.22238,1.17256c0,0.43802 0.09098,0.82214 0.27293,1.15234c0.18195,0.32347 0.44139,0.57618 0.77834,0.75812c0.34368,0.17521 0.73454,0.26282 1.17256,0.26282c0.31672,0 0.60987,-0.05054 0.87942,-0.15162c0.26956,-0.10782 0.56269,-0.29988 0.87942,-0.57617l0.62671,0.87942c-0.19542,0.19542 -0.43129,0.36727 -0.70758,0.51553c-0.27629,0.14152 -0.56943,0.25607 -0.87942,0.34368c-0.30999,0.08087 -0.6166,0.1213 -0.91985,0.1213zM324.59068,183.22274v-6.33789h1.25343v1.99134l-0.1213,-0.4852c0.08761,-0.30325 0.23923,-0.57954 0.45488,-0.82888c0.21564,-0.24934 0.46161,-0.44476 0.73791,-0.58628c0.27629,-0.14826 0.56269,-0.22238 0.85921,-0.22238c0.13478,0 0.26282,0.01348 0.38411,0.04043c0.12804,0.02022 0.22912,0.04717 0.30325,0.08087l-0.32347,1.35451c-0.09434,-0.04043 -0.20217,-0.07413 -0.32347,-0.10108c-0.11456,-0.03369 -0.22912,-0.05054 -0.34368,-0.05054c-0.21564,0 -0.42118,0.0438 -0.6166,0.13141c-0.19542,0.08087 -0.37064,0.1988 -0.52563,0.35379c-0.14826,0.14826 -0.26619,0.32009 -0.35379,0.51553c-0.08761,0.19542 -0.1314,0.41107 -0.1314,0.64693v3.49747zM329.65677,183.22274v-6.33789h1.24332v6.3379zM330.26327,175.4899c-0.26282,0 -0.46835,-0.06739 -0.6166,-0.20217c-0.14152,-0.14152 -0.21227,-0.33694 -0.21227,-0.58628c0,-0.23586 0.07413,-0.42455 0.22238,-0.56606c0.14826,-0.14826 0.35042,-0.22238 0.6065,-0.22238c0.26282,0 0.46498,0.07076 0.6065,0.21228c0.14826,0.13478 0.22238,0.32684 0.22238,0.57618c0,0.23586 -0.07413,0.42792 -0.22238,0.57618c-0.14826,0.14152 -0.35042,0.21228 -0.6065,0.21228zM332.80986,183.22274v-6.33789h1.24332v1.30397l-0.22238,0.14152c0.08087,-0.27629 0.23923,-0.53237 0.47509,-0.76823c0.23586,-0.2426 0.51216,-0.43802 0.82888,-0.58628c0.32347,-0.14826 0.65367,-0.22238 0.99061,-0.22238c0.4852,0 0.88616,0.09434 1.20289,0.28303c0.32347,0.18869 0.56606,0.47846 0.7278,0.86931c0.16173,0.38411 0.2426,0.86931 0.2426,1.45559v3.86137h-1.24332v-3.7805c0,-0.35716 -0.04717,-0.65367 -0.14152,-0.88953c-0.09434,-0.2426 -0.2426,-0.41781 -0.44476,-0.52563c-0.20217,-0.10782 -0.45151,-0.15499 -0.74801,-0.14152c-0.2426,0 -0.46498,0.04043 -0.66715,0.1213c-0.20217,0.07413 -0.37737,0.18195 -0.52563,0.32347c-0.14826,0.13478 -0.26619,0.29314 -0.35379,0.47509c-0.08087,0.17521 -0.1213,0.36727 -0.1213,0.57618v3.84115h-0.6166c-0.10108,0 -0.20554,0 -0.31335,0c-0.10782,0 -0.21227,0 -0.31335,0zM342.83152,186.00252c-0.45151,0 -0.903,-0.07075 -1.35451,-0.21227c-0.44476,-0.14152 -0.80192,-0.32684 -1.07148,-0.55595l0.45488,-0.96028c0.16173,0.1213 0.35042,0.22575 0.56606,0.31336c0.21564,0.09434 0.44476,0.16847 0.68736,0.22238c0.2426,0.05391 0.48183,0.08087 0.71769,0.08087c0.43802,0 0.80529,-0.07413 1.10181,-0.22238c0.30325,-0.14152 0.529,-0.35379 0.67726,-0.63682c0.15499,-0.28303 0.23249,-0.63345 0.23249,-1.05126v-1.21299l0.13141,0.08087c-0.04043,0.24934 -0.17184,0.48857 -0.39422,0.71769c-0.22238,0.22912 -0.49867,0.41781 -0.82888,0.56606c-0.32347,0.14152 -0.66041,0.21228 -1.01083,0.21228c-0.59976,0 -1.1355,-0.14152 -1.60721,-0.42455c-0.47172,-0.28977 -0.84573,-0.68062 -1.12202,-1.17256c-0.26956,-0.49867 -0.40433,-1.06474 -0.40433,-1.69819c0,-0.63345 0.13478,-1.19615 0.40433,-1.68808c0.26956,-0.49867 0.63683,-0.88953 1.10181,-1.17256c0.47172,-0.28977 1.00409,-0.43465 1.59711,-0.43465c0.23586,0 0.46498,0.03033 0.68736,0.09098c0.22912,0.06065 0.44139,0.14489 0.63683,0.25271c0.19542,0.10782 0.36727,0.22575 0.51553,0.35379c0.15499,0.12804 0.27966,0.26619 0.37401,0.41444c0.10108,0.14152 0.16173,0.27629 0.18195,0.40433l-0.26282,0.10108v-1.48592h1.24332v5.95378c0,0.50541 -0.07413,0.95355 -0.22238,1.34441c-0.14826,0.39086 -0.3639,0.72106 -0.64693,0.99061c-0.28303,0.26956 -0.62671,0.47509 -1.03105,0.61661c-0.39759,0.14152 -0.8491,0.21228 -1.35451,0.21228zM342.87196,182.2018c0.39759,0 0.74801,-0.09097 1.05126,-0.27292c0.30999,-0.18869 0.54922,-0.44476 0.71769,-0.76823c0.16847,-0.32347 0.25271,-0.6941 0.25271,-1.11191c0,-0.41781 -0.08761,-0.78845 -0.26282,-1.11191c-0.17521,-0.33021 -0.41444,-0.58628 -0.71769,-0.76823c-0.29651,-0.18869 -0.64356,-0.28303 -1.04115,-0.28303c-0.38411,0 -0.7278,0.09434 -1.03105,0.28303c-0.30325,0.18869 -0.54248,0.44814 -0.71769,0.77834c-0.16847,0.32347 -0.2527,0.69073 -0.2527,1.10181c0,0.41107 0.08424,0.78171 0.25271,1.11191c0.17521,0.32347 0.41444,0.57954 0.71769,0.76823c0.30325,0.18195 0.64693,0.27293 1.03105,0.27293z" fill="#ffffff" fill-rule="nonzero"/><path d="M139.44619,197.83528c-0.51889,0 -0.99398,-0.14489 -1.42527,-0.43465c-0.43129,-0.28977 -0.77833,-0.68399 -1.04115,-1.18267c-0.25607,-0.49867 -0.38411,-1.06137 -0.38411,-1.68808c0,-0.64019 0.13141,-1.20625 0.39423,-1.69819c0.26282,-0.49194 0.61661,-0.87942 1.06137,-1.16245c0.45151,-0.28303 0.95355,-0.42455 1.50614,-0.42455c0.33021,0 0.63008,0.05054 0.89964,0.15163c0.27629,0.09434 0.51553,0.22912 0.71769,0.40433c0.20891,0.16847 0.37737,0.36727 0.50541,0.59639c0.13478,0.22238 0.21901,0.46161 0.25271,0.71769l-0.27292,-0.09097v-1.64765h1.25343v6.3379h-1.25343v-1.50613l0.28303,-0.09097c-0.04717,0.22238 -0.14489,0.43802 -0.29314,0.64693c-0.14826,0.20217 -0.33694,0.38411 -0.56606,0.54585c-0.22912,0.15499 -0.48183,0.28303 -0.75812,0.38411c-0.27629,0.09434 -0.56943,0.14152 -0.87942,0.14152zM139.76965,196.69304c0.38411,0 0.71769,-0.09097 1.00072,-0.27292c0.28977,-0.18869 0.51553,-0.44476 0.67726,-0.76823c0.16847,-0.33021 0.25271,-0.70421 0.25271,-1.12202c0,-0.41107 -0.08424,-0.77833 -0.2527,-1.1018c-0.16173,-0.32347 -0.38749,-0.57617 -0.67725,-0.75812c-0.28303,-0.18869 -0.6166,-0.28303 -1.00072,-0.28303c-0.37064,0 -0.69747,0.09434 -0.9805,0.28303c-0.28303,0.18195 -0.50878,0.43466 -0.67725,0.75812c-0.16173,0.32347 -0.2426,0.69073 -0.2426,1.10181c0,0.41781 0.08087,0.79182 0.2426,1.12202c0.16847,0.32347 0.39423,0.57954 0.67726,0.76823c0.28303,0.18195 0.60987,0.27293 0.98051,0.27293zM147.49038,200.49376c-0.45151,0 -0.903,-0.07075 -1.35451,-0.21227c-0.44476,-0.14152 -0.80192,-0.32684 -1.07148,-0.55595l0.45487,-0.96028c0.16173,0.1213 0.35042,0.22575 0.56606,0.31336c0.21564,0.09434 0.44476,0.16847 0.68736,0.22238c0.2426,0.05391 0.48183,0.08087 0.71769,0.08087c0.43802,0 0.80529,-0.07413 1.10181,-0.22238c0.30325,-0.14152 0.529,-0.35379 0.67726,-0.63682c0.15499,-0.28303 0.23249,-0.63345 0.23249,-1.05126v-1.21299l0.13141,0.08087c-0.04043,0.24934 -0.17184,0.48857 -0.39422,0.71769c-0.22238,0.22912 -0.49867,0.41781 -0.82888,0.56606c-0.32347,0.14152 -0.66041,0.21228 -1.01083,0.21228c-0.59976,0 -1.1355,-0.14152 -1.60721,-0.42455c-0.47172,-0.28977 -0.84573,-0.68062 -1.12202,-1.17256c-0.26956,-0.49867 -0.40433,-1.06474 -0.40433,-1.69819c0,-0.63345 0.13478,-1.19615 0.40433,-1.68808c0.26956,-0.49867 0.63682,-0.88953 1.1018,-1.17256c0.47172,-0.28977 1.00409,-0.43465 1.59711,-0.43465c0.23586,0 0.46498,0.03033 0.68736,0.09098c0.22912,0.06065 0.44139,0.14489 0.63683,0.25271c0.19542,0.10782 0.36727,0.22575 0.51553,0.35379c0.15499,0.12804 0.27966,0.26619 0.37401,0.41444c0.10108,0.14152 0.16173,0.27629 0.18195,0.40433l-0.26282,0.10108v-1.48592h1.24332v5.95378c0,0.50541 -0.07413,0.95355 -0.22238,1.34441c-0.14826,0.39086 -0.3639,0.72106 -0.64693,0.99061c-0.28303,0.26956 -0.62671,0.47509 -1.03105,0.61661c-0.39759,0.14152 -0.8491,0.21228 -1.35451,0.21228zM147.53081,196.69304c0.39759,0 0.74801,-0.09097 1.05126,-0.27292c0.30999,-0.18869 0.54922,-0.44476 0.71769,-0.76823c0.16847,-0.32347 0.25271,-0.6941 0.25271,-1.11191c0,-0.41781 -0.08761,-0.78845 -0.26282,-1.11191c-0.17521,-0.33021 -0.41444,-0.58628 -0.71769,-0.76823c-0.29651,-0.18869 -0.64356,-0.28303 -1.04115,-0.28303c-0.38411,0 -0.7278,0.09434 -1.03105,0.28303c-0.30325,0.18869 -0.54248,0.44814 -0.71769,0.77834c-0.16847,0.32347 -0.2527,0.69073 -0.2527,1.10181c0,0.41107 0.08424,0.78171 0.25271,1.11191c0.17521,0.32347 0.41444,0.57954 0.71769,0.76823c0.30325,0.18195 0.64693,0.27293 1.03105,0.27293zM154.91902,197.83528c-0.51889,0 -0.99398,-0.14489 -1.42527,-0.43465c-0.43129,-0.28977 -0.77833,-0.68399 -1.04115,-1.18267c-0.25607,-0.49867 -0.38411,-1.06137 -0.38411,-1.68808c0,-0.64019 0.13141,-1.20625 0.39423,-1.69819c0.26282,-0.49194 0.61661,-0.87942 1.06137,-1.16245c0.45151,-0.28303 0.95355,-0.42455 1.50614,-0.42455c0.33021,0 0.63009,0.05054 0.89964,0.15163c0.27629,0.09434 0.51553,0.22912 0.71769,0.40433c0.20891,0.16847 0.37737,0.36727 0.50541,0.59639c0.13478,0.22238 0.21901,0.46161 0.25271,0.71769l-0.27292,-0.09097v-1.64765h1.25343v6.3379h-1.25343v-1.50613l0.28303,-0.09097c-0.04717,0.22238 -0.14489,0.43802 -0.29314,0.64693c-0.14826,0.20217 -0.33694,0.38411 -0.56606,0.54585c-0.22912,0.15499 -0.48183,0.28303 -0.75812,0.38411c-0.2763,0.09434 -0.56944,0.14152 -0.87942,0.14152zM155.24249,196.69304c0.38412,0 0.71769,-0.09097 1.00072,-0.27292c0.28977,-0.18869 0.51553,-0.44476 0.67726,-0.76823c0.16847,-0.33021 0.25271,-0.70421 0.25271,-1.12202c0,-0.41107 -0.08424,-0.77833 -0.2527,-1.1018c-0.16173,-0.32347 -0.38749,-0.57617 -0.67725,-0.75812c-0.28303,-0.18869 -0.61661,-0.28303 -1.00072,-0.28303c-0.37064,0 -0.69747,0.09434 -0.9805,0.28303c-0.28303,0.18195 -0.50878,0.43466 -0.67725,0.75812c-0.16173,0.32347 -0.2426,0.69073 -0.2426,1.10181c0,0.41781 0.08087,0.79182 0.2426,1.12202c0.16847,0.32347 0.39423,0.57954 0.67726,0.76823c0.28303,0.18195 0.60987,0.27293 0.98051,0.27293zM160.32495,197.71398v-6.33789h1.24332v6.3379zM160.93145,189.98114c-0.26282,0 -0.46835,-0.06739 -0.6166,-0.20217c-0.14152,-0.14152 -0.21227,-0.33694 -0.21227,-0.58628c0,-0.23586 0.07413,-0.42455 0.22238,-0.56606c0.14826,-0.14826 0.35042,-0.22238 0.6065,-0.22238c0.26282,0 0.46498,0.07076 0.6065,0.21228c0.14826,0.13478 0.22238,0.32684 0.22238,0.57618c0,0.23586 -0.07413,0.42792 -0.22238,0.57618c-0.14826,0.14152 -0.35042,0.21228 -0.6065,0.21228zM163.47805,197.71398v-6.33789h1.24332v1.30397l-0.22238,0.14152c0.08087,-0.27629 0.23923,-0.53237 0.47509,-0.76823c0.23586,-0.2426 0.51216,-0.43802 0.82888,-0.58628c0.32347,-0.14826 0.65367,-0.22238 0.99061,-0.22238c0.4852,0 0.88616,0.09434 1.20289,0.28303c0.32347,0.18869 0.56606,0.47846 0.7278,0.86931c0.16173,0.38411 0.2426,0.86931 0.2426,1.45559v3.86137h-1.24332v-3.7805c0,-0.35716 -0.04717,-0.65367 -0.14152,-0.88953c-0.09434,-0.2426 -0.2426,-0.41781 -0.44476,-0.52563c-0.20217,-0.10782 -0.45151,-0.15499 -0.74801,-0.14152c-0.2426,0 -0.46498,0.04043 -0.66715,0.1213c-0.20217,0.07413 -0.37737,0.18195 -0.52563,0.32347c-0.14826,0.13478 -0.26619,0.29314 -0.35379,0.47509c-0.08087,0.17521 -0.1213,0.36727 -0.1213,0.57618v3.84115h-0.6166c-0.10108,0 -0.20554,0 -0.31335,0c-0.10782,0 -0.21227,0 -0.31335,0zM171.16469,197.84538c-0.26282,0 -0.46835,-0.0775 -0.6166,-0.23249c-0.14152,-0.15499 -0.21227,-0.37737 -0.21227,-0.66715c0,-0.26956 0.07413,-0.48857 0.22238,-0.65704c0.15499,-0.16847 0.35716,-0.2527 0.6065,-0.2527c0.26956,0 0.47509,0.08087 0.61661,0.2426c0.14826,0.15499 0.22238,0.37737 0.22238,0.66715c0,0.26282 -0.0775,0.47846 -0.23249,0.64693c-0.15499,0.16847 -0.35716,0.25271 -0.6065,0.25271z" fill="#ffffff" fill-rule="nonzero"/></g></g></svg>