<svg version="1.1" xmlns="http://www.w3.org/2000/svg" xmlns:xlink="http://www.w3.org/1999/xlink" width="28.12824" height="28.12824" viewBox="0,0,28.12824,28.12824"><g transform="translate(-225.93588,-165.93588)"><g data-paper-data="{&quot;isPaintingLayer&quot;:true}" fill-rule="nonzero" stroke="none" stroke-linecap="butt" stroke-linejoin="miter" stroke-miterlimit="10" stroke-dasharray="" stroke-dashoffset="0" style="mix-blend-mode: normal"><path d="M225.93588,180c0,-7.7674 6.29672,-14.06412 14.06412,-14.06412c7.7674,0 14.06412,6.29672 14.06412,14.06412c0,7.7674 -6.29672,14.06412 -14.06412,14.06412c-7.7674,0 -14.06412,-6.29672 -14.06412,-14.06412z" fill-opacity="0.80645" fill="#303030" stroke-width="0"/><path d="M246.875,176.18056v9.16667c0,0.42014 -0.1496,0.7798 -0.44878,1.07899c-0.29919,0.29919 -0.65885,0.44878 -1.07899,0.44878h-10.69444c-0.42014,0 -0.7798,-0.1496 -1.07899,-0.44878c-0.29919,-0.29919 -0.44878,-0.65885 -0.44878,-1.07899v-10.69444c0,-0.42014 0.1496,-0.7798 0.44878,-1.07899c0.29919,-0.29919 0.65885,-0.44878 1.07899,-0.44878h9.16667zM245.34722,176.82986l-2.17708,-2.17708h-8.51736v10.69444h10.69444zM240,184.58333c0.63658,0 1.17766,-0.2228 1.62326,-0.6684c0.4456,-0.4456 0.6684,-0.98669 0.6684,-1.62326c0,-0.63658 -0.2228,-1.17766 -0.6684,-1.62326c-0.4456,-0.4456 -0.98669,-0.6684 -1.62326,-0.6684c-0.63658,0 -1.17766,0.2228 -1.62326,0.6684c-0.4456,0.4456 -0.6684,0.98669 -0.6684,1.62326c0,0.63658 0.2228,1.17766 0.6684,1.62326c0.4456,0.4456 0.98669,0.6684 1.62326,0.6684zM235.41667,178.47222h6.875v-3.05556h-6.875zM234.65278,176.82986v8.51736v-10.69444z" fill="#ffffff" stroke-width="1"/></g></g></svg>