<svg version="1.1" xmlns="http://www.w3.org/2000/svg" xmlns:xlink="http://www.w3.org/1999/xlink" width="25.45455" height="25.45455" viewBox="0,0,25.45455,25.45455"><g transform="translate(-227.27273,-167.27273)"><g data-paper-data="{&quot;isPaintingLayer&quot;:true}" fill-rule="nonzero" stroke="none" stroke-linecap="butt" stroke-linejoin="miter" stroke-miterlimit="10" stroke-dasharray="" stroke-dashoffset="0" style="mix-blend-mode: normal"><path d="M227.27273,180c0,-7.02908 5.69819,-12.72727 12.72727,-12.72727c7.02908,0 12.72727,5.69819 12.72727,12.72727c0,7.02908 -5.69819,12.72727 -12.72727,12.72727c-7.02908,0 -12.72727,-5.69819 -12.72727,-12.72727z" fill-opacity="0.59577" fill="#616161" stroke-width="0"/><path d="M233.63767,185.53131v-1.56973h1.56972v-5.49404c0,-0.43168 0.05559,-0.85681 0.16678,-1.2754c0.11119,-0.41859 0.27797,-0.81756 0.50035,-1.19692l1.17729,1.17729c-0.09157,0.2093 -0.16024,0.42187 -0.20602,0.6377c-0.04579,0.21584 -0.06868,0.43494 -0.06868,0.65732v5.49404h4.86615l-10.04625,-10.04625l1.09881,-1.09881l14.44148,14.44148l-1.09881,1.09881l-2.86475,-2.82551zM244.62575,182.50959l-1.56973,-1.56973v-2.47232c0,-0.86335 -0.3074,-1.60243 -0.92221,-2.21724c-0.61481,-0.61481 -1.35388,-0.92221 -2.21724,-0.92221c-0.34011,0 -0.66714,0.05233 -0.98108,0.15697c-0.31394,0.10465 -0.60172,0.26162 -0.86335,0.47092l-1.13805,-1.13805c0.26162,-0.2093 0.54286,-0.39243 0.84373,-0.54941c0.30087,-0.15697 0.62135,-0.2747 0.96146,-0.35319v-0.5494c0,-0.32703 0.11446,-0.605 0.34338,-0.83392c0.22892,-0.22892 0.50689,-0.34338 0.83392,-0.34338c0.32703,0 0.605,0.11446 0.83391,0.34338c0.22892,0.22892 0.34338,0.50689 0.34338,0.83392v0.5494c1.04649,0.26162 1.89675,0.8143 2.55081,1.65802c0.65405,0.84373 0.98108,1.80845 0.98108,2.89418zM239.91657,187.8859c-0.43168,0 -0.80122,-0.1537 -1.10862,-0.4611c-0.3074,-0.3074 -0.4611,-0.67694 -0.4611,-1.10862h3.13945c0,0.43168 -0.1537,0.80121 -0.4611,1.10862c-0.3074,0.3074 -0.67694,0.4611 -1.10862,0.4611z" fill="#ffffff" stroke-width="1"/></g></g></svg>