<svg version="1.1" xmlns="http://www.w3.org/2000/svg" xmlns:xlink="http://www.w3.org/1999/xlink" width="558.41002" height="342.42093" viewBox="0,0,558.41002,342.42093"><g transform="translate(178.15223,65.71391)"><g data-paper-data="{&quot;isPaintingLayer&quot;:true}" stroke="none" stroke-width="1" stroke-linejoin="miter" stroke-miterlimit="10" stroke-dasharray="" stroke-dashoffset="0" style="mix-blend-mode: normal"><path d="M99.74221,95.24792c0,-6.60253 5.35241,-11.95493 11.95493,-11.95493h256.60572c3.17065,0 6.21144,1.25953 8.45341,3.50151c2.24199,2.24198 3.50152,5.28276 3.50152,8.45341v169.50418c0,6.60253 -5.3524,11.95493 -11.95493,11.95493h-256.60572c-6.60252,0 -11.95493,-5.3524 -11.95493,-11.95493z" fill="#323232" fill-rule="evenodd" stroke-linecap="square"/><path d="M-152.38058,-65.71391h218.11023v42.01575h-218.11023z" fill-opacity="0" fill="#000000" fill-rule="evenodd" stroke-linecap="square"/><path d="M112.44755,104.24627v-10.26339h4.37054c0.5811,0 1.11719,0.14732 1.60826,0.44196c0.49925,0.28646 0.89621,0.67522 1.19085,1.16629c0.29464,0.49107 0.44196,1.04353 0.44196,1.65737c0,0.56473 -0.14732,1.08854 -0.44196,1.57143c-0.29464,0.4747 -0.6875,0.85528 -1.17857,1.14174c-0.48289,0.28646 -1.02307,0.42969 -1.62054,0.42969h-2.78683v3.85491zM118.54911,104.24627l-2.61496,-4.62835l1.63281,-0.3683l2.89732,5.00893zM114.03126,98.86904h2.93415c0.27827,0 0.5279,-0.06957 0.74888,-0.20871c0.22917,-0.14732 0.40513,-0.34375 0.5279,-0.58929c0.13095,-0.25372 0.19643,-0.532 0.19643,-0.83482c0,-0.34375 -0.08184,-0.64249 -0.24554,-0.89621c-0.1555,-0.26191 -0.37649,-0.46652 -0.66295,-0.61384c-0.28646,-0.14732 -0.61384,-0.22098 -0.98214,-0.22098h-2.51674zM125.5461,104.39359c-0.78571,0 -1.48549,-0.16778 -2.09933,-0.50335c-0.60566,-0.33557 -1.08445,-0.79799 -1.43638,-1.38728c-0.34375,-0.58929 -0.51563,-1.26451 -0.51563,-2.02567c0,-0.60566 0.09821,-1.15811 0.29464,-1.65737c0.19643,-0.49925 0.46652,-0.92894 0.81027,-1.28906c0.34375,-0.3683 0.75707,-0.65067 1.23996,-0.8471c0.49107,-0.20461 1.01897,-0.30692 1.58371,-0.30692c0.49925,0 0.96168,0.09412 1.38728,0.28237c0.43378,0.18825 0.80617,0.45015 1.11719,0.78571c0.3192,0.33557 0.56473,0.73251 0.73661,1.19085c0.17187,0.45015 0.25372,0.94122 0.24554,1.47321l-0.01228,0.65067h-6.28571l-0.34375,-1.20312h5.31585l-0.20871,0.24554v-0.34375c-0.03274,-0.32738 -0.14323,-0.61793 -0.33147,-0.87165c-0.18006,-0.25372 -0.41332,-0.45424 -0.69978,-0.60156c-0.28646,-0.14732 -0.59338,-0.22098 -0.92076,-0.22098c-0.532,0 -0.97805,0.10231 -1.33817,0.30692c-0.36012,0.19643 -0.6343,0.49107 -0.82254,0.88393c-0.18006,0.38467 -0.27009,0.85937 -0.27009,1.42411c0,0.532 0.11049,0.99851 0.33147,1.39955c0.22098,0.39286 0.53608,0.69978 0.94531,0.92076c0.41741,0.2128 0.89211,0.3192 1.42411,0.3192c0.38467,0 0.7407,-0.06138 1.06808,-0.18415c0.32738,-0.13095 0.68341,-0.36421 1.06808,-0.69978l0.76116,1.06808c-0.23735,0.23735 -0.52381,0.44606 -0.85937,0.62612c-0.33557,0.17188 -0.69159,0.31101 -1.06808,0.41741c-0.37649,0.09821 -0.74888,0.14732 -1.11719,0.14732zM133.11701,104.39359c-0.64658,0 -1.22768,-0.11049 -1.7433,-0.33147c-0.51562,-0.22917 -0.94531,-0.56473 -1.28906,-1.0067l1.01897,-0.87165c0.29464,0.33557 0.61384,0.5811 0.95759,0.73661c0.35193,0.14732 0.74888,0.22098 1.19085,0.22098c0.17188,0 0.33147,-0.02046 0.47879,-0.06138c0.1555,-0.04092 0.29055,-0.1064 0.40513,-0.19643c0.11458,-0.09003 0.20052,-0.19643 0.25781,-0.3192c0.05729,-0.12277 0.08594,-0.25781 0.08594,-0.40513c0,-0.25372 -0.09412,-0.45833 -0.28237,-0.61384c-0.09821,-0.06548 -0.25372,-0.13914 -0.46652,-0.22098c-0.20461,-0.08184 -0.4747,-0.16778 -0.81027,-0.25781c-0.56473,-0.14732 -1.02716,-0.31101 -1.38728,-0.49107c-0.36012,-0.18825 -0.63839,-0.40104 -0.83482,-0.63839c-0.14732,-0.18825 -0.25781,-0.38876 -0.33147,-0.60156c-0.06548,-0.22098 -0.09821,-0.46652 -0.09821,-0.73661c0,-0.3192 0.06957,-0.61384 0.20871,-0.88393c0.14732,-0.27009 0.34375,-0.50335 0.58929,-0.69978c0.25372,-0.20461 0.54836,-0.36012 0.88393,-0.46652c0.33557,-0.1064 0.69568,-0.1596 1.08036,-0.1596c0.36012,0 0.71615,0.04911 1.06808,0.14732c0.36012,0.09821 0.69159,0.24144 0.99442,0.42969c0.30283,0.18006 0.55654,0.39695 0.76115,0.65067l-0.85937,0.95759c-0.18825,-0.18825 -0.39286,-0.35193 -0.61384,-0.49107c-0.22098,-0.13914 -0.44606,-0.24554 -0.67522,-0.3192c-0.22098,-0.08184 -0.4215,-0.12277 -0.60156,-0.12277c-0.20461,0 -0.39286,0.02046 -0.56473,0.06138c-0.16369,0.03274 -0.30283,0.09003 -0.41741,0.17187c-0.1064,0.07366 -0.19233,0.17188 -0.25781,0.29464c-0.05729,0.11458 -0.08594,0.24554 -0.08594,0.39286c0.00818,0.12277 0.04092,0.24144 0.09821,0.35603c0.05729,0.11458 0.13504,0.20871 0.23326,0.28237c0.1064,0.08184 0.266,0.16778 0.47879,0.25781c0.2128,0.08184 0.48698,0.16369 0.82254,0.24554c0.48289,0.12277 0.88393,0.26191 1.20313,0.41741c0.3192,0.14732 0.57292,0.3192 0.76116,0.51562c0.19642,0.18825 0.33147,0.40513 0.40513,0.65067c0.08184,0.24554 0.12277,0.51972 0.12277,0.82254c0,0.43378 -0.12686,0.82664 -0.38057,1.17857c-0.24554,0.34375 -0.5811,0.61384 -1.0067,0.81027c-0.41741,0.19643 -0.88393,0.29464 -1.39955,0.29464zM141.15738,104.39359c-0.78571,0 -1.48549,-0.16778 -2.09933,-0.50335c-0.60566,-0.33557 -1.08445,-0.79799 -1.43638,-1.38728c-0.34375,-0.58929 -0.51562,-1.26451 -0.51562,-2.02567c0,-0.60566 0.09821,-1.15811 0.29464,-1.65737c0.19643,-0.49925 0.46652,-0.92894 0.81027,-1.28906c0.34375,-0.3683 0.75707,-0.65067 1.23996,-0.8471c0.49107,-0.20461 1.01897,-0.30692 1.58371,-0.30692c0.49925,0 0.96168,0.09412 1.38728,0.28237c0.43378,0.18825 0.80617,0.45015 1.11719,0.78571c0.3192,0.33557 0.56473,0.73251 0.73661,1.19085c0.17187,0.45015 0.25372,0.94122 0.24554,1.47321l-0.01228,0.65067h-6.28571l-0.34375,-1.20312h5.31585l-0.20871,0.24554v-0.34375c-0.03274,-0.32738 -0.14323,-0.61793 -0.33147,-0.87165c-0.18006,-0.25372 -0.41332,-0.45424 -0.69978,-0.60156c-0.28646,-0.14732 -0.59338,-0.22098 -0.92076,-0.22098c-0.532,0 -0.97805,0.10231 -1.33817,0.30692c-0.36012,0.19643 -0.6343,0.49107 -0.82254,0.88393c-0.18006,0.38467 -0.27009,0.85937 -0.27009,1.42411c0,0.532 0.11049,0.99851 0.33147,1.39955c0.22098,0.39286 0.53609,0.69978 0.94531,0.92076c0.41741,0.2128 0.89211,0.3192 1.42411,0.3192c0.38467,0 0.7407,-0.06138 1.06808,-0.18415c0.32738,-0.13095 0.68341,-0.36421 1.06808,-0.69978l0.76116,1.06808c-0.23735,0.23735 -0.52381,0.44606 -0.85937,0.62612c-0.33557,0.17188 -0.69159,0.31101 -1.06808,0.41741c-0.37649,0.09821 -0.74888,0.14732 -1.11719,0.14732zM147.12003,104.24627v-9.66183h1.51004v9.66183zM145.51177,98.02194v-1.47321h4.89844v1.47321zM156.27626,104.24627v-10.26339h4.17411c0.55655,0 1.0599,0.13914 1.51004,0.41741c0.45833,0.27827 0.82254,0.65885 1.09263,1.14174c0.27827,0.4747 0.41741,1.0067 0.41741,1.59598c0,0.58929 -0.13914,1.12537 -0.41741,1.60826c-0.27009,0.4747 -0.6343,0.85528 -1.09263,1.14174c-0.45015,0.28646 -0.9535,0.42969 -1.51004,0.42969h-2.5904v3.92857zM157.85996,98.79538h2.56585c0.26191,0 0.49925,-0.07366 0.71205,-0.22098c0.22098,-0.1555 0.39695,-0.35603 0.5279,-0.60156c0.13095,-0.25372 0.19643,-0.532 0.19643,-0.83482c0,-0.30283 -0.06548,-0.57701 -0.19643,-0.82254c-0.13095,-0.24554 -0.30692,-0.44196 -0.5279,-0.58929c-0.2128,-0.14732 -0.45015,-0.22098 -0.71205,-0.22098h-2.56585zM168.0012,104.39359c-0.63021,0 -1.20722,-0.17597 -1.73103,-0.5279c-0.52381,-0.35193 -0.94531,-0.83073 -1.26451,-1.43638c-0.31101,-0.60566 -0.46652,-1.28906 -0.46652,-2.05022c0,-0.77753 0.1596,-1.46503 0.47879,-2.0625c0.3192,-0.59747 0.74888,-1.06808 1.28906,-1.41183c0.54836,-0.34375 1.15811,-0.51563 1.82924,-0.51563c0.40104,0 0.76525,0.06138 1.09263,0.18415c0.33557,0.11458 0.62612,0.27827 0.87165,0.49107c0.25372,0.20461 0.45833,0.44606 0.61384,0.72433c0.16369,0.27009 0.266,0.56064 0.30692,0.87165l-0.33147,-0.11049v-2.00112h1.52232v7.69754h-1.52232v-1.82924l0.34375,-0.11049c-0.05729,0.27009 -0.17597,0.532 -0.35603,0.78571c-0.18006,0.24554 -0.40923,0.46652 -0.6875,0.66295c-0.27827,0.18825 -0.58519,0.34375 -0.92076,0.46652c-0.33557,0.11458 -0.69159,0.17187 -1.06808,0.17187zM168.39405,103.00631c0.46652,0 0.87165,-0.11049 1.2154,-0.33147c0.35193,-0.22917 0.62612,-0.54018 0.82254,-0.93304c0.20461,-0.40104 0.30692,-0.85528 0.30692,-1.36272c0,-0.49925 -0.10231,-0.94531 -0.30692,-1.33817c-0.19643,-0.39286 -0.47061,-0.69978 -0.82254,-0.92076c-0.34375,-0.22917 -0.74888,-0.34375 -1.2154,-0.34375c-0.45015,0 -0.8471,0.11458 -1.19085,0.34375c-0.34375,0.22098 -0.61793,0.5279 -0.82254,0.92076c-0.19643,0.39286 -0.29464,0.83892 -0.29464,1.33817c0,0.50744 0.09821,0.96168 0.29464,1.36272c0.20461,0.39286 0.47879,0.70387 0.82254,0.93304c0.34375,0.22098 0.7407,0.33147 1.19085,0.33147zM176.88716,104.39359c-0.64658,0 -1.22768,-0.11049 -1.7433,-0.33147c-0.51562,-0.22917 -0.94531,-0.56473 -1.28906,-1.0067l1.01897,-0.87165c0.29464,0.33557 0.61384,0.5811 0.95759,0.73661c0.35193,0.14732 0.74888,0.22098 1.19085,0.22098c0.17187,0 0.33147,-0.02046 0.47879,-0.06138c0.1555,-0.04092 0.29055,-0.1064 0.40513,-0.19643c0.11458,-0.09003 0.20052,-0.19643 0.25781,-0.3192c0.05729,-0.12277 0.08594,-0.25781 0.08594,-0.40513c0,-0.25372 -0.09412,-0.45833 -0.28237,-0.61384c-0.09821,-0.06548 -0.25372,-0.13914 -0.46652,-0.22098c-0.20461,-0.08184 -0.4747,-0.16778 -0.81027,-0.25781c-0.56473,-0.14732 -1.02716,-0.31101 -1.38728,-0.49107c-0.36012,-0.18825 -0.63839,-0.40104 -0.83482,-0.63839c-0.14732,-0.18825 -0.25781,-0.38876 -0.33147,-0.60156c-0.06548,-0.22098 -0.09821,-0.46652 -0.09821,-0.73661c0,-0.3192 0.06957,-0.61384 0.20871,-0.88393c0.14732,-0.27009 0.34375,-0.50335 0.58929,-0.69978c0.25372,-0.20461 0.54836,-0.36012 0.88393,-0.46652c0.33557,-0.1064 0.69568,-0.1596 1.08036,-0.1596c0.36012,0 0.71615,0.04911 1.06808,0.14732c0.36012,0.09821 0.69159,0.24144 0.99442,0.42969c0.30283,0.18006 0.55655,0.39695 0.76116,0.65067l-0.85938,0.95759c-0.18825,-0.18825 -0.39286,-0.35193 -0.61384,-0.49107c-0.22098,-0.13914 -0.44606,-0.24554 -0.67522,-0.3192c-0.22098,-0.08184 -0.4215,-0.12277 -0.60156,-0.12277c-0.20461,0 -0.39286,0.02046 -0.56473,0.06138c-0.16369,0.03274 -0.30283,0.09003 -0.41741,0.17187c-0.1064,0.07366 -0.19234,0.17188 -0.25781,0.29464c-0.05729,0.11458 -0.08594,0.24554 -0.08594,0.39286c0.00818,0.12277 0.04092,0.24144 0.09821,0.35603c0.05729,0.11458 0.13504,0.20871 0.23326,0.28237c0.1064,0.08184 0.266,0.16778 0.47879,0.25781c0.2128,0.08184 0.48698,0.16369 0.82254,0.24554c0.48289,0.12277 0.88393,0.26191 1.20312,0.41741c0.3192,0.14732 0.57292,0.3192 0.76116,0.51562c0.19643,0.18825 0.33147,0.40513 0.40513,0.65067c0.08184,0.24554 0.12277,0.51972 0.12277,0.82254c0,0.43378 -0.12686,0.82664 -0.38058,1.17857c-0.24554,0.34375 -0.5811,0.61384 -1.0067,0.81027c-0.41741,0.19643 -0.88393,0.29464 -1.39955,0.29464zM183.90857,104.39359c-0.64658,0 -1.22768,-0.11049 -1.7433,-0.33147c-0.51563,-0.22917 -0.94531,-0.56473 -1.28906,-1.0067l1.01897,-0.87165c0.29464,0.33557 0.61384,0.5811 0.95759,0.73661c0.35193,0.14732 0.74888,0.22098 1.19085,0.22098c0.17188,0 0.33147,-0.02046 0.47879,-0.06138c0.1555,-0.04092 0.29055,-0.1064 0.40513,-0.19643c0.11458,-0.09003 0.20052,-0.19643 0.25781,-0.3192c0.05729,-0.12277 0.08594,-0.25781 0.08594,-0.40513c0,-0.25372 -0.09412,-0.45833 -0.28237,-0.61384c-0.09821,-0.06548 -0.25372,-0.13914 -0.46652,-0.22098c-0.20461,-0.08184 -0.4747,-0.16778 -0.81027,-0.25781c-0.56473,-0.14732 -1.02716,-0.31101 -1.38728,-0.49107c-0.36012,-0.18825 -0.63839,-0.40104 -0.83482,-0.63839c-0.14732,-0.18825 -0.25781,-0.38876 -0.33147,-0.60156c-0.06548,-0.22098 -0.09821,-0.46652 -0.09821,-0.73661c0,-0.3192 0.06957,-0.61384 0.20871,-0.88393c0.14732,-0.27009 0.34375,-0.50335 0.58929,-0.69978c0.25372,-0.20461 0.54836,-0.36012 0.88393,-0.46652c0.33557,-0.1064 0.69568,-0.1596 1.08036,-0.1596c0.36012,0 0.71615,0.04911 1.06808,0.14732c0.36012,0.09821 0.69159,0.24144 0.99442,0.42969c0.30283,0.18006 0.55655,0.39695 0.76116,0.65067l-0.85937,0.95759c-0.18825,-0.18825 -0.39286,-0.35193 -0.61384,-0.49107c-0.22098,-0.13914 -0.44606,-0.24554 -0.67522,-0.3192c-0.22098,-0.08184 -0.4215,-0.12277 -0.60156,-0.12277c-0.20461,0 -0.39286,0.02046 -0.56473,0.06138c-0.16369,0.03274 -0.30283,0.09003 -0.41741,0.17187c-0.1064,0.07366 -0.19233,0.17188 -0.25781,0.29464c-0.05729,0.11458 -0.08594,0.24554 -0.08594,0.39286c0.00818,0.12277 0.04092,0.24144 0.09821,0.35603c0.05729,0.11458 0.13504,0.20871 0.23326,0.28237c0.1064,0.08184 0.266,0.16778 0.47879,0.25781c0.2128,0.08184 0.48698,0.16369 0.82254,0.24554c0.48289,0.12277 0.88393,0.26191 1.20313,0.41741c0.3192,0.14732 0.57292,0.3192 0.76116,0.51562c0.19643,0.18825 0.33147,0.40513 0.40513,0.65067c0.08184,0.24554 0.12277,0.51972 0.12277,0.82254c0,0.43378 -0.12686,0.82664 -0.38058,1.17857c-0.24554,0.34375 -0.5811,0.61384 -1.0067,0.81027c-0.41741,0.19643 -0.88393,0.29464 -1.39955,0.29464zM190.25475,104.24627l-2.62723,-7.69754l1.52232,-0.01228l1.87835,5.75781l-0.33147,-0.02455l2.03795,-4.50558h0.90848l2.05022,4.51786l-0.39286,0.02455l1.89063,-5.75781h1.52232l-2.5904,7.69754h-1.04353l-2.14844,-4.89844l0.34375,0.04911l-1.98884,4.84933zM203.33297,104.39359c-0.75298,0 -1.4282,-0.17187 -2.02567,-0.51562c-0.58929,-0.35193 -1.0558,-0.82664 -1.39955,-1.42411c-0.33557,-0.60566 -0.50335,-1.29316 -0.50335,-2.0625c0,-0.76934 0.16778,-1.45275 0.50335,-2.05022c0.34375,-0.60566 0.81027,-1.08036 1.39955,-1.42411c0.59747,-0.35193 1.27269,-0.5279 2.02567,-0.5279c0.73661,0 1.39955,0.17597 1.98884,0.5279c0.59747,0.34375 1.06808,0.81845 1.41183,1.42411c0.34375,0.59747 0.51562,1.28088 0.51562,2.05022c0,0.76934 -0.17187,1.45684 -0.51562,2.0625c-0.34375,0.59747 -0.81436,1.07217 -1.41183,1.42411c-0.58929,0.34375 -1.25223,0.51563 -1.98884,0.51563zM203.33297,103.01859c0.45833,0 0.86756,-0.11458 1.22768,-0.34375c0.36012,-0.22917 0.64249,-0.54018 0.8471,-0.93304c0.20461,-0.40104 0.30283,-0.85119 0.29464,-1.35045c0.00818,-0.50744 -0.09003,-0.95759 -0.29464,-1.35045c-0.20461,-0.40104 -0.48698,-0.71205 -0.8471,-0.93304c-0.36012,-0.22917 -0.76934,-0.34375 -1.22768,-0.34375c-0.45833,0 -0.87165,0.11458 -1.23996,0.34375c-0.3683,0.22917 -0.65476,0.54427 -0.85937,0.94531c-0.20461,0.39286 -0.30283,0.83892 -0.29464,1.33817c-0.00818,0.49925 0.09003,0.94941 0.29464,1.35045c0.20461,0.39286 0.49107,0.70387 0.85938,0.93304c0.3683,0.22917 0.78162,0.34375 1.23996,0.34375zM208.88589,104.24627v-7.69754h1.52232v2.41853l-0.14732,-0.58929c0.1064,-0.3683 0.29055,-0.70387 0.55246,-1.0067c0.26191,-0.30283 0.56064,-0.54018 0.89621,-0.71205c0.33557,-0.18006 0.68341,-0.27009 1.04353,-0.27009c0.16369,0 0.3192,0.01637 0.46652,0.04911c0.1555,0.02455 0.27827,0.05729 0.3683,0.09821l-0.39286,1.64509c-0.11458,-0.04911 -0.24554,-0.09003 -0.39286,-0.12277c-0.13914,-0.04092 -0.27827,-0.06138 -0.41741,-0.06138c-0.26191,0 -0.51153,0.0532 -0.74888,0.1596c-0.23735,0.09821 -0.45015,0.24144 -0.63839,0.42969c-0.18006,0.18006 -0.32329,0.38876 -0.42969,0.62612c-0.1064,0.23735 -0.1596,0.49925 -0.1596,0.78571v4.24777zM217.67483,104.39359c-0.70387,0 -1.32999,-0.17187 -1.87835,-0.51562c-0.54836,-0.35193 -0.98624,-0.82664 -1.31362,-1.42411c-0.3192,-0.60566 -0.47879,-1.29316 -0.47879,-2.0625c0,-0.76934 0.1555,-1.45275 0.46652,-2.05022c0.3192,-0.60566 0.75298,-1.08036 1.30134,-1.42411c0.54836,-0.35193 1.17039,-0.5279 1.86607,-0.5279c0.37649,0 0.74479,0.06138 1.10491,0.18415c0.36012,0.12277 0.67932,0.29055 0.95759,0.50335c0.28646,0.20461 0.50744,0.43378 0.66295,0.6875c0.16369,0.24554 0.24554,0.49516 0.24554,0.74888l-0.44196,0.03683v-5.15625h1.51004v10.85268h-1.51004v-1.82924h0.29464c0,0.22917 -0.07775,0.46242 -0.23326,0.69978c-0.1555,0.22917 -0.36421,0.44196 -0.62612,0.63839c-0.25372,0.18825 -0.55246,0.34375 -0.89621,0.46652c-0.33557,0.11458 -0.67932,0.17187 -1.03125,0.17187zM217.88354,103.09225c0.45833,0 0.86347,-0.11867 1.2154,-0.35603c0.35193,-0.23735 0.62612,-0.55655 0.82254,-0.95759c0.20461,-0.40923 0.30692,-0.87165 0.30692,-1.38728c0,-0.51563 -0.10231,-0.97396 -0.30692,-1.375c-0.19643,-0.40923 -0.47061,-0.73251 -0.82254,-0.96987c-0.35193,-0.23735 -0.75707,-0.35603 -1.2154,-0.35603c-0.45833,0 -0.86347,0.11867 -1.2154,0.35603c-0.35193,0.23735 -0.63021,0.56064 -0.83482,0.96987c-0.19643,0.40104 -0.29464,0.85938 -0.29464,1.375c0,0.51562 0.09821,0.97805 0.29464,1.38728c0.20461,0.40104 0.48289,0.72024 0.83482,0.95759c0.35193,0.23735 0.75707,0.35603 1.2154,0.35603z" fill="#ffffff" fill-rule="nonzero" stroke-linecap="square"/><path d="M-178.15223,21.56168h445.88974v42.01575h-445.88974z" fill-opacity="0" fill="#000000" fill-rule="evenodd" stroke-linecap="square"/><path d="M128.67589,165.1739v-7.91811h1.22181v7.91811zM129.21577,161.80208v-1.17446h4.08218v1.17446zM129.21577,158.43025v-1.17446h4.59364v1.17446zM137.69144,165.28756c-0.58092,0 -1.10184,-0.1326 -1.56278,-0.3978c-0.45463,-0.27151 -0.81454,-0.63774 -1.07974,-1.09869c-0.25889,-0.46726 -0.38833,-0.99766 -0.38833,-1.5912c0,-0.59354 0.12944,-1.12079 0.38833,-1.58173c0.2652,-0.46726 0.62511,-0.83349 1.07974,-1.09869c0.46094,-0.27151 0.98187,-0.40727 1.56278,-0.40727c0.56829,0 1.07974,0.13576 1.53437,0.40727c0.46094,0.2652 0.82401,0.63143 1.08921,1.09869c0.2652,0.46094 0.3978,0.98819 0.3978,1.58173c0,0.59354 -0.1326,1.12394 -0.3978,1.5912c-0.2652,0.46094 -0.62827,0.82717 -1.08921,1.09869c-0.45463,0.2652 -0.96609,0.3978 -1.53437,0.3978zM137.69144,164.22676c0.3536,0 0.66931,-0.0884 0.94714,-0.2652c0.27783,-0.1768 0.49567,-0.41674 0.65353,-0.71983c0.15786,-0.3094 0.23363,-0.65669 0.22731,-1.04186c0.00631,-0.39149 -0.06946,-0.73877 -0.22731,-1.04186c-0.15786,-0.3094 -0.3757,-0.54934 -0.65353,-0.71983c-0.27783,-0.1768 -0.59354,-0.2652 -0.94714,-0.2652c-0.3536,0 -0.67247,0.0884 -0.95661,0.2652c-0.28414,0.1768 -0.50514,0.4199 -0.663,0.7293c-0.15786,0.30309 -0.23363,0.64721 -0.22731,1.03239c-0.00631,0.38517 0.06946,0.73246 0.22731,1.04186c0.15786,0.30309 0.37886,0.54303 0.663,0.71983c0.28414,0.1768 0.60301,0.2652 0.95661,0.2652zM141.99441,165.1739v-8.37274h1.16499v8.37274zM144.83294,165.1739v-8.37274h1.16499v8.37274zM150.21032,165.28756c-0.58092,0 -1.10184,-0.1326 -1.56278,-0.3978c-0.45463,-0.27151 -0.81454,-0.63774 -1.07974,-1.09869c-0.25889,-0.46726 -0.38833,-0.99766 -0.38833,-1.5912c0,-0.59354 0.12944,-1.12079 0.38833,-1.58173c0.2652,-0.46726 0.62511,-0.83349 1.07974,-1.09869c0.46094,-0.27151 0.98187,-0.40727 1.56278,-0.40727c0.56829,0 1.07974,0.13576 1.53437,0.40727c0.46094,0.2652 0.82401,0.63143 1.08921,1.09869c0.2652,0.46094 0.3978,0.98819 0.3978,1.58173c0,0.59354 -0.1326,1.12394 -0.3978,1.5912c-0.2652,0.46094 -0.62827,0.82717 -1.08921,1.09869c-0.45463,0.2652 -0.96609,0.3978 -1.53437,0.3978zM150.21032,164.22676c0.3536,0 0.66931,-0.0884 0.94714,-0.2652c0.27783,-0.1768 0.49567,-0.41674 0.65353,-0.71983c0.15786,-0.3094 0.23363,-0.65669 0.22731,-1.04186c0.00631,-0.39149 -0.06946,-0.73877 -0.22731,-1.04186c-0.15786,-0.3094 -0.3757,-0.54934 -0.65353,-0.71983c-0.27783,-0.1768 -0.59354,-0.2652 -0.94714,-0.2652c-0.3536,0 -0.67247,0.0884 -0.95661,0.2652c-0.28414,0.1768 -0.50514,0.4199 -0.663,0.7293c-0.15786,0.30309 -0.23363,0.64721 -0.22731,1.03239c-0.00631,0.38517 0.06946,0.73246 0.22731,1.04186c0.15786,0.30309 0.37886,0.54303 0.663,0.71983c0.28414,0.1768 0.60301,0.2652 0.95661,0.2652zM155.72664,165.1739l-2.02688,-5.93858l1.17446,-0.00947l1.44913,4.4421l-0.25573,-0.01894l1.57226,-3.47601h0.70089l1.58173,3.48548l-0.30309,0.01894l1.4586,-4.4421h1.17445l-1.99847,5.93858h-0.80507l-1.6575,-3.7791l0.2652,0.03789l-1.53437,3.74121zM167.2204,165.1739v-7.45401h1.16499v7.45401zM165.97965,160.37189v-1.13657h3.7791v1.13657zM170.82424,165.1739v-8.37274h1.16499v3.65597l-0.20837,0.1326c0.07577,-0.25889 0.22416,-0.49883 0.44516,-0.71983c0.221,-0.22731 0.47988,-0.41043 0.77666,-0.54934c0.30309,-0.13891 0.61248,-0.20837 0.9282,-0.20837c0.45463,0 0.83033,0.0884 1.1271,0.2652c0.30309,0.1768 0.5304,0.44832 0.68194,0.81454c0.15154,0.35991 0.22731,0.81454 0.22731,1.36389v3.61808h-1.16499v-3.54231c0,-0.33466 -0.0442,-0.61248 -0.1326,-0.83349c-0.0884,-0.22731 -0.22731,-0.39149 -0.41674,-0.49251c-0.18943,-0.10103 -0.42306,-0.14523 -0.70089,-0.1326c-0.22731,0 -0.43569,0.03789 -0.62511,0.11366c-0.18943,0.06946 -0.3536,0.17049 -0.49251,0.30309c-0.13891,0.12629 -0.24942,0.27467 -0.3315,0.44516c-0.07577,0.16417 -0.11366,0.34413 -0.11366,0.53987v3.59914h-0.57776c-0.09471,0 -0.19259,0 -0.29361,0c-0.10103,0 -0.1989,0 -0.29361,0zM180.31868,165.28756c-0.60617,0 -1.14604,-0.12944 -1.61961,-0.38833c-0.46726,-0.25889 -0.83664,-0.61564 -1.10816,-1.07027c-0.2652,-0.45463 -0.3978,-0.97556 -0.3978,-1.56278c0,-0.46726 0.07577,-0.89347 0.22731,-1.27864c0.15154,-0.38517 0.35991,-0.71667 0.62511,-0.9945c0.2652,-0.28414 0.58407,-0.50199 0.95661,-0.65353c0.37886,-0.15786 0.78613,-0.23679 1.22181,-0.23679c0.38517,0 0.74193,0.07261 1.07027,0.21784c0.33466,0.14523 0.62196,0.34728 0.8619,0.60617c0.24626,0.25889 0.43569,0.56513 0.56829,0.91873c0.1326,0.34728 0.19574,0.72614 0.18943,1.13657l-0.00947,0.50199h-4.84937l-0.2652,-0.9282h4.10113l-0.16101,0.18943v-0.2652c-0.02526,-0.25257 -0.1105,-0.47673 -0.25573,-0.67247c-0.13891,-0.19574 -0.31887,-0.35044 -0.53987,-0.4641c-0.221,-0.11366 -0.45779,-0.17049 -0.71036,-0.17049c-0.41043,0 -0.75456,0.07893 -1.03239,0.23679c-0.27783,0.15154 -0.48936,0.37886 -0.63459,0.68194c-0.13891,0.29677 -0.20837,0.663 -0.20837,1.09869c0,0.41043 0.08524,0.77034 0.25573,1.07974c0.17049,0.30309 0.41358,0.53987 0.7293,0.71036c0.32203,0.16417 0.68826,0.24626 1.09869,0.24626c0.29677,0 0.57144,-0.04736 0.82401,-0.14207c0.25257,-0.10103 0.52724,-0.28098 0.82401,-0.53987l0.58723,0.82401c-0.18312,0.18312 -0.40411,0.34413 -0.663,0.48304c-0.25889,0.1326 -0.53356,0.23994 -0.82401,0.32203c-0.29046,0.07577 -0.57776,0.11366 -0.8619,0.11366zM186.15956,165.28756c-0.49883,0 -0.94714,-0.08524 -1.34494,-0.25573c-0.3978,-0.1768 -0.7293,-0.43569 -0.9945,-0.77666l0.78613,-0.67247c0.22731,0.25889 0.47357,0.44832 0.73877,0.56829c0.27151,0.11366 0.57776,0.17049 0.91873,0.17049c0.1326,0 0.25573,-0.01578 0.36939,-0.04736c0.11997,-0.03157 0.22416,-0.08208 0.31256,-0.15154c0.0884,-0.06946 0.1547,-0.15154 0.1989,-0.24626c0.0442,-0.09471 0.0663,-0.1989 0.0663,-0.31256c0,-0.19574 -0.07261,-0.3536 -0.21784,-0.47357c-0.07577,-0.05052 -0.19574,-0.10734 -0.35991,-0.17049c-0.15786,-0.06314 -0.36623,-0.12944 -0.62511,-0.1989c-0.43569,-0.11366 -0.79244,-0.23994 -1.07027,-0.37886c-0.27783,-0.14523 -0.49251,-0.3094 -0.64406,-0.49251c-0.11366,-0.14523 -0.1989,-0.29993 -0.25573,-0.4641c-0.05052,-0.17049 -0.07577,-0.35991 -0.07577,-0.56829c0,-0.24626 0.05367,-0.47357 0.16101,-0.68194c0.11366,-0.20837 0.2652,-0.38833 0.45463,-0.53987c0.19574,-0.15786 0.42306,-0.27783 0.68194,-0.35991c0.25889,-0.08208 0.53671,-0.12313 0.83349,-0.12313c0.27783,0 0.5525,0.03789 0.82401,0.11366c0.27783,0.07577 0.53356,0.18627 0.76719,0.3315c0.23363,0.13891 0.42937,0.30624 0.58723,0.50199l-0.663,0.73877c-0.14523,-0.14523 -0.30309,-0.27151 -0.47357,-0.37886c-0.17049,-0.10734 -0.34413,-0.18943 -0.52093,-0.24626c-0.17049,-0.06314 -0.32519,-0.09471 -0.4641,-0.09471c-0.15786,0 -0.30309,0.01578 -0.43569,0.04736c-0.12629,0.02526 -0.23363,0.06946 -0.32203,0.1326c-0.08208,0.05683 -0.14838,0.1326 -0.1989,0.22731c-0.0442,0.0884 -0.0663,0.18943 -0.0663,0.30309c0.00631,0.09471 0.03157,0.18627 0.07577,0.27467c0.0442,0.0884 0.10419,0.16101 0.17996,0.21784c0.08208,0.06314 0.20521,0.12944 0.36939,0.1989c0.16417,0.06314 0.3757,0.12629 0.63459,0.18943c0.37254,0.09471 0.68194,0.20206 0.9282,0.32203c0.24626,0.11366 0.442,0.24626 0.58723,0.3978c0.15154,0.14523 0.25573,0.31256 0.31256,0.50199c0.06314,0.18943 0.09471,0.40096 0.09471,0.63459c0,0.33466 -0.09787,0.63774 -0.29361,0.90926c-0.18943,0.2652 -0.44832,0.47357 -0.77666,0.62511c-0.32203,0.15154 -0.68194,0.22731 -1.07974,0.22731zM192.36264,165.28756c-0.60617,0 -1.14604,-0.12944 -1.61961,-0.38833c-0.46726,-0.25889 -0.83664,-0.61564 -1.10816,-1.07027c-0.2652,-0.45463 -0.3978,-0.97556 -0.3978,-1.56278c0,-0.46726 0.07577,-0.89347 0.22731,-1.27864c0.15154,-0.38517 0.35991,-0.71667 0.62511,-0.9945c0.2652,-0.28414 0.58407,-0.50199 0.95661,-0.65353c0.37886,-0.15786 0.78613,-0.23679 1.22181,-0.23679c0.38517,0 0.74193,0.07261 1.07027,0.21784c0.33466,0.14523 0.62196,0.34728 0.8619,0.60617c0.24626,0.25889 0.43569,0.56513 0.56829,0.91873c0.1326,0.34728 0.19574,0.72614 0.18943,1.13657l-0.00947,0.50199h-4.84937l-0.2652,-0.9282h4.10113l-0.16101,0.18943v-0.2652c-0.02526,-0.25257 -0.1105,-0.47673 -0.25573,-0.67247c-0.13891,-0.19574 -0.31887,-0.35044 -0.53987,-0.4641c-0.221,-0.11366 -0.45779,-0.17049 -0.71036,-0.17049c-0.41043,0 -0.75456,0.07893 -1.03239,0.23679c-0.27783,0.15154 -0.48936,0.37886 -0.63459,0.68194c-0.13891,0.29677 -0.20837,0.663 -0.20837,1.09869c0,0.41043 0.08524,0.77034 0.25573,1.07974c0.17049,0.30309 0.41358,0.53987 0.7293,0.71036c0.32203,0.16417 0.68826,0.24626 1.09869,0.24626c0.29677,0 0.57144,-0.04736 0.82401,-0.14207c0.25257,-0.10103 0.52724,-0.28098 0.82401,-0.53987l0.58723,0.82401c-0.18312,0.18312 -0.40411,0.34413 -0.663,0.48304c-0.25889,0.1326 -0.53356,0.23994 -0.82401,0.32203c-0.29046,0.07577 -0.57776,0.11366 -0.8619,0.11366zM201.37001,165.28756c-0.49883,0 -0.94714,-0.08524 -1.34494,-0.25573c-0.3978,-0.1768 -0.7293,-0.43569 -0.9945,-0.77666l0.78613,-0.67247c0.22731,0.25889 0.47357,0.44832 0.73877,0.56829c0.27151,0.11366 0.57776,0.17049 0.91873,0.17049c0.1326,0 0.25573,-0.01578 0.36939,-0.04736c0.11997,-0.03157 0.22416,-0.08208 0.31256,-0.15154c0.0884,-0.06946 0.1547,-0.15154 0.1989,-0.24626c0.0442,-0.09471 0.0663,-0.1989 0.0663,-0.31256c0,-0.19574 -0.07261,-0.3536 -0.21784,-0.47357c-0.07577,-0.05052 -0.19574,-0.10734 -0.35991,-0.17049c-0.15786,-0.06314 -0.36623,-0.12944 -0.62511,-0.1989c-0.43569,-0.11366 -0.79244,-0.23994 -1.07027,-0.37886c-0.27783,-0.14523 -0.49251,-0.3094 -0.64406,-0.49251c-0.11366,-0.14523 -0.1989,-0.29993 -0.25573,-0.4641c-0.05052,-0.17049 -0.07577,-0.35991 -0.07577,-0.56829c0,-0.24626 0.05367,-0.47357 0.16101,-0.68194c0.11366,-0.20837 0.2652,-0.38833 0.45463,-0.53987c0.19574,-0.15786 0.42306,-0.27783 0.68194,-0.35991c0.25889,-0.08208 0.53671,-0.12313 0.83349,-0.12313c0.27783,0 0.5525,0.03789 0.82401,0.11366c0.27783,0.07577 0.53356,0.18627 0.76719,0.3315c0.23363,0.13891 0.42937,0.30624 0.58723,0.50199l-0.663,0.73877c-0.14523,-0.14523 -0.30309,-0.27151 -0.47357,-0.37886c-0.17049,-0.10734 -0.34413,-0.18943 -0.52093,-0.24626c-0.17049,-0.06314 -0.32519,-0.09471 -0.4641,-0.09471c-0.15786,0 -0.30309,0.01578 -0.43569,0.04736c-0.12629,0.02526 -0.23363,0.06946 -0.32203,0.1326c-0.08208,0.05683 -0.14838,0.1326 -0.1989,0.22731c-0.0442,0.0884 -0.0663,0.18943 -0.0663,0.30309c0.00631,0.09471 0.03157,0.18627 0.07577,0.27467c0.0442,0.0884 0.10419,0.16101 0.17996,0.21784c0.08208,0.06314 0.20521,0.12944 0.36939,0.1989c0.16417,0.06314 0.3757,0.12629 0.63459,0.18943c0.37254,0.09471 0.68194,0.20206 0.9282,0.32203c0.24626,0.11366 0.442,0.24626 0.58723,0.3978c0.15154,0.14523 0.25573,0.31256 0.31256,0.50199c0.06314,0.18943 0.09471,0.40096 0.09471,0.63459c0,0.33466 -0.09787,0.63774 -0.29361,0.90926c-0.18943,0.2652 -0.44832,0.47357 -0.77666,0.62511c-0.32203,0.15154 -0.68194,0.22731 -1.07974,0.22731zM205.54621,165.1739v-7.45401h1.16499v7.45401zM204.30545,160.37189v-1.13657h3.7791v1.13657zM211.85912,165.28756c-0.60617,0 -1.14604,-0.12944 -1.61961,-0.38833c-0.46726,-0.25889 -0.83664,-0.61564 -1.10816,-1.07027c-0.2652,-0.45463 -0.3978,-0.97556 -0.3978,-1.56278c0,-0.46726 0.07577,-0.89347 0.22731,-1.27864c0.15154,-0.38517 0.35991,-0.71667 0.62511,-0.9945c0.2652,-0.28414 0.58407,-0.50199 0.95661,-0.65353c0.37886,-0.15786 0.78613,-0.23679 1.22181,-0.23679c0.38517,0 0.74193,0.07261 1.07027,0.21784c0.33466,0.14523 0.62196,0.34728 0.8619,0.60617c0.24626,0.25889 0.43569,0.56513 0.56829,0.91873c0.1326,0.34728 0.19574,0.72614 0.18943,1.13657l-0.00947,0.50199h-4.84937l-0.2652,-0.9282h4.10113l-0.16101,0.18943v-0.2652c-0.02526,-0.25257 -0.1105,-0.47673 -0.25573,-0.67247c-0.13891,-0.19574 -0.31887,-0.35044 -0.53987,-0.4641c-0.221,-0.11366 -0.45779,-0.17049 -0.71036,-0.17049c-0.41043,0 -0.75456,0.07893 -1.03239,0.23679c-0.27783,0.15154 -0.48936,0.37886 -0.63459,0.68194c-0.13891,0.29677 -0.20837,0.663 -0.20837,1.09869c0,0.41043 0.08524,0.77034 0.25573,1.07974c0.17049,0.30309 0.41358,0.53987 0.7293,0.71036c0.32203,0.16417 0.68826,0.24626 1.09869,0.24626c0.29677,0 0.57144,-0.04736 0.82401,-0.14207c0.25257,-0.10103 0.52724,-0.28098 0.82401,-0.53987l0.58723,0.82401c-0.18312,0.18312 -0.40411,0.34413 -0.663,0.48304c-0.25889,0.1326 -0.53356,0.23994 -0.82401,0.32203c-0.29046,0.07577 -0.57776,0.11366 -0.8619,0.11366zM215.72048,167.66489v-8.42957h1.17446v1.35441l-0.17996,-0.09471c0.0442,-0.22731 0.17049,-0.44516 0.37886,-0.65353c0.21468,-0.20837 0.47357,-0.37886 0.77666,-0.51146c0.3094,-0.1326 0.62511,-0.1989 0.94714,-0.1989c0.53671,0 1.01028,0.1326 1.42071,0.3978c0.41674,0.2652 0.74508,0.62827 0.98503,1.08921c0.24626,0.46094 0.36939,0.98819 0.36939,1.58173c0,0.58723 -0.11997,1.11447 -0.35991,1.58173c-0.23994,0.46094 -0.56829,0.82717 -0.98503,1.09869c-0.41043,0.2652 -0.87453,0.3978 -1.3923,0.3978c-0.34728,0 -0.6851,-0.06946 -1.01344,-0.20837c-0.32203,-0.13891 -0.5967,-0.31887 -0.82401,-0.53987c-0.22731,-0.221 -0.36623,-0.44832 -0.41674,-0.68194l0.29361,-0.15154v3.96853zM218.65662,164.19835c0.34728,0 0.65669,-0.08524 0.9282,-0.25573c0.27151,-0.1768 0.4862,-0.41358 0.64406,-0.71036c0.15786,-0.30309 0.23679,-0.64721 0.23679,-1.03239c0,-0.38517 -0.07893,-0.72614 -0.23679,-1.02291c-0.15154,-0.29677 -0.36307,-0.5304 -0.63459,-0.70089c-0.2652,-0.1768 -0.57776,-0.2652 -0.93767,-0.2652c-0.3536,0 -0.66616,0.08524 -0.93767,0.25573c-0.27151,0.17049 -0.4862,0.40727 -0.64406,0.71036c-0.15786,0.29677 -0.23679,0.63774 -0.23679,1.02291c0,0.38517 0.07893,0.7293 0.23679,1.03239c0.15786,0.29677 0.37254,0.53356 0.64406,0.71036c0.27151,0.17049 0.58407,0.25573 0.93767,0.25573zM224.83591,165.28756c-0.49883,0 -0.94714,-0.08524 -1.34494,-0.25573c-0.3978,-0.1768 -0.7293,-0.43569 -0.9945,-0.77666l0.78613,-0.67247c0.22731,0.25889 0.47357,0.44832 0.73877,0.56829c0.27151,0.11366 0.57776,0.17049 0.91873,0.17049c0.1326,0 0.25573,-0.01578 0.36939,-0.04736c0.11997,-0.03157 0.22416,-0.08208 0.31256,-0.15154c0.0884,-0.06946 0.1547,-0.15154 0.1989,-0.24626c0.0442,-0.09471 0.0663,-0.1989 0.0663,-0.31256c0,-0.19574 -0.07261,-0.3536 -0.21784,-0.47357c-0.07577,-0.05052 -0.19574,-0.10734 -0.35991,-0.17049c-0.15786,-0.06314 -0.36623,-0.12944 -0.62511,-0.1989c-0.43569,-0.11366 -0.79244,-0.23994 -1.07027,-0.37886c-0.27783,-0.14523 -0.49251,-0.3094 -0.64406,-0.49251c-0.11366,-0.14523 -0.1989,-0.29993 -0.25573,-0.4641c-0.05052,-0.17049 -0.07577,-0.35991 -0.07577,-0.56829c0,-0.24626 0.05367,-0.47357 0.16101,-0.68194c0.11366,-0.20837 0.2652,-0.38833 0.45463,-0.53987c0.19574,-0.15786 0.42306,-0.27783 0.68194,-0.35991c0.25889,-0.08208 0.53671,-0.12313 0.83349,-0.12313c0.27783,0 0.5525,0.03789 0.82401,0.11366c0.27783,0.07577 0.53356,0.18627 0.76719,0.3315c0.23363,0.13891 0.42937,0.30624 0.58723,0.50199l-0.663,0.73877c-0.14523,-0.14523 -0.30309,-0.27151 -0.47357,-0.37886c-0.17049,-0.10734 -0.34413,-0.18943 -0.52093,-0.24626c-0.17049,-0.06314 -0.32519,-0.09471 -0.4641,-0.09471c-0.15786,0 -0.30309,0.01578 -0.43569,0.04736c-0.12629,0.02526 -0.23363,0.06946 -0.32203,0.1326c-0.08208,0.05683 -0.14838,0.1326 -0.1989,0.22731c-0.0442,0.0884 -0.0663,0.18943 -0.0663,0.30309c0.00631,0.09471 0.03157,0.18627 0.07577,0.27467c0.0442,0.0884 0.10419,0.16101 0.17996,0.21784c0.08208,0.06314 0.20521,0.12944 0.36939,0.1989c0.16417,0.06314 0.3757,0.12629 0.63459,0.18943c0.37254,0.09471 0.68194,0.20206 0.9282,0.32203c0.24626,0.11366 0.442,0.24626 0.58723,0.3978c0.15154,0.14523 0.25573,0.31256 0.31256,0.50199c0.06314,0.18943 0.09471,0.40096 0.09471,0.63459c0,0.33466 -0.09787,0.63774 -0.29361,0.90926c-0.18943,0.2652 -0.44832,0.47357 -0.77666,0.62511c-0.32203,0.15154 -0.68194,0.22731 -1.07974,0.22731zM232.17859,165.1739v-7.45401h1.16499v7.45401zM230.93784,160.37189v-1.13657h3.7791v1.13657zM238.3968,165.28756c-0.58092,0 -1.10184,-0.1326 -1.56278,-0.3978c-0.45463,-0.27151 -0.81454,-0.63774 -1.07974,-1.09869c-0.25889,-0.46726 -0.38833,-0.99766 -0.38833,-1.5912c0,-0.59354 0.12944,-1.12079 0.38833,-1.58173c0.2652,-0.46726 0.62511,-0.83349 1.07974,-1.09869c0.46094,-0.27151 0.98187,-0.40727 1.56278,-0.40727c0.56829,0 1.07974,0.13576 1.53437,0.40727c0.46094,0.2652 0.82401,0.63143 1.08921,1.09869c0.2652,0.46094 0.3978,0.98819 0.3978,1.58173c0,0.59354 -0.1326,1.12394 -0.3978,1.5912c-0.2652,0.46094 -0.62827,0.82717 -1.08921,1.09869c-0.45463,0.2652 -0.96609,0.3978 -1.53437,0.3978zM238.3968,164.22676c0.3536,0 0.66931,-0.0884 0.94714,-0.2652c0.27783,-0.1768 0.49567,-0.41674 0.65353,-0.71983c0.15786,-0.3094 0.23363,-0.65669 0.22731,-1.04186c0.00631,-0.39149 -0.06946,-0.73877 -0.22731,-1.04186c-0.15786,-0.3094 -0.3757,-0.54934 -0.65353,-0.71983c-0.27783,-0.1768 -0.59354,-0.2652 -0.94714,-0.2652c-0.3536,0 -0.67247,0.0884 -0.95661,0.2652c-0.28414,0.1768 -0.50514,0.4199 -0.663,0.7293c-0.15786,0.30309 -0.23363,0.64721 -0.22731,1.03239c-0.00631,0.38517 0.06946,0.73246 0.22731,1.04186c0.15786,0.30309 0.37886,0.54303 0.663,0.71983c0.28414,0.1768 0.60301,0.2652 0.95661,0.2652zM245.84731,165.1739v-5.93858h1.17446v1.86587l-0.11366,-0.45463c0.08208,-0.28414 0.22416,-0.54303 0.42621,-0.77666c0.20206,-0.23363 0.43253,-0.41674 0.69141,-0.54934c0.25889,-0.13891 0.52724,-0.20837 0.80507,-0.20837c0.12629,0 0.24626,0.01263 0.35991,0.03789c0.11997,0.01894 0.21468,0.0442 0.28414,0.07577l-0.30309,1.26917c-0.0884,-0.03789 -0.18943,-0.06946 -0.30309,-0.09471c-0.10734,-0.03157 -0.21468,-0.04736 -0.32203,-0.04736c-0.20206,0 -0.39464,0.04104 -0.57776,0.12313c-0.18312,0.07577 -0.34728,0.18627 -0.49251,0.3315c-0.13891,0.13891 -0.24942,0.29993 -0.3315,0.48304c-0.08208,0.18312 -0.12313,0.38517 -0.12313,0.60617v3.27711zM252.92152,165.28756c-0.60617,0 -1.14604,-0.12944 -1.61961,-0.38833c-0.46726,-0.25889 -0.83664,-0.61564 -1.10816,-1.07027c-0.2652,-0.45463 -0.3978,-0.97556 -0.3978,-1.56278c0,-0.46726 0.07577,-0.89347 0.22731,-1.27864c0.15154,-0.38517 0.35991,-0.71667 0.62511,-0.9945c0.2652,-0.28414 0.58407,-0.50199 0.95661,-0.65353c0.37886,-0.15786 0.78613,-0.23679 1.22181,-0.23679c0.38517,0 0.74193,0.07261 1.07027,0.21784c0.33466,0.14523 0.62196,0.34728 0.8619,0.60617c0.24626,0.25889 0.43569,0.56513 0.56829,0.91873c0.1326,0.34728 0.19574,0.72614 0.18943,1.13657l-0.00947,0.50199h-4.84937l-0.2652,-0.9282h4.10113l-0.16101,0.18943v-0.2652c-0.02526,-0.25257 -0.1105,-0.47673 -0.25573,-0.67247c-0.13891,-0.19574 -0.31887,-0.35044 -0.53987,-0.4641c-0.221,-0.11366 -0.45779,-0.17049 -0.71036,-0.17049c-0.41043,0 -0.75456,0.07893 -1.03239,0.23679c-0.27783,0.15154 -0.48936,0.37886 -0.63459,0.68194c-0.13891,0.29677 -0.20837,0.663 -0.20837,1.09869c0,0.41043 0.08524,0.77034 0.25573,1.07974c0.17049,0.30309 0.41358,0.53987 0.7293,0.71036c0.32203,0.16417 0.68826,0.24626 1.09869,0.24626c0.29677,0 0.57144,-0.04736 0.82401,-0.14207c0.25257,-0.10103 0.52724,-0.28098 0.82401,-0.53987l0.58723,0.82401c-0.18312,0.18312 -0.40411,0.34413 -0.663,0.48304c-0.25889,0.1326 -0.53356,0.23994 -0.82401,0.32203c-0.29046,0.07577 -0.57776,0.11366 -0.8619,0.11366zM258.76239,165.28756c-0.49883,0 -0.94714,-0.08524 -1.34494,-0.25573c-0.3978,-0.1768 -0.7293,-0.43569 -0.9945,-0.77666l0.78613,-0.67247c0.22731,0.25889 0.47357,0.44832 0.73877,0.56829c0.27151,0.11366 0.57776,0.17049 0.91873,0.17049c0.1326,0 0.25573,-0.01578 0.36939,-0.04736c0.11997,-0.03157 0.22416,-0.08208 0.31256,-0.15154c0.0884,-0.06946 0.1547,-0.15154 0.1989,-0.24626c0.0442,-0.09471 0.0663,-0.1989 0.0663,-0.31256c0,-0.19574 -0.07261,-0.3536 -0.21784,-0.47357c-0.07577,-0.05052 -0.19574,-0.10734 -0.35991,-0.17049c-0.15786,-0.06314 -0.36623,-0.12944 -0.62511,-0.1989c-0.43569,-0.11366 -0.79244,-0.23994 -1.07027,-0.37886c-0.27783,-0.14523 -0.49251,-0.3094 -0.64406,-0.49251c-0.11366,-0.14523 -0.1989,-0.29993 -0.25573,-0.4641c-0.05052,-0.17049 -0.07577,-0.35991 -0.07577,-0.56829c0,-0.24626 0.05367,-0.47357 0.16101,-0.68194c0.11366,-0.20837 0.2652,-0.38833 0.45463,-0.53987c0.19574,-0.15786 0.42306,-0.27783 0.68194,-0.35991c0.25889,-0.08208 0.53671,-0.12313 0.83349,-0.12313c0.27783,0 0.5525,0.03789 0.82401,0.11366c0.27783,0.07577 0.53356,0.18627 0.76719,0.3315c0.23363,0.13891 0.42937,0.30624 0.58723,0.50199l-0.663,0.73877c-0.14523,-0.14523 -0.30309,-0.27151 -0.47357,-0.37886c-0.17049,-0.10734 -0.34413,-0.18943 -0.52093,-0.24626c-0.17049,-0.06314 -0.32519,-0.09471 -0.4641,-0.09471c-0.15786,0 -0.30309,0.01578 -0.43569,0.04736c-0.12629,0.02526 -0.23363,0.06946 -0.32203,0.1326c-0.08208,0.05683 -0.14838,0.1326 -0.1989,0.22731c-0.0442,0.0884 -0.0663,0.18943 -0.0663,0.30309c0.00631,0.09471 0.03157,0.18627 0.07577,0.27467c0.0442,0.0884 0.10419,0.16101 0.17996,0.21784c0.08208,0.06314 0.20521,0.12944 0.36939,0.1989c0.16417,0.06314 0.3757,0.12629 0.63459,0.18943c0.37254,0.09471 0.68194,0.20206 0.9282,0.32203c0.24626,0.11366 0.442,0.24626 0.58723,0.3978c0.15154,0.14523 0.25573,0.31256 0.31256,0.50199c0.06314,0.18943 0.09471,0.40096 0.09471,0.63459c0,0.33466 -0.09787,0.63774 -0.29361,0.90926c-0.18943,0.2652 -0.44832,0.47357 -0.77666,0.62511c-0.32203,0.15154 -0.68194,0.22731 -1.07974,0.22731zM264.96547,165.28756c-0.60617,0 -1.14604,-0.12944 -1.61961,-0.38833c-0.46726,-0.25889 -0.83664,-0.61564 -1.10816,-1.07027c-0.2652,-0.45463 -0.3978,-0.97556 -0.3978,-1.56278c0,-0.46726 0.07577,-0.89347 0.22731,-1.27864c0.15154,-0.38517 0.35991,-0.71667 0.62511,-0.9945c0.2652,-0.28414 0.58407,-0.50199 0.95661,-0.65353c0.37886,-0.15786 0.78613,-0.23679 1.22181,-0.23679c0.38517,0 0.74193,0.07261 1.07027,0.21784c0.33466,0.14523 0.62196,0.34728 0.8619,0.60617c0.24626,0.25889 0.43569,0.56513 0.56829,0.91873c0.1326,0.34728 0.19574,0.72614 0.18943,1.13657l-0.00947,0.50199h-4.84937l-0.2652,-0.9282h4.10113l-0.16101,0.18943v-0.2652c-0.02526,-0.25257 -0.1105,-0.47673 -0.25573,-0.67247c-0.13891,-0.19574 -0.31887,-0.35044 -0.53987,-0.4641c-0.221,-0.11366 -0.45779,-0.17049 -0.71036,-0.17049c-0.41043,0 -0.75456,0.07893 -1.03239,0.23679c-0.27783,0.15154 -0.48936,0.37886 -0.63459,0.68194c-0.13891,0.29677 -0.20837,0.663 -0.20837,1.09869c0,0.41043 0.08524,0.77034 0.25573,1.07974c0.17049,0.30309 0.41358,0.53987 0.7293,0.71036c0.32203,0.16417 0.68826,0.24626 1.09869,0.24626c0.29677,0 0.57144,-0.04736 0.82401,-0.14207c0.25257,-0.10103 0.52724,-0.28098 0.82401,-0.53987l0.58723,0.82401c-0.18312,0.18312 -0.40411,0.34413 -0.663,0.48304c-0.25889,0.1326 -0.53356,0.23994 -0.82401,0.32203c-0.29046,0.07577 -0.57776,0.11366 -0.8619,0.11366zM269.56561,165.1739v-7.45401h1.16499v7.45401zM268.32485,160.37189v-1.13657h3.7791v1.13657zM277.33043,167.77855l1.20287,-2.77513l0.00947,0.9282l-2.96456,-6.6963h1.35441l1.8564,4.36633c0.03789,0.07577 0.08208,0.19259 0.1326,0.35044c0.05683,0.15154 0.10419,0.30309 0.14207,0.45463l-0.29361,0.0663c0.05683,-0.15786 0.11366,-0.31572 0.17049,-0.47357c0.05683,-0.15786 0.1105,-0.31572 0.16101,-0.47357l1.55331,-4.29056h1.38283l-2.44363,5.93858l-1.00397,2.60464zM285.46419,165.28756c-0.58092,0 -1.10184,-0.1326 -1.56278,-0.3978c-0.45463,-0.27151 -0.81454,-0.63774 -1.07974,-1.09869c-0.25889,-0.46726 -0.38833,-0.99766 -0.38833,-1.5912c0,-0.59354 0.12944,-1.12079 0.38833,-1.58173c0.2652,-0.46726 0.62511,-0.83349 1.07974,-1.09869c0.46094,-0.27151 0.98187,-0.40727 1.56278,-0.40727c0.56829,0 1.07974,0.13576 1.53437,0.40727c0.46094,0.2652 0.82401,0.63143 1.08921,1.09869c0.2652,0.46094 0.3978,0.98819 0.3978,1.58173c0,0.59354 -0.1326,1.12394 -0.3978,1.5912c-0.2652,0.46094 -0.62827,0.82717 -1.08921,1.09869c-0.45463,0.2652 -0.96609,0.3978 -1.53437,0.3978zM285.46419,164.22676c0.3536,0 0.66931,-0.0884 0.94714,-0.2652c0.27783,-0.1768 0.49567,-0.41674 0.65353,-0.71983c0.15786,-0.3094 0.23363,-0.65669 0.22731,-1.04186c0.00631,-0.39149 -0.06946,-0.73877 -0.22731,-1.04186c-0.15786,-0.3094 -0.3757,-0.54934 -0.65353,-0.71983c-0.27783,-0.1768 -0.59354,-0.2652 -0.94714,-0.2652c-0.3536,0 -0.67247,0.0884 -0.95661,0.2652c-0.28414,0.1768 -0.50514,0.4199 -0.663,0.7293c-0.15786,0.30309 -0.23363,0.64721 -0.22731,1.03239c-0.00631,0.38517 0.06946,0.73246 0.22731,1.04186c0.15786,0.30309 0.37886,0.54303 0.663,0.71983c0.28414,0.1768 0.60301,0.2652 0.95661,0.2652zM291.83192,165.28756c-0.42306,0 -0.79244,-0.09787 -1.10816,-0.29361c-0.3094,-0.19574 -0.54934,-0.47041 -0.71983,-0.82401c-0.17049,-0.3536 -0.25573,-0.77666 -0.25573,-1.26917v-3.66544h1.16499v3.35288c0,0.34097 0.05367,0.63774 0.16101,0.89031c0.11366,0.25257 0.27151,0.44832 0.47357,0.58723c0.20837,0.1326 0.46094,0.1989 0.75771,0.1989c0.21468,0 0.41358,-0.03473 0.5967,-0.10419c0.18312,-0.06946 0.34097,-0.16733 0.47357,-0.29361c0.1326,-0.1326 0.23363,-0.2873 0.30309,-0.4641c0.07577,-0.18312 0.11366,-0.38202 0.11366,-0.5967v-3.57073h1.16499v5.93858h-1.16499v-1.24076l0.20837,-0.14207c-0.0884,0.28414 -0.23994,0.53987 -0.45463,0.76719c-0.21468,0.221 -0.47041,0.3978 -0.76719,0.5304c-0.29677,0.1326 -0.61248,0.1989 -0.94714,0.1989zM296.59008,165.1739v-5.93858h1.17446v1.86587l-0.11366,-0.45463c0.08208,-0.28414 0.22416,-0.54303 0.42621,-0.77666c0.20206,-0.23363 0.43253,-0.41674 0.69141,-0.54934c0.25889,-0.13891 0.52724,-0.20837 0.80507,-0.20837c0.12629,0 0.24626,0.01263 0.35991,0.03789c0.11997,0.01894 0.21468,0.0442 0.28414,0.07577l-0.30309,1.26917c-0.0884,-0.03789 -0.18943,-0.06946 -0.30309,-0.09471c-0.10734,-0.03157 -0.21468,-0.04736 -0.32203,-0.04736c-0.20206,0 -0.39464,0.04104 -0.57776,0.12313c-0.18312,0.07577 -0.34728,0.18627 -0.49251,0.3315c-0.13891,0.13891 -0.24942,0.29993 -0.3315,0.48304c-0.08208,0.18312 -0.12313,0.38517 -0.12313,0.60617v3.27711zM304.31404,167.66489v-8.42957h1.17446v1.35441l-0.17996,-0.09471c0.0442,-0.22731 0.17049,-0.44516 0.37886,-0.65353c0.21468,-0.20837 0.47357,-0.37886 0.77666,-0.51146c0.3094,-0.1326 0.62511,-0.1989 0.94714,-0.1989c0.53671,0 1.01028,0.1326 1.42071,0.3978c0.41674,0.2652 0.74508,0.62827 0.98503,1.08921c0.24626,0.46094 0.36939,0.98819 0.36939,1.58173c0,0.58723 -0.11997,1.11447 -0.35991,1.58173c-0.23994,0.46094 -0.56829,0.82717 -0.98503,1.09869c-0.41043,0.2652 -0.87453,0.3978 -1.3923,0.3978c-0.34728,0 -0.6851,-0.06946 -1.01344,-0.20837c-0.32203,-0.13891 -0.5967,-0.31887 -0.82401,-0.53987c-0.22731,-0.221 -0.36623,-0.44832 -0.41674,-0.68194l0.29361,-0.15154v3.96853zM307.25018,164.19835c0.34728,0 0.65669,-0.08524 0.9282,-0.25573c0.27151,-0.1768 0.4862,-0.41358 0.64406,-0.71036c0.15786,-0.30309 0.23679,-0.64721 0.23679,-1.03239c0,-0.38517 -0.07893,-0.72614 -0.23679,-1.02291c-0.15154,-0.29677 -0.36307,-0.5304 -0.63459,-0.70089c-0.2652,-0.1768 -0.57776,-0.2652 -0.93767,-0.2652c-0.3536,0 -0.66616,0.08524 -0.93767,0.25573c-0.27151,0.17049 -0.4862,0.40727 -0.64406,0.71036c-0.15786,0.29677 -0.23679,0.63774 -0.23679,1.02291c0,0.38517 0.07893,0.7293 0.23679,1.03239c0.15786,0.29677 0.37254,0.53356 0.64406,0.71036c0.27151,0.17049 0.58407,0.25573 0.93767,0.25573zM313.73256,165.28756c-0.4862,0 -0.93136,-0.13576 -1.33547,-0.40727c-0.40411,-0.27151 -0.7293,-0.6409 -0.97556,-1.10816c-0.23994,-0.46726 -0.35991,-0.9945 -0.35991,-1.58173c0,-0.59986 0.12313,-1.13026 0.36939,-1.5912c0.24626,-0.46094 0.57776,-0.82401 0.9945,-1.08921c0.42306,-0.2652 0.89347,-0.3978 1.41124,-0.3978c0.3094,0 0.59039,0.04736 0.84296,0.14207c0.25889,0.0884 0.48304,0.21468 0.67247,0.37886c0.19574,0.15786 0.3536,0.34413 0.47357,0.55881c0.12629,0.20837 0.20521,0.43253 0.23679,0.67247l-0.25573,-0.08524v-1.54384h1.17446v5.93858h-1.17446v-1.41124l0.2652,-0.08524c-0.0442,0.20837 -0.13576,0.41043 -0.27467,0.60617c-0.13891,0.18943 -0.31572,0.35991 -0.5304,0.51146c-0.21468,0.14523 -0.45147,0.2652 -0.71036,0.35991c-0.25889,0.0884 -0.53356,0.1326 -0.82401,0.1326zM314.03564,164.21729c0.35991,0 0.67247,-0.08524 0.93767,-0.25573c0.27151,-0.1768 0.48304,-0.41674 0.63459,-0.71983c0.15786,-0.3094 0.23679,-0.65984 0.23679,-1.05133c0,-0.38517 -0.07893,-0.7293 -0.23679,-1.03239c-0.15154,-0.30309 -0.36307,-0.53987 -0.63459,-0.71036c-0.2652,-0.1768 -0.57776,-0.2652 -0.93767,-0.2652c-0.34728,0 -0.65353,0.0884 -0.91873,0.2652c-0.2652,0.17049 -0.47673,0.40727 -0.63459,0.71036c-0.15154,0.30309 -0.22731,0.64721 -0.22731,1.03239c0,0.39149 0.07577,0.74193 0.22731,1.05133c0.15786,0.30309 0.36939,0.54303 0.63459,0.71983c0.2652,0.17049 0.57144,0.25573 0.91873,0.25573zM320.588,165.28756c-0.49883,0 -0.94714,-0.08524 -1.34494,-0.25573c-0.3978,-0.1768 -0.7293,-0.43569 -0.9945,-0.77666l0.78613,-0.67247c0.22731,0.25889 0.47357,0.44832 0.73877,0.56829c0.27151,0.11366 0.57776,0.17049 0.91873,0.17049c0.1326,0 0.25573,-0.01578 0.36939,-0.04736c0.11997,-0.03157 0.22416,-0.08208 0.31256,-0.15154c0.0884,-0.06946 0.1547,-0.15154 0.1989,-0.24626c0.0442,-0.09471 0.0663,-0.1989 0.0663,-0.31256c0,-0.19574 -0.07261,-0.3536 -0.21784,-0.47357c-0.07577,-0.05052 -0.19574,-0.10734 -0.35991,-0.17049c-0.15786,-0.06314 -0.36623,-0.12944 -0.62511,-0.1989c-0.43569,-0.11366 -0.79244,-0.23994 -1.07027,-0.37886c-0.27783,-0.14523 -0.49251,-0.3094 -0.64406,-0.49251c-0.11366,-0.14523 -0.1989,-0.29993 -0.25573,-0.4641c-0.05052,-0.17049 -0.07577,-0.35991 -0.07577,-0.56829c0,-0.24626 0.05367,-0.47357 0.16101,-0.68194c0.11366,-0.20837 0.2652,-0.38833 0.45463,-0.53987c0.19574,-0.15786 0.42306,-0.27783 0.68194,-0.35991c0.25889,-0.08208 0.53671,-0.12313 0.83349,-0.12313c0.27783,0 0.5525,0.03789 0.82401,0.11366c0.27783,0.07577 0.53356,0.18627 0.76719,0.3315c0.23363,0.13891 0.42937,0.30624 0.58723,0.50199l-0.663,0.73877c-0.14523,-0.14523 -0.30309,-0.27151 -0.47357,-0.37886c-0.17049,-0.10734 -0.34413,-0.18943 -0.52093,-0.24626c-0.17049,-0.06314 -0.32519,-0.09471 -0.4641,-0.09471c-0.15786,0 -0.30309,0.01578 -0.43569,0.04736c-0.12629,0.02526 -0.23363,0.06946 -0.32203,0.1326c-0.08208,0.05683 -0.14838,0.1326 -0.1989,0.22731c-0.0442,0.0884 -0.0663,0.18943 -0.0663,0.30309c0.00631,0.09471 0.03157,0.18627 0.07577,0.27467c0.0442,0.0884 0.10419,0.16101 0.17996,0.21784c0.08208,0.06314 0.20521,0.12944 0.36939,0.1989c0.16417,0.06314 0.3757,0.12629 0.63459,0.18943c0.37254,0.09471 0.68194,0.20206 0.9282,0.32203c0.24626,0.11366 0.442,0.24626 0.58723,0.3978c0.15154,0.14523 0.25573,0.31256 0.31256,0.50199c0.06314,0.18943 0.09471,0.40096 0.09471,0.63459c0,0.33466 -0.09787,0.63774 -0.29361,0.90926c-0.18943,0.2652 -0.44832,0.47357 -0.77666,0.62511c-0.32203,0.15154 -0.68194,0.22731 -1.07974,0.22731zM326.00495,165.28756c-0.49883,0 -0.94714,-0.08524 -1.34494,-0.25573c-0.3978,-0.1768 -0.7293,-0.43569 -0.9945,-0.77666l0.78613,-0.67247c0.22731,0.25889 0.47357,0.44832 0.73877,0.56829c0.27151,0.11366 0.57776,0.17049 0.91873,0.17049c0.1326,0 0.25573,-0.01578 0.36939,-0.04736c0.11997,-0.03157 0.22416,-0.08208 0.31256,-0.15154c0.0884,-0.06946 0.1547,-0.15154 0.1989,-0.24626c0.0442,-0.09471 0.0663,-0.1989 0.0663,-0.31256c0,-0.19574 -0.07261,-0.3536 -0.21784,-0.47357c-0.07577,-0.05052 -0.19574,-0.10734 -0.35991,-0.17049c-0.15786,-0.06314 -0.36623,-0.12944 -0.62511,-0.1989c-0.43569,-0.11366 -0.79244,-0.23994 -1.07027,-0.37886c-0.27783,-0.14523 -0.49251,-0.3094 -0.64406,-0.49251c-0.11366,-0.14523 -0.1989,-0.29993 -0.25573,-0.4641c-0.05052,-0.17049 -0.07577,-0.35991 -0.07577,-0.56829c0,-0.24626 0.05367,-0.47357 0.16101,-0.68194c0.11366,-0.20837 0.2652,-0.38833 0.45463,-0.53987c0.19574,-0.15786 0.42306,-0.27783 0.68194,-0.35991c0.25889,-0.08208 0.53671,-0.12313 0.83349,-0.12313c0.27783,0 0.5525,0.03789 0.82401,0.11366c0.27783,0.07577 0.53356,0.18627 0.76719,0.3315c0.23363,0.13891 0.42937,0.30624 0.58723,0.50199l-0.663,0.73877c-0.14523,-0.14523 -0.30309,-0.27151 -0.47357,-0.37886c-0.17049,-0.10734 -0.34413,-0.18943 -0.52093,-0.24626c-0.17049,-0.06314 -0.32519,-0.09471 -0.4641,-0.09471c-0.15786,0 -0.30309,0.01578 -0.43569,0.04736c-0.12629,0.02526 -0.23363,0.06946 -0.32203,0.1326c-0.08208,0.05683 -0.14838,0.1326 -0.1989,0.22731c-0.0442,0.0884 -0.0663,0.18943 -0.0663,0.30309c0.00631,0.09471 0.03157,0.18627 0.07577,0.27467c0.0442,0.0884 0.10419,0.16101 0.17996,0.21784c0.08208,0.06314 0.20521,0.12944 0.36939,0.1989c0.16417,0.06314 0.3757,0.12629 0.63459,0.18943c0.37254,0.09471 0.68194,0.20206 0.9282,0.32203c0.24626,0.11366 0.442,0.24626 0.58723,0.3978c0.15154,0.14523 0.25573,0.31256 0.31256,0.50199c0.06314,0.18943 0.09471,0.40096 0.09471,0.63459c0,0.33466 -0.09787,0.63774 -0.29361,0.90926c-0.18943,0.2652 -0.44832,0.47357 -0.77666,0.62511c-0.32203,0.15154 -0.68194,0.22731 -1.07974,0.22731zM330.90097,165.1739l-2.02688,-5.93858l1.17446,-0.00947l1.44913,4.4421l-0.25573,-0.01894l1.57226,-3.47601h0.70089l1.58173,3.48548l-0.30309,0.01894l1.4586,-4.4421h1.17446l-1.99847,5.93858h-0.80507l-1.6575,-3.7791l0.2652,0.03789l-1.53437,3.74121zM340.99071,165.28756c-0.58092,0 -1.10184,-0.1326 -1.56278,-0.3978c-0.45463,-0.27151 -0.81454,-0.63774 -1.07974,-1.09869c-0.25889,-0.46726 -0.38833,-0.99766 -0.38833,-1.5912c0,-0.59354 0.12944,-1.12079 0.38833,-1.58173c0.2652,-0.46726 0.62511,-0.83349 1.07974,-1.09869c0.46094,-0.27151 0.98187,-0.40727 1.56278,-0.40727c0.56829,0 1.07974,0.13576 1.53437,0.40727c0.46094,0.2652 0.82401,0.63143 1.08921,1.09869c0.2652,0.46094 0.3978,0.98819 0.3978,1.58173c0,0.59354 -0.1326,1.12394 -0.3978,1.5912c-0.2652,0.46094 -0.62827,0.82717 -1.08921,1.09869c-0.45463,0.2652 -0.96609,0.3978 -1.53437,0.3978zM340.99071,164.22676c0.3536,0 0.66931,-0.0884 0.94714,-0.2652c0.27783,-0.1768 0.49567,-0.41674 0.65353,-0.71983c0.15786,-0.3094 0.23363,-0.65669 0.22731,-1.04186c0.00631,-0.39149 -0.06946,-0.73877 -0.22731,-1.04186c-0.15786,-0.3094 -0.3757,-0.54934 -0.65353,-0.71983c-0.27783,-0.1768 -0.59354,-0.2652 -0.94714,-0.2652c-0.3536,0 -0.67247,0.0884 -0.95661,0.2652c-0.28414,0.1768 -0.50514,0.4199 -0.663,0.7293c-0.15786,0.30309 -0.23363,0.64721 -0.22731,1.03239c-0.00631,0.38517 0.06946,0.73246 0.22731,1.04186c0.15786,0.30309 0.37886,0.54303 0.663,0.71983c0.28414,0.1768 0.60301,0.2652 0.95661,0.2652zM345.27473,165.1739v-5.93858h1.17446v1.86587l-0.11366,-0.45463c0.08208,-0.28414 0.22416,-0.54303 0.42621,-0.77666c0.20206,-0.23363 0.43253,-0.41674 0.69141,-0.54934c0.25889,-0.13891 0.52724,-0.20837 0.80507,-0.20837c0.12629,0 0.24626,0.01263 0.35991,0.03789c0.11997,0.01894 0.21468,0.0442 0.28414,0.07577l-0.30309,1.26917c-0.0884,-0.03789 -0.18943,-0.06946 -0.30309,-0.09471c-0.10734,-0.03157 -0.21468,-0.04736 -0.32203,-0.04736c-0.20206,0 -0.39464,0.04104 -0.57776,0.12313c-0.18312,0.07577 -0.34728,0.18627 -0.49251,0.3315c-0.13891,0.13891 -0.24942,0.29993 -0.3315,0.48304c-0.08208,0.18312 -0.12313,0.38517 -0.12313,0.60617v3.27711zM352.05533,165.28756c-0.54303,0 -1.02607,-0.1326 -1.44913,-0.3978c-0.42306,-0.27151 -0.76087,-0.63774 -1.01344,-1.09869c-0.24626,-0.46726 -0.36939,-0.99766 -0.36939,-1.5912c0,-0.59354 0.11997,-1.12079 0.35991,-1.58173c0.24626,-0.46726 0.58092,-0.83349 1.00397,-1.09869c0.42306,-0.27151 0.90294,-0.40727 1.43966,-0.40727c0.29046,0 0.5746,0.04736 0.85243,0.14207c0.27783,0.09471 0.52409,0.22416 0.73877,0.38833c0.221,0.15786 0.39149,0.33466 0.51146,0.5304c0.12629,0.18943 0.18943,0.38202 0.18943,0.57776l-0.34097,0.02841v-3.978h1.16499v8.37274h-1.16499v-1.41124h0.22731c0,0.1768 -0.05999,0.35676 -0.17996,0.53987c-0.11997,0.1768 -0.28098,0.34097 -0.48304,0.49251c-0.19574,0.14523 -0.42621,0.2652 -0.69141,0.35991c-0.25889,0.0884 -0.52409,0.1326 -0.7956,0.1326zM352.21634,164.28359c0.3536,0 0.66616,-0.09156 0.93767,-0.27467c0.27151,-0.18312 0.48304,-0.42937 0.63459,-0.73877c0.15786,-0.31572 0.23679,-0.67247 0.23679,-1.07027c0,-0.3978 -0.07893,-0.7514 -0.23679,-1.0608c-0.15154,-0.31572 -0.36307,-0.56513 -0.63459,-0.74824c-0.27151,-0.18312 -0.58407,-0.27467 -0.93767,-0.27467c-0.3536,0 -0.66616,0.09156 -0.93767,0.27467c-0.27151,0.18312 -0.4862,0.43253 -0.64406,0.74824c-0.15154,0.3094 -0.22731,0.663 -0.22731,1.0608c0,0.3978 0.07577,0.75456 0.22731,1.07027c0.15786,0.3094 0.37254,0.55566 0.64406,0.73877c0.27151,0.18312 0.58407,0.27467 0.93767,0.27467zM357.22669,165.29703c-0.24626,0 -0.43884,-0.07261 -0.57776,-0.21784c-0.1326,-0.14523 -0.1989,-0.3536 -0.1989,-0.62511c0,-0.25257 0.06946,-0.45779 0.20837,-0.61564c0.14523,-0.15786 0.33466,-0.23679 0.56829,-0.23679c0.25257,0 0.44516,0.07577 0.57776,0.22731c0.13891,0.14523 0.20837,0.3536 0.20837,0.62511c0,0.24626 -0.07261,0.44832 -0.21784,0.60617c-0.14523,0.15786 -0.33466,0.23679 -0.56829,0.23679z" fill="#ffffff" fill-rule="nonzero" stroke-linecap="square"/><path d="M236.78265,232.59148h-14.866c-8.21029,0 -14.866,-6.43189 -14.866,-14.36603c0,-7.93414 6.65575,-14.36605 14.866,-14.36605v0h14.866z" fill-opacity="0.6715" fill="#6c6c6c" fill-rule="evenodd" stroke-linecap="square"/><path d="M236.76822,203.85942h14.866v0c8.21029,0 14.866,6.43189 14.866,14.36605c0,7.9341 -6.65573,14.36603 -14.866,14.36603h-14.866z" fill-opacity="0.6715" fill="#6c6c6c" fill-rule="evenodd" stroke-linecap="square"/><text transform="translate(224.07608,222.56851) scale(0.28593,0.28593)" font-size="40" xml:space="preserve" fill="#ffffff" fill-rule="nonzero" stroke="none" stroke-width="1" stroke-linecap="butt" stroke-linejoin="miter" stroke-miterlimit="10" stroke-dasharray="" stroke-dashoffset="0" font-family="Sans Serif" font-weight="normal" text-anchor="start" style="mix-blend-mode: normal"><tspan x="0" dy="0">Next</tspan></text></g></g></svg>