<svg version="1.1" xmlns="http://www.w3.org/2000/svg" xmlns:xlink="http://www.w3.org/1999/xlink" width="41.25324" height="41.25324" viewBox="0,0,41.25324,41.25324"><g transform="translate(-219.37338,-159.37338)"><g data-paper-data="{&quot;isPaintingLayer&quot;:true}" fill-rule="nonzero" stroke="none" stroke-linecap="butt" stroke-linejoin="miter" stroke-miterlimit="10" stroke-dasharray="" stroke-dashoffset="0" style="mix-blend-mode: normal"><path d="M219.37338,180c0,-11.39177 9.23485,-20.62662 20.62662,-20.62662c11.39177,0 20.62662,9.23485 20.62662,20.62662c0,11.39177 -9.23485,20.62662 -20.62662,20.62662c-11.39177,0 -20.62662,-9.23485 -20.62662,-20.62662z" fill-opacity="0.80645" fill="#303030" stroke-width="0"/><path d="M240.1,190c-1.4,0 -2.7125,-0.26667 -3.9375,-0.8c-1.225,-0.53333 -2.29166,-1.25417 -3.2,-2.1625c-0.90833,-0.90833 -1.62917,-1.975 -2.1625,-3.2c-0.53333,-1.225 -0.8,-2.5375 -0.8,-3.9375c0,-2.43333 0.775,-4.57916 2.325,-6.4375c1.55,-1.85834 3.525,-3.0125 5.925,-3.4625c-0.3,1.65 -0.20834,3.2625 0.275,4.8375c0.48334,1.575 1.31667,2.95416 2.5,4.1375c1.18333,1.18333 2.5625,2.01666 4.1375,2.5c1.575,0.48334 3.1875,0.575 4.8375,0.275c-0.43333,2.4 -1.58333,4.375 -3.45,5.925c-1.86667,1.55 -4.01667,2.325 -6.45,2.325zM240.1,188c1.46667,0 2.825,-0.36666 4.075,-1.1c1.25,-0.73334 2.23333,-1.74167 2.95,-3.025c-1.43333,-0.13333 -2.79166,-0.49583 -4.075,-1.0875c-1.28333,-0.59167 -2.43334,-1.39584 -3.45,-2.4125c-1.01666,-1.01666 -1.825,-2.16666 -2.425,-3.45c-0.6,-1.28333 -0.95834,-2.64167 -1.075,-4.075c-1.28333,0.71667 -2.2875,1.70417 -3.0125,2.9625c-0.725,1.25833 -1.0875,2.62083 -1.0875,4.0875c0,2.25 0.7875,4.1625 2.3625,5.7375c1.575,1.575 3.4875,2.3625 5.7375,2.3625z" fill="#ffffff" stroke-width="1"/></g></g></svg>