<svg version="1.1" xmlns="http://www.w3.org/2000/svg" xmlns:xlink="http://www.w3.org/1999/xlink" width="21.58322" height="27.89234" viewBox="0,0,21.58322,27.89234"><g transform="translate(-147.48567,-102.90063)"><g data-paper-data="{&quot;isPaintingLayer&quot;:true}" stroke="none" stroke-width="1" stroke-linecap="square" stroke-linejoin="miter" stroke-miterlimit="10" stroke-dasharray="" stroke-dashoffset="0" style="mix-blend-mode: normal"><path d="M147.48567,104.62466c0,-0.95215 0.41182,-1.72403 0.91982,-1.72403h19.74357c0.24395,0 0.47791,0.18164 0.65041,0.50495c0.1725,0.32331 0.26942,0.76183 0.26942,1.21908v24.44429c0,0.95215 -0.41182,1.72402 -0.91983,1.72402h-19.74357c-0.508,0 -0.91982,-0.77187 -0.91982,-1.72402z" fill-opacity="0.69355" fill="#2d2d2d" fill-rule="evenodd"/><path d="M151.57473,126.00909l-0.85303,-2.13256l5.30094,-5.78838c0.30465,-0.32496 0.62961,-0.69054 0.97489,-1.09675c0.34528,-0.42651 0.68039,-0.86318 1.00535,-1.31c0.32496,-0.44682 0.589,-0.87333 0.79209,-1.27954c0.2031,-0.42651 0.30465,-0.8124 0.30465,-1.15768c0,-0.34528 -0.08124,-0.63977 -0.24372,-0.88349c-0.16248,-0.26403 -0.39605,-0.46714 -0.7007,-0.6093c-0.28434,-0.16248 -0.64993,-0.24372 -1.09675,-0.24372c-0.38589,0 -0.76163,0.10155 -1.12721,0.30465c-0.36558,0.2031 -0.71086,0.51791 -1.03582,0.94442c-0.32496,0.40621 -0.61946,0.9038 -0.88349,1.49279l-3.29024,-1.76698c0.36558,-0.99519 0.88349,-1.87868 1.55372,-2.65047c0.67023,-0.77179 1.45217,-1.37093 2.34582,-1.79745c0.89365,-0.42651 1.85838,-0.63977 2.89419,-0.63977c1.07644,0.02031 2.04117,0.25388 2.89419,0.7007c0.87333,0.44682 1.56388,1.06628 2.07163,1.85838c0.50775,0.77179 0.76163,1.68574 0.76163,2.74187c0,0.36558 -0.04062,0.75147 -0.12186,1.15768c-0.08124,0.38589 -0.21326,0.79209 -0.39605,1.21861c-0.16248,0.42651 -0.38589,0.88349 -0.67023,1.37093c-0.28434,0.46714 -0.62961,0.96473 -1.03582,1.49279c-0.40621,0.50775 -0.87333,1.05612 -1.4014,1.64512l-4.14326,4.50885l-0.51791,-1.98024h9.10909v3.89954z" fill="#ffffff" fill-rule="nonzero"/></g></g></svg>