<svg version="1.1" xmlns="http://www.w3.org/2000/svg" xmlns:xlink="http://www.w3.org/1999/xlink" width="558" height="433" viewBox="0,0,558,433"><g transform="translate(39,36.5)"><g data-paper-data="{&quot;isPaintingLayer&quot;:true}" fill-rule="nonzero" stroke="none" stroke-linejoin="miter" stroke-miterlimit="10" stroke-dasharray="" stroke-dashoffset="0" style="mix-blend-mode: normal"><path d="M-39,396.5v-433h558v433z" fill-opacity="0.73085" fill="#141414" stroke-width="0" stroke-linecap="butt"/><path d="M182.9128,132.39886c-0.76346,0 -1.47661,-0.13843 -2.1394,-0.41529c-0.66279,-0.27686 -1.24588,-0.6586 -1.74926,-1.1452c-0.495,-0.495 -0.88092,-1.06969 -1.15779,-1.7241c-0.27686,-0.6544 -0.41529,-1.36334 -0.41529,-2.1268c0,-0.74669 0.13843,-1.44723 0.4153,-2.10163c0.27686,-0.6544 0.6628,-1.22071 1.15779,-1.69893c0.495,-0.4866 1.0739,-0.86414 1.73668,-1.13262c0.66279,-0.27686 1.37593,-0.41529 2.1394,-0.41529c0.52855,0 1.04454,0.07551 1.54792,0.22652c0.50339,0.15102 0.96063,0.36076 1.37174,0.62923c0.41109,0.26848 0.74669,0.57889 1.00677,0.93126l-1.04452,1.09487c-0.30203,-0.28525 -0.61245,-0.52436 -0.93126,-0.71732c-0.31042,-0.19297 -0.63343,-0.33978 -0.96902,-0.44046c-0.3272,-0.10068 -0.6544,-0.15102 -0.9816,-0.15102c-0.54534,0 -1.04873,0.09648 -1.51016,0.28945c-0.45305,0.19297 -0.85156,0.46143 -1.19554,0.80542c-0.34398,0.33559 -0.61245,0.73411 -0.80542,1.19555c-0.18457,0.45305 -0.27686,0.94805 -0.27686,1.48499c0,0.52017 0.09648,1.01516 0.28945,1.48499c0.20135,0.46143 0.47822,0.86835 0.83059,1.22072c0.36076,0.35237 0.77186,0.62923 1.23329,0.83059c0.46983,0.20135 0.96482,0.30203 1.48499,0.30203c0.39432,0 0.76346,-0.05872 1.10745,-0.17618c0.35237,-0.11746 0.66279,-0.28106 0.93126,-0.4908c0.27686,-0.20974 0.49081,-0.45305 0.64182,-0.72991c0.15102,-0.27686 0.22652,-0.57051 0.22652,-0.88092v-0.30203l0.22652,0.21394h-3.22168v-1.61084h4.65633c0.02517,0.10906 0.04195,0.21814 0.05034,0.3272c0.00839,0.10906 0.01259,0.20974 0.01259,0.30203c0.00839,0.09229 0.01259,0.18457 0.01259,0.27686c0,0.68796 -0.12165,1.31719 -0.36495,1.8877c-0.23491,0.56211 -0.56631,1.04873 -0.99419,1.45982c-0.42788,0.41109 -0.92288,0.72991 -1.48499,0.95643c-0.56211,0.22652 -1.17457,0.33979 -1.83736,0.33979zM193.00073,132.39886c-0.80542,0 -1.52274,-0.17199 -2.15197,-0.51597c-0.62085,-0.34398 -1.11165,-0.818 -1.4724,-1.42206c-0.35237,-0.60406 -0.52855,-1.29622 -0.52855,-2.07647c0,-0.62085 0.10068,-1.18715 0.30203,-1.69893c0.20135,-0.51177 0.47822,-0.95224 0.83059,-1.32139c0.35237,-0.37754 0.77605,-0.66699 1.27106,-0.86834c0.50339,-0.20974 1.04452,-0.31462 1.62342,-0.31462c0.51178,0 0.9858,0.09648 1.42207,0.28945c0.44466,0.19297 0.82639,0.46143 1.14521,0.80542c0.3272,0.34398 0.57889,0.75088 0.75508,1.22072c0.17618,0.46143 0.26009,0.96482 0.25169,1.51016l-0.01258,0.66699h-6.44336l-0.35237,-1.23329h5.44916l-0.21394,0.25169v-0.35237c-0.03356,-0.33559 -0.14682,-0.63343 -0.33978,-0.89351c-0.18458,-0.26008 -0.42368,-0.46563 -0.71732,-0.61665c-0.29364,-0.15102 -0.60826,-0.22652 -0.94385,-0.22652c-0.54534,0 -1.00258,0.10488 -1.37173,0.31462c-0.36915,0.20135 -0.6502,0.50339 -0.84317,0.90609c-0.18457,0.39432 -0.27686,0.88092 -0.27686,1.45982c0,0.54534 0.11326,1.02356 0.33979,1.43465c0.22652,0.40271 0.54953,0.71733 0.96902,0.94386c0.42788,0.21814 0.91449,0.3272 1.45982,0.3272c0.39432,0 0.75928,-0.06292 1.09487,-0.18877c0.3356,-0.13423 0.70054,-0.37334 1.09487,-0.71732l0.78025,1.09487c-0.2433,0.24331 -0.53694,0.45725 -0.88092,0.64182c-0.34398,0.17618 -0.70894,0.31881 -1.09486,0.42788c-0.38594,0.10068 -0.76766,0.15102 -1.1452,0.15102zM199.11291,132.24785v-9.90413h1.54792v9.90414zM197.46432,125.86743v-1.51016h5.02129v1.51016zM211.14155,132.39886c-0.64601,0 -1.23749,-0.18038 -1.77443,-0.54114c-0.53694,-0.36076 -0.96902,-0.85156 -1.29622,-1.4724c-0.31881,-0.62085 -0.47822,-1.32139 -0.47822,-2.10163c0,-0.79703 0.1636,-1.50178 0.4908,-2.11423c0.3272,-0.61245 0.76767,-1.09486 1.3214,-1.44723c0.56212,-0.35237 1.18715,-0.52855 1.87512,-0.52855c0.41111,0 0.78445,0.06292 1.12004,0.18877c0.34398,0.11746 0.64182,0.28525 0.89352,0.50339c0.26009,0.20974 0.46983,0.45725 0.62923,0.7425c0.16779,0.27686 0.27266,0.5747 0.31462,0.89352l-0.33978,-0.11326v-2.0513h1.5605v7.8906h-1.5605v-1.87511l0.35237,-0.11326c-0.05873,0.27686 -0.18038,0.54534 -0.36495,0.80542c-0.18458,0.25169 -0.41949,0.47822 -0.70474,0.67957c-0.28526,0.19297 -0.59986,0.35237 -0.94385,0.47822c-0.34398,0.11746 -0.70894,0.17618 -1.09486,0.17618zM211.54426,130.9768c0.47822,0 0.89352,-0.11326 1.24589,-0.33978c0.36077,-0.23491 0.64182,-0.55372 0.84318,-0.95643c0.20975,-0.41109 0.31462,-0.87673 0.31462,-1.39689c0,-0.51177 -0.10488,-0.96902 -0.31462,-1.37173c-0.20135,-0.40271 -0.48241,-0.71732 -0.84317,-0.94385c-0.35237,-0.23491 -0.76766,-0.35237 -1.24588,-0.35237c-0.46144,0 -0.86834,0.11746 -1.22071,0.35237c-0.35237,0.22652 -0.63343,0.54115 -0.84317,0.94386c-0.20135,0.40271 -0.30203,0.85995 -0.30203,1.37174c0,0.52017 0.10068,0.9858 0.30203,1.39691c0.20975,0.40271 0.49081,0.72152 0.84318,0.95643c0.35237,0.22652 0.75928,0.33979 1.22072,0.33979zM217.64535,132.24785v-11.12485h1.54792v11.12485zM221.4169,132.24785v-11.12485h1.54792v11.12485zM232.91948,132.39886c-0.77186,0 -1.46402,-0.17618 -2.07647,-0.52855c-0.60406,-0.36076 -1.08228,-0.84737 -1.43465,-1.45982c-0.34398,-0.62085 -0.51597,-1.32559 -0.51597,-2.11423c0,-0.78863 0.17199,-1.48919 0.51598,-2.10163c0.35237,-0.62085 0.83059,-1.10745 1.43465,-1.45982c0.61246,-0.36076 1.30461,-0.54114 2.07648,-0.54114c0.75508,0 1.43465,0.18038 2.03872,0.54115c0.61246,0.35237 1.09487,0.83897 1.44724,1.45982c0.35237,0.61245 0.52855,1.313 0.52855,2.10165c0,0.78863 -0.17618,1.49337 -0.52855,2.11423c-0.35237,0.61245 -0.83478,1.09907 -1.44723,1.45982c-0.60406,0.35237 -1.28363,0.52855 -2.03872,0.52855zM232.91948,130.98938c0.46983,0 0.88932,-0.11746 1.25846,-0.35237c0.36915,-0.23491 0.6586,-0.55372 0.86835,-0.95643c0.20975,-0.41109 0.31043,-0.87254 0.30203,-1.38431c0.00839,-0.52017 -0.09228,-0.9816 -0.30203,-1.38431c-0.20975,-0.41109 -0.49919,-0.72991 -0.86834,-0.95643c-0.36915,-0.23491 -0.78864,-0.35237 -1.25846,-0.35237c-0.46983,0 -0.89351,0.11746 -1.27105,0.35237c-0.37754,0.23491 -0.67118,0.55792 -0.88092,0.96903c-0.20975,0.40271 -0.31043,0.85995 -0.30203,1.37174c-0.00839,0.51177 0.09228,0.97322 0.30203,1.38431c0.20975,0.40271 0.50339,0.72152 0.88092,0.95643c0.37754,0.23491 0.80122,0.35237 1.27106,0.35237zM239.16672,132.24785v-8.77151c0,-0.45305 0.10068,-0.85576 0.30203,-1.20813c0.20135,-0.35237 0.47402,-0.62503 0.81801,-0.818c0.35237,-0.20135 0.75928,-0.30203 1.22072,-0.30203c0.31881,0 0.61665,0.05872 0.89352,0.17618c0.28526,0.11746 0.51598,0.27686 0.69216,0.47822l-0.52855,1.18296c-0.13424,-0.11746 -0.28106,-0.21394 -0.44046,-0.28945c-0.15102,-0.07551 -0.29364,-0.11326 -0.42788,-0.11326c-0.20975,0 -0.39012,0.03356 -0.54114,0.10068c-0.14262,0.06712 -0.25169,0.1678 -0.3272,0.30203c-0.06711,0.13423 -0.10068,0.29783 -0.10068,0.49081v8.77152h-0.78025c-0.12585,0 -0.25589,0 -0.39012,0c-0.12585,0 -0.25589,0 -0.39012,0zM237.90825,125.91776v-1.42206h4.6815v1.42207zM249.40513,132.24785v-9.90413h1.54792v9.90414zM247.75654,125.86743v-1.51016h5.02129v1.51016zM254.19356,132.24785v-11.12485h1.54792v4.85768l-0.27686,0.17618c0.10068,-0.34398 0.29783,-0.66279 0.59148,-0.95643c0.29365,-0.30203 0.63762,-0.54534 1.03194,-0.72991c0.40271,-0.18457 0.8138,-0.27686 1.23329,-0.27686c0.60406,0 1.10326,0.11746 1.49758,0.35237c0.40271,0.23491 0.70474,0.59568 0.90609,1.08228c0.20135,0.47822 0.30203,1.08228 0.30203,1.81219v4.80734h-1.54791v-4.70667c0,-0.44466 -0.05872,-0.8138 -0.17618,-1.10745c-0.11746,-0.30203 -0.30203,-0.52017 -0.55372,-0.6544c-0.25169,-0.13423 -0.56211,-0.19297 -0.93126,-0.17618c-0.30203,0 -0.57889,0.05034 -0.83059,0.15102c-0.25169,0.09229 -0.46983,0.22652 -0.6544,0.40271c-0.18457,0.1678 -0.3314,0.36496 -0.44047,0.59148c-0.10068,0.21814 -0.15102,0.45725 -0.15102,0.71733v4.78217h-0.76766c-0.12585,0 -0.25589,0 -0.39012,0c-0.13424,0 -0.26428,0 -0.39012,0zM266.80881,132.39886c-0.80542,0 -1.52274,-0.17199 -2.15197,-0.51597c-0.62085,-0.34398 -1.11165,-0.818 -1.4724,-1.42206c-0.35237,-0.60406 -0.52855,-1.29622 -0.52855,-2.07647c0,-0.62085 0.10068,-1.18715 0.30203,-1.69893c0.20135,-0.51177 0.47822,-0.95224 0.83059,-1.32139c0.35237,-0.37754 0.77605,-0.66699 1.27106,-0.86834c0.50339,-0.20974 1.04454,-0.31462 1.62343,-0.31462c0.51177,0 0.9858,0.09648 1.42207,0.28945c0.44466,0.19297 0.82639,0.46143 1.14521,0.80542c0.3272,0.34398 0.57889,0.75088 0.75508,1.22072c0.17618,0.46143 0.26008,0.96482 0.25169,1.51016l-0.01258,0.66699h-6.44336l-0.35237,-1.23329h5.44917l-0.21394,0.25169v-0.35237c-0.03356,-0.33559 -0.14682,-0.63343 -0.33978,-0.89351c-0.18457,-0.26008 -0.42368,-0.46563 -0.71732,-0.61665c-0.29365,-0.15102 -0.60826,-0.22652 -0.94385,-0.22652c-0.54534,0 -1.00258,0.10488 -1.37173,0.31462c-0.36915,0.20135 -0.6502,0.50339 -0.84317,0.90609c-0.18457,0.39432 -0.27686,0.88092 -0.27686,1.45982c0,0.54534 0.11326,1.02356 0.33979,1.43465c0.22652,0.40271 0.54953,0.71733 0.96903,0.94386c0.42788,0.21814 0.91448,0.3272 1.45982,0.3272c0.39432,0 0.75928,-0.06292 1.09487,-0.18877c0.33559,-0.13423 0.70054,-0.37334 1.09487,-0.71732l0.78025,1.09487c-0.24331,0.24331 -0.53694,0.45725 -0.88092,0.64182c-0.34398,0.17618 -0.70894,0.31881 -1.09486,0.42788c-0.38593,0.10068 -0.76766,0.15102 -1.1452,0.15102zM279.17962,132.39886c-0.64602,0 -1.23749,-0.18038 -1.77443,-0.54114c-0.53694,-0.36076 -0.96902,-0.85156 -1.29622,-1.4724c-0.31881,-0.62085 -0.47822,-1.32139 -0.47822,-2.10163c0,-0.79703 0.1636,-1.50178 0.49081,-2.11423c0.3272,-0.61245 0.76767,-1.09486 1.3214,-1.44723c0.56211,-0.35237 1.18715,-0.52855 1.87512,-0.52855c0.41109,0 0.78445,0.06292 1.12004,0.18877c0.34398,0.11746 0.64182,0.28525 0.89352,0.50339c0.26008,0.20974 0.46983,0.45725 0.62923,0.7425c0.1678,0.27686 0.27266,0.5747 0.31462,0.89352l-0.33978,-0.11326v-2.0513h1.5605v7.8906h-1.5605v-1.87511l0.35237,-0.11326c-0.05872,0.27686 -0.18038,0.54534 -0.36495,0.80542c-0.18457,0.25169 -0.41949,0.47822 -0.70474,0.67957c-0.28525,0.19297 -0.59986,0.35237 -0.94385,0.47822c-0.34398,0.11746 -0.70894,0.17618 -1.09486,0.17618zM279.58233,130.9768c0.47822,0 0.89352,-0.11326 1.24589,-0.33978c0.36076,-0.23491 0.64182,-0.55372 0.84318,-0.95643c0.20974,-0.41109 0.31462,-0.87673 0.31462,-1.39689c0,-0.51177 -0.10488,-0.96902 -0.31462,-1.37173c-0.20135,-0.40271 -0.48241,-0.71732 -0.84317,-0.94385c-0.35237,-0.23491 -0.76766,-0.35237 -1.24588,-0.35237c-0.46143,0 -0.86834,0.11746 -1.22071,0.35237c-0.35237,0.22652 -0.63343,0.54115 -0.84317,0.94386c-0.20135,0.40271 -0.30203,0.85995 -0.30203,1.37174c0,0.52017 0.10068,0.9858 0.30203,1.39691c0.20974,0.40271 0.49081,0.72152 0.84318,0.95643c0.35237,0.22652 0.75928,0.33979 1.22072,0.33979zM285.65822,135.55762v-11.20036h1.5605v1.79961l-0.23911,-0.12585c0.05872,-0.30203 0.22652,-0.59148 0.50339,-0.86834c0.28525,-0.27686 0.62923,-0.50339 1.03194,-0.67957c0.41109,-0.17618 0.83059,-0.26428 1.25846,-0.26428c0.71313,0 1.34236,0.17618 1.8877,0.52855c0.55372,0.35237 0.98999,0.83478 1.3088,1.44724c0.3272,0.61245 0.49081,1.313 0.49081,2.10165c0,0.78025 -0.1594,1.4808 -0.47822,2.10165c-0.31881,0.61245 -0.75508,1.09907 -1.3088,1.45982c-0.54534,0.35237 -1.16199,0.52855 -1.84994,0.52855c-0.46143,0 -0.91029,-0.09229 -1.34656,-0.27686c-0.42788,-0.18457 -0.79283,-0.42368 -1.09486,-0.71732c-0.30203,-0.29365 -0.4866,-0.59568 -0.55372,-0.90609l0.39013,-0.20135v5.27298zM289.55946,130.95163c0.46143,0 0.87254,-0.11326 1.23329,-0.33978c0.36076,-0.23491 0.64602,-0.54953 0.85576,-0.94385c0.20974,-0.40271 0.31462,-0.85995 0.31462,-1.37173c0,-0.51177 -0.10488,-0.96482 -0.31462,-1.35914c-0.20135,-0.39432 -0.48241,-0.70474 -0.84317,-0.93126c-0.35237,-0.23491 -0.76766,-0.35237 -1.24588,-0.35237c-0.46983,0 -0.88512,0.11326 -1.24588,0.33979c-0.36076,0.22652 -0.64602,0.54115 -0.85576,0.94386c-0.20974,0.39432 -0.31462,0.84737 -0.31462,1.35914c0,0.51177 0.10488,0.96903 0.31462,1.37174c0.20974,0.39432 0.495,0.70894 0.85576,0.94386c0.36076,0.22652 0.77605,0.33979 1.24589,0.33979zM295.13968,135.55762v-11.20036h1.5605v1.79961l-0.23911,-0.12585c0.05872,-0.30203 0.22652,-0.59148 0.50339,-0.86834c0.28525,-0.27686 0.62923,-0.50339 1.03194,-0.67957c0.41109,-0.17618 0.83059,-0.26428 1.25846,-0.26428c0.71313,0 1.34236,0.17618 1.8877,0.52855c0.55372,0.35237 0.98999,0.83478 1.3088,1.44724c0.3272,0.61245 0.49081,1.313 0.49081,2.10165c0,0.78025 -0.1594,1.4808 -0.47822,2.10165c-0.31881,0.61245 -0.75508,1.09907 -1.3088,1.45982c-0.54534,0.35237 -1.16199,0.52855 -1.84994,0.52855c-0.46143,0 -0.91029,-0.09229 -1.34656,-0.27686c-0.42788,-0.18457 -0.79283,-0.42368 -1.09486,-0.71732c-0.30203,-0.29365 -0.4866,-0.59568 -0.55372,-0.90609l0.39013,-0.20135v5.27298zM299.04093,130.95163c0.46143,0 0.87254,-0.11326 1.23329,-0.33978c0.36076,-0.23491 0.64602,-0.54953 0.85576,-0.94385c0.20974,-0.40271 0.31462,-0.85995 0.31462,-1.37173c0,-0.51177 -0.10488,-0.96482 -0.31462,-1.35914c-0.20135,-0.39432 -0.48241,-0.70474 -0.84317,-0.93126c-0.35237,-0.23491 -0.76766,-0.35237 -1.24588,-0.35237c-0.46983,0 -0.88512,0.11326 -1.24588,0.33979c-0.36076,0.22652 -0.64602,0.54115 -0.85576,0.94386c-0.20974,0.39432 -0.31462,0.84737 -0.31462,1.35914c0,0.51177 0.10488,0.96903 0.31462,1.37174c0.20974,0.39432 0.495,0.70894 0.85576,0.94386c0.36076,0.22652 0.77605,0.33979 1.24589,0.33979zM307.25135,132.39886c-0.66279,0 -1.25846,-0.11326 -1.78702,-0.33978c-0.52855,-0.23491 -0.96902,-0.57889 -1.32139,-1.03194l1.04454,-0.89351c0.30203,0.34398 0.62923,0.59568 0.9816,0.75508c0.36076,0.15102 0.76767,0.22652 1.22072,0.22652c0.17618,0 0.33979,-0.02097 0.49081,-0.06292c0.1594,-0.04195 0.29783,-0.10906 0.4153,-0.20135c0.11746,-0.09229 0.20555,-0.20135 0.26428,-0.3272c0.05872,-0.12585 0.08809,-0.26428 0.08809,-0.41529c0,-0.26008 -0.09648,-0.46983 -0.28945,-0.62923c-0.10068,-0.06712 -0.26008,-0.14263 -0.47822,-0.22652c-0.20974,-0.08389 -0.48661,-0.17199 -0.83059,-0.26428c-0.57889,-0.15102 -1.05292,-0.31881 -1.42206,-0.50339c-0.36915,-0.19297 -0.6544,-0.41109 -0.85576,-0.6544c-0.15102,-0.19297 -0.26428,-0.39851 -0.33978,-0.61665c-0.06712,-0.22652 -0.10068,-0.47822 -0.10068,-0.75508c0,-0.3272 0.07131,-0.62923 0.21394,-0.90609c0.15102,-0.27686 0.35237,-0.51597 0.60406,-0.71732c0.26008,-0.20974 0.56211,-0.36915 0.90609,-0.47822c0.34398,-0.10906 0.71313,-0.1636 1.10745,-0.1636c0.36915,0 0.73411,0.05034 1.09487,0.15102c0.36915,0.10068 0.70894,0.24749 1.01937,0.44047c0.31042,0.18457 0.57051,0.40691 0.78025,0.66699l-0.88092,0.9816c-0.19297,-0.19297 -0.40271,-0.36076 -0.62923,-0.50339c-0.22652,-0.14263 -0.45725,-0.25169 -0.69215,-0.3272c-0.22652,-0.08389 -0.43208,-0.12585 -0.61665,-0.12585c-0.20974,0 -0.40271,0.02097 -0.57889,0.06292c-0.1678,0.03356 -0.31042,0.09229 -0.42788,0.17618c-0.10906,0.07551 -0.19716,0.17618 -0.26428,0.30203c-0.05872,0.11746 -0.08809,0.25169 -0.08809,0.40271c0.00839,0.12585 0.04195,0.24749 0.10068,0.36496c0.05872,0.11746 0.13843,0.21394 0.23911,0.28945c0.10906,0.08389 0.27266,0.17199 0.49081,0.26428c0.21814,0.08389 0.49919,0.1678 0.84318,0.25169c0.495,0.12585 0.90609,0.26848 1.23329,0.42788c0.3272,0.15102 0.58728,0.3272 0.78025,0.52855c0.20135,0.19297 0.33979,0.4153 0.4153,0.66699c0.08389,0.25169 0.12585,0.53275 0.12585,0.84318c0,0.44466 -0.13004,0.84737 -0.39012,1.20813c-0.25169,0.35237 -0.59568,0.62923 -1.03194,0.83059c-0.42788,0.20135 -0.90609,0.30203 -1.43465,0.30203z" fill="#ffffff" stroke-width="1" stroke-linecap="square"/><path d="M178.67176,150.28922v-8.77151c0,-0.45305 0.10068,-0.85576 0.30203,-1.20813c0.20135,-0.35237 0.47402,-0.62503 0.81801,-0.818c0.35237,-0.20135 0.75928,-0.30203 1.22072,-0.30203c0.31881,0 0.61665,0.05872 0.89352,0.17618c0.28525,0.11746 0.51598,0.27686 0.69216,0.47822l-0.52855,1.18296c-0.13423,-0.11746 -0.28106,-0.21394 -0.44046,-0.28945c-0.15102,-0.07551 -0.29365,-0.11326 -0.42788,-0.11326c-0.20974,0 -0.39012,0.03356 -0.54114,0.10068c-0.14263,0.06712 -0.25169,0.1678 -0.3272,0.30203c-0.06712,0.13423 -0.10068,0.29783 -0.10068,0.49081v8.77152h-0.78025c-0.12585,0 -0.25589,0 -0.39012,0c-0.12585,0 -0.25589,0 -0.39012,0zM177.4133,143.95914v-1.42206h4.6815v1.42207zM186.96946,150.44024c-0.77186,0 -1.46402,-0.17618 -2.07647,-0.52855c-0.60406,-0.36076 -1.08228,-0.84737 -1.43465,-1.45982c-0.34398,-0.62085 -0.51597,-1.32559 -0.51597,-2.11423c0,-0.78863 0.17199,-1.48919 0.51598,-2.10163c0.35237,-0.62085 0.83059,-1.10745 1.43465,-1.45982c0.61245,-0.36076 1.30461,-0.54114 2.07648,-0.54114c0.75508,0 1.43465,0.18038 2.03872,0.54115c0.61245,0.35237 1.09487,0.83897 1.44724,1.45982c0.35237,0.61245 0.52855,1.313 0.52855,2.10165c0,0.78863 -0.17618,1.49337 -0.52855,2.11423c-0.35237,0.61245 -0.83478,1.09907 -1.44723,1.45982c-0.60406,0.35237 -1.28363,0.52855 -2.03872,0.52855zM186.96946,149.03076c0.46983,0 0.88931,-0.11746 1.25846,-0.35237c0.36915,-0.23491 0.6586,-0.55372 0.86835,-0.95643c0.20974,-0.41109 0.31042,-0.87254 0.30203,-1.38431c0.00839,-0.52017 -0.09229,-0.9816 -0.30203,-1.38431c-0.20974,-0.41109 -0.49919,-0.72991 -0.86834,-0.95643c-0.36915,-0.23491 -0.78863,-0.35237 -1.25846,-0.35237c-0.46983,0 -0.89351,0.11746 -1.27105,0.35237c-0.37754,0.23491 -0.67118,0.55792 -0.88092,0.96903c-0.20974,0.40271 -0.31042,0.85995 -0.30203,1.37174c-0.00839,0.51177 0.09229,0.97322 0.30203,1.38431c0.20974,0.40271 0.50339,0.72152 0.88092,0.95643c0.37754,0.23491 0.80122,0.35237 1.27106,0.35237zM192.66164,150.28922v-7.89059h1.5605v2.47918l-0.15102,-0.60406c0.10907,-0.37754 0.29783,-0.72152 0.56632,-1.03194c0.26847,-0.31042 0.5747,-0.55372 0.91869,-0.72991c0.34398,-0.18457 0.70054,-0.27686 1.0697,-0.27686c0.16779,0 0.3272,0.01678 0.47822,0.05034c0.15941,0.02517 0.28526,0.05872 0.37754,0.10068l-0.40271,1.68635c-0.11745,-0.05034 -0.25169,-0.09229 -0.40271,-0.12585c-0.14262,-0.04195 -0.28526,-0.06292 -0.42788,-0.06292c-0.26847,0 -0.52436,0.05454 -0.76766,0.1636c-0.2433,0.10068 -0.46144,0.24749 -0.6544,0.44047c-0.18458,0.18457 -0.3314,0.39851 -0.44046,0.64182c-0.10907,0.24331 -0.1636,0.51177 -0.1636,0.80542v4.3543zM203.31459,150.28922v-10.52079h4.27879c0.57051,0 1.08648,0.14263 1.54792,0.42788c0.46983,0.28525 0.84318,0.67537 1.12004,1.17038c0.28526,0.4866 0.42788,1.03194 0.42788,1.63601c0,0.60406 -0.14262,1.1536 -0.42788,1.6486c-0.27686,0.4866 -0.6502,0.87673 -1.12003,1.17038c-0.46144,0.29365 -0.97741,0.44047 -1.54792,0.44047h-2.65536v4.02709zM204.93801,144.70163h2.6302c0.26848,0 0.51178,-0.07551 0.72991,-0.22652c0.22652,-0.1594 0.40691,-0.36495 0.54115,-0.61665c0.13424,-0.26008 0.20135,-0.54534 0.20135,-0.85576c0,-0.31042 -0.06711,-0.59148 -0.20135,-0.84317c-0.13424,-0.25169 -0.31462,-0.45305 -0.54114,-0.60406c-0.21813,-0.15102 -0.46144,-0.22652 -0.72991,-0.22652h-2.63019zM215.84955,150.44024c-0.77186,0 -1.46402,-0.17618 -2.07647,-0.52855c-0.60406,-0.36076 -1.08228,-0.84737 -1.43465,-1.45982c-0.34398,-0.62085 -0.51597,-1.32559 -0.51597,-2.11423c0,-0.78863 0.17199,-1.48919 0.51598,-2.10163c0.35237,-0.62085 0.83059,-1.10745 1.43465,-1.45982c0.61246,-0.36076 1.30461,-0.54114 2.07648,-0.54114c0.75508,0 1.43465,0.18038 2.03872,0.54115c0.61245,0.35237 1.09487,0.83897 1.44724,1.45982c0.35237,0.61245 0.52855,1.313 0.52855,2.10165c0,0.78863 -0.17618,1.49337 -0.52855,2.11423c-0.35237,0.61245 -0.83478,1.09907 -1.44723,1.45982c-0.60406,0.35237 -1.28363,0.52855 -2.03872,0.52855zM215.84955,149.03076c0.46983,0 0.88932,-0.11746 1.25846,-0.35237c0.36915,-0.23491 0.6586,-0.55372 0.86835,-0.95643c0.20974,-0.41109 0.31042,-0.87254 0.30203,-1.38431c0.00839,-0.52017 -0.09229,-0.9816 -0.30203,-1.38431c-0.20974,-0.41109 -0.49919,-0.72991 -0.86835,-0.95643c-0.36915,-0.23491 -0.78863,-0.35237 -1.25846,-0.35237c-0.46983,0 -0.89351,0.11746 -1.27105,0.35237c-0.37754,0.23491 -0.67118,0.55792 -0.88092,0.96903c-0.20975,0.40271 -0.31043,0.85995 -0.30203,1.37174c-0.00839,0.51177 0.09228,0.97322 0.30203,1.38431c0.20975,0.40271 0.50339,0.72152 0.88092,0.95643c0.37754,0.23491 0.80122,0.35237 1.27106,0.35237zM221.56691,150.28922v-11.12485h1.54792v11.12485zM226.40918,153.75002l1.59826,-3.68731l0.01259,1.23329l-3.939,-8.89736h1.79961l2.4666,5.80154c0.05034,0.10068 0.10906,0.25589 0.17618,0.46564c0.07551,0.20135 0.13843,0.40271 0.18877,0.60406l-0.39012,0.08809c0.07551,-0.20974 0.15102,-0.41949 0.22652,-0.62923c0.07551,-0.20974 0.14682,-0.41949 0.21394,-0.62923l2.06389,-5.70085h1.83736l-3.24685,7.8906l-1.33397,3.46079zM238.6127,150.44024c-0.74669,0 -1.43465,-0.13423 -2.06389,-0.40271c-0.62084,-0.27686 -1.16618,-0.6544 -1.63601,-1.13262c-0.46144,-0.4866 -0.8222,-1.05711 -1.08228,-1.71152c-0.25169,-0.66279 -0.37754,-1.38431 -0.37754,-2.16457c0,-0.78025 0.12585,-1.49757 0.37754,-2.15197c0.26009,-0.6544 0.62084,-1.22491 1.08228,-1.71152c0.46983,-0.4866 1.01517,-0.86414 1.63601,-1.13262c0.62923,-0.27686 1.3172,-0.41529 2.06389,-0.41529c0.73831,0 1.41788,0.13843 2.03872,0.4153c0.62923,0.26848 1.17876,0.6502 1.6486,1.14521c0.46983,0.4866 0.83059,1.05711 1.08228,1.71152c0.25169,0.6544 0.37754,1.36753 0.37754,2.1394c0,0.77186 -0.12585,1.48499 -0.37754,2.1394c-0.25169,0.6544 -0.61246,1.2291 -1.08228,1.72411c-0.46983,0.4866 -1.01936,0.86835 -1.64859,1.14521c-0.62084,0.26848 -1.30042,0.40271 -2.03872,0.40271zM238.6127,148.86716c0.51178,0 0.97741,-0.09648 1.39691,-0.28945c0.42788,-0.19297 0.79703,-0.46143 1.10745,-0.80542c0.31043,-0.34398 0.55372,-0.74669 0.72991,-1.20813c0.17618,-0.46983 0.26428,-0.9816 0.26428,-1.53533c0,-0.55372 -0.08809,-1.06131 -0.26428,-1.52274c-0.17618,-0.46983 -0.41949,-0.87673 -0.72991,-1.22071c-0.31043,-0.34398 -0.67957,-0.60826 -1.10745,-0.79283c-0.41949,-0.19297 -0.88512,-0.28945 -1.39689,-0.28945c-0.51178,0 -0.9816,0.09648 -1.40948,0.28945c-0.42788,0.18457 -0.80122,0.44885 -1.12003,0.79284c-0.31043,0.33559 -0.54953,0.7383 -0.71732,1.20813c-0.16779,0.46143 -0.25169,0.97322 -0.25169,1.53533c0,0.55372 0.0839,1.0655 0.25169,1.53533c0.16779,0.46983 0.40691,0.87673 0.71733,1.22072c0.31881,0.33559 0.69216,0.59986 1.12004,0.79284c0.42788,0.19297 0.89771,0.28945 1.40948,0.28945zM249.20533,150.44024c-0.57051,0 -1.09906,-0.07551 -1.58567,-0.22652c-0.48661,-0.15102 -0.92707,-0.37754 -1.32139,-0.67957c-0.39432,-0.31042 -0.74669,-0.68796 -1.05711,-1.13262l1.10745,-1.28363c0.495,0.70474 0.96483,1.19134 1.40948,1.45982c0.45305,0.26848 0.99,0.40271 1.61084,0.40271c0.37754,0 0.72152,-0.05872 1.03194,-0.17618c0.31043,-0.12585 0.55372,-0.29365 0.72991,-0.50339c0.18458,-0.20974 0.27686,-0.44885 0.27686,-0.71732c0,-0.17618 -0.02937,-0.34398 -0.08809,-0.50339c-0.05873,-0.1678 -0.15102,-0.31462 -0.27686,-0.44046c-0.12585,-0.13423 -0.28526,-0.25589 -0.47822,-0.36495c-0.19296,-0.10906 -0.41949,-0.20555 -0.67957,-0.28945c-0.26009,-0.08389 -0.56212,-0.15521 -0.90609,-0.21394c-0.53695,-0.11746 -1.00677,-0.26428 -1.40948,-0.44046c-0.40271,-0.18457 -0.73831,-0.41109 -1.00677,-0.67957c-0.26847,-0.26848 -0.46983,-0.5747 -0.60406,-0.91868c-0.13424,-0.34398 -0.20135,-0.73411 -0.20135,-1.17037c0,-0.41949 0.09228,-0.80962 0.27686,-1.17037c0.19296,-0.36076 0.44885,-0.67118 0.76767,-0.93126c0.3272,-0.26848 0.70894,-0.47402 1.14521,-0.61665c0.44466,-0.15102 0.92288,-0.22652 1.43465,-0.22652c0.54534,0 1.04034,0.07131 1.48499,0.21394c0.45305,0.14263 0.85576,0.35237 1.20813,0.62923c0.35237,0.26848 0.64182,0.60406 0.86835,1.00677l-1.1452,1.13262c-0.19296,-0.33559 -0.41529,-0.61245 -0.66699,-0.83059c-0.25169,-0.22652 -0.52855,-0.39851 -0.83059,-0.51597c-0.30203,-0.11746 -0.62084,-0.17618 -0.95643,-0.17618c-0.39432,0 -0.73831,0.06292 -1.03194,0.18877c-0.28526,0.11746 -0.51178,0.28525 -0.67957,0.50339c-0.16779,0.20974 -0.25169,0.46143 -0.25169,0.75508c0,0.20974 0.04194,0.40271 0.12585,0.57889c0.0839,0.17618 0.20555,0.3314 0.36496,0.46564c0.16779,0.13423 0.39013,0.25589 0.66699,0.36496c0.28526,0.10068 0.62084,0.18877 1.00677,0.26428c0.55372,0.12585 1.04454,0.28106 1.47241,0.46564c0.43627,0.18457 0.80122,0.40271 1.09487,0.6544c0.30203,0.25169 0.52855,0.53275 0.67957,0.84318c0.15941,0.31042 0.23911,0.64602 0.23911,1.00677c0,0.67118 -0.15521,1.25427 -0.46563,1.74928c-0.31043,0.4866 -0.75088,0.86414 -1.32139,1.13262c-0.57051,0.26008 -1.25008,0.39013 -2.03872,0.39013zM262.32331,150.28922c-0.52017,0 -1.00258,-0.09229 -1.44723,-0.27686c-0.44466,-0.18457 -0.83059,-0.44046 -1.15779,-0.76766c-0.3272,-0.33559 -0.58309,-0.72571 -0.76766,-1.17037c-0.18457,-0.45305 -0.27686,-0.95224 -0.27686,-1.49757c0,-0.26848 0.03775,-0.57051 0.11326,-0.90609c0.07551,-0.33559 0.18877,-0.70474 0.33979,-1.10745c0.1594,-0.40271 0.34817,-0.82639 0.56632,-1.27105c0.21814,-0.44466 0.47402,-0.90609 0.76767,-1.38431l1.37174,-2.31558h1.57309l0.06292,0.15102l-1.66118,2.78122c-0.30203,0.51177 -0.57051,0.99839 -0.80542,1.45982c-0.23491,0.45305 -0.43208,0.88512 -0.59148,1.29623c-0.1594,0.40271 -0.27686,0.77186 -0.35237,1.10745l-0.36495,-1.54791c0.19297,-0.31042 0.39851,-0.58309 0.61665,-0.818c0.21814,-0.24331 0.45305,-0.44466 0.70474,-0.60406c0.26008,-0.1594 0.52855,-0.27686 0.80542,-0.35237c0.28525,-0.08389 0.57889,-0.12585 0.88092,-0.12585c0.57889,0 1.11165,0.1594 1.59826,0.47822c0.4866,0.31042 0.87673,0.72991 1.17038,1.25846c0.29365,0.52017 0.44047,1.09066 0.44047,1.71152c0,0.74669 -0.15521,1.41368 -0.46563,2.00097c-0.30203,0.58728 -0.72571,1.05292 -1.27105,1.39691c-0.53694,0.33559 -1.1536,0.50339 -1.84994,0.50339zM262.32331,148.79165c0.38593,0 0.72991,-0.09229 1.03194,-0.27686c0.31042,-0.19297 0.55372,-0.45725 0.72991,-0.79283c0.17618,-0.33559 0.26428,-0.71732 0.26428,-1.1452c0,-0.36915 -0.09229,-0.71732 -0.27686,-1.04452c-0.17618,-0.3272 -0.41529,-0.58728 -0.71732,-0.78025c-0.30203,-0.20135 -0.63762,-0.30203 -1.00677,-0.30203c-0.41109,0 -0.77605,0.09648 -1.09486,0.28945c-0.31881,0.18457 -0.57051,0.43626 -0.75508,0.75508c-0.17618,0.31881 -0.26428,0.67537 -0.26428,1.0697c0,0.41949 0.08809,0.79703 0.26428,1.13262c0.18457,0.33559 0.43208,0.60406 0.7425,0.80542c0.31042,0.19297 0.67118,0.28945 1.08228,0.28945zM271.98053,150.28922v-7.89059h1.54792v7.8906zM272.73561,140.66195c-0.3272,0 -0.58309,-0.08389 -0.76766,-0.25169c-0.17618,-0.17618 -0.26428,-0.41949 -0.26428,-0.72991c0,-0.29365 0.09229,-0.52855 0.27686,-0.70474c0.18457,-0.18457 0.43626,-0.27686 0.75508,-0.27686c0.3272,0 0.57889,0.08809 0.75508,0.26428c0.18457,0.1678 0.27686,0.40691 0.27686,0.71733c0,0.29365 -0.09229,0.53275 -0.27686,0.71733c-0.18457,0.17618 -0.43626,0.26428 -0.75508,0.26428zM275.90608,150.28922v-7.89059h1.54792v1.62343l-0.27686,0.17618c0.10068,-0.34398 0.29783,-0.66279 0.59148,-0.95643c0.29365,-0.30203 0.63762,-0.54534 1.03194,-0.72991c0.40271,-0.18457 0.8138,-0.27686 1.23329,-0.27686c0.60406,0 1.10326,0.11746 1.49758,0.35237c0.40271,0.23491 0.70474,0.59568 0.90609,1.08228c0.20135,0.47822 0.30203,1.08228 0.30203,1.81219v4.80734h-1.54791v-4.70667c0,-0.44466 -0.05872,-0.8138 -0.17618,-1.10745c-0.11746,-0.30203 -0.30203,-0.52017 -0.55372,-0.6544c-0.25169,-0.13423 -0.56211,-0.19297 -0.93126,-0.17618c-0.30203,0 -0.57889,0.05034 -0.83059,0.15102c-0.25169,0.09229 -0.46983,0.22652 -0.6544,0.40271c-0.18457,0.1678 -0.3314,0.36496 -0.44046,0.59148c-0.10068,0.21814 -0.15102,0.45725 -0.15102,0.71733v4.78217h-0.76766c-0.12585,0 -0.25589,0 -0.39012,0c-0.13423,0 -0.26428,0 -0.39012,0zM292.6028,150.44024c-0.77186,0 -1.46402,-0.17618 -2.07647,-0.52855c-0.60406,-0.36076 -1.08228,-0.84737 -1.43465,-1.45982c-0.34398,-0.62085 -0.51597,-1.32559 -0.51597,-2.11423c0,-0.78863 0.17199,-1.48919 0.51598,-2.10163c0.35237,-0.62085 0.83059,-1.10745 1.43465,-1.45982c0.61245,-0.36076 1.30461,-0.54114 2.07648,-0.54114c0.75508,0 1.43465,0.18038 2.03872,0.54115c0.61245,0.35237 1.09487,0.83897 1.44724,1.45982c0.35237,0.61245 0.52855,1.313 0.52855,2.10165c0,0.78863 -0.17618,1.49337 -0.52855,2.11423c-0.35237,0.61245 -0.83478,1.09907 -1.44723,1.45982c-0.60406,0.35237 -1.28363,0.52855 -2.03872,0.52855zM292.6028,149.03076c0.46983,0 0.88931,-0.11746 1.25846,-0.35237c0.36915,-0.23491 0.6586,-0.55372 0.86835,-0.95643c0.20974,-0.41109 0.31042,-0.87254 0.30203,-1.38431c0.00839,-0.52017 -0.09229,-0.9816 -0.30203,-1.38431c-0.20974,-0.41109 -0.49919,-0.72991 -0.86834,-0.95643c-0.36915,-0.23491 -0.78863,-0.35237 -1.25846,-0.35237c-0.46983,0 -0.89351,0.11746 -1.27105,0.35237c-0.37754,0.23491 -0.67118,0.55792 -0.88092,0.96903c-0.20974,0.40271 -0.31042,0.85995 -0.30203,1.37174c-0.00839,0.51177 0.09229,0.97322 0.30203,1.38431c0.20974,0.40271 0.50339,0.72152 0.88092,0.95643c0.37754,0.23491 0.80122,0.35237 1.27106,0.35237zM298.29498,150.28922v-7.89059h1.54792v1.62343l-0.27686,0.17618c0.10068,-0.34398 0.29783,-0.66279 0.59148,-0.95643c0.29365,-0.30203 0.63762,-0.54534 1.03194,-0.72991c0.40271,-0.18457 0.8138,-0.27686 1.23329,-0.27686c0.60406,0 1.10326,0.11746 1.49758,0.35237c0.40271,0.23491 0.70474,0.59568 0.90609,1.08228c0.20135,0.47822 0.30203,1.08228 0.30203,1.81219v4.80734h-1.54791v-4.70667c0,-0.44466 -0.05872,-0.8138 -0.17618,-1.10745c-0.11746,-0.30203 -0.30203,-0.52017 -0.55372,-0.6544c-0.25169,-0.13423 -0.56211,-0.19297 -0.93126,-0.17618c-0.30203,0 -0.57889,0.05034 -0.83059,0.15102c-0.25169,0.09229 -0.46983,0.22652 -0.6544,0.40271c-0.18457,0.1678 -0.3314,0.36496 -0.44046,0.59148c-0.10068,0.21814 -0.15102,0.45725 -0.15102,0.71733v4.78217h-0.76766c-0.12585,0 -0.25589,0 -0.39012,0c-0.13423,0 -0.26428,0 -0.39012,0zM310.91023,150.44024c-0.80542,0 -1.52274,-0.17199 -2.15197,-0.51597c-0.62085,-0.34398 -1.11165,-0.818 -1.4724,-1.42206c-0.35237,-0.60406 -0.52855,-1.29622 -0.52855,-2.07647c0,-0.62085 0.10068,-1.18715 0.30203,-1.69893c0.20135,-0.51177 0.47822,-0.95224 0.83059,-1.32139c0.35237,-0.37754 0.77605,-0.66699 1.27106,-0.86834c0.50339,-0.20974 1.04454,-0.31462 1.62343,-0.31462c0.51177,0 0.9858,0.09648 1.42207,0.28945c0.44466,0.19297 0.82639,0.46143 1.14521,0.80542c0.3272,0.34398 0.57889,0.75088 0.75508,1.22072c0.17618,0.46143 0.26008,0.96482 0.25169,1.51016l-0.01258,0.66699h-6.44336l-0.35237,-1.23329h5.44916l-0.21394,0.25169v-0.35237c-0.03356,-0.33559 -0.14682,-0.63343 -0.33978,-0.89351c-0.18457,-0.26008 -0.42368,-0.46563 -0.71732,-0.61665c-0.29365,-0.15102 -0.60826,-0.22652 -0.94385,-0.22652c-0.54534,0 -1.00258,0.10488 -1.37173,0.31462c-0.36915,0.20135 -0.6502,0.50339 -0.84317,0.90609c-0.18457,0.39432 -0.27686,0.88092 -0.27686,1.45982c0,0.54534 0.11326,1.02356 0.33979,1.43465c0.22652,0.40271 0.54953,0.71733 0.96903,0.94386c0.42788,0.21814 0.91448,0.3272 1.45982,0.3272c0.39432,0 0.75928,-0.06292 1.09487,-0.18877c0.33559,-0.13423 0.70054,-0.37334 1.09487,-0.71732l0.78025,1.09487c-0.24331,0.24331 -0.53694,0.45725 -0.88092,0.64182c-0.34398,0.17618 -0.70894,0.31881 -1.09486,0.42788c-0.38593,0.10068 -0.76766,0.15102 -1.1452,0.15102z" fill="#ffffff" stroke-width="1" stroke-linecap="square"/><path d="M177.81601,171.64039v-11.20036h1.5605v1.79961l-0.23911,-0.12585c0.05872,-0.30203 0.22652,-0.59148 0.50339,-0.86834c0.28525,-0.27686 0.62923,-0.50339 1.03194,-0.67957c0.41109,-0.17618 0.83059,-0.26428 1.25846,-0.26428c0.71313,0 1.34236,0.17618 1.8877,0.52855c0.55372,0.35237 0.98999,0.83478 1.3088,1.44724c0.3272,0.61245 0.49081,1.313 0.49081,2.10165c0,0.78025 -0.1594,1.4808 -0.47822,2.10165c-0.31881,0.61245 -0.75508,1.09907 -1.3088,1.45982c-0.54534,0.35237 -1.16199,0.52855 -1.84994,0.52855c-0.46143,0 -0.91029,-0.09229 -1.34656,-0.27686c-0.42788,-0.18457 -0.79283,-0.42368 -1.09486,-0.71732c-0.30203,-0.29365 -0.4866,-0.59568 -0.55372,-0.90609l0.39013,-0.20135v5.27298zM181.71726,167.0344c0.46143,0 0.87254,-0.11326 1.23329,-0.33978c0.36076,-0.23491 0.64602,-0.54953 0.85576,-0.94385c0.20974,-0.40271 0.31462,-0.85995 0.31462,-1.37173c0,-0.51177 -0.10488,-0.96482 -0.31462,-1.35914c-0.20135,-0.39432 -0.48241,-0.70474 -0.84317,-0.93126c-0.35237,-0.23491 -0.76766,-0.35237 -1.24588,-0.35237c-0.46983,0 -0.88512,0.11326 -1.24588,0.33979c-0.36076,0.22652 -0.64602,0.54115 -0.85576,0.94386c-0.20974,0.39432 -0.31462,0.84737 -0.31462,1.35914c0,0.51177 0.10488,0.96903 0.31462,1.37174c0.20974,0.39432 0.495,0.70894 0.85576,0.94386c0.36076,0.22652 0.77605,0.33979 1.24589,0.33979zM187.32266,168.33062v-11.12485h1.54792v11.12485zM193.95161,168.48164c-0.64601,0 -1.23749,-0.18038 -1.77443,-0.54114c-0.53694,-0.36076 -0.96902,-0.85156 -1.29622,-1.4724c-0.31881,-0.62085 -0.47822,-1.32139 -0.47822,-2.10163c0,-0.79703 0.1636,-1.50178 0.49081,-2.11423c0.3272,-0.61245 0.76766,-1.09486 1.32139,-1.44723c0.56212,-0.35237 1.18715,-0.52855 1.87512,-0.52855c0.41111,0 0.78445,0.06292 1.12004,0.18877c0.34398,0.11746 0.64182,0.28525 0.89352,0.50339c0.26009,0.20974 0.46983,0.45725 0.62923,0.7425c0.16779,0.27686 0.27266,0.5747 0.31462,0.89352l-0.33978,-0.11326v-2.0513h1.5605v7.8906h-1.5605v-1.87511l0.35237,-0.11326c-0.05873,0.27686 -0.18038,0.54534 -0.36495,0.80542c-0.18458,0.25169 -0.41949,0.47822 -0.70474,0.67957c-0.28526,0.19297 -0.59986,0.35237 -0.94385,0.47822c-0.34398,0.11746 -0.70894,0.17618 -1.09486,0.17618zM194.35432,167.05957c0.47822,0 0.89352,-0.11326 1.24589,-0.33978c0.36077,-0.23491 0.64182,-0.55372 0.84318,-0.95643c0.20975,-0.41109 0.31462,-0.87673 0.31462,-1.39689c0,-0.51177 -0.10488,-0.96902 -0.31462,-1.37173c-0.20135,-0.40271 -0.48241,-0.71732 -0.84317,-0.94385c-0.35237,-0.23491 -0.76766,-0.35237 -1.24588,-0.35237c-0.46144,0 -0.86834,0.11746 -1.22071,0.35237c-0.35237,0.22652 -0.63343,0.54115 -0.84317,0.94386c-0.20135,0.40271 -0.30203,0.85995 -0.30203,1.37174c0,0.52017 0.10068,0.9858 0.30203,1.39691c0.20975,0.40271 0.49081,0.72152 0.84318,0.95643c0.35237,0.22652 0.75928,0.33979 1.22072,0.33979zM203.77774,168.48164c-0.72991,0 -1.38431,-0.18038 -1.96321,-0.54114c-0.57051,-0.36076 -1.02356,-0.85156 -1.35914,-1.4724c-0.3356,-0.62085 -0.50339,-1.31719 -0.50339,-2.08906c0,-0.77186 0.16779,-1.4682 0.50339,-2.08906c0.3356,-0.62085 0.78864,-1.11165 1.35914,-1.4724c0.57889,-0.36076 1.23329,-0.54114 1.96321,-0.54114c0.70474,0 1.34237,0.14263 1.91287,0.42788c0.57889,0.28525 1.01937,0.67537 1.3214,1.17038l-0.85576,1.04454c-0.15941,-0.22652 -0.36495,-0.43626 -0.61665,-0.62923c-0.25169,-0.19297 -0.52017,-0.34398 -0.80542,-0.45305c-0.27686,-0.10906 -0.54534,-0.1636 -0.80542,-0.1636c-0.47822,0 -0.90609,0.11746 -1.28363,0.35237c-0.37754,0.23491 -0.67537,0.55792 -0.89351,0.96903c-0.21813,0.41109 -0.3272,0.87254 -0.3272,1.38431c0,0.51177 0.11326,0.97322 0.33979,1.38431c0.23492,0.40271 0.54115,0.72571 0.91869,0.96903c0.37754,0.23491 0.79703,0.35237 1.25846,0.35237c0.27686,0 0.54115,-0.04614 0.79284,-0.13843c0.25169,-0.09229 0.49919,-0.22652 0.7425,-0.40271c0.2433,-0.18457 0.46983,-0.40691 0.67957,-0.66699l0.85576,1.05711c-0.31881,0.45305 -0.77605,0.82639 -1.37173,1.12004c-0.59567,0.28525 -1.21651,0.42788 -1.86253,0.42788zM212.14391,168.48164c-0.80542,0 -1.52274,-0.17199 -2.15197,-0.51597c-0.62084,-0.34398 -1.11165,-0.818 -1.4724,-1.42206c-0.35237,-0.60406 -0.52855,-1.29622 -0.52855,-2.07647c0,-0.62085 0.10068,-1.18715 0.30203,-1.69893c0.20135,-0.51177 0.47822,-0.95224 0.83059,-1.32139c0.35237,-0.37754 0.77605,-0.66699 1.27106,-0.86834c0.50339,-0.20974 1.04452,-0.31462 1.62342,-0.31462c0.51178,0 0.9858,0.09648 1.42207,0.28945c0.44466,0.19297 0.82639,0.46143 1.14521,0.80542c0.3272,0.34398 0.57889,0.75088 0.75508,1.22072c0.17618,0.46143 0.26009,0.96482 0.25169,1.51016l-0.01258,0.66699h-6.44336l-0.35237,-1.23329h5.44916l-0.21394,0.25169v-0.35237c-0.03356,-0.33559 -0.14682,-0.63343 -0.33978,-0.89351c-0.18458,-0.26008 -0.42368,-0.46563 -0.71732,-0.61665c-0.29364,-0.15102 -0.60826,-0.22652 -0.94385,-0.22652c-0.54534,0 -1.00258,0.10488 -1.37173,0.31462c-0.36915,0.20135 -0.6502,0.50339 -0.84317,0.90609c-0.18458,0.39432 -0.27686,0.88092 -0.27686,1.45982c0,0.54534 0.11326,1.02356 0.33979,1.43465c0.22652,0.40271 0.54953,0.71733 0.96903,0.94386c0.42788,0.21814 0.91448,0.3272 1.45982,0.3272c0.39432,0 0.75928,-0.06292 1.09487,-0.18877c0.3356,-0.13423 0.70054,-0.37334 1.09487,-0.71732l0.78025,1.09487c-0.2433,0.24331 -0.53694,0.45725 -0.88092,0.64182c-0.34398,0.17618 -0.70894,0.31881 -1.09486,0.42788c-0.38594,0.10068 -0.76766,0.15102 -1.1452,0.15102zM217.90373,168.49422c-0.3272,0 -0.5831,-0.09648 -0.76767,-0.28945c-0.17618,-0.19297 -0.26428,-0.46983 -0.26428,-0.83059c0,-0.33559 0.09228,-0.60826 0.27686,-0.818c0.19297,-0.20974 0.44467,-0.31462 0.7551,-0.31462c0.33559,0 0.59148,0.10068 0.76767,0.30203c0.18457,0.19297 0.27686,0.46983 0.27686,0.83059c0,0.3272 -0.09648,0.59568 -0.28945,0.80542c-0.19297,0.20974 -0.44466,0.31462 -0.75508,0.31462z" fill="#ffffff" stroke-width="1" stroke-linecap="square"/><path d="M233.40204,73.43047v-16.55771h6.734c0.89787,0 1.70991,0.22447 2.43613,0.6734c0.73942,0.44893 1.32699,1.06292 1.76272,1.84194c0.44893,0.76583 0.6734,1.62409 0.6734,2.57477c0,0.95069 -0.22447,1.81553 -0.6734,2.59457c-0.43573,0.76583 -1.0233,1.37981 -1.76272,1.84194c-0.72622,0.46214 -1.53826,0.6932 -2.43613,0.6932h-4.17904v6.33788zM235.957,64.63667h4.13943c0.42253,0 0.80544,-0.11884 1.14874,-0.3565c0.3565,-0.25087 0.64039,-0.57437 0.85165,-0.97049c0.21126,-0.40932 0.31689,-0.85826 0.31689,-1.34679c0,-0.48854 -0.10563,-0.93087 -0.31689,-1.32699c-0.21126,-0.39611 -0.49514,-0.71301 -0.85165,-0.95069c-0.3433,-0.23767 -0.72622,-0.3565 -1.14874,-0.3565h-4.13943zM253.12968,73.66815c-1.21476,0 -2.30409,-0.27728 -3.26798,-0.83185c-0.95069,-0.56777 -1.70331,-1.33359 -2.25787,-2.29748c-0.54136,-0.97709 -0.81204,-2.08622 -0.81204,-3.32739c0,-1.24116 0.27068,-2.3437 0.81204,-3.30759c0.55457,-0.97709 1.30718,-1.74292 2.25787,-2.29748c0.96388,-0.56777 2.05321,-0.85165 3.26798,-0.85165c1.18835,0 2.25787,0.28389 3.20855,0.85165c0.96388,0.55457 1.72311,1.32039 2.27768,2.29748c0.55457,0.96388 0.83185,2.06642 0.83185,3.30759c0,1.24116 -0.27728,2.35029 -0.83185,3.32739c-0.55457,0.96388 -1.31379,1.72972 -2.27768,2.29748c-0.95069,0.55457 -2.0202,0.83185 -3.20855,0.83185zM253.12968,71.44988c0.73942,0 1.39961,-0.18486 1.98059,-0.55457c0.58098,-0.3697 1.03651,-0.87146 1.36661,-1.50525c0.33009,-0.64699 0.48854,-1.3732 0.47534,-2.17864c0.0132,-0.81865 -0.14524,-1.54486 -0.47534,-2.17864c-0.33009,-0.64699 -0.78563,-1.14874 -1.36661,-1.50525c-0.58098,-0.3697 -1.24116,-0.55457 -1.98059,-0.55457c-0.73942,0 -1.40622,0.18486 -2.00039,0.55457c-0.59418,0.3697 -1.05632,0.87806 -1.38641,1.52505c-0.33009,0.63379 -0.48854,1.3534 -0.47534,2.15884c-0.0132,0.80544 0.14524,1.53166 0.47534,2.17864c0.33009,0.63379 0.79224,1.13554 1.38641,1.50525c0.59418,0.3697 1.26097,0.55457 2.00039,0.55457zM262.1277,73.43047v-17.5084h2.43613v17.5084zM269.7485,78.87709l2.51535,-5.80312l0.01981,1.94098l-6.19925,-14.00275h2.83224l3.88196,9.13051c0.07922,0.15845 0.17165,0.40273 0.27728,0.73281c0.11884,0.31689 0.21787,0.63379 0.29709,0.95069l-0.61398,0.13865c0.11884,-0.33009 0.23767,-0.6602 0.3565,-0.9903c0.11884,-0.33009 0.23107,-0.6602 0.3367,-0.9903l3.24816,-8.97206h2.89166l-5.10991,12.41829l-2.09942,5.44662zM282.02248,73.43047v-16.55771h2.51535l6.02099,9.82372l-1.20816,-0.01981l6.10021,-9.80391h2.3767v16.55771h-2.55496v-6.79341c0,-1.41282 0.03301,-2.68699 0.09903,-3.82253c0.06602,-1.13554 0.19146,-2.26448 0.37631,-3.38681l0.31689,0.87146l-5.40701,8.37789h-1.56466l-5.24856,-8.27885l0.25748,-0.97049c0.17165,1.05632 0.29048,2.14564 0.3565,3.26798c0.07922,1.10913 0.11884,2.42292 0.11884,3.94137v6.79341zM306.61377,73.66815c-1.01671,0 -1.94758,-0.28389 -2.79262,-0.85165c-0.84505,-0.56777 -1.52505,-1.3402 -2.04001,-2.31729c-0.50175,-0.97709 -0.75263,-2.07962 -0.75263,-3.30759c0,-1.25437 0.25748,-2.3635 0.77243,-3.32739c0.51495,-0.96388 1.20816,-1.72311 2.07962,-2.27768c0.88466,-0.55457 1.86836,-0.83185 2.95107,-0.83185c0.64699,0 1.23457,0.09903 1.76272,0.29709c0.54136,0.18486 1.0101,0.44893 1.40622,0.79224c0.40932,0.33009 0.73942,0.71961 0.9903,1.16855c0.26408,0.43573 0.42912,0.90446 0.49514,1.40622l-0.53476,-0.17826v-3.22836h2.45593v12.41829h-2.45593v-2.95107l0.55457,-0.17826c-0.09243,0.43573 -0.28389,0.85826 -0.57437,1.26757c-0.29048,0.39611 -0.6602,0.75263 -1.10913,1.06952c-0.44893,0.30369 -0.94408,0.55457 -1.48544,0.75263c-0.54136,0.18486 -1.11574,0.27728 -1.72311,0.27728zM307.24756,71.43008c0.75263,0 1.40622,-0.17826 1.96078,-0.53476c0.56777,-0.3697 1.0101,-0.87146 1.32699,-1.50525c0.33009,-0.64699 0.49514,-1.37981 0.49514,-2.19845c0,-0.80544 -0.16506,-1.52505 -0.49514,-2.15884c-0.31689,-0.63379 -0.75922,-1.12894 -1.32699,-1.48544c-0.55457,-0.3697 -1.20816,-0.55457 -1.96078,-0.55457c-0.72622,0 -1.36661,0.18486 -1.92117,0.55457c-0.55457,0.3565 -0.9969,0.85165 -1.32699,1.48544c-0.31689,0.63379 -0.47534,1.3534 -0.47534,2.15884c0,0.81865 0.15845,1.55146 0.47534,2.19845c0.33009,0.63379 0.77243,1.13554 1.32699,1.50525c0.55457,0.3565 1.19496,0.53476 1.92117,0.53476zM316.80988,73.43047v-12.41829h2.45593v3.90176l-0.23767,-0.95069c0.17165,-0.59418 0.46873,-1.13554 0.89126,-1.62409c0.42253,-0.48854 0.90446,-0.87146 1.44583,-1.14874c0.54136,-0.29048 1.10253,-0.43573 1.6835,-0.43573c0.26408,0 0.51495,0.02641 0.75263,0.07922c0.25087,0.03961 0.44893,0.09243 0.59418,0.15845l-0.63379,2.65399c-0.18486,-0.07922 -0.39611,-0.14524 -0.63379,-0.19806c-0.22447,-0.06602 -0.44893,-0.09903 -0.6734,-0.09903c-0.42253,0 -0.82524,0.08583 -1.20816,0.25748c-0.38292,0.15845 -0.72622,0.38951 -1.02991,0.6932c-0.29048,0.29048 -0.52156,0.62718 -0.6932,1.0101c-0.17165,0.38292 -0.25748,0.80544 -0.25748,1.26757v6.85284zM328.55837,69.54852l-0.11884,-2.65399l5.94176,-5.88234h3.28778zM326.3401,73.43047v-17.5084h2.43613v17.5084zM334.71799,73.43047l-4.69399,-5.46642l1.72311,-1.58447l6.08041,7.0509zM345.03507,73.66815c-1.26757,0 -2.39651,-0.27068 -3.38681,-0.81204c-0.97709,-0.54136 -1.74952,-1.28738 -2.31729,-2.23807c-0.55457,-0.95069 -0.83185,-2.04001 -0.83185,-3.26798c0,-0.97709 0.15845,-1.86836 0.47534,-2.67379c0.31689,-0.80544 0.75263,-1.49864 1.30718,-2.07962c0.55457,-0.59418 1.22136,-1.04971 2.00039,-1.36661c0.79224,-0.33009 1.64389,-0.49514 2.55496,-0.49514c0.80544,0 1.55146,0.15185 2.23807,0.45553c0.69981,0.30369 1.30058,0.72622 1.80233,1.26757c0.51495,0.54136 0.91107,1.18175 1.18835,1.92117c0.27728,0.72622 0.40932,1.51845 0.39611,2.3767l-0.01981,1.04971h-10.14061l-0.55457,-1.94098h8.57595l-0.3367,0.39611v-0.55457c-0.05282,-0.52816 -0.23107,-0.9969 -0.53476,-1.40622c-0.29048,-0.40932 -0.66679,-0.73281 -1.12894,-0.97049c-0.46214,-0.23767 -0.95728,-0.3565 -1.48544,-0.3565c-0.85826,0 -1.57787,0.16506 -2.15884,0.49514c-0.58098,0.31689 -1.0233,0.79224 -1.32699,1.42602c-0.29048,0.62059 -0.43573,1.38641 -0.43573,2.29748c0,0.85826 0.17826,1.61088 0.53476,2.25787c0.3565,0.63379 0.86485,1.12894 1.52505,1.48544c0.6734,0.3433 1.43922,0.51495 2.29748,0.51495c0.62059,0 1.19496,-0.09903 1.72311,-0.29709c0.52816,-0.21126 1.10253,-0.58757 1.72311,-1.12894l1.22796,1.72311c-0.38292,0.38292 -0.84505,0.71961 -1.38641,1.0101c-0.54136,0.27728 -1.11574,0.50175 -1.72311,0.6734c-0.60738,0.15845 -1.20816,0.23767 -1.80233,0.23767zM354.65448,73.43047v-15.58723h2.43613v15.58723zM352.05992,63.3889v-2.3767h7.90254v2.3767z" fill="#ffffff" stroke-width="1" stroke-linecap="square"/><path d="M180.71813,291.22322c-0.68838,0 -1.32615,-0.09111 -1.9133,-0.27333c-0.58715,-0.18222 -1.11862,-0.45555 -1.59441,-0.81999c-0.47579,-0.37456 -0.90097,-0.8301 -1.27553,-1.36664l1.33627,-1.54886c0.59727,0.85036 1.16418,1.4375 1.70071,1.76145c0.54666,0.32395 1.19455,0.48592 1.94367,0.48592c0.45555,0 0.87061,-0.07086 1.24516,-0.21259c0.37456,-0.15185 0.66814,-0.35432 0.88073,-0.6074c0.22272,-0.25308 0.33407,-0.54159 0.33407,-0.86554c0,-0.21259 -0.03543,-0.41506 -0.10629,-0.6074c-0.07087,-0.20247 -0.18222,-0.37962 -0.33407,-0.53147c-0.15185,-0.16197 -0.34419,-0.30876 -0.57703,-0.44036c-0.23283,-0.1316 -0.50616,-0.24802 -0.81999,-0.34925c-0.31382,-0.10123 -0.67826,-0.18728 -1.09332,-0.25814c-0.64788,-0.14173 -1.2148,-0.31888 -1.70071,-0.53147c-0.48592,-0.22271 -0.89084,-0.49603 -1.2148,-0.81999c-0.32394,-0.32395 -0.5669,-0.69344 -0.72888,-1.1085c-0.16198,-0.41506 -0.24296,-0.88579 -0.24296,-1.41219c0,-0.50617 0.11135,-0.9769 0.33407,-1.41219c0.23283,-0.4353 0.54159,-0.80987 0.92629,-1.12369c0.39481,-0.32395 0.85542,-0.57196 1.38183,-0.74406c0.53653,-0.18222 1.11357,-0.27333 1.73108,-0.27333c0.65802,0 1.25529,0.08605 1.79182,0.25815c0.54666,0.1721 1.03258,0.42518 1.45775,0.75925c0.42518,0.32395 0.77444,0.72888 1.04777,1.2148l-1.38182,1.36664c-0.23283,-0.40493 -0.5011,-0.73899 -0.8048,-1.00221c-0.3037,-0.27333 -0.63777,-0.48085 -1.00221,-0.62258c-0.36444,-0.14173 -0.74912,-0.21259 -1.15406,-0.21259c-0.4758,0 -0.89085,0.07593 -1.24516,0.22778c-0.3442,0.14173 -0.61752,0.34419 -0.81999,0.6074c-0.20246,0.25308 -0.3037,0.55677 -0.3037,0.9111c0,0.25308 0.05061,0.48592 0.15185,0.69851c0.10124,0.21259 0.24802,0.39987 0.44037,0.56185c0.20246,0.16197 0.47074,0.30876 0.80481,0.44037c0.3442,0.12148 0.74913,0.22778 1.2148,0.31889c0.66814,0.15185 1.26035,0.33913 1.77664,0.56185c0.52641,0.22271 0.96677,0.48592 1.32109,0.78962c0.36444,0.3037 0.63777,0.64283 0.81999,1.0174c0.19235,0.37456 0.28852,0.7795 0.28852,1.2148c0,0.80987 -0.18728,1.51343 -0.56184,2.11071c-0.37457,0.58714 -0.90603,1.04269 -1.59441,1.36664c-0.68838,0.31382 -1.50837,0.47074 -2.45996,0.47074zM188.82775,291.041v-11.95054h1.86775v11.95055zM186.83852,283.34224v-1.82219h6.0588v1.82219zM198.1744,291.22322c-0.77948,0 -1.49317,-0.21765 -2.14106,-0.65295c-0.64788,-0.4353 -1.16924,-1.02751 -1.56404,-1.77663c-0.38468,-0.74913 -0.57703,-1.59441 -0.57703,-2.53588c0,-0.96172 0.19741,-1.81208 0.59222,-2.55107c0.39481,-0.73899 0.92629,-1.32108 1.59442,-1.74626c0.67826,-0.42518 1.43245,-0.63777 2.26254,-0.63777c0.49603,0 0.94653,0.07593 1.35146,0.22778c0.41506,0.14173 0.77444,0.34419 1.07814,0.6074c0.31382,0.25308 0.56691,0.55172 0.75925,0.89592c0.20247,0.33407 0.32901,0.69344 0.37963,1.07814l-0.40999,-0.13666v-2.47514h1.88293v9.52096h-1.88293v-2.26255l0.42518,-0.13666c-0.07086,0.33407 -0.21765,0.65802 -0.44036,0.97184c-0.22271,0.3037 -0.50617,0.57703 -0.85036,0.81999c-0.34419,0.23284 -0.72381,0.42518 -1.13887,0.57703c-0.41506,0.14173 -0.85542,0.21259 -1.32108,0.21259zM198.66032,289.50733c0.57703,0 1.07814,-0.13666 1.50331,-0.40999c0.4353,-0.28345 0.77444,-0.66814 1.0174,-1.15406c0.25308,-0.49603 0.37963,-1.05788 0.37963,-1.68552c0,-0.61751 -0.12654,-1.16924 -0.37962,-1.65515c-0.24296,-0.48592 -0.58209,-0.86554 -1.01739,-1.13887c-0.42518,-0.28345 -0.92628,-0.42518 -1.5033,-0.42518c-0.55677,0 -1.04776,0.14173 -1.47292,0.42518c-0.42518,0.27333 -0.76431,0.65296 -1.01739,1.13888c-0.24296,0.48592 -0.36444,1.03764 -0.36444,1.65516c0,0.62765 0.12148,1.18949 0.36444,1.68553c0.25309,0.48592 0.59222,0.87061 1.0174,1.15406c0.42517,0.27333 0.91615,0.41 1.47292,0.41zM205.99165,291.041v-9.52095h1.88293v2.99144l-0.18222,-0.72888c0.1316,-0.45555 0.35938,-0.87061 0.68333,-1.24516c0.32395,-0.37456 0.69344,-0.66814 1.10851,-0.88073c0.41506,-0.22271 0.84529,-0.33407 1.29072,-0.33407c0.20247,0 0.39481,0.02025 0.57703,0.06074c0.19234,0.03037 0.34419,0.07086 0.45555,0.12148l-0.48592,2.03478c-0.14173,-0.06074 -0.3037,-0.11136 -0.48592,-0.15185c-0.1721,-0.05062 -0.34419,-0.07592 -0.51629,-0.07592c-0.32395,0 -0.6327,0.0658 -0.92628,0.19741c-0.29358,0.12148 -0.55677,0.29864 -0.78962,0.53148c-0.22271,0.22271 -0.39987,0.48085 -0.53147,0.77444c-0.1316,0.29358 -0.1974,0.61751 -0.1974,0.97184v5.25399zM214.8456,291.041v-11.95054h1.86775v11.95055zM212.85637,283.34224v-1.82219h6.0588v1.82219zM226.17078,291.041v-12.69461h5.29955c0.80986,0 1.49319,0.12148 2.04997,0.36444c0.55678,0.24296 0.9769,0.60233 1.26035,1.07814c0.28346,0.4758 0.42518,1.05788 0.42518,1.74627c0,0.68839 -0.19235,1.27553 -0.57703,1.76145c-0.38468,0.48592 -0.9111,0.81999 -1.57923,1.00221v-0.36444c0.5669,0.12148 1.05788,0.33913 1.47294,0.65296c0.42518,0.3037 0.75418,0.68839 0.98703,1.15406c0.24296,0.45555 0.36444,0.9769 0.36444,1.56405c0,0.6074 -0.09617,1.14394 -0.28851,1.6096c-0.18222,0.46566 -0.46061,0.85542 -0.83517,1.16925c-0.36444,0.31382 -0.80986,0.55172 -1.33627,0.7137c-0.51629,0.16197 -1.10344,0.24296 -1.76145,0.24296zM228.12963,289.15807h3.40143c0.49604,0 0.91616,-0.07086 1.26035,-0.21259c0.3442,-0.15185 0.6074,-0.3695 0.78962,-0.65295c0.19235,-0.28345 0.28852,-0.62258 0.28852,-1.01739c0,-0.37456 -0.10124,-0.69344 -0.3037,-0.95665c-0.19235,-0.27333 -0.47073,-0.4758 -0.83517,-0.6074c-0.36444,-0.14173 -0.79468,-0.21259 -1.29071,-0.21259h-3.31032zM228.12963,283.60038h3.21921c0.36444,0 0.68838,-0.07086 0.97184,-0.21259c0.28346,-0.14173 0.50616,-0.33913 0.66814,-0.59221c0.17209,-0.25308 0.25815,-0.54666 0.25815,-0.88073c0,-0.53654 -0.18222,-0.95158 -0.54666,-1.24516c-0.36444,-0.29358 -0.88579,-0.44036 -1.56404,-0.44036h-3.00662zM238.04715,291.041v-9.52095h1.88293v2.99144l-0.18222,-0.72888c0.13161,-0.45555 0.35938,-0.87061 0.68333,-1.24516c0.32394,-0.37456 0.69344,-0.66814 1.10851,-0.88073c0.41505,-0.22271 0.84529,-0.33407 1.29072,-0.33407c0.20246,0 0.39481,0.02025 0.57703,0.06074c0.19235,0.03037 0.3442,0.07086 0.45555,0.12148l-0.48592,2.03478c-0.14172,-0.06074 -0.3037,-0.11136 -0.48592,-0.15185c-0.17209,-0.05062 -0.3442,-0.07592 -0.51629,-0.07592c-0.32394,0 -0.6327,0.0658 -0.92628,0.19741c-0.29357,0.12148 -0.55678,0.29864 -0.78962,0.53148c-0.22272,0.22271 -0.39987,0.48085 -0.53147,0.77444c-0.13161,0.29358 -0.1974,0.61751 -0.1974,0.97184v5.25399zM249.23691,291.22322c-0.93135,0 -1.76652,-0.21259 -2.50551,-0.63777c-0.72888,-0.4353 -1.3059,-1.02246 -1.73108,-1.76145c-0.41506,-0.74913 -0.62258,-1.59949 -0.62258,-2.55107c0,-0.95158 0.20753,-1.79689 0.62259,-2.53588c0.42518,-0.74913 1.00221,-1.33627 1.73108,-1.76145c0.73899,-0.4353 1.57417,-0.65295 2.50552,-0.65295c0.9111,0 1.73108,0.21765 2.45996,0.65296c0.73899,0.42518 1.32109,1.01232 1.74627,1.76145c0.42518,0.73899 0.63777,1.5843 0.63777,2.53589c0,0.95158 -0.21259,1.80194 -0.63777,2.55107c-0.42518,0.73899 -1.00727,1.32616 -1.74626,1.76145c-0.72888,0.42518 -1.54886,0.63777 -2.45996,0.63777zM249.23691,289.52251c0.56691,0 1.07306,-0.14173 1.51849,-0.42518c0.44543,-0.28345 0.79468,-0.66814 1.04777,-1.15406c0.25308,-0.49603 0.37456,-1.05283 0.36444,-1.67034c0.01012,-0.62765 -0.11136,-1.18443 -0.36444,-1.67034c-0.25308,-0.49603 -0.60233,-0.88073 -1.04776,-1.15406c-0.44543,-0.28345 -0.95158,-0.42518 -1.51849,-0.42518c-0.56691,0 -1.07813,0.14173 -1.53367,0.42518c-0.45555,0.28345 -0.80987,0.6732 -1.06295,1.16925c-0.25308,0.48592 -0.37456,1.03764 -0.36444,1.65516c-0.01012,0.61751 0.11136,1.17431 0.36444,1.67034c0.25308,0.48592 0.6074,0.87061 1.06295,1.15406c0.45555,0.28345 0.96677,0.42518 1.53368,0.42518zM258.08089,291.041l-3.24958,-9.52095l1.88293,-0.01518l2.3233,7.12174l-0.40999,-0.03037l2.5207,-5.57287h1.12369l2.53589,5.58806l-0.48592,0.03037l2.33848,-7.12173h1.88293l-3.20402,9.52096h-1.29071l-2.65736,-6.05879l0.42518,0.06074l-2.45996,5.99806zM273.33,291.22322c-0.79973,0 -1.51849,-0.13666 -2.15626,-0.40999c-0.63777,-0.28345 -1.16924,-0.69851 -1.59441,-1.24516l1.26035,-1.07813c0.36444,0.41506 0.75925,0.71876 1.18443,0.9111c0.4353,0.18222 0.92629,0.27333 1.47294,0.27333c0.21259,0 0.41,-0.02531 0.59222,-0.07592c0.19234,-0.05062 0.35938,-0.1316 0.50111,-0.24296c0.14173,-0.11136 0.24802,-0.24296 0.31889,-0.39481c0.07086,-0.15185 0.1063,-0.31888 0.1063,-0.5011c0,-0.31382 -0.11642,-0.56691 -0.34925,-0.75925c-0.12148,-0.08099 -0.31382,-0.1721 -0.57703,-0.27333c-0.25308,-0.10123 -0.58714,-0.20753 -1.00221,-0.31888c-0.69851,-0.18222 -1.27047,-0.38469 -1.71589,-0.6074c-0.44543,-0.23284 -0.78962,-0.49603 -1.03258,-0.78962c-0.18222,-0.23284 -0.31888,-0.48085 -0.40999,-0.74406c-0.08099,-0.27333 -0.12148,-0.57703 -0.12148,-0.9111c0,-0.39481 0.08605,-0.75925 0.25815,-1.09332c0.18222,-0.33407 0.42518,-0.62258 0.72888,-0.86554c0.31382,-0.25308 0.67825,-0.44543 1.09332,-0.57703c0.41506,-0.1316 0.86047,-0.1974 1.33627,-0.1974c0.44543,0 0.88579,0.06074 1.32109,0.18222c0.44543,0.12148 0.85542,0.29864 1.22998,0.53148c0.37456,0.22271 0.68839,0.49098 0.94147,0.80481l-1.06295,1.18443c-0.23284,-0.23284 -0.48592,-0.4353 -0.75925,-0.6074c-0.27333,-0.1721 -0.55172,-0.3037 -0.83517,-0.39481c-0.27333,-0.10123 -0.52135,-0.15185 -0.74406,-0.15185c-0.25308,0 -0.48592,0.02531 -0.69851,0.07593c-0.20247,0.04049 -0.37456,0.11136 -0.51629,0.21259c-0.1316,0.09111 -0.2379,0.21259 -0.31888,0.36444c-0.07086,0.14173 -0.10629,0.3037 -0.10629,0.48592c0.01012,0.15185 0.05062,0.29864 0.12148,0.44037c0.07086,0.14173 0.16704,0.25815 0.28852,0.34926c0.1316,0.10123 0.32901,0.20753 0.59222,0.31889c0.26321,0.10123 0.60233,0.20247 1.0174,0.3037c0.59728,0.15185 1.09332,0.32395 1.48812,0.51629c0.39481,0.18222 0.70862,0.39481 0.94147,0.63777c0.24296,0.23284 0.41,0.50111 0.50111,0.80481c0.10123,0.3037 0.15185,0.64283 0.15185,1.0174c0,0.53654 -0.15691,1.02246 -0.47073,1.45775c-0.3037,0.42518 -0.71876,0.75925 -1.24516,1.00221c-0.51629,0.24296 -1.09332,0.36444 -1.73108,0.36444zM279.1447,291.041v-9.52095h1.86775v9.52096zM280.0558,279.42453c-0.39481,0 -0.70357,-0.10123 -0.92628,-0.3037c-0.21259,-0.21259 -0.31888,-0.50617 -0.31888,-0.88073c0,-0.35432 0.11136,-0.63777 0.33407,-0.85036c0.22271,-0.22271 0.5264,-0.33407 0.9111,-0.33407c0.39481,0 0.69851,0.1063 0.9111,0.31889c0.22271,0.20247 0.33407,0.49098 0.33407,0.86555c0,0.35432 -0.11136,0.64283 -0.33407,0.86555c-0.22271,0.21259 -0.5264,0.31889 -0.9111,0.31889zM283.88137,291.041v-9.52095h1.86775v1.95886l-0.33407,0.21259c0.12148,-0.41506 0.35938,-0.79973 0.7137,-1.15406c0.35432,-0.36444 0.76936,-0.65802 1.24516,-0.88073c0.48592,-0.22271 0.98195,-0.33407 1.48812,-0.33407c0.72888,0 1.33121,0.14173 1.80701,0.42518c0.48592,0.28345 0.85036,0.71876 1.09332,1.3059c0.24296,0.57703 0.36444,1.3059 0.36444,2.18663v5.80065h-1.86774v-5.67917c0,-0.53654 -0.07086,-0.98195 -0.21259,-1.33627c-0.14173,-0.36444 -0.36444,-0.62765 -0.66814,-0.78962c-0.3037,-0.16197 -0.67825,-0.23284 -1.12369,-0.21259c-0.36444,0 -0.69851,0.06074 -1.00221,0.18222c-0.3037,0.11136 -0.56691,0.27333 -0.78962,0.48592c-0.22271,0.20247 -0.39987,0.44037 -0.53147,0.7137c-0.12148,0.26321 -0.18222,0.55172 -0.18222,0.86555v5.77028h-0.92628c-0.15185,0 -0.30876,0 -0.47073,0c-0.16197,0 -0.31888,0 -0.47073,0zM298.93617,295.21686c-0.67825,0 -1.35653,-0.10629 -2.03478,-0.31888c-0.66814,-0.21259 -1.20468,-0.49098 -1.6096,-0.83517l0.68333,-1.44256c0.24296,0.18222 0.5264,0.33913 0.85036,0.47074c0.32395,0.14173 0.66814,0.25308 1.03258,0.33407c0.36444,0.08099 0.72381,0.12148 1.07814,0.12148c0.65802,0 1.20973,-0.11136 1.65516,-0.33407c0.45555,-0.21259 0.79468,-0.53147 1.0174,-0.95665c0.23284,-0.42518 0.34926,-0.95158 0.34926,-1.57923v-1.82219l0.19741,0.12148c-0.06074,0.37456 -0.25814,0.73394 -0.59221,1.07814c-0.33407,0.34419 -0.74913,0.62765 -1.24516,0.85036c-0.48592,0.21259 -0.99209,0.31889 -1.51849,0.31889c-0.90098,0 -1.70578,-0.21259 -2.4144,-0.63777c-0.70862,-0.4353 -1.27047,-1.02246 -1.68552,-1.76145c-0.40493,-0.74913 -0.6074,-1.59949 -0.6074,-2.55107c0,-0.95158 0.20247,-1.79689 0.6074,-2.53588c0.40493,-0.74913 0.95666,-1.33627 1.65516,-1.76145c0.70862,-0.4353 1.50838,-0.65295 2.39922,-0.65295c0.35432,0 0.69851,0.04556 1.03258,0.13667c0.34419,0.09111 0.66307,0.21765 0.95666,0.37963c0.29358,0.16197 0.55172,0.33913 0.77444,0.53148c0.23284,0.19234 0.42011,0.39987 0.56185,0.62259c0.15185,0.21259 0.24296,0.41506 0.27333,0.6074l-0.39481,0.15185v-2.23218h1.86775v8.94393c0,0.75925 -0.11136,1.43245 -0.33407,2.0196c-0.22271,0.58714 -0.54666,1.0832 -0.97184,1.48812c-0.42518,0.40493 -0.94147,0.7137 -1.54886,0.92629c-0.59728,0.21259 -1.27553,0.31889 -2.03478,0.31889zM298.99691,289.50733c0.59728,0 1.12369,-0.13666 1.57923,-0.40999c0.46566,-0.28345 0.82505,-0.66814 1.07814,-1.15406c0.25308,-0.48592 0.37963,-1.04269 0.37963,-1.67034c0,-0.62765 -0.1316,-1.18443 -0.39481,-1.67034c-0.26321,-0.49603 -0.62258,-0.88073 -1.07813,-1.15406c-0.44543,-0.28345 -0.96677,-0.42518 -1.56404,-0.42518c-0.57703,0 -1.09332,0.14173 -1.54886,0.42518c-0.45555,0.28345 -0.81492,0.6732 -1.07813,1.16925c-0.25308,0.48592 -0.37962,1.03764 -0.37962,1.65516c0,0.61751 0.12654,1.17431 0.37963,1.67034c0.26321,0.48592 0.62259,0.87061 1.07814,1.15406c0.45555,0.27333 0.97184,0.41 1.54886,0.41z" fill="#ffffff" stroke-width="1" stroke-linecap="square"/></g></g></svg>