<svg version="1.1" xmlns="http://www.w3.org/2000/svg" xmlns:xlink="http://www.w3.org/1999/xlink" width="59.93191" height="9.05131" viewBox="0,0,59.93191,9.05131"><g transform="translate(-210.03404,-175.47434)"><g data-paper-data="{&quot;isPaintingLayer&quot;:true}" fill="#ffffff" fill-rule="nonzero" stroke="none" stroke-width="1" stroke-linecap="square" stroke-linejoin="miter" stroke-miterlimit="10" stroke-dasharray="" stroke-dashoffset="0" style="mix-blend-mode: normal"><path d="M210.03405,184.40442v-8.44518h1.17182l5.16208,6.9097l-0.19194,0.11112c-0.03367,-0.20204 -0.06398,-0.42091 -0.09092,-0.65662c-0.02021,-0.23571 -0.0404,-0.48826 -0.06061,-0.75764c-0.02021,-0.26938 -0.03704,-0.55561 -0.05051,-0.85867c-0.01347,-0.30306 -0.02357,-0.61958 -0.0303,-0.94957c-0.00673,-0.32999 -0.0101,-0.6701 -0.0101,-1.0203v-2.77802h1.30315v8.44518h-1.19203l-5.08127,-6.65715l0.13133,-0.17173c0.04041,0.49162 0.07408,0.90917 0.10102,1.25263c0.02694,0.34347 0.05051,0.63306 0.07071,0.86877c0.02021,0.23571 0.03367,0.42765 0.04041,0.57581c0.01347,0.14816 0.02021,0.27275 0.02021,0.37377c0.00673,0.09429 0.0101,0.17847 0.0101,0.25255v3.50535zM222.13453,184.52566c-0.61959,0 -1.17518,-0.14142 -1.66681,-0.42428c-0.48489,-0.28959 -0.86876,-0.68019 -1.15162,-1.17182c-0.27612,-0.49836 -0.41418,-1.06407 -0.41418,-1.69712c0,-0.63305 0.13806,-1.19539 0.41418,-1.68702c0.28286,-0.49836 0.66673,-0.88896 1.15162,-1.17182c0.49162,-0.28959 1.04722,-0.43439 1.66681,-0.43439c0.60611,0 1.15162,0.1448 1.63651,0.43439c0.49162,0.28286 0.87886,0.67346 1.16172,1.17182c0.28286,0.49162 0.42428,1.05397 0.42428,1.68702c0,0.63305 -0.14142,1.19876 -0.42428,1.69712c-0.28286,0.49162 -0.67009,0.88223 -1.16172,1.17182c-0.48489,0.28286 -1.03039,0.42428 -1.63651,0.42428zM222.13453,183.39425c0.37714,0 0.71387,-0.09429 1.01019,-0.28286c0.29632,-0.18857 0.52866,-0.44448 0.69703,-0.76774c0.16836,-0.32999 0.24919,-0.7004 0.24245,-1.11121c0.00673,-0.41754 -0.07409,-0.78795 -0.24245,-1.11121c-0.16836,-0.32999 -0.40071,-0.5859 -0.69703,-0.76774c-0.29632,-0.18857 -0.63305,-0.28286 -1.01019,-0.28286c-0.37714,0 -0.71724,0.09429 -1.02029,0.28286c-0.30306,0.18857 -0.53877,0.44785 -0.70713,0.77784c-0.16836,0.32326 -0.24918,0.6903 -0.24245,1.10111c-0.00673,0.41081 0.07408,0.78122 0.24245,1.11121c0.16836,0.32326 0.40408,0.57917 0.70713,0.76774c0.30306,0.18857 0.64315,0.28286 1.02029,0.28286zM228.59359,184.40442l-2.67701,-6.33389h1.34356l1.92946,4.73779l-0.23235,0.11112l2.06079,-4.84892h1.28294l-2.80832,6.33389zM236.20277,184.52566c-0.64652,0 -1.22233,-0.13806 -1.72742,-0.41418c-0.49836,-0.27612 -0.89233,-0.65662 -1.18192,-1.14151c-0.28286,-0.48489 -0.42428,-1.04049 -0.42428,-1.66681c0,-0.49836 0.08081,-0.95295 0.24244,-1.36376c0.16163,-0.41081 0.38387,-0.76438 0.66673,-1.0607c0.28286,-0.30306 0.62295,-0.5354 1.0203,-0.69703c0.40408,-0.16836 0.83846,-0.25255 1.30315,-0.25255c0.41081,0 0.79131,0.07745 1.14151,0.23235c0.35693,0.1549 0.66336,0.3704 0.91927,0.64652c0.26265,0.27612 0.46469,0.60274 0.60612,0.97988c0.14142,0.37041 0.20877,0.77448 0.20203,1.21223l-0.0101,0.5354h-5.17217l-0.28286,-0.98999h4.37412l-0.17173,0.20204v-0.28286c-0.02694,-0.26938 -0.11785,-0.50846 -0.27275,-0.71723c-0.14816,-0.20878 -0.3401,-0.37376 -0.57581,-0.49499c-0.23571,-0.12123 -0.48825,-0.18184 -0.75764,-0.18184c-0.43775,0 -0.80479,0.08418 -1.10111,0.25254c-0.29632,0.16163 -0.52193,0.40408 -0.67683,0.72734c-0.14816,0.31653 -0.22224,0.70714 -0.22224,1.17182c0,0.43775 0.09092,0.82162 0.27275,1.15161c0.18184,0.32326 0.44112,0.57581 0.77785,0.75764c0.34347,0.1751 0.73407,0.26265 1.17182,0.26265c0.31653,0 0.60948,-0.05051 0.87886,-0.15153c0.26938,-0.10775 0.56234,-0.29969 0.87886,-0.57581l0.62632,0.87886c-0.1953,0.1953 -0.43102,0.36704 -0.70713,0.5152c-0.27612,0.14142 -0.56908,0.25591 -0.87887,0.34346c-0.30979,0.08082 -0.61622,0.12123 -0.91927,0.12123zM240.30093,184.40442v-6.33389h1.25263v1.35366l-0.23234,0.14143c0.06734,-0.20878 0.16836,-0.40744 0.30306,-0.59601c0.14142,-0.1953 0.31315,-0.36704 0.5152,-0.5152c0.20878,-0.14816 0.43101,-0.26602 0.66672,-0.35357c0.24245,-0.09429 0.48826,-0.14143 0.73744,-0.14143c0.35693,0 0.67346,0.06061 0.94958,0.18184c0.27612,0.12123 0.50172,0.30306 0.67682,0.5455c0.1751,0.24245 0.30306,0.5455 0.38388,0.90917l-0.19194,-0.05051l0.08082,-0.20204c0.09429,-0.18857 0.21887,-0.36367 0.37377,-0.5253c0.1549,-0.16836 0.33336,-0.31653 0.5354,-0.44448c0.20204,-0.12795 0.41418,-0.22898 0.63642,-0.30306c0.22897,-0.07408 0.45122,-0.11112 0.66672,-0.11112c0.47142,0 0.86203,0.09765 1.17182,0.29296c0.30979,0.1953 0.54214,0.49163 0.69703,0.88897c0.16163,0.3906 0.24245,0.87886 0.24245,1.46478v3.79831h-1.25263v-3.7276c0,-0.36367 -0.04714,-0.65999 -0.14142,-0.88896c-0.09429,-0.22897 -0.23571,-0.39734 -0.42428,-0.5051c-0.18184,-0.11449 -0.41754,-0.17173 -0.70713,-0.17173c-0.22224,0 -0.43438,0.04041 -0.63642,0.12122c-0.1953,0.07408 -0.36703,0.17847 -0.51519,0.31316c-0.14142,0.13469 -0.25255,0.29295 -0.33337,0.47479c-0.07408,0.18184 -0.11112,0.3805 -0.11112,0.59601v3.78821h-1.26273v-3.7478c0,-0.32999 -0.04715,-0.60949 -0.14143,-0.83846c-0.09429,-0.22897 -0.23571,-0.40408 -0.42428,-0.5253c-0.18184,-0.12123 -0.40744,-0.18183 -0.67683,-0.18183c-0.22224,0 -0.43102,0.04041 -0.62632,0.12122c-0.18857,0.07408 -0.35694,0.17847 -0.5051,0.31316c-0.14142,0.12795 -0.25254,0.28285 -0.33336,0.46469c-0.08082,0.18184 -0.12123,0.37713 -0.12123,0.58591v3.80841zM254.76357,184.52566c-0.27612,0 -0.54887,-0.04378 -0.81825,-0.13133c-0.26938,-0.08755 -0.5152,-0.20541 -0.73744,-0.35357c-0.22224,-0.1549 -0.40744,-0.3199 -0.5556,-0.49499c-0.14816,-0.18184 -0.24581,-0.36704 -0.29296,-0.55561l0.31316,-0.16163v1.53549h-1.24253v-8.88967h1.24253v4.04076l-0.19194,-0.10102c0.04041,-0.18857 0.12796,-0.36704 0.26265,-0.5354c0.13469,-0.1751 0.30979,-0.33336 0.5253,-0.47479c0.21551,-0.14142 0.44785,-0.25255 0.69703,-0.33337c0.24918,-0.08755 0.50173,-0.13133 0.75764,-0.13133c0.57244,0 1.07754,0.14142 1.51529,0.42428c0.44448,0.28286 0.79468,0.6701 1.05059,1.16172c0.25591,0.49162 0.38388,1.05734 0.38388,1.69712c0,0.63305 -0.12796,1.19876 -0.38388,1.69712c-0.24918,0.49836 -0.59601,0.89233 -1.04049,1.18192c-0.43775,0.28286 -0.93275,0.42428 -1.48498,0.42428zM254.55143,183.39425c0.37041,0 0.7004,-0.09429 0.98999,-0.28286c0.28959,-0.18857 0.51856,-0.44448 0.68693,-0.76774c0.16836,-0.32999 0.25255,-0.70377 0.25255,-1.12131c0,-0.41081 -0.08419,-0.77785 -0.25255,-1.10111c-0.16163,-0.32999 -0.38724,-0.5859 -0.67683,-0.76774c-0.28959,-0.18857 -0.62295,-0.28286 -1.00009,-0.28286c-0.37714,0 -0.71049,0.09429 -1.00008,0.28286c-0.28959,0.18184 -0.51857,0.43775 -0.68693,0.76774c-0.16836,0.32326 -0.25255,0.6903 -0.25255,1.10111c0,0.41754 0.08418,0.79131 0.25255,1.12131c0.16836,0.32326 0.39734,0.57917 0.68693,0.76774c0.28959,0.18857 0.62294,0.28286 1.00008,0.28286zM261.97855,184.52566c-0.64652,0 -1.22233,-0.13806 -1.72743,-0.41418c-0.49836,-0.27612 -0.89233,-0.65662 -1.18192,-1.14151c-0.28286,-0.48489 -0.42428,-1.04049 -0.42428,-1.66681c0,-0.49836 0.08082,-0.95295 0.24245,-1.36376c0.16163,-0.41081 0.38387,-0.76438 0.66673,-1.0607c0.28286,-0.30306 0.62295,-0.5354 1.02029,-0.69703c0.40408,-0.16836 0.83846,-0.25255 1.30315,-0.25255c0.41081,0 0.79131,0.07745 1.14151,0.23235c0.35693,0.1549 0.66336,0.3704 0.91927,0.64652c0.26265,0.27612 0.46469,0.60274 0.60611,0.97988c0.14142,0.37041 0.20877,0.77448 0.20204,1.21223l-0.0101,0.5354h-5.17217l-0.28285,-0.98999h4.37412l-0.17173,0.20204v-0.28286c-0.02694,-0.26938 -0.11785,-0.50846 -0.27275,-0.71723c-0.14816,-0.20878 -0.3401,-0.37376 -0.57581,-0.49499c-0.23571,-0.12123 -0.48826,-0.18184 -0.75764,-0.18184c-0.43775,0 -0.80478,0.08418 -1.1011,0.25254c-0.29632,0.16163 -0.52193,0.40408 -0.67683,0.72734c-0.14816,0.31653 -0.22225,0.70714 -0.22225,1.17182c0,0.43775 0.09091,0.82162 0.27275,1.15161c0.18184,0.32326 0.44112,0.57581 0.77785,0.75764c0.34347,0.1751 0.73407,0.26265 1.17182,0.26265c0.31653,0 0.60948,-0.05051 0.87887,-0.15153c0.26938,-0.10775 0.56234,-0.29969 0.87886,-0.57581l0.62632,0.87886c-0.1953,0.1953 -0.43101,0.36704 -0.70713,0.5152c-0.27612,0.14142 -0.56907,0.25591 -0.87886,0.34346c-0.30979,0.08082 -0.61622,0.12123 -0.91927,0.12123zM266.09693,184.40442v-6.33389h1.25263v1.99008l-0.12123,-0.48489c0.08755,-0.30306 0.23908,-0.57917 0.45459,-0.82835c0.21551,-0.24918 0.46132,-0.44449 0.73744,-0.58591c0.27612,-0.14816 0.56234,-0.22225 0.85866,-0.22225c0.13469,0 0.26265,0.01347 0.38388,0.04041c0.12795,0.02021 0.22897,0.04714 0.30306,0.08082l-0.32326,1.35366c-0.09429,-0.04041 -0.20203,-0.07408 -0.32326,-0.10102c-0.11449,-0.03367 -0.22897,-0.05051 -0.34346,-0.05051c-0.21551,0 -0.42091,0.04378 -0.61622,0.13133c-0.1953,0.08082 -0.37041,0.19867 -0.5253,0.35357c-0.14816,0.14816 -0.26601,0.3199 -0.35356,0.5152c-0.08755,0.1953 -0.13133,0.41081 -0.13133,0.64652v3.49525z"/></g></g></svg>