<svg version="1.1" xmlns="http://www.w3.org/2000/svg" xmlns:xlink="http://www.w3.org/1999/xlink" width="720" height="540" viewBox="0,0,720,540"><defs><clipPath id="clip-1"><rect x="-240" y="-180" transform="scale(0.5,0.5)" width="1440" height="1080" fill="none" fill-rule="nonzero" stroke-width="0.5" stroke-linecap="butt"/></clipPath></defs><g transform="translate(120,90)"><g clip-path="url(#clip-1)" data-paper-data="{&quot;isPaintingLayer&quot;:true}" stroke="none" stroke-linejoin="miter" stroke-miterlimit="10" stroke-dasharray="" stroke-dashoffset="0" style="mix-blend-mode: normal"><path d="M43.81267,81.45038v0c0,-8.96665 7.26891,-16.23556 16.23556,-16.23556h348.48703c4.30594,0 8.43553,1.71053 11.48028,4.75528c3.04478,3.04477 4.75528,7.17434 4.75528,11.48028v230.19757c0,8.96665 -7.26891,16.23556 -16.23556,16.23556h-348.48703v0c-8.96665,0 -16.23556,-7.26891 -16.23556,-16.23556z" fill-opacity="0.86769" fill="#1d1d1d" fill-rule="evenodd" stroke-width="1" stroke-linecap="square"/><path d="M-240,-180h960v720h-960z" fill-opacity="0" fill="#000000" fill-rule="evenodd" stroke-width="1" stroke-linecap="square"/><path d="M159.90242,109.61304l-3.01669,-10.04764h2.47585l1.51436,5.28823c0.0641,0.23237 0.12019,0.47274 0.16826,0.72112c0.05608,0.24037 0.10016,0.47274 0.13221,0.69708c0.04007,0.21634 0.0681,0.42066 0.08413,0.61296c0.01603,0.18429 0.03606,0.33652 0.0601,0.45671h-0.3245c0.0641,-0.35255 0.11618,-0.66504 0.15625,-0.93746c0.04007,-0.28044 0.08814,-0.54084 0.14422,-0.78121c0.0641,-0.24838 0.13622,-0.50479 0.21634,-0.7692l1.50234,-3.97819h1.94703l1.46628,3.97819c0.11218,0.31249 0.20432,0.60894 0.27643,0.88938c0.08012,0.27242 0.14022,0.53683 0.18028,0.79323c0.04807,0.2564 0.08814,0.50879 0.12019,0.75718l-0.28845,0.03606c0.01603,-0.16826 0.02804,-0.3245 0.03606,-0.46873c0.00801,-0.15223 0.02003,-0.29646 0.03606,-0.43267c0.01603,-0.14422 0.03204,-0.29246 0.04807,-0.44469c0.02404,-0.15223 0.05208,-0.32049 0.08413,-0.50479c0.04007,-0.1923 0.09615,-0.40864 0.16826,-0.64901l1.49032,-5.26419h2.42778l-3.01669,10.04764h-1.8629l-2.3797,-5.78099l0.26441,0.02404l-2.1874,5.75696zM175.36779,109.75727c-0.84131,0 -1.57445,-0.16826 -2.19942,-0.50479c-0.61696,-0.34453 -1.09771,-0.80926 -1.44224,-1.39417c-0.34453,-0.59293 -0.5168,-1.26598 -0.5168,-2.01914c0,-0.58491 0.09214,-1.12175 0.27643,-1.61051c0.1923,-0.48876 0.46072,-0.90941 0.80526,-1.26196c0.34454,-0.36056 0.75317,-0.63699 1.22591,-0.82929c0.48075,-0.20031 1.00156,-0.30046 1.56243,-0.30046c0.53684,0 1.0256,0.09615 1.46628,0.28845c0.4487,0.1923 0.8333,0.46072 1.1538,0.80526c0.32852,0.34453 0.5769,0.75317 0.74516,1.22591c0.17628,0.46472 0.2564,0.97352 0.24037,1.52638l-0.02404,0.61296h-6.06944l-0.3245,-1.286h4.53105l-0.24037,0.26441v-0.27643c-0.01602,-0.24037 -0.09214,-0.4527 -0.22835,-0.63699c-0.12819,-0.1923 -0.29646,-0.34053 -0.50479,-0.44469c-0.20832,-0.10416 -0.4487,-0.15624 -0.72112,-0.15624c-0.36857,0 -0.68506,0.07612 -0.94947,0.22836c-0.26441,0.14422 -0.46472,0.35655 -0.60094,0.637c-0.12819,0.28044 -0.1923,0.62898 -0.1923,1.04563c0,0.41664 0.08814,0.78122 0.26441,1.09371c0.17628,0.31249 0.43267,0.55687 0.7692,0.73314c0.34454,0.16826 0.74917,0.2524 1.21389,0.2524c0.32852,0 0.61697,-0.04807 0.86535,-0.14422c0.2564,-0.09615 0.53283,-0.2604 0.82929,-0.49276l1.08168,1.52638c-0.29646,0.2564 -0.61295,0.46873 -0.94947,0.637c-0.33652,0.16025 -0.68105,0.28044 -1.03361,0.36056c-0.34453,0.08012 -0.68907,0.12019 -1.03361,0.12019zM180.15946,109.61304v-10.62453h2.29558v10.62453zM187.70756,109.75727c-0.73715,0 -1.39818,-0.17227 -1.98308,-0.5168c-0.58491,-0.34453 -1.04562,-0.81326 -1.38215,-1.40618c-0.33652,-0.60094 -0.50479,-1.28199 -0.50479,-2.04318c0,-0.75317 0.16826,-1.42621 0.50479,-2.01914c0.33652,-0.60094 0.79724,-1.07368 1.38215,-1.41821c0.58491,-0.34453 1.24594,-0.5168 1.98309,-0.5168c0.68105,0 1.30603,0.12019 1.87492,0.36056c0.56889,0.24037 1.02159,0.57289 1.35812,0.99756l-1.24995,1.49032c-0.13622,-0.15223 -0.29646,-0.29246 -0.48075,-0.42065c-0.17627,-0.13622 -0.37659,-0.24037 -0.60094,-0.31249c-0.21634,-0.08012 -0.44469,-0.12019 -0.68506,-0.12019c-0.36056,0 -0.68105,0.08413 -0.9615,0.2524c-0.28044,0.16826 -0.49678,0.40063 -0.64901,0.69708c-0.15223,0.29646 -0.22835,0.63298 -0.22835,1.00957c0,0.36857 0.07612,0.70109 0.22836,0.99756c0.16025,0.29646 0.38059,0.53283 0.66103,0.70911c0.28044,0.16826 0.59693,0.2524 0.94948,0.2524c0.24838,0 0.47674,-0.03204 0.68507,-0.09615c0.20833,-0.0641 0.40063,-0.15624 0.5769,-0.27643c0.18429,-0.12819 0.35255,-0.28044 0.50479,-0.45671l1.22591,1.50234c-0.32049,0.40864 -0.7732,0.73314 -1.35811,0.97352c-0.5769,0.24037 -1.19386,0.36056 -1.85088,0.36056zM195.76887,109.75727c-0.79323,0 -1.49833,-0.17227 -2.11529,-0.5168c-0.61697,-0.34453 -1.10572,-0.81326 -1.46628,-1.40618c-0.35255,-0.59293 -0.52882,-1.27398 -0.52882,-2.04318c0,-0.76119 0.17627,-1.43824 0.52882,-2.03116c0.36056,-0.59293 0.84932,-1.06165 1.46628,-1.40618c0.61697,-0.34453 1.32206,-0.5168 2.11529,-0.5168c0.79323,0 1.49833,0.17227 2.11529,0.51681c0.61697,0.34453 1.10171,0.81326 1.45427,1.40619c0.36056,0.59293 0.54085,1.26997 0.54085,2.03116c0,0.7692 -0.18028,1.45025 -0.54084,2.04318c-0.35255,0.59293 -0.8373,1.06165 -1.45426,1.40619c-0.61697,0.34453 -1.32206,0.51681 -2.11529,0.51681zM195.76887,107.77419c0.34453,0 0.64901,-0.08413 0.91342,-0.25239c0.27242,-0.17627 0.48476,-0.41264 0.637,-0.7091c0.15223,-0.29646 0.22434,-0.63699 0.21634,-1.02159c0.00801,-0.37659 -0.0641,-0.71711 -0.21634,-1.02159c-0.15223,-0.30448 -0.36457,-0.54084 -0.63699,-0.7091c-0.26441,-0.17627 -0.56889,-0.26441 -0.91342,-0.26441c-0.34453,0 -0.65302,0.08814 -0.92544,0.26441c-0.27242,0.16826 -0.48476,0.40463 -0.63699,0.70911c-0.15223,0.30448 -0.22434,0.645 -0.21634,1.02159c-0.00801,0.3846 0.0641,0.72513 0.21634,1.02159c0.15223,0.29646 0.36457,0.53283 0.637,0.70911c0.27242,0.16826 0.58091,0.2524 0.92544,0.2524zM201.37384,109.61304v-7.61986h2.17539l0.07211,1.38215l-0.30046,0.01202c0.11218,-0.24838 0.2564,-0.46873 0.43267,-0.66102c0.17627,-0.1923 0.37659,-0.35255 0.60094,-0.48075c0.23237,-0.12819 0.46873,-0.22434 0.70911,-0.28845c0.24037,-0.07211 0.48876,-0.10816 0.74516,-0.10816c0.36857,0 0.70509,0.0601 1.00957,0.18028c0.31249,0.11218 0.58091,0.29646 0.80526,0.55286c0.23237,0.24838 0.41664,0.58892 0.55286,1.02159l-0.36056,-0.03605l0.10817,-0.22835c0.12819,-0.22434 0.28845,-0.42867 0.48075,-0.61295c0.20031,-0.1923 0.41664,-0.35255 0.64901,-0.48075c0.24037,-0.12819 0.48876,-0.22434 0.74516,-0.28845c0.26441,-0.07211 0.51681,-0.10816 0.75718,-0.10816c0.60094,0 1.10171,0.12019 1.50234,0.36056c0.40063,0.23237 0.70509,0.58491 0.91342,1.05765c0.20833,0.46472 0.31249,1.0296 0.31249,1.69464v4.65124h-2.31961v-4.45893c0,-0.31249 -0.04407,-0.56889 -0.1322,-0.7692c-0.08012,-0.20031 -0.20431,-0.34854 -0.37258,-0.44469c-0.16826,-0.10416 -0.37659,-0.15624 -0.62497,-0.15624c-0.20031,0 -0.3846,0.03606 -0.55286,0.10817c-0.16826,0.0641 -0.31249,0.15625 -0.43267,0.27643c-0.12019,0.11218 -0.21233,0.24438 -0.27643,0.39662c-0.0641,0.15223 -0.09615,0.32451 -0.09615,0.51681v4.53105h-2.31961v-4.48297c0,-0.28044 -0.04407,-0.52082 -0.1322,-0.72112c-0.08012,-0.20031 -0.20833,-0.35255 -0.3846,-0.45671c-0.16826,-0.11218 -0.36857,-0.16826 -0.60094,-0.16826c-0.20031,0 -0.3846,0.03606 -0.55286,0.10817c-0.16826,0.0641 -0.31249,0.15625 -0.43267,0.27643c-0.11218,0.11218 -0.20431,0.24438 -0.27643,0.39662c-0.0641,0.15223 -0.09615,0.32049 -0.09615,0.50479v4.54307zM218.82053,109.75727c-0.84131,0 -1.57445,-0.16826 -2.19942,-0.50479c-0.61697,-0.34453 -1.09771,-0.80926 -1.44224,-1.39417c-0.34453,-0.59293 -0.5168,-1.26598 -0.5168,-2.01914c0,-0.58491 0.09214,-1.12175 0.27643,-1.61051c0.1923,-0.48876 0.46072,-0.90941 0.80526,-1.26196c0.34453,-0.36056 0.75317,-0.63699 1.22591,-0.82929c0.48075,-0.20031 1.00156,-0.30046 1.56243,-0.30046c0.53683,0 1.0256,0.09615 1.46628,0.28845c0.4487,0.1923 0.8333,0.46072 1.1538,0.80526c0.32852,0.34453 0.5769,0.75317 0.74516,1.22591c0.17627,0.46472 0.2564,0.97352 0.24037,1.52638l-0.02404,0.61296h-6.06944l-0.3245,-1.286h4.53105l-0.24037,0.26441v-0.27643c-0.01603,-0.24037 -0.09214,-0.4527 -0.22835,-0.63699c-0.12819,-0.1923 -0.29646,-0.34053 -0.50479,-0.44469c-0.20833,-0.10416 -0.4487,-0.15624 -0.72112,-0.15624c-0.36857,0 -0.68506,0.07612 -0.94947,0.22836c-0.26441,0.14422 -0.46472,0.35655 -0.60094,0.637c-0.12819,0.28044 -0.1923,0.62898 -0.1923,1.04563c0,0.41664 0.08814,0.78122 0.26441,1.09371c0.17627,0.31249 0.43267,0.55687 0.7692,0.73314c0.34453,0.16826 0.74917,0.2524 1.21389,0.2524c0.32852,0 0.61697,-0.04807 0.86535,-0.14422c0.2564,-0.09615 0.53283,-0.2604 0.82929,-0.49276l1.08168,1.52638c-0.29646,0.2564 -0.61295,0.46873 -0.94947,0.637c-0.33652,0.16025 -0.68105,0.28044 -1.03361,0.36056c-0.34453,0.08012 -0.68908,0.12019 -1.03361,0.12019zM230.62006,109.61304v-7.89628h-2.99265v-2.15134h8.4852v2.15135h-3.05275v7.89629zM239.7375,109.75727c-0.79323,0 -1.49833,-0.17227 -2.11529,-0.5168c-0.61697,-0.34453 -1.10572,-0.81326 -1.46628,-1.40618c-0.35255,-0.59293 -0.52882,-1.27398 -0.52882,-2.04318c0,-0.76119 0.17627,-1.43824 0.52882,-2.03116c0.36056,-0.59293 0.84932,-1.06165 1.46628,-1.40618c0.61696,-0.34453 1.32206,-0.5168 2.11529,-0.5168c0.79323,0 1.49833,0.17227 2.11529,0.51681c0.61696,0.34453 1.10171,0.81326 1.45427,1.40619c0.36056,0.59293 0.54085,1.26997 0.54085,2.03116c0,0.7692 -0.18028,1.45025 -0.54084,2.04318c-0.35255,0.59293 -0.8373,1.06165 -1.45426,1.40619c-0.61697,0.34453 -1.32206,0.51681 -2.11529,0.51681zM239.7375,107.77419c0.34453,0 0.64901,-0.08413 0.91342,-0.25239c0.27242,-0.17627 0.48476,-0.41264 0.637,-0.7091c0.15223,-0.29646 0.22434,-0.63699 0.21634,-1.02159c0.00801,-0.37659 -0.0641,-0.71711 -0.21634,-1.02159c-0.15224,-0.30448 -0.36457,-0.54084 -0.63699,-0.7091c-0.26441,-0.17627 -0.56889,-0.26441 -0.91342,-0.26441c-0.34454,0 -0.65302,0.08814 -0.92544,0.26441c-0.27243,0.16826 -0.48476,0.40463 -0.63699,0.70911c-0.15224,0.30448 -0.22435,0.645 -0.21634,1.02159c-0.00802,0.3846 0.0641,0.72513 0.21634,1.02159c0.15223,0.29646 0.36457,0.53283 0.637,0.70911c0.27242,0.16826 0.58091,0.2524 0.92544,0.2524zM250.18697,109.61304v-10.04764h4.33876c0.62497,0 1.18184,0.14422 1.6706,0.43267c0.49678,0.28845 0.88938,0.68105 1.17783,1.17783c0.29646,0.49678 0.4447,1.05765 0.4447,1.68262c0,0.64901 -0.14823,1.22992 -0.44469,1.74272c-0.28845,0.51279 -0.68105,0.91743 -1.17783,1.21389c-0.48876,0.29646 -1.04562,0.4447 -1.6706,0.4447h-1.89896v3.35322zM252.57869,104.1205h1.59849c0.20833,0 0.39662,-0.05208 0.56488,-0.15624c0.17628,-0.11218 0.31649,-0.2564 0.42066,-0.43267c0.11218,-0.18429 0.16826,-0.39661 0.16826,-0.63699c0,-0.24838 -0.05608,-0.45671 -0.16826,-0.62497c-0.10416,-0.17627 -0.24438,-0.31249 -0.42065,-0.40864c-0.16826,-0.09615 -0.35655,-0.14422 -0.56488,-0.14422h-1.59848zM262.8845,109.75727c-0.79323,0 -1.49833,-0.17227 -2.11529,-0.5168c-0.61697,-0.34453 -1.10572,-0.81326 -1.46628,-1.40618c-0.35255,-0.59293 -0.52882,-1.27398 -0.52882,-2.04318c0,-0.76119 0.17627,-1.43824 0.52882,-2.03116c0.36056,-0.59293 0.84932,-1.06165 1.46628,-1.40618c0.61696,-0.34453 1.32206,-0.5168 2.11529,-0.5168c0.79323,0 1.49833,0.17227 2.11529,0.51681c0.61697,0.34453 1.10171,0.81326 1.45427,1.40619c0.36056,0.59293 0.54085,1.26997 0.54085,2.03116c0,0.7692 -0.18028,1.45025 -0.54084,2.04318c-0.35255,0.59293 -0.8373,1.06165 -1.45426,1.40619c-0.61697,0.34453 -1.32206,0.51681 -2.11529,0.51681zM262.8845,107.77419c0.34453,0 0.64901,-0.08413 0.91342,-0.25239c0.27242,-0.17627 0.48476,-0.41264 0.637,-0.7091c0.15223,-0.29646 0.22434,-0.63699 0.21634,-1.02159c0.00801,-0.37659 -0.0641,-0.71711 -0.21634,-1.02159c-0.15224,-0.30448 -0.36457,-0.54084 -0.63699,-0.7091c-0.26441,-0.17627 -0.56889,-0.26441 -0.91342,-0.26441c-0.34454,0 -0.65302,0.08814 -0.92544,0.26441c-0.27243,0.16826 -0.48476,0.40463 -0.63699,0.70911c-0.15224,0.30448 -0.22435,0.645 -0.21634,1.02159c-0.00802,0.3846 0.0641,0.72513 0.21634,1.02159c0.15223,0.29646 0.36457,0.53283 0.637,0.70911c0.27242,0.16826 0.58091,0.2524 0.92544,0.2524zM268.51351,109.61304v-10.62453h2.29558v10.62453zM273.61012,112.91819l1.73069,-4.09837l0.03606,1.17783l-3.67772,-8.00446h2.59604l1.61051,3.83397c0.08813,0.1923 0.16826,0.40063 0.24037,0.62497c0.08013,0.21634 0.13621,0.42467 0.16826,0.62497l-0.31249,0.18028c0.05609,-0.14422 0.12019,-0.32049 0.1923,-0.52882c0.07211,-0.21634 0.15224,-0.4527 0.24037,-0.7091l1.40619,-4.02626h2.60806l-3.24505,7.61986l-1.31003,3.30515zM286.36532,109.75727c-0.7692,0 -1.47029,-0.12819 -2.10327,-0.3846c-0.62497,-0.26441 -1.17383,-0.62898 -1.64656,-1.0937c-0.46473,-0.47274 -0.82929,-1.02159 -1.0937,-1.64656c-0.2564,-0.63298 -0.3846,-1.32606 -0.3846,-2.07923c0,-0.76119 0.1282,-1.45426 0.3846,-2.07923c0.26441,-0.63298 0.62898,-1.18184 1.09371,-1.64656c0.47273,-0.47274 1.02159,-0.8373 1.64657,-1.0937c0.63299,-0.26441 1.33007,-0.39661 2.09125,-0.39661c0.75317,0 1.44625,0.13221 2.07924,0.39662c0.63299,0.2564 1.18184,0.62097 1.64657,1.09371c0.47273,0.46472 0.83329,1.01358 1.08168,1.64657c0.2564,0.62497 0.3846,1.31805 0.3846,2.07924c0,0.74516 -0.1282,1.43424 -0.3846,2.06722c-0.24839,0.63298 -0.60895,1.18584 -1.08168,1.65858c-0.46473,0.46472 -1.01358,0.82929 -1.64656,1.09371c-0.63299,0.2564 -1.32206,0.3846 -2.06722,0.3846zM286.3533,107.4617c0.39261,0 0.75317,-0.07211 1.08168,-0.21634c0.32851,-0.14422 0.61296,-0.34854 0.85333,-0.61295c0.24839,-0.26441 0.43668,-0.57289 0.56488,-0.92544c0.13621,-0.35255 0.20432,-0.73715 0.20432,-1.1538c0,-0.42467 -0.0681,-0.81326 -0.20431,-1.16581c-0.1282,-0.35255 -0.31649,-0.66102 -0.56488,-0.92544c-0.24037,-0.26441 -0.52482,-0.46873 -0.85332,-0.61295c-0.32851,-0.14422 -0.68907,-0.21634 -1.08168,-0.21634c-0.39261,0 -0.75717,0.07211 -1.0937,0.21634c-0.32851,0.14422 -0.61696,0.34855 -0.86535,0.61296c-0.24839,0.26441 -0.43668,0.57289 -0.56488,0.92544c-0.1282,0.35255 -0.1923,0.74115 -0.1923,1.16582c0,0.41664 0.0641,0.80526 0.1923,1.16582c0.1282,0.36056 0.31649,0.66904 0.56488,0.92544c0.24839,0.2564 0.53684,0.45671 0.86535,0.60094c0.33652,0.14422 0.70109,0.21634 1.09371,0.21634zM296.76786,109.75727c-0.65702,0 -1.25395,-0.07612 -1.79078,-0.22835c-0.52882,-0.16025 -1.00156,-0.39261 -1.41821,-0.69708c-0.40864,-0.30448 -0.7732,-0.66102 -1.0937,-1.06966l1.4783,-1.68262c0.48075,0.641 0.9615,1.07368 1.44224,1.29802c0.48075,0.21634 0.98153,0.32451 1.50234,0.32451c0.2564,0 0.48876,-0.03204 0.69708,-0.09615c0.20833,-0.07211 0.36858,-0.17227 0.48075,-0.30046c0.12019,-0.12819 0.18028,-0.28845 0.18028,-0.48075c0,-0.14422 -0.03605,-0.27242 -0.10816,-0.3846c-0.07211,-0.11218 -0.17227,-0.21233 -0.30046,-0.30046c-0.12019,-0.08814 -0.26842,-0.16826 -0.44469,-0.24037c-0.16826,-0.07211 -0.34854,-0.1322 -0.54084,-0.18028c-0.1923,-0.05608 -0.38861,-0.10416 -0.58891,-0.14422c-0.55286,-0.12019 -1.03762,-0.26842 -1.45426,-0.44469c-0.40864,-0.18429 -0.74917,-0.40864 -1.02159,-0.67305c-0.27242,-0.26441 -0.47674,-0.56488 -0.61295,-0.9014c-0.12819,-0.34453 -0.1923,-0.72513 -0.1923,-1.14177c0,-0.45671 0.10016,-0.87335 0.30047,-1.24995c0.20833,-0.37659 0.48476,-0.70109 0.82929,-0.97351c0.35255,-0.27242 0.75718,-0.48075 1.21389,-0.62497c0.46473,-0.15223 0.94547,-0.22835 1.44224,-0.22835c0.65702,0 1.2219,0.07211 1.69464,0.21634c0.48075,0.13622 0.88938,0.33252 1.22591,0.58892c0.33652,0.2564 0.62497,0.56889 0.86535,0.93746l-1.50233,1.44224c-0.20031,-0.24838 -0.42065,-0.4527 -0.66102,-0.61295c-0.23236,-0.16025 -0.48075,-0.28444 -0.74516,-0.37258c-0.2564,-0.08814 -0.52482,-0.1322 -0.80525,-0.1322c-0.28845,0 -0.53683,0.03606 -0.74516,0.10817c-0.20031,0.07211 -0.36056,0.17227 -0.48075,0.30047c-0.11217,0.12819 -0.16826,0.28444 -0.16826,0.46873c0,0.16025 0.04807,0.30047 0.14422,0.42066c0.09615,0.11218 0.22435,0.21634 0.3846,0.31249c0.16826,0.08814 0.35655,0.16425 0.56488,0.22836c0.20833,0.05608 0.42867,0.10416 0.66103,0.14422c0.52882,0.10416 1.00556,0.24438 1.43023,0.42066c0.42467,0.16826 0.78923,0.37659 1.09371,0.62497c0.31249,0.24838 0.55286,0.54485 0.72112,0.88938c0.16826,0.33652 0.2524,0.72913 0.2524,1.17783c0,0.69708 -0.17227,1.29001 -0.5168,1.77877c-0.33652,0.48075 -0.79724,0.84932 -1.38215,1.10572c-0.58491,0.24838 -1.26196,0.37258 -2.03116,0.37258z" fill="#ffffff" fill-rule="nonzero" stroke-width="1" stroke-linecap="square"/><path d="M155.12546,133.5106v-7.13093h-2.3436v-1.2419h6.04927v1.2419h-2.41369v7.13093zM161.32773,133.63079c-0.51412,0 -0.98484,-0.14356 -1.41216,-0.43066c-0.42732,-0.2871 -0.77118,-0.6777 -1.03158,-1.17179c-0.25372,-0.49409 -0.38058,-1.05161 -0.38058,-1.67257c0,-0.6343 0.1302,-1.19516 0.3906,-1.68258c0.2604,-0.48741 0.61093,-0.87133 1.05161,-1.15176c0.44735,-0.28043 0.94478,-0.42064 1.49229,-0.42064c0.32717,0 0.62429,0.05007 0.89137,0.15023c0.27376,0.09348 0.51079,0.22701 0.71109,0.40061c0.20698,0.16692 0.37391,0.36389 0.50077,0.5909c0.13354,0.22034 0.217,0.45736 0.25038,0.71109l-0.27041,-0.09013v-1.6325h1.2419v6.27962h-1.2419v-1.49229l0.28043,-0.09013c-0.04674,0.22034 -0.14356,0.434 -0.29044,0.64098c-0.14689,0.20031 -0.33385,0.38058 -0.56086,0.54083c-0.22701,0.15357 -0.47739,0.28043 -0.75115,0.38058c-0.27376,0.09348 -0.5642,0.14022 -0.87133,0.14022zM161.64822,132.49905c0.38058,0 0.71109,-0.09013 0.99152,-0.27041c0.2871,-0.18695 0.51079,-0.44067 0.67102,-0.76117c0.16692,-0.32717 0.25038,-0.69773 0.25038,-1.11171c0,-0.40729 -0.08347,-0.77118 -0.25038,-1.09168c-0.16025,-0.32049 -0.38392,-0.57087 -0.67102,-0.75115c-0.28043,-0.18695 -0.61093,-0.28043 -0.99152,-0.28043c-0.36723,0 -0.69106,0.09348 -0.97149,0.28043c-0.28043,0.18028 -0.50411,0.43066 -0.67102,0.75115c-0.16025,0.32049 -0.24037,0.68439 -0.24037,1.09168c0,0.41397 0.08012,0.78453 0.24037,1.11171c0.16692,0.32049 0.3906,0.57421 0.67102,0.76117c0.28043,0.18028 0.60426,0.27041 0.97149,0.27041zM166.48364,136.14464v-8.91365h1.2419v1.43219l-0.19029,-0.10016c0.04674,-0.24037 0.18028,-0.47072 0.40061,-0.69106c0.22701,-0.22034 0.50077,-0.40061 0.82126,-0.54083c0.32717,-0.14022 0.66101,-0.21032 1.00153,-0.21032c0.56754,0 1.0683,0.14022 1.5023,0.42064c0.44067,0.28043 0.78787,0.66436 1.04159,1.15176c0.2604,0.48741 0.3906,1.04494 0.3906,1.67257c0,0.62095 -0.12686,1.17847 -0.38058,1.67257c-0.25372,0.48741 -0.60092,0.87468 -1.04159,1.16178c-0.434,0.28043 -0.92475,0.42064 -1.47226,0.42064c-0.36723,0 -0.72445,-0.07345 -1.07165,-0.22034c-0.34052,-0.14689 -0.63096,-0.33719 -0.87133,-0.57087c-0.24037,-0.23369 -0.38726,-0.47406 -0.44067,-0.72111l0.31048,-0.16025v4.19643zM169.5884,132.47902c0.36723,0 0.6944,-0.09013 0.9815,-0.27041c0.2871,-0.18695 0.51412,-0.43733 0.68105,-0.75115c0.16692,-0.32049 0.25038,-0.68439 0.25038,-1.09168c0,-0.40729 -0.08347,-0.76784 -0.25038,-1.08166c-0.16025,-0.31382 -0.38392,-0.56086 -0.67102,-0.74114c-0.28043,-0.18695 -0.61093,-0.28043 -0.99152,-0.28043c-0.37391,0 -0.70442,0.09013 -0.99152,0.27041c-0.2871,0.18028 -0.51412,0.43066 -0.68105,0.75115c-0.16692,0.31382 -0.25038,0.67437 -0.25038,1.08166c0,0.40729 0.08347,0.77118 0.25038,1.09168c0.16692,0.31382 0.39394,0.5642 0.68105,0.75115c0.2871,0.18028 0.61761,0.27041 0.99152,0.27041zM179.79137,133.63079c-0.51412,0 -0.98484,-0.14356 -1.41216,-0.43066c-0.42732,-0.2871 -0.77118,-0.6777 -1.03158,-1.17179c-0.25372,-0.49409 -0.38058,-1.05161 -0.38058,-1.67257c0,-0.6343 0.1302,-1.19516 0.3906,-1.68258c0.2604,-0.48741 0.61093,-0.87133 1.05161,-1.15176c0.44735,-0.28043 0.94478,-0.42064 1.49229,-0.42064c0.32717,0 0.62429,0.05007 0.89137,0.15023c0.27376,0.09348 0.51079,0.22701 0.71109,0.40061c0.20698,0.16692 0.37391,0.36389 0.50077,0.5909c0.13354,0.22034 0.217,0.45736 0.25038,0.71109l-0.27041,-0.09013v-1.6325h1.2419v6.27962h-1.2419v-1.49229l0.28043,-0.09013c-0.04674,0.22034 -0.14356,0.434 -0.29044,0.64098c-0.14689,0.20031 -0.33385,0.38058 -0.56086,0.54083c-0.22701,0.15357 -0.47739,0.28043 -0.75115,0.38058c-0.27376,0.09348 -0.5642,0.14022 -0.87133,0.14022zM180.11187,132.49905c0.38058,0 0.71109,-0.09013 0.99152,-0.27041c0.2871,-0.18695 0.51079,-0.44067 0.67102,-0.76117c0.16692,-0.32717 0.25038,-0.69773 0.25038,-1.11171c0,-0.40729 -0.08347,-0.77118 -0.25038,-1.09168c-0.16025,-0.32049 -0.38392,-0.57087 -0.67102,-0.75115c-0.28043,-0.18695 -0.61093,-0.28043 -0.99152,-0.28043c-0.36723,0 -0.69106,0.09348 -0.97149,0.28043c-0.28043,0.18028 -0.50411,0.43066 -0.67102,0.75115c-0.16025,0.32049 -0.24037,0.68439 -0.24037,1.09168c0,0.41397 0.08012,0.78453 0.24037,1.11171c0.16692,0.32049 0.3906,0.57421 0.67102,0.76117c0.28043,0.18028 0.60426,0.27041 0.97149,0.27041zM184.94729,133.5106v-6.27962h1.23188v1.29198l-0.22034,0.14022c0.08012,-0.27376 0.23703,-0.52748 0.47072,-0.76117c0.23369,-0.24037 0.50744,-0.434 0.82126,-0.58089c0.32049,-0.14689 0.64766,-0.22034 0.9815,-0.22034c0.48073,0 0.87801,0.09348 1.19182,0.28043c0.32049,0.18695 0.56086,0.47406 0.72111,0.86132c0.16025,0.38058 0.24037,0.86132 0.24037,1.44221v3.82586h-1.23188v-3.74574c0,-0.35388 -0.04674,-0.64766 -0.14022,-0.88135c-0.09348,-0.24037 -0.24037,-0.41397 -0.44067,-0.5208c-0.20031,-0.10683 -0.44735,-0.15357 -0.74114,-0.14022c-0.24037,0 -0.4607,0.04006 -0.66101,0.12019c-0.20031,0.07345 -0.37391,0.18028 -0.5208,0.32049c-0.14689,0.13354 -0.26373,0.29044 -0.35054,0.47072c-0.08012,0.1736 -0.12019,0.36389 -0.12019,0.57087v3.80583h-0.61093c-0.10016,0 -0.20364,0 -0.31048,0c-0.10683,0 -0.21032,0 -0.31048,0zM198.23515,133.63079c-0.61427,0 -1.16512,-0.14022 -1.65254,-0.42064c-0.48073,-0.2871 -0.86132,-0.67437 -1.14175,-1.16178c-0.27376,-0.49409 -0.41063,-1.05495 -0.41063,-1.68258c0,-0.62763 0.13688,-1.18515 0.41063,-1.67257c0.28043,-0.49409 0.66101,-0.88135 1.14175,-1.16178c0.48741,-0.2871 1.03825,-0.43066 1.65254,-0.43066c0.60092,0 1.14175,0.14356 1.62248,0.43066c0.48741,0.28043 0.87133,0.66769 1.15176,1.16178c0.28043,0.48741 0.42064,1.04494 0.42064,1.67257c0,0.62763 -0.14022,1.18849 -0.42064,1.68258c-0.28043,0.48741 -0.66436,0.87468 -1.15176,1.16178c-0.48073,0.28043 -1.02156,0.42064 -1.62248,0.42064zM198.23515,132.50907c0.37391,0 0.70775,-0.09348 1.00153,-0.28043c0.29379,-0.18695 0.52414,-0.44067 0.69106,-0.76117c0.16692,-0.32717 0.24704,-0.6944 0.24037,-1.10169c0.00668,-0.41397 -0.07345,-0.7812 -0.24037,-1.10169c-0.16692,-0.32717 -0.39727,-0.58089 -0.69106,-0.76117c-0.29379,-0.18695 -0.62763,-0.28043 -1.00153,-0.28043c-0.37391,0 -0.71109,0.09348 -1.01155,0.28043c-0.30046,0.18695 -0.53415,0.44401 -0.70108,0.77118c-0.16692,0.32049 -0.24704,0.68439 -0.24037,1.09168c-0.00668,0.40729 0.07345,0.77452 0.24037,1.10169c0.16692,0.32049 0.40061,0.57421 0.70108,0.76117c0.30046,0.18695 0.63764,0.28043 1.01155,0.28043zM202.76519,136.14464v-8.91365h1.2419v1.43219l-0.19029,-0.10016c0.04674,-0.24037 0.18028,-0.47072 0.40061,-0.69106c0.22701,-0.22034 0.50077,-0.40061 0.82126,-0.54083c0.32717,-0.14022 0.66101,-0.21032 1.00153,-0.21032c0.56754,0 1.0683,0.14022 1.5023,0.42064c0.44067,0.28043 0.78787,0.66436 1.04159,1.15176c0.2604,0.48741 0.3906,1.04494 0.3906,1.67257c0,0.62095 -0.12686,1.17847 -0.38058,1.67257c-0.25372,0.48741 -0.60092,0.87468 -1.04159,1.16178c-0.434,0.28043 -0.92475,0.42064 -1.47226,0.42064c-0.36723,0 -0.72445,-0.07345 -1.07165,-0.22034c-0.34052,-0.14689 -0.63096,-0.33719 -0.87133,-0.57087c-0.24037,-0.23369 -0.38726,-0.47406 -0.44067,-0.72111l0.31048,-0.16025v4.19643zM205.86994,132.47902c0.36723,0 0.6944,-0.09013 0.9815,-0.27041c0.2871,-0.18695 0.51412,-0.43733 0.68105,-0.75115c0.16692,-0.32049 0.25038,-0.68439 0.25038,-1.09168c0,-0.40729 -0.08347,-0.76784 -0.25038,-1.08166c-0.16025,-0.31382 -0.38392,-0.56086 -0.67102,-0.74114c-0.28043,-0.18695 -0.61093,-0.28043 -0.99152,-0.28043c-0.37391,0 -0.70442,0.09013 -0.99152,0.27041c-0.2871,0.18028 -0.51412,0.43066 -0.68105,0.75115c-0.16692,0.31382 -0.25038,0.67437 -0.25038,1.08166c0,0.40729 0.08347,0.77118 0.25038,1.09168c0.16692,0.31382 0.39394,0.5642 0.68105,0.75115c0.2871,0.18028 0.61761,0.27041 0.99152,0.27041zM211.09208,133.5106v-7.88208h1.23188v7.88208zM209.78007,128.43282v-1.20184h3.99612v1.20184zM215.10319,133.5106v-6.27962h1.23188v6.27962zM215.70411,125.84886c-0.2604,0 -0.46405,-0.06677 -0.61093,-0.20031c-0.14022,-0.14022 -0.21032,-0.33385 -0.21032,-0.58089c0,-0.23369 0.07345,-0.42064 0.22034,-0.56086c0.14689,-0.14689 0.3472,-0.22034 0.60092,-0.22034c0.2604,0 0.4607,0.0701 0.60092,0.21032c0.14689,0.13354 0.22034,0.32383 0.22034,0.57087c0,0.23369 -0.07345,0.42398 -0.22034,0.57087c-0.14689,0.14022 -0.3472,0.21032 -0.60092,0.21032zM221.05162,133.63079c-0.61427,0 -1.16512,-0.14022 -1.65254,-0.42064c-0.48073,-0.2871 -0.86132,-0.67437 -1.14175,-1.16178c-0.27376,-0.49409 -0.41063,-1.05495 -0.41063,-1.68258c0,-0.62763 0.13688,-1.18515 0.41063,-1.67257c0.28043,-0.49409 0.66101,-0.88135 1.14175,-1.16178c0.48741,-0.2871 1.03825,-0.43066 1.65254,-0.43066c0.60092,0 1.14175,0.14356 1.62248,0.43066c0.48741,0.28043 0.87133,0.66769 1.15176,1.16178c0.28043,0.48741 0.42064,1.04494 0.42064,1.67257c0,0.62763 -0.14022,1.18849 -0.42064,1.68258c-0.28043,0.48741 -0.66436,0.87468 -1.15176,1.16178c-0.48073,0.28043 -1.02156,0.42064 -1.62248,0.42064zM221.05162,132.50907c0.37391,0 0.70775,-0.09348 1.00153,-0.28043c0.29379,-0.18695 0.52414,-0.44067 0.69106,-0.76117c0.16692,-0.32717 0.24704,-0.6944 0.24037,-1.10169c0.00668,-0.41397 -0.07345,-0.7812 -0.24037,-1.10169c-0.16692,-0.32717 -0.39727,-0.58089 -0.69106,-0.76117c-0.29379,-0.18695 -0.62763,-0.28043 -1.00153,-0.28043c-0.37391,0 -0.71109,0.09348 -1.01155,0.28043c-0.30046,0.18695 -0.53415,0.44401 -0.70108,0.77118c-0.16692,0.32049 -0.24704,0.68439 -0.24037,1.09168c-0.00668,0.40729 0.07345,0.77452 0.24037,1.10169c0.16692,0.32049 0.40061,0.57421 0.70108,0.76117c0.30046,0.18695 0.63764,0.28043 1.01155,0.28043zM225.58166,133.5106v-6.27962h1.23188v1.29198l-0.22034,0.14022c0.08012,-0.27376 0.23703,-0.52748 0.47072,-0.76117c0.23369,-0.24037 0.50744,-0.434 0.82126,-0.58089c0.32049,-0.14689 0.64766,-0.22034 0.9815,-0.22034c0.48073,0 0.87801,0.09348 1.19182,0.28043c0.32049,0.18695 0.56086,0.47406 0.72111,0.86132c0.16025,0.38058 0.24037,0.86132 0.24037,1.44221v3.82586h-1.23188v-3.74574c0,-0.35388 -0.04674,-0.64766 -0.14022,-0.88135c-0.09348,-0.24037 -0.24037,-0.41397 -0.44067,-0.5208c-0.20031,-0.10683 -0.44735,-0.15357 -0.74114,-0.14022c-0.24037,0 -0.4607,0.04006 -0.66101,0.12019c-0.20031,0.07345 -0.37391,0.18028 -0.5208,0.32049c-0.14689,0.13354 -0.26373,0.29044 -0.35054,0.47072c-0.08012,0.1736 -0.12019,0.36389 -0.12019,0.57087v3.80583h-0.61093c-0.10016,0 -0.20364,0 -0.31048,0c-0.10683,0 -0.21032,0 -0.31048,0zM236.82638,133.5106v-7.88208h1.23188v7.88208zM235.51437,128.43282v-1.20184h3.99612v1.20184zM243.40168,133.63079c-0.61427,0 -1.16512,-0.14022 -1.65254,-0.42064c-0.48073,-0.2871 -0.86132,-0.67437 -1.14175,-1.16178c-0.27376,-0.49409 -0.41063,-1.05495 -0.41063,-1.68258c0,-0.62763 0.13688,-1.18515 0.41063,-1.67257c0.28043,-0.49409 0.66101,-0.88135 1.14175,-1.16178c0.48741,-0.2871 1.03825,-0.43066 1.65254,-0.43066c0.60092,0 1.14175,0.14356 1.62248,0.43066c0.48741,0.28043 0.87133,0.66769 1.15176,1.16178c0.28043,0.48741 0.42064,1.04494 0.42064,1.67257c0,0.62763 -0.14022,1.18849 -0.42064,1.68258c-0.28043,0.48741 -0.66436,0.87468 -1.15176,1.16178c-0.48073,0.28043 -1.02156,0.42064 -1.62248,0.42064zM243.40168,132.50907c0.37391,0 0.70775,-0.09348 1.00153,-0.28043c0.29379,-0.18695 0.52414,-0.44067 0.69106,-0.76117c0.16692,-0.32717 0.24704,-0.6944 0.24037,-1.10169c0.00668,-0.41397 -0.07345,-0.7812 -0.24037,-1.10169c-0.16692,-0.32717 -0.39727,-0.58089 -0.69106,-0.76117c-0.29379,-0.18695 -0.62763,-0.28043 -1.00153,-0.28043c-0.37391,0 -0.71109,0.09348 -1.01155,0.28043c-0.30046,0.18695 -0.53415,0.44401 -0.70108,0.77118c-0.16692,0.32049 -0.24704,0.68439 -0.24037,1.09168c-0.00668,0.40729 0.07345,0.77452 0.24037,1.10169c0.16692,0.32049 0.40061,0.57421 0.70108,0.76117c0.30046,0.18695 0.63764,0.28043 1.01155,0.28043zM253.94414,133.63079c-0.58089,0 -1.10169,-0.14356 -1.56239,-0.43066c-0.45403,-0.2871 -0.81458,-0.6777 -1.08166,-1.17179c-0.26707,-0.49409 -0.40061,-1.04827 -0.40061,-1.66255c0,-0.61427 0.13354,-1.16846 0.40061,-1.66255c0.26707,-0.49409 0.62763,-0.88469 1.08166,-1.17179c0.4607,-0.2871 0.9815,-0.43066 1.56239,-0.43066c0.56086,0 1.0683,0.11351 1.52233,0.34052c0.4607,0.22701 0.81124,0.53749 1.05161,0.93143l-0.68105,0.83127c-0.12686,-0.18028 -0.29044,-0.3472 -0.49076,-0.50077c-0.20031,-0.15357 -0.41397,-0.27376 -0.64098,-0.36055c-0.22034,-0.0868 -0.434,-0.1302 -0.64098,-0.1302c-0.38058,0 -0.72111,0.09348 -1.02156,0.28043c-0.30046,0.18695 -0.53749,0.44401 -0.71109,0.77118c-0.1736,0.32717 -0.2604,0.6944 -0.2604,1.10169c0,0.40729 0.09013,0.77452 0.27041,1.10169c0.18695,0.32049 0.43066,0.57755 0.73112,0.77118c0.30046,0.18695 0.6343,0.28043 1.00153,0.28043c0.22034,0 0.43066,-0.03672 0.63096,-0.11017c0.20031,-0.07345 0.39727,-0.18028 0.5909,-0.32049c0.19363,-0.14689 0.37391,-0.32383 0.54083,-0.53082l0.68105,0.84129c-0.25372,0.36055 -0.61761,0.65767 -1.09168,0.89137c-0.47406,0.22701 -0.96815,0.34052 -1.48227,0.34052zM260.50208,133.63079c-0.61427,0 -1.16512,-0.14022 -1.65254,-0.42064c-0.48073,-0.2871 -0.86132,-0.67437 -1.14175,-1.16178c-0.27376,-0.49409 -0.41063,-1.05495 -0.41063,-1.68258c0,-0.62763 0.13688,-1.18515 0.41063,-1.67257c0.28043,-0.49409 0.66101,-0.88135 1.14175,-1.16178c0.48741,-0.2871 1.03825,-0.43066 1.65254,-0.43066c0.60092,0 1.14175,0.14356 1.62248,0.43066c0.48741,0.28043 0.87133,0.66769 1.15176,1.16178c0.28043,0.48741 0.42064,1.04494 0.42064,1.67257c0,0.62763 -0.14022,1.18849 -0.42064,1.68258c-0.28043,0.48741 -0.66436,0.87468 -1.15176,1.16178c-0.48073,0.28043 -1.02156,0.42064 -1.62248,0.42064zM260.50208,132.50907c0.37391,0 0.70775,-0.09348 1.00153,-0.28043c0.29379,-0.18695 0.52414,-0.44067 0.69106,-0.76117c0.16692,-0.32717 0.24704,-0.6944 0.24037,-1.10169c0.00668,-0.41397 -0.07345,-0.7812 -0.24037,-1.10169c-0.16692,-0.32717 -0.39727,-0.58089 -0.69106,-0.76117c-0.29379,-0.18695 -0.62763,-0.28043 -1.00153,-0.28043c-0.37391,0 -0.71109,0.09348 -1.01155,0.28043c-0.30046,0.18695 -0.53415,0.44401 -0.70108,0.77118c-0.16692,0.32049 -0.24704,0.68439 -0.24037,1.09168c-0.00668,0.40729 0.07345,0.77452 0.24037,1.10169c0.16692,0.32049 0.40061,0.57421 0.70108,0.76117c0.30046,0.18695 0.63764,0.28043 1.01155,0.28043zM265.03212,133.5106v-6.27962h1.23188v1.29198l-0.22034,0.14022c0.08012,-0.27376 0.23703,-0.52748 0.47072,-0.76117c0.23369,-0.24037 0.50744,-0.434 0.82126,-0.58089c0.32049,-0.14689 0.64766,-0.22034 0.9815,-0.22034c0.48073,0 0.87801,0.09348 1.19182,0.28043c0.32049,0.18695 0.56086,0.47406 0.72111,0.86132c0.16025,0.38058 0.24037,0.86132 0.24037,1.44221v3.82586h-1.23188v-3.74574c0,-0.35388 -0.04674,-0.64766 -0.14022,-0.88135c-0.09348,-0.24037 -0.24037,-0.41397 -0.44067,-0.5208c-0.20031,-0.10683 -0.44735,-0.15357 -0.74114,-0.14022c-0.24037,0 -0.4607,0.04006 -0.66101,0.12019c-0.20031,0.07345 -0.37391,0.18028 -0.5208,0.32049c-0.14689,0.13354 -0.26373,0.29044 -0.35054,0.47072c-0.08012,0.1736 -0.12019,0.36389 -0.12019,0.57087v3.80583h-0.61093c-0.10016,0 -0.20364,0 -0.31048,0c-0.10683,0 -0.21032,0 -0.31048,0zM272.92851,133.5106v-7.88208h1.23188v7.88208zM271.6165,128.43282v-1.20184h3.99612v1.20184zM276.93962,133.5106v-6.27962h1.23188v6.27962zM277.54054,125.84886c-0.2604,0 -0.46405,-0.06677 -0.61093,-0.20031c-0.14022,-0.14022 -0.21032,-0.33385 -0.21032,-0.58089c0,-0.23369 0.07345,-0.42064 0.22034,-0.56086c0.14689,-0.14689 0.3472,-0.22034 0.60092,-0.22034c0.2604,0 0.4607,0.0701 0.60092,0.21032c0.14689,0.13354 0.22034,0.32383 0.22034,0.57087c0,0.23369 -0.07345,0.42398 -0.22034,0.57087c-0.14689,0.14022 -0.3472,0.21032 -0.60092,0.21032zM280.06372,133.5106v-6.27962h1.23188v1.29198l-0.22034,0.14022c0.08012,-0.27376 0.23703,-0.52748 0.47072,-0.76117c0.23369,-0.24037 0.50744,-0.434 0.82126,-0.58089c0.32049,-0.14689 0.64766,-0.22034 0.9815,-0.22034c0.48073,0 0.87801,0.09348 1.19182,0.28043c0.32049,0.18695 0.56086,0.47406 0.72111,0.86132c0.16025,0.38058 0.24037,0.86132 0.24037,1.44221v3.82586h-1.23188v-3.74574c0,-0.35388 -0.04674,-0.64766 -0.14022,-0.88135c-0.09348,-0.24037 -0.24037,-0.41397 -0.44067,-0.5208c-0.20031,-0.10683 -0.44735,-0.15357 -0.74114,-0.14022c-0.24037,0 -0.4607,0.04006 -0.66101,0.12019c-0.20031,0.07345 -0.37391,0.18028 -0.5208,0.32049c-0.14689,0.13354 -0.26373,0.29044 -0.35054,0.47072c-0.08012,0.1736 -0.12019,0.36389 -0.12019,0.57087v3.80583h-0.61093c-0.10016,0 -0.20364,0 -0.31048,0c-0.10683,0 -0.21032,0 -0.31048,0zM289.38229,133.63079c-0.44735,0 -0.83795,-0.1035 -1.17179,-0.31048c-0.32717,-0.20698 -0.58089,-0.49742 -0.76117,-0.87133c-0.18028,-0.37391 -0.27041,-0.82126 -0.27041,-1.34206v-3.87594h1.23188v3.54543c0,0.36055 0.05675,0.67437 0.17026,0.94144c0.12019,0.26707 0.2871,0.47406 0.50077,0.62095c0.22034,0.14022 0.48741,0.21032 0.80123,0.21032c0.22701,0 0.43733,-0.03672 0.63096,-0.11017c0.19363,-0.07345 0.36055,-0.17694 0.50077,-0.31048c0.14022,-0.14022 0.24704,-0.3038 0.32049,-0.49076c0.08012,-0.19363 0.12019,-0.40395 0.12019,-0.63096v-3.77578h1.23188v6.27962h-1.23188v-1.31201l0.22034,-0.15023c-0.09348,0.30046 -0.25372,0.57087 -0.48073,0.81124c-0.22701,0.23369 -0.49742,0.42064 -0.81124,0.56086c-0.31382,0.14022 -0.64766,0.21032 -1.00153,0.21032zM297.33819,133.63079c-0.64098,0 -1.21185,-0.13688 -1.71262,-0.41063c-0.49409,-0.27376 -0.88469,-0.65099 -1.17179,-1.13173c-0.28043,-0.48073 -0.42064,-1.03158 -0.42064,-1.65254c0,-0.49409 0.08012,-0.94478 0.24037,-1.35207c0.16025,-0.40729 0.38058,-0.75783 0.66101,-1.05161c0.28043,-0.30046 0.61761,-0.53082 1.01155,-0.69106c0.40061,-0.16692 0.83127,-0.25038 1.29198,-0.25038c0.40729,0 0.78453,0.07678 1.13173,0.23035c0.35388,0.15357 0.65767,0.36723 0.9114,0.64098c0.2604,0.27376 0.4607,0.59758 0.60092,0.97149c0.14022,0.36723 0.20698,0.76784 0.20031,1.20184l-0.01001,0.53082h-5.12785l-0.28043,-0.9815h4.33664l-0.17026,0.20031v-0.28043c-0.02671,-0.26707 -0.11684,-0.50411 -0.27041,-0.71109c-0.14689,-0.20698 -0.33719,-0.37057 -0.57087,-0.49076c-0.23369,-0.12019 -0.48408,-0.18028 -0.75115,-0.18028c-0.434,0 -0.79789,0.08347 -1.09168,0.25038c-0.29379,0.16025 -0.51746,0.40061 -0.67102,0.72111c-0.14689,0.31382 -0.22034,0.70108 -0.22034,1.16178c0,0.434 0.09013,0.81458 0.27041,1.14175c0.18028,0.32049 0.43733,0.57087 0.77118,0.75115c0.34052,0.1736 0.72778,0.2604 1.16178,0.2604c0.31382,0 0.60426,-0.05007 0.87133,-0.15023c0.26707,-0.10683 0.55752,-0.29712 0.87133,-0.57087l0.62095,0.87133c-0.19363,0.19363 -0.42732,0.36389 -0.70108,0.51079c-0.27376,0.14022 -0.5642,0.25372 -0.87133,0.34052c-0.30713,0.08012 -0.61093,0.12019 -0.9114,0.12019zM301.92205,133.6408c-0.2604,0 -0.46405,-0.07678 -0.61093,-0.23035c-0.14022,-0.15357 -0.21032,-0.37391 -0.21032,-0.66101c0,-0.26707 0.07345,-0.48408 0.22034,-0.65099c0.15357,-0.16692 0.35388,-0.25038 0.60092,-0.25038c0.26707,0 0.47072,0.08012 0.61093,0.24037c0.14689,0.15357 0.22034,0.37391 0.22034,0.66101c0,0.2604 -0.07678,0.47406 -0.23035,0.64098c-0.15357,0.16692 -0.35388,0.25038 -0.60092,0.25038z" fill="#ffffff" fill-rule="nonzero" stroke-width="1" stroke-linecap="square"/><path d="M264.40674,267.00997v-1.27755h1.44933v-6.40924h-1.44932v-1.28829h4.28357v1.28829h-1.44932v6.40925h1.44933v1.27756zM270.53399,267.00997v-6.73131h1.3205v1.38491l-0.23619,0.1503c0.08588,-0.29344 0.25408,-0.56542 0.50458,-0.81592c0.2505,-0.25766 0.54394,-0.46522 0.88033,-0.62267c0.34355,-0.15746 0.69424,-0.23619 1.0521,-0.23619c0.51531,0 0.94117,0.1002 1.27756,0.3006c0.34355,0.20041 0.6012,0.50816 0.77298,0.92327c0.17177,0.40796 0.25766,0.92327 0.25766,1.54595v4.10106h-1.32049v-4.01517c0,-0.37933 -0.0501,-0.69425 -0.1503,-0.94474c-0.10021,-0.25766 -0.25766,-0.44374 -0.47237,-0.55826c-0.21471,-0.11452 -0.47953,-0.16461 -0.79445,-0.1503c-0.25766,0 -0.49384,0.04294 -0.70856,0.12883c-0.21471,0.07873 -0.40081,0.19324 -0.55826,0.34355c-0.15746,0.14314 -0.28271,0.31134 -0.37575,0.50458c-0.08588,0.18608 -0.12883,0.39007 -0.12883,0.61194v4.07958h-0.65488c-0.10735,0 -0.21829,0 -0.33281,0c-0.11452,0 -0.22545,0 -0.33281,0zM280.40474,267.1388c-0.56542,0 -1.07357,-0.09662 -1.52448,-0.28986c-0.4509,-0.20041 -0.82665,-0.49384 -1.12725,-0.88033l0.89107,-0.76224c0.25766,0.29344 0.53678,0.50816 0.83739,0.64414c0.30775,0.12883 0.65488,0.19324 1.04137,0.19324c0.1503,0 0.28987,-0.01789 0.4187,-0.05367c0.13598,-0.03579 0.25408,-0.09305 0.35429,-0.17177c0.1002,-0.07873 0.17535,-0.17177 0.22545,-0.27913c0.0501,-0.10735 0.07515,-0.22545 0.07515,-0.35428c0,-0.22188 -0.08231,-0.4008 -0.24692,-0.53678c-0.08588,-0.05726 -0.22188,-0.12167 -0.40796,-0.19324c-0.17893,-0.07157 -0.41512,-0.14672 -0.70856,-0.22545c-0.49384,-0.12883 -0.89822,-0.27197 -1.21314,-0.42943c-0.31492,-0.16461 -0.55826,-0.3507 -0.73003,-0.55826c-0.12883,-0.16461 -0.22545,-0.33996 -0.28986,-0.52605c-0.05726,-0.19324 -0.08588,-0.40796 -0.08588,-0.64414c0,-0.27913 0.06083,-0.53678 0.18251,-0.77298c0.12883,-0.23619 0.3006,-0.44016 0.51531,-0.61193c0.22187,-0.17893 0.47953,-0.31491 0.77298,-0.40796c0.29344,-0.09305 0.60836,-0.13956 0.94474,-0.13956c0.31491,0 0.62625,0.04294 0.93401,0.12883c0.31491,0.08588 0.60478,0.21114 0.8696,0.37576c0.26481,0.15746 0.48669,0.34712 0.66562,0.569l-0.7515,0.83739c-0.16462,-0.16461 -0.34355,-0.30776 -0.53678,-0.42943c-0.19324,-0.12167 -0.39007,-0.21471 -0.59046,-0.27913c-0.19324,-0.07157 -0.3686,-0.10735 -0.52605,-0.10735c-0.17893,0 -0.34355,0.01789 -0.49384,0.05368c-0.14315,0.02863 -0.26482,0.07873 -0.36502,0.1503c-0.09305,0.06441 -0.16819,0.1503 -0.22545,0.25766c-0.0501,0.1002 -0.07514,0.21471 -0.07514,0.34355c0.00715,0.10735 0.03579,0.21114 0.08588,0.31134c0.0501,0.1002 0.11809,0.18251 0.20398,0.24693c0.09304,0.07157 0.23261,0.14672 0.4187,0.22545c0.18608,0.07157 0.42585,0.14314 0.7193,0.21471c0.42227,0.10735 0.77298,0.22902 1.0521,0.36502c0.27913,0.12883 0.501,0.27913 0.66562,0.4509c0.17177,0.16461 0.28987,0.35429 0.35429,0.569c0.07157,0.21471 0.10735,0.45448 0.10735,0.7193c0,0.37933 -0.11094,0.72287 -0.33281,1.03063c-0.21471,0.3006 -0.50817,0.53678 -0.88033,0.70856c-0.36502,0.17177 -0.77298,0.25766 -1.22388,0.25766zM285.13842,267.00997v-8.44903h1.3205v8.44904zM283.73203,261.56694v-1.28829h4.28357v1.28829zM291.74651,267.1388c-0.55111,0 -1.05568,-0.15388 -1.51374,-0.46163c-0.45806,-0.30776 -0.82665,-0.72645 -1.10578,-1.25608c-0.27197,-0.52963 -0.40796,-1.12725 -0.40796,-1.79286c0,-0.67993 0.13957,-1.28113 0.4187,-1.8036c0.27913,-0.52248 0.65488,-0.934 1.12726,-1.23461c0.47953,-0.3006 1.01274,-0.4509 1.59963,-0.4509c0.35069,0 0.66919,0.05368 0.95548,0.16104c0.29344,0.1002 0.54752,0.24335 0.76224,0.42943c0.22187,0.17893 0.4008,0.39007 0.53678,0.63341c0.14314,0.23619 0.23261,0.49026 0.2684,0.76224l-0.28986,-0.09662v-1.74992h1.33123v6.73132h-1.33123v-1.59963l0.3006,-0.09662c-0.0501,0.23619 -0.15388,0.46522 -0.31134,0.68709c-0.15746,0.21471 -0.35786,0.40796 -0.6012,0.57973c-0.24335,0.16461 -0.51174,0.3006 -0.80518,0.40796c-0.29345,0.1002 -0.60478,0.1503 -0.934,0.1503zM292.09005,265.92565c0.40796,0 0.76224,-0.09662 1.06284,-0.28986c0.30775,-0.20041 0.54752,-0.47237 0.7193,-0.81592c0.17893,-0.3507 0.2684,-0.74792 0.2684,-1.19167c0,-0.43659 -0.08947,-0.82665 -0.26839,-1.1702c-0.17177,-0.34355 -0.41154,-0.61193 -0.71929,-0.80518c-0.3006,-0.20041 -0.65488,-0.3006 -1.06284,-0.3006c-0.39364,0 -0.74077,0.1002 -1.04136,0.3006c-0.3006,0.19324 -0.54037,0.46164 -0.71929,0.80519c-0.17177,0.34355 -0.25766,0.73361 -0.25766,1.1702c0,0.44374 0.08588,0.84097 0.25766,1.19167c0.17893,0.34355 0.4187,0.61551 0.7193,0.81592c0.3006,0.19324 0.64772,0.28987 1.04137,0.28987zM297.29475,267.00997v-9.4904h1.3205v9.4904zM300.5122,267.00997v-9.4904h1.3205v9.4904zM307.63016,267.00997v-8.97509h3.65015c0.48669,0 0.92686,0.12167 1.3205,0.36502c0.40081,0.24335 0.7193,0.57615 0.95548,0.99843c0.24335,0.41512 0.36502,0.88033 0.36502,1.39564c0,0.51531 -0.12167,0.98411 -0.36502,1.40638c-0.23619,0.41512 -0.55468,0.74792 -0.95548,0.99843c-0.39364,0.2505 -0.83381,0.37576 -1.32049,0.37576h-2.26524v3.43544zM309.01507,262.2433h2.24377c0.22903,0 0.43659,-0.06441 0.62267,-0.19324c0.19324,-0.13599 0.34712,-0.31134 0.46164,-0.52605c0.11452,-0.22188 0.17177,-0.46522 0.17177,-0.73003c0,-0.26482 -0.05726,-0.50457 -0.17177,-0.71929c-0.11451,-0.21471 -0.26839,-0.38649 -0.46163,-0.51531c-0.18608,-0.12883 -0.39364,-0.19324 -0.62267,-0.19324h-2.24377zM318.32348,267.1388c-0.65845,0 -1.24893,-0.1503 -1.77139,-0.4509c-0.51531,-0.30776 -0.92327,-0.72287 -1.22388,-1.24535c-0.29344,-0.52963 -0.44016,-1.13083 -0.44016,-1.8036c0,-0.67278 0.14672,-1.2704 0.44017,-1.79286c0.3006,-0.52963 0.70856,-0.94474 1.22388,-1.24535c0.52248,-0.30776 1.11294,-0.46163 1.7714,-0.46163c0.64414,0 1.22388,0.15388 1.73919,0.46164c0.52248,0.3006 0.93401,0.71572 1.23462,1.24535c0.3006,0.52248 0.4509,1.12009 0.4509,1.79287c0,0.67278 -0.1503,1.27398 -0.4509,1.8036c-0.3006,0.52248 -0.71214,0.93759 -1.23461,1.24535c-0.51531,0.3006 -1.09505,0.4509 -1.73919,0.4509zM318.32348,265.93639c0.40081,0 0.75866,-0.1002 1.07357,-0.3006c0.31492,-0.20041 0.56184,-0.47237 0.74077,-0.81592c0.17893,-0.3507 0.26482,-0.74434 0.25766,-1.18093c0.00716,-0.44374 -0.07873,-0.83739 -0.25766,-1.18093c-0.17893,-0.3507 -0.42585,-0.62267 -0.74077,-0.81592c-0.31491,-0.20041 -0.67277,-0.3006 -1.07357,-0.3006c-0.4008,0 -0.76224,0.1002 -1.08431,0.3006c-0.32207,0.20041 -0.57257,0.47596 -0.7515,0.82666c-0.17893,0.34355 -0.26481,0.73361 -0.25766,1.1702c-0.00715,0.43659 0.07874,0.83023 0.25766,1.18093c0.17893,0.34355 0.42943,0.61551 0.7515,0.81592c0.32207,0.20041 0.68351,0.3006 1.08431,0.3006zM323.20085,267.00997v-9.4904h1.3205v9.4904zM327.33168,269.9623l1.36344,-3.14557l0.01074,1.0521l-3.36029,-7.59017h1.53522l2.10421,4.94918c0.04294,0.08588 0.09304,0.21829 0.1503,0.39723c0.06441,0.17177 0.11809,0.34355 0.16104,0.51531l-0.33281,0.07515c0.06441,-0.17893 0.12883,-0.35786 0.19324,-0.53678c0.06441,-0.17893 0.12525,-0.35786 0.18251,-0.53678l1.76066,-4.86329h1.56742l-2.76982,6.73132l-1.13799,2.95234zM337.7423,267.1388c-0.63699,0 -1.22388,-0.11452 -1.76066,-0.34355c-0.52964,-0.23619 -0.99485,-0.55826 -1.39564,-0.96621c-0.39364,-0.41512 -0.7014,-0.9018 -0.92327,-1.46006c-0.21471,-0.56542 -0.32207,-1.18093 -0.32207,-1.84655c0,-0.66562 0.10735,-1.27755 0.32207,-1.83581c0.22187,-0.55826 0.52963,-1.04494 0.92327,-1.46006c0.4008,-0.41512 0.86601,-0.73719 1.39564,-0.96621c0.53678,-0.23619 1.12367,-0.35428 1.76066,-0.35428c0.62983,0 1.20955,0.11809 1.73919,0.35429c0.53678,0.22902 1.00558,0.55468 1.40638,0.97695c0.4008,0.41512 0.70856,0.9018 0.92327,1.46006c0.21471,0.55826 0.32207,1.16662 0.32207,1.82507c0,0.65845 -0.10735,1.26682 -0.32207,1.82507c-0.21471,0.55826 -0.52248,1.04853 -0.92327,1.4708c-0.40081,0.41512 -0.86959,0.74077 -1.40638,0.97695c-0.52964,0.22902 -1.10936,0.34355 -1.73919,0.34355zM337.7423,265.79682c0.43658,0 0.83381,-0.08231 1.19167,-0.24692c0.36502,-0.16461 0.67993,-0.39364 0.94474,-0.68709c0.26481,-0.29344 0.47237,-0.63698 0.62267,-1.03063c0.1503,-0.4008 0.22545,-0.83739 0.22545,-1.30976c0,-0.47237 -0.07514,-0.90539 -0.22545,-1.29902c-0.1503,-0.4008 -0.35786,-0.74792 -0.62267,-1.04136c-0.26482,-0.29344 -0.57973,-0.5189 -0.94474,-0.67635c-0.35786,-0.16461 -0.75508,-0.24692 -1.19167,-0.24692c-0.43659,0 -0.83739,0.08231 -1.20241,0.24693c-0.36502,0.15746 -0.68351,0.3829 -0.95548,0.67636c-0.26482,0.28629 -0.46879,0.62984 -0.61193,1.03063c-0.14315,0.39364 -0.21471,0.83023 -0.21471,1.30976c0,0.47237 0.07157,0.90896 0.21471,1.30976c0.14314,0.4008 0.34712,0.74792 0.61194,1.04137c0.27197,0.28629 0.59047,0.51174 0.95548,0.67636c0.36502,0.16461 0.76581,0.24693 1.20241,0.24693zM346.77865,267.1388c-0.48669,0 -0.9376,-0.06441 -1.3527,-0.19324c-0.41512,-0.12883 -0.79086,-0.32207 -1.12725,-0.57973c-0.33639,-0.26482 -0.63699,-0.58689 -0.9018,-0.96621l0.94474,-1.09505c0.42227,0.6012 0.82307,1.01632 1.20241,1.24535c0.38649,0.22902 0.84454,0.34355 1.37417,0.34355c0.32207,0 0.61551,-0.0501 0.88033,-0.1503c0.26481,-0.10735 0.47237,-0.2505 0.62267,-0.42943c0.15746,-0.17893 0.23619,-0.3829 0.23619,-0.61193c0,-0.1503 -0.02505,-0.29344 -0.07514,-0.42943c-0.0501,-0.14314 -0.12883,-0.26839 -0.23619,-0.37575c-0.10735,-0.11452 -0.24335,-0.21829 -0.40796,-0.31134c-0.16462,-0.09305 -0.35786,-0.17535 -0.57973,-0.24692c-0.22188,-0.07157 -0.47953,-0.13241 -0.77298,-0.1825c-0.45806,-0.1002 -0.85886,-0.22545 -1.20241,-0.37575c-0.34355,-0.15746 -0.62984,-0.3507 -0.85886,-0.57973c-0.22903,-0.22902 -0.40081,-0.49026 -0.51531,-0.78371c-0.11452,-0.29344 -0.17177,-0.62625 -0.17177,-0.99842c0,-0.35786 0.07873,-0.69067 0.23619,-0.99842c0.16461,-0.30776 0.3829,-0.57257 0.65488,-0.79445c0.27913,-0.22902 0.60478,-0.40438 0.97695,-0.52605c0.37933,-0.12883 0.78729,-0.19324 1.22388,-0.19324c0.46522,0 0.88748,0.06083 1.26682,0.18251c0.38649,0.12167 0.73003,0.3006 1.03063,0.53678c0.3006,0.22902 0.54752,0.51531 0.74077,0.85886l-0.97695,0.96621c-0.16462,-0.28629 -0.35428,-0.52248 -0.56899,-0.70856c-0.21471,-0.19324 -0.4509,-0.33996 -0.70856,-0.44016c-0.25766,-0.1002 -0.52964,-0.1503 -0.81592,-0.1503c-0.33639,0 -0.62984,0.05368 -0.88033,0.16104c-0.24335,0.1002 -0.43659,0.24335 -0.57973,0.42943c-0.14315,0.17893 -0.21471,0.39364 -0.21471,0.64414c0,0.17893 0.03579,0.34355 0.10735,0.49384c0.07157,0.1503 0.17535,0.28271 0.31134,0.39723c0.14314,0.11452 0.33281,0.21829 0.569,0.31134c0.24334,0.08588 0.52963,0.16104 0.85886,0.22545c0.47237,0.10735 0.89107,0.23976 1.25609,0.39723c0.37217,0.15746 0.68351,0.34355 0.93401,0.55826c0.25766,0.21471 0.4509,0.45448 0.57973,0.7193c0.13598,0.26482 0.20398,0.5511 0.20398,0.85886c0,0.57257 -0.13241,1.07 -0.39722,1.49227c-0.26482,0.41512 -0.64057,0.73719 -1.12725,0.96621c-0.48669,0.22188 -1.06642,0.33281 -1.73919,0.33281z" fill="#ffffff" fill-rule="nonzero" stroke-width="1" stroke-linecap="square"/><path d="M100.06206,264.9941v-8.42453h1.29996v7.17496h3.95026v1.24957zM109.55792,265.11503c-0.61807,0 -1.17231,-0.14108 -1.66273,-0.42324c-0.4837,-0.28888 -0.86664,-0.67853 -1.1488,-1.16896c-0.27545,-0.49715 -0.41316,-1.06147 -0.41316,-1.69297c0,-0.6315 0.13772,-1.19247 0.41317,-1.68289c0.28216,-0.49715 0.66509,-0.8868 1.1488,-1.16896c0.49042,-0.28888 1.04467,-0.43332 1.66274,-0.43332c0.60463,0 1.1488,0.14444 1.6325,0.43332c0.49042,0.28216 0.87672,0.67181 1.15888,1.16896c0.28216,0.49042 0.42324,1.05139 0.42324,1.6829c0,0.6315 -0.14108,1.19582 -0.42324,1.69297c-0.28216,0.49042 -0.66846,0.88008 -1.15887,1.16896c-0.4837,0.28216 -1.02788,0.42324 -1.6325,0.42324zM109.55792,263.98638c0.37622,0 0.71212,-0.09406 1.00772,-0.28216c0.2956,-0.18811 0.52738,-0.44339 0.69533,-0.76587c0.16795,-0.32919 0.24857,-0.69869 0.24185,-1.10849c0.00671,-0.41653 -0.07391,-0.78602 -0.24185,-1.10849c-0.16795,-0.32919 -0.39973,-0.58447 -0.69532,-0.76587c-0.2956,-0.18811 -0.6315,-0.28216 -1.00772,-0.28216c-0.37622,0 -0.71548,0.09406 -1.01779,0.28216c-0.30231,0.18811 -0.53746,0.44675 -0.7054,0.77595c-0.16795,0.32247 -0.24857,0.68861 -0.24185,1.09842c-0.00671,0.4098 0.07391,0.77931 0.24185,1.10849c0.16795,0.32247 0.40309,0.57776 0.7054,0.76587c0.30231,0.18811 0.64158,0.28216 1.0178,0.28216zM116.54453,265.11503c-0.5173,0 -0.99093,-0.14444 -1.42088,-0.43332c-0.42997,-0.28888 -0.77594,-0.68189 -1.03794,-1.17902c-0.2553,-0.49715 -0.38293,-1.0581 -0.38293,-1.68289c0,-0.63823 0.131,-1.20255 0.39302,-1.69297c0.26201,-0.49042 0.61471,-0.87671 1.05811,-1.15887c0.45011,-0.28216 0.95062,-0.42324 1.5015,-0.42324c0.32919,0 0.62815,0.05039 0.89687,0.15116c0.27544,0.09406 0.51394,0.22841 0.71548,0.40309c0.20826,0.16795 0.37621,0.36614 0.50386,0.59456c0.13436,0.2217 0.21834,0.46019 0.25194,0.71548l-0.27208,-0.09069v-1.64258h1.24957v6.3184h-1.24957v-1.5015l0.28216,-0.09069c-0.04703,0.2217 -0.14444,0.43668 -0.29224,0.64494c-0.1478,0.20154 -0.33591,0.38293 -0.56432,0.54416c-0.22841,0.15452 -0.48034,0.28216 -0.75578,0.38293c-0.27545,0.09406 -0.56769,0.14108 -0.87671,0.14108zM116.86701,263.9763c0.38293,0 0.71548,-0.09069 0.99764,-0.27208c0.28888,-0.18811 0.51394,-0.44339 0.67518,-0.76587c0.16795,-0.32919 0.25194,-0.70204 0.25194,-1.11856c0,-0.4098 -0.08398,-0.77594 -0.25193,-1.09841c-0.16123,-0.32247 -0.38629,-0.5744 -0.67517,-0.75578c-0.28216,-0.18811 -0.6147,-0.28216 -0.99764,-0.28216c-0.3695,0 -0.69532,0.09406 -0.97748,0.28216c-0.28216,0.18139 -0.50722,0.43332 -0.67517,0.75579c-0.16123,0.32247 -0.24185,0.68861 -0.24185,1.09842c0,0.41653 0.08062,0.78938 0.24185,1.11857c0.16795,0.32247 0.39302,0.57776 0.67518,0.76587c0.28216,0.18139 0.608,0.27209 0.97749,0.27209zM124.36243,265.11503c-0.57776,0 -1.0917,-0.14108 -1.54181,-0.42324c-0.45012,-0.28888 -0.80954,-0.67853 -1.07825,-1.16896c-0.26201,-0.49715 -0.39301,-1.06147 -0.39301,-1.69297c0,-0.6315 0.12764,-1.19247 0.38293,-1.68289c0.26201,-0.49715 0.61806,-0.8868 1.06818,-1.16896c0.45012,-0.28888 0.96069,-0.43332 1.53173,-0.43332c0.30903,0 0.61135,0.05039 0.90695,0.15116c0.2956,0.10077 0.5576,0.23849 0.78602,0.41317c0.23513,0.16795 0.41652,0.35607 0.54416,0.56432c0.13437,0.20154 0.20154,0.40644 0.20154,0.61471l-0.36278,0.03023v-4.23242h1.23949v8.90823h-1.23949v-1.5015h0.24185c0,0.18811 -0.06382,0.37957 -0.19147,0.5744c-0.12764,0.18811 -0.29895,0.36278 -0.51393,0.52401c-0.20826,0.15452 -0.45347,0.28216 -0.73563,0.38293c-0.27544,0.09406 -0.5576,0.14108 -0.84649,0.14108zM124.53375,264.04684c0.37621,0 0.70877,-0.09741 0.99764,-0.29224c0.28888,-0.19483 0.51394,-0.45684 0.67518,-0.78602c0.16795,-0.33591 0.25194,-0.71548 0.25194,-1.13872c0,-0.42324 -0.08398,-0.79946 -0.25193,-1.12865c-0.16123,-0.33591 -0.38629,-0.60127 -0.67517,-0.79609c-0.28888,-0.19483 -0.62142,-0.29224 -0.99764,-0.29224c-0.37621,0 -0.70877,0.09741 -0.99764,0.29224c-0.28888,0.19483 -0.51729,0.46019 -0.68524,0.7961c-0.16123,0.32919 -0.24185,0.7054 -0.24185,1.12865c0,0.42324 0.08062,0.80281 0.24185,1.13872c0.16795,0.32919 0.39637,0.59119 0.68524,0.78602c0.28888,0.19483 0.62142,0.29224 0.99764,0.29224zM135.15829,265.11503c-0.5173,0 -0.99093,-0.14444 -1.42088,-0.43332c-0.42997,-0.28888 -0.77594,-0.68189 -1.03794,-1.17902c-0.2553,-0.49715 -0.38293,-1.0581 -0.38293,-1.68289c0,-0.63823 0.131,-1.20255 0.39302,-1.69297c0.26201,-0.49042 0.61471,-0.87671 1.05811,-1.15887c0.45011,-0.28216 0.95062,-0.42324 1.5015,-0.42324c0.32919,0 0.62815,0.05039 0.89687,0.15116c0.27544,0.09406 0.51394,0.22841 0.71548,0.40309c0.20826,0.16795 0.37621,0.36614 0.50386,0.59456c0.13436,0.2217 0.21834,0.46019 0.25194,0.71548l-0.27208,-0.09069v-1.64258h1.24957v6.3184h-1.24957v-1.5015l0.28216,-0.09069c-0.04703,0.2217 -0.14444,0.43668 -0.29224,0.64494c-0.1478,0.20154 -0.33591,0.38293 -0.56432,0.54416c-0.22841,0.15452 -0.48034,0.28216 -0.75578,0.38293c-0.27545,0.09406 -0.56769,0.14108 -0.87671,0.14108zM135.48076,263.9763c0.38293,0 0.71548,-0.09069 0.99764,-0.27208c0.28888,-0.18811 0.51394,-0.44339 0.67518,-0.76587c0.16795,-0.32919 0.25194,-0.70204 0.25194,-1.11856c0,-0.4098 -0.08398,-0.77594 -0.25193,-1.09841c-0.16123,-0.32247 -0.38629,-0.5744 -0.67517,-0.75578c-0.28216,-0.18811 -0.6147,-0.28216 -0.99764,-0.28216c-0.3695,0 -0.69532,0.09406 -0.97748,0.28216c-0.28216,0.18139 -0.50722,0.43332 -0.67517,0.75579c-0.16123,0.32247 -0.24185,0.68861 -0.24185,1.09842c0,0.41653 0.08062,0.78938 0.24185,1.11857c0.16795,0.32247 0.39302,0.57776 0.67518,0.76587c0.28216,0.18139 0.608,0.27209 0.97749,0.27209zM146.3452,265.11503c-0.57776,0 -1.0917,-0.14108 -1.54181,-0.42324c-0.45012,-0.28888 -0.80954,-0.67853 -1.07825,-1.16896c-0.26201,-0.49715 -0.39301,-1.06147 -0.39301,-1.69297c0,-0.6315 0.12764,-1.19247 0.38293,-1.68289c0.26201,-0.49715 0.61806,-0.8868 1.06818,-1.16896c0.45011,-0.28888 0.96069,-0.43332 1.53173,-0.43332c0.30903,0 0.61135,0.05039 0.90695,0.15116c0.2956,0.10077 0.5576,0.23849 0.78602,0.41317c0.23513,0.16795 0.41652,0.35607 0.54416,0.56432c0.13436,0.20154 0.20154,0.40644 0.20154,0.61471l-0.36278,0.03023v-4.23242h1.2395v8.90823h-1.23949v-1.5015h0.24185c0,0.18811 -0.06382,0.37957 -0.19147,0.5744c-0.12764,0.18811 -0.29895,0.36278 -0.51393,0.52401c-0.20826,0.15452 -0.45347,0.28216 -0.73563,0.38293c-0.27545,0.09406 -0.55761,0.14108 -0.84649,0.14108zM146.51652,264.04684c0.37621,0 0.70877,-0.09741 0.99764,-0.29224c0.28888,-0.19483 0.51394,-0.45684 0.67518,-0.78602c0.16795,-0.33591 0.25194,-0.71548 0.25194,-1.13872c0,-0.42324 -0.08398,-0.79946 -0.25193,-1.12865c-0.16123,-0.33591 -0.38629,-0.60127 -0.67517,-0.79609c-0.28888,-0.19483 -0.62142,-0.29224 -0.99764,-0.29224c-0.37622,0 -0.70877,0.09741 -0.99764,0.29224c-0.28888,0.19483 -0.5173,0.46019 -0.68524,0.7961c-0.16123,0.32919 -0.24185,0.7054 -0.24185,1.12865c0,0.42324 0.08062,0.80281 0.24185,1.13872c0.16795,0.32919 0.39637,0.59119 0.68524,0.78602c0.28888,0.19483 0.62142,0.29224 0.99764,0.29224zM154.28599,265.11503c-0.64494,0 -1.21933,-0.13772 -1.7232,-0.41316c-0.49715,-0.27545 -0.89015,-0.65501 -1.17902,-1.13872c-0.28216,-0.4837 -0.42324,-1.03794 -0.42324,-1.66273c0,-0.49715 0.08062,-0.95062 0.24185,-1.36042c0.16123,-0.4098 0.38293,-0.7625 0.66509,-1.0581c0.28216,-0.30231 0.62142,-0.53409 1.0178,-0.69532c0.40309,-0.16795 0.83641,-0.25193 1.29996,-0.25193c0.4098,0 0.78938,0.07726 1.13872,0.23178c0.35606,0.15452 0.66173,0.36949 0.91703,0.64494c0.26201,0.27545 0.46355,0.60127 0.60463,0.97749c0.14108,0.36949 0.20826,0.77258 0.20154,1.20926l-0.01008,0.5341h-5.15952l-0.28216,-0.98757h4.36342l-0.17131,0.20154v-0.28216c-0.02687,-0.26872 -0.11757,-0.50722 -0.27208,-0.71548c-0.1478,-0.20826 -0.33926,-0.37285 -0.5744,-0.49378c-0.23514,-0.12093 -0.48706,-0.18139 -0.75578,-0.18139c-0.43668,0 -0.80281,0.08398 -1.09841,0.25194c-0.2956,0.16123 -0.52065,0.40309 -0.67517,0.72556c-0.1478,0.31576 -0.2217,0.7054 -0.2217,1.16896c0,0.43668 0.09069,0.81961 0.27209,1.1488c0.18139,0.32247 0.44003,0.5744 0.77595,0.75579c0.34262,0.17468 0.73227,0.26201 1.16896,0.26201c0.31575,0 0.608,-0.05039 0.87672,-0.15116c0.26872,-0.10749 0.56096,-0.29895 0.87672,-0.5744l0.62478,0.87672c-0.19483,0.19483 -0.42997,0.36614 -0.7054,0.51394c-0.27545,0.14108 -0.56769,0.2553 -0.87671,0.34262c-0.30903,0.08062 -0.6147,0.12093 -0.91702,0.12093zM160.50042,265.11503c-0.53073,0 -1.00772,-0.09069 -1.43096,-0.27208c-0.42324,-0.18811 -0.77594,-0.46355 -1.0581,-0.82633l0.83641,-0.71548c0.24185,0.27545 0.50386,0.47699 0.78602,0.60463c0.28888,0.12093 0.61471,0.18139 0.97749,0.18139c0.14108,0 0.27209,-0.0168 0.39302,-0.05039c0.12764,-0.0336 0.23849,-0.08734 0.33255,-0.16123c0.09406,-0.07391 0.16459,-0.16123 0.21163,-0.26201c0.04703,-0.10077 0.07054,-0.21162 0.07054,-0.33255c0,-0.20826 -0.07726,-0.37622 -0.23177,-0.50386c-0.08062,-0.05375 -0.20826,-0.11422 -0.38293,-0.18139c-0.16795,-0.06718 -0.38965,-0.13772 -0.66509,-0.21162c-0.46355,-0.12093 -0.84312,-0.2553 -1.13872,-0.40309c-0.2956,-0.15452 -0.52401,-0.32919 -0.68524,-0.52401c-0.12093,-0.15452 -0.21162,-0.31911 -0.27208,-0.49378c-0.05375,-0.18139 -0.08062,-0.38293 -0.08062,-0.60463c0,-0.26201 0.0571,-0.50386 0.17132,-0.72556c0.12093,-0.2217 0.28216,-0.41316 0.4837,-0.5744c0.20826,-0.16795 0.45011,-0.2956 0.72556,-0.38293c0.27545,-0.08734 0.57104,-0.131 0.8868,-0.131c0.2956,0 0.58784,0.04031 0.87672,0.12093c0.2956,0.08062 0.56769,0.19818 0.81626,0.35271c0.24857,0.1478 0.45684,0.32583 0.62478,0.5341l-0.7054,0.78602c-0.15452,-0.15452 -0.32247,-0.28888 -0.50386,-0.40309c-0.18139,-0.11422 -0.36614,-0.20154 -0.55424,-0.26201c-0.18139,-0.06718 -0.34598,-0.10077 -0.49378,-0.10077c-0.16795,0 -0.32247,0.0168 -0.46355,0.05039c-0.13437,0.02686 -0.24857,0.07391 -0.34262,0.14108c-0.08734,0.06046 -0.15788,0.14108 -0.21162,0.24185c-0.04703,0.09406 -0.07054,0.20154 -0.07054,0.32247c0.00671,0.10077 0.0336,0.19818 0.08062,0.29224c0.04703,0.09406 0.11085,0.17132 0.19147,0.23178c0.08734,0.06718 0.21834,0.13772 0.39302,0.21163c0.17468,0.06718 0.39973,0.13437 0.67518,0.20154c0.39638,0.10077 0.72556,0.21499 0.98757,0.34262c0.26201,0.12093 0.47027,0.26201 0.62478,0.42324c0.16123,0.15452 0.27209,0.33255 0.33255,0.5341c0.06718,0.20154 0.10077,0.4266 0.10077,0.67518c0,0.35607 -0.10413,0.67853 -0.31239,0.96741c-0.20154,0.28216 -0.47699,0.50386 -0.82633,0.66509c-0.34262,0.16123 -0.72556,0.24185 -1.1488,0.24185zM165.28634,263.01897l-0.06046,-1.35034l3.02316,-2.99292h1.67281zM164.15769,264.9941v-8.90823h1.2395v8.90823zM168.42034,264.9941l-2.38829,-2.7813l0.87672,-0.80618l3.0937,3.58748zM171.77799,264.9941v-7.93074h1.2395v7.93075zM170.45788,259.88497v-1.20926h4.0208v1.20926zM178.39388,265.11503c-0.61807,0 -1.17231,-0.14108 -1.66273,-0.42324c-0.4837,-0.28888 -0.86664,-0.67853 -1.1488,-1.16896c-0.27545,-0.49715 -0.41316,-1.06147 -0.41316,-1.69297c0,-0.6315 0.13772,-1.19247 0.41317,-1.68289c0.28216,-0.49715 0.66509,-0.8868 1.1488,-1.16896c0.49042,-0.28888 1.04467,-0.43332 1.66274,-0.43332c0.60463,0 1.1488,0.14444 1.6325,0.43332c0.49042,0.28216 0.87672,0.67181 1.15888,1.16896c0.28216,0.49042 0.42324,1.05139 0.42324,1.6829c0,0.6315 -0.14108,1.19582 -0.42324,1.69297c-0.28216,0.49042 -0.66846,0.88008 -1.15887,1.16896c-0.4837,0.28216 -1.02788,0.42324 -1.6325,0.42324zM178.39388,263.98638c0.37621,0 0.71212,-0.09406 1.00772,-0.28216c0.2956,-0.18811 0.52738,-0.44339 0.69533,-0.76587c0.16795,-0.32919 0.24857,-0.69869 0.24185,-1.10849c0.00671,-0.41653 -0.07391,-0.78602 -0.24185,-1.10849c-0.16795,-0.32919 -0.39973,-0.58447 -0.69532,-0.76587c-0.2956,-0.18811 -0.63151,-0.28216 -1.00772,-0.28216c-0.37622,0 -0.71548,0.09406 -1.01779,0.28216c-0.30231,0.18811 -0.53746,0.44675 -0.7054,0.77595c-0.16795,0.32247 -0.24857,0.68861 -0.24185,1.09842c-0.00672,0.4098 0.0739,0.77931 0.24185,1.10849c0.16795,0.32247 0.40309,0.57776 0.7054,0.76587c0.30231,0.18811 0.64158,0.28216 1.0178,0.28216zM182.9519,267.6444v-8.96869h1.24957v1.44104l-0.19147,-0.10077c0.04703,-0.24185 0.18139,-0.47363 0.40309,-0.69532c0.22841,-0.2217 0.50386,-0.40309 0.82633,-0.54416c0.32919,-0.14108 0.66509,-0.21162 1.00772,-0.21162c0.57104,0 1.07489,0.14108 1.51158,0.42324c0.44339,0.28216 0.79273,0.66846 1.04803,1.15888c0.26201,0.49042 0.39302,1.05139 0.39302,1.6829c0,0.62478 -0.12764,1.18575 -0.38293,1.6829c-0.2553,0.49042 -0.60463,0.88008 -1.04803,1.16896c-0.43668,0.28216 -0.93046,0.42324 -1.48135,0.42324c-0.36949,0 -0.72892,-0.07391 -1.07825,-0.2217c-0.34262,-0.1478 -0.63486,-0.33926 -0.87671,-0.5744c-0.24185,-0.23514 -0.38965,-0.47699 -0.44339,-0.72556l0.3124,-0.16123v4.22234zM186.07583,263.95615c0.36949,0 0.69869,-0.09069 0.98757,-0.27208c0.28888,-0.18811 0.5173,-0.44003 0.68524,-0.75578c0.16795,-0.32247 0.25194,-0.68861 0.25194,-1.09841c0,-0.4098 -0.08398,-0.77258 -0.25193,-1.08834c-0.16123,-0.31576 -0.38629,-0.56432 -0.67517,-0.74572c-0.28216,-0.18811 -0.6147,-0.28216 -0.99764,-0.28216c-0.37622,0 -0.70877,0.09069 -0.99764,0.27209c-0.28888,0.18139 -0.5173,0.43332 -0.68524,0.75579c-0.16795,0.31576 -0.25193,0.67853 -0.25193,1.08834c0,0.4098 0.08398,0.77595 0.25194,1.09842c0.16795,0.31576 0.39638,0.56769 0.68524,0.75579c0.28888,0.18139 0.62142,0.27209 0.99764,0.27209z" fill="#ffffff" fill-rule="nonzero" stroke-width="1" stroke-linecap="square"/><path d="M98.83264,278.23931v-5.49315h2.17492c0.28473,0 0.541,0.07228 0.76878,0.21683c0.23216,0.14018 0.41615,0.33511 0.55194,0.5848c0.14018,0.24531 0.21026,0.52347 0.21026,0.83449c0,0.32416 -0.07008,0.61327 -0.21026,0.86734c-0.13579,0.24969 -0.31977,0.449 -0.55194,0.59793c-0.22779,0.14894 -0.48405,0.22341 -0.76878,0.22341h-1.56384v2.16834zM99.44372,275.47959h1.59013c0.16646,0 0.31321,-0.04818 0.44024,-0.14455c0.12703,-0.09637 0.22998,-0.22779 0.30883,-0.39425c0.07885,-0.16646 0.11828,-0.35701 0.11828,-0.57166c0,-0.19274 -0.03942,-0.36577 -0.11828,-0.51909c-0.07885,-0.15332 -0.18179,-0.27597 -0.30883,-0.36796c-0.12703,-0.09198 -0.27379,-0.13799 -0.44024,-0.13799h-1.59013zM103.63368,278.23931v-4.09358h0.59137v4.09358zM103.9228,273.25867c-0.14455,0 -0.25626,-0.03723 -0.3351,-0.1117c-0.07447,-0.07885 -0.1117,-0.18398 -0.1117,-0.31539c0,-0.13142 0.03942,-0.23436 0.11828,-0.30883c0.07885,-0.07885 0.18836,-0.11828 0.32854,-0.11828c0.14018,0 0.24969,0.03723 0.32854,0.1117c0.07885,0.07447 0.11828,0.1796 0.11828,0.31539c0,0.12703 -0.03942,0.22998 -0.11828,0.30883c-0.07885,0.07885 -0.18836,0.11828 -0.32854,0.11828zM107.23608,278.31815c-0.38986,0 -0.73593,-0.09198 -1.03818,-0.27597c-0.30226,-0.18836 -0.541,-0.44243 -0.71621,-0.76221c-0.17522,-0.32416 -0.26283,-0.68993 -0.26283,-1.09732c0,-0.40739 0.08761,-0.77097 0.26283,-1.09075c0.17522,-0.32416 0.41396,-0.57603 0.71621,-0.75564c0.30226,-0.18398 0.6505,-0.27597 1.04475,-0.27597c0.35044,0 0.66803,0.07008 0.95276,0.21026c0.28912,0.13579 0.52128,0.32635 0.6965,0.57166l-0.34825,0.42053c-0.09637,-0.12703 -0.21464,-0.24093 -0.35482,-0.34168c-0.14018,-0.10075 -0.29131,-0.17741 -0.45339,-0.22998c-0.1577,-0.05695 -0.31321,-0.08542 -0.46653,-0.08542c-0.28035,0 -0.53003,0.07008 -0.74907,0.21026c-0.21902,0.13579 -0.39206,0.32196 -0.5191,0.55851c-0.12703,0.23655 -0.19056,0.50595 -0.19056,0.80821c0,0.30226 0.06352,0.57385 0.19056,0.81477c0.12703,0.23655 0.30006,0.42273 0.5191,0.55852c0.21902,0.13579 0.46433,0.20369 0.73592,0.20369c0.1577,0 0.31102,-0.02409 0.45995,-0.07228c0.15332,-0.05256 0.29788,-0.12484 0.43367,-0.21683c0.14018,-0.09637 0.2672,-0.21464 0.3811,-0.35482l0.34168,0.42709c-0.17522,0.23216 -0.41177,0.42053 -0.70964,0.56508c-0.29787,0.14018 -0.6067,0.21026 -0.92648,0.21026zM110.16035,276.91858l-0.01971,-0.67679l2.14207,-2.09608h0.78849zM109.63469,278.23931v-5.80855h0.59137v5.80855zM112.44698,278.23931l-1.72811,-1.99751l0.41396,-0.41396l2.08293,2.41147zM117.50444,278.31815c-0.31539,0 -0.5826,-0.06352 -0.80164,-0.19056c-0.21464,-0.13142 -0.37891,-0.31977 -0.4928,-0.56508c-0.10951,-0.24531 -0.16426,-0.54975 -0.16426,-0.91334v-2.50345h0.59793v2.38519c0,0.27597 0.03723,0.50813 0.1117,0.6965c0.07447,0.18398 0.18836,0.32416 0.34168,0.42053c0.1577,0.09198 0.34825,0.13799 0.57166,0.13799c0.17522,0 0.3351,-0.03066 0.47966,-0.09198c0.14455,-0.06132 0.27159,-0.14236 0.38111,-0.24312c0.11389,-0.10513 0.2015,-0.22779 0.26283,-0.36796c0.06132,-0.14455 0.09198,-0.29568 0.09198,-0.45338v-2.48375h0.59137v4.09358h-0.5848l-0.01971,-0.86077l0.09198,-0.05256c-0.06132,0.18398 -0.16646,0.35044 -0.31539,0.49938c-0.14455,0.14894 -0.31759,0.2694 -0.51909,0.36139c-0.2015,0.08761 -0.40957,0.13142 -0.62423,0.13142zM120.61838,279.96742v-5.82169h0.59137l0.01315,0.99218l-0.1117,0.01972c0.04819,-0.2015 0.15113,-0.38329 0.30883,-0.54537c0.1577,-0.16646 0.34825,-0.29787 0.57166,-0.39425c0.22341,-0.10075 0.46214,-0.15113 0.71621,-0.15113c0.36359,0 0.68993,0.09198 0.97905,0.27597c0.29349,0.1796 0.52567,0.42929 0.6965,0.74907c0.17522,0.31977 0.26283,0.68555 0.26283,1.09732c0,0.40739 -0.08542,0.77097 -0.25626,1.09075c-0.16646,0.31977 -0.39643,0.57385 -0.68993,0.76221c-0.28912,0.18398 -0.61765,0.27597 -0.98561,0.27597c-0.25846,0 -0.50376,-0.05256 -0.73593,-0.15769c-0.22779,-0.10513 -0.42272,-0.24093 -0.5848,-0.40739c-0.16208,-0.17084 -0.2694,-0.35701 -0.32196,-0.55851h0.14455v2.77287zM122.62247,277.75307c0.27597,0 0.52128,-0.0679 0.73593,-0.20369c0.21464,-0.13579 0.38329,-0.32196 0.50595,-0.55851c0.12703,-0.23655 0.19056,-0.50376 0.19056,-0.80163c0,-0.30226 -0.06352,-0.56947 -0.19056,-0.80164c-0.12265,-0.23655 -0.29131,-0.42272 -0.50595,-0.55851c-0.21464,-0.13579 -0.45995,-0.20369 -0.73593,-0.20369c-0.28035,0 -0.53003,0.06571 -0.74907,0.19712c-0.21464,0.13142 -0.38548,0.31539 -0.51252,0.55194c-0.12265,0.23655 -0.18398,0.50595 -0.18398,0.80821c0,0.30226 0.06132,0.57166 0.18398,0.80821c0.12703,0.23655 0.29787,0.42272 0.51252,0.55851c0.21902,0.13579 0.46872,0.20369 0.74907,0.20369zM128.66092,278.23931l-1.41929,-4.09358l0.62423,-0.00657l1.11046,3.33138l-0.19712,-0.01315l1.20245,-2.68744h0.34825l1.20902,2.68744l-0.23655,0.01315l1.13018,-3.32481h0.62423l-1.41928,4.09358h-0.34825l-1.26815,-2.91742l0.22998,0.01315l-1.22873,2.90427zM133.74388,278.23931v-5.80855h0.59137v2.60859l-0.11828,0.11828c0.05695,-0.21464 0.16426,-0.40301 0.32196,-0.56508c0.1577,-0.16646 0.34168,-0.29569 0.55194,-0.38767c0.21026,-0.09637 0.4249,-0.14455 0.64394,-0.14455c0.31539,0 0.57823,0.06132 0.78849,0.18398c0.21026,0.11828 0.36577,0.30226 0.46653,0.55194c0.10075,0.24969 0.15113,0.56947 0.15113,0.95933v2.48375h-0.59793v-2.45746c0,-0.27159 -0.03505,-0.495 -0.10513,-0.67021c-0.07008,-0.17522 -0.1796,-0.30444 -0.32854,-0.38767c-0.14455,-0.08323 -0.32635,-0.12265 -0.54537,-0.11828c-0.17084,0 -0.33292,0.03066 -0.48623,0.09198c-0.14894,0.06132 -0.28035,0.14455 -0.39425,0.24969c-0.10951,0.10075 -0.19493,0.21902 -0.25626,0.35482c-0.06132,0.13579 -0.09198,0.28254 -0.09198,0.44024v2.49689h-0.28912c-0.03942,0 -0.08323,0 -0.13142,0c-0.04381,0 -0.10075,0 -0.17084,0zM140.06985,278.31815c-0.40739,0 -0.77097,-0.08761 -1.09075,-0.26283c-0.31539,-0.1796 -0.5629,-0.42929 -0.7425,-0.74907c-0.17522,-0.31977 -0.26283,-0.68555 -0.26283,-1.09732c0,-0.31977 0.04818,-0.60889 0.14455,-0.86734c0.10075,-0.25846 0.24093,-0.48405 0.42053,-0.67679c0.18398,-0.19712 0.40082,-0.34825 0.6505,-0.45339c0.24969,-0.10951 0.52128,-0.16426 0.81477,-0.16426c0.28035,0 0.53223,0.05038 0.75564,0.15113c0.22779,0.10075 0.42491,0.23874 0.59137,0.41396c0.16646,0.17522 0.29131,0.38329 0.37453,0.62423c0.08323,0.24093 0.11828,0.50376 0.10513,0.78849l-0.00657,0.27597h-3.41022l-0.08542,-0.4928h3.04883l-0.13799,0.13142v-0.18398c-0.01315,-0.18836 -0.07009,-0.37016 -0.17085,-0.54537c-0.09637,-0.17522 -0.23436,-0.31759 -0.41396,-0.42709c-0.1796,-0.11389 -0.39644,-0.17084 -0.6505,-0.17084c-0.29349,0 -0.54756,0.05913 -0.7622,0.17741c-0.21464,0.11828 -0.37892,0.29349 -0.49281,0.52567c-0.11389,0.22779 -0.17084,0.51252 -0.17084,0.8542c0,0.32416 0.06132,0.60451 0.18398,0.84105c0.12703,0.23655 0.30663,0.42053 0.5388,0.55194c0.23655,0.13142 0.5191,0.19712 0.84763,0.19712c0.19274,0 0.38329,-0.03285 0.57166,-0.09856c0.19274,-0.06571 0.40519,-0.19493 0.63737,-0.38767l0.30226,0.42709c-0.11828,0.11828 -0.26283,0.22341 -0.43367,0.31539c-0.16646,0.09198 -0.34825,0.16646 -0.54537,0.22341c-0.19712,0.05256 -0.40082,0.07885 -0.61108,0.07885zM142.67205,278.23931v-4.09358h0.59137l0.01315,1.09075l-0.05914,-0.15113c0.05695,-0.18398 0.14894,-0.35263 0.27597,-0.50595c0.12703,-0.1577 0.27816,-0.28254 0.45338,-0.37453c0.1796,-0.09637 0.37673,-0.14455 0.59137,-0.14455c0.09198,0 0.17522,0.00657 0.24969,0.01972c0.07885,0.01315 0.14455,0.02848 0.19712,0.046l-0.16426,0.66364c-0.06571,-0.03505 -0.13361,-0.05695 -0.20369,-0.06571c-0.07008,-0.01315 -0.13799,-0.01971 -0.20369,-0.01971c-0.17522,0 -0.33511,0.03066 -0.47966,0.09198c-0.14018,0.06132 -0.26064,0.14894 -0.36139,0.26283c-0.09637,0.11389 -0.17084,0.24312 -0.22341,0.38767c-0.05256,0.14455 -0.07885,0.30226 -0.07885,0.4731v2.31948zM147.23267,278.31815c-0.40739,0 -0.77097,-0.08761 -1.09075,-0.26283c-0.31539,-0.1796 -0.5629,-0.42929 -0.7425,-0.74907c-0.17522,-0.31977 -0.26283,-0.68555 -0.26283,-1.09732c0,-0.31977 0.04818,-0.60889 0.14455,-0.86734c0.10075,-0.25846 0.24093,-0.48405 0.42053,-0.67679c0.18398,-0.19712 0.40082,-0.34825 0.6505,-0.45339c0.24969,-0.10951 0.52128,-0.16426 0.81477,-0.16426c0.28035,0 0.53223,0.05038 0.75564,0.15113c0.22779,0.10075 0.4249,0.23874 0.59137,0.41396c0.16646,0.17522 0.29131,0.38329 0.37453,0.62423c0.08323,0.24093 0.11828,0.50376 0.10513,0.78849l-0.00657,0.27597h-3.41022l-0.08542,-0.4928h3.04883l-0.13799,0.13142v-0.18398c-0.01315,-0.18836 -0.07009,-0.37016 -0.17085,-0.54537c-0.09637,-0.17522 -0.23436,-0.31759 -0.41396,-0.42709c-0.1796,-0.11389 -0.39644,-0.17084 -0.6505,-0.17084c-0.29349,0 -0.54756,0.05913 -0.76221,0.17741c-0.21464,0.11828 -0.37891,0.29349 -0.4928,0.52567c-0.11389,0.22779 -0.17084,0.51252 -0.17084,0.8542c0,0.32416 0.06132,0.60451 0.18398,0.84105c0.12703,0.23655 0.30663,0.42053 0.5388,0.55194c0.23655,0.13142 0.51909,0.19712 0.84763,0.19712c0.19274,0 0.38329,-0.03285 0.57166,-0.09856c0.19274,-0.06571 0.40519,-0.19493 0.63737,-0.38767l0.30226,0.42709c-0.11828,0.11828 -0.26283,0.22341 -0.43367,0.31539c-0.16646,0.09198 -0.34825,0.16646 -0.54537,0.22341c-0.19712,0.05256 -0.40082,0.07885 -0.61108,0.07885zM152.72155,280.04627l0.79506,-1.93181l0.05256,0.55851l-2.05665,-4.52725h0.67021l1.40614,3.13425c0.03942,0.08323 0.07885,0.18179 0.11828,0.29568c0.04381,0.11389 0.08542,0.2256 0.12485,0.33511l-0.22341,-0.02628c0.03942,-0.08761 0.07447,-0.17741 0.10513,-0.2694c0.03505,-0.09637 0.0679,-0.18836 0.09856,-0.27597l1.23531,-3.19339h0.67021l-1.65583,4.09358l-0.70307,1.80696zM158.07381,278.31815c-0.40739,0 -0.77097,-0.09198 -1.09075,-0.27597c-0.31539,-0.18398 -0.5629,-0.43805 -0.7425,-0.76221c-0.1796,-0.32416 -0.2694,-0.69212 -0.2694,-1.10388c0,-0.40739 0.0898,-0.77097 0.2694,-1.09075c0.1796,-0.31977 0.42709,-0.56947 0.7425,-0.74907c0.31977,-0.18398 0.68336,-0.27597 1.09075,-0.27597c0.40301,0 0.7622,0.09198 1.07761,0.27597c0.31539,0.1796 0.5629,0.42929 0.7425,0.74907c0.18398,0.31977 0.27597,0.68336 0.27597,1.09075c0,0.41177 -0.09198,0.77974 -0.27597,1.10388c-0.1796,0.32416 -0.42709,0.57823 -0.7425,0.76221c-0.31539,0.18398 -0.6746,0.27597 -1.07761,0.27597zM158.07381,277.75964c0.28912,0 0.54537,-0.0679 0.76878,-0.20369c0.22341,-0.14018 0.39863,-0.32854 0.52567,-0.56509c0.12703,-0.24093 0.19056,-0.51252 0.19056,-0.81477c0,-0.30226 -0.06352,-0.57166 -0.19056,-0.80821c-0.12703,-0.23655 -0.30226,-0.42053 -0.52567,-0.55194c-0.22341,-0.13579 -0.47966,-0.20369 -0.76878,-0.20369c-0.28912,0 -0.54756,0.0679 -0.77534,0.20369c-0.22779,0.13142 -0.40519,0.31759 -0.53223,0.55851c-0.12703,0.23655 -0.18836,0.50377 -0.18398,0.80164c-0.00438,0.30226 0.05695,0.57385 0.18398,0.81477c0.12703,0.23655 0.30444,0.42491 0.53223,0.56509c0.22779,0.13579 0.48623,0.20369 0.77534,0.20369zM162.47464,278.31815c-0.31539,0 -0.5826,-0.06352 -0.80163,-0.19056c-0.21464,-0.13142 -0.37891,-0.31977 -0.4928,-0.56508c-0.10951,-0.24531 -0.16427,-0.54975 -0.16427,-0.91334v-2.50345h0.59793v2.38519c0,0.27597 0.03723,0.50813 0.1117,0.6965c0.07447,0.18398 0.18836,0.32416 0.34168,0.42053c0.1577,0.09198 0.34825,0.13799 0.57166,0.13799c0.17522,0 0.3351,-0.03066 0.47966,-0.09198c0.14455,-0.06132 0.27159,-0.14236 0.38111,-0.24312c0.11389,-0.10513 0.2015,-0.22779 0.26283,-0.36796c0.06132,-0.14455 0.09198,-0.29568 0.09198,-0.45338v-2.48375h0.59137v4.09358h-0.5848l-0.01972,-0.86077l0.09198,-0.05256c-0.06132,0.18398 -0.16646,0.35044 -0.31539,0.49938c-0.14455,0.14894 -0.31759,0.2694 -0.5191,0.36139c-0.2015,0.08761 -0.40957,0.13142 -0.62423,0.13142zM167.80502,278.23931v-5.80855h0.5848v5.80855zM171.279,278.31815c-0.40739,0 -0.77097,-0.08761 -1.09075,-0.26283c-0.31539,-0.1796 -0.5629,-0.42929 -0.7425,-0.74907c-0.17522,-0.31977 -0.26283,-0.68555 -0.26283,-1.09732c0,-0.31977 0.04818,-0.60889 0.14455,-0.86734c0.10075,-0.25846 0.24093,-0.48405 0.42053,-0.67679c0.18398,-0.19712 0.40082,-0.34825 0.6505,-0.45339c0.24969,-0.10951 0.52128,-0.16426 0.81477,-0.16426c0.28035,0 0.53223,0.05038 0.75564,0.15113c0.22779,0.10075 0.42491,0.23874 0.59137,0.41396c0.16646,0.17522 0.29131,0.38329 0.37453,0.62423c0.08323,0.24093 0.11828,0.50376 0.10513,0.78849l-0.00657,0.27597h-3.41022l-0.08542,-0.4928h3.04883l-0.13799,0.13142v-0.18398c-0.01315,-0.18836 -0.07008,-0.37016 -0.17084,-0.54537c-0.09637,-0.17522 -0.23436,-0.31759 -0.41396,-0.42709c-0.1796,-0.11389 -0.39644,-0.17084 -0.6505,-0.17084c-0.29349,0 -0.54756,0.05913 -0.76221,0.17741c-0.21464,0.11828 -0.37891,0.29349 -0.4928,0.52567c-0.11389,0.22779 -0.17085,0.51252 -0.17085,0.8542c0,0.32416 0.06132,0.60451 0.18398,0.84105c0.12703,0.23655 0.30663,0.42053 0.5388,0.55194c0.23655,0.13142 0.51909,0.19712 0.84763,0.19712c0.19274,0 0.38329,-0.03285 0.57166,-0.09856c0.19274,-0.06571 0.40519,-0.19493 0.63737,-0.38767l0.30226,0.42709c-0.11828,0.11828 -0.26283,0.22341 -0.43367,0.31539c-0.16646,0.09198 -0.34825,0.16646 -0.54537,0.22341c-0.19712,0.05256 -0.40082,0.07885 -0.61108,0.07885zM174.35431,278.23931v-4.73095c0,-0.20589 0.04381,-0.38548 0.13142,-0.5388c0.08761,-0.1577 0.21464,-0.28254 0.38111,-0.37453c0.16646,-0.09198 0.3592,-0.13799 0.57823,-0.13799c0.16646,0 0.31539,0.03066 0.44681,0.09198c0.13579,0.05695 0.2475,0.13799 0.33511,0.24312l-0.20369,0.46653c-0.08323,-0.08761 -0.17303,-0.15113 -0.2694,-0.19056c-0.09637,-0.03942 -0.18836,-0.05914 -0.27597,-0.05914c-0.11828,0 -0.21683,0.01972 -0.29569,0.05914c-0.07885,0.03942 -0.13799,0.09637 -0.17741,0.17084c-0.03505,0.07447 -0.05256,0.16426 -0.05256,0.2694v4.73095h-0.27597c-0.05695,0 -0.1117,0 -0.16426,0c-0.05256,0 -0.10513,0 -0.1577,0zM173.62496,274.72395v-0.54537h2.36547v0.54537zM177.43545,278.23931v-5.17119h0.59137v5.17119zM176.50897,274.71081v-0.56509h2.54946v0.56509zM183.7913,278.31815c-0.40739,0 -0.77097,-0.09198 -1.09075,-0.27597c-0.31539,-0.18398 -0.5629,-0.43805 -0.7425,-0.76221c-0.1796,-0.32416 -0.2694,-0.69212 -0.2694,-1.10388c0,-0.40739 0.0898,-0.77097 0.2694,-1.09075c0.1796,-0.31977 0.42709,-0.56947 0.7425,-0.74907c0.31977,-0.18398 0.68336,-0.27597 1.09075,-0.27597c0.40301,0 0.76221,0.09198 1.07761,0.27597c0.31539,0.1796 0.5629,0.42929 0.7425,0.74907c0.18398,0.31977 0.27597,0.68336 0.27597,1.09075c0,0.41177 -0.09198,0.77974 -0.27597,1.10388c-0.1796,0.32416 -0.42709,0.57823 -0.7425,0.76221c-0.31539,0.18398 -0.6746,0.27597 -1.07761,0.27597zM183.7913,277.75964c0.28912,0 0.54537,-0.0679 0.76878,-0.20369c0.22341,-0.14018 0.39863,-0.32854 0.52567,-0.56509c0.12703,-0.24093 0.19056,-0.51252 0.19056,-0.81477c0,-0.30226 -0.06352,-0.57166 -0.19056,-0.80821c-0.12703,-0.23655 -0.30226,-0.42053 -0.52567,-0.55194c-0.22341,-0.13579 -0.47966,-0.20369 -0.76878,-0.20369c-0.28912,0 -0.54756,0.0679 -0.77534,0.20369c-0.22779,0.13142 -0.40519,0.31759 -0.53223,0.55851c-0.12703,0.23655 -0.18836,0.50377 -0.18398,0.80164c-0.00438,0.30226 0.05695,0.57385 0.18398,0.81477c0.12703,0.23655 0.30444,0.42491 0.53223,0.56509c0.22779,0.13579 0.48623,0.20369 0.77534,0.20369zM187.05608,278.23931v-4.73095c0,-0.20589 0.04381,-0.38548 0.13142,-0.5388c0.08761,-0.1577 0.21464,-0.28254 0.3811,-0.37453c0.16646,-0.09198 0.3592,-0.13799 0.57823,-0.13799c0.16646,0 0.31539,0.03066 0.44681,0.09198c0.13579,0.05695 0.24749,0.13799 0.3351,0.24312l-0.20369,0.46653c-0.08323,-0.08761 -0.17303,-0.15113 -0.2694,-0.19056c-0.09637,-0.03942 -0.18836,-0.05914 -0.27597,-0.05914c-0.11828,0 -0.21683,0.01972 -0.29569,0.05914c-0.07885,0.03942 -0.13799,0.09637 -0.17741,0.17084c-0.03505,0.07447 -0.05256,0.16426 -0.05256,0.2694v4.73095h-0.27597c-0.05695,0 -0.1117,0 -0.16426,0c-0.05256,0 -0.10513,0 -0.1577,0zM186.32673,274.72395v-0.54537h2.36547v0.54537zM190.01949,278.23931v-4.73095c0,-0.20589 0.04381,-0.38548 0.13142,-0.5388c0.08761,-0.1577 0.21464,-0.28254 0.3811,-0.37453c0.16646,-0.09198 0.3592,-0.13799 0.57823,-0.13799c0.16646,0 0.31539,0.03066 0.44681,0.09198c0.13579,0.05695 0.24749,0.13799 0.3351,0.24312l-0.20369,0.46653c-0.08323,-0.08761 -0.17303,-0.15113 -0.2694,-0.19056c-0.09637,-0.03942 -0.18836,-0.05914 -0.27597,-0.05914c-0.11828,0 -0.21683,0.01972 -0.29569,0.05914c-0.07885,0.03942 -0.13799,0.09637 -0.17741,0.17084c-0.03505,0.07447 -0.05256,0.16426 -0.05256,0.2694v4.73095h-0.27597c-0.05695,0 -0.1117,0 -0.16426,0c-0.05256,0 -0.10513,0 -0.1577,0zM189.29013,274.72395v-0.54537h2.36547v0.54537z" fill="#ffffff" fill-rule="nonzero" stroke-width="1" stroke-linecap="square"/></g></g></svg>