<svg version="1.1" xmlns="http://www.w3.org/2000/svg" xmlns:xlink="http://www.w3.org/1999/xlink" width="38.25521" height="57.41667" viewBox="0,0,38.25521,57.41667"><g transform="translate(-220.8724,-151.29167)"><g data-paper-data="{&quot;isPaintingLayer&quot;:true}" fill="#ffffff" fill-rule="nonzero" stroke="none" stroke-width="1" stroke-linecap="square" stroke-linejoin="miter" stroke-miterlimit="10" stroke-dasharray="" stroke-dashoffset="0" style="mix-blend-mode: normal"><path d="M239.96615,208.70833c-4.01737,0 -7.56076,-0.90279 -10.63021,-2.70833c-3.0243,-1.80555 -5.84549,-4.89758 -8.46354,-9.27604l5.14583,-3.25c1.48958,2.34721 3.00174,4.22049 4.53646,5.61979c1.53471,1.35417 3.09201,2.32466 4.67188,2.91146c1.625,0.5868 3.36284,0.88021 5.21354,0.88021c2.25695,0 4.33333,-0.54167 6.22917,-1.625c1.89583,-1.12847 3.40799,-2.64062 4.53646,-4.53646c1.12846,-1.94096 1.69271,-4.08508 1.69271,-6.43229c0,-2.4375 -0.51909,-4.55904 -1.55729,-6.36458c-1.0382,-1.8507 -2.46008,-3.29513 -4.26563,-4.33333c-1.80555,-1.0382 -3.88195,-1.55729 -6.22917,-1.55729c-0.85763,0 -1.78299,0.11284 -2.77604,0.33854c-0.99305,0.18055 -2.07638,0.51909 -3.25,1.01562c-1.17362,0.49654 -2.4375,1.24133 -3.79167,2.23438l-1.82812,-5.01042l19.97396,-21.73437l1.35417,2.30208h-25.72917v-5.89062h30.60417l1.625,3.25l-19.43229,20.71875l-1.625,-1.625c0.72221,-0.45138 1.55729,-0.8125 2.50521,-1.08333c0.99305,-0.31596 1.96354,-0.47396 2.91146,-0.47396c2.48263,0 4.80729,0.47396 6.97396,1.42188c2.16667,0.90278 4.03992,2.16667 5.61979,3.79167c1.57987,1.625 2.82117,3.52083 3.72396,5.6875c0.94792,2.16667 1.42188,4.51388 1.42188,7.04167c0,3.52083 -0.83508,6.70313 -2.50521,9.54688c-1.67013,2.79862 -3.97222,5.03299 -6.90625,6.70313c-2.88888,1.625 -6.13888,2.4375 -9.75,2.4375z"/></g></g></svg>