<svg version="1.1" xmlns="http://www.w3.org/2000/svg" xmlns:xlink="http://www.w3.org/1999/xlink" width="601.2841" height="438.32787" viewBox="0,0,601.2841,438.32787"><g transform="translate(60.64205,39.16393)"><g data-paper-data="{&quot;isPaintingLayer&quot;:true}" stroke="none" stroke-width="1" stroke-linecap="square" stroke-linejoin="miter" stroke-miterlimit="10" stroke-dasharray="" stroke-dashoffset="0" style="mix-blend-mode: normal"><path d="M-60.64205,6.47477v0c0,-25.20555 27.60134,-45.6387 61.6493,-45.6387h477.9855c16.35039,0 32.03112,4.80837 43.59256,13.36729c11.56149,8.55892 18.05674,20.1673 18.05674,32.27142v347.05046c0,25.20558 -27.60139,45.6387 -61.6493,45.6387h-477.9855c-34.04795,0 -61.6493,-20.43315 -61.6493,-45.6387z" fill-opacity="0.37928" fill="#ffffff" fill-rule="evenodd"/><path d="M17.68639,37.98425v-15.88682h6.46115c0.86149,0 1.64063,0.21537 2.33742,0.64611c0.70946,0.43074 1.27323,1.01985 1.6913,1.76731c0.43074,0.7348 0.64611,1.55828 0.64611,2.47044c0,0.91216 -0.21537,1.74197 -0.64611,2.48944c-0.41807,0.7348 -0.98184,1.3239 -1.6913,1.76731c-0.69679,0.44341 -1.47593,0.66512 -2.33742,0.66512h-4.00971v6.08108zM20.13783,29.54675h3.97171c0.40541,0 0.7728,-0.11402 1.1022,-0.34206c0.34206,-0.24071 0.61444,-0.5511 0.81715,-0.93117c0.2027,-0.39273 0.30405,-0.82348 0.30405,-1.29223c0,-0.46875 -0.10135,-0.89316 -0.30405,-1.27323c-0.2027,-0.38007 -0.47508,-0.68412 -0.81715,-0.91216c-0.32939,-0.22804 -0.69679,-0.34206 -1.1022,-0.34206h-3.97171zM36.61469,38.21229c-1.16554,0 -2.21073,-0.26605 -3.13556,-0.79814c-0.91216,-0.54476 -1.63429,-1.27956 -2.16639,-2.20439c-0.51943,-0.9375 -0.77914,-2.00169 -0.77914,-3.19257c0,-1.19088 0.25971,-2.24874 0.77914,-3.17356c0.53209,-0.9375 1.25422,-1.6723 2.16639,-2.20439c0.92483,-0.54476 1.97001,-0.81715 3.13556,-0.81715c1.1402,0 2.16639,0.27238 3.07855,0.81715c0.92483,0.53209 1.65329,1.26689 2.18539,2.20439c0.53209,0.92483 0.79814,1.98269 0.79814,3.17356c0,1.19088 -0.26605,2.25507 -0.79814,3.19257c-0.53209,0.92483 -1.26056,1.65963 -2.18539,2.20439c-0.91216,0.53209 -1.93834,0.79814 -3.07855,0.79814zM36.61469,36.08391c0.70946,0 1.3429,-0.17737 1.90034,-0.53209c0.55743,-0.35473 0.99451,-0.83615 1.31123,-1.44426c0.31672,-0.62077 0.46875,-1.31757 0.45608,-2.09037c0.01267,-0.78548 -0.13936,-1.48226 -0.45608,-2.09037c-0.31672,-0.62078 -0.7538,-1.1022 -1.31123,-1.44426c-0.55743,-0.35473 -1.19088,-0.53209 -1.90034,-0.53209c-0.70946,0 -1.34924,0.17737 -1.91934,0.53209c-0.5701,0.35473 -1.01352,0.84249 -1.33024,1.46326c-0.31672,0.60811 -0.46875,1.29857 -0.45608,2.07137c-0.01267,0.7728 0.13936,1.4696 0.45608,2.09037c0.31672,0.60811 0.76014,1.08953 1.33024,1.44426c0.5701,0.35473 1.20988,0.53209 1.91934,0.53209zM47.68258,37.98425l-4.06672,-11.91512l2.35642,-0.019l2.90752,8.91258l-0.51309,-0.03801l3.15456,-6.97424h1.40625l3.17356,6.99324l-0.60811,0.03801l2.92652,-8.91258h2.35642l-4.00971,11.91512h-1.61529l-3.32559,-7.58235l0.53209,0.07601l-3.07855,7.50633zM68.11652,38.21229c-1.21622,0 -2.29941,-0.25971 -3.24958,-0.77914c-0.9375,-0.51943 -1.67863,-1.23522 -2.2234,-2.14738c-0.53209,-0.91216 -0.79814,-1.95735 -0.79814,-3.13556c0,-0.9375 0.15203,-1.79265 0.45608,-2.56546c0.30405,-0.7728 0.72213,-1.43792 1.25422,-1.99535c0.53209,-0.5701 1.17187,-1.00718 1.91934,-1.31123c0.76014,-0.31672 1.57728,-0.47508 2.45144,-0.47508c0.7728,0 1.4886,0.14569 2.14738,0.43708c0.67145,0.29139 1.24789,0.69679 1.72931,1.21622c0.49409,0.51943 0.87416,1.13387 1.1402,1.84333c0.26605,0.69679 0.39273,1.45692 0.38007,2.28041l-0.019,1.00718h-9.72973l-0.53209,-1.86233h8.22846l-0.32306,0.38007v-0.53209c-0.05067,-0.50675 -0.2217,-0.95651 -0.51309,-1.34924c-0.27871,-0.39273 -0.63978,-0.70312 -1.08319,-0.93117c-0.44341,-0.22804 -0.9185,-0.34206 -1.42525,-0.34206c-0.82348,0 -1.51393,0.15836 -2.07137,0.47508c-0.55743,0.30405 -0.98184,0.76014 -1.27323,1.36824c-0.27871,0.59544 -0.41807,1.33024 -0.41807,2.20439c0,0.82348 0.17103,1.54561 0.51309,2.16639c0.34206,0.60811 0.82981,1.08319 1.46326,1.42525c0.64611,0.32939 1.38091,0.49409 2.20439,0.49409c0.59544,0 1.14654,-0.09502 1.65329,-0.28505c0.50675,-0.2027 1.05785,-0.56376 1.65329,-1.08319l1.17821,1.65329c-0.3674,0.3674 -0.81081,0.69046 -1.33024,0.96917c-0.51943,0.26605 -1.07053,0.48142 -1.65329,0.64611c-0.58277,0.15203 -1.15921,0.22804 -1.72931,0.22804zM75.8639,37.98425v-11.91512h2.35642v3.74367l-0.22804,-0.91216c0.16469,-0.5701 0.44974,-1.08953 0.85515,-1.55828c0.40541,-0.46875 0.86782,-0.83615 1.38725,-1.1022c0.51943,-0.27871 1.05785,-0.41807 1.61529,-0.41807c0.25338,0 0.49409,0.02534 0.72213,0.07601c0.24071,0.03801 0.43074,0.08868 0.5701,0.15203l-0.60811,2.54645c-0.17737,-0.07601 -0.38007,-0.13936 -0.60811,-0.19003c-0.21537,-0.06335 -0.43074,-0.09502 -0.64611,-0.09502c-0.40541,0 -0.79181,0.08235 -1.15921,0.24704c-0.3674,0.15203 -0.69679,0.37373 -0.98818,0.66512c-0.27871,0.27871 -0.50042,0.60177 -0.66512,0.96917c-0.16469,0.3674 -0.24704,0.7728 -0.24704,1.21622v6.57517zM98.60147,38.21229c-1.12754,0 -2.16639,-0.2027 -3.11655,-0.60811c-0.9375,-0.41807 -1.76098,-0.98818 -2.47044,-1.7103c-0.69679,-0.7348 -1.24156,-1.59628 -1.63429,-2.58446c-0.38007,-1.00084 -0.5701,-2.09037 -0.5701,-3.26858c0,-1.17821 0.19003,-2.2614 0.5701,-3.24958c0.39273,-0.98818 0.9375,-1.84966 1.63429,-2.58446c0.70946,-0.7348 1.53294,-1.3049 2.47044,-1.7103c0.95017,-0.41807 1.98902,-0.62711 3.11655,-0.62711c1.11486,0 2.14105,0.20904 3.07855,0.62711c0.95017,0.40541 1.77998,0.98184 2.48944,1.72931c0.70946,0.7348 1.25422,1.59628 1.63429,2.58446c0.38007,0.98818 0.5701,2.06503 0.5701,3.23057c0,1.16554 -0.19003,2.2424 -0.5701,3.23057c-0.38007,0.98818 -0.92483,1.85599 -1.63429,2.60346c-0.70946,0.7348 -1.53927,1.31123 -2.48944,1.72931c-0.9375,0.40541 -1.96368,0.60811 -3.07855,0.60811zM98.60147,35.83686c0.7728,0 1.47593,-0.14569 2.10938,-0.43708c0.64611,-0.29139 1.20355,-0.69679 1.6723,-1.21622c0.46875,-0.51943 0.83615,-1.12754 1.1022,-1.82432c0.26605,-0.70946 0.39907,-1.48226 0.39907,-2.31841c0,-0.83615 -0.13302,-1.60262 -0.39907,-2.29941c-0.26605,-0.70946 -0.63345,-1.3239 -1.1022,-1.84333c-0.46875,-0.51943 -1.02618,-0.9185 -1.6723,-1.19721c-0.63345,-0.29139 -1.33657,-0.43708 -2.10937,-0.43708c-0.7728,0 -1.48226,0.14569 -2.12838,0.43708c-0.64611,0.27871 -1.20988,0.67779 -1.6913,1.19721c-0.46875,0.50675 -0.82981,1.11486 -1.08319,1.82432c-0.25338,0.69679 -0.38007,1.4696 -0.38007,2.31841c0,0.83615 0.12669,1.60895 0.38007,2.31841c0.25338,0.70946 0.61444,1.3239 1.08319,1.84333c0.48142,0.50675 1.04519,0.90583 1.6913,1.19721c0.64611,0.29139 1.35558,0.43708 2.12838,0.43708zM109.1048,42.98214v-16.91301h2.35642v2.71748l-0.36106,-0.19003c0.08868,-0.45608 0.34206,-0.89316 0.76014,-1.31123c0.43074,-0.41807 0.95017,-0.76014 1.55828,-1.02618c0.62078,-0.26605 1.25422,-0.39907 1.90034,-0.39907c1.07686,0 2.02703,0.26605 2.85051,0.79814c0.83615,0.53209 1.49493,1.26056 1.97635,2.18539c0.49409,0.92483 0.74113,1.98269 0.74113,3.17356c0,1.17821 -0.24071,2.23606 -0.72213,3.17356c-0.48142,0.92483 -1.1402,1.65963 -1.97635,2.20439c-0.82348,0.53209 -1.75465,0.79814 -2.7935,0.79814c-0.69679,0 -1.37458,-0.13936 -2.03336,-0.41807c-0.64611,-0.27871 -1.19721,-0.63978 -1.65329,-1.08319c-0.45608,-0.44341 -0.7348,-0.8995 -0.83615,-1.36824l0.5891,-0.30405v7.96242zM114.99584,36.0269c0.69679,0 1.31757,-0.17103 1.86233,-0.51309c0.54476,-0.35473 0.97551,-0.82981 1.29223,-1.42525c0.31672,-0.60811 0.47508,-1.29857 0.47508,-2.07137c0,-0.7728 -0.15836,-1.45692 -0.47508,-2.05236c-0.30405,-0.59544 -0.72846,-1.06419 -1.27323,-1.40625c-0.53209,-0.35473 -1.15921,-0.53209 -1.88133,-0.53209c-0.70946,0 -1.33657,0.17103 -1.88133,0.51309c-0.54476,0.34206 -0.97551,0.81715 -1.29223,1.42525c-0.31672,0.59544 -0.47508,1.27956 -0.47508,2.05236c0,0.7728 0.15836,1.46326 0.47508,2.07137c0.31672,0.59544 0.74747,1.07053 1.29223,1.42525c0.54476,0.34206 1.17187,0.51309 1.88133,0.51309zM124.90447,37.98425v-14.95566h2.33742v14.95566zM122.41503,28.34953v-2.28041h7.58235v2.28041zM132.51525,37.98425v-11.91512h2.33742v11.91512zM133.65545,23.44666c-0.49409,0 -0.88049,-0.12669 -1.15921,-0.38007c-0.26605,-0.26605 -0.39907,-0.63345 -0.39907,-1.1022c0,-0.44341 0.13936,-0.79814 0.41807,-1.06419c0.27871,-0.27871 0.65878,-0.41807 1.1402,-0.41807c0.49409,0 0.87416,0.13302 1.1402,0.39907c0.27871,0.25338 0.41807,0.61444 0.41807,1.08319c0,0.44341 -0.13936,0.80448 -0.41807,1.08319c-0.27871,0.26605 -0.65878,0.39907 -1.1402,0.39907zM143.80196,38.21229c-1.16554,0 -2.21073,-0.26605 -3.13556,-0.79814c-0.91216,-0.54476 -1.63429,-1.27956 -2.16639,-2.20439c-0.51943,-0.9375 -0.77914,-2.00169 -0.77914,-3.19257c0,-1.19088 0.25971,-2.24874 0.77914,-3.17356c0.53209,-0.9375 1.25422,-1.6723 2.16639,-2.20439c0.92483,-0.54476 1.97001,-0.81715 3.13556,-0.81715c1.1402,0 2.16639,0.27238 3.07855,0.81715c0.92483,0.53209 1.65329,1.26689 2.18539,2.20439c0.53209,0.92483 0.79814,1.98269 0.79814,3.17356c0,1.19088 -0.26605,2.25507 -0.79814,3.19257c-0.53209,0.92483 -1.26056,1.65963 -2.18539,2.20439c-0.91216,0.53209 -1.93834,0.79814 -3.07855,0.79814zM143.80196,36.08391c0.70946,0 1.3429,-0.17737 1.90034,-0.53209c0.55743,-0.35473 0.99451,-0.83615 1.31123,-1.44426c0.31672,-0.62077 0.46875,-1.31757 0.45608,-2.09037c0.01267,-0.78548 -0.13936,-1.48226 -0.45608,-2.09037c-0.31672,-0.62078 -0.7538,-1.1022 -1.31123,-1.44426c-0.55743,-0.35473 -1.19088,-0.53209 -1.90034,-0.53209c-0.70946,0 -1.34924,0.17737 -1.91934,0.53209c-0.5701,0.35473 -1.01352,0.84249 -1.33024,1.46326c-0.31672,0.60811 -0.46875,1.29857 -0.45608,2.07137c-0.01267,0.7728 0.13936,1.4696 0.45608,2.09037c0.31672,0.60811 0.76014,1.08953 1.33024,1.44426c0.5701,0.35473 1.20988,0.53209 1.91934,0.53209zM152.39739,37.98425v-11.91512h2.33742v2.45144l-0.41807,0.26605c0.15203,-0.51943 0.44974,-1.00084 0.89316,-1.44426c0.44341,-0.45608 0.96284,-0.82348 1.55828,-1.1022c0.60811,-0.27871 1.22888,-0.41807 1.86233,-0.41807c0.91216,0 1.66596,0.17737 2.2614,0.53209c0.60811,0.35473 1.06419,0.8995 1.36824,1.63429c0.30405,0.72213 0.45608,1.63429 0.45608,2.73649v7.25929h-2.33742v-7.10726c0,-0.67145 -0.08868,-1.22888 -0.26605,-1.6723c-0.17737,-0.45608 -0.45608,-0.78548 -0.83615,-0.98818c-0.38007,-0.2027 -0.84882,-0.29139 -1.40625,-0.26605c-0.45608,0 -0.87416,0.07601 -1.25422,0.22804c-0.38007,0.13936 -0.70946,0.34206 -0.98818,0.60811c-0.27871,0.25338 -0.50042,0.5511 -0.66512,0.89316c-0.15203,0.32939 -0.22804,0.69046 -0.22804,1.08319v7.22128h-1.15921c-0.19003,0 -0.3864,0 -0.5891,0c-0.2027,0 -0.39907,0 -0.5891,0zM169.86966,38.21229c-1.00084,0 -1.90034,-0.17103 -2.69848,-0.51309c-0.79814,-0.35473 -1.46326,-0.87416 -1.99535,-1.55828l1.57728,-1.34924c0.45608,0.51943 0.95017,0.8995 1.48226,1.1402c0.54476,0.22804 1.15921,0.34206 1.84333,0.34206c0.26605,0 0.51309,-0.03167 0.74113,-0.09502c0.24071,-0.06335 0.44974,-0.16469 0.62711,-0.30405c0.17737,-0.13936 0.31039,-0.30405 0.39907,-0.49409c0.08868,-0.19003 0.13302,-0.39907 0.13302,-0.62711c0,-0.39273 -0.14569,-0.70946 -0.43708,-0.95017c-0.15203,-0.10135 -0.39273,-0.21537 -0.72213,-0.34206c-0.31672,-0.12669 -0.7348,-0.25971 -1.25422,-0.39907c-0.87416,-0.22804 -1.58995,-0.48142 -2.14738,-0.76014c-0.55743,-0.29139 -0.98818,-0.62077 -1.29223,-0.98818c-0.22804,-0.29139 -0.39907,-0.60177 -0.51309,-0.93117c-0.10135,-0.34206 -0.15203,-0.72213 -0.15203,-1.1402c0,-0.49409 0.10768,-0.95017 0.32306,-1.36824c0.22804,-0.41807 0.53209,-0.77914 0.91216,-1.08319c0.39273,-0.31672 0.84882,-0.55743 1.36824,-0.72213c0.51943,-0.16469 1.07686,-0.24704 1.6723,-0.24704c0.55743,0 1.10853,0.07601 1.65329,0.22804c0.55743,0.15203 1.07053,0.37373 1.53927,0.66512c0.46875,0.27871 0.86149,0.61444 1.17821,1.00718l-1.33024,1.48226c-0.29139,-0.29139 -0.60811,-0.54476 -0.95017,-0.76014c-0.34206,-0.21537 -0.69046,-0.38007 -1.04519,-0.49409c-0.34206,-0.12669 -0.65245,-0.19003 -0.93117,-0.19003c-0.31672,0 -0.60811,0.03167 -0.87416,0.09502c-0.25338,0.05067 -0.46875,0.13936 -0.64611,0.26605c-0.16469,0.11402 -0.29772,0.26605 -0.39907,0.45608c-0.08868,0.17737 -0.13302,0.38007 -0.13302,0.60811c0.01267,0.19003 0.06335,0.37373 0.15203,0.5511c0.08868,0.17737 0.20904,0.32306 0.36106,0.43708c0.16469,0.12669 0.41174,0.25971 0.74113,0.39907c0.32939,0.12669 0.7538,0.25338 1.27323,0.38007c0.74747,0.19003 1.36824,0.40541 1.86233,0.64611c0.49409,0.22804 0.88682,0.49409 1.17821,0.79814c0.30405,0.29139 0.51309,0.62711 0.62711,1.00718c0.12669,0.38007 0.19003,0.80448 0.19003,1.27323c0,0.67145 -0.19637,1.27956 -0.5891,1.82432c-0.38007,0.53209 -0.8995,0.95017 -1.55828,1.25422c-0.64611,0.30405 -1.36824,0.45608 -2.16639,0.45608z" fill="#000000" fill-rule="nonzero"/><path d="M272.05843,132.202c-0.86012,0 -1.657,-0.11384 -2.39063,-0.34152c-0.73363,-0.22768 -1.39769,-0.5692 -1.99219,-1.02455c-0.5945,-0.468 -1.12575,-1.0372 -1.59375,-1.70759l1.66964,-1.93527c0.74628,1.0625 1.45461,1.79613 2.125,2.20089c0.68304,0.40476 1.49256,0.60714 2.42857,0.60714c0.5692,0 1.0878,-0.08854 1.5558,-0.26562c0.468,-0.18973 0.83482,-0.44271 1.10045,-0.75893c0.27827,-0.31622 0.41741,-0.67671 0.41741,-1.08147c0,-0.26562 -0.04427,-0.5186 -0.13281,-0.75893c-0.08854,-0.25298 -0.22768,-0.47433 -0.41741,-0.66406c-0.18973,-0.20238 -0.43006,-0.38579 -0.72098,-0.55022c-0.29092,-0.16443 -0.63244,-0.3099 -1.02455,-0.43638c-0.39211,-0.12649 -0.84747,-0.234 -1.36607,-0.32254c-0.80952,-0.17709 -1.51786,-0.39844 -2.125,-0.66406c-0.60714,-0.27827 -1.11309,-0.61979 -1.51786,-1.02455c-0.40476,-0.40476 -0.70834,-0.86644 -0.91071,-1.38504c-0.20238,-0.5186 -0.30357,-1.10677 -0.30357,-1.76451c0,-0.63244 0.13914,-1.22061 0.41741,-1.76451c0.29092,-0.5439 0.67671,-1.01191 1.15737,-1.40402c0.4933,-0.40476 1.06883,-0.71466 1.72656,-0.92969c0.67039,-0.22768 1.39137,-0.34152 2.16295,-0.34152c0.82217,0 1.56845,0.10751 2.23884,0.32254c0.68304,0.21503 1.29018,0.53125 1.82143,0.94866c0.53125,0.40476 0.96763,0.91071 1.30915,1.51786l-1.72656,1.70759c-0.29092,-0.50595 -0.62612,-0.92336 -1.00558,-1.25223c-0.37946,-0.34152 -0.79687,-0.60082 -1.25223,-0.7779c-0.45536,-0.17709 -0.93601,-0.26562 -1.44196,-0.26562c-0.5945,0 -1.11309,0.09487 -1.5558,0.2846c-0.43006,0.17709 -0.77158,0.43006 -1.02455,0.75893c-0.25298,0.31622 -0.37946,0.69568 -0.37946,1.13839c0,0.31622 0.06325,0.60714 0.18973,0.87277c0.12649,0.26563 0.3099,0.49963 0.55022,0.70201c0.25298,0.20238 0.58817,0.38579 1.00558,0.55022c0.43006,0.15179 0.93601,0.2846 1.51786,0.39844c0.83482,0.18973 1.57478,0.42374 2.21987,0.70201c0.65774,0.27827 1.20796,0.60714 1.65067,0.98661c0.45536,0.37946 0.79688,0.8032 1.02455,1.27121c0.24033,0.468 0.36049,0.97396 0.36049,1.51786c0,1.01191 -0.23401,1.89099 -0.70201,2.63728c-0.468,0.73363 -1.13207,1.30283 -1.99219,1.70759c-0.86012,0.39211 -1.88467,0.58817 -3.07366,0.58817zM280.71129,131.97432v-16.77232h2.33371v7.32366l-0.41741,0.26563c0.15179,-0.5186 0.44903,-0.99925 0.89174,-1.44196c0.44271,-0.45536 0.96131,-0.82217 1.5558,-1.10045c0.60714,-0.27827 1.22693,-0.41741 1.85938,-0.41741c0.91071,0 1.66332,0.17709 2.25781,0.53125c0.60714,0.35416 1.0625,0.89807 1.36607,1.6317c0.30357,0.72098 0.45536,1.6317 0.45536,2.73214v7.24777h-2.33371v-7.09598c0,-0.67039 -0.08854,-1.22693 -0.26562,-1.66964c-0.17709,-0.45536 -0.45536,-0.78423 -0.83482,-0.98661c-0.37946,-0.20238 -0.84747,-0.29092 -1.40402,-0.26562c-0.45536,0 -0.87277,0.07589 -1.25223,0.22768c-0.37946,0.13914 -0.70834,0.34152 -0.98661,0.60714c-0.27827,0.25298 -0.49963,0.55022 -0.66406,0.89174c-0.15179,0.32887 -0.22768,0.68936 -0.22768,1.08147v7.20982h-1.15737c-0.18973,0 -0.38579,0 -0.58817,0c-0.20238,0 -0.39844,0 -0.58817,0zM298.36453,132.202c-0.84747,0 -1.58742,-0.19606 -2.21987,-0.58817c-0.61979,-0.39211 -1.10045,-0.94233 -1.44196,-1.65067c-0.34152,-0.70834 -0.51228,-1.5558 -0.51228,-2.54241v-7.34263h2.33371v6.71652c0,0.68304 0.10751,1.27753 0.32254,1.78348c0.22768,0.50595 0.5439,0.89807 0.94866,1.17634c0.41741,0.26563 0.92336,0.39844 1.51786,0.39844c0.43006,0 0.82849,-0.06957 1.19531,-0.20871c0.36682,-0.13914 0.68304,-0.33519 0.94866,-0.58817c0.26563,-0.26562 0.468,-0.57552 0.60714,-0.92969c0.15179,-0.36682 0.22768,-0.76526 0.22768,-1.19531v-7.1529h2.33371v11.89621h-2.33371v-2.48549l0.41741,-0.2846c-0.17709,0.5692 -0.48066,1.08147 -0.91071,1.53683c-0.43006,0.44271 -0.94233,0.79688 -1.53683,1.0625c-0.5945,0.26563 -1.22693,0.39844 -1.89732,0.39844zM309.37601,131.97432v-14.93192h2.33371v14.93192zM306.89052,122.3549v-2.27679h7.57031v2.27679zM321.4339,132.202c-1.0878,0 -2.05543,-0.26562 -2.9029,-0.79687c-0.84747,-0.5439 -1.52418,-1.27753 -2.03013,-2.20089c-0.49329,-0.93601 -0.73994,-1.99851 -0.73994,-3.1875c0,-1.18899 0.24032,-2.24517 0.72096,-3.16853c0.4933,-0.93601 1.16369,-1.66964 2.01116,-2.20089c0.84747,-0.5439 1.80878,-0.81585 2.88393,-0.81585c0.58184,0 1.15104,0.09487 1.70759,0.2846c0.55655,0.18973 1.04985,0.44903 1.47991,0.7779c0.44271,0.31622 0.78423,0.67039 1.02455,1.0625c0.25298,0.37946 0.37946,0.76526 0.37946,1.15737l-0.68304,0.05692v-7.96875h2.33371v16.77232h-2.33371v-2.82701h0.45536c0,0.35416 -0.12017,0.71466 -0.36049,1.08147c-0.24033,0.35416 -0.56287,0.68304 -0.96763,0.98661c-0.39211,0.29092 -0.85379,0.53125 -1.38504,0.72098c-0.5186,0.17709 -1.04985,0.26563 -1.59375,0.26563zM321.75645,130.19084c0.70834,0 1.33445,-0.18341 1.87835,-0.55022c0.5439,-0.36682 0.96763,-0.86012 1.27121,-1.47991c0.31622,-0.63244 0.47433,-1.3471 0.47433,-2.14397c0,-0.79687 -0.15811,-1.50521 -0.47433,-2.125c-0.30357,-0.63244 -0.72731,-1.13207 -1.27121,-1.49888c-0.5439,-0.36682 -1.17001,-0.55022 -1.87835,-0.55022c-0.70834,0 -1.33445,0.18341 -1.87835,0.55022c-0.5439,0.36682 -0.97396,0.86644 -1.29018,1.49888c-0.30357,0.61979 -0.45536,1.32812 -0.45536,2.125c0,0.79688 0.15179,1.51153 0.45536,2.14397c0.31622,0.61979 0.74628,1.11309 1.29018,1.47991c0.5439,0.36682 1.17001,0.55022 1.87835,0.55022zM336.19499,132.202c-1.16369,0 -2.20722,-0.26562 -3.13058,-0.79687c-0.91071,-0.5439 -1.6317,-1.27753 -2.16295,-2.20089c-0.5186,-0.93601 -0.7779,-1.99851 -0.7779,-3.1875c0,-1.18899 0.2593,-2.24517 0.7779,-3.16853c0.53125,-0.93601 1.25223,-1.66964 2.16295,-2.20089c0.92336,-0.5439 1.96689,-0.81585 3.13058,-0.81585c1.13839,0 2.16295,0.27195 3.07366,0.81585c0.92336,0.53125 1.65067,1.26488 2.18192,2.20089c0.53125,0.92336 0.79688,1.97954 0.79688,3.16853c0,1.18899 -0.26562,2.25149 -0.79687,3.1875c-0.53125,0.92336 -1.25856,1.657 -2.18192,2.20089c-0.91071,0.53125 -1.93527,0.79688 -3.07366,0.79688zM336.19499,130.077c0.70834,0 1.34077,-0.17709 1.89732,-0.53125c0.55655,-0.35416 0.99293,-0.83482 1.30915,-1.44196c0.31622,-0.61979 0.468,-1.31548 0.45536,-2.08705c0.01265,-0.78423 -0.13914,-1.47991 -0.45536,-2.08705c-0.31622,-0.61979 -0.7526,-1.10045 -1.30915,-1.44196c-0.55655,-0.35416 -1.18899,-0.53125 -1.89732,-0.53125c-0.70834,0 -1.3471,0.17709 -1.91629,0.53125c-0.5692,0.35416 -1.01191,0.84115 -1.32812,1.46094c-0.31622,0.60714 -0.468,1.29651 -0.45536,2.06808c-0.01265,0.77158 0.13914,1.46726 0.45536,2.08705c0.31622,0.60714 0.75893,1.0878 1.32813,1.44196c0.5692,0.35416 1.20796,0.53125 1.91629,0.53125zM347.24533,131.97432l-4.06027,-11.89621l2.35268,-0.01897l2.9029,8.89844l-0.51228,-0.03795l3.14955,-6.96317h1.40402l3.16853,6.98214l-0.60714,0.03795l2.92187,-8.89844h2.35268l-4.00335,11.89621h-1.61272l-3.32031,-7.57031l0.53125,0.07589l-3.07366,7.49442zM362.44666,131.97432v-11.89621h2.33371v2.44754l-0.41741,0.26563c0.15179,-0.5186 0.44903,-0.99925 0.89174,-1.44196c0.44271,-0.45536 0.96131,-0.82217 1.5558,-1.10045c0.60714,-0.27827 1.22693,-0.41741 1.85938,-0.41741c0.91071,0 1.66332,0.17709 2.25781,0.53125c0.60714,0.35416 1.0625,0.89807 1.36607,1.6317c0.30357,0.72098 0.45536,1.6317 0.45536,2.73214v7.24777h-2.33371v-7.09598c0,-0.67039 -0.08854,-1.22693 -0.26562,-1.66964c-0.17709,-0.45536 -0.45536,-0.78423 -0.83482,-0.98661c-0.37946,-0.20238 -0.84747,-0.29092 -1.40402,-0.26562c-0.45536,0 -0.87277,0.07589 -1.25223,0.22768c-0.37946,0.13914 -0.70834,0.34152 -0.98661,0.60714c-0.27827,0.25298 -0.49963,0.55022 -0.66406,0.89174c-0.15179,0.32887 -0.22768,0.68936 -0.22768,1.08147v7.20982h-1.15737c-0.18973,0 -0.38579,0 -0.58817,0c-0.20238,0 -0.39844,0 -0.58817,0z" fill="#000000" fill-rule="nonzero"/><path d="M267.06696,174.15365v-14.48775h6.16942c0.82028,0 1.57702,0.20796 2.27021,0.62387c0.70475,0.40436 1.26508,0.95314 1.68099,1.64634c0.41592,0.69319 0.62387,1.47304 0.62387,2.33953c0,0.79717 -0.20796,1.53658 -0.62387,2.21822c-0.41592,0.67009 -0.97047,1.20731 -1.66367,1.61168c-0.68164,0.40436 -1.44416,0.60654 -2.28754,0.60654h-3.93387v5.44157zM275.67989,174.15365l-3.69126,-6.53335l2.30487,-0.5199l4.08984,7.07058zM269.30251,166.56318h4.14183c0.39281,0 0.74518,-0.0982 1.05712,-0.29461c0.32349,-0.20796 0.57188,-0.48524 0.74518,-0.83183c0.18485,-0.35815 0.27728,-0.75096 0.27728,-1.17843c0,-0.48524 -0.11553,-0.90693 -0.3466,-1.26508c-0.21951,-0.36971 -0.53145,-0.65853 -0.93581,-0.86649c-0.40436,-0.20796 -0.86649,-0.31194 -1.38639,-0.31194h-3.55262zM285.55682,174.36161c-1.10911,0 -2.09691,-0.23684 -2.9634,-0.71052c-0.85494,-0.47368 -1.5308,-1.12644 -2.02759,-1.95827c-0.48524,-0.83183 -0.72785,-1.78497 -0.72785,-2.85942c0,-0.85494 0.13864,-1.63478 0.41592,-2.33953c0.27728,-0.70475 0.65853,-1.31129 1.14377,-1.81963c0.48524,-0.5199 1.06867,-0.91848 1.75031,-1.19576c0.69319,-0.28883 1.43838,-0.43325 2.23555,-0.43325c0.70475,0 1.35751,0.13286 1.95827,0.39859c0.61232,0.26573 1.13799,0.63543 1.57702,1.10911c0.45058,0.47368 0.79717,1.03401 1.03979,1.68099c0.24262,0.63543 0.35815,1.32862 0.3466,2.07958l-0.01733,0.91848h-8.87288l-0.48524,-1.69832h7.50382l-0.29461,0.3466v-0.48524c-0.04621,-0.46213 -0.20218,-0.87227 -0.46791,-1.23042c-0.25417,-0.35815 -0.58344,-0.6412 -0.9878,-0.84916c-0.40436,-0.20796 -0.83761,-0.31194 -1.29974,-0.31194c-0.75096,0 -1.38061,0.14442 -1.88895,0.43325c-0.50834,0.27728 -0.89537,0.69319 -1.1611,1.24775c-0.25417,0.543 -0.38126,1.21309 -0.38126,2.01026c0,0.75096 0.15597,1.4095 0.46791,1.9756c0.31194,0.55456 0.75673,0.9878 1.3344,1.29974c0.58921,0.30039 1.2593,0.45058 2.01026,0.45058c0.543,0 1.04557,-0.08665 1.5077,-0.25995c0.46213,-0.18485 0.96469,-0.51412 1.5077,-0.9878l1.07445,1.5077c-0.33505,0.33505 -0.7394,0.62965 -1.21309,0.88382c-0.47368,0.24262 -0.97625,0.43902 -1.5077,0.58921c-0.53145,0.13864 -1.05712,0.20796 -1.57702,0.20796zM296.24385,174.36161c-0.9127,0 -1.73298,-0.15597 -2.46084,-0.46791c-0.72785,-0.32349 -1.3344,-0.79717 -1.81963,-1.42105l1.43838,-1.23042c0.41592,0.47368 0.86649,0.82028 1.35173,1.03979c0.49679,0.20796 1.05712,0.31194 1.68099,0.31194c0.24262,0 0.46791,-0.02888 0.67586,-0.08665c0.21951,-0.05777 0.41014,-0.15019 0.57188,-0.27728c0.16175,-0.12709 0.28306,-0.27728 0.36393,-0.45058c0.08087,-0.1733 0.12131,-0.36393 0.12131,-0.57188c0,-0.35815 -0.13286,-0.64698 -0.39859,-0.86649c-0.13864,-0.09243 -0.35815,-0.19641 -0.65853,-0.31194c-0.28883,-0.11553 -0.67009,-0.23684 -1.14377,-0.36393c-0.79717,-0.20796 -1.44993,-0.43902 -1.95827,-0.69319c-0.50834,-0.26573 -0.90115,-0.56611 -1.17843,-0.90115c-0.20796,-0.26573 -0.36393,-0.54878 -0.46791,-0.84916c-0.09243,-0.31194 -0.13864,-0.65853 -0.13864,-1.03979c0,-0.45058 0.0982,-0.86649 0.29461,-1.24775c0.20796,-0.38126 0.48524,-0.71052 0.83183,-0.9878c0.35815,-0.28883 0.77406,-0.50834 1.24775,-0.65853c0.47368,-0.15019 0.98202,-0.22529 1.52503,-0.22529c0.50834,0 1.01091,0.06932 1.5077,0.20796c0.50834,0.13864 0.97625,0.34082 1.40372,0.60654c0.42747,0.25417 0.78562,0.56033 1.07445,0.91848l-1.21309,1.35173c-0.26573,-0.26573 -0.55456,-0.49679 -0.86649,-0.69319c-0.31194,-0.19641 -0.62965,-0.3466 -0.95314,-0.45058c-0.31194,-0.11553 -0.59499,-0.1733 -0.84916,-0.1733c-0.28883,0 -0.55456,0.02888 -0.79717,0.08665c-0.23107,0.04621 -0.42747,0.12709 -0.58921,0.24262c-0.15019,0.10398 -0.2715,0.24262 -0.36393,0.41592c-0.08087,0.16175 -0.12131,0.3466 -0.12131,0.55456c0.01155,0.1733 0.05777,0.34082 0.13864,0.50257c0.08087,0.16175 0.19063,0.29461 0.32927,0.39859c0.15019,0.11553 0.37548,0.23684 0.67586,0.36393c0.30039,0.11553 0.68742,0.23107 1.1611,0.3466c0.68164,0.1733 1.24775,0.36971 1.69832,0.58921c0.45058,0.20796 0.80872,0.45058 1.07445,0.72785c0.27728,0.26573 0.46791,0.57188 0.57188,0.91848c0.11553,0.3466 0.1733,0.73363 0.1733,1.1611c0,0.61232 -0.17908,1.16688 -0.53723,1.66367c-0.3466,0.48524 -0.82028,0.86649 -1.42105,1.14377c-0.58921,0.27728 -1.24775,0.41592 -1.9756,0.41592zM303.88503,174.15365v-13.63859h2.13157v13.63859zM301.61482,165.36742v-2.07958h6.91461v2.07958zM314.55196,174.36161c-0.8896,0 -1.7041,-0.2484 -2.44351,-0.74518c-0.7394,-0.49679 -1.3344,-1.17265 -1.78497,-2.02759c-0.43902,-0.85494 -0.65853,-1.81963 -0.65853,-2.89408c0,-1.09756 0.22529,-2.06803 0.67586,-2.91141c0.45058,-0.84338 1.05712,-1.5077 1.81963,-1.99293c0.77406,-0.48524 1.63478,-0.72785 2.58215,-0.72785c0.56611,0 1.08023,0.08665 1.54236,0.25995c0.47368,0.16175 0.88382,0.39281 1.23042,0.69319c0.35815,0.28883 0.64698,0.62965 0.86649,1.02246c0.23107,0.38126 0.37548,0.79139 0.43325,1.23042l-0.46791,-0.15597v-2.82476h2.1489v10.86581h-2.1489v-2.58215l0.48524,-0.15597c-0.08087,0.38126 -0.2484,0.75096 -0.50257,1.10911c-0.25417,0.3466 -0.57766,0.65853 -0.97047,0.93581c-0.39281,0.26573 -0.82605,0.48524 -1.29974,0.65853c-0.47368,0.16175 -0.97625,0.24262 -1.5077,0.24262zM315.10651,172.40334c0.65853,0 1.23042,-0.15597 1.71565,-0.46791c0.49679,-0.32349 0.88382,-0.76251 1.1611,-1.31707c0.28883,-0.56611 0.43325,-1.20731 0.43325,-1.92361c0,-0.70475 -0.14442,-1.3344 -0.43325,-1.88895c-0.27728,-0.55456 -0.66431,-0.9878 -1.1611,-1.29974c-0.48524,-0.32349 -1.05712,-0.48524 -1.71565,-0.48524c-0.63543,0 -1.19576,0.16175 -1.68099,0.48524c-0.48524,0.31194 -0.87227,0.74518 -1.1611,1.29974c-0.27728,0.55456 -0.41592,1.18421 -0.41592,1.88895c0,0.7163 0.13864,1.35751 0.41592,1.92361c0.28883,0.55456 0.67586,0.99358 1.1611,1.31707c0.48524,0.31194 1.04557,0.46791 1.68099,0.46791zM323.47337,174.15365v-10.86581h2.1489v3.41398l-0.20796,-0.83183c0.15019,-0.5199 0.41014,-0.99358 0.77984,-1.42105c0.36971,-0.42747 0.79139,-0.76251 1.26508,-1.00513c0.47368,-0.25417 0.96469,-0.38126 1.47304,-0.38126c0.23107,0 0.45058,0.02311 0.65853,0.06932c0.21951,0.03466 0.39281,0.08087 0.5199,0.13864l-0.55456,2.3222c-0.16175,-0.06932 -0.3466,-0.12709 -0.55456,-0.1733c-0.19641,-0.05777 -0.39281,-0.08665 -0.58921,-0.08665c-0.36971,0 -0.72208,0.0751 -1.05712,0.22529c-0.33505,0.13864 -0.63543,0.34082 -0.90115,0.60654c-0.25417,0.25417 -0.45635,0.54878 -0.60654,0.88382c-0.15019,0.33505 -0.22529,0.70475 -0.22529,1.10911v5.99613zM333.57796,174.15365v-13.63859h2.13157v13.63859zM331.30775,165.36742v-2.07958h6.91461v2.07958z" fill="#000000" fill-rule="nonzero"/><path d="M267.35306,214.9554v-15.16857h2.34061v12.91869h7.11254v2.24988zM284.45059,215.17313c-1.11285,0 -2.11078,-0.25402 -2.9938,-0.76206c-0.87092,-0.52013 -1.5604,-1.22171 -2.06844,-2.10473c-0.49594,-0.89512 -0.74391,-1.91119 -0.74391,-3.04823c0,-1.13704 0.24797,-2.14707 0.74391,-3.03009c0.50804,-0.89512 1.19752,-1.59669 2.06844,-2.10473c0.88302,-0.52013 1.88095,-0.7802 2.9938,-0.7802c1.08865,0 2.06844,0.26007 2.93936,0.7802c0.88302,0.50804 1.57855,1.20961 2.08659,2.10473c0.50804,0.88302 0.76206,1.89305 0.76206,3.03009c0,1.13704 -0.25402,2.15311 -0.76206,3.04823c-0.50804,0.88302 -1.20357,1.5846 -2.08659,2.10473c-0.87092,0.50804 -1.85071,0.76206 -2.93936,0.76206zM284.45059,213.14097c0.67739,0 1.28219,-0.16935 1.81442,-0.50804c0.53223,-0.33869 0.94955,-0.79835 1.25195,-1.37896c0.3024,-0.59271 0.44756,-1.258 0.43546,-1.99586c0.01209,-0.74996 -0.13306,-1.41525 -0.43546,-1.99586c-0.3024,-0.59271 -0.71972,-1.05237 -1.25195,-1.37896c-0.53223,-0.33869 -1.13704,-0.50804 -1.81442,-0.50804c-0.67739,0 -1.28824,0.16935 -1.83257,0.50804c-0.54433,0.33869 -0.96769,0.8044 -1.2701,1.39711c-0.3024,0.58062 -0.44756,1.23986 -0.43546,1.97772c-0.01209,0.73786 0.13306,1.40316 0.43546,1.99586c0.3024,0.58062 0.72577,1.04027 1.2701,1.37896c0.54433,0.33869 1.15518,0.50804 1.83257,0.50804zM297.48378,215.17313c-1.05237,0 -1.99586,-0.26007 -2.8305,-0.7802c-0.82254,-0.52013 -1.47573,-1.22776 -1.95958,-2.12287c-0.48384,-0.89512 -0.72577,-1.89909 -0.72577,-3.01194c0,-1.11285 0.24192,-2.11682 0.72577,-3.01194c0.48384,-0.89512 1.13704,-1.60274 1.95958,-2.12287c0.83463,-0.52013 1.77813,-0.7802 2.8305,-0.7802c1.01608,0 1.93538,0.20564 2.75792,0.6169c0.83463,0.41127 1.46968,0.97374 1.90514,1.68741l-1.23381,1.50597c-0.22982,-0.3266 -0.52618,-0.629 -0.88907,-0.90721c-0.36288,-0.27821 -0.74996,-0.49594 -1.16123,-0.65319c-0.39917,-0.15725 -0.78625,-0.23587 -1.16123,-0.23587c-0.68948,0 -1.30638,0.16935 -1.85071,0.50804c-0.54433,0.33869 -0.97374,0.8044 -1.28824,1.39711c-0.3145,0.59271 -0.47175,1.258 -0.47175,1.99586c0,0.73786 0.1633,1.40316 0.48989,1.99586c0.33869,0.58062 0.7802,1.04632 1.32453,1.39711c0.54433,0.33869 1.14914,0.50804 1.81442,0.50804c0.39917,0 0.7802,-0.06653 1.14309,-0.19959c0.36288,-0.13306 0.71972,-0.3266 1.07051,-0.58062c0.35079,-0.26611 0.67739,-0.58667 0.97979,-0.96164l1.23381,1.52411c-0.45966,0.65319 -1.11889,1.19147 -1.97772,1.61484c-0.85883,0.41127 -1.75394,0.6169 -2.68535,0.6169zM306.27992,211.39913l-0.10887,-2.43133l5.44327,-5.38884h3.01194zM304.24777,214.9554v-16.0395h2.23174v16.0395zM311.92278,214.9554l-4.30018,-5.00781l1.57855,-1.45154l5.57028,6.45934z" fill="#000000" fill-rule="nonzero"/><path d="M260.74177,40.59658c-0.78797,0 -1.51254,-0.14039 -2.17371,-0.42116c-0.66117,-0.28077 -1.2363,-0.68381 -1.72538,-1.20913c-0.48003,-0.52531 -0.8559,-1.14573 -1.12761,-1.86124c-0.26266,-0.71551 -0.39399,-1.49896 -0.39399,-2.35032c0,-0.80609 0.14491,-1.55782 0.43474,-2.25522c0.28983,-0.6974 0.68834,-1.30876 1.19554,-1.83407c0.5072,-0.53437 1.09591,-0.94647 1.76614,-1.2363c0.67023,-0.29889 1.3948,-0.44833 2.17371,-0.44833c0.55248,0 1.09139,0.08604 1.6167,0.25813c0.52531,0.16303 1.00081,0.39399 1.4265,0.69287c0.42569,0.29889 0.77438,0.63853 1.0461,1.01893l-1.16837,1.20913c-0.317,-0.317 -0.634,-0.57965 -0.951,-0.78797c-0.317,-0.20832 -0.64306,-0.36681 -0.97817,-0.4755c-0.32606,-0.10869 -0.65664,-0.16303 -0.99176,-0.16303c-0.53437,0 -1.03251,0.09963 -1.49443,0.29889c-0.45286,0.19926 -0.85137,0.48003 -1.19554,0.84231c-0.33511,0.35323 -0.6023,0.77891 -0.80156,1.27705c-0.1902,0.48908 -0.2853,1.02346 -0.2853,1.60311c0,0.61589 0.09057,1.17742 0.27171,1.68463c0.1902,0.49814 0.45738,0.92836 0.80156,1.29064c0.35323,0.35323 0.76985,0.62494 1.24988,0.81514c0.48003,0.1902 1.0144,0.2853 1.60311,0.2853c0.35323,0 0.70193,-0.04981 1.0461,-0.14944c0.34417,-0.09963 0.6657,-0.24001 0.96458,-0.42116c0.30794,-0.18114 0.58871,-0.39852 0.84231,-0.65211l0.86948,1.4265c-0.24454,0.29889 -0.58418,0.56607 -1.01893,0.80156c-0.42569,0.23549 -0.90119,0.42116 -1.4265,0.55701c-0.51626,0.13586 -1.04157,0.20379 -1.57594,0.20379zM266.75651,40.43355v-12.00975h1.67104v12.00975zM271.07261,40.43355v-8.51823h1.67104v8.51823zM271.88775,30.0405c-0.35323,0 -0.62947,-0.09057 -0.82873,-0.27171c-0.1902,-0.1902 -0.2853,-0.45286 -0.2853,-0.78797c0,-0.317 0.09963,-0.5706 0.29889,-0.7608c0.19926,-0.19926 0.47097,-0.29889 0.81514,-0.29889c0.35323,0 0.62494,0.0951 0.81514,0.2853c0.19926,0.18114 0.29889,0.43927 0.29889,0.77438c0,0.317 -0.09963,0.57513 -0.29889,0.77438c-0.19926,0.1902 -0.47097,0.2853 -0.81514,0.2853zM278.92421,40.59658c-0.78797,0 -1.49443,-0.19473 -2.11937,-0.58418c-0.61589,-0.38945 -1.10497,-0.9193 -1.46725,-1.58953c-0.36228,-0.67023 -0.54343,-1.42197 -0.54343,-2.25522c0,-0.83326 0.18114,-1.585 0.54343,-2.25522c0.36228,-0.67023 0.85137,-1.20007 1.46725,-1.58953c0.62494,-0.38945 1.3314,-0.58418 2.11937,-0.58418c0.7608,0 1.44914,0.15397 2.06502,0.46191c0.62494,0.30794 1.10044,0.7291 1.4265,1.26347l-0.92383,1.12761c-0.17208,-0.24454 -0.39399,-0.47097 -0.6657,-0.67928c-0.27171,-0.20832 -0.56154,-0.37134 -0.86948,-0.48908c-0.29889,-0.11774 -0.58871,-0.17661 -0.86948,-0.17661c-0.51626,0 -0.97817,0.1268 -1.38574,0.3804c-0.40757,0.2536 -0.7291,0.6023 -0.96458,1.0461c-0.23549,0.4438 -0.35323,0.94194 -0.35323,1.49443c0,0.55248 0.12227,1.05063 0.36681,1.49443c0.2536,0.43474 0.58418,0.78344 0.99176,1.0461c0.40757,0.2536 0.86043,0.3804 1.35857,0.3804c0.29889,0 0.58418,-0.04981 0.8559,-0.14944c0.27171,-0.09963 0.5389,-0.24454 0.80156,-0.43474c0.26266,-0.19926 0.5072,-0.43927 0.73363,-0.72004l0.92383,1.1412c-0.34417,0.48908 -0.83778,0.89213 -1.48084,1.20913c-0.64306,0.30794 -1.31328,0.46191 -2.01068,0.46191zM285.51042,37.77076l-0.08151,-1.82048l4.07571,-4.03495h2.25522zM283.98882,40.43355v-12.00975h1.67104v12.00975zM289.73557,40.43355l-3.21981,-3.74965l1.18196,-1.08686l4.17081,4.83651zM301.01864,40.59658c-0.6974,0 -1.33592,-0.19473 -1.91557,-0.58418c-0.57965,-0.38945 -1.0461,-0.9193 -1.39933,-1.58953c-0.34417,-0.67023 -0.51626,-1.4265 -0.51626,-2.26881c0,-0.86043 0.17661,-1.62123 0.52984,-2.2824c0.35323,-0.66117 0.82873,-1.18196 1.4265,-1.56235c0.60682,-0.3804 1.28157,-0.5706 2.02425,-0.5706c0.4438,0 0.84684,0.06793 1.20913,0.20379c0.37134,0.1268 0.69287,0.30794 0.96458,0.54343c0.28077,0.22643 0.5072,0.49361 0.67928,0.80156c0.18114,0.29889 0.29436,0.62041 0.33964,0.96458l-0.36681,-0.12227v-2.21447h1.68463v8.51823h-1.68463v-2.02427l0.3804,-0.12227c-0.0634,0.29889 -0.19473,0.58871 -0.39399,0.86948c-0.19926,0.27171 -0.45286,0.51626 -0.7608,0.73363c-0.30794,0.20832 -0.64758,0.3804 -1.01893,0.51626c-0.37134,0.1268 -0.76533,0.1902 -1.18196,0.1902zM301.45338,39.0614c0.51626,0 0.96458,-0.12227 1.34498,-0.36681c0.38945,-0.2536 0.69287,-0.59777 0.91024,-1.03251c0.22643,-0.4438 0.33964,-0.94647 0.33964,-1.50801c0,-0.55248 -0.11322,-1.0461 -0.33964,-1.48084c-0.21737,-0.43474 -0.52079,-0.77438 -0.91024,-1.01893c-0.3804,-0.2536 -0.82873,-0.3804 -1.34498,-0.3804c-0.49814,0 -0.93741,0.1268 -1.31781,0.3804c-0.3804,0.24454 -0.68381,0.58418 -0.91023,1.01893c-0.21737,0.43474 -0.32606,0.92836 -0.32606,1.48084c0,0.56154 0.10869,1.06421 0.32606,1.50801c0.22642,0.43474 0.52983,0.77891 0.91023,1.03251c0.3804,0.24454 0.81967,0.36681 1.31781,0.36681zM308.01259,40.43355v-8.51823h1.67104v1.75255l-0.29889,0.1902c0.10869,-0.37134 0.32153,-0.71551 0.63853,-1.03251c0.317,-0.32606 0.68834,-0.58871 1.11403,-0.78797c0.43474,-0.19926 0.87854,-0.29889 1.3314,-0.29889c0.65211,0 1.19101,0.1268 1.6167,0.3804c0.43474,0.2536 0.7608,0.64306 0.97817,1.16837c0.21737,0.51626 0.32606,1.16837 0.32606,1.95634v5.18973h-1.67104v-5.08105c0,-0.48003 -0.0634,-0.87854 -0.1902,-1.19554c-0.1268,-0.32606 -0.32606,-0.56154 -0.59777,-0.70646c-0.27171,-0.14491 -0.60683,-0.20832 -1.00534,-0.1902c-0.32606,0 -0.62494,0.05434 -0.89666,0.16303c-0.27171,0.09963 -0.5072,0.24454 -0.70646,0.43474c-0.19926,0.18114 -0.35776,0.39399 -0.4755,0.63853c-0.10869,0.23549 -0.16303,0.49361 -0.16303,0.77438v5.16256h-0.82873c-0.13586,0 -0.27624,0 -0.42116,0c-0.14491,0 -0.2853,0 -0.42116,0zM319.0096,44.16962l1.72538,-3.98061l0.01359,1.3314l-4.25232,-9.60508h1.94275l2.6628,6.263c0.05434,0.10869 0.11774,0.27624 0.1902,0.50267c0.08151,0.21737 0.14944,0.43474 0.20379,0.65211l-0.42116,0.0951c0.08151,-0.22643 0.16303,-0.45286 0.24454,-0.67928c0.08151,-0.22643 0.1585,-0.45286 0.23096,-0.67928l2.22805,-6.15432h1.98351l-3.50511,8.51823l-1.44008,3.73606zM329.09989,40.43355l-2.90734,-8.51823l1.68463,-0.01359l2.07861,6.37169l-0.36681,-0.02717l2.25522,-4.98595h1.00534l2.26881,4.99953l-0.43474,0.02717l2.0922,-6.37169h1.68463l-2.86658,8.51823h-1.15478l-2.3775,-5.42069l0.3804,0.05434l-2.20088,5.36635zM339.98473,40.43355v-12.00975h1.67104v5.24408l-0.29889,0.1902c0.10869,-0.37134 0.32153,-0.71551 0.63853,-1.03251c0.317,-0.32606 0.68834,-0.58871 1.11403,-0.78797c0.43474,-0.19926 0.87854,-0.29889 1.3314,-0.29889c0.65211,0 1.19101,0.1268 1.6167,0.3804c0.43474,0.2536 0.7608,0.64306 0.97817,1.16837c0.21737,0.51626 0.32606,1.16837 0.32606,1.95634v5.18973h-1.67104v-5.08105c0,-0.48003 -0.0634,-0.87854 -0.1902,-1.19554c-0.1268,-0.32606 -0.32606,-0.56154 -0.59777,-0.70646c-0.27171,-0.14491 -0.60683,-0.20832 -1.00534,-0.1902c-0.32606,0 -0.62494,0.05434 -0.89666,0.16303c-0.27171,0.09963 -0.5072,0.24454 -0.70646,0.43474c-0.19926,0.18114 -0.35776,0.39399 -0.4755,0.63853c-0.10869,0.23549 -0.16303,0.49361 -0.16303,0.77438v5.16256h-0.82873c-0.13586,0 -0.27624,0 -0.42116,0c-0.14491,0 -0.2853,0 -0.42116,0zM353.60343,40.59658c-0.86948,0 -1.64387,-0.18567 -2.32315,-0.55701c-0.67023,-0.37134 -1.20007,-0.88307 -1.58953,-1.53518c-0.3804,-0.65211 -0.5706,-1.39933 -0.5706,-2.24164c0,-0.67023 0.10869,-1.28158 0.32606,-1.83407c0.21737,-0.55248 0.51626,-1.02798 0.89666,-1.4265c0.3804,-0.40757 0.83778,-0.72004 1.37215,-0.93741c0.54343,-0.22643 1.12761,-0.33964 1.75255,-0.33964c0.55248,0 1.06421,0.10416 1.53518,0.31247c0.48003,0.20832 0.89213,0.49814 1.2363,0.86948c0.35323,0.37134 0.62494,0.81061 0.81514,1.31781c0.1902,0.49814 0.28077,1.04157 0.27171,1.63028l-0.01359,0.72004h-6.95587l-0.3804,-1.3314h5.8826l-0.23096,0.27171v-0.3804c-0.03623,-0.36228 -0.1585,-0.68381 -0.36681,-0.96458c-0.19926,-0.28077 -0.45738,-0.50267 -0.77438,-0.6657c-0.317,-0.16303 -0.65664,-0.24454 -1.01893,-0.24454c-0.58871,0 -1.08233,0.11322 -1.48084,0.33964c-0.39852,0.21737 -0.70193,0.54343 -0.91024,0.97817c-0.19926,0.42569 -0.29889,0.951 -0.29889,1.57594c0,0.58871 0.12227,1.10497 0.36681,1.54877c0.24454,0.43474 0.59324,0.77438 1.0461,1.01893c0.46191,0.23549 0.98723,0.35323 1.57594,0.35323c0.42569,0 0.81967,-0.06793 1.18196,-0.20379c0.36228,-0.14491 0.75627,-0.40304 1.18196,-0.77438l0.84231,1.18196c-0.26266,0.26266 -0.57965,0.49361 -0.951,0.69287c-0.37134,0.1902 -0.76533,0.34417 -1.18196,0.46191c-0.41663,0.10869 -0.82873,0.16303 -1.2363,0.16303zM359.14212,40.43355v-8.51823h1.68463v2.67638l-0.16303,-0.65211c0.11774,-0.40757 0.32153,-0.77891 0.61136,-1.11403c0.28983,-0.33511 0.62041,-0.59777 0.99176,-0.78797c0.37134,-0.19926 0.75627,-0.29889 1.15478,-0.29889c0.18114,0 0.35323,0.01812 0.51626,0.05434c0.17208,0.02717 0.30794,0.0634 0.40757,0.10869l-0.43474,1.82048c-0.1268,-0.05434 -0.27171,-0.09963 -0.43474,-0.13586c-0.15397,-0.04529 -0.30794,-0.06793 -0.46191,-0.06793c-0.28983,0 -0.56607,0.05887 -0.82873,0.17661c-0.26266,0.10869 -0.49814,0.26718 -0.70646,0.4755c-0.19926,0.19926 -0.35776,0.43021 -0.4755,0.69287c-0.11774,0.26266 -0.17661,0.55248 -0.17661,0.86948v4.70065zM369.28925,40.59658c-0.86948,0 -1.64387,-0.18567 -2.32315,-0.55701c-0.67023,-0.37134 -1.20007,-0.88307 -1.58953,-1.53518c-0.3804,-0.65211 -0.5706,-1.39933 -0.5706,-2.24164c0,-0.67023 0.10869,-1.28158 0.32606,-1.83407c0.21737,-0.55248 0.51626,-1.02798 0.89666,-1.4265c0.3804,-0.40757 0.83778,-0.72004 1.37215,-0.93741c0.54343,-0.22643 1.12761,-0.33964 1.75255,-0.33964c0.55248,0 1.06421,0.10416 1.53518,0.31247c0.48003,0.20832 0.89213,0.49814 1.2363,0.86948c0.35323,0.37134 0.62494,0.81061 0.81514,1.31781c0.1902,0.49814 0.28077,1.04157 0.27171,1.63028l-0.01359,0.72004h-6.95587l-0.3804,-1.3314h5.8826l-0.23096,0.27171v-0.3804c-0.03623,-0.36228 -0.1585,-0.68381 -0.36681,-0.96458c-0.19926,-0.28077 -0.45738,-0.50267 -0.77438,-0.6657c-0.317,-0.16303 -0.65664,-0.24454 -1.01893,-0.24454c-0.58871,0 -1.08233,0.11322 -1.48084,0.33964c-0.39852,0.21737 -0.70193,0.54343 -0.91024,0.97817c-0.19926,0.42569 -0.29889,0.951 -0.29889,1.57594c0,0.58871 0.12227,1.10497 0.36681,1.54877c0.24454,0.43474 0.59324,0.77438 1.0461,1.01893c0.46191,0.23549 0.98723,0.35323 1.57594,0.35323c0.42569,0 0.81967,-0.06793 1.18196,-0.20379c0.36228,-0.14491 0.75627,-0.40304 1.18196,-0.77438l0.84231,1.18196c-0.26266,0.26266 -0.57965,0.49361 -0.951,0.69287c-0.37134,0.1902 -0.76533,0.34417 -1.18196,0.46191c-0.41663,0.10869 -0.82873,0.16303 -1.2363,0.16303zM380.42957,40.43355v-10.69194h1.67104v10.69194zM378.64984,33.54561v-1.63028h5.42069v1.63028zM389.34889,40.59658c-0.83326,0 -1.58047,-0.1902 -2.24164,-0.5706c-0.65211,-0.38945 -1.16837,-0.91477 -1.54877,-1.57594c-0.37134,-0.67023 -0.55701,-1.43103 -0.55701,-2.2824c0,-0.85137 0.18567,-1.60764 0.55701,-2.26881c0.3804,-0.67023 0.89666,-1.19554 1.54877,-1.57594c0.66117,-0.38945 1.40838,-0.58418 2.24164,-0.58418c0.81514,0 1.54877,0.19473 2.20088,0.58418c0.66117,0.3804 1.18196,0.90571 1.56235,1.57594c0.3804,0.66117 0.5706,1.41744 0.5706,2.26881c0,0.85137 -0.1902,1.61217 -0.5706,2.2824c-0.3804,0.66117 -0.90119,1.18649 -1.56235,1.57594c-0.65211,0.3804 -1.38574,0.5706 -2.20088,0.5706zM389.34889,39.07498c0.5072,0 0.96005,-0.1268 1.35857,-0.3804c0.39852,-0.2536 0.71099,-0.59777 0.93741,-1.03251c0.22643,-0.4438 0.33511,-0.94194 0.32606,-1.49443c0.00906,-0.56154 -0.09963,-1.05968 -0.32606,-1.49443c-0.22643,-0.4438 -0.5389,-0.78797 -0.93741,-1.03251c-0.39852,-0.2536 -0.85137,-0.3804 -1.35857,-0.3804c-0.5072,0 -0.96458,0.1268 -1.37215,0.3804c-0.40757,0.2536 -0.72457,0.6023 -0.951,1.0461c-0.22643,0.43474 -0.33511,0.92836 -0.32606,1.48084c-0.00906,0.55248 0.09963,1.05063 0.32606,1.49443c0.22643,0.43474 0.54343,0.77891 0.951,1.03251c0.40757,0.2536 0.86495,0.3804 1.37215,0.3804zM403.64961,40.59658c-0.78797,0 -1.49443,-0.19473 -2.11937,-0.58418c-0.61589,-0.38945 -1.10497,-0.9193 -1.46725,-1.58953c-0.36228,-0.67023 -0.54343,-1.42197 -0.54343,-2.25522c0,-0.83326 0.18114,-1.585 0.54343,-2.25522c0.36228,-0.67023 0.85137,-1.20007 1.46725,-1.58953c0.62494,-0.38945 1.3314,-0.58418 2.11937,-0.58418c0.7608,0 1.44914,0.15397 2.06502,0.46191c0.62494,0.30794 1.10044,0.7291 1.4265,1.26347l-0.92383,1.12761c-0.17208,-0.24454 -0.39399,-0.47097 -0.6657,-0.67928c-0.27171,-0.20832 -0.56154,-0.37134 -0.86948,-0.48908c-0.29889,-0.11774 -0.58871,-0.17661 -0.86948,-0.17661c-0.51626,0 -0.97817,0.1268 -1.38574,0.3804c-0.40757,0.2536 -0.7291,0.6023 -0.96458,1.0461c-0.23549,0.4438 -0.35323,0.94194 -0.35323,1.49443c0,0.55248 0.12227,1.05063 0.36681,1.49443c0.2536,0.43474 0.58418,0.78344 0.99176,1.0461c0.40757,0.2536 0.86043,0.3804 1.35857,0.3804c0.29889,0 0.58418,-0.04981 0.8559,-0.14944c0.27171,-0.09963 0.5389,-0.24454 0.80156,-0.43474c0.26266,-0.19926 0.5072,-0.43927 0.73363,-0.72004l0.92383,1.1412c-0.34417,0.48908 -0.83778,0.89213 -1.48084,1.20913c-0.64306,0.30794 -1.31328,0.46191 -2.01068,0.46191zM411.98836,40.59658c-0.6974,0 -1.33593,-0.19473 -1.91558,-0.58418c-0.57965,-0.38945 -1.0461,-0.9193 -1.39933,-1.58953c-0.34417,-0.67023 -0.51626,-1.4265 -0.51626,-2.26881c0,-0.86043 0.17661,-1.62123 0.52984,-2.2824c0.35323,-0.66117 0.82873,-1.18196 1.4265,-1.56235c0.60683,-0.3804 1.28158,-0.5706 2.02427,-0.5706c0.4438,0 0.84684,0.06793 1.20913,0.20379c0.37134,0.1268 0.69287,0.30794 0.96458,0.54343c0.28077,0.22643 0.5072,0.49361 0.67928,0.80156c0.18114,0.29889 0.29436,0.62041 0.33964,0.96458l-0.36681,-0.12227v-2.21447h1.68463v8.51823h-1.68463v-2.02427l0.3804,-0.12227c-0.0634,0.29889 -0.19473,0.58871 -0.39399,0.86948c-0.19926,0.27171 -0.45286,0.51626 -0.7608,0.73363c-0.30794,0.20832 -0.64758,0.3804 -1.01893,0.51626c-0.37134,0.1268 -0.76533,0.1902 -1.18196,0.1902zM412.4231,39.0614c0.51626,0 0.96458,-0.12227 1.34498,-0.36681c0.38945,-0.2536 0.69287,-0.59777 0.91024,-1.03251c0.22643,-0.4438 0.33964,-0.94647 0.33964,-1.50801c0,-0.55248 -0.11322,-1.0461 -0.33964,-1.48084c-0.21737,-0.43474 -0.52079,-0.77438 -0.91024,-1.01893c-0.3804,-0.2536 -0.82873,-0.3804 -1.34498,-0.3804c-0.49814,0 -0.93741,0.1268 -1.31781,0.3804c-0.3804,0.24454 -0.68381,0.58418 -0.91024,1.01893c-0.21737,0.43474 -0.32606,0.92836 -0.32606,1.48084c0,0.56154 0.10869,1.06421 0.32606,1.50801c0.22643,0.43474 0.52984,0.77891 0.91024,1.03251c0.3804,0.24454 0.81967,0.36681 1.31781,0.36681zM418.98231,40.43355v-8.51823h1.67104v1.75255l-0.29889,0.1902c0.10869,-0.37134 0.32153,-0.71551 0.63853,-1.03251c0.317,-0.32606 0.68834,-0.58871 1.11403,-0.78797c0.43474,-0.19926 0.87854,-0.29889 1.3314,-0.29889c0.65211,0 1.19101,0.1268 1.6167,0.3804c0.43474,0.2536 0.7608,0.64306 0.97817,1.16837c0.21737,0.51626 0.32606,1.16837 0.32606,1.95634v5.18973h-1.67104v-5.08105c0,-0.48003 -0.0634,-0.87854 -0.1902,-1.19554c-0.1268,-0.32606 -0.32606,-0.56154 -0.59777,-0.70646c-0.27171,-0.14491 -0.60683,-0.20832 -1.00534,-0.1902c-0.32606,0 -0.62494,0.05434 -0.89666,0.16303c-0.27171,0.09963 -0.5072,0.24454 -0.70646,0.43474c-0.19926,0.18114 -0.35776,0.39399 -0.4755,0.63853c-0.10869,0.23549 -0.16303,0.49361 -0.16303,0.77438v5.16256h-0.82873c-0.13586,0 -0.27624,0 -0.42116,0c-0.14491,0 -0.2853,0 -0.42116,0zM432.24778,40.59658c-0.78797,0 -1.49443,-0.19473 -2.11937,-0.58418c-0.61589,-0.38945 -1.10497,-0.9193 -1.46725,-1.58953c-0.36228,-0.67023 -0.54343,-1.42197 -0.54343,-2.25522c0,-0.83326 0.18114,-1.585 0.54343,-2.25522c0.36228,-0.67023 0.85137,-1.20007 1.46725,-1.58953c0.62494,-0.38945 1.3314,-0.58418 2.11937,-0.58418c0.7608,0 1.44914,0.15397 2.06502,0.46191c0.62494,0.30794 1.10044,0.7291 1.4265,1.26347l-0.92383,1.12761c-0.17208,-0.24454 -0.39399,-0.47097 -0.6657,-0.67928c-0.27171,-0.20832 -0.56154,-0.37134 -0.86948,-0.48908c-0.29889,-0.11774 -0.58871,-0.17661 -0.86948,-0.17661c-0.51626,0 -0.97817,0.1268 -1.38574,0.3804c-0.40757,0.2536 -0.7291,0.6023 -0.96458,1.0461c-0.23549,0.4438 -0.35323,0.94194 -0.35323,1.49443c0,0.55248 0.12227,1.05063 0.36681,1.49443c0.2536,0.43474 0.58418,0.78344 0.99176,1.0461c0.40757,0.2536 0.86043,0.3804 1.35857,0.3804c0.29889,0 0.58418,-0.04981 0.8559,-0.14944c0.27171,-0.09963 0.5389,-0.24454 0.80156,-0.43474c0.26266,-0.19926 0.5072,-0.43927 0.73363,-0.72004l0.92383,1.1412c-0.34417,0.48908 -0.83778,0.89213 -1.48084,1.20913c-0.64306,0.30794 -1.31328,0.46191 -2.01068,0.46191zM441.2794,40.59658c-0.86948,0 -1.64387,-0.18567 -2.32315,-0.55701c-0.67023,-0.37134 -1.20007,-0.88307 -1.58953,-1.53518c-0.3804,-0.65211 -0.5706,-1.39933 -0.5706,-2.24164c0,-0.67023 0.10869,-1.28158 0.32606,-1.83407c0.21737,-0.55248 0.51626,-1.02798 0.89666,-1.4265c0.3804,-0.40757 0.83778,-0.72004 1.37215,-0.93741c0.54343,-0.22643 1.12761,-0.33964 1.75255,-0.33964c0.55248,0 1.06421,0.10416 1.53518,0.31247c0.48003,0.20832 0.89213,0.49814 1.2363,0.86948c0.35323,0.37134 0.62494,0.81061 0.81514,1.31781c0.1902,0.49814 0.28077,1.04157 0.27171,1.63028l-0.01359,0.72004h-6.95587l-0.3804,-1.3314h5.8826l-0.23096,0.27171v-0.3804c-0.03623,-0.36228 -0.1585,-0.68381 -0.36681,-0.96458c-0.19926,-0.28077 -0.45738,-0.50267 -0.77438,-0.6657c-0.317,-0.16303 -0.65664,-0.24454 -1.01893,-0.24454c-0.58871,0 -1.08233,0.11322 -1.48084,0.33964c-0.39852,0.21737 -0.70193,0.54343 -0.91024,0.97817c-0.19926,0.42569 -0.29889,0.951 -0.29889,1.57594c0,0.58871 0.12227,1.10497 0.36681,1.54877c0.24454,0.43474 0.59324,0.77438 1.0461,1.01893c0.46191,0.23549 0.98723,0.35323 1.57594,0.35323c0.42569,0 0.81967,-0.06793 1.18196,-0.20379c0.36228,-0.14491 0.75627,-0.40304 1.18196,-0.77438l0.84231,1.18196c-0.26266,0.26266 -0.57965,0.49361 -0.951,0.69287c-0.37134,0.1902 -0.76533,0.34417 -1.18196,0.46191c-0.41663,0.10869 -0.82873,0.16303 -1.2363,0.16303zM446.84526,40.43355v-12.00975h1.67104v12.00975z" fill="#000000" fill-rule="nonzero"/></g></g></svg>