<svg version="1.1" xmlns="http://www.w3.org/2000/svg" xmlns:xlink="http://www.w3.org/1999/xlink" width="596.0961" height="379.00821" viewBox="0,0,596.0961,379.00821"><defs><linearGradient x1="230.99099" y1="308.37838" x2="230.99099" y2="366.93695" gradientUnits="userSpaceOnUse" id="color-1"><stop offset="0" stop-color="#282828" stop-opacity="0"/><stop offset="1" stop-color="#282828"/></linearGradient></defs><g transform="translate(67.05706,12.07126)"><g data-paper-data="{&quot;isPaintingLayer&quot;:true}" stroke="none" stroke-linejoin="miter" stroke-miterlimit="10" stroke-dasharray="" stroke-dashoffset="0" style="mix-blend-mode: normal"><path d="M-18.11446,11.11161c0,-12.80356 9.69038,-23.18287 21.64406,-23.18287h464.57762c5.74037,0 11.24563,2.44247 15.30467,6.7901c4.05907,4.34763 6.3394,10.24427 6.3394,16.39277v328.70077c0,12.80356 -9.69036,23.18287 -21.64407,23.18287h-464.57761c-11.95367,0 -21.64406,-10.37931 -21.64406,-23.18287z" fill="#ebebeb" fill-rule="evenodd" stroke-width="1" stroke-linecap="square"/><path d="M-67.05706,366.93695v-58.55856h596.0961v58.55856z" fill="url(#color-1)" fill-rule="nonzero" stroke-width="0" stroke-linecap="butt"/><path d="M228.14776,20.30122c-0.54204,0 -1.04047,-0.09657 -1.49528,-0.28971c-0.45481,-0.19314 -0.85044,-0.47039 -1.18688,-0.83175c-0.33021,-0.36136 -0.58877,-0.78815 -0.77568,-1.28034c-0.18068,-0.49219 -0.27102,-1.03112 -0.27102,-1.61677c0,-0.5545 0.09969,-1.07162 0.29906,-1.55136c0.19937,-0.47974 0.47351,-0.90028 0.82241,-1.26165c0.3489,-0.36759 0.75387,-0.65107 1.21492,-0.85044c0.46105,-0.2056 0.95947,-0.3084 1.49528,-0.3084c0.38005,0 0.75076,0.05919 1.11212,0.17757c0.36136,0.11214 0.68845,0.27102 0.98128,0.47662c0.29283,0.2056 0.53269,0.43924 0.71961,0.70092l-0.80372,0.83176c-0.21806,-0.21806 -0.43613,-0.39874 -0.65419,-0.54204c-0.21806,-0.1433 -0.44235,-0.25233 -0.67288,-0.32709c-0.2243,-0.07476 -0.4517,-0.11215 -0.68222,-0.11215c-0.36759,0 -0.71026,0.06853 -1.02801,0.2056c-0.31152,0.13707 -0.58565,0.33021 -0.8224,0.57943c-0.23052,0.24299 -0.41432,0.5358 -0.55139,0.87847c-0.13083,0.33644 -0.19626,0.70404 -0.19626,1.10278c0,0.42366 0.0623,0.80994 0.18691,1.15884c0.13083,0.34267 0.31463,0.63861 0.55138,0.88782c0.24299,0.24299 0.52958,0.4299 0.85979,0.56073c0.33021,0.13084 0.6978,0.19626 1.10277,0.19626c0.24299,0 0.48285,-0.03427 0.71961,-0.1028c0.23675,-0.06853 0.45793,-0.1651 0.66353,-0.28971c0.21183,-0.12461 0.40497,-0.27414 0.57942,-0.44859l0.59811,0.98128c-0.16822,0.2056 -0.40186,0.3894 -0.70091,0.55139c-0.29283,0.16199 -0.61992,0.28971 -0.98128,0.38317c-0.35513,0.09345 -0.71649,0.14018 -1.08408,0.14018zM232.28527,20.18907v-8.26144h1.1495v8.26144zM237.59117,20.30122c-0.57319,0 -1.0872,-0.13083 -1.54202,-0.39251c-0.44859,-0.2679 -0.80371,-0.62927 -1.06539,-1.08408c-0.25545,-0.46104 -0.38317,-0.9844 -0.38317,-1.57005c0,-0.58565 0.12772,-1.10589 0.38317,-1.5607c0.26167,-0.46104 0.6168,-0.82241 1.06539,-1.08408c0.45481,-0.2679 0.96882,-0.40186 1.54202,-0.40186c0.56073,0 1.06539,0.13396 1.51397,0.40186c0.45481,0.26167 0.81306,0.62304 1.07474,1.08408c0.26167,0.45481 0.39251,0.97505 0.39251,1.5607c0,0.58565 -0.13083,1.109 -0.39251,1.57005c-0.26167,0.45481 -0.61992,0.81618 -1.07474,1.08408c-0.44859,0.26167 -0.95324,0.39251 -1.51397,0.39251zM237.59117,19.25452c0.3489,0 0.66042,-0.08723 0.93455,-0.26167c0.27414,-0.17445 0.48909,-0.41121 0.64485,-0.71026c0.15576,-0.30528 0.23052,-0.64796 0.22429,-1.02801c0.00623,-0.38629 -0.06853,-0.72896 -0.22429,-1.02801c-0.15576,-0.30528 -0.37071,-0.54204 -0.64485,-0.71026c-0.27414,-0.17445 -0.58565,-0.26167 -0.93455,-0.26167c-0.3489,0 -0.66354,0.08723 -0.9439,0.26167c-0.28036,0.17445 -0.49842,0.41432 -0.65418,0.71961c-0.15576,0.29905 -0.23053,0.63862 -0.2243,1.01866c-0.00623,0.38005 0.06854,0.72272 0.2243,1.02801c0.15576,0.29906 0.37382,0.53581 0.65418,0.71026c0.28036,0.17445 0.595,0.26167 0.9439,0.26167zM244.30416,20.30122c-0.54204,0 -1.02801,-0.13395 -1.45791,-0.40185c-0.42366,-0.2679 -0.7601,-0.63238 -1.00931,-1.09343c-0.24921,-0.46104 -0.37382,-0.97816 -0.37382,-1.55135c0,-0.57319 0.12461,-1.09032 0.37382,-1.55136c0.24921,-0.46104 0.58565,-0.82552 1.00931,-1.09342c0.42989,-0.2679 0.91587,-0.40186 1.45791,-0.40186c0.52335,0 0.99686,0.10592 1.42052,0.31775c0.42989,0.21183 0.75698,0.50154 0.98128,0.86914l-0.6355,0.77568c-0.11837,-0.16822 -0.27102,-0.32398 -0.45793,-0.46728c-0.18691,-0.1433 -0.38629,-0.25544 -0.59812,-0.33643c-0.2056,-0.081 -0.40498,-0.1215 -0.59812,-0.1215c-0.35513,0 -0.67288,0.08723 -0.95325,0.26167c-0.28036,0.17445 -0.50154,0.41432 -0.66353,0.71961c-0.16199,0.30528 -0.24299,0.64796 -0.24299,1.02801c0,0.38005 0.08411,0.72272 0.25233,1.02801c0.17445,0.29906 0.40186,0.53893 0.68222,0.71961c0.28036,0.17445 0.59188,0.26167 0.93455,0.26167c0.2056,0 0.40186,-0.03427 0.58877,-0.10281c0.18691,-0.06853 0.37071,-0.16822 0.55139,-0.29905c0.18068,-0.13706 0.3489,-0.30217 0.50466,-0.49531l0.6355,0.78502c-0.23675,0.33644 -0.57631,0.61369 -1.01866,0.83176c-0.44235,0.21183 -0.9034,0.31774 -1.38314,0.31774zM248.83478,18.35735l-0.05607,-1.2523l2.80366,-2.77562h1.55136zM247.78808,20.18907v-8.26144h1.1495v8.26144zM251.74124,20.18907l-2.21489,-2.57936l0.81306,-0.74764l2.86908,3.32701z" fill="#000000" fill-rule="nonzero" stroke-width="1" stroke-linecap="square"/></g></g></svg>