<svg version="1.1" xmlns="http://www.w3.org/2000/svg" xmlns:xlink="http://www.w3.org/1999/xlink" width="232.23527" height="160.12502" viewBox="0,0,232.23527,160.12502"><g transform="translate(-123.88237,-99.93749)"><g data-paper-data="{&quot;isPaintingLayer&quot;:true}" stroke="none" stroke-linejoin="miter" stroke-miterlimit="10" stroke-dasharray="" stroke-dashoffset="0" style="mix-blend-mode: normal"><path d="M123.88237,109.83482c0,-5.46615 4.43119,-9.89733 9.89733,-9.89733h212.44061c2.62494,0 5.14237,1.04275 6.99847,2.89886c1.85612,1.85611 2.89886,4.37353 2.89886,6.99847v140.33036c0,5.46615 -4.43118,9.89733 -9.89733,9.89733h-212.44061c-5.46614,0 -9.89733,-4.43118 -9.89733,-9.89733z" fill="#171717" fill-rule="evenodd" stroke-width="1" stroke-linecap="square"/><path d="M329.5029,111.23421c0,2.34801 -1.91444,4.25144 -4.27602,4.25144c-2.36158,0 -4.27601,-1.90344 -4.27601,-4.25144c0,-2.34801 1.91443,-4.25144 4.27601,-4.25144c2.36158,0 4.27602,1.90344 4.27602,4.25144z" fill-opacity="0.25378" fill="#3a3a3a" fill-rule="nonzero" stroke-width="0" stroke-linecap="butt"/><path d="M344.0029,111.23421c0,2.34801 -1.91444,4.25144 -4.27602,4.25144c-2.36158,0 -4.27601,-1.90344 -4.27601,-4.25144c0,-2.34801 1.91443,-4.25144 4.27601,-4.25144c2.36158,0 4.27602,1.90344 4.27602,4.25144z" fill-opacity="0.25378" fill="#3a3a3a" fill-rule="nonzero" stroke-width="0" stroke-linecap="butt"/><path d="M134.26117,141.88149h122.62201v22.63426h-122.62201z" fill-opacity="0" fill="#000000" fill-rule="evenodd" stroke-width="1" stroke-linecap="square"/><text transform="translate(229.13224,113.84756) scale(0.17628,0.17628)" font-size="40" xml:space="preserve" fill="#ffffff" fill-rule="nonzero" stroke="none" stroke-width="1" stroke-linecap="butt" stroke-linejoin="miter" stroke-miterlimit="10" stroke-dasharray="" stroke-dashoffset="0" font-family="Sans Serif" font-weight="normal" text-anchor="start" style="mix-blend-mode: normal"><tspan x="0" dy="0">Files</tspan></text><path d="M155.41828,237.46509h158.8149v17.58209h-158.8149z" fill-opacity="0.58707" fill="#454545" fill-rule="evenodd" stroke-width="1" stroke-linecap="square"/><path d="M155.41828,255.04718h-9.09699c-5.02413,0 -9.097,-3.93589 -9.097,-8.79104c0,-4.85516 4.07286,-8.79105 9.097,-8.79105v0h9.09699z" fill-opacity="0.58707" fill="#454545" fill-rule="evenodd" stroke-width="1" stroke-linecap="square"/><path d="M314.23318,237.46509h9.09699v0c5.02414,0 9.09699,3.93589 9.09699,8.79105c0,4.85515 -4.07286,8.79104 -9.09699,8.79104h-9.09699z" fill-opacity="0.58707" fill="#454545" fill-rule="evenodd" stroke-width="1" stroke-linecap="square"/><text transform="translate(138.2593,229.14166) scale(0.25288,0.25288)" font-size="40" xml:space="preserve" fill="#ffffff" fill-rule="nonzero" stroke="none" stroke-width="1" stroke-linecap="butt" stroke-linejoin="miter" stroke-miterlimit="10" stroke-dasharray="" stroke-dashoffset="0" font-family="Sans Serif" font-weight="normal" text-anchor="start" style="mix-blend-mode: normal"><tspan x="0" dy="0">File Name:</tspan></text><path d="M343.49228,142.401c3.86052,0 6.99009,3.57149 6.99009,7.97714v51.97423c0,2.11567 -0.73645,4.14471 -2.04735,5.64071c-1.3109,1.496 -3.08886,2.33645 -4.94274,2.33645h-27.95954c-3.86052,0 -6.99009,-3.57149 -6.99009,-7.97716v-51.97423c0,-4.40565 3.12957,-7.97714 6.99009,-7.97714z" fill-opacity="0.4002" fill="#717171" fill-rule="evenodd" stroke-width="1" stroke-linecap="square"/><text transform="translate(139.45978,133.37163) scale(0.1758,0.1758)" font-size="40" xml:space="preserve" fill="#ffffff" fill-rule="nonzero" stroke="none" stroke-width="1" stroke-linecap="butt" stroke-linejoin="miter" stroke-miterlimit="10" stroke-dasharray="" stroke-dashoffset="0" font-family="Sans Serif" font-weight="normal" text-anchor="start" style="mix-blend-mode: normal"><tspan x="0" dy="0">PolyOS Drive (MainFS) //Main/</tspan></text></g></g></svg>