<svg version="1.1" xmlns="http://www.w3.org/2000/svg" xmlns:xlink="http://www.w3.org/1999/xlink" width="720" height="540" viewBox="0,0,720,540"><defs><clipPath id="clip-1"><rect x="-240" y="-180" transform="scale(0.5,0.5)" width="1440" height="1080" fill="none" fill-rule="nonzero" stroke-width="0.5" stroke-linecap="butt"/></clipPath></defs><g transform="translate(120,90)"><g clip-path="url(#clip-1)" data-paper-data="{&quot;isPaintingLayer&quot;:true}" stroke="none" stroke-linejoin="miter" stroke-miterlimit="10" stroke-dasharray="" stroke-dashoffset="0" style="mix-blend-mode: normal"><path d="M-23.78378,46.72673h960v720h-960z" fill-opacity="0" fill="#000000" fill-rule="evenodd" stroke-width="1" stroke-linecap="square"/><path d="M37.16897,77.20179h317.13385v42.01575h-317.13385z" fill-opacity="0" fill="#000000" fill-rule="evenodd" stroke-width="1" stroke-linecap="square"/><path d="M47.9971,104.12179v-13.0625h8.23438v1.9375h-6.21875v9.1875h6.21875v1.9375zM48.91897,98.38742v-1.9375h6.28125v1.9375zM58.96766,104.12179v-9.79688h1.92188v2.01563l-0.34375,0.21875c0.125,-0.42708 0.36979,-0.82292 0.73438,-1.1875c0.36458,-0.375 0.79167,-0.67708 1.28125,-0.90625c0.5,-0.22917 1.01042,-0.34375 1.53125,-0.34375c0.75,0 1.36979,0.14583 1.85938,0.4375c0.5,0.29167 0.875,0.73958 1.125,1.34375c0.25,0.59375 0.375,1.34375 0.375,2.25v5.96875h-1.92187v-5.84375c0,-0.55208 -0.07292,-1.01042 -0.21875,-1.375c-0.14583,-0.375 -0.375,-0.64583 -0.6875,-0.8125c-0.3125,-0.16667 -0.69792,-0.23958 -1.15625,-0.21875c-0.375,0 -0.71875,0.0625 -1.03125,0.1875c-0.3125,0.11458 -0.58333,0.28125 -0.8125,0.5c-0.22917,0.20833 -0.41146,0.45313 -0.54687,0.73438c-0.125,0.27083 -0.1875,0.56771 -0.1875,0.89063v5.9375h-0.95312c-0.15625,0 -0.31771,0 -0.48437,0c-0.16667,0 -0.32812,0 -0.48437,0zM71.28688,104.12179v-12.29688h1.92188v12.29688zM69.24,96.19992v-1.875h6.23438v1.875zM81.70129,104.30929c-1,0 -1.89062,-0.21354 -2.67187,-0.64062c-0.77083,-0.42708 -1.38021,-1.01562 -1.82812,-1.76562c-0.4375,-0.75 -0.65625,-1.60937 -0.65625,-2.57812c0,-0.77083 0.125,-1.47396 0.375,-2.10938c0.25,-0.63542 0.59375,-1.18229 1.03125,-1.64062c0.4375,-0.46875 0.96354,-0.82812 1.57813,-1.07812c0.625,-0.26042 1.29688,-0.39062 2.01563,-0.39062c0.63542,0 1.22396,0.11979 1.76563,0.35938c0.55208,0.23958 1.02604,0.57292 1.42188,1c0.40625,0.42708 0.71875,0.93229 0.9375,1.51563c0.21875,0.57292 0.32292,1.19792 0.3125,1.875l-0.01562,0.82813h-8l-0.4375,-1.53125h6.76563l-0.26562,0.3125v-0.4375c-0.04167,-0.41667 -0.18229,-0.78646 -0.42187,-1.10937c-0.22917,-0.32292 -0.52604,-0.57812 -0.89062,-0.76562c-0.36458,-0.1875 -0.75521,-0.28125 -1.17187,-0.28125c-0.67708,0 -1.24479,0.13021 -1.70312,0.39063c-0.45833,0.25 -0.80729,0.625 -1.04687,1.125c-0.22917,0.48958 -0.34375,1.09375 -0.34375,1.8125c0,0.67708 0.14063,1.27083 0.42188,1.78125c0.28125,0.5 0.68229,0.89063 1.20313,1.17188c0.53125,0.27083 1.13542,0.40625 1.8125,0.40625c0.48958,0 0.94271,-0.07812 1.35938,-0.23437c0.41667,-0.16667 0.86979,-0.46354 1.35938,-0.89062l0.96875,1.35938c-0.30208,0.30208 -0.66667,0.56771 -1.09375,0.79688c-0.42708,0.21875 -0.88021,0.39583 -1.35937,0.53125c-0.47917,0.125 -0.95312,0.1875 -1.42187,0.1875zM88.07136,104.12179v-9.79688h1.9375v3.07813l-0.1875,-0.75c0.13542,-0.46875 0.36979,-0.89583 0.70313,-1.28125c0.33333,-0.38542 0.71354,-0.6875 1.14063,-0.90625c0.42708,-0.22917 0.86979,-0.34375 1.32813,-0.34375c0.20833,0 0.40625,0.02083 0.59375,0.0625c0.19792,0.03125 0.35417,0.07292 0.46875,0.125l-0.5,2.09375c-0.14583,-0.0625 -0.3125,-0.11458 -0.5,-0.15625c-0.17708,-0.05208 -0.35417,-0.07812 -0.53125,-0.07812c-0.33333,0 -0.65104,0.06771 -0.95312,0.20313c-0.30208,0.125 -0.57292,0.30729 -0.8125,0.54688c-0.22917,0.22917 -0.41146,0.49479 -0.54687,0.79688c-0.13542,0.30208 -0.20312,0.63542 -0.20312,1v5.40625zM102.4542,108.41867l1.98438,-4.57812l0.01563,1.53125l-4.89062,-11.04688h2.23438l3.0625,7.20313c0.0625,0.125 0.13542,0.31771 0.21875,0.57813c0.09375,0.25 0.17188,0.5 0.23438,0.75l-0.48437,0.10938c0.09375,-0.26042 0.1875,-0.52083 0.28125,-0.78125c0.09375,-0.26042 0.18229,-0.52083 0.26563,-0.78125l2.5625,-7.07813h2.28125l-4.03125,9.79688l-1.65625,4.29688zM115.87245,104.30929c-0.95833,0 -1.81771,-0.21875 -2.57812,-0.65625c-0.75,-0.44792 -1.34375,-1.05208 -1.78125,-1.8125c-0.42708,-0.77083 -0.64062,-1.64583 -0.64062,-2.625c0,-0.97917 0.21354,-1.84896 0.64063,-2.60938c0.4375,-0.77083 1.03125,-1.375 1.78125,-1.8125c0.76042,-0.44792 1.61979,-0.67187 2.57813,-0.67187c0.9375,0 1.78125,0.22396 2.53125,0.67188c0.76042,0.4375 1.35938,1.04167 1.79688,1.8125c0.4375,0.76042 0.65625,1.63021 0.65625,2.60938c0,0.97917 -0.21875,1.85417 -0.65625,2.625c-0.4375,0.76042 -1.03646,1.36458 -1.79687,1.8125c-0.75,0.4375 -1.59375,0.65625 -2.53125,0.65625zM115.87245,102.55929c0.58333,0 1.10417,-0.14583 1.5625,-0.4375c0.45833,-0.29167 0.81771,-0.6875 1.07813,-1.1875c0.26042,-0.51042 0.38542,-1.08333 0.375,-1.71875c0.01042,-0.64583 -0.11458,-1.21875 -0.375,-1.71875c-0.26042,-0.51042 -0.61979,-0.90625 -1.07812,-1.1875c-0.45833,-0.29167 -0.97917,-0.4375 -1.5625,-0.4375c-0.58333,0 -1.10937,0.14583 -1.57812,0.4375c-0.46875,0.29167 -0.83333,0.69271 -1.09375,1.20313c-0.26042,0.5 -0.38542,1.06771 -0.375,1.70313c-0.01042,0.63542 0.11458,1.20833 0.375,1.71875c0.26042,0.5 0.625,0.89583 1.09375,1.1875c0.46875,0.29167 0.99479,0.4375 1.57813,0.4375zM126.3773,104.30929c-0.69792,0 -1.30729,-0.16146 -1.82812,-0.48437c-0.51042,-0.32292 -0.90625,-0.77604 -1.1875,-1.35937c-0.28125,-0.58333 -0.42187,-1.28125 -0.42187,-2.09375v-6.04688h1.92188v5.53125c0,0.5625 0.08854,1.05208 0.26563,1.46875c0.1875,0.41667 0.44792,0.73958 0.78125,0.96875c0.34375,0.21875 0.76042,0.32813 1.25,0.32813c0.35417,0 0.68229,-0.05729 0.98438,-0.17187c0.30208,-0.11458 0.5625,-0.27604 0.78125,-0.48437c0.21875,-0.21875 0.38542,-0.47396 0.5,-0.76562c0.125,-0.30208 0.1875,-0.63021 0.1875,-0.98437v-5.89063h1.92187v9.79688h-1.92187v-2.04687l0.34375,-0.23437c-0.14583,0.46875 -0.39583,0.89063 -0.75,1.26563c-0.35417,0.36458 -0.77604,0.65625 -1.26562,0.875c-0.48958,0.21875 -1.01042,0.32813 -1.5625,0.32813zM134.22683,104.12179v-9.79688h1.9375v3.07813l-0.1875,-0.75c0.13542,-0.46875 0.36979,-0.89583 0.70313,-1.28125c0.33333,-0.38542 0.71354,-0.6875 1.14063,-0.90625c0.42708,-0.22917 0.86979,-0.34375 1.32813,-0.34375c0.20833,0 0.40625,0.02083 0.59375,0.0625c0.19792,0.03125 0.35417,0.07292 0.46875,0.125l-0.5,2.09375c-0.14583,-0.0625 -0.3125,-0.11458 -0.5,-0.15625c-0.17708,-0.05208 -0.35417,-0.07812 -0.53125,-0.07812c-0.33333,0 -0.65104,0.06771 -0.95312,0.20313c-0.30208,0.125 -0.57292,0.30729 -0.8125,0.54688c-0.22917,0.22917 -0.41146,0.49479 -0.54687,0.79688c-0.13542,0.30208 -0.20312,0.63542 -0.20312,1v5.40625zM146.96905,104.12179v-9.79688h1.92188v2.01563l-0.34375,0.21875c0.125,-0.42708 0.36979,-0.82292 0.73438,-1.1875c0.36458,-0.375 0.79167,-0.67708 1.28125,-0.90625c0.5,-0.22917 1.01042,-0.34375 1.53125,-0.34375c0.75,0 1.36979,0.14583 1.85938,0.4375c0.5,0.29167 0.875,0.73958 1.125,1.34375c0.25,0.59375 0.375,1.34375 0.375,2.25v5.96875h-1.92187v-5.84375c0,-0.55208 -0.07292,-1.01042 -0.21875,-1.375c-0.14583,-0.375 -0.375,-0.64583 -0.6875,-0.8125c-0.3125,-0.16667 -0.69792,-0.23958 -1.15625,-0.21875c-0.375,0 -0.71875,0.0625 -1.03125,0.1875c-0.3125,0.11458 -0.58333,0.28125 -0.8125,0.5c-0.22917,0.20833 -0.41146,0.45313 -0.54687,0.73438c-0.125,0.27083 -0.1875,0.56771 -0.1875,0.89063v5.9375h-0.95312c-0.15625,0 -0.31771,0 -0.48437,0c-0.16667,0 -0.32812,0 -0.48437,0zM162.63201,104.30929c-1,0 -1.89062,-0.21354 -2.67187,-0.64062c-0.77083,-0.42708 -1.38021,-1.01562 -1.82812,-1.76562c-0.4375,-0.75 -0.65625,-1.60937 -0.65625,-2.57812c0,-0.77083 0.125,-1.47396 0.375,-2.10938c0.25,-0.63542 0.59375,-1.18229 1.03125,-1.64062c0.4375,-0.46875 0.96354,-0.82812 1.57813,-1.07812c0.625,-0.26042 1.29688,-0.39062 2.01563,-0.39062c0.63542,0 1.22396,0.11979 1.76563,0.35938c0.55208,0.23958 1.02604,0.57292 1.42188,1c0.40625,0.42708 0.71875,0.93229 0.9375,1.51563c0.21875,0.57292 0.32292,1.19792 0.3125,1.875l-0.01562,0.82813h-8l-0.4375,-1.53125h6.76563l-0.26562,0.3125v-0.4375c-0.04167,-0.41667 -0.18229,-0.78646 -0.42187,-1.10937c-0.22917,-0.32292 -0.52604,-0.57812 -0.89062,-0.76562c-0.36458,-0.1875 -0.75521,-0.28125 -1.17187,-0.28125c-0.67708,0 -1.24479,0.13021 -1.70312,0.39063c-0.45833,0.25 -0.80729,0.625 -1.04687,1.125c-0.22917,0.48958 -0.34375,1.09375 -0.34375,1.8125c0,0.67708 0.14063,1.27083 0.42188,1.78125c0.28125,0.5 0.68229,0.89063 1.20313,1.17188c0.53125,0.27083 1.13542,0.40625 1.8125,0.40625c0.48958,0 0.94271,-0.07812 1.35938,-0.23437c0.41667,-0.16667 0.86979,-0.46354 1.35938,-0.89062l0.96875,1.35938c-0.30208,0.30208 -0.66667,0.56771 -1.09375,0.79688c-0.42708,0.21875 -0.88021,0.39583 -1.35937,0.53125c-0.47917,0.125 -0.95312,0.1875 -1.42187,0.1875zM171.22167,104.12179l-3.34375,-9.79688l1.9375,-0.01562l2.39063,7.32813l-0.42187,-0.03125l2.59375,-5.73438h1.15625l2.60938,5.75l-0.5,0.03125l2.40625,-7.32813h1.9375l-3.29687,9.79688h-1.32812l-2.73437,-6.23438l0.4375,0.0625l-2.53125,6.17188zM188.96418,108.23117v-13.90625h1.9375v2.23438l-0.29687,-0.15625c0.07292,-0.375 0.28125,-0.73437 0.625,-1.07812c0.35417,-0.34375 0.78125,-0.625 1.28125,-0.84375c0.51042,-0.21875 1.03125,-0.32812 1.5625,-0.32812c0.88542,0 1.66667,0.21875 2.34375,0.65625c0.6875,0.4375 1.22917,1.03646 1.625,1.79688c0.40625,0.76042 0.60938,1.63021 0.60938,2.60938c0,0.96875 -0.19792,1.83854 -0.59375,2.60938c-0.39583,0.76042 -0.9375,1.36458 -1.625,1.8125c-0.67708,0.4375 -1.44271,0.65625 -2.29687,0.65625c-0.57292,0 -1.13021,-0.11458 -1.67187,-0.34375c-0.53125,-0.22917 -0.98437,-0.52604 -1.35937,-0.89062c-0.375,-0.36458 -0.60417,-0.73958 -0.6875,-1.125l0.48438,-0.25v6.54688zM193.80793,102.51242c0.57292,0 1.08333,-0.14062 1.53125,-0.42187c0.44792,-0.29167 0.80208,-0.68229 1.0625,-1.17187c0.26042,-0.5 0.39063,-1.06771 0.39063,-1.70312c0,-0.63542 -0.13021,-1.19792 -0.39062,-1.6875c-0.25,-0.48958 -0.59896,-0.875 -1.04687,-1.15625c-0.4375,-0.29167 -0.95312,-0.4375 -1.54687,-0.4375c-0.58333,0 -1.09896,0.14063 -1.54687,0.42188c-0.44792,0.28125 -0.80208,0.67188 -1.0625,1.17188c-0.26042,0.48958 -0.39062,1.05208 -0.39062,1.6875c0,0.63542 0.13021,1.20313 0.39063,1.70313c0.26042,0.48958 0.61458,0.88021 1.0625,1.17188c0.44792,0.28125 0.96354,0.42188 1.54688,0.42188zM204.5019,104.30929c-0.80208,0 -1.53646,-0.22396 -2.20312,-0.67187c-0.66667,-0.44792 -1.20312,-1.05729 -1.60937,-1.82812c-0.39583,-0.77083 -0.59375,-1.64062 -0.59375,-2.60937c0,-0.98958 0.20313,-1.86458 0.60938,-2.625c0.40625,-0.76042 0.95313,-1.35937 1.64063,-1.79687c0.69792,-0.4375 1.47396,-0.65625 2.32813,-0.65625c0.51042,0 0.97396,0.07813 1.39063,0.23438c0.42708,0.14583 0.79688,0.35417 1.10938,0.625c0.32292,0.26042 0.58333,0.56771 0.78125,0.92188c0.20833,0.34375 0.33854,0.71354 0.39063,1.10938l-0.42187,-0.14062v-2.54687h1.9375v9.79688h-1.9375v-2.32812l0.4375,-0.14062c-0.07292,0.34375 -0.22396,0.67708 -0.45312,1c-0.22917,0.3125 -0.52083,0.59375 -0.875,0.84375c-0.35417,0.23958 -0.74479,0.4375 -1.17187,0.59375c-0.42708,0.14583 -0.88021,0.21875 -1.35937,0.21875zM205.0019,102.54367c0.59375,0 1.10938,-0.14062 1.54688,-0.42187c0.44792,-0.29167 0.79688,-0.6875 1.04688,-1.1875c0.26042,-0.51042 0.39063,-1.08854 0.39063,-1.73437c0,-0.63542 -0.13021,-1.20313 -0.39062,-1.70313c-0.25,-0.5 -0.59896,-0.89062 -1.04687,-1.17187c-0.4375,-0.29167 -0.95312,-0.4375 -1.54687,-0.4375c-0.57292,0 -1.07812,0.14583 -1.51562,0.4375c-0.4375,0.28125 -0.78646,0.67188 -1.04687,1.17188c-0.25,0.5 -0.375,1.06771 -0.375,1.70313c0,0.64583 0.125,1.22396 0.375,1.73438c0.26042,0.5 0.60938,0.89583 1.04688,1.1875c0.4375,0.28125 0.94271,0.42188 1.51563,0.42188zM215.8113,104.30929c-0.82292,0 -1.5625,-0.14062 -2.21875,-0.42187c-0.65625,-0.29167 -1.20312,-0.71875 -1.64062,-1.28125l1.29688,-1.10937c0.375,0.42708 0.78125,0.73958 1.21875,0.9375c0.44792,0.1875 0.95313,0.28125 1.51563,0.28125c0.21875,0 0.42188,-0.02604 0.60938,-0.07812c0.19792,-0.05208 0.36979,-0.13542 0.51563,-0.25c0.14583,-0.11458 0.25521,-0.25 0.32813,-0.40625c0.07292,-0.15625 0.10938,-0.32812 0.10938,-0.51562c0,-0.32292 -0.11979,-0.58333 -0.35937,-0.78125c-0.125,-0.08333 -0.32292,-0.17708 -0.59375,-0.28125c-0.26042,-0.10417 -0.60417,-0.21354 -1.03125,-0.32812c-0.71875,-0.1875 -1.30729,-0.39583 -1.76562,-0.625c-0.45833,-0.23958 -0.8125,-0.51042 -1.0625,-0.8125c-0.1875,-0.23958 -0.32812,-0.49479 -0.42187,-0.76562c-0.08333,-0.28125 -0.125,-0.59375 -0.125,-0.9375c0,-0.40625 0.08854,-0.78125 0.26563,-1.125c0.1875,-0.34375 0.4375,-0.64062 0.75,-0.89062c0.32292,-0.26042 0.69792,-0.45833 1.125,-0.59375c0.42708,-0.13542 0.88542,-0.20312 1.375,-0.20312c0.45833,0 0.91146,0.0625 1.35938,0.1875c0.45833,0.125 0.88021,0.30729 1.26563,0.54688c0.38542,0.22917 0.70833,0.50521 0.96875,0.82813l-1.09375,1.21875c-0.23958,-0.23958 -0.5,-0.44792 -0.78125,-0.625c-0.28125,-0.17708 -0.56771,-0.3125 -0.85937,-0.40625c-0.28125,-0.10417 -0.53646,-0.15625 -0.76562,-0.15625c-0.26042,0 -0.5,0.02604 -0.71875,0.07813c-0.20833,0.04167 -0.38542,0.11458 -0.53125,0.21875c-0.13542,0.09375 -0.24479,0.21875 -0.32812,0.375c-0.07292,0.14583 -0.10937,0.3125 -0.10937,0.5c0.01042,0.15625 0.05208,0.30729 0.125,0.45313c0.07292,0.14583 0.17188,0.26563 0.29688,0.35938c0.13542,0.10417 0.33854,0.21354 0.60938,0.32813c0.27083,0.10417 0.61979,0.20833 1.04688,0.3125c0.61458,0.15625 1.125,0.33333 1.53125,0.53125c0.40625,0.1875 0.72917,0.40625 0.96875,0.65625c0.25,0.23958 0.42188,0.51563 0.51563,0.82813c0.10417,0.3125 0.15625,0.66146 0.15625,1.04688c0,0.55208 -0.16146,1.05208 -0.48437,1.5c-0.3125,0.4375 -0.73958,0.78125 -1.28125,1.03125c-0.53125,0.25 -1.125,0.375 -1.78125,0.375zM224.74764,104.30929c-0.82292,0 -1.5625,-0.14062 -2.21875,-0.42187c-0.65625,-0.29167 -1.20312,-0.71875 -1.64062,-1.28125l1.29688,-1.10937c0.375,0.42708 0.78125,0.73958 1.21875,0.9375c0.44792,0.1875 0.95313,0.28125 1.51563,0.28125c0.21875,0 0.42188,-0.02604 0.60938,-0.07812c0.19792,-0.05208 0.36979,-0.13542 0.51563,-0.25c0.14583,-0.11458 0.25521,-0.25 0.32813,-0.40625c0.07292,-0.15625 0.10938,-0.32812 0.10938,-0.51562c0,-0.32292 -0.11979,-0.58333 -0.35937,-0.78125c-0.125,-0.08333 -0.32292,-0.17708 -0.59375,-0.28125c-0.26042,-0.10417 -0.60417,-0.21354 -1.03125,-0.32812c-0.71875,-0.1875 -1.30729,-0.39583 -1.76562,-0.625c-0.45833,-0.23958 -0.8125,-0.51042 -1.0625,-0.8125c-0.1875,-0.23958 -0.32812,-0.49479 -0.42187,-0.76562c-0.08333,-0.28125 -0.125,-0.59375 -0.125,-0.9375c0,-0.40625 0.08854,-0.78125 0.26563,-1.125c0.1875,-0.34375 0.4375,-0.64062 0.75,-0.89062c0.32292,-0.26042 0.69792,-0.45833 1.125,-0.59375c0.42708,-0.13542 0.88542,-0.20312 1.375,-0.20312c0.45833,0 0.91146,0.0625 1.35938,0.1875c0.45833,0.125 0.88021,0.30729 1.26563,0.54688c0.38542,0.22917 0.70833,0.50521 0.96875,0.82813l-1.09375,1.21875c-0.23958,-0.23958 -0.5,-0.44792 -0.78125,-0.625c-0.28125,-0.17708 -0.56771,-0.3125 -0.85937,-0.40625c-0.28125,-0.10417 -0.53646,-0.15625 -0.76562,-0.15625c-0.26042,0 -0.5,0.02604 -0.71875,0.07813c-0.20833,0.04167 -0.38542,0.11458 -0.53125,0.21875c-0.13542,0.09375 -0.24479,0.21875 -0.32812,0.375c-0.07292,0.14583 -0.10937,0.3125 -0.10937,0.5c0.01042,0.15625 0.05208,0.30729 0.125,0.45313c0.07292,0.14583 0.17188,0.26563 0.29688,0.35938c0.13542,0.10417 0.33854,0.21354 0.60938,0.32813c0.27083,0.10417 0.61979,0.20833 1.04688,0.3125c0.61458,0.15625 1.125,0.33333 1.53125,0.53125c0.40625,0.1875 0.72917,0.40625 0.96875,0.65625c0.25,0.23958 0.42188,0.51563 0.51563,0.82813c0.10417,0.3125 0.15625,0.66146 0.15625,1.04688c0,0.55208 -0.16146,1.05208 -0.48437,1.5c-0.3125,0.4375 -0.73958,0.78125 -1.28125,1.03125c-0.53125,0.25 -1.125,0.375 -1.78125,0.375zM232.82461,104.12179l-3.34375,-9.79688l1.9375,-0.01562l2.39063,7.32813l-0.42187,-0.03125l2.59375,-5.73438h1.15625l2.60938,5.75l-0.5,0.03125l2.40625,-7.32813h1.9375l-3.29687,9.79688h-1.32812l-2.73437,-6.23438l0.4375,0.0625l-2.53125,6.17188zM249.4696,104.30929c-0.95833,0 -1.81771,-0.21875 -2.57812,-0.65625c-0.75,-0.44792 -1.34375,-1.05208 -1.78125,-1.8125c-0.42708,-0.77083 -0.64062,-1.64583 -0.64062,-2.625c0,-0.97917 0.21354,-1.84896 0.64063,-2.60938c0.4375,-0.77083 1.03125,-1.375 1.78125,-1.8125c0.76042,-0.44792 1.61979,-0.67187 2.57813,-0.67187c0.9375,0 1.78125,0.22396 2.53125,0.67188c0.76042,0.4375 1.35938,1.04167 1.79688,1.8125c0.4375,0.76042 0.65625,1.63021 0.65625,2.60938c0,0.97917 -0.21875,1.85417 -0.65625,2.625c-0.4375,0.76042 -1.03646,1.36458 -1.79687,1.8125c-0.75,0.4375 -1.59375,0.65625 -2.53125,0.65625zM249.4696,102.55929c0.58333,0 1.10417,-0.14583 1.5625,-0.4375c0.45833,-0.29167 0.81771,-0.6875 1.07813,-1.1875c0.26042,-0.51042 0.38542,-1.08333 0.375,-1.71875c0.01042,-0.64583 -0.11458,-1.21875 -0.375,-1.71875c-0.26042,-0.51042 -0.61979,-0.90625 -1.07812,-1.1875c-0.45833,-0.29167 -0.97917,-0.4375 -1.5625,-0.4375c-0.58333,0 -1.10937,0.14583 -1.57812,0.4375c-0.46875,0.29167 -0.83333,0.69271 -1.09375,1.20313c-0.26042,0.5 -0.38542,1.06771 -0.375,1.70313c-0.01042,0.63542 0.11458,1.20833 0.375,1.71875c0.26042,0.5 0.625,0.89583 1.09375,1.1875c0.46875,0.29167 0.99479,0.4375 1.57813,0.4375zM256.53695,104.12179v-9.79688h1.9375v3.07813l-0.1875,-0.75c0.13542,-0.46875 0.36979,-0.89583 0.70313,-1.28125c0.33333,-0.38542 0.71354,-0.6875 1.14063,-0.90625c0.42708,-0.22917 0.86979,-0.34375 1.32813,-0.34375c0.20833,0 0.40625,0.02083 0.59375,0.0625c0.19792,0.03125 0.35417,0.07292 0.46875,0.125l-0.5,2.09375c-0.14583,-0.0625 -0.3125,-0.11458 -0.5,-0.15625c-0.17708,-0.05208 -0.35417,-0.07812 -0.53125,-0.07812c-0.33333,0 -0.65104,0.06771 -0.95312,0.20313c-0.30208,0.125 -0.57292,0.30729 -0.8125,0.54688c-0.22917,0.22917 -0.41146,0.49479 -0.54687,0.79688c-0.13542,0.30208 -0.20312,0.63542 -0.20312,1v5.40625zM267.72289,104.30929c-0.89583,0 -1.69271,-0.21875 -2.39062,-0.65625c-0.69792,-0.44792 -1.25521,-1.05208 -1.67187,-1.8125c-0.40625,-0.77083 -0.60937,-1.64583 -0.60937,-2.625c0,-0.97917 0.19792,-1.84896 0.59375,-2.60938c0.40625,-0.77083 0.95833,-1.375 1.65625,-1.8125c0.69792,-0.44792 1.48958,-0.67187 2.375,-0.67187c0.47917,0 0.94792,0.07813 1.40625,0.23438c0.45833,0.15625 0.86458,0.36979 1.21875,0.64063c0.36458,0.26042 0.64583,0.55208 0.84375,0.875c0.20833,0.3125 0.3125,0.63021 0.3125,0.95313l-0.5625,0.04688v-6.5625h1.92188v13.8125h-1.92187v-2.32812h0.375c0,0.29167 -0.09896,0.58854 -0.29687,0.89063c-0.19792,0.29167 -0.46354,0.5625 -0.79687,0.8125c-0.32292,0.23958 -0.70312,0.4375 -1.14062,0.59375c-0.42708,0.14583 -0.86458,0.21875 -1.3125,0.21875zM267.98852,102.65304c0.58333,0 1.09896,-0.15104 1.54688,-0.45312c0.44792,-0.30208 0.79688,-0.70833 1.04688,-1.21875c0.26042,-0.52083 0.39063,-1.10937 0.39063,-1.76562c0,-0.65625 -0.13021,-1.23958 -0.39062,-1.75c-0.25,-0.52083 -0.59896,-0.93229 -1.04687,-1.23437c-0.44792,-0.30208 -0.96354,-0.45312 -1.54687,-0.45312c-0.58333,0 -1.09896,0.15104 -1.54687,0.45313c-0.44792,0.30208 -0.80208,0.71354 -1.0625,1.23438c-0.25,0.51042 -0.375,1.09375 -0.375,1.75c0,0.65625 0.125,1.24479 0.375,1.76563c0.26042,0.51042 0.61458,0.91667 1.0625,1.21875c0.44792,0.30208 0.96354,0.45313 1.54688,0.45313zM276.25408,104.32492c-0.40625,0 -0.72396,-0.11979 -0.95312,-0.35937c-0.21875,-0.23958 -0.32812,-0.58333 -0.32812,-1.03125c0,-0.41667 0.11458,-0.75521 0.34375,-1.01562c0.23958,-0.26042 0.55208,-0.39062 0.9375,-0.39062c0.41667,0 0.73438,0.125 0.95313,0.375c0.22917,0.23958 0.34375,0.58333 0.34375,1.03125c0,0.40625 -0.11979,0.73958 -0.35937,1c-0.23958,0.26042 -0.55208,0.39063 -0.9375,0.39063z" fill="#ffffff" fill-rule="nonzero" stroke-width="1" stroke-linecap="square"/><path d="M46.49968,119.21754h317.13385v42.01575h-317.13385z" fill-opacity="0" fill="#000000" fill-rule="evenodd" stroke-width="1" stroke-linecap="square"/><path d="M62.62468,146.32504c-0.90625,0 -1.73958,-0.16146 -2.5,-0.48437c-0.76042,-0.32292 -1.42187,-0.78646 -1.98437,-1.39062c-0.55208,-0.60417 -0.98437,-1.31771 -1.29687,-2.14062c-0.30208,-0.82292 -0.45312,-1.72396 -0.45312,-2.70312c0,-0.92708 0.16667,-1.79167 0.5,-2.59375c0.33333,-0.80208 0.79167,-1.50521 1.375,-2.10937c0.58333,-0.61458 1.26042,-1.08854 2.03125,-1.42187c0.77083,-0.34375 1.60417,-0.51562 2.5,-0.51562c0.63542,0 1.25521,0.09896 1.85938,0.29688c0.60417,0.1875 1.15104,0.45313 1.64063,0.79688c0.48958,0.34375 0.89063,0.73438 1.20313,1.17188l-1.34375,1.39063c-0.36458,-0.36458 -0.72917,-0.66667 -1.09375,-0.90625c-0.36458,-0.23958 -0.73958,-0.42187 -1.125,-0.54687c-0.375,-0.125 -0.75521,-0.1875 -1.14062,-0.1875c-0.61458,0 -1.1875,0.11458 -1.71875,0.34375c-0.52083,0.22917 -0.97917,0.55208 -1.375,0.96875c-0.38542,0.40625 -0.69271,0.89583 -0.92187,1.46875c-0.21875,0.5625 -0.32812,1.17708 -0.32812,1.84375c0,0.70833 0.10417,1.35417 0.3125,1.9375c0.21875,0.57292 0.52604,1.06771 0.92188,1.48438c0.40625,0.40625 0.88542,0.71875 1.4375,0.9375c0.55208,0.21875 1.16667,0.32813 1.84375,0.32813c0.40625,0 0.80729,-0.05729 1.20313,-0.17187c0.39583,-0.11458 0.76563,-0.27604 1.10938,-0.48437c0.35417,-0.20833 0.67708,-0.45833 0.96875,-0.75l1,1.64063c-0.28125,0.34375 -0.67187,0.65104 -1.17187,0.92188c-0.48958,0.27083 -1.03646,0.48438 -1.64062,0.64063c-0.59375,0.15625 -1.19792,0.23438 -1.8125,0.23438zM73.91728,146.32504c-0.95833,0 -1.81771,-0.21875 -2.57812,-0.65625c-0.75,-0.44792 -1.34375,-1.05208 -1.78125,-1.8125c-0.42708,-0.77083 -0.64062,-1.64583 -0.64062,-2.625c0,-0.97917 0.21354,-1.84896 0.64063,-2.60937c0.4375,-0.77083 1.03125,-1.375 1.78125,-1.8125c0.76042,-0.44792 1.61979,-0.67187 2.57813,-0.67187c0.9375,0 1.78125,0.22396 2.53125,0.67188c0.76042,0.4375 1.35938,1.04167 1.79688,1.8125c0.4375,0.76042 0.65625,1.63021 0.65625,2.60938c0,0.97917 -0.21875,1.85417 -0.65625,2.625c-0.4375,0.76042 -1.03646,1.36458 -1.79687,1.8125c-0.75,0.4375 -1.59375,0.65625 -2.53125,0.65625zM73.91728,144.57504c0.58333,0 1.10417,-0.14583 1.5625,-0.4375c0.45833,-0.29167 0.81771,-0.6875 1.07813,-1.1875c0.26042,-0.51042 0.38542,-1.08333 0.375,-1.71875c0.01042,-0.64583 -0.11458,-1.21875 -0.375,-1.71875c-0.26042,-0.51042 -0.61979,-0.90625 -1.07812,-1.1875c-0.45833,-0.29167 -0.97917,-0.4375 -1.5625,-0.4375c-0.58333,0 -1.10937,0.14583 -1.57812,0.4375c-0.46875,0.29167 -0.83333,0.69271 -1.09375,1.20313c-0.26042,0.5 -0.38542,1.06771 -0.375,1.70313c-0.01042,0.63542 0.11458,1.20833 0.375,1.71875c0.26042,0.5 0.625,0.89583 1.09375,1.1875c0.46875,0.29167 0.99479,0.4375 1.57813,0.4375zM80.98463,146.13754v-9.79687h1.92188v2.01563l-0.34375,0.21875c0.125,-0.42708 0.36979,-0.82292 0.73438,-1.1875c0.36458,-0.375 0.79167,-0.67708 1.28125,-0.90625c0.5,-0.22917 1.01042,-0.34375 1.53125,-0.34375c0.75,0 1.36979,0.14583 1.85938,0.4375c0.5,0.29167 0.875,0.73958 1.125,1.34375c0.25,0.59375 0.375,1.34375 0.375,2.25v5.96875h-1.92187v-5.84375c0,-0.55208 -0.07292,-1.01042 -0.21875,-1.375c-0.14583,-0.375 -0.375,-0.64583 -0.6875,-0.8125c-0.3125,-0.16667 -0.69792,-0.23958 -1.15625,-0.21875c-0.375,0 -0.71875,0.0625 -1.03125,0.1875c-0.3125,0.11458 -0.58333,0.28125 -0.8125,0.5c-0.22917,0.20833 -0.41146,0.45313 -0.54687,0.73438c-0.125,0.27083 -0.1875,0.56771 -0.1875,0.89063v5.9375h-0.95312c-0.15625,0 -0.31771,0 -0.48437,0c-0.16667,0 -0.32812,0 -0.48437,0zM93.1476,146.13754v-10.89062c0,-0.5625 0.125,-1.0625 0.375,-1.5c0.25,-0.4375 0.58854,-0.77604 1.01563,-1.01562c0.4375,-0.25 0.94271,-0.375 1.51563,-0.375c0.39583,0 0.76563,0.07292 1.10938,0.21875c0.35417,0.14583 0.64063,0.34375 0.85938,0.59375l-0.65625,1.46875c-0.16667,-0.14583 -0.34896,-0.26562 -0.54687,-0.35937c-0.1875,-0.09375 -0.36458,-0.14062 -0.53125,-0.14062c-0.26042,0 -0.48437,0.04167 -0.67187,0.125c-0.17708,0.08333 -0.3125,0.20833 -0.40625,0.375c-0.08333,0.16667 -0.125,0.36979 -0.125,0.60938v10.89063h-0.96875c-0.15625,0 -0.31771,0 -0.48437,0c-0.15625,0 -0.31771,0 -0.48437,0zM91.5851,138.27816v-1.76562h5.8125v1.76563zM99.72572,146.13754v-9.79687h1.92188v9.79688zM100.66322,134.18441c-0.40625,0 -0.72396,-0.10417 -0.95312,-0.3125c-0.21875,-0.21875 -0.32812,-0.52083 -0.32812,-0.90625c0,-0.36458 0.11458,-0.65625 0.34375,-0.875c0.22917,-0.22917 0.54167,-0.34375 0.9375,-0.34375c0.40625,0 0.71875,0.10938 0.9375,0.32813c0.22917,0.20833 0.34375,0.50521 0.34375,0.89063c0,0.36458 -0.11458,0.66146 -0.34375,0.89063c-0.22917,0.21875 -0.54167,0.32813 -0.9375,0.32813zM104.60344,146.13754v-9.79687h1.9375v3.07813l-0.1875,-0.75c0.13542,-0.46875 0.36979,-0.89583 0.70313,-1.28125c0.33333,-0.38542 0.71354,-0.6875 1.14063,-0.90625c0.42708,-0.22917 0.86979,-0.34375 1.32813,-0.34375c0.20833,0 0.40625,0.02083 0.59375,0.0625c0.19792,0.03125 0.35417,0.07292 0.46875,0.125l-0.5,2.09375c-0.14583,-0.0625 -0.3125,-0.11458 -0.5,-0.15625c-0.17708,-0.05208 -0.35417,-0.07812 -0.53125,-0.07812c-0.33333,0 -0.65104,0.06771 -0.95312,0.20313c-0.30208,0.125 -0.57292,0.30729 -0.8125,0.54688c-0.22917,0.22917 -0.41146,0.49479 -0.54687,0.79688c-0.13542,0.30208 -0.20312,0.63542 -0.20312,1v5.40625zM112.09065,146.13754v-9.79687h1.9375v2.09375l-0.35937,0.21875c0.10417,-0.32292 0.26042,-0.63021 0.46875,-0.92187c0.21875,-0.30208 0.48438,-0.56771 0.79688,-0.79687c0.32292,-0.22917 0.66667,-0.41146 1.03125,-0.54687c0.375,-0.14583 0.75521,-0.21875 1.14063,-0.21875c0.55208,0 1.04167,0.09375 1.46875,0.28125c0.42708,0.1875 0.77604,0.46875 1.04688,0.84375c0.27083,0.375 0.46875,0.84375 0.59375,1.40625l-0.29687,-0.07812l0.125,-0.3125c0.14583,-0.29167 0.33854,-0.5625 0.57813,-0.8125c0.23958,-0.26042 0.51563,-0.48958 0.82813,-0.6875c0.3125,-0.19792 0.64063,-0.35417 0.98438,-0.46875c0.35417,-0.11458 0.69792,-0.17187 1.03125,-0.17187c0.72917,0 1.33333,0.15104 1.8125,0.45313c0.47917,0.30208 0.83854,0.76042 1.07813,1.375c0.25,0.60417 0.375,1.35938 0.375,2.26563v5.875h-1.9375v-5.76562c0,-0.5625 -0.07292,-1.02083 -0.21875,-1.375c-0.14583,-0.35417 -0.36458,-0.61458 -0.65625,-0.78125c-0.28125,-0.17708 -0.64583,-0.26562 -1.09375,-0.26562c-0.34375,0 -0.67187,0.0625 -0.98437,0.1875c-0.30208,0.11458 -0.56771,0.27604 -0.79687,0.48438c-0.21875,0.20833 -0.39062,0.45313 -0.51562,0.73438c-0.11458,0.28125 -0.17187,0.58854 -0.17187,0.92188v5.85938h-1.95312v-5.79687c0,-0.51042 -0.07292,-0.94271 -0.21875,-1.29687c-0.14583,-0.35417 -0.36458,-0.625 -0.65625,-0.8125c-0.28125,-0.1875 -0.63021,-0.28125 -1.04687,-0.28125c-0.34375,0 -0.66667,0.0625 -0.96875,0.1875c-0.29167,0.11458 -0.55208,0.27604 -0.78125,0.48438c-0.21875,0.19792 -0.39062,0.4375 -0.51562,0.71875c-0.125,0.28125 -0.1875,0.58333 -0.1875,0.90625v5.89063zM136.16868,150.43441l1.98438,-4.57812l0.01563,1.53125l-4.89062,-11.04687h2.23438l3.0625,7.20313c0.0625,0.125 0.13542,0.31771 0.21875,0.57813c0.09375,0.25 0.17188,0.5 0.23438,0.75l-0.48437,0.10938c0.09375,-0.26042 0.1875,-0.52083 0.28125,-0.78125c0.09375,-0.26042 0.18229,-0.52083 0.26563,-0.78125l2.5625,-7.07812h2.28125l-4.03125,9.79688l-1.65625,4.29688zM149.58693,146.32504c-0.95833,0 -1.81771,-0.21875 -2.57812,-0.65625c-0.75,-0.44792 -1.34375,-1.05208 -1.78125,-1.8125c-0.42708,-0.77083 -0.64062,-1.64583 -0.64062,-2.625c0,-0.97917 0.21354,-1.84896 0.64063,-2.60937c0.4375,-0.77083 1.03125,-1.375 1.78125,-1.8125c0.76042,-0.44792 1.61979,-0.67187 2.57813,-0.67187c0.9375,0 1.78125,0.22396 2.53125,0.67188c0.76042,0.4375 1.35938,1.04167 1.79688,1.8125c0.4375,0.76042 0.65625,1.63021 0.65625,2.60938c0,0.97917 -0.21875,1.85417 -0.65625,2.625c-0.4375,0.76042 -1.03646,1.36458 -1.79687,1.8125c-0.75,0.4375 -1.59375,0.65625 -2.53125,0.65625zM149.58693,144.57504c0.58333,0 1.10417,-0.14583 1.5625,-0.4375c0.45833,-0.29167 0.81771,-0.6875 1.07813,-1.1875c0.26042,-0.51042 0.38542,-1.08333 0.375,-1.71875c0.01042,-0.64583 -0.11458,-1.21875 -0.375,-1.71875c-0.26042,-0.51042 -0.61979,-0.90625 -1.07812,-1.1875c-0.45833,-0.29167 -0.97917,-0.4375 -1.5625,-0.4375c-0.58333,0 -1.10937,0.14583 -1.57812,0.4375c-0.46875,0.29167 -0.83333,0.69271 -1.09375,1.20313c-0.26042,0.5 -0.38542,1.06771 -0.375,1.70313c-0.01042,0.63542 0.11458,1.20833 0.375,1.71875c0.26042,0.5 0.625,0.89583 1.09375,1.1875c0.46875,0.29167 0.99479,0.4375 1.57813,0.4375zM160.09178,146.32504c-0.69792,0 -1.30729,-0.16146 -1.82812,-0.48437c-0.51042,-0.32292 -0.90625,-0.77604 -1.1875,-1.35937c-0.28125,-0.58333 -0.42187,-1.28125 -0.42187,-2.09375v-6.04687h1.92188v5.53125c0,0.5625 0.08854,1.05208 0.26563,1.46875c0.1875,0.41667 0.44792,0.73958 0.78125,0.96875c0.34375,0.21875 0.76042,0.32813 1.25,0.32813c0.35417,0 0.68229,-0.05729 0.98438,-0.17187c0.30208,-0.11458 0.5625,-0.27604 0.78125,-0.48437c0.21875,-0.21875 0.38542,-0.47396 0.5,-0.76562c0.125,-0.30208 0.1875,-0.63021 0.1875,-0.98437v-5.89062h1.92188v9.79688h-1.92187v-2.04687l0.34375,-0.23437c-0.14583,0.46875 -0.39583,0.89063 -0.75,1.26563c-0.35417,0.36458 -0.77604,0.65625 -1.26562,0.875c-0.48958,0.21875 -1.01042,0.32813 -1.5625,0.32813zM167.94131,146.13754v-9.79687h1.9375v3.07813l-0.1875,-0.75c0.13542,-0.46875 0.36979,-0.89583 0.70313,-1.28125c0.33333,-0.38542 0.71354,-0.6875 1.14063,-0.90625c0.42708,-0.22917 0.86979,-0.34375 1.32813,-0.34375c0.20833,0 0.40625,0.02083 0.59375,0.0625c0.19792,0.03125 0.35417,0.07292 0.46875,0.125l-0.5,2.09375c-0.14583,-0.0625 -0.3125,-0.11458 -0.5,-0.15625c-0.17708,-0.05208 -0.35417,-0.07812 -0.53125,-0.07812c-0.33333,0 -0.65104,0.06771 -0.95312,0.20313c-0.30208,0.125 -0.57292,0.30729 -0.8125,0.54688c-0.22917,0.22917 -0.41146,0.49479 -0.54687,0.79688c-0.13542,0.30208 -0.20312,0.63542 -0.20312,1v5.40625zM180.68353,146.13754v-9.79687h1.92188v2.01563l-0.34375,0.21875c0.125,-0.42708 0.36979,-0.82292 0.73438,-1.1875c0.36458,-0.375 0.79167,-0.67708 1.28125,-0.90625c0.5,-0.22917 1.01042,-0.34375 1.53125,-0.34375c0.75,0 1.36979,0.14583 1.85938,0.4375c0.5,0.29167 0.875,0.73958 1.125,1.34375c0.25,0.59375 0.375,1.34375 0.375,2.25v5.96875h-1.92187v-5.84375c0,-0.55208 -0.07292,-1.01042 -0.21875,-1.375c-0.14583,-0.375 -0.375,-0.64583 -0.6875,-0.8125c-0.3125,-0.16667 -0.69792,-0.23958 -1.15625,-0.21875c-0.375,0 -0.71875,0.0625 -1.03125,0.1875c-0.3125,0.11458 -0.58333,0.28125 -0.8125,0.5c-0.22917,0.20833 -0.41146,0.45313 -0.54687,0.73438c-0.125,0.27083 -0.1875,0.56771 -0.1875,0.89063v5.9375h-0.95312c-0.15625,0 -0.31771,0 -0.48437,0c-0.16667,0 -0.32812,0 -0.48437,0zM196.34649,146.32504c-1,0 -1.89062,-0.21354 -2.67187,-0.64062c-0.77083,-0.42708 -1.38021,-1.01562 -1.82812,-1.76562c-0.4375,-0.75 -0.65625,-1.60937 -0.65625,-2.57812c0,-0.77083 0.125,-1.47396 0.375,-2.10937c0.25,-0.63542 0.59375,-1.18229 1.03125,-1.64062c0.4375,-0.46875 0.96354,-0.82812 1.57813,-1.07812c0.625,-0.26042 1.29688,-0.39062 2.01563,-0.39062c0.63542,0 1.22396,0.11979 1.76563,0.35938c0.55208,0.23958 1.02604,0.57292 1.42188,1c0.40625,0.42708 0.71875,0.93229 0.9375,1.51563c0.21875,0.57292 0.32292,1.19792 0.3125,1.875l-0.01562,0.82813h-8l-0.4375,-1.53125h6.76563l-0.26562,0.3125v-0.4375c-0.04167,-0.41667 -0.18229,-0.78646 -0.42187,-1.10937c-0.22917,-0.32292 -0.52604,-0.57812 -0.89062,-0.76562c-0.36458,-0.1875 -0.75521,-0.28125 -1.17187,-0.28125c-0.67708,0 -1.24479,0.13021 -1.70312,0.39063c-0.45833,0.25 -0.80729,0.625 -1.04687,1.125c-0.22917,0.48958 -0.34375,1.09375 -0.34375,1.8125c0,0.67708 0.14063,1.27083 0.42188,1.78125c0.28125,0.5 0.68229,0.89063 1.20313,1.17188c0.53125,0.27083 1.13542,0.40625 1.8125,0.40625c0.48958,0 0.94271,-0.07812 1.35938,-0.23437c0.41667,-0.16667 0.86979,-0.46354 1.35938,-0.89062l0.96875,1.35938c-0.30208,0.30208 -0.66667,0.56771 -1.09375,0.79688c-0.42708,0.21875 -0.88021,0.39583 -1.35937,0.53125c-0.47917,0.125 -0.95312,0.1875 -1.42187,0.1875zM204.93615,146.13754l-3.34375,-9.79687l1.9375,-0.01562l2.39063,7.32813l-0.42187,-0.03125l2.59375,-5.73437h1.15625l2.60938,5.75l-0.5,0.03125l2.40625,-7.32812h1.9375l-3.29687,9.79688h-1.32812l-2.73437,-6.23437l0.4375,0.0625l-2.53125,6.17188zM222.67866,150.24691v-13.90625h1.9375v2.23438l-0.29687,-0.15625c0.07292,-0.375 0.28125,-0.73437 0.625,-1.07812c0.35417,-0.34375 0.78125,-0.625 1.28125,-0.84375c0.51042,-0.21875 1.03125,-0.32812 1.5625,-0.32812c0.88542,0 1.66667,0.21875 2.34375,0.65625c0.6875,0.4375 1.22917,1.03646 1.625,1.79688c0.40626,0.76042 0.60939,1.63021 0.60939,2.60938c0,0.96875 -0.19792,1.83854 -0.59377,2.60938c-0.39583,0.76042 -0.9375,1.36458 -1.625,1.8125c-0.67708,0.4375 -1.44271,0.65625 -2.29687,0.65625c-0.57292,0 -1.13021,-0.11458 -1.67187,-0.34375c-0.53125,-0.22917 -0.98437,-0.52604 -1.35937,-0.89062c-0.375,-0.36458 -0.60417,-0.73958 -0.6875,-1.125l0.48438,-0.25v6.54688zM227.52241,144.52816c0.57292,0 1.08333,-0.14062 1.53125,-0.42187c0.44792,-0.29167 0.80208,-0.68229 1.0625,-1.17187c0.26042,-0.5 0.39063,-1.06771 0.39063,-1.70312c0,-0.63542 -0.13021,-1.19792 -0.39062,-1.6875c-0.25,-0.48958 -0.59896,-0.875 -1.04687,-1.15625c-0.4375,-0.29167 -0.95312,-0.4375 -1.54687,-0.4375c-0.58333,0 -1.09896,0.14063 -1.54687,0.42188c-0.44792,0.28125 -0.80208,0.67188 -1.0625,1.17188c-0.26042,0.48958 -0.39062,1.05208 -0.39062,1.6875c0,0.63542 0.13021,1.20313 0.39063,1.70313c0.26042,0.48958 0.61458,0.88021 1.0625,1.17188c0.44792,0.28125 0.96354,0.42188 1.54688,0.42188zM238.2164,146.32504c-0.80208,0 -1.53646,-0.22396 -2.20312,-0.67187c-0.66667,-0.44792 -1.20312,-1.05729 -1.60937,-1.82812c-0.39583,-0.77083 -0.59375,-1.64062 -0.59375,-2.60937c0,-0.98958 0.20313,-1.86458 0.60938,-2.625c0.40625,-0.76042 0.95313,-1.35937 1.64063,-1.79687c0.69792,-0.4375 1.47396,-0.65625 2.32813,-0.65625c0.51042,0 0.97396,0.07813 1.39063,0.23438c0.42708,0.14583 0.79688,0.35417 1.10938,0.625c0.32292,0.26042 0.58333,0.56771 0.78125,0.92188c0.20833,0.34375 0.33854,0.71354 0.39063,1.10938l-0.42187,-0.14062v-2.54687h1.9375v9.79688h-1.9375v-2.32812l0.4375,-0.14062c-0.07292,0.34375 -0.22396,0.67708 -0.45312,1c-0.22917,0.3125 -0.52083,0.59375 -0.875,0.84375c-0.35417,0.23958 -0.74479,0.4375 -1.17187,0.59375c-0.42708,0.14583 -0.88021,0.21875 -1.35937,0.21875zM238.7164,144.55941c0.59375,0 1.10938,-0.14062 1.54688,-0.42187c0.44792,-0.29167 0.79688,-0.6875 1.04688,-1.1875c0.26042,-0.51042 0.39063,-1.08854 0.39063,-1.73437c0,-0.63542 -0.13021,-1.20312 -0.39062,-1.70312c-0.25,-0.5 -0.59896,-0.89062 -1.04687,-1.17187c-0.4375,-0.29167 -0.95312,-0.4375 -1.54687,-0.4375c-0.57292,0 -1.07812,0.14583 -1.51562,0.4375c-0.4375,0.28125 -0.78646,0.67188 -1.04687,1.17188c-0.25,0.5 -0.375,1.06771 -0.375,1.70313c0,0.64583 0.125,1.22396 0.375,1.73438c0.26042,0.5 0.60938,0.89583 1.04688,1.1875c0.4375,0.28125 0.94271,0.42188 1.51563,0.42188zM249.52578,146.32504c-0.82292,0 -1.5625,-0.14062 -2.21875,-0.42187c-0.65625,-0.29167 -1.20312,-0.71875 -1.64062,-1.28125l1.29688,-1.10937c0.375,0.42708 0.78125,0.73958 1.21875,0.9375c0.44792,0.1875 0.95313,0.28125 1.51563,0.28125c0.21875,0 0.42188,-0.02604 0.60938,-0.07812c0.19792,-0.05208 0.36979,-0.13542 0.51563,-0.25c0.14583,-0.11458 0.25521,-0.25 0.32813,-0.40625c0.07292,-0.15625 0.10938,-0.32812 0.10938,-0.51562c0,-0.32292 -0.11979,-0.58333 -0.35937,-0.78125c-0.125,-0.08333 -0.32292,-0.17708 -0.59375,-0.28125c-0.26042,-0.10417 -0.60417,-0.21354 -1.03125,-0.32812c-0.71875,-0.1875 -1.30729,-0.39583 -1.76562,-0.625c-0.45833,-0.23958 -0.8125,-0.51042 -1.0625,-0.8125c-0.1875,-0.23958 -0.32812,-0.49479 -0.42187,-0.76562c-0.08333,-0.28125 -0.125,-0.59375 -0.125,-0.9375c0,-0.40625 0.08854,-0.78125 0.26563,-1.125c0.1875,-0.34375 0.4375,-0.64062 0.75,-0.89062c0.32292,-0.26042 0.69792,-0.45833 1.125,-0.59375c0.42708,-0.13542 0.88542,-0.20312 1.375,-0.20312c0.45833,0 0.91146,0.0625 1.35938,0.1875c0.45833,0.125 0.88021,0.30729 1.26563,0.54688c0.38542,0.22917 0.70833,0.50521 0.96875,0.82813l-1.09375,1.21875c-0.23958,-0.23958 -0.5,-0.44792 -0.78125,-0.625c-0.28125,-0.17708 -0.56771,-0.3125 -0.85937,-0.40625c-0.28125,-0.10417 -0.53646,-0.15625 -0.76563,-0.15625c-0.26042,0 -0.5,0.02604 -0.71875,0.07813c-0.20833,0.04167 -0.38542,0.11458 -0.53125,0.21875c-0.13542,0.09375 -0.24479,0.21875 -0.32812,0.375c-0.07292,0.14583 -0.10937,0.3125 -0.10937,0.5c0.01042,0.15625 0.05208,0.30729 0.125,0.45313c0.07292,0.14583 0.17188,0.26563 0.29688,0.35938c0.13542,0.10417 0.33854,0.21354 0.60938,0.32813c0.27083,0.10417 0.61979,0.20833 1.04688,0.3125c0.61458,0.15625 1.125,0.33333 1.53125,0.53125c0.40625,0.1875 0.72917,0.40625 0.96875,0.65625c0.25,0.23958 0.42188,0.51563 0.51563,0.82813c0.10417,0.3125 0.15625,0.66146 0.15625,1.04688c0,0.55208 -0.16146,1.05208 -0.48438,1.5c-0.3125,0.4375 -0.73958,0.78125 -1.28125,1.03125c-0.53125,0.25 -1.125,0.375 -1.78125,0.375zM258.46212,146.32504c-0.82292,0 -1.5625,-0.14062 -2.21875,-0.42187c-0.65625,-0.29167 -1.20312,-0.71875 -1.64062,-1.28125l1.29688,-1.10937c0.375,0.42708 0.78125,0.73958 1.21875,0.9375c0.44792,0.1875 0.95313,0.28125 1.51563,0.28125c0.21875,0 0.42188,-0.02604 0.60938,-0.07812c0.19792,-0.05208 0.36979,-0.13542 0.51563,-0.25c0.14583,-0.11458 0.25521,-0.25 0.32813,-0.40625c0.07292,-0.15625 0.10938,-0.32812 0.10938,-0.51562c0,-0.32292 -0.11979,-0.58333 -0.35937,-0.78125c-0.125,-0.08333 -0.32292,-0.17708 -0.59375,-0.28125c-0.26042,-0.10417 -0.60417,-0.21354 -1.03125,-0.32812c-0.71875,-0.1875 -1.30729,-0.39583 -1.76562,-0.625c-0.45833,-0.23958 -0.8125,-0.51042 -1.0625,-0.8125c-0.1875,-0.23958 -0.32812,-0.49479 -0.42187,-0.76562c-0.08333,-0.28125 -0.125,-0.59375 -0.125,-0.9375c0,-0.40625 0.08854,-0.78125 0.26563,-1.125c0.1875,-0.34375 0.4375,-0.64062 0.75,-0.89062c0.32292,-0.26042 0.69792,-0.45833 1.125,-0.59375c0.42708,-0.13542 0.88542,-0.20312 1.375,-0.20312c0.45833,0 0.91146,0.0625 1.35938,0.1875c0.45833,0.125 0.88021,0.30729 1.26563,0.54688c0.38542,0.22917 0.70833,0.50521 0.96875,0.82813l-1.09375,1.21875c-0.23958,-0.23958 -0.5,-0.44792 -0.78125,-0.625c-0.28125,-0.17708 -0.56771,-0.3125 -0.85937,-0.40625c-0.28125,-0.10417 -0.53646,-0.15625 -0.76562,-0.15625c-0.26042,0 -0.5,0.02604 -0.71875,0.07813c-0.20833,0.04167 -0.38542,0.11458 -0.53125,0.21875c-0.13542,0.09375 -0.24479,0.21875 -0.32812,0.375c-0.07292,0.14583 -0.10937,0.3125 -0.10937,0.5c0.01042,0.15625 0.05208,0.30729 0.125,0.45313c0.07292,0.14583 0.17188,0.26563 0.29688,0.35938c0.13542,0.10417 0.33854,0.21354 0.60938,0.32813c0.27083,0.10417 0.61979,0.20833 1.04688,0.3125c0.61458,0.15625 1.125,0.33333 1.53125,0.53125c0.40625,0.1875 0.72917,0.40625 0.96875,0.65625c0.25,0.23958 0.42188,0.51563 0.51563,0.82813c0.10417,0.3125 0.15625,0.66146 0.15625,1.04688c0,0.55208 -0.16146,1.05208 -0.48437,1.5c-0.3125,0.4375 -0.73958,0.78125 -1.28125,1.03125c-0.53125,0.25 -1.125,0.375 -1.78125,0.375zM266.53909,146.13754l-3.34375,-9.79687l1.9375,-0.01562l2.39063,7.32813l-0.42187,-0.03125l2.59375,-5.73437h1.15625l2.60938,5.75l-0.5,0.03125l2.40625,-7.32812h1.9375l-3.29687,9.79688h-1.32812l-2.73437,-6.23437l0.4375,0.0625l-2.53125,6.17188zM283.18411,146.32504c-0.95833,0 -1.81771,-0.21875 -2.57812,-0.65625c-0.75,-0.44792 -1.34375,-1.05208 -1.78125,-1.8125c-0.42708,-0.77083 -0.64062,-1.64583 -0.64062,-2.625c0,-0.97917 0.21354,-1.84896 0.64063,-2.60937c0.4375,-0.77083 1.03125,-1.375 1.78125,-1.8125c0.76042,-0.44792 1.61979,-0.67187 2.57813,-0.67187c0.9375,0 1.78125,0.22396 2.53125,0.67188c0.76042,0.4375 1.35938,1.04167 1.79688,1.8125c0.4375,0.76042 0.65625,1.63021 0.65625,2.60938c0,0.97917 -0.21875,1.85417 -0.65625,2.625c-0.4375,0.76042 -1.03646,1.36458 -1.79687,1.8125c-0.75,0.4375 -1.59375,0.65625 -2.53125,0.65625zM283.18411,144.57504c0.58333,0 1.10417,-0.14583 1.5625,-0.4375c0.45833,-0.29167 0.81771,-0.6875 1.07813,-1.1875c0.26042,-0.51042 0.38542,-1.08333 0.375,-1.71875c0.01042,-0.64583 -0.11458,-1.21875 -0.375,-1.71875c-0.26042,-0.51042 -0.61979,-0.90625 -1.07812,-1.1875c-0.45833,-0.29167 -0.97917,-0.4375 -1.5625,-0.4375c-0.58333,0 -1.10937,0.14583 -1.57812,0.4375c-0.46875,0.29167 -0.83333,0.69271 -1.09375,1.20313c-0.26042,0.5 -0.38542,1.06771 -0.375,1.70313c-0.01042,0.63542 0.11458,1.20833 0.375,1.71875c0.26042,0.5 0.625,0.89583 1.09375,1.1875c0.46875,0.29167 0.99479,0.4375 1.57813,0.4375zM290.25146,146.13754v-9.79687h1.9375v3.07813l-0.1875,-0.75c0.13542,-0.46875 0.36979,-0.89583 0.70313,-1.28125c0.33333,-0.38542 0.71354,-0.6875 1.14063,-0.90625c0.42708,-0.22917 0.86979,-0.34375 1.32813,-0.34375c0.20833,0 0.40625,0.02083 0.59375,0.0625c0.19792,0.03125 0.35417,0.07292 0.46875,0.125l-0.5,2.09375c-0.14583,-0.0625 -0.3125,-0.11458 -0.5,-0.15625c-0.17708,-0.05208 -0.35417,-0.07812 -0.53125,-0.07812c-0.33333,0 -0.65104,0.06771 -0.95312,0.20313c-0.30208,0.125 -0.57292,0.30729 -0.8125,0.54688c-0.22917,0.22917 -0.41146,0.49479 -0.54687,0.79688c-0.13542,0.30208 -0.20312,0.63542 -0.20312,1v5.40625zM301.43737,146.32504c-0.89583,0 -1.69271,-0.21875 -2.39062,-0.65625c-0.69792,-0.44792 -1.25521,-1.05208 -1.67187,-1.8125c-0.40625,-0.77083 -0.60937,-1.64583 -0.60937,-2.625c0,-0.97917 0.19792,-1.84896 0.59375,-2.60937c0.40625,-0.77083 0.95833,-1.375 1.65625,-1.8125c0.69792,-0.44792 1.48958,-0.67187 2.375,-0.67187c0.47917,0 0.94792,0.07813 1.40625,0.23438c0.45833,0.15625 0.86458,0.36979 1.21875,0.64063c0.36458,0.26042 0.64583,0.55208 0.84375,0.875c0.20833,0.3125 0.3125,0.63021 0.3125,0.95313l-0.5625,0.04688v-6.5625h1.92188v13.8125h-1.92187v-2.32812h0.375c0,0.29167 -0.09896,0.58854 -0.29687,0.89063c-0.19792,0.29167 -0.46354,0.5625 -0.79687,0.8125c-0.32292,0.23958 -0.70312,0.4375 -1.14062,0.59375c-0.42708,0.14583 -0.86458,0.21875 -1.3125,0.21875zM301.703,144.66879c0.58333,0 1.09896,-0.15104 1.54688,-0.45312c0.44792,-0.30208 0.79688,-0.70833 1.04688,-1.21875c0.26042,-0.52083 0.39063,-1.10937 0.39063,-1.76562c0,-0.65625 -0.13021,-1.23958 -0.39062,-1.75c-0.25,-0.52083 -0.59896,-0.93229 -1.04687,-1.23437c-0.44792,-0.30208 -0.96354,-0.45312 -1.54687,-0.45312c-0.58333,0 -1.09896,0.15104 -1.54687,0.45313c-0.44792,0.30208 -0.80208,0.71354 -1.0625,1.23438c-0.25,0.51042 -0.375,1.09375 -0.375,1.75c0,0.65625 0.125,1.24479 0.375,1.76563c0.26042,0.51042 0.61458,0.91667 1.0625,1.21875c0.44792,0.30208 0.96354,0.45313 1.54688,0.45313zM309.96856,146.34066c-0.40625,0 -0.72396,-0.11979 -0.95312,-0.35937c-0.21875,-0.23958 -0.32812,-0.58333 -0.32812,-1.03125c0,-0.41667 0.11458,-0.75521 0.34375,-1.01562c0.23958,-0.26042 0.55208,-0.39062 0.9375,-0.39062c0.41667,0 0.73438,0.125 0.95313,0.375c0.22917,0.23958 0.34375,0.58333 0.34375,1.03125c0,0.40625 -0.11979,0.73958 -0.35937,1c-0.23958,0.26042 -0.55208,0.39063 -0.9375,0.39063z" fill="#ffffff" fill-rule="nonzero" stroke-width="1" stroke-linecap="square"/><path d="M65.35795,180.93146h390.86615v64.62991h-390.86615z" fill-opacity="0" fill="#000000" fill-rule="evenodd" stroke-width="1" stroke-linecap="square"/><path d="M76.18608,207.85146v-13.0625h5.3125c0.70833,0 1.34896,0.17708 1.92188,0.53125c0.58333,0.35417 1.04688,0.83854 1.39063,1.45313c0.35417,0.60417 0.53125,1.28125 0.53125,2.03125c0,0.75 -0.17708,1.43229 -0.53125,2.04688c-0.34375,0.60417 -0.80729,1.08854 -1.39062,1.45313c-0.57292,0.36458 -1.21354,0.54688 -1.92187,0.54688h-3.29687v5zM78.2017,200.91396h3.26563c0.33333,0 0.63542,-0.09375 0.90625,-0.28125c0.28125,-0.19792 0.50521,-0.45312 0.67188,-0.76562c0.16667,-0.32292 0.25,-0.67708 0.25,-1.0625c0,-0.38542 -0.08333,-0.73437 -0.25,-1.04687c-0.16667,-0.3125 -0.39062,-0.5625 -0.67187,-0.75c-0.27083,-0.1875 -0.57292,-0.28125 -0.90625,-0.28125h-3.26562zM91.10873,208.03896c-0.80208,0 -1.53646,-0.22396 -2.20312,-0.67187c-0.66667,-0.44792 -1.20312,-1.05729 -1.60937,-1.82812c-0.39583,-0.77083 -0.59375,-1.64062 -0.59375,-2.60937c0,-0.98958 0.20313,-1.86458 0.60938,-2.625c0.40625,-0.76042 0.95313,-1.35937 1.64063,-1.79687c0.69792,-0.4375 1.47396,-0.65625 2.32813,-0.65625c0.51042,0 0.97396,0.07813 1.39063,0.23438c0.42708,0.14583 0.79688,0.35417 1.10938,0.625c0.32292,0.26042 0.58333,0.56771 0.78125,0.92188c0.20833,0.34375 0.33854,0.71354 0.39063,1.10938l-0.42187,-0.14062v-2.54687h1.9375v9.79688h-1.9375v-2.32812l0.4375,-0.14062c-0.07292,0.34375 -0.22396,0.67708 -0.45312,1c-0.22917,0.3125 -0.52083,0.59375 -0.875,0.84375c-0.35417,0.23958 -0.74479,0.4375 -1.17187,0.59375c-0.42708,0.14583 -0.88021,0.21875 -1.35937,0.21875zM91.60873,206.27333c0.59375,0 1.10938,-0.14062 1.54688,-0.42187c0.44792,-0.29167 0.79688,-0.6875 1.04688,-1.1875c0.26042,-0.51042 0.39063,-1.08854 0.39063,-1.73437c0,-0.63542 -0.13021,-1.20312 -0.39062,-1.70312c-0.25,-0.5 -0.59896,-0.89062 -1.04687,-1.17187c-0.4375,-0.29167 -0.95312,-0.4375 -1.54687,-0.4375c-0.57292,0 -1.07812,0.14583 -1.51562,0.4375c-0.4375,0.28125 -0.78646,0.67188 -1.04687,1.17188c-0.25,0.5 -0.375,1.06771 -0.375,1.70313c0,0.64583 0.125,1.22396 0.375,1.73438c0.26042,0.5 0.60938,0.89583 1.04688,1.1875c0.4375,0.28125 0.94271,0.42188 1.51563,0.42188zM102.41813,208.03896c-0.82292,0 -1.5625,-0.14062 -2.21875,-0.42187c-0.65625,-0.29167 -1.20312,-0.71875 -1.64062,-1.28125l1.29688,-1.10937c0.375,0.42708 0.78125,0.73958 1.21875,0.9375c0.44792,0.1875 0.95313,0.28125 1.51563,0.28125c0.21875,0 0.42188,-0.02604 0.60938,-0.07812c0.19792,-0.05208 0.36979,-0.13542 0.51563,-0.25c0.14583,-0.11458 0.25521,-0.25 0.32813,-0.40625c0.07292,-0.15625 0.10938,-0.32812 0.10938,-0.51562c0,-0.32292 -0.11979,-0.58333 -0.35937,-0.78125c-0.125,-0.08333 -0.32292,-0.17708 -0.59375,-0.28125c-0.26042,-0.10417 -0.60417,-0.21354 -1.03125,-0.32812c-0.71875,-0.1875 -1.30729,-0.39583 -1.76562,-0.625c-0.45833,-0.23958 -0.8125,-0.51042 -1.0625,-0.8125c-0.1875,-0.23958 -0.32812,-0.49479 -0.42187,-0.76562c-0.08333,-0.28125 -0.125,-0.59375 -0.125,-0.9375c0,-0.40625 0.08854,-0.78125 0.26563,-1.125c0.1875,-0.34375 0.4375,-0.64062 0.75,-0.89062c0.32292,-0.26042 0.69792,-0.45833 1.125,-0.59375c0.42708,-0.13542 0.88542,-0.20312 1.375,-0.20312c0.45833,0 0.91146,0.0625 1.35938,0.1875c0.45834,0.125 0.88022,0.30729 1.26563,0.54688c0.38542,0.22917 0.70833,0.50521 0.96875,0.82813l-1.09375,1.21875c-0.23958,-0.23958 -0.5,-0.44792 -0.78126,-0.625c-0.28125,-0.17708 -0.56771,-0.3125 -0.85937,-0.40625c-0.28125,-0.10417 -0.53646,-0.15625 -0.76562,-0.15625c-0.26042,0 -0.5,0.02604 -0.71875,0.07813c-0.20833,0.04167 -0.38542,0.11458 -0.53125,0.21875c-0.13542,0.09375 -0.24479,0.21875 -0.32812,0.375c-0.07292,0.14583 -0.10937,0.3125 -0.10937,0.5c0.01042,0.15625 0.05208,0.30729 0.125,0.45313c0.07292,0.14583 0.17188,0.26563 0.29688,0.35938c0.13542,0.10417 0.33854,0.21354 0.60938,0.32813c0.27083,0.10417 0.61979,0.20833 1.04688,0.3125c0.61458,0.15625 1.125,0.33333 1.53126,0.53125c0.40625,0.1875 0.72917,0.40625 0.96875,0.65625c0.25,0.23958 0.42188,0.51563 0.51563,0.82813c0.10417,0.3125 0.15625,0.66146 0.15625,1.04688c0,0.55208 -0.16146,1.05208 -0.48437,1.5c-0.3125,0.4375 -0.73959,0.78125 -1.28126,1.03125c-0.53125,0.25 -1.125,0.375 -1.78125,0.375zM111.35448,208.03896c-0.82292,0 -1.5625,-0.14062 -2.21875,-0.42187c-0.65625,-0.29167 -1.20312,-0.71875 -1.64062,-1.28125l1.29688,-1.10937c0.375,0.42708 0.78125,0.73958 1.21875,0.9375c0.44792,0.1875 0.95313,0.28125 1.51563,0.28125c0.21875,0 0.42188,-0.02604 0.60938,-0.07812c0.19792,-0.05208 0.36979,-0.13542 0.51563,-0.25c0.14583,-0.11458 0.25521,-0.25 0.32813,-0.40625c0.07292,-0.15625 0.10938,-0.32812 0.10938,-0.51562c0,-0.32292 -0.11979,-0.58333 -0.35937,-0.78125c-0.125,-0.08333 -0.32292,-0.17708 -0.59375,-0.28125c-0.26042,-0.10417 -0.60417,-0.21354 -1.03125,-0.32812c-0.71875,-0.1875 -1.30729,-0.39583 -1.76562,-0.625c-0.45833,-0.23958 -0.8125,-0.51042 -1.0625,-0.8125c-0.1875,-0.23958 -0.32812,-0.49479 -0.42187,-0.76562c-0.08333,-0.28125 -0.125,-0.59375 -0.125,-0.9375c0,-0.40625 0.08854,-0.78125 0.26563,-1.125c0.1875,-0.34375 0.4375,-0.64062 0.75,-0.89062c0.32292,-0.26042 0.69792,-0.45833 1.125,-0.59375c0.42708,-0.13542 0.88542,-0.20312 1.375,-0.20312c0.45833,0 0.91146,0.0625 1.35938,0.1875c0.45833,0.125 0.88021,0.30729 1.26563,0.54688c0.38542,0.22917 0.70833,0.50521 0.96875,0.82813l-1.09375,1.21875c-0.23958,-0.23958 -0.5,-0.44792 -0.78125,-0.625c-0.28125,-0.17708 -0.56771,-0.3125 -0.85937,-0.40625c-0.28125,-0.10417 -0.53646,-0.15625 -0.76562,-0.15625c-0.26042,0 -0.5,0.02604 -0.71875,0.07813c-0.20833,0.04167 -0.38542,0.11458 -0.53125,0.21875c-0.13542,0.09375 -0.24479,0.21875 -0.32812,0.375c-0.07292,0.14583 -0.10937,0.3125 -0.10937,0.5c0.01042,0.15625 0.05208,0.30729 0.125,0.45313c0.07292,0.14583 0.17188,0.26563 0.29688,0.35938c0.13542,0.10417 0.33854,0.21354 0.60938,0.32813c0.27083,0.10417 0.61979,0.20833 1.04688,0.3125c0.61458,0.15625 1.125,0.33333 1.53125,0.53125c0.40625,0.1875 0.72917,0.40625 0.96875,0.65625c0.25,0.23958 0.42188,0.51563 0.51563,0.82813c0.10417,0.3125 0.15625,0.66146 0.15625,1.04688c0,0.55208 -0.16146,1.05208 -0.48437,1.5c-0.3125,0.4375 -0.73958,0.78125 -1.28125,1.03125c-0.53125,0.25 -1.125,0.375 -1.78125,0.375zM119.43144,207.85146l-3.34375,-9.79687l1.9375,-0.01562l2.39063,7.32813l-0.42187,-0.03125l2.59375,-5.73437h1.15625l2.60938,5.75l-0.5,0.03125l2.40625,-7.32812h1.9375l-3.29687,9.79688h-1.32812l-2.73437,-6.23437l0.4375,0.0625l-2.53125,6.17188zM136.07645,208.03896c-0.95833,0 -1.81771,-0.21875 -2.57812,-0.65625c-0.75,-0.44792 -1.34375,-1.05208 -1.78125,-1.8125c-0.42708,-0.77083 -0.64062,-1.64583 -0.64062,-2.625c0,-0.97917 0.21354,-1.84896 0.64063,-2.60937c0.4375,-0.77083 1.03125,-1.375 1.78125,-1.8125c0.76042,-0.44792 1.61979,-0.67187 2.57813,-0.67187c0.9375,0 1.78125,0.22396 2.53125,0.67188c0.76042,0.4375 1.35938,1.04167 1.79688,1.8125c0.4375,0.76042 0.65625,1.63021 0.65625,2.60938c0,0.97917 -0.21875,1.85417 -0.65625,2.625c-0.4375,0.76042 -1.03646,1.36458 -1.79687,1.8125c-0.75,0.4375 -1.59375,0.65625 -2.53125,0.65625zM136.07645,206.28896c0.58333,0 1.10417,-0.14583 1.5625,-0.4375c0.45833,-0.29167 0.81771,-0.6875 1.07813,-1.1875c0.26042,-0.51042 0.38542,-1.08333 0.375,-1.71875c0.01042,-0.64583 -0.11458,-1.21875 -0.375,-1.71875c-0.26042,-0.51042 -0.61979,-0.90625 -1.07812,-1.1875c-0.45833,-0.29167 -0.97917,-0.4375 -1.5625,-0.4375c-0.58333,0 -1.10937,0.14583 -1.57812,0.4375c-0.46875,0.29167 -0.83333,0.69271 -1.09375,1.20313c-0.26042,0.5 -0.38542,1.06771 -0.375,1.70313c-0.01042,0.63542 0.11458,1.20833 0.375,1.71875c0.26042,0.5 0.625,0.89583 1.09375,1.1875c0.46875,0.29167 0.99479,0.4375 1.57813,0.4375zM143.1438,207.85146v-9.79687h1.9375v3.07813l-0.1875,-0.75c0.13542,-0.46875 0.36979,-0.89583 0.70313,-1.28125c0.33333,-0.38542 0.71354,-0.6875 1.14063,-0.90625c0.42708,-0.22917 0.86979,-0.34375 1.32813,-0.34375c0.20833,0 0.40625,0.02083 0.59375,0.0625c0.19792,0.03125 0.35417,0.07292 0.46875,0.125l-0.5,2.09375c-0.14583,-0.0625 -0.3125,-0.11458 -0.5,-0.15625c-0.17708,-0.05208 -0.35417,-0.07812 -0.53125,-0.07812c-0.33333,0 -0.65104,0.06771 -0.95312,0.20313c-0.30208,0.125 -0.57292,0.30729 -0.8125,0.54688c-0.22917,0.22917 -0.41146,0.49479 -0.54687,0.79688c-0.13542,0.30208 -0.20312,0.63542 -0.20312,1v5.40625zM154.32973,208.03896c-0.89583,0 -1.69271,-0.21875 -2.39062,-0.65625c-0.69792,-0.44792 -1.25521,-1.05208 -1.67187,-1.8125c-0.40625,-0.77083 -0.60937,-1.64583 -0.60937,-2.625c0,-0.97917 0.19792,-1.84896 0.59375,-2.60937c0.40625,-0.77083 0.95833,-1.375 1.65625,-1.8125c0.69792,-0.44792 1.48958,-0.67187 2.375,-0.67187c0.47917,0 0.94792,0.07813 1.40625,0.23438c0.45833,0.15625 0.86458,0.36979 1.21875,0.64063c0.36458,0.26042 0.64583,0.55208 0.84375,0.875c0.20833,0.3125 0.3125,0.63021 0.3125,0.95313l-0.5625,0.04688v-6.5625h1.92188v13.8125h-1.92187v-2.32812h0.375c0,0.29167 -0.09896,0.58854 -0.29687,0.89063c-0.19792,0.29167 -0.46354,0.5625 -0.79687,0.8125c-0.32292,0.23958 -0.70312,0.4375 -1.14062,0.59375c-0.42708,0.14583 -0.86458,0.21875 -1.3125,0.21875zM154.59535,206.38271c0.58333,0 1.09896,-0.15104 1.54688,-0.45312c0.44792,-0.30208 0.79688,-0.70833 1.04688,-1.21875c0.26042,-0.52083 0.39063,-1.10937 0.39063,-1.76562c0,-0.65625 -0.13021,-1.23958 -0.39062,-1.75c-0.25,-0.52083 -0.59896,-0.93229 -1.04687,-1.23437c-0.44792,-0.30208 -0.96354,-0.45312 -1.54687,-0.45312c-0.58333,0 -1.09896,0.15104 -1.54687,0.45313c-0.44792,0.30208 -0.80208,0.71354 -1.0625,1.23438c-0.25,0.51042 -0.375,1.09375 -0.375,1.75c0,0.65625 0.125,1.24479 0.375,1.76563c0.26042,0.51042 0.61458,0.91667 1.0625,1.21875c0.44792,0.30208 0.96354,0.45313 1.54688,0.45313zM165.34529,208.03896c-0.82292,0 -1.5625,-0.14062 -2.21875,-0.42187c-0.65625,-0.29167 -1.20312,-0.71875 -1.64062,-1.28125l1.29688,-1.10937c0.375,0.42708 0.78125,0.73958 1.21875,0.9375c0.44792,0.1875 0.95313,0.28125 1.51563,0.28125c0.21875,0 0.42188,-0.02604 0.60938,-0.07812c0.19792,-0.05208 0.36979,-0.13542 0.51563,-0.25c0.14583,-0.11458 0.25521,-0.25 0.32813,-0.40625c0.07292,-0.15625 0.10938,-0.32812 0.10938,-0.51562c0,-0.32292 -0.11979,-0.58333 -0.35937,-0.78125c-0.125,-0.08333 -0.32292,-0.17708 -0.59375,-0.28125c-0.26042,-0.10417 -0.60417,-0.21354 -1.03125,-0.32812c-0.71875,-0.1875 -1.30729,-0.39583 -1.76562,-0.625c-0.45833,-0.23958 -0.8125,-0.51042 -1.0625,-0.8125c-0.1875,-0.23958 -0.32812,-0.49479 -0.42187,-0.76562c-0.08333,-0.28125 -0.125,-0.59375 -0.125,-0.9375c0,-0.40625 0.08854,-0.78125 0.26563,-1.125c0.1875,-0.34375 0.4375,-0.64062 0.75,-0.89062c0.32292,-0.26042 0.69792,-0.45833 1.125,-0.59375c0.42708,-0.13542 0.88542,-0.20312 1.375,-0.20312c0.45833,0 0.91146,0.0625 1.35938,0.1875c0.45833,0.125 0.88021,0.30729 1.26563,0.54688c0.38542,0.22917 0.70833,0.50521 0.96875,0.82813l-1.09375,1.21875c-0.23958,-0.23958 -0.5,-0.44792 -0.78125,-0.625c-0.28125,-0.17708 -0.56771,-0.3125 -0.85937,-0.40625c-0.28125,-0.10417 -0.53646,-0.15625 -0.76562,-0.15625c-0.26042,0 -0.5,0.02604 -0.71875,0.07813c-0.20833,0.04167 -0.38542,0.11458 -0.53125,0.21875c-0.13542,0.09375 -0.24479,0.21875 -0.32812,0.375c-0.07292,0.14583 -0.10937,0.3125 -0.10937,0.5c0.01042,0.15625 0.05208,0.30729 0.125,0.45313c0.07292,0.14583 0.17188,0.26563 0.29688,0.35938c0.13542,0.10417 0.33854,0.21354 0.60938,0.32813c0.27083,0.10417 0.61979,0.20833 1.04688,0.3125c0.61458,0.15625 1.125,0.33333 1.53125,0.53125c0.40625,0.1875 0.72917,0.40625 0.96875,0.65625c0.25,0.23958 0.42188,0.51563 0.51563,0.82813c0.10417,0.3125 0.15625,0.66146 0.15625,1.04688c0,0.55208 -0.16146,1.05208 -0.48437,1.5c-0.3125,0.4375 -0.73958,0.78125 -1.28125,1.03125c-0.53125,0.25 -1.125,0.375 -1.78125,0.375zM180.31789,208.03896c-0.89583,0 -1.69271,-0.21875 -2.39062,-0.65625c-0.69792,-0.44792 -1.25521,-1.05208 -1.67187,-1.8125c-0.40625,-0.77083 -0.60937,-1.64583 -0.60937,-2.625c0,-0.97917 0.19792,-1.84896 0.59375,-2.60937c0.40625,-0.77083 0.95833,-1.375 1.65625,-1.8125c0.69792,-0.44792 1.48958,-0.67187 2.375,-0.67187c0.47917,0 0.94792,0.07813 1.40625,0.23438c0.45833,0.15625 0.86458,0.36979 1.21875,0.64063c0.36458,0.26042 0.64583,0.55208 0.84375,0.875c0.20833,0.3125 0.3125,0.63021 0.3125,0.95313l-0.5625,0.04688v-6.5625h1.92188v13.8125h-1.92187v-2.32812h0.375c0,0.29167 -0.09896,0.58854 -0.29687,0.89063c-0.19792,0.29167 -0.46354,0.5625 -0.79687,0.8125c-0.32292,0.23958 -0.70312,0.4375 -1.14062,0.59375c-0.42708,0.14583 -0.86458,0.21875 -1.3125,0.21875zM180.58351,206.38271c0.58333,0 1.09896,-0.15104 1.54688,-0.45312c0.44792,-0.30208 0.79688,-0.70833 1.04688,-1.21875c0.26042,-0.52083 0.39063,-1.10937 0.39063,-1.76562c0,-0.65625 -0.13021,-1.23958 -0.39062,-1.75c-0.25,-0.52083 -0.59896,-0.93229 -1.04687,-1.23437c-0.44792,-0.30208 -0.96354,-0.45312 -1.54687,-0.45312c-0.58333,0 -1.09896,0.15104 -1.54687,0.45313c-0.44792,0.30208 -0.80208,0.71354 -1.0625,1.23438c-0.25,0.51042 -0.375,1.09375 -0.375,1.75c0,0.65625 0.125,1.24479 0.375,1.76563c0.26042,0.51042 0.61458,0.91667 1.0625,1.21875c0.44792,0.30208 0.96354,0.45313 1.54688,0.45313zM192.47408,208.03896c-0.95833,0 -1.81771,-0.21875 -2.57812,-0.65625c-0.75,-0.44792 -1.34375,-1.05208 -1.78125,-1.8125c-0.42708,-0.77083 -0.64062,-1.64583 -0.64062,-2.625c0,-0.97917 0.21354,-1.84896 0.64063,-2.60937c0.4375,-0.77083 1.03125,-1.375 1.78125,-1.8125c0.76042,-0.44792 1.61979,-0.67187 2.57813,-0.67187c0.9375,0 1.78125,0.22396 2.53125,0.67188c0.76042,0.4375 1.35938,1.04167 1.79688,1.8125c0.4375,0.76042 0.65625,1.63021 0.65625,2.60938c0,0.97917 -0.21875,1.85417 -0.65625,2.625c-0.4375,0.76042 -1.03646,1.36458 -1.79687,1.8125c-0.75,0.4375 -1.59375,0.65625 -2.53125,0.65625zM192.47408,206.28896c0.58333,0 1.10417,-0.14583 1.5625,-0.4375c0.45833,-0.29167 0.81771,-0.6875 1.07813,-1.1875c0.26042,-0.51042 0.38542,-1.08333 0.375,-1.71875c0.01042,-0.64583 -0.11458,-1.21875 -0.375,-1.71875c-0.26042,-0.51042 -0.61979,-0.90625 -1.07812,-1.1875c-0.45833,-0.29167 -0.97917,-0.4375 -1.5625,-0.4375c-0.58333,0 -1.10937,0.14583 -1.57812,0.4375c-0.46875,0.29167 -0.83333,0.69271 -1.09375,1.20313c-0.26042,0.5 -0.38542,1.06771 -0.375,1.70313c-0.01042,0.63542 0.11458,1.20833 0.375,1.71875c0.26042,0.5 0.625,0.89583 1.09375,1.1875c0.46875,0.29167 0.99479,0.4375 1.57813,0.4375zM199.54143,207.85146v-9.79687h1.92188v2.01563l-0.34375,0.21875c0.125,-0.42708 0.36979,-0.82292 0.73438,-1.1875c0.36458,-0.375 0.79167,-0.67708 1.28125,-0.90625c0.5,-0.22917 1.01042,-0.34375 1.53125,-0.34375c0.75,0 1.36979,0.14583 1.85938,0.4375c0.5,0.29167 0.875,0.73958 1.125,1.34375c0.25,0.59375 0.375,1.34375 0.375,2.25v5.96875h-1.92187v-5.84375c0,-0.55208 -0.07292,-1.01042 -0.21875,-1.375c-0.14583,-0.375 -0.375,-0.64583 -0.6875,-0.8125c-0.3125,-0.16667 -0.69792,-0.23958 -1.15625,-0.21875c-0.375,0 -0.71875,0.0625 -1.03125,0.1875c-0.3125,0.11458 -0.58333,0.28125 -0.8125,0.5c-0.22917,0.20833 -0.41146,0.45313 -0.54687,0.73438c-0.125,0.27083 -0.1875,0.56771 -0.1875,0.89063v5.9375h-0.95312c-0.15625,0 -0.31771,0 -0.48437,0c-0.16667,0 -0.32812,0 -0.48437,0zM210.37627,198.99208l-0.70312,-0.85937c0.47917,-0.22917 0.875,-0.48437 1.1875,-0.76562c0.3125,-0.28125 0.46875,-0.53125 0.46875,-0.75c0,-0.15625 -0.06771,-0.29687 -0.20312,-0.42187c-0.13542,-0.13542 -0.26042,-0.25 -0.375,-0.34375c-0.27083,-0.21875 -0.45312,-0.40104 -0.54687,-0.54687c-0.09375,-0.15625 -0.14062,-0.3125 -0.14062,-0.46875c0,-0.30208 0.10417,-0.54167 0.3125,-0.71875c0.21875,-0.1875 0.49479,-0.28125 0.82813,-0.28125c0.34375,0 0.65625,0.09375 0.9375,0.28125c0.28125,0.17708 0.5,0.42188 0.65625,0.73438c0.16667,0.3125 0.25,0.67708 0.25,1.09375c0,0.32292 -0.06771,0.64063 -0.20312,0.95313c-0.13542,0.3125 -0.32812,0.60938 -0.57812,0.89063c-0.23958,0.27083 -0.52083,0.51042 -0.84375,0.71875c-0.32292,0.20833 -0.67187,0.36979 -1.04687,0.48438zM216.3568,207.85146v-12.29687h1.92188v12.29688zM214.30992,199.92958v-1.875h6.23438v1.875zM227.49455,207.85146v-9.79687h1.9375v2.09375l-0.35937,0.21875c0.10417,-0.32292 0.26042,-0.63021 0.46875,-0.92187c0.21875,-0.30208 0.48438,-0.56771 0.79688,-0.79687c0.32292,-0.22917 0.66667,-0.41146 1.03125,-0.54687c0.375,-0.14583 0.7552,-0.21875 1.14061,-0.21875c0.55208,0 1.04167,0.09375 1.46875,0.28125c0.42708,0.1875 0.77604,0.46875 1.04688,0.84375c0.27083,0.375 0.46875,0.84375 0.59375,1.40625l-0.29687,-0.07812l0.125,-0.3125c0.14583,-0.29167 0.33854,-0.5625 0.57813,-0.8125c0.23958,-0.26042 0.51563,-0.48958 0.82813,-0.6875c0.3125,-0.19792 0.64063,-0.35417 0.98438,-0.46875c0.35417,-0.11458 0.69792,-0.17187 1.03125,-0.17187c0.72917,0 1.33333,0.15104 1.8125,0.45313c0.47917,0.30208 0.83854,0.76042 1.07813,1.375c0.25,0.60417 0.375,1.35938 0.375,2.26563v5.875h-1.9375v-5.76562c0,-0.5625 -0.07292,-1.02083 -0.21875,-1.375c-0.14583,-0.35417 -0.36458,-0.61458 -0.65625,-0.78125c-0.28125,-0.17708 -0.64583,-0.26562 -1.09375,-0.26562c-0.34375,0 -0.67187,0.0625 -0.98437,0.1875c-0.30208,0.11458 -0.56771,0.27604 -0.79687,0.48438c-0.21875,0.20833 -0.39062,0.45313 -0.51562,0.73438c-0.11458,0.28125 -0.17187,0.58854 -0.17187,0.92188v5.85938h-1.95312v-5.79687c0,-0.51042 -0.07292,-0.94271 -0.21875,-1.29687c-0.14583,-0.35417 -0.36458,-0.625 -0.65625,-0.8125c-0.28125,-0.1875 -0.6302,-0.28125 -1.04686,-0.28125c-0.34375,0 -0.66667,0.0625 -0.96875,0.1875c-0.29167,0.11458 -0.55208,0.27604 -0.78125,0.48438c-0.21875,0.19792 -0.39062,0.4375 -0.51562,0.71875c-0.125,0.28125 -0.1875,0.58333 -0.1875,0.90625v5.89063zM248.47382,208.03896c-0.80208,0 -1.53646,-0.22396 -2.20312,-0.67187c-0.66667,-0.44792 -1.20312,-1.05729 -1.60937,-1.82812c-0.39583,-0.77083 -0.59375,-1.64062 -0.59375,-2.60937c0,-0.98958 0.20313,-1.86458 0.60938,-2.625c0.40625,-0.76042 0.95313,-1.35937 1.64063,-1.79687c0.69792,-0.4375 1.47396,-0.65625 2.32812,-0.65625c0.51042,0 0.97396,0.07813 1.39063,0.23438c0.42708,0.14583 0.79688,0.35417 1.10938,0.625c0.32292,0.26042 0.58333,0.56771 0.78125,0.92188c0.20833,0.34375 0.33854,0.71354 0.39063,1.10938l-0.42187,-0.14062v-2.54687h1.9375v9.79688h-1.9375v-2.32812l0.4375,-0.14062c-0.07292,0.34375 -0.22396,0.67708 -0.45312,1c-0.22917,0.3125 -0.52083,0.59375 -0.875,0.84375c-0.35417,0.23958 -0.74479,0.4375 -1.17188,0.59375c-0.42708,0.14583 -0.88021,0.21875 -1.35937,0.21875zM248.97382,206.27333c0.59375,0 1.10938,-0.14062 1.54688,-0.42187c0.44792,-0.29167 0.79688,-0.6875 1.04688,-1.1875c0.26042,-0.51042 0.39063,-1.08854 0.39063,-1.73437c0,-0.63542 -0.13021,-1.20312 -0.39062,-1.70312c-0.25,-0.5 -0.59896,-0.89062 -1.04687,-1.17187c-0.4375,-0.29167 -0.95313,-0.4375 -1.54688,-0.4375c-0.57292,0 -1.07812,0.14583 -1.51562,0.4375c-0.4375,0.28125 -0.78646,0.67188 -1.04687,1.17188c-0.25,0.5 -0.375,1.06771 -0.375,1.70313c0,0.64583 0.125,1.22396 0.375,1.73438c0.26042,0.5 0.60937,0.89583 1.04687,1.1875c0.4375,0.28125 0.94271,0.42188 1.51563,0.42188zM257.73636,207.85146v-12.29687h1.92188v12.29688zM255.68948,199.92958v-1.875h6.23437v1.875zM267.74451,208.03896c-0.90625,0 -1.71875,-0.22396 -2.4375,-0.67187c-0.70833,-0.44792 -1.27083,-1.05729 -1.6875,-1.82812c-0.41667,-0.77083 -0.625,-1.63542 -0.625,-2.59375c0,-0.95833 0.20833,-1.82292 0.625,-2.59375c0.41667,-0.77083 0.97917,-1.38021 1.6875,-1.82812c0.71875,-0.44792 1.53125,-0.67187 2.4375,-0.67187c0.875,0 1.66667,0.17708 2.375,0.53125c0.71875,0.35417 1.26563,0.83854 1.64063,1.45313l-1.0625,1.29688c-0.19792,-0.28125 -0.45312,-0.54167 -0.76562,-0.78125c-0.3125,-0.23958 -0.64583,-0.42708 -1,-0.5625c-0.34375,-0.13542 -0.67708,-0.20312 -1,-0.20312c-0.59375,0 -1.125,0.14583 -1.59375,0.4375c-0.46875,0.29167 -0.83854,0.69271 -1.10937,1.20313c-0.27083,0.51042 -0.40625,1.08333 -0.40625,1.71875c0,0.63542 0.14063,1.20833 0.42188,1.71875c0.29167,0.5 0.67188,0.90104 1.14063,1.20313c0.46875,0.29167 0.98958,0.4375 1.5625,0.4375c0.34375,0 0.67188,-0.05729 0.98438,-0.17187c0.3125,-0.11458 0.61979,-0.28125 0.92188,-0.5c0.30208,-0.22917 0.58333,-0.50521 0.84375,-0.82812l1.0625,1.3125c-0.39583,0.5625 -0.96354,1.02604 -1.70312,1.39063c-0.73958,0.35417 -1.51042,0.53125 -2.3125,0.53125zM273.56937,207.85146v-13.8125h1.92188v6.03125l-0.34375,0.21875c0.125,-0.42708 0.36979,-0.82292 0.73438,-1.1875c0.36458,-0.375 0.79167,-0.67708 1.28125,-0.90625c0.5,-0.22917 1.01042,-0.34375 1.53125,-0.34375c0.75,0 1.36979,0.14583 1.85938,0.4375c0.5,0.29167 0.875,0.73958 1.125,1.34375c0.25,0.59375 0.375,1.34375 0.375,2.25v5.96875h-1.92187v-5.84375c0,-0.55208 -0.07292,-1.01042 -0.21875,-1.375c-0.14583,-0.375 -0.375,-0.64583 -0.6875,-0.8125c-0.3125,-0.16667 -0.69792,-0.23958 -1.15625,-0.21875c-0.375,0 -0.71875,0.0625 -1.03125,0.1875c-0.3125,0.11458 -0.58333,0.28125 -0.8125,0.5c-0.22917,0.20833 -0.41146,0.45313 -0.54687,0.73438c-0.125,0.27083 -0.1875,0.56771 -0.1875,0.89063v5.9375h-0.95312c-0.15625,0 -0.31771,0 -0.48437,0c-0.16667,0 -0.32812,0 -0.48437,0zM284.96671,211.19521l-0.70312,-0.85937c0.42708,-0.25 0.77604,-0.53646 1.04688,-0.85937c0.28125,-0.32292 0.42188,-0.60417 0.42188,-0.84375c0,-0.125 -0.03125,-0.24479 -0.09375,-0.35937c-0.0625,-0.11458 -0.19271,-0.28125 -0.39062,-0.5c-0.25,-0.22917 -0.41146,-0.42708 -0.48437,-0.59375c-0.07292,-0.16667 -0.10937,-0.33854 -0.10937,-0.51562c0,-0.30208 0.10417,-0.54167 0.3125,-0.71875c0.20833,-0.1875 0.48438,-0.28125 0.82813,-0.28125c0.30208,0 0.57813,0.09375 0.82813,0.28125c0.26042,0.17708 0.46354,0.42708 0.60938,0.75c0.14583,0.3125 0.21875,0.67188 0.21875,1.07813c0,0.375 -0.0625,0.73438 -0.1875,1.07813c-0.125,0.35417 -0.30208,0.67708 -0.53125,0.96875c-0.21875,0.30208 -0.47917,0.57292 -0.78125,0.8125c-0.29167,0.23958 -0.61979,0.42708 -0.98437,0.5625zM296.09354,207.85146v-12.29687h1.92188v12.29688zM294.04666,199.92958v-1.875h6.23438v1.875zM302.03879,207.85146v-9.79687h1.9375v3.07813l-0.1875,-0.75c0.13542,-0.46875 0.36979,-0.89583 0.70313,-1.28125c0.33333,-0.38542 0.71354,-0.6875 1.14063,-0.90625c0.42708,-0.22917 0.86979,-0.34375 1.32813,-0.34375c0.20833,0 0.40625,0.02083 0.59375,0.0625c0.19792,0.03125 0.35417,0.07292 0.46875,0.125l-0.5,2.09375c-0.14583,-0.0625 -0.3125,-0.11458 -0.5,-0.15625c-0.17708,-0.05208 -0.35417,-0.07812 -0.53125,-0.07812c-0.33333,0 -0.65104,0.06771 -0.95312,0.20313c-0.30208,0.125 -0.57292,0.30729 -0.8125,0.54688c-0.22917,0.22917 -0.41146,0.49479 -0.54687,0.79688c-0.13542,0.30208 -0.20312,0.63542 -0.20312,1v5.40625zM311.19788,212.14833l1.98438,-4.57812l0.01563,1.53125l-4.89062,-11.04687h2.23438l3.0625,7.20313c0.0625,0.125 0.13542,0.31771 0.21875,0.57813c0.09375,0.25 0.17188,0.5 0.23438,0.75l-0.48437,0.10938c0.09375,-0.26042 0.1875,-0.52083 0.28125,-0.78125c0.09375,-0.26042 0.18229,-0.52083 0.26563,-0.78125l2.5625,-7.07812h2.28125l-4.03125,9.79688l-1.65625,4.29688zM330.18277,208.03896c-1,0 -1.89062,-0.21354 -2.67187,-0.64062c-0.77083,-0.42708 -1.38021,-1.01562 -1.82812,-1.76562c-0.4375,-0.75 -0.65625,-1.60937 -0.65625,-2.57812c0,-0.77083 0.125,-1.47396 0.375,-2.10937c0.25,-0.63542 0.59375,-1.18229 1.03125,-1.64062c0.4375,-0.46875 0.96354,-0.82812 1.57813,-1.07812c0.625,-0.26042 1.29688,-0.39062 2.01563,-0.39062c0.63542,0 1.22396,0.11979 1.76563,0.35938c0.55208,0.23958 1.02604,0.57292 1.42188,1c0.40625,0.42708 0.71875,0.93229 0.9375,1.51563c0.21875,0.57292 0.32292,1.19792 0.3125,1.875l-0.01562,0.82813h-8l-0.4375,-1.53125h6.76563l-0.26562,0.3125v-0.4375c-0.04167,-0.41667 -0.18229,-0.78646 -0.42187,-1.10937c-0.22917,-0.32292 -0.52604,-0.57812 -0.89062,-0.76562c-0.36458,-0.1875 -0.75521,-0.28125 -1.17187,-0.28125c-0.67708,0 -1.24479,0.13021 -1.70312,0.39063c-0.45833,0.25 -0.80729,0.625 -1.04687,1.125c-0.22917,0.48958 -0.34375,1.09375 -0.34375,1.8125c0,0.67708 0.14063,1.27083 0.42188,1.78125c0.28125,0.5 0.68229,0.89063 1.20313,1.17188c0.53125,0.27083 1.13542,0.40625 1.8125,0.40625c0.48958,0 0.94271,-0.07812 1.35938,-0.23437c0.41667,-0.16667 0.86979,-0.46354 1.35938,-0.89062l0.96875,1.35938c-0.30208,0.30208 -0.66667,0.56771 -1.09375,0.79688c-0.42708,0.21875 -0.88021,0.39583 -1.35937,0.53125c-0.47917,0.125 -0.95312,0.1875 -1.42187,0.1875zM336.55286,207.85146v-9.79687h1.92188v2.01563l-0.34375,0.21875c0.125,-0.42708 0.36979,-0.82292 0.73438,-1.1875c0.36458,-0.375 0.79167,-0.67708 1.28125,-0.90625c0.5,-0.22917 1.01042,-0.34375 1.53125,-0.34375c0.75,0 1.36979,0.14583 1.85938,0.4375c0.5,0.29167 0.875,0.73958 1.125,1.34375c0.25,0.59375 0.375,1.34375 0.375,2.25v5.96875h-1.92187v-5.84375c0,-0.55208 -0.07292,-1.01042 -0.21875,-1.375c-0.14583,-0.375 -0.375,-0.64583 -0.6875,-0.8125c-0.3125,-0.16667 -0.69792,-0.23958 -1.15625,-0.21875c-0.375,0 -0.71875,0.0625 -1.03125,0.1875c-0.3125,0.11458 -0.58333,0.28125 -0.8125,0.5c-0.22917,0.20833 -0.41146,0.45313 -0.54687,0.73438c-0.125,0.27083 -0.1875,0.56771 -0.1875,0.89063v5.9375h-0.95312c-0.15625,0 -0.31771,0 -0.48437,0c-0.16667,0 -0.32812,0 -0.48437,0zM348.87207,207.85146v-12.29687h1.92188v12.29688zM346.8252,199.92958v-1.875h6.23438v1.875zM359.28647,208.03896c-1,0 -1.89062,-0.21354 -2.67187,-0.64062c-0.77083,-0.42708 -1.38021,-1.01562 -1.82812,-1.76562c-0.4375,-0.75 -0.65625,-1.60937 -0.65625,-2.57812c0,-0.77083 0.125,-1.47396 0.375,-2.10937c0.25,-0.63542 0.59375,-1.18229 1.03125,-1.64062c0.4375,-0.46875 0.96354,-0.82812 1.57813,-1.07812c0.625,-0.26042 1.29688,-0.39062 2.01563,-0.39062c0.63542,0 1.22396,0.11979 1.76563,0.35938c0.55208,0.23958 1.02604,0.57292 1.42188,1c0.40625,0.42708 0.71875,0.93229 0.9375,1.51563c0.21875,0.57292 0.32292,1.19792 0.3125,1.875l-0.01562,0.82813h-8l-0.4375,-1.53125h6.76563l-0.26562,0.3125v-0.4375c-0.04167,-0.41667 -0.18229,-0.78646 -0.42187,-1.10937c-0.22917,-0.32292 -0.52604,-0.57812 -0.89062,-0.76562c-0.36458,-0.1875 -0.75521,-0.28125 -1.17187,-0.28125c-0.67708,0 -1.24479,0.13021 -1.70312,0.39063c-0.45833,0.25 -0.80729,0.625 -1.04687,1.125c-0.22917,0.48958 -0.34375,1.09375 -0.34375,1.8125c0,0.67708 0.14063,1.27083 0.42188,1.78125c0.28125,0.5 0.68229,0.89063 1.20313,1.17188c0.53125,0.27083 1.13542,0.40625 1.8125,0.40625c0.48958,0 0.94271,-0.07812 1.35938,-0.23437c0.41667,-0.16667 0.86979,-0.46354 1.35938,-0.89062l0.96875,1.35938c-0.30208,0.30208 -0.66667,0.56771 -1.09375,0.79688c-0.42708,0.21875 -0.88021,0.39583 -1.35937,0.53125c-0.47917,0.125 -0.95312,0.1875 -1.42187,0.1875zM365.65653,207.85146v-9.79687h1.9375v3.07813l-0.1875,-0.75c0.13542,-0.46875 0.36979,-0.89583 0.70313,-1.28125c0.33333,-0.38542 0.71354,-0.6875 1.14063,-0.90625c0.42708,-0.22917 0.86979,-0.34375 1.32813,-0.34375c0.20833,0 0.40625,0.02083 0.59375,0.0625c0.19792,0.03125 0.35417,0.07292 0.46875,0.125l-0.5,2.09375c-0.14583,-0.0625 -0.3125,-0.11458 -0.5,-0.15625c-0.17708,-0.05208 -0.35417,-0.07812 -0.53125,-0.07812c-0.33333,0 -0.65104,0.06771 -0.95312,0.20313c-0.30208,0.125 -0.57292,0.30729 -0.8125,0.54688c-0.22917,0.22917 -0.41146,0.49479 -0.54687,0.79688c-0.13542,0.30208 -0.20312,0.63542 -0.20312,1v5.40625zM373.48749,207.85146v-9.79687h1.92188v9.79688zM374.42499,195.89833c-0.40625,0 -0.72396,-0.10417 -0.95312,-0.3125c-0.21875,-0.21875 -0.32812,-0.52083 -0.32812,-0.90625c0,-0.36458 0.11458,-0.65625 0.34375,-0.875c0.22917,-0.22917 0.54167,-0.34375 0.9375,-0.34375c0.40625,0 0.71875,0.10938 0.9375,0.32813c0.22917,0.20833 0.34375,0.50521 0.34375,0.89063c0,0.36458 -0.11458,0.66146 -0.34375,0.89063c-0.22917,0.21875 -0.54167,0.32813 -0.9375,0.32813zM378.36142,207.85146v-9.79687h1.92188v2.01563l-0.34375,0.21875c0.125,-0.42708 0.36979,-0.82292 0.73438,-1.1875c0.36458,-0.375 0.79167,-0.67708 1.28125,-0.90625c0.5,-0.22917 1.01042,-0.34375 1.53125,-0.34375c0.75,0 1.36979,0.14583 1.85938,0.4375c0.5,0.29167 0.875,0.73958 1.125,1.34375c0.25,0.59375 0.375,1.34375 0.375,2.25v5.96875h-1.92187v-5.84375c0,-0.55208 -0.07292,-1.01042 -0.21875,-1.375c-0.14583,-0.375 -0.375,-0.64583 -0.6875,-0.8125c-0.3125,-0.16667 -0.69792,-0.23958 -1.15625,-0.21875c-0.375,0 -0.71875,0.0625 -1.03125,0.1875c-0.3125,0.11458 -0.58333,0.28125 -0.8125,0.5c-0.22917,0.20833 -0.41146,0.45313 -0.54687,0.73438c-0.125,0.27083 -0.1875,0.56771 -0.1875,0.89063v5.9375h-0.95312c-0.15625,0 -0.31771,0 -0.48437,0c-0.16667,0 -0.32812,0 -0.48437,0zM393.85251,212.14833c-0.69792,0 -1.39583,-0.10937 -2.09375,-0.32812c-0.6875,-0.21875 -1.23958,-0.50521 -1.65625,-0.85937l0.70313,-1.48437c0.25,0.1875 0.54167,0.34896 0.875,0.48438c0.33333,0.14583 0.6875,0.26042 1.0625,0.34375c0.375,0.08333 0.74479,0.125 1.10938,0.125c0.67708,0 1.24479,-0.11458 1.70313,-0.34375c0.46875,-0.21875 0.81771,-0.54687 1.04688,-0.98437c0.23958,-0.4375 0.35938,-0.97917 0.35938,-1.625v-1.875l0.20313,0.125c-0.0625,0.38542 -0.26562,0.75521 -0.60937,1.10938c-0.34375,0.35417 -0.77083,0.64583 -1.28125,0.875c-0.5,0.21875 -1.02083,0.32813 -1.5625,0.32813c-0.92708,0 -1.75521,-0.21875 -2.48437,-0.65625c-0.72917,-0.44792 -1.30729,-1.05208 -1.73437,-1.8125c-0.41667,-0.77083 -0.625,-1.64583 -0.625,-2.625c0,-0.97917 0.20833,-1.84896 0.625,-2.60937c0.41667,-0.77083 0.98438,-1.375 1.70313,-1.8125c0.72917,-0.44792 1.55208,-0.67187 2.46875,-0.67187c0.36458,0 0.71875,0.04688 1.0625,0.14063c0.35417,0.09375 0.68229,0.22396 0.98438,0.39063c0.30208,0.16667 0.56771,0.34896 0.79688,0.54688c0.23958,0.19792 0.43229,0.41146 0.57813,0.64063c0.15625,0.21875 0.25,0.42708 0.28125,0.625l-0.40625,0.15625v-2.29687h1.92188v9.20313c0,0.78125 -0.11458,1.47396 -0.34375,2.07813c-0.22917,0.60417 -0.5625,1.11458 -1,1.53125c-0.4375,0.41667 -0.96875,0.73438 -1.59375,0.95313c-0.61458,0.21875 -1.3125,0.32813 -2.09375,0.32813zM393.91501,206.27333c0.61458,0 1.15625,-0.14062 1.625,-0.42187c0.47917,-0.29167 0.84896,-0.6875 1.10938,-1.1875c0.26042,-0.5 0.39063,-1.07292 0.39063,-1.71875c0,-0.64583 -0.13542,-1.21875 -0.40625,-1.71875c-0.27083,-0.51042 -0.64062,-0.90625 -1.10937,-1.1875c-0.45833,-0.29167 -0.99479,-0.4375 -1.60937,-0.4375c-0.59375,0 -1.125,0.14583 -1.59375,0.4375c-0.46875,0.29167 -0.83854,0.69271 -1.10937,1.20313c-0.26042,0.5 -0.39062,1.06771 -0.39062,1.70313c0,0.63542 0.13021,1.20833 0.39063,1.71875c0.27083,0.5 0.64063,0.89583 1.10938,1.1875c0.46875,0.28125 1,0.42188 1.59375,0.42188z" fill="#ffffff" fill-rule="nonzero" stroke-width="1" stroke-linecap="square"/><path d="M79.46733,230.43895c-0.80208,0 -1.53646,-0.22396 -2.20312,-0.67187c-0.66667,-0.44792 -1.20312,-1.05729 -1.60937,-1.82812c-0.39583,-0.77083 -0.59375,-1.64062 -0.59375,-2.60937c0,-0.98958 0.20313,-1.86458 0.60938,-2.625c0.40625,-0.76042 0.95313,-1.35937 1.64063,-1.79687c0.69792,-0.4375 1.47396,-0.65625 2.32813,-0.65625c0.51042,0 0.97396,0.07813 1.39063,0.23438c0.42708,0.14583 0.79688,0.35417 1.10938,0.625c0.32292,0.26042 0.58333,0.56771 0.78125,0.92188c0.20833,0.34375 0.33854,0.71354 0.39063,1.10938l-0.42187,-0.14062v-2.54687h1.9375v9.79688h-1.9375v-2.32812l0.4375,-0.14062c-0.07292,0.34375 -0.22396,0.67708 -0.45312,1c-0.22917,0.3125 -0.52083,0.59375 -0.875,0.84375c-0.35417,0.23958 -0.74479,0.4375 -1.17187,0.59375c-0.42708,0.14583 -0.88021,0.21875 -1.35937,0.21875zM79.96733,228.67332c0.59375,0 1.10938,-0.14062 1.54688,-0.42187c0.44792,-0.29167 0.79688,-0.6875 1.04688,-1.1875c0.26042,-0.51042 0.39063,-1.08854 0.39063,-1.73437c0,-0.63542 -0.13021,-1.20312 -0.39062,-1.70312c-0.25,-0.5 -0.59896,-0.89062 -1.04687,-1.17187c-0.4375,-0.29167 -0.95312,-0.4375 -1.54687,-0.4375c-0.57292,0 -1.07812,0.14583 -1.51562,0.4375c-0.4375,0.28125 -0.78646,0.67188 -1.04687,1.17188c-0.25,0.5 -0.375,1.06771 -0.375,1.70313c0,0.64583 0.125,1.22396 0.375,1.73438c0.26042,0.5 0.60938,0.89583 1.04688,1.1875c0.4375,0.28125 0.94271,0.42188 1.51563,0.42188zM91.90173,234.54832c-0.69792,0 -1.39583,-0.10937 -2.09375,-0.32812c-0.6875,-0.21875 -1.23958,-0.50521 -1.65625,-0.85937l0.70312,-1.48437c0.25,0.1875 0.54167,0.34896 0.875,0.48438c0.33333,0.14583 0.6875,0.26042 1.0625,0.34375c0.375,0.08333 0.74479,0.125 1.10938,0.125c0.67708,0 1.24479,-0.11458 1.70313,-0.34375c0.46875,-0.21875 0.81771,-0.54687 1.04688,-0.98437c0.23958,-0.4375 0.35938,-0.97917 0.35938,-1.625v-1.875l0.20313,0.125c-0.0625,0.38542 -0.26562,0.75521 -0.60937,1.10938c-0.34375,0.35417 -0.77083,0.64583 -1.28125,0.875c-0.5,0.21875 -1.02083,0.32813 -1.5625,0.32813c-0.92708,0 -1.75521,-0.21875 -2.48437,-0.65625c-0.72917,-0.44792 -1.30729,-1.05208 -1.73437,-1.8125c-0.41667,-0.77083 -0.625,-1.64583 -0.625,-2.625c0,-0.97917 0.20833,-1.84896 0.625,-2.60937c0.41667,-0.77083 0.98437,-1.375 1.70312,-1.8125c0.72917,-0.44792 1.55208,-0.67187 2.46875,-0.67187c0.36458,0 0.71875,0.04688 1.0625,0.14063c0.35417,0.09375 0.68229,0.22396 0.98438,0.39063c0.30208,0.16667 0.56771,0.34896 0.79688,0.54688c0.23958,0.19792 0.43229,0.41146 0.57813,0.64063c0.15625,0.21875 0.25,0.42708 0.28125,0.625l-0.40625,0.15625v-2.29687h1.92188v9.20313c0,0.78125 -0.11458,1.47396 -0.34375,2.07813c-0.22917,0.60417 -0.5625,1.11458 -1,1.53125c-0.4375,0.41667 -0.96875,0.73438 -1.59375,0.95313c-0.61458,0.21875 -1.3125,0.32813 -2.09375,0.32813zM91.96423,228.67332c0.61458,0 1.15625,-0.14062 1.625,-0.42187c0.47917,-0.29167 0.84896,-0.6875 1.10938,-1.1875c0.26042,-0.5 0.39063,-1.07292 0.39063,-1.71875c0,-0.64583 -0.13542,-1.21875 -0.40625,-1.71875c-0.27083,-0.51042 -0.64062,-0.90625 -1.10937,-1.1875c-0.45833,-0.29167 -0.99479,-0.4375 -1.60937,-0.4375c-0.59375,0 -1.125,0.14583 -1.59375,0.4375c-0.46875,0.29167 -0.83854,0.69271 -1.10937,1.20313c-0.26042,0.5 -0.39062,1.06771 -0.39062,1.70313c0,0.63542 0.13021,1.20833 0.39063,1.71875c0.27083,0.5 0.64063,0.89583 1.10938,1.1875c0.46875,0.28125 1,0.42188 1.59375,0.42188zM103.38464,230.43895c-0.80208,0 -1.53646,-0.22396 -2.20312,-0.67187c-0.66667,-0.44792 -1.20312,-1.05729 -1.60937,-1.82812c-0.39583,-0.77083 -0.59375,-1.64062 -0.59375,-2.60937c0,-0.98958 0.20313,-1.86458 0.60938,-2.625c0.40625,-0.76042 0.95313,-1.35937 1.64063,-1.79687c0.69792,-0.4375 1.47396,-0.65625 2.32813,-0.65625c0.51042,0 0.97397,0.07813 1.39063,0.23438c0.42708,0.14583 0.79688,0.35417 1.10938,0.625c0.32292,0.26042 0.58333,0.56771 0.78125,0.92188c0.20833,0.34375 0.33854,0.71354 0.39063,1.10938l-0.42187,-0.14062v-2.54687h1.9375v9.79688h-1.9375v-2.32812l0.4375,-0.14062c-0.07292,0.34375 -0.22396,0.67708 -0.45312,1c-0.22917,0.3125 -0.52083,0.59375 -0.875,0.84375c-0.35417,0.23958 -0.74479,0.4375 -1.17187,0.59375c-0.42709,0.14583 -0.88022,0.21875 -1.35938,0.21875zM103.88464,228.67332c0.59376,0 1.10938,-0.14062 1.54688,-0.42187c0.44792,-0.29167 0.79688,-0.6875 1.04688,-1.1875c0.26042,-0.51042 0.39063,-1.08854 0.39063,-1.73437c0,-0.63542 -0.13021,-1.20312 -0.39062,-1.70312c-0.25,-0.5 -0.59896,-0.89062 -1.04687,-1.17187c-0.4375,-0.29167 -0.95313,-0.4375 -1.54688,-0.4375c-0.57292,0 -1.07812,0.14583 -1.51562,0.4375c-0.4375,0.28125 -0.78646,0.67188 -1.04687,1.17188c-0.25,0.5 -0.375,1.06771 -0.375,1.70313c0,0.64583 0.125,1.22396 0.375,1.73438c0.26042,0.5 0.60938,0.89583 1.04688,1.1875c0.4375,0.28125 0.94271,0.42188 1.51563,0.42188zM111.74092,230.25145v-9.79687h1.92188v9.79688zM112.67842,218.29832c-0.40625,0 -0.72396,-0.10417 -0.95312,-0.3125c-0.21875,-0.21875 -0.32812,-0.52083 -0.32812,-0.90625c0,-0.36458 0.11458,-0.65625 0.34375,-0.875c0.22917,-0.22917 0.54167,-0.34375 0.9375,-0.34375c0.40625,0 0.71875,0.10938 0.9375,0.32813c0.22917,0.20833 0.34375,0.50521 0.34375,0.89063c0,0.36458 -0.11458,0.66146 -0.34375,0.89063c-0.22917,0.21875 -0.54167,0.32813 -0.9375,0.32813zM116.61486,230.25145v-9.79687h1.92188v2.01563l-0.34375,0.21875c0.125,-0.42708 0.36979,-0.82292 0.73438,-1.1875c0.36458,-0.375 0.79167,-0.67708 1.28125,-0.90625c0.5,-0.22917 1.01042,-0.34375 1.53125,-0.34375c0.75,0 1.36979,0.14583 1.85938,0.4375c0.5,0.29167 0.875,0.73958 1.125,1.34375c0.25,0.59375 0.375,1.34375 0.375,2.25v5.96875h-1.92187v-5.84375c0,-0.55208 -0.07292,-1.01042 -0.21875,-1.375c-0.14583,-0.375 -0.375,-0.64583 -0.6875,-0.8125c-0.3125,-0.16667 -0.69792,-0.23958 -1.15625,-0.21875c-0.375,0 -0.71875,0.0625 -1.03125,0.1875c-0.3125,0.11458 -0.58333,0.28125 -0.8125,0.5c-0.22917,0.20833 -0.41146,0.45313 -0.54687,0.73438c-0.125,0.27083 -0.1875,0.56771 -0.1875,0.89063v5.9375h-0.95312c-0.15625,0 -0.31771,0 -0.48437,0c-0.16667,0 -0.32812,0 -0.48437,0zM128.49657,230.45457c-0.40625,0 -0.72396,-0.11979 -0.95312,-0.35937c-0.21875,-0.23958 -0.32812,-0.58333 -0.32812,-1.03125c0,-0.41667 0.11458,-0.75521 0.34375,-1.01562c0.23958,-0.26042 0.55208,-0.39062 0.9375,-0.39062c0.41667,0 0.73438,0.125 0.95313,0.375c0.22917,0.23958 0.34375,0.58333 0.34375,1.03125c0,0.40625 -0.11979,0.73958 -0.35937,1c-0.23958,0.26042 -0.55208,0.39063 -0.9375,0.39063z" fill="#ffffff" fill-rule="nonzero" stroke-width="1" stroke-linecap="square"/><path d="M80.4052,239.78972h395.81104v42.01575h-395.81104z" fill-opacity="0" fill="#000000" fill-rule="evenodd" stroke-width="1" stroke-linecap="square"/><path d="M91.23332,266.70972v-13.0625h5.3125c0.70833,0 1.34896,0.17708 1.92188,0.53125c0.58333,0.35417 1.04688,0.83854 1.39063,1.45312c0.35417,0.60417 0.53125,1.28125 0.53125,2.03125c0,0.75 -0.17708,1.43229 -0.53125,2.04688c-0.34375,0.60417 -0.80729,1.08854 -1.39062,1.45313c-0.57292,0.36458 -1.21354,0.54688 -1.92187,0.54688h-3.29687v5zM93.24895,259.77222h3.26563c0.33333,0 0.63542,-0.09375 0.90625,-0.28125c0.28125,-0.19792 0.50521,-0.45312 0.67188,-0.76562c0.16667,-0.32292 0.25,-0.67708 0.25,-1.0625c0,-0.38542 -0.08333,-0.73437 -0.25,-1.04687c-0.16667,-0.3125 -0.39062,-0.5625 -0.67187,-0.75c-0.27083,-0.1875 -0.57292,-0.28125 -0.90625,-0.28125h-3.26562zM106.15597,266.89722c-0.80208,0 -1.53646,-0.22396 -2.20312,-0.67187c-0.66667,-0.44792 -1.20312,-1.05729 -1.60937,-1.82812c-0.39583,-0.77083 -0.59375,-1.64062 -0.59375,-2.60937c0,-0.98958 0.20313,-1.86458 0.60938,-2.625c0.40625,-0.76042 0.95313,-1.35937 1.64063,-1.79687c0.69792,-0.4375 1.47396,-0.65625 2.32813,-0.65625c0.51042,0 0.97396,0.07813 1.39063,0.23438c0.42708,0.14583 0.79688,0.35417 1.10938,0.625c0.32292,0.26042 0.58333,0.56771 0.78125,0.92188c0.20833,0.34375 0.33854,0.71354 0.39063,1.10938l-0.42187,-0.14062v-2.54687h1.9375v9.79688h-1.9375v-2.32812l0.4375,-0.14062c-0.07292,0.34375 -0.22396,0.67708 -0.45312,1c-0.22917,0.3125 -0.52083,0.59375 -0.875,0.84375c-0.35417,0.23958 -0.74479,0.4375 -1.17187,0.59375c-0.42708,0.14583 -0.88021,0.21875 -1.35937,0.21875zM106.65597,265.13159c0.59375,0 1.10938,-0.14062 1.54688,-0.42187c0.44792,-0.29167 0.79688,-0.6875 1.04688,-1.1875c0.26042,-0.51042 0.39063,-1.08854 0.39063,-1.73437c0,-0.63542 -0.13021,-1.20312 -0.39062,-1.70312c-0.25,-0.5 -0.59896,-0.89062 -1.04687,-1.17187c-0.4375,-0.29167 -0.95312,-0.4375 -1.54687,-0.4375c-0.57292,0 -1.07812,0.14583 -1.51562,0.4375c-0.4375,0.28125 -0.78646,0.67188 -1.04687,1.17188c-0.25,0.5 -0.375,1.06771 -0.375,1.70313c0,0.64583 0.125,1.22396 0.375,1.73438c0.26042,0.5 0.60938,0.89583 1.04688,1.1875c0.4375,0.28125 0.94271,0.42188 1.51563,0.42188zM117.46538,266.89722c-0.82292,0 -1.5625,-0.14062 -2.21875,-0.42187c-0.65625,-0.29167 -1.20312,-0.71875 -1.64062,-1.28125l1.29688,-1.10937c0.375,0.42708 0.78125,0.73958 1.21875,0.9375c0.44792,0.1875 0.95313,0.28125 1.51563,0.28125c0.21875,0 0.42188,-0.02604 0.60938,-0.07812c0.19792,-0.05208 0.36979,-0.13542 0.51563,-0.25c0.14583,-0.11458 0.25521,-0.25 0.32813,-0.40625c0.07292,-0.15625 0.10938,-0.32812 0.10938,-0.51562c0,-0.32292 -0.11979,-0.58333 -0.35937,-0.78125c-0.125,-0.08333 -0.32292,-0.17708 -0.59375,-0.28125c-0.26042,-0.10417 -0.60417,-0.21354 -1.03125,-0.32812c-0.71875,-0.1875 -1.30729,-0.39583 -1.76562,-0.625c-0.45833,-0.23958 -0.8125,-0.51042 -1.0625,-0.8125c-0.1875,-0.23958 -0.32812,-0.49479 -0.42187,-0.76562c-0.08333,-0.28125 -0.125,-0.59375 -0.125,-0.9375c0,-0.40625 0.08854,-0.78125 0.26563,-1.125c0.1875,-0.34375 0.4375,-0.64062 0.75,-0.89062c0.32292,-0.26042 0.69792,-0.45833 1.125,-0.59375c0.42708,-0.13542 0.88542,-0.20312 1.375,-0.20312c0.45833,0 0.91146,0.0625 1.35938,0.1875c0.45833,0.125 0.88021,0.30729 1.26563,0.54688c0.38542,0.22917 0.70833,0.50521 0.96875,0.82813l-1.09375,1.21875c-0.23958,-0.23958 -0.5,-0.44792 -0.78125,-0.625c-0.28125,-0.17708 -0.56771,-0.3125 -0.85937,-0.40625c-0.28125,-0.10417 -0.53646,-0.15625 -0.76562,-0.15625c-0.26042,0 -0.5,0.02604 -0.71875,0.07813c-0.20833,0.04167 -0.38542,0.11458 -0.53125,0.21875c-0.13542,0.09375 -0.24479,0.21875 -0.32812,0.375c-0.07292,0.14583 -0.10937,0.3125 -0.10937,0.5c0.01042,0.15625 0.05208,0.30729 0.125,0.45313c0.07292,0.14583 0.17188,0.26563 0.29688,0.35938c0.13542,0.10417 0.33854,0.21354 0.60938,0.32813c0.27083,0.10417 0.61979,0.20833 1.04688,0.3125c0.61458,0.15625 1.125,0.33333 1.53125,0.53125c0.40625,0.1875 0.72917,0.40625 0.96875,0.65625c0.25,0.23958 0.42188,0.51563 0.51563,0.82813c0.10417,0.3125 0.15625,0.66146 0.15625,1.04688c0,0.55208 -0.16146,1.05208 -0.48437,1.5c-0.3125,0.4375 -0.73958,0.78125 -1.28125,1.03125c-0.53125,0.25 -1.125,0.375 -1.78125,0.375zM126.40172,266.89722c-0.82292,0 -1.5625,-0.14062 -2.21875,-0.42187c-0.65625,-0.29167 -1.20312,-0.71875 -1.64062,-1.28125l1.29688,-1.10937c0.375,0.42708 0.78125,0.73958 1.21875,0.9375c0.44792,0.1875 0.95313,0.28125 1.51563,0.28125c0.21875,0 0.42188,-0.02604 0.60938,-0.07812c0.19792,-0.05208 0.36979,-0.13542 0.51563,-0.25c0.14583,-0.11458 0.25521,-0.25 0.32813,-0.40625c0.07292,-0.15625 0.10938,-0.32812 0.10938,-0.51562c0,-0.32292 -0.11979,-0.58333 -0.35937,-0.78125c-0.125,-0.08333 -0.32292,-0.17708 -0.59375,-0.28125c-0.26042,-0.10417 -0.60417,-0.21354 -1.03125,-0.32812c-0.71875,-0.1875 -1.30729,-0.39583 -1.76562,-0.625c-0.45833,-0.23958 -0.8125,-0.51042 -1.0625,-0.8125c-0.1875,-0.23958 -0.32812,-0.49479 -0.42187,-0.76562c-0.08333,-0.28125 -0.125,-0.59375 -0.125,-0.9375c0,-0.40625 0.08854,-0.78125 0.26563,-1.125c0.1875,-0.34375 0.4375,-0.64062 0.75,-0.89062c0.32292,-0.26042 0.69792,-0.45833 1.125,-0.59375c0.42708,-0.13542 0.88542,-0.20312 1.375,-0.20312c0.45833,0 0.91146,0.0625 1.35938,0.1875c0.45833,0.125 0.88021,0.30729 1.26563,0.54688c0.38542,0.22917 0.70833,0.50521 0.96875,0.82813l-1.09375,1.21875c-0.23958,-0.23958 -0.5,-0.44792 -0.78125,-0.625c-0.28125,-0.17708 -0.56771,-0.3125 -0.85937,-0.40625c-0.28125,-0.10417 -0.53646,-0.15625 -0.76562,-0.15625c-0.26042,0 -0.5,0.02604 -0.71875,0.07813c-0.20833,0.04167 -0.38542,0.11458 -0.53125,0.21875c-0.13542,0.09375 -0.24479,0.21875 -0.32812,0.375c-0.07292,0.14583 -0.10937,0.3125 -0.10937,0.5c0.01042,0.15625 0.05208,0.30729 0.125,0.45313c0.07292,0.14583 0.17188,0.26563 0.29688,0.35938c0.13542,0.10417 0.33854,0.21354 0.60938,0.32813c0.27083,0.10417 0.61979,0.20833 1.04688,0.3125c0.61458,0.15625 1.125,0.33333 1.53125,0.53125c0.40625,0.1875 0.72917,0.40625 0.96875,0.65625c0.25,0.23958 0.42188,0.51563 0.51563,0.82813c0.10417,0.3125 0.15625,0.66146 0.15625,1.04688c0,0.55208 -0.16146,1.05208 -0.48438,1.5c-0.3125,0.4375 -0.73958,0.78125 -1.28125,1.03125c-0.53125,0.25 -1.125,0.375 -1.78125,0.375zM134.47868,266.70972l-3.34375,-9.79687l1.9375,-0.01562l2.39063,7.32813l-0.42187,-0.03125l2.59375,-5.73437h1.15625l2.60938,5.75l-0.5,0.03125l2.40625,-7.32812h1.9375l-3.29687,9.79688h-1.32812l-2.73437,-6.23437l0.4375,0.0625l-2.53125,6.17188zM151.12369,266.89722c-0.95833,0 -1.81771,-0.21875 -2.57812,-0.65625c-0.75,-0.44792 -1.34375,-1.05208 -1.78125,-1.8125c-0.42708,-0.77083 -0.64062,-1.64583 -0.64062,-2.625c0,-0.97917 0.21354,-1.84896 0.64063,-2.60937c0.4375,-0.77083 1.03125,-1.375 1.78125,-1.8125c0.76042,-0.44792 1.61979,-0.67187 2.57813,-0.67187c0.9375,0 1.78125,0.22396 2.53125,0.67188c0.76042,0.4375 1.35938,1.04167 1.79688,1.8125c0.4375,0.76042 0.65625,1.63021 0.65625,2.60938c0,0.97917 -0.21875,1.85417 -0.65625,2.625c-0.4375,0.76042 -1.03646,1.36458 -1.79687,1.8125c-0.75,0.4375 -1.59375,0.65625 -2.53125,0.65625zM151.12369,265.14722c0.58333,0 1.10417,-0.14583 1.5625,-0.4375c0.45833,-0.29167 0.81771,-0.6875 1.07813,-1.1875c0.26042,-0.51042 0.38542,-1.08333 0.375,-1.71875c0.01042,-0.64583 -0.11458,-1.21875 -0.375,-1.71875c-0.26042,-0.51042 -0.61979,-0.90625 -1.07812,-1.1875c-0.45833,-0.29167 -0.97917,-0.4375 -1.5625,-0.4375c-0.58333,0 -1.10937,0.14583 -1.57812,0.4375c-0.46875,0.29167 -0.83333,0.69271 -1.09375,1.20313c-0.26042,0.5 -0.38542,1.06771 -0.375,1.70313c-0.01042,0.63542 0.11458,1.20833 0.375,1.71875c0.26042,0.5 0.625,0.89583 1.09375,1.1875c0.46875,0.29167 0.99479,0.4375 1.57813,0.4375zM158.19104,266.70972v-9.79687h1.9375v3.07813l-0.1875,-0.75c0.13542,-0.46875 0.36979,-0.89583 0.70313,-1.28125c0.33333,-0.38542 0.71354,-0.6875 1.14063,-0.90625c0.42708,-0.22917 0.86979,-0.34375 1.32813,-0.34375c0.20833,0 0.40625,0.02083 0.59375,0.0625c0.19792,0.03125 0.35417,0.07292 0.46875,0.125l-0.5,2.09375c-0.14583,-0.0625 -0.3125,-0.11458 -0.5,-0.15625c-0.17708,-0.05208 -0.35417,-0.07812 -0.53125,-0.07812c-0.33333,0 -0.65104,0.06771 -0.95312,0.20313c-0.30208,0.125 -0.57292,0.30729 -0.8125,0.54688c-0.22917,0.22917 -0.41146,0.49479 -0.54687,0.79688c-0.13542,0.30208 -0.20312,0.63542 -0.20312,1v5.40625zM169.37697,266.89722c-0.89583,0 -1.69271,-0.21875 -2.39062,-0.65625c-0.69792,-0.44792 -1.25521,-1.05208 -1.67187,-1.8125c-0.40625,-0.77083 -0.60937,-1.64583 -0.60937,-2.625c0,-0.97917 0.19792,-1.84896 0.59375,-2.60937c0.40625,-0.77083 0.95833,-1.375 1.65625,-1.8125c0.69792,-0.44792 1.48958,-0.67187 2.375,-0.67187c0.47917,0 0.94792,0.07813 1.40625,0.23438c0.45833,0.15625 0.86458,0.36979 1.21875,0.64063c0.36458,0.26042 0.64583,0.55208 0.84375,0.875c0.20833,0.3125 0.3125,0.63021 0.3125,0.95313l-0.5625,0.04688v-6.5625h1.92188v13.8125h-1.92187v-2.32812h0.375c0,0.29167 -0.09896,0.58854 -0.29687,0.89063c-0.19792,0.29167 -0.46354,0.5625 -0.79687,0.8125c-0.32292,0.23958 -0.70312,0.4375 -1.14062,0.59375c-0.42708,0.14583 -0.86458,0.21875 -1.3125,0.21875zM169.64259,265.24097c0.58333,0 1.09896,-0.15104 1.54688,-0.45312c0.44792,-0.30208 0.79688,-0.70833 1.04688,-1.21875c0.26042,-0.52083 0.39063,-1.10937 0.39063,-1.76562c0,-0.65625 -0.13021,-1.23958 -0.39062,-1.75c-0.25,-0.52083 -0.59896,-0.93229 -1.04687,-1.23437c-0.44792,-0.30208 -0.96354,-0.45312 -1.54687,-0.45312c-0.58333,0 -1.09896,0.15104 -1.54687,0.45313c-0.44792,0.30208 -0.80208,0.71354 -1.0625,1.23438c-0.25,0.51042 -0.375,1.09375 -0.375,1.75c0,0.65625 0.125,1.24479 0.375,1.76563c0.26042,0.51042 0.61458,0.91667 1.0625,1.21875c0.44792,0.30208 0.96354,0.45313 1.54688,0.45313zM188.13191,266.89722c-0.90625,0 -1.73958,-0.16146 -2.5,-0.48437c-0.76042,-0.32292 -1.42187,-0.78646 -1.98437,-1.39062c-0.55208,-0.60417 -0.98437,-1.31771 -1.29687,-2.14062c-0.30208,-0.82292 -0.45312,-1.72396 -0.45312,-2.70312c0,-0.92708 0.16667,-1.79167 0.5,-2.59375c0.33333,-0.80208 0.79167,-1.50521 1.375,-2.10937c0.58333,-0.61458 1.26042,-1.08854 2.03125,-1.42187c0.77083,-0.34375 1.60417,-0.51562 2.5,-0.51562c0.63542,0 1.25521,0.09896 1.85938,0.29688c0.60417,0.1875 1.15104,0.45313 1.64063,0.79687c0.48958,0.34375 0.89063,0.73438 1.20313,1.17188l-1.34375,1.39063c-0.36458,-0.36458 -0.72917,-0.66667 -1.09375,-0.90625c-0.36458,-0.23958 -0.73958,-0.42187 -1.125,-0.54687c-0.375,-0.125 -0.75521,-0.1875 -1.14062,-0.1875c-0.61458,0 -1.1875,0.11458 -1.71875,0.34375c-0.52083,0.22917 -0.97917,0.55208 -1.375,0.96875c-0.38542,0.40625 -0.69271,0.89583 -0.92187,1.46875c-0.21875,0.5625 -0.32812,1.17708 -0.32812,1.84375c0,0.70833 0.10417,1.35417 0.3125,1.9375c0.21875,0.57292 0.52604,1.06771 0.92188,1.48438c0.40625,0.40625 0.88542,0.71875 1.4375,0.9375c0.55208,0.21875 1.16667,0.32813 1.84375,0.32813c0.40625,0 0.80729,-0.05729 1.20313,-0.17187c0.39583,-0.11458 0.76563,-0.27604 1.10938,-0.48437c0.35417,-0.20833 0.67708,-0.45833 0.96875,-0.75l1,1.64063c-0.28125,0.34375 -0.67187,0.65104 -1.17187,0.92188c-0.48958,0.27083 -1.03646,0.48438 -1.64062,0.64063c-0.59375,0.15625 -1.19792,0.23438 -1.8125,0.23438zM195.01826,266.70972v-13.8125h1.92188v6.03125l-0.34375,0.21875c0.125,-0.42708 0.36979,-0.82292 0.73438,-1.1875c0.36458,-0.375 0.79167,-0.67708 1.28125,-0.90625c0.5,-0.22917 1.01042,-0.34375 1.53125,-0.34375c0.75,0 1.36979,0.14583 1.85938,0.4375c0.5,0.29167 0.875,0.73958 1.125,1.34375c0.25,0.59375 0.375,1.34375 0.375,2.25v5.96875h-1.92187v-5.84375c0,-0.55208 -0.07292,-1.01042 -0.21875,-1.375c-0.14583,-0.375 -0.375,-0.64583 -0.6875,-0.8125c-0.3125,-0.16667 -0.69792,-0.23958 -1.15625,-0.21875c-0.375,0 -0.71875,0.0625 -1.03125,0.1875c-0.3125,0.11458 -0.58333,0.28125 -0.8125,0.5c-0.22917,0.20833 -0.41146,0.45313 -0.54687,0.73438c-0.125,0.27083 -0.1875,0.56771 -0.1875,0.89063v5.9375h-0.95312c-0.15625,0 -0.31771,0 -0.48437,0c-0.16667,0 -0.32812,0 -0.48437,0zM209.88435,266.89722c-0.80208,0 -1.53646,-0.22396 -2.20312,-0.67187c-0.66667,-0.44792 -1.20312,-1.05729 -1.60937,-1.82812c-0.39583,-0.77083 -0.59375,-1.64062 -0.59375,-2.60937c0,-0.98958 0.20313,-1.86458 0.60938,-2.625c0.40625,-0.76042 0.95313,-1.35937 1.64063,-1.79687c0.69792,-0.4375 1.47396,-0.65625 2.32813,-0.65625c0.51042,0 0.97396,0.07813 1.39063,0.23438c0.42708,0.14583 0.79688,0.35417 1.10938,0.625c0.32292,0.26042 0.58333,0.56771 0.78125,0.92188c0.20833,0.34375 0.33854,0.71354 0.39063,1.10938l-0.42187,-0.14062v-2.54687h1.9375v9.79688h-1.9375v-2.32812l0.4375,-0.14062c-0.07292,0.34375 -0.22396,0.67708 -0.45312,1c-0.22917,0.3125 -0.52083,0.59375 -0.875,0.84375c-0.35417,0.23958 -0.74479,0.4375 -1.17187,0.59375c-0.42708,0.14583 -0.88021,0.21875 -1.35937,0.21875zM210.38435,265.13159c0.59375,0 1.10938,-0.14062 1.54688,-0.42187c0.44792,-0.29167 0.79688,-0.6875 1.04688,-1.1875c0.26042,-0.51042 0.39063,-1.08854 0.39063,-1.73437c0,-0.63542 -0.13021,-1.20312 -0.39062,-1.70312c-0.25,-0.5 -0.59896,-0.89062 -1.04687,-1.17187c-0.4375,-0.29167 -0.95312,-0.4375 -1.54687,-0.4375c-0.57292,0 -1.07812,0.14583 -1.51562,0.4375c-0.4375,0.28125 -0.78646,0.67188 -1.04687,1.17188c-0.25,0.5 -0.375,1.06771 -0.375,1.70313c0,0.64583 0.125,1.22396 0.375,1.73438c0.26042,0.5 0.60938,0.89583 1.04688,1.1875c0.4375,0.28125 0.94271,0.42188 1.51563,0.42188zM217.92813,266.70972v-9.79687h1.92188v2.01563l-0.34375,0.21875c0.125,-0.42708 0.36979,-0.82292 0.73438,-1.1875c0.36458,-0.375 0.79167,-0.67708 1.28125,-0.90625c0.5,-0.22917 1.01042,-0.34375 1.53125,-0.34375c0.75,0 1.36979,0.14583 1.85938,0.4375c0.5,0.29167 0.875,0.73958 1.125,1.34375c0.25,0.59375 0.375,1.34375 0.375,2.25v5.96875h-1.92187v-5.84375c0,-0.55208 -0.07292,-1.01042 -0.21875,-1.375c-0.14583,-0.375 -0.375,-0.64583 -0.6875,-0.8125c-0.3125,-0.16667 -0.69792,-0.23958 -1.15625,-0.21875c-0.375,0 -0.71875,0.0625 -1.03125,0.1875c-0.3125,0.11458 -0.58333,0.28125 -0.8125,0.5c-0.22917,0.20833 -0.41146,0.45313 -0.54687,0.73438c-0.125,0.27083 -0.1875,0.56771 -0.1875,0.89063v5.9375h-0.95312c-0.15625,0 -0.31771,0 -0.48437,0c-0.16667,0 -0.32812,0 -0.48437,0zM233.41922,271.00659c-0.69792,0 -1.39583,-0.10937 -2.09375,-0.32812c-0.6875,-0.21875 -1.23958,-0.50521 -1.65625,-0.85937l0.70313,-1.48437c0.25,0.1875 0.54167,0.34896 0.875,0.48438c0.33333,0.14583 0.6875,0.26042 1.0625,0.34375c0.375,0.08333 0.74479,0.125 1.10938,0.125c0.67708,0 1.24479,-0.11458 1.70313,-0.34375c0.46875,-0.21875 0.81771,-0.54687 1.04688,-0.98437c0.23958,-0.4375 0.35938,-0.97917 0.35938,-1.625v-1.875l0.20313,0.125c-0.0625,0.38542 -0.26562,0.75521 -0.60937,1.10938c-0.34375,0.35417 -0.77083,0.64583 -1.28125,0.875c-0.5,0.21875 -1.02083,0.32813 -1.5625,0.32813c-0.92708,0 -1.75521,-0.21875 -2.48437,-0.65625c-0.72917,-0.44792 -1.30729,-1.05208 -1.73437,-1.8125c-0.41667,-0.77083 -0.625,-1.64583 -0.625,-2.625c0,-0.97917 0.20833,-1.84896 0.625,-2.60937c0.41667,-0.77083 0.98438,-1.375 1.70313,-1.8125c0.72917,-0.44792 1.55208,-0.67187 2.46875,-0.67187c0.36458,0 0.71875,0.04688 1.0625,0.14063c0.35417,0.09375 0.68229,0.22396 0.98438,0.39063c0.30208,0.16667 0.56771,0.34896 0.79688,0.54688c0.23958,0.19792 0.43229,0.41146 0.57813,0.64063c0.15625,0.21875 0.25,0.42708 0.28125,0.625l-0.40625,0.15625v-2.29687h1.92188v9.20313c0,0.78125 -0.11458,1.47396 -0.34375,2.07813c-0.22917,0.60417 -0.5625,1.11458 -1,1.53125c-0.4375,0.41667 -0.96875,0.73438 -1.59375,0.95313c-0.61458,0.21875 -1.3125,0.32813 -2.09375,0.32813zM233.48172,265.13159c0.61458,0 1.15625,-0.14062 1.625,-0.42187c0.47917,-0.29167 0.84896,-0.6875 1.10938,-1.1875c0.26042,-0.5 0.39063,-1.07292 0.39063,-1.71875c0,-0.64583 -0.13542,-1.21875 -0.40625,-1.71875c-0.27083,-0.51042 -0.64062,-0.90625 -1.10937,-1.1875c-0.45833,-0.29167 -0.99479,-0.4375 -1.60937,-0.4375c-0.59375,0 -1.125,0.14583 -1.59375,0.4375c-0.46875,0.29167 -0.83854,0.69271 -1.10937,1.20313c-0.26042,0.5 -0.39062,1.06771 -0.39062,1.70313c0,0.63542 0.13021,1.20833 0.39063,1.71875c0.27083,0.5 0.64063,0.89583 1.10938,1.1875c0.46875,0.28125 1,0.42188 1.59375,0.42188zM245.699,266.89722c-1,0 -1.89062,-0.21354 -2.67187,-0.64062c-0.77083,-0.42708 -1.38021,-1.01562 -1.82812,-1.76562c-0.4375,-0.75 -0.65625,-1.60937 -0.65625,-2.57812c0,-0.77083 0.125,-1.47396 0.375,-2.10937c0.25,-0.63542 0.59375,-1.18229 1.03125,-1.64062c0.4375,-0.46875 0.96354,-0.82812 1.57813,-1.07812c0.625,-0.26042 1.29688,-0.39062 2.01563,-0.39062c0.63542,0 1.22396,0.11979 1.76563,0.35938c0.55208,0.23958 1.02604,0.57292 1.42188,1c0.40625,0.42708 0.71875,0.93229 0.9375,1.51563c0.21875,0.57292 0.32292,1.19792 0.3125,1.875l-0.01562,0.82813h-8l-0.4375,-1.53125h6.76563l-0.26562,0.3125v-0.4375c-0.04167,-0.41667 -0.18229,-0.78646 -0.42187,-1.10937c-0.22917,-0.32292 -0.52604,-0.57812 -0.89062,-0.76562c-0.36458,-0.1875 -0.75521,-0.28125 -1.17187,-0.28125c-0.67708,0 -1.24479,0.13021 -1.70312,0.39063c-0.45833,0.25 -0.80729,0.625 -1.04687,1.125c-0.22917,0.48958 -0.34375,1.09375 -0.34375,1.8125c0,0.67708 0.14063,1.27083 0.42188,1.78125c0.28125,0.5 0.68229,0.89063 1.20313,1.17188c0.53125,0.27083 1.13542,0.40625 1.8125,0.40625c0.48958,0 0.94271,-0.07812 1.35938,-0.23437c0.41667,-0.16667 0.86979,-0.46354 1.35938,-0.89062l0.96875,1.35938c-0.30208,0.30208 -0.66667,0.56771 -1.09375,0.79688c-0.42708,0.21875 -0.88021,0.39583 -1.35937,0.53125c-0.47917,0.125 -0.95312,0.1875 -1.42187,0.1875zM256.14718,266.89722c-0.89583,0 -1.69271,-0.21875 -2.39062,-0.65625c-0.69792,-0.44792 -1.25521,-1.05208 -1.67187,-1.8125c-0.40625,-0.77083 -0.60937,-1.64583 -0.60937,-2.625c0,-0.97917 0.19792,-1.84896 0.59375,-2.60937c0.40625,-0.77083 0.95833,-1.375 1.65625,-1.8125c0.69792,-0.44792 1.48958,-0.67187 2.375,-0.67187c0.47917,0 0.94792,0.07813 1.40625,0.23438c0.45833,0.15625 0.86458,0.36979 1.21875,0.64063c0.36458,0.26042 0.64583,0.55208 0.84375,0.875c0.20833,0.3125 0.3125,0.63021 0.3125,0.95313l-0.5625,0.04688v-6.5625h1.92188v13.8125h-1.92187v-2.32812h0.375c0,0.29167 -0.09896,0.58854 -0.29687,0.89063c-0.19792,0.29167 -0.46354,0.5625 -0.79687,0.8125c-0.32292,0.23958 -0.70312,0.4375 -1.14062,0.59375c-0.42708,0.14583 -0.86458,0.21875 -1.3125,0.21875zM256.41281,265.24097c0.58333,0 1.09896,-0.15104 1.54688,-0.45312c0.44792,-0.30208 0.79688,-0.70833 1.04688,-1.21875c0.26042,-0.52083 0.39063,-1.10937 0.39063,-1.76562c0,-0.65625 -0.13021,-1.23958 -0.39062,-1.75c-0.25,-0.52083 -0.59896,-0.93229 -1.04687,-1.23437c-0.44792,-0.30208 -0.96354,-0.45312 -1.54687,-0.45312c-0.58333,0 -1.09896,0.15104 -1.54687,0.45313c-0.44792,0.30208 -0.80208,0.71354 -1.0625,1.23438c-0.25,0.51042 -0.375,1.09375 -0.375,1.75c0,0.65625 0.125,1.24479 0.375,1.76563c0.26042,0.51042 0.61458,0.91667 1.0625,1.21875c0.44792,0.30208 0.96354,0.45313 1.54688,0.45313zM264.67837,266.91284c-0.40625,0 -0.72396,-0.11979 -0.95312,-0.35937c-0.21875,-0.23958 -0.32812,-0.58333 -0.32812,-1.03125c0,-0.41667 0.11458,-0.75521 0.34375,-1.01562c0.23958,-0.26042 0.55208,-0.39062 0.9375,-0.39062c0.41667,0 0.73438,0.125 0.95313,0.375c0.22917,0.23958 0.34375,0.58333 0.34375,1.03125c0,0.40625 -0.11979,0.73958 -0.35937,1c-0.23958,0.26042 -0.55208,0.39063 -0.9375,0.39063z" fill="#ffffff" fill-rule="nonzero" stroke-width="1" stroke-linecap="square"/></g></g></svg>