<svg version="1.1" xmlns="http://www.w3.org/2000/svg" xmlns:xlink="http://www.w3.org/1999/xlink" width="720" height="540" viewBox="0,0,720,540"><defs><clipPath id="clip-1"><rect x="-240" y="-180" transform="scale(0.5,0.5)" width="1440" height="1080" fill="none" fill-rule="nonzero" stroke-width="0.5" stroke-linecap="butt"/></clipPath></defs><g transform="translate(120,90)"><g clip-path="url(#clip-1)" data-paper-data="{&quot;isPaintingLayer&quot;:true}" stroke="none" stroke-linejoin="miter" stroke-miterlimit="10" stroke-dasharray="" stroke-dashoffset="0" style="mix-blend-mode: normal"><path d="M206.23131,167.51365v0c0,-1.69266 2.34393,-3.06483 5.23532,-3.06483h57.06673c1.3885,0 2.72012,0.3229 3.70192,0.89767c0.9818,0.57477 1.53339,1.35432 1.53339,2.16716v24.9727c0,1.69266 -2.34393,3.06482 -5.23532,3.06482h-57.06673c-2.89139,0 -5.23532,-1.37217 -5.23532,-3.06482z" fill="#3c3c3c" fill-rule="evenodd" stroke-width="1" stroke-linecap="square"/><path d="M-240,-180h960v720h-960z" fill-opacity="0" fill="#000000" fill-rule="evenodd" stroke-width="1" stroke-linecap="square"/><path d="M219.46117,186.4375v-13.06251h1.8125l7.98438,10.68751l-0.29687,0.17188c-0.05208,-0.3125 -0.09896,-0.65104 -0.14062,-1.01562c-0.03125,-0.36458 -0.0625,-0.75521 -0.09375,-1.17187c-0.03125,-0.41667 -0.05729,-0.85937 -0.07812,-1.32812c-0.02083,-0.46875 -0.03646,-0.95833 -0.04687,-1.46875c-0.01042,-0.51042 -0.01562,-1.03646 -0.01562,-1.57812v-4.29688h2.01563v13.06251h-1.84375l-7.85937,-10.29687l0.20313,-0.26562c0.0625,0.76042 0.11458,1.40625 0.15625,1.9375c0.04167,0.53125 0.07813,0.97917 0.10938,1.34375c0.03125,0.36458 0.05208,0.66146 0.0625,0.89063c0.02083,0.22917 0.03125,0.42188 0.03125,0.57813c0.01042,0.14583 0.01563,0.27604 0.01563,0.39063v5.42188h-2.01562zM238.3337,186.625c-1,0 -1.89062,-0.21354 -2.67187,-0.64062c-0.77083,-0.42708 -1.38021,-1.01562 -1.82812,-1.76562c-0.4375,-0.75 -0.65625,-1.60937 -0.65625,-2.57812c0,-0.77083 0.125,-1.47396 0.375,-2.10937c0.25,-0.63542 0.59375,-1.18229 1.03125,-1.64062c0.4375,-0.46875 0.96354,-0.82812 1.57813,-1.07812c0.625,-0.26042 1.29688,-0.39062 2.01563,-0.39062c0.63542,0 1.22396,0.11979 1.76563,0.35938c0.55208,0.23958 1.02604,0.57292 1.42188,1c0.40625,0.42708 0.71875,0.93229 0.9375,1.51563c0.21875,0.57292 0.32292,1.19792 0.3125,1.875l-0.01562,0.82813h-8l-0.4375,-1.53125h6.76563l-0.26562,0.3125v-0.4375c-0.04167,-0.41667 -0.18229,-0.78646 -0.42187,-1.10937c-0.22917,-0.32292 -0.52604,-0.57812 -0.89062,-0.76562c-0.36458,-0.1875 -0.75521,-0.28125 -1.17187,-0.28125c-0.67708,0 -1.24479,0.13021 -1.70312,0.39063c-0.45833,0.25 -0.80729,0.625 -1.04687,1.125c-0.22917,0.48958 -0.34375,1.09375 -0.34375,1.8125c0,0.67708 0.14063,1.27083 0.42188,1.78125c0.28125,0.5 0.68229,0.89063 1.20313,1.17188c0.53125,0.27083 1.13542,0.40625 1.8125,0.40625c0.48958,0 0.94271,-0.07812 1.35938,-0.23437c0.41667,-0.16667 0.86979,-0.46354 1.35938,-0.89062l0.96875,1.35938c-0.30208,0.30208 -0.66667,0.56771 -1.09375,0.79688c-0.42708,0.21875 -0.88021,0.39583 -1.35937,0.53125c-0.47917,0.125 -0.95312,0.1875 -1.42187,0.1875zM251.16338,186.4375l-3.17187,-4.125l-0.28125,-0.35937l-4.125,-5.3125h2.42188l3.125,4.0625l0.3125,0.42188l4.0625,5.3125zM243.60088,186.4375l3.85938,-5.03125l1.14063,1.35938l-2.71875,3.67188zM249.55401,181.70313l-1.0625,-1.34375l2.40625,-3.71875h2.28125zM256.35133,186.4375v-12.29687h1.92188v12.29688zM254.30445,178.51563v-1.875h6.23438v1.875z" fill="#ffffff" fill-rule="nonzero" stroke-width="1" stroke-linecap="square"/></g></g></svg>