<svg version="1.1" xmlns="http://www.w3.org/2000/svg" xmlns:xlink="http://www.w3.org/1999/xlink" width="50.24988" height="25.00346" viewBox="0,0,50.24988,25.00346"><g transform="translate(-375.0489,-183.39721)"><g data-paper-data="{&quot;isPaintingLayer&quot;:true}" stroke="none" stroke-width="1" stroke-linecap="square" stroke-linejoin="miter" stroke-miterlimit="10" stroke-dasharray="" stroke-dashoffset="0" style="mix-blend-mode: normal"><path d="M375.04891,184.94267c0,-0.85354 0.9588,-1.54546 2.14153,-1.54546h45.96682c0.56797,0 1.11268,0.16283 1.51429,0.45266c0.40162,0.28983 0.62724,0.68293 0.62724,1.09281v21.91253c0,0.85354 -0.9588,1.54546 -2.14153,1.54546h-45.96682c-1.18274,0 -2.14153,-0.69193 -2.14153,-1.54546z" fill-opacity="0.84677" fill="#3c3c3c" fill-rule="evenodd"/><path d="M380.62852,201.56403v-12.09621h5.06542c0.89151,0 1.70198,0.14859 2.4314,0.44575c0.74292,0.28365 1.37779,0.7024 1.90459,1.25623c0.54031,0.54031 0.95231,1.18194 1.23596,1.92486c0.29717,0.72942 0.44575,1.53313 0.44575,2.41113c0,0.89151 -0.14859,1.70874 -0.44575,2.45166c-0.28365,0.74292 -0.69566,1.38455 -1.23596,1.92486c-0.52681,0.52681 -1.16167,0.93879 -1.90459,1.23596c-0.72942,0.29717 -1.53989,0.44575 -2.4314,0.44575zM383.56646,199.55812l-0.40524,-0.58759h2.45166c0.48628,0 0.91854,-0.08105 1.29676,-0.24315c0.37821,-0.17559 0.7024,-0.41198 0.97255,-0.70916c0.27015,-0.29717 0.47952,-0.65514 0.62811,-1.07386c0.14859,-0.43224 0.22289,-0.91177 0.22289,-1.43858c0,-0.51329 -0.07429,-0.97932 -0.22289,-1.39806c-0.14859,-0.43224 -0.35795,-0.79696 -0.62811,-1.09413c-0.27015,-0.29717 -0.59434,-0.52681 -0.97255,-0.6889c-0.37821,-0.17559 -0.81046,-0.2634 -1.29676,-0.2634h-2.49219l0.44575,-0.54706z" fill="#ffffff" fill-rule="nonzero"/><path d="M394.88217,202.06685v-12.71876h8.86265v2.64175h-5.85873v7.43526h6.05046v2.64175zM396.33087,196.84726v-2.51393h6.60439v2.51393z" fill="#ffffff" fill-rule="nonzero"/><path d="M407.71717,201.79822v-12.4936h3.03445v9.81491h5.56667v2.67869z" fill="#ffffff" fill-rule="nonzero"/></g></g></svg>