<svg version="1.1" xmlns="http://www.w3.org/2000/svg" xmlns:xlink="http://www.w3.org/1999/xlink" width="313.70143" height="25.22143" viewBox="0,0,313.70143,25.22143"><g transform="translate(-85.3266,-327.9415)"><g data-paper-data="{&quot;isPaintingLayer&quot;:true}" fill-opacity="0.41935" fill="#313131" fill-rule="evenodd" stroke="none" stroke-width="1" stroke-linecap="square" stroke-linejoin="miter" stroke-miterlimit="10" stroke-dasharray="" stroke-dashoffset="0" style="mix-blend-mode: normal"><path d="M85.3266,340.55221v0c0,-6.9647 5.3668,-12.61071 11.98708,-12.61071v0c3.17917,0 6.22813,1.32863 8.47615,3.69359c2.24802,2.36496 3.51093,5.57255 3.51093,8.91712v0c0,6.9647 -5.3668,12.61072 -11.98708,12.61072v0c-6.62028,0 -11.98708,-5.646 -11.98708,-12.61072z"/><path d="M375.05385,340.55221v0c0,-6.9647 5.3668,-12.61071 11.98709,-12.61071v0c3.17917,0 6.22814,1.32863 8.47615,3.69359c2.24802,2.36496 3.51094,5.57255 3.51094,8.91712v0c0,6.9647 -5.36681,12.61072 -11.98709,12.61072v0c-6.62028,0 -11.98709,-5.646 -11.98709,-12.61072z"/><path d="M97.1592,327.9415h288.97721v25.22143h-288.97721z"/></g></g></svg>