<svg version="1.1" xmlns="http://www.w3.org/2000/svg" xmlns:xlink="http://www.w3.org/1999/xlink" width="514.75" height="372.07152" viewBox="0,0,514.75,372.07152"><g transform="translate(159.75,22.25)"><g data-paper-data="{&quot;isPaintingLayer&quot;:true}" fill-rule="nonzero" stroke-linejoin="miter" stroke-miterlimit="10" stroke-dasharray="" stroke-dashoffset="0" style="mix-blend-mode: normal"><path d="M-151.5,-22l-8,21" fill="none" stroke="#000000" stroke-width="0.5" stroke-linecap="round"/><path d="M352.5,144h-223" fill="none" stroke-opacity="0.37097" stroke="#ffffff" stroke-width="5" stroke-linecap="round"/><path d="M181.56091,347.46459c-0.54463,0 -1.04544,-0.09703 -1.50242,-0.2911c-0.45699,-0.19407 -0.85451,-0.47264 -1.19255,-0.83572c-0.33179,-0.36309 -0.59158,-0.7919 -0.77938,-1.28645c-0.18155,-0.49454 -0.27231,-1.03605 -0.27231,-1.62449c0,-0.55715 0.10016,-1.07674 0.30049,-1.55876c0.20032,-0.48203 0.47577,-0.90459 0.82633,-1.26768c0.35057,-0.36934 0.75748,-0.65418 1.22072,-0.85451c0.46325,-0.20658 0.96406,-0.30988 1.50242,-0.30988c0.38186,0 0.75435,0.05947 1.11743,0.17841c0.36309,0.11268 0.69174,0.27231 0.98597,0.4789c0.29423,0.20658 0.53524,0.44134 0.72304,0.70427l-0.80756,0.83572c-0.2191,-0.2191 -0.4382,-0.40065 -0.65731,-0.54463c-0.2191,-0.14398 -0.44447,-0.25354 -0.67609,-0.32865c-0.22536,-0.07512 -0.45386,-0.11268 -0.68548,-0.11268c-0.36934,0 -0.71365,0.06886 -1.03292,0.20658c-0.313,0.13773 -0.58845,0.33179 -0.82633,0.58219c-0.23162,0.24415 -0.4163,0.53837 -0.55402,0.88267c-0.13147,0.33805 -0.19719,0.70739 -0.19719,1.10803c0,0.42568 0.0626,0.81382 0.18781,1.16438c0.13147,0.34431 0.31613,0.64167 0.55402,0.89206c0.24415,0.24415 0.53211,0.43194 0.8639,0.56341c0.33179,0.13147 0.70113,0.19719 1.10803,0.19719c0.24415,0 0.48515,-0.03443 0.72304,-0.10329c0.23789,-0.06886 0.46012,-0.16589 0.6667,-0.2911c0.21284,-0.12521 0.40691,-0.27544 0.58219,-0.45073l0.60097,0.98597c-0.16902,0.20658 -0.40378,0.39125 -0.70427,0.55402c-0.29423,0.16276 -0.62288,0.2911 -0.98597,0.38499c-0.35683,0.0939 -0.71991,0.14085 -1.08926,0.14085zM185.71818,347.35191v-8.3009h1.15499v8.3009zM188.70139,347.35191v-5.88763h1.15499v5.88763zM189.2648,340.16844c-0.24415,0 -0.43508,-0.0626 -0.5728,-0.18781c-0.13147,-0.13147 -0.19719,-0.313 -0.19719,-0.54463c0,-0.2191 0.06886,-0.39439 0.20658,-0.52585c0.13773,-0.13773 0.32552,-0.20658 0.56341,-0.20658c0.24415,0 0.43194,0.06573 0.56341,0.19719c0.13773,0.12521 0.20658,0.30362 0.20658,0.53524c0,0.2191 -0.06886,0.39752 -0.20658,0.53524c-0.13773,0.13147 -0.32552,0.19719 -0.56341,0.19719zM194.12826,347.46459c-0.54463,0 -1.03292,-0.1346 -1.46486,-0.40378c-0.42568,-0.26918 -0.76373,-0.6354 -1.01414,-1.09865c-0.25041,-0.46325 -0.3756,-0.98284 -0.3756,-1.55876c0,-0.57593 0.12521,-1.09552 0.3756,-1.55876c0.25041,-0.46325 0.58845,-0.82946 1.01414,-1.09865c0.43194,-0.26918 0.92024,-0.40378 1.46486,-0.40378c0.52585,0 1.00161,0.10642 1.42731,0.31926c0.43194,0.21284 0.76061,0.50394 0.98597,0.87329l-0.63853,0.77938c-0.11894,-0.16902 -0.27231,-0.32552 -0.46012,-0.46951c-0.18781,-0.14398 -0.38813,-0.25666 -0.60097,-0.33805c-0.20658,-0.08138 -0.40691,-0.12207 -0.60097,-0.12207c-0.35683,0 -0.67609,0.08764 -0.9578,0.26292c-0.2817,0.17528 -0.50394,0.4163 -0.6667,0.72304c-0.16276,0.30675 -0.24415,0.65105 -0.24415,1.03292c0,0.38186 0.08451,0.72617 0.25354,1.03292c0.17528,0.30049 0.40378,0.54149 0.68548,0.72304c0.2817,0.17528 0.59471,0.26292 0.93901,0.26292c0.20658,0 0.40378,-0.03443 0.59158,-0.10329c0.18781,-0.06886 0.37247,-0.16902 0.55402,-0.30049c0.18155,-0.13773 0.35057,-0.30362 0.50707,-0.49768l0.63853,0.78877c-0.23789,0.33805 -0.57906,0.61662 -1.02353,0.83572c-0.44447,0.21284 -0.90771,0.31926 -1.38974,0.31926zM198.68051,345.51143l-0.05634,-1.25828l2.81705,-2.78888h1.55876zM197.62881,347.35191v-8.3009h1.15499v8.3009zM201.60084,347.35191l-2.22547,-2.59168l0.81695,-0.75122l2.88278,3.3429zM207.86891,347.35191v-7.39005h1.15499v7.39005zM206.63879,342.5911v-1.12682h3.74668v1.12682zM214.03374,347.46459c-0.57593,0 -1.09239,-0.13147 -1.54938,-0.39439c-0.45073,-0.26918 -0.80756,-0.63227 -1.07048,-1.08926c-0.25666,-0.46325 -0.38499,-0.9891 -0.38499,-1.57755c0,-0.58845 0.12833,-1.11117 0.38499,-1.56815c0.26292,-0.46325 0.61975,-0.82633 1.07048,-1.08926c0.45699,-0.26918 0.97345,-0.40378 1.54938,-0.40378c0.56341,0 1.07048,0.1346 1.5212,0.40378c0.45699,0.26292 0.81695,0.62601 1.07987,1.08926c0.26292,0.45699 0.39439,0.97971 0.39439,1.56815c0,0.58845 -0.13147,1.11429 -0.39439,1.57755c-0.26292,0.45699 -0.62288,0.82007 -1.07987,1.08926c-0.45073,0.26292 -0.9578,0.39439 -1.5212,0.39439zM214.03374,346.41289c0.35057,0 0.66357,-0.08764 0.93901,-0.26292c0.27544,-0.17528 0.49142,-0.41317 0.64793,-0.71365c0.1565,-0.30675 0.23162,-0.65105 0.22536,-1.03292c0.00626,-0.38813 -0.06886,-0.73243 -0.22536,-1.03292c-0.1565,-0.30675 -0.37247,-0.54463 -0.64793,-0.71365c-0.27544,-0.17528 -0.58845,-0.26292 -0.93901,-0.26292c-0.35057,0 -0.6667,0.08764 -0.9484,0.26292c-0.2817,0.17528 -0.50081,0.4163 -0.65731,0.72304c-0.1565,0.30049 -0.23162,0.64167 -0.22536,1.02353c-0.00626,0.38186 0.06886,0.72617 0.22536,1.03292c0.1565,0.30049 0.3756,0.53837 0.65731,0.71365c0.2817,0.17528 0.59783,0.26292 0.9484,0.26292zM224.16225,347.46459c-0.60097,0 -1.13621,-0.12833 -1.60572,-0.38499c-0.46325,-0.25666 -0.82946,-0.61036 -1.09865,-1.06109c-0.26292,-0.45073 -0.39439,-0.96719 -0.39439,-1.54938c0,-0.46325 0.07512,-0.8858 0.22536,-1.26768c0.15024,-0.38186 0.35683,-0.71052 0.61975,-0.98597c0.26292,-0.2817 0.57906,-0.49768 0.9484,-0.64793c0.3756,-0.1565 0.77938,-0.23476 1.21133,-0.23476c0.38186,0 0.73556,0.07199 1.06109,0.21597c0.33179,0.14398 0.61662,0.34431 0.85451,0.60097c0.24415,0.25666 0.43194,0.56028 0.56341,0.91085c0.13147,0.34431 0.19407,0.71991 0.18781,1.12682l-0.00939,0.49768h-4.80776l-0.26292,-0.92024h4.06594l-0.15963,0.18781v-0.26292c-0.02504,-0.25041 -0.10955,-0.47264 -0.25354,-0.6667c-0.13773,-0.19407 -0.31613,-0.34744 -0.53524,-0.46012c-0.2191,-0.11268 -0.45386,-0.16902 -0.70427,-0.16902c-0.40691,0 -0.74808,0.07826 -1.02353,0.23476c-0.27544,0.15024 -0.48515,0.3756 -0.62914,0.67609c-0.13773,0.29423 -0.20658,0.65731 -0.20658,1.08926c0,0.40691 0.08451,0.76373 0.25354,1.07048c0.16902,0.30049 0.41004,0.53524 0.72304,0.70427c0.31926,0.16276 0.68235,0.24415 1.08926,0.24415c0.29423,0 0.56654,-0.04695 0.81695,-0.14085c0.25041,-0.10016 0.52272,-0.27857 0.81695,-0.53524l0.58219,0.81695c-0.18155,0.18155 -0.40065,0.34118 -0.65731,0.4789c-0.25666,0.13147 -0.52898,0.23789 -0.81695,0.31926c-0.28796,0.07512 -0.5728,0.11268 -0.85451,0.11268zM227.99049,347.35191v-5.88763h1.15499v1.21133l-0.20658,0.13147c0.07512,-0.25666 0.22223,-0.49454 0.44134,-0.71365c0.2191,-0.22536 0.47577,-0.40691 0.76999,-0.54463c0.30049,-0.13773 0.60723,-0.20658 0.92024,-0.20658c0.45073,0 0.8232,0.08764 1.11743,0.26292c0.30049,0.17528 0.52585,0.44447 0.67609,0.80756c0.15024,0.35683 0.22536,0.80756 0.22536,1.35218v3.58704h-1.15499v-3.51192c0,-0.33179 -0.04382,-0.60723 -0.13147,-0.82633c-0.08764,-0.22536 -0.22536,-0.38813 -0.41317,-0.48828c-0.18781,-0.10016 -0.41943,-0.14398 -0.69487,-0.13147c-0.22536,0 -0.43194,0.03756 -0.61975,0.11268c-0.18781,0.06886 -0.35057,0.16902 -0.48828,0.30049c-0.13773,0.12521 -0.24728,0.27231 -0.32865,0.44134c-0.07512,0.16276 -0.11268,0.34118 -0.11268,0.53524v3.56826h-0.5728c-0.0939,0 -0.19094,0 -0.2911,0c-0.10016,0 -0.19719,0 -0.2911,0zM235.39396,347.35191v-7.39005h1.15499v7.39005zM234.16386,342.5911v-1.12682h3.74668v1.12682zM241.65271,347.46459c-0.60097,0 -1.13621,-0.12833 -1.60572,-0.38499c-0.46325,-0.25666 -0.82946,-0.61036 -1.09865,-1.06109c-0.26292,-0.45073 -0.39439,-0.96719 -0.39439,-1.54938c0,-0.46325 0.07512,-0.8858 0.22536,-1.26768c0.15024,-0.38186 0.35683,-0.71052 0.61975,-0.98597c0.26292,-0.2817 0.57906,-0.49768 0.9484,-0.64793c0.3756,-0.1565 0.77938,-0.23476 1.21133,-0.23476c0.38186,0 0.73556,0.07199 1.06109,0.21597c0.33179,0.14398 0.61662,0.34431 0.85451,0.60097c0.24415,0.25666 0.43194,0.56028 0.56341,0.91085c0.13147,0.34431 0.19407,0.71991 0.18781,1.12682l-0.00939,0.49768h-4.80776l-0.26292,-0.92024h4.06594l-0.15963,0.18781v-0.26292c-0.02504,-0.25041 -0.10955,-0.47264 -0.25354,-0.6667c-0.13773,-0.19407 -0.31613,-0.34744 -0.53524,-0.46012c-0.2191,-0.11268 -0.45386,-0.16902 -0.70427,-0.16902c-0.40691,0 -0.74808,0.07826 -1.02353,0.23476c-0.27544,0.15024 -0.48515,0.3756 -0.62914,0.67609c-0.13773,0.29423 -0.20658,0.65731 -0.20658,1.08926c0,0.40691 0.08451,0.76373 0.25354,1.07048c0.16902,0.30049 0.41004,0.53524 0.72304,0.70427c0.31926,0.16276 0.68235,0.24415 1.08926,0.24415c0.29423,0 0.56654,-0.04695 0.81695,-0.14085c0.25041,-0.10016 0.52272,-0.27857 0.81695,-0.53524l0.58219,0.81695c-0.18155,0.18155 -0.40065,0.34118 -0.65731,0.4789c-0.25666,0.13147 -0.52898,0.23789 -0.81695,0.31926c-0.28796,0.07512 -0.5728,0.11268 -0.85451,0.11268zM245.48093,347.35191v-5.88763h1.16438v1.84986l-0.11268,-0.45073c0.08138,-0.2817 0.22223,-0.53837 0.42256,-0.76999c0.20032,-0.23162 0.42881,-0.41317 0.68548,-0.54463c0.25666,-0.13773 0.52272,-0.20658 0.79816,-0.20658c0.12521,0 0.24415,0.01252 0.35683,0.03756c0.11894,0.01878 0.21284,0.04382 0.2817,0.07512l-0.30049,1.25828c-0.08764,-0.03756 -0.18781,-0.06886 -0.30049,-0.0939c-0.10642,-0.0313 -0.21284,-0.04695 -0.31926,-0.04695c-0.20032,0 -0.39125,0.04069 -0.5728,0.12207c-0.18155,0.07512 -0.34431,0.18467 -0.48828,0.32865c-0.13773,0.13773 -0.24728,0.29736 -0.32865,0.4789c-0.08138,0.18155 -0.12207,0.38186 -0.12207,0.60097v3.249zM253.13862,349.82152v-8.35724h1.16438v1.34279l-0.17841,-0.0939c0.04382,-0.22536 0.16902,-0.44134 0.3756,-0.64793c0.21284,-0.20658 0.46951,-0.3756 0.76999,-0.50707c0.30675,-0.13147 0.61975,-0.19719 0.93901,-0.19719c0.53211,0 1.00161,0.13147 1.40852,0.39439c0.41317,0.26292 0.73869,0.62288 0.97658,1.07987c0.24415,0.45699 0.36622,0.97971 0.36622,1.56815c0,0.58219 -0.11894,1.1049 -0.35683,1.56815c-0.23789,0.45699 -0.56341,0.82007 -0.97658,1.08926c-0.40691,0.26292 -0.86703,0.39439 -1.38036,0.39439c-0.34431,0 -0.67922,-0.06886 -1.00474,-0.20658c-0.31926,-0.13773 -0.59158,-0.31613 -0.81695,-0.53524c-0.22536,-0.2191 -0.36309,-0.44447 -0.41317,-0.67609l0.2911,-0.15024v3.93447zM256.04958,346.38472c0.34431,0 0.65105,-0.08451 0.92024,-0.25354c0.26918,-0.17528 0.48203,-0.41004 0.63853,-0.70427c0.1565,-0.30049 0.23476,-0.64167 0.23476,-1.02353c0,-0.38186 -0.07826,-0.71991 -0.23476,-1.01414c-0.15024,-0.29423 -0.35996,-0.52585 -0.62914,-0.69487c-0.26292,-0.17528 -0.5728,-0.26292 -0.92963,-0.26292c-0.35057,0 -0.66044,0.08451 -0.92963,0.25354c-0.26918,0.16902 -0.48203,0.40378 -0.63853,0.70427c-0.1565,0.29423 -0.23476,0.63227 -0.23476,1.01414c0,0.38186 0.07826,0.72304 0.23476,1.02353c0.1565,0.29423 0.36934,0.52898 0.63853,0.70427c0.26918,0.16902 0.57906,0.25354 0.92963,0.25354zM262.47634,347.46459c-0.48203,0 -0.92337,-0.1346 -1.32402,-0.40378c-0.40065,-0.26918 -0.72304,-0.6354 -0.96719,-1.09865c-0.23789,-0.46325 -0.35683,-0.98597 -0.35683,-1.56815c0,-0.59471 0.12207,-1.12056 0.36622,-1.57755c0.24415,-0.45699 0.5728,-0.81695 0.98597,-1.07987c0.41943,-0.26292 0.8858,-0.39439 1.39913,-0.39439c0.30675,0 0.58532,0.04695 0.83572,0.14085c0.25666,0.08764 0.4789,0.21284 0.6667,0.3756c0.19407,0.1565 0.35057,0.34118 0.46951,0.55402c0.12521,0.20658 0.20345,0.42881 0.23476,0.6667l-0.25354,-0.08451v-1.5306h1.16438v5.88763h-1.16438v-1.39913l0.26292,-0.08451c-0.04382,0.20658 -0.1346,0.40691 -0.27231,0.60097c-0.13773,0.18781 -0.313,0.35683 -0.52585,0.50707c-0.21284,0.14398 -0.4476,0.26292 -0.70427,0.35683c-0.25666,0.08764 -0.52898,0.13147 -0.81695,0.13147zM262.77681,346.40349c0.35683,0 0.6667,-0.08451 0.92963,-0.25354c0.26918,-0.17528 0.4789,-0.41317 0.62914,-0.71365c0.1565,-0.30675 0.23476,-0.65418 0.23476,-1.04231c0,-0.38186 -0.07826,-0.72304 -0.23476,-1.02353c-0.15024,-0.30049 -0.35996,-0.53524 -0.62914,-0.70427c-0.26292,-0.17528 -0.5728,-0.26292 -0.92963,-0.26292c-0.34431,0 -0.64793,0.08764 -0.91085,0.26292c-0.26292,0.16902 -0.47264,0.40378 -0.62914,0.70427c-0.15024,0.30049 -0.22536,0.64167 -0.22536,1.02353c0,0.38813 0.07512,0.73556 0.22536,1.04231c0.1565,0.30049 0.36622,0.53837 0.62914,0.71365c0.26292,0.16902 0.56654,0.25354 0.91085,0.25354zM269.27294,347.46459c-0.49454,0 -0.93901,-0.08451 -1.3334,-0.25354c-0.39439,-0.17528 -0.72304,-0.43194 -0.98597,-0.76999l0.77938,-0.6667c0.22536,0.25666 0.46951,0.44447 0.73243,0.56341c0.26918,0.11268 0.5728,0.16902 0.91085,0.16902c0.13147,0 0.25354,-0.01565 0.36622,-0.04695c0.11894,-0.0313 0.22223,-0.08138 0.30988,-0.15024c0.08764,-0.06886 0.15337,-0.15024 0.19719,-0.24415c0.04382,-0.0939 0.06573,-0.19719 0.06573,-0.30988c0,-0.19407 -0.07199,-0.35057 -0.21597,-0.46951c-0.07512,-0.05008 -0.19407,-0.10642 -0.35683,-0.16902c-0.1565,-0.0626 -0.36309,-0.12833 -0.61975,-0.19719c-0.43194,-0.11268 -0.78564,-0.23789 -1.06109,-0.3756c-0.27544,-0.14398 -0.48828,-0.30675 -0.63853,-0.48828c-0.11268,-0.14398 -0.19719,-0.29736 -0.25354,-0.46012c-0.05008,-0.16902 -0.07512,-0.35683 -0.07512,-0.56341c0,-0.24415 0.05321,-0.46951 0.15963,-0.67609c0.11268,-0.20658 0.26292,-0.38499 0.45073,-0.53524c0.19407,-0.1565 0.41943,-0.27544 0.67609,-0.35683c0.25666,-0.08138 0.53211,-0.12207 0.82633,-0.12207c0.27544,0 0.54776,0.03756 0.81695,0.11268c0.27544,0.07512 0.52898,0.18467 0.76061,0.32865c0.23162,0.13773 0.42568,0.30362 0.58219,0.49768l-0.65731,0.73243c-0.14398,-0.14398 -0.30049,-0.26918 -0.46951,-0.3756c-0.16902,-0.10642 -0.34118,-0.18781 -0.51646,-0.24415c-0.16902,-0.0626 -0.32239,-0.0939 -0.46012,-0.0939c-0.1565,0 -0.30049,0.01565 -0.43194,0.04695c-0.12521,0.02504 -0.23162,0.06886 -0.31926,0.13147c-0.08138,0.05634 -0.14711,0.13147 -0.19719,0.22536c-0.04382,0.08764 -0.06573,0.18781 -0.06573,0.30049c0.00626,0.0939 0.0313,0.18467 0.07512,0.27231c0.04382,0.08764 0.10329,0.15963 0.17841,0.21597c0.08138,0.0626 0.20345,0.12833 0.36622,0.19719c0.16276,0.0626 0.37247,0.12521 0.62914,0.18781c0.36934,0.0939 0.67609,0.20032 0.92024,0.31926c0.24415,0.11268 0.4382,0.24415 0.58219,0.39439c0.15024,0.14398 0.25354,0.30988 0.30988,0.49768c0.0626,0.18781 0.0939,0.39752 0.0939,0.62914c0,0.33179 -0.09703,0.63227 -0.2911,0.90145c-0.18781,0.26292 -0.44447,0.46951 -0.76999,0.61975c-0.31926,0.15024 -0.67609,0.22536 -1.07048,0.22536zM274.64341,347.46459c-0.49454,0 -0.93901,-0.08451 -1.3334,-0.25354c-0.39439,-0.17528 -0.72304,-0.43194 -0.98597,-0.76999l0.77938,-0.6667c0.22536,0.25666 0.46951,0.44447 0.73243,0.56341c0.26918,0.11268 0.5728,0.16902 0.91085,0.16902c0.13147,0 0.25354,-0.01565 0.36622,-0.04695c0.11894,-0.0313 0.22223,-0.08138 0.30988,-0.15024c0.08764,-0.06886 0.15337,-0.15024 0.19719,-0.24415c0.04382,-0.0939 0.06573,-0.19719 0.06573,-0.30988c0,-0.19407 -0.07199,-0.35057 -0.21597,-0.46951c-0.07512,-0.05008 -0.19407,-0.10642 -0.35683,-0.16902c-0.1565,-0.0626 -0.36309,-0.12833 -0.61975,-0.19719c-0.43194,-0.11268 -0.78564,-0.23789 -1.06109,-0.3756c-0.27544,-0.14398 -0.48828,-0.30675 -0.63853,-0.48828c-0.11268,-0.14398 -0.19719,-0.29736 -0.25354,-0.46012c-0.05008,-0.16902 -0.07512,-0.35683 -0.07512,-0.56341c0,-0.24415 0.05321,-0.46951 0.15963,-0.67609c0.11268,-0.20658 0.26292,-0.38499 0.45073,-0.53524c0.19407,-0.1565 0.41943,-0.27544 0.67609,-0.35683c0.25666,-0.08138 0.53211,-0.12207 0.82633,-0.12207c0.27544,0 0.54776,0.03756 0.81695,0.11268c0.27544,0.07512 0.52898,0.18467 0.76061,0.32865c0.23162,0.13773 0.42568,0.30362 0.58219,0.49768l-0.65731,0.73243c-0.14398,-0.14398 -0.30049,-0.26918 -0.46951,-0.3756c-0.16902,-0.10642 -0.34118,-0.18781 -0.51646,-0.24415c-0.16902,-0.0626 -0.32239,-0.0939 -0.46012,-0.0939c-0.1565,0 -0.30049,0.01565 -0.43194,0.04695c-0.12521,0.02504 -0.23162,0.06886 -0.31926,0.13147c-0.08138,0.05634 -0.14711,0.13147 -0.19719,0.22536c-0.04382,0.08764 -0.06573,0.18781 -0.06573,0.30049c0.00626,0.0939 0.0313,0.18467 0.07512,0.27231c0.04382,0.08764 0.10329,0.15963 0.17841,0.21597c0.08138,0.0626 0.20345,0.12833 0.36622,0.19719c0.16276,0.0626 0.37247,0.12521 0.62914,0.18781c0.36934,0.0939 0.67609,0.20032 0.92024,0.31926c0.24415,0.11268 0.4382,0.24415 0.58219,0.39439c0.15024,0.14398 0.25354,0.30988 0.30988,0.49768c0.0626,0.18781 0.0939,0.39752 0.0939,0.62914c0,0.33179 -0.09703,0.63227 -0.2911,0.90145c-0.18781,0.26292 -0.44447,0.46951 -0.76999,0.61975c-0.31926,0.15024 -0.67609,0.22536 -1.07048,0.22536zM279.49742,347.35191l-2.00949,-5.88763l1.16438,-0.00939l1.4367,4.40398l-0.25354,-0.01878l1.55876,-3.44619h0.69487l1.56815,3.45558l-0.30049,0.01878l1.44608,-4.40398h1.16438l-1.98132,5.88763h-0.79816l-1.64328,-3.74668l0.26292,0.03756l-1.5212,3.70911zM289.50056,347.46459c-0.57593,0 -1.09239,-0.13147 -1.54938,-0.39439c-0.45073,-0.26918 -0.80756,-0.63227 -1.07048,-1.08926c-0.25666,-0.46325 -0.38499,-0.9891 -0.38499,-1.57755c0,-0.58845 0.12833,-1.11117 0.38499,-1.56815c0.26292,-0.46325 0.61975,-0.82633 1.07048,-1.08926c0.45699,-0.26918 0.97345,-0.40378 1.54938,-0.40378c0.56341,0 1.07048,0.1346 1.5212,0.40378c0.45699,0.26292 0.81695,0.62601 1.07987,1.08926c0.26292,0.45699 0.39439,0.97971 0.39439,1.56815c0,0.58845 -0.13147,1.11429 -0.39439,1.57755c-0.26292,0.45699 -0.62288,0.82007 -1.07987,1.08926c-0.45073,0.26292 -0.9578,0.39439 -1.5212,0.39439zM289.50056,346.41289c0.35057,0 0.66357,-0.08764 0.93901,-0.26292c0.27544,-0.17528 0.49142,-0.41317 0.64793,-0.71365c0.1565,-0.30675 0.23162,-0.65105 0.22536,-1.03292c0.00626,-0.38813 -0.06886,-0.73243 -0.22536,-1.03292c-0.1565,-0.30675 -0.37247,-0.54463 -0.64793,-0.71365c-0.27544,-0.17528 -0.58845,-0.26292 -0.93901,-0.26292c-0.35057,0 -0.6667,0.08764 -0.9484,0.26292c-0.2817,0.17528 -0.50081,0.4163 -0.65731,0.72304c-0.1565,0.30049 -0.23162,0.64167 -0.22536,1.02353c-0.00626,0.38186 0.06886,0.72617 0.22536,1.03292c0.1565,0.30049 0.3756,0.53837 0.65731,0.71365c0.2817,0.17528 0.59783,0.26292 0.9484,0.26292zM293.74783,347.35191v-5.88763h1.16438v1.84986l-0.11268,-0.45073c0.08138,-0.2817 0.22223,-0.53837 0.42256,-0.76999c0.20032,-0.23162 0.42881,-0.41317 0.68548,-0.54463c0.25666,-0.13773 0.52272,-0.20658 0.79816,-0.20658c0.12521,0 0.24415,0.01252 0.35683,0.03756c0.11894,0.01878 0.21284,0.04382 0.2817,0.07512l-0.30049,1.25828c-0.08764,-0.03756 -0.18781,-0.06886 -0.30049,-0.0939c-0.10642,-0.0313 -0.21284,-0.04695 -0.31926,-0.04695c-0.20032,0 -0.39125,0.04069 -0.5728,0.12207c-0.18155,0.07512 -0.34431,0.18467 -0.48828,0.32865c-0.13773,0.13773 -0.24728,0.29736 -0.32865,0.4789c-0.08138,0.18155 -0.12207,0.38186 -0.12207,0.60097v3.249zM300.47023,347.46459c-0.53837,0 -1.01727,-0.13147 -1.4367,-0.39439c-0.41943,-0.26918 -0.75435,-0.63227 -1.00474,-1.08926c-0.24415,-0.46325 -0.36622,-0.9891 -0.36622,-1.57755c0,-0.58845 0.11894,-1.11117 0.35683,-1.56815c0.24415,-0.46325 0.57593,-0.82633 0.99535,-1.08926c0.41943,-0.26918 0.89519,-0.40378 1.42731,-0.40378c0.28796,0 0.56967,0.04695 0.84511,0.14085c0.27544,0.0939 0.51959,0.22223 0.73243,0.38499c0.2191,0.1565 0.38813,0.33179 0.50707,0.52585c0.12521,0.18781 0.18781,0.37873 0.18781,0.5728l-0.33805,0.02817v-3.94386h1.15499v8.3009h-1.15499v-1.39913h0.22536c0,0.17528 -0.05947,0.3537 -0.17841,0.53524c-0.11894,0.17528 -0.27857,0.33805 -0.4789,0.48828c-0.19407,0.14398 -0.42256,0.26292 -0.68548,0.35683c-0.25666,0.08764 -0.51959,0.13147 -0.78877,0.13147zM300.62986,346.46923c0.35057,0 0.66044,-0.09077 0.92963,-0.27231c0.26918,-0.18155 0.4789,-0.42568 0.62914,-0.73243c0.1565,-0.313 0.23476,-0.6667 0.23476,-1.06109c0,-0.39439 -0.07826,-0.74496 -0.23476,-1.05169c-0.15024,-0.313 -0.35996,-0.56028 -0.62914,-0.74182c-0.26918,-0.18155 -0.57906,-0.27231 -0.92963,-0.27231c-0.35057,0 -0.66044,0.09077 -0.92963,0.27231c-0.26918,0.18155 -0.48203,0.42881 -0.63853,0.74182c-0.15024,0.30675 -0.22536,0.65731 -0.22536,1.05169c0,0.39439 0.07512,0.74808 0.22536,1.06109c0.1565,0.30675 0.36934,0.55089 0.63853,0.73243c0.26918,0.18155 0.57906,0.27231 0.92963,0.27231z" fill="#ffffff" stroke="none" stroke-width="1" stroke-linecap="square"/><path d="M234.61905,328.5c-0.44524,0 -0.82639,-0.15853 -1.14345,-0.4756c-0.31706,-0.31706 -0.4756,-0.69821 -0.4756,-1.14345v-8.09524c0,-0.44524 0.15853,-0.82639 0.4756,-1.14345c0.31706,-0.31706 0.69821,-0.4756 1.14345,-0.4756h0.80952v-1.61905c0,-1.11984 0.39464,-2.0744 1.18393,-2.86369c0.78929,-0.78929 1.74385,-1.18393 2.86369,-1.18393c1.11984,0 2.0744,0.39464 2.86369,1.18393c0.78929,0.78929 1.18393,1.74385 1.18393,2.86369v1.61905h0.80952c0.44524,0 0.82639,0.15853 1.14345,0.4756c0.31706,0.31706 0.4756,0.69821 0.4756,1.14345v8.09524c0,0.44524 -0.15853,0.82639 -0.4756,1.14345c-0.31706,0.31706 -0.69821,0.4756 -1.14345,0.4756zM234.61905,326.88095h9.71429v-8.09524h-9.71429zM239.47619,324.45238c0.44524,0 0.82639,-0.15853 1.14345,-0.4756c0.31706,-0.31706 0.4756,-0.69821 0.4756,-1.14345c0,-0.44524 -0.15853,-0.82639 -0.4756,-1.14345c-0.31706,-0.31706 -0.69821,-0.4756 -1.14345,-0.4756c-0.44524,0 -0.82639,0.15853 -1.14345,0.4756c-0.31706,0.31706 -0.4756,0.69821 -0.4756,1.14345c0,0.44524 0.15853,0.82639 0.4756,1.14345c0.31706,0.31706 0.69821,0.4756 1.14345,0.4756zM237.04762,317.16667h4.85714v-1.61905c0,-0.6746 -0.23611,-1.24802 -0.70833,-1.72024c-0.47222,-0.47222 -1.04564,-0.70833 -1.72024,-0.70833c-0.6746,0 -1.24802,0.23611 -1.72024,0.70833c-0.47222,0.47222 -0.70833,1.04564 -0.70833,1.72024zM234.61905,326.88095v-8.09524z" fill="#ffffff" stroke="none" stroke-width="1" stroke-linecap="butt"/></g></g></svg>