<svg version="1.1" xmlns="http://www.w3.org/2000/svg" xmlns:xlink="http://www.w3.org/1999/xlink" width="40.36638" height="11.22323" viewBox="0,0,40.36638,11.22323"><g transform="translate(-219.81681,-174.38838)"><g data-paper-data="{&quot;isPaintingLayer&quot;:true}" fill="#ffffff" fill-rule="nonzero" stroke="none" stroke-width="1" stroke-linecap="square" stroke-linejoin="miter" stroke-miterlimit="10" stroke-dasharray="" stroke-dashoffset="0" style="mix-blend-mode: normal"><path d="M219.81681,182.83357l3.26291,-8.44519h1.33345l3.24271,8.44519h-1.38396l-1.92946,-5.09136c-0.02694,-0.05388 -0.07408,-0.18857 -0.14143,-0.40408c-0.06734,-0.22224 -0.14816,-0.46469 -0.24245,-0.72733c-0.08755,-0.26938 -0.16836,-0.51183 -0.24245,-0.72733c-0.06734,-0.22224 -0.11449,-0.36704 -0.14142,-0.43439l0.28286,-0.0101c-0.04714,0.13469 -0.10775,0.30642 -0.18184,0.5152c-0.06734,0.20878 -0.13806,0.43102 -0.21214,0.66672c-0.07408,0.23571 -0.14817,0.45795 -0.22225,0.66672c-0.07408,0.20204 -0.13469,0.3704 -0.18183,0.50509l-1.91936,5.04085zM221.26138,180.73239l0.48489,-1.25264h3.83872l0.5556,1.25264zM230.92741,182.9548c-0.45122,0 -0.84519,-0.10438 -1.18192,-0.31316c-0.32999,-0.20878 -0.58591,-0.50172 -0.76775,-0.87886c-0.18184,-0.37714 -0.27275,-0.82836 -0.27275,-1.35366v-3.90944h1.24254v3.57607c0,0.36367 0.05724,0.68019 0.17173,0.94958c0.12123,0.26938 0.28959,0.47816 0.5051,0.62632c0.22224,0.14142 0.49162,0.21214 0.80815,0.21214c0.22897,0 0.44111,-0.03704 0.63642,-0.11112c0.1953,-0.07408 0.36367,-0.17847 0.5051,-0.31316c0.14142,-0.14142 0.24918,-0.30642 0.32326,-0.49499c0.08082,-0.19531 0.12123,-0.40744 0.12123,-0.63642v-3.80841h1.24254v6.33389h-1.24254v-1.32335l0.22224,-0.15153c-0.09429,0.30306 -0.25592,0.57581 -0.48489,0.81826c-0.22897,0.23571 -0.50173,0.42428 -0.81825,0.5657c-0.31653,0.14142 -0.65326,0.21214 -1.01019,0.21214zM238.72026,185.6116c-0.45122,0 -0.90243,-0.07071 -1.35365,-0.21214c-0.44448,-0.14142 -0.80142,-0.32663 -1.07081,-0.5556l0.45459,-0.95968c0.16163,0.12122 0.3502,0.22561 0.56571,0.31316c0.21551,0.09428 0.44448,0.16836 0.68693,0.22224c0.24245,0.05388 0.48152,0.08082 0.71723,0.08082c0.43775,0 0.80479,-0.07408 1.10111,-0.22225c0.30306,-0.14142 0.52867,-0.35356 0.67683,-0.63642c0.1549,-0.28285 0.23234,-0.63305 0.23234,-1.0506v-1.21223l0.13133,0.08082c-0.04041,0.24918 -0.17174,0.48826 -0.39398,0.71724c-0.22224,0.22898 -0.49836,0.41754 -0.82835,0.5657c-0.32326,0.14142 -0.65999,0.21214 -1.01019,0.21214c-0.59938,0 -1.13478,-0.14143 -1.6062,-0.42428c-0.47142,-0.28959 -0.8452,-0.68019 -1.12132,-1.17182c-0.26938,-0.49836 -0.40408,-1.06406 -0.40408,-1.69711c0,-0.63305 0.13469,-1.1954 0.40408,-1.68702c0.26938,-0.49836 0.63643,-0.88896 1.10111,-1.17182c0.47142,-0.28959 1.00346,-0.43438 1.5961,-0.43438c0.23571,0 0.46469,0.03031 0.68693,0.09092c0.22897,0.06061 0.44112,0.1448 0.63642,0.25255c0.1953,0.10775 0.36703,0.22561 0.51519,0.35357c0.1549,0.12796 0.27948,0.26602 0.37377,0.41418c0.10102,0.14142 0.16163,0.27612 0.18184,0.40408l-0.26265,0.10102v-1.48498h1.24254v5.95002c0,0.50509 -0.07408,0.95295 -0.22224,1.34355c-0.14816,0.3906 -0.36366,0.7206 -0.64652,0.98999c-0.28286,0.26938 -0.62632,0.47479 -1.03039,0.61621c-0.39734,0.14142 -0.84856,0.21214 -1.35366,0.21214zM238.76067,181.81328c0.39734,0 0.74754,-0.09091 1.05059,-0.27275c0.30979,-0.18857 0.54887,-0.44449 0.71724,-0.76775c0.16836,-0.32326 0.25255,-0.69366 0.25255,-1.1112c0,-0.41755 -0.08755,-0.78795 -0.26265,-1.11121c-0.1751,-0.32999 -0.41418,-0.58591 -0.71723,-0.76775c-0.29632,-0.18857 -0.64315,-0.28285 -1.04049,-0.28285c-0.38387,0 -0.72734,0.09428 -1.03039,0.28285c-0.30306,0.18857 -0.54214,0.44785 -0.71724,0.77784c-0.16836,0.32326 -0.25254,0.6903 -0.25254,1.10111c0,0.41081 0.08418,0.78121 0.25254,1.1112c0.1751,0.32326 0.41418,0.57918 0.71724,0.76775c0.30306,0.18184 0.64652,0.27275 1.03039,0.27275zM245.83552,182.9548c-0.45122,0 -0.84519,-0.10438 -1.18192,-0.31316c-0.32999,-0.20878 -0.58591,-0.50172 -0.76774,-0.87886c-0.18184,-0.37714 -0.27275,-0.82836 -0.27275,-1.35366v-3.90944h1.24253v3.57607c0,0.36367 0.05724,0.68019 0.17173,0.94958c0.12123,0.26938 0.28959,0.47816 0.5051,0.62632c0.22224,0.14142 0.49162,0.21214 0.80815,0.21214c0.22897,0 0.44112,-0.03704 0.63642,-0.11112c0.1953,-0.07408 0.36367,-0.17847 0.50509,-0.31316c0.14142,-0.14142 0.24918,-0.30642 0.32326,-0.49499c0.08082,-0.19531 0.12123,-0.40744 0.12123,-0.63642v-3.80841h1.24253v6.33389h-1.24253v-1.32335l0.22224,-0.15153c-0.09429,0.30306 -0.25592,0.57581 -0.48489,0.81826c-0.22897,0.23571 -0.50173,0.42428 -0.81825,0.5657c-0.31653,0.14142 -0.65326,0.21214 -1.01019,0.21214zM253.0217,182.9548c-0.53203,0 -1.01018,-0.09091 -1.43446,-0.27275c-0.42428,-0.18857 -0.77785,-0.46469 -1.0607,-0.82836l0.83846,-0.71724c0.24245,0.27612 0.50509,0.47816 0.78794,0.60612c0.28959,0.12122 0.61622,0.18184 0.97988,0.18184c0.14142,0 0.27275,-0.01684 0.39397,-0.05051c0.12795,-0.03368 0.23907,-0.08755 0.33336,-0.16163c0.09429,-0.07408 0.165,-0.16163 0.21214,-0.26265c0.04714,-0.10102 0.07072,-0.21214 0.07072,-0.33336c0,-0.20878 -0.07745,-0.37714 -0.23235,-0.5051c-0.08082,-0.05388 -0.20877,-0.11449 -0.38387,-0.18183c-0.16836,-0.06735 -0.39061,-0.13806 -0.66672,-0.21214c-0.46469,-0.12122 -0.84519,-0.25591 -1.14151,-0.40407c-0.29632,-0.15489 -0.5253,-0.32999 -0.68693,-0.52529c-0.12123,-0.15489 -0.21214,-0.3199 -0.27275,-0.495c-0.05388,-0.18184 -0.08082,-0.38388 -0.08082,-0.60612c0,-0.26265 0.05724,-0.50509 0.17173,-0.72733c0.12123,-0.22224 0.28285,-0.41418 0.48489,-0.57581c0.20878,-0.16836 0.45122,-0.29632 0.72734,-0.38387c0.27612,-0.08755 0.57244,-0.13133 0.88897,-0.13133c0.29631,0 0.58926,0.04041 0.87885,0.12122c0.29632,0.08082 0.56907,0.19867 0.81825,0.35357c0.24918,0.14816 0.45796,0.32663 0.62632,0.5354l-0.70714,0.78794c-0.1549,-0.15489 -0.32326,-0.28958 -0.50509,-0.40407c-0.18184,-0.11449 -0.36704,-0.20204 -0.55561,-0.26265c-0.18184,-0.06735 -0.34683,-0.10102 -0.49499,-0.10102c-0.16836,0 -0.32325,0.01683 -0.46468,0.05051c-0.13469,0.02694 -0.24918,0.07408 -0.34347,0.14143c-0.08755,0.06061 -0.15827,0.14142 -0.21214,0.24245c-0.04714,0.09428 -0.07071,0.20204 -0.07071,0.32326c0.00673,0.10102 0.03368,0.19867 0.08082,0.29295c0.04714,0.09428 0.11112,0.17174 0.19194,0.23235c0.08755,0.06735 0.21888,0.13806 0.39398,0.21214c0.1751,0.06735 0.4007,0.13469 0.67681,0.20204c0.39734,0.10102 0.72734,0.21551 0.98999,0.34346c0.26265,0.12122 0.47142,0.26265 0.62632,0.42428c0.16163,0.15489 0.27275,0.33336 0.33336,0.5354c0.06734,0.20204 0.10102,0.42765 0.10102,0.67683c0,0.35693 -0.10439,0.68019 -0.31316,0.96978c-0.20204,0.28285 -0.47815,0.50509 -0.82835,0.66672c-0.34347,0.16163 -0.72733,0.24245 -1.15161,0.24245zM257.47588,182.83357v-7.95019h1.24254v7.95019zM256.15254,177.71191v-1.21223h4.03065v1.21223z"/></g></g></svg>