<svg version="1.1" xmlns="http://www.w3.org/2000/svg" xmlns:xlink="http://www.w3.org/1999/xlink" width="164.51564" height="53.08152" viewBox="0,0,164.51564,53.08152"><g transform="translate(-157.74218,-170.65621)"><g data-paper-data="{&quot;isPaintingLayer&quot;:true}" fill="#ffffff" fill-rule="nonzero" stroke="none" stroke-width="1" stroke-linecap="square" stroke-linejoin="miter" stroke-miterlimit="10" stroke-dasharray="" stroke-dashoffset="0" style="mix-blend-mode: normal"><path d="M212.43266,223.56582l-0.60937,-1.53125l3.98438,-4.5c0.20833,-0.21875 0.42708,-0.47396 0.65625,-0.76562c0.23958,-0.29167 0.46354,-0.59375 0.67188,-0.90625c0.20833,-0.3125 0.375,-0.61979 0.5,-0.92187c0.13542,-0.30208 0.20313,-0.59375 0.20313,-0.875c0,-0.39583 -0.07812,-0.73437 -0.23437,-1.01562c-0.15625,-0.28125 -0.38021,-0.49479 -0.67187,-0.64062c-0.29167,-0.14583 -0.64062,-0.21875 -1.04687,-0.21875c-0.36458,0 -0.72396,0.10417 -1.07812,0.3125c-0.34375,0.20833 -0.65625,0.50521 -0.9375,0.89063c-0.28125,0.38542 -0.50521,0.83333 -0.67187,1.34375l-1.54687,-0.96875c0.20833,-0.71875 0.52604,-1.33333 0.95313,-1.84375c0.4375,-0.52083 0.95313,-0.91667 1.54688,-1.1875c0.60417,-0.28125 1.26042,-0.42187 1.96875,-0.42187c0.73958,0 1.39583,0.15625 1.96875,0.46875c0.57292,0.30208 1.02083,0.72396 1.34375,1.26563c0.32292,0.54167 0.48438,1.16667 0.48438,1.875c0,0.28125 -0.03125,0.57292 -0.09375,0.875c-0.0625,0.29167 -0.16146,0.59896 -0.29687,0.92188c-0.13542,0.3125 -0.3125,0.64063 -0.53125,0.98438c-0.20833,0.34375 -0.45833,0.70313 -0.75,1.07813c-0.29167,0.375 -0.625,0.76563 -1,1.17188l-2.96875,3.23438l-0.375,-0.5625h6.42188v1.9375zM225.17192,223.56582l-0.07812,-0.1875l3.89063,-8.25l0.04688,1.54688c-0.21875,0.375 -0.46354,0.70833 -0.73437,1c-0.26042,0.28125 -0.55208,0.52604 -0.875,0.73438c-0.3125,0.20833 -0.64062,0.36458 -0.98437,0.46875c-0.33333,0.10417 -0.67187,0.15625 -1.01562,0.15625c-0.70833,0 -1.36458,-0.1875 -1.96875,-0.5625c-0.59375,-0.375 -1.07292,-0.86979 -1.4375,-1.48437c-0.35417,-0.625 -0.53125,-1.30729 -0.53125,-2.04687c0,-0.875 0.19792,-1.66146 0.59375,-2.35937c0.39583,-0.70833 0.9375,-1.26562 1.625,-1.67187c0.69792,-0.41667 1.47396,-0.625 2.32813,-0.625c0.625,0 1.20833,0.11458 1.75,0.34375c0.55208,0.21875 1.03125,0.53125 1.4375,0.9375c0.41667,0.39583 0.73958,0.85938 0.96875,1.39063c0.23958,0.53125 0.35938,1.09375 0.35938,1.6875c0,0.3125 -0.03125,0.64583 -0.09375,1c-0.0625,0.35417 -0.16667,0.75521 -0.3125,1.20313c-0.13542,0.4375 -0.32292,0.94271 -0.5625,1.51563c-0.23958,0.5625 -0.53125,1.21354 -0.875,1.95313l-1.54687,3.25zM225.84379,217.15957c0.48958,0 0.92708,-0.10417 1.3125,-0.3125c0.38542,-0.21875 0.6875,-0.51042 0.90625,-0.875c0.21875,-0.375 0.32813,-0.79167 0.32813,-1.25c0,-0.48958 -0.10937,-0.92708 -0.32812,-1.3125c-0.20833,-0.39583 -0.50521,-0.70312 -0.89062,-0.92187c-0.375,-0.22917 -0.80208,-0.34375 -1.28125,-0.34375c-0.44792,0 -0.84896,0.10938 -1.20312,0.32813c-0.34375,0.21875 -0.61979,0.52083 -0.82812,0.90625c-0.20833,0.375 -0.3125,0.81771 -0.3125,1.32813c0,0.4375 0.10417,0.84375 0.3125,1.21875c0.20833,0.36458 0.48438,0.66146 0.82813,0.89063c0.35417,0.22917 0.73958,0.34375 1.15625,0.34375zM233.60777,223.56582l8.64063,-13.0625h1.92188l-8.73437,13.0625zM234.79527,217.4252c-0.55208,0 -1.04687,-0.15104 -1.48437,-0.45312c-0.42708,-0.30208 -0.76042,-0.71875 -1,-1.25c-0.23958,-0.53125 -0.35937,-1.13542 -0.35937,-1.8125c0,-0.6875 0.11979,-1.30208 0.35938,-1.84375c0.23958,-0.54167 0.57813,-0.96354 1.01563,-1.26562c0.4375,-0.3125 0.9375,-0.46875 1.5,-0.46875c0.55208,0 1.04167,0.15625 1.46875,0.46875c0.4375,0.30208 0.77604,0.72396 1.01563,1.26563c0.23958,0.54167 0.35938,1.15625 0.35938,1.84375c0,0.65625 -0.125,1.25 -0.375,1.78125c-0.23958,0.53125 -0.57812,0.95313 -1.01562,1.26563c-0.4375,0.3125 -0.93229,0.46875 -1.48437,0.46875zM234.82652,216.03457c0.26042,0 0.48438,-0.08854 0.67188,-0.26562c0.19792,-0.17708 0.34896,-0.42187 0.45313,-0.73437c0.10417,-0.32292 0.15625,-0.69792 0.15625,-1.125c0,-0.4375 -0.05208,-0.81771 -0.15625,-1.14062c-0.10417,-0.32292 -0.25521,-0.57292 -0.45312,-0.75c-0.1875,-0.17708 -0.42187,-0.26562 -0.70312,-0.26562c-0.26042,0 -0.48958,0.09375 -0.6875,0.28125c-0.19792,0.17708 -0.34896,0.42708 -0.45312,0.75c-0.10417,0.3125 -0.15625,0.6875 -0.15625,1.125c0,0.42708 0.05208,0.80208 0.15625,1.125c0.10417,0.3125 0.25521,0.55729 0.45313,0.73438c0.19792,0.17708 0.4375,0.26563 0.71875,0.26563zM243.06089,223.7377c-0.55208,0 -1.04687,-0.15625 -1.48437,-0.46875c-0.42708,-0.3125 -0.76562,-0.72917 -1.01562,-1.25c-0.23958,-0.53125 -0.35937,-1.13542 -0.35937,-1.8125c0,-0.6875 0.11979,-1.29687 0.35938,-1.82812c0.23958,-0.54167 0.57813,-0.96354 1.01563,-1.26562c0.4375,-0.3125 0.93229,-0.46875 1.48438,-0.46875c0.5625,0 1.05729,0.15625 1.48438,0.46875c0.4375,0.30208 0.77604,0.72396 1.01563,1.26563c0.23958,0.53125 0.35938,1.14063 0.35938,1.82813c0,0.65625 -0.125,1.25521 -0.375,1.79688c-0.25,0.53125 -0.58854,0.95313 -1.01562,1.26563c-0.42708,0.3125 -0.91667,0.46875 -1.46875,0.46875zM243.06089,222.34707c0.26042,0 0.48958,-0.08854 0.6875,-0.26562c0.20833,-0.17708 0.36458,-0.42187 0.46875,-0.73437c0.10417,-0.32292 0.15625,-0.70312 0.15625,-1.14062c0,-0.4375 -0.05208,-0.8125 -0.15625,-1.125c-0.10417,-0.32292 -0.26042,-0.57292 -0.46875,-0.75c-0.19792,-0.17708 -0.42708,-0.26562 -0.6875,-0.26562c-0.27083,0 -0.50521,0.08854 -0.70312,0.26563c-0.19792,0.16667 -0.34896,0.41146 -0.45312,0.73438c-0.10417,0.32292 -0.15625,0.70313 -0.15625,1.14063c0,0.4375 0.05208,0.81771 0.15625,1.14063c0.10417,0.3125 0.25521,0.55729 0.45313,0.73438c0.19792,0.17708 0.43229,0.26563 0.70313,0.26563z"/><path d="M157.74218,185.04688v-1.85937h2.10938v-9.32812h-2.10937v-1.875h6.23438v1.875h-2.10937v9.32813h2.10938v1.85938zM166.65988,185.04688v-9.79687h1.92188v2.01563l-0.34375,0.21875c0.125,-0.42708 0.36979,-0.82292 0.73438,-1.1875c0.36459,-0.375 0.79166,-0.67708 1.28125,-0.90625c0.5,-0.22917 1.01041,-0.34375 1.53125,-0.34375c0.75,0 1.36979,0.14583 1.85938,0.4375c0.5,0.29167 0.875,0.73958 1.125,1.34375c0.25,0.59375 0.375,1.34375 0.375,2.25v5.96875h-1.92187v-5.84375c0,-0.55208 -0.07291,-1.01042 -0.21875,-1.375c-0.14584,-0.375 -0.375,-0.64583 -0.6875,-0.8125c-0.3125,-0.16667 -0.69791,-0.23958 -1.15625,-0.21875c-0.375,0 -0.71875,0.0625 -1.03125,0.1875c-0.3125,0.11458 -0.58334,0.28125 -0.8125,0.5c-0.22916,0.20833 -0.41146,0.45313 -0.54687,0.73438c-0.125,0.27083 -0.1875,0.56771 -0.1875,0.89063v5.9375h-0.95312c-0.15625,0 -0.31771,0 -0.48437,0c-0.16666,0 -0.32812,0 -0.48437,0zM181.02596,185.23438c-0.82291,0 -1.5625,-0.14062 -2.21875,-0.42187c-0.65625,-0.29167 -1.20312,-0.71875 -1.64062,-1.28125l1.29688,-1.10937c0.375,0.42708 0.78125,0.73958 1.21875,0.9375c0.44791,0.1875 0.95313,0.28125 1.51563,0.28125c0.21875,0 0.42188,-0.02604 0.60938,-0.07812c0.19791,-0.05208 0.36979,-0.13542 0.51563,-0.25c0.14584,-0.11458 0.25521,-0.25 0.32813,-0.40625c0.07291,-0.15625 0.10938,-0.32812 0.10938,-0.51562c0,-0.32292 -0.11979,-0.58333 -0.35937,-0.78125c-0.125,-0.08333 -0.32291,-0.17708 -0.59375,-0.28125c-0.26041,-0.10417 -0.60416,-0.21354 -1.03125,-0.32812c-0.71875,-0.1875 -1.30729,-0.39583 -1.76562,-0.625c-0.45834,-0.23958 -0.8125,-0.51042 -1.0625,-0.8125c-0.1875,-0.23958 -0.32812,-0.49479 -0.42187,-0.76562c-0.08334,-0.28125 -0.125,-0.59375 -0.125,-0.9375c0,-0.40625 0.08854,-0.78125 0.26563,-1.125c0.1875,-0.34375 0.4375,-0.64062 0.75,-0.89062c0.32291,-0.26042 0.69791,-0.45833 1.125,-0.59375c0.42709,-0.13542 0.88541,-0.20312 1.375,-0.20312c0.45834,0 0.91146,0.0625 1.35938,0.1875c0.45834,0.125 0.88021,0.30729 1.26563,0.54688c0.38541,0.22917 0.70834,0.50521 0.96875,0.82813l-1.09375,1.21875c-0.23959,-0.23958 -0.5,-0.44792 -0.78125,-0.625c-0.28125,-0.17708 -0.56771,-0.3125 -0.85937,-0.40625c-0.28125,-0.10417 -0.53646,-0.15625 -0.76562,-0.15625c-0.26041,0 -0.5,0.02604 -0.71875,0.07813c-0.20834,0.04167 -0.38541,0.11458 -0.53125,0.21875c-0.13541,0.09375 -0.24479,0.21875 -0.32812,0.375c-0.07291,0.14583 -0.10937,0.3125 -0.10937,0.5c0.01041,0.15625 0.05209,0.30729 0.125,0.45313c0.07291,0.14583 0.17188,0.26563 0.29688,0.35938c0.13541,0.10417 0.33854,0.21354 0.60938,0.32813c0.27084,0.10417 0.61979,0.20833 1.04688,0.3125c0.61459,0.15625 1.125,0.33333 1.53125,0.53125c0.40625,0.1875 0.72916,0.40625 0.96875,0.65625c0.25,0.23958 0.42188,0.51563 0.51563,0.82813c0.10416,0.3125 0.15625,0.66146 0.15625,1.04688c0,0.55208 -0.16146,1.05208 -0.48437,1.5c-0.3125,0.4375 -0.73959,0.78125 -1.28125,1.03125c-0.53125,0.25 -1.125,0.375 -1.78125,0.375zM187.91543,185.04688v-12.29687h1.92188v12.29688zM185.86855,177.12496v-1.875h6.23438v1.875zM197.53297,185.23438c-0.80209,0 -1.53646,-0.22396 -2.20312,-0.67187c-0.66666,-0.44792 -1.20312,-1.05729 -1.60937,-1.82812c-0.39584,-0.77083 -0.59375,-1.64062 -0.59375,-2.60937c0,-0.98958 0.20313,-1.86458 0.60938,-2.625c0.40625,-0.76042 0.95313,-1.35937 1.64063,-1.79687c0.69791,-0.4375 1.47396,-0.65625 2.32813,-0.65625c0.51041,0 0.97396,0.07813 1.39063,0.23438c0.42709,0.14583 0.79688,0.35417 1.10938,0.625c0.32291,0.26042 0.58334,0.56771 0.78125,0.92188c0.20834,0.34375 0.33854,0.71354 0.39063,1.10938l-0.42187,-0.14062v-2.54687h1.9375v9.79688h-1.9375v-2.32812l0.4375,-0.14062c-0.07291,0.34375 -0.22396,0.67708 -0.45312,1c-0.22916,0.3125 -0.52084,0.59375 -0.875,0.84375c-0.35416,0.23958 -0.74479,0.4375 -1.17187,0.59375c-0.42709,0.14583 -0.88021,0.21875 -1.35937,0.21875zM198.03297,183.46871c0.59375,0 1.10938,-0.14062 1.54688,-0.42187c0.44791,-0.29167 0.79688,-0.6875 1.04688,-1.1875c0.26041,-0.51042 0.39063,-1.08854 0.39063,-1.73437c0,-0.63542 -0.13021,-1.20312 -0.39062,-1.70312c-0.25,-0.5 -0.59896,-0.89062 -1.04687,-1.17187c-0.4375,-0.29167 -0.95312,-0.4375 -1.54687,-0.4375c-0.57291,0 -1.07812,0.14583 -1.51562,0.4375c-0.4375,0.28125 -0.78646,0.67188 -1.04687,1.17188c-0.25,0.5 -0.375,1.06771 -0.375,1.70313c0,0.64583 0.125,1.22396 0.375,1.73438c0.26041,0.5 0.60938,0.89583 1.04688,1.1875c0.4375,0.28125 0.94271,0.42188 1.51563,0.42188zM205.608,185.04688v-13.8125h1.92188v13.8125zM210.29072,185.04688v-13.8125h1.92188v13.8125zM215.25469,185.04688v-9.79687h1.92188v9.79688zM216.19219,173.09371c-0.40625,0 -0.72396,-0.10417 -0.95312,-0.3125c-0.21875,-0.21875 -0.32812,-0.52083 -0.32812,-0.90625c0,-0.36458 0.11459,-0.65625 0.34375,-0.875c0.22916,-0.22917 0.54166,-0.34375 0.9375,-0.34375c0.40625,0 0.71875,0.10938 0.9375,0.32813c0.22916,0.20833 0.34375,0.50521 0.34375,0.89063c0,0.36458 -0.11459,0.66146 -0.34375,0.89063c-0.22916,0.21875 -0.54166,0.32813 -0.9375,0.32813zM220.12863,185.04688v-9.79687h1.92188v2.01563l-0.34375,0.21875c0.125,-0.42708 0.36979,-0.82292 0.73438,-1.1875c0.36459,-0.375 0.79166,-0.67708 1.28125,-0.90625c0.5,-0.22917 1.01041,-0.34375 1.53125,-0.34375c0.75,0 1.36979,0.14583 1.85938,0.4375c0.5,0.29167 0.875,0.73958 1.125,1.34375c0.25,0.59375 0.375,1.34375 0.375,2.25v5.96875h-1.92187v-5.84375c0,-0.55208 -0.07291,-1.01042 -0.21875,-1.375c-0.14584,-0.375 -0.375,-0.64583 -0.6875,-0.8125c-0.3125,-0.16667 -0.69791,-0.23958 -1.15625,-0.21875c-0.375,0 -0.71875,0.0625 -1.03125,0.1875c-0.3125,0.11458 -0.58334,0.28125 -0.8125,0.5c-0.22916,0.20833 -0.41146,0.45313 -0.54687,0.73438c-0.125,0.27083 -0.1875,0.56771 -0.1875,0.89063v5.9375h-0.95312c-0.15625,0 -0.31771,0 -0.48437,0c-0.16666,0 -0.32812,0 -0.48437,0zM235.61972,189.34371c-0.69791,0 -1.39584,-0.10937 -2.09375,-0.32812c-0.6875,-0.21875 -1.23959,-0.50521 -1.65625,-0.85937l0.70313,-1.48437c0.25,0.1875 0.54166,0.34896 0.875,0.48438c0.33334,0.14583 0.6875,0.26042 1.0625,0.34375c0.375,0.08333 0.74479,0.125 1.10938,0.125c0.67709,0 1.24479,-0.11458 1.70313,-0.34375c0.46875,-0.21875 0.81771,-0.54687 1.04688,-0.98437c0.23959,-0.4375 0.35938,-0.97917 0.35938,-1.625v-1.875l0.20313,0.125c-0.0625,0.38542 -0.26562,0.75521 -0.60937,1.10938c-0.34375,0.35417 -0.77084,0.64583 -1.28125,0.875c-0.5,0.21875 -1.02084,0.32813 -1.5625,0.32813c-0.92709,0 -1.75521,-0.21875 -2.48437,-0.65625c-0.72916,-0.44792 -1.30729,-1.05208 -1.73437,-1.8125c-0.41666,-0.77083 -0.625,-1.64583 -0.625,-2.625c0,-0.97917 0.20834,-1.84896 0.625,-2.60937c0.41666,-0.77083 0.98438,-1.375 1.70313,-1.8125c0.72916,-0.44792 1.55209,-0.67187 2.46875,-0.67187c0.36459,0 0.71875,0.04688 1.0625,0.14063c0.35416,0.09375 0.68229,0.22396 0.98438,0.39063c0.30209,0.16667 0.56771,0.34896 0.79688,0.54688c0.23959,0.19792 0.43229,0.41146 0.57813,0.64063c0.15625,0.21875 0.25,0.42708 0.28125,0.625l-0.40625,0.15625v-2.29687h1.92188v9.20313c0,0.78125 -0.11459,1.47396 -0.34375,2.07813c-0.22916,0.60417 -0.5625,1.11458 -1,1.53125c-0.4375,0.41667 -0.96875,0.73438 -1.59375,0.95313c-0.61459,0.21875 -1.3125,0.32813 -2.09375,0.32813zM235.68222,183.46871c0.61459,0 1.15625,-0.14062 1.625,-0.42187c0.47916,-0.29167 0.84896,-0.6875 1.10938,-1.1875c0.26041,-0.5 0.39063,-1.07292 0.39063,-1.71875c0,-0.64583 -0.13541,-1.21875 -0.40625,-1.71875c-0.27084,-0.51042 -0.64062,-0.90625 -1.10937,-1.1875c-0.45834,-0.29167 -0.99479,-0.4375 -1.60937,-0.4375c-0.59375,0 -1.125,0.14583 -1.59375,0.4375c-0.46875,0.29167 -0.83854,0.69271 -1.10937,1.20313c-0.26041,0.5 -0.39062,1.06771 -0.39062,1.70313c0,0.63542 0.13021,1.20833 0.39063,1.71875c0.27084,0.5 0.64063,0.89583 1.10938,1.1875c0.46875,0.28125 1,0.42188 1.59375,0.42188zM249.04513,185.04688v-13.0625h5.3125c0.70833,0 1.34896,0.17708 1.92188,0.53125c0.58333,0.35417 1.04688,0.83854 1.39063,1.45313c0.35417,0.60417 0.53125,1.28125 0.53125,2.03125c0,0.75 -0.17708,1.43229 -0.53125,2.04688c-0.34375,0.60417 -0.80729,1.08854 -1.39062,1.45313c-0.57292,0.36458 -1.21354,0.54688 -1.92187,0.54688h-3.29687v5zM251.06076,178.10938h3.26563c0.33333,0 0.63542,-0.09375 0.90625,-0.28125c0.28125,-0.19792 0.50521,-0.45312 0.67188,-0.76562c0.16667,-0.32292 0.25,-0.67708 0.25,-1.0625c0,-0.38542 -0.08333,-0.73437 -0.25,-1.04687c-0.16667,-0.3125 -0.39062,-0.5625 -0.67187,-0.75c-0.27083,-0.1875 -0.57292,-0.28125 -0.90625,-0.28125h-3.26562zM264.60839,185.23438c-0.95833,0 -1.81771,-0.21875 -2.57812,-0.65625c-0.75,-0.44792 -1.34375,-1.05208 -1.78125,-1.8125c-0.42708,-0.77083 -0.64062,-1.64583 -0.64062,-2.625c0,-0.97917 0.21354,-1.84896 0.64063,-2.60937c0.4375,-0.77083 1.03125,-1.375 1.78125,-1.8125c0.76042,-0.44792 1.61979,-0.67187 2.57813,-0.67187c0.9375,0 1.78125,0.22396 2.53125,0.67188c0.76042,0.4375 1.35938,1.04167 1.79688,1.8125c0.4375,0.76042 0.65625,1.63021 0.65625,2.60938c0,0.97917 -0.21875,1.85417 -0.65625,2.625c-0.4375,0.76042 -1.03646,1.36458 -1.79687,1.8125c-0.75,0.4375 -1.59375,0.65625 -2.53125,0.65625zM264.60839,183.48438c0.58333,0 1.10417,-0.14583 1.5625,-0.4375c0.45833,-0.29167 0.81771,-0.6875 1.07813,-1.1875c0.26042,-0.51042 0.38542,-1.08333 0.375,-1.71875c0.01042,-0.64583 -0.11458,-1.21875 -0.375,-1.71875c-0.26042,-0.51042 -0.61979,-0.90625 -1.07812,-1.1875c-0.45833,-0.29167 -0.97917,-0.4375 -1.5625,-0.4375c-0.58333,0 -1.10937,0.14583 -1.57812,0.4375c-0.46875,0.29167 -0.83333,0.69271 -1.09375,1.20313c-0.26042,0.5 -0.38542,1.06771 -0.375,1.70313c-0.01042,0.63542 0.11458,1.20833 0.375,1.71875c0.26042,0.5 0.625,0.89583 1.09375,1.1875c0.46875,0.29167 0.99479,0.4375 1.57813,0.4375zM271.707,185.04688v-13.8125h1.92188v13.8125zM277.71908,189.34371l1.98438,-4.57812l0.01563,1.53125l-4.89062,-11.04687h2.23438l3.0625,7.20313c0.0625,0.125 0.13542,0.31771 0.21875,0.57813c0.09375,0.25 0.17188,0.5 0.23438,0.75l-0.48437,0.10938c0.09375,-0.26042 0.1875,-0.52083 0.28125,-0.78125c0.09375,-0.26042 0.18229,-0.52083 0.26563,-0.78125l2.5625,-7.07812h2.28125l-4.03125,9.79688l-1.65625,4.29688zM292.87086,185.23438c-0.92709,0 -1.78125,-0.16667 -2.5625,-0.5c-0.77084,-0.34375 -1.44791,-0.8125 -2.03125,-1.40625c-0.57291,-0.60417 -1.02084,-1.3125 -1.34375,-2.125c-0.3125,-0.82292 -0.46875,-1.71875 -0.46875,-2.6875c0,-0.96875 0.15625,-1.85937 0.46875,-2.67187c0.32291,-0.8125 0.77084,-1.52083 1.34375,-2.125c0.58334,-0.60417 1.26041,-1.07292 2.03125,-1.40625c0.78125,-0.34375 1.63541,-0.51562 2.5625,-0.51562c0.91666,0 1.76041,0.17188 2.53125,0.51563c0.78125,0.33333 1.46354,0.80729 2.04688,1.42188c0.58334,0.60417 1.03125,1.3125 1.34375,2.125c0.3125,0.8125 0.46875,1.69792 0.46875,2.65625c0,0.95833 -0.15625,1.84375 -0.46875,2.65625c-0.3125,0.8125 -0.76041,1.52604 -1.34375,2.14063c-0.58334,0.60417 -1.26562,1.07813 -2.04687,1.42188c-0.77084,0.33333 -1.61459,0.5 -2.53125,0.5zM292.87086,183.28121c0.63541,0 1.21354,-0.11979 1.73438,-0.35937c0.53125,-0.23958 0.98959,-0.57292 1.375,-1c0.38541,-0.42708 0.6875,-0.92708 0.90625,-1.5c0.21875,-0.58333 0.32813,-1.21875 0.32813,-1.90625c0,-0.6875 -0.10937,-1.31771 -0.32812,-1.89062c-0.21875,-0.58333 -0.52084,-1.08854 -0.90625,-1.51562c-0.38541,-0.42708 -0.84375,-0.75521 -1.375,-0.98437c-0.52084,-0.23958 -1.09896,-0.35937 -1.73437,-0.35937c-0.63541,0 -1.21875,0.11979 -1.75,0.35938c-0.53125,0.22917 -0.99479,0.55729 -1.39062,0.98438c-0.38541,0.41667 -0.68229,0.91667 -0.89062,1.5c-0.20834,0.57292 -0.3125,1.20833 -0.3125,1.90625c0,0.6875 0.10416,1.32292 0.3125,1.90625c0.20834,0.58333 0.50521,1.08854 0.89063,1.51563c0.39584,0.41667 0.85938,0.74479 1.39063,0.98438c0.53125,0.23958 1.11459,0.35938 1.75,0.35938zM306.02254,185.23438c-0.70833,0 -1.36458,-0.09375 -1.96875,-0.28125c-0.60417,-0.1875 -1.15104,-0.46875 -1.64062,-0.84375c-0.48958,-0.38542 -0.92708,-0.85417 -1.3125,-1.40625l1.375,-1.59375c0.61458,0.875 1.19792,1.47917 1.75,1.8125c0.5625,0.33333 1.22917,0.5 2,0.5c0.46875,0 0.89584,-0.07292 1.28125,-0.21875c0.38542,-0.15625 0.6875,-0.36458 0.90625,-0.625c0.22917,-0.26042 0.34375,-0.55729 0.34375,-0.89062c0,-0.21875 -0.03646,-0.42708 -0.10937,-0.625c-0.07292,-0.20833 -0.1875,-0.39062 -0.34375,-0.54687c-0.15625,-0.16667 -0.35417,-0.31771 -0.59375,-0.45312c-0.23958,-0.13542 -0.52084,-0.25521 -0.84375,-0.35937c-0.32292,-0.10417 -0.69791,-0.19271 -1.125,-0.26562c-0.66666,-0.14583 -1.25,-0.32812 -1.75,-0.54687c-0.5,-0.22917 -0.91666,-0.51042 -1.25,-0.84375c-0.33333,-0.33333 -0.58333,-0.71354 -0.75,-1.14062c-0.16667,-0.42708 -0.25,-0.91146 -0.25,-1.45312c0,-0.52083 0.11458,-1.00521 0.34375,-1.45312c0.23958,-0.44792 0.55729,-0.83333 0.95313,-1.15625c0.40625,-0.33333 0.88021,-0.58854 1.42188,-0.76562c0.55208,-0.1875 1.14584,-0.28125 1.78125,-0.28125c0.67709,0 1.29167,0.08854 1.84375,0.26563c0.5625,0.17708 1.0625,0.4375 1.5,0.78125c0.4375,0.33333 0.79688,0.75 1.07813,1.25l-1.42187,1.40625c-0.23958,-0.41667 -0.51562,-0.76042 -0.82812,-1.03125c-0.3125,-0.28125 -0.65625,-0.49479 -1.03125,-0.64062c-0.375,-0.14583 -0.77083,-0.21875 -1.1875,-0.21875c-0.48958,0 -0.91666,0.07813 -1.28125,0.23438c-0.35417,0.14583 -0.63542,0.35417 -0.84375,0.625c-0.20833,0.26042 -0.3125,0.57292 -0.3125,0.9375c0,0.26042 0.05208,0.5 0.15625,0.71875c0.10417,0.21875 0.25521,0.41146 0.45313,0.57813c0.20833,0.16667 0.48438,0.31771 0.82813,0.45313c0.35417,0.125 0.77084,0.23438 1.25,0.32813c0.6875,0.15625 1.29688,0.34896 1.82813,0.57813c0.54167,0.22917 0.99479,0.5 1.35938,0.8125c0.375,0.3125 0.65625,0.66146 0.84375,1.04688c0.19792,0.38542 0.29688,0.80208 0.29688,1.25c0,0.83333 -0.19271,1.55729 -0.57812,2.17188c-0.38542,0.60417 -0.93229,1.07292 -1.64062,1.40625c-0.70833,0.32292 -1.55209,0.48438 -2.53125,0.48438zM313.92968,185.24996c-0.40625,0 -0.72396,-0.11979 -0.95312,-0.35937c-0.21875,-0.23958 -0.32812,-0.58333 -0.32812,-1.03125c0,-0.41667 0.11458,-0.75521 0.34375,-1.01562c0.23958,-0.26042 0.55208,-0.39062 0.9375,-0.39062c0.41667,0 0.73438,0.125 0.95313,0.375c0.22917,0.23958 0.34375,0.58333 0.34375,1.03125c0,0.40625 -0.11979,0.73958 -0.35937,1c-0.23958,0.26042 -0.55208,0.39063 -0.9375,0.39063zM317.42968,185.24996c-0.40625,0 -0.72396,-0.11979 -0.95312,-0.35937c-0.21875,-0.23958 -0.32812,-0.58333 -0.32812,-1.03125c0,-0.41667 0.11458,-0.75521 0.34375,-1.01562c0.23958,-0.26042 0.55208,-0.39062 0.9375,-0.39062c0.41667,0 0.73438,0.125 0.95313,0.375c0.22917,0.23958 0.34375,0.58333 0.34375,1.03125c0,0.40625 -0.11979,0.73958 -0.35937,1c-0.23958,0.26042 -0.55208,0.39063 -0.9375,0.39063zM320.96093,185.24996c-0.40625,0 -0.72396,-0.11979 -0.95312,-0.35937c-0.21875,-0.23958 -0.32812,-0.58333 -0.32812,-1.03125c0,-0.41667 0.11458,-0.75521 0.34375,-1.01562c0.23958,-0.26042 0.55208,-0.39062 0.9375,-0.39062c0.41667,0 0.73438,0.125 0.95313,0.375c0.22917,0.23958 0.34375,0.58333 0.34375,1.03125c0,0.40625 -0.11979,0.73958 -0.35937,1c-0.23958,0.26042 -0.55208,0.39063 -0.9375,0.39063z"/><path d=""/><path d=""/><path d=""/><path/></g></g></svg>