<svg version="1.1" xmlns="http://www.w3.org/2000/svg" xmlns:xlink="http://www.w3.org/1999/xlink" width="23.98859" height="23.62213" viewBox="0,0,23.98859,23.62213"><g transform="translate(-228.00575,-168.18896)"><g data-paper-data="{&quot;isPaintingLayer&quot;:true}" stroke="none" stroke-width="1" stroke-linejoin="miter" stroke-miterlimit="10" stroke-dasharray="" stroke-dashoffset="0" style="mix-blend-mode: normal"><path d="M228.00575,170.6485c0,-1.35836 1.10116,-2.45954 2.45954,-2.45954h19.06951c0.65231,0 1.27789,0.25913 1.73915,0.72039c0.46126,0.46126 0.72039,1.08685 0.72039,1.73916v18.70304c0,1.35836 -1.10116,2.45954 -2.45954,2.45954h-19.06951c-1.35836,0 -2.45954,-1.10116 -2.45954,-2.45954z" fill-opacity="0.72581" fill="#272727" fill-rule="evenodd" stroke-linecap="square"/><path d="M244.75,185.625l-3.9375,-3.9375c-0.3125,0.25 -0.67187,0.44792 -1.07812,0.59375c-0.40625,0.14583 -0.83854,0.21875 -1.29688,0.21875c-1.13542,0 -2.09635,-0.39323 -2.88281,-1.17969c-0.78646,-0.78646 -1.17969,-1.7474 -1.17969,-2.88281c0,-1.13542 0.39323,-2.09635 1.17969,-2.88281c0.78646,-0.78646 1.7474,-1.17969 2.88281,-1.17969c1.13542,0 2.09635,0.39323 2.88281,1.17969c0.78646,0.78646 1.17969,1.7474 1.17969,2.88281c0,0.45833 -0.07292,0.89063 -0.21875,1.29688c-0.14583,0.40625 -0.34375,0.76563 -0.59375,1.07812l3.9375,3.9375zM238.4375,181.25c0.78125,0 1.44531,-0.27344 1.99219,-0.82031c0.54687,-0.54687 0.82031,-1.21094 0.82031,-1.99219c0,-0.78125 -0.27344,-1.44531 -0.82031,-1.99219c-0.54688,-0.54688 -1.21094,-0.82031 -1.99219,-0.82031c-0.78125,0 -1.44531,0.27344 -1.99219,0.82031c-0.54687,0.54688 -0.82031,1.21094 -0.82031,1.99219c0,0.78125 0.27344,1.44531 0.82031,1.99219c0.54688,0.54687 1.21094,0.82031 1.99219,0.82031z" fill="#ffffff" fill-rule="nonzero" stroke-linecap="butt"/></g></g></svg>