<svg version="1.1" xmlns="http://www.w3.org/2000/svg" xmlns:xlink="http://www.w3.org/1999/xlink" width="280.51558" height="219.71337" viewBox="0,0,280.51558,219.71337"><g transform="translate(-99.74221,-83.29298)"><g data-paper-data="{&quot;isPaintingLayer&quot;:true}" stroke="none" stroke-width="1" stroke-linejoin="miter" stroke-miterlimit="10" stroke-dasharray="" stroke-dashoffset="0" style="mix-blend-mode: normal"><path d="M99.74221,95.24791c0,-6.60253 5.35241,-11.95493 11.95493,-11.95493h256.60572c3.17065,0 6.21144,1.25953 8.45341,3.50151c2.24199,2.24198 3.50152,5.28276 3.50152,8.45341v169.50418c0,6.60253 -5.3524,11.95493 -11.95493,11.95493h-256.60572c-6.60252,0 -11.95493,-5.3524 -11.95493,-11.95493z" fill-opacity="0.7563" fill="#323232" fill-rule="evenodd" stroke-linecap="square"/><path d="M110.13721,106.29157c0,-7.55676 6.12595,-13.68271 13.68271,-13.68271h160.36021c3.62888,0 7.10913,1.44158 9.67512,4.00757c2.56602,2.56602 4.00759,6.04627 4.00759,9.67515c0,7.55676 -6.12597,13.68271 -13.68272,13.68271h-160.36021c-7.55676,0 -13.68271,-6.12595 -13.68271,-13.68271z" fill-opacity="0.7161" fill="#383838" fill-rule="evenodd" stroke-linecap="square"/><path d="M110.13721,139.29157c0,-7.55675 6.12595,-13.6827 13.6827,-13.6827h160.36021c3.62889,0 7.10913,1.44158 9.67512,4.00757c2.56601,2.56601 4.0076,6.04627 4.0076,9.67515c0,7.55675 -6.12597,13.68271 -13.68272,13.68271h-160.36021c-7.55675,0 -13.6827,-6.12596 -13.6827,-13.68271z" fill-opacity="0.7161" fill="#383838" fill-rule="evenodd" stroke-linecap="square"/><path d="M110.13721,172.29157c0,-7.55675 6.12595,-13.6827 13.6827,-13.6827h160.36021c3.62889,0 7.10913,1.44158 9.67512,4.00757c2.56601,2.56601 4.0076,6.04627 4.0076,9.67515c0,7.55675 -6.12597,13.68271 -13.68272,13.68271h-160.36021c-7.55675,0 -13.6827,-6.12596 -13.6827,-13.68271z" fill-opacity="0.7161" fill="#383838" fill-rule="evenodd" stroke-linecap="square"/><path d="M110.13721,206.29157c0,-7.55676 6.12595,-13.68271 13.6827,-13.68271h160.36021c3.62889,0 7.10913,1.44158 9.67512,4.00757c2.56601,2.56601 4.0076,6.04627 4.0076,9.67515c0,7.55676 -6.12597,13.68271 -13.68272,13.68271h-160.36021c-7.55675,0 -13.6827,-6.12595 -13.6827,-13.68271z" fill-opacity="0.7161" fill="#383838" fill-rule="evenodd" stroke-linecap="square"/><path d="M110.13721,239.29157c0,-7.55676 6.12595,-13.6827 13.6827,-13.6827h160.36021c3.62889,0 7.10913,1.44158 9.67512,4.00757c2.56601,2.56601 4.0076,6.04627 4.0076,9.67515c0,7.55676 -6.12597,13.68271 -13.68272,13.68271h-160.36021c-7.55675,0 -13.6827,-6.12595 -13.6827,-13.68271z" fill-opacity="0.7161" fill="#383838" fill-rule="evenodd" stroke-linecap="square"/><text transform="translate(127.5,299.92057) scale(0.24686,0.24686)" font-size="40" xml:space="preserve" fill="#ffffff" fill-rule="nonzero" stroke="none" stroke-width="1" stroke-linecap="butt" stroke-linejoin="miter" stroke-miterlimit="10" stroke-dasharray="" stroke-dashoffset="0" font-family="Sans Serif" font-weight="normal" text-anchor="start" style="mix-blend-mode: normal"><tspan x="0" dy="0">This list doesn't include system default apps</tspan></text></g></g></svg>