<svg version="1.1" xmlns="http://www.w3.org/2000/svg" xmlns:xlink="http://www.w3.org/1999/xlink" width="21.58322" height="27.89234" viewBox="0,0,21.58322,27.89234"><g transform="translate(-266.23565,-197.17233)"><g data-paper-data="{&quot;isPaintingLayer&quot;:true}" stroke="none" stroke-width="1" stroke-linecap="square" stroke-linejoin="miter" stroke-miterlimit="10" stroke-dasharray="" stroke-dashoffset="0" style="mix-blend-mode: normal"><path d="M266.23565,198.89636c0,-0.95215 0.41182,-1.72403 0.91982,-1.72403h19.74357c0.24395,0 0.47791,0.18164 0.65041,0.50495c0.1725,0.32331 0.26942,0.76183 0.26942,1.21908v24.44429c0,0.95215 -0.41182,1.72402 -0.91983,1.72402h-19.74357c-0.508,0 -0.91982,-0.77187 -0.91982,-1.72402z" fill-opacity="0.69355" fill="#2d2d2d" fill-rule="evenodd"/><path d="M269.54984,215.81143v-15.30809h3.33342l5.56425,9.07716l-2.38468,-0.02564l5.64117,-9.05152h3.20521v15.30809h-3.61548v-4.76936c0,-1.31628 0.03419,-2.49579 0.10257,-3.53855c0.06838,-1.05986 0.17949,-2.10262 0.33334,-3.12829l0.41027,1.12823l-4.23088,6.58992h-1.43593l-4.15395,-6.53863l0.41027,-1.17952c0.15385,0.97438 0.26497,1.97441 0.33334,3.00008c0.06838,1.02567 0.10257,2.24792 0.10257,3.66676v4.76936z" fill="#ffffff" fill-rule="nonzero"/></g></g></svg>