<svg version="1.1" xmlns="http://www.w3.org/2000/svg" xmlns:xlink="http://www.w3.org/1999/xlink" width="21.58322" height="27.89234" viewBox="0,0,21.58322,27.89234"><g transform="translate(-144.85577,-167.02966)"><g data-paper-data="{&quot;isPaintingLayer&quot;:true}" stroke="none" stroke-width="1" stroke-linecap="square" stroke-linejoin="miter" stroke-miterlimit="10" stroke-dasharray="" stroke-dashoffset="0" style="mix-blend-mode: normal"><path d="M144.85577,168.75369c0,-0.95215 0.41182,-1.72403 0.91982,-1.72403h19.74357c0.24395,0 0.47791,0.18164 0.65041,0.50495c0.1725,0.32331 0.26942,0.76183 0.26942,1.21908v24.44429c0,0.95215 -0.41182,1.72402 -0.91983,1.72402h-19.74357c-0.508,0 -0.91982,-0.77187 -0.91982,-1.72402z" fill-opacity="0.69355" fill="#2d2d2d" fill-rule="evenodd"/><path d="M155.61864,188.69967c-1.1328,0 -2.15998,-0.13439 -3.08158,-0.4032c-0.90239,-0.288 -1.7088,-0.68159 -2.41918,-1.18079c-0.69119,-0.51839 -1.31519,-1.1328 -1.87198,-1.84319l2.53438,-2.87998c0.8256,1.09439 1.65119,1.83358 2.47679,2.21759c0.8256,0.384 1.67999,0.576 2.56318,0.576c0.4416,0 0.8352,-0.0576 1.18079,-0.1728c0.3648,-0.1152 0.6432,-0.2784 0.8352,-0.4896c0.2112,-0.23039 0.31679,-0.50879 0.31679,-0.8352c0,-0.2496 -0.06721,-0.4704 -0.2016,-0.6624c-0.1152,-0.2112 -0.2784,-0.384 -0.4896,-0.51839c-0.2112,-0.15361 -0.4704,-0.288 -0.77759,-0.4032c-0.288,-0.13439 -0.59519,-0.24 -0.9216,-0.31679c-0.3264,-0.096 -0.6624,-0.1824 -1.00799,-0.2592c-0.94079,-0.2112 -1.76639,-0.4704 -2.47679,-0.77759c-0.71039,-0.30719 -1.29599,-0.68159 -1.75679,-1.1232c-0.4608,-0.4608 -0.80639,-0.97919 -1.0368,-1.55519c-0.23039,-0.59519 -0.3456,-1.248 -0.3456,-1.95838c0,-0.76799 0.1728,-1.47839 0.51839,-2.13118c0.3456,-0.65279 0.81599,-1.20959 1.41119,-1.67039c0.6144,-0.4608 1.31519,-0.81599 2.10239,-1.06559c0.7872,-0.2688 1.60319,-0.4032 2.44798,-0.4032c1.1328,0 2.10239,0.1248 2.90878,0.3744c0.80639,0.23039 1.49758,0.56639 2.07358,1.00799c0.59519,0.4416 1.09439,0.96959 1.49758,1.58398l-2.56318,2.50558c-0.3456,-0.4416 -0.71999,-0.79679 -1.1232,-1.06559c-0.4032,-0.288 -0.8352,-0.4992 -1.29599,-0.6336c-0.4416,-0.15361 -0.90239,-0.23039 -1.38239,-0.23039c-0.47999,0 -0.90239,0.06721 -1.26719,0.2016c-0.3456,0.1152 -0.62399,0.288 -0.8352,0.51839c-0.192,0.2112 -0.288,0.4704 -0.288,0.77759c0,0.288 0.0864,0.52799 0.2592,0.71999c0.1728,0.192 0.39359,0.3648 0.6624,0.51839c0.288,0.15361 0.60479,0.288 0.9504,0.4032c0.3648,0.096 0.7488,0.1824 1.15199,0.2592c0.88319,0.1728 1.68958,0.4128 2.41918,0.71999c0.72959,0.288 1.36319,0.6432 1.90079,1.06559c0.5376,0.42239 0.9504,0.9312 1.23839,1.52639c0.288,0.576 0.43199,1.248 0.43199,2.01599c0,1.19039 -0.2976,2.19839 -0.89279,3.02398c-0.576,0.8256 -1.37278,1.45919 -2.39039,1.90079c-0.99839,0.4416 -2.15038,0.6624 -3.45598,0.6624z" fill="#ffffff" fill-rule="nonzero"/></g></g></svg>