<svg version="1.1" xmlns="http://www.w3.org/2000/svg" xmlns:xlink="http://www.w3.org/1999/xlink" width="175.6424" height="25.604" viewBox="0,0,175.6424,25.604"><g transform="translate(-120.2001,-179.10169)"><g data-paper-data="{&quot;isPaintingLayer&quot;:true}" stroke="none" stroke-linejoin="miter" stroke-miterlimit="10" stroke-dasharray="" stroke-dashoffset="0" style="mix-blend-mode: normal"><path d="M120.2001,191.90369c0,-7.07036 5.73164,-12.802 12.802,-12.802h150.03839c3.3953,0 6.65155,1.34878 9.05238,3.74961c2.40085,2.40085 3.74963,5.65709 3.74963,9.05239c0,7.07036 -5.73166,12.802 -12.80201,12.802h-150.03839c-7.07036,0 -12.802,-5.73164 -12.802,-12.802z" fill-opacity="0.6657" fill="#f1f1f1" fill-rule="evenodd" stroke-width="1" stroke-linecap="square"/><path d="M130.56659,191.82105c0,-3.26428 2.64623,-5.91051 5.91051,-5.91051c3.26428,0 5.91051,2.64623 5.91051,5.91051c0,3.26428 -2.64623,5.91051 -5.91051,5.91051c-3.26428,0 -5.91051,-2.64623 -5.91051,-5.91051z" fill="#000000" fill-rule="nonzero" stroke-width="0" stroke-linecap="butt"/></g></g></svg>