<svg version="1.1" xmlns="http://www.w3.org/2000/svg" xmlns:xlink="http://www.w3.org/1999/xlink" width="42.59375" height="63.4375" viewBox="0,0,42.59375,63.4375"><g transform="translate(-218.70312,-148.28125)"><g data-paper-data="{&quot;isPaintingLayer&quot;:true}" fill="#ffffff" fill-rule="nonzero" stroke="none" stroke-width="1" stroke-linecap="square" stroke-linejoin="miter" stroke-miterlimit="10" stroke-dasharray="" stroke-dashoffset="0" style="mix-blend-mode: normal"><path d="M240,211.71875c-3.87674,0 -7.42622,-0.83073 -10.64844,-2.49219c-3.22221,-1.66146 -5.8151,-3.87674 -7.77865,-6.64583c-1.9132,-2.81945 -2.86979,-5.91581 -2.86979,-9.28906c0,-1.86284 0.2769,-3.625 0.83073,-5.28646c0.60417,-1.66146 1.46008,-3.19706 2.56771,-4.60677c1.10763,-1.40971 2.46701,-2.69357 4.07813,-3.85156c1.66146,-1.15799 3.54948,-2.16492 5.66406,-3.02083l-0.60417,1.88802c-1.61112,-0.50346 -3.07117,-1.18315 -4.38021,-2.03906c-1.30904,-0.90625 -2.41667,-1.93836 -3.32292,-3.09635c-0.90625,-1.20833 -1.61112,-2.51737 -2.11458,-3.92708c-0.45312,-1.40971 -0.67969,-2.86979 -0.67969,-4.38021c0,-3.07117 0.85591,-5.86544 2.56771,-8.38281c1.7118,-2.51737 4.02779,-4.53125 6.94792,-6.04167c2.92013,-1.51042 6.16753,-2.26562 9.74219,-2.26562c3.57466,0 6.82206,0.75521 9.74219,2.26562c2.92013,1.51042 5.23612,3.5243 6.94792,6.04167c1.7118,2.51737 2.56771,5.31164 2.56771,8.38281c0,1.51042 -0.22656,2.97049 -0.67969,4.38021c-0.45312,1.35938 -1.13281,2.61805 -2.03906,3.77604c-0.90625,1.15799 -2.03906,2.1901 -3.39844,3.09635c-1.35937,0.90625 -2.86979,1.63628 -4.53125,2.1901l-0.30208,-1.51042c1.9132,0.65451 3.67534,1.56076 5.28646,2.71875c1.61112,1.15799 2.97049,2.46701 4.07813,3.92708c1.15799,1.46008 2.03906,3.02083 2.64323,4.68229c0.65451,1.61112 0.98177,3.29773 0.98177,5.0599c0,3.42362 -0.95659,6.54513 -2.86979,9.36458c-1.86284,2.76909 -4.40539,4.98438 -7.6276,6.64583c-3.22221,1.61112 -6.82206,2.41667 -10.79948,2.41667zM240,204.9974c2.71875,0 5.13542,-0.52865 7.25,-1.58594c2.16492,-1.05729 3.85156,-2.46701 5.0599,-4.22917c1.25867,-1.8125 1.88802,-3.82638 1.88802,-6.04167c0,-2.31596 -0.62935,-4.35503 -1.88802,-6.11719c-1.20833,-1.76216 -2.89497,-3.17188 -5.0599,-4.22917c-2.11458,-1.05729 -4.53125,-1.58594 -7.25,-1.58594c-2.66841,0 -5.08508,0.52865 -7.25,1.58594c-2.11458,1.05729 -3.80122,2.46701 -5.0599,4.22917c-1.20833,1.76216 -1.8125,3.80122 -1.8125,6.11719c0,2.21529 0.60417,4.20399 1.8125,5.96615c1.25867,1.76216 2.94531,3.19706 5.0599,4.30469c2.16492,1.05729 4.58159,1.58594 7.25,1.58594zM240,175.16667c2.31596,0 4.38021,-0.40279 6.19271,-1.20833c1.8125,-0.85591 3.2474,-2.03906 4.30469,-3.54948c1.05729,-1.51042 1.58594,-3.27258 1.58594,-5.28646c0,-1.9132 -0.52865,-3.625 -1.58594,-5.13542c-1.05729,-1.56076 -2.49219,-2.76909 -4.30469,-3.625c-1.8125,-0.90625 -3.87674,-1.35937 -6.19271,-1.35937c-2.31596,0 -4.40539,0.45313 -6.26823,1.35938c-1.8125,0.85591 -3.2474,2.06424 -4.30469,3.625c-1.05729,1.51042 -1.58594,3.22221 -1.58594,5.13542c0,1.96354 0.52865,3.7257 1.58594,5.28646c1.05729,1.51042 2.49219,2.69357 4.30469,3.54948c1.86284,0.80555 3.95226,1.20833 6.26823,1.20833z"/></g></g></svg>