<svg version="1.1" xmlns="http://www.w3.org/2000/svg" xmlns:xlink="http://www.w3.org/1999/xlink" width="639.48456" height="387.9539" viewBox="0,0,639.48456,387.9539"><g transform="translate(159.75,22.25)"><g data-paper-data="{&quot;isPaintingLayer&quot;:true}" stroke-linejoin="miter" stroke-miterlimit="10" stroke-dasharray="" stroke-dashoffset="0" style="mix-blend-mode: normal"><path d="M444.31103,365.70389h-17.72034c-9.78667,0 -17.72035,-7.66685 -17.72035,-17.12437c0,-9.45752 7.93367,-17.12437 17.72035,-17.12437v0h17.72034z" fill-opacity="0.31275" fill="#000000" fill-rule="evenodd" stroke="none" stroke-width="1" stroke-linecap="square"/><path d="M444.29389,331.45516h17.72034v0c9.7867,0 17.72033,7.66686 17.72033,17.12438c0,9.4575 -7.93365,17.12436 -17.72033,17.12436h-17.72034z" fill-opacity="0.31275" fill="#000000" fill-rule="evenodd" stroke="none" stroke-width="1" stroke-linecap="square"/><path d="M-151.5,-21.99999l-8,21" fill="none" fill-rule="nonzero" stroke="#000000" stroke-width="0.5" stroke-linecap="round"/><path d="M413.31107,351.16541v-7.95244h1.10345l4.86088,6.50654l-0.18074,0.10464c-0.03171,-0.19025 -0.06025,-0.39635 -0.08561,-0.61831c-0.01902,-0.22196 -0.03805,-0.45977 -0.05707,-0.71344c-0.01902,-0.25367 -0.03488,-0.52319 -0.04756,-0.80856c-0.01268,-0.28537 -0.0222,-0.58343 -0.02854,-0.89417c-0.00634,-0.31074 -0.00951,-0.631 -0.00951,-0.96076v-2.61593h1.22711v7.95244h-1.12247l-4.78478,-6.26873l0.12366,-0.16171c0.03805,0.46294 0.06976,0.85612 0.09512,1.17955c0.02537,0.32342 0.04756,0.59611 0.06659,0.81807c0.01902,0.22196 0.03171,0.4027 0.03805,0.54221c0.01268,0.13952 0.01902,0.25684 0.01902,0.35196c0.00634,0.08878 0.00951,0.16805 0.00951,0.23781v3.30083zM424.80065,351.27956c-0.6088,0 -1.15101,-0.13 -1.62664,-0.39001c-0.46928,-0.26001 -0.84027,-0.61831 -1.11296,-1.07491c-0.26635,-0.4566 -0.39952,-0.97979 -0.39952,-1.56956c0,-0.46928 0.0761,-0.89735 0.2283,-1.28419c0.1522,-0.38684 0.36147,-0.71978 0.62782,-0.99881c0.26635,-0.28537 0.5866,-0.50416 0.96076,-0.65636c0.3805,-0.15854 0.78954,-0.23781 1.22711,-0.23781c0.38684,0 0.74515,0.07293 1.07491,0.21879c0.33611,0.14586 0.62465,0.34879 0.86564,0.6088c0.24732,0.26001 0.43757,0.56758 0.57075,0.92271c0.13317,0.34879 0.19659,0.72929 0.19025,1.1415l-0.00951,0.50416h-4.87039l-0.26635,-0.93222h4.11891l-0.16171,0.19025v-0.26635c-0.02537,-0.25367 -0.11098,-0.4788 -0.25684,-0.67539c-0.13952,-0.19659 -0.32025,-0.35196 -0.54221,-0.46611c-0.22196,-0.11415 -0.45977,-0.17122 -0.71344,-0.17122c-0.41221,0 -0.75783,0.07927 -1.03686,0.23781c-0.27903,0.1522 -0.49148,0.3805 -0.63734,0.6849c-0.13952,0.29806 -0.20927,0.66587 -0.20927,1.10345c0,0.41221 0.08561,0.77368 0.25684,1.08442c0.17122,0.3044 0.41538,0.54221 0.73246,0.71344c0.32342,0.16488 0.69124,0.24732 1.10345,0.24732c0.29806,0 0.57392,-0.04756 0.82759,-0.14269c0.25367,-0.10147 0.52953,-0.2822 0.82759,-0.54221l0.58977,0.82759c-0.18391,0.18391 -0.40587,0.34562 -0.66587,0.48514c-0.26001,0.13317 -0.53587,0.24098 -0.82759,0.32342c-0.29172,0.0761 -0.58026,0.11415 -0.86564,0.11415zM431.45639,351.27956c-0.6088,0 -1.15101,-0.13 -1.62664,-0.39001c-0.46928,-0.26001 -0.84027,-0.61831 -1.11296,-1.07491c-0.26635,-0.4566 -0.39952,-0.97979 -0.39952,-1.56956c0,-0.46928 0.0761,-0.89735 0.2283,-1.28419c0.1522,-0.38684 0.36147,-0.71978 0.62782,-0.99881c0.26635,-0.28537 0.5866,-0.50416 0.96076,-0.65636c0.3805,-0.15854 0.78954,-0.23781 1.22711,-0.23781c0.38684,0 0.74515,0.07293 1.07491,0.21879c0.33611,0.14586 0.62465,0.34879 0.86564,0.6088c0.24732,0.26001 0.43757,0.56758 0.57075,0.92271c0.13317,0.34879 0.19659,0.72929 0.19025,1.1415l-0.00951,0.50416h-4.87039l-0.26635,-0.93222h4.11891l-0.16171,0.19025v-0.26635c-0.02537,-0.25367 -0.11098,-0.4788 -0.25684,-0.67539c-0.13952,-0.19659 -0.32025,-0.35196 -0.54221,-0.46611c-0.22196,-0.11415 -0.45977,-0.17122 -0.71344,-0.17122c-0.41221,0 -0.75783,0.07927 -1.03686,0.23781c-0.27903,0.1522 -0.49148,0.3805 -0.63734,0.6849c-0.13952,0.29806 -0.20927,0.66587 -0.20927,1.10345c0,0.41221 0.08561,0.77368 0.25684,1.08442c0.17122,0.3044 0.41538,0.54221 0.73246,0.71344c0.32342,0.16488 0.69124,0.24732 1.10345,0.24732c0.29806,0 0.57392,-0.04756 0.82759,-0.14269c0.25367,-0.10147 0.52953,-0.2822 0.82759,-0.54221l0.58977,0.82759c-0.18391,0.18391 -0.40587,0.34562 -0.66587,0.48514c-0.26001,0.13317 -0.53587,0.24098 -0.82759,0.32342c-0.29172,0.0761 -0.58026,0.11415 -0.86564,0.11415zM437.81724,351.27956c-0.54538,0 -1.03052,-0.13317 -1.45541,-0.39952c-0.42489,-0.27269 -0.76417,-0.64051 -1.01784,-1.10345c-0.24732,-0.46928 -0.37099,-1.00198 -0.37099,-1.5981c0,-0.59611 0.12049,-1.12565 0.36147,-1.58859c0.24732,-0.46928 0.58343,-0.8371 1.00832,-1.10345c0.42489,-0.27269 0.90686,-0.40904 1.4459,-0.40904c0.29172,0 0.57709,0.04756 0.85612,0.14269c0.27903,0.09512 0.52636,0.22513 0.74197,0.39001c0.22196,0.15854 0.39318,0.33611 0.51367,0.5327c0.12683,0.19025 0.19025,0.38367 0.19025,0.58026l-0.34245,0.02854v-3.99524h1.17004v8.40904h-1.17004v-1.41736h0.2283c0,0.17757 -0.06025,0.3583 -0.18074,0.54221c-0.12049,0.17757 -0.2822,0.34245 -0.48514,0.49465c-0.19659,0.14586 -0.42806,0.26635 -0.69441,0.36147c-0.26001,0.08878 -0.52636,0.13317 -0.79905,0.13317zM437.97895,350.27124c0.35513,0 0.66905,-0.09195 0.94174,-0.27586c0.27269,-0.18391 0.48514,-0.43123 0.63734,-0.74197c0.15854,-0.31708 0.23781,-0.67539 0.23781,-1.07491c0,-0.39952 -0.07927,-0.75466 -0.23781,-1.0654c-0.1522,-0.31708 -0.36465,-0.56758 -0.63734,-0.75149c-0.27269,-0.18391 -0.5866,-0.27586 -0.94174,-0.27586c-0.35513,0 -0.66905,0.09195 -0.94174,0.27586c-0.27269,0.18391 -0.48831,0.4344 -0.64685,0.75149c-0.1522,0.31074 -0.2283,0.66587 -0.2283,1.0654c0,0.39952 0.0761,0.75783 0.2283,1.07491c0.15854,0.31074 0.37416,0.55806 0.64685,0.74197c0.27269,0.18391 0.5866,0.27586 0.94174,0.27586zM451.20432,351.16541v-7.95244h1.22711v7.95244zM446.0105,351.16541v-7.95244h1.22711v7.95244zM446.5432,347.78848v-1.17955h5.20333v1.17955zM457.13663,351.27956c-0.6088,0 -1.15101,-0.13 -1.62664,-0.39001c-0.46928,-0.26001 -0.84027,-0.61831 -1.11296,-1.07491c-0.26635,-0.4566 -0.39952,-0.97979 -0.39952,-1.56956c0,-0.46928 0.0761,-0.89735 0.2283,-1.28419c0.1522,-0.38684 0.36147,-0.71978 0.62782,-0.99881c0.26635,-0.28537 0.5866,-0.50416 0.96076,-0.65636c0.3805,-0.15854 0.78954,-0.23781 1.22711,-0.23781c0.38684,0 0.74515,0.07293 1.07491,0.21879c0.33611,0.14586 0.62465,0.34879 0.86564,0.6088c0.24732,0.26001 0.43757,0.56758 0.57075,0.92271c0.13317,0.34879 0.19659,0.72929 0.19025,1.1415l-0.00951,0.50416h-4.87039l-0.26635,-0.93222h4.11891l-0.16171,0.19025v-0.26635c-0.02537,-0.25367 -0.11098,-0.4788 -0.25684,-0.67539c-0.13952,-0.19659 -0.32025,-0.35196 -0.54221,-0.46611c-0.22196,-0.11415 -0.45977,-0.17122 -0.71344,-0.17122c-0.41221,0 -0.75783,0.07927 -1.03686,0.23781c-0.27903,0.1522 -0.49148,0.3805 -0.63734,0.6849c-0.13952,0.29806 -0.20927,0.66587 -0.20927,1.10345c0,0.41221 0.08561,0.77368 0.25684,1.08442c0.17122,0.3044 0.41538,0.54221 0.73246,0.71344c0.32342,0.16488 0.69124,0.24732 1.10345,0.24732c0.29806,0 0.57392,-0.04756 0.82759,-0.14269c0.25367,-0.10147 0.52953,-0.2822 0.82759,-0.54221l0.58977,0.82759c-0.18391,0.18391 -0.40587,0.34562 -0.66587,0.48514c-0.26001,0.13317 -0.53587,0.24098 -0.82759,0.32342c-0.29172,0.0761 -0.58026,0.11415 -0.86564,0.11415zM461.03375,351.16541v-8.40904h1.17004v8.40904zM463.86556,353.6672v-8.46611h1.17955v1.36029l-0.18074,-0.09512c0.04439,-0.2283 0.17122,-0.44709 0.3805,-0.65636c0.21562,-0.20927 0.47562,-0.3805 0.78002,-0.51367c0.31074,-0.13317 0.62782,-0.19976 0.95125,-0.19976c0.53904,0 1.01466,0.13317 1.42687,0.39952c0.41855,0.26635 0.74831,0.631 0.9893,1.09394c0.24732,0.46294 0.37099,0.99247 0.37099,1.58859c0,0.58977 -0.12049,1.1193 -0.36147,1.58859c-0.24098,0.46294 -0.57075,0.83076 -0.9893,1.10345c-0.41221,0.26635 -0.87832,0.39952 -1.39834,0.39952c-0.34879,0 -0.68807,-0.06976 -1.01784,-0.20927c-0.32342,-0.13952 -0.59929,-0.32025 -0.82759,-0.54221c-0.2283,-0.22196 -0.36782,-0.45026 -0.41855,-0.6849l0.29489,-0.1522v3.98573zM466.81443,350.18562c0.34879,0 0.65953,-0.08561 0.93222,-0.25684c0.27269,-0.17757 0.48831,-0.41538 0.64685,-0.71344c0.15854,-0.3044 0.23781,-0.65002 0.23781,-1.03686c0,-0.38684 -0.07927,-0.72929 -0.23781,-1.02735c-0.1522,-0.29806 -0.36465,-0.5327 -0.63734,-0.70392c-0.26635,-0.17757 -0.58026,-0.26635 -0.94174,-0.26635c-0.35513,0 -0.66905,0.08561 -0.94174,0.25684c-0.27269,0.17122 -0.48831,0.40904 -0.64685,0.71344c-0.15854,0.29806 -0.23781,0.64051 -0.23781,1.02735c0,0.38684 0.07927,0.73246 0.23781,1.03686c0.15854,0.29806 0.37416,0.53587 0.64685,0.71344c0.27269,0.17122 0.5866,0.25684 0.94174,0.25684zM472.4022,348.76826l-0.29489,-1.5981c0.29806,-0.0761 0.56441,-0.16171 0.79905,-0.25684c0.23464,-0.09512 0.43757,-0.19659 0.6088,-0.3044c0.17122,-0.11415 0.31391,-0.23464 0.42806,-0.36147c0.11415,-0.12683 0.19659,-0.26318 0.24732,-0.40904c0.05707,-0.1522 0.08561,-0.31074 0.08561,-0.47562c0,-0.22196 -0.06025,-0.41855 -0.18074,-0.58977c-0.11415,-0.17757 -0.27269,-0.31391 -0.47562,-0.40904c-0.20293,-0.10147 -0.4344,-0.1522 -0.69441,-0.1522c-0.29806,0 -0.58977,0.10464 -0.87515,0.31391c-0.28537,0.20927 -0.52953,0.50416 -0.73246,0.88466l-0.85612,-0.72295c0.32977,-0.49465 0.71978,-0.88149 1.17004,-1.16052c0.45026,-0.27903 0.91954,-0.41855 1.40785,-0.41855c0.48197,0 0.91003,0.10147 1.28419,0.3044c0.3805,0.19659 0.68173,0.46611 0.90369,0.80856c0.22196,0.33611 0.33294,0.71661 0.33294,1.1415c0,0.24732 -0.05073,0.49148 -0.1522,0.73246c-0.10147,0.23464 -0.24732,0.45977 -0.43757,0.67539c-0.19025,0.20927 -0.41221,0.39952 -0.66587,0.57075c-0.25367,0.16488 -0.52953,0.30123 -0.82759,0.40904l-0.19976,1.01784zM472.01219,350.44246c0,-0.25367 0.06976,-0.45977 0.20927,-0.61831c0.14586,-0.15854 0.33611,-0.23781 0.57075,-0.23781c0.24732,0 0.43757,0.0761 0.57075,0.2283c0.13952,0.14586 0.20927,0.35513 0.20927,0.62782c0,0.24732 -0.07293,0.45026 -0.21879,0.6088c-0.13952,0.15854 -0.3266,0.23781 -0.56124,0.23781c-0.24732,0 -0.44075,-0.07293 -0.58026,-0.21879c-0.13317,-0.14586 -0.19976,-0.35513 -0.19976,-0.62782z" fill="#ffffff" fill-rule="nonzero" stroke="none" stroke-width="1" stroke-linecap="square"/></g></g></svg>