<svg version="1.1" xmlns="http://www.w3.org/2000/svg" xmlns:xlink="http://www.w3.org/1999/xlink" width="10.7493" height="51.98169" viewBox="0,0,10.7493,51.98169"><g transform="translate(-234.62535,-154.00915)"><g data-paper-data="{&quot;isPaintingLayer&quot;:true}" fill="#ffffff" fill-rule="nonzero" stroke="none" stroke-width="1" stroke-linecap="square" stroke-linejoin="miter" stroke-miterlimit="10" stroke-dasharray="" stroke-dashoffset="0" style="mix-blend-mode: normal"><path d="M240,205.99085c-1.60437,0 -2.88787,-0.53478 -3.85049,-1.60437c-1.0161,-1.12306 -1.52416,-2.567 -1.52416,-4.33181c0,-1.87178 0.48131,-3.31571 1.44393,-4.33181c0.90915,-1.06959 2.21938,-1.60437 3.93072,-1.60437c1.60437,0 2.91462,0.56152 3.93072,1.68459c0.96263,1.12306 1.44393,2.54025 1.44393,4.25159c0,1.92525 -0.45457,3.39593 -1.36372,4.41203c-0.96263,1.0161 -2.29959,1.52416 -4.01093,1.52416zM240,165.88152c-1.60437,0 -2.88787,-0.53478 -3.85049,-1.60437c-1.0161,-1.12306 -1.52416,-2.567 -1.52416,-4.33181c0,-1.87178 0.48131,-3.31571 1.44393,-4.33181c0.90915,-1.06959 2.21938,-1.60437 3.93072,-1.60437c1.60437,0 2.91462,0.56152 3.93072,1.68459c0.96263,1.12306 1.44393,2.54025 1.44393,4.25159c0,1.92525 -0.45457,3.39593 -1.36372,4.41203c-0.96263,1.0161 -2.29959,1.52416 -4.01093,1.52416z"/></g></g></svg>