<svg version="1.1" xmlns="http://www.w3.org/2000/svg" xmlns:xlink="http://www.w3.org/1999/xlink" width="21.58322" height="27.89234" viewBox="0,0,21.58322,27.89234"><g transform="translate(-243.98267,-103.91214)"><g data-paper-data="{&quot;isPaintingLayer&quot;:true}" stroke="none" stroke-width="1" stroke-linecap="square" stroke-linejoin="miter" stroke-miterlimit="10" stroke-dasharray="" stroke-dashoffset="0" style="mix-blend-mode: normal"><path d="M243.98267,105.63617c0,-0.95215 0.41182,-1.72403 0.91982,-1.72403h19.74357c0.24395,0 0.47791,0.18164 0.65041,0.50495c0.1725,0.32331 0.26942,0.76183 0.26942,1.21908v24.44429c0,0.95215 -0.41182,1.72402 -0.91983,1.72402h-19.74357c-0.508,0 -0.91982,-0.77187 -0.91982,-1.72402z" fill-opacity="0.69355" fill="#2d2d2d" fill-rule="evenodd"/><path d="M254.85499,126.78147c-0.9012,0 -1.75342,-0.15673 -2.55666,-0.47019c-0.78365,-0.33305 -1.46935,-0.78365 -2.05709,-1.3518c-0.58774,-0.58774 -1.05793,-1.26364 -1.41057,-2.0277c-0.33305,-0.78365 -0.49958,-1.61628 -0.49958,-2.49789c0,-0.60733 0.06857,-1.19507 0.20571,-1.76322c0.13714,-0.58774 0.32326,-1.17548 0.55835,-1.76322c0.2351,-0.60733 0.51917,-1.22445 0.85222,-1.85138c0.35264,-0.62692 0.74447,-1.29302 1.17548,-1.99831l2.43912,-4.08478h3.93785l0.11755,0.2351l-3.40888,5.37781c-0.4506,0.6857 -0.83263,1.342 -1.14609,1.96892c-0.31346,0.60733 -0.59754,1.21466 -0.85222,1.82199c-0.25468,0.58774 -0.49958,1.21466 -0.73467,1.88076l-0.82283,-1.73383c0.17632,-0.56815 0.4408,-1.09712 0.79345,-1.58689c0.37223,-0.50938 0.80325,-0.94038 1.29302,-1.29302c0.50938,-0.35264 1.02854,-0.62692 1.55751,-0.82283c0.52896,-0.19591 1.05793,-0.29387 1.58689,-0.29387c0.97957,0 1.88076,0.26448 2.7036,0.79345c0.84242,0.52896 1.50853,1.22445 1.99831,2.08647c0.50938,0.86202 0.76406,1.81219 0.76406,2.85053c0,1.23425 -0.28407,2.35095 -0.85222,3.35011c-0.54855,0.97957 -1.31261,1.75342 -2.29218,2.32157c-0.97957,0.56815 -2.09627,0.85222 -3.35011,0.85222zM254.88438,123.28442c0.54855,0 1.02854,-0.11755 1.43996,-0.35264c0.41142,-0.2351 0.72487,-0.56815 0.94038,-0.99916c0.2351,-0.43101 0.35264,-0.92079 0.35264,-1.46935c0,-0.47019 -0.11755,-0.91099 -0.35264,-1.32241c-0.2351,-0.41142 -0.55835,-0.74447 -0.96977,-0.99916c-0.41142,-0.25468 -0.87181,-0.38203 -1.38119,-0.38203c-0.52896,0 -1.00895,0.12735 -1.43996,0.38203c-0.41142,0.2351 -0.73467,0.55835 -0.96977,0.96977c-0.2351,0.39183 -0.35264,0.84242 -0.35264,1.3518c0,0.52896 0.11755,1.00895 0.35264,1.43996c0.2351,0.43101 0.55835,0.77386 0.96977,1.02854c0.41142,0.2351 0.88161,0.35264 1.41057,0.35264z" fill="#ffffff" fill-rule="nonzero"/></g></g></svg>