<svg version="1.1" xmlns="http://www.w3.org/2000/svg" xmlns:xlink="http://www.w3.org/1999/xlink" width="21.58322" height="27.89234" viewBox="0,0,21.58322,27.89234"><g transform="translate(-313.43632,-133.98217)"><g data-paper-data="{&quot;isPaintingLayer&quot;:true}" stroke="none" stroke-width="1" stroke-linecap="square" stroke-linejoin="miter" stroke-miterlimit="10" stroke-dasharray="" stroke-dashoffset="0" style="mix-blend-mode: normal"><path d="M313.43632,135.7062c0,-0.95215 0.41182,-1.72403 0.91982,-1.72403h19.74357c0.24395,0 0.47791,0.18164 0.65041,0.50495c0.1725,0.32331 0.26942,0.76183 0.26942,1.21908v24.44429c0,0.95215 -0.41182,1.72402 -0.91983,1.72402h-19.74357c-0.508,0 -0.91982,-0.77187 -0.91982,-1.72402z" fill-opacity="0.69355" fill="#2d2d2d" fill-rule="evenodd"/><path d="M324.31682,155.32962c-1.15697,0 -2.22035,-0.19566 -3.19016,-0.58699c-0.9528,-0.40834 -1.78649,-0.9613 -2.50108,-1.65888c-0.69758,-0.71459 -1.24203,-1.54829 -1.63336,-2.50108c-0.39133,-0.96981 -0.58699,-2.02469 -0.58699,-3.16463c0,-1.13995 0.19566,-2.18632 0.58699,-3.13911c0.39133,-0.96981 0.93578,-1.81201 1.63336,-2.5266c0.71459,-0.71459 1.54829,-1.26755 2.50108,-1.65888c0.96981,-0.39133 2.02469,-0.58699 3.16463,-0.58699c1.15697,0 2.21184,0.19566 3.16463,0.58699c0.9528,0.39133 1.78649,0.94429 2.50108,1.65888c0.71459,0.71459 1.25905,1.5568 1.63336,2.5266c0.39133,0.9528 0.58699,1.99917 0.58699,3.13911c0,1.12293 -0.19566,2.16931 -0.58699,3.13911c-0.37431,0.96981 -0.91876,1.81201 -1.63336,2.5266c-0.71459,0.69758 -1.54829,1.25054 -2.50108,1.65888c-0.9528,0.39133 -1.99917,0.58699 -3.13911,0.58699zM324.2913,151.83321c0.5955,0 1.13995,-0.11059 1.63336,-0.33178c0.51042,-0.22118 0.9528,-0.52744 1.3271,-0.91876c0.37431,-0.39133 0.66355,-0.85921 0.86772,-1.40367c0.20417,-0.54446 0.30625,-1.13144 0.30625,-1.76097c0,-0.64654 -0.10208,-1.23353 -0.30625,-1.76097c-0.20417,-0.54446 -0.49341,-1.01234 -0.86772,-1.40367c-0.37431,-0.40834 -0.81668,-0.71459 -1.3271,-0.91876c-0.49341,-0.22118 -1.03786,-0.33178 -1.63336,-0.33178c-0.5955,0 -1.14846,0.11059 -1.65888,0.33178c-0.49341,0.20417 -0.92727,0.51042 -1.30158,0.91876c-0.37431,0.39133 -0.66355,0.85921 -0.86772,1.40367c-0.18716,0.52744 -0.28073,1.11442 -0.28073,1.76097c0,0.62952 0.09358,1.21651 0.28073,1.76097c0.20417,0.54446 0.49341,1.01234 0.86772,1.40367c0.37431,0.39133 0.80817,0.69758 1.30158,0.91876c0.51042,0.22118 1.06338,0.33178 1.65888,0.33178z" fill="#ffffff" fill-rule="nonzero"/></g></g></svg>