<svg version="1.1" xmlns="http://www.w3.org/2000/svg" xmlns:xlink="http://www.w3.org/1999/xlink" width="21.58322" height="27.89234" viewBox="0,0,21.58322,27.89234"><g transform="translate(-266.64024,-134.25711)"><g data-paper-data="{&quot;isPaintingLayer&quot;:true}" stroke="none" stroke-width="1" stroke-linecap="square" stroke-linejoin="miter" stroke-miterlimit="10" stroke-dasharray="" stroke-dashoffset="0" style="mix-blend-mode: normal"><path d="M266.64024,135.98114c0,-0.95215 0.41182,-1.72403 0.91982,-1.72403h19.74357c0.24395,0 0.47791,0.18164 0.65041,0.50495c0.1725,0.32331 0.26942,0.76183 0.26942,1.21908v24.44429c0,0.95215 -0.41182,1.72402 -0.91983,1.72402h-19.74357c-0.508,0 -0.91982,-0.77187 -0.91982,-1.72402z" fill-opacity="0.69355" fill="#2d2d2d" fill-rule="evenodd"/><path d="M277.62182,156.33556c-1.37484,0 -2.59388,-0.27497 -3.65709,-0.82491c-1.06321,-0.54994 -1.89729,-1.31068 -2.50222,-2.28224c-0.5866,-0.97156 -0.8799,-2.0806 -0.8799,-3.32712v-10.11886h4.04204v9.89888c0,0.5866 0.12832,1.1182 0.38496,1.59482c0.27497,0.47662 0.63243,0.8524 1.07238,1.12737c0.45828,0.27497 0.97156,0.41245 1.53983,0.41245c0.5866,0 1.10904,-0.13748 1.56732,-0.41245c0.45828,-0.27497 0.82491,-0.65076 1.09988,-1.12737c0.2933,-0.47662 0.43995,-1.00822 0.43995,-1.59482v-9.89888h3.90456v10.11886c0,1.24653 -0.30247,2.35556 -0.9074,3.32712c-0.60493,0.97156 -1.43901,1.7323 -2.50222,2.28224c-1.06321,0.54994 -2.26391,0.82491 -3.60209,0.82491z" fill="#ffffff" fill-rule="nonzero"/></g></g></svg>