<svg version="1.1" xmlns="http://www.w3.org/2000/svg" xmlns:xlink="http://www.w3.org/1999/xlink" width="27.59495" height="8.56643" viewBox="0,0,27.59495,8.56643"><g transform="translate(-226.20253,-175.71678)"><g data-paper-data="{&quot;isPaintingLayer&quot;:true}" fill="#ffffff" fill-rule="nonzero" stroke="none" stroke-width="1" stroke-linecap="square" stroke-linejoin="miter" stroke-miterlimit="10" stroke-dasharray="" stroke-dashoffset="0" style="mix-blend-mode: normal"><path d="M228.6876,184.28318c-0.27612,0 -0.53877,-0.03704 -0.78795,-0.11112c-0.24918,-0.07408 -0.48153,-0.17847 -0.69703,-0.31315c-0.20878,-0.13469 -0.39734,-0.29633 -0.56571,-0.4849c-0.16836,-0.18857 -0.31316,-0.39734 -0.43438,-0.62631l0.81825,-0.84856c0.16836,0.23571 0.32327,0.42765 0.46469,0.57581c0.14142,0.14143 0.27612,0.25254 0.40407,0.33336c0.12796,0.08081 0.25592,0.13806 0.38387,0.17174c0.12796,0.02694 0.26602,0.04041 0.41418,0.04041c0.28959,0 0.54214,-0.06735 0.75764,-0.20204c0.2155,-0.13469 0.38387,-0.31653 0.50509,-0.5455c0.12122,-0.23571 0.18183,-0.50173 0.18183,-0.79805v-4.54586h-1.54559v-1.21223h4.15188v1.21223h-1.30315v4.66708c0,0.38387 -0.06735,0.74081 -0.20204,1.07081c-0.13469,0.32326 -0.32326,0.60611 -0.5657,0.84856c-0.24245,0.23571 -0.53203,0.42428 -0.86876,0.56571c-0.32999,0.13469 -0.7004,0.20204 -1.11121,0.20204zM235.82776,184.28318c-0.45122,0 -0.84519,-0.10438 -1.18192,-0.31316c-0.32999,-0.20878 -0.58591,-0.50173 -0.76775,-0.87887c-0.18184,-0.37714 -0.27275,-0.82835 -0.27275,-1.35366v-3.90943h1.24254v3.57607c0,0.36367 0.05724,0.68019 0.17173,0.94958c0.12122,0.26938 0.28959,0.47816 0.50509,0.62632c0.22224,0.14143 0.49163,0.21213 0.80815,0.21213c0.22898,0 0.44111,-0.03704 0.63642,-0.11112c0.19531,-0.07408 0.36367,-0.17847 0.50509,-0.31316c0.14142,-0.14143 0.24918,-0.30642 0.32326,-0.49499c0.08082,-0.19531 0.12123,-0.40744 0.12123,-0.63642v-3.80842h1.24253v6.33389h-1.24253v-1.32335l0.22224,-0.15152c-0.09428,0.30305 -0.25592,0.57581 -0.48489,0.81825c-0.22898,0.23571 -0.50173,0.42428 -0.81825,0.56571c-0.31652,0.14143 -0.65326,0.21214 -1.01019,0.21214zM240.90266,184.16196v-6.33389h1.24253v1.30314l-0.22224,0.14143c0.08082,-0.27612 0.23908,-0.53204 0.47479,-0.76774c0.23571,-0.24244 0.51183,-0.43775 0.82836,-0.58591c0.32326,-0.14816 0.65326,-0.22224 0.98999,-0.22224c0.48489,0 0.88561,0.09428 1.20213,0.28285c0.32326,0.18857 0.5657,0.47816 0.72733,0.86876c0.16163,0.38387 0.24245,0.86876 0.24245,1.45468v3.85892h-1.24253v-3.77811c0,-0.35694 -0.04714,-0.65326 -0.14143,-0.88897c-0.09428,-0.24244 -0.24245,-0.41754 -0.44449,-0.5253c-0.20204,-0.10775 -0.45122,-0.1549 -0.74754,-0.14143c-0.24245,0 -0.46469,0.04041 -0.66672,0.12122c-0.20204,0.07408 -0.37714,0.18183 -0.5253,0.32326c-0.14816,0.13469 -0.26602,0.29296 -0.35357,0.47479c-0.08082,0.1751 -0.12123,0.36703 -0.12123,0.57581v3.83872h-0.61621c-0.10102,0 -0.2054,0 -0.31315,0c-0.10775,0 -0.21214,0 -0.31316,0zM251.0291,184.28318c-0.64652,0 -1.22232,-0.13806 -1.72742,-0.41418c-0.49836,-0.27612 -0.89234,-0.65662 -1.18193,-1.14151c-0.28286,-0.48489 -0.42428,-1.0405 -0.42428,-1.66682c0,-0.49836 0.08082,-0.95294 0.24245,-1.36375c0.16163,-0.41081 0.38387,-0.76438 0.66672,-1.0607c0.28286,-0.30305 0.62295,-0.5354 1.0203,-0.69703c0.40408,-0.16836 0.83846,-0.25254 1.30315,-0.25254c0.41081,0 0.79131,0.07745 1.14151,0.23234c0.35693,0.1549 0.66335,0.37041 0.91927,0.64652c0.26265,0.27612 0.46469,0.60274 0.60612,0.97988c0.14142,0.37041 0.20877,0.77448 0.20203,1.21223l-0.0101,0.5354h-5.17217l-0.28286,-0.98998h4.37412l-0.17173,0.20204v-0.28285c-0.02694,-0.26938 -0.11785,-0.50846 -0.27275,-0.71724c-0.14816,-0.20878 -0.3401,-0.37377 -0.57581,-0.495c-0.23571,-0.12122 -0.48826,-0.18183 -0.75764,-0.18183c-0.43775,0 -0.80479,0.08418 -1.10111,0.25255c-0.29632,0.16163 -0.52193,0.40407 -0.67683,0.72733c-0.14816,0.31653 -0.22224,0.70714 -0.22224,1.17182c0,0.43775 0.09092,0.82162 0.27275,1.15162c0.18184,0.32326 0.44112,0.57581 0.77785,0.75764c0.34347,0.1751 0.73407,0.26265 1.17182,0.26265c0.31653,0 0.60948,-0.05051 0.87886,-0.15153c0.26938,-0.10775 0.56234,-0.29969 0.87887,-0.57581l0.62632,0.87887c-0.1953,0.19531 -0.43102,0.36703 -0.70713,0.5152c-0.27612,0.14143 -0.56908,0.25591 -0.87887,0.34346c-0.30979,0.08081 -0.61622,0.12122 -0.91927,0.12122z"/></g></g></svg>