<svg version="1.1" xmlns="http://www.w3.org/2000/svg" xmlns:xlink="http://www.w3.org/1999/xlink" width="21.58322" height="27.89234" viewBox="0,0,21.58322,27.89234"><g transform="translate(-219.09979,-167.23196)"><g data-paper-data="{&quot;isPaintingLayer&quot;:true}" stroke="none" stroke-width="1" stroke-linecap="square" stroke-linejoin="miter" stroke-miterlimit="10" stroke-dasharray="" stroke-dashoffset="0" style="mix-blend-mode: normal"><path d="M219.09979,168.95599c0,-0.95215 0.41182,-1.72403 0.91982,-1.72403h19.74357c0.24395,0 0.47791,0.18164 0.65041,0.50495c0.1725,0.32331 0.26942,0.76183 0.26942,1.21908v24.44429c0,0.95215 -0.41182,1.72402 -0.91983,1.72402h-19.74357c-0.508,0 -0.91982,-0.77187 -0.91982,-1.72402z" fill-opacity="0.69355" fill="#2d2d2d" fill-rule="evenodd"/><path d="M229.97506,187.43286c-1.30815,0 -2.49656,-0.21188 -3.56519,-0.63565c-1.06863,-0.44219 -1.98987,-1.041 -2.76371,-1.79641c-0.77384,-0.77384 -1.36343,-1.68587 -1.76878,-2.73607c-0.40535,-1.05021 -0.60802,-2.18333 -0.60802,-3.39937c0,-1.23446 0.21188,-2.35837 0.63565,-3.37172c0.44219,-1.03178 1.05943,-1.93459 1.85169,-2.70844c0.81069,-0.77384 1.75956,-1.37264 2.84663,-1.79641c1.08706,-0.42378 2.27546,-0.63565 3.56519,-0.63565c0.92124,0 1.77799,0.11976 2.57026,0.35928c0.81069,0.23952 1.54768,0.56196 2.21097,0.9673c0.66329,0.40535 1.22525,0.87517 1.68587,1.4095l-2.43206,2.57026c-0.38692,-0.38692 -0.79226,-0.70015 -1.21604,-0.93966c-0.42378,-0.25795 -0.87517,-0.46061 -1.35422,-0.60802c-0.46061,-0.14741 -0.95809,-0.22109 -1.49241,-0.22109c-0.68172,0 -1.31737,0.12898 -1.90696,0.38692c-0.57116,0.23952 -1.06863,0.58959 -1.49241,1.05021c-0.42378,0.44219 -0.75541,0.9673 -0.99494,1.57532c-0.23952,0.60802 -0.35928,1.26209 -0.35928,1.96224c0,0.70015 0.11976,1.36343 0.35928,1.98987c0.25795,0.60802 0.60802,1.13313 1.05021,1.57532c0.44219,0.44219 0.9673,0.80148 1.57532,1.07785c0.60802,0.25795 1.25289,0.38692 1.93459,0.38692c0.49747,0 0.95809,-0.0737 1.38185,-0.22109c0.44219,-0.16582 0.8199,-0.3777 1.13313,-0.63565c0.31322,-0.27637 0.56196,-0.5988 0.7462,-0.9673c0.18424,-0.38692 0.27637,-0.79226 0.27637,-1.21604v-0.60802l0.52511,0.80148h-4.56013v-3.123h7.76602c0.03685,0.16582 0.05528,0.40535 0.05528,0.71856c0.01842,0.29479 0.02763,0.58037 0.02763,0.85676c0.01842,0.27637 0.02763,0.48826 0.02763,0.63565c0,1.06863 -0.19346,2.04515 -0.58037,2.92954c-0.38692,0.88439 -0.93044,1.64901 -1.63059,2.29387c-0.68172,0.64487 -1.49241,1.15154 -2.43206,1.52004c-0.93966,0.3685 -1.96224,0.55274 -3.06772,0.55274z" fill="#ffffff" fill-rule="nonzero"/></g></g></svg>