<svg version="1.1" xmlns="http://www.w3.org/2000/svg" xmlns:xlink="http://www.w3.org/1999/xlink" width="50.24988" height="25.00346" viewBox="0,0,50.24988,25.00346"><g transform="translate(-307.27789,-228.67423)"><g data-paper-data="{&quot;isPaintingLayer&quot;:true}" stroke="none" stroke-width="1" stroke-linecap="square" stroke-linejoin="miter" stroke-miterlimit="10" stroke-dasharray="" stroke-dashoffset="0" style="mix-blend-mode: normal"><path d="M307.27789,230.21969c0,-0.85354 0.9588,-1.54546 2.14153,-1.54546h45.96682c0.56797,0 1.11268,0.16283 1.51429,0.45266c0.40162,0.28983 0.62724,0.68293 0.62724,1.09281v21.91253c0,0.85354 -0.9588,1.54546 -2.14153,1.54546h-45.96682c-1.18274,0 -2.14153,-0.69193 -2.14153,-1.54546z" fill-opacity="0.84677" fill="#3c3c3c" fill-rule="evenodd"/><path d="M315.73657,247.64817c-0.90625,0 -1.73958,-0.16146 -2.5,-0.48437c-0.76042,-0.32291 -1.42187,-0.78646 -1.98437,-1.39062c-0.55208,-0.60416 -0.98437,-1.31771 -1.29687,-2.14062c-0.30208,-0.82291 -0.45312,-1.72396 -0.45312,-2.70312c0,-0.92709 0.16667,-1.79166 0.5,-2.59375c0.33333,-0.80209 0.79167,-1.50521 1.375,-2.10937c0.58333,-0.61459 1.26042,-1.08854 2.03125,-1.42187c0.77083,-0.34375 1.60417,-0.51562 2.5,-0.51562c0.63542,0 1.25521,0.09896 1.85938,0.29688c0.60417,0.1875 1.15104,0.45313 1.64063,0.79688c0.48958,0.34375 0.89063,0.73438 1.20313,1.17188l-1.34375,1.39063c-0.36458,-0.36459 -0.72917,-0.66666 -1.09375,-0.90625c-0.36458,-0.23959 -0.73958,-0.42187 -1.125,-0.54687c-0.375,-0.125 -0.75521,-0.1875 -1.14062,-0.1875c-0.61458,0 -1.1875,0.11459 -1.71875,0.34375c-0.52083,0.22916 -0.97917,0.55209 -1.375,0.96875c-0.38542,0.40625 -0.69271,0.89584 -0.92187,1.46875c-0.21875,0.5625 -0.32812,1.17709 -0.32812,1.84375c0,0.70834 0.10417,1.35416 0.3125,1.9375c0.21875,0.57291 0.52604,1.06771 0.92188,1.48438c0.40625,0.40625 0.88542,0.71875 1.4375,0.9375c0.55208,0.21875 1.16667,0.32813 1.84375,0.32813c0.40625,0 0.80729,-0.05729 1.20313,-0.17187c0.39583,-0.11459 0.76563,-0.27604 1.10938,-0.48437c0.35417,-0.20834 0.67708,-0.45834 0.96875,-0.75l1,1.64063c-0.28125,0.34375 -0.67187,0.65104 -1.17187,0.92188c-0.48958,0.27084 -1.03646,0.48438 -1.64062,0.64063c-0.59375,0.15625 -1.19792,0.23438 -1.8125,0.23438zM322.65417,247.46067v-13.8125h1.92188v13.8125zM331.5252,247.64817c-0.95833,0 -1.81771,-0.21875 -2.57812,-0.65625c-0.75,-0.44791 -1.34375,-1.05209 -1.78125,-1.8125c-0.42708,-0.77084 -0.64062,-1.64584 -0.64062,-2.625c0,-0.97916 0.21354,-1.84896 0.64063,-2.60937c0.4375,-0.77084 1.03125,-1.375 1.78125,-1.8125c0.76042,-0.44791 1.61979,-0.67187 2.57813,-0.67187c0.9375,0 1.78125,0.22396 2.53125,0.67188c0.76042,0.4375 1.35938,1.04166 1.79688,1.8125c0.4375,0.76041 0.65625,1.63021 0.65625,2.60938c0,0.97916 -0.21875,1.85416 -0.65625,2.625c-0.4375,0.76041 -1.03646,1.36459 -1.79687,1.8125c-0.75,0.4375 -1.59375,0.65625 -2.53125,0.65625zM331.5252,245.89817c0.58333,0 1.10417,-0.14584 1.5625,-0.4375c0.45833,-0.29166 0.81771,-0.6875 1.07813,-1.1875c0.26042,-0.51041 0.38542,-1.08334 0.375,-1.71875c0.01042,-0.64584 -0.11458,-1.21875 -0.375,-1.71875c-0.26042,-0.51041 -0.61979,-0.90625 -1.07812,-1.1875c-0.45833,-0.29166 -0.97917,-0.4375 -1.5625,-0.4375c-0.58333,0 -1.10937,0.14584 -1.57812,0.4375c-0.46875,0.29166 -0.83333,0.69271 -1.09375,1.20313c-0.26042,0.5 -0.38542,1.06771 -0.375,1.70313c-0.01042,0.63541 0.11458,1.20834 0.375,1.71875c0.26042,0.5 0.625,0.89584 1.09375,1.1875c0.46875,0.29166 0.99479,0.4375 1.57813,0.4375zM341.85821,247.64817c-0.82292,0 -1.5625,-0.14062 -2.21875,-0.42187c-0.65625,-0.29166 -1.20312,-0.71875 -1.64062,-1.28125l1.29688,-1.10937c0.375,0.42709 0.78125,0.73959 1.21875,0.9375c0.44792,0.1875 0.95313,0.28125 1.51563,0.28125c0.21875,0 0.42188,-0.02604 0.60938,-0.07812c0.19792,-0.05209 0.36979,-0.13541 0.51563,-0.25c0.14583,-0.11459 0.25521,-0.25 0.32813,-0.40625c0.07292,-0.15625 0.10938,-0.32812 0.10938,-0.51562c0,-0.32291 -0.11979,-0.58334 -0.35937,-0.78125c-0.125,-0.08334 -0.32292,-0.17709 -0.59375,-0.28125c-0.26042,-0.10416 -0.60417,-0.21354 -1.03125,-0.32812c-0.71875,-0.1875 -1.30729,-0.39584 -1.76562,-0.625c-0.45833,-0.23959 -0.8125,-0.51041 -1.0625,-0.8125c-0.1875,-0.23959 -0.32812,-0.49479 -0.42187,-0.76562c-0.08333,-0.28125 -0.125,-0.59375 -0.125,-0.9375c0,-0.40625 0.08854,-0.78125 0.26563,-1.125c0.1875,-0.34375 0.4375,-0.64062 0.75,-0.89062c0.32292,-0.26041 0.69792,-0.45834 1.125,-0.59375c0.42708,-0.13541 0.88542,-0.20312 1.375,-0.20312c0.45833,0 0.91146,0.0625 1.35938,0.1875c0.45833,0.125 0.88021,0.30729 1.26563,0.54688c0.38542,0.22916 0.70833,0.50521 0.96875,0.82813l-1.09375,1.21875c-0.23958,-0.23959 -0.5,-0.44791 -0.78125,-0.625c-0.28125,-0.17709 -0.56771,-0.3125 -0.85937,-0.40625c-0.28125,-0.10416 -0.53646,-0.15625 -0.76562,-0.15625c-0.26042,0 -0.5,0.02604 -0.71875,0.07813c-0.20833,0.04166 -0.38542,0.11459 -0.53125,0.21875c-0.13542,0.09375 -0.24479,0.21875 -0.32812,0.375c-0.07292,0.14584 -0.10937,0.3125 -0.10937,0.5c0.01042,0.15625 0.05208,0.30729 0.125,0.45313c0.07292,0.14584 0.17188,0.26563 0.29688,0.35938c0.13542,0.10416 0.33854,0.21354 0.60938,0.32813c0.27083,0.10416 0.61979,0.20834 1.04688,0.3125c0.61458,0.15625 1.125,0.33334 1.53125,0.53125c0.40625,0.1875 0.72917,0.40625 0.96875,0.65625c0.25,0.23959 0.42188,0.51563 0.51563,0.82813c0.10417,0.3125 0.15625,0.66146 0.15625,1.04688c0,0.55209 -0.16146,1.05209 -0.48437,1.5c-0.3125,0.4375 -0.73958,0.78125 -1.28125,1.03125c-0.53125,0.25 -1.125,0.375 -1.78125,0.375zM352.09143,247.64817c-1,0 -1.89062,-0.21354 -2.67187,-0.64062c-0.77083,-0.42709 -1.38021,-1.01562 -1.82812,-1.76562c-0.4375,-0.75 -0.65625,-1.60937 -0.65625,-2.57812c0,-0.77084 0.125,-1.47396 0.375,-2.10937c0.25,-0.63541 0.59375,-1.18229 1.03125,-1.64062c0.4375,-0.46875 0.96354,-0.82812 1.57813,-1.07812c0.625,-0.26041 1.29688,-0.39062 2.01563,-0.39062c0.63542,0 1.22396,0.11979 1.76563,0.35938c0.55208,0.23959 1.02604,0.57291 1.42188,1c0.40625,0.42709 0.71875,0.93229 0.9375,1.51563c0.21875,0.57291 0.32292,1.19791 0.3125,1.875l-0.01562,0.82813h-8l-0.4375,-1.53125h6.76563l-0.26562,0.3125v-0.4375c-0.04167,-0.41666 -0.18229,-0.78646 -0.42187,-1.10937c-0.22917,-0.32291 -0.52604,-0.57812 -0.89062,-0.76562c-0.36458,-0.1875 -0.75521,-0.28125 -1.17187,-0.28125c-0.67708,0 -1.24479,0.13021 -1.70312,0.39063c-0.45833,0.25 -0.80729,0.625 -1.04687,1.125c-0.22917,0.48959 -0.34375,1.09375 -0.34375,1.8125c0,0.67709 0.14063,1.27084 0.42188,1.78125c0.28125,0.5 0.68229,0.89063 1.20313,1.17188c0.53125,0.27084 1.13542,0.40625 1.8125,0.40625c0.48958,0 0.94271,-0.07812 1.35938,-0.23437c0.41667,-0.16666 0.86979,-0.46354 1.35938,-0.89062l0.96875,1.35938c-0.30208,0.30209 -0.66667,0.56771 -1.09375,0.79688c-0.42708,0.21875 -0.88021,0.39584 -1.35937,0.53125c-0.47917,0.125 -0.95312,0.1875 -1.42187,0.1875z" fill="#ffffff" fill-rule="nonzero"/></g></g></svg>