<svg version="1.1" xmlns="http://www.w3.org/2000/svg" xmlns:xlink="http://www.w3.org/1999/xlink" width="25.45454" height="25.45454" viewBox="0,0,25.45454,25.45454"><g transform="translate(-227.27272,-167.27272)"><g data-paper-data="{&quot;isPaintingLayer&quot;:true}" fill-rule="nonzero" stroke="none" stroke-linecap="butt" stroke-linejoin="miter" stroke-miterlimit="10" stroke-dasharray="" stroke-dashoffset="0" style="mix-blend-mode: normal"><path d="M233.73333,185.48333v-1.56667h1.56667v-5.48333c0,-1.08361 0.32639,-2.04646 0.97917,-2.88854c0.65278,-0.84208 1.50139,-1.39368 2.54583,-1.65479v-0.54833c0,-0.32639 0.11424,-0.60382 0.34271,-0.83229c0.22847,-0.22847 0.5059,-0.34271 0.83229,-0.34271c0.32639,0 0.60382,0.11424 0.83229,0.34271c0.22847,0.22847 0.34271,0.5059 0.34271,0.83229v0.54833c1.04445,0.26111 1.89305,0.81271 2.54583,1.65479c0.65278,0.84208 0.97917,1.80493 0.97917,2.88854v5.48333h1.56667v1.56667zM240,187.83333c-0.43083,0 -0.79965,-0.1534 -1.10646,-0.46021c-0.3068,-0.3068 -0.46021,-0.67562 -0.46021,-1.10646h3.13333c0,0.43083 -0.1534,0.79965 -0.46021,1.10646c-0.3068,0.3068 -0.67563,0.46021 -1.10646,0.46021zM236.86667,183.91667h6.26667v-5.48333c0,-0.86167 -0.3068,-1.5993 -0.92042,-2.21292c-0.61361,-0.61361 -1.35125,-0.92042 -2.21292,-0.92042c-0.86167,0 -1.5993,0.3068 -2.21292,0.92042c-0.61361,0.61361 -0.92042,1.35125 -0.92042,2.21292z" fill="#ffffff" stroke-width="1"/><path d="M227.27273,180c0,-7.02908 5.69819,-12.72727 12.72727,-12.72727c7.02908,0 12.72727,5.69819 12.72727,12.72727c0,7.02908 -5.69819,12.72727 -12.72727,12.72727c-7.02908,0 -12.72727,-5.69819 -12.72727,-12.72727z" fill-opacity="0.01121" fill="#616161" stroke-width="0"/></g></g></svg>