<svg version="1.1" xmlns="http://www.w3.org/2000/svg" xmlns:xlink="http://www.w3.org/1999/xlink" width="596.0961" height="379.00821" viewBox="0,0,596.0961,379.00821"><defs><linearGradient x1="230.991" y1="308.37838" x2="230.991" y2="366.93695" gradientUnits="userSpaceOnUse" id="color-1"><stop offset="0" stop-color="#282828" stop-opacity="0"/><stop offset="1" stop-color="#282828"/></linearGradient></defs><g transform="translate(67.05705,12.07126)"><g data-paper-data="{&quot;isPaintingLayer&quot;:true}" stroke="none" stroke-linejoin="miter" stroke-miterlimit="10" stroke-dasharray="" stroke-dashoffset="0" style="mix-blend-mode: normal"><path d="M-18.11444,11.11161c0,-12.80356 9.69038,-23.18287 21.64406,-23.18287h464.57762c5.74037,0 11.24563,2.44247 15.30467,6.7901c4.05907,4.34763 6.3394,10.24427 6.3394,16.39277v328.70077c0,12.80356 -9.69036,23.18287 -21.64407,23.18287h-464.57761c-11.95367,0 -21.64406,-10.37931 -21.64406,-23.18287z" fill="#ebebeb" fill-rule="evenodd" stroke-width="1" stroke-linecap="square"/><path d="M-67.05705,366.93695v-58.55856h596.0961v58.55856z" fill="url(#color-1)" fill-rule="nonzero" stroke-width="0" stroke-linecap="butt"/><path d="M29.17045,29.64969c-0.51994,0 -1.00164,-0.06881 -1.44513,-0.20644c-0.44347,-0.13763 -0.84491,-0.34408 -1.20427,-0.61934c-0.35937,-0.28291 -0.68051,-0.62698 -0.96342,-1.03224l1.0093,-1.16988c0.45112,0.64228 0.8793,1.08575 1.28456,1.33044c0.41289,0.24468 0.90225,0.36702 1.46807,0.36702c0.34408,0 0.65757,-0.05352 0.94048,-0.16056c0.28291,-0.1147 0.50464,-0.26761 0.66522,-0.45877c0.16822,-0.19116 0.25233,-0.40907 0.25233,-0.65375c0,-0.16058 -0.02677,-0.31349 -0.08028,-0.45877c-0.05353,-0.15292 -0.13763,-0.28673 -0.25232,-0.40142c-0.1147,-0.12234 -0.25998,-0.23321 -0.43584,-0.33261c-0.17586,-0.09941 -0.3823,-0.18733 -0.61934,-0.26378c-0.23703,-0.07646 -0.5123,-0.14146 -0.8258,-0.19497c-0.48935,-0.10704 -0.91754,-0.24085 -1.28456,-0.40142c-0.36702,-0.16822 -0.67286,-0.37466 -0.91755,-0.61934c-0.24468,-0.24468 -0.42818,-0.52376 -0.55053,-0.83726c-0.12234,-0.31349 -0.18351,-0.66905 -0.18351,-1.06664c0,-0.38232 0.08411,-0.73787 0.25233,-1.06665c0.17586,-0.32879 0.40906,-0.6117 0.69962,-0.84873c0.2982,-0.24468 0.64611,-0.43201 1.0437,-0.56199c0.40525,-0.13763 0.84108,-0.20645 1.3075,-0.20645c0.497,0 0.94813,0.06499 1.35338,0.19497c0.41289,0.12998 0.77991,0.32114 1.10105,0.57347c0.32114,0.24468 0.58493,0.55052 0.79138,0.91754l-1.0437,1.03225c-0.17586,-0.30586 -0.37849,-0.55818 -0.60787,-0.75699c-0.22939,-0.20644 -0.48171,-0.3632 -0.75697,-0.47024c-0.27527,-0.10704 -0.56581,-0.16057 -0.87167,-0.16057c-0.35937,0 -0.67286,0.05734 -0.94048,0.17203c-0.25998,0.10704 -0.46642,0.25998 -0.61935,0.45877c-0.15292,0.19116 -0.22939,0.42054 -0.22939,0.68817c0,0.19116 0.03823,0.36701 0.1147,0.52758c0.07646,0.16058 0.18733,0.30203 0.33261,0.42436c0.15292,0.12234 0.35554,0.23322 0.60787,0.33261c0.25998,0.09175 0.56583,0.17203 0.91755,0.24085c0.50465,0.1147 0.95194,0.25615 1.3419,0.42436c0.39759,0.16822 0.73021,0.36702 0.99783,0.5964c0.27527,0.22939 0.4817,0.48554 0.61934,0.76844c0.14528,0.28291 0.21791,0.58874 0.21791,0.91754c0,0.6117 -0.14146,1.14312 -0.42436,1.59424c-0.28291,0.44347 -0.68433,0.78755 -1.20427,1.03224c-0.51994,0.23703 -1.13928,0.35554 -1.85803,0.35554zM35.60538,32.66612l1.45659,-3.3605l0.01147,1.12399l-3.58989,-8.10879h1.64011l2.24798,5.28735c0.04588,0.09175 0.0994,0.23322 0.16057,0.42436c0.06882,0.18351 0.12615,0.36702 0.17203,0.55053l-0.35554,0.08028c0.06882,-0.19116 0.13764,-0.3823 0.20645,-0.57346c0.06882,-0.19116 0.1338,-0.38231 0.19497,-0.57347l1.88097,-5.19559h1.67452l-2.95908,7.19124l-1.21574,3.15405zM44.61757,29.64969c-0.60404,0 -1.14693,-0.10322 -1.62864,-0.30966c-0.48172,-0.2141 -0.88313,-0.52759 -1.20427,-0.94048l0.95195,-0.81432c0.27526,0.31349 0.57346,0.54288 0.8946,0.68816c0.32879,0.13763 0.69963,0.20644 1.11252,0.20644c0.16058,0 0.30966,-0.01911 0.44729,-0.05734c0.14528,-0.03823 0.27144,-0.0994 0.37848,-0.18351c0.10704,-0.08411 0.18733,-0.18351 0.24085,-0.2982c0.05353,-0.1147 0.08028,-0.24085 0.08028,-0.37848c0,-0.23703 -0.08792,-0.42819 -0.26378,-0.57347c-0.09175,-0.06116 -0.23703,-0.12998 -0.43583,-0.20644c-0.19116,-0.07646 -0.44348,-0.15674 -0.75698,-0.24085c-0.52759,-0.13763 -0.9596,-0.29055 -1.29602,-0.45877c-0.33642,-0.17586 -0.59641,-0.37467 -0.77991,-0.59641c-0.13764,-0.17586 -0.24085,-0.36319 -0.30967,-0.56199c-0.06117,-0.20644 -0.09175,-0.43584 -0.09175,-0.68816c0,-0.2982 0.06498,-0.57346 0.19496,-0.82579c0.13764,-0.25232 0.32114,-0.47023 0.55053,-0.65374c0.23703,-0.19116 0.5123,-0.33643 0.82579,-0.43584c0.3135,-0.09941 0.64992,-0.1491 1.0093,-0.1491c0.33642,0 0.66904,0.04588 0.99782,0.13763c0.33642,0.09175 0.64612,0.22556 0.92901,0.40142c0.28292,0.16822 0.51993,0.37084 0.71109,0.60787l-0.80284,0.8946c-0.17586,-0.17586 -0.36702,-0.32879 -0.57346,-0.45877c-0.20645,-0.12998 -0.41673,-0.22938 -0.63081,-0.2982c-0.20645,-0.07646 -0.39378,-0.1147 -0.56199,-0.1147c-0.19116,0 -0.36702,0.01911 -0.52759,0.05734c-0.15292,0.03058 -0.28291,0.08411 -0.38995,0.16058c-0.0994,0.06882 -0.17969,0.16056 -0.24086,0.27526c-0.05353,0.10704 -0.08028,0.22939 -0.08028,0.36702c0.00764,0.1147 0.03823,0.22556 0.09175,0.3326c0.05353,0.10704 0.12615,0.19497 0.21791,0.26379c0.0994,0.07646 0.2485,0.15674 0.4473,0.24085c0.1988,0.07646 0.45494,0.15292 0.76843,0.22939c0.45112,0.1147 0.82579,0.24468 1.124,0.38996c0.2982,0.13763 0.53524,0.2982 0.7111,0.4817c0.1835,0.17586 0.30966,0.37849 0.37848,0.60787c0.07646,0.22939 0.11469,0.48553 0.11469,0.76844c0,0.40525 -0.11852,0.77226 -0.35554,1.10105c-0.22939,0.32114 -0.54288,0.57347 -0.94048,0.75698c-0.38996,0.18351 -0.82579,0.27526 -1.3075,0.27526zM49.67468,29.51206v-9.02634h1.41072v9.02634zM48.17219,23.69714v-1.37632h4.57626v1.37632zM57.31921,29.64969c-0.73403,0 -1.38778,-0.15673 -1.96124,-0.47023c-0.56582,-0.31349 -1.01312,-0.74551 -1.3419,-1.29603c-0.32114,-0.55053 -0.48172,-1.18133 -0.48172,-1.89243c0,-0.56582 0.09176,-1.08194 0.27527,-1.54835c0.1835,-0.46642 0.43583,-0.86784 0.75697,-1.20426c0.32114,-0.34408 0.70727,-0.60787 1.15839,-0.79138c0.45878,-0.19116 0.95195,-0.28673 1.47953,-0.28673c0.46641,0 0.89843,0.08793 1.29603,0.26379c0.40525,0.17586 0.75315,0.42054 1.04371,0.73404c0.2982,0.31349 0.52758,0.68433 0.68816,1.11251c0.16058,0.42054 0.23703,0.8793 0.22939,1.37632l-0.01146,0.60787h-5.87228l-0.32115,-1.12399h4.96621l-0.19497,0.22939v-0.32114c-0.03059,-0.30586 -0.13381,-0.57728 -0.30967,-0.81431c-0.16822,-0.23703 -0.38612,-0.42436 -0.65374,-0.56199c-0.26761,-0.13763 -0.55435,-0.20644 -0.86019,-0.20644c-0.497,0 -0.91373,0.09558 -1.25015,0.28673c-0.33642,0.18351 -0.59257,0.45877 -0.76843,0.82579c-0.16822,0.35937 -0.25232,0.80286 -0.25232,1.33044c0,0.497 0.10322,0.93284 0.30966,1.3075c0.20645,0.36702 0.50082,0.65375 0.88313,0.86019c0.38996,0.1988 0.83343,0.2982 1.33044,0.2982c0.35936,0 0.69198,-0.05733 0.99782,-0.17203c0.30586,-0.12234 0.63846,-0.34025 0.99782,-0.65375l0.7111,0.99783c-0.22174,0.22173 -0.48935,0.41672 -0.80284,0.58492c-0.3135,0.16058 -0.64611,0.29056 -0.99783,0.38996c-0.35173,0.09175 -0.69962,0.13762 -1.0437,0.13762zM61.97213,29.51206v-7.19124h1.42219v1.53689l-0.26379,0.16057c0.07646,-0.23703 0.19116,-0.4626 0.34408,-0.67669c0.16058,-0.22173 0.35554,-0.41672 0.58493,-0.58492c0.23704,-0.16822 0.48936,-0.30203 0.75698,-0.40142c0.27527,-0.10704 0.55435,-0.16057 0.83725,-0.16057c0.40524,0 0.76461,0.06882 1.07811,0.20645c0.3135,0.13763 0.56964,0.34408 0.76844,0.61934c0.1988,0.27527 0.34408,0.61934 0.43583,1.03224l-0.21791,-0.05734l0.09175,-0.22938c0.10704,-0.2141 0.2485,-0.41291 0.42436,-0.59641c0.17586,-0.19116 0.37848,-0.35937 0.60786,-0.50464c0.22938,-0.14528 0.47024,-0.25997 0.72256,-0.34408c0.25997,-0.08411 0.51229,-0.12616 0.75697,-0.12616c0.53522,0 0.97872,0.11087 1.33044,0.33261c0.35173,0.22173 0.61552,0.55816 0.79138,1.0093c0.1835,0.44347 0.27526,0.99782 0.27526,1.66304v4.31246h-1.4222v-4.23218c0,-0.41289 -0.05352,-0.74932 -0.16056,-1.0093c-0.10704,-0.25998 -0.26762,-0.45112 -0.48172,-0.57346c-0.20645,-0.12998 -0.47406,-0.19497 -0.80285,-0.19497c-0.25232,0 -0.49318,0.04587 -0.72256,0.13762c-0.22173,0.08411 -0.41672,0.20262 -0.58492,0.35554c-0.16057,0.15292 -0.28672,0.33261 -0.37848,0.53905c-0.0841,0.20644 -0.12616,0.43201 -0.12616,0.67668v4.30099h-1.43366v-4.25511c0,-0.37467 -0.05353,-0.69198 -0.16057,-0.95194c-0.10704,-0.25998 -0.26761,-0.45878 -0.48171,-0.59641c-0.20645,-0.13763 -0.4626,-0.20644 -0.76844,-0.20644c-0.25232,0 -0.48935,0.04588 -0.7111,0.13763c-0.2141,0.08411 -0.40525,0.20262 -0.57347,0.35554c-0.16058,0.14528 -0.28672,0.32114 -0.37848,0.52758c-0.09175,0.20644 -0.13764,0.42819 -0.13764,0.66522v4.32392zM78.79751,29.51206v-9.58833h1.4566l3.48666,5.68878l-0.69962,-0.01146l3.53255,-5.6773h1.37632v9.58833h-1.47954v-3.93397c0,-0.81814 0.01911,-1.55601 0.05734,-2.21357c0.03822,-0.65757 0.11087,-1.31132 0.21791,-1.96125l0.18351,0.50465l-3.13112,4.85152h-0.90606l-3.03936,-4.79415l0.14909,-0.562c0.09941,0.61171 0.16823,1.24251 0.20645,1.89244c0.04588,0.64228 0.06881,1.40308 0.06881,2.28239v3.93398zM93.03797,29.64969c-0.58876,0 -1.12782,-0.16439 -1.61716,-0.49317c-0.48935,-0.32879 -0.88313,-0.77609 -1.18133,-1.34191c-0.29055,-0.56582 -0.43584,-1.20427 -0.43584,-1.91537c0,-0.72639 0.1491,-1.36867 0.4473,-1.92684c0.2982,-0.55816 0.69963,-0.99782 1.20428,-1.31896c0.51229,-0.32114 1.08194,-0.48171 1.70892,-0.48171c0.37466,0 0.71492,0.05734 1.02076,0.17203c0.3135,0.10704 0.58494,0.25997 0.81432,0.45877c0.23704,0.19116 0.42818,0.41672 0.57346,0.67669c0.15292,0.25232 0.2485,0.52375 0.28673,0.81431l-0.30966,-0.10322v-1.86949h1.4222v7.19124h-1.4222v-1.70892l0.32114,-0.10322c-0.05352,0.25232 -0.1644,0.49701 -0.3326,0.73404c-0.16822,0.22939 -0.38231,0.43583 -0.64228,0.61934c-0.25997,0.17586 -0.5467,0.32114 -0.8602,0.43583c-0.3135,0.10704 -0.64611,0.16057 -0.99783,0.16057zM93.40499,28.35366c0.43583,0 0.81432,-0.10322 1.13546,-0.30966c0.32879,-0.2141 0.58494,-0.50465 0.76844,-0.87167c0.19116,-0.37467 0.28673,-0.79903 0.28673,-1.27309c0,-0.46642 -0.09558,-0.88312 -0.28673,-1.25014c-0.1835,-0.36702 -0.43966,-0.65375 -0.76844,-0.8602c-0.32114,-0.2141 -0.69962,-0.32114 -1.13546,-0.32114c-0.42054,0 -0.79138,0.10704 -1.11252,0.32114c-0.32114,0.20644 -0.57729,0.49318 -0.76844,0.8602c-0.1835,0.36702 -0.27526,0.78373 -0.27526,1.25014c0,0.47406 0.09176,0.89843 0.27526,1.27309c0.19116,0.36702 0.4473,0.65757 0.76844,0.87167c0.32114,0.20644 0.69198,0.30966 1.11252,0.30966zM98.94237,29.51206v-7.19124h1.41072v1.47954l-0.25232,0.16056c0.09176,-0.31349 0.27144,-0.60404 0.53905,-0.87167c0.26762,-0.27527 0.5811,-0.497 0.94048,-0.66522c0.36702,-0.16822 0.74167,-0.25233 1.12399,-0.25233c0.55052,0 1.00548,0.10705 1.36484,0.32115c0.36702,0.2141 0.64229,0.54288 0.82579,0.98636c0.1835,0.43584 0.27526,0.98636 0.27526,1.65158v4.38126h-1.41072v-4.28951c0,-0.40525 -0.05353,-0.74168 -0.16057,-1.0093c-0.10704,-0.27527 -0.27527,-0.47406 -0.50465,-0.59641c-0.22938,-0.12234 -0.51229,-0.17585 -0.84873,-0.16057c-0.27527,0 -0.52759,0.04588 -0.75697,0.13763c-0.22938,0.08411 -0.42818,0.20644 -0.59641,0.36701c-0.16822,0.15292 -0.30202,0.33261 -0.40142,0.53906c-0.09176,0.1988 -0.13764,0.41672 -0.13764,0.65375v4.35833h-0.69962c-0.11469,0 -0.2332,0 -0.35554,0c-0.12234,0 -0.24085,0 -0.35555,0zM109.85459,29.64969c-0.58876,0 -1.12782,-0.16439 -1.61716,-0.49317c-0.48935,-0.32879 -0.88314,-0.77609 -1.18134,-1.34191c-0.29055,-0.56582 -0.43583,-1.20427 -0.43583,-1.91537c0,-0.72639 0.1491,-1.36867 0.4473,-1.92684c0.2982,-0.55816 0.69963,-0.99782 1.20427,-1.31896c0.51229,-0.32114 1.08194,-0.48171 1.70892,-0.48171c0.37466,0 0.71492,0.05734 1.02076,0.17203c0.3135,0.10704 0.58494,0.25997 0.81432,0.45877c0.23704,0.19116 0.42818,0.41672 0.57346,0.67669c0.15292,0.25232 0.24851,0.52375 0.28673,0.81431l-0.30966,-0.10322v-1.86949h1.42219v7.19124h-1.42219v-1.70892l0.32114,-0.10322c-0.05352,0.25232 -0.16441,0.49701 -0.33261,0.73404c-0.16822,0.22939 -0.38231,0.43583 -0.64228,0.61934c-0.25997,0.17586 -0.54669,0.32114 -0.86019,0.43583c-0.3135,0.10704 -0.64611,0.16057 -0.99783,0.16057zM110.22161,28.35366c0.43583,0 0.81432,-0.10322 1.13546,-0.30966c0.32879,-0.2141 0.58494,-0.50465 0.76844,-0.87167c0.19116,-0.37467 0.28673,-0.79903 0.28673,-1.27309c0,-0.46642 -0.09558,-0.88312 -0.28673,-1.25014c-0.1835,-0.36702 -0.43966,-0.65375 -0.76844,-0.8602c-0.32114,-0.2141 -0.69962,-0.32114 -1.13546,-0.32114c-0.42054,0 -0.79138,0.10704 -1.11252,0.32114c-0.32114,0.20644 -0.57729,0.49318 -0.76843,0.8602c-0.1835,0.36702 -0.27527,0.78373 -0.27527,1.25014c0,0.47406 0.09176,0.89843 0.27527,1.27309c0.19116,0.36702 0.44729,0.65757 0.76843,0.87167c0.32114,0.20644 0.69198,0.30966 1.11252,0.30966zM118.98188,32.66612c-0.51229,0 -1.0246,-0.08028 -1.5369,-0.24086c-0.50464,-0.16058 -0.90989,-0.37083 -1.21574,-0.6308l0.51611,-1.08958c0.1835,0.13763 0.39759,0.25614 0.64228,0.35554c0.24468,0.10704 0.50464,0.19117 0.77991,0.25233c0.27527,0.06116 0.5467,0.09175 0.81431,0.09175c0.497,0 0.91372,-0.0841 1.25015,-0.25232c0.34408,-0.16058 0.60023,-0.40142 0.76844,-0.72256c0.17586,-0.32114 0.26379,-0.71873 0.26379,-1.1928v-1.37632l0.1491,0.09176c-0.04588,0.28291 -0.19497,0.55434 -0.4473,0.81431c-0.25232,0.25998 -0.56582,0.47406 -0.94048,0.64228c-0.36702,0.16058 -0.74933,0.24085 -1.14693,0.24085c-0.6805,0 -1.28839,-0.16058 -1.82361,-0.48172c-0.53522,-0.32879 -0.95959,-0.77227 -1.27309,-1.33044c-0.30585,-0.56582 -0.45878,-1.2081 -0.45878,-1.92684c0,-0.71873 0.15292,-1.35721 0.45878,-1.91537c0.30585,-0.56582 0.72256,-1.0093 1.25015,-1.33044c0.53522,-0.32879 1.13929,-0.49318 1.81216,-0.49318c0.26762,0 0.52758,0.0344 0.7799,0.10322c0.25997,0.06882 0.50083,0.16439 0.72257,0.28672c0.22173,0.12234 0.41672,0.25615 0.58492,0.40142c0.17586,0.14528 0.31732,0.30203 0.42436,0.47023c0.11469,0.16058 0.1835,0.3135 0.20645,0.45878l-0.2982,0.11469v-1.68598h1.41072v6.75541c0,0.57346 -0.08411,1.08194 -0.25233,1.52541c-0.16822,0.44347 -0.41289,0.81814 -0.73403,1.12399c-0.32114,0.30585 -0.7111,0.53904 -1.16987,0.69962c-0.45112,0.16058 -0.96343,0.24085 -1.53689,0.24085zM119.02775,28.35366c0.45112,0 0.84873,-0.10322 1.19281,-0.30966c0.35173,-0.2141 0.62317,-0.50465 0.81432,-0.87167c0.19116,-0.36702 0.28673,-0.78755 0.28673,-1.26162c0,-0.47406 -0.0994,-0.89461 -0.2982,-1.26163c-0.1988,-0.37467 -0.47024,-0.66522 -0.81432,-0.87166c-0.33643,-0.2141 -0.73022,-0.32114 -1.18134,-0.32114c-0.43583,0 -0.82578,0.10704 -1.16986,0.32114c-0.34408,0.2141 -0.61552,0.50847 -0.81432,0.88313c-0.19116,0.36702 -0.28673,0.78374 -0.28673,1.25015c0,0.46642 0.09558,0.88696 0.28673,1.26162c0.1988,0.36702 0.47024,0.65757 0.81432,0.87167c0.34408,0.20644 0.73403,0.30966 1.16986,0.30966zM127.99566,29.64969c-0.73404,0 -1.38778,-0.15673 -1.96125,-0.47023c-0.56582,-0.31349 -1.01313,-0.74551 -1.34191,-1.29603c-0.32114,-0.55053 -0.4817,-1.18133 -0.4817,-1.89243c0,-0.56582 0.09176,-1.08194 0.27526,-1.54835c0.1835,-0.46642 0.43583,-0.86784 0.75697,-1.20426c0.32114,-0.34408 0.70727,-0.60787 1.15839,-0.79138c0.45878,-0.19116 0.95195,-0.28673 1.47954,-0.28673c0.46642,0 0.89843,0.08793 1.29602,0.26379c0.40525,0.17586 0.75314,0.42054 1.0437,0.73404c0.2982,0.31349 0.52759,0.68433 0.68816,1.11251c0.16057,0.42054 0.23703,0.8793 0.22939,1.37632l-0.01147,0.60787h-5.87227l-0.32114,-1.12399h4.9662l-0.19497,0.22939v-0.32114c-0.03059,-0.30586 -0.1338,-0.57728 -0.30966,-0.81431c-0.16822,-0.23703 -0.38613,-0.42436 -0.65374,-0.56199c-0.26762,-0.13763 -0.55436,-0.20644 -0.8602,-0.20644c-0.497,0 -0.91372,0.09558 -1.25015,0.28673c-0.33643,0.18351 -0.59258,0.45877 -0.76844,0.82579c-0.16822,0.35937 -0.25233,0.80286 -0.25233,1.33044c0,0.497 0.10322,0.93284 0.30967,1.3075c0.20645,0.36702 0.50082,0.65375 0.88313,0.86019c0.38996,0.1988 0.83342,0.2982 1.33044,0.2982c0.35936,0 0.69198,-0.05733 0.99782,-0.17203c0.30586,-0.12234 0.63846,-0.34025 0.99783,-0.65375l0.7111,0.99783c-0.22173,0.22173 -0.48935,0.41672 -0.80285,0.58492c-0.31349,0.16058 -0.64611,0.29056 -0.99783,0.38996c-0.35172,0.09175 -0.69962,0.13762 -1.0437,0.13762zM132.67151,29.51206v-7.19124h1.4222v2.25945l-0.13763,-0.55053c0.0994,-0.34408 0.27143,-0.65757 0.51611,-0.94049c0.24468,-0.28291 0.52376,-0.50464 0.83725,-0.66522c0.31349,-0.16822 0.63846,-0.25233 0.97489,-0.25233c0.15292,0 0.2982,0.0153 0.43583,0.04588c0.14528,0.02294 0.25997,0.05353 0.34408,0.09175l-0.36702,1.53689c-0.10704,-0.04588 -0.22939,-0.08411 -0.36702,-0.11469c-0.12998,-0.03823 -0.25998,-0.05734 -0.38996,-0.05734c-0.24468,0 -0.47788,0.04969 -0.69962,0.14909c-0.22173,0.09175 -0.42054,0.22557 -0.59641,0.40143c-0.16822,0.16822 -0.30203,0.36319 -0.40142,0.58492c-0.0994,0.22173 -0.14909,0.46641 -0.14909,0.73404v3.96837z" fill="#000000" fill-rule="nonzero" stroke-width="1" stroke-linecap="square"/><path d="M30.30609,105.64579v-9.52987h3.87578c0.51677,0 0.98414,0.1292 1.40212,0.38757c0.42559,0.25839 0.76376,0.61177 1.01454,1.06015c0.25839,0.44078 0.38757,0.93475 0.38757,1.48191c0,0.54717 -0.1292,1.04495 -0.38757,1.49332c-0.25078,0.44078 -0.58895,0.79415 -1.01454,1.06014c-0.41798,0.26599 -0.88535,0.39898 -1.40212,0.39898h-2.40527v3.6478zM31.7766,100.58448h2.38246c0.24319,0 0.46358,-0.06841 0.66117,-0.2052c0.2052,-0.1444 0.36858,-0.33059 0.49018,-0.55857c0.1216,-0.23558 0.18239,-0.49397 0.18239,-0.77515c0,-0.28118 -0.06079,-0.53577 -0.18239,-0.76376c-0.1216,-0.22798 -0.28498,-0.41037 -0.49018,-0.54716c-0.19759,-0.13679 -0.41798,-0.2052 -0.66117,-0.2052h-2.38246zM38.58198,105.64579v-7.1474h1.41352v2.24567l-0.13679,-0.54716c0.09879,-0.34198 0.26978,-0.65357 0.51297,-0.93475c0.24319,-0.28118 0.52057,-0.50158 0.83215,-0.66117c0.31158,-0.16718 0.63456,-0.25078 0.96895,-0.25078c0.15198,0 0.29638,0.01519 0.43317,0.0456c0.1444,0.0228 0.25839,0.0532 0.34199,0.09119l-0.36479,1.52751c-0.1064,-0.0456 -0.22798,-0.0836 -0.36479,-0.11399c-0.1292,-0.03799 -0.25839,-0.057 -0.38757,-0.057c-0.24319,0 -0.47496,0.0494 -0.69535,0.14819c-0.22039,0.09119 -0.41798,0.22418 -0.59277,0.39897c-0.16718,0.16718 -0.30018,0.36098 -0.39898,0.58137c-0.09879,0.22039 -0.14819,0.46358 -0.14819,0.72956v3.94418zM46.98216,105.7826c-0.69916,0 -1.32613,-0.15959 -1.8809,-0.47878c-0.54717,-0.32677 -0.98033,-0.76755 -1.29952,-1.32232c-0.31158,-0.56238 -0.46737,-1.20073 -0.46737,-1.91509c0,-0.71436 0.15579,-1.34892 0.46737,-1.90369c0.31919,-0.56238 0.75235,-1.00313 1.29952,-1.32232c0.55477,-0.32677 1.18174,-0.49018 1.8809,-0.49018c0.68395,0 1.29952,0.16339 1.8467,0.49018c0.55477,0.31919 0.99174,0.75996 1.31092,1.32232c0.31919,0.55477 0.47877,1.18934 0.47877,1.90369c0,0.71436 -0.15959,1.35273 -0.47877,1.91509c-0.31919,0.55477 -0.75615,0.99554 -1.31092,1.32232c-0.54717,0.31919 -1.16273,0.47878 -1.8467,0.47878zM46.98216,104.50586c0.42559,0 0.80555,-0.1064 1.13993,-0.31918c0.33438,-0.21278 0.59656,-0.50158 0.78656,-0.86635c0.18999,-0.37238 0.28119,-0.79036 0.27359,-1.25394c0.00761,-0.47117 -0.0836,-0.88915 -0.27359,-1.25393c-0.18999,-0.37238 -0.45218,-0.66117 -0.78656,-0.86635c-0.33438,-0.21278 -0.71436,-0.31918 -1.13993,-0.31918c-0.42559,0 -0.80936,0.10639 -1.15133,0.31918c-0.34198,0.21278 -0.60796,0.50537 -0.79796,0.87775c-0.18999,0.36479 -0.28118,0.77895 -0.27358,1.24254c-0.00761,0.46358 0.08359,0.88156 0.27358,1.25394c0.18999,0.36479 0.45598,0.65356 0.79796,0.86635c0.34198,0.21278 0.72576,0.31918 1.15133,0.31918zM55.17045,105.7826c-0.66117,0 -1.25394,-0.16339 -1.7783,-0.49018c-0.51677,-0.32677 -0.92714,-0.77134 -1.23113,-1.33372c-0.30399,-0.56238 -0.45598,-1.19314 -0.45598,-1.89229c0,-0.69916 0.15199,-1.32993 0.45598,-1.89229c0.30399,-0.56238 0.71435,-1.00695 1.23113,-1.33372c0.52438,-0.32677 1.11714,-0.49018 1.7783,-0.49018c0.63837,0 1.21594,0.1292 1.7327,0.38757c0.52438,0.25839 0.92335,0.61177 1.19693,1.06014l-0.77516,0.94615c-0.1444,-0.2052 -0.33058,-0.39517 -0.55856,-0.56996c-0.22798,-0.17479 -0.47117,-0.31158 -0.72956,-0.41037c-0.25078,-0.09879 -0.49398,-0.1482 -0.72956,-0.1482c-0.43318,0 -0.82076,0.1064 -1.16273,0.31919c-0.34198,0.21278 -0.61177,0.50537 -0.80936,0.87775c-0.19759,0.37238 -0.29639,0.79036 -0.29639,1.25394c0,0.46358 0.10259,0.88156 0.30779,1.25393c0.21278,0.36479 0.49017,0.65735 0.83214,0.87775c0.34198,0.21278 0.72196,0.31919 1.13993,0.31919c0.25078,0 0.49018,-0.04179 0.71816,-0.12539c0.22798,-0.0836 0.45218,-0.20519 0.67257,-0.36478c0.22039,-0.16718 0.42558,-0.36858 0.61557,-0.60416l0.77516,0.95755c-0.28879,0.41037 -0.70296,0.74856 -1.24254,1.01454c-0.53958,0.25839 -1.10193,0.38757 -1.68711,0.38757zM62.74862,105.7826c-0.72956,0 -1.37933,-0.1558 -1.94929,-0.46738c-0.56238,-0.31158 -1.00695,-0.74096 -1.33372,-1.28812c-0.31919,-0.54717 -0.47878,-1.17413 -0.47878,-1.8809c0,-0.56238 0.09119,-1.07534 0.27358,-1.53892c0.1824,-0.46358 0.43317,-0.86255 0.75236,-1.19693c0.31919,-0.34198 0.70296,-0.60416 1.15133,-0.78656c0.45597,-0.18999 0.94615,-0.28499 1.47051,-0.28499c0.46358,0 0.89295,0.08739 1.28813,0.26218c0.40278,0.17479 0.74856,0.41798 1.03734,0.72956c0.29638,0.31158 0.52438,0.68016 0.68396,1.10575c0.15959,0.41798 0.23559,0.87395 0.22798,1.36792l-0.0114,0.60416h-5.83647l-0.31919,-1.11714h4.93592l-0.19379,0.22798v-0.31918c-0.03039,-0.30399 -0.13299,-0.57378 -0.30778,-0.80937c-0.16718,-0.23558 -0.38378,-0.42177 -0.64977,-0.55856c-0.26599,-0.13679 -0.55097,-0.2052 -0.85495,-0.2052c-0.49397,0 -0.90815,0.095 -1.24254,0.28498c-0.33438,0.1824 -0.58897,0.45597 -0.76376,0.82076c-0.16718,0.35718 -0.25078,0.79796 -0.25078,1.32233c0,0.49397 0.10259,0.92714 0.30778,1.29952c0.2052,0.36479 0.49777,0.64977 0.87775,0.85495c0.38757,0.19759 0.82835,0.29638 1.32232,0.29638c0.35718,0 0.68777,-0.057 0.99174,-0.17099c0.30399,-0.1216 0.63456,-0.33818 0.99174,-0.64977l0.70676,0.99174c-0.22039,0.22039 -0.48636,0.41418 -0.79796,0.58137c-0.31158,0.15959 -0.64217,0.28879 -0.99174,0.38757c-0.34957,0.09119 -0.69536,0.13679 -1.03734,0.13679zM69.77843,105.7826c-0.60037,0 -1.13993,-0.10259 -1.61871,-0.30778c-0.47878,-0.21278 -0.87775,-0.52438 -1.19693,-0.93475l0.94615,-0.80936c0.27358,0.31158 0.56996,0.53957 0.88915,0.68395c0.32677,0.13679 0.69535,0.20519 1.10574,0.20519c0.15959,0 0.30778,-0.01899 0.44457,-0.057c0.1444,-0.03799 0.26979,-0.09879 0.37619,-0.18239c0.1064,-0.0836 0.18619,-0.18239 0.23938,-0.29638c0.05319,-0.11399 0.07978,-0.23938 0.07978,-0.37619c0,-0.23558 -0.08739,-0.42558 -0.26218,-0.56996c-0.09119,-0.0608 -0.23559,-0.1292 -0.43318,-0.2052c-0.18999,-0.076 -0.44078,-0.15579 -0.75235,-0.23938c-0.52438,-0.13679 -0.95374,-0.28879 -1.28813,-0.45597c-0.33438,-0.17479 -0.59276,-0.37238 -0.77515,-0.59277c-0.13679,-0.17479 -0.23938,-0.36097 -0.30778,-0.55856c-0.0608,-0.2052 -0.09119,-0.43318 -0.09119,-0.68396c0,-0.29638 0.06459,-0.56996 0.19379,-0.82076c0.13679,-0.25078 0.31919,-0.46737 0.54717,-0.64977c0.23558,-0.18999 0.50916,-0.33438 0.82076,-0.43317c0.31158,-0.09879 0.64596,-0.14819 1.00314,-0.14819c0.33438,0 0.66496,0.0456 0.99173,0.13679c0.33438,0.09119 0.64217,0.22418 0.92335,0.39897c0.28118,0.16718 0.51677,0.36859 0.70676,0.60417l-0.79796,0.88914c-0.17479,-0.17479 -0.36478,-0.32677 -0.56996,-0.45597c-0.2052,-0.1292 -0.41419,-0.22797 -0.62697,-0.29638c-0.2052,-0.076 -0.39138,-0.11399 -0.55857,-0.11399c-0.18999,0 -0.36478,0.01899 -0.52437,0.057c-0.15198,0.03039 -0.28119,0.0836 -0.38757,0.15959c-0.09879,0.06841 -0.17858,0.15959 -0.23938,0.27358c-0.05319,0.1064 -0.07979,0.22798 -0.07979,0.36479c0.00761,0.11399 0.038,0.22419 0.09119,0.33059c0.05319,0.1064 0.12539,0.19379 0.2166,0.26218c0.09879,0.076 0.24698,0.1558 0.44457,0.23938c0.19759,0.076 0.45218,0.15198 0.76376,0.22798c0.44837,0.11399 0.82075,0.24319 1.11714,0.38757c0.29638,0.13679 0.53197,0.29638 0.70676,0.47878c0.1824,0.17479 0.30778,0.37618 0.37619,0.60416c0.076,0.22798 0.11399,0.48257 0.11399,0.76376c0,0.40278 -0.1178,0.76756 -0.35338,1.09435c-0.22798,0.31919 -0.53958,0.56996 -0.93475,0.75235c-0.38757,0.1824 -0.82077,0.27358 -1.29953,0.27358zM76.29802,105.7826c-0.60037,0 -1.13993,-0.10259 -1.61871,-0.30778c-0.47878,-0.21278 -0.87775,-0.52438 -1.19693,-0.93475l0.94615,-0.80936c0.27358,0.31158 0.56996,0.53957 0.88915,0.68395c0.32677,0.13679 0.69536,0.20519 1.10575,0.20519c0.15959,0 0.30778,-0.01899 0.44457,-0.057c0.1444,-0.03799 0.26979,-0.09879 0.37619,-0.18239c0.1064,-0.0836 0.18619,-0.18239 0.23938,-0.29638c0.05319,-0.11399 0.07979,-0.23938 0.07979,-0.37619c0,-0.23558 -0.08739,-0.42558 -0.26218,-0.56996c-0.09119,-0.0608 -0.23559,-0.1292 -0.43318,-0.2052c-0.18998,-0.076 -0.44077,-0.15579 -0.75235,-0.23938c-0.52438,-0.13679 -0.95374,-0.28879 -1.28812,-0.45597c-0.33438,-0.17479 -0.59276,-0.37238 -0.77516,-0.59277c-0.13679,-0.17479 -0.23938,-0.36097 -0.30778,-0.55856c-0.0608,-0.2052 -0.09119,-0.43318 -0.09119,-0.68396c0,-0.29638 0.06459,-0.56996 0.19379,-0.82076c0.13679,-0.25078 0.31919,-0.46737 0.54717,-0.64977c0.23558,-0.18999 0.50916,-0.33438 0.82076,-0.43317c0.31158,-0.09879 0.64596,-0.14819 1.00314,-0.14819c0.33438,0 0.66496,0.0456 0.99174,0.13679c0.33438,0.09119 0.64216,0.22418 0.92335,0.39897c0.28118,0.16718 0.51677,0.36859 0.70676,0.60417l-0.79796,0.88914c-0.17479,-0.17479 -0.36478,-0.32677 -0.56997,-0.45597c-0.2052,-0.1292 -0.41418,-0.22797 -0.62697,-0.29638c-0.2052,-0.076 -0.39138,-0.11399 -0.55857,-0.11399c-0.18998,0 -0.36478,0.01899 -0.52437,0.057c-0.15199,0.03039 -0.28119,0.0836 -0.38758,0.15959c-0.09879,0.06841 -0.17858,0.15959 -0.23938,0.27358c-0.05319,0.1064 -0.07979,0.22798 -0.07979,0.36479c0.00761,0.11399 0.038,0.22419 0.09119,0.33059c0.05319,0.1064 0.12539,0.19379 0.2166,0.26218c0.09879,0.076 0.24698,0.1558 0.44457,0.23938c0.19759,0.076 0.45218,0.15198 0.76376,0.22798c0.44837,0.11399 0.82076,0.24319 1.11714,0.38757c0.29638,0.13679 0.53197,0.29638 0.70676,0.47878c0.1824,0.17479 0.30778,0.37618 0.37619,0.60416c0.07599,0.22798 0.11399,0.48257 0.11399,0.76376c0,0.40278 -0.1178,0.76756 -0.35339,1.09435c-0.22798,0.31919 -0.53958,0.56996 -0.93475,0.75235c-0.38757,0.1824 -0.82076,0.27358 -1.29953,0.27358zM83.76376,105.7826c-0.72956,0 -1.37932,-0.1558 -1.94929,-0.46738c-0.56238,-0.31158 -1.00695,-0.74096 -1.33373,-1.28812c-0.31919,-0.54717 -0.47877,-1.17413 -0.47877,-1.8809c0,-0.56238 0.09118,-1.07534 0.27358,-1.53892c0.1824,-0.46358 0.43318,-0.86255 0.75236,-1.19693c0.31919,-0.34198 0.70296,-0.60416 1.15133,-0.78656c0.45598,-0.18999 0.94615,-0.28499 1.47052,-0.28499c0.46358,0 0.89294,0.08739 1.28812,0.26218c0.40278,0.17479 0.74856,0.41798 1.03734,0.72956c0.29638,0.31158 0.52438,0.68016 0.68396,1.10575c0.15959,0.41798 0.23559,0.87395 0.22798,1.36792l-0.0114,0.60416h-5.83647l-0.31918,-1.11714h4.93592l-0.1938,0.22798v-0.31918c-0.03039,-0.30399 -0.13299,-0.57378 -0.30778,-0.80937c-0.16719,-0.23558 -0.38378,-0.42177 -0.64977,-0.55856c-0.26599,-0.13679 -0.55097,-0.2052 -0.85495,-0.2052c-0.49397,0 -0.90815,0.095 -1.24253,0.28498c-0.33438,0.1824 -0.58897,0.45597 -0.76376,0.82076c-0.16719,0.35718 -0.25079,0.79796 -0.25079,1.32233c0,0.49397 0.10259,0.92714 0.30779,1.29952c0.2052,0.36479 0.49777,0.64977 0.87775,0.85495c0.38757,0.19759 0.82835,0.29638 1.32232,0.29638c0.35718,0 0.68777,-0.057 0.99174,-0.17099c0.30399,-0.1216 0.63456,-0.33818 0.99174,-0.64977l0.70675,0.99174c-0.22039,0.22039 -0.48636,0.41418 -0.79796,0.58137c-0.31158,0.15959 -0.64216,0.28879 -0.99174,0.38757c-0.34957,0.09119 -0.69536,0.13679 -1.03734,0.13679zM90.79357,105.7826c-0.60037,0 -1.13993,-0.10259 -1.6187,-0.30778c-0.47878,-0.21278 -0.87775,-0.52438 -1.19693,-0.93475l0.94615,-0.80936c0.27358,0.31158 0.56996,0.53957 0.88915,0.68395c0.32677,0.13679 0.69535,0.20519 1.10574,0.20519c0.15959,0 0.30779,-0.01899 0.44458,-0.057c0.14439,-0.03799 0.26978,-0.09879 0.37618,-0.18239c0.1064,-0.0836 0.18619,-0.18239 0.23938,-0.29638c0.05319,-0.11399 0.07979,-0.23938 0.07979,-0.37619c0,-0.23558 -0.08739,-0.42558 -0.26218,-0.56996c-0.09119,-0.0608 -0.23559,-0.1292 -0.43318,-0.2052c-0.18999,-0.076 -0.44078,-0.15579 -0.75236,-0.23938c-0.52438,-0.13679 -0.95374,-0.28879 -1.28812,-0.45597c-0.33438,-0.17479 -0.59276,-0.37238 -0.77516,-0.59277c-0.13679,-0.17479 -0.23937,-0.36097 -0.30778,-0.55856c-0.0608,-0.2052 -0.09119,-0.43318 -0.09119,-0.68396c0,-0.29638 0.06459,-0.56996 0.19379,-0.82076c0.13679,-0.25078 0.31919,-0.46737 0.54717,-0.64977c0.23558,-0.18999 0.50916,-0.33438 0.82076,-0.43317c0.31158,-0.09879 0.64596,-0.14819 1.00314,-0.14819c0.33438,0 0.66496,0.0456 0.99174,0.13679c0.33438,0.09119 0.64217,0.22418 0.92335,0.39897c0.28118,0.16718 0.51677,0.36859 0.70675,0.60417l-0.79796,0.88914c-0.17479,-0.17479 -0.36478,-0.32677 -0.56997,-0.45597c-0.2052,-0.1292 -0.41418,-0.22797 -0.62696,-0.29638c-0.2052,-0.076 -0.39138,-0.11399 -0.55856,-0.11399c-0.18999,0 -0.36479,0.01899 -0.52438,0.057c-0.15199,0.03039 -0.28118,0.0836 -0.38757,0.15959c-0.09879,0.06841 -0.17858,0.15959 -0.23938,0.27358c-0.05319,0.1064 -0.07979,0.22798 -0.07979,0.36479c0.00761,0.11399 0.038,0.22419 0.09119,0.33059c0.05319,0.1064 0.12539,0.19379 0.21659,0.26218c0.09879,0.076 0.24698,0.1558 0.44457,0.23938c0.19759,0.076 0.45218,0.15198 0.76376,0.22798c0.44837,0.11399 0.82076,0.24319 1.11714,0.38757c0.29638,0.13679 0.53197,0.29638 0.70675,0.47878c0.1824,0.17479 0.30778,0.37618 0.37619,0.60416c0.076,0.22798 0.11399,0.48257 0.11399,0.76376c0,0.40278 -0.1178,0.76756 -0.35339,1.09435c-0.22798,0.31919 -0.53958,0.56996 -0.93475,0.75235c-0.38757,0.1824 -0.82076,0.27358 -1.29952,0.27358zM95.50067,105.7826c-0.29638,0 -0.52817,-0.08739 -0.69536,-0.26218c-0.15959,-0.17479 -0.23938,-0.42558 -0.23938,-0.75236c0,-0.30399 0.0836,-0.55097 0.25078,-0.74096c0.17479,-0.18999 0.40278,-0.28498 0.68396,-0.28498c0.30399,0 0.53576,0.09118 0.69536,0.27358c0.16718,0.17479 0.25079,0.42558 0.25079,0.75236c0,0.29638 -0.0874,0.53957 -0.26219,0.72956c-0.17479,0.18999 -0.40278,0.28498 -0.68395,0.28498zM95.50067,100.40209c-0.29638,0 -0.52817,-0.08739 -0.69536,-0.26218c-0.15959,-0.17479 -0.23938,-0.42558 -0.23938,-0.75235c0,-0.30399 0.0836,-0.55097 0.25078,-0.74096c0.17479,-0.18999 0.40278,-0.28498 0.68396,-0.28498c0.30399,0 0.53576,0.09118 0.69536,0.27358c0.16718,0.17479 0.25079,0.42559 0.25079,0.75236c0,0.29638 -0.0874,0.53957 -0.26219,0.72956c-0.17479,0.18999 -0.40278,0.28498 -0.68395,0.28498z" fill="#000000" fill-rule="nonzero" stroke-width="1" stroke-linecap="square"/><path d="M33.83051,196.12376c-0.64918,0 -1.24728,-0.11671 -1.79434,-0.35011c-0.53976,-0.24071 -1.01389,-0.56894 -1.42235,-0.98471c-0.40117,-0.42307 -0.71483,-0.91905 -0.94094,-1.48798c-0.21883,-0.57622 -0.32824,-1.20352 -0.32824,-1.88187c0,-0.67835 0.1094,-1.302 0.32824,-1.87094c0.22611,-0.56894 0.53976,-1.06493 0.94094,-1.488c0.40846,-0.42307 0.88259,-0.75129 1.42235,-0.9847c0.54707,-0.24071 1.14517,-0.36107 1.79434,-0.36107c0.64189,0 1.23271,0.12035 1.77247,0.36107c0.54707,0.23341 1.02482,0.5653 1.4333,0.99565c0.40846,0.42307 0.72212,0.91905 0.94094,1.488c0.21883,0.56894 0.32824,1.18893 0.32824,1.85999c0,0.67106 -0.1094,1.29105 -0.32824,1.86c-0.21883,0.56894 -0.53247,1.06858 -0.94094,1.49893c-0.40846,0.42307 -0.88623,0.75494 -1.4333,0.99564c-0.53976,0.23341 -1.13058,0.35011 -1.77247,0.35011zM33.83051,194.75611c0.44493,0 0.84976,-0.08389 1.21447,-0.25165c0.372,-0.16776 0.69294,-0.40118 0.96283,-0.70023c0.26989,-0.29907 0.48141,-0.64917 0.63459,-1.05034c0.15318,-0.40846 0.22976,-0.8534 0.22976,-1.33482c0,-0.48141 -0.07658,-0.92271 -0.22976,-1.32387c-0.15318,-0.40846 -0.36471,-0.76224 -0.63459,-1.0613c-0.26989,-0.29907 -0.59082,-0.52882 -0.96283,-0.68928c-0.36471,-0.16776 -0.76954,-0.25164 -1.21447,-0.25164c-0.44493,0 -0.85339,0.08388 -1.22539,0.25164c-0.372,0.16046 -0.69658,0.39023 -0.97376,0.68928c-0.26989,0.29176 -0.47776,0.64189 -0.62364,1.05035c-0.14589,0.40117 -0.21883,0.84611 -0.21883,1.33482c0,0.48141 0.07294,0.92635 0.21883,1.33482c0.14589,0.40846 0.35376,0.76222 0.62364,1.06128c0.27717,0.29176 0.60176,0.52153 0.97376,0.68929c0.372,0.16776 0.78046,0.25165 1.22539,0.25165zM39.87778,198.86998v-9.73762h1.35669v1.56458l-0.20788,-0.10941c0.05106,-0.26259 0.19693,-0.51422 0.43765,-0.75493c0.248,-0.24071 0.54706,-0.43765 0.89717,-0.59083c0.35741,-0.15318 0.72212,-0.22976 1.09412,-0.22976c0.62,0 1.16705,0.15317 1.64117,0.45952c0.48141,0.30635 0.86071,0.72576 1.13789,1.25824c0.28446,0.53246 0.42672,1.14152 0.42672,1.82716c0,0.67835 -0.13859,1.28742 -0.41576,1.82718c-0.27717,0.53246 -0.65646,0.95554 -1.13789,1.26917c-0.47411,0.30635 -1.01024,0.45953 -1.60835,0.45953c-0.40117,0 -0.79142,-0.08024 -1.17072,-0.2407c-0.372,-0.16046 -0.68928,-0.36835 -0.95187,-0.62365c-0.26259,-0.25528 -0.42305,-0.51788 -0.48141,-0.78776l0.33917,-0.17507v4.58433zM43.26954,194.86552c0.40117,0 0.75859,-0.09847 1.07222,-0.29541c0.31364,-0.20424 0.56165,-0.47776 0.744,-0.82059c0.18235,-0.35011 0.27353,-0.74766 0.27353,-1.19259c0,-0.44493 -0.09117,-0.83881 -0.27353,-1.18163c-0.17506,-0.34283 -0.41942,-0.6127 -0.73307,-0.80965c-0.30635,-0.20424 -0.66741,-0.30635 -1.08317,-0.30635c-0.40846,0 -0.76954,0.09847 -1.08318,0.2954c-0.31364,0.19693 -0.56165,0.47047 -0.744,0.82058c-0.18235,0.34283 -0.27352,0.7367 -0.27352,1.18164c0,0.44493 0.09117,0.84248 0.27352,1.19259c0.18235,0.34283 0.43036,0.61636 0.744,0.82058c0.31364,0.19693 0.67472,0.29542 1.08318,0.29542zM51.3158,196.12376c-0.70022,0 -1.32387,-0.14952 -1.87094,-0.44859c-0.53976,-0.29907 -0.96648,-0.71117 -1.28012,-1.23634c-0.30635,-0.52517 -0.45953,-1.12695 -0.45953,-1.8053c0,-0.53976 0.08754,-1.03212 0.26259,-1.47705c0.17506,-0.44493 0.41576,-0.82789 0.72212,-1.14883c0.30635,-0.32824 0.67471,-0.57988 1.10504,-0.75493c0.43764,-0.18235 0.90813,-0.27353 1.41142,-0.27353c0.44493,0 0.85704,0.08389 1.23635,0.25165c0.38658,0.16776 0.71848,0.40117 0.99565,0.70022c0.28446,0.29907 0.50328,0.65283 0.65646,1.06128c0.15318,0.40117 0.22611,0.83883 0.21883,1.31294l-0.01093,0.57989h-5.60185l-0.30635,-1.07222h4.73752l-0.186,0.21881v-0.30634c-0.02918,-0.29176 -0.12765,-0.55071 -0.29541,-0.77683c-0.16046,-0.22611 -0.36835,-0.40483 -0.62364,-0.53611c-0.25528,-0.13128 -0.52883,-0.19694 -0.82059,-0.19694c-0.47411,0 -0.87165,0.09119 -1.19258,0.27354c-0.32093,0.17506 -0.56528,0.43764 -0.73306,0.78776c-0.16046,0.34283 -0.2407,0.76589 -0.2407,1.26917c0,0.47411 0.09846,0.88988 0.29541,1.24729c0.19693,0.35011 0.47776,0.62364 0.84247,0.82058c0.372,0.18965 0.79507,0.28448 1.26918,0.28448c0.34283,0 0.66011,-0.05469 0.95188,-0.16411c0.29176,-0.11671 0.60906,-0.32459 0.95188,-0.62365l0.67837,0.95189c-0.21154,0.21154 -0.46683,0.39754 -0.76589,0.558c-0.29907,0.15318 -0.61636,0.27717 -0.95188,0.372c-0.33552,0.08754 -0.6674,0.13129 -0.99564,0.13129zM55.77634,195.99246v-6.8601h1.34576v1.41142l-0.2407,0.15317c0.08754,-0.29907 0.25894,-0.57624 0.51424,-0.83152c0.25528,-0.26259 0.55435,-0.47411 0.89717,-0.63459c0.35011,-0.16046 0.70752,-0.24071 1.07222,-0.24071c0.52517,0 0.95917,0.1021 1.302,0.30634c0.35011,0.20424 0.6127,0.51789 0.78777,0.94094c0.17506,0.41576 0.26259,0.94093 0.26259,1.57554v4.17951h-1.34576v-4.09198c0,-0.38658 -0.05106,-0.70753 -0.15318,-0.96283c-0.10211,-0.26259 -0.26259,-0.45224 -0.48141,-0.56894c-0.21883,-0.11671 -0.4887,-0.16776 -0.80963,-0.15318c-0.26259,0 -0.50329,0.04376 -0.72211,0.13129c-0.21883,0.08024 -0.40847,0.19695 -0.56893,0.35012c-0.16046,0.14589 -0.28812,0.31729 -0.38294,0.51423c-0.08754,0.18965 -0.1313,0.39754 -0.1313,0.62365v4.15763h-0.66739c-0.10942,0 -0.22246,0 -0.33918,0c-0.11671,0 -0.22976,0 -0.33917,0zM69.49379,195.99246l-2.91035,-9.14679h1.49894l1.76152,5.72222c0.05106,0.13859 0.09848,0.30269 0.14223,0.49235c0.04376,0.18965 0.08389,0.37929 0.12035,0.56894c0.03646,0.18965 0.06929,0.36835 0.09847,0.53611c0.02918,0.16776 0.05836,0.30272 0.08754,0.40483l-0.38294,-0.01094c0.13128,-0.46683 0.23342,-0.82423 0.30635,-1.07223c0.07294,-0.25528 0.13128,-0.44858 0.17506,-0.57988c0.04376,-0.13859 0.08389,-0.25531 0.12036,-0.35013l1.64118,-4.1248h1.26917l1.59741,4.1248c0.08754,0.21154 0.16411,0.41942 0.22976,0.62365c0.06565,0.20424 0.124,0.40848 0.17506,0.6127c0.05106,0.20424 0.10941,0.41941 0.17506,0.64554l-0.35013,0.08752c0.04376,-0.23341 0.07659,-0.41576 0.09848,-0.54707c0.02189,-0.13859 0.04011,-0.25163 0.05469,-0.33917c0.02189,-0.08754 0.04012,-0.17141 0.05472,-0.25165c0.02189,-0.08754 0.05106,-0.19329 0.08754,-0.31728c0.04376,-0.13128 0.09846,-0.31 0.16411,-0.53611l1.73964,-5.6894h1.52082l-2.92128,9.14681h-0.97376l-2.418,-5.72222l0.12036,0.05471l-2.33047,5.66751zM80.43739,195.99246v-6.8601h1.34576v6.8601zM81.09386,187.62249c-0.28446,0 -0.50694,-0.07294 -0.6674,-0.21883c-0.15318,-0.15318 -0.22976,-0.3647 -0.22976,-0.63459c0,-0.25528 0.08024,-0.45953 0.24071,-0.6127c0.16046,-0.16046 0.37929,-0.24071 0.65646,-0.24071c0.28446,0 0.5033,0.07658 0.65648,0.22976c0.16046,0.14589 0.24071,0.35376 0.24071,0.62365c0,0.25528 -0.08024,0.46319 -0.24071,0.62365c-0.16046,0.15318 -0.3793,0.22976 -0.65648,0.22976zM83.85028,195.99246v-6.8601h1.34576v1.41142l-0.24071,0.15317c0.08754,-0.29907 0.25894,-0.57624 0.51423,-0.83152c0.25528,-0.26259 0.55435,-0.47411 0.89717,-0.63459c0.35011,-0.16046 0.70754,-0.24071 1.07224,-0.24071c0.52517,0 0.95916,0.1021 1.30199,0.30634c0.35011,0.20424 0.61271,0.51789 0.78776,0.94094c0.17507,0.41576 0.26259,0.94093 0.26259,1.57554v4.17951h-1.34576v-4.09198c0,-0.38658 -0.05106,-0.70753 -0.15318,-0.96283c-0.10211,-0.26259 -0.26259,-0.45224 -0.48141,-0.56894c-0.21883,-0.11671 -0.4887,-0.16776 -0.80964,-0.15318c-0.26259,0 -0.50329,0.04376 -0.72211,0.13129c-0.21883,0.08024 -0.40848,0.19695 -0.56894,0.35012c-0.16046,0.14589 -0.28812,0.31729 -0.38294,0.51423c-0.08754,0.18965 -0.13128,0.39754 -0.13128,0.62365v4.15763h-0.66741c-0.10942,0 -0.22246,0 -0.33918,0c-0.11671,0 -0.22976,0 -0.33918,0zM94.47883,196.12376c-0.62729,0 -1.18529,-0.15317 -1.674,-0.45952c-0.48872,-0.31364 -0.87893,-0.73672 -1.17069,-1.26917c-0.28446,-0.53976 -0.4267,-1.15246 -0.4267,-1.83811c0,-0.68565 0.13859,-1.2947 0.41576,-1.82716c0.28446,-0.53976 0.67106,-0.96282 1.15976,-1.26917c0.48872,-0.31364 1.04305,-0.47046 1.66305,-0.47046c0.33552,0 0.66376,0.05472 0.9847,0.16412c0.32093,0.10942 0.60541,0.25893 0.85341,0.44858c0.25529,0.18235 0.45222,0.38658 0.59082,0.6127c0.14589,0.21883 0.21882,0.4413 0.21882,0.66741l-0.39389,0.03283v-4.59528h1.34577v9.67197h-1.34577v-1.63022h0.26259c0,0.20424 -0.06929,0.41211 -0.20788,0.62364c-0.13859,0.20424 -0.32459,0.39389 -0.558,0.56894c-0.22611,0.16776 -0.49235,0.30636 -0.7987,0.41576c-0.29907,0.10211 -0.60541,0.15317 -0.91906,0.15317zM94.66483,194.964c0.40846,0 0.76954,-0.10576 1.08317,-0.31731c0.31364,-0.21154 0.558,-0.496 0.73306,-0.85341c0.18235,-0.36471 0.27354,-0.77683 0.27354,-1.23635c0,-0.45954 -0.09119,-0.86799 -0.27354,-1.22539c-0.17507,-0.36471 -0.41941,-0.65281 -0.73306,-0.86435c-0.31363,-0.21154 -0.67471,-0.31728 -1.08317,-0.31728c-0.40846,0 -0.76952,0.10576 -1.08317,0.31728c-0.31364,0.21154 -0.56165,0.49964 -0.744,0.86435c-0.17506,0.35741 -0.26259,0.76587 -0.26259,1.22539c0,0.45954 0.08754,0.87165 0.26259,1.23635c0.18235,0.35741 0.43036,0.64187 0.744,0.85341c0.31363,0.21154 0.6747,0.31731 1.08317,0.31731zM102.99099,196.12376c-0.67106,0 -1.27283,-0.15317 -1.80529,-0.45952c-0.52517,-0.31364 -0.94093,-0.73672 -1.24728,-1.26917c-0.29907,-0.53976 -0.44859,-1.15246 -0.44859,-1.83811c0,-0.68565 0.14954,-1.2947 0.44859,-1.82716c0.30635,-0.53976 0.72211,-0.96282 1.24728,-1.26917c0.53246,-0.31364 1.13422,-0.47046 1.80529,-0.47046c0.65646,0 1.2473,0.15683 1.77247,0.47046c0.53246,0.30635 0.95188,0.72941 1.25822,1.26917c0.30635,0.53246 0.45954,1.14153 0.45954,1.82716c0,0.68565 -0.15319,1.29835 -0.45954,1.83811c-0.30635,0.53246 -0.72576,0.95554 -1.25822,1.26917c-0.52517,0.30635 -1.116,0.45952 -1.77247,0.45952zM102.99099,194.89835c0.40846,0 0.77317,-0.10211 1.09412,-0.30635c0.32094,-0.20424 0.57259,-0.48141 0.75493,-0.83152c0.18235,-0.35741 0.26988,-0.75859 0.26259,-1.20354c0.00728,-0.45224 -0.08024,-0.8534 -0.26259,-1.20352c-0.18235,-0.35741 -0.434,-0.63458 -0.75493,-0.83152c-0.32093,-0.20424 -0.68565,-0.30636 -1.09412,-0.30636c-0.40846,0 -0.77683,0.10213 -1.10505,0.30636c-0.32824,0.20424 -0.58353,0.48505 -0.76589,0.84246c-0.18235,0.35011 -0.26988,0.74764 -0.26259,1.19257c-0.00729,0.44493 0.08024,0.84611 0.26259,1.20354c0.18235,0.35011 0.43765,0.6273 0.76589,0.83152c0.32824,0.20424 0.69659,0.30635 1.10505,0.30635zM109.36329,195.99246l-2.34141,-6.8601l1.3567,-0.01094l1.674,5.1314l-0.29542,-0.02188l1.81623,-4.01541h0.80965l1.82717,4.02633l-0.35011,0.02189l1.68493,-5.13139h1.3567l-2.30858,6.8601h-0.93l-1.9147,-4.36551l0.30637,0.04377l-1.77248,4.32176zM120.35069,196.12376c-0.57622,0 -1.09411,-0.09847 -1.55365,-0.29541c-0.45954,-0.20424 -0.84246,-0.50328 -1.14881,-0.89717l0.90811,-0.77683c0.26259,0.29907 0.54706,0.51789 0.85341,0.65648c0.31364,0.13128 0.6674,0.19693 1.06129,0.19693c0.15317,0 0.29541,-0.01824 0.42671,-0.0547c0.13859,-0.03646 0.25894,-0.09482 0.36106,-0.17506c0.10211,-0.08024 0.17871,-0.17506 0.22976,-0.28448c0.05106,-0.10942 0.07659,-0.22976 0.07659,-0.36106c0,-0.22611 -0.08389,-0.40847 -0.25165,-0.54707c-0.08754,-0.05837 -0.22611,-0.124 -0.41577,-0.19693c-0.18235,-0.07294 -0.42306,-0.14953 -0.72211,-0.22976c-0.50329,-0.13128 -0.9154,-0.27717 -1.23635,-0.43764c-0.32093,-0.16776 -0.56894,-0.3574 -0.74399,-0.56894c-0.13128,-0.16776 -0.22976,-0.34646 -0.29541,-0.53611c-0.05837,-0.19693 -0.08754,-0.41576 -0.08754,-0.65648c0,-0.28446 0.062,-0.54706 0.186,-0.78776c0.13128,-0.24071 0.30635,-0.44859 0.52517,-0.62364c0.22611,-0.18235 0.48872,-0.32094 0.78777,-0.41576c0.29906,-0.09482 0.61999,-0.14223 0.96282,-0.14223c0.32094,0 0.63824,0.04376 0.95189,0.13128c0.32094,0.08754 0.61635,0.21518 0.88623,0.38294c0.26989,0.16046 0.49599,0.35377 0.67834,0.57989l-0.76588,0.85341c-0.16776,-0.16776 -0.35012,-0.31365 -0.54707,-0.43765c-0.19693,-0.124 -0.39753,-0.21881 -0.60176,-0.28446c-0.19693,-0.07294 -0.37565,-0.10942 -0.53611,-0.10942c-0.18235,0 -0.35013,0.01824 -0.50331,0.0547c-0.14589,0.02918 -0.26988,0.08026 -0.37198,0.15319c-0.09483,0.06565 -0.17141,0.15317 -0.22976,0.26258c-0.05106,0.10211 -0.07659,0.21883 -0.07659,0.35012c0.00729,0.10942 0.03647,0.21517 0.08754,0.3173c0.05106,0.10211 0.12035,0.186 0.20789,0.25165c0.09482,0.07294 0.23705,0.14952 0.4267,0.22976c0.18965,0.07294 0.43399,0.14589 0.73306,0.21883c0.43035,0.10942 0.78776,0.2334 1.07224,0.372c0.28446,0.13128 0.51059,0.28448 0.67835,0.45953c0.17506,0.16776 0.29541,0.36106 0.36106,0.57989c0.07293,0.21883 0.1094,0.46317 0.1094,0.73306c0,0.38658 -0.11307,0.73671 -0.33918,1.05035c-0.21882,0.30635 -0.51789,0.54706 -0.89718,0.72211c-0.372,0.17506 -0.78774,0.26259 -1.24728,0.26259zM124.86856,196.12376c-0.28446,0 -0.50695,-0.08389 -0.66741,-0.25165c-0.15317,-0.16776 -0.22976,-0.40848 -0.22976,-0.72211c0,-0.29176 0.08024,-0.52882 0.24071,-0.71117c0.16776,-0.18235 0.38659,-0.27354 0.65648,-0.27354c0.29176,0 0.51424,0.08752 0.66741,0.26259c0.16046,0.16776 0.24072,0.40848 0.24072,0.72213c0,0.28446 -0.08389,0.51789 -0.25165,0.70022c-0.16776,0.18235 -0.38658,0.27353 -0.65646,0.27353zM124.86856,190.95954c-0.28446,0 -0.50695,-0.08388 -0.66741,-0.25163c-0.15317,-0.16776 -0.22976,-0.40848 -0.22976,-0.72213c0,-0.29176 0.08024,-0.52882 0.24071,-0.71117c0.16776,-0.18235 0.38659,-0.27352 0.65648,-0.27352c0.29176,0 0.51424,0.08752 0.66741,0.26258c0.16046,0.16776 0.24072,0.40848 0.24072,0.72212c0,0.28446 -0.08389,0.51789 -0.25165,0.70022c-0.16776,0.18235 -0.38658,0.27354 -0.65646,0.27354z" fill="#000000" fill-rule="nonzero" stroke-width="1" stroke-linecap="square"/></g></g></svg>