<svg version="1.1" xmlns="http://www.w3.org/2000/svg" xmlns:xlink="http://www.w3.org/1999/xlink" width="558.41002" height="342.42093" viewBox="0,0,558.41002,342.42093"><g transform="translate(178.15223,65.71391)"><g data-paper-data="{&quot;isPaintingLayer&quot;:true}" stroke="none" stroke-width="1" stroke-linejoin="miter" stroke-miterlimit="10" stroke-dasharray="" stroke-dashoffset="0" style="mix-blend-mode: normal"><path d="M99.74221,95.24792c0,-6.60253 5.35241,-11.95493 11.95493,-11.95493h256.60572c3.17065,0 6.21144,1.25953 8.45341,3.50151c2.24199,2.24198 3.50152,5.28276 3.50152,8.45341v169.50418c0,6.60253 -5.3524,11.95493 -11.95493,11.95493h-256.60572c-6.60252,0 -11.95493,-5.3524 -11.95493,-11.95493z" fill="#323232" fill-rule="evenodd" stroke-linecap="square"/><path d="M-152.38058,-65.71391h218.11023v42.01575h-218.11023z" fill-opacity="0" fill="#000000" fill-rule="evenodd" stroke-linecap="square"/><path d="M112.44755,104.24627v-10.26339h4.37054c0.5811,0 1.11719,0.14732 1.60826,0.44196c0.49925,0.28646 0.89621,0.67522 1.19085,1.16629c0.29464,0.49107 0.44196,1.04353 0.44196,1.65737c0,0.56473 -0.14732,1.08854 -0.44196,1.57143c-0.29464,0.4747 -0.6875,0.85528 -1.17857,1.14174c-0.48289,0.28646 -1.02307,0.42969 -1.62054,0.42969h-2.78683v3.85491zM118.54911,104.24627l-2.61496,-4.62835l1.63281,-0.3683l2.89732,5.00893zM114.03126,98.86904h2.93415c0.27827,0 0.5279,-0.06957 0.74888,-0.20871c0.22917,-0.14732 0.40513,-0.34375 0.5279,-0.58929c0.13095,-0.25372 0.19643,-0.532 0.19643,-0.83482c0,-0.34375 -0.08184,-0.64249 -0.24554,-0.89621c-0.1555,-0.26191 -0.37649,-0.46652 -0.66295,-0.61384c-0.28646,-0.14732 -0.61384,-0.22098 -0.98214,-0.22098h-2.51674zM125.5461,104.39359c-0.78571,0 -1.48549,-0.16778 -2.09933,-0.50335c-0.60566,-0.33557 -1.08445,-0.79799 -1.43638,-1.38728c-0.34375,-0.58929 -0.51563,-1.26451 -0.51563,-2.02567c0,-0.60566 0.09821,-1.15811 0.29464,-1.65737c0.19643,-0.49925 0.46652,-0.92894 0.81027,-1.28906c0.34375,-0.3683 0.75707,-0.65067 1.23996,-0.8471c0.49107,-0.20461 1.01897,-0.30692 1.58371,-0.30692c0.49925,0 0.96168,0.09412 1.38728,0.28237c0.43378,0.18825 0.80617,0.45015 1.11719,0.78571c0.3192,0.33557 0.56473,0.73251 0.73661,1.19085c0.17187,0.45015 0.25372,0.94122 0.24554,1.47321l-0.01228,0.65067h-6.28571l-0.34375,-1.20312h5.31585l-0.20871,0.24554v-0.34375c-0.03274,-0.32738 -0.14323,-0.61793 -0.33147,-0.87165c-0.18006,-0.25372 -0.41332,-0.45424 -0.69978,-0.60156c-0.28646,-0.14732 -0.59338,-0.22098 -0.92076,-0.22098c-0.532,0 -0.97805,0.10231 -1.33817,0.30692c-0.36012,0.19643 -0.6343,0.49107 -0.82254,0.88393c-0.18006,0.38467 -0.27009,0.85937 -0.27009,1.42411c0,0.532 0.11049,0.99851 0.33147,1.39955c0.22098,0.39286 0.53608,0.69978 0.94531,0.92076c0.41741,0.2128 0.89211,0.3192 1.42411,0.3192c0.38467,0 0.7407,-0.06138 1.06808,-0.18415c0.32738,-0.13095 0.68341,-0.36421 1.06808,-0.69978l0.76116,1.06808c-0.23735,0.23735 -0.52381,0.44606 -0.85937,0.62612c-0.33557,0.17188 -0.69159,0.31101 -1.06808,0.41741c-0.37649,0.09821 -0.74888,0.14732 -1.11719,0.14732zM133.11701,104.39359c-0.64658,0 -1.22768,-0.11049 -1.7433,-0.33147c-0.51562,-0.22917 -0.94531,-0.56473 -1.28906,-1.0067l1.01897,-0.87165c0.29464,0.33557 0.61384,0.5811 0.95759,0.73661c0.35193,0.14732 0.74888,0.22098 1.19085,0.22098c0.17188,0 0.33147,-0.02046 0.47879,-0.06138c0.1555,-0.04092 0.29055,-0.1064 0.40513,-0.19643c0.11458,-0.09003 0.20052,-0.19643 0.25781,-0.3192c0.05729,-0.12277 0.08594,-0.25781 0.08594,-0.40513c0,-0.25372 -0.09412,-0.45833 -0.28237,-0.61384c-0.09821,-0.06548 -0.25372,-0.13914 -0.46652,-0.22098c-0.20461,-0.08184 -0.4747,-0.16778 -0.81027,-0.25781c-0.56473,-0.14732 -1.02716,-0.31101 -1.38728,-0.49107c-0.36012,-0.18825 -0.63839,-0.40104 -0.83482,-0.63839c-0.14732,-0.18825 -0.25781,-0.38876 -0.33147,-0.60156c-0.06548,-0.22098 -0.09821,-0.46652 -0.09821,-0.73661c0,-0.3192 0.06957,-0.61384 0.20871,-0.88393c0.14732,-0.27009 0.34375,-0.50335 0.58929,-0.69978c0.25372,-0.20461 0.54836,-0.36012 0.88393,-0.46652c0.33557,-0.1064 0.69568,-0.1596 1.08036,-0.1596c0.36012,0 0.71615,0.04911 1.06808,0.14732c0.36012,0.09821 0.69159,0.24144 0.99442,0.42969c0.30283,0.18006 0.55654,0.39695 0.76115,0.65067l-0.85937,0.95759c-0.18825,-0.18825 -0.39286,-0.35193 -0.61384,-0.49107c-0.22098,-0.13914 -0.44606,-0.24554 -0.67522,-0.3192c-0.22098,-0.08184 -0.4215,-0.12277 -0.60156,-0.12277c-0.20461,0 -0.39286,0.02046 -0.56473,0.06138c-0.16369,0.03274 -0.30283,0.09003 -0.41741,0.17187c-0.1064,0.07366 -0.19233,0.17188 -0.25781,0.29464c-0.05729,0.11458 -0.08594,0.24554 -0.08594,0.39286c0.00818,0.12277 0.04092,0.24144 0.09821,0.35603c0.05729,0.11458 0.13504,0.20871 0.23326,0.28237c0.1064,0.08184 0.266,0.16778 0.47879,0.25781c0.2128,0.08184 0.48698,0.16369 0.82254,0.24554c0.48289,0.12277 0.88393,0.26191 1.20313,0.41741c0.3192,0.14732 0.57292,0.3192 0.76116,0.51562c0.19642,0.18825 0.33147,0.40513 0.40513,0.65067c0.08184,0.24554 0.12277,0.51972 0.12277,0.82254c0,0.43378 -0.12686,0.82664 -0.38057,1.17857c-0.24554,0.34375 -0.5811,0.61384 -1.0067,0.81027c-0.41741,0.19643 -0.88393,0.29464 -1.39955,0.29464zM141.15738,104.39359c-0.78571,0 -1.48549,-0.16778 -2.09933,-0.50335c-0.60566,-0.33557 -1.08445,-0.79799 -1.43638,-1.38728c-0.34375,-0.58929 -0.51562,-1.26451 -0.51562,-2.02567c0,-0.60566 0.09821,-1.15811 0.29464,-1.65737c0.19643,-0.49925 0.46652,-0.92894 0.81027,-1.28906c0.34375,-0.3683 0.75707,-0.65067 1.23996,-0.8471c0.49107,-0.20461 1.01897,-0.30692 1.58371,-0.30692c0.49925,0 0.96168,0.09412 1.38728,0.28237c0.43378,0.18825 0.80617,0.45015 1.11719,0.78571c0.3192,0.33557 0.56473,0.73251 0.73661,1.19085c0.17187,0.45015 0.25372,0.94122 0.24554,1.47321l-0.01228,0.65067h-6.28571l-0.34375,-1.20312h5.31585l-0.20871,0.24554v-0.34375c-0.03274,-0.32738 -0.14323,-0.61793 -0.33147,-0.87165c-0.18006,-0.25372 -0.41332,-0.45424 -0.69978,-0.60156c-0.28646,-0.14732 -0.59338,-0.22098 -0.92076,-0.22098c-0.532,0 -0.97805,0.10231 -1.33817,0.30692c-0.36012,0.19643 -0.6343,0.49107 -0.82254,0.88393c-0.18006,0.38467 -0.27009,0.85937 -0.27009,1.42411c0,0.532 0.11049,0.99851 0.33147,1.39955c0.22098,0.39286 0.53609,0.69978 0.94531,0.92076c0.41741,0.2128 0.89211,0.3192 1.42411,0.3192c0.38467,0 0.7407,-0.06138 1.06808,-0.18415c0.32738,-0.13095 0.68341,-0.36421 1.06808,-0.69978l0.76116,1.06808c-0.23735,0.23735 -0.52381,0.44606 -0.85937,0.62612c-0.33557,0.17188 -0.69159,0.31101 -1.06808,0.41741c-0.37649,0.09821 -0.74888,0.14732 -1.11719,0.14732zM147.12003,104.24627v-9.66183h1.51004v9.66183zM145.51177,98.02194v-1.47321h4.89844v1.47321zM156.27626,104.24627v-10.26339h4.17411c0.55655,0 1.0599,0.13914 1.51004,0.41741c0.45833,0.27827 0.82254,0.65885 1.09263,1.14174c0.27827,0.4747 0.41741,1.0067 0.41741,1.59598c0,0.58929 -0.13914,1.12537 -0.41741,1.60826c-0.27009,0.4747 -0.6343,0.85528 -1.09263,1.14174c-0.45015,0.28646 -0.9535,0.42969 -1.51004,0.42969h-2.5904v3.92857zM157.85996,98.79538h2.56585c0.26191,0 0.49925,-0.07366 0.71205,-0.22098c0.22098,-0.1555 0.39695,-0.35603 0.5279,-0.60156c0.13095,-0.25372 0.19643,-0.532 0.19643,-0.83482c0,-0.30283 -0.06548,-0.57701 -0.19643,-0.82254c-0.13095,-0.24554 -0.30692,-0.44196 -0.5279,-0.58929c-0.2128,-0.14732 -0.45015,-0.22098 -0.71205,-0.22098h-2.56585zM168.0012,104.39359c-0.63021,0 -1.20722,-0.17597 -1.73103,-0.5279c-0.52381,-0.35193 -0.94531,-0.83073 -1.26451,-1.43638c-0.31101,-0.60566 -0.46652,-1.28906 -0.46652,-2.05022c0,-0.77753 0.1596,-1.46503 0.47879,-2.0625c0.3192,-0.59747 0.74888,-1.06808 1.28906,-1.41183c0.54836,-0.34375 1.15811,-0.51563 1.82924,-0.51563c0.40104,0 0.76525,0.06138 1.09263,0.18415c0.33557,0.11458 0.62612,0.27827 0.87165,0.49107c0.25372,0.20461 0.45833,0.44606 0.61384,0.72433c0.16369,0.27009 0.266,0.56064 0.30692,0.87165l-0.33147,-0.11049v-2.00112h1.52232v7.69754h-1.52232v-1.82924l0.34375,-0.11049c-0.05729,0.27009 -0.17597,0.532 -0.35603,0.78571c-0.18006,0.24554 -0.40923,0.46652 -0.6875,0.66295c-0.27827,0.18825 -0.58519,0.34375 -0.92076,0.46652c-0.33557,0.11458 -0.69159,0.17187 -1.06808,0.17187zM168.39405,103.00631c0.46652,0 0.87165,-0.11049 1.2154,-0.33147c0.35193,-0.22917 0.62612,-0.54018 0.82254,-0.93304c0.20461,-0.40104 0.30692,-0.85528 0.30692,-1.36272c0,-0.49925 -0.10231,-0.94531 -0.30692,-1.33817c-0.19643,-0.39286 -0.47061,-0.69978 -0.82254,-0.92076c-0.34375,-0.22917 -0.74888,-0.34375 -1.2154,-0.34375c-0.45015,0 -0.8471,0.11458 -1.19085,0.34375c-0.34375,0.22098 -0.61793,0.5279 -0.82254,0.92076c-0.19643,0.39286 -0.29464,0.83892 -0.29464,1.33817c0,0.50744 0.09821,0.96168 0.29464,1.36272c0.20461,0.39286 0.47879,0.70387 0.82254,0.93304c0.34375,0.22098 0.7407,0.33147 1.19085,0.33147zM176.88716,104.39359c-0.64658,0 -1.22768,-0.11049 -1.7433,-0.33147c-0.51562,-0.22917 -0.94531,-0.56473 -1.28906,-1.0067l1.01897,-0.87165c0.29464,0.33557 0.61384,0.5811 0.95759,0.73661c0.35193,0.14732 0.74888,0.22098 1.19085,0.22098c0.17187,0 0.33147,-0.02046 0.47879,-0.06138c0.1555,-0.04092 0.29055,-0.1064 0.40513,-0.19643c0.11458,-0.09003 0.20052,-0.19643 0.25781,-0.3192c0.05729,-0.12277 0.08594,-0.25781 0.08594,-0.40513c0,-0.25372 -0.09412,-0.45833 -0.28237,-0.61384c-0.09821,-0.06548 -0.25372,-0.13914 -0.46652,-0.22098c-0.20461,-0.08184 -0.4747,-0.16778 -0.81027,-0.25781c-0.56473,-0.14732 -1.02716,-0.31101 -1.38728,-0.49107c-0.36012,-0.18825 -0.63839,-0.40104 -0.83482,-0.63839c-0.14732,-0.18825 -0.25781,-0.38876 -0.33147,-0.60156c-0.06548,-0.22098 -0.09821,-0.46652 -0.09821,-0.73661c0,-0.3192 0.06957,-0.61384 0.20871,-0.88393c0.14732,-0.27009 0.34375,-0.50335 0.58929,-0.69978c0.25372,-0.20461 0.54836,-0.36012 0.88393,-0.46652c0.33557,-0.1064 0.69568,-0.1596 1.08036,-0.1596c0.36012,0 0.71615,0.04911 1.06808,0.14732c0.36012,0.09821 0.69159,0.24144 0.99442,0.42969c0.30283,0.18006 0.55655,0.39695 0.76116,0.65067l-0.85938,0.95759c-0.18825,-0.18825 -0.39286,-0.35193 -0.61384,-0.49107c-0.22098,-0.13914 -0.44606,-0.24554 -0.67522,-0.3192c-0.22098,-0.08184 -0.4215,-0.12277 -0.60156,-0.12277c-0.20461,0 -0.39286,0.02046 -0.56473,0.06138c-0.16369,0.03274 -0.30283,0.09003 -0.41741,0.17187c-0.1064,0.07366 -0.19234,0.17188 -0.25781,0.29464c-0.05729,0.11458 -0.08594,0.24554 -0.08594,0.39286c0.00818,0.12277 0.04092,0.24144 0.09821,0.35603c0.05729,0.11458 0.13504,0.20871 0.23326,0.28237c0.1064,0.08184 0.266,0.16778 0.47879,0.25781c0.2128,0.08184 0.48698,0.16369 0.82254,0.24554c0.48289,0.12277 0.88393,0.26191 1.20312,0.41741c0.3192,0.14732 0.57292,0.3192 0.76116,0.51562c0.19643,0.18825 0.33147,0.40513 0.40513,0.65067c0.08184,0.24554 0.12277,0.51972 0.12277,0.82254c0,0.43378 -0.12686,0.82664 -0.38058,1.17857c-0.24554,0.34375 -0.5811,0.61384 -1.0067,0.81027c-0.41741,0.19643 -0.88393,0.29464 -1.39955,0.29464zM183.90857,104.39359c-0.64658,0 -1.22768,-0.11049 -1.7433,-0.33147c-0.51563,-0.22917 -0.94531,-0.56473 -1.28906,-1.0067l1.01897,-0.87165c0.29464,0.33557 0.61384,0.5811 0.95759,0.73661c0.35193,0.14732 0.74888,0.22098 1.19085,0.22098c0.17188,0 0.33147,-0.02046 0.47879,-0.06138c0.1555,-0.04092 0.29055,-0.1064 0.40513,-0.19643c0.11458,-0.09003 0.20052,-0.19643 0.25781,-0.3192c0.05729,-0.12277 0.08594,-0.25781 0.08594,-0.40513c0,-0.25372 -0.09412,-0.45833 -0.28237,-0.61384c-0.09821,-0.06548 -0.25372,-0.13914 -0.46652,-0.22098c-0.20461,-0.08184 -0.4747,-0.16778 -0.81027,-0.25781c-0.56473,-0.14732 -1.02716,-0.31101 -1.38728,-0.49107c-0.36012,-0.18825 -0.63839,-0.40104 -0.83482,-0.63839c-0.14732,-0.18825 -0.25781,-0.38876 -0.33147,-0.60156c-0.06548,-0.22098 -0.09821,-0.46652 -0.09821,-0.73661c0,-0.3192 0.06957,-0.61384 0.20871,-0.88393c0.14732,-0.27009 0.34375,-0.50335 0.58929,-0.69978c0.25372,-0.20461 0.54836,-0.36012 0.88393,-0.46652c0.33557,-0.1064 0.69568,-0.1596 1.08036,-0.1596c0.36012,0 0.71615,0.04911 1.06808,0.14732c0.36012,0.09821 0.69159,0.24144 0.99442,0.42969c0.30283,0.18006 0.55655,0.39695 0.76116,0.65067l-0.85937,0.95759c-0.18825,-0.18825 -0.39286,-0.35193 -0.61384,-0.49107c-0.22098,-0.13914 -0.44606,-0.24554 -0.67522,-0.3192c-0.22098,-0.08184 -0.4215,-0.12277 -0.60156,-0.12277c-0.20461,0 -0.39286,0.02046 -0.56473,0.06138c-0.16369,0.03274 -0.30283,0.09003 -0.41741,0.17187c-0.1064,0.07366 -0.19233,0.17188 -0.25781,0.29464c-0.05729,0.11458 -0.08594,0.24554 -0.08594,0.39286c0.00818,0.12277 0.04092,0.24144 0.09821,0.35603c0.05729,0.11458 0.13504,0.20871 0.23326,0.28237c0.1064,0.08184 0.266,0.16778 0.47879,0.25781c0.2128,0.08184 0.48698,0.16369 0.82254,0.24554c0.48289,0.12277 0.88393,0.26191 1.20313,0.41741c0.3192,0.14732 0.57292,0.3192 0.76116,0.51562c0.19643,0.18825 0.33147,0.40513 0.40513,0.65067c0.08184,0.24554 0.12277,0.51972 0.12277,0.82254c0,0.43378 -0.12686,0.82664 -0.38058,1.17857c-0.24554,0.34375 -0.5811,0.61384 -1.0067,0.81027c-0.41741,0.19643 -0.88393,0.29464 -1.39955,0.29464zM190.25475,104.24627l-2.62723,-7.69754l1.52232,-0.01228l1.87835,5.75781l-0.33147,-0.02455l2.03795,-4.50558h0.90848l2.05022,4.51786l-0.39286,0.02455l1.89063,-5.75781h1.52232l-2.5904,7.69754h-1.04353l-2.14844,-4.89844l0.34375,0.04911l-1.98884,4.84933zM203.33297,104.39359c-0.75298,0 -1.4282,-0.17187 -2.02567,-0.51562c-0.58929,-0.35193 -1.0558,-0.82664 -1.39955,-1.42411c-0.33557,-0.60566 -0.50335,-1.29316 -0.50335,-2.0625c0,-0.76934 0.16778,-1.45275 0.50335,-2.05022c0.34375,-0.60566 0.81027,-1.08036 1.39955,-1.42411c0.59747,-0.35193 1.27269,-0.5279 2.02567,-0.5279c0.73661,0 1.39955,0.17597 1.98884,0.5279c0.59747,0.34375 1.06808,0.81845 1.41183,1.42411c0.34375,0.59747 0.51562,1.28088 0.51562,2.05022c0,0.76934 -0.17187,1.45684 -0.51562,2.0625c-0.34375,0.59747 -0.81436,1.07217 -1.41183,1.42411c-0.58929,0.34375 -1.25223,0.51563 -1.98884,0.51563zM203.33297,103.01859c0.45833,0 0.86756,-0.11458 1.22768,-0.34375c0.36012,-0.22917 0.64249,-0.54018 0.8471,-0.93304c0.20461,-0.40104 0.30283,-0.85119 0.29464,-1.35045c0.00818,-0.50744 -0.09003,-0.95759 -0.29464,-1.35045c-0.20461,-0.40104 -0.48698,-0.71205 -0.8471,-0.93304c-0.36012,-0.22917 -0.76934,-0.34375 -1.22768,-0.34375c-0.45833,0 -0.87165,0.11458 -1.23996,0.34375c-0.3683,0.22917 -0.65476,0.54427 -0.85937,0.94531c-0.20461,0.39286 -0.30283,0.83892 -0.29464,1.33817c-0.00818,0.49925 0.09003,0.94941 0.29464,1.35045c0.20461,0.39286 0.49107,0.70387 0.85938,0.93304c0.3683,0.22917 0.78162,0.34375 1.23996,0.34375zM208.88589,104.24627v-7.69754h1.52232v2.41853l-0.14732,-0.58929c0.1064,-0.3683 0.29055,-0.70387 0.55246,-1.0067c0.26191,-0.30283 0.56064,-0.54018 0.89621,-0.71205c0.33557,-0.18006 0.68341,-0.27009 1.04353,-0.27009c0.16369,0 0.3192,0.01637 0.46652,0.04911c0.1555,0.02455 0.27827,0.05729 0.3683,0.09821l-0.39286,1.64509c-0.11458,-0.04911 -0.24554,-0.09003 -0.39286,-0.12277c-0.13914,-0.04092 -0.27827,-0.06138 -0.41741,-0.06138c-0.26191,0 -0.51153,0.0532 -0.74888,0.1596c-0.23735,0.09821 -0.45015,0.24144 -0.63839,0.42969c-0.18006,0.18006 -0.32329,0.38876 -0.42969,0.62612c-0.1064,0.23735 -0.1596,0.49925 -0.1596,0.78571v4.24777zM217.67483,104.39359c-0.70387,0 -1.32999,-0.17187 -1.87835,-0.51562c-0.54836,-0.35193 -0.98624,-0.82664 -1.31362,-1.42411c-0.3192,-0.60566 -0.47879,-1.29316 -0.47879,-2.0625c0,-0.76934 0.1555,-1.45275 0.46652,-2.05022c0.3192,-0.60566 0.75298,-1.08036 1.30134,-1.42411c0.54836,-0.35193 1.17039,-0.5279 1.86607,-0.5279c0.37649,0 0.74479,0.06138 1.10491,0.18415c0.36012,0.12277 0.67932,0.29055 0.95759,0.50335c0.28646,0.20461 0.50744,0.43378 0.66295,0.6875c0.16369,0.24554 0.24554,0.49516 0.24554,0.74888l-0.44196,0.03683v-5.15625h1.51004v10.85268h-1.51004v-1.82924h0.29464c0,0.22917 -0.07775,0.46242 -0.23326,0.69978c-0.1555,0.22917 -0.36421,0.44196 -0.62612,0.63839c-0.25372,0.18825 -0.55246,0.34375 -0.89621,0.46652c-0.33557,0.11458 -0.67932,0.17187 -1.03125,0.17187zM217.88354,103.09225c0.45833,0 0.86347,-0.11867 1.2154,-0.35603c0.35193,-0.23735 0.62612,-0.55655 0.82254,-0.95759c0.20461,-0.40923 0.30692,-0.87165 0.30692,-1.38728c0,-0.51563 -0.10231,-0.97396 -0.30692,-1.375c-0.19643,-0.40923 -0.47061,-0.73251 -0.82254,-0.96987c-0.35193,-0.23735 -0.75707,-0.35603 -1.2154,-0.35603c-0.45833,0 -0.86347,0.11867 -1.2154,0.35603c-0.35193,0.23735 -0.63021,0.56064 -0.83482,0.96987c-0.19643,0.40104 -0.29464,0.85938 -0.29464,1.375c0,0.51562 0.09821,0.97805 0.29464,1.38728c0.20461,0.40104 0.48289,0.72024 0.83482,0.95759c0.35193,0.23735 0.75707,0.35603 1.2154,0.35603z" fill="#ffffff" fill-rule="nonzero" stroke-linecap="square"/><path d="M-178.15223,21.56168h445.88974v42.01575h-445.88974z" fill-opacity="0" fill="#000000" fill-rule="evenodd" stroke-linecap="square"/><path d="M120.52416,150.55512h238.95169v58.88977h-238.95169z" fill-opacity="0" fill="#000000" fill-rule="evenodd" stroke-linecap="square"/><path d="M159.22307,183.34842v-9.19304h5.79513v1.36356h-4.37659v6.46592h4.37659v1.36356zM159.87186,179.31272v-1.36356h4.42058v1.36356zM166.94386,183.34842v-6.89478h1.35256v1.41854l-0.24192,0.15395c0.08797,-0.30057 0.26025,-0.57915 0.51683,-0.83573c0.25659,-0.26391 0.55715,-0.47651 0.90171,-0.63779c0.35189,-0.16128 0.7111,-0.24192 1.07765,-0.24192c0.52783,0 0.96402,0.10263 1.30858,0.3079c0.35189,0.20527 0.6158,0.5205 0.79174,0.9457c0.17594,0.41787 0.26391,0.9457 0.26391,1.58349v4.20065h-1.35256v-4.11267c0,-0.38854 -0.05132,-0.7111 -0.15395,-0.96769c-0.10263,-0.26391 -0.26391,-0.45452 -0.48384,-0.57182c-0.21993,-0.11729 -0.49117,-0.16861 -0.81374,-0.15395c-0.26391,0 -0.50584,0.04399 -0.72577,0.13196c-0.21993,0.08064 -0.41054,0.19794 -0.57182,0.35189c-0.16128,0.14662 -0.28957,0.3189 -0.38488,0.51683c-0.08797,0.19061 -0.13196,0.39954 -0.13196,0.6268v4.17865h-0.67078c-0.10996,0 -0.2236,0 -0.34089,0c-0.11729,0 -0.23093,0 -0.34089,0zM175.61379,183.34842v-8.65421h1.35256v8.65421zM174.17326,177.77322v-1.31957h4.38759v1.31957zM182.94318,183.48038c-0.70377,0 -1.33057,-0.15028 -1.88039,-0.45085c-0.54249,-0.30057 -0.97135,-0.71477 -1.28659,-1.2426c-0.3079,-0.52783 -0.46185,-1.13264 -0.46185,-1.81442c0,-0.54249 0.08797,-1.03733 0.26391,-1.48452c0.17594,-0.44719 0.41787,-0.83206 0.72577,-1.15463c0.3079,-0.32989 0.67811,-0.58281 1.11064,-0.75876c0.43986,-0.18327 0.91271,-0.27491 1.41854,-0.27491c0.44719,0 0.86139,0.0843 1.2426,0.25292c0.38854,0.16861 0.7221,0.4032 1.00068,0.70377c0.28591,0.30057 0.50584,0.65612 0.65979,1.06666c0.15395,0.4032 0.22726,0.84306 0.21993,1.31957l-0.011,0.58281h-5.63019l-0.3079,-1.07765h4.76147l-0.18694,0.21993v-0.3079c-0.02932,-0.29324 -0.12829,-0.55349 -0.2969,-0.78075c-0.16128,-0.22726 -0.37021,-0.40687 -0.6268,-0.53883c-0.25659,-0.13196 -0.5315,-0.19794 -0.82473,-0.19794c-0.47651,0 -0.87605,0.09164 -1.19861,0.27491c-0.32256,0.17594 -0.56815,0.43986 -0.73676,0.79174c-0.16128,0.34456 -0.24192,0.76975 -0.24192,1.27559c0,0.47651 0.09897,0.89438 0.2969,1.2536c0.19794,0.35189 0.48018,0.6268 0.84673,0.82473c0.37388,0.19061 0.79907,0.28591 1.27559,0.28591c0.34456,0 0.66345,-0.05498 0.95669,-0.16495c0.29324,-0.11729 0.61213,-0.32623 0.95669,-0.6268l0.68178,0.95669c-0.2126,0.2126 -0.46918,0.39954 -0.76975,0.56082c-0.30057,0.15395 -0.61947,0.27858 -0.95669,0.37388c-0.33722,0.08797 -0.67078,0.13196 -1.00068,0.13196zM187.42626,183.34842v-6.89478h1.36356v2.1663l-0.13196,-0.52783c0.0953,-0.32989 0.26025,-0.63046 0.49484,-0.90171c0.23459,-0.27124 0.50217,-0.48384 0.80274,-0.63779c0.30057,-0.16128 0.61213,-0.24192 0.9347,-0.24192c0.14662,0 0.28591,0.01466 0.41787,0.04399c0.13929,0.02199 0.24925,0.05132 0.32989,0.08797l-0.35189,1.47353c-0.10263,-0.04399 -0.21993,-0.08064 -0.35189,-0.10996c-0.12463,-0.03666 -0.24925,-0.05498 -0.37388,-0.05498c-0.23459,0 -0.45818,0.04765 -0.67078,0.14295c-0.2126,0.08797 -0.4032,0.21626 -0.57182,0.38488c-0.16128,0.16128 -0.28957,0.34822 -0.38488,0.56082c-0.0953,0.2126 -0.14295,0.44719 -0.14295,0.70377v3.80477zM197.54852,186.37245l1.39655,-3.22196l0.011,1.07765l-3.44189,-7.77449h1.57249l2.15531,5.06937c0.04399,0.08797 0.0953,0.2236 0.15395,0.40687c0.06598,0.17594 0.12096,0.35189 0.16495,0.52783l-0.34089,0.07698c0.06598,-0.18327 0.13196,-0.36655 0.19794,-0.54982c0.06598,-0.18327 0.12829,-0.36655 0.18694,-0.54982l1.80342,-4.98139h1.60548l-2.83709,6.89478l-1.16562,3.02403zM206.99192,183.48038c-0.67445,0 -1.27926,-0.15395 -1.81442,-0.46185c-0.52783,-0.31523 -0.9457,-0.74043 -1.2536,-1.27559c-0.30057,-0.54249 -0.45085,-1.15829 -0.45085,-1.8474c0,-0.68911 0.15028,-1.30125 0.45085,-1.83641c0.3079,-0.54249 0.72577,-0.96769 1.2536,-1.27559c0.53516,-0.31523 1.13996,-0.47285 1.81442,-0.47285c0.65979,0 1.2536,0.15762 1.78143,0.47285c0.53516,0.3079 0.95669,0.7331 1.26459,1.27559c0.3079,0.53516 0.46185,1.1473 0.46185,1.83641c0,0.68911 -0.15395,1.30491 -0.46185,1.8474c-0.3079,0.53516 -0.72943,0.96036 -1.26459,1.27559c-0.52783,0.3079 -1.12164,0.46185 -1.78143,0.46185zM206.99192,182.24878c0.41054,0 0.77708,-0.10263 1.09965,-0.3079c0.32256,-0.20527 0.57548,-0.48384 0.75876,-0.83573c0.18327,-0.35922 0.27124,-0.76242 0.26391,-1.20961c0.00733,-0.45452 -0.08064,-0.85772 -0.26391,-1.20961c-0.18327,-0.35922 -0.43619,-0.63779 -0.75876,-0.83573c-0.32256,-0.20527 -0.68911,-0.3079 -1.09965,-0.3079c-0.41054,0 -0.78075,0.10263 -1.11064,0.3079c-0.32989,0.20527 -0.58648,0.48751 -0.76975,0.84673c-0.18327,0.35189 -0.27124,0.75143 -0.26391,1.19861c-0.00733,0.44719 0.08064,0.85039 0.26391,1.20961c0.18327,0.35189 0.43986,0.63046 0.76975,0.83573c0.32989,0.20527 0.70011,0.3079 1.11064,0.3079zM214.38496,183.48038c-0.49117,0 -0.92004,-0.11363 -1.28659,-0.34089c-0.35922,-0.22726 -0.63779,-0.54616 -0.83573,-0.95669c-0.19794,-0.41054 -0.2969,-0.90171 -0.2969,-1.47353v-4.25563h1.35256v3.89275c0,0.39587 0.06231,0.74043 0.18694,1.03367c0.13196,0.29324 0.31523,0.5205 0.54982,0.68178c0.24192,0.15395 0.53516,0.23093 0.87972,0.23093c0.24925,0 0.48018,-0.04032 0.69278,-0.12096c0.2126,-0.08064 0.39587,-0.19427 0.54982,-0.34089c0.15395,-0.15395 0.27124,-0.33356 0.35189,-0.53883c0.08797,-0.2126 0.13196,-0.44352 0.13196,-0.69278v-4.14566h1.35256v6.89478h-1.35256v-1.44054l0.24192,-0.16495c-0.10263,0.32989 -0.27858,0.6268 -0.52783,0.89071c-0.24925,0.25659 -0.54616,0.46185 -0.89071,0.6158c-0.34456,0.15395 -0.7111,0.23093 -1.09965,0.23093zM219.90925,183.34842v-6.89478h1.36356v2.1663l-0.13196,-0.52783c0.0953,-0.32989 0.26025,-0.63046 0.49484,-0.90171c0.23459,-0.27124 0.50217,-0.48384 0.80274,-0.63779c0.30057,-0.16128 0.61213,-0.24192 0.9347,-0.24192c0.14662,0 0.28591,0.01466 0.41787,0.04399c0.13929,0.02199 0.24925,0.05132 0.32989,0.08797l-0.35189,1.47353c-0.10263,-0.04399 -0.21993,-0.08064 -0.35189,-0.10996c-0.12463,-0.03666 -0.24925,-0.05498 -0.37388,-0.05498c-0.23459,0 -0.45818,0.04765 -0.67078,0.14295c-0.2126,0.08797 -0.4032,0.21626 -0.57182,0.38488c-0.16128,0.16128 -0.28957,0.34822 -0.38488,0.56082c-0.0953,0.2126 -0.14295,0.44719 -0.14295,0.70377v3.80477zM228.87688,183.34842v-6.89478h1.35256v1.41854l-0.24192,0.15395c0.08797,-0.30057 0.26025,-0.57915 0.51683,-0.83573c0.25659,-0.26391 0.55715,-0.47651 0.90171,-0.63779c0.35189,-0.16128 0.7111,-0.24192 1.07765,-0.24192c0.52783,0 0.96402,0.10263 1.30858,0.3079c0.35189,0.20527 0.6158,0.5205 0.79174,0.9457c0.17594,0.41787 0.26391,0.9457 0.26391,1.58349v4.20065h-1.35256v-4.11267c0,-0.38854 -0.05132,-0.7111 -0.15395,-0.96769c-0.10263,-0.26391 -0.26391,-0.45452 -0.48384,-0.57182c-0.21993,-0.11729 -0.49117,-0.16861 -0.81374,-0.15395c-0.26391,0 -0.50584,0.04399 -0.72577,0.13196c-0.21993,0.08064 -0.41054,0.19794 -0.57182,0.35189c-0.16128,0.14662 -0.28957,0.3189 -0.38488,0.51683c-0.08797,0.19061 -0.13196,0.39954 -0.13196,0.6268v4.17865h-0.67078c-0.10996,0 -0.2236,0 -0.34089,0c-0.11729,0 -0.23093,0 -0.34089,0zM239.90006,183.48038c-0.70377,0 -1.33057,-0.15028 -1.88039,-0.45085c-0.54249,-0.30057 -0.97135,-0.71477 -1.28659,-1.2426c-0.3079,-0.52783 -0.46185,-1.13264 -0.46185,-1.81442c0,-0.54249 0.08797,-1.03733 0.26391,-1.48452c0.17594,-0.44719 0.41787,-0.83206 0.72577,-1.15463c0.3079,-0.32989 0.67811,-0.58281 1.11064,-0.75876c0.43986,-0.18327 0.91271,-0.27491 1.41854,-0.27491c0.44719,0 0.86139,0.0843 1.2426,0.25292c0.38854,0.16861 0.7221,0.4032 1.00068,0.70377c0.28591,0.30057 0.50584,0.65612 0.65979,1.06666c0.15395,0.4032 0.22726,0.84306 0.21993,1.31957l-0.011,0.58281h-5.63019l-0.3079,-1.07765h4.76147l-0.18694,0.21993v-0.3079c-0.02932,-0.29324 -0.12829,-0.55349 -0.2969,-0.78075c-0.16128,-0.22726 -0.37021,-0.40687 -0.6268,-0.53883c-0.25659,-0.13196 -0.5315,-0.19794 -0.82473,-0.19794c-0.47651,0 -0.87605,0.09164 -1.19861,0.27491c-0.32256,0.17594 -0.56815,0.43986 -0.73676,0.79174c-0.16128,0.34456 -0.24192,0.76975 -0.24192,1.27559c0,0.47651 0.09897,0.89438 0.2969,1.2536c0.19794,0.35189 0.48018,0.6268 0.84673,0.82473c0.37388,0.19061 0.79907,0.28591 1.27559,0.28591c0.34456,0 0.66345,-0.05498 0.95669,-0.16495c0.29324,-0.11729 0.61213,-0.32623 0.95669,-0.6268l0.68178,0.95669c-0.2126,0.2126 -0.46918,0.39954 -0.76975,0.56082c-0.30057,0.15395 -0.61947,0.27858 -0.95669,0.37388c-0.33722,0.08797 -0.67078,0.13196 -1.00068,0.13196zM245.94523,183.34842l-2.35324,-6.89478l1.36356,-0.011l1.68246,5.15734l-0.2969,-0.02199l1.82541,-4.0357h0.81374l1.83641,4.0467l-0.35189,0.02199l1.69345,-5.15734h1.36356l-2.32025,6.89478h-0.9347l-1.92438,-4.38759l0.3079,0.04399l-1.78143,4.3436zM258.43193,186.24049v-9.78685h1.36356v1.57249l-0.20893,-0.10996c0.05132,-0.26391 0.19794,-0.51683 0.43986,-0.75876c0.24925,-0.24192 0.54982,-0.43986 0.90171,-0.59381c0.35922,-0.15395 0.72577,-0.23093 1.09965,-0.23093c0.62313,0 1.17295,0.15395 1.64947,0.46185c0.48384,0.3079 0.86505,0.72943 1.14363,1.26459c0.28591,0.53516 0.42886,1.1473 0.42886,1.83641c0,0.68178 -0.13929,1.29392 -0.41787,1.83641c-0.27858,0.53516 -0.65979,0.96036 -1.14363,1.27559c-0.47651,0.3079 -1.01534,0.46185 -1.61648,0.46185c-0.4032,0 -0.79541,-0.08064 -1.17662,-0.24192c-0.37388,-0.16128 -0.69278,-0.37021 -0.95669,-0.6268c-0.26391,-0.25659 -0.4252,-0.5205 -0.48384,-0.79174l0.34089,-0.17594v4.60752zM261.84083,182.21579c0.4032,0 0.76242,-0.09897 1.07765,-0.2969c0.31523,-0.20527 0.56449,-0.48018 0.74776,-0.82473c0.18327,-0.35189 0.27491,-0.75143 0.27491,-1.19861c0,-0.44719 -0.09164,-0.84306 -0.27491,-1.18762c-0.17594,-0.34456 -0.42153,-0.6158 -0.73676,-0.81374c-0.3079,-0.20527 -0.67078,-0.3079 -1.08865,-0.3079c-0.41054,0 -0.77342,0.09897 -1.08865,0.2969c-0.31523,0.19794 -0.56449,0.47285 -0.74776,0.82473c-0.18327,0.34456 -0.27491,0.74043 -0.27491,1.18762c0,0.44719 0.09164,0.84673 0.27491,1.19861c0.18327,0.34456 0.43253,0.61947 0.74776,0.82473c0.31523,0.19794 0.67811,0.2969 1.08865,0.2969zM269.36696,183.48038c-0.56449,0 -1.08132,-0.15762 -1.5505,-0.47285c-0.46918,-0.31523 -0.84673,-0.74409 -1.13264,-1.28659c-0.27858,-0.54249 -0.41787,-1.15463 -0.41787,-1.83641c0,-0.69644 0.14295,-1.31225 0.42886,-1.8474c0.28591,-0.53516 0.67078,-0.95669 1.15463,-1.26459c0.49117,-0.3079 1.03733,-0.46185 1.63847,-0.46185c0.35922,0 0.68545,0.05498 0.97868,0.16495c0.30057,0.10263 0.56082,0.24925 0.78075,0.43986c0.22726,0.18327 0.41054,0.39954 0.54982,0.64879c0.14662,0.24192 0.23826,0.50217 0.27491,0.78075l-0.2969,-0.09897v-1.79242h1.36356v6.89478h-1.36356v-1.63847l0.3079,-0.09897c-0.05132,0.24192 -0.15762,0.47651 -0.3189,0.70377c-0.16128,0.21993 -0.36655,0.41787 -0.6158,0.59381c-0.24925,0.16861 -0.52416,0.3079 -0.82473,0.41787c-0.30057,0.10263 -0.61947,0.15395 -0.95669,0.15395zM269.71885,182.23778c0.41787,0 0.78075,-0.09897 1.08865,-0.2969c0.31523,-0.20527 0.56082,-0.48384 0.73676,-0.83573c0.18327,-0.35922 0.27491,-0.76609 0.27491,-1.22061c0,-0.44719 -0.09164,-0.84673 -0.27491,-1.19861c-0.17594,-0.35189 -0.42153,-0.6268 -0.73676,-0.82473c-0.3079,-0.20527 -0.67078,-0.3079 -1.08865,-0.3079c-0.4032,0 -0.75876,0.10263 -1.06666,0.3079c-0.3079,0.19794 -0.55349,0.47285 -0.73676,0.82473c-0.17594,0.35189 -0.26391,0.75143 -0.26391,1.19861c0,0.45452 0.08797,0.86139 0.26391,1.22061c0.18327,0.35189 0.42886,0.63046 0.73676,0.83573c0.3079,0.19794 0.66345,0.2969 1.06666,0.2969zM277.32622,183.48038c-0.57915,0 -1.09965,-0.09897 -1.5615,-0.2969c-0.46185,-0.20527 -0.84673,-0.50584 -1.15463,-0.90171l0.91271,-0.78075c0.26391,0.30057 0.54982,0.5205 0.85772,0.65979c0.31523,0.13196 0.67078,0.19794 1.06666,0.19794c0.15395,0 0.2969,-0.01833 0.42886,-0.05498c0.13929,-0.03666 0.26025,-0.0953 0.36288,-0.17594c0.10263,-0.08064 0.17961,-0.17594 0.23093,-0.28591c0.05132,-0.10996 0.07698,-0.23093 0.07698,-0.36288c0,-0.22726 -0.0843,-0.41054 -0.25292,-0.54982c-0.08797,-0.05865 -0.22726,-0.12463 -0.41787,-0.19794c-0.18327,-0.07331 -0.4252,-0.15028 -0.72577,-0.23093c-0.50584,-0.13196 -0.92004,-0.27858 -1.2426,-0.43986c-0.32256,-0.16861 -0.57182,-0.35922 -0.74776,-0.57182c-0.13196,-0.16861 -0.23093,-0.34822 -0.2969,-0.53883c-0.05865,-0.19794 -0.08797,-0.41787 -0.08797,-0.65979c0,-0.28591 0.06231,-0.54982 0.18694,-0.79174c0.13196,-0.24192 0.3079,-0.45085 0.52783,-0.6268c0.22726,-0.18327 0.49117,-0.32256 0.79174,-0.41787c0.30057,-0.0953 0.62313,-0.14295 0.96769,-0.14295c0.32256,0 0.64146,0.04399 0.95669,0.13196c0.32256,0.08797 0.61947,0.21626 0.89071,0.38488c0.27124,0.16128 0.49851,0.35555 0.68178,0.58281l-0.76975,0.85772c-0.16861,-0.16861 -0.35189,-0.31523 -0.54982,-0.43986c-0.19794,-0.12463 -0.39954,-0.21993 -0.60481,-0.28591c-0.19794,-0.07331 -0.37755,-0.10996 -0.53883,-0.10996c-0.18327,0 -0.35189,0.01833 -0.50584,0.05498c-0.14662,0.02932 -0.27124,0.08064 -0.37388,0.15395c-0.0953,0.06598 -0.17228,0.15395 -0.23093,0.26391c-0.05132,0.10263 -0.07698,0.21993 -0.07698,0.35189c0.00733,0.10996 0.03666,0.21626 0.08797,0.3189c0.05132,0.10263 0.12096,0.18694 0.20893,0.25292c0.0953,0.07331 0.23826,0.15028 0.42886,0.23093c0.19061,0.07331 0.43619,0.14662 0.73676,0.21993c0.43253,0.10996 0.79174,0.23459 1.07765,0.37388c0.28591,0.13196 0.51317,0.28591 0.68178,0.46185c0.17594,0.16861 0.2969,0.36288 0.36288,0.58281c0.07331,0.21993 0.10996,0.46552 0.10996,0.73676c0,0.38854 -0.11363,0.74043 -0.34089,1.05566c-0.21993,0.3079 -0.5205,0.54982 -0.90171,0.72577c-0.37388,0.17594 -0.79174,0.26391 -1.2536,0.26391zM283.61537,183.48038c-0.57915,0 -1.09965,-0.09897 -1.5615,-0.2969c-0.46185,-0.20527 -0.84673,-0.50584 -1.15463,-0.90171l0.91271,-0.78075c0.26391,0.30057 0.54982,0.5205 0.85772,0.65979c0.31523,0.13196 0.67078,0.19794 1.06666,0.19794c0.15395,0 0.2969,-0.01833 0.42886,-0.05498c0.13929,-0.03666 0.26025,-0.0953 0.36288,-0.17594c0.10263,-0.08064 0.17961,-0.17594 0.23093,-0.28591c0.05132,-0.10996 0.07698,-0.23093 0.07698,-0.36288c0,-0.22726 -0.0843,-0.41054 -0.25292,-0.54982c-0.08797,-0.05865 -0.22726,-0.12463 -0.41787,-0.19794c-0.18327,-0.07331 -0.4252,-0.15028 -0.72577,-0.23093c-0.50584,-0.13196 -0.92004,-0.27858 -1.2426,-0.43986c-0.32256,-0.16861 -0.57182,-0.35922 -0.74776,-0.57182c-0.13196,-0.16861 -0.23093,-0.34822 -0.2969,-0.53883c-0.05865,-0.19794 -0.08797,-0.41787 -0.08797,-0.65979c0,-0.28591 0.06231,-0.54982 0.18694,-0.79174c0.13196,-0.24192 0.3079,-0.45085 0.52783,-0.6268c0.22726,-0.18327 0.49117,-0.32256 0.79174,-0.41787c0.30057,-0.0953 0.62313,-0.14295 0.96769,-0.14295c0.32256,0 0.64146,0.04399 0.95669,0.13196c0.32256,0.08797 0.61947,0.21626 0.89071,0.38488c0.27124,0.16128 0.49851,0.35555 0.68178,0.58281l-0.76975,0.85772c-0.16861,-0.16861 -0.35189,-0.31523 -0.54982,-0.43986c-0.19794,-0.12463 -0.39954,-0.21993 -0.60481,-0.28591c-0.19794,-0.07331 -0.37755,-0.10996 -0.53883,-0.10996c-0.18327,0 -0.35189,0.01833 -0.50584,0.05498c-0.14662,0.02932 -0.27124,0.08064 -0.37388,0.15395c-0.0953,0.06598 -0.17228,0.15395 -0.23093,0.26391c-0.05132,0.10263 -0.07698,0.21993 -0.07698,0.35189c0.00733,0.10996 0.03666,0.21626 0.08797,0.3189c0.05132,0.10263 0.12096,0.18694 0.20893,0.25292c0.0953,0.07331 0.23826,0.15028 0.42886,0.23093c0.19061,0.07331 0.43619,0.14662 0.73676,0.21993c0.43253,0.10996 0.79174,0.23459 1.07765,0.37388c0.28591,0.13196 0.51317,0.28591 0.68178,0.46185c0.17594,0.16861 0.2969,0.36288 0.36288,0.58281c0.07331,0.21993 0.10996,0.46552 0.10996,0.73676c0,0.38854 -0.11363,0.74043 -0.34089,1.05566c-0.21993,0.3079 -0.5205,0.54982 -0.90171,0.72577c-0.37388,0.17594 -0.79174,0.26391 -1.2536,0.26391zM289.29972,183.34842l-2.35324,-6.89478l1.36356,-0.011l1.68246,5.15734l-0.2969,-0.02199l1.82541,-4.0357h0.81374l1.83641,4.0467l-0.35189,0.02199l1.69345,-5.15734h1.36356l-2.32025,6.89478h-0.9347l-1.92438,-4.38759l0.3079,0.04399l-1.78143,4.3436zM301.01402,183.48038c-0.67445,0 -1.27926,-0.15395 -1.81442,-0.46185c-0.52783,-0.31523 -0.9457,-0.74043 -1.2536,-1.27559c-0.30057,-0.54249 -0.45085,-1.15829 -0.45085,-1.8474c0,-0.68911 0.15028,-1.30125 0.45085,-1.83641c0.3079,-0.54249 0.72577,-0.96769 1.2536,-1.27559c0.53516,-0.31523 1.13996,-0.47285 1.81442,-0.47285c0.65979,0 1.2536,0.15762 1.78143,0.47285c0.53516,0.3079 0.95669,0.7331 1.26459,1.27559c0.3079,0.53516 0.46185,1.1473 0.46185,1.83641c0,0.68911 -0.15395,1.30491 -0.46185,1.8474c-0.3079,0.53516 -0.72943,0.96036 -1.26459,1.27559c-0.52783,0.3079 -1.12164,0.46185 -1.78143,0.46185zM301.01402,182.24878c0.41054,0 0.77708,-0.10263 1.09965,-0.3079c0.32256,-0.20527 0.57548,-0.48384 0.75876,-0.83573c0.18327,-0.35922 0.27124,-0.76242 0.26391,-1.20961c0.00733,-0.45452 -0.08064,-0.85772 -0.26391,-1.20961c-0.18327,-0.35922 -0.43619,-0.63779 -0.75876,-0.83573c-0.32256,-0.20527 -0.68911,-0.3079 -1.09965,-0.3079c-0.41054,0 -0.78075,0.10263 -1.11064,0.3079c-0.32989,0.20527 -0.58648,0.48751 -0.76975,0.84673c-0.18327,0.35189 -0.27124,0.75143 -0.26391,1.19861c-0.00733,0.44719 0.08064,0.85039 0.26391,1.20961c0.18327,0.35189 0.43986,0.63046 0.76975,0.83573c0.32989,0.20527 0.70011,0.3079 1.11064,0.3079zM305.98783,183.34842v-6.89478h1.36356v2.1663l-0.13196,-0.52783c0.0953,-0.32989 0.26025,-0.63046 0.49484,-0.90171c0.23459,-0.27124 0.50217,-0.48384 0.80274,-0.63779c0.30057,-0.16128 0.61213,-0.24192 0.9347,-0.24192c0.14662,0 0.28591,0.01466 0.41787,0.04399c0.13929,0.02199 0.24925,0.05132 0.32989,0.08797l-0.35189,1.47353c-0.10263,-0.04399 -0.21993,-0.08064 -0.35189,-0.10996c-0.12463,-0.03666 -0.24925,-0.05498 -0.37388,-0.05498c-0.23459,0 -0.45818,0.04765 -0.67078,0.14295c-0.2126,0.08797 -0.4032,0.21626 -0.57182,0.38488c-0.16128,0.16128 -0.28957,0.34822 -0.38488,0.56082c-0.0953,0.2126 -0.14295,0.44719 -0.14295,0.70377v3.80477zM313.8602,183.48038c-0.63046,0 -1.19128,-0.15395 -1.68246,-0.46185c-0.49117,-0.31523 -0.88338,-0.74043 -1.17662,-1.27559c-0.28591,-0.54249 -0.42886,-1.15829 -0.42886,-1.8474c0,-0.68911 0.13929,-1.30125 0.41787,-1.83641c0.28591,-0.54249 0.67445,-0.96769 1.16562,-1.27559c0.49117,-0.31523 1.04833,-0.47285 1.67146,-0.47285c0.33722,0 0.66712,0.05498 0.98968,0.16495c0.32256,0.10996 0.60847,0.26025 0.85772,0.45085c0.25659,0.18327 0.45452,0.38854 0.59381,0.6158c0.14662,0.21993 0.21993,0.44352 0.21993,0.67078l-0.39587,0.03299v-4.61851h1.35256v9.72087h-1.35256v-1.63847h0.26391c0,0.20527 -0.06965,0.4142 -0.20893,0.6268c-0.13929,0.20527 -0.32623,0.39587 -0.56082,0.57182c-0.22726,0.16861 -0.49484,0.3079 -0.80274,0.41787c-0.30057,0.10263 -0.60847,0.15395 -0.9237,0.15395zM314.04714,182.31475c0.41054,0 0.77342,-0.1063 1.08865,-0.3189c0.31523,-0.2126 0.56082,-0.49851 0.73676,-0.85772c0.18327,-0.36655 0.27491,-0.78075 0.27491,-1.2426c0,-0.46185 -0.09164,-0.87239 -0.27491,-1.2316c-0.17594,-0.36655 -0.42153,-0.65612 -0.73676,-0.86872c-0.31523,-0.2126 -0.67811,-0.3189 -1.08865,-0.3189c-0.41054,0 -0.77342,0.1063 -1.08865,0.3189c-0.31523,0.2126 -0.56449,0.50217 -0.74776,0.86872c-0.17594,0.35922 -0.26391,0.76975 -0.26391,1.2316c0,0.46185 0.08797,0.87605 0.26391,1.2426c0.18327,0.35922 0.43253,0.64512 0.74776,0.85772c0.31523,0.2126 0.67811,0.3189 1.08865,0.3189zM319.86423,183.49138c-0.28591,0 -0.5095,-0.0843 -0.67078,-0.25292c-0.15395,-0.16861 -0.23093,-0.41054 -0.23093,-0.72577c0,-0.29324 0.08064,-0.5315 0.24192,-0.71477c0.16861,-0.18327 0.38854,-0.27491 0.65979,-0.27491c0.29324,0 0.51683,0.08797 0.67078,0.26391c0.16128,0.16861 0.24192,0.41054 0.24192,0.72577c0,0.28591 -0.0843,0.5205 -0.25292,0.70377c-0.16861,0.18327 -0.38854,0.27491 -0.65979,0.27491z" fill="#ffffff" fill-rule="nonzero" stroke-linecap="square"/><text transform="translate(187.5,225.85313) scale(0.31308,0.31308)" font-size="40" xml:space="preserve" fill="#ffffff" fill-rule="nonzero" stroke="none" stroke-width="1" stroke-linecap="butt" stroke-linejoin="miter" stroke-miterlimit="10" stroke-dasharray="" stroke-dashoffset="0" font-family="Sans Serif" font-weight="normal" text-anchor="start" style="mix-blend-mode: normal"><tspan x="0" dy="0">(ALL LOWERCASE)</tspan></text></g></g></svg>