<svg version="1.1" xmlns="http://www.w3.org/2000/svg" xmlns:xlink="http://www.w3.org/1999/xlink" width="21.58322" height="27.89234" viewBox="0,0,21.58322,27.89234"><g transform="translate(-170.13543,-167.02966)"><g data-paper-data="{&quot;isPaintingLayer&quot;:true}" stroke="none" stroke-width="1" stroke-linecap="square" stroke-linejoin="miter" stroke-miterlimit="10" stroke-dasharray="" stroke-dashoffset="0" style="mix-blend-mode: normal"><path d="M170.13543,168.75369c0,-0.95215 0.41182,-1.72403 0.91982,-1.72403h19.74357c0.24395,0 0.47791,0.18164 0.65041,0.50495c0.1725,0.32331 0.26942,0.76183 0.26942,1.21908v24.44429c0,0.95215 -0.41182,1.72402 -0.91983,1.72402h-19.74357c-0.508,0 -0.91982,-0.77187 -0.91982,-1.72402z" fill-opacity="0.69355" fill="#2d2d2d" fill-rule="evenodd"/><path d="M174.29519,187.23071v-16.09621h6.74046c1.18632,0 2.26479,0.19772 3.23542,0.59315c0.98859,0.37745 1.8334,0.93467 2.53441,1.67164c0.71898,0.71898 1.26722,1.57278 1.64467,2.56138c0.39544,0.97063 0.59315,2.04011 0.59315,3.20845c0,1.18632 -0.19772,2.27379 -0.59315,3.26238c-0.37745,0.98859 -0.9257,1.84239 -1.64467,2.56138c-0.70101,0.70101 -1.54582,1.24923 -2.53441,1.64467c-0.97063,0.39544 -2.0491,0.59315 -3.23542,0.59315zM178.20466,184.56147l-0.53924,-0.7819h3.26238c0.64709,0 1.22228,-0.10785 1.72557,-0.32355c0.50328,-0.23366 0.93467,-0.54822 1.29416,-0.94366c0.35949,-0.39544 0.63809,-0.87178 0.83581,-1.42897c0.19772,-0.57518 0.29659,-1.21328 0.29659,-1.91429c0,-0.68303 -0.09885,-1.30316 -0.29659,-1.86037c-0.19772,-0.57518 -0.47632,-1.0605 -0.83581,-1.45594c-0.35949,-0.39544 -0.79088,-0.70101 -1.29416,-0.91671c-0.50328,-0.23366 -1.07846,-0.3505 -1.72557,-0.3505h-3.31631l0.59315,-0.72796z" fill="#ffffff" fill-rule="nonzero"/></g></g></svg>