<svg version="1.1" xmlns="http://www.w3.org/2000/svg" xmlns:xlink="http://www.w3.org/1999/xlink" width="232.23527" height="160.12502" viewBox="0,0,232.23527,160.12502"><g transform="translate(-123.88237,-99.93749)"><g data-paper-data="{&quot;isPaintingLayer&quot;:true}" stroke="none" stroke-linejoin="miter" stroke-miterlimit="10" stroke-dasharray="" stroke-dashoffset="0" style="mix-blend-mode: normal"><path d="M123.88237,109.83482c0,-5.46615 4.43119,-9.89733 9.89733,-9.89733h212.44061c2.62494,0 5.14237,1.04275 6.99847,2.89886c1.85612,1.85611 2.89886,4.37353 2.89886,6.99847v140.33036c0,5.46615 -4.43118,9.89733 -9.89733,9.89733h-212.44061c-5.46614,0 -9.89733,-4.43118 -9.89733,-9.89733z" fill="#171717" fill-rule="evenodd" stroke-width="1" stroke-linecap="square"/><path d="M329.5029,111.23421c0,2.34801 -1.91444,4.25144 -4.27602,4.25144c-2.36158,0 -4.27601,-1.90344 -4.27601,-4.25144c0,-2.34801 1.91443,-4.25144 4.27601,-4.25144c2.36158,0 4.27602,1.90344 4.27602,4.25144z" fill-opacity="0.25378" fill="#3a3a3a" fill-rule="nonzero" stroke-width="0" stroke-linecap="butt"/><path d="M344.0029,111.23421c0,2.34801 -1.91444,4.25144 -4.27602,4.25144c-2.36158,0 -4.27601,-1.90344 -4.27601,-4.25144c0,-2.34801 1.91443,-4.25144 4.27601,-4.25144c2.36158,0 4.27602,1.90344 4.27602,4.25144z" fill-opacity="0.25378" fill="#3a3a3a" fill-rule="nonzero" stroke-width="0" stroke-linecap="butt"/><path d="M134.26117,141.88149h122.62201v22.63426h-122.62201z" fill-opacity="0" fill="#000000" fill-rule="evenodd" stroke-width="1" stroke-linecap="square"/><path d="M137.87684,117.38238c-0.38995,0 -0.75124,-0.05161 -1.08385,-0.15484c-0.3326,-0.10322 -0.63368,-0.25806 -0.9032,-0.46451c-0.26953,-0.21218 -0.51038,-0.47024 -0.72257,-0.77418l0.75697,-0.8774c0.33834,0.48171 0.65948,0.81432 0.96342,0.99783c0.30967,0.18351 0.67668,0.27526 1.10105,0.27526c0.25806,0 0.49318,-0.04015 0.70536,-0.12043c0.21218,-0.08602 0.37849,-0.20071 0.49891,-0.34408c0.12617,-0.14337 0.18924,-0.3068 0.18924,-0.49031c0,-0.12043 -0.02007,-0.23512 -0.06021,-0.34408c-0.04015,-0.11469 -0.10322,-0.21505 -0.18924,-0.30107c-0.08602,-0.09176 -0.19498,-0.17491 -0.32688,-0.24945c-0.13189,-0.07455 -0.28673,-0.1405 -0.46451,-0.19784c-0.17778,-0.05735 -0.38422,-0.10609 -0.61934,-0.14623c-0.36701,-0.08028 -0.68816,-0.18064 -0.96342,-0.30107c-0.27526,-0.12617 -0.50464,-0.281 -0.68816,-0.46451c-0.18351,-0.18351 -0.32114,-0.39282 -0.4129,-0.62794c-0.09176,-0.23512 -0.13763,-0.50178 -0.13763,-0.79998c0,-0.28674 0.06308,-0.5534 0.18924,-0.79999c0.13189,-0.24659 0.3068,-0.45877 0.52472,-0.63655c0.22365,-0.18351 0.48458,-0.32401 0.78278,-0.42149c0.30393,-0.10322 0.63081,-0.15484 0.98063,-0.15484c0.37275,0 0.71109,0.04874 1.01503,0.14623c0.30967,0.09749 0.58493,0.24086 0.82579,0.4301c0.24086,0.18351 0.4387,0.4129 0.59353,0.68816l-0.78278,0.77419c-0.13189,-0.22939 -0.28386,-0.41863 -0.4559,-0.56774c-0.17204,-0.15484 -0.36128,-0.27239 -0.56773,-0.35268c-0.20645,-0.08028 -0.42436,-0.12043 -0.65375,-0.12043c-0.26953,0 -0.50464,0.04301 -0.70536,0.12903c-0.19498,0.08028 -0.34981,0.19498 -0.46451,0.34408c-0.11469,0.14337 -0.17204,0.31541 -0.17204,0.51613c0,0.14337 0.02867,0.27526 0.08602,0.39569c0.05735,0.12043 0.1405,0.22652 0.24945,0.31827c0.11469,0.09176 0.26666,0.17491 0.4559,0.24945c0.19498,0.06882 0.42436,0.12903 0.68816,0.18064c0.37849,0.08602 0.71396,0.19211 1.00643,0.31827c0.2982,0.12617 0.54766,0.27526 0.74837,0.4473c0.20645,0.17204 0.36128,0.36415 0.46451,0.57633c0.10896,0.21218 0.16343,0.44157 0.16343,0.68816c0,0.45877 -0.10609,0.85733 -0.31827,1.19567c-0.21218,0.3326 -0.51325,0.59066 -0.9032,0.77418c-0.38995,0.17778 -0.85446,0.26666 -1.39352,0.26666zM142.70304,119.6447l1.09245,-2.52038l0.0086,0.84299l-2.69242,-6.08159h1.23008l1.68599,3.96551c0.03441,0.06882 0.07455,0.17491 0.12043,0.31827c0.05161,0.13763 0.09462,0.27526 0.12903,0.4129l-0.26666,0.06021c0.05161,-0.14337 0.10322,-0.28673 0.15484,-0.4301c0.05161,-0.14337 0.10036,-0.28673 0.14623,-0.4301l1.41072,-3.89669h1.25589l-2.21931,5.39343l-0.91181,2.36554zM149.46218,117.38238c-0.45303,0 -0.8602,-0.07741 -1.22148,-0.23225c-0.36128,-0.16057 -0.66235,-0.39569 -0.9032,-0.70536l0.71396,-0.61074c0.20645,0.23512 0.4301,0.40716 0.67095,0.51612c0.24659,0.10322 0.52472,0.15484 0.83439,0.15484c0.12043,0 0.23225,-0.01434 0.33547,-0.04301c0.10896,-0.02867 0.20358,-0.07455 0.28386,-0.13763c0.08028,-0.06308 0.1405,-0.13763 0.18064,-0.22365c0.04015,-0.08602 0.06021,-0.18064 0.06021,-0.28386c0,-0.17778 -0.06595,-0.32114 -0.19784,-0.4301c-0.06882,-0.04587 -0.17778,-0.09749 -0.32688,-0.15484c-0.14337,-0.05735 -0.3326,-0.11756 -0.56773,-0.18064c-0.39569,-0.10322 -0.7197,-0.21791 -0.97202,-0.34408c-0.25232,-0.13189 -0.4473,-0.281 -0.58493,-0.4473c-0.10322,-0.13189 -0.18064,-0.27239 -0.23225,-0.42149c-0.04587,-0.15484 -0.06882,-0.32688 -0.06882,-0.51612c0,-0.22365 0.04874,-0.4301 0.14623,-0.61934c0.10322,-0.18924 0.24086,-0.35268 0.4129,-0.49031c0.17778,-0.14337 0.38422,-0.25232 0.61934,-0.32688c0.23512,-0.07455 0.48744,-0.11182 0.75697,-0.11182c0.25232,0 0.50178,0.03441 0.74837,0.10322c0.25232,0.06882 0.48458,0.16917 0.69676,0.30107c0.21218,0.12617 0.38995,0.27813 0.53332,0.4559l-0.60214,0.67095c-0.13189,-0.13189 -0.27526,-0.24659 -0.4301,-0.34408c-0.15484,-0.09749 -0.31254,-0.17204 -0.4731,-0.22365c-0.15484,-0.05735 -0.29534,-0.08602 -0.42149,-0.08602c-0.14337,0 -0.27526,0.01434 -0.39569,0.04301c-0.11469,0.02294 -0.21218,0.06308 -0.29247,0.12043c-0.07455,0.05161 -0.13476,0.12043 -0.18064,0.20645c-0.04015,0.08028 -0.06021,0.17204 -0.06021,0.27526c0.00574,0.08602 0.02867,0.16917 0.06882,0.24945c0.04015,0.08028 0.09462,0.14623 0.16343,0.19784c0.07455,0.05735 0.18637,0.11756 0.33547,0.18064c0.1491,0.05735 0.34121,0.11469 0.57633,0.17204c0.33834,0.08602 0.61934,0.18351 0.84299,0.29247c0.22365,0.10322 0.40142,0.22365 0.53332,0.36128c0.13763,0.13189 0.23225,0.28386 0.28386,0.4559c0.05735,0.17204 0.08602,0.36415 0.08602,0.57633c0,0.30393 -0.08889,0.5792 -0.26666,0.82579c-0.17204,0.24086 -0.40716,0.4301 -0.70536,0.56773c-0.29247,0.13763 -0.61934,0.20645 -0.98063,0.20645zM153.25502,117.27915v-6.76975h1.05804v6.76975zM152.12815,112.91796v-1.03224h3.43219v1.03224zM158.98841,117.38238c-0.55053,0 -1.04084,-0.11756 -1.47093,-0.35268c-0.42436,-0.23512 -0.75984,-0.55912 -1.00643,-0.97202c-0.24086,-0.4129 -0.36128,-0.886 -0.36128,-1.41932c0,-0.42436 0.06882,-0.81145 0.20645,-1.16126c0.13763,-0.34981 0.32688,-0.65088 0.56773,-0.9032c0.24086,-0.25806 0.53045,-0.4559 0.8688,-0.59353c0.34408,-0.14337 0.71396,-0.21505 1.10965,-0.21505c0.34981,0 0.67382,0.06595 0.97202,0.19784c0.30393,0.13189 0.56486,0.3154 0.78278,0.55053c0.22365,0.23512 0.39569,0.51325 0.51612,0.83439c0.12043,0.3154 0.17778,0.65948 0.17204,1.03224l-0.0086,0.4559h-4.40421l-0.24086,-0.84299h3.72465l-0.14623,0.17204v-0.24086c-0.02294,-0.22939 -0.10036,-0.43297 -0.23225,-0.61074c-0.12617,-0.17778 -0.2896,-0.31827 -0.49031,-0.42149c-0.20071,-0.10322 -0.41576,-0.15484 -0.64514,-0.15484c-0.37275,0 -0.68529,0.07168 -0.93761,0.21505c-0.25232,0.13763 -0.44443,0.34408 -0.57633,0.61934c-0.12617,0.26953 -0.18924,0.60214 -0.18924,0.99783c0,0.37275 0.07741,0.69963 0.23225,0.98063c0.15484,0.27526 0.37562,0.49031 0.66235,0.64514c0.29247,0.1491 0.62507,0.22365 0.99783,0.22365c0.26953,0 0.51899,-0.04301 0.74837,-0.12903c0.22939,-0.09176 0.47884,-0.25519 0.74837,-0.49031l0.53332,0.74837c-0.1663,0.1663 -0.36701,0.31254 -0.60214,0.4387c-0.23512,0.12043 -0.48458,0.21791 -0.74837,0.29247c-0.2638,0.06882 -0.52472,0.10322 -0.78278,0.10322zM162.4781,117.27915v-5.39343h1.06665v1.15267l-0.19784,0.12043c0.05735,-0.17778 0.14337,-0.34695 0.25806,-0.50751c0.12043,-0.1663 0.26666,-0.31254 0.4387,-0.4387c0.17778,-0.12617 0.36701,-0.22652 0.56773,-0.30107c0.20645,-0.08028 0.41576,-0.12043 0.62794,-0.12043c0.30393,0 0.57346,0.05161 0.80859,0.15484c0.23512,0.10322 0.42723,0.25806 0.57633,0.46451c0.1491,0.20645 0.25806,0.46451 0.32688,0.77418l-0.16343,-0.04301l0.06882,-0.17204c0.08028,-0.16057 0.18637,-0.30967 0.31827,-0.4473c0.13189,-0.14337 0.28386,-0.26953 0.4559,-0.37849c0.17204,-0.10896 0.35268,-0.19498 0.54192,-0.25806c0.19498,-0.06308 0.38422,-0.09462 0.56773,-0.09462c0.40142,0 0.73403,0.08315 0.99783,0.24945c0.2638,0.1663 0.46164,0.41862 0.59353,0.75697c0.13763,0.3326 0.20645,0.74837 0.20645,1.24728v3.23434h-1.06665v-3.17413c0,-0.30967 -0.04015,-0.56199 -0.12043,-0.75697c-0.08028,-0.19498 -0.20071,-0.33834 -0.36128,-0.4301c-0.15484,-0.09749 -0.35555,-0.14623 -0.60214,-0.14623c-0.18924,0 -0.36988,0.03441 -0.54192,0.10322c-0.1663,0.06308 -0.31254,0.15197 -0.4387,0.26666c-0.12043,0.11469 -0.21505,0.24945 -0.28386,0.40429c-0.06308,0.15484 -0.09462,0.32401 -0.09462,0.50751v3.22574h-1.07524v-3.19133c0,-0.281 -0.04015,-0.51899 -0.12043,-0.71396c-0.08028,-0.19498 -0.20071,-0.34408 -0.36128,-0.4473c-0.15484,-0.10322 -0.34695,-0.15484 -0.57633,-0.15484c-0.18924,0 -0.36701,0.03441 -0.53332,0.10322c-0.16057,0.06308 -0.30393,0.15197 -0.4301,0.26666c-0.12043,0.10896 -0.21505,0.24086 -0.28386,0.39569c-0.06882,0.15484 -0.10322,0.32114 -0.10322,0.49891v3.24294zM175.09714,117.27915v-7.19125h1.09245l2.615,4.26658l-0.52472,-0.0086l2.64941,-4.25798h1.03224v7.19125h-1.10965v-2.95048c0,-0.61361 0.01434,-1.167 0.04301,-1.66018c0.02867,-0.49318 0.08315,-0.98349 0.16343,-1.47094l0.13763,0.37849l-2.34834,3.63864h-0.67955l-2.27952,-3.59562l0.11182,-0.4215c0.07455,0.45878 0.12617,0.93188 0.15484,1.41933c0.03441,0.48171 0.05161,1.05231 0.05161,1.71179v2.95048zM185.77748,117.38238c-0.44157,0 -0.84586,-0.1233 -1.21288,-0.36988c-0.36701,-0.24659 -0.66235,-0.58207 -0.886,-1.00643c-0.21791,-0.42436 -0.32688,-0.9032 -0.32688,-1.43653c0,-0.54479 0.11182,-1.0265 0.33547,-1.44513c0.22365,-0.41862 0.52472,-0.74837 0.9032,-0.98922c0.38422,-0.24086 0.81145,-0.36128 1.28169,-0.36128c0.281,0 0.53619,0.04301 0.76557,0.12903c0.23512,0.08028 0.4387,0.19498 0.61074,0.34408c0.17778,0.14337 0.32114,0.31254 0.4301,0.50751c0.11469,0.18924 0.18637,0.39282 0.21505,0.61074l-0.23225,-0.07741v-1.40212h1.06665v5.39343h-1.06665v-1.28169l0.24086,-0.07741c-0.04015,0.18924 -0.1233,0.37275 -0.24945,0.55053c-0.12617,0.17204 -0.28673,0.32688 -0.48171,0.46451c-0.19498,0.13189 -0.41003,0.24086 -0.64514,0.32688c-0.23512,0.08028 -0.48458,0.12043 -0.74837,0.12043zM186.05274,116.41036c0.32688,0 0.61074,-0.07741 0.85159,-0.23225c0.24659,-0.16057 0.4387,-0.37849 0.57633,-0.65375c0.14337,-0.281 0.21505,-0.59927 0.21505,-0.95482c0,-0.34981 -0.07168,-0.66235 -0.21505,-0.93761c-0.13763,-0.27526 -0.32974,-0.49031 -0.57633,-0.64514c-0.24086,-0.16057 -0.52472,-0.24086 -0.85159,-0.24086c-0.3154,0 -0.59353,0.08028 -0.83439,0.24086c-0.24086,0.15484 -0.43297,0.36988 -0.57633,0.64514c-0.13763,0.27526 -0.20645,0.5878 -0.20645,0.93761c0,0.35555 0.06882,0.67382 0.20645,0.95482c0.14337,0.27526 0.33547,0.49318 0.57633,0.65375c0.24086,0.15484 0.51899,0.23225 0.83439,0.23225zM190.20578,117.27915v-5.39343h1.05804v1.10965l-0.18924,0.12043c0.06882,-0.23512 0.20358,-0.45303 0.40429,-0.65375c0.20071,-0.20645 0.43583,-0.37275 0.70536,-0.49891c0.27526,-0.12617 0.55626,-0.18924 0.84299,-0.18924c0.4129,0 0.75411,0.08028 1.02363,0.24086c0.27526,0.16057 0.48171,0.40716 0.61934,0.73977c0.13763,0.32688 0.20645,0.73977 0.20645,1.23869v3.28595h-1.05804v-3.21713c0,-0.30393 -0.04015,-0.55626 -0.12043,-0.75697c-0.08028,-0.20645 -0.20645,-0.35555 -0.37849,-0.4473c-0.17204,-0.09176 -0.38422,-0.13189 -0.63655,-0.12043c-0.20645,0 -0.39569,0.03441 -0.56773,0.10322c-0.17204,0.06308 -0.32114,0.15484 -0.4473,0.27526c-0.12617,0.11469 -0.22652,0.24945 -0.30107,0.40429c-0.06882,0.1491 -0.10322,0.31254 -0.10322,0.49031v3.26874h-0.52472c-0.08602,0 -0.17491,0 -0.26666,0c-0.09176,0 -0.18064,0 -0.26666,0zM198.38995,117.38238c-0.44157,0 -0.84586,-0.1233 -1.21288,-0.36988c-0.36701,-0.24659 -0.66235,-0.58207 -0.886,-1.00643c-0.21791,-0.42436 -0.32688,-0.9032 -0.32688,-1.43653c0,-0.54479 0.11182,-1.0265 0.33547,-1.44513c0.22365,-0.41862 0.52472,-0.74837 0.9032,-0.98922c0.38422,-0.24086 0.81145,-0.36128 1.28169,-0.36128c0.281,0 0.53619,0.04301 0.76557,0.12903c0.23512,0.08028 0.4387,0.19498 0.61074,0.34408c0.17778,0.14337 0.32114,0.31254 0.4301,0.50751c0.11469,0.18924 0.18637,0.39282 0.21505,0.61074l-0.23225,-0.07741v-1.40212h1.06665v5.39343h-1.06665v-1.28169l0.24086,-0.07741c-0.04015,0.18924 -0.1233,0.37275 -0.24945,0.55053c-0.12617,0.17204 -0.28673,0.32688 -0.48171,0.46451c-0.19498,0.13189 -0.41003,0.24086 -0.64514,0.32688c-0.23512,0.08028 -0.48458,0.12043 -0.74837,0.12043zM198.66521,116.41036c0.32688,0 0.61074,-0.07741 0.85159,-0.23225c0.24659,-0.16057 0.4387,-0.37849 0.57633,-0.65375c0.14337,-0.281 0.21505,-0.59927 0.21505,-0.95482c0,-0.34981 -0.07168,-0.66235 -0.21505,-0.93761c-0.13763,-0.27526 -0.32974,-0.49031 -0.57633,-0.64514c-0.24086,-0.16057 -0.52472,-0.24086 -0.85159,-0.24086c-0.3154,0 -0.59353,0.08028 -0.83439,0.24086c-0.24086,0.15484 -0.43297,0.36988 -0.57633,0.64514c-0.13763,0.27526 -0.20645,0.5878 -0.20645,0.93761c0,0.35555 0.06882,0.67382 0.20645,0.95482c0.14337,0.27526 0.33547,0.49318 0.57633,0.65375c0.24086,0.15484 0.51899,0.23225 0.83439,0.23225zM205.23541,119.6447c-0.38422,0 -0.76844,-0.06021 -1.15267,-0.18064c-0.37849,-0.12043 -0.68242,-0.27813 -0.91181,-0.4731l0.38709,-0.81718c0.13763,0.10322 0.2982,0.19211 0.48171,0.26666c0.18351,0.08028 0.37849,0.14337 0.58493,0.18924c0.20645,0.04587 0.41003,0.06882 0.61074,0.06882c0.37275,0 0.68529,-0.06308 0.93761,-0.18924c0.25806,-0.12043 0.45017,-0.30107 0.57633,-0.54192c0.13189,-0.24086 0.19784,-0.53905 0.19784,-0.89461v-1.03224l0.11182,0.06882c-0.03441,0.21218 -0.14623,0.41576 -0.33547,0.61074c-0.18924,0.19498 -0.42436,0.35555 -0.70536,0.48171c-0.27526,0.12043 -0.56199,0.18064 -0.8602,0.18064c-0.51038,0 -0.96629,-0.12043 -1.36771,-0.36128c-0.40142,-0.24659 -0.7197,-0.5792 -0.95482,-0.99783c-0.22939,-0.42436 -0.34408,-0.90607 -0.34408,-1.44513c0,-0.53905 0.11469,-1.0179 0.34408,-1.43653c0.22939,-0.42436 0.54192,-0.75697 0.93761,-0.99783c0.40142,-0.24659 0.85446,-0.36988 1.35911,-0.36988c0.20071,0 0.39569,0.0258 0.58493,0.07741c0.19498,0.05161 0.37562,0.1233 0.54192,0.21505c0.1663,0.09176 0.31254,0.19211 0.4387,0.30107c0.13189,0.10896 0.23799,0.22652 0.31827,0.35268c0.08602,0.12043 0.13763,0.23512 0.15484,0.34408l-0.22365,0.08602v-1.26449h1.05804v5.06656c0,0.4301 -0.06308,0.81145 -0.18924,1.14406c-0.12617,0.3326 -0.30967,0.61361 -0.55053,0.84299c-0.24086,0.22939 -0.53332,0.40429 -0.8774,0.52472c-0.33834,0.12043 -0.72257,0.18064 -1.15267,0.18064zM205.26982,116.41036c0.33834,0 0.63655,-0.07741 0.89461,-0.23225c0.2638,-0.16057 0.46738,-0.37849 0.61074,-0.65375c0.14337,-0.27526 0.21505,-0.59066 0.21505,-0.94622c0,-0.35555 -0.07455,-0.67095 -0.22365,-0.94622c-0.1491,-0.281 -0.35268,-0.49891 -0.61074,-0.65375c-0.25232,-0.16057 -0.54766,-0.24086 -0.886,-0.24086c-0.32688,0 -0.61934,0.08028 -0.8774,0.24086c-0.25806,0.16057 -0.46164,0.38136 -0.61074,0.66235c-0.14337,0.27526 -0.21505,0.5878 -0.21505,0.93761c0,0.34981 0.07168,0.66522 0.21505,0.94622c0.1491,0.27526 0.35268,0.49318 0.61074,0.65375c0.25806,0.15484 0.55053,0.23225 0.8774,0.23225zM211.99575,117.38238c-0.55053,0 -1.04084,-0.11756 -1.47093,-0.35268c-0.42436,-0.23512 -0.75984,-0.55912 -1.00643,-0.97202c-0.24086,-0.4129 -0.36128,-0.886 -0.36128,-1.41932c0,-0.42436 0.06882,-0.81145 0.20645,-1.16126c0.13763,-0.34981 0.32688,-0.65088 0.56773,-0.9032c0.24086,-0.25806 0.53045,-0.4559 0.8688,-0.59353c0.34408,-0.14337 0.71396,-0.21505 1.10965,-0.21505c0.34981,0 0.67382,0.06595 0.97202,0.19784c0.30393,0.13189 0.56486,0.3154 0.78278,0.55053c0.22365,0.23512 0.39569,0.51325 0.51612,0.83439c0.12043,0.3154 0.17778,0.65948 0.17204,1.03224l-0.0086,0.4559h-4.40421l-0.24086,-0.84299h3.72465l-0.14623,0.17204v-0.24086c-0.02294,-0.22939 -0.10036,-0.43297 -0.23225,-0.61074c-0.12617,-0.17778 -0.2896,-0.31827 -0.49031,-0.42149c-0.20071,-0.10322 -0.41576,-0.15484 -0.64514,-0.15484c-0.37275,0 -0.68529,0.07168 -0.93761,0.21505c-0.25232,0.13763 -0.44443,0.34408 -0.57633,0.61934c-0.12617,0.26953 -0.18924,0.60214 -0.18924,0.99783c0,0.37275 0.07741,0.69963 0.23225,0.98063c0.15484,0.27526 0.37562,0.49031 0.66235,0.64514c0.29247,0.1491 0.62507,0.22365 0.99783,0.22365c0.26953,0 0.51899,-0.04301 0.74837,-0.12903c0.22939,-0.09176 0.47884,-0.25519 0.74837,-0.49031l0.53332,0.74837c-0.1663,0.1663 -0.36701,0.31254 -0.60214,0.4387c-0.23512,0.12043 -0.48458,0.21791 -0.74837,0.29247c-0.2638,0.06882 -0.52472,0.10322 -0.78278,0.10322zM215.50264,117.27915v-5.39343h1.06665v1.69459l-0.10322,-0.4129c0.07455,-0.25806 0.20358,-0.49318 0.38709,-0.70536c0.18351,-0.21218 0.39282,-0.37849 0.62794,-0.49891c0.23512,-0.12617 0.47884,-0.18924 0.73116,-0.18924c0.11469,0 0.22365,0.01147 0.32688,0.03441c0.10896,0.0172 0.19498,0.04015 0.25806,0.06882l-0.27526,1.15267c-0.08028,-0.03441 -0.17204,-0.06308 -0.27526,-0.08602c-0.09749,-0.02867 -0.19498,-0.04301 -0.29247,-0.04301c-0.18351,0 -0.35841,0.03728 -0.52472,0.11182c-0.1663,0.06882 -0.3154,0.16917 -0.4473,0.30107c-0.12617,0.12617 -0.22652,0.27239 -0.30107,0.4387c-0.07455,0.1663 -0.11182,0.34981 -0.11182,0.55053v2.97628z" fill="#ffffff" fill-rule="nonzero" stroke-width="1" stroke-linecap="square"/><path d="M132.40818,141.73364v-6.57869h2.67554c0.35674,0 0.67938,0.08919 0.96792,0.26755c0.29379,0.17837 0.52724,0.42232 0.70036,0.73184c0.17837,0.30428 0.26755,0.64528 0.26755,1.023c0,0.37772 -0.08919,0.72135 -0.26755,1.03087c-0.17312,0.30428 -0.40657,0.54822 -0.70036,0.73184c-0.28854,0.18362 -0.61118,0.27542 -0.96792,0.27542h-1.66041v2.51816zM133.42331,138.2397h1.64467c0.16788,0 0.32002,-0.04722 0.45642,-0.14165c0.14165,-0.09968 0.25444,-0.22821 0.33838,-0.38559c0.08394,-0.16263 0.12591,-0.341 0.12591,-0.53511c0,-0.19411 -0.04197,-0.36985 -0.12591,-0.52724c-0.08394,-0.15738 -0.19673,-0.28329 -0.33838,-0.37772c-0.1364,-0.09443 -0.28854,-0.14165 -0.45642,-0.14165h-1.64467zM138.12122,141.73364v-4.93402h0.97579v1.55024l-0.09443,-0.37772c0.0682,-0.23608 0.18624,-0.45117 0.35412,-0.64528c0.16788,-0.19411 0.35936,-0.34625 0.57445,-0.45642c0.21509,-0.11541 0.43805,-0.17312 0.66889,-0.17312c0.10492,0 0.2046,0.01049 0.29903,0.03148c0.09968,0.01574 0.17837,0.03672 0.23608,0.06295l-0.25182,1.05448c-0.07345,-0.03148 -0.15738,-0.05771 -0.25182,-0.07869c-0.08919,-0.02623 -0.17837,-0.03935 -0.26755,-0.03935c-0.16788,0 -0.32788,0.0341 -0.48002,0.1023c-0.15214,0.06295 -0.28854,0.15476 -0.4092,0.27542c-0.11541,0.11541 -0.20722,0.24919 -0.27542,0.40133c-0.0682,0.15214 -0.1023,0.32002 -0.1023,0.50363v2.72276zM143.92006,141.82808c-0.48265,0 -0.91546,-0.11017 -1.29843,-0.33051c-0.37772,-0.22558 -0.67675,-0.52986 -0.89709,-0.91283c-0.21509,-0.38822 -0.32264,-0.82889 -0.32264,-1.32203c0,-0.49314 0.10755,-0.93119 0.32264,-1.31416c0.22034,-0.38822 0.51937,-0.69249 0.89709,-0.91283c0.38297,-0.22558 0.81578,-0.33838 1.29843,-0.33838c0.47215,0 0.89709,0.11279 1.27482,0.33838c0.38297,0.22034 0.68462,0.52462 0.90496,0.91283c0.22034,0.38297 0.33051,0.82103 0.33051,1.31416c0,0.49314 -0.11017,0.93382 -0.33051,1.32203c-0.22034,0.38297 -0.52199,0.68725 -0.90496,0.91283c-0.37772,0.22034 -0.80266,0.33051 -1.27482,0.33051zM143.92006,140.94672c0.29379,0 0.55609,-0.07345 0.78692,-0.22034c0.23083,-0.14689 0.41182,-0.34625 0.54298,-0.59806c0.13115,-0.25706 0.19411,-0.5456 0.18886,-0.86562c0.00525,-0.32526 -0.05771,-0.6138 -0.18886,-0.86562c-0.13115,-0.25706 -0.31215,-0.45642 -0.54298,-0.59806c-0.23083,-0.14689 -0.49314,-0.22034 -0.78692,-0.22034c-0.29379,0 -0.55872,0.07345 -0.79479,0.22034c-0.23608,0.14689 -0.41969,0.34887 -0.55085,0.60593c-0.13115,0.25182 -0.19411,0.53773 -0.18886,0.85775c-0.00525,0.32002 0.05771,0.60856 0.18886,0.86562c0.13115,0.25182 0.31477,0.45117 0.55085,0.59806c0.23608,0.14689 0.50101,0.22034 0.79479,0.22034zM149.57262,141.82808c-0.45642,0 -0.86562,-0.11279 -1.2276,-0.33838c-0.35674,-0.22558 -0.64003,-0.53248 -0.84988,-0.9207c-0.20985,-0.38822 -0.31477,-0.82365 -0.31477,-1.30629c0,-0.48265 0.10492,-0.91808 0.31477,-1.30629c0.20985,-0.38822 0.49314,-0.69512 0.84988,-0.9207c0.36199,-0.22558 0.77119,-0.33838 1.2276,-0.33838c0.44068,0 0.83939,0.08919 1.19612,0.26755c0.36199,0.17837 0.63741,0.42232 0.82627,0.73184l-0.53511,0.65315c-0.09968,-0.14165 -0.22821,-0.2728 -0.38559,-0.39346c-0.15738,-0.12066 -0.32526,-0.21509 -0.50363,-0.28329c-0.17312,-0.0682 -0.341,-0.1023 -0.50363,-0.1023c-0.29903,0 -0.56659,0.07345 -0.80266,0.22034c-0.23608,0.14689 -0.42232,0.34887 -0.55872,0.60593c-0.1364,0.25706 -0.2046,0.5456 -0.2046,0.86562c0,0.32002 0.07082,0.60856 0.21247,0.86562c0.14689,0.25182 0.33838,0.45379 0.57445,0.60593c0.23608,0.14689 0.49839,0.22034 0.78692,0.22034c0.17312,0 0.33838,-0.02885 0.49576,-0.08656c0.15738,-0.05771 0.31215,-0.14165 0.46429,-0.25182c0.15214,-0.11541 0.29379,-0.25444 0.42494,-0.41707l0.53511,0.66102c-0.19936,0.28329 -0.48527,0.51675 -0.85775,0.70036c-0.37248,0.17837 -0.76069,0.26755 -1.16465,0.26755zM154.80401,141.82808c-0.50363,0 -0.95218,-0.10755 -1.34564,-0.32264c-0.38822,-0.21509 -0.69512,-0.5115 -0.9207,-0.88922c-0.22034,-0.37772 -0.33051,-0.81053 -0.33051,-1.29843c0,-0.38822 0.06295,-0.74233 0.18886,-1.06235c0.12591,-0.32002 0.29903,-0.59544 0.51937,-0.82627c0.22034,-0.23608 0.48527,-0.41707 0.79479,-0.54298c0.31477,-0.13115 0.65315,-0.19673 1.01513,-0.19673c0.32002,0 0.61642,0.06033 0.88922,0.18099c0.27805,0.12066 0.51675,0.28854 0.7161,0.50363c0.2046,0.21509 0.36199,0.46953 0.47215,0.76332c0.11017,0.28854 0.16263,0.60331 0.15738,0.94431l-0.00787,0.41707h-4.02905l-0.22034,-0.77119h3.40738l-0.13378,0.15738v-0.22034c-0.02098,-0.20985 -0.09181,-0.39609 -0.21247,-0.55872c-0.11541,-0.16263 -0.26493,-0.29116 -0.44855,-0.38559c-0.18362,-0.09443 -0.38035,-0.14165 -0.59019,-0.14165c-0.341,0 -0.62692,0.06558 -0.85775,0.19673c-0.23083,0.12591 -0.40658,0.31477 -0.52724,0.56659c-0.11541,0.24657 -0.17312,0.55085 -0.17312,0.91283c0,0.341 0.07082,0.64003 0.21247,0.89709c0.14165,0.25182 0.34362,0.44855 0.60593,0.59019c0.26755,0.1364 0.57183,0.2046 0.91283,0.2046c0.24657,0 0.47478,-0.03935 0.68462,-0.11804c0.20985,-0.08394 0.43805,-0.23345 0.68462,-0.44855l0.48789,0.68462c-0.15214,0.15214 -0.33575,0.28592 -0.55085,0.40133c-0.21509,0.11017 -0.4433,0.19936 -0.68462,0.26755c-0.24132,0.06295 -0.48002,0.09443 -0.7161,0.09443zM159.65685,141.82808c-0.41445,0 -0.78692,-0.07082 -1.11743,-0.21247c-0.33051,-0.14689 -0.60593,-0.36199 -0.82627,-0.64528l0.65315,-0.55872c0.18886,0.21509 0.39346,0.37248 0.6138,0.47215c0.22558,0.09443 0.48002,0.14165 0.76332,0.14165c0.11017,0 0.21247,-0.01311 0.3069,-0.03935c0.09968,-0.02623 0.18624,-0.0682 0.25969,-0.12591c0.07345,-0.05771 0.12853,-0.12591 0.16525,-0.2046c0.03672,-0.07869 0.05508,-0.16525 0.05508,-0.25969c0,-0.16263 -0.06033,-0.29379 -0.18099,-0.39346c-0.06295,-0.04197 -0.16263,-0.08919 -0.29903,-0.14165c-0.13115,-0.05246 -0.30428,-0.10755 -0.51937,-0.16525c-0.36199,-0.09443 -0.65839,-0.19936 -0.88922,-0.31477c-0.23083,-0.12066 -0.4092,-0.25706 -0.53511,-0.4092c-0.09443,-0.12066 -0.16525,-0.24919 -0.21247,-0.38559c-0.04197,-0.14165 -0.06295,-0.29903 -0.06295,-0.47215c0,-0.2046 0.04459,-0.39346 0.13378,-0.56659c0.09443,-0.17312 0.22034,-0.32264 0.37772,-0.44855c0.16263,-0.13115 0.35149,-0.23083 0.56659,-0.29903c0.21509,-0.0682 0.44592,-0.1023 0.69249,-0.1023c0.23083,0 0.45904,0.03148 0.68462,0.09443c0.23083,0.06295 0.4433,0.15476 0.63741,0.27542c0.19411,0.11541 0.35674,0.25444 0.48789,0.41707l-0.55085,0.6138c-0.12066,-0.12066 -0.25182,-0.22558 -0.39346,-0.31477c-0.14165,-0.08919 -0.28592,-0.15738 -0.43281,-0.2046c-0.14165,-0.05246 -0.27018,-0.07869 -0.38559,-0.07869c-0.13115,0 -0.25182,0.01311 -0.36199,0.03935c-0.10492,0.02098 -0.19411,0.05771 -0.26755,0.11017c-0.0682,0.04722 -0.12328,0.11017 -0.16525,0.18886c-0.03672,0.07345 -0.05508,0.15738 -0.05508,0.25182c0.00525,0.07869 0.02623,0.15476 0.06295,0.22821c0.03672,0.07345 0.08656,0.13378 0.14952,0.18099c0.0682,0.05246 0.1705,0.10755 0.3069,0.16525c0.1364,0.05246 0.31215,0.10492 0.52724,0.15738c0.30952,0.07869 0.56659,0.16788 0.77119,0.26755c0.2046,0.09443 0.36723,0.2046 0.48789,0.33051c0.12591,0.12066 0.21247,0.25969 0.25969,0.41707c0.05246,0.15738 0.07869,0.33313 0.07869,0.52724c0,0.27805 -0.08132,0.52986 -0.24395,0.75545c-0.15738,0.22034 -0.37248,0.39346 -0.64528,0.51937c-0.26755,0.12591 -0.56659,0.18886 -0.89709,0.18886zM164.15747,141.82808c-0.41445,0 -0.78692,-0.07082 -1.11743,-0.21247c-0.33051,-0.14689 -0.60593,-0.36199 -0.82627,-0.64528l0.65315,-0.55872c0.18886,0.21509 0.39346,0.37248 0.6138,0.47215c0.22558,0.09443 0.48002,0.14165 0.76332,0.14165c0.11017,0 0.21247,-0.01311 0.3069,-0.03935c0.09968,-0.02623 0.18624,-0.0682 0.25969,-0.12591c0.07345,-0.05771 0.12853,-0.12591 0.16525,-0.2046c0.03672,-0.07869 0.05508,-0.16525 0.05508,-0.25969c0,-0.16263 -0.06033,-0.29379 -0.18099,-0.39346c-0.06295,-0.04197 -0.16263,-0.08919 -0.29903,-0.14165c-0.13115,-0.05246 -0.30428,-0.10755 -0.51937,-0.16525c-0.36199,-0.09443 -0.65839,-0.19936 -0.88922,-0.31477c-0.23083,-0.12066 -0.4092,-0.25706 -0.53511,-0.4092c-0.09443,-0.12066 -0.16525,-0.24919 -0.21247,-0.38559c-0.04197,-0.14165 -0.06295,-0.29903 -0.06295,-0.47215c0,-0.2046 0.04459,-0.39346 0.13378,-0.56659c0.09443,-0.17312 0.22034,-0.32264 0.37772,-0.44855c0.16263,-0.13115 0.35149,-0.23083 0.56659,-0.29903c0.21509,-0.0682 0.44592,-0.1023 0.69249,-0.1023c0.23083,0 0.45904,0.03148 0.68462,0.09443c0.23083,0.06295 0.4433,0.15476 0.63741,0.27542c0.19411,0.11541 0.35674,0.25444 0.48789,0.41707l-0.55085,0.6138c-0.12066,-0.12066 -0.25182,-0.22558 -0.39346,-0.31477c-0.14165,-0.08919 -0.28592,-0.15738 -0.43281,-0.2046c-0.14165,-0.05246 -0.27018,-0.07869 -0.38559,-0.07869c-0.13115,0 -0.25182,0.01311 -0.36199,0.03935c-0.10492,0.02098 -0.19411,0.05771 -0.26755,0.11017c-0.0682,0.04722 -0.12328,0.11017 -0.16525,0.18886c-0.03672,0.07345 -0.05508,0.15738 -0.05508,0.25182c0.00525,0.07869 0.02623,0.15476 0.06295,0.22821c0.03672,0.07345 0.08656,0.13378 0.14952,0.18099c0.0682,0.05246 0.1705,0.10755 0.3069,0.16525c0.1364,0.05246 0.31215,0.10492 0.52724,0.15738c0.30952,0.07869 0.56659,0.16788 0.77119,0.26755c0.2046,0.09443 0.36723,0.2046 0.48789,0.33051c0.12591,0.12066 0.21247,0.25969 0.25969,0.41707c0.05246,0.15738 0.07869,0.33313 0.07869,0.52724c0,0.27805 -0.08132,0.52986 -0.24395,0.75545c-0.15738,0.22034 -0.37248,0.39346 -0.64528,0.51937c-0.26755,0.12591 -0.56659,0.18886 -0.89709,0.18886zM169.31124,141.82808c-0.50363,0 -0.95218,-0.10755 -1.34564,-0.32264c-0.38822,-0.21509 -0.69512,-0.5115 -0.9207,-0.88922c-0.22034,-0.37772 -0.33051,-0.81053 -0.33051,-1.29843c0,-0.38822 0.06295,-0.74233 0.18886,-1.06235c0.12591,-0.32002 0.29903,-0.59544 0.51937,-0.82627c0.22034,-0.23608 0.48527,-0.41707 0.79479,-0.54298c0.31477,-0.13115 0.65315,-0.19673 1.01513,-0.19673c0.32002,0 0.61642,0.06033 0.88922,0.18099c0.27805,0.12066 0.51675,0.28854 0.7161,0.50363c0.2046,0.21509 0.36199,0.46953 0.47215,0.76332c0.11017,0.28854 0.16263,0.60331 0.15738,0.94431l-0.00787,0.41707h-4.02905l-0.22034,-0.77119h3.40738l-0.13378,0.15738v-0.22034c-0.02098,-0.20985 -0.09181,-0.39609 -0.21247,-0.55872c-0.11541,-0.16263 -0.26493,-0.29116 -0.44855,-0.38559c-0.18362,-0.09443 -0.38035,-0.14165 -0.59019,-0.14165c-0.341,0 -0.62692,0.06558 -0.85775,0.19673c-0.23083,0.12591 -0.40658,0.31477 -0.52724,0.56659c-0.11541,0.24657 -0.17312,0.55085 -0.17312,0.91283c0,0.341 0.07082,0.64003 0.21247,0.89709c0.14165,0.25182 0.34362,0.44855 0.60593,0.59019c0.26755,0.1364 0.57183,0.2046 0.91283,0.2046c0.24657,0 0.47478,-0.03935 0.68462,-0.11804c0.20985,-0.08394 0.43805,-0.23345 0.68462,-0.44855l0.48789,0.68462c-0.15214,0.15214 -0.33575,0.28592 -0.55085,0.40133c-0.21509,0.11017 -0.4433,0.19936 -0.68462,0.26755c-0.24132,0.06295 -0.48002,0.09443 -0.7161,0.09443zM174.16408,141.82808c-0.41445,0 -0.78692,-0.07082 -1.11743,-0.21247c-0.33051,-0.14689 -0.60593,-0.36199 -0.82627,-0.64528l0.65315,-0.55872c0.18886,0.21509 0.39346,0.37248 0.6138,0.47215c0.22558,0.09443 0.48002,0.14165 0.76332,0.14165c0.11017,0 0.21247,-0.01311 0.3069,-0.03935c0.09968,-0.02623 0.18624,-0.0682 0.25969,-0.12591c0.07345,-0.05771 0.12853,-0.12591 0.16525,-0.2046c0.03672,-0.07869 0.05508,-0.16525 0.05508,-0.25969c0,-0.16263 -0.06033,-0.29379 -0.18099,-0.39346c-0.06295,-0.04197 -0.16263,-0.08919 -0.29903,-0.14165c-0.13115,-0.05246 -0.30428,-0.10755 -0.51937,-0.16525c-0.36199,-0.09443 -0.65839,-0.19936 -0.88922,-0.31477c-0.23083,-0.12066 -0.4092,-0.25706 -0.53511,-0.4092c-0.09443,-0.12066 -0.16525,-0.24919 -0.21247,-0.38559c-0.04197,-0.14165 -0.06295,-0.29903 -0.06295,-0.47215c0,-0.2046 0.04459,-0.39346 0.13378,-0.56659c0.09443,-0.17312 0.22034,-0.32264 0.37772,-0.44855c0.16263,-0.13115 0.35149,-0.23083 0.56659,-0.29903c0.21509,-0.0682 0.44592,-0.1023 0.69249,-0.1023c0.23083,0 0.45904,0.03148 0.68462,0.09443c0.23083,0.06295 0.4433,0.15476 0.63741,0.27542c0.19411,0.11541 0.35674,0.25444 0.48789,0.41707l-0.55085,0.6138c-0.12066,-0.12066 -0.25182,-0.22558 -0.39346,-0.31477c-0.14165,-0.08919 -0.28592,-0.15738 -0.43281,-0.2046c-0.14165,-0.05246 -0.27018,-0.07869 -0.38559,-0.07869c-0.13115,0 -0.25182,0.01311 -0.36199,0.03935c-0.10492,0.02098 -0.19411,0.05771 -0.26755,0.11017c-0.0682,0.04722 -0.12328,0.11017 -0.16525,0.18886c-0.03672,0.07345 -0.05508,0.15738 -0.05508,0.25182c0.00525,0.07869 0.02623,0.15476 0.06295,0.22821c0.03672,0.07345 0.08656,0.13378 0.14952,0.18099c0.0682,0.05246 0.1705,0.10755 0.3069,0.16525c0.1364,0.05246 0.31215,0.10492 0.52724,0.15738c0.30952,0.07869 0.56659,0.16788 0.77119,0.26755c0.2046,0.09443 0.36723,0.2046 0.48789,0.33051c0.12591,0.12066 0.21247,0.25969 0.25969,0.41707c0.05246,0.15738 0.07869,0.33313 0.07869,0.52724c0,0.27805 -0.08132,0.52986 -0.24395,0.75545c-0.15738,0.22034 -0.37248,0.39346 -0.64528,0.51937c-0.26755,0.12591 -0.56659,0.18886 -0.89709,0.18886zM177.4135,141.82808c-0.2046,0 -0.36461,-0.06033 -0.48002,-0.18099c-0.11017,-0.12066 -0.16525,-0.29379 -0.16525,-0.51937c0,-0.20985 0.05771,-0.38035 0.17312,-0.5115c0.12066,-0.13115 0.27805,-0.19673 0.47215,-0.19673c0.20985,0 0.36985,0.06295 0.48002,0.18886c0.11541,0.12066 0.17312,0.29379 0.17312,0.51937c0,0.2046 -0.06033,0.37248 -0.18099,0.50363c-0.12066,0.13115 -0.27805,0.19673 -0.47215,0.19673zM177.4135,138.11379c-0.2046,0 -0.36461,-0.06033 -0.48002,-0.18099c-0.11017,-0.12066 -0.16525,-0.29379 -0.16525,-0.51937c0,-0.20985 0.05771,-0.38035 0.17312,-0.5115c0.12066,-0.13115 0.27805,-0.19673 0.47215,-0.19673c0.20985,0 0.36985,0.06295 0.48002,0.18886c0.11541,0.12066 0.17312,0.29379 0.17312,0.51937c0,0.2046 -0.06033,0.37248 -0.18099,0.50363c-0.12066,0.13115 -0.27805,0.19673 -0.47215,0.19673z" fill="#ffffff" fill-rule="nonzero" stroke-width="1" stroke-linecap="square"/><path d="M128,179.68751h172.63385v20.30987h-172.63384z" fill-opacity="0" fill="#000000" fill-rule="evenodd" stroke-width="1" stroke-linecap="square"/><path d="M135.87769,192.79093c-0.44814,0 -0.86103,-0.08057 -1.23868,-0.24169c-0.37261,-0.16617 -0.69991,-0.39275 -0.98188,-0.67977c-0.27694,-0.29205 -0.49346,-0.63444 -0.64955,-1.02719c-0.15106,-0.39778 -0.22659,-0.83082 -0.22659,-1.2991c0,-0.46828 0.07552,-0.8988 0.22659,-1.29155c0.15609,-0.39275 0.37261,-0.73515 0.64955,-1.0272c0.28197,-0.29205 0.60927,-0.51863 0.98188,-0.67976c0.37765,-0.16617 0.79054,-0.24925 1.23868,-0.24925c0.44311,0 0.85097,0.08308 1.22358,0.24925c0.37765,0.16113 0.70746,0.39024 0.98944,0.68732c0.28197,0.29205 0.49849,0.63444 0.64955,1.0272c0.15106,0.39275 0.22659,0.82075 0.22659,1.284c0,0.46325 -0.07552,0.89124 -0.22659,1.284c-0.15106,0.39275 -0.36757,0.73767 -0.64955,1.03475c-0.28197,0.29205 -0.61179,0.52115 -0.98944,0.68731c-0.37261,0.16113 -0.78047,0.24169 -1.22358,0.24169zM135.87769,191.84681c0.30715,0 0.58661,-0.05791 0.83838,-0.17372c0.2568,-0.11581 0.47835,-0.27694 0.66466,-0.48338c0.18631,-0.20645 0.33233,-0.44814 0.43807,-0.72508c0.10574,-0.28197 0.15861,-0.58912 0.15861,-0.92146c0,-0.33233 -0.05287,-0.63697 -0.15861,-0.9139c-0.10574,-0.28197 -0.25177,-0.52619 -0.43807,-0.73264c-0.18631,-0.20645 -0.40786,-0.36506 -0.66466,-0.47583c-0.25177,-0.11581 -0.53123,-0.17371 -0.83838,-0.17371c-0.30715,0 -0.58912,0.0579 -0.84592,0.17371c-0.2568,0.11077 -0.48087,0.26939 -0.67221,0.47583c-0.18631,0.20141 -0.32981,0.44311 -0.43051,0.72508c-0.10071,0.27694 -0.15106,0.58409 -0.15106,0.92146c0,0.33233 0.05035,0.63948 0.15106,0.92146c0.10071,0.28197 0.24421,0.52618 0.43051,0.73263c0.19134,0.20141 0.41541,0.36002 0.67221,0.47583c0.2568,0.11581 0.53877,0.17372 0.84592,0.17372zM140.05226,194.68671v-6.7221h0.93656v1.08007l-0.14351,-0.07553c0.03525,-0.18127 0.13595,-0.35498 0.30212,-0.52115c0.1712,-0.16617 0.37765,-0.30212 0.61934,-0.40786c0.24673,-0.10574 0.49849,-0.15861 0.75529,-0.15861c0.428,0 0.80564,0.10574 1.13294,0.31722c0.33233,0.21148 0.59417,0.50101 0.78551,0.86859c0.19637,0.36757 0.29457,0.78802 0.29457,1.26133c0,0.46828 -0.09567,0.88873 -0.28701,1.26134c-0.19134,0.36757 -0.45317,0.65963 -0.78551,0.87614c-0.32729,0.21148 -0.69739,0.31722 -1.11028,0.31722c-0.27694,0 -0.54633,-0.05539 -0.80817,-0.16616c-0.2568,-0.11077 -0.47583,-0.25428 -0.6571,-0.43052c-0.18127,-0.17623 -0.29204,-0.35751 -0.33233,-0.54381l0.23414,-0.12085v3.16467zM142.39367,191.92234c0.27694,0 0.52367,-0.06797 0.74018,-0.20393c0.21651,-0.14099 0.38772,-0.32981 0.5136,-0.56647c0.12588,-0.24169 0.18882,-0.51612 0.18882,-0.82327c0,-0.30715 -0.06294,-0.57905 -0.18882,-0.81571c-0.12085,-0.23666 -0.28953,-0.42296 -0.50605,-0.55892c-0.21148,-0.14099 -0.46073,-0.21148 -0.74774,-0.21148c-0.28197,0 -0.53123,0.06797 -0.74774,0.20392c-0.21651,0.13595 -0.38772,0.32478 -0.5136,0.56647c-0.12588,0.23666 -0.18882,0.50856 -0.18882,0.81571c0,0.30715 0.06294,0.58158 0.18882,0.82327c0.12588,0.23666 0.29709,0.42549 0.5136,0.56647c0.21651,0.13595 0.46577,0.20393 0.74774,0.20393zM147.94819,192.79093c-0.48338,0 -0.9139,-0.10322 -1.29155,-0.30967c-0.37261,-0.20645 -0.66718,-0.49094 -0.8837,-0.85348c-0.21148,-0.36254 -0.31722,-0.77796 -0.31722,-1.24624c0,-0.37261 0.06043,-0.71249 0.18127,-1.01964c0.12085,-0.30715 0.28701,-0.57151 0.49849,-0.79306c0.21148,-0.22659 0.46577,-0.40031 0.76284,-0.52115c0.30211,-0.12588 0.6269,-0.18882 0.97433,-0.18882c0.30715,0 0.59164,0.05791 0.85348,0.17372c0.26687,0.11581 0.49598,0.27694 0.68732,0.48338c0.19637,0.20645 0.34743,0.45066 0.45317,0.73263c0.10574,0.27694 0.15609,0.57906 0.15106,0.90635l-0.00755,0.40031h-3.86709l-0.21148,-0.74018h3.27042l-0.1284,0.15105v-0.21148c-0.02014,-0.20141 -0.08812,-0.38017 -0.20393,-0.53626c-0.11077,-0.15609 -0.25428,-0.27946 -0.43051,-0.37009c-0.17623,-0.09063 -0.36506,-0.13595 -0.56647,-0.13595c-0.32729,0 -0.60172,0.06295 -0.82327,0.18883c-0.22155,0.12085 -0.39023,0.30211 -0.50605,0.54381c-0.11077,0.23666 -0.16616,0.52871 -0.16616,0.87614c0,0.32729 0.06797,0.6143 0.20393,0.86103c0.13595,0.24169 0.32981,0.43051 0.58158,0.56647c0.2568,0.13092 0.54885,0.19638 0.87614,0.19638c0.23666,0 0.45569,-0.03776 0.6571,-0.11329c0.20141,-0.08057 0.42045,-0.22407 0.65711,-0.43052l0.46829,0.65711c-0.14603,0.14603 -0.32226,0.27443 -0.52871,0.3852c-0.20645,0.10574 -0.42549,0.19134 -0.65711,0.2568c-0.23162,0.06043 -0.46072,0.09063 -0.68731,0.09063zM151.0274,192.70029v-4.73568h0.92901v0.97433l-0.16616,0.10574c0.06043,-0.20645 0.17875,-0.39779 0.35499,-0.57402c0.17623,-0.18127 0.38268,-0.32729 0.61934,-0.43807c0.24169,-0.11077 0.48842,-0.16617 0.74018,-0.16617c0.36254,0 0.66214,0.07049 0.8988,0.21148c0.24169,0.14099 0.42296,0.35751 0.54381,0.64955c0.12085,0.28701 0.18127,0.64955 0.18127,1.08763v2.88521h-0.92901v-2.82479c0,-0.26687 -0.03525,-0.48842 -0.10574,-0.66466c-0.07049,-0.18127 -0.18127,-0.31219 -0.33233,-0.39275c-0.15106,-0.08057 -0.33736,-0.11581 -0.55891,-0.10574c-0.18127,0 -0.34743,0.03021 -0.49849,0.09063c-0.15106,0.05539 -0.28198,0.13596 -0.39275,0.2417c-0.11077,0.10071 -0.19889,0.21903 -0.26435,0.35498c-0.06043,0.13092 -0.09064,0.27443 -0.09064,0.43052v2.87011h-0.46072c-0.07553,0 -0.15357,0 -0.23414,0c-0.08057,0 -0.15861,0 -0.23414,0zM160.49687,192.70029l-2.00908,-6.31424h1.03475l1.21602,3.95018c0.03525,0.09567 0.06798,0.20896 0.09819,0.33988c0.03021,0.13092 0.05791,0.26183 0.08308,0.39275c0.02517,0.13092 0.04783,0.25428 0.06797,0.37009c0.02014,0.11581 0.04029,0.20897 0.06043,0.27946l-0.26435,-0.00755c0.09063,-0.32226 0.16113,-0.56898 0.21148,-0.74018c0.05035,-0.17623 0.09063,-0.30967 0.12085,-0.40031c0.03021,-0.09567 0.05791,-0.17624 0.08309,-0.2417l1.13294,-2.84745h0.87614l1.10273,2.84745c0.06043,0.14603 0.11329,0.28954 0.15861,0.43052c0.04532,0.14099 0.0856,0.28198 0.12085,0.42296c0.03525,0.14099 0.07553,0.28953 0.12085,0.44563l-0.2417,0.06042c0.03021,-0.16113 0.05287,-0.28701 0.06798,-0.37765c0.01511,-0.09567 0.02769,-0.17371 0.03776,-0.23414c0.01511,-0.06043 0.02769,-0.11833 0.03777,-0.17372c0.01511,-0.06043 0.03525,-0.13343 0.06043,-0.21903c0.03021,-0.09063 0.06797,-0.214 0.11329,-0.37009l1.20091,-3.92752h1.04986l-2.01663,6.31425h-0.67221l-1.6692,-3.95018l0.08309,0.03777l-1.60878,3.91241zM168.05149,192.70029v-4.73568h0.92901v4.73568zM168.50467,186.92231c-0.19637,0 -0.34995,-0.05035 -0.46072,-0.15106c-0.10574,-0.10574 -0.15861,-0.25176 -0.15861,-0.43807c0,-0.17623 0.05539,-0.31722 0.16617,-0.42296c0.11077,-0.11077 0.26183,-0.16617 0.45317,-0.16617c0.19637,0 0.34744,0.05287 0.45318,0.15861c0.11077,0.10071 0.16617,0.24421 0.16617,0.43052c0,0.17623 -0.05539,0.31975 -0.16617,0.43052c-0.11077,0.10574 -0.26184,0.15861 -0.45318,0.15861zM170.40749,192.70029v-4.73568h0.92901v0.97433l-0.16617,0.10574c0.06043,-0.20645 0.17875,-0.39779 0.35498,-0.57402c0.17623,-0.18127 0.38268,-0.32729 0.61934,-0.43807c0.24169,-0.11077 0.48843,-0.16617 0.74019,-0.16617c0.36254,0 0.66213,0.07049 0.89879,0.21148c0.24169,0.14099 0.42297,0.35751 0.54381,0.64955c0.12085,0.28701 0.18127,0.64955 0.18127,1.08763v2.88521h-0.92901v-2.82479c0,-0.26687 -0.03525,-0.48842 -0.10574,-0.66466c-0.07049,-0.18127 -0.18127,-0.31219 -0.33233,-0.39275c-0.15106,-0.08057 -0.33736,-0.11581 -0.55891,-0.10574c-0.18127,0 -0.34743,0.03021 -0.49849,0.09063c-0.15106,0.05539 -0.28198,0.13596 -0.39275,0.2417c-0.11077,0.10071 -0.19889,0.21903 -0.26435,0.35498c-0.06043,0.13092 -0.09063,0.27443 -0.09063,0.43052v2.87011h-0.46073c-0.07553,0 -0.15357,0 -0.23414,0c-0.08057,0 -0.15861,0 -0.23414,0zM177.74462,192.79093c-0.43303,0 -0.81823,-0.10574 -1.1556,-0.31722c-0.33737,-0.21651 -0.60675,-0.50857 -0.80816,-0.87614c-0.19637,-0.37261 -0.29456,-0.79557 -0.29456,-1.26889c0,-0.47332 0.09567,-0.89376 0.28701,-1.26133c0.19637,-0.37261 0.46325,-0.66466 0.80061,-0.87614c0.33737,-0.21651 0.72004,-0.32477 1.14804,-0.32477c0.23162,0 0.45821,0.03777 0.67976,0.11329c0.22155,0.07553 0.41793,0.17875 0.58913,0.30967c0.17623,0.12588 0.31218,0.26686 0.40786,0.42296c0.10071,0.15106 0.15106,0.30464 0.15106,0.46073l-0.27191,0.02266v-3.17223h0.92901v6.67678h-0.92901v-1.12538h0.18127c0,0.14099 -0.04783,0.28449 -0.1435,0.43051c-0.09567,0.14099 -0.22407,0.27191 -0.3852,0.39275c-0.15609,0.11581 -0.33988,0.21149 -0.55136,0.28701c-0.20645,0.07049 -0.41793,0.10574 -0.63445,0.10574zM177.87302,191.99032c0.28197,0 0.53123,-0.07301 0.74774,-0.21904c0.21651,-0.14603 0.3852,-0.3424 0.50605,-0.58913c0.12588,-0.25177 0.18883,-0.53626 0.18883,-0.85348c0,-0.31723 -0.06295,-0.59919 -0.18883,-0.84592c-0.12085,-0.25177 -0.28953,-0.45065 -0.50605,-0.59668c-0.21651,-0.14603 -0.46577,-0.21903 -0.74774,-0.21903c-0.28197,0 -0.53122,0.07301 -0.74774,0.21903c-0.21651,0.14603 -0.38772,0.34491 -0.5136,0.59668c-0.12085,0.24673 -0.18127,0.5287 -0.18127,0.84592c0,0.31723 0.06043,0.60172 0.18127,0.85348c0.12588,0.24673 0.29709,0.4431 0.5136,0.58913c0.21651,0.14603 0.46576,0.21904 0.74774,0.21904zM183.62076,192.79093c-0.46325,0 -0.87866,-0.10574 -1.24623,-0.31722c-0.36254,-0.21651 -0.64955,-0.50857 -0.86103,-0.87614c-0.20645,-0.37261 -0.30967,-0.79557 -0.30967,-1.26889c0,-0.47332 0.10323,-0.89376 0.30967,-1.26133c0.21148,-0.37261 0.49849,-0.66466 0.86103,-0.87614c0.36757,-0.21651 0.78298,-0.32477 1.24623,-0.32477c0.45317,0 0.86104,0.10826 1.22358,0.32477c0.36757,0.21148 0.65711,0.50353 0.86858,0.87614c0.21148,0.36757 0.31723,0.78802 0.31723,1.26133c0,0.47332 -0.10575,0.89628 -0.31723,1.26889c-0.21148,0.36757 -0.50101,0.65963 -0.86858,0.87614c-0.36254,0.21148 -0.7704,0.31722 -1.22358,0.31722zM183.62076,191.945c0.28197,0 0.53374,-0.07049 0.7553,-0.21148c0.22155,-0.14099 0.39527,-0.33233 0.52115,-0.57402c0.12588,-0.24673 0.1863,-0.52367 0.18127,-0.83083c0.00503,-0.31219 -0.05539,-0.58912 -0.18127,-0.83082c-0.12588,-0.24673 -0.2996,-0.43806 -0.52115,-0.57402c-0.22155,-0.14099 -0.47332,-0.21149 -0.7553,-0.21149c-0.28197,0 -0.53626,0.0705 -0.76284,0.21149c-0.22659,0.14099 -0.40283,0.33484 -0.52871,0.58157c-0.12588,0.24169 -0.1863,0.51611 -0.18127,0.82326c-0.00503,0.30715 0.05539,0.58409 0.18127,0.83083c0.12588,0.24169 0.30212,0.43304 0.52871,0.57402c0.22659,0.14099 0.48087,0.21148 0.76284,0.21148zM188.01971,192.70029l-1.61633,-4.73568l0.93656,-0.00755l1.1556,3.54232l-0.20393,-0.0151l1.25378,-2.77193h0.55892l1.26134,2.77947l-0.24169,0.01511l1.16315,-3.54232h0.93656l-1.59367,4.73568h-0.642l-1.32176,-3.01361l0.21149,0.03021l-1.22358,2.98341zM195.60456,192.79093c-0.39778,0 -0.75529,-0.06797 -1.07252,-0.20393c-0.31723,-0.14099 -0.58157,-0.34743 -0.79305,-0.61934l0.62689,-0.53626c0.18127,0.20645 0.37765,0.35751 0.58913,0.45318c0.21651,0.09063 0.46072,0.13595 0.73263,0.13595c0.10574,0 0.20393,-0.01259 0.29457,-0.03776c0.09567,-0.02517 0.17875,-0.06546 0.24925,-0.12085c0.07049,-0.05539 0.12337,-0.12085 0.15861,-0.19638c0.03525,-0.07553 0.05287,-0.15861 0.05287,-0.24925c0,-0.15609 -0.05791,-0.28197 -0.17372,-0.37765c-0.06043,-0.04029 -0.15609,-0.0856 -0.28701,-0.13595c-0.12588,-0.05035 -0.29205,-0.10323 -0.49849,-0.15861c-0.34743,-0.09063 -0.63192,-0.19134 -0.85348,-0.30211c-0.22155,-0.11581 -0.39276,-0.24672 -0.5136,-0.39275c-0.09063,-0.11581 -0.15861,-0.23917 -0.20393,-0.37009c-0.04029,-0.13595 -0.06043,-0.28701 -0.06043,-0.45318c0,-0.19637 0.0428,-0.37765 0.1284,-0.54381c0.09063,-0.16617 0.21148,-0.30967 0.36254,-0.43051c0.15609,-0.12588 0.33737,-0.22155 0.54381,-0.28701c0.20645,-0.06546 0.428,-0.09819 0.66466,-0.09819c0.22155,0 0.44059,0.03021 0.65711,0.09063c0.22155,0.06043 0.42548,0.14854 0.61178,0.26435c0.18631,0.11077 0.3424,0.24421 0.46828,0.40031l-0.52871,0.58913c-0.11581,-0.11581 -0.24169,-0.21652 -0.37765,-0.30212c-0.13595,-0.0856 -0.27443,-0.15105 -0.41541,-0.19637c-0.13595,-0.05035 -0.25932,-0.07553 -0.37009,-0.07553c-0.12588,0 -0.2417,0.01259 -0.34744,0.03776c-0.10071,0.02014 -0.1863,0.0554 -0.25679,0.10575c-0.06546,0.04532 -0.11833,0.10574 -0.15861,0.18127c-0.03525,0.07049 -0.05287,0.15106 -0.05287,0.24169c0.00503,0.07553 0.02518,0.14854 0.06043,0.21904c0.03525,0.07049 0.08308,0.1284 0.14351,0.17372c0.06546,0.05035 0.16364,0.10322 0.29456,0.15861c0.13092,0.05035 0.2996,0.10071 0.50605,0.15106c0.29708,0.07553 0.54381,0.16112 0.74019,0.2568c0.19637,0.09063 0.35247,0.19638 0.46828,0.31722c0.12085,0.11581 0.20393,0.24925 0.24925,0.40031c0.05035,0.15106 0.07552,0.31974 0.07552,0.50605c0,0.26687 -0.07805,0.50857 -0.23414,0.72508c-0.15106,0.21148 -0.35751,0.37765 -0.61934,0.49849c-0.2568,0.12085 -0.5438,0.18127 -0.86103,0.18127zM198.72335,192.79093c-0.19637,0 -0.34996,-0.05791 -0.46073,-0.17372c-0.10574,-0.11581 -0.15861,-0.28198 -0.15861,-0.49849c0,-0.20141 0.05539,-0.36506 0.16617,-0.49094c0.11581,-0.12588 0.26687,-0.18883 0.45318,-0.18883c0.20141,0 0.35499,0.06042 0.46073,0.18127c0.11077,0.11581 0.16617,0.28198 0.16617,0.4985c0,0.19637 -0.05791,0.35751 -0.17372,0.48338c-0.11581,0.12588 -0.26687,0.18882 -0.45317,0.18882zM198.72335,189.22595c-0.19637,0 -0.34996,-0.0579 -0.46073,-0.17371c-0.10574,-0.11581 -0.15861,-0.28198 -0.15861,-0.4985c0,-0.20141 0.05539,-0.36506 0.16617,-0.49094c0.11581,-0.12588 0.26687,-0.18882 0.45318,-0.18882c0.20141,0 0.35499,0.06042 0.46073,0.18127c0.11077,0.11581 0.16617,0.28198 0.16617,0.49849c0,0.19637 -0.05791,0.35751 -0.17372,0.48338c-0.11581,0.12588 -0.26687,0.18883 -0.45317,0.18883z" fill="#ffffff" fill-rule="nonzero" stroke-width="1" stroke-linecap="square"/></g></g></svg>