<svg version="1.1" xmlns="http://www.w3.org/2000/svg" xmlns:xlink="http://www.w3.org/1999/xlink" width="16" height="21" viewBox="0,0,16,21"><g transform="translate(-232,-169.5)"><g data-paper-data="{&quot;isPaintingLayer&quot;:true}" fill="#ffffff" fill-rule="nonzero" stroke="none" stroke-width="1" stroke-linecap="butt" stroke-linejoin="miter" stroke-miterlimit="10" stroke-dasharray="" stroke-dashoffset="0" style="mix-blend-mode: normal"><path d="M234,190.5c-0.55,0 -1.02083,-0.19583 -1.4125,-0.5875c-0.39167,-0.39167 -0.5875,-0.8625 -0.5875,-1.4125v-10c0,-0.55 0.19583,-1.02083 0.5875,-1.4125c0.39167,-0.39167 0.8625,-0.5875 1.4125,-0.5875h1v-2c0,-1.38333 0.4875,-2.5625 1.4625,-3.5375c0.975,-0.975 2.15417,-1.4625 3.5375,-1.4625c1.38333,0 2.5625,0.4875 3.5375,1.4625c0.975,0.975 1.4625,2.15417 1.4625,3.5375v2h1c0.55,0 1.02083,0.19583 1.4125,0.5875c0.39167,0.39167 0.5875,0.8625 0.5875,1.4125v10c0,0.55 -0.19583,1.02083 -0.5875,1.4125c-0.39167,0.39167 -0.8625,0.5875 -1.4125,0.5875zM234,188.5h12v-10h-12zM240,185.5c0.55,0 1.02083,-0.19583 1.4125,-0.5875c0.39167,-0.39167 0.5875,-0.8625 0.5875,-1.4125c0,-0.55 -0.19583,-1.02083 -0.5875,-1.4125c-0.39167,-0.39167 -0.8625,-0.5875 -1.4125,-0.5875c-0.55,0 -1.02083,0.19583 -1.4125,0.5875c-0.39167,0.39167 -0.5875,0.8625 -0.5875,1.4125c0,0.55 0.19583,1.02083 0.5875,1.4125c0.39167,0.39167 0.8625,0.5875 1.4125,0.5875zM237,176.5h6v-2c0,-0.83333 -0.29167,-1.54167 -0.875,-2.125c-0.58333,-0.58333 -1.29167,-0.875 -2.125,-0.875c-0.83333,0 -1.54167,0.29167 -2.125,0.875c-0.58333,0.58333 -0.875,1.29167 -0.875,2.125zM234,188.5v-10z"/></g></g></svg>