<svg version="1.1" xmlns="http://www.w3.org/2000/svg" xmlns:xlink="http://www.w3.org/1999/xlink" width="21.58322" height="27.89234" viewBox="0,0,21.58322,27.89234"><g transform="translate(-195.22842,-196.56543)"><g data-paper-data="{&quot;isPaintingLayer&quot;:true}" stroke="none" stroke-width="1" stroke-linecap="square" stroke-linejoin="miter" stroke-miterlimit="10" stroke-dasharray="" stroke-dashoffset="0" style="mix-blend-mode: normal"><path d="M195.22842,198.28946c0,-0.95215 0.41182,-1.72403 0.91982,-1.72403h19.74357c0.24395,0 0.47791,0.18164 0.65041,0.50495c0.1725,0.32331 0.26942,0.76183 0.26942,1.21908v24.44429c0,0.95215 -0.41182,1.72402 -0.91983,1.72402h-19.74357c-0.508,0 -0.91982,-0.77187 -0.91982,-1.72402z" fill-opacity="0.69355" fill="#2d2d2d" fill-rule="evenodd"/><path d="M204.77076,217.42688l-6.45754,-16.13033h4.07987l3.1342,8.21377c0.18012,0.48634 0.33324,0.90964 0.45932,1.26989c0.12609,0.34224 0.23416,0.66647 0.32423,0.97268c0.10808,0.30622 0.20714,0.62144 0.29721,0.94566c0.09007,0.30622 0.18913,0.65746 0.29721,1.05374h-0.72951c0.12609,-0.52237 0.25218,-0.98169 0.37827,-1.37797c0.12609,-0.41429 0.26118,-0.83759 0.40528,-1.26989c0.16211,-0.4323 0.36026,-0.96367 0.59442,-1.59412l2.99911,-8.21377h3.99881l-6.51157,16.13033z" fill="#ffffff" fill-rule="nonzero"/></g></g></svg>