<svg version="1.1" xmlns="http://www.w3.org/2000/svg" xmlns:xlink="http://www.w3.org/1999/xlink" width="38.27083" height="57.67961" viewBox="0,0,38.27083,57.67961"><g transform="translate(-220.86458,-151.16019)"><g data-paper-data="{&quot;isPaintingLayer&quot;:true}" fill="#ffffff" fill-rule="nonzero" stroke="none" stroke-width="1" stroke-linecap="square" stroke-linejoin="miter" stroke-miterlimit="10" stroke-dasharray="" stroke-dashoffset="0" style="mix-blend-mode: normal"><path d="M238.63318,208.83981c-3.78153,0 -7.19857,-0.84288 -10.25112,-2.52861c-3.00699,-1.73131 -5.51282,-4.19157 -7.51749,-7.3808l3.82708,-4.16879c2.27803,3.05255 4.55604,5.17111 6.83408,6.35569c2.32359,1.13901 4.71551,1.70852 7.17578,1.70852c2.59695,0 4.96609,-0.61507 7.10744,-1.8452c2.1869,-1.23013 3.89542,-2.87031 5.12556,-4.92054c1.27569,-2.05022 1.91354,-4.32826 1.91354,-6.83408c0,-2.46027 -0.59228,-4.66996 -1.77686,-6.62906c-1.13901,-2.00467 -2.68808,-3.59927 -4.64717,-4.78385c-1.95909,-1.18458 -4.21434,-1.77686 -6.76574,-1.77686c-1.32126,0 -2.66529,0.15947 -4.03211,0.47839c-1.36682,0.31892 -2.77918,0.7973 -4.23713,1.43516c-1.41237,0.59228 -2.93865,1.34403 -4.57883,2.25525l-3.62206,-4.78385l3.3487,-24.26097h30.82169v5.94565h-27.47299l2.05022,-1.43516l-3.00699,19.95551l-1.91354,-1.29847c0.86564,-0.68341 2.02744,-1.34403 3.48538,-1.98188c1.5035,-0.68341 3.14368,-1.23013 4.92054,-1.64018c1.77686,-0.41004 3.50817,-0.61507 5.1939,-0.61507c3.50817,0 6.65184,0.82009 9.43103,2.46027c2.77918,1.59463 4.98888,3.8043 6.62906,6.62906c1.64018,2.77918 2.46027,5.9912 2.46027,9.63605c0,3.78153 -0.91122,7.19857 -2.73363,10.25112c-1.77686,3.00699 -4.21434,5.39892 -7.31246,7.17578c-3.09812,1.73131 -6.5835,2.59695 -10.45614,2.59695z"/></g></g></svg>