<svg version="1.1" xmlns="http://www.w3.org/2000/svg" xmlns:xlink="http://www.w3.org/1999/xlink" width="58.94307" height="9.05131" viewBox="0,0,58.94307,9.05131"><g transform="translate(-210.52846,-175.47434)"><g data-paper-data="{&quot;isPaintingLayer&quot;:true}" fill="#ffffff" fill-rule="nonzero" stroke="none" stroke-width="1" stroke-linecap="square" stroke-linejoin="miter" stroke-miterlimit="10" stroke-dasharray="" stroke-dashoffset="0" style="mix-blend-mode: normal"><path d="M210.52847,184.40442v-8.44518h3.30332c0.60611,0 1.15162,0.10101 1.63651,0.30306c0.48489,0.20204 0.89906,0.49162 1.24253,0.86876c0.3502,0.37714 0.61622,0.82498 0.79805,1.34355c0.18857,0.51183 0.28285,1.08091 0.28285,1.70722c0,0.62632 -0.09428,1.19876 -0.28285,1.71732c-0.18184,0.51856 -0.44448,0.96642 -0.78795,1.34356c-0.34347,0.37041 -0.76101,0.65662 -1.25263,0.85866c-0.48489,0.20204 -1.0304,0.30306 -1.63651,0.30306zM211.83161,183.28311l-0.04041,-0.13133h1.97997c0.42428,0 0.80479,-0.06734 1.14151,-0.20203c0.33673,-0.14142 0.61959,-0.33673 0.84856,-0.58591c0.22897,-0.25591 0.4007,-0.56907 0.51519,-0.93948c0.12123,-0.37041 0.18184,-0.78458 0.18184,-1.24253c0,-0.45795 -0.06061,-0.86876 -0.18184,-1.23243c-0.11449,-0.37041 -0.28959,-0.68356 -0.5253,-0.93948c-0.23571,-0.25591 -0.51856,-0.45122 -0.84856,-0.58591c-0.32999,-0.14142 -0.70713,-0.21214 -1.13141,-0.21214h-2.01028l0.07072,-0.10102zM222.1872,184.52566c-0.64652,0 -1.22233,-0.13806 -1.72743,-0.41418c-0.49836,-0.27612 -0.89233,-0.65662 -1.18192,-1.14151c-0.28286,-0.48489 -0.42428,-1.04049 -0.42428,-1.66681c0,-0.49836 0.08082,-0.95295 0.24245,-1.36376c0.16163,-0.41081 0.38387,-0.76438 0.66672,-1.0607c0.28286,-0.30306 0.62295,-0.5354 1.02029,-0.69703c0.40408,-0.16836 0.83846,-0.25254 1.30315,-0.25254c0.41081,0 0.79131,0.07745 1.14151,0.23235c0.35693,0.1549 0.66336,0.3704 0.91927,0.64652c0.26265,0.27612 0.46469,0.60274 0.60611,0.97988c0.14142,0.37041 0.20877,0.77447 0.20204,1.21222l-0.0101,0.5354h-5.17217l-0.28285,-0.98999h4.37412l-0.17173,0.20204v-0.28286c-0.02694,-0.26938 -0.11786,-0.50846 -0.27275,-0.71723c-0.14816,-0.20878 -0.34009,-0.37376 -0.57581,-0.49499c-0.23571,-0.12123 -0.48826,-0.18184 -0.75764,-0.18184c-0.43775,0 -0.80479,0.08418 -1.10111,0.25254c-0.29632,0.16163 -0.52193,0.40408 -0.67683,0.72734c-0.14816,0.31653 -0.22224,0.70714 -0.22224,1.17182c0,0.43775 0.09091,0.82162 0.27275,1.15161c0.18184,0.32326 0.44112,0.57581 0.77785,0.75764c0.34347,0.1751 0.73407,0.26265 1.17182,0.26265c0.31653,0 0.60948,-0.0505 0.87887,-0.15152c0.26938,-0.10775 0.56234,-0.29969 0.87886,-0.57581l0.62632,0.87886c-0.1953,0.1953 -0.43101,0.36704 -0.70713,0.5152c-0.27612,0.14142 -0.56907,0.25591 -0.87886,0.34346c-0.30979,0.08082 -0.61622,0.12123 -0.91927,0.12123zM228.99268,184.52566c-0.58591,0 -1.11121,-0.14479 -1.5759,-0.43438c-0.45795,-0.28959 -0.82162,-0.68356 -1.091,-1.18192c-0.26938,-0.49836 -0.40408,-1.05733 -0.40408,-1.67692c0,-0.61959 0.13469,-1.17856 0.40408,-1.67692c0.26938,-0.49836 0.63305,-0.89233 1.091,-1.18192c0.46469,-0.28959 0.98999,-0.43439 1.5759,-0.43439c0.56571,0 1.07753,0.11449 1.53549,0.34347c0.46469,0.22897 0.81825,0.54214 1.0607,0.93948l-0.68693,0.83846c-0.12795,-0.18184 -0.29295,-0.3502 -0.49499,-0.5051c-0.20204,-0.1549 -0.41755,-0.27612 -0.64652,-0.36367c-0.22224,-0.08755 -0.43774,-0.13133 -0.64652,-0.13133c-0.38387,0 -0.72734,0.09428 -1.03039,0.28285c-0.30306,0.18857 -0.54214,0.44785 -0.71724,0.77785c-0.1751,0.32999 -0.26264,0.7004 -0.26264,1.11121c0,0.41081 0.09091,0.78122 0.27275,1.11121c0.18857,0.32326 0.43438,0.58254 0.73744,0.77784c0.30306,0.18857 0.63978,0.28286 1.01019,0.28286c0.22224,0 0.43437,-0.03705 0.63641,-0.11113c0.20204,-0.07408 0.40071,-0.18183 0.59602,-0.32326c0.1953,-0.14816 0.37713,-0.32663 0.5455,-0.5354l0.68693,0.84856c-0.25591,0.36367 -0.62295,0.66336 -1.10111,0.89907c-0.47815,0.22897 -0.97652,0.34347 -1.49508,0.34347zM235.70833,184.52566c-0.64652,0 -1.22233,-0.13806 -1.72743,-0.41418c-0.49836,-0.27612 -0.89233,-0.65662 -1.18192,-1.14151c-0.28286,-0.48489 -0.42428,-1.04049 -0.42428,-1.66681c0,-0.49836 0.08082,-0.95295 0.24245,-1.36376c0.16163,-0.41081 0.38387,-0.76438 0.66673,-1.0607c0.28286,-0.30306 0.62295,-0.5354 1.02029,-0.69703c0.40408,-0.16836 0.83846,-0.25254 1.30315,-0.25254c0.41081,0 0.79131,0.07745 1.14151,0.23235c0.35693,0.1549 0.66336,0.3704 0.91927,0.64652c0.26265,0.27612 0.46469,0.60274 0.60611,0.97988c0.14142,0.37041 0.20878,0.77447 0.20204,1.21222l-0.0101,0.5354h-5.17218l-0.28285,-0.98999h4.37412l-0.17173,0.20204v-0.28286c-0.02694,-0.26938 -0.11786,-0.50846 -0.27276,-0.71723c-0.14816,-0.20878 -0.34009,-0.37376 -0.57581,-0.49499c-0.23571,-0.12123 -0.48826,-0.18184 -0.75764,-0.18184c-0.43775,0 -0.80478,0.08418 -1.1011,0.25254c-0.29632,0.16163 -0.52193,0.40408 -0.67683,0.72734c-0.14816,0.31653 -0.22224,0.70714 -0.22224,1.17182c0,0.43775 0.09091,0.82162 0.27275,1.15161c0.18184,0.32326 0.44111,0.57581 0.77784,0.75764c0.34347,0.1751 0.73408,0.26265 1.17183,0.26265c0.31653,0 0.60948,-0.0505 0.87886,-0.15152c0.26938,-0.10775 0.56234,-0.29969 0.87886,-0.57581l0.62632,0.87886c-0.1953,0.1953 -0.43101,0.36704 -0.70713,0.5152c-0.27612,0.14142 -0.56907,0.25591 -0.87886,0.34346c-0.30979,0.08082 -0.61622,0.12123 -0.91927,0.12123zM239.80651,184.40442v-6.33389h1.25263v1.35366l-0.23234,0.14142c0.06734,-0.20878 0.16837,-0.40744 0.30306,-0.59601c0.14142,-0.1953 0.31315,-0.36704 0.5152,-0.5152c0.20878,-0.14816 0.43101,-0.26602 0.66672,-0.35357c0.24245,-0.09429 0.48826,-0.14142 0.73744,-0.14142c0.35693,0 0.67345,0.06061 0.94957,0.18184c0.27612,0.12123 0.50173,0.30306 0.67683,0.5455c0.1751,0.24245 0.30306,0.5455 0.38387,0.90917l-0.19194,-0.0505l0.08082,-0.20204c0.09429,-0.18857 0.21887,-0.36367 0.37377,-0.5253c0.1549,-0.16836 0.33336,-0.31653 0.5354,-0.44448c0.20204,-0.12795 0.41418,-0.22898 0.63642,-0.30306c0.22897,-0.07408 0.45122,-0.11112 0.66673,-0.11112c0.47142,0 0.86203,0.09765 1.17182,0.29296c0.30979,0.1953 0.54214,0.49162 0.69703,0.88897c0.16163,0.3906 0.24245,0.87886 0.24245,1.46478v3.79831h-1.25263v-3.7276c0,-0.36367 -0.04715,-0.65999 -0.14143,-0.88896c-0.09429,-0.22897 -0.23571,-0.39734 -0.42428,-0.5051c-0.18184,-0.11449 -0.41754,-0.17173 -0.70713,-0.17173c-0.22224,0 -0.43438,0.04041 -0.63642,0.12122c-0.1953,0.07408 -0.36704,0.17847 -0.5152,0.31316c-0.14142,0.13469 -0.25254,0.29295 -0.33336,0.47478c-0.07408,0.18184 -0.11112,0.38051 -0.11112,0.59601v3.78821h-1.26274v-3.7478c0,-0.32999 -0.04714,-0.60948 -0.14142,-0.83845c-0.09429,-0.22897 -0.23571,-0.40408 -0.42428,-0.5253c-0.18184,-0.12123 -0.40744,-0.18183 -0.67682,-0.18183c-0.22224,0 -0.43102,0.04041 -0.62632,0.12122c-0.18857,0.07408 -0.35694,0.17847 -0.5051,0.31316c-0.14142,0.12795 -0.25254,0.28285 -0.33336,0.46469c-0.08082,0.18184 -0.12123,0.37713 -0.12123,0.58591v3.80841zM254.26914,184.52566c-0.27612,0 -0.54887,-0.04378 -0.81825,-0.13133c-0.26938,-0.08755 -0.5152,-0.20541 -0.73744,-0.35357c-0.22224,-0.1549 -0.40745,-0.3199 -0.55561,-0.49499c-0.14816,-0.18184 -0.24581,-0.36704 -0.29296,-0.55561l0.31316,-0.16163v1.53549h-1.24254v-8.88967h1.24254v4.04075l-0.19194,-0.10101c0.04041,-0.18857 0.12796,-0.36704 0.26265,-0.5354c0.13469,-0.1751 0.30979,-0.33336 0.5253,-0.47479c0.21551,-0.14142 0.44785,-0.25255 0.69703,-0.33337c0.24918,-0.08755 0.50172,-0.13133 0.75764,-0.13133c0.57244,0 1.07754,0.14142 1.51529,0.42428c0.44448,0.28286 0.79469,0.6701 1.0506,1.16172c0.25591,0.49162 0.38387,1.05734 0.38387,1.69712c0,0.63305 -0.12796,1.19876 -0.38387,1.69711c-0.24918,0.49836 -0.59601,0.89233 -1.04049,1.18192c-0.43775,0.28286 -0.93275,0.42428 -1.48498,0.42428zM254.057,183.39423c0.37041,0 0.7004,-0.09428 0.98999,-0.28285c0.28959,-0.18857 0.51856,-0.44448 0.68693,-0.76774c0.16836,-0.32999 0.25254,-0.70377 0.25254,-1.12131c0,-0.41081 -0.08418,-0.77785 -0.25254,-1.10111c-0.16163,-0.32999 -0.38724,-0.58591 -0.67683,-0.76775c-0.28959,-0.18857 -0.62295,-0.28285 -1.00009,-0.28285c-0.37714,0 -0.7105,0.09428 -1.00009,0.28285c-0.28959,0.18184 -0.51856,0.43775 -0.68693,0.76775c-0.16836,0.32326 -0.25254,0.6903 -0.25254,1.10111c0,0.41754 0.08418,0.79131 0.25254,1.12131c0.16836,0.32326 0.39734,0.57917 0.68693,0.76774c0.28959,0.18857 0.62295,0.28285 1.00009,0.28285zM261.48413,184.52566c-0.64652,0 -1.22233,-0.13806 -1.72743,-0.41418c-0.49836,-0.27612 -0.89234,-0.65662 -1.18193,-1.14151c-0.28286,-0.48489 -0.42428,-1.04049 -0.42428,-1.66681c0,-0.49836 0.08082,-0.95295 0.24245,-1.36376c0.16163,-0.41081 0.38387,-0.76438 0.66672,-1.0607c0.28286,-0.30306 0.62295,-0.5354 1.02029,-0.69703c0.40408,-0.16836 0.83846,-0.25254 1.30315,-0.25254c0.41081,0 0.79131,0.07745 1.14151,0.23235c0.35693,0.1549 0.66335,0.3704 0.91927,0.64652c0.26265,0.27612 0.46469,0.60274 0.60612,0.97988c0.14142,0.37041 0.20877,0.77447 0.20204,1.21222l-0.0101,0.5354h-5.17217l-0.28286,-0.98999h4.37412l-0.17173,0.20204v-0.28286c-0.02694,-0.26938 -0.11785,-0.50846 -0.27275,-0.71723c-0.14816,-0.20878 -0.3401,-0.37376 -0.57581,-0.49499c-0.23571,-0.12123 -0.48825,-0.18184 -0.75764,-0.18184c-0.43775,0 -0.80479,0.08418 -1.10111,0.25254c-0.29632,0.16163 -0.52193,0.40408 -0.67683,0.72734c-0.14816,0.31653 -0.22224,0.70714 -0.22224,1.17182c0,0.43775 0.09091,0.82162 0.27275,1.15161c0.18184,0.32326 0.44112,0.57581 0.77785,0.75764c0.34347,0.1751 0.73407,0.26265 1.17182,0.26265c0.31653,0 0.60948,-0.0505 0.87886,-0.15152c0.26938,-0.10775 0.56234,-0.29969 0.87886,-0.57581l0.62632,0.87886c-0.1953,0.1953 -0.43102,0.36704 -0.70713,0.5152c-0.27612,0.14142 -0.56908,0.25591 -0.87887,0.34346c-0.30979,0.08082 -0.61621,0.12123 -0.91927,0.12123zM265.6025,184.40442v-6.33389h1.25264v1.99008l-0.12123,-0.48489c0.08755,-0.30306 0.23908,-0.57917 0.45459,-0.82835c0.21551,-0.24918 0.46132,-0.44449 0.73744,-0.58591c0.27612,-0.14816 0.56234,-0.22225 0.85866,-0.22225c0.13469,0 0.26265,0.01347 0.38388,0.04041c0.12795,0.02021 0.22897,0.04714 0.30306,0.08082l-0.32326,1.35366c-0.09429,-0.04041 -0.20203,-0.07408 -0.32326,-0.10102c-0.11449,-0.03367 -0.22898,-0.05051 -0.34347,-0.05051c-0.21551,0 -0.42091,0.04378 -0.61621,0.13133c-0.1953,0.08082 -0.37041,0.19867 -0.5253,0.35357c-0.14816,0.14816 -0.26602,0.3199 -0.35357,0.5152c-0.08755,0.1953 -0.13132,0.41081 -0.13132,0.64652v3.49525z"/></g></g></svg>