<svg xmlns="http://www.w3.org/2000/svg" xmlns:xlink="http://www.w3.org/1999/xlink" stroke-miterlimit="10" stroke-linecap="square" stroke="none" fill="none" viewBox="0.0 0.0 960.0 720.0" version="1.1"><clipPath id="p.0"><path clip-rule="nonzero" d="m0 0l960.0 0l0 720.0l-960.0 0l0 -720.0z"></path></clipPath><g clip-path="url(#p.0)"><path fill-rule="evenodd" d="m0 0l960.0 0l0 720.0l-960.0 0z" fill-opacity="0.0" fill="#000000"></path><path fill-rule="evenodd" d="m139.04724 121.90551l340.9449 0l0 42.015755l-340.9449 0z" fill-opacity="0.0" fill="#000000"></path><path fill-rule="nonzero" d="m152.35974 148.82552l0 -11.125l-3.65625 0l0 -1.9375l9.4375 0l0 1.9375l-3.765625 0l0 11.125l-2.015625 0zm8.089752 0l0 -9.796875l1.921875 0l0 9.796875l-1.921875 0zm0.9375 -11.953125q-0.609375 0 -0.953125 -0.3125q-0.328125 -0.328125 -0.328125 -0.90625q0 -0.546875 0.34375 -0.875q0.34375 -0.34375 0.9375 -0.34375q0.609375 0 0.9375 0.328125q0.34375 0.3125 0.34375 0.890625q0 0.546875 -0.34375 0.890625q-0.34375 0.328125 -0.9375 0.328125zm3.905182 11.953125l0 -9.796875l1.9375 0l0 2.09375l-0.359375 0.21875q0.15625 -0.484375 0.46875 -0.921875q0.328125 -0.453125 0.796875 -0.796875q0.484375 -0.34375 1.03125 -0.546875q0.5625 -0.21875 1.140625 -0.21875q0.828125 0 1.46875 0.28125q0.640625 0.28125 1.046875 0.84375q0.40625 0.5625 0.59375 1.40625l-0.296875 -0.078125l0.125 -0.3125q0.21875 -0.4375 0.578125 -0.8125q0.359375 -0.390625 0.828125 -0.6875q0.46875 -0.296875 0.984375 -0.46875q0.53125 -0.171875 1.03125 -0.171875q1.09375 0 1.8125 0.453125q0.71875 0.453125 1.078125 1.375q0.375 0.90625 0.375 2.265625l0 5.875l-1.9375 0l0 -5.765625q0 -0.84375 -0.21875 -1.375q-0.21875 -0.53125 -0.65625 -0.78125q-0.421875 -0.265625 -1.09375 -0.265625q-0.515625 0 -0.984375 0.1875q-0.453125 0.171875 -0.796875 0.484375q-0.328125 0.3125 -0.515625 0.734375q-0.171875 0.421875 -0.171875 0.921875l0 5.859375l-1.953125 0l0 -5.796875q0 -0.765625 -0.21875 -1.296875q-0.21875 -0.53125 -0.65625 -0.8125q-0.421875 -0.28125 -1.046875 -0.28125q-0.515625 0 -0.96875 0.1875q-0.4375 0.171875 -0.78125 0.484375q-0.328125 0.296875 -0.515625 0.71875q-0.1875 0.421875 -0.1875 0.90625l0 5.890625l-1.9375 0zm21.776154 0.1875q-1.5 0 -2.671875 -0.640625q-1.15625 -0.640625 -1.828125 -1.765625q-0.65625 -1.125 -0.65625 -2.578125q0 -1.15625 0.375 -2.109375q0.375 -0.953125 1.03125 -1.640625q0.65625 -0.703125 1.578125 -1.078125q0.9375 -0.390625 2.015625 -0.390625q0.953125 0 1.765625 0.359375q0.828125 0.359375 1.421875 1.0q0.609375 0.640625 0.9375 1.515625q0.328125 0.859375 0.3125 1.875l-0.015625 0.828125l-8.0 0l-0.4375 -1.53125l6.765625 0l-0.265625 0.3125l0 -0.4375q-0.0625 -0.625 -0.421875 -1.109375q-0.34375 -0.484375 -0.890625 -0.765625q-0.546875 -0.28125 -1.171875 -0.28125q-1.015625 0 -1.703125 0.390625q-0.6875 0.375 -1.046875 1.125q-0.34375 0.734375 -0.34375 1.8125q0 1.015625 0.421875 1.78125q0.421875 0.75 1.203125 1.171875q0.796875 0.40625 1.8125 0.40625q0.734375 0 1.359375 -0.234375q0.625 -0.25 1.359375 -0.890625l0.96875 1.359375q-0.453125 0.453125 -1.09375 0.796875q-0.640625 0.328125 -1.359375 0.53125q-0.71875 0.1875 -1.421875 0.1875zm6.3700714 -0.1875l0 -9.796875l1.9375 0l0 3.078125l-0.1875 -0.75q0.203125 -0.703125 0.703125 -1.28125q0.5 -0.578125 1.140625 -0.90625q0.640625 -0.34375 1.328125 -0.34375q0.3125 0 0.59375 0.0625q0.296875 0.046875 0.46875 0.125l-0.5 2.09375q-0.21875 -0.09375 -0.5 -0.15625q-0.265625 -0.078125 -0.53125 -0.078125q-0.5 0 -0.953125 0.203125q-0.453125 0.1875 -0.8125 0.546875q-0.34375 0.34375 -0.546875 0.796875q-0.203125 0.453125 -0.203125 1.0l0 5.40625l-1.9375 0z" fill="#000000"></path></g></svg>