<svg version="1.1" xmlns="http://www.w3.org/2000/svg" xmlns:xlink="http://www.w3.org/1999/xlink" width="52.25549" height="25.25514" viewBox="0,0,52.25549,25.25514"><g transform="translate(-213.87225,-167.37243)"><g data-paper-data="{&quot;isPaintingLayer&quot;:true}" stroke="none" stroke-linejoin="miter" stroke-miterlimit="10" stroke-dasharray="" stroke-dashoffset="0" style="mix-blend-mode: normal"><path d="M240.00633,192.62756h-13.06703c-7.21672,0 -13.06704,-5.65356 -13.06704,-12.62756c0,-6.97401 5.85031,-12.62757 13.06704,-12.62757v0h13.06703z" fill-opacity="0.88773" fill="#363636" fill-rule="evenodd" stroke-width="1" stroke-linecap="square"/><path d="M239.99369,167.37244h13.06703v0c7.21674,0 13.06703,5.65356 13.06703,12.62757c0,6.97399 -5.8503,12.62756 -13.06703,12.62756h-13.06703z" fill-opacity="0.88773" fill="#363636" fill-rule="evenodd" stroke-width="1" stroke-linecap="square"/><path d="M215.98751,179.5625c0,-4.52183 3.66567,-8.1875 8.1875,-8.1875c4.52183,0 8.1875,3.66567 8.1875,8.1875c0,4.52183 -3.66567,8.1875 -8.1875,8.1875c-4.52183,0 -8.1875,-3.66567 -8.1875,-8.1875z" fill="#ffffff" fill-rule="nonzero" stroke-width="0" stroke-linecap="butt"/></g></g></svg>