<svg version="1.1" xmlns="http://www.w3.org/2000/svg" xmlns:xlink="http://www.w3.org/1999/xlink" width="232.23527" height="160.12502" viewBox="0,0,232.23527,160.12502"><g transform="translate(-123.88237,-99.93749)"><g data-paper-data="{&quot;isPaintingLayer&quot;:true}" stroke="none" stroke-linejoin="miter" stroke-miterlimit="10" stroke-dasharray="" stroke-dashoffset="0" style="mix-blend-mode: normal"><path d="M123.88237,109.83482c0,-5.46615 4.43119,-9.89733 9.89733,-9.89733h212.44061c2.62494,0 5.14237,1.04275 6.99847,2.89886c1.85612,1.85611 2.89886,4.37353 2.89886,6.99847v140.33036c0,5.46615 -4.43118,9.89733 -9.89733,9.89733h-212.44061c-5.46614,0 -9.89733,-4.43118 -9.89733,-9.89733z" fill="#171717" fill-rule="evenodd" stroke-width="1" stroke-linecap="square"/><path d="M329.5029,111.23421c0,2.34801 -1.91444,4.25144 -4.27602,4.25144c-2.36158,0 -4.27601,-1.90344 -4.27601,-4.25144c0,-2.34801 1.91443,-4.25144 4.27601,-4.25144c2.36158,0 4.27602,1.90344 4.27602,4.25144z" fill-opacity="0.25378" fill="#3a3a3a" fill-rule="nonzero" stroke-width="0" stroke-linecap="butt"/><path d="M344.0029,111.23421c0,2.34801 -1.91444,4.25144 -4.27602,4.25144c-2.36158,0 -4.27601,-1.90344 -4.27601,-4.25144c0,-2.34801 1.91443,-4.25144 4.27601,-4.25144c2.36158,0 4.27602,1.90344 4.27602,4.25144z" fill-opacity="0.25378" fill="#3a3a3a" fill-rule="nonzero" stroke-width="0" stroke-linecap="butt"/><path d="M134.26117,141.88149h122.62201v22.63426h-122.62201z" fill-opacity="0" fill="#000000" fill-rule="evenodd" stroke-width="1" stroke-linecap="square"/><text transform="translate(226.53643,113.04426) scale(0.17628,0.17628)" font-size="40" xml:space="preserve" fill="#ffffff" fill-rule="nonzero" stroke="none" stroke-width="1" stroke-linecap="butt" stroke-linejoin="miter" stroke-miterlimit="10" stroke-dasharray="" stroke-dashoffset="0" font-family="Sans Serif" font-weight="normal" text-anchor="start" style="mix-blend-mode: normal"><tspan x="0" dy="0">News</tspan></text><path d="M137.90679,140.1948v-9.58699h3.89901c0.51987,0 0.99004,0.12997 1.41053,0.3899c0.42813,0.25993 0.76834,0.61543 1.02062,1.06649c0.25993,0.44342 0.3899,0.94035 0.3899,1.4908c0,0.55045 -0.12997,1.0512 -0.3899,1.50227c-0.25229,0.44342 -0.5925,0.79891 -1.02062,1.06649c-0.42048,0.26758 -0.89066,0.40137 -1.41053,0.40137h-2.41968v3.66966zM139.38613,135.10314h2.39675c0.24465,0 0.46635,-0.06881 0.66513,-0.20642c0.20642,-0.14526 0.37079,-0.33256 0.49311,-0.56192c0.12232,-0.237 0.18348,-0.49693 0.18348,-0.7798c0,-0.28287 -0.06116,-0.53898 -0.18348,-0.76834c-0.12232,-0.22935 -0.28669,-0.41284 -0.49311,-0.55045c-0.19877,-0.13761 -0.42048,-0.20642 -0.66513,-0.20642h-2.39675zM149.32918,140.33241c-0.70335,0 -1.33408,-0.16055 -1.89217,-0.48164c-0.55045,-0.32874 -0.98622,-0.77216 -1.30732,-1.33025c-0.31345,-0.56574 -0.47018,-1.20793 -0.47018,-1.92657c0,-0.71864 0.15672,-1.35701 0.47018,-1.9151c0.3211,-0.56574 0.75687,-1.00916 1.30732,-1.33025c0.55809,-0.32874 1.18882,-0.49311 1.89217,-0.49311c0.68806,0 1.30732,0.16437 1.85777,0.49311c0.55809,0.3211 0.99769,0.76451 1.31878,1.33025c0.3211,0.55809 0.48164,1.19646 0.48164,1.9151c0,0.71864 -0.16055,1.36083 -0.48164,1.92657c-0.3211,0.55809 -0.76069,1.00151 -1.31878,1.33025c-0.55045,0.3211 -1.1697,0.48164 -1.85777,0.48164zM149.32918,139.04803c0.42813,0 0.81038,-0.10703 1.14677,-0.3211c0.33639,-0.21406 0.60014,-0.50458 0.79127,-0.87154c0.19113,-0.37461 0.28287,-0.79509 0.27522,-1.26145c0.00764,-0.474 -0.0841,-0.89448 -0.27522,-1.26145c-0.19113,-0.37461 -0.45488,-0.66513 -0.79127,-0.87154c-0.33639,-0.21406 -0.71864,-0.3211 -1.14677,-0.3211c-0.42813,0 -0.81421,0.10703 -1.15824,0.3211c-0.34403,0.21406 -0.61161,0.5084 -0.80274,0.88301c-0.19113,0.36697 -0.28287,0.78363 -0.27522,1.24998c-0.00764,0.46635 0.0841,0.88684 0.27522,1.26145c0.19113,0.36697 0.45871,0.65748 0.80274,0.87154c0.34403,0.21406 0.73011,0.3211 1.15824,0.3211zM154.53907,140.1948v-10.13744h1.41053v10.13744zM158.95155,143.34841l1.4564,-3.36003l0.01147,1.12383l-3.58939,-8.10765h1.63988l2.24767,5.2866c0.04587,0.09174 0.09939,0.23318 0.16055,0.4243c0.06881,0.18348 0.12614,0.36697 0.17202,0.55045l-0.3555,0.08027c0.06881,-0.19113 0.13761,-0.38226 0.20642,-0.57338c0.06881,-0.19113 0.13379,-0.38226 0.19495,-0.57338l1.8807,-5.19486h1.67428l-2.95866,7.19024l-1.21557,3.15361zM170.07192,140.33241c-0.68042,0 -1.30732,-0.12232 -1.8807,-0.36697c-0.56574,-0.25229 -1.06267,-0.59632 -1.4908,-1.03209c-0.42048,-0.44342 -0.74922,-0.96329 -0.98622,-1.55961c-0.22935,-0.60396 -0.34403,-1.26145 -0.34403,-1.97244c0,-0.711 0.11468,-1.36465 0.34403,-1.96097c0.237,-0.59632 0.56574,-1.11619 0.98622,-1.55961c0.42813,-0.44342 0.92506,-0.78745 1.4908,-1.03209c0.57338,-0.25229 1.20028,-0.37843 1.8807,-0.37843c0.67277,0 1.29202,0.12614 1.85777,0.37843c0.57338,0.24465 1.07414,0.5925 1.50227,1.04356c0.42813,0.44342 0.75687,0.96329 0.98622,1.55961c0.22935,0.59632 0.34403,1.24615 0.34403,1.94951c0,0.70335 -0.11468,1.35319 -0.34403,1.94951c-0.22935,0.59632 -0.55809,1.12001 -0.98622,1.57107c-0.42813,0.44342 -0.92888,0.79127 -1.50227,1.04356c-0.56574,0.24465 -1.185,0.36697 -1.85777,0.36697zM170.07192,138.89895c0.46635,0 0.89066,-0.08792 1.27291,-0.26376c0.3899,-0.17584 0.72629,-0.42048 1.00916,-0.73393c0.28287,-0.31345 0.50458,-0.68042 0.66513,-1.1009c0.16055,-0.42813 0.24082,-0.89448 0.24082,-1.39906c0,-0.50458 -0.08027,-0.96711 -0.24082,-1.38759c-0.16055,-0.42813 -0.38226,-0.79891 -0.66513,-1.11237c-0.28287,-0.31345 -0.61926,-0.55427 -1.00916,-0.72246c-0.38226,-0.17584 -0.80656,-0.26376 -1.27291,-0.26376c-0.46635,0 -0.89448,0.08792 -1.28438,0.26376c-0.3899,0.16819 -0.73011,0.40901 -1.02062,0.72246c-0.28287,0.3058 -0.50075,0.67277 -0.65366,1.1009c-0.1529,0.42048 -0.22935,0.88684 -0.22935,1.39906c0,0.50458 0.07645,0.97093 0.22935,1.39906c0.1529,0.42813 0.37079,0.79891 0.65366,1.11237c0.29052,0.3058 0.63072,0.54663 1.02062,0.72246c0.3899,0.17584 0.81803,0.26376 1.28438,0.26376zM179.72436,140.33241c-0.51987,0 -1.00151,-0.06881 -1.44493,-0.20642c-0.44342,-0.13761 -0.84479,-0.34403 -1.20411,-0.61926c-0.35932,-0.28287 -0.68042,-0.6269 -0.96329,-1.03209l1.00916,-1.1697c0.45106,0.64219 0.87919,1.08561 1.28438,1.33025c0.41284,0.24465 0.90212,0.36697 1.46786,0.36697c0.34403,0 0.65748,-0.05351 0.94035,-0.16055c0.28287,-0.11468 0.50458,-0.26758 0.66513,-0.45871c0.16819,-0.19113 0.25229,-0.40901 0.25229,-0.65366c0,-0.16055 -0.02676,-0.31345 -0.08027,-0.45871c-0.05351,-0.1529 -0.13761,-0.28669 -0.25229,-0.40137c-0.11468,-0.12232 -0.25993,-0.23318 -0.43577,-0.33256c-0.17584,-0.09939 -0.38226,-0.18731 -0.61926,-0.26376c-0.237,-0.07645 -0.51222,-0.14144 -0.82567,-0.19495c-0.48929,-0.10703 -0.91741,-0.24082 -1.28438,-0.40137c-0.36697,-0.16819 -0.67277,-0.37461 -0.91741,-0.61926c-0.24465,-0.24465 -0.42813,-0.52369 -0.55045,-0.83714c-0.12232,-0.31345 -0.18348,-0.66895 -0.18348,-1.06649c0,-0.38226 0.0841,-0.73776 0.25229,-1.06649c0.17584,-0.32874 0.40901,-0.61161 0.69953,-0.84861c0.29816,-0.24465 0.64601,-0.43195 1.04356,-0.56192c0.40519,-0.13761 0.84096,-0.20642 1.30732,-0.20642c0.49693,0 0.94799,0.06498 1.35319,0.19495c0.41284,0.12997 0.7798,0.3211 1.1009,0.57338c0.3211,0.24465 0.58485,0.55045 0.79127,0.91741l-1.04356,1.03209c-0.17584,-0.3058 -0.37843,-0.55809 -0.60779,-0.75687c-0.22935,-0.20642 -0.48164,-0.36314 -0.75687,-0.47018c-0.27522,-0.10703 -0.56574,-0.16055 -0.87154,-0.16055c-0.35932,0 -0.67277,0.05734 -0.94035,0.17202c-0.25993,0.10703 -0.46635,0.25993 -0.61926,0.45871c-0.1529,0.19113 -0.22935,0.42048 -0.22935,0.68806c0,0.19113 0.03823,0.36697 0.11468,0.52751c0.07645,0.16055 0.18731,0.30198 0.33256,0.4243c0.1529,0.12232 0.3555,0.23318 0.60779,0.33256c0.25993,0.09174 0.56574,0.17202 0.91741,0.24082c0.50458,0.11468 0.95182,0.25611 1.34172,0.4243c0.39755,0.16819 0.73011,0.36697 0.99769,0.59632c0.27522,0.22935 0.48164,0.48547 0.61926,0.76834c0.14526,0.28287 0.21789,0.58868 0.21789,0.91741c0,0.61161 -0.14144,1.14294 -0.4243,1.59401c-0.28287,0.44342 -0.68424,0.78745 -1.20411,1.03209c-0.51987,0.237 -1.13912,0.3555 -1.85777,0.3555zM189.14366,140.1948v-9.58699h1.33025l5.85999,7.8439l-0.21789,0.12614c-0.03823,-0.22935 -0.07263,-0.47782 -0.10321,-0.7454c-0.02294,-0.26758 -0.04587,-0.55427 -0.06881,-0.86008c-0.02294,-0.3058 -0.04205,-0.63072 -0.05734,-0.97475c-0.01529,-0.34403 -0.02676,-0.70335 -0.0344,-1.07796c-0.00764,-0.37461 -0.01147,-0.76069 -0.01147,-1.15824v-3.15361h1.47933v9.58699h-1.35319l-5.76825,-7.55721l0.14908,-0.19495c0.04587,0.55809 0.0841,1.03209 0.11468,1.42199c0.03058,0.3899 0.05734,0.71864 0.08027,0.98622c0.02294,0.26758 0.03823,0.48547 0.04587,0.65366c0.01529,0.16819 0.02294,0.30963 0.02294,0.4243c0.00764,0.10703 0.01147,0.20259 0.01147,0.28669v3.97929zM202.99481,140.33241c-0.73393,0 -1.38759,-0.15672 -1.96097,-0.47018c-0.56574,-0.31345 -1.01298,-0.7454 -1.34172,-1.29585c-0.3211,-0.55045 -0.48164,-1.18117 -0.48164,-1.89217c0,-0.56574 0.09174,-1.08179 0.27522,-1.54814c0.18348,-0.46635 0.43577,-0.86772 0.75687,-1.20411c0.3211,-0.34403 0.70717,-0.60779 1.15824,-0.79127c0.45871,-0.19113 0.95182,-0.28669 1.47933,-0.28669c0.46635,0 0.8983,0.08792 1.29585,0.26376c0.40519,0.17584 0.75304,0.42048 1.04356,0.73393c0.29816,0.31345 0.52751,0.68424 0.68806,1.11237c0.16055,0.42048 0.237,0.87919 0.22935,1.37612l-0.01147,0.60779h-5.87146l-0.3211,-1.12383h4.96551l-0.19495,0.22935v-0.3211c-0.03058,-0.3058 -0.13379,-0.57721 -0.30963,-0.81421c-0.16819,-0.237 -0.38608,-0.4243 -0.65366,-0.56192c-0.26758,-0.13761 -0.55427,-0.20642 -0.86008,-0.20642c-0.49693,0 -0.91359,0.09557 -1.24998,0.28669c-0.33639,0.18348 -0.5925,0.45871 -0.76834,0.82567c-0.16819,0.35932 -0.25229,0.80274 -0.25229,1.33025c0,0.49693 0.10321,0.93271 0.30963,1.30732c0.20642,0.36697 0.50075,0.65366 0.88301,0.86008c0.3899,0.19877 0.83332,0.29816 1.33025,0.29816c0.35932,0 0.69189,-0.05734 0.99769,-0.17202c0.3058,-0.12232 0.63837,-0.34021 0.99769,-0.65366l0.711,0.99769c-0.22171,0.22171 -0.48929,0.41666 -0.80274,0.58485c-0.31345,0.16055 -0.64601,0.29052 -0.99769,0.3899c-0.35167,0.09174 -0.69953,0.13761 -1.04356,0.13761zM209.29904,140.1948l-2.45409,-7.19024l1.42199,-0.01147l1.75456,5.37835l-0.30963,-0.02294l1.90364,-4.20864h0.84861l1.9151,4.22011l-0.36697,0.02294l1.76602,-5.37835h1.42199l-2.41968,7.19024h-0.97475l-2.00685,-4.57561l0.3211,0.04587l-1.85777,4.52974zM220.81519,140.33241c-0.60396,0 -1.14677,-0.10321 -1.62841,-0.30963c-0.48164,-0.21406 -0.88301,-0.52751 -1.20411,-0.94035l0.95182,-0.81421c0.27522,0.31345 0.57338,0.54281 0.89448,0.68806c0.32874,0.13761 0.69953,0.20642 1.11237,0.20642c0.16055,0 0.30963,-0.01911 0.44724,-0.05734c0.14526,-0.03823 0.2714,-0.09939 0.37843,-0.18348c0.10703,-0.0841 0.18731,-0.18348 0.24082,-0.29816c0.05351,-0.11468 0.08027,-0.24082 0.08027,-0.37843c0,-0.237 -0.08792,-0.42813 -0.26376,-0.57338c-0.09174,-0.06116 -0.237,-0.12997 -0.43577,-0.20642c-0.19113,-0.07645 -0.44342,-0.15672 -0.75687,-0.24082c-0.52751,-0.13761 -0.95946,-0.29052 -1.29585,-0.45871c-0.33639,-0.17584 -0.59632,-0.37461 -0.7798,-0.59632c-0.13761,-0.17584 -0.24082,-0.36314 -0.30963,-0.56192c-0.06116,-0.20642 -0.09174,-0.43577 -0.09174,-0.68806c0,-0.29816 0.06498,-0.57338 0.19495,-0.82567c0.13761,-0.25229 0.3211,-0.47018 0.55045,-0.65366c0.237,-0.19113 0.51222,-0.33639 0.82567,-0.43577c0.31345,-0.09939 0.64983,-0.14908 1.00916,-0.14908c0.33639,0 0.66895,0.04587 0.99769,0.13761c0.33639,0.09174 0.64601,0.22553 0.92888,0.40137c0.28287,0.16819 0.51987,0.37079 0.711,0.60779l-0.80274,0.89448c-0.17584,-0.17584 -0.36697,-0.32874 -0.57338,-0.45871c-0.20642,-0.12997 -0.41666,-0.22935 -0.63072,-0.29816c-0.20642,-0.07645 -0.39373,-0.11468 -0.56192,-0.11468c-0.19113,0 -0.36697,0.01911 -0.52751,0.05734c-0.1529,0.03058 -0.28287,0.0841 -0.3899,0.16055c-0.09939,0.06881 -0.17966,0.16055 -0.24082,0.27522c-0.05351,0.10703 -0.08027,0.22935 -0.08027,0.36697c0.00764,0.11468 0.03823,0.22553 0.09174,0.33256c0.05351,0.10703 0.12614,0.19495 0.21789,0.26376c0.09939,0.07645 0.24847,0.15672 0.44724,0.24082c0.19877,0.07645 0.45488,0.1529 0.76834,0.22935c0.45106,0.11468 0.82567,0.24465 1.12383,0.3899c0.29816,0.13761 0.53516,0.29816 0.711,0.48164c0.18348,0.17584 0.30963,0.37843 0.37843,0.60779c0.07645,0.22935 0.11468,0.48547 0.11468,0.76834c0,0.40519 -0.1185,0.77216 -0.3555,1.1009c-0.22935,0.3211 -0.54281,0.57338 -0.94035,0.75687c-0.3899,0.18348 -0.82567,0.27522 -1.30732,0.27522z" fill="#ffffff" fill-rule="nonzero" stroke-width="1" stroke-linecap="square"/><path d="M241.21777,126.79755l-0.04199,-0.8698l2.63341,-2.62741h1.01377zM240.57592,128.31521v-5.01487h0.77383v5.01487zM243.89917,128.31521l-1.91957,-2.56142l0.57587,-0.49789l2.30948,3.05931zM247.06195,128.3872c-0.38391,0 -0.72584,-0.08198 -1.02577,-0.24594c-0.29594,-0.16396 -0.52988,-0.38991 -0.70184,-0.67785c-0.16796,-0.28794 -0.25194,-0.61786 -0.25194,-0.98978c0,-0.29593 0.04799,-0.56587 0.14397,-0.80982c0.09598,-0.24395 0.22795,-0.4539 0.39591,-0.62986c0.16796,-0.17996 0.36992,-0.31793 0.60587,-0.41391c0.23995,-0.09998 0.49789,-0.14996 0.77383,-0.14996c0.24394,0 0.4699,0.04599 0.67785,0.13797c0.21195,0.09198 0.39391,0.21995 0.54588,0.38391c0.15597,0.16396 0.27594,0.35792 0.35992,0.58187c0.08398,0.21995 0.12397,0.4599 0.11997,0.71984l-0.006,0.31793h-3.07131l-0.16796,-0.58787h2.59742l-0.10198,0.11997v-0.16796c-0.016,-0.15997 -0.06998,-0.30193 -0.16196,-0.4259c-0.08798,-0.12397 -0.20195,-0.22195 -0.34192,-0.29393c-0.13997,-0.07198 -0.28994,-0.10798 -0.4499,-0.10798c-0.25994,0 -0.47789,0.04999 -0.65385,0.14997c-0.17596,0.09598 -0.30993,0.23995 -0.40191,0.4319c-0.08798,0.18796 -0.13197,0.41991 -0.13197,0.69584c0,0.25994 0.05399,0.48789 0.16197,0.68385c0.10798,0.19196 0.26194,0.34193 0.4619,0.4499c0.20395,0.10398 0.4359,0.15597 0.69584,0.15597c0.18796,0 0.36192,-0.02999 0.52188,-0.08998c0.15996,-0.06399 0.33392,-0.17796 0.52188,-0.34192l0.37192,0.52188c-0.11598,0.11597 -0.25594,0.21795 -0.41991,0.30593c-0.16397,0.08398 -0.33792,0.15196 -0.52188,0.20395c-0.18396,0.04799 -0.36592,0.07198 -0.54588,0.07198zM251.25911,128.3872c-0.38391,0 -0.72584,-0.08198 -1.02577,-0.24594c-0.29594,-0.16396 -0.52988,-0.38991 -0.70184,-0.67785c-0.16796,-0.28794 -0.25194,-0.61786 -0.25194,-0.98978c0,-0.29593 0.04799,-0.56587 0.14397,-0.80982c0.09598,-0.24395 0.22795,-0.4539 0.39591,-0.62986c0.16796,-0.17996 0.36992,-0.31793 0.60587,-0.41391c0.23995,-0.09998 0.49789,-0.14996 0.77383,-0.14996c0.24394,0 0.4699,0.04599 0.67785,0.13797c0.21196,0.09198 0.39391,0.21995 0.54588,0.38391c0.15597,0.16396 0.27594,0.35792 0.35992,0.58187c0.08398,0.21995 0.12397,0.4599 0.11997,0.71984l-0.006,0.31793h-3.07131l-0.16796,-0.58787h2.59742l-0.10198,0.11997v-0.16796c-0.01599,-0.15997 -0.06998,-0.30193 -0.16196,-0.4259c-0.08798,-0.12397 -0.20195,-0.22195 -0.34192,-0.29393c-0.13997,-0.07198 -0.28994,-0.10798 -0.4499,-0.10798c-0.25994,0 -0.47789,0.04999 -0.65385,0.14997c-0.17596,0.09598 -0.30993,0.23995 -0.40191,0.4319c-0.08798,0.18796 -0.13197,0.41991 -0.13197,0.69584c0,0.25994 0.05399,0.48789 0.16197,0.68385c0.10798,0.19196 0.26194,0.34193 0.4619,0.4499c0.20395,0.10398 0.4359,0.15597 0.69584,0.15597c0.18796,0 0.36192,-0.02999 0.52188,-0.08998c0.15996,-0.06399 0.33392,-0.17796 0.52188,-0.34192l0.37192,0.52188c-0.11598,0.11597 -0.25594,0.21795 -0.41991,0.30593c-0.16397,0.08398 -0.33792,0.15196 -0.52188,0.20395c-0.18396,0.04799 -0.36592,0.07198 -0.54588,0.07198zM253.70467,129.89286v-5.3388h0.74383v0.85781l-0.11397,-0.05999c0.02799,-0.14397 0.10798,-0.28193 0.23995,-0.41391c0.13597,-0.13197 0.29993,-0.23995 0.49189,-0.32393c0.19596,-0.08398 0.39591,-0.12597 0.59987,-0.12597c0.33993,0 0.63986,0.08398 0.8998,0.25194c0.26394,0.16796 0.4719,0.39791 0.62386,0.68985c0.15597,0.29194 0.23395,0.62586 0.23395,1.00178c0,0.37192 -0.07598,0.70584 -0.22795,1.00178c-0.15197,0.29194 -0.35992,0.52388 -0.62386,0.69584c-0.25994,0.16796 -0.55388,0.25194 -0.8818,0.25194c-0.21995,0 -0.4339,-0.04399 -0.64185,-0.13197c-0.20395,-0.08798 -0.37791,-0.20195 -0.52188,-0.34192c-0.14397,-0.13997 -0.23195,-0.28394 -0.26394,-0.4319l0.18596,-0.09598v2.51344zM255.56425,127.69735c0.21995,0 0.41591,-0.05399 0.58787,-0.16196c0.17196,-0.11198 0.30793,-0.26194 0.40791,-0.4499c0.09998,-0.19196 0.14997,-0.40991 0.14997,-0.65385c0,-0.24395 -0.04999,-0.4599 -0.14996,-0.64785c-0.09598,-0.18796 -0.22995,-0.33592 -0.40191,-0.4439c-0.16796,-0.11198 -0.36592,-0.16796 -0.59386,-0.16796c-0.22395,0 -0.42191,0.05399 -0.59386,0.16197c-0.17196,0.10798 -0.30793,0.25794 -0.40791,0.4499c-0.09998,0.18796 -0.14996,0.40391 -0.14996,0.64785c0,0.24395 0.04999,0.4619 0.14997,0.65386c0.09998,0.18796 0.23595,0.33792 0.40791,0.4499c0.17196,0.10798 0.36992,0.16197 0.59387,0.16197zM260.34959,128.31521v-3.76115h0.73784v3.76116zM260.70951,123.72624c-0.15597,0 -0.27794,-0.03999 -0.36592,-0.11997c-0.08398,-0.08398 -0.12597,-0.19995 -0.12597,-0.34792c0,-0.13997 0.04399,-0.25194 0.13197,-0.33592c0.08798,-0.08798 0.20795,-0.13197 0.35992,-0.13197c0.15597,0 0.27594,0.04199 0.35992,0.12597c0.08798,0.07998 0.13197,0.19396 0.13197,0.34193c0,0.13997 -0.04399,0.25394 -0.13197,0.34193c-0.08798,0.08398 -0.20795,0.12597 -0.35992,0.12597zM262.22076,128.31521v-3.76115h0.73784v0.77383l-0.13197,0.08398c0.04799,-0.16396 0.14197,-0.31593 0.28194,-0.4559c0.13997,-0.14397 0.30393,-0.25994 0.49189,-0.34792c0.19196,-0.08798 0.38791,-0.13197 0.58787,-0.13197c0.28794,0 0.52588,0.05599 0.71384,0.16796c0.19196,0.11198 0.33592,0.28394 0.4319,0.51588c0.09598,0.22795 0.14397,0.51588 0.14397,0.86381v2.29149h-0.73783v-2.2435c0,-0.21195 -0.02799,-0.38791 -0.08398,-0.52788c-0.05599,-0.14397 -0.14397,-0.24794 -0.26394,-0.31193c-0.11997,-0.06399 -0.26794,-0.09198 -0.4439,-0.08398c-0.14397,0 -0.27594,0.02399 -0.39591,0.07198c-0.11997,0.04399 -0.22395,0.10798 -0.31193,0.19196c-0.08798,0.07998 -0.15797,0.17396 -0.20995,0.28194c-0.04799,0.10398 -0.07198,0.21795 -0.07198,0.34193v2.27949h-0.36592c-0.05999,0 -0.12197,0 -0.18596,0c-0.06398,0 -0.12597,0 -0.18596,0zM268.95575,128.31521v-4.72094h0.73784v4.72094zM268.16993,125.2739v-0.71984h2.39346v0.71984zM272.894,128.3872c-0.36792,0 -0.69784,-0.08398 -0.98978,-0.25194c-0.28794,-0.17196 -0.51588,-0.40391 -0.68385,-0.69584c-0.16397,-0.29593 -0.24594,-0.63186 -0.24594,-1.00777c0,-0.37592 0.08198,-0.70984 0.24595,-1.00177c0.16796,-0.29593 0.39591,-0.52788 0.68385,-0.69584c0.29193,-0.17196 0.62186,-0.25794 0.98978,-0.25794c0.35992,0 0.68385,0.08598 0.97178,0.25794c0.29193,0.16796 0.52188,0.39991 0.68985,0.69584c0.16796,0.29194 0.25194,0.62586 0.25194,1.00178c0,0.37592 -0.08398,0.71184 -0.25194,1.00777c-0.16796,0.29194 -0.39791,0.52388 -0.68984,0.69584c-0.28794,0.16796 -0.61186,0.25194 -0.97178,0.25194zM272.894,127.71535c0.22395,0 0.4239,-0.05599 0.59987,-0.16796c0.17596,-0.11198 0.31393,-0.26394 0.41391,-0.4559c0.09998,-0.19596 0.14796,-0.41591 0.14397,-0.65985c0.004,-0.24794 -0.04399,-0.4679 -0.14397,-0.65985c-0.09998,-0.19596 -0.23795,-0.34792 -0.41391,-0.4559c-0.17596,-0.11198 -0.37592,-0.16796 -0.59987,-0.16796c-0.22395,0 -0.4259,0.05599 -0.60586,0.16796c-0.17996,0.11198 -0.31993,0.26594 -0.41991,0.4619c-0.09998,0.19196 -0.14797,0.40991 -0.14397,0.65386c-0.004,0.24395 0.04399,0.46389 0.14397,0.65985c0.09998,0.19196 0.23995,0.34392 0.41991,0.4559c0.17996,0.11198 0.38191,0.16796 0.60587,0.16796zM276.92696,128.3872c-0.26794,0 -0.50189,-0.06199 -0.70184,-0.18596c-0.19596,-0.12397 -0.34792,-0.29793 -0.4559,-0.52188c-0.10798,-0.22395 -0.16196,-0.49189 -0.16196,-0.80382v-2.32148h0.73784v2.12352c0,0.21595 0.03399,0.40391 0.10198,0.56387c0.07198,0.15997 0.17196,0.28394 0.29993,0.37192c0.13197,0.08398 0.29194,0.12597 0.47989,0.12597c0.13597,0 0.26194,-0.02199 0.37792,-0.06598c0.11597,-0.04399 0.21595,-0.10598 0.29993,-0.18596c0.08398,-0.08398 0.14797,-0.18196 0.19196,-0.29393c0.04799,-0.11597 0.07198,-0.24195 0.07198,-0.37791v-2.26149h0.73784v3.76116h-0.73783v-0.78582l0.13197,-0.08998c-0.05599,0.17996 -0.15197,0.34193 -0.28794,0.48589c-0.13597,0.13997 -0.29793,0.25194 -0.48589,0.33592c-0.18796,0.08398 -0.38791,0.12597 -0.59987,0.12597zM281.53615,128.3872c-0.34792,0 -0.65985,-0.08598 -0.93579,-0.25794c-0.27194,-0.17196 -0.48789,-0.40591 -0.64785,-0.70184c-0.15997,-0.29593 -0.23995,-0.62786 -0.23995,-0.99578c0,-0.36792 0.07998,-0.69984 0.23995,-0.99578c0.15996,-0.29593 0.37591,-0.52988 0.64785,-0.70184c0.27594,-0.17196 0.58787,-0.25794 0.93579,-0.25794c0.33592,0 0.63986,0.06798 0.9118,0.20395c0.27594,0.13597 0.48589,0.32193 0.62986,0.55788l-0.40791,0.49789c-0.07598,-0.10798 -0.17396,-0.20795 -0.29393,-0.29993c-0.11997,-0.09198 -0.24794,-0.16396 -0.38391,-0.21595c-0.13197,-0.05199 -0.25994,-0.07798 -0.38391,-0.07798c-0.22795,0 -0.4319,0.05599 -0.61186,0.16796c-0.17996,0.11198 -0.32193,0.26594 -0.4259,0.4619c-0.10398,0.19596 -0.15597,0.41591 -0.15597,0.65985c0,0.24395 0.05399,0.46389 0.16197,0.65985c0.11197,0.19196 0.25794,0.34592 0.4379,0.4619c0.17996,0.11198 0.37991,0.16796 0.59987,0.16796c0.13197,0 0.25794,-0.02199 0.37792,-0.06598c0.11997,-0.04399 0.23795,-0.10798 0.35392,-0.19196c0.11597,-0.08798 0.22395,-0.19396 0.32393,-0.31793l0.40791,0.50389c-0.15196,0.21595 -0.36992,0.39391 -0.65385,0.53388c-0.28394,0.13597 -0.57987,0.20395 -0.8878,0.20395zM283.77238,128.31521v-5.30281h0.73784v2.31548l-0.13197,0.08398c0.04799,-0.16396 0.14197,-0.31593 0.28194,-0.4559c0.13997,-0.14397 0.30393,-0.25994 0.49189,-0.34792c0.19196,-0.08798 0.38791,-0.13197 0.58787,-0.13197c0.28794,0 0.52588,0.05599 0.71384,0.16796c0.19196,0.11198 0.33592,0.28394 0.4319,0.51588c0.09598,0.22795 0.14397,0.51588 0.14397,0.86381v2.29149h-0.73783v-2.2435c0,-0.21195 -0.02799,-0.38791 -0.08398,-0.52788c-0.05599,-0.14397 -0.14397,-0.24794 -0.26394,-0.31193c-0.11997,-0.06399 -0.26794,-0.09198 -0.4439,-0.08398c-0.14397,0 -0.27594,0.02399 -0.39591,0.07198c-0.11997,0.04399 -0.22395,0.10798 -0.31193,0.19196c-0.08798,0.07998 -0.15797,0.17396 -0.20995,0.28194c-0.04799,0.10398 -0.07198,0.21795 -0.07198,0.34193v2.27949h-0.36592c-0.05999,0 -0.12197,0 -0.18596,0c-0.06399,0 -0.12597,0 -0.18596,0zM290.96327,128.31521l-1.28371,-3.76115l0.74383,-0.006l0.9178,2.81337l-0.16196,-0.012l0.99578,-2.2015h0.4439l1.00178,2.2075l-0.19196,0.012l0.92379,-2.81337h0.74383l-1.26571,3.76116h-0.50988l-1.04976,-2.39346l0.16796,0.02399l-0.97178,2.36947zM295.88937,128.31521v-3.76115h0.73784v3.76116zM296.24929,123.72624c-0.15597,0 -0.27794,-0.03999 -0.36592,-0.11997c-0.08398,-0.08398 -0.12597,-0.19995 -0.12597,-0.34792c0,-0.13997 0.04399,-0.25194 0.13197,-0.33592c0.08798,-0.08798 0.20795,-0.13197 0.35992,-0.13197c0.15597,0 0.27594,0.04199 0.35992,0.12597c0.08798,0.07998 0.13197,0.19396 0.13197,0.34193c0,0.13997 -0.04399,0.25394 -0.13197,0.34193c-0.08798,0.08398 -0.20795,0.12597 -0.35992,0.12597zM298.22843,128.31521v-4.72094h0.73784v4.72094zM297.44261,125.2739v-0.71984h2.39346v0.71984zM300.5109,128.31521v-5.30281h0.73784v2.31548l-0.13197,0.08398c0.04799,-0.16396 0.14197,-0.31593 0.28194,-0.4559c0.13997,-0.14397 0.30393,-0.25994 0.49189,-0.34792c0.19196,-0.08798 0.38791,-0.13197 0.58787,-0.13197c0.28794,0 0.52588,0.05599 0.71384,0.16796c0.19196,0.11198 0.33592,0.28394 0.4319,0.51588c0.09598,0.22795 0.14397,0.51588 0.14397,0.86381v2.29149h-0.73783v-2.2435c0,-0.21195 -0.02799,-0.38791 -0.08398,-0.52788c-0.05599,-0.14397 -0.14397,-0.24794 -0.26394,-0.31193c-0.11997,-0.06399 -0.26794,-0.09198 -0.4439,-0.08398c-0.14397,0 -0.27594,0.02399 -0.39591,0.07198c-0.11997,0.04399 -0.22395,0.10798 -0.31193,0.19196c-0.08798,0.07998 -0.15797,0.17396 -0.20995,0.28194c-0.04799,0.10398 -0.07198,0.21795 -0.07198,0.34193v2.27949h-0.36592c-0.05999,0 -0.12197,0 -0.18596,0c-0.06399,0 -0.12597,0 -0.18596,0zM307.24589,128.31521v-4.72094h0.73784v4.72094zM306.46006,125.2739v-0.71984h2.39346v0.71984zM309.52835,128.31521v-5.30281h0.73784v2.31548l-0.13197,0.08398c0.04799,-0.16396 0.14197,-0.31593 0.28194,-0.4559c0.13997,-0.14397 0.30393,-0.25994 0.49189,-0.34792c0.19196,-0.08798 0.38791,-0.13197 0.58787,-0.13197c0.28794,0 0.52588,0.05599 0.71384,0.16796c0.19196,0.11198 0.33592,0.28394 0.4319,0.51588c0.09598,0.22795 0.14397,0.51588 0.14397,0.86381v2.29149h-0.73783v-2.2435c0,-0.21195 -0.02799,-0.38791 -0.08398,-0.52788c-0.05599,-0.14397 -0.14397,-0.24794 -0.26394,-0.31193c-0.11997,-0.06399 -0.26794,-0.09198 -0.4439,-0.08398c-0.14397,0 -0.27594,0.02399 -0.39591,0.07198c-0.11997,0.04399 -0.22395,0.10798 -0.31193,0.19196c-0.08798,0.07998 -0.15797,0.17396 -0.20995,0.28194c-0.04799,0.10398 -0.07198,0.21795 -0.07198,0.34193v2.27949h-0.36592c-0.05999,0 -0.12197,0 -0.18596,0c-0.06399,0 -0.12597,0 -0.18596,0zM315.54158,128.3872c-0.38391,0 -0.72584,-0.08198 -1.02577,-0.24594c-0.29594,-0.16396 -0.52988,-0.38991 -0.70184,-0.67785c-0.16796,-0.28794 -0.25194,-0.61786 -0.25194,-0.98978c0,-0.29593 0.04799,-0.56587 0.14397,-0.80982c0.09598,-0.24395 0.22795,-0.4539 0.39591,-0.62986c0.16796,-0.17996 0.36992,-0.31793 0.60587,-0.41391c0.23995,-0.09998 0.49789,-0.14996 0.77383,-0.14996c0.24394,0 0.4699,0.04599 0.67785,0.13797c0.21195,0.09198 0.39391,0.21995 0.54588,0.38391c0.15597,0.16396 0.27594,0.35792 0.35992,0.58187c0.08398,0.21995 0.12397,0.4599 0.11997,0.71984l-0.006,0.31793h-3.07131l-0.16796,-0.58787h2.59742l-0.10198,0.11997v-0.16796c-0.016,-0.15997 -0.06998,-0.30193 -0.16196,-0.4259c-0.08798,-0.12397 -0.20195,-0.22195 -0.34192,-0.29393c-0.13997,-0.07198 -0.28994,-0.10798 -0.4499,-0.10798c-0.25994,0 -0.47789,0.04999 -0.65385,0.14997c-0.17596,0.09598 -0.30993,0.23995 -0.40191,0.4319c-0.08798,0.18796 -0.13197,0.41991 -0.13197,0.69584c0,0.25994 0.05399,0.48789 0.16197,0.68385c0.10798,0.19196 0.26194,0.34193 0.4619,0.4499c0.20395,0.10398 0.4359,0.15597 0.69584,0.15597c0.18796,0 0.36192,-0.02999 0.52188,-0.08998c0.15996,-0.06399 0.33392,-0.17796 0.52188,-0.34192l0.37192,0.52188c-0.11598,0.11597 -0.25594,0.21795 -0.41991,0.30593c-0.16397,0.08398 -0.33792,0.15196 -0.52188,0.20395c-0.18396,0.04799 -0.36592,0.07198 -0.54588,0.07198z" fill="#ffffff" fill-rule="nonzero" stroke-width="1" stroke-linecap="square"/><path d="M240.40195,136.91488v-5.30281h0.73784v5.30281zM243.56173,136.98687c-0.30793,0 -0.58987,-0.08598 -0.84581,-0.25794c-0.25594,-0.17196 -0.46189,-0.40591 -0.61786,-0.70184c-0.15196,-0.29594 -0.22795,-0.62986 -0.22795,-1.00177c0,-0.37992 0.07798,-0.71584 0.23395,-1.00777c0.15597,-0.29193 0.36592,-0.52188 0.62986,-0.68984c0.26794,-0.16796 0.56587,-0.25194 0.8938,-0.25194c0.19595,0 0.37392,0.03 0.53388,0.08998c0.16397,0.05599 0.30593,0.13597 0.42591,0.23995c0.12397,0.09998 0.22395,0.21795 0.29993,0.35392c0.07998,0.13197 0.12997,0.27394 0.14997,0.42591l-0.16196,-0.05399v-0.97778h0.74383v3.76116h-0.74383v-0.8938l0.16796,-0.05399c-0.02799,0.13197 -0.08598,0.25994 -0.17396,0.38391c-0.08798,0.11997 -0.19996,0.22795 -0.33592,0.32393c-0.13597,0.09198 -0.28594,0.16796 -0.4499,0.22795c-0.16397,0.05599 -0.33792,0.08398 -0.52188,0.08398zM243.75369,136.30902c0.22795,0 0.42591,-0.05399 0.59387,-0.16196c0.17196,-0.11197 0.30593,-0.26394 0.40191,-0.4559c0.09998,-0.19595 0.14997,-0.41791 0.14997,-0.66585c0,-0.24394 -0.04999,-0.46189 -0.14996,-0.65385c-0.09598,-0.19196 -0.22995,-0.34192 -0.40191,-0.4499c-0.16796,-0.11197 -0.36592,-0.16796 -0.59386,-0.16796c-0.21995,0 -0.41391,0.05599 -0.58187,0.16796c-0.16796,0.10798 -0.30193,0.25794 -0.40191,0.4499c-0.09598,0.19196 -0.14397,0.40991 -0.14397,0.65386c0,0.24795 0.04799,0.4699 0.14397,0.66585c0.09998,0.19196 0.23395,0.34393 0.40191,0.4559c0.16796,0.10798 0.36192,0.16197 0.58187,0.16197zM247.11775,136.91488v-4.72094h0.73784v4.72094zM246.33192,133.87356v-0.71984h2.39346v0.71984zM251.11598,136.98687c-0.38391,0 -0.72584,-0.08198 -1.02577,-0.24594c-0.29594,-0.16397 -0.52988,-0.38991 -0.70184,-0.67785c-0.16796,-0.28794 -0.25194,-0.61786 -0.25194,-0.98978c0,-0.29594 0.04799,-0.56587 0.14397,-0.80982c0.09598,-0.24394 0.22795,-0.4539 0.39591,-0.62986c0.16796,-0.17996 0.36992,-0.31793 0.60587,-0.41391c0.23995,-0.09998 0.49789,-0.14996 0.77383,-0.14996c0.24394,0 0.4699,0.04599 0.67785,0.13797c0.21196,0.09198 0.39391,0.21995 0.54588,0.38391c0.15597,0.16397 0.27594,0.35792 0.35992,0.58187c0.08398,0.21995 0.12397,0.45989 0.11997,0.71984l-0.006,0.31793h-3.07131l-0.16796,-0.58787h2.59742l-0.10198,0.11997v-0.16796c-0.01599,-0.15996 -0.06998,-0.30193 -0.16196,-0.4259c-0.08798,-0.12397 -0.20195,-0.22195 -0.34192,-0.29393c-0.13997,-0.07198 -0.28994,-0.10798 -0.4499,-0.10798c-0.25994,0 -0.47789,0.04999 -0.65385,0.14997c-0.17596,0.09598 -0.30993,0.23995 -0.40191,0.4319c-0.08798,0.18796 -0.13197,0.41991 -0.13197,0.69584c0,0.25994 0.05399,0.48789 0.16197,0.68385c0.10798,0.19196 0.26194,0.34193 0.4619,0.4499c0.20395,0.10398 0.4359,0.15597 0.69584,0.15597c0.18796,0 0.36192,-0.02999 0.52188,-0.08998c0.15996,-0.06398 0.33392,-0.17796 0.52188,-0.34192l0.37192,0.52188c-0.11598,0.11598 -0.25594,0.21795 -0.41991,0.30593c-0.16397,0.08398 -0.33792,0.15197 -0.52188,0.20395c-0.18396,0.04799 -0.36592,0.07198 -0.54588,0.07198zM254.81526,136.98687c-0.31593,0 -0.59987,-0.05399 -0.85181,-0.16196c-0.25194,-0.11197 -0.46189,-0.27594 -0.62986,-0.49189l0.49789,-0.4259c0.14397,0.16397 0.29993,0.28394 0.4679,0.35992c0.17196,0.07198 0.36592,0.10798 0.58187,0.10798c0.08398,0 0.16197,-0.01 0.23395,-0.02999c0.07598,-0.02 0.14197,-0.05199 0.19796,-0.09598c0.05599,-0.04399 0.09798,-0.09598 0.12597,-0.15597c0.02799,-0.05999 0.04199,-0.12597 0.04199,-0.19795c0,-0.12397 -0.04599,-0.22395 -0.13797,-0.29993c-0.04799,-0.032 -0.12397,-0.06799 -0.22795,-0.10798c-0.09998,-0.03999 -0.23195,-0.08198 -0.39591,-0.12597c-0.27594,-0.07198 -0.50189,-0.15197 -0.67785,-0.23995c-0.17596,-0.09198 -0.31193,-0.19595 -0.40791,-0.31193c-0.07198,-0.09198 -0.12597,-0.18996 -0.16196,-0.29393c-0.032,-0.10798 -0.04799,-0.22795 -0.04799,-0.35992c0,-0.15597 0.03399,-0.29993 0.10198,-0.4319c0.07198,-0.13197 0.16796,-0.24594 0.28794,-0.34192c0.12397,-0.09998 0.26794,-0.17596 0.4319,-0.22795c0.16397,-0.05199 0.33992,-0.07798 0.52788,-0.07798c0.17596,0 0.34992,0.02399 0.52188,0.07198c0.17596,0.04799 0.33792,0.11797 0.48589,0.20995c0.14796,0.08798 0.27194,0.19396 0.37192,0.31793l-0.41991,0.4679c-0.09198,-0.09198 -0.19196,-0.17196 -0.29993,-0.23995c-0.10798,-0.06799 -0.21795,-0.11997 -0.32992,-0.15597c-0.10798,-0.03999 -0.20595,-0.05999 -0.29393,-0.05999c-0.09998,0 -0.19196,0.01 -0.27594,0.03c-0.07998,0.01599 -0.14796,0.04399 -0.20395,0.08398c-0.05199,0.03599 -0.09398,0.08398 -0.12597,0.14397c-0.02799,0.05599 -0.04199,0.11997 -0.04199,0.19196c0.004,0.05999 0.02,0.11797 0.04799,0.17396c0.02799,0.05599 0.06599,0.10198 0.11398,0.13797c0.05199,0.03999 0.12997,0.08198 0.23395,0.12597c0.10398,0.03999 0.23795,0.07998 0.40191,0.11997c0.23595,0.05999 0.4319,0.12797 0.58787,0.20395c0.15597,0.07198 0.27993,0.15597 0.37192,0.25194c0.09598,0.09198 0.16197,0.19796 0.19796,0.31793c0.03999,0.11997 0.05999,0.25394 0.05999,0.40191c0,0.21196 -0.06199,0.40391 -0.18596,0.57587c-0.11997,0.16796 -0.28394,0.29993 -0.49189,0.39591c-0.20395,0.09598 -0.4319,0.14397 -0.68385,0.14397zM257.46022,136.91488v-4.72094h0.73784v4.72094zM256.6744,133.87356v-0.71984h2.39346v0.71984zM263.19383,136.98687c-0.30793,0 -0.58987,-0.08598 -0.84581,-0.25794c-0.25594,-0.17196 -0.46189,-0.40591 -0.61786,-0.70184c-0.15197,-0.29594 -0.22795,-0.62986 -0.22795,-1.00177c0,-0.37992 0.07798,-0.71584 0.23395,-1.00777c0.15597,-0.29193 0.36592,-0.52188 0.62986,-0.68984c0.26794,-0.16796 0.56587,-0.25194 0.8938,-0.25194c0.19595,0 0.37392,0.03 0.53388,0.08998c0.16397,0.05599 0.30593,0.13597 0.42591,0.23995c0.12397,0.09998 0.22395,0.21795 0.29993,0.35392c0.07998,0.13197 0.12997,0.27394 0.14997,0.42591l-0.16196,-0.05399v-0.97778h0.74383v3.76116h-0.74383v-0.8938l0.16796,-0.05399c-0.02799,0.13197 -0.08598,0.25994 -0.17396,0.38391c-0.08798,0.11997 -0.19996,0.22795 -0.33592,0.32393c-0.13597,0.09198 -0.28594,0.16796 -0.4499,0.22795c-0.16397,0.05599 -0.33792,0.08398 -0.52188,0.08398zM263.38579,136.30902c0.22795,0 0.42591,-0.05399 0.59387,-0.16196c0.17196,-0.11197 0.30593,-0.26394 0.40191,-0.4559c0.09998,-0.19595 0.14997,-0.41791 0.14997,-0.66585c0,-0.24394 -0.04999,-0.46189 -0.14996,-0.65385c-0.09598,-0.19196 -0.22995,-0.34192 -0.40191,-0.4499c-0.16796,-0.11197 -0.36592,-0.16796 -0.59386,-0.16796c-0.21995,0 -0.41391,0.05599 -0.58187,0.16796c-0.16796,0.10798 -0.30193,0.25794 -0.40191,0.4499c-0.09598,0.19196 -0.14397,0.40991 -0.14397,0.65386c0,0.24795 0.04799,0.4699 0.14397,0.66585c0.09998,0.19196 0.23395,0.34393 0.40191,0.4559c0.16796,0.10798 0.36192,0.16197 0.58187,0.16197zM266.28196,136.91488v-3.76115h0.73784v0.77383l-0.13197,0.08398c0.04799,-0.16397 0.14197,-0.31593 0.28194,-0.4559c0.13997,-0.14397 0.30393,-0.25994 0.49189,-0.34792c0.19196,-0.08798 0.38791,-0.13197 0.58787,-0.13197c0.28794,0 0.52588,0.05599 0.71384,0.16796c0.19196,0.11197 0.33592,0.28394 0.4319,0.51588c0.09598,0.22795 0.14397,0.51588 0.14397,0.86381v2.29149h-0.73783v-2.2435c0,-0.21196 -0.02799,-0.38791 -0.08398,-0.52788c-0.05599,-0.14397 -0.14397,-0.24795 -0.26394,-0.31193c-0.11997,-0.06398 -0.26794,-0.09198 -0.4439,-0.08398c-0.14397,0 -0.27594,0.02399 -0.39591,0.07198c-0.11997,0.04399 -0.22395,0.10798 -0.31193,0.19196c-0.08798,0.07998 -0.15797,0.17396 -0.20995,0.28194c-0.04799,0.10398 -0.07198,0.21795 -0.07198,0.34193v2.27949h-0.36592c-0.05999,0 -0.12197,0 -0.18596,0c-0.06399,0 -0.12597,0 -0.18596,0zM270.54358,136.91488v-3.76115h0.73784v0.77383l-0.13197,0.08398c0.04799,-0.16397 0.14197,-0.31593 0.28194,-0.4559c0.13997,-0.14397 0.30393,-0.25994 0.49189,-0.34792c0.19196,-0.08798 0.38791,-0.13197 0.58787,-0.13197c0.28794,0 0.52588,0.05599 0.71384,0.16796c0.19196,0.11197 0.33592,0.28394 0.4319,0.51588c0.09598,0.22795 0.14397,0.51588 0.14397,0.86381v2.29149h-0.73783v-2.2435c0,-0.21196 -0.02799,-0.38791 -0.08398,-0.52788c-0.05599,-0.14397 -0.14397,-0.24795 -0.26394,-0.31193c-0.11997,-0.06398 -0.26794,-0.09198 -0.4439,-0.08398c-0.14397,0 -0.27594,0.02399 -0.39591,0.07198c-0.11997,0.04399 -0.22395,0.10798 -0.31193,0.19196c-0.08798,0.07998 -0.15797,0.17396 -0.20995,0.28194c-0.04799,0.10398 -0.07198,0.21795 -0.07198,0.34193v2.27949h-0.36592c-0.05999,0 -0.12197,0 -0.18596,0c-0.06398,0 -0.12597,0 -0.18596,0zM276.49682,136.98687c-0.36792,0 -0.69784,-0.08398 -0.98978,-0.25194c-0.28794,-0.17196 -0.51588,-0.40391 -0.68385,-0.69584c-0.16396,-0.29594 -0.24594,-0.63186 -0.24594,-1.00777c0,-0.37591 0.08198,-0.70984 0.24595,-1.00177c0.16796,-0.29594 0.39591,-0.52788 0.68385,-0.69584c0.29194,-0.17196 0.62186,-0.25794 0.98978,-0.25794c0.35992,0 0.68385,0.08598 0.97178,0.25794c0.29194,0.16796 0.52188,0.39991 0.68985,0.69584c0.16796,0.29193 0.25194,0.62586 0.25194,1.00178c0,0.37591 -0.08398,0.71184 -0.25194,1.00777c-0.16796,0.29193 -0.39791,0.52389 -0.68984,0.69584c-0.28794,0.16796 -0.61186,0.25194 -0.97178,0.25194zM276.49682,136.31502c0.22395,0 0.42391,-0.05599 0.59987,-0.16796c0.17596,-0.11197 0.31393,-0.26394 0.41391,-0.4559c0.09998,-0.19595 0.14797,-0.41591 0.14397,-0.65985c0.004,-0.24795 -0.04399,-0.4679 -0.14397,-0.65985c-0.09998,-0.19595 -0.23795,-0.34792 -0.41391,-0.4559c-0.17596,-0.11197 -0.37592,-0.16796 -0.59987,-0.16796c-0.22395,0 -0.4259,0.05599 -0.60586,0.16796c-0.17996,0.11197 -0.31993,0.26594 -0.41991,0.4619c-0.09998,0.19196 -0.14797,0.40991 -0.14397,0.65386c-0.004,0.24394 0.04399,0.4639 0.14397,0.65985c0.09998,0.19196 0.23995,0.34393 0.41991,0.4559c0.17996,0.11197 0.38191,0.16796 0.60587,0.16796zM280.52978,136.98687c-0.26794,0 -0.50189,-0.06199 -0.70184,-0.18596c-0.19595,-0.12397 -0.34792,-0.29793 -0.4559,-0.52188c-0.10798,-0.22395 -0.16196,-0.49189 -0.16196,-0.80382v-2.32148h0.73784v2.12352c0,0.21595 0.03399,0.40391 0.10198,0.56387c0.07198,0.15996 0.17196,0.28394 0.29993,0.37192c0.13197,0.08398 0.29193,0.12597 0.47989,0.12597c0.13597,0 0.26194,-0.02199 0.37792,-0.06598c0.11598,-0.04399 0.21595,-0.10598 0.29993,-0.18596c0.08398,-0.08398 0.14796,-0.18196 0.19196,-0.29393c0.04799,-0.11598 0.07198,-0.24195 0.07198,-0.37791v-2.26149h0.73784v3.76116h-0.73783v-0.78582l0.13197,-0.08998c-0.05599,0.17996 -0.15197,0.34193 -0.28794,0.48589c-0.13597,0.13997 -0.29793,0.25194 -0.48589,0.33592c-0.18796,0.08398 -0.38791,0.12597 -0.59987,0.12597zM283.54332,136.91488v-3.76115h0.73784v0.77383l-0.13197,0.08398c0.04799,-0.16397 0.14197,-0.31593 0.28194,-0.4559c0.13997,-0.14397 0.30393,-0.25994 0.49189,-0.34792c0.19196,-0.08798 0.38791,-0.13197 0.58787,-0.13197c0.28794,0 0.52588,0.05599 0.71384,0.16796c0.19196,0.11197 0.33592,0.28394 0.4319,0.51588c0.09598,0.22795 0.14397,0.51588 0.14397,0.86381v2.29149h-0.73783v-2.2435c0,-0.21196 -0.02799,-0.38791 -0.08398,-0.52788c-0.05599,-0.14397 -0.14397,-0.24795 -0.26394,-0.31193c-0.11997,-0.06398 -0.26794,-0.09198 -0.4439,-0.08398c-0.14397,0 -0.27594,0.02399 -0.39591,0.07198c-0.11997,0.04399 -0.22395,0.10798 -0.31193,0.19196c-0.08798,0.07998 -0.15797,0.17396 -0.20995,0.28194c-0.04799,0.10398 -0.07198,0.21795 -0.07198,0.34193v2.27949h-0.36592c-0.05999,0 -0.12197,0 -0.18596,0c-0.06399,0 -0.12597,0 -0.18596,0zM289.40058,136.98687c-0.34792,0 -0.65985,-0.08598 -0.93579,-0.25794c-0.27194,-0.17196 -0.48789,-0.40591 -0.64785,-0.70184c-0.15996,-0.29594 -0.23995,-0.62786 -0.23995,-0.99578c0,-0.36792 0.07998,-0.69984 0.23995,-0.99578c0.15997,-0.29594 0.37592,-0.52988 0.64785,-0.70184c0.27594,-0.17196 0.58787,-0.25794 0.93579,-0.25794c0.33592,0 0.63986,0.06799 0.9118,0.20395c0.27594,0.13597 0.48589,0.32193 0.62986,0.55788l-0.40791,0.49789c-0.07598,-0.10798 -0.17396,-0.20795 -0.29393,-0.29993c-0.11997,-0.09198 -0.24794,-0.16397 -0.38391,-0.21595c-0.13197,-0.05199 -0.25994,-0.07798 -0.38391,-0.07798c-0.22795,0 -0.4319,0.05599 -0.61186,0.16796c-0.17996,0.11197 -0.32193,0.26594 -0.4259,0.4619c-0.10398,0.19595 -0.15597,0.41591 -0.15597,0.65985c0,0.24394 0.05399,0.4639 0.16197,0.65985c0.11198,0.19196 0.25794,0.34592 0.4379,0.4619c0.17996,0.11197 0.37992,0.16796 0.59987,0.16796c0.13197,0 0.25794,-0.02199 0.37792,-0.06598c0.11997,-0.04399 0.23795,-0.10798 0.35392,-0.19196c0.11598,-0.08798 0.22395,-0.19396 0.32393,-0.31793l0.40791,0.50389c-0.15196,0.21595 -0.36992,0.39391 -0.65385,0.53388c-0.28394,0.13597 -0.57987,0.20395 -0.8878,0.20395zM293.38843,136.98687c-0.38391,0 -0.72584,-0.08198 -1.02577,-0.24594c-0.29593,-0.16397 -0.52988,-0.38991 -0.70184,-0.67785c-0.16796,-0.28794 -0.25194,-0.61786 -0.25194,-0.98978c0,-0.29594 0.04799,-0.56587 0.14397,-0.80982c0.09598,-0.24394 0.22795,-0.4539 0.39591,-0.62986c0.16796,-0.17996 0.36992,-0.31793 0.60587,-0.41391c0.23995,-0.09998 0.49789,-0.14996 0.77383,-0.14996c0.24395,0 0.4699,0.04599 0.67785,0.13797c0.21196,0.09198 0.39391,0.21995 0.54588,0.38391c0.15597,0.16397 0.27594,0.35792 0.35992,0.58187c0.08398,0.21995 0.12397,0.45989 0.11997,0.71984l-0.006,0.31793h-3.07131l-0.16796,-0.58787h2.59742l-0.10198,0.11997v-0.16796c-0.01599,-0.15996 -0.06998,-0.30193 -0.16196,-0.4259c-0.08798,-0.12397 -0.20195,-0.22195 -0.34192,-0.29393c-0.13997,-0.07198 -0.28994,-0.10798 -0.4499,-0.10798c-0.25994,0 -0.47789,0.04999 -0.65385,0.14997c-0.17596,0.09598 -0.30993,0.23995 -0.40191,0.4319c-0.08798,0.18796 -0.13197,0.41991 -0.13197,0.69584c0,0.25994 0.05399,0.48789 0.16197,0.68385c0.10798,0.19196 0.26194,0.34193 0.4619,0.4499c0.20395,0.10398 0.4359,0.15597 0.69584,0.15597c0.18796,0 0.36192,-0.02999 0.52188,-0.08998c0.15997,-0.06398 0.33392,-0.17796 0.52188,-0.34192l0.37192,0.52188c-0.11597,0.11598 -0.25594,0.21795 -0.41991,0.30593c-0.16396,0.08398 -0.33792,0.15197 -0.52188,0.20395c-0.18396,0.04799 -0.36592,0.07198 -0.54588,0.07198zM295.82199,136.91488v-3.76115h0.74383v0.80382l-0.13797,0.08398c0.03999,-0.12397 0.09998,-0.24195 0.17996,-0.35392c0.08398,-0.11598 0.18596,-0.21795 0.30593,-0.30593c0.12397,-0.08798 0.25594,-0.15797 0.39591,-0.20995c0.14397,-0.05599 0.28994,-0.08398 0.4379,-0.08398c0.21195,0 0.39991,0.03599 0.56387,0.10798c0.16396,0.07198 0.29793,0.17996 0.40191,0.32393c0.10398,0.14397 0.17996,0.32393 0.22795,0.53988l-0.11397,-0.02999l0.04799,-0.11997c0.05599,-0.11197 0.12997,-0.21595 0.22195,-0.31193c0.09198,-0.09998 0.19796,-0.18796 0.31793,-0.26394c0.11997,-0.07598 0.24595,-0.13597 0.37792,-0.17996c0.13597,-0.04399 0.26794,-0.06598 0.39591,-0.06598c0.27993,0 0.51188,0.05799 0.69584,0.17396c0.18396,0.11598 0.32193,0.29193 0.41391,0.52788c0.09598,0.23195 0.14397,0.52188 0.14397,0.86981v2.25549h-0.74383v-2.2135c0,-0.21595 -0.02799,-0.39191 -0.08398,-0.52788c-0.05599,-0.13597 -0.13997,-0.23595 -0.25194,-0.29993c-0.10798,-0.06799 -0.24795,-0.10198 -0.41991,-0.10198c-0.13197,0 -0.25794,0.02399 -0.37791,0.07198c-0.11598,0.04399 -0.21795,0.10598 -0.30593,0.18596c-0.08398,0.07998 -0.14996,0.17396 -0.19795,0.28194c-0.04399,0.10798 -0.06598,0.22595 -0.06598,0.35392v2.2495h-0.74983v-2.2255c0,-0.19595 -0.02799,-0.36192 -0.08398,-0.49789c-0.05599,-0.13597 -0.13997,-0.23995 -0.25194,-0.31193c-0.10798,-0.07198 -0.24195,-0.10798 -0.40191,-0.10798c-0.13197,0 -0.25594,0.02399 -0.37192,0.07198c-0.11198,0.04399 -0.21196,0.10598 -0.29993,0.18596c-0.08398,0.07598 -0.14996,0.16796 -0.19795,0.27594c-0.04799,0.10798 -0.07198,0.22395 -0.07198,0.34792v2.26149zM304.18216,136.98687c-0.38391,0 -0.72584,-0.08198 -1.02577,-0.24594c-0.29593,-0.16397 -0.52988,-0.38991 -0.70184,-0.67785c-0.16796,-0.28794 -0.25194,-0.61786 -0.25194,-0.98978c0,-0.29594 0.04799,-0.56587 0.14397,-0.80982c0.09598,-0.24394 0.22795,-0.4539 0.39591,-0.62986c0.16796,-0.17996 0.36992,-0.31793 0.60587,-0.41391c0.23995,-0.09998 0.49789,-0.14996 0.77383,-0.14996c0.24395,0 0.4699,0.04599 0.67785,0.13797c0.21196,0.09198 0.39391,0.21995 0.54588,0.38391c0.15597,0.16397 0.27594,0.35792 0.35992,0.58187c0.08398,0.21995 0.12397,0.45989 0.11997,0.71984l-0.006,0.31793h-3.07131l-0.16796,-0.58787h2.59742l-0.10198,0.11997v-0.16796c-0.01599,-0.15996 -0.06998,-0.30193 -0.16196,-0.4259c-0.08798,-0.12397 -0.20195,-0.22195 -0.34192,-0.29393c-0.13997,-0.07198 -0.28994,-0.10798 -0.4499,-0.10798c-0.25994,0 -0.47789,0.04999 -0.65385,0.14997c-0.17596,0.09598 -0.30993,0.23995 -0.40191,0.4319c-0.08798,0.18796 -0.13197,0.41991 -0.13197,0.69584c0,0.25994 0.05399,0.48789 0.16197,0.68385c0.10798,0.19196 0.26194,0.34193 0.4619,0.4499c0.20395,0.10398 0.4359,0.15597 0.69584,0.15597c0.18796,0 0.36192,-0.02999 0.52188,-0.08998c0.15997,-0.06398 0.33392,-0.17796 0.52188,-0.34192l0.37192,0.52188c-0.11597,0.11598 -0.25594,0.21795 -0.41991,0.30593c-0.16396,0.08398 -0.33792,0.15197 -0.52188,0.20395c-0.18396,0.04799 -0.36592,0.07198 -0.54588,0.07198zM306.62772,136.91488v-3.76115h0.73784v0.77383l-0.13197,0.08398c0.04799,-0.16397 0.14197,-0.31593 0.28194,-0.4559c0.13997,-0.14397 0.30393,-0.25994 0.49189,-0.34792c0.19196,-0.08798 0.38791,-0.13197 0.58787,-0.13197c0.28794,0 0.52588,0.05599 0.71384,0.16796c0.19196,0.11197 0.33592,0.28394 0.4319,0.51588c0.09598,0.22795 0.14397,0.51588 0.14397,0.86381v2.29149h-0.73783v-2.2435c0,-0.21196 -0.02799,-0.38791 -0.08398,-0.52788c-0.05599,-0.14397 -0.14397,-0.24795 -0.26394,-0.31193c-0.11997,-0.06398 -0.26794,-0.09198 -0.4439,-0.08398c-0.14397,0 -0.27594,0.02399 -0.39591,0.07198c-0.11997,0.04399 -0.22395,0.10798 -0.31193,0.19196c-0.08798,0.07998 -0.15797,0.17396 -0.20995,0.28194c-0.04799,0.10398 -0.07198,0.21795 -0.07198,0.34193v2.27949h-0.36592c-0.05999,0 -0.12197,0 -0.18596,0c-0.06399,0 -0.12597,0 -0.18596,0zM311.35724,136.91488v-4.72094h0.73784v4.72094zM310.57141,133.87356v-0.71984h2.39346v0.71984zM315.03675,136.98687c-0.31593,0 -0.59987,-0.05399 -0.85181,-0.16196c-0.25194,-0.11197 -0.46189,-0.27594 -0.62986,-0.49189l0.49789,-0.4259c0.14397,0.16397 0.29993,0.28394 0.4679,0.35992c0.17196,0.07198 0.36592,0.10798 0.58187,0.10798c0.08398,0 0.16197,-0.01 0.23395,-0.02999c0.07598,-0.02 0.14197,-0.05199 0.19796,-0.09598c0.05599,-0.04399 0.09798,-0.09598 0.12597,-0.15597c0.02799,-0.05999 0.04199,-0.12597 0.04199,-0.19795c0,-0.12397 -0.04599,-0.22395 -0.13797,-0.29993c-0.04799,-0.032 -0.12397,-0.06799 -0.22795,-0.10798c-0.09998,-0.03999 -0.23195,-0.08198 -0.39591,-0.12597c-0.27594,-0.07198 -0.50189,-0.15197 -0.67785,-0.23995c-0.17596,-0.09198 -0.31193,-0.19595 -0.40791,-0.31193c-0.07198,-0.09198 -0.12597,-0.18996 -0.16196,-0.29393c-0.03199,-0.10798 -0.04799,-0.22795 -0.04799,-0.35992c0,-0.15597 0.03399,-0.29993 0.10198,-0.4319c0.07198,-0.13197 0.16796,-0.24594 0.28794,-0.34192c0.12397,-0.09998 0.26794,-0.17596 0.4319,-0.22795c0.16397,-0.05199 0.33993,-0.07798 0.52788,-0.07798c0.17596,0 0.34992,0.02399 0.52188,0.07198c0.17596,0.04799 0.33792,0.11797 0.48589,0.20995c0.14797,0.08798 0.27194,0.19396 0.37192,0.31793l-0.41991,0.4679c-0.09198,-0.09198 -0.19196,-0.17196 -0.29993,-0.23995c-0.10798,-0.06799 -0.21795,-0.11997 -0.32992,-0.15597c-0.10798,-0.03999 -0.20595,-0.05999 -0.29393,-0.05999c-0.09998,0 -0.19196,0.01 -0.27594,0.03c-0.07998,0.01599 -0.14796,0.04399 -0.20395,0.08398c-0.05199,0.03599 -0.09398,0.08398 -0.12597,0.14397c-0.02799,0.05599 -0.04199,0.11997 -0.04199,0.19196c0.004,0.05999 0.02,0.11797 0.04799,0.17396c0.02799,0.05599 0.06599,0.10198 0.11398,0.13797c0.05199,0.03999 0.12997,0.08198 0.23395,0.12597c0.10398,0.03999 0.23795,0.07998 0.40191,0.11997c0.23595,0.05999 0.4319,0.12797 0.58787,0.20395c0.15597,0.07198 0.27994,0.15597 0.37192,0.25194c0.09598,0.09198 0.16197,0.19796 0.19796,0.31793c0.03999,0.11997 0.05999,0.25394 0.05999,0.40191c0,0.21196 -0.06199,0.40391 -0.18596,0.57587c-0.11997,0.16796 -0.28394,0.29993 -0.49189,0.39591c-0.20395,0.09598 -0.4319,0.14397 -0.68385,0.14397z" fill="#ffffff" fill-rule="nonzero" stroke-width="1" stroke-linecap="square"/><path d="M242.08158,145.58654c-0.36792,0 -0.69784,-0.08398 -0.98978,-0.25194c-0.28794,-0.17196 -0.51588,-0.40391 -0.68385,-0.69584c-0.16396,-0.29594 -0.24594,-0.63186 -0.24594,-1.00777c0,-0.37592 0.08198,-0.70984 0.24595,-1.00177c0.16796,-0.29594 0.39591,-0.52788 0.68385,-0.69584c0.29194,-0.17196 0.62186,-0.25794 0.98978,-0.25794c0.35992,0 0.68385,0.08598 0.97178,0.25794c0.29194,0.16796 0.52188,0.39991 0.68985,0.69584c0.16796,0.29193 0.25194,0.62586 0.25194,1.00178c0,0.37591 -0.08398,0.71184 -0.25194,1.00777c-0.16796,0.29193 -0.39791,0.52388 -0.68985,0.69584c-0.28794,0.16796 -0.61186,0.25194 -0.97178,0.25194zM242.08158,144.91469c0.22395,0 0.42391,-0.05599 0.59987,-0.16796c0.17596,-0.11198 0.31393,-0.26394 0.41391,-0.4559c0.09998,-0.19596 0.14797,-0.41591 0.14397,-0.65985c0.004,-0.24795 -0.04399,-0.4679 -0.14397,-0.65985c-0.09998,-0.19596 -0.23795,-0.34792 -0.41391,-0.4559c-0.17596,-0.11198 -0.37592,-0.16796 -0.59987,-0.16796c-0.22395,0 -0.4259,0.05599 -0.60586,0.16796c-0.17996,0.11197 -0.31993,0.26594 -0.41991,0.4619c-0.09998,0.19196 -0.14797,0.40991 -0.14397,0.65386c-0.004,0.24394 0.04399,0.46389 0.14397,0.65985c0.09998,0.19196 0.23995,0.34392 0.41991,0.4559c0.17996,0.11197 0.38191,0.16796 0.60587,0.16796zM244.79483,145.51456v-3.76115h0.73784v0.77383l-0.13197,0.08398c0.04799,-0.16397 0.14197,-0.31593 0.28194,-0.4559c0.13997,-0.14397 0.30393,-0.25994 0.49189,-0.34792c0.19196,-0.08798 0.38791,-0.13197 0.58787,-0.13197c0.28794,0 0.52588,0.05599 0.71384,0.16796c0.19196,0.11197 0.33592,0.28394 0.4319,0.51588c0.09598,0.22795 0.14397,0.51588 0.14397,0.86381v2.29149h-0.73783v-2.2435c0,-0.21196 -0.02799,-0.38791 -0.08398,-0.52788c-0.05599,-0.14397 -0.14397,-0.24795 -0.26394,-0.31193c-0.11997,-0.06399 -0.26794,-0.09198 -0.4439,-0.08398c-0.14397,0 -0.27594,0.02399 -0.39591,0.07198c-0.11997,0.04399 -0.22395,0.10798 -0.31193,0.19196c-0.08798,0.07998 -0.15797,0.17396 -0.20995,0.28194c-0.04799,0.10398 -0.07198,0.21795 -0.07198,0.34193v2.27949h-0.36592c-0.05999,0 -0.12197,0 -0.18596,0c-0.06399,0 -0.12597,0 -0.18596,0zM251.24788,145.51456v-5.01487h2.03954c0.27194,0 0.51788,0.06798 0.73784,0.20395c0.22395,0.13597 0.40191,0.32193 0.53388,0.55788c0.13597,0.23195 0.20395,0.49189 0.20395,0.77983c0,0.28794 -0.06799,0.54988 -0.20395,0.78583c-0.13197,0.23195 -0.30993,0.41791 -0.53388,0.55788c-0.21995,0.13997 -0.46589,0.20995 -0.73783,0.20995h-1.26571v1.91957zM252.02171,142.85115h1.25372c0.12797,0 0.24394,-0.03599 0.34792,-0.10798c0.10798,-0.07598 0.19396,-0.17396 0.25794,-0.29393c0.06398,-0.12397 0.09598,-0.25994 0.09598,-0.40791c0,-0.14797 -0.032,-0.28193 -0.09598,-0.40191c-0.06399,-0.11997 -0.14996,-0.21595 -0.25794,-0.28794c-0.10398,-0.07198 -0.21995,-0.10798 -0.34792,-0.10798h-1.25372zM257.22284,145.58654c-0.36792,0 -0.69784,-0.08398 -0.98978,-0.25194c-0.28794,-0.17196 -0.51588,-0.40391 -0.68385,-0.69584c-0.16397,-0.29594 -0.24594,-0.63186 -0.24594,-1.00777c0,-0.37592 0.08198,-0.70984 0.24595,-1.00177c0.16796,-0.29594 0.39591,-0.52788 0.68385,-0.69584c0.29193,-0.17196 0.62186,-0.25794 0.98978,-0.25794c0.35992,0 0.68385,0.08598 0.97178,0.25794c0.29193,0.16796 0.52188,0.39991 0.68985,0.69584c0.16796,0.29193 0.25194,0.62586 0.25194,1.00178c0,0.37591 -0.08398,0.71184 -0.25194,1.00777c-0.16796,0.29193 -0.39791,0.52388 -0.68984,0.69584c-0.28794,0.16796 -0.61186,0.25194 -0.97178,0.25194zM257.22284,144.91469c0.22395,0 0.4239,-0.05599 0.59987,-0.16796c0.17596,-0.11198 0.31393,-0.26394 0.41391,-0.4559c0.09998,-0.19596 0.14796,-0.41591 0.14397,-0.65985c0.004,-0.24795 -0.04399,-0.4679 -0.14397,-0.65985c-0.09998,-0.19596 -0.23795,-0.34792 -0.41391,-0.4559c-0.17596,-0.11198 -0.37591,-0.16796 -0.59987,-0.16796c-0.22395,0 -0.4259,0.05599 -0.60586,0.16796c-0.17996,0.11197 -0.31993,0.26594 -0.41991,0.4619c-0.09998,0.19196 -0.14796,0.40991 -0.14397,0.65386c-0.004,0.24394 0.04399,0.46389 0.14397,0.65985c0.09998,0.19196 0.23995,0.34392 0.41991,0.4559c0.17996,0.11197 0.38191,0.16796 0.60587,0.16796zM259.94809,145.51456v-5.30281h0.73784v5.30281zM262.25622,147.16418l0.76183,-1.7576l0.006,0.58787l-1.87758,-4.24105h0.85781l1.17574,2.76538c0.02399,0.04799 0.05199,0.12197 0.08398,0.22195c0.03599,0.09598 0.06599,0.19196 0.08998,0.28794l-0.18596,0.04199c0.03599,-0.09998 0.07198,-0.19996 0.10798,-0.29993c0.03599,-0.09998 0.06998,-0.19996 0.10198,-0.29993l0.98378,-2.71739h0.8758l-1.54765,3.76116l-0.63586,1.64963zM268.0732,145.58654c-0.35592,0 -0.68385,-0.06399 -0.98378,-0.19196c-0.29594,-0.13197 -0.55587,-0.31193 -0.77983,-0.53988c-0.21995,-0.23195 -0.39191,-0.50389 -0.51588,-0.81582c-0.11997,-0.31593 -0.17996,-0.65985 -0.17996,-1.03177c0,-0.37192 0.05999,-0.71384 0.17996,-1.02577c0.12397,-0.31193 0.29594,-0.58387 0.51588,-0.81582c0.22395,-0.23195 0.48389,-0.41191 0.77983,-0.53988c0.29993,-0.13197 0.62786,-0.19795 0.98378,-0.19795c0.35192,0 0.67585,0.06599 0.97178,0.19796c0.29993,0.12797 0.56187,0.30993 0.78583,0.54588c0.22395,0.23195 0.39591,0.50389 0.51588,0.81582c0.11997,0.31193 0.17996,0.65185 0.17996,1.01977c0,0.36792 -0.05999,0.70784 -0.17996,1.01977c-0.11997,0.31193 -0.29193,0.58587 -0.51588,0.82182c-0.22395,0.23195 -0.48589,0.41391 -0.78582,0.54588c-0.29594,0.12797 -0.61986,0.19196 -0.97178,0.19196zM268.0732,144.83671c0.24394,0 0.46589,-0.04599 0.66585,-0.13797c0.20395,-0.09198 0.37992,-0.21995 0.52788,-0.38391c0.14796,-0.16397 0.26394,-0.35592 0.34792,-0.57587c0.08398,-0.22395 0.12597,-0.4679 0.12597,-0.73184c0,-0.26394 -0.04199,-0.50589 -0.12597,-0.72584c-0.08398,-0.22395 -0.19996,-0.41791 -0.34792,-0.58187c-0.14796,-0.16397 -0.32393,-0.28994 -0.52788,-0.37791c-0.19996,-0.09198 -0.42191,-0.13797 -0.66585,-0.13797c-0.24394,0 -0.4679,0.04599 -0.67185,0.13797c-0.20395,0.08798 -0.38191,0.21395 -0.53388,0.37792c-0.14796,0.15996 -0.26194,0.35192 -0.34192,0.57587c-0.07998,0.21995 -0.11997,0.46389 -0.11997,0.73184c0,0.26394 0.03999,0.50788 0.11997,0.73184c0.07998,0.22395 0.19396,0.41791 0.34193,0.58187c0.15197,0.15996 0.32993,0.28594 0.53388,0.37792c0.20395,0.09198 0.42791,0.13797 0.67185,0.13797zM273.12232,145.58654c-0.27194,0 -0.52389,-0.03599 -0.75583,-0.10798c-0.23195,-0.07198 -0.4419,-0.17996 -0.62986,-0.32393c-0.18796,-0.14797 -0.35592,-0.32793 -0.50389,-0.53988l0.52788,-0.61186c0.23595,0.33592 0.4599,0.56787 0.67185,0.69584c0.21595,0.12797 0.47189,0.19196 0.76783,0.19196c0.17996,0 0.34392,-0.02799 0.49189,-0.08398c0.14796,-0.05999 0.26394,-0.13997 0.34792,-0.23995c0.08798,-0.09998 0.13197,-0.21395 0.13197,-0.34192c0,-0.08398 -0.014,-0.16397 -0.04199,-0.23995c-0.02799,-0.07998 -0.07198,-0.14996 -0.13197,-0.20995c-0.05999,-0.06399 -0.13597,-0.12197 -0.22795,-0.17396c-0.09198,-0.05199 -0.19996,-0.09798 -0.32393,-0.13797c-0.12397,-0.03999 -0.26794,-0.07398 -0.4319,-0.10198c-0.25594,-0.05599 -0.47989,-0.12597 -0.67185,-0.20995c-0.19196,-0.08798 -0.35192,-0.19596 -0.47989,-0.32393c-0.12797,-0.12797 -0.22395,-0.27394 -0.28794,-0.4379c-0.06398,-0.16397 -0.09598,-0.34992 -0.09598,-0.55787c0,-0.19996 0.04399,-0.38591 0.13197,-0.55787c0.09198,-0.17196 0.21395,-0.31993 0.36592,-0.4439c0.15597,-0.12797 0.33792,-0.22595 0.54588,-0.29393c0.21195,-0.07198 0.4399,-0.10798 0.68385,-0.10798c0.25994,0 0.49589,0.03399 0.70784,0.10198c0.21595,0.06798 0.40791,0.16796 0.57587,0.29993c0.16796,0.12797 0.30593,0.28794 0.41391,0.47989l-0.54588,0.53988c-0.09198,-0.15997 -0.19795,-0.29194 -0.31793,-0.39591c-0.11997,-0.10798 -0.25194,-0.18996 -0.39591,-0.24594c-0.14397,-0.05599 -0.29594,-0.08398 -0.4559,-0.08398c-0.18796,0 -0.35192,0.03 -0.49189,0.08998c-0.13597,0.05599 -0.24395,0.13597 -0.32393,0.23995c-0.07998,0.09998 -0.11997,0.21995 -0.11997,0.35992c0,0.09998 0.01999,0.19196 0.05999,0.27594c0.03999,0.08398 0.09798,0.15797 0.17396,0.22195c0.07998,0.06398 0.18596,0.12197 0.31793,0.17396c0.13597,0.04799 0.29593,0.08998 0.47989,0.12597c0.26394,0.05999 0.49789,0.13397 0.70184,0.22195c0.20795,0.08798 0.38191,0.19196 0.52188,0.31193c0.14397,0.11997 0.25194,0.25394 0.32393,0.40191c0.07598,0.14796 0.11398,0.30793 0.11398,0.47989c0,0.31993 -0.07398,0.59787 -0.22195,0.83381c-0.14797,0.23195 -0.35792,0.41191 -0.62986,0.53988c-0.27194,0.12397 -0.59587,0.18596 -0.97178,0.18596z" fill="#ffffff" fill-rule="nonzero" stroke-width="1" stroke-linecap="square"/></g></g></svg>