<svg version="1.1" xmlns="http://www.w3.org/2000/svg" xmlns:xlink="http://www.w3.org/1999/xlink" width="92.83117" height="17.5161" viewBox="0,0,92.83117,17.5161"><g transform="translate(-193.58441,-171.55699)"><g data-paper-data="{&quot;isPaintingLayer&quot;:true}" stroke-linejoin="miter" stroke-miterlimit="10" stroke-dasharray="" stroke-dashoffset="0" style="mix-blend-mode: normal"><path d="M193.58442,180c0,-3.73685 3.02931,-6.76616 6.76616,-6.76616h79.29884c1.7945,0 3.5155,0.71286 4.78439,1.98176c1.26891,1.26891 1.98177,2.98991 1.98177,4.7844c0,3.73685 -3.02932,6.76616 -6.76617,6.76616h-79.29884c-3.73685,0 -6.76616,-3.02931 -6.76616,-6.76616z" fill-opacity="0.77772" fill="#303030" fill-rule="evenodd" stroke="none" stroke-width="1" stroke-linecap="square"/><path d="M193.60823,180.04483c0,-3.7582 3.04662,-6.80482 6.80482,-6.80482c3.7582,0 6.80482,3.04662 6.80482,6.80482c0,3.7582 -3.04662,6.80482 -6.80482,6.80482c-3.7582,0 -6.80482,-3.04662 -6.80482,-6.80482z" fill="#303030" fill-rule="nonzero" stroke="none" stroke-width="0" stroke-linecap="butt"/><path d="M196.08793,180.00423c0,-3.7582 3.04662,-6.80482 6.80482,-6.80482c3.7582,0 6.80482,3.04662 6.80482,6.80482c0,3.7582 -3.04662,6.80482 -6.80482,6.80482c-3.7582,0 -6.80482,-3.04662 -6.80482,-6.80482z" fill="#303030" fill-rule="nonzero" stroke="none" stroke-width="0" stroke-linecap="butt"/><path d="M204.74238,180.08964c0,-3.7582 3.04662,-6.80482 6.80482,-6.80482c3.7582,0 6.80482,3.04662 6.80482,6.80482c0,3.7582 -3.04662,6.80482 -6.80482,6.80482c-3.7582,0 -6.80482,-3.04662 -6.80482,-6.80482z" fill="#303030" fill-rule="nonzero" stroke="none" stroke-width="0" stroke-linecap="butt"/><path d="M199.49035,180.13024c0,-3.7582 3.04662,-6.80482 6.80482,-6.80482c3.7582,0 6.80482,3.04662 6.80482,6.80482c0,3.7582 -3.04662,6.80482 -6.80482,6.80482c-3.7582,0 -6.80482,-3.04662 -6.80482,-6.80482z" fill="#303030" fill-rule="nonzero" stroke="none" stroke-width="0" stroke-linecap="butt"/><g fill="#303030" fill-rule="nonzero" stroke="none" stroke-width="0" stroke-linecap="butt"><path d="M209.44554,180.00423c0,-3.7582 3.04662,-6.80482 6.80482,-6.80482c3.7582,0 6.80482,3.04662 6.80482,6.80482c0,3.7582 -3.04662,6.80482 -6.80482,6.80482c-3.7582,0 -6.80482,-3.04662 -6.80482,-6.80482z"/><path d="M211.92524,179.96363c0,-3.7582 3.04662,-6.80482 6.80482,-6.80482c3.7582,0 6.80482,3.04662 6.80482,6.80482c0,3.7582 -3.04662,6.80482 -6.80482,6.80482c-3.7582,0 -6.80482,-3.04662 -6.80482,-6.80482z"/><path d="M216.79923,180.04904c0,-3.7582 3.04662,-6.80482 6.80482,-6.80482c3.7582,0 6.80482,3.04662 6.80482,6.80482c0,3.7582 -3.04662,6.80482 -6.80482,6.80482c-3.7582,0 -6.80482,-3.04662 -6.80482,-6.80482z"/><path d="M214.31953,180.08964c0,-3.7582 3.04662,-6.80482 6.80482,-6.80482c3.7582,0 6.80482,3.04662 6.80482,6.80482c0,3.7582 -3.04662,6.80482 -6.80482,6.80482c-3.7582,0 -6.80482,-3.04662 -6.80482,-6.80482z"/></g><g fill="#303030" fill-rule="nonzero" stroke="none" stroke-width="0" stroke-linecap="butt"><path d="M218.09998,179.96363c0,-3.7582 3.04662,-6.80482 6.80482,-6.80482c3.7582,0 6.80482,3.04662 6.80482,6.80482c0,3.7582 -3.04662,6.80482 -6.80482,6.80482c-3.7582,0 -6.80482,-3.04662 -6.80482,-6.80482z"/><path d="M220.57968,179.92303c0,-3.7582 3.04662,-6.80482 6.80482,-6.80482c3.7582,0 6.80482,3.04662 6.80482,6.80482c0,3.7582 -3.04662,6.80482 -6.80482,6.80482c-3.7582,0 -6.80482,-3.04662 -6.80482,-6.80482z"/><path d="M225.45367,180.00844c0,-3.7582 3.04662,-6.80482 6.80482,-6.80482c3.7582,0 6.80482,3.04662 6.80482,6.80482c0,3.7582 -3.04662,6.80482 -6.80482,6.80482c-3.7582,0 -6.80482,-3.04662 -6.80482,-6.80482z"/><path d="M222.97397,180.04904c0,-3.7582 3.04662,-6.80482 6.80482,-6.80482c3.7582,0 6.80482,3.04662 6.80482,6.80482c0,3.7582 -3.04662,6.80482 -6.80482,6.80482c-3.7582,0 -6.80482,-3.04662 -6.80482,-6.80482z"/></g><g fill="#303030" fill-rule="nonzero" stroke="none" stroke-width="0" stroke-linecap="butt"><path d="M227.25849,180.04904c0,-3.7582 3.04662,-6.80482 6.80482,-6.80482c3.7582,0 6.80482,3.04662 6.80482,6.80482c0,3.7582 -3.04662,6.80482 -6.80482,6.80482c-3.7582,0 -6.80482,-3.04662 -6.80482,-6.80482z"/><path d="M229.73819,180.00844c0,-3.7582 3.04662,-6.80482 6.80482,-6.80482c3.7582,0 6.80482,3.04662 6.80482,6.80482c0,3.7582 -3.04662,6.80482 -6.80482,6.80482c-3.7582,0 -6.80482,-3.04662 -6.80482,-6.80482z"/><path d="M234.61218,180.09385c0,-3.7582 3.04662,-6.80482 6.80482,-6.80482c3.7582,0 6.80482,3.04662 6.80482,6.80482c0,3.7582 -3.04662,6.80482 -6.80482,6.80482c-3.7582,0 -6.80482,-3.04662 -6.80482,-6.80482z"/><path d="M232.13248,180.13445c0,-3.7582 3.04662,-6.80482 6.80482,-6.80482c3.7582,0 6.80482,3.04662 6.80482,6.80482c0,3.7582 -3.04662,6.80482 -6.80482,6.80482c-3.7582,0 -6.80482,-3.04662 -6.80482,-6.80482z"/></g><g fill="#303030" fill-rule="nonzero" stroke="none" stroke-width="0" stroke-linecap="butt"><path d="M237.2991,180.00844c0,-3.7582 3.04662,-6.80482 6.80482,-6.80482c3.7582,0 6.80482,3.04662 6.80482,6.80482c0,3.7582 -3.04662,6.80482 -6.80482,6.80482c-3.7582,0 -6.80482,-3.04662 -6.80482,-6.80482z"/><path d="M239.7788,179.96784c0,-3.7582 3.04662,-6.80482 6.80482,-6.80482c3.7582,0 6.80482,3.04662 6.80482,6.80482c0,3.7582 -3.04662,6.80482 -6.80482,6.80482c-3.7582,0 -6.80482,-3.04662 -6.80482,-6.80482z"/><path d="M244.65279,180.05325c0,-3.7582 3.04662,-6.80482 6.80482,-6.80482c3.7582,0 6.80482,3.04662 6.80482,6.80482c0,3.7582 -3.04662,6.80482 -6.80482,6.80482c-3.7582,0 -6.80482,-3.04662 -6.80482,-6.80482z"/><path d="M242.17309,180.09385c0,-3.7582 3.04662,-6.80482 6.80482,-6.80482c3.7582,0 6.80482,3.04662 6.80482,6.80482c0,3.7582 -3.04662,6.80482 -6.80482,6.80482c-3.7582,0 -6.80482,-3.04662 -6.80482,-6.80482z"/></g><path d="M250.52228,180.31504c0,-4.83694 3.92111,-8.75805 8.75805,-8.75805c4.83694,0 8.75805,3.92111 8.75805,8.75805c0,4.83694 -3.92111,8.75805 -8.75805,8.75805c-4.83694,0 -8.75805,-3.92111 -8.75805,-8.75805z" fill="#525252" fill-rule="nonzero" stroke="#000000" stroke-width="0" stroke-linecap="butt"/></g></g></svg>