<svg version="1.1" xmlns="http://www.w3.org/2000/svg" xmlns:xlink="http://www.w3.org/1999/xlink" width="601.2841" height="438.32787" viewBox="0,0,601.2841,438.32787"><g transform="translate(60.64205,39.16393)"><g data-paper-data="{&quot;isPaintingLayer&quot;:true}" stroke="none" stroke-width="1" stroke-linecap="square" stroke-linejoin="miter" stroke-miterlimit="10" stroke-dasharray="" stroke-dashoffset="0" style="mix-blend-mode: normal"><path d="M-60.64205,6.47477v0c0,-25.20555 27.60134,-45.6387 61.6493,-45.6387h477.9855c16.35039,0 32.03112,4.80837 43.59256,13.36729c11.56149,8.55892 18.05674,20.1673 18.05674,32.27142v347.05046c0,25.20558 -27.60139,45.6387 -61.6493,45.6387h-477.9855c-34.04795,0 -61.6493,-20.43315 -61.6493,-45.6387z" fill-opacity="0.74093" fill="#111111" fill-rule="evenodd"/><path d="M17.68639,37.98425v-15.88682h6.46115c0.86149,0 1.64063,0.21537 2.33742,0.64611c0.70946,0.43074 1.27323,1.01985 1.6913,1.76731c0.43074,0.7348 0.64611,1.55828 0.64611,2.47044c0,0.91216 -0.21537,1.74197 -0.64611,2.48944c-0.41807,0.7348 -0.98184,1.3239 -1.6913,1.76731c-0.69679,0.44341 -1.47593,0.66512 -2.33742,0.66512h-4.00971v6.08108zM20.13783,29.54675h3.97171c0.40541,0 0.7728,-0.11402 1.1022,-0.34206c0.34206,-0.24071 0.61444,-0.5511 0.81715,-0.93117c0.2027,-0.39273 0.30405,-0.82348 0.30405,-1.29223c0,-0.46875 -0.10135,-0.89316 -0.30405,-1.27323c-0.2027,-0.38007 -0.47508,-0.68412 -0.81715,-0.91216c-0.32939,-0.22804 -0.69679,-0.34206 -1.1022,-0.34206h-3.97171zM36.61469,38.21229c-1.16554,0 -2.21073,-0.26605 -3.13556,-0.79814c-0.91216,-0.54476 -1.63429,-1.27956 -2.16639,-2.20439c-0.51943,-0.9375 -0.77914,-2.00169 -0.77914,-3.19257c0,-1.19088 0.25971,-2.24874 0.77914,-3.17356c0.53209,-0.9375 1.25422,-1.6723 2.16639,-2.20439c0.92483,-0.54476 1.97001,-0.81715 3.13556,-0.81715c1.1402,0 2.16639,0.27238 3.07855,0.81715c0.92483,0.53209 1.65329,1.26689 2.18539,2.20439c0.53209,0.92483 0.79814,1.98269 0.79814,3.17356c0,1.19088 -0.26605,2.25507 -0.79814,3.19257c-0.53209,0.92483 -1.26056,1.65963 -2.18539,2.20439c-0.91216,0.53209 -1.93834,0.79814 -3.07855,0.79814zM36.61469,36.08391c0.70946,0 1.3429,-0.17737 1.90034,-0.53209c0.55743,-0.35473 0.99451,-0.83615 1.31123,-1.44426c0.31672,-0.62077 0.46875,-1.31757 0.45608,-2.09037c0.01267,-0.78548 -0.13936,-1.48226 -0.45608,-2.09037c-0.31672,-0.62078 -0.7538,-1.1022 -1.31123,-1.44426c-0.55743,-0.35473 -1.19088,-0.53209 -1.90034,-0.53209c-0.70946,0 -1.34924,0.17737 -1.91934,0.53209c-0.5701,0.35473 -1.01352,0.84249 -1.33024,1.46326c-0.31672,0.60811 -0.46875,1.29857 -0.45608,2.07137c-0.01267,0.7728 0.13936,1.4696 0.45608,2.09037c0.31672,0.60811 0.76014,1.08953 1.33024,1.44426c0.5701,0.35473 1.20988,0.53209 1.91934,0.53209zM47.68258,37.98425l-4.06672,-11.91512l2.35642,-0.019l2.90752,8.91258l-0.51309,-0.03801l3.15456,-6.97424h1.40625l3.17356,6.99324l-0.60811,0.03801l2.92652,-8.91258h2.35642l-4.00971,11.91512h-1.61529l-3.32559,-7.58235l0.53209,0.07601l-3.07855,7.50633zM68.11652,38.21229c-1.21622,0 -2.29941,-0.25971 -3.24958,-0.77914c-0.9375,-0.51943 -1.67863,-1.23522 -2.2234,-2.14738c-0.53209,-0.91216 -0.79814,-1.95735 -0.79814,-3.13556c0,-0.9375 0.15203,-1.79265 0.45608,-2.56546c0.30405,-0.7728 0.72213,-1.43792 1.25422,-1.99535c0.53209,-0.5701 1.17187,-1.00718 1.91934,-1.31123c0.76014,-0.31672 1.57728,-0.47508 2.45144,-0.47508c0.7728,0 1.4886,0.14569 2.14738,0.43708c0.67145,0.29139 1.24789,0.69679 1.72931,1.21622c0.49409,0.51943 0.87416,1.13387 1.1402,1.84333c0.26605,0.69679 0.39273,1.45692 0.38007,2.28041l-0.019,1.00718h-9.72973l-0.53209,-1.86233h8.22846l-0.32306,0.38007v-0.53209c-0.05067,-0.50675 -0.2217,-0.95651 -0.51309,-1.34924c-0.27871,-0.39273 -0.63978,-0.70312 -1.08319,-0.93117c-0.44341,-0.22804 -0.9185,-0.34206 -1.42525,-0.34206c-0.82348,0 -1.51393,0.15836 -2.07137,0.47508c-0.55743,0.30405 -0.98184,0.76014 -1.27323,1.36824c-0.27871,0.59544 -0.41807,1.33024 -0.41807,2.20439c0,0.82348 0.17103,1.54561 0.51309,2.16639c0.34206,0.60811 0.82981,1.08319 1.46326,1.42525c0.64611,0.32939 1.38091,0.49409 2.20439,0.49409c0.59544,0 1.14654,-0.09502 1.65329,-0.28505c0.50675,-0.2027 1.05785,-0.56376 1.65329,-1.08319l1.17821,1.65329c-0.3674,0.3674 -0.81081,0.69046 -1.33024,0.96917c-0.51943,0.26605 -1.07053,0.48142 -1.65329,0.64611c-0.58277,0.15203 -1.15921,0.22804 -1.72931,0.22804zM75.8639,37.98425v-11.91512h2.35642v3.74367l-0.22804,-0.91216c0.16469,-0.5701 0.44974,-1.08953 0.85515,-1.55828c0.40541,-0.46875 0.86782,-0.83615 1.38725,-1.1022c0.51943,-0.27871 1.05785,-0.41807 1.61529,-0.41807c0.25338,0 0.49409,0.02534 0.72213,0.07601c0.24071,0.03801 0.43074,0.08868 0.5701,0.15203l-0.60811,2.54645c-0.17737,-0.07601 -0.38007,-0.13936 -0.60811,-0.19003c-0.21537,-0.06335 -0.43074,-0.09502 -0.64611,-0.09502c-0.40541,0 -0.79181,0.08235 -1.15921,0.24704c-0.3674,0.15203 -0.69679,0.37373 -0.98818,0.66512c-0.27871,0.27871 -0.50042,0.60177 -0.66512,0.96917c-0.16469,0.3674 -0.24704,0.7728 -0.24704,1.21622v6.57517zM98.60147,38.21229c-1.12754,0 -2.16639,-0.2027 -3.11655,-0.60811c-0.9375,-0.41807 -1.76098,-0.98818 -2.47044,-1.7103c-0.69679,-0.7348 -1.24156,-1.59628 -1.63429,-2.58446c-0.38007,-1.00084 -0.5701,-2.09037 -0.5701,-3.26858c0,-1.17821 0.19003,-2.2614 0.5701,-3.24958c0.39273,-0.98818 0.9375,-1.84966 1.63429,-2.58446c0.70946,-0.7348 1.53294,-1.3049 2.47044,-1.7103c0.95017,-0.41807 1.98902,-0.62711 3.11655,-0.62711c1.11486,0 2.14105,0.20904 3.07855,0.62711c0.95017,0.40541 1.77998,0.98184 2.48944,1.72931c0.70946,0.7348 1.25422,1.59628 1.63429,2.58446c0.38007,0.98818 0.5701,2.06503 0.5701,3.23057c0,1.16554 -0.19003,2.2424 -0.5701,3.23057c-0.38007,0.98818 -0.92483,1.85599 -1.63429,2.60346c-0.70946,0.7348 -1.53927,1.31123 -2.48944,1.72931c-0.9375,0.40541 -1.96368,0.60811 -3.07855,0.60811zM98.60147,35.83686c0.7728,0 1.47593,-0.14569 2.10938,-0.43708c0.64611,-0.29139 1.20355,-0.69679 1.6723,-1.21622c0.46875,-0.51943 0.83615,-1.12754 1.1022,-1.82432c0.26605,-0.70946 0.39907,-1.48226 0.39907,-2.31841c0,-0.83615 -0.13302,-1.60262 -0.39907,-2.29941c-0.26605,-0.70946 -0.63345,-1.3239 -1.1022,-1.84333c-0.46875,-0.51943 -1.02618,-0.9185 -1.6723,-1.19721c-0.63345,-0.29139 -1.33657,-0.43708 -2.10937,-0.43708c-0.7728,0 -1.48226,0.14569 -2.12838,0.43708c-0.64611,0.27871 -1.20988,0.67779 -1.6913,1.19721c-0.46875,0.50675 -0.82981,1.11486 -1.08319,1.82432c-0.25338,0.69679 -0.38007,1.4696 -0.38007,2.31841c0,0.83615 0.12669,1.60895 0.38007,2.31841c0.25338,0.70946 0.61444,1.3239 1.08319,1.84333c0.48142,0.50675 1.04519,0.90583 1.6913,1.19721c0.64611,0.29139 1.35558,0.43708 2.12838,0.43708zM109.1048,42.98214v-16.91301h2.35642v2.71748l-0.36106,-0.19003c0.08868,-0.45608 0.34206,-0.89316 0.76014,-1.31123c0.43074,-0.41807 0.95017,-0.76014 1.55828,-1.02618c0.62078,-0.26605 1.25422,-0.39907 1.90034,-0.39907c1.07686,0 2.02703,0.26605 2.85051,0.79814c0.83615,0.53209 1.49493,1.26056 1.97635,2.18539c0.49409,0.92483 0.74113,1.98269 0.74113,3.17356c0,1.17821 -0.24071,2.23606 -0.72213,3.17356c-0.48142,0.92483 -1.1402,1.65963 -1.97635,2.20439c-0.82348,0.53209 -1.75465,0.79814 -2.7935,0.79814c-0.69679,0 -1.37458,-0.13936 -2.03336,-0.41807c-0.64611,-0.27871 -1.19721,-0.63978 -1.65329,-1.08319c-0.45608,-0.44341 -0.7348,-0.8995 -0.83615,-1.36824l0.5891,-0.30405v7.96242zM114.99584,36.0269c0.69679,0 1.31757,-0.17103 1.86233,-0.51309c0.54476,-0.35473 0.97551,-0.82981 1.29223,-1.42525c0.31672,-0.60811 0.47508,-1.29857 0.47508,-2.07137c0,-0.7728 -0.15836,-1.45692 -0.47508,-2.05236c-0.30405,-0.59544 -0.72846,-1.06419 -1.27323,-1.40625c-0.53209,-0.35473 -1.15921,-0.53209 -1.88133,-0.53209c-0.70946,0 -1.33657,0.17103 -1.88133,0.51309c-0.54476,0.34206 -0.97551,0.81715 -1.29223,1.42525c-0.31672,0.59544 -0.47508,1.27956 -0.47508,2.05236c0,0.7728 0.15836,1.46326 0.47508,2.07137c0.31672,0.59544 0.74747,1.07053 1.29223,1.42525c0.54476,0.34206 1.17187,0.51309 1.88133,0.51309zM124.90447,37.98425v-14.95566h2.33742v14.95566zM122.41503,28.34953v-2.28041h7.58235v2.28041zM132.51525,37.98425v-11.91512h2.33742v11.91512zM133.65545,23.44666c-0.49409,0 -0.88049,-0.12669 -1.15921,-0.38007c-0.26605,-0.26605 -0.39907,-0.63345 -0.39907,-1.1022c0,-0.44341 0.13936,-0.79814 0.41807,-1.06419c0.27871,-0.27871 0.65878,-0.41807 1.1402,-0.41807c0.49409,0 0.87416,0.13302 1.1402,0.39907c0.27871,0.25338 0.41807,0.61444 0.41807,1.08319c0,0.44341 -0.13936,0.80448 -0.41807,1.08319c-0.27871,0.26605 -0.65878,0.39907 -1.1402,0.39907zM143.80196,38.21229c-1.16554,0 -2.21073,-0.26605 -3.13556,-0.79814c-0.91216,-0.54476 -1.63429,-1.27956 -2.16639,-2.20439c-0.51943,-0.9375 -0.77914,-2.00169 -0.77914,-3.19257c0,-1.19088 0.25971,-2.24874 0.77914,-3.17356c0.53209,-0.9375 1.25422,-1.6723 2.16639,-2.20439c0.92483,-0.54476 1.97001,-0.81715 3.13556,-0.81715c1.1402,0 2.16639,0.27238 3.07855,0.81715c0.92483,0.53209 1.65329,1.26689 2.18539,2.20439c0.53209,0.92483 0.79814,1.98269 0.79814,3.17356c0,1.19088 -0.26605,2.25507 -0.79814,3.19257c-0.53209,0.92483 -1.26056,1.65963 -2.18539,2.20439c-0.91216,0.53209 -1.93834,0.79814 -3.07855,0.79814zM143.80196,36.08391c0.70946,0 1.3429,-0.17737 1.90034,-0.53209c0.55743,-0.35473 0.99451,-0.83615 1.31123,-1.44426c0.31672,-0.62077 0.46875,-1.31757 0.45608,-2.09037c0.01267,-0.78548 -0.13936,-1.48226 -0.45608,-2.09037c-0.31672,-0.62078 -0.7538,-1.1022 -1.31123,-1.44426c-0.55743,-0.35473 -1.19088,-0.53209 -1.90034,-0.53209c-0.70946,0 -1.34924,0.17737 -1.91934,0.53209c-0.5701,0.35473 -1.01352,0.84249 -1.33024,1.46326c-0.31672,0.60811 -0.46875,1.29857 -0.45608,2.07137c-0.01267,0.7728 0.13936,1.4696 0.45608,2.09037c0.31672,0.60811 0.76014,1.08953 1.33024,1.44426c0.5701,0.35473 1.20988,0.53209 1.91934,0.53209zM152.39739,37.98425v-11.91512h2.33742v2.45144l-0.41807,0.26605c0.15203,-0.51943 0.44974,-1.00084 0.89316,-1.44426c0.44341,-0.45608 0.96284,-0.82348 1.55828,-1.1022c0.60811,-0.27871 1.22888,-0.41807 1.86233,-0.41807c0.91216,0 1.66596,0.17737 2.2614,0.53209c0.60811,0.35473 1.06419,0.8995 1.36824,1.63429c0.30405,0.72213 0.45608,1.63429 0.45608,2.73649v7.25929h-2.33742v-7.10726c0,-0.67145 -0.08868,-1.22888 -0.26605,-1.6723c-0.17737,-0.45608 -0.45608,-0.78548 -0.83615,-0.98818c-0.38007,-0.2027 -0.84882,-0.29139 -1.40625,-0.26605c-0.45608,0 -0.87416,0.07601 -1.25422,0.22804c-0.38007,0.13936 -0.70946,0.34206 -0.98818,0.60811c-0.27871,0.25338 -0.50042,0.5511 -0.66512,0.89316c-0.15203,0.32939 -0.22804,0.69046 -0.22804,1.08319v7.22128h-1.15921c-0.19003,0 -0.3864,0 -0.5891,0c-0.2027,0 -0.39907,0 -0.5891,0zM169.86966,38.21229c-1.00084,0 -1.90034,-0.17103 -2.69848,-0.51309c-0.79814,-0.35473 -1.46326,-0.87416 -1.99535,-1.55828l1.57728,-1.34924c0.45608,0.51943 0.95017,0.8995 1.48226,1.1402c0.54476,0.22804 1.15921,0.34206 1.84333,0.34206c0.26605,0 0.51309,-0.03167 0.74113,-0.09502c0.24071,-0.06335 0.44974,-0.16469 0.62711,-0.30405c0.17737,-0.13936 0.31039,-0.30405 0.39907,-0.49409c0.08868,-0.19003 0.13302,-0.39907 0.13302,-0.62711c0,-0.39273 -0.14569,-0.70946 -0.43708,-0.95017c-0.15203,-0.10135 -0.39273,-0.21537 -0.72213,-0.34206c-0.31672,-0.12669 -0.7348,-0.25971 -1.25422,-0.39907c-0.87416,-0.22804 -1.58995,-0.48142 -2.14738,-0.76014c-0.55743,-0.29139 -0.98818,-0.62077 -1.29223,-0.98818c-0.22804,-0.29139 -0.39907,-0.60177 -0.51309,-0.93117c-0.10135,-0.34206 -0.15203,-0.72213 -0.15203,-1.1402c0,-0.49409 0.10768,-0.95017 0.32306,-1.36824c0.22804,-0.41807 0.53209,-0.77914 0.91216,-1.08319c0.39273,-0.31672 0.84882,-0.55743 1.36824,-0.72213c0.51943,-0.16469 1.07686,-0.24704 1.6723,-0.24704c0.55743,0 1.10853,0.07601 1.65329,0.22804c0.55743,0.15203 1.07053,0.37373 1.53927,0.66512c0.46875,0.27871 0.86149,0.61444 1.17821,1.00718l-1.33024,1.48226c-0.29139,-0.29139 -0.60811,-0.54476 -0.95017,-0.76014c-0.34206,-0.21537 -0.69046,-0.38007 -1.04519,-0.49409c-0.34206,-0.12669 -0.65245,-0.19003 -0.93117,-0.19003c-0.31672,0 -0.60811,0.03167 -0.87416,0.09502c-0.25338,0.05067 -0.46875,0.13936 -0.64611,0.26605c-0.16469,0.11402 -0.29772,0.26605 -0.39907,0.45608c-0.08868,0.17737 -0.13302,0.38007 -0.13302,0.60811c0.01267,0.19003 0.06335,0.37373 0.15203,0.5511c0.08868,0.17737 0.20904,0.32306 0.36106,0.43708c0.16469,0.12669 0.41174,0.25971 0.74113,0.39907c0.32939,0.12669 0.7538,0.25338 1.27323,0.38007c0.74747,0.19003 1.36824,0.40541 1.86233,0.64611c0.49409,0.22804 0.88682,0.49409 1.17821,0.79814c0.30405,0.29139 0.51309,0.62711 0.62711,1.00718c0.12669,0.38007 0.19003,0.80448 0.19003,1.27323c0,0.67145 -0.19637,1.27956 -0.5891,1.82432c-0.38007,0.53209 -0.8995,0.95017 -1.55828,1.25422c-0.64611,0.30405 -1.36824,0.45608 -2.16639,0.45608z" fill="#ffffff" fill-rule="nonzero"/><path d="M97.09342,111.424c-0.61838,0 -1.19129,-0.08184 -1.71872,-0.24553c-0.52744,-0.16369 -1.00486,-0.40922 -1.43227,-0.73659c-0.42741,-0.33646 -0.80935,-0.74569 -1.14581,-1.22766l1.20037,-1.39135c0.53653,0.76388 1.04578,1.29131 1.52775,1.58231c0.49107,0.291 1.07306,0.4365 1.746,0.4365c0.40922,0 0.78206,-0.06366 1.11853,-0.19097c0.33646,-0.1364 0.60019,-0.31828 0.79116,-0.54563c0.20006,-0.22734 0.30009,-0.48651 0.30009,-0.77751c0,-0.19097 -0.03183,-0.37284 -0.09548,-0.54563c-0.06366,-0.18188 -0.16369,-0.34102 -0.30009,-0.47742c-0.1364,-0.1455 -0.30919,-0.27736 -0.51834,-0.39558c-0.20915,-0.11822 -0.45469,-0.2228 -0.73659,-0.31373c-0.2819,-0.09094 -0.60928,-0.16823 -0.98212,-0.23189c-0.582,-0.12732 -1.09125,-0.28645 -1.52775,-0.47742c-0.4365,-0.20006 -0.80025,-0.44559 -1.09125,-0.73659c-0.291,-0.291 -0.50925,-0.62292 -0.65475,-0.99576c-0.1455,-0.37284 -0.21825,-0.7957 -0.21825,-1.26858c0,-0.45469 0.10003,-0.87755 0.30009,-1.26858c0.20915,-0.39103 0.48651,-0.7275 0.83208,-1.00941c0.35465,-0.291 0.76843,-0.5138 1.2413,-0.66839c0.48197,-0.16369 1.00031,-0.24553 1.55503,-0.24553c0.59109,0 1.12762,0.07729 1.60959,0.23189c0.49107,0.15459 0.92756,0.38194 1.3095,0.68203c0.38194,0.291 0.69567,0.65475 0.9412,1.09125l-1.2413,1.22766c-0.20915,-0.36375 -0.45014,-0.66384 -0.72295,-0.90028c-0.27281,-0.24553 -0.5729,-0.43195 -0.90028,-0.55926c-0.32738,-0.12732 -0.67294,-0.19097 -1.03668,-0.19097c-0.42741,0 -0.80025,0.06821 -1.11853,0.20461c-0.30919,0.12732 -0.55472,0.30919 -0.73659,0.54563c-0.18188,0.22734 -0.27281,0.50015 -0.27281,0.81844c0,0.22734 0.04547,0.4365 0.1364,0.62747c0.09094,0.19097 0.2228,0.3592 0.39558,0.5047c0.18188,0.1455 0.42286,0.27736 0.72295,0.39558c0.30919,0.10913 0.67294,0.20461 1.09125,0.28645c0.60019,0.1364 1.13217,0.30464 1.59596,0.5047c0.47288,0.20006 0.86845,0.4365 1.18673,0.70931c0.32738,0.27281 0.57291,0.57745 0.73659,0.91393c0.17278,0.33646 0.25917,0.70022 0.25917,1.09125c0,0.7275 -0.16824,1.35951 -0.5047,1.89605c-0.33646,0.52744 -0.81389,0.93666 -1.43227,1.22766c-0.61838,0.2819 -1.35497,0.42286 -2.20978,0.42286zM103.31431,111.26031v-12.05831h1.6778v5.26528l-0.30009,0.19097c0.10913,-0.37284 0.32283,-0.7184 0.64111,-1.03668c0.31828,-0.32738 0.69113,-0.59109 1.11853,-0.79116c0.4365,-0.20006 0.88209,-0.30009 1.33678,-0.30009c0.65475,0 1.19583,0.12732 1.62323,0.38194c0.4365,0.25462 0.76388,0.64566 0.98212,1.1731c0.21825,0.51834 0.32738,1.1731 0.32738,1.96425v5.21072h-1.6778v-5.10159c0,-0.48197 -0.06366,-0.88209 -0.19097,-1.20037c-0.12732,-0.32738 -0.32738,-0.56382 -0.60019,-0.70931c-0.27281,-0.1455 -0.60928,-0.20915 -1.00941,-0.19097c-0.32738,0 -0.62747,0.05456 -0.90028,0.16369c-0.27281,0.10003 -0.50925,0.24553 -0.70931,0.4365c-0.20006,0.18188 -0.3592,0.39558 -0.47742,0.64111c-0.10913,0.23644 -0.16369,0.49561 -0.16369,0.77751v5.18344h-0.83208c-0.1364,0 -0.27736,0 -0.42286,0c-0.1455,0 -0.28645,0 -0.42286,0zM116.00596,111.424c-0.60928,0 -1.14126,-0.14096 -1.59596,-0.42286c-0.44559,-0.2819 -0.79116,-0.67748 -1.03668,-1.18673c-0.24553,-0.50925 -0.3683,-1.11853 -0.3683,-1.82784v-5.27892h1.6778v4.82878c0,0.49107 0.07729,0.91847 0.23189,1.28222c0.16369,0.36375 0.39103,0.64566 0.68203,0.84572c0.30009,0.19097 0.66384,0.28645 1.09125,0.28645c0.30919,0 0.59564,-0.05002 0.85936,-0.15005c0.26372,-0.10003 0.49107,-0.24098 0.68203,-0.42286c0.19097,-0.19097 0.33646,-0.41377 0.4365,-0.66839c0.10913,-0.26372 0.16369,-0.55018 0.16369,-0.85936v-5.14251h1.6778v8.55268h-1.6778v-1.78692l0.30009,-0.20461c-0.12732,0.40922 -0.34557,0.77751 -0.65475,1.10489c-0.30919,0.31828 -0.67748,0.57291 -1.10489,0.76388c-0.42741,0.19097 -0.88209,0.28645 -1.36406,0.28645zM123.92256,111.26031v-10.73517h1.6778v10.73517zM122.13564,104.34451v-1.63688h5.44261v1.63688zM132.59148,111.424c-0.78206,0 -1.47773,-0.19097 -2.08701,-0.5729c-0.60928,-0.39103 -1.0958,-0.91847 -1.45954,-1.58231c-0.35465,-0.67294 -0.53197,-1.43681 -0.53197,-2.29163c0,-0.85481 0.17278,-1.61415 0.51833,-2.27799c0.35465,-0.67294 0.83662,-1.20037 1.44591,-1.58231c0.60928,-0.39103 1.30041,-0.58655 2.07338,-0.58655c0.41831,0 0.82753,0.06821 1.22766,0.20461c0.40013,0.1364 0.75478,0.32283 1.06397,0.55926c0.31828,0.22734 0.56382,0.48197 0.73659,0.76388c0.18188,0.27281 0.27281,0.55018 0.27281,0.83208l-0.49107,0.04092v-5.72906h1.6778v12.05831h-1.6778v-2.03245h0.32738c0,0.25462 -0.0864,0.5138 -0.25917,0.77751c-0.17278,0.25462 -0.40467,0.49107 -0.69567,0.70931c-0.2819,0.20915 -0.61382,0.38194 -0.99576,0.51834c-0.37284,0.12732 -0.75478,0.19097 -1.14581,0.19097zM132.82337,109.97809c0.50925,0 0.95939,-0.13186 1.35042,-0.39558c0.39103,-0.26372 0.69567,-0.61838 0.91393,-1.06397c0.22734,-0.45469 0.34102,-0.96849 0.34102,-1.54139c0,-0.5729 -0.11367,-1.08216 -0.34102,-1.52775c-0.21825,-0.45469 -0.52289,-0.81389 -0.91393,-1.07761c-0.39103,-0.26372 -0.84117,-0.39558 -1.35042,-0.39558c-0.50925,0 -0.95939,0.13186 -1.35042,0.39558c-0.39103,0.26372 -0.70022,0.62292 -0.92756,1.07761c-0.21825,0.44559 -0.32738,0.95484 -0.32738,1.52775c0,0.57291 0.10913,1.0867 0.32738,1.54139c0.22734,0.44559 0.53653,0.80025 0.92756,1.06397c0.39103,0.26372 0.84117,0.39558 1.35042,0.39558zM143.20383,111.424c-0.83662,0 -1.58686,-0.19097 -2.2507,-0.5729c-0.65475,-0.39103 -1.1731,-0.91847 -1.55503,-1.58231c-0.37284,-0.67294 -0.55926,-1.43681 -0.55926,-2.29163c0,-0.85481 0.18642,-1.61415 0.55926,-2.27799c0.38194,-0.67294 0.90028,-1.20037 1.55503,-1.58231c0.66384,-0.39103 1.41408,-0.58655 2.2507,-0.58655c0.81844,0 1.55503,0.19552 2.20978,0.58655c0.66384,0.38194 1.18673,0.90937 1.56867,1.58231c0.38194,0.66384 0.57291,1.42317 0.57291,2.27799c0,0.85481 -0.19097,1.61869 -0.5729,2.29163c-0.38194,0.66384 -0.90483,1.19129 -1.56867,1.58231c-0.65475,0.38194 -1.39135,0.57291 -2.20978,0.57291zM143.20383,109.89625c0.50925,0 0.96393,-0.12732 1.36406,-0.38194c0.40013,-0.25462 0.71386,-0.60019 0.9412,-1.03668c0.22734,-0.44559 0.33646,-0.94575 0.32738,-1.50047c0.00909,-0.56382 -0.10003,-1.06397 -0.32738,-1.50047c-0.22734,-0.44559 -0.54108,-0.79116 -0.9412,-1.03668c-0.40013,-0.25462 -0.85481,-0.38194 -1.36406,-0.38194c-0.50925,0 -0.96849,0.12732 -1.3777,0.38194c-0.40922,0.25462 -0.7275,0.60474 -0.95484,1.05033c-0.22734,0.4365 -0.33646,0.93211 -0.32738,1.48683c-0.00909,0.55472 0.10003,1.05487 0.32738,1.50047c0.22734,0.4365 0.54563,0.78206 0.95485,1.03668c0.40922,0.25462 0.86845,0.38194 1.3777,0.38194zM151.14838,111.26031l-2.9191,-8.55268l1.69144,-0.01364l2.08701,6.39746l-0.3683,-0.02728l2.26434,-5.00611h1.00941l2.27799,5.01975l-0.4365,0.02728l2.10065,-6.39746h1.69144l-2.87817,8.55268h-1.15945l-2.38711,-5.44261l0.38194,0.05456l-2.20978,5.38805zM162.07724,111.26031v-8.55268h1.6778v1.75964l-0.30009,0.19097c0.10913,-0.37284 0.32283,-0.7184 0.64111,-1.03668c0.31828,-0.32738 0.69113,-0.59109 1.11853,-0.79116c0.4365,-0.20006 0.88209,-0.30009 1.33678,-0.30009c0.65475,0 1.19583,0.12732 1.62323,0.38194c0.4365,0.25462 0.76388,0.64566 0.98212,1.1731c0.21825,0.51834 0.32738,1.1731 0.32738,1.96425v5.21072h-1.6778v-5.10159c0,-0.48197 -0.06366,-0.88209 -0.19097,-1.20037c-0.12732,-0.32738 -0.32738,-0.56382 -0.60019,-0.70931c-0.27281,-0.1455 -0.60928,-0.20915 -1.00941,-0.19097c-0.32738,0 -0.62747,0.05456 -0.90028,0.16369c-0.27281,0.10003 -0.50925,0.24553 -0.70931,0.4365c-0.20006,0.18188 -0.3592,0.39558 -0.47742,0.64111c-0.10913,0.23644 -0.16369,0.49561 -0.16369,0.77751v5.18344h-0.83208c-0.1364,0 -0.27736,0 -0.42286,0c-0.1455,0 -0.28645,0 -0.42286,0z" fill="#ffffff" fill-rule="nonzero"/><path d="M94.27265,217.01659v-10.90531h1.68276v9.28778h5.1135v1.61753zM106.56477,217.17313c-0.80007,0 -1.51753,-0.18263 -2.15237,-0.54788c-0.62614,-0.37394 -1.12184,-0.87834 -1.48709,-1.51318c-0.35655,-0.64354 -0.53483,-1.37403 -0.53483,-2.1915c0,-0.81746 0.17828,-1.54362 0.53483,-2.17846c0.36525,-0.64354 0.86095,-1.14793 1.48709,-1.51318c0.63484,-0.37394 1.35229,-0.56092 2.15237,-0.56092c0.78268,0 1.48709,0.18698 2.11323,0.56092c0.63484,0.36525 1.13488,0.86964 1.50014,1.51318c0.36525,0.63484 0.54788,1.36099 0.54788,2.17846c0,0.81746 -0.18263,1.54796 -0.54788,2.1915c-0.36525,0.63484 -0.8653,1.13923 -1.50014,1.51318c-0.62614,0.36525 -1.33055,0.54788 -2.11323,0.54788zM106.56477,215.71212c0.487,0 0.92182,-0.12175 1.30446,-0.36525c0.38264,-0.2435 0.68267,-0.57397 0.90008,-0.99139c0.21741,-0.42612 0.32177,-0.90443 0.31307,-1.43491c0.00869,-0.53918 -0.09566,-1.01748 -0.31307,-1.43491c-0.21741,-0.42612 -0.51744,-0.75659 -0.90008,-0.99139c-0.38264,-0.2435 -0.81746,-0.36525 -1.30446,-0.36525c-0.487,0 -0.92617,0.12175 -1.31751,0.36525c-0.39134,0.2435 -0.69571,0.57832 -0.91313,1.00444c-0.21741,0.41743 -0.32177,0.89139 -0.31307,1.42186c-0.00869,0.53048 0.09566,1.00879 0.31307,1.43491c0.21741,0.41743 0.52179,0.74789 0.91313,0.99139c0.39134,0.2435 0.83051,0.36525 1.31751,0.36525zM115.93487,217.17313c-0.75659,0 -1.43491,-0.18698 -2.03496,-0.56092c-0.59136,-0.37394 -1.06096,-0.88269 -1.40882,-1.52622c-0.34785,-0.64354 -0.52179,-1.36533 -0.52179,-2.16541c0,-0.80007 0.17393,-1.52187 0.52179,-2.16541c0.34785,-0.64354 0.81746,-1.15228 1.40882,-1.52622c0.60005,-0.37394 1.27837,-0.56092 2.03496,-0.56092c0.7305,0 1.39142,0.14784 1.98278,0.44351c0.60005,0.29568 1.05661,0.70006 1.36968,1.21315l-0.88704,1.0827c-0.16523,-0.23481 -0.37829,-0.45221 -0.63919,-0.65223c-0.26089,-0.20002 -0.53918,-0.35655 -0.83486,-0.46961c-0.28698,-0.11305 -0.56527,-0.16958 -0.83486,-0.16958c-0.4957,0 -0.93921,0.12175 -1.33055,0.36525c-0.39134,0.2435 -0.70006,0.57832 -0.92617,1.00444c-0.22611,0.42612 -0.33916,0.90443 -0.33916,1.43491c0,0.53048 0.1174,1.00879 0.3522,1.43491c0.2435,0.41743 0.56092,0.75224 0.95226,1.00444c0.39134,0.2435 0.82616,0.36525 1.30446,0.36525c0.28698,0 0.56092,-0.04783 0.82181,-0.14349c0.26089,-0.09566 0.51744,-0.23481 0.76963,-0.41743c0.2522,-0.19132 0.487,-0.42178 0.70441,-0.69136l0.88704,1.09575c-0.33047,0.46961 -0.80442,0.8566 -1.42186,1.16098c-0.61745,0.29568 -1.26098,0.44351 -1.93061,0.44351zM122.25877,214.45984l-0.07827,-1.74798l3.91339,-3.87426h2.16541zM120.79778,217.01659v-11.53146h1.60449v11.53146zM126.31566,217.01659l-3.09158,-3.60032l1.13488,-1.04357l4.0047,4.64389z" fill="#ffffff" fill-rule="nonzero"/><path d="M23.03023,56.72474c-0.53917,0 -1.03497,-0.09606 -1.48738,-0.28818c-0.45241,-0.19212 -0.84595,-0.4679 -1.1806,-0.82736c-0.32846,-0.35945 -0.58566,-0.78397 -0.77158,-1.27357c-0.17973,-0.48959 -0.26959,-1.02567 -0.26959,-1.60822c0,-0.55157 0.09916,-1.06595 0.29747,-1.54315c0.19832,-0.4772 0.471,-0.89553 0.81806,-1.25498c0.34706,-0.36565 0.74988,-0.64763 1.20849,-0.84595c0.45861,-0.20452 0.9544,-0.30677 1.48738,-0.30677c0.37804,0 0.74679,0.05887 1.10624,0.17663c0.35945,0.11155 0.68481,0.26959 0.97609,0.4741c0.29128,0.20452 0.52988,0.43692 0.7158,0.69721l-0.79947,0.82736c-0.21691,-0.21691 -0.43382,-0.39663 -0.65073,-0.53917c-0.21691,-0.14254 -0.44002,-0.25099 -0.66932,-0.32536c-0.22311,-0.07437 -0.44931,-0.11155 -0.67862,-0.11155c-0.36565,0 -0.7065,0.06817 -1.02257,0.20452c-0.30987,0.13635 -0.58256,0.32846 -0.81806,0.57636c-0.2293,0.2417 -0.41213,0.53297 -0.54847,0.87383c-0.13015,0.33466 -0.19522,0.70031 -0.19522,1.09694c0,0.42143 0.06197,0.80566 0.18592,1.15272c0.13015,0.34086 0.31297,0.63524 0.54847,0.88313c0.2417,0.2417 0.52678,0.42762 0.85524,0.55777c0.32846,0.13015 0.69411,0.19522 1.09694,0.19522c0.2417,0 0.4803,-0.03408 0.7158,-0.10226c0.2355,-0.06817 0.45551,-0.16423 0.66002,-0.28818c0.21071,-0.12395 0.40283,-0.27269 0.57636,-0.44621l0.59495,0.97609c-0.16733,0.20452 -0.39973,0.38734 -0.69721,0.54847c-0.29128,0.16114 -0.61665,0.28818 -0.97609,0.38114c-0.35325,0.09296 -0.7127,0.13944 -1.07835,0.13944zM27.14586,56.61318v-8.21776h1.14342v8.21776zM30.09918,56.61318v-5.82866h1.14342v5.82866zM30.65694,49.50166c-0.2417,0 -0.43072,-0.06197 -0.56706,-0.18592c-0.13015,-0.13015 -0.19522,-0.30987 -0.19522,-0.53917c0,-0.21691 0.06817,-0.39044 0.20452,-0.52058c0.13635,-0.13635 0.32226,-0.20452 0.55777,-0.20452c0.2417,0 0.42762,0.06507 0.55777,0.19522c0.13635,0.12395 0.20452,0.30057 0.20452,0.52988c0,0.21691 -0.06817,0.39354 -0.20452,0.52988c-0.13635,0.13015 -0.32226,0.19522 -0.55777,0.19522zM35.47169,56.72474c-0.53917,0 -1.02257,-0.13325 -1.45019,-0.39973c-0.42143,-0.26648 -0.75608,-0.62904 -1.00398,-1.08765c-0.24789,-0.45861 -0.37185,-0.97299 -0.37185,-1.54315c0,-0.57016 0.12395,-1.08455 0.37185,-1.54315c0.24789,-0.45861 0.58256,-0.82116 1.00398,-1.08765c0.42762,-0.26648 0.91102,-0.39973 1.45019,-0.39973c0.52058,0 0.99158,0.10536 1.413,0.31607c0.42762,0.21071 0.75298,0.49889 0.97609,0.86454l-0.63214,0.77158c-0.11775,-0.16733 -0.26959,-0.32226 -0.45551,-0.4648c-0.18592,-0.14254 -0.38424,-0.25409 -0.59495,-0.33466c-0.20452,-0.08056 -0.40283,-0.12085 -0.59495,-0.12085c-0.35325,0 -0.66932,0.08676 -0.9482,0.26029c-0.27888,0.17353 -0.49889,0.41213 -0.66002,0.7158c-0.16114,0.30367 -0.2417,0.64453 -0.2417,1.02257c0,0.37804 0.08366,0.7189 0.25099,1.02257c0.17353,0.29747 0.39973,0.53607 0.67862,0.7158c0.27888,0.17353 0.58876,0.26029 0.92961,0.26029c0.20452,0 0.39973,-0.03408 0.58566,-0.10226c0.18592,-0.06817 0.36875,-0.16733 0.54847,-0.29747c0.17973,-0.13635 0.34706,-0.30057 0.50199,-0.49269l0.63214,0.78087c-0.2355,0.33466 -0.57326,0.61045 -1.01328,0.82736c-0.44002,0.21071 -0.89862,0.31607 -1.37582,0.31607zM39.97835,54.79115l-0.05577,-1.24568l2.78883,-2.76094h1.54315zM38.93719,56.61318v-8.21776h1.14342v8.21776zM42.86944,56.61318l-2.20318,-2.56573l0.80876,-0.74369l2.85391,3.30942zM50.58996,56.72474c-0.4772,0 -0.91411,-0.13325 -1.31074,-0.39973c-0.39663,-0.26648 -0.7158,-0.62904 -0.9575,-1.08765c-0.2355,-0.45861 -0.35325,-0.97609 -0.35325,-1.55245c0,-0.58876 0.12085,-1.10934 0.36255,-1.56175c0.2417,-0.45241 0.56706,-0.80876 0.97609,-1.06905c0.41522,-0.26029 0.87692,-0.39044 1.38511,-0.39044c0.30367,0 0.57946,0.04648 0.82736,0.13944c0.25409,0.08676 0.4741,0.21071 0.66002,0.37185c0.19212,0.15494 0.34706,0.33776 0.4648,0.54847c0.12395,0.20452 0.20142,0.42452 0.2324,0.66002l-0.25099,-0.08366v-1.51527h1.15272v5.82866h-1.15272v-1.38512l0.26029,-0.08366c-0.04338,0.20452 -0.13325,0.40283 -0.26959,0.59495c-0.13635,0.18592 -0.30987,0.35325 -0.52058,0.50199c-0.21071,0.14254 -0.44311,0.26029 -0.69721,0.35325c-0.25409,0.08676 -0.52368,0.13015 -0.80876,0.13015zM50.88744,55.67428c0.35325,0 0.66002,-0.08366 0.92031,-0.25099c0.26648,-0.17353 0.4741,-0.40903 0.62284,-0.7065c0.15494,-0.30367 0.2324,-0.64763 0.2324,-1.03187c0,-0.37804 -0.07747,-0.7158 -0.2324,-1.01328c-0.14874,-0.29747 -0.35635,-0.52988 -0.62284,-0.69721c-0.26029,-0.17353 -0.56706,-0.26029 -0.92031,-0.26029c-0.34086,0 -0.64143,0.08676 -0.90172,0.26029c-0.26029,0.16733 -0.4679,0.39973 -0.62283,0.69721c-0.14874,0.29747 -0.22311,0.63524 -0.22311,1.01328c0,0.38424 0.07437,0.72819 0.22311,1.03187c0.15493,0.29747 0.36254,0.53297 0.62283,0.7065c0.26029,0.16733 0.56087,0.25099 0.90172,0.25099zM55.37563,56.61318v-5.82866h1.14342v1.19919l-0.20452,0.13015c0.07437,-0.25409 0.22001,-0.48959 0.43692,-0.7065c0.21691,-0.22311 0.471,-0.40283 0.76228,-0.53917c0.29747,-0.13635 0.60115,-0.20452 0.91102,-0.20452c0.44621,0 0.81496,0.08676 1.10624,0.26029c0.29747,0.17353 0.52058,0.44002 0.66932,0.79947c0.14874,0.35325 0.22311,0.79947 0.22311,1.33864v3.55111h-1.14342v-3.47675c0,-0.32846 -0.04338,-0.60115 -0.13015,-0.81806c-0.08676,-0.22311 -0.22311,-0.38424 -0.40903,-0.4834c-0.18592,-0.09916 -0.41523,-0.14254 -0.68791,-0.13015c-0.22311,0 -0.42762,0.03718 -0.61355,0.11155c-0.18592,0.06817 -0.34706,0.16733 -0.4834,0.29747c-0.13635,0.12395 -0.2448,0.26959 -0.32536,0.43692c-0.07437,0.16114 -0.11155,0.33776 -0.11155,0.52988v3.53252h-0.56706c-0.09296,0 -0.18902,0 -0.28818,0c-0.09916,0 -0.19522,0 -0.28818,0zM62.90041,59.16962l1.1806,-2.72376l0.0093,0.91102l-2.90968,-6.57235h1.32934l1.82204,4.2855c0.03718,0.07437 0.08056,0.18902 0.13015,0.34396c0.05577,0.14874 0.10226,0.29747 0.13944,0.44621l-0.28818,0.06507c0.05577,-0.15494 0.11155,-0.30987 0.16733,-0.4648c0.05577,-0.15494 0.10845,-0.30987 0.15804,-0.4648l1.52456,-4.21114h1.35723l-2.3984,5.82866l-0.98539,2.55643zM69.80476,56.61318l-1.98937,-5.82866l1.15272,-0.0093l1.4223,4.35987l-0.25099,-0.01859l1.54315,-3.41167h0.68791l1.55245,3.42096l-0.29747,0.01859l1.4316,-4.35987h1.15272l-1.96148,5.82866h-0.79017l-1.62682,-3.70915l0.26029,0.03718l-1.50597,3.67196zM77.25279,56.61318v-8.21776h1.14342v3.5883l-0.20452,0.13015c0.07437,-0.25409 0.22001,-0.48959 0.43692,-0.7065c0.21691,-0.22311 0.471,-0.40283 0.76228,-0.53917c0.29747,-0.13635 0.60115,-0.20452 0.91102,-0.20452c0.44621,0 0.81496,0.08676 1.10624,0.26029c0.29747,0.17353 0.52058,0.44002 0.66932,0.79947c0.14874,0.35325 0.22311,0.79947 0.22311,1.33864v3.55111h-1.14342v-3.47675c0,-0.32846 -0.04338,-0.60115 -0.13015,-0.81806c-0.08676,-0.22311 -0.22311,-0.38424 -0.40903,-0.4834c-0.18592,-0.09916 -0.41523,-0.14254 -0.68791,-0.13015c-0.22311,0 -0.42762,0.03718 -0.61355,0.11155c-0.18592,0.06817 -0.34706,0.16733 -0.4834,0.29747c-0.13635,0.12395 -0.2448,0.26959 -0.32536,0.43692c-0.07437,0.16114 -0.11155,0.33776 -0.11155,0.52988v3.53252h-0.56706c-0.09296,0 -0.18902,0 -0.28818,0c-0.09916,0 -0.19522,0 -0.28818,0zM86.57149,56.72474c-0.59495,0 -1.12483,-0.12705 -1.58963,-0.38114c-0.45861,-0.25409 -0.82116,-0.60425 -1.08765,-1.05046c-0.26029,-0.44621 -0.39044,-0.9575 -0.39044,-1.53386c0,-0.45861 0.07437,-0.87693 0.22311,-1.25498c0.14874,-0.37804 0.35325,-0.7034 0.61355,-0.97609c0.26029,-0.27888 0.57326,-0.49269 0.9389,-0.64143c0.37185,-0.15494 0.77158,-0.2324 1.19919,-0.2324c0.37804,0 0.72819,0.07127 1.05046,0.21381c0.32846,0.14254 0.61045,0.34086 0.84595,0.59495c0.2417,0.25409 0.42762,0.55467 0.55777,0.90172c0.13015,0.34086 0.19212,0.7127 0.18592,1.11553l-0.0093,0.49269h-4.7596l-0.26029,-0.91102h4.02521l-0.15804,0.18592v-0.26029c-0.02479,-0.24789 -0.10845,-0.4679 -0.25099,-0.66002c-0.13635,-0.19212 -0.31297,-0.34396 -0.52988,-0.45551c-0.21691,-0.11155 -0.44931,-0.16733 -0.69721,-0.16733c-0.40283,0 -0.74059,0.07747 -1.01328,0.2324c-0.27269,0.14874 -0.4803,0.37185 -0.62284,0.66932c-0.13635,0.29128 -0.20452,0.65073 -0.20452,1.07835c0,0.40283 0.08366,0.75608 0.25099,1.05976c0.16733,0.29747 0.40593,0.52988 0.7158,0.69721c0.31607,0.16114 0.67552,0.2417 1.07835,0.2417c0.29128,0 0.56087,-0.04648 0.80876,-0.13944c0.24789,-0.09916 0.51748,-0.27578 0.80876,-0.52988l0.57636,0.80876c-0.17973,0.17973 -0.39663,0.33776 -0.65073,0.4741c-0.25409,0.13015 -0.52368,0.2355 -0.80876,0.31607c-0.28508,0.07437 -0.56706,0.11155 -0.84595,0.11155zM90.36137,56.61318v-5.82866h1.15272v1.83133l-0.11155,-0.44621c0.08056,-0.27888 0.22001,-0.53297 0.41833,-0.76228c0.19832,-0.2293 0.42452,-0.40903 0.67862,-0.53917c0.25409,-0.13635 0.51748,-0.20452 0.79017,-0.20452c0.12395,0 0.2417,0.0124 0.35325,0.03718c0.11775,0.01859 0.21071,0.04338 0.27888,0.07437l-0.29747,1.24568c-0.08676,-0.03718 -0.18592,-0.06817 -0.29747,-0.09296c-0.10536,-0.03099 -0.21071,-0.04648 -0.31607,-0.04648c-0.19832,0 -0.38734,0.04028 -0.56706,0.12085c-0.17973,0.07437 -0.34086,0.18282 -0.4834,0.32536c-0.13635,0.13635 -0.2448,0.29437 -0.32536,0.4741c-0.08056,0.17973 -0.12085,0.37804 -0.12085,0.59495v3.21645zM97.30462,56.72474c-0.59495,0 -1.12483,-0.12705 -1.58963,-0.38114c-0.45861,-0.25409 -0.82116,-0.60425 -1.08765,-1.05046c-0.26029,-0.44621 -0.39044,-0.9575 -0.39044,-1.53386c0,-0.45861 0.07437,-0.87693 0.22311,-1.25498c0.14874,-0.37804 0.35325,-0.7034 0.61355,-0.97609c0.26029,-0.27888 0.57326,-0.49269 0.9389,-0.64143c0.37185,-0.15494 0.77158,-0.2324 1.19919,-0.2324c0.37804,0 0.72819,0.07127 1.05046,0.21381c0.32846,0.14254 0.61045,0.34086 0.84595,0.59495c0.2417,0.25409 0.42762,0.55467 0.55777,0.90172c0.13015,0.34086 0.19212,0.7127 0.18592,1.11553l-0.0093,0.49269h-4.7596l-0.26029,-0.91102h4.02521l-0.15804,0.18592v-0.26029c-0.02479,-0.24789 -0.10845,-0.4679 -0.25099,-0.66002c-0.13635,-0.19212 -0.31297,-0.34396 -0.52988,-0.45551c-0.21691,-0.11155 -0.44931,-0.16733 -0.69721,-0.16733c-0.40283,0 -0.74059,0.07747 -1.01328,0.2324c-0.27269,0.14874 -0.4803,0.37185 -0.62284,0.66932c-0.13635,0.29128 -0.20452,0.65073 -0.20452,1.07835c0,0.40283 0.08366,0.75608 0.25099,1.05976c0.16733,0.29747 0.40593,0.52988 0.7158,0.69721c0.31607,0.16114 0.67552,0.2417 1.07835,0.2417c0.29128,0 0.56087,-0.04648 0.80876,-0.13944c0.24789,-0.09916 0.51748,-0.27578 0.80876,-0.52988l0.57636,0.80876c-0.17973,0.17973 -0.39663,0.33776 -0.65073,0.4741c-0.25409,0.13015 -0.52368,0.2355 -0.80876,0.31607c-0.28508,0.07437 -0.56706,0.11155 -0.84595,0.11155zM104.92746,56.61318v-7.31604h1.14342v7.31604zM103.70967,51.90006v-1.11553h3.70915v1.11553zM111.03057,56.72474c-0.57016,0 -1.08145,-0.13015 -1.53386,-0.39044c-0.44621,-0.26648 -0.79947,-0.62594 -1.05976,-1.07835c-0.25409,-0.45861 -0.38114,-0.97919 -0.38114,-1.56175c0,-0.58256 0.12705,-1.10004 0.38114,-1.55245c0.26029,-0.45861 0.61355,-0.81806 1.05976,-1.07835c0.45241,-0.26648 0.96369,-0.39973 1.53386,-0.39973c0.55777,0 1.05976,0.13325 1.50597,0.39973c0.45241,0.26029 0.80876,0.61974 1.06905,1.07835c0.26029,0.45241 0.39044,0.96989 0.39044,1.55245c0,0.58256 -0.13015,1.10314 -0.39044,1.56175c-0.26029,0.45241 -0.61665,0.81186 -1.06905,1.07835c-0.44621,0.26029 -0.9482,0.39044 -1.50597,0.39044zM111.03057,55.68357c0.34706,0 0.65692,-0.08676 0.92961,-0.26029c0.27269,-0.17353 0.4865,-0.40903 0.64143,-0.7065c0.15494,-0.30367 0.2293,-0.64453 0.22311,-1.02257c0.0062,-0.38424 -0.06817,-0.72509 -0.22311,-1.02257c-0.15494,-0.30367 -0.36875,-0.53917 -0.64143,-0.7065c-0.27269,-0.17353 -0.58256,-0.26029 -0.92961,-0.26029c-0.34706,0 -0.66002,0.08676 -0.9389,0.26029c-0.27888,0.17353 -0.49579,0.41213 -0.65073,0.7158c-0.15494,0.29747 -0.2293,0.63524 -0.22311,1.01328c-0.0062,0.37804 0.06817,0.7189 0.22311,1.02257c0.15494,0.29747 0.37185,0.53297 0.65073,0.7065c0.27888,0.17353 0.59185,0.26029 0.9389,0.26029zM120.81594,56.72474c-0.53917,0 -1.02257,-0.13325 -1.45019,-0.39973c-0.42143,-0.26648 -0.75608,-0.62904 -1.00398,-1.08765c-0.24789,-0.45861 -0.37185,-0.97299 -0.37185,-1.54315c0,-0.57016 0.12395,-1.08455 0.37185,-1.54315c0.24789,-0.45861 0.58256,-0.82116 1.00398,-1.08765c0.42762,-0.26648 0.91102,-0.39973 1.45019,-0.39973c0.52058,0 0.99158,0.10536 1.413,0.31607c0.42762,0.21071 0.75298,0.49889 0.97609,0.86454l-0.63214,0.77158c-0.11775,-0.16733 -0.26959,-0.32226 -0.45551,-0.4648c-0.18592,-0.14254 -0.38424,-0.25409 -0.59495,-0.33466c-0.20452,-0.08056 -0.40283,-0.12085 -0.59495,-0.12085c-0.35325,0 -0.66932,0.08676 -0.9482,0.26029c-0.27888,0.17353 -0.49889,0.41213 -0.66002,0.7158c-0.16114,0.30367 -0.2417,0.64453 -0.2417,1.02257c0,0.37804 0.08366,0.7189 0.25099,1.02257c0.17353,0.29747 0.39973,0.53607 0.67862,0.7158c0.27888,0.17353 0.58876,0.26029 0.92961,0.26029c0.20452,0 0.39973,-0.03408 0.58566,-0.10226c0.18592,-0.06817 0.36875,-0.16733 0.54847,-0.29747c0.17973,-0.13635 0.34706,-0.30057 0.50199,-0.49269l0.63214,0.78087c-0.2355,0.33466 -0.57326,0.61045 -1.01328,0.82736c-0.44002,0.21071 -0.89862,0.31607 -1.37582,0.31607zM126.52179,56.72474c-0.4772,0 -0.91412,-0.13325 -1.31075,-0.39973c-0.39663,-0.26648 -0.7158,-0.62904 -0.9575,-1.08765c-0.2355,-0.45861 -0.35325,-0.97609 -0.35325,-1.55245c0,-0.58876 0.12085,-1.10934 0.36255,-1.56175c0.2417,-0.45241 0.56706,-0.80876 0.97609,-1.06905c0.41523,-0.26029 0.87693,-0.39044 1.38512,-0.39044c0.30367,0 0.57946,0.04648 0.82736,0.13944c0.25409,0.08676 0.4741,0.21071 0.66002,0.37185c0.19212,0.15494 0.34706,0.33776 0.4648,0.54847c0.12395,0.20452 0.20142,0.42452 0.2324,0.66002l-0.25099,-0.08366v-1.51527h1.15272v5.82866h-1.15272v-1.38512l0.26029,-0.08366c-0.04338,0.20452 -0.13325,0.40283 -0.26959,0.59495c-0.13635,0.18592 -0.30987,0.35325 -0.52058,0.50199c-0.21071,0.14254 -0.44311,0.26029 -0.69721,0.35325c-0.25409,0.08676 -0.52368,0.13015 -0.80876,0.13015zM126.81927,55.67428c0.35325,0 0.66002,-0.08366 0.92031,-0.25099c0.26648,-0.17353 0.4741,-0.40903 0.62284,-0.7065c0.15494,-0.30367 0.2324,-0.64763 0.2324,-1.03187c0,-0.37804 -0.07747,-0.7158 -0.2324,-1.01328c-0.14874,-0.29747 -0.35635,-0.52988 -0.62284,-0.69721c-0.26029,-0.17353 -0.56706,-0.26029 -0.92031,-0.26029c-0.34086,0 -0.64143,0.08676 -0.90172,0.26029c-0.26029,0.16733 -0.4679,0.39973 -0.62284,0.69721c-0.14874,0.29747 -0.22311,0.63524 -0.22311,1.01328c0,0.38424 0.07437,0.72819 0.22311,1.03187c0.15494,0.29747 0.36255,0.53297 0.62284,0.7065c0.26029,0.16733 0.56087,0.25099 0.90172,0.25099zM131.30745,56.61318v-5.82866h1.14342v1.19919l-0.20452,0.13015c0.07437,-0.25409 0.22001,-0.48959 0.43692,-0.7065c0.21691,-0.22311 0.471,-0.40283 0.76228,-0.53917c0.29747,-0.13635 0.60115,-0.20452 0.91102,-0.20452c0.44621,0 0.81496,0.08676 1.10624,0.26029c0.29747,0.17353 0.52058,0.44002 0.66932,0.79947c0.14874,0.35325 0.22311,0.79947 0.22311,1.33864v3.55111h-1.14342v-3.47675c0,-0.32846 -0.04338,-0.60115 -0.13015,-0.81806c-0.08676,-0.22311 -0.22311,-0.38424 -0.40903,-0.4834c-0.18592,-0.09916 -0.41523,-0.14254 -0.68791,-0.13015c-0.22311,0 -0.42762,0.03718 -0.61355,0.11155c-0.18592,0.06817 -0.34706,0.16733 -0.4834,0.29747c-0.13635,0.12395 -0.2448,0.26959 -0.32536,0.43692c-0.07437,0.16114 -0.11155,0.33776 -0.11155,0.52988v3.53252h-0.56706c-0.09296,0 -0.18902,0 -0.28818,0c-0.09916,0 -0.19522,0 -0.28818,0zM140.38445,56.72474c-0.53917,0 -1.02257,-0.13325 -1.45019,-0.39973c-0.42143,-0.26648 -0.75608,-0.62904 -1.00398,-1.08765c-0.24789,-0.45861 -0.37185,-0.97299 -0.37185,-1.54315c0,-0.57016 0.12395,-1.08455 0.37185,-1.54315c0.24789,-0.45861 0.58256,-0.82116 1.00398,-1.08765c0.42762,-0.26648 0.91102,-0.39973 1.45019,-0.39973c0.52058,0 0.99158,0.10536 1.413,0.31607c0.42762,0.21071 0.75298,0.49889 0.97609,0.86454l-0.63214,0.77158c-0.11775,-0.16733 -0.26959,-0.32226 -0.45551,-0.4648c-0.18592,-0.14254 -0.38424,-0.25409 -0.59495,-0.33466c-0.20452,-0.08056 -0.40283,-0.12085 -0.59495,-0.12085c-0.35325,0 -0.66932,0.08676 -0.9482,0.26029c-0.27888,0.17353 -0.49889,0.41213 -0.66002,0.7158c-0.16114,0.30367 -0.2417,0.64453 -0.2417,1.02257c0,0.37804 0.08366,0.7189 0.25099,1.02257c0.17353,0.29747 0.39973,0.53607 0.67862,0.7158c0.27888,0.17353 0.58876,0.26029 0.92961,0.26029c0.20452,0 0.39973,-0.03408 0.58566,-0.10226c0.18592,-0.06817 0.36875,-0.16733 0.54847,-0.29747c0.17973,-0.13635 0.34706,-0.30057 0.50199,-0.49269l0.63214,0.78087c-0.2355,0.33466 -0.57326,0.61045 -1.01328,0.82736c-0.44002,0.21071 -0.89862,0.31607 -1.37582,0.31607zM146.5644,56.72474c-0.59495,0 -1.12483,-0.12705 -1.58963,-0.38114c-0.45861,-0.25409 -0.82116,-0.60425 -1.08765,-1.05046c-0.26029,-0.44621 -0.39044,-0.9575 -0.39044,-1.53386c0,-0.45861 0.07437,-0.87693 0.22311,-1.25498c0.14874,-0.37804 0.35325,-0.7034 0.61355,-0.97609c0.26029,-0.27888 0.57326,-0.49269 0.9389,-0.64143c0.37185,-0.15494 0.77158,-0.2324 1.19919,-0.2324c0.37804,0 0.72819,0.07127 1.05046,0.21381c0.32846,0.14254 0.61045,0.34086 0.84595,0.59495c0.2417,0.25409 0.42762,0.55467 0.55777,0.90172c0.13015,0.34086 0.19212,0.7127 0.18592,1.11553l-0.0093,0.49269h-4.7596l-0.26029,-0.91102h4.02521l-0.15804,0.18592v-0.26029c-0.02479,-0.24789 -0.10845,-0.4679 -0.25099,-0.66002c-0.13635,-0.19212 -0.31297,-0.34396 -0.52988,-0.45551c-0.21691,-0.11155 -0.44931,-0.16733 -0.69721,-0.16733c-0.40283,0 -0.74059,0.07747 -1.01328,0.2324c-0.27269,0.14874 -0.4803,0.37185 -0.62284,0.66932c-0.13635,0.29128 -0.20452,0.65073 -0.20452,1.07835c0,0.40283 0.08366,0.75608 0.25099,1.05976c0.16733,0.29747 0.40593,0.52988 0.7158,0.69721c0.31607,0.16114 0.67552,0.2417 1.07835,0.2417c0.29128,0 0.56087,-0.04648 0.80876,-0.13944c0.24789,-0.09916 0.51748,-0.27578 0.80876,-0.52988l0.57636,0.80876c-0.17973,0.17973 -0.39663,0.33776 -0.65073,0.4741c-0.25409,0.13015 -0.52368,0.2355 -0.80876,0.31607c-0.28508,0.07437 -0.56706,0.11155 -0.84595,0.11155zM150.37288,56.61318v-8.21776h1.14342v8.21776z" fill="#ffffff" fill-rule="nonzero"/><path d="M98.56829,160.60652c-0.58976,0 -1.13616,-0.07806 -1.63919,-0.23417c-0.50303,-0.15611 -0.95836,-0.39028 -1.366,-0.70251c-0.40763,-0.3209 -0.7719,-0.71118 -1.0928,-1.17085l1.14483,-1.32697c0.51171,0.72853 0.99739,1.23156 1.45706,1.5091c0.46834,0.27754 1.02341,0.4163 1.66521,0.4163c0.39028,0 0.74588,-0.06071 1.06678,-0.18213c0.3209,-0.13009 0.57242,-0.30356 0.75455,-0.52038c0.1908,-0.21682 0.28621,-0.464 0.28621,-0.74154c0,-0.18213 -0.03036,-0.35559 -0.09107,-0.52038c-0.06071,-0.17346 -0.15611,-0.32524 -0.28621,-0.45533c-0.13009,-0.13877 -0.29488,-0.26453 -0.49436,-0.37727c-0.19948,-0.11275 -0.43365,-0.21249 -0.70251,-0.29922c-0.26886,-0.08673 -0.58109,-0.16045 -0.93668,-0.22116c-0.55507,-0.12142 -1.04076,-0.2732 -1.45706,-0.45533c-0.4163,-0.1908 -0.76322,-0.42497 -1.04076,-0.70251c-0.27754,-0.27754 -0.48569,-0.5941 -0.62446,-0.94969c-0.13877,-0.35559 -0.20815,-0.75889 -0.20815,-1.20988c0,-0.43365 0.0954,-0.83694 0.28621,-1.20988c0.19948,-0.37294 0.464,-0.69384 0.79358,-0.9627c0.33825,-0.27754 0.73287,-0.49002 1.18386,-0.63746c0.45967,-0.15611 0.95403,-0.23417 1.48308,-0.23417c0.56375,0 1.07545,0.07372 1.53512,0.22116c0.46834,0.14744 0.88464,0.36427 1.24891,0.65047c0.36427,0.27754 0.66348,0.62446 0.89765,1.04076l-1.18386,1.17085c-0.19948,-0.34692 -0.42931,-0.63313 -0.6895,-0.85863c-0.26019,-0.23417 -0.5464,-0.41197 -0.85863,-0.53339c-0.31223,-0.12142 -0.6418,-0.18213 -0.98872,-0.18213c-0.40763,0 -0.76322,0.06505 -1.06678,0.19514c-0.29488,0.12142 -0.52905,0.29488 -0.70251,0.52038c-0.17346,0.21682 -0.26019,0.47701 -0.26019,0.78057c0,0.21682 0.04337,0.4163 0.13009,0.59844c0.08673,0.18213 0.21249,0.34258 0.37727,0.48135c0.17346,0.13877 0.40329,0.26453 0.6895,0.37727c0.29488,0.10408 0.6418,0.19514 1.04076,0.2732c0.57242,0.13009 1.07979,0.29055 1.52211,0.48135c0.45099,0.1908 0.82827,0.4163 1.13182,0.67649c0.31223,0.26019 0.5464,0.55074 0.70251,0.87164c0.16479,0.3209 0.24718,0.66782 0.24718,1.04076c0,0.69384 -0.16045,1.29661 -0.48135,1.80832c-0.3209,0.50303 -0.77623,0.89332 -1.366,1.17085c-0.58976,0.26886 -1.29228,0.40329 -2.10754,0.40329zM104.52737,160.4504v-11.50038h1.60017v11.50038zM112.04357,160.60652c-0.83261,0 -1.57415,-0.17779 -2.22462,-0.53339c-0.6418,-0.35559 -1.14917,-0.84562 -1.52211,-1.47007c-0.36427,-0.62446 -0.5464,-1.33998 -0.5464,-2.14656c0,-0.6418 0.10408,-1.22723 0.31223,-1.75628c0.20815,-0.52905 0.49436,-0.98438 0.85863,-1.366c0.36427,-0.39028 0.80225,-0.6895 1.31396,-0.89765c0.52038,-0.21682 1.07979,-0.32524 1.67822,-0.32524c0.52905,0 1.01908,0.09974 1.47007,0.29922c0.45967,0.19948 0.85429,0.47701 1.18386,0.83261c0.33825,0.35559 0.59844,0.77623 0.78057,1.26192c0.18213,0.47701 0.26886,0.99739 0.26019,1.56114l-0.01301,0.6895h-6.66085l-0.36427,-1.27493h5.63311l-0.22116,0.26019v-0.36427c-0.03469,-0.34692 -0.15178,-0.65481 -0.35126,-0.92367c-0.1908,-0.26886 -0.43798,-0.48135 -0.74154,-0.63746c-0.30356,-0.15611 -0.62879,-0.23417 -0.97571,-0.23417c-0.56375,0 -1.03642,0.10841 -1.41803,0.32524c-0.38161,0.20815 -0.67216,0.52038 -0.87164,0.93668c-0.1908,0.40763 -0.28621,0.91066 -0.28621,1.5091c0,0.56375 0.11709,1.05811 0.35126,1.48308c0.23417,0.4163 0.56808,0.74154 1.00173,0.97571c0.44232,0.2255 0.94535,0.33825 1.5091,0.33825c0.40763,0 0.78491,-0.06505 1.13182,-0.19514c0.34692,-0.13877 0.72419,-0.38595 1.13182,-0.74154l0.80659,1.13182c-0.25152,0.25152 -0.55507,0.47268 -0.91066,0.66348c-0.35559,0.18213 -0.73287,0.32957 -1.13182,0.44232c-0.39896,0.10408 -0.79358,0.15611 -1.18386,0.15611zM121.14611,160.60652c-0.83261,0 -1.57415,-0.17779 -2.22462,-0.53339c-0.6418,-0.35559 -1.14917,-0.84562 -1.52211,-1.47007c-0.36427,-0.62446 -0.5464,-1.33998 -0.5464,-2.14656c0,-0.6418 0.10408,-1.22723 0.31223,-1.75628c0.20815,-0.52905 0.49436,-0.98438 0.85863,-1.366c0.36427,-0.39028 0.80225,-0.6895 1.31396,-0.89765c0.52038,-0.21682 1.07979,-0.32524 1.67822,-0.32524c0.52905,0 1.01908,0.09974 1.47007,0.29922c0.45967,0.19948 0.85429,0.47701 1.18386,0.83261c0.33825,0.35559 0.59844,0.77623 0.78057,1.26192c0.18213,0.47701 0.26886,0.99739 0.26019,1.56114l-0.01301,0.6895h-6.66085l-0.36427,-1.27493h5.63311l-0.22116,0.26019v-0.36427c-0.03469,-0.34692 -0.15178,-0.65481 -0.35126,-0.92367c-0.1908,-0.26886 -0.43798,-0.48135 -0.74154,-0.63746c-0.30356,-0.15611 -0.62879,-0.23417 -0.97571,-0.23417c-0.56375,0 -1.03642,0.10841 -1.41803,0.32524c-0.38161,0.20815 -0.67216,0.52038 -0.87164,0.93668c-0.1908,0.40763 -0.28621,0.91066 -0.28621,1.5091c0,0.56375 0.11709,1.05811 0.35126,1.48308c0.23417,0.4163 0.56808,0.74154 1.00173,0.97571c0.44232,0.2255 0.94535,0.33825 1.5091,0.33825c0.40763,0 0.78491,-0.06505 1.13182,-0.19514c0.34692,-0.13877 0.72419,-0.38595 1.13182,-0.74154l0.80659,1.13182c-0.25152,0.25152 -0.55507,0.47268 -0.91066,0.66348c-0.35559,0.18213 -0.73287,0.32957 -1.13182,0.44232c-0.39896,0.10408 -0.79358,0.15611 -1.18386,0.15611zM126.44987,163.8719v-11.57844h1.61318v1.86036l-0.24718,-0.13009c0.06071,-0.31223 0.23417,-0.61145 0.52038,-0.89765c0.29488,-0.28621 0.65047,-0.52038 1.06678,-0.70251c0.42497,-0.18213 0.85863,-0.2732 1.30095,-0.2732c0.7372,0 1.38768,0.18213 1.95142,0.5464c0.57242,0.36427 1.02341,0.86296 1.35299,1.49609c0.33825,0.63313 0.50737,1.35732 0.50737,2.17258c0,0.80659 -0.16479,1.53078 -0.49436,2.17258c-0.32957,0.63313 -0.78057,1.13616 -1.35299,1.5091c-0.56375,0.36427 -1.20121,0.5464 -1.91239,0.5464c-0.47701,0 -0.94102,-0.0954 -1.39201,-0.28621c-0.44232,-0.1908 -0.8196,-0.43798 -1.13182,-0.74154c-0.31223,-0.30356 -0.50303,-0.61578 -0.57242,-0.93668l0.40329,-0.20815v5.45097zM130.48281,159.11042c0.47701,0 0.90199,-0.11709 1.27493,-0.35126c0.37294,-0.24284 0.66782,-0.56808 0.88464,-0.97571c0.21682,-0.4163 0.32524,-0.88898 0.32524,-1.41803c0,-0.52905 -0.10841,-0.99739 -0.32524,-1.40502c-0.20815,-0.40763 -0.4987,-0.72853 -0.87164,-0.9627c-0.36427,-0.24284 -0.79358,-0.36427 -1.28794,-0.36427c-0.48569,0 -0.915,0.11709 -1.28794,0.35126c-0.37294,0.23417 -0.66782,0.55941 -0.88464,0.97571c-0.21682,0.40763 -0.32524,0.87597 -0.32524,1.40502c0,0.52905 0.10841,1.00173 0.32524,1.41803c0.21682,0.40763 0.51171,0.73287 0.88464,0.97571c0.37294,0.23417 0.80225,0.35126 1.28794,0.35126z" fill="#ffffff" fill-rule="nonzero"/></g></g></svg>