<svg version="1.1" xmlns="http://www.w3.org/2000/svg" xmlns:xlink="http://www.w3.org/1999/xlink" width="224.86339" height="134.41861" viewBox="0,0,224.86339,134.41861"><g transform="translate(-128.68694,-102.42653)"><g data-paper-data="{&quot;isPaintingLayer&quot;:true}" stroke="none" stroke-width="1" stroke-linejoin="miter" stroke-miterlimit="10" stroke-dasharray="" stroke-dashoffset="0" style="mix-blend-mode: normal"><path d="M128.68694,115.2877v0c0,-7.10304 5.75815,-12.86117 12.86117,-12.86117h199.14104c3.41098,0 6.68227,1.35501 9.09423,3.76694c2.41193,2.41194 3.76695,5.68323 3.76695,9.09423v108.69626c0,7.10304 -5.75814,12.86118 -12.86116,12.86118h-199.14104c-7.10304,0 -12.86117,-5.75815 -12.86117,-12.86118z" fill-opacity="0.57636" fill="#ffffff" fill-rule="evenodd" stroke-linecap="square"/><path d="M197.58523,129.98057v0c0,-1.35836 1.10116,-2.45954 2.45954,-2.45954h19.06951c0.65231,0 1.27789,0.25913 1.73915,0.72039c0.46126,0.46126 0.72039,1.08685 0.72039,1.73916v18.70304c0,1.35836 -1.10116,2.45954 -2.45954,2.45954h-19.06951c-1.35836,0 -2.45954,-1.10116 -2.45954,-2.45954z" fill-opacity="0.64252" fill="#373737" fill-rule="evenodd" stroke-linecap="square"/><path d="M228.46826,129.9806v0c0,-1.35836 1.10116,-2.45954 2.45954,-2.45954h19.06951c0.65231,0 1.27789,0.25913 1.73915,0.72039c0.46126,0.46126 0.72039,1.08685 0.72039,1.73916v18.70304c0,1.35836 -1.10116,2.45954 -2.45954,2.45954h-19.06951c-1.35836,0 -2.45954,-1.10116 -2.45954,-2.45954z" fill-opacity="0.64252" fill="#373737" fill-rule="evenodd" stroke-linecap="square"/><path d="M197.58523,161.6357v0c0,-1.35836 1.10116,-2.45954 2.45954,-2.45954h19.06951c0.65231,0 1.27789,0.25913 1.73915,0.72039c0.46126,0.46126 0.72039,1.08685 0.72039,1.73916v18.70304c0,1.35836 -1.10116,2.45954 -2.45954,2.45954h-19.06951c-1.35836,0 -2.45954,-1.10116 -2.45954,-2.45954z" fill-opacity="0.64252" fill="#373737" fill-rule="evenodd" stroke-linecap="square"/><path d="M228.46826,161.6357v0c0,-1.35836 1.10116,-2.45954 2.45954,-2.45954h19.06951c0.65231,0 1.27789,0.25913 1.73915,0.72039c0.46126,0.46126 0.72039,1.08685 0.72039,1.73916v18.70304c0,1.35836 -1.10116,2.45954 -2.45954,2.45954h-19.06951c-1.35836,0 -2.45954,-1.10116 -2.45954,-2.45954z" fill-opacity="0.64252" fill="#373737" fill-rule="evenodd" stroke-linecap="square"/><path d="M259.35128,129.9806v0c0,-1.35836 1.10116,-2.45954 2.45954,-2.45954h19.06951c0.65231,0 1.27789,0.25913 1.73915,0.72039c0.46126,0.46126 0.72039,1.08685 0.72039,1.73916v18.70304c0,1.35836 -1.10116,2.45954 -2.45954,2.45954h-19.06951c-1.35836,0 -2.45954,-1.10116 -2.45954,-2.45954z" fill-opacity="0.64252" fill="#373737" fill-rule="evenodd" stroke-linecap="square"/><path d="M259.05116,161.6357v0c0,-1.35836 1.10116,-2.45954 2.45954,-2.45954h19.06951c0.65231,0 1.27789,0.25913 1.73915,0.72039c0.46126,0.46126 0.72039,1.08685 0.72039,1.73916v18.70304c0,1.35836 -1.10116,2.45954 -2.45954,2.45954h-19.06951c-1.35836,0 -2.45954,-1.10116 -2.45954,-2.45954z" fill-opacity="0.64252" fill="#373737" fill-rule="evenodd" stroke-linecap="square"/><path d="M198.35731,191.74665v0c0,-1.35836 1.10116,-2.45954 2.45954,-2.45954h19.06951c0.65231,0 1.27789,0.25913 1.73915,0.72039c0.46126,0.46126 0.72039,1.08685 0.72039,1.73916v18.70304c0,1.35836 -1.10116,2.45954 -2.45954,2.45954h-19.06951c-1.35836,0 -2.45954,-1.10116 -2.45954,-2.45954z" fill-opacity="0.64252" fill="#373737" fill-rule="evenodd" stroke-linecap="square"/><path d="M229.24033,191.74665v0c0,-1.35836 1.10116,-2.45954 2.45954,-2.45954h19.06951c0.65231,0 1.27789,0.25913 1.73915,0.72039c0.46126,0.46126 0.72039,1.08685 0.72039,1.73916v18.70304c0,1.35836 -1.10116,2.45954 -2.45954,2.45954h-19.06951c-1.35836,0 -2.45954,-1.10116 -2.45954,-2.45954z" fill-opacity="0.64252" fill="#373737" fill-rule="evenodd" stroke-linecap="square"/><text transform="translate(300.77331,118.49385) scale(0.18634,0.18634)" font-size="40" xml:space="preserve" fill="#000000" fill-rule="nonzero" stroke="none" stroke-width="1" stroke-linecap="butt" stroke-linejoin="miter" stroke-miterlimit="10" stroke-dasharray="" stroke-dashoffset="0" font-family="Sans Serif" font-weight="normal" text-anchor="start" style="mix-blend-mode: normal"><tspan x="0" dy="0">Up next:</tspan></text><text transform="translate(228.64372,118.39189) scale(0.18635,0.18635)" font-size="40" xml:space="preserve" fill="#000000" fill-rule="nonzero" stroke="none" stroke-width="1" stroke-linecap="butt" stroke-linejoin="miter" stroke-miterlimit="10" stroke-dasharray="" stroke-dashoffset="0" font-family="Sans Serif" font-weight="normal" text-anchor="start" style="mix-blend-mode: normal"><tspan x="0" dy="0">Apps:</tspan></text><text transform="translate(149.96479,118.28994) scale(0.18635,0.18635)" font-size="40" xml:space="preserve" fill="#000000" fill-rule="nonzero" stroke="none" stroke-width="1" stroke-linecap="butt" stroke-linejoin="miter" stroke-miterlimit="10" stroke-dasharray="" stroke-dashoffset="0" font-family="Sans Serif" font-weight="normal" text-anchor="start" style="mix-blend-mode: normal"><tspan x="0" dy="0">Shortcuts:</tspan></text></g></g></svg>