<svg version="1.1" xmlns="http://www.w3.org/2000/svg" xmlns:xlink="http://www.w3.org/1999/xlink" width="195.64526" height="117.37503" viewBox="0,0,195.64526,117.37503"><g transform="translate(-155.12995,-117.06249)"><g data-paper-data="{&quot;isPaintingLayer&quot;:true}" stroke="none" stroke-width="1" stroke-linejoin="miter" stroke-miterlimit="10" stroke-dasharray="" stroke-dashoffset="0" style="mix-blend-mode: normal"><path d="M334.55436,137.5915h-8.11436c-4.48145,0 -8.11436,-3.51074 -8.11436,-7.84146c0,-4.33072 3.63293,-7.84147 8.11436,-7.84147v0h8.11436z" fill-opacity="0.6715" fill="#6c6c6c" fill-rule="evenodd" stroke-linecap="square"/><path d="M334.54649,121.90857h8.11436v0c4.48145,0 8.11436,3.51074 8.11436,7.84147c0,4.3307 -3.63292,7.84146 -8.11436,7.84146h-8.11436z" fill-opacity="0.6715" fill="#6c6c6c" fill-rule="evenodd" stroke-linecap="square"/><text transform="translate(321.39161,131.3701) scale(0.12764,0.12764)" font-size="40" xml:space="preserve" fill="#ffffff" fill-rule="nonzero" stroke="none" stroke-width="1" stroke-linecap="butt" stroke-linejoin="miter" stroke-miterlimit="10" stroke-dasharray="" stroke-dashoffset="0" font-family="Sans Serif" font-weight="normal" text-anchor="start" style="mix-blend-mode: normal"><tspan x="0" dy="0">About Files</tspan></text><path d="M155.12995,124.31744c0,-4.0068 3.24816,-7.25495 7.25495,-7.25495h155.72345c1.92414,0 3.76947,0.76436 5.13003,2.12493c1.36058,1.36057 2.12493,3.20589 2.12493,5.13003v102.86512c0,4.0068 -3.24815,7.25495 -7.25495,7.25495h-155.72345c-4.0068,0 -7.25495,-3.24815 -7.25495,-7.25495z" fill-opacity="0.86668" fill="#171717" fill-rule="evenodd" stroke-linecap="square"/><text transform="translate(218,131.15263) scale(0.20508,0.20508)" font-size="40" xml:space="preserve" fill="#ffffff" fill-rule="nonzero" stroke="none" stroke-width="1" stroke-linecap="butt" stroke-linejoin="miter" stroke-miterlimit="10" stroke-dasharray="" stroke-dashoffset="0" font-family="Sans Serif" font-weight="normal" text-anchor="start" style="mix-blend-mode: normal"><tspan x="0" dy="0">About Files</tspan></text><text transform="translate(189.66666,143.56929) scale(0.14008,0.14008)" font-size="40" xml:space="preserve" fill="#ffffff" fill-rule="nonzero" stroke="none" stroke-width="1" stroke-linecap="butt" stroke-linejoin="miter" stroke-miterlimit="10" stroke-dasharray="" stroke-dashoffset="0" font-family="Sans Serif" font-weight="normal" text-anchor="start" style="mix-blend-mode: normal"><tspan x="0" dy="0">Files app made by PolyOS (PIXAPoLY)</tspan><tspan x="0" dy="46.150000000000006px"> </tspan><tspan x="0" dy="46.150000000000006px">Adapted from PolyOS 5 Skyline Files</tspan></text><text transform="translate(210.64519,170.28284) scale(0.14008,0.14008)" font-size="40" xml:space="preserve" fill="#ffffff" fill-rule="nonzero" stroke="none" stroke-width="1" stroke-linecap="butt" stroke-linejoin="miter" stroke-miterlimit="10" stroke-dasharray="" stroke-dashoffset="0" font-family="Sans Serif" font-weight="normal" text-anchor="start" style="mix-blend-mode: normal"><tspan x="0" dy="0">Some Technical info:</tspan></text><text transform="translate(205.64519,178.56548) scale(0.08083,0.08083)" font-size="40" xml:space="preserve" fill="#ffffff" fill-rule="nonzero" stroke="none" stroke-width="1" stroke-linecap="butt" stroke-linejoin="miter" stroke-miterlimit="10" stroke-dasharray="" stroke-dashoffset="0" font-family="Sans Serif" font-weight="normal" text-anchor="start" style="mix-blend-mode: normal"><tspan x="0" dy="0">Read/Wite Mode: POFS (Listed)</tspan><tspan x="0" dy="46.150000000000006px"> </tspan><tspan x="0" dy="46.150000000000006px">SFID: 2254986</tspan><tspan x="0" dy="46.150000000000006px"> </tspan><tspan x="0" dy="46.150000000000006px">Total Drive Size: 1.98 GB (variable)</tspan><tspan x="0" dy="46.150000000000006px"> </tspan><tspan x="0" dy="46.150000000000006px">Version 1.2.4 POFSL (POFS MainFS) ver 1.8</tspan></text><text transform="translate(191.31185,213.12072) scale(0.11451,0.11451)" font-size="40" xml:space="preserve" fill="#ffffff" fill-rule="nonzero" stroke="none" stroke-width="1" stroke-linecap="butt" stroke-linejoin="miter" stroke-miterlimit="10" stroke-dasharray="" stroke-dashoffset="0" font-family="Sans Serif" font-weight="normal" text-anchor="start" style="mix-blend-mode: normal"><tspan x="0" dy="0">For more info and help visit the PolyOS site</tspan></text><path d="M238.00345,231.50813h-7.11412c-3.92903,0 -7.11412,-3.07798 -7.11412,-6.87486c0,-3.79688 3.18511,-6.87487 7.11412,-6.87487v0h7.11412z" fill-opacity="0.6715" fill="#6c6c6c" fill-rule="evenodd" stroke-linecap="square"/><path d="M237.99655,217.75841h7.11412v0c3.92903,0 7.11412,3.07798 7.11412,6.87487c0,3.79686 -3.1851,6.87486 -7.11412,6.87486h-7.11412z" fill-opacity="0.6715" fill="#6c6c6c" fill-rule="evenodd" stroke-linecap="square"/><text transform="translate(232.30813,226.05362) scale(0.11191,0.11191)" font-size="40" xml:space="preserve" fill="#ffffff" fill-rule="nonzero" stroke="none" stroke-width="1" stroke-linecap="butt" stroke-linejoin="miter" stroke-miterlimit="10" stroke-dasharray="" stroke-dashoffset="0" font-family="Sans Serif" font-weight="normal" text-anchor="start" style="mix-blend-mode: normal"><tspan x="0" dy="0">Close</tspan></text></g></g></svg>