<svg version="1.1" xmlns="http://www.w3.org/2000/svg" xmlns:xlink="http://www.w3.org/1999/xlink" width="232.23527" height="160.12502" viewBox="0,0,232.23527,160.12502"><g transform="translate(-123.88237,-99.93749)"><g data-paper-data="{&quot;isPaintingLayer&quot;:true}" stroke="none" stroke-linejoin="miter" stroke-miterlimit="10" stroke-dasharray="" stroke-dashoffset="0" style="mix-blend-mode: normal"><path d="M123.88237,109.83482c0,-5.46615 4.43119,-9.89733 9.89733,-9.89733h212.44061c2.62494,0 5.14237,1.04275 6.99847,2.89886c1.85612,1.85611 2.89886,4.37353 2.89886,6.99847v140.33036c0,5.46615 -4.43118,9.89733 -9.89733,9.89733h-212.44061c-5.46614,0 -9.89733,-4.43118 -9.89733,-9.89733z" fill="#ebebeb" fill-rule="evenodd" stroke-width="1" stroke-linecap="square"/><path d="M329.5029,111.23421c0,2.34801 -1.91444,4.25144 -4.27602,4.25144c-2.36158,0 -4.27601,-1.90344 -4.27601,-4.25144c0,-2.34801 1.91443,-4.25144 4.27601,-4.25144c2.36158,0 4.27602,1.90344 4.27602,4.25144z" fill-opacity="0.55645" fill="#a1a1a1" fill-rule="nonzero" stroke-width="0" stroke-linecap="butt"/><path d="M344.0029,111.23421c0,2.34801 -1.91444,4.25144 -4.27602,4.25144c-2.36158,0 -4.27601,-1.90344 -4.27601,-4.25144c0,-2.34801 1.91443,-4.25144 4.27601,-4.25144c2.36158,0 4.27602,1.90344 4.27602,4.25144z" fill-opacity="0.55645" fill="#a1a1a1" fill-rule="nonzero" stroke-width="0" stroke-linecap="butt"/><path d="M219.71863,111.39009l-1.59766,-5.02122h0.82285l0.967,3.14126c0.02803,0.07608 0.05406,0.16617 0.07808,0.27028c0.02402,0.10411 0.04605,0.20822 0.06607,0.31232c0.02002,0.10411 0.03804,0.20221 0.05406,0.29431c0.01602,0.0921 0.03203,0.16617 0.04805,0.22223l-0.21022,-0.00601c0.07207,-0.25627 0.12813,-0.45247 0.16817,-0.58861c0.04004,-0.14015 0.07207,-0.24626 0.0961,-0.31833c0.02402,-0.07608 0.04605,-0.14015 0.06607,-0.1922l0.90094,-2.26435h0.69672l0.87691,2.26435c0.04805,0.11612 0.09009,0.23024 0.12613,0.34236c0.03604,0.11212 0.06807,0.22423 0.0961,0.33635c0.02803,0.11212 0.06006,0.23024 0.0961,0.35437l-0.1922,0.04805c0.02402,-0.12813 0.04204,-0.22824 0.05406,-0.30031c0.01201,-0.07608 0.02202,-0.13814 0.03003,-0.18619c0.01201,-0.04805 0.02202,-0.0941 0.03003,-0.13814c0.01201,-0.04805 0.02803,-0.10611 0.04805,-0.17418c0.02402,-0.07207 0.05406,-0.17018 0.09009,-0.29431l0.95499,-3.12325h0.83487l-1.60367,5.02122h-0.53456l-1.32738,-3.14126l0.06607,0.03003l-1.27933,3.11123zM226.87421,111.46216c-0.30832,0 -0.59061,-0.08609 -0.84688,-0.25827c-0.25627,-0.17218 -0.46248,-0.40642 -0.61864,-0.70273c-0.15216,-0.29631 -0.22824,-0.63066 -0.22824,-1.00304c0,-0.3804 0.07808,-0.71675 0.23424,-1.00905c0.15616,-0.2923 0.36638,-0.52254 0.63066,-0.69072c0.26828,-0.16817 0.56659,-0.25226 0.89493,-0.25226c0.1962,0 0.37439,0.03003 0.53456,0.09009c0.16417,0.05606 0.30632,0.13614 0.42644,0.24025c0.12413,0.1001 0.22423,0.21823 0.30031,0.35437c0.08008,0.13214 0.13013,0.27428 0.15016,0.42644l-0.16217,-0.05406v-0.97902h0.74477v3.76591h-0.74477v-0.89493l0.16817,-0.05406c-0.02803,0.13214 -0.08609,0.26027 -0.17418,0.3844c-0.08809,0.12012 -0.20021,0.22824 -0.33635,0.32434c-0.13614,0.0921 -0.2863,0.16817 -0.45047,0.22824c-0.16417,0.05606 -0.33835,0.08409 -0.52254,0.08409zM227.06641,110.78346c0.22824,0 0.42644,-0.05406 0.59462,-0.16217c0.17218,-0.11212 0.30632,-0.26427 0.40242,-0.45647c0.1001,-0.1962 0.15016,-0.41843 0.15016,-0.66669c0,-0.24425 -0.05005,-0.46248 -0.15016,-0.65468c-0.0961,-0.1922 -0.23024,-0.34236 -0.40242,-0.45047c-0.16817,-0.11212 -0.36638,-0.16817 -0.59462,-0.16817c-0.22023,0 -0.41443,0.05606 -0.58261,0.16817c-0.16817,0.10811 -0.30231,0.25827 -0.40242,0.45047c-0.0961,0.1922 -0.14415,0.41043 -0.14415,0.65468c0,0.24826 0.04805,0.47049 0.14415,0.66669c0.1001,0.1922 0.23424,0.34436 0.40242,0.45647c0.16817,0.10811 0.36238,0.16217 0.58261,0.16217zM229.97825,111.39009v-5.30952h0.73877v5.30952zM231.77828,111.39009v-5.30952h0.73877v5.30952zM233.56631,112.96973v-5.34555h0.74477v0.85889l-0.11412,-0.06006c0.02803,-0.14415 0.10811,-0.28229 0.24025,-0.41443c0.13614,-0.13214 0.30031,-0.24025 0.49251,-0.32434c0.1962,-0.08409 0.39641,-0.12613 0.60062,-0.12613c0.34035,0 0.64067,0.08409 0.90094,0.25226c0.26427,0.16817 0.47249,0.39841 0.62465,0.69072c0.15616,0.2923 0.23424,0.62665 0.23424,1.00304c0,0.37239 -0.07608,0.70673 -0.22824,1.00304c-0.15216,0.2923 -0.36037,0.52455 -0.62465,0.69672c-0.26027,0.16817 -0.55458,0.25226 -0.88292,0.25226c-0.22023,0 -0.43445,-0.04405 -0.64267,-0.13214c-0.20421,-0.08809 -0.37839,-0.20221 -0.52254,-0.34236c-0.14415,-0.14015 -0.23224,-0.2843 -0.26427,-0.43245l0.18619,-0.0961v2.51661zM235.42824,110.77144c0.22023,0 0.41643,-0.05406 0.58861,-0.16217c0.17218,-0.11212 0.30832,-0.26227 0.40842,-0.45047c0.1001,-0.1922 0.15016,-0.41043 0.15016,-0.65468c0,-0.24425 -0.05005,-0.46048 -0.15016,-0.64867c-0.0961,-0.1882 -0.23024,-0.33635 -0.40242,-0.44446c-0.16817,-0.11212 -0.36638,-0.16817 -0.59462,-0.16817c-0.22423,0 -0.42244,0.05406 -0.59462,0.16217c-0.17218,0.10811 -0.30832,0.25827 -0.40842,0.45047c-0.1001,0.1882 -0.15016,0.40442 -0.15016,0.64867c0,0.24425 0.05005,0.46248 0.15016,0.65468c0.1001,0.1882 0.23625,0.33835 0.40842,0.45047c0.17218,0.10811 0.37038,0.16217 0.59462,0.16217zM239.539,111.46216c-0.30832,0 -0.59061,-0.08609 -0.84688,-0.25827c-0.25627,-0.17218 -0.46248,-0.40642 -0.61864,-0.70273c-0.15216,-0.29631 -0.22824,-0.63066 -0.22824,-1.00304c0,-0.3804 0.07808,-0.71675 0.23424,-1.00905c0.15616,-0.2923 0.36638,-0.52254 0.63066,-0.69072c0.26828,-0.16817 0.56659,-0.25226 0.89493,-0.25226c0.1962,0 0.37439,0.03003 0.53456,0.09009c0.16417,0.05606 0.30632,0.13614 0.42644,0.24025c0.12413,0.1001 0.22423,0.21823 0.30031,0.35437c0.08008,0.13214 0.13013,0.27428 0.15016,0.42644l-0.16217,-0.05406v-0.97902h0.74477v3.76591h-0.74477v-0.89493l0.16817,-0.05406c-0.02803,0.13214 -0.08609,0.26027 -0.17418,0.3844c-0.08809,0.12012 -0.20021,0.22824 -0.33635,0.32434c-0.13614,0.0921 -0.2863,0.16817 -0.45047,0.22824c-0.16417,0.05606 -0.33835,0.08409 -0.52254,0.08409zM239.7312,110.78346c0.22824,0 0.42644,-0.05406 0.59462,-0.16217c0.17218,-0.11212 0.30632,-0.26427 0.40242,-0.45647c0.1001,-0.1962 0.15016,-0.41843 0.15016,-0.66669c0,-0.24425 -0.05005,-0.46248 -0.15016,-0.65468c-0.0961,-0.1922 -0.23024,-0.34236 -0.40242,-0.45047c-0.16817,-0.11212 -0.36638,-0.16817 -0.59462,-0.16817c-0.22023,0 -0.41443,0.05606 -0.58261,0.16817c-0.16817,0.10811 -0.30231,0.25827 -0.40242,0.45047c-0.0961,0.1922 -0.14415,0.41043 -0.14415,0.65468c0,0.24826 0.04805,0.47049 0.14415,0.66669c0.1001,0.1922 0.23424,0.34436 0.40242,0.45647c0.16817,0.10811 0.36238,0.16217 0.58261,0.16217zM242.63102,112.96973v-5.34555h0.74477v0.85889l-0.11412,-0.06006c0.02803,-0.14415 0.10811,-0.28229 0.24025,-0.41443c0.13614,-0.13214 0.30031,-0.24025 0.49251,-0.32434c0.1962,-0.08409 0.39641,-0.12613 0.60062,-0.12613c0.34035,0 0.64067,0.08409 0.90094,0.25226c0.26427,0.16817 0.47249,0.39841 0.62465,0.69072c0.15616,0.2923 0.23424,0.62665 0.23424,1.00304c0,0.37239 -0.07608,0.70673 -0.22824,1.00304c-0.15216,0.2923 -0.36037,0.52455 -0.62465,0.69672c-0.26027,0.16817 -0.55458,0.25226 -0.88292,0.25226c-0.22023,0 -0.43445,-0.04405 -0.64267,-0.13214c-0.20421,-0.08809 -0.37839,-0.20221 -0.52254,-0.34236c-0.14415,-0.14015 -0.23224,-0.2843 -0.26427,-0.43245l0.18619,-0.0961v2.51661zM244.49295,110.77144c0.22023,0 0.41643,-0.05406 0.58861,-0.16217c0.17218,-0.11212 0.30832,-0.26227 0.40842,-0.45047c0.1001,-0.1922 0.15016,-0.41043 0.15016,-0.65468c0,-0.24425 -0.05005,-0.46048 -0.15016,-0.64867c-0.0961,-0.1882 -0.23024,-0.33635 -0.40242,-0.44446c-0.16817,-0.11212 -0.36638,-0.16817 -0.59462,-0.16817c-0.22423,0 -0.42244,0.05406 -0.59462,0.16217c-0.17218,0.10811 -0.30832,0.25827 -0.40842,0.45047c-0.1001,0.1882 -0.15016,0.40442 -0.15016,0.64867c0,0.24425 0.05005,0.46248 0.15016,0.65468c0.1001,0.1882 0.23625,0.33835 0.40842,0.45047c0.17218,0.10811 0.37038,0.16217 0.59462,0.16217zM248.91003,111.46216c-0.3844,0 -0.72676,-0.08208 -1.02707,-0.24626c-0.29631,-0.16417 -0.53055,-0.39041 -0.70273,-0.67871c-0.16817,-0.2883 -0.25226,-0.61864 -0.25226,-0.99103c0,-0.29631 0.04805,-0.56659 0.14415,-0.81084c0.0961,-0.24425 0.22824,-0.45447 0.39641,-0.63066c0.16817,-0.18019 0.37038,-0.31833 0.60663,-0.41443c0.24025,-0.1001 0.49852,-0.15016 0.77481,-0.15016c0.24425,0 0.47049,0.04605 0.67871,0.13814c0.21222,0.0921 0.39441,0.22023 0.54657,0.3844c0.15616,0.16417 0.27629,0.35837 0.36037,0.58261c0.08409,0.22023 0.12413,0.46048 0.12012,0.72075l-0.00601,0.31833h-3.0752l-0.16817,-0.58861h2.6007l-0.10211,0.12012v-0.16817c-0.01602,-0.16017 -0.07007,-0.30231 -0.16217,-0.42644c-0.08809,-0.12413 -0.20221,-0.22223 -0.34236,-0.29431c-0.14015,-0.07207 -0.2903,-0.10811 -0.45047,-0.10811c-0.26027,0 -0.4785,0.05005 -0.65468,0.15016c-0.17618,0.0961 -0.31032,0.24025 -0.40242,0.43245c-0.08809,0.1882 -0.13214,0.42044 -0.13214,0.69672c0,0.26027 0.05406,0.48851 0.16217,0.68471c0.10811,0.1922 0.26227,0.34236 0.46248,0.45047c0.20421,0.10411 0.43645,0.15616 0.69672,0.15616c0.1882,0 0.36238,-0.03003 0.52254,-0.09009c0.16017,-0.06407 0.33435,-0.17818 0.52254,-0.34236l0.37239,0.52254c-0.11612,0.11612 -0.25627,0.21823 -0.42044,0.30632c-0.16417,0.08409 -0.33835,0.15216 -0.52254,0.20421c-0.18419,0.04805 -0.36638,0.07207 -0.54657,0.07207zM251.35869,111.39009v-3.76591h0.74477v1.18323l-0.07207,-0.2883c0.05205,-0.18019 0.14215,-0.34436 0.27028,-0.49251c0.12813,-0.14815 0.27428,-0.26427 0.43846,-0.34836c0.16417,-0.08809 0.33435,-0.13214 0.51053,-0.13214c0.08008,0 0.15616,0.00801 0.22824,0.02402c0.07608,0.01201 0.13614,0.02803 0.18019,0.04805l-0.1922,0.80484c-0.05606,-0.02402 -0.12012,-0.04405 -0.1922,-0.06006c-0.06807,-0.02002 -0.13614,-0.03003 -0.20421,-0.03003c-0.12813,0 -0.25026,0.02603 -0.36638,0.07808c-0.11612,0.04805 -0.22023,0.11812 -0.31232,0.21022c-0.08809,0.08809 -0.15816,0.1902 -0.21022,0.30632c-0.05205,0.11612 -0.07808,0.24425 -0.07808,0.3844v2.07816zM255.50408,111.46216c-0.31633,0 -0.60062,-0.05406 -0.85289,-0.16217c-0.25226,-0.11212 -0.46248,-0.27629 -0.63066,-0.49251l0.49852,-0.42644c0.14415,0.16417 0.30031,0.2843 0.46849,0.36037c0.17218,0.07207 0.36638,0.10811 0.58261,0.10811c0.08409,0 0.16217,-0.01001 0.23424,-0.03003c0.07608,-0.02002 0.14215,-0.05205 0.19821,-0.0961c0.05606,-0.04405 0.0981,-0.0961 0.12613,-0.15616c0.02803,-0.06006 0.04204,-0.12613 0.04204,-0.19821c0,-0.12413 -0.04605,-0.22423 -0.13814,-0.30031c-0.04805,-0.03203 -0.12413,-0.06807 -0.22824,-0.10811c-0.1001,-0.04004 -0.23224,-0.08208 -0.39641,-0.12613c-0.27629,-0.07207 -0.50252,-0.15216 -0.67871,-0.24025c-0.17618,-0.0921 -0.31232,-0.1962 -0.40842,-0.31232c-0.07207,-0.0921 -0.12613,-0.1902 -0.16217,-0.29431c-0.03203,-0.10811 -0.04805,-0.22824 -0.04805,-0.36037c0,-0.15616 0.03403,-0.30031 0.10211,-0.43245c0.07207,-0.13214 0.16817,-0.24626 0.2883,-0.34236c0.12413,-0.1001 0.26828,-0.17618 0.43245,-0.22824c0.16417,-0.05205 0.34035,-0.07808 0.52855,-0.07808c0.17618,0 0.35036,0.02402 0.52254,0.07207c0.17618,0.04805 0.33835,0.11812 0.48651,0.21022c0.14815,0.08809 0.27228,0.1942 0.37239,0.31833l-0.42044,0.46849c-0.0921,-0.0921 -0.1922,-0.17218 -0.30031,-0.24025c-0.10811,-0.06807 -0.21823,-0.12012 -0.33034,-0.15616c-0.10811,-0.04004 -0.20621,-0.06006 -0.29431,-0.06006c-0.1001,0 -0.1922,0.01001 -0.27629,0.03003c-0.08008,0.01602 -0.14815,0.04405 -0.20421,0.08409c-0.05205,0.03604 -0.0941,0.08409 -0.12613,0.14415c-0.02803,0.05606 -0.04204,0.12012 -0.04204,0.1922c0.004,0.06006 0.02002,0.11812 0.04805,0.17418c0.02803,0.05606 0.06607,0.10211 0.11412,0.13814c0.05205,0.04004 0.13013,0.08208 0.23424,0.12613c0.10411,0.04004 0.23825,0.08008 0.40242,0.12012c0.23625,0.06006 0.43245,0.12813 0.58861,0.20421c0.15616,0.07207 0.28029,0.15616 0.37239,0.25226c0.0961,0.0921 0.16217,0.19821 0.19821,0.31833c0.04004,0.12012 0.06006,0.25426 0.06006,0.40242c0,0.21222 -0.06207,0.40442 -0.18619,0.5766c-0.12012,0.16817 -0.2843,0.30031 -0.49251,0.39641c-0.20421,0.0961 -0.43245,0.14415 -0.68471,0.14415z" fill="#000000" fill-rule="nonzero" stroke-width="1" stroke-linecap="square"/></g></g></svg>