<svg version="1.1" xmlns="http://www.w3.org/2000/svg" xmlns:xlink="http://www.w3.org/1999/xlink" width="41.25324" height="41.25324" viewBox="0,0,41.25324,41.25324"><g transform="translate(-219.37338,-159.37338)"><g data-paper-data="{&quot;isPaintingLayer&quot;:true}" fill-rule="nonzero" stroke="none" stroke-linecap="butt" stroke-linejoin="miter" stroke-miterlimit="10" stroke-dasharray="" stroke-dashoffset="0" style="mix-blend-mode: normal"><path d="M219.37338,180c0,-11.39177 9.23485,-20.62662 20.62662,-20.62662c11.39177,0 20.62662,9.23485 20.62662,20.62662c0,11.39177 -9.23485,20.62662 -20.62662,20.62662c-11.39177,0 -20.62662,-9.23485 -20.62662,-20.62662z" fill-opacity="0.80645" fill="#303030" stroke-width="0"/><path d="M239,181v-10h2v10zM240,189c-1.23334,0 -2.39584,-0.2375 -3.4875,-0.7125c-1.09167,-0.475 -2.04583,-1.12083 -2.8625,-1.9375c-0.81667,-0.81667 -1.4625,-1.77083 -1.9375,-2.8625c-0.475,-1.09167 -0.7125,-2.25417 -0.7125,-3.4875c0,-1.33334 0.275,-2.59167 0.825,-3.775c0.55,-1.18333 1.325,-2.20833 2.325,-3.075l1.4,1.4c-0.8,0.66666 -1.425,1.475 -1.875,2.425c-0.45,0.95 -0.675,1.95834 -0.675,3.025c0,1.93333 0.68333,3.58333 2.05,4.95c1.36667,1.36667 3.01666,2.05 4.95,2.05c1.95,0 3.60416,-0.68333 4.9625,-2.05c1.35834,-1.36667 2.0375,-3.01666 2.0375,-4.95c0,-1.06667 -0.22083,-2.075 -0.6625,-3.025c-0.44167,-0.95 -1.07084,-1.75833 -1.8875,-2.425l1.4,-1.4c1,0.86667 1.775,1.89166 2.325,3.075c0.55,1.18333 0.825,2.44167 0.825,3.775c0,1.23334 -0.2375,2.39584 -0.7125,3.4875c-0.475,1.09167 -1.11666,2.04583 -1.925,2.8625c-0.80833,0.81667 -1.75834,1.4625 -2.85,1.9375c-1.09167,0.475 -2.2625,0.7125 -3.5125,0.7125z" fill="#ffffff" stroke-width="1"/></g></g></svg>