<svg version="1.1" xmlns="http://www.w3.org/2000/svg" xmlns:xlink="http://www.w3.org/1999/xlink" width="507.86575" height="373.565" viewBox="0,0,507.86575,373.565"><g transform="translate(17.11443,7.57514)"><g data-paper-data="{&quot;isPaintingLayer&quot;:true}" stroke="none" stroke-width="1" stroke-linejoin="miter" stroke-miterlimit="10" stroke-dasharray="" stroke-dashoffset="0" style="mix-blend-mode: normal"><path d="M-17.11443,15.51492c0,-12.7523 9.69038,-23.09006 21.64406,-23.09006h464.57762c5.74037,0 11.24563,2.43269 15.30467,6.76292c4.05907,4.33023 6.3394,10.20326 6.3394,16.32714v327.38488c0,12.7523 -9.69036,23.09006 -21.64407,23.09006h-464.57761c-11.95367,0 -21.64406,-10.33775 -21.64406,-23.09006z" fill="#171717" fill-rule="evenodd" stroke-linecap="square"/><path d="M21.76117,78.81902h217.76738v40.19673h-217.76738z" fill-opacity="0" fill="#000000" fill-rule="evenodd" stroke-linecap="square"/><text transform="translate(227.20769,17.05314) scale(0.17628,0.17628)" font-size="40" xml:space="preserve" fill="#ffffff" fill-rule="nonzero" stroke="none" stroke-width="1" stroke-linecap="butt" stroke-linejoin="miter" stroke-miterlimit="10" stroke-dasharray="" stroke-dashoffset="0" font-family="Sans Serif" font-weight="normal" text-anchor="start" style="mix-blend-mode: normal"><tspan x="0" dy="0">News</tspan></text><path d="M27.90679,62.76353v-14.30698h5.81862c0.77582,0 1.47747,0.19396 2.10498,0.58186c0.63891,0.3879 1.14662,0.91843 1.52311,1.59156c0.3879,0.66173 0.58186,1.40332 0.58186,2.22477c0,0.82145 -0.19396,1.56874 -0.58186,2.24189c-0.3765,0.66173 -0.88421,1.19224 -1.52311,1.59156c-0.6275,0.39932 -1.32916,0.59898 -2.10498,0.59898h-3.61097v5.47636zM30.11446,55.16508h3.57675c0.3651,0 0.69595,-0.10269 0.9926,-0.30805c0.30805,-0.21678 0.55334,-0.49629 0.73588,-0.83857c0.18254,-0.35368 0.27381,-0.74159 0.27381,-1.16372c0,-0.42214 -0.09127,-0.80434 -0.27381,-1.14662c-0.18254,-0.34227 -0.42784,-0.61609 -0.73588,-0.82145c-0.29663,-0.20536 -0.6275,-0.30805 -0.9926,-0.30805h-3.57675zM44.9528,62.96889c-1.04963,0 -1.99089,-0.23959 -2.82375,-0.71877c-0.82145,-0.49059 -1.47177,-1.15232 -1.95096,-1.98518c-0.46777,-0.84427 -0.70167,-1.80263 -0.70167,-2.87508c0,-1.07245 0.23388,-2.02511 0.70167,-2.85797c0.47919,-0.84427 1.1295,-1.506 1.95096,-1.98518c0.83286,-0.49059 1.77412,-0.73588 2.82375,-0.73588c1.02681,0 1.95096,0.24529 2.77241,0.73588c0.83286,0.47919 1.48889,1.1409 1.96806,1.98518c0.47919,0.83286 0.71877,1.78552 0.71877,2.85797c0,1.07245 -0.23959,2.03081 -0.71877,2.87508c-0.47919,0.83286 -1.1352,1.49459 -1.96806,1.98518c-0.82145,0.47919 -1.74558,0.71877 -2.77241,0.71877zM44.9528,61.05217c0.63891,0 1.20936,-0.15972 1.71136,-0.47919c0.50201,-0.31945 0.89561,-0.753 1.18084,-1.30063c0.28523,-0.55904 0.42214,-1.18654 0.41072,-1.8825c0.0114,-0.70737 -0.12551,-1.33486 -0.41072,-1.8825c-0.28523,-0.55904 -0.67883,-0.9926 -1.18084,-1.30063c-0.50201,-0.31945 -1.07245,-0.47919 -1.71136,-0.47919c-0.63891,0 -1.21507,0.15972 -1.72848,0.47919c-0.51341,0.31945 -0.91273,0.7587 -1.19796,1.31775c-0.28523,0.54764 -0.42214,1.16944 -0.41072,1.86539c-0.0114,0.69595 0.12551,1.32346 0.41072,1.8825c0.28523,0.54764 0.68455,0.98118 1.19796,1.30063c0.51341,0.31945 1.08957,0.47919 1.72848,0.47919zM52.72769,62.76353v-15.12844h2.10498v15.12844zM59.31258,67.46977l2.17343,-5.01428l0.01712,1.67713l-5.35657,-12.09931h2.44725l3.35427,7.88937c0.06845,0.13691 0.14832,0.34798 0.23959,0.6332c0.10269,0.27381 0.18824,0.54764 0.25671,0.82145l-0.53052,0.11979c0.10269,-0.28523 0.20536,-0.57046 0.30805,-0.85567c0.10269,-0.28523 0.19966,-0.57046 0.29093,-0.85567l2.80663,-7.75246h2.49858l-4.41531,10.73023l-1.81404,4.70624zM75.90788,62.96889c-1.01541,0 -1.95096,-0.18254 -2.80663,-0.54764c-0.84427,-0.3765 -1.58586,-0.88991 -2.22477,-1.54022c-0.6275,-0.66173 -1.11809,-1.43755 -1.47177,-2.32746c-0.34227,-0.90131 -0.51341,-1.8825 -0.51341,-2.94354c0,-1.06105 0.17114,-2.03651 0.51341,-2.92642c0.35368,-0.88991 0.84427,-1.66573 1.47177,-2.32746c0.63891,-0.66173 1.3805,-1.17514 2.22477,-1.54022c0.85567,-0.3765 1.79122,-0.56474 2.80663,-0.56474c1.004,0 1.92812,0.18824 2.77241,0.56474c0.85567,0.3651 1.60297,0.88421 2.24189,1.55734c0.63891,0.66173 1.1295,1.43755 1.47177,2.32746c0.34227,0.88991 0.51341,1.85967 0.51341,2.90932c0,1.04963 -0.17114,2.01941 -0.51341,2.90932c-0.34227,0.88991 -0.83286,1.67143 -1.47177,2.34456c-0.63891,0.66173 -1.3862,1.18084 -2.24189,1.55734c-0.84427,0.3651 -1.76841,0.54764 -2.77241,0.54764zM75.90788,60.82969c0.69595,0 1.32916,-0.13121 1.89961,-0.39362c0.58186,-0.26241 1.08387,-0.6275 1.506,-1.09527c0.42214,-0.46777 0.753,-1.01541 0.9926,-1.64291c0.23959,-0.63891 0.35938,-1.33486 0.35938,-2.08786c0,-0.753 -0.11979,-1.44325 -0.35938,-2.07075c-0.23959,-0.63891 -0.57046,-1.19224 -0.9926,-1.66003c-0.42214,-0.46777 -0.92414,-0.82716 -1.506,-1.07815c-0.57046,-0.26241 -1.20366,-0.39362 -1.89961,-0.39362c-0.69595,0 -1.33486,0.13121 -1.91672,0.39362c-0.58186,0.251 -1.08957,0.61038 -1.52311,1.07815c-0.42214,0.45636 -0.74729,1.004 -0.97548,1.64291c-0.22818,0.6275 -0.34227,1.32346 -0.34227,2.08786c0,0.753 0.11409,1.44895 0.34227,2.08786c0.22818,0.63891 0.55334,1.19224 0.97548,1.66003c0.43355,0.45636 0.94124,0.81575 1.52311,1.07815c0.58186,0.26241 1.22077,0.39362 1.91672,0.39362zM90.31254,62.96889c-0.77582,0 -1.49459,-0.10269 -2.15632,-0.30805c-0.66173,-0.20536 -1.26071,-0.51341 -1.79693,-0.92414c-0.53623,-0.42214 -1.01541,-0.93554 -1.43755,-1.54022l1.506,-1.74558c0.67313,0.95836 1.31204,1.62009 1.91672,1.98518c0.61609,0.3651 1.34626,0.54764 2.19054,0.54764c0.51341,0 0.98118,-0.07985 1.40332,-0.23959c0.42214,-0.17114 0.753,-0.39932 0.9926,-0.68455c0.251,-0.28523 0.3765,-0.61038 0.3765,-0.97548c0,-0.23959 -0.03993,-0.46777 -0.11979,-0.68455c-0.07985,-0.22818 -0.20536,-0.42784 -0.3765,-0.59898c-0.17114,-0.18254 -0.3879,-0.34798 -0.65031,-0.49629c-0.26241,-0.14832 -0.57046,-0.27953 -0.92414,-0.39362c-0.35368,-0.11409 -0.7644,-0.21108 -1.23217,-0.29093c-0.73018,-0.15972 -1.36908,-0.35938 -1.91672,-0.59898c-0.54764,-0.251 -1.004,-0.55904 -1.36908,-0.92414c-0.3651,-0.3651 -0.63891,-0.78152 -0.82145,-1.24929c-0.18254,-0.46777 -0.27381,-0.9983 -0.27381,-1.59156c0,-0.57046 0.12551,-1.10098 0.3765,-1.59156c0.26241,-0.49059 0.61038,-0.91273 1.04393,-1.26641c0.44495,-0.3651 0.96406,-0.64461 1.55734,-0.83857c0.60468,-0.20536 1.25499,-0.30805 1.95096,-0.30805c0.74159,0 1.41472,0.09697 2.01941,0.29093c0.61609,0.19396 1.16372,0.47919 1.64291,0.85567c0.47919,0.3651 0.87279,0.82145 1.18084,1.36908l-1.55734,1.54022c-0.26241,-0.45636 -0.56474,-0.83286 -0.90703,-1.1295c-0.34227,-0.30805 -0.71877,-0.54193 -1.1295,-0.70167c-0.41072,-0.15972 -0.84427,-0.23959 -1.30063,-0.23959c-0.53623,0 -1.004,0.08557 -1.40332,0.25671c-0.3879,0.15972 -0.69595,0.3879 -0.92414,0.68455c-0.22818,0.28523 -0.34227,0.6275 -0.34227,1.02681c0,0.28523 0.05705,0.54764 0.17114,0.78722c0.11409,0.23959 0.27953,0.45065 0.49629,0.6332c0.22818,0.18254 0.53052,0.34798 0.90703,0.49629c0.3879,0.13691 0.84427,0.25671 1.36908,0.35938c0.753,0.17114 1.42043,0.3822 2.00229,0.6332c0.59328,0.251 1.08957,0.54764 1.48889,0.88991c0.41072,0.34227 0.71877,0.72448 0.92414,1.14662c0.21678,0.42214 0.32516,0.87851 0.32516,1.36908c0,0.91273 -0.21108,1.70565 -0.6332,2.37879c-0.42214,0.66173 -1.02111,1.17514 -1.79693,1.54022c-0.77582,0.35368 -1.69995,0.53052 -2.77241,0.53052zM104.36927,62.76353v-14.30698h1.98518l8.74506,11.70571l-0.32516,0.18824c-0.05705,-0.34227 -0.10839,-0.71307 -0.15402,-1.11239c-0.03423,-0.39932 -0.06845,-0.82716 -0.10269,-1.28353c-0.03423,-0.45636 -0.06275,-0.94124 -0.08557,-1.45465c-0.02282,-0.51341 -0.03993,-1.04963 -0.05134,-1.60868c-0.0114,-0.55904 -0.01712,-1.1352 -0.01712,-1.72848v-4.70624h2.20765v14.30698h-2.01941l-8.60815,-11.27787l0.22248,-0.29093c0.06845,0.83286 0.12551,1.54022 0.17114,2.12208c0.04564,0.58186 0.08557,1.07245 0.11979,1.47177c0.03423,0.39932 0.05705,0.72448 0.06845,0.97548c0.02282,0.251 0.03423,0.46207 0.03423,0.6332c0.0114,0.15972 0.01712,0.30233 0.01712,0.42784v5.93843zM125.0398,62.96889c-1.09527,0 -2.07075,-0.23388 -2.92642,-0.70167c-0.84427,-0.46777 -1.5117,-1.11239 -2.00229,-1.93384c-0.47919,-0.82145 -0.71877,-1.7627 -0.71877,-2.82375c0,-0.84427 0.13691,-1.61439 0.41072,-2.31034c0.27381,-0.69595 0.65031,-1.29493 1.1295,-1.79693c0.47919,-0.51341 1.05533,-0.90703 1.72848,-1.18084c0.68455,-0.28523 1.42043,-0.42784 2.20765,-0.42784c0.69595,0 1.34056,0.13121 1.93384,0.39362c0.60468,0.26241 1.12379,0.6275 1.55734,1.09527c0.44495,0.46777 0.78722,1.02111 1.02681,1.66003c0.23959,0.6275 0.35368,1.31204 0.34227,2.05363l-0.01712,0.90703h-8.76217l-0.47919,-1.67713h7.4102l-0.29093,0.34227v-0.47919c-0.04564,-0.45636 -0.19966,-0.86139 -0.46207,-1.21507c-0.251,-0.35368 -0.57616,-0.6332 -0.97548,-0.83857c-0.39932,-0.20536 -0.82716,-0.30805 -1.28353,-0.30805c-0.74159,0 -1.36338,0.14262 -1.86539,0.42784c-0.50201,0.27381 -0.88421,0.68455 -1.14662,1.23217c-0.251,0.53623 -0.3765,1.19796 -0.3765,1.98518c0,0.74159 0.15402,1.39191 0.46207,1.95096c0.30805,0.54764 0.74729,0.97548 1.31775,1.28353c0.58186,0.29663 1.24359,0.44495 1.98518,0.44495c0.53623,0 1.03253,-0.08557 1.48889,-0.25671c0.45636,-0.18254 0.95266,-0.50771 1.48889,-0.97548l1.06105,1.48889c-0.33087,0.33087 -0.73018,0.6218 -1.19796,0.87279c-0.46777,0.23959 -0.96406,0.43355 -1.48889,0.58186c-0.52481,0.13691 -1.04393,0.20536 -1.55734,0.20536zM134.44781,62.76353l-3.66232,-10.73023l2.12208,-0.01712l2.61839,8.02629l-0.46207,-0.03423l2.84087,-6.28069h1.26641l2.85797,6.29781l-0.54764,0.03423l2.63549,-8.02629h2.12208l-3.61097,10.73023h-1.45465l-2.99489,-6.82833l0.47919,0.06845l-2.77241,6.75988zM151.63374,62.96889c-0.90131,0 -1.71136,-0.15402 -2.43013,-0.46207c-0.71877,-0.31945 -1.31775,-0.78722 -1.79693,-1.40332l1.42043,-1.21507c0.41072,0.46777 0.85567,0.81005 1.33486,1.02681c0.49059,0.20536 1.04393,0.30805 1.66003,0.30805c0.23959,0 0.46207,-0.02852 0.66743,-0.08557c0.21678,-0.05705 0.40502,-0.14832 0.56474,-0.27381c0.15972,-0.12551 0.27953,-0.27381 0.35938,-0.44495c0.07985,-0.17114 0.11979,-0.35938 0.11979,-0.56474c0,-0.35368 -0.13121,-0.63891 -0.39362,-0.85567c-0.13691,-0.09127 -0.35368,-0.19396 -0.65031,-0.30805c-0.28523,-0.11409 -0.66173,-0.23388 -1.1295,-0.35938c-0.78722,-0.20536 -1.43183,-0.43355 -1.93384,-0.68455c-0.50201,-0.26241 -0.88991,-0.55904 -1.16372,-0.88991c-0.20536,-0.26241 -0.35938,-0.54193 -0.46207,-0.83857c-0.09127,-0.30805 -0.13691,-0.65031 -0.13691,-1.02681c0,-0.44495 0.09697,-0.85567 0.29093,-1.23217c0.20536,-0.3765 0.47919,-0.70167 0.82145,-0.97548c0.35368,-0.28523 0.7644,-0.50201 1.23217,-0.65031c0.46777,-0.14832 0.96976,-0.22248 1.506,-0.22248c0.50201,0 0.9983,0.06845 1.48889,0.20536c0.50201,0.13691 0.96406,0.33657 1.3862,0.59898c0.42214,0.251 0.77582,0.55334 1.06105,0.90703l-1.19796,1.33486c-0.26241,-0.26241 -0.54764,-0.49059 -0.85567,-0.68455c-0.30805,-0.19396 -0.6218,-0.34227 -0.94124,-0.44495c-0.30805,-0.11409 -0.58758,-0.17114 -0.83857,-0.17114c-0.28523,0 -0.54764,0.02852 -0.78722,0.08557c-0.22818,0.04564 -0.42214,0.12551 -0.58186,0.23959c-0.14832,0.10269 -0.26811,0.23959 -0.35938,0.41072c-0.07985,0.15972 -0.11979,0.34227 -0.11979,0.54764c0.0114,0.17114 0.05705,0.33657 0.13691,0.49629c0.07985,0.15972 0.18824,0.29093 0.32516,0.39362c0.14832,0.11409 0.3708,0.23388 0.66743,0.35938c0.29663,0.11409 0.67883,0.22818 1.14662,0.34227c0.67313,0.17114 1.23217,0.3651 1.67713,0.58186c0.44495,0.20536 0.79864,0.44495 1.06105,0.71877c0.27381,0.26241 0.46207,0.56474 0.56474,0.90703c0.11409,0.34227 0.17114,0.72448 0.17114,1.14662c0,0.60468 -0.17684,1.15232 -0.53052,1.64291c-0.34227,0.47919 -0.81005,0.85567 -1.40332,1.1295c-0.58186,0.27381 -1.23217,0.41072 -1.95096,0.41072z" fill="#ffffff" fill-rule="nonzero" stroke-linecap="square"/><path d="M203.34108,52.75678l-0.073,-1.51215l4.57818,-4.56775h1.76244zM202.22523,55.39524v-8.71835h1.3453v8.71835zM208.0027,55.39524l-3.33717,-4.45303l1.00115,-0.86558l4.01503,5.31861zM213.50119,55.52039c-0.66743,0 -1.26187,-0.14252 -1.7833,-0.42757c-0.51449,-0.28504 -0.9212,-0.67786 -1.22015,-1.17844c-0.292,-0.50058 -0.438,-1.07415 -0.438,-1.72073c0,-0.51447 0.08343,-0.98376 0.25029,-1.40787c0.16686,-0.42411 0.39629,-0.78911 0.68829,-1.09501c0.292,-0.31286 0.64311,-0.55272 1.0533,-0.71958c0.41715,-0.17382 0.86558,-0.26071 1.3453,-0.26071c0.42409,0 0.81692,0.07995 1.17844,0.23986c0.36848,0.15991 0.68481,0.38238 0.94901,0.66743c0.27115,0.28504 0.47972,0.62224 0.62572,1.01158c0.146,0.38238 0.21552,0.79954 0.20857,1.25144l-0.01043,0.55272h-5.33947l-0.292,-1.02201h4.51561l-0.17729,0.20857v-0.292c-0.02782,-0.27811 -0.12166,-0.52491 -0.28157,-0.74043c-0.15295,-0.21552 -0.35109,-0.38586 -0.59443,-0.511c-0.24334,-0.12514 -0.50406,-0.18772 -0.78215,-0.18772c-0.45191,0 -0.83081,0.08691 -1.13672,0.26072c-0.30591,0.16686 -0.53881,0.41715 -0.69872,0.75086c-0.15295,0.32677 -0.22943,0.73001 -0.22943,1.20972c0,0.45191 0.09386,0.8482 0.28158,1.18887c0.18772,0.33372 0.45538,0.59445 0.80301,0.78215c0.35457,0.18077 0.75781,0.27115 1.20972,0.27115c0.32677,0 0.6292,-0.05214 0.90729,-0.15643c0.27809,-0.11125 0.58052,-0.30938 0.90729,-0.59443l0.64658,0.90729c-0.20163,0.20161 -0.44495,0.37891 -0.73001,0.53186c-0.28506,0.146 -0.58747,0.26418 -0.90729,0.35457c-0.31981,0.08343 -0.63615,0.12514 -0.94901,0.12514zM220.79795,55.52039c-0.66743,0 -1.26187,-0.14252 -1.7833,-0.42757c-0.51449,-0.28504 -0.9212,-0.67786 -1.22015,-1.17844c-0.292,-0.50058 -0.438,-1.07415 -0.438,-1.72073c0,-0.51447 0.08343,-0.98376 0.25029,-1.40787c0.16686,-0.42411 0.39629,-0.78911 0.68829,-1.09501c0.292,-0.31286 0.64311,-0.55272 1.0533,-0.71958c0.41715,-0.17382 0.86558,-0.26071 1.3453,-0.26071c0.42409,0 0.81692,0.07995 1.17844,0.23986c0.36849,0.15991 0.68481,0.38238 0.94901,0.66743c0.27115,0.28504 0.47972,0.62224 0.62572,1.01158c0.146,0.38238 0.21552,0.79954 0.20857,1.25144l-0.01043,0.55272h-5.33947l-0.292,-1.02201h4.51561l-0.17729,0.20857v-0.292c-0.0278,-0.27811 -0.12166,-0.52491 -0.28157,-0.74043c-0.15295,-0.21552 -0.35109,-0.38586 -0.59443,-0.511c-0.24334,-0.12514 -0.50406,-0.18772 -0.78215,-0.18772c-0.45191,0 -0.83081,0.08691 -1.13672,0.26072c-0.30591,0.16686 -0.53881,0.41715 -0.69872,0.75086c-0.15295,0.32677 -0.22943,0.73001 -0.22943,1.20972c0,0.45191 0.09386,0.8482 0.28158,1.18887c0.18772,0.33372 0.45538,0.59445 0.80301,0.78215c0.35457,0.18077 0.75781,0.27115 1.20972,0.27115c0.32677,0 0.6292,-0.05214 0.90729,-0.15643c0.27809,-0.11125 0.58052,-0.30938 0.90729,-0.59443l0.64658,0.90729c-0.20163,0.20161 -0.44495,0.37891 -0.73001,0.53186c-0.28506,0.146 -0.58747,0.26418 -0.90729,0.35457c-0.31981,0.08343 -0.63615,0.12514 -0.94901,0.12514zM225.04955,58.13798v-9.2815h1.29315v1.4913l-0.19814,-0.10429c0.04866,-0.25029 0.18772,-0.49014 0.41715,-0.71958c0.23638,-0.22943 0.52143,-0.41715 0.85515,-0.56315c0.34068,-0.146 0.68829,-0.219 1.04287,-0.219c0.59097,0 1.1124,0.146 1.5643,0.438c0.45886,0.292 0.8204,0.69177 1.08458,1.1993c0.27115,0.50754 0.40672,1.08806 0.40672,1.74159c0,0.64658 -0.13209,1.2271 -0.39629,1.74159c-0.2642,0.50754 -0.62572,0.91077 -1.08458,1.20972c-0.45191,0.292 -0.96292,0.438 -1.53301,0.438c-0.38238,0 -0.75434,-0.07648 -1.11586,-0.22943c-0.35457,-0.15295 -0.657,-0.35109 -0.90729,-0.59443c-0.25029,-0.24334 -0.40325,-0.49363 -0.45886,-0.75086l0.32329,-0.16686v4.36961zM228.28243,54.32109c0.38238,0 0.72306,-0.09386 1.02201,-0.28157c0.29895,-0.19468 0.53534,-0.45538 0.70915,-0.78215c0.17382,-0.33372 0.26072,-0.71263 0.26072,-1.13672c0,-0.42411 -0.08691,-0.79954 -0.26071,-1.12629c-0.16686,-0.32677 -0.39977,-0.584 -0.69872,-0.77172c-0.292,-0.19468 -0.63615,-0.292 -1.03243,-0.292c-0.38934,0 -0.73349,0.09386 -1.03243,0.28158c-0.29895,0.18772 -0.53534,0.44843 -0.70915,0.78215c-0.17382,0.32677 -0.26071,0.7022 -0.26071,1.12629c0,0.42411 0.08691,0.80301 0.26072,1.13674c0.17382,0.32677 0.4102,0.58747 0.70915,0.78215c0.29895,0.18772 0.64311,0.28158 1.03244,0.28158zM236.60175,55.39524v-6.53876h1.28273v6.53878zM237.22747,47.41731c-0.27115,0 -0.4832,-0.06952 -0.63615,-0.20857c-0.146,-0.146 -0.219,-0.34761 -0.219,-0.60486c0,-0.24334 0.07648,-0.438 0.22943,-0.584c0.15295,-0.15295 0.36152,-0.22943 0.62572,-0.22943c0.27115,0 0.47972,0.073 0.62572,0.219c0.15295,0.13905 0.22943,0.3372 0.22943,0.59445c0,0.24334 -0.07648,0.44147 -0.22943,0.59445c-0.15295,0.146 -0.36152,0.219 -0.62572,0.219zM239.85477,55.39524v-6.53876h1.28273v1.3453l-0.22943,0.146c0.08343,-0.28504 0.24681,-0.54924 0.49015,-0.79258c0.24334,-0.25029 0.52838,-0.45191 0.85515,-0.60486c0.33372,-0.15295 0.67438,-0.22943 1.02201,-0.22943c0.50058,0 0.91424,0.09734 1.24101,0.292c0.33372,0.19468 0.584,0.49363 0.75086,0.89686c0.16686,0.39629 0.25029,0.89686 0.25029,1.50173v3.98375h-1.28272v-3.90032c0,-0.36848 -0.04866,-0.67438 -0.146,-0.91772c-0.09734,-0.25029 -0.25029,-0.43104 -0.45886,-0.54229c-0.20857,-0.11125 -0.46581,-0.15991 -0.77172,-0.146c-0.25029,0 -0.47972,0.04171 -0.68829,0.12514c-0.20857,0.07648 -0.38934,0.18772 -0.54229,0.33372c-0.15295,0.13905 -0.27463,0.30243 -0.365,0.49015c-0.08343,0.18077 -0.12514,0.37891 -0.12514,0.59445v3.96289h-0.63615c-0.10429,0 -0.21204,0 -0.32329,0c-0.11123,0 -0.219,0 -0.32329,0zM251.56355,55.39524v-8.20735h1.28273v8.20735zM250.1974,50.10792v-1.25144h4.16103v1.25144zM258.4102,55.52039c-0.63963,0 -1.21319,-0.146 -1.72073,-0.438c-0.50058,-0.29895 -0.89686,-0.7022 -1.18887,-1.20972c-0.28506,-0.51447 -0.42757,-1.09849 -0.42757,-1.75201c0,-0.65354 0.14252,-1.23406 0.42758,-1.74158c0.292,-0.51447 0.68829,-0.91772 1.18887,-1.20972c0.50752,-0.29895 1.0811,-0.44843 1.72073,-0.44843c0.62572,0 1.18887,0.14948 1.68944,0.44843c0.50752,0.292 0.90729,0.69524 1.1993,1.20972c0.292,0.50754 0.438,1.08806 0.438,1.74159c0,0.65354 -0.146,1.23753 -0.438,1.75201c-0.292,0.50754 -0.69177,0.91077 -1.19929,1.20972c-0.50058,0.292 -1.06372,0.438 -1.68944,0.438zM258.4102,54.35238c0.38934,0 0.73695,-0.09734 1.04287,-0.292c0.30591,-0.19468 0.54577,-0.45886 0.71958,-0.79258c0.17382,-0.34068 0.25723,-0.72306 0.25029,-1.14715c0.00695,-0.43104 -0.07648,-0.81344 -0.25029,-1.14715c-0.17382,-0.34068 -0.41368,-0.60486 -0.71958,-0.79258c-0.30591,-0.19468 -0.65354,-0.292 -1.04287,-0.292c-0.38934,0 -0.74043,0.09734 -1.05329,0.292c-0.31286,0.19468 -0.5562,0.46234 -0.73001,0.80301c-0.17382,0.33372 -0.25725,0.71263 -0.25029,1.13674c-0.00695,0.42411 0.07648,0.80647 0.25029,1.14715c0.17382,0.33372 0.41715,0.5979 0.73001,0.79258c0.31286,0.19468 0.66395,0.292 1.0533,0.292zM265.4215,55.52039c-0.46581,0 -0.87254,-0.10777 -1.22015,-0.32329c-0.34068,-0.21552 -0.60486,-0.51795 -0.79258,-0.90729c-0.18772,-0.38934 -0.28157,-0.85515 -0.28157,-1.39744v-4.03589h1.28273v3.69174c0,0.37543 0.05909,0.7022 0.17729,0.98029c0.12514,0.27811 0.29895,0.49363 0.52143,0.64658c0.22943,0.146 0.50754,0.219 0.83429,0.219c0.23638,0 0.45538,-0.03823 0.65701,-0.11471c0.20161,-0.07648 0.37543,-0.18425 0.52143,-0.32329c0.146,-0.146 0.25725,-0.31634 0.33372,-0.511c0.08343,-0.20161 0.12514,-0.42063 0.12514,-0.657v-3.9316h1.28273v6.53878h-1.28272v-1.36615l0.22943,-0.15643c-0.09734,0.31286 -0.2642,0.59445 -0.50058,0.84472c-0.23638,0.24334 -0.51795,0.438 -0.84472,0.584c-0.32677,0.146 -0.67438,0.219 -1.04287,0.219zM273.43457,55.52039c-0.60486,0 -1.14715,-0.14948 -1.62687,-0.44843c-0.47277,-0.29895 -0.8482,-0.70567 -1.12629,-1.22015c-0.27811,-0.51447 -0.41715,-1.09153 -0.41715,-1.73116c0,-0.63963 0.13905,-1.21667 0.41715,-1.73116c0.27809,-0.51447 0.65352,-0.9212 1.12629,-1.22015c0.47972,-0.29895 1.02201,-0.44843 1.62687,-0.44843c0.584,0 1.1124,0.11818 1.58516,0.35457c0.47972,0.23638 0.84472,0.55968 1.09501,0.96987l-0.70915,0.86558c-0.13209,-0.18772 -0.30243,-0.36152 -0.511,-0.52143c-0.20857,-0.15991 -0.43104,-0.28504 -0.66743,-0.37543c-0.22943,-0.09038 -0.45191,-0.13557 -0.66743,-0.13557c-0.39629,0 -0.75086,0.09734 -1.06372,0.292c-0.31286,0.19468 -0.55968,0.46234 -0.74043,0.80301c-0.18077,0.34068 -0.27115,0.72306 -0.27115,1.14715c0,0.42411 0.09386,0.80647 0.28158,1.14715c0.19466,0.33372 0.44843,0.60138 0.76129,0.80301c0.31286,0.19468 0.66047,0.292 1.04287,0.292c0.22943,0 0.44843,-0.03823 0.65701,-0.11471c0.20857,-0.07648 0.41368,-0.18772 0.61529,-0.33372c0.20161,-0.15295 0.38934,-0.3372 0.56315,-0.55272l0.70915,0.87601c-0.26418,0.37543 -0.64311,0.68481 -1.13672,0.92815c-0.49363,0.23638 -1.0081,0.35457 -1.54344,0.35457zM277.32226,55.39524v-9.21893h1.28273v4.02546l-0.22943,0.146c0.08343,-0.28504 0.24681,-0.54924 0.49015,-0.79258c0.24334,-0.25029 0.52838,-0.45191 0.85515,-0.60486c0.33372,-0.15295 0.67438,-0.22943 1.02201,-0.22943c0.50058,0 0.91424,0.09734 1.24101,0.292c0.33372,0.19468 0.584,0.49363 0.75086,0.89686c0.16686,0.39629 0.25029,0.89686 0.25029,1.50173v3.98375h-1.28272v-3.90032c0,-0.36848 -0.04866,-0.67438 -0.146,-0.91772c-0.09734,-0.25029 -0.25029,-0.43104 -0.45886,-0.54229c-0.20857,-0.11125 -0.46581,-0.15991 -0.77172,-0.146c-0.25029,0 -0.47972,0.04171 -0.68829,0.12514c-0.20857,0.07648 -0.38934,0.18772 -0.54229,0.33372c-0.15295,0.13905 -0.27463,0.30243 -0.365,0.49015c-0.08343,0.18077 -0.12514,0.37891 -0.12514,0.59445v3.96289h-0.63615c-0.10429,0 -0.21204,0 -0.32329,0c-0.11125,0 -0.219,0 -0.32329,0zM289.82362,55.39524l-2.23173,-6.53876l1.29315,-0.01043l1.5956,4.89104l-0.28157,-0.02086l1.73116,-3.82731h0.77172l1.74159,3.83774l-0.33372,0.02086l1.60601,-4.89104h1.29315l-2.20044,6.53878h-0.88643l-1.82501,-4.16103l0.292,0.04171l-1.68944,4.11932zM298.38764,55.39524v-6.53876h1.28273v6.53878zM299.01336,47.41731c-0.27115,0 -0.4832,-0.06952 -0.63615,-0.20857c-0.146,-0.146 -0.219,-0.34761 -0.219,-0.60486c0,-0.24334 0.07648,-0.438 0.22943,-0.584c0.15295,-0.15295 0.36152,-0.22943 0.62572,-0.22943c0.27115,0 0.47972,0.073 0.62572,0.219c0.15295,0.13905 0.22943,0.3372 0.22943,0.59445c0,0.24334 -0.07648,0.44147 -0.22943,0.59445c-0.15295,0.146 -0.36152,0.219 -0.62572,0.219zM302.4541,55.39524v-8.20735h1.28273v8.20735zM301.08795,50.10792v-1.25144h4.16103v1.25144zM306.42217,55.39524v-9.21893h1.28273v4.02546l-0.22943,0.146c0.08343,-0.28504 0.24681,-0.54924 0.49015,-0.79258c0.24334,-0.25029 0.52838,-0.45191 0.85515,-0.60486c0.33372,-0.15295 0.67438,-0.22943 1.02201,-0.22943c0.50058,0 0.91424,0.09734 1.24101,0.292c0.33372,0.19468 0.584,0.49363 0.75086,0.89686c0.16686,0.39629 0.25029,0.89686 0.25029,1.50173v3.98375h-1.28272v-3.90032c0,-0.36848 -0.04866,-0.67438 -0.146,-0.91772c-0.09734,-0.25029 -0.25029,-0.43104 -0.45886,-0.54229c-0.20857,-0.11125 -0.46581,-0.15991 -0.77172,-0.146c-0.25029,0 -0.47972,0.04171 -0.68829,0.12514c-0.20857,0.07648 -0.38934,0.18772 -0.54229,0.33372c-0.15295,0.13905 -0.27463,0.30243 -0.365,0.49015c-0.08343,0.18077 -0.12514,0.37891 -0.12514,0.59445v3.96289h-0.63615c-0.10429,0 -0.21204,0 -0.32329,0c-0.11125,0 -0.219,0 -0.32329,0zM318.13095,55.39524v-8.20735h1.28273v8.20735zM316.76478,50.10792v-1.25144h4.16103v1.25144zM322.09901,55.39524v-9.21893h1.28273v4.02546l-0.22943,0.146c0.08343,-0.28504 0.24681,-0.54924 0.49015,-0.79258c0.24334,-0.25029 0.52838,-0.45191 0.85515,-0.60486c0.33372,-0.15295 0.67438,-0.22943 1.02201,-0.22943c0.50058,0 0.91424,0.09734 1.24101,0.292c0.33372,0.19468 0.584,0.49363 0.75086,0.89686c0.16686,0.39629 0.25029,0.89686 0.25029,1.50173v3.98375h-1.28272v-3.90032c0,-0.36848 -0.04866,-0.67438 -0.146,-0.91772c-0.09734,-0.25029 -0.25029,-0.43104 -0.45886,-0.54229c-0.20857,-0.11125 -0.46581,-0.15991 -0.77172,-0.146c-0.25029,0 -0.47972,0.04171 -0.68829,0.12514c-0.20857,0.07648 -0.38934,0.18772 -0.54229,0.33372c-0.15295,0.13905 -0.27463,0.30243 -0.365,0.49015c-0.08343,0.18077 -0.12514,0.37891 -0.12514,0.59445v3.96289h-0.63615c-0.10429,0 -0.21204,0 -0.32329,0c-0.11125,0 -0.219,0 -0.32329,0zM332.553,55.52039c-0.66743,0 -1.26187,-0.14252 -1.7833,-0.42757c-0.51449,-0.28504 -0.9212,-0.67786 -1.22015,-1.17844c-0.292,-0.50058 -0.438,-1.07415 -0.438,-1.72073c0,-0.51447 0.08343,-0.98376 0.25029,-1.40787c0.16686,-0.42411 0.39629,-0.78911 0.68829,-1.09501c0.292,-0.31286 0.64311,-0.55272 1.0533,-0.71958c0.41715,-0.17382 0.86558,-0.26071 1.3453,-0.26071c0.42409,0 0.81692,0.07995 1.17844,0.23986c0.36848,0.15991 0.68481,0.38238 0.94901,0.66743c0.27115,0.28504 0.47972,0.62224 0.62572,1.01158c0.146,0.38238 0.21552,0.79954 0.20857,1.25144l-0.01043,0.55272h-5.33947l-0.292,-1.02201h4.51561l-0.17729,0.20857v-0.292c-0.02782,-0.27811 -0.12166,-0.52491 -0.28157,-0.74043c-0.15295,-0.21552 -0.35109,-0.38586 -0.59443,-0.511c-0.24334,-0.12514 -0.50406,-0.18772 -0.78215,-0.18772c-0.45191,0 -0.83081,0.08691 -1.13672,0.26072c-0.30591,0.16686 -0.53881,0.41715 -0.69872,0.75086c-0.15295,0.32677 -0.22943,0.73001 -0.22943,1.20972c0,0.45191 0.09386,0.8482 0.28158,1.18887c0.18772,0.33372 0.45538,0.59445 0.80301,0.78215c0.35457,0.18077 0.75781,0.27115 1.20972,0.27115c0.32677,0 0.6292,-0.05214 0.90729,-0.15643c0.27809,-0.11125 0.58052,-0.30938 0.90729,-0.59443l0.64658,0.90729c-0.20163,0.20161 -0.44495,0.37891 -0.73001,0.53186c-0.28506,0.146 -0.58747,0.26418 -0.90729,0.35457c-0.31981,0.08343 -0.63615,0.12514 -0.94901,0.12514z" fill="#ffffff" fill-rule="nonzero" stroke-linecap="square"/><path d="M201.92278,70.34576v-9.21893h1.28273v9.21893zM207.41606,70.47091c-0.53534,0 -1.02549,-0.14948 -1.47044,-0.44843c-0.44495,-0.29895 -0.803,-0.70567 -1.07415,-1.22015c-0.26418,-0.51449 -0.39629,-1.09501 -0.39629,-1.74158c0,-0.66049 0.13557,-1.24449 0.40672,-1.75201c0.27115,-0.50752 0.63615,-0.90729 1.09501,-1.19929c0.46581,-0.292 0.98376,-0.438 1.55387,-0.438c0.34066,0 0.65006,0.05215 0.92815,0.15643c0.28506,0.09734 0.53186,0.23638 0.74044,0.41715c0.21552,0.17382 0.38934,0.37891 0.52143,0.61529c0.13905,0.22943 0.22595,0.47624 0.26072,0.74044l-0.28157,-0.09386v-1.69987h1.29315v6.53878h-1.29315v-1.55387l0.292,-0.09386c-0.04866,0.22943 -0.14948,0.45191 -0.30243,0.66743c-0.15295,0.20857 -0.34763,0.39629 -0.584,0.56315c-0.23638,0.15991 -0.49711,0.292 -0.78215,0.39629c-0.28506,0.09734 -0.58747,0.146 -0.90729,0.146zM207.74978,69.29247c0.39629,0 0.74044,-0.09386 1.03244,-0.28157c0.29895,-0.19466 0.53186,-0.45886 0.69872,-0.79258c0.17382,-0.34066 0.26072,-0.72654 0.26072,-1.15758c0,-0.42409 -0.08691,-0.803 -0.26071,-1.13672c-0.16686,-0.33372 -0.39977,-0.59443 -0.69872,-0.78215c-0.292,-0.19466 -0.63615,-0.292 -1.03243,-0.292c-0.38238,0 -0.71958,0.09734 -1.01158,0.292c-0.292,0.18772 -0.52491,0.44843 -0.69872,0.78215c-0.16686,0.33372 -0.25029,0.71263 -0.25029,1.13674c0,0.43106 0.08343,0.81692 0.25029,1.15758c0.17382,0.33372 0.40672,0.59792 0.69872,0.79258c0.292,0.18772 0.6292,0.28158 1.01158,0.28158zM213.5982,70.34576v-8.20735h1.28273v8.20735zM212.23203,65.05843v-1.25144h4.16103v1.25144zM220.54912,70.47091c-0.66743,0 -1.26187,-0.14252 -1.7833,-0.42757c-0.51449,-0.28506 -0.9212,-0.67786 -1.22015,-1.17844c-0.292,-0.50058 -0.438,-1.07415 -0.438,-1.72073c0,-0.51449 0.08343,-0.98376 0.25029,-1.40787c0.16686,-0.42409 0.39629,-0.78911 0.68829,-1.09501c0.292,-0.31286 0.64311,-0.55272 1.0533,-0.71958c0.41715,-0.17382 0.86558,-0.26071 1.3453,-0.26071c0.42409,0 0.81692,0.07995 1.17844,0.23986c0.36849,0.15991 0.68481,0.38238 0.94901,0.66743c0.27115,0.28506 0.47972,0.62224 0.62572,1.01158c0.146,0.38238 0.21552,0.79952 0.20857,1.25144l-0.01043,0.55272h-5.33947l-0.292,-1.02201h4.51561l-0.17729,0.20857v-0.292c-0.0278,-0.27809 -0.12166,-0.52491 -0.28157,-0.74043c-0.15295,-0.21552 -0.35109,-0.38586 -0.59443,-0.511c-0.24334,-0.12514 -0.50406,-0.18772 -0.78215,-0.18772c-0.45191,0 -0.83081,0.08691 -1.13672,0.26072c-0.30591,0.16686 -0.53881,0.41715 -0.69872,0.75086c-0.15295,0.32677 -0.22943,0.73001 -0.22943,1.20972c0,0.45191 0.09386,0.8482 0.28158,1.18887c0.18772,0.33372 0.45538,0.59445 0.80301,0.78215c0.35457,0.18077 0.75781,0.27115 1.20972,0.27115c0.32677,0 0.6292,-0.05214 0.90729,-0.15643c0.27809,-0.11123 0.58052,-0.30938 0.90729,-0.59443l0.64658,0.90729c-0.20163,0.20163 -0.44495,0.37891 -0.73001,0.53186c-0.28506,0.146 -0.58747,0.2642 -0.90729,0.35457c-0.31981,0.08343 -0.63615,0.12514 -0.94901,0.12514zM226.98031,70.47091c-0.54924,0 -1.04287,-0.09386 -1.48087,-0.28157c-0.438,-0.19466 -0.803,-0.47972 -1.09501,-0.85515l0.86558,-0.74043c0.25029,0.28506 0.52143,0.49363 0.81344,0.62572c0.29895,0.12514 0.63615,0.18772 1.01158,0.18772c0.146,0 0.28158,-0.01738 0.40672,-0.05214c0.13209,-0.03477 0.24681,-0.09038 0.34415,-0.16686c0.09734,-0.07648 0.17034,-0.16686 0.219,-0.27115c0.04866,-0.10429 0.073,-0.219 0.073,-0.34414c0,-0.21552 -0.07995,-0.38934 -0.23986,-0.52143c-0.08343,-0.05563 -0.21552,-0.1182 -0.39629,-0.18772c-0.17382,-0.06952 -0.40325,-0.14252 -0.68829,-0.219c-0.47972,-0.12514 -0.87254,-0.2642 -1.17844,-0.41715c-0.30591,-0.15991 -0.54229,-0.34066 -0.70915,-0.54229c-0.12514,-0.15991 -0.219,-0.33025 -0.28157,-0.511c-0.05563,-0.18772 -0.08343,-0.39629 -0.08343,-0.62572c0,-0.27115 0.05909,-0.52143 0.17729,-0.75086c0.12514,-0.22943 0.292,-0.42757 0.50058,-0.59443c0.21552,-0.17382 0.46581,-0.30591 0.75086,-0.39629c0.28506,-0.09038 0.59095,-0.13557 0.91772,-0.13557c0.30591,0 0.60834,0.04171 0.90729,0.12514c0.30591,0.08343 0.58747,0.20509 0.84472,0.365c0.25723,0.15295 0.47277,0.3372 0.64658,0.55272l-0.73001,0.81344c-0.15991,-0.15991 -0.33372,-0.29895 -0.52143,-0.41715c-0.18772,-0.1182 -0.37891,-0.20857 -0.57357,-0.27115c-0.18772,-0.06952 -0.35804,-0.10429 -0.511,-0.10429c-0.17382,0 -0.33372,0.01738 -0.47972,0.05215c-0.13905,0.0278 -0.25723,0.07648 -0.35457,0.146c-0.09038,0.06257 -0.16338,0.146 -0.219,0.25029c-0.04866,0.09734 -0.073,0.20857 -0.073,0.33372c0.00695,0.10429 0.03477,0.20509 0.08343,0.30243c0.04866,0.09734 0.11472,0.17729 0.19815,0.23986c0.09038,0.06952 0.22595,0.14252 0.40672,0.219c0.18077,0.06952 0.41368,0.13905 0.69872,0.20857c0.4102,0.10429 0.75086,0.22248 1.02201,0.35457c0.27115,0.12514 0.48666,0.27115 0.64658,0.438c0.16686,0.15991 0.28158,0.34415 0.34415,0.55272c0.06952,0.20857 0.10429,0.44147 0.10429,0.69872c0,0.36849 -0.10777,0.7022 -0.32329,1.00115c-0.20857,0.292 -0.49363,0.52143 -0.85515,0.68829c-0.35457,0.16686 -0.75086,0.25029 -1.18887,0.25029zM231.57858,70.34576v-8.20735h1.28273v8.20735zM230.21243,65.05843v-1.25144h4.16103v1.25144zM241.54646,70.47091c-0.53534,0 -1.02549,-0.14948 -1.47044,-0.44843c-0.44495,-0.29895 -0.803,-0.70567 -1.07415,-1.22015c-0.2642,-0.51449 -0.39629,-1.09501 -0.39629,-1.74158c0,-0.66049 0.13557,-1.24449 0.40672,-1.75201c0.27115,-0.50752 0.63615,-0.90729 1.09501,-1.19929c0.46581,-0.292 0.98376,-0.438 1.55387,-0.438c0.34066,0 0.65006,0.05215 0.92815,0.15643c0.28506,0.09734 0.53186,0.23638 0.74044,0.41715c0.21552,0.17382 0.38934,0.37891 0.52143,0.61529c0.13905,0.22943 0.22595,0.47624 0.26072,0.74044l-0.28157,-0.09386v-1.69987h1.29315v6.53878h-1.29315v-1.55387l0.292,-0.09386c-0.04866,0.22943 -0.14948,0.45191 -0.30243,0.66743c-0.15295,0.20857 -0.34763,0.39629 -0.584,0.56315c-0.23638,0.15991 -0.49711,0.292 -0.78215,0.39629c-0.28506,0.09734 -0.58747,0.146 -0.90729,0.146zM241.88018,69.29247c0.39629,0 0.74044,-0.09386 1.03244,-0.28157c0.29895,-0.19466 0.53186,-0.45886 0.69872,-0.79258c0.17382,-0.34066 0.26072,-0.72654 0.26072,-1.15758c0,-0.42409 -0.08691,-0.803 -0.26071,-1.13672c-0.16686,-0.33372 -0.39977,-0.59443 -0.69872,-0.78215c-0.292,-0.19466 -0.63615,-0.292 -1.03243,-0.292c-0.38238,0 -0.71958,0.09734 -1.01158,0.292c-0.292,0.18772 -0.52491,0.44843 -0.69872,0.78215c-0.16686,0.33372 -0.25029,0.71263 -0.25029,1.13674c0,0.43106 0.08343,0.81692 0.25029,1.15758c0.17382,0.33372 0.40672,0.59792 0.69872,0.79258c0.292,0.18772 0.6292,0.28158 1.01158,0.28158zM246.91517,70.34576v-6.53876h1.28273v1.3453l-0.22943,0.146c0.08343,-0.28506 0.24681,-0.54924 0.49015,-0.79258c0.24334,-0.25029 0.52838,-0.45191 0.85515,-0.60486c0.33372,-0.15295 0.67438,-0.22943 1.02201,-0.22943c0.50058,0 0.91424,0.09734 1.24101,0.292c0.33372,0.19466 0.584,0.49363 0.75086,0.89686c0.16686,0.39629 0.25029,0.89686 0.25029,1.50173v3.98375h-1.28272v-3.90032c0,-0.36849 -0.04866,-0.67438 -0.146,-0.91772c-0.09734,-0.25029 -0.25029,-0.43106 -0.45886,-0.54229c-0.20857,-0.11123 -0.46581,-0.15991 -0.77172,-0.146c-0.25029,0 -0.47972,0.04171 -0.68829,0.12514c-0.20857,0.07648 -0.38934,0.18772 -0.54229,0.33372c-0.15295,0.13905 -0.27463,0.30243 -0.365,0.49015c-0.08343,0.18077 -0.12514,0.37891 -0.12514,0.59445v3.96289h-0.63615c-0.10429,0 -0.21204,0 -0.32329,0c-0.11125,0 -0.219,0 -0.32329,0zM254.32399,70.34576v-6.53876h1.28273v1.3453l-0.22943,0.146c0.08343,-0.28506 0.24681,-0.54924 0.49015,-0.79258c0.24334,-0.25029 0.52838,-0.45191 0.85515,-0.60486c0.33372,-0.15295 0.67438,-0.22943 1.02201,-0.22943c0.50058,0 0.91424,0.09734 1.24101,0.292c0.33372,0.19466 0.584,0.49363 0.75086,0.89686c0.16686,0.39629 0.25029,0.89686 0.25029,1.50173v3.98375h-1.28272v-3.90032c0,-0.36849 -0.04866,-0.67438 -0.146,-0.91772c-0.09734,-0.25029 -0.25029,-0.43106 -0.45886,-0.54229c-0.20857,-0.11123 -0.46581,-0.15991 -0.77172,-0.146c-0.25029,0 -0.47972,0.04171 -0.68829,0.12514c-0.20857,0.07648 -0.38934,0.18772 -0.54229,0.33372c-0.15295,0.13905 -0.27463,0.30243 -0.365,0.49015c-0.08343,0.18077 -0.12514,0.37891 -0.12514,0.59445v3.96289h-0.63615c-0.10429,0 -0.21204,0 -0.32329,0c-0.11123,0 -0.219,0 -0.32329,0zM264.6737,70.47091c-0.63963,0 -1.21319,-0.146 -1.72073,-0.438c-0.50058,-0.29895 -0.89686,-0.7022 -1.18887,-1.20972c-0.28504,-0.51449 -0.42757,-1.09849 -0.42757,-1.75201c0,-0.65352 0.14252,-1.23406 0.42758,-1.74158c0.292,-0.51449 0.68829,-0.91772 1.18887,-1.20972c0.50754,-0.29895 1.0811,-0.44843 1.72073,-0.44843c0.62572,0 1.18887,0.14948 1.68944,0.44843c0.50754,0.292 0.90729,0.69524 1.1993,1.20972c0.292,0.50752 0.438,1.08806 0.438,1.74159c0,0.65352 -0.146,1.23753 -0.438,1.75201c-0.292,0.50752 -0.69177,0.91078 -1.19929,1.20972c-0.50058,0.292 -1.06372,0.438 -1.68944,0.438zM264.6737,69.3029c0.38934,0 0.73697,-0.09734 1.04287,-0.292c0.30591,-0.19466 0.54577,-0.45886 0.71958,-0.79258c0.17382,-0.34066 0.25725,-0.72306 0.25029,-1.14715c0.00695,-0.43106 -0.07648,-0.81344 -0.25029,-1.14715c-0.17382,-0.34066 -0.41368,-0.60486 -0.71958,-0.79258c-0.30591,-0.19466 -0.65354,-0.292 -1.04287,-0.292c-0.38934,0 -0.74043,0.09734 -1.05329,0.292c-0.31286,0.19466 -0.5562,0.46234 -0.73001,0.80301c-0.17382,0.33372 -0.25725,0.71263 -0.25029,1.13674c-0.00695,0.42409 0.07648,0.80649 0.25029,1.14715c0.17382,0.33372 0.41715,0.59792 0.73001,0.79258c0.31286,0.19466 0.66395,0.292 1.0533,0.292zM271.685,70.47091c-0.46581,0 -0.87254,-0.10777 -1.22015,-0.32329c-0.34066,-0.21552 -0.60486,-0.51795 -0.79258,-0.90729c-0.18772,-0.38934 -0.28157,-0.85515 -0.28157,-1.39744v-4.03589h1.28273v3.69174c0,0.37543 0.05909,0.7022 0.17729,0.98029c0.12514,0.27809 0.29895,0.49363 0.52143,0.64658c0.22943,0.146 0.50752,0.219 0.83429,0.219c0.23638,0 0.45538,-0.03823 0.65701,-0.11471c0.20163,-0.07648 0.37543,-0.18425 0.52143,-0.32329c0.146,-0.146 0.25723,-0.31634 0.33372,-0.511c0.08343,-0.20163 0.12514,-0.42063 0.12514,-0.657v-3.9316h1.28273v6.53878h-1.28272v-1.36615l0.22943,-0.15643c-0.09734,0.31286 -0.2642,0.59445 -0.50058,0.84472c-0.23638,0.24334 -0.51795,0.438 -0.84472,0.584c-0.32677,0.146 -0.67438,0.219 -1.04287,0.219zM276.92404,70.34576v-6.53876h1.28273v1.3453l-0.22943,0.146c0.08343,-0.28506 0.24681,-0.54924 0.49015,-0.79258c0.24334,-0.25029 0.52838,-0.45191 0.85515,-0.60486c0.33372,-0.15295 0.67438,-0.22943 1.02201,-0.22943c0.50058,0 0.91424,0.09734 1.24101,0.292c0.33372,0.19466 0.584,0.49363 0.75086,0.89686c0.16686,0.39629 0.25029,0.89686 0.25029,1.50173v3.98375h-1.28272v-3.90032c0,-0.36849 -0.04866,-0.67438 -0.146,-0.91772c-0.09734,-0.25029 -0.25029,-0.43106 -0.45886,-0.54229c-0.20857,-0.11123 -0.46581,-0.15991 -0.77172,-0.146c-0.25029,0 -0.47972,0.04171 -0.68829,0.12514c-0.20857,0.07648 -0.38934,0.18772 -0.54229,0.33372c-0.15295,0.13905 -0.27463,0.30243 -0.365,0.49015c-0.08343,0.18077 -0.12514,0.37891 -0.12514,0.59445v3.96289h-0.63615c-0.10429,0 -0.21204,0 -0.32329,0c-0.11125,0 -0.219,0 -0.32329,0zM287.10688,70.47091c-0.60486,0 -1.14715,-0.14948 -1.62687,-0.44843c-0.47277,-0.29895 -0.8482,-0.70567 -1.12629,-1.22015c-0.27809,-0.51449 -0.41715,-1.09153 -0.41715,-1.73116c0,-0.63963 0.13905,-1.21667 0.41715,-1.73116c0.27811,-0.51449 0.65354,-0.9212 1.12629,-1.22015c0.47972,-0.29895 1.02201,-0.44843 1.62687,-0.44843c0.584,0 1.1124,0.1182 1.58516,0.35457c0.47972,0.23638 0.84472,0.55968 1.09501,0.96987l-0.70915,0.86558c-0.13209,-0.18772 -0.30243,-0.36152 -0.511,-0.52143c-0.20857,-0.15991 -0.43104,-0.28506 -0.66743,-0.37543c-0.22943,-0.09038 -0.45191,-0.13557 -0.66743,-0.13557c-0.39629,0 -0.75086,0.09734 -1.06372,0.292c-0.31286,0.19466 -0.55968,0.46234 -0.74043,0.80301c-0.18077,0.34066 -0.27115,0.72306 -0.27115,1.14715c0,0.42409 0.09386,0.80649 0.28158,1.14715c0.19468,0.33372 0.44843,0.60138 0.76129,0.80301c0.31286,0.19466 0.66049,0.292 1.04287,0.292c0.22943,0 0.44843,-0.03823 0.65701,-0.11471c0.20857,-0.07648 0.41368,-0.18772 0.61529,-0.33372c0.20163,-0.15295 0.38934,-0.3372 0.56315,-0.55272l0.70915,0.87601c-0.26418,0.37543 -0.64311,0.68481 -1.13672,0.92815c-0.49363,0.23638 -1.0081,0.35457 -1.54344,0.35457zM294.03976,70.47091c-0.66743,0 -1.26187,-0.14252 -1.7833,-0.42757c-0.51447,-0.28506 -0.9212,-0.67786 -1.22015,-1.17844c-0.292,-0.50058 -0.438,-1.07415 -0.438,-1.72073c0,-0.51449 0.08343,-0.98376 0.25029,-1.40787c0.16686,-0.42409 0.39629,-0.78911 0.68829,-1.09501c0.292,-0.31286 0.64311,-0.55272 1.0533,-0.71958c0.41715,-0.17382 0.86558,-0.26071 1.3453,-0.26071c0.42411,0 0.81692,0.07995 1.17844,0.23986c0.36849,0.15991 0.68481,0.38238 0.94901,0.66743c0.27115,0.28506 0.47972,0.62224 0.62572,1.01158c0.146,0.38238 0.21552,0.79952 0.20857,1.25144l-0.01043,0.55272h-5.33947l-0.292,-1.02201h4.51561l-0.17729,0.20857v-0.292c-0.0278,-0.27809 -0.12166,-0.52491 -0.28157,-0.74043c-0.15295,-0.21552 -0.35109,-0.38586 -0.59443,-0.511c-0.24334,-0.12514 -0.50406,-0.18772 -0.78215,-0.18772c-0.45191,0 -0.83081,0.08691 -1.13672,0.26072c-0.30591,0.16686 -0.53881,0.41715 -0.69872,0.75086c-0.15295,0.32677 -0.22943,0.73001 -0.22943,1.20972c0,0.45191 0.09386,0.8482 0.28158,1.18887c0.18772,0.33372 0.45538,0.59445 0.80301,0.78215c0.35457,0.18077 0.75781,0.27115 1.20972,0.27115c0.32677,0 0.6292,-0.05214 0.90729,-0.15643c0.27811,-0.11123 0.58052,-0.30938 0.90729,-0.59443l0.64658,0.90729c-0.20161,0.20163 -0.44495,0.37891 -0.73001,0.53186c-0.28504,0.146 -0.58747,0.2642 -0.90729,0.35457c-0.31981,0.08343 -0.63615,0.12514 -0.94901,0.12514zM298.2705,70.34576v-6.53876h1.29315v1.39744l-0.23986,0.146c0.06952,-0.21552 0.17382,-0.42063 0.31286,-0.61529c0.146,-0.20163 0.32329,-0.37891 0.53186,-0.53186c0.21552,-0.15295 0.44495,-0.27463 0.68829,-0.365c0.25029,-0.09734 0.50406,-0.146 0.76129,-0.146c0.36848,0 0.69524,0.06257 0.98029,0.18772c0.28504,0.12514 0.51795,0.31286 0.69872,0.56315c0.18077,0.25029 0.31286,0.56315 0.39629,0.93858l-0.19814,-0.05214l0.08343,-0.20857c0.09734,-0.19466 0.22595,-0.37543 0.38586,-0.54229c0.15991,-0.17382 0.34415,-0.32677 0.55272,-0.45886c0.20857,-0.13209 0.42758,-0.23638 0.65701,-0.31286c0.23638,-0.07648 0.46581,-0.11471 0.68829,-0.11471c0.48666,0 0.8899,0.10082 1.20972,0.30243c0.31981,0.20163 0.55968,0.50752 0.71958,0.91772c0.16686,0.40325 0.25029,0.90729 0.25029,1.51216v3.92117h-1.29315v-3.84817c0,-0.37543 -0.04866,-0.68134 -0.146,-0.91772c-0.09734,-0.23638 -0.24334,-0.4102 -0.438,-0.52143c-0.18772,-0.1182 -0.43106,-0.17729 -0.73001,-0.17729c-0.22943,0 -0.44843,0.04171 -0.657,0.12514c-0.20163,0.07648 -0.37891,0.18425 -0.53186,0.32329c-0.146,0.13905 -0.26071,0.30243 -0.34414,0.49015c-0.07648,0.18772 -0.11471,0.39281 -0.11471,0.61529v3.91076h-1.30358v-3.86903c0,-0.34066 -0.04866,-0.6292 -0.146,-0.86558c-0.09734,-0.23638 -0.24334,-0.41715 -0.438,-0.54229c-0.18772,-0.12514 -0.42063,-0.18772 -0.69872,-0.18772c-0.22943,0 -0.44495,0.04171 -0.64658,0.12514c-0.19468,0.07648 -0.36849,0.18425 -0.52143,0.32329c-0.146,0.13209 -0.26071,0.292 -0.34414,0.47972c-0.08343,0.18772 -0.12514,0.38934 -0.12514,0.60486v3.9316zM312.80466,70.47091c-0.66743,0 -1.26187,-0.14252 -1.7833,-0.42757c-0.51447,-0.28506 -0.9212,-0.67786 -1.22015,-1.17844c-0.292,-0.50058 -0.438,-1.07415 -0.438,-1.72073c0,-0.51449 0.08343,-0.98376 0.25029,-1.40787c0.16686,-0.42409 0.39629,-0.78911 0.68829,-1.09501c0.292,-0.31286 0.64311,-0.55272 1.0533,-0.71958c0.41715,-0.17382 0.86558,-0.26071 1.3453,-0.26071c0.42411,0 0.81692,0.07995 1.17844,0.23986c0.36849,0.15991 0.68481,0.38238 0.94901,0.66743c0.27115,0.28506 0.47972,0.62224 0.62572,1.01158c0.146,0.38238 0.21552,0.79952 0.20857,1.25144l-0.01043,0.55272h-5.33947l-0.292,-1.02201h4.51561l-0.17729,0.20857v-0.292c-0.0278,-0.27809 -0.12166,-0.52491 -0.28157,-0.74043c-0.15295,-0.21552 -0.35109,-0.38586 -0.59443,-0.511c-0.24334,-0.12514 -0.50406,-0.18772 -0.78215,-0.18772c-0.45191,0 -0.83081,0.08691 -1.13672,0.26072c-0.30591,0.16686 -0.53881,0.41715 -0.69872,0.75086c-0.15295,0.32677 -0.22943,0.73001 -0.22943,1.20972c0,0.45191 0.09386,0.8482 0.28158,1.18887c0.18772,0.33372 0.45538,0.59445 0.80301,0.78215c0.35457,0.18077 0.75781,0.27115 1.20972,0.27115c0.32677,0 0.6292,-0.05214 0.90729,-0.15643c0.27811,-0.11123 0.58052,-0.30938 0.90729,-0.59443l0.64658,0.90729c-0.20161,0.20163 -0.44495,0.37891 -0.73001,0.53186c-0.28504,0.146 -0.58747,0.2642 -0.90729,0.35457c-0.31981,0.08343 -0.63615,0.12514 -0.94901,0.12514zM317.05626,70.34576v-6.53876h1.28273v1.3453l-0.22943,0.146c0.08343,-0.28506 0.24681,-0.54924 0.49015,-0.79258c0.24334,-0.25029 0.52838,-0.45191 0.85515,-0.60486c0.33372,-0.15295 0.67438,-0.22943 1.02201,-0.22943c0.50058,0 0.91424,0.09734 1.24101,0.292c0.33372,0.19466 0.584,0.49363 0.75086,0.89686c0.16686,0.39629 0.25029,0.89686 0.25029,1.50173v3.98375h-1.28272v-3.90032c0,-0.36849 -0.04866,-0.67438 -0.146,-0.91772c-0.09734,-0.25029 -0.25029,-0.43106 -0.45886,-0.54229c-0.20857,-0.11123 -0.46581,-0.15991 -0.77172,-0.146c-0.25029,0 -0.47972,0.04171 -0.68829,0.12514c-0.20857,0.07648 -0.38934,0.18772 -0.54229,0.33372c-0.15295,0.13905 -0.27463,0.30243 -0.365,0.49015c-0.08343,0.18077 -0.12514,0.37891 -0.12514,0.59445v3.96289h-0.63615c-0.10429,0 -0.21204,0 -0.32329,0c-0.11125,0 -0.219,0 -0.32329,0zM325.27853,70.34576v-8.20735h1.28273v8.20735zM323.91237,65.05843v-1.25144h4.16103v1.25144zM331.67536,70.47091c-0.54924,0 -1.04287,-0.09386 -1.48087,-0.28157c-0.438,-0.19466 -0.803,-0.47972 -1.09501,-0.85515l0.86558,-0.74043c0.25029,0.28506 0.52143,0.49363 0.81344,0.62572c0.29895,0.12514 0.63615,0.18772 1.01158,0.18772c0.146,0 0.28158,-0.01738 0.40672,-0.05214c0.13209,-0.03477 0.24681,-0.09038 0.34415,-0.16686c0.09734,-0.07648 0.17034,-0.16686 0.219,-0.27115c0.04866,-0.10429 0.073,-0.219 0.073,-0.34414c0,-0.21552 -0.07995,-0.38934 -0.23986,-0.52143c-0.08343,-0.05563 -0.21552,-0.1182 -0.39629,-0.18772c-0.17382,-0.06952 -0.40325,-0.14252 -0.68829,-0.219c-0.47972,-0.12514 -0.87254,-0.2642 -1.17844,-0.41715c-0.30591,-0.15991 -0.54229,-0.34066 -0.70915,-0.54229c-0.12514,-0.15991 -0.219,-0.33025 -0.28157,-0.511c-0.05561,-0.18772 -0.08343,-0.39629 -0.08343,-0.62572c0,-0.27115 0.05909,-0.52143 0.17729,-0.75086c0.12514,-0.22943 0.292,-0.42757 0.50058,-0.59443c0.21552,-0.17382 0.46581,-0.30591 0.75086,-0.39629c0.28506,-0.09038 0.59097,-0.13557 0.91772,-0.13557c0.30591,0 0.60834,0.04171 0.90729,0.12514c0.30591,0.08343 0.58747,0.20509 0.84472,0.365c0.25725,0.15295 0.47277,0.3372 0.64658,0.55272l-0.73001,0.81344c-0.15991,-0.15991 -0.33372,-0.29895 -0.52143,-0.41715c-0.18772,-0.1182 -0.37891,-0.20857 -0.57357,-0.27115c-0.18772,-0.06952 -0.35804,-0.10429 -0.511,-0.10429c-0.17382,0 -0.33372,0.01738 -0.47972,0.05215c-0.13905,0.0278 -0.25723,0.07648 -0.35457,0.146c-0.09038,0.06257 -0.16338,0.146 -0.219,0.25029c-0.04866,0.09734 -0.073,0.20857 -0.073,0.33372c0.00695,0.10429 0.03477,0.20509 0.08343,0.30243c0.04866,0.09734 0.11472,0.17729 0.19815,0.23986c0.09038,0.06952 0.22595,0.14252 0.40672,0.219c0.18077,0.06952 0.41368,0.13905 0.69872,0.20857c0.4102,0.10429 0.75086,0.22248 1.02201,0.35457c0.27115,0.12514 0.48668,0.27115 0.64658,0.438c0.16686,0.15991 0.28158,0.34415 0.34415,0.55272c0.06952,0.20857 0.10429,0.44147 0.10429,0.69872c0,0.36849 -0.10777,0.7022 -0.32329,1.00115c-0.20857,0.292 -0.49363,0.52143 -0.85515,0.68829c-0.35457,0.16686 -0.75086,0.25029 -1.18887,0.25029z" fill="#ffffff" fill-rule="nonzero" stroke-linecap="square"/><path d="M204.84282,85.42144c-0.63963,0 -1.21319,-0.146 -1.72073,-0.438c-0.50058,-0.29895 -0.89686,-0.7022 -1.18887,-1.20972c-0.28504,-0.51449 -0.42757,-1.09849 -0.42757,-1.75201c0,-0.65354 0.14252,-1.23406 0.42758,-1.74158c0.292,-0.51449 0.68829,-0.91772 1.18887,-1.20972c0.50754,-0.29895 1.0811,-0.44843 1.72073,-0.44843c0.62572,0 1.18887,0.14948 1.68944,0.44843c0.50754,0.292 0.90729,0.69524 1.1993,1.20972c0.292,0.50752 0.438,1.08806 0.438,1.74159c0,0.65352 -0.146,1.23753 -0.438,1.75201c-0.292,0.50752 -0.69177,0.91077 -1.1993,1.20972c-0.50058,0.292 -1.06372,0.438 -1.68944,0.438zM204.84282,84.25343c0.38934,0 0.73697,-0.09734 1.04287,-0.292c0.30591,-0.19468 0.54577,-0.45886 0.71958,-0.79258c0.17382,-0.34068 0.25725,-0.72306 0.25029,-1.14715c0.00695,-0.43106 -0.07648,-0.81344 -0.25029,-1.14715c-0.17382,-0.34068 -0.41368,-0.60486 -0.71958,-0.79258c-0.30591,-0.19468 -0.65354,-0.292 -1.04287,-0.292c-0.38934,0 -0.74043,0.09734 -1.05329,0.292c-0.31286,0.19466 -0.5562,0.46234 -0.73001,0.80301c-0.17382,0.33372 -0.25725,0.71263 -0.25029,1.13674c-0.00695,0.42409 0.07648,0.80647 0.25029,1.14715c0.17382,0.33372 0.41715,0.5979 0.73001,0.79258c0.31286,0.19466 0.66395,0.292 1.0533,0.292zM209.5598,85.2963v-6.53876h1.28273v1.3453l-0.22943,0.146c0.08343,-0.28506 0.24681,-0.54924 0.49015,-0.79258c0.24334,-0.25029 0.52838,-0.45191 0.85515,-0.60486c0.33372,-0.15295 0.67438,-0.22943 1.02201,-0.22943c0.50058,0 0.91424,0.09734 1.24101,0.292c0.33372,0.19466 0.584,0.49363 0.75086,0.89686c0.16686,0.39629 0.25029,0.89686 0.25029,1.50173v3.98375h-1.28272v-3.90032c0,-0.36849 -0.04866,-0.67438 -0.146,-0.91772c-0.09734,-0.25029 -0.25029,-0.43106 -0.45886,-0.54229c-0.20857,-0.11125 -0.46581,-0.15991 -0.77172,-0.146c-0.25029,0 -0.47972,0.04171 -0.68829,0.12514c-0.20857,0.07648 -0.38934,0.18772 -0.54229,0.33372c-0.15295,0.13905 -0.27463,0.30243 -0.365,0.49015c-0.08343,0.18077 -0.12514,0.37891 -0.12514,0.59445v3.96289h-0.63615c-0.10429,0 -0.21204,0 -0.32329,0c-0.11125,0 -0.219,0 -0.32329,0zM220.77843,85.2963v-8.71835h3.54574c0.47277,0 0.90033,0.11818 1.28273,0.35457c0.38934,0.23638 0.69872,0.55968 0.92815,0.96987c0.23638,0.40325 0.35457,0.85515 0.35457,1.35573c0,0.50058 -0.1182,0.95597 -0.35457,1.36617c-0.22943,0.40325 -0.53881,0.72654 -0.92815,0.96987c-0.38238,0.24334 -0.80995,0.365 -1.28272,0.365h-2.20044v3.33717zM222.12373,80.66596h2.17959c0.22248,0 0.42409,-0.06257 0.60486,-0.18772c0.18772,-0.13209 0.3372,-0.30243 0.44843,-0.511c0.11123,-0.21552 0.16686,-0.45191 0.16686,-0.70915c0,-0.25725 -0.05563,-0.49014 -0.16686,-0.69872c-0.11125,-0.20857 -0.26071,-0.37543 -0.44843,-0.50058c-0.18077,-0.12514 -0.38238,-0.18772 -0.60486,-0.18772h-2.17959zM231.16589,85.42144c-0.63963,0 -1.21319,-0.146 -1.72073,-0.438c-0.50058,-0.29895 -0.89686,-0.7022 -1.18887,-1.20972c-0.28506,-0.51449 -0.42757,-1.09849 -0.42757,-1.75201c0,-0.65354 0.14252,-1.23406 0.42758,-1.74158c0.292,-0.51449 0.68829,-0.91772 1.18887,-1.20972c0.50752,-0.29895 1.0811,-0.44843 1.72073,-0.44843c0.62572,0 1.18887,0.14948 1.68944,0.44843c0.50752,0.292 0.90729,0.69524 1.1993,1.20972c0.292,0.50752 0.438,1.08806 0.438,1.74159c0,0.65352 -0.146,1.23753 -0.438,1.75201c-0.292,0.50752 -0.69177,0.91077 -1.19929,1.20972c-0.50058,0.292 -1.06372,0.438 -1.68944,0.438zM231.16589,84.25343c0.38934,0 0.73695,-0.09734 1.04287,-0.292c0.30591,-0.19468 0.54577,-0.45886 0.71958,-0.79258c0.17382,-0.34068 0.25723,-0.72306 0.25029,-1.14715c0.00695,-0.43106 -0.07648,-0.81344 -0.25029,-1.14715c-0.17382,-0.34068 -0.41368,-0.60486 -0.71958,-0.79258c-0.30591,-0.19468 -0.65352,-0.292 -1.04287,-0.292c-0.38934,0 -0.74043,0.09734 -1.05329,0.292c-0.31286,0.19466 -0.5562,0.46234 -0.73001,0.80301c-0.17382,0.33372 -0.25723,0.71263 -0.25029,1.13674c-0.00695,0.42409 0.07648,0.80647 0.25029,1.14715c0.17382,0.33372 0.41715,0.5979 0.73001,0.79258c0.31286,0.19466 0.66395,0.292 1.0533,0.292zM235.90374,85.2963v-9.21893h1.28273v9.21893zM239.91642,88.16417l1.32444,-3.05559l0.01043,1.02201l-3.26417,-7.37306h1.4913l2.04402,4.80761c0.04171,0.08343 0.09038,0.21204 0.146,0.38586c0.06257,0.16686 0.11472,0.33372 0.15643,0.50058l-0.32329,0.073c0.06257,-0.17382 0.12514,-0.34763 0.18772,-0.52143c0.06257,-0.17382 0.12166,-0.34763 0.17729,-0.52143l1.7103,-4.72418h1.52258l-2.69059,6.53878l-1.10544,2.86788zM250.02924,85.42144c-0.61877,0 -1.18887,-0.11125 -1.7103,-0.33372c-0.51449,-0.22943 -0.96638,-0.54229 -1.35573,-0.93858c-0.38238,-0.40325 -0.68134,-0.87601 -0.89686,-1.4183c-0.20857,-0.54924 -0.31286,-1.14715 -0.31286,-1.79373c0,-0.64658 0.10429,-1.24101 0.31286,-1.7833c0.21552,-0.54229 0.51449,-1.01506 0.89686,-1.4183c0.38934,-0.40325 0.84124,-0.71611 1.35573,-0.93858c0.52143,-0.22943 1.09153,-0.34414 1.7103,-0.34414c0.61181,0 1.17497,0.11472 1.68944,0.34415c0.52143,0.22248 0.97681,0.53881 1.36617,0.94901c0.38934,0.40325 0.68829,0.87601 0.89686,1.4183c0.20857,0.54229 0.31286,1.13324 0.31286,1.77287c0,0.63963 -0.10429,1.23058 -0.31286,1.77287c-0.20857,0.54229 -0.50752,1.01853 -0.89686,1.42873c-0.38934,0.40325 -0.84472,0.71958 -1.36615,0.94901c-0.51449,0.22248 -1.07763,0.33372 -1.68944,0.33372zM250.02924,84.11786c0.42409,0 0.80995,-0.07995 1.15758,-0.23986c0.35457,-0.15991 0.66049,-0.38238 0.91772,-0.66743c0.25723,-0.28506 0.45886,-0.61877 0.60486,-1.00115c0.146,-0.38934 0.219,-0.81344 0.219,-1.2723c0,-0.45886 -0.073,-0.87949 -0.219,-1.26187c-0.146,-0.38934 -0.34763,-0.72654 -0.60486,-1.01158c-0.25723,-0.28506 -0.56315,-0.50406 -0.91772,-0.657c-0.34763,-0.15991 -0.73349,-0.23986 -1.15758,-0.23986c-0.42409,0 -0.81344,0.07995 -1.16801,0.23986c-0.35457,0.15295 -0.66395,0.37195 -0.92815,0.65701c-0.25723,0.27809 -0.45538,0.61181 -0.59443,1.00115c-0.13905,0.38238 -0.20857,0.80647 -0.20857,1.2723c0,0.45886 0.06952,0.88295 0.20857,1.2723c0.13905,0.38934 0.3372,0.72654 0.59445,1.01158c0.2642,0.27809 0.57358,0.49711 0.92815,0.65701c0.35457,0.15991 0.74392,0.23986 1.16801,0.23986zM258.80713,85.42144c-0.47277,0 -0.91078,-0.06257 -1.31401,-0.18772c-0.40325,-0.12514 -0.76824,-0.31286 -1.09501,-0.56315c-0.32677,-0.25725 -0.61877,-0.57011 -0.87601,-0.93858l0.91772,-1.06372c0.4102,0.584 0.79954,0.98724 1.16801,1.20972c0.37543,0.22248 0.82038,0.33372 1.33487,0.33372c0.31286,0 0.5979,-0.04866 0.85515,-0.146c0.25723,-0.10429 0.45886,-0.24334 0.60486,-0.41715c0.15295,-0.17382 0.22943,-0.37195 0.22943,-0.59443c0,-0.146 -0.02434,-0.28506 -0.073,-0.41715c-0.04866,-0.13905 -0.12514,-0.26071 -0.22943,-0.365c-0.10429,-0.11125 -0.23638,-0.21204 -0.39629,-0.30243c-0.15991,-0.09038 -0.34763,-0.17034 -0.56315,-0.23986c-0.21552,-0.06952 -0.46581,-0.12861 -0.75086,-0.17729c-0.44495,-0.09734 -0.83429,-0.219 -1.16801,-0.365c-0.33372,-0.15295 -0.61181,-0.34068 -0.83429,-0.56315c-0.22248,-0.22248 -0.38934,-0.47624 -0.50058,-0.76129c-0.11123,-0.28506 -0.16686,-0.60834 -0.16686,-0.96986c0,-0.34763 0.07648,-0.6709 0.22943,-0.96986c0.15991,-0.29895 0.37195,-0.5562 0.63615,-0.77172c0.27115,-0.22248 0.58747,-0.39281 0.94901,-0.511c0.36848,-0.12514 0.76477,-0.18772 1.18887,-0.18772c0.45191,0 0.8621,0.05909 1.23058,0.17729c0.37543,0.11818 0.70915,0.292 1.00115,0.52143c0.292,0.22248 0.53186,0.50058 0.71958,0.83429l-0.94901,0.93858c-0.15991,-0.27811 -0.34414,-0.50754 -0.55272,-0.68829c-0.20857,-0.18772 -0.438,-0.33025 -0.68829,-0.42757c-0.25029,-0.09734 -0.51449,-0.146 -0.79258,-0.146c-0.32677,0 -0.61181,0.05215 -0.85515,0.15643c-0.23638,0.09734 -0.42411,0.23638 -0.56315,0.41715c-0.13905,0.17382 -0.20857,0.38238 -0.20857,0.62572c0,0.17382 0.03475,0.33372 0.10429,0.47972c0.06952,0.146 0.17034,0.27463 0.30243,0.38586c0.13905,0.11123 0.32329,0.21204 0.55272,0.30243c0.23638,0.08343 0.51447,0.15643 0.83429,0.219c0.45886,0.10429 0.86558,0.23291 1.22015,0.38586c0.36152,0.15295 0.66395,0.33372 0.90729,0.54229c0.25029,0.20857 0.438,0.44147 0.56315,0.69872c0.13209,0.25723 0.19815,0.53534 0.19815,0.83429c0,0.5562 -0.12861,1.0394 -0.38586,1.44958c-0.25725,0.40325 -0.62224,0.71611 -1.09501,0.93858c-0.47277,0.21552 -1.03592,0.32329 -1.68944,0.32329z" fill="#ffffff" fill-rule="nonzero" stroke-linecap="square"/></g></g></svg>