<svg version="1.1" xmlns="http://www.w3.org/2000/svg" xmlns:xlink="http://www.w3.org/1999/xlink" width="21.58322" height="27.89234" viewBox="0,0,21.58322,27.89234"><g transform="translate(-170.54784,-195.55394)"><g data-paper-data="{&quot;isPaintingLayer&quot;:true}" stroke="none" stroke-width="1" stroke-linecap="square" stroke-linejoin="miter" stroke-miterlimit="10" stroke-dasharray="" stroke-dashoffset="0" style="mix-blend-mode: normal"><path d="M170.54784,197.27797c0,-0.95215 0.41182,-1.72403 0.91982,-1.72403h19.74357c0.24395,0 0.47791,0.18164 0.65041,0.50495c0.1725,0.32331 0.26942,0.76183 0.26942,1.21908v24.44429c0,0.95215 -0.41182,1.72402 -0.91983,1.72402h-19.74357c-0.508,0 -0.91982,-0.77187 -0.91982,-1.72402z" fill-opacity="0.69355" fill="#2d2d2d" fill-rule="evenodd"/><path d="M182.39507,217.12462c-1.20757,0 -2.32503,-0.20727 -3.35237,-0.62181c-1.02734,-0.41454 -1.9195,-0.99129 -2.67649,-1.73025c-0.73897,-0.73897 -1.31571,-1.62211 -1.73025,-2.64945c-0.39651,-1.02734 -0.59477,-2.1538 -0.59477,-3.3794c0,-1.20757 0.20727,-2.31601 0.62181,-3.32533c0.43256,-1.00932 1.02734,-1.88345 1.78432,-2.62242c0.77501,-0.75699 1.67618,-1.34275 2.70352,-1.75729c1.04536,-0.41454 2.18084,-0.62181 3.40644,-0.62181c0.77501,0 1.53199,0.09913 2.27096,0.29739c0.73897,0.19826 1.42385,0.49565 2.05468,0.89216c0.64885,0.39651 1.19856,0.85611 1.64915,1.3788l-2.3791,2.75759c-0.32442,-0.34244 -0.67588,-0.63983 -1.05437,-0.89216c-0.36047,-0.25233 -0.75699,-0.44158 -1.18955,-0.56774c-0.41454,-0.14419 -0.87414,-0.21628 -1.3788,-0.21628c-0.6128,0 -1.18955,0.10814 -1.73025,0.32442c-0.5407,0.21628 -1.01832,0.53169 -1.43287,0.94623c-0.39651,0.41454 -0.71193,0.9192 -0.94623,1.51397c-0.2343,0.57675 -0.35146,1.2256 -0.35146,1.94654c0,0.70292 0.11716,1.34275 0.35146,1.9195c0.2343,0.57675 0.55872,1.07239 0.97327,1.48694c0.41454,0.41454 0.91018,0.72995 1.48694,0.94623c0.59477,0.21628 1.25263,0.32442 1.97357,0.32442c0.50465,0 0.97327,-0.07209 1.40583,-0.21628c0.45058,-0.14419 0.86513,-0.33344 1.24362,-0.56774c0.37849,-0.2343 0.71193,-0.50465 1.0003,-0.81106l1.89247,3.00091c-0.37849,0.43256 -0.89216,0.82007 -1.54101,1.16251c-0.63082,0.32442 -1.33374,0.58576 -2.10875,0.78402c-0.77501,0.19826 -1.55903,0.29739 -2.35206,0.29739z" fill="#ffffff" fill-rule="nonzero"/></g></g></svg>