<svg version="1.1" xmlns="http://www.w3.org/2000/svg" xmlns:xlink="http://www.w3.org/1999/xlink" width="486.31113" height="234.87885" viewBox="0,0,486.31113,234.87885"><g transform="translate(159.75,22.25)"><g data-paper-data="{&quot;isPaintingLayer&quot;:true}" fill-rule="nonzero" stroke-linejoin="miter" stroke-miterlimit="10" stroke-dasharray="" stroke-dashoffset="0" style="mix-blend-mode: normal"><path d="M-151.5,-22l-8,21" fill="none" stroke="#000000" stroke-width="0.5" stroke-linecap="round"/><path d="M153.43887,161.18362v-1.85937h2.10938v-9.32812h-2.10937v-1.875h6.23438v1.875h-2.10937v9.32812h2.10938v1.85938zM162.35656,161.18362v-9.79687h1.92188v2.01563l-0.34375,0.21875c0.125,-0.42708 0.36979,-0.82292 0.73438,-1.1875c0.36459,-0.375 0.79166,-0.67708 1.28125,-0.90625c0.5,-0.22917 1.01041,-0.34375 1.53125,-0.34375c0.75,0 1.36979,0.14583 1.85938,0.4375c0.5,0.29167 0.875,0.73958 1.125,1.34375c0.25,0.59375 0.375,1.34375 0.375,2.25v5.96875h-1.92187v-5.84375c0,-0.55208 -0.07291,-1.01042 -0.21875,-1.375c-0.14584,-0.375 -0.375,-0.64583 -0.6875,-0.8125c-0.3125,-0.16667 -0.69791,-0.23958 -1.15625,-0.21875c-0.375,0 -0.71875,0.0625 -1.03125,0.1875c-0.3125,0.11458 -0.58334,0.28125 -0.8125,0.5c-0.22916,0.20833 -0.41146,0.45313 -0.54687,0.73438c-0.125,0.27083 -0.1875,0.56771 -0.1875,0.89063v5.9375h-0.95312c-0.15625,0 -0.31771,0 -0.48437,0c-0.16666,0 -0.32812,0 -0.48437,0zM177.61328,161.37112c-0.90625,0 -1.71875,-0.22396 -2.4375,-0.67187c-0.70834,-0.44791 -1.27084,-1.05729 -1.6875,-1.82812c-0.41666,-0.77083 -0.625,-1.63541 -0.625,-2.59375c0,-0.95833 0.20834,-1.82292 0.625,-2.59375c0.41666,-0.77083 0.97916,-1.38021 1.6875,-1.82812c0.71875,-0.44792 1.53125,-0.67187 2.4375,-0.67187c0.875,0 1.66666,0.17708 2.375,0.53125c0.71875,0.35417 1.26563,0.83854 1.64063,1.45313l-1.0625,1.29688c-0.19791,-0.28125 -0.45312,-0.54167 -0.76562,-0.78125c-0.3125,-0.23958 -0.64584,-0.42708 -1,-0.5625c-0.34375,-0.13542 -0.67709,-0.20312 -1,-0.20312c-0.59375,0 -1.125,0.14583 -1.59375,0.4375c-0.46875,0.29167 -0.83854,0.69271 -1.10937,1.20313c-0.27084,0.51042 -0.40625,1.08333 -0.40625,1.71875c0,0.63542 0.14063,1.20834 0.42188,1.71875c0.29166,0.5 0.67188,0.90104 1.14063,1.20313c0.46875,0.29167 0.98959,0.4375 1.5625,0.4375c0.34375,0 0.67188,-0.05729 0.98438,-0.17187c0.3125,-0.11458 0.61979,-0.28125 0.92188,-0.5c0.30209,-0.22916 0.58334,-0.50521 0.84375,-0.82812l1.0625,1.3125c-0.39584,0.5625 -0.96354,1.02604 -1.70312,1.39063c-0.73959,0.35417 -1.51041,0.53125 -2.3125,0.53125zM187.84435,161.37112c-0.95834,0 -1.81771,-0.21875 -2.57812,-0.65625c-0.75,-0.44791 -1.34375,-1.05208 -1.78125,-1.8125c-0.42709,-0.77083 -0.64062,-1.64583 -0.64062,-2.625c0,-0.97917 0.21354,-1.84896 0.64063,-2.60937c0.4375,-0.77083 1.03125,-1.375 1.78125,-1.8125c0.76041,-0.44792 1.61979,-0.67187 2.57813,-0.67187c0.9375,0 1.78125,0.22396 2.53125,0.67188c0.76041,0.4375 1.35938,1.04167 1.79688,1.8125c0.4375,0.76042 0.65625,1.63021 0.65625,2.60938c0,0.97917 -0.21875,1.85417 -0.65625,2.625c-0.4375,0.76042 -1.03646,1.36459 -1.79687,1.8125c-0.75,0.4375 -1.59375,0.65625 -2.53125,0.65625zM187.84435,159.62112c0.58334,0 1.10416,-0.14583 1.5625,-0.4375c0.45834,-0.29166 0.81771,-0.6875 1.07813,-1.1875c0.26041,-0.51041 0.38541,-1.08333 0.375,-1.71875c0.01041,-0.64583 -0.11459,-1.21875 -0.375,-1.71875c-0.26041,-0.51042 -0.61979,-0.90625 -1.07812,-1.1875c-0.45834,-0.29167 -0.97916,-0.4375 -1.5625,-0.4375c-0.58334,0 -1.10937,0.14583 -1.57812,0.4375c-0.46875,0.29167 -0.83334,0.69271 -1.09375,1.20313c-0.26041,0.5 -0.38541,1.06771 -0.375,1.70313c-0.01041,0.63542 0.11459,1.20834 0.375,1.71875c0.26041,0.5 0.625,0.89584 1.09375,1.1875c0.46875,0.29167 0.99479,0.4375 1.57813,0.4375zM194.91171,161.18362v-9.79687h1.9375v3.07813l-0.1875,-0.75c0.13541,-0.46875 0.36979,-0.89583 0.70313,-1.28125c0.33334,-0.38542 0.71354,-0.6875 1.14063,-0.90625c0.42709,-0.22917 0.86979,-0.34375 1.32813,-0.34375c0.20834,0 0.40625,0.02083 0.59375,0.0625c0.19791,0.03125 0.35416,0.07292 0.46875,0.125l-0.5,2.09375c-0.14584,-0.0625 -0.3125,-0.11458 -0.5,-0.15625c-0.17709,-0.05208 -0.35416,-0.07812 -0.53125,-0.07812c-0.33334,0 -0.65104,0.06771 -0.95312,0.20313c-0.30209,0.125 -0.57291,0.30729 -0.8125,0.54688c-0.22916,0.22917 -0.41146,0.49479 -0.54687,0.79688c-0.13541,0.30208 -0.20312,0.63542 -0.20312,1v5.40625zM202.43017,161.18362v-9.79687h1.9375v3.07813l-0.1875,-0.75c0.13541,-0.46875 0.36979,-0.89583 0.70313,-1.28125c0.33334,-0.38542 0.71354,-0.6875 1.14063,-0.90625c0.42709,-0.22917 0.86979,-0.34375 1.32813,-0.34375c0.20834,0 0.40625,0.02083 0.59375,0.0625c0.19791,0.03125 0.35416,0.07292 0.46875,0.125l-0.5,2.09375c-0.14584,-0.0625 -0.3125,-0.11458 -0.5,-0.15625c-0.17709,-0.05208 -0.35416,-0.07812 -0.53125,-0.07812c-0.33334,0 -0.65104,0.06771 -0.95312,0.20313c-0.30209,0.125 -0.57291,0.30729 -0.8125,0.54688c-0.22916,0.22917 -0.41146,0.49479 -0.54687,0.79688c-0.13541,0.30208 -0.20312,0.63542 -0.20312,1v5.40625zM214.10046,161.37112c-1,0 -1.89062,-0.21354 -2.67187,-0.64062c-0.77084,-0.42708 -1.38021,-1.01562 -1.82812,-1.76562c-0.4375,-0.75 -0.65625,-1.60937 -0.65625,-2.57812c0,-0.77083 0.125,-1.47396 0.375,-2.10937c0.25,-0.63542 0.59375,-1.18229 1.03125,-1.64062c0.4375,-0.46875 0.96354,-0.82812 1.57813,-1.07812c0.625,-0.26042 1.29688,-0.39062 2.01563,-0.39062c0.63541,0 1.22396,0.11979 1.76563,0.35938c0.55209,0.23958 1.02604,0.57292 1.42188,1c0.40625,0.42708 0.71875,0.93229 0.9375,1.51563c0.21875,0.57292 0.32291,1.19792 0.3125,1.875l-0.01562,0.82813h-8l-0.4375,-1.53125h6.76563l-0.26562,0.3125v-0.4375c-0.04166,-0.41667 -0.18229,-0.78646 -0.42187,-1.10937c-0.22916,-0.32292 -0.52604,-0.57812 -0.89062,-0.76562c-0.36459,-0.1875 -0.75521,-0.28125 -1.17187,-0.28125c-0.67709,0 -1.24479,0.13021 -1.70312,0.39063c-0.45834,0.25 -0.80729,0.625 -1.04687,1.125c-0.22916,0.48958 -0.34375,1.09375 -0.34375,1.8125c0,0.67708 0.14063,1.27084 0.42188,1.78125c0.28125,0.5 0.68229,0.89063 1.20313,1.17188c0.53125,0.27084 1.13541,0.40625 1.8125,0.40625c0.48959,0 0.94271,-0.07812 1.35938,-0.23437c0.41666,-0.16666 0.86979,-0.46354 1.35938,-0.89062l0.96875,1.35938c-0.30209,0.30209 -0.66666,0.56771 -1.09375,0.79688c-0.42709,0.21875 -0.88021,0.39584 -1.35937,0.53125c-0.47916,0.125 -0.95312,0.1875 -1.42187,0.1875zM224.62679,161.37112c-0.90625,0 -1.71875,-0.22396 -2.4375,-0.67187c-0.70834,-0.44791 -1.27084,-1.05729 -1.6875,-1.82812c-0.41666,-0.77083 -0.625,-1.63541 -0.625,-2.59375c0,-0.95833 0.20834,-1.82292 0.625,-2.59375c0.41666,-0.77083 0.97916,-1.38021 1.6875,-1.82812c0.71875,-0.44792 1.53125,-0.67187 2.4375,-0.67187c0.875,0 1.66666,0.17708 2.375,0.53125c0.71875,0.35417 1.26563,0.83854 1.64063,1.45313l-1.0625,1.29688c-0.19791,-0.28125 -0.45312,-0.54167 -0.76562,-0.78125c-0.3125,-0.23958 -0.64584,-0.42708 -1,-0.5625c-0.34375,-0.13542 -0.67709,-0.20312 -1,-0.20312c-0.59375,0 -1.125,0.14583 -1.59375,0.4375c-0.46875,0.29167 -0.83854,0.69271 -1.10937,1.20313c-0.27084,0.51042 -0.40625,1.08333 -0.40625,1.71875c0,0.63542 0.14063,1.20834 0.42188,1.71875c0.29166,0.5 0.67188,0.90104 1.14063,1.20313c0.46875,0.29167 0.98959,0.4375 1.5625,0.4375c0.34375,0 0.67188,-0.05729 0.98438,-0.17187c0.3125,-0.11458 0.61979,-0.28125 0.92188,-0.5c0.30209,-0.22916 0.58334,-0.50521 0.84375,-0.82812l1.0625,1.3125c-0.39584,0.5625 -0.96354,1.02604 -1.70312,1.39063c-0.73959,0.35417 -1.51041,0.53125 -2.3125,0.53125zM231.67037,161.18362v-12.29687h1.92188v12.29687zM229.6235,153.26175v-1.875h6.23438v1.875zM243.32375,161.18362v-13.0625h5.3125c0.70834,0 1.34896,0.17708 1.92188,0.53125c0.58334,0.35417 1.04688,0.83854 1.39063,1.45313c0.35416,0.60417 0.53125,1.28125 0.53125,2.03125c0,0.75 -0.17709,1.43229 -0.53125,2.04688c-0.34375,0.60417 -0.80729,1.08854 -1.39062,1.45313c-0.57291,0.36458 -1.21354,0.54688 -1.92187,0.54688h-3.29687v5zM245.33938,154.24612h3.26563c0.33334,0 0.63541,-0.09375 0.90625,-0.28125c0.28125,-0.19792 0.50521,-0.45312 0.67188,-0.76562c0.16666,-0.32292 0.25,-0.67708 0.25,-1.0625c0,-0.38542 -0.08334,-0.73437 -0.25,-1.04687c-0.16666,-0.3125 -0.39062,-0.5625 -0.67187,-0.75c-0.27084,-0.1875 -0.57291,-0.28125 -0.90625,-0.28125h-3.26562zM258.24639,161.37112c-0.80209,0 -1.53646,-0.22396 -2.20312,-0.67187c-0.66666,-0.44791 -1.20312,-1.05729 -1.60937,-1.82812c-0.39584,-0.77083 -0.59375,-1.64062 -0.59375,-2.60937c0,-0.98958 0.20313,-1.86458 0.60938,-2.625c0.40625,-0.76042 0.95313,-1.35937 1.64063,-1.79687c0.69791,-0.4375 1.47396,-0.65625 2.32813,-0.65625c0.51041,0 0.97396,0.07813 1.39063,0.23438c0.42709,0.14583 0.79688,0.35417 1.10938,0.625c0.32291,0.26042 0.58334,0.56771 0.78125,0.92188c0.20834,0.34375 0.33854,0.71354 0.39063,1.10938l-0.42187,-0.14062v-2.54687h1.9375v9.79687h-1.9375v-2.32812l0.4375,-0.14062c-0.07291,0.34375 -0.22396,0.67709 -0.45312,1c-0.22916,0.3125 -0.52084,0.59375 -0.875,0.84375c-0.35416,0.23959 -0.74479,0.4375 -1.17187,0.59375c-0.42709,0.14584 -0.88021,0.21875 -1.35937,0.21875zM258.74639,159.6055c0.59375,0 1.10938,-0.14062 1.54688,-0.42187c0.44791,-0.29166 0.79688,-0.6875 1.04688,-1.1875c0.26041,-0.51041 0.39063,-1.08854 0.39063,-1.73437c0,-0.63542 -0.13021,-1.20312 -0.39062,-1.70312c-0.25,-0.5 -0.59896,-0.89062 -1.04687,-1.17187c-0.4375,-0.29167 -0.95312,-0.4375 -1.54687,-0.4375c-0.57291,0 -1.07812,0.14583 -1.51562,0.4375c-0.4375,0.28125 -0.78646,0.67188 -1.04687,1.17188c-0.25,0.5 -0.375,1.06771 -0.375,1.70313c0,0.64583 0.125,1.22396 0.375,1.73437c0.26041,0.5 0.60938,0.89584 1.04688,1.1875c0.4375,0.28125 0.94271,0.42188 1.51563,0.42188zM269.5558,161.37112c-0.82292,0 -1.5625,-0.14062 -2.21875,-0.42187c-0.65625,-0.29166 -1.20312,-0.71875 -1.64062,-1.28125l1.29688,-1.10937c0.375,0.42709 0.78125,0.73959 1.21875,0.9375c0.44791,0.1875 0.95313,0.28125 1.51563,0.28125c0.21875,0 0.42188,-0.02604 0.60938,-0.07812c0.19791,-0.05208 0.36979,-0.13541 0.51563,-0.25c0.14583,-0.11458 0.25521,-0.25 0.32813,-0.40625c0.07291,-0.15625 0.10938,-0.32812 0.10938,-0.51562c0,-0.32291 -0.11979,-0.58333 -0.35937,-0.78125c-0.125,-0.08333 -0.32292,-0.17708 -0.59375,-0.28125c-0.26042,-0.10416 -0.60417,-0.21354 -1.03125,-0.32812c-0.71875,-0.1875 -1.30729,-0.39583 -1.76562,-0.625c-0.45834,-0.23958 -0.8125,-0.51042 -1.0625,-0.8125c-0.1875,-0.23958 -0.32812,-0.49479 -0.42187,-0.76562c-0.08334,-0.28125 -0.125,-0.59375 -0.125,-0.9375c0,-0.40625 0.08854,-0.78125 0.26563,-1.125c0.1875,-0.34375 0.4375,-0.64062 0.75,-0.89062c0.32291,-0.26042 0.69791,-0.45833 1.125,-0.59375c0.42708,-0.13542 0.88541,-0.20312 1.375,-0.20312c0.45833,0 0.91146,0.0625 1.35938,0.1875c0.45833,0.125 0.88021,0.30729 1.26563,0.54688c0.38541,0.22917 0.70833,0.50521 0.96875,0.82813l-1.09375,1.21875c-0.23959,-0.23958 -0.5,-0.44792 -0.78125,-0.625c-0.28125,-0.17708 -0.56771,-0.3125 -0.85937,-0.40625c-0.28125,-0.10417 -0.53646,-0.15625 -0.76562,-0.15625c-0.26042,0 -0.5,0.02604 -0.71875,0.07813c-0.20834,0.04167 -0.38542,0.11458 -0.53125,0.21875c-0.13542,0.09375 -0.24479,0.21875 -0.32812,0.375c-0.07292,0.14583 -0.10937,0.3125 -0.10937,0.5c0.01041,0.15625 0.05208,0.30729 0.125,0.45313c0.07291,0.14583 0.17188,0.26563 0.29688,0.35938c0.13541,0.10417 0.33854,0.21354 0.60938,0.32813c0.27083,0.10417 0.61979,0.20833 1.04688,0.3125c0.61458,0.15625 1.125,0.33333 1.53125,0.53125c0.40625,0.1875 0.72916,0.40625 0.96875,0.65625c0.25,0.23958 0.42188,0.51563 0.51563,0.82812c0.10416,0.3125 0.15625,0.66146 0.15625,1.04688c0,0.55209 -0.16146,1.05209 -0.48437,1.5c-0.3125,0.4375 -0.73959,0.78125 -1.28125,1.03125c-0.53125,0.25 -1.125,0.375 -1.78125,0.375zM278.49215,161.37112c-0.82291,0 -1.5625,-0.14062 -2.21875,-0.42187c-0.65625,-0.29166 -1.20312,-0.71875 -1.64062,-1.28125l1.29688,-1.10937c0.375,0.42709 0.78125,0.73959 1.21875,0.9375c0.44791,0.1875 0.95313,0.28125 1.51563,0.28125c0.21875,0 0.42188,-0.02604 0.60938,-0.07812c0.19791,-0.05208 0.36979,-0.13541 0.51563,-0.25c0.14584,-0.11458 0.25521,-0.25 0.32813,-0.40625c0.07291,-0.15625 0.10938,-0.32812 0.10938,-0.51562c0,-0.32291 -0.11979,-0.58333 -0.35937,-0.78125c-0.125,-0.08333 -0.32291,-0.17708 -0.59375,-0.28125c-0.26041,-0.10416 -0.60416,-0.21354 -1.03125,-0.32812c-0.71875,-0.1875 -1.30729,-0.39583 -1.76562,-0.625c-0.45834,-0.23958 -0.8125,-0.51042 -1.0625,-0.8125c-0.1875,-0.23958 -0.32812,-0.49479 -0.42187,-0.76562c-0.08334,-0.28125 -0.125,-0.59375 -0.125,-0.9375c0,-0.40625 0.08854,-0.78125 0.26563,-1.125c0.1875,-0.34375 0.4375,-0.64062 0.75,-0.89062c0.32291,-0.26042 0.69791,-0.45833 1.125,-0.59375c0.42709,-0.13542 0.88541,-0.20312 1.375,-0.20312c0.45834,0 0.91146,0.0625 1.35938,0.1875c0.45834,0.125 0.88021,0.30729 1.26563,0.54688c0.38541,0.22917 0.70834,0.50521 0.96875,0.82813l-1.09375,1.21875c-0.23959,-0.23958 -0.5,-0.44792 -0.78125,-0.625c-0.28125,-0.17708 -0.56771,-0.3125 -0.85937,-0.40625c-0.28125,-0.10417 -0.53646,-0.15625 -0.76562,-0.15625c-0.26041,0 -0.5,0.02604 -0.71875,0.07813c-0.20834,0.04167 -0.38541,0.11458 -0.53125,0.21875c-0.13541,0.09375 -0.24479,0.21875 -0.32812,0.375c-0.07291,0.14583 -0.10937,0.3125 -0.10937,0.5c0.01041,0.15625 0.05209,0.30729 0.125,0.45313c0.07291,0.14583 0.17188,0.26563 0.29688,0.35938c0.13541,0.10417 0.33854,0.21354 0.60938,0.32813c0.27084,0.10417 0.61979,0.20833 1.04688,0.3125c0.61459,0.15625 1.125,0.33333 1.53125,0.53125c0.40625,0.1875 0.72916,0.40625 0.96875,0.65625c0.25,0.23958 0.42188,0.51563 0.51563,0.82812c0.10416,0.3125 0.15625,0.66146 0.15625,1.04688c0,0.55209 -0.16146,1.05209 -0.48437,1.5c-0.3125,0.4375 -0.73959,0.78125 -1.28125,1.03125c-0.53125,0.25 -1.125,0.375 -1.78125,0.375zM286.56912,161.18362l-3.34375,-9.79687l1.9375,-0.01562l2.39063,7.32812l-0.42187,-0.03125l2.59375,-5.73437h1.15625l2.60938,5.75l-0.5,0.03125l2.40625,-7.32812h1.9375l-3.29687,9.79687h-1.32812l-2.73437,-6.23437l0.4375,0.0625l-2.53125,6.17187zM303.21407,161.37112c-0.95833,0 -1.81771,-0.21875 -2.57812,-0.65625c-0.74998,-0.44791 -1.34372,-1.05208 -1.78122,-1.8125c-0.42708,-0.77083 -0.64062,-1.64583 -0.64062,-2.625c0,-0.97917 0.21354,-1.84896 0.64063,-2.60937c0.4375,-0.77083 1.03124,-1.375 1.78122,-1.8125c0.76042,-0.44792 1.61979,-0.67187 2.57813,-0.67187c0.9375,0 1.78125,0.22396 2.53125,0.67188c0.76042,0.4375 1.35938,1.04167 1.79688,1.8125c0.4375,0.76042 0.65625,1.63021 0.65625,2.60938c0,0.97917 -0.21875,1.85417 -0.65625,2.625c-0.4375,0.76042 -1.03646,1.36459 -1.79687,1.8125c-0.75,0.4375 -1.59375,0.65625 -2.53125,0.65625zM303.21407,159.62112c0.58333,0 1.10417,-0.14583 1.5625,-0.4375c0.45833,-0.29166 0.81771,-0.6875 1.07813,-1.1875c0.26042,-0.51041 0.38542,-1.08333 0.375,-1.71875c0.01042,-0.64583 -0.11458,-1.21875 -0.375,-1.71875c-0.26042,-0.51042 -0.61979,-0.90625 -1.07812,-1.1875c-0.45833,-0.29167 -0.97917,-0.4375 -1.5625,-0.4375c-0.58333,0 -1.10937,0.14583 -1.57812,0.4375c-0.46875,0.29167 -0.83333,0.69271 -1.09375,1.20313c-0.2604,0.5 -0.38539,1.06771 -0.37497,1.70313c-0.01042,0.63542 0.11458,1.20834 0.37497,1.71875c0.26042,0.5 0.625,0.89584 1.09375,1.1875c0.46875,0.29167 0.99479,0.4375 1.57813,0.4375zM310.28146,161.18362v-9.79687h1.9375v3.07813l-0.1875,-0.75c0.13542,-0.46875 0.36979,-0.89583 0.70313,-1.28125c0.33333,-0.38542 0.71354,-0.6875 1.14063,-0.90625c0.42708,-0.22917 0.86979,-0.34375 1.32813,-0.34375c0.20833,0 0.40625,0.02083 0.59375,0.0625c0.19792,0.03125 0.35417,0.07292 0.46875,0.125l-0.5,2.09375c-0.14583,-0.0625 -0.3125,-0.11458 -0.5,-0.15625c-0.17708,-0.05208 -0.35417,-0.07812 -0.53125,-0.07812c-0.33333,0 -0.65104,0.06771 -0.95312,0.20313c-0.30208,0.125 -0.57292,0.30729 -0.8125,0.54688c-0.22917,0.22917 -0.41146,0.49479 -0.54687,0.79688c-0.13542,0.30208 -0.20312,0.63542 -0.20312,1v5.40625zM321.46736,161.37112c-0.89583,0 -1.69271,-0.21875 -2.39062,-0.65625c-0.69792,-0.44791 -1.25521,-1.05208 -1.67187,-1.8125c-0.40625,-0.77083 -0.60937,-1.64583 -0.60937,-2.625c0,-0.97917 0.19792,-1.84896 0.59375,-2.60937c0.40625,-0.77083 0.95833,-1.375 1.65625,-1.8125c0.69792,-0.44792 1.48958,-0.67187 2.375,-0.67187c0.47917,0 0.94792,0.07813 1.40625,0.23438c0.45833,0.15625 0.86458,0.36979 1.21875,0.64063c0.36458,0.26042 0.64583,0.55208 0.84375,0.875c0.20833,0.3125 0.3125,0.63021 0.3125,0.95313l-0.5625,0.04688v-6.5625h1.92188v13.8125h-1.92187v-2.32812h0.375c0,0.29167 -0.09896,0.58854 -0.29687,0.89063c-0.19792,0.29167 -0.46354,0.5625 -0.79687,0.8125c-0.32292,0.23959 -0.70312,0.4375 -1.14062,0.59375c-0.42708,0.14584 -0.86458,0.21875 -1.3125,0.21875zM321.73299,159.71487c0.58333,0 1.09896,-0.15104 1.54688,-0.45312c0.44792,-0.30208 0.79688,-0.70833 1.04688,-1.21875c0.26042,-0.52083 0.39063,-1.10937 0.39063,-1.76562c0,-0.65625 -0.13021,-1.23958 -0.39062,-1.75c-0.25,-0.52083 -0.59896,-0.93229 -1.04687,-1.23437c-0.44792,-0.30208 -0.96354,-0.45312 -1.54687,-0.45312c-0.58333,0 -1.09896,0.15104 -1.54687,0.45313c-0.44792,0.30208 -0.80208,0.71354 -1.0625,1.23438c-0.25,0.51042 -0.375,1.09375 -0.375,1.75c0,0.65625 0.125,1.24479 0.375,1.76562c0.26042,0.51042 0.61458,0.91667 1.0625,1.21875c0.44792,0.30209 0.96354,0.45313 1.54688,0.45313z" fill="#ffffff" stroke="none" stroke-width="1" stroke-linecap="square"/><path d="M169.56797,209.7756c-0.65932,0 -1.26558,-0.11747 -1.8188,-0.35239c-0.55322,-0.23493 -1.03444,-0.57217 -1.44367,-1.01171c-0.40165,-0.43954 -0.71615,-0.95866 -0.9435,-1.55735c-0.21977,-0.59869 -0.32966,-1.25422 -0.32966,-1.96658c0,-0.67447 0.12125,-1.30347 0.36376,-1.88701c0.24251,-0.58353 0.57595,-1.09507 1.00034,-1.53461c0.42439,-0.44712 0.91698,-0.79194 1.47778,-1.03444c0.5608,-0.25009 1.16706,-0.37513 1.8188,-0.37513c0.46228,0 0.91319,0.072 1.35273,0.21598c0.43954,0.13641 0.83741,0.32966 1.19359,0.57974c0.35618,0.25009 0.64795,0.53427 0.8753,0.85256l-0.97761,1.01171c-0.26524,-0.26524 -0.53048,-0.48501 -0.79573,-0.65932c-0.26524,-0.1743 -0.53806,-0.30692 -0.81846,-0.39786c-0.27282,-0.09094 -0.54943,-0.13641 -0.82983,-0.13641c-0.44712,0 -0.86393,0.08336 -1.25043,0.25009c-0.37892,0.16672 -0.71236,0.40165 -1.00034,0.70479c-0.2804,0.29556 -0.50396,0.65174 -0.67068,1.06855c-0.15915,0.40923 -0.23872,0.85635 -0.23872,1.34137c0,0.51533 0.07578,0.98518 0.22735,1.40957c0.15915,0.41681 0.38271,0.77678 0.67068,1.07991c0.29556,0.29556 0.64416,0.52291 1.04581,0.68205c0.40165,0.15915 0.84877,0.23872 1.34137,0.23872c0.29556,0 0.58732,-0.04168 0.8753,-0.12504c0.28798,-0.08336 0.55701,-0.20082 0.80709,-0.35239c0.25766,-0.15157 0.49259,-0.33345 0.70479,-0.54564l0.72752,1.19359c-0.20462,0.25009 -0.4888,0.47365 -0.85256,0.67068c-0.35618,0.19704 -0.75405,0.35239 -1.19359,0.46607c-0.43197,0.11368 -0.87151,0.17051 -1.31863,0.17051zM174.60068,209.63919v-10.04888h1.3982v10.04888zM178.21208,209.63919v-7.12743h1.3982v7.12743zM178.89413,200.94304c-0.29556,0 -0.5267,-0.07578 -0.69342,-0.22735c-0.15915,-0.15915 -0.23872,-0.37892 -0.23872,-0.65932c0,-0.26524 0.08336,-0.47744 0.25009,-0.63658c0.16672,-0.16672 0.39407,-0.25009 0.68205,-0.25009c0.29556,0 0.52291,0.07957 0.68205,0.23872c0.16672,0.15157 0.25009,0.36755 0.25009,0.64795c0,0.26524 -0.08336,0.48123 -0.25009,0.64795c-0.16672,0.15915 -0.39407,0.23872 -0.68205,0.23872zM184.78173,209.7756c-0.65932,0 -1.25043,-0.16294 -1.77333,-0.4888c-0.51533,-0.32587 -0.92456,-0.7692 -1.22769,-1.33c-0.30313,-0.5608 -0.4547,-1.1898 -0.4547,-1.88701c0,-0.69721 0.15157,-1.32621 0.4547,-1.88701c0.30313,-0.5608 0.71236,-1.00413 1.22769,-1.33c0.52291,-0.32587 1.11402,-0.4888 1.77333,-0.4888c0.63658,0 1.21253,0.12883 1.72786,0.3865c0.52291,0.25766 0.92077,0.61006 1.19359,1.05718l-0.77299,0.9435c-0.14399,-0.20462 -0.32966,-0.39407 -0.55701,-0.56838c-0.22735,-0.1743 -0.46986,-0.31071 -0.72752,-0.40923c-0.25009,-0.09852 -0.49259,-0.14778 -0.72752,-0.14778c-0.43197,0 -0.81846,0.1061 -1.15949,0.31829c-0.34103,0.21219 -0.61006,0.50396 -0.80709,0.8753c-0.19704,0.37134 -0.29556,0.78815 -0.29556,1.25043c0,0.46228 0.10231,0.87909 0.30692,1.25043c0.21219,0.36376 0.4888,0.65553 0.82983,0.8753c0.34103,0.21219 0.71994,0.31829 1.13675,0.31829c0.25009,0 0.4888,-0.04168 0.71615,-0.12504c0.22735,-0.08336 0.45091,-0.20462 0.67068,-0.36376c0.21977,-0.16672 0.42439,-0.36755 0.61385,-0.60248l0.77299,0.95487c-0.28798,0.40923 -0.701,0.74647 -1.23906,1.01171c-0.53806,0.25766 -1.09886,0.3865 -1.68239,0.3865zM190.29258,207.41116l-0.06821,-1.52325l3.41025,-3.37615h1.88701zM189.01942,209.63919v-10.04888h1.3982v10.04888zM193.82787,209.63919l-2.6941,-3.13743l0.98897,-0.9094l3.48983,4.04684zM201.41585,209.63919v-8.94623h1.3982v8.94623zM199.9267,203.87586v-1.3641h4.53564v1.3641zM208.87886,209.7756c-0.69721,0 -1.32242,-0.15915 -1.87564,-0.47744c-0.54564,-0.32587 -0.97761,-0.76541 -1.2959,-1.31863c-0.31071,-0.5608 -0.46607,-1.19738 -0.46607,-1.90974c0,-0.71236 0.15535,-1.34516 0.46607,-1.89838c0.31829,-0.5608 0.75026,-1.00034 1.2959,-1.31863c0.55322,-0.32587 1.17843,-0.4888 1.87564,-0.4888c0.68205,0 1.2959,0.16294 1.84154,0.4888c0.55322,0.31829 0.98897,0.75783 1.30726,1.31863c0.31829,0.55322 0.47744,1.18601 0.47744,1.89838c0,0.71236 -0.15915,1.34894 -0.47744,1.90974c-0.31829,0.55322 -0.75405,0.99276 -1.30726,1.31863c-0.54564,0.31829 -1.15949,0.47744 -1.84154,0.47744zM208.87886,208.50244c0.42439,0 0.8033,-0.1061 1.13675,-0.31829c0.33345,-0.21219 0.5949,-0.50017 0.78436,-0.86393c0.18946,-0.37134 0.2804,-0.78815 0.27282,-1.25043c0.00758,-0.46986 -0.08336,-0.88667 -0.27282,-1.25043c-0.18946,-0.37134 -0.45091,-0.65932 -0.78436,-0.86393c-0.33345,-0.21219 -0.71236,-0.31829 -1.13675,-0.31829c-0.42439,0 -0.80709,0.1061 -1.14812,0.31829c-0.34103,0.21219 -0.60627,0.50396 -0.79573,0.8753c-0.18946,0.36376 -0.2804,0.77678 -0.27282,1.23906c-0.00758,0.46228 0.08336,0.87909 0.27282,1.25043c0.18946,0.36376 0.4547,0.65174 0.79573,0.86393c0.34103,0.21219 0.72373,0.31829 1.14812,0.31829zM221.14022,209.7756c-0.72752,0 -1.37547,-0.15535 -1.94385,-0.46607c-0.5608,-0.31071 -1.00413,-0.73889 -1.33,-1.28453c-0.31829,-0.54564 -0.47744,-1.17085 -0.47744,-1.87564c0,-0.5608 0.09094,-1.07234 0.27282,-1.53461c0.18188,-0.46228 0.43197,-0.86014 0.75026,-1.19359c0.31829,-0.34103 0.701,-0.60248 1.14812,-0.78436c0.4547,-0.18946 0.9435,-0.28419 1.46641,-0.28419c0.46228,0 0.89046,0.08715 1.28453,0.26145c0.40165,0.1743 0.74647,0.41681 1.03444,0.72752c0.29556,0.31071 0.52291,0.67826 0.68205,1.10265c0.15915,0.41681 0.23493,0.87151 0.22735,1.3641l-0.01137,0.60248h-5.82017l-0.31829,-1.11402h4.92213l-0.19325,0.22735v-0.31829c-0.03031,-0.30313 -0.13262,-0.57217 -0.30692,-0.80709c-0.16672,-0.23493 -0.38271,-0.4206 -0.64795,-0.55701c-0.26524,-0.13641 -0.54943,-0.20462 -0.85256,-0.20462c-0.49259,0 -0.90561,0.09473 -1.23906,0.28419c-0.33345,0.18188 -0.58732,0.4547 -0.76162,0.81846c-0.16672,0.35618 -0.25009,0.79573 -0.25009,1.31863c0,0.49259 0.10231,0.92456 0.30692,1.2959c0.20462,0.36376 0.49638,0.64795 0.8753,0.85256c0.3865,0.19704 0.82604,0.29556 1.31863,0.29556c0.35618,0 0.68584,-0.05684 0.98897,-0.17051c0.30313,-0.12125 0.63279,-0.33724 0.98897,-0.64795l0.70479,0.98897c-0.21977,0.21977 -0.48501,0.41302 -0.79573,0.57974c-0.31071,0.15915 -0.64037,0.28798 -0.98897,0.3865c-0.3486,0.09094 -0.69342,0.13641 -1.03444,0.13641zM225.77459,209.63919v-7.12743h1.3982v1.46641l-0.25009,0.15915c0.09094,-0.31071 0.26903,-0.59869 0.53427,-0.86393c0.26524,-0.27282 0.57595,-0.49259 0.93214,-0.65932c0.36376,-0.16672 0.7351,-0.25009 1.11402,-0.25009c0.54564,0 0.99655,0.1061 1.35273,0.31829c0.36376,0.21219 0.63658,0.53806 0.81846,0.97761c0.18188,0.43197 0.27282,0.97761 0.27282,1.63692v4.34239h-1.3982v-4.25145c0,-0.40165 -0.05305,-0.7351 -0.15915,-1.00034c-0.1061,-0.27282 -0.27282,-0.46986 -0.50017,-0.59111c-0.22735,-0.12125 -0.50775,-0.1743 -0.8412,-0.15915c-0.27282,0 -0.52291,0.04547 -0.75026,0.13641c-0.22735,0.08336 -0.42439,0.20462 -0.59111,0.36376c-0.16672,0.15157 -0.29935,0.32966 -0.39786,0.53427c-0.09094,0.19704 -0.13641,0.41302 -0.13641,0.64795v4.31966h-0.69342c-0.11368,0 -0.23114,0 -0.35239,0c-0.12125,0 -0.23872,0 -0.35239,0zM234.73707,209.63919v-8.94623h1.3982v8.94623zM233.24793,203.87586v-1.3641h4.53564v1.3641zM242.31377,209.7756c-0.72752,0 -1.37547,-0.15535 -1.94385,-0.46607c-0.5608,-0.31071 -1.00413,-0.73889 -1.33,-1.28453c-0.31829,-0.54564 -0.47744,-1.17085 -0.47744,-1.87564c0,-0.5608 0.09094,-1.07234 0.27282,-1.53461c0.18188,-0.46228 0.43197,-0.86014 0.75026,-1.19359c0.31829,-0.34103 0.701,-0.60248 1.14812,-0.78436c0.4547,-0.18946 0.9435,-0.28419 1.46641,-0.28419c0.46228,0 0.89046,0.08715 1.28453,0.26145c0.40165,0.1743 0.74647,0.41681 1.03444,0.72752c0.29556,0.31071 0.52291,0.67826 0.68205,1.10265c0.15915,0.41681 0.23493,0.87151 0.22735,1.3641l-0.01137,0.60248h-5.82017l-0.31829,-1.11402h4.92213l-0.19325,0.22735v-0.31829c-0.03031,-0.30313 -0.13262,-0.57217 -0.30692,-0.80709c-0.16672,-0.23493 -0.38271,-0.4206 -0.64795,-0.55701c-0.26524,-0.13641 -0.54943,-0.20462 -0.85256,-0.20462c-0.49259,0 -0.90561,0.09473 -1.23906,0.28419c-0.33345,0.18188 -0.58732,0.4547 -0.76162,0.81846c-0.16672,0.35618 -0.25009,0.79573 -0.25009,1.31863c0,0.49259 0.10231,0.92456 0.30692,1.2959c0.20462,0.36376 0.49638,0.64795 0.8753,0.85256c0.3865,0.19704 0.82604,0.29556 1.31863,0.29556c0.35618,0 0.68584,-0.05684 0.98897,-0.17051c0.30313,-0.12125 0.63279,-0.33724 0.98897,-0.64795l0.70479,0.98897c-0.21977,0.21977 -0.48501,0.41302 -0.79573,0.57974c-0.31071,0.15915 -0.64037,0.28798 -0.98897,0.3865c-0.3486,0.09094 -0.69342,0.13641 -1.03444,0.13641zM246.94814,209.63919v-7.12743h1.40957v2.2394l-0.13641,-0.54564c0.09852,-0.34103 0.26903,-0.65174 0.51154,-0.93214c0.24251,-0.2804 0.51912,-0.50017 0.82983,-0.65932c0.31071,-0.16672 0.63279,-0.25009 0.96624,-0.25009c0.15157,0 0.29556,0.01516 0.43197,0.04547c0.14399,0.02274 0.25766,0.05305 0.34103,0.09094l-0.36376,1.52325c-0.1061,-0.04547 -0.22735,-0.08336 -0.36376,-0.11368c-0.12883,-0.03789 -0.25766,-0.05684 -0.3865,-0.05684c-0.24251,0 -0.47365,0.04926 -0.69342,0.14778c-0.21977,0.09094 -0.41681,0.22356 -0.59111,0.39786c-0.16672,0.16672 -0.29935,0.35997 -0.39786,0.57974c-0.09852,0.21977 -0.14778,0.46228 -0.14778,0.72752v3.93316zM256.21837,212.62885v-10.11709h1.40957v1.62555l-0.21598,-0.11368c0.05305,-0.27282 0.20462,-0.53427 0.4547,-0.78436c0.25766,-0.25009 0.56838,-0.4547 0.93214,-0.61385c0.37134,-0.15915 0.75026,-0.23872 1.13675,-0.23872c0.64416,0 1.21253,0.15915 1.70513,0.47744c0.50017,0.31829 0.89424,0.75405 1.18222,1.30726c0.29556,0.55322 0.44333,1.18601 0.44333,1.89838c0,0.70479 -0.14399,1.33758 -0.43197,1.89838c-0.28798,0.55322 -0.68205,0.99276 -1.18222,1.31863c-0.49259,0.31829 -1.0496,0.47744 -1.67102,0.47744c-0.41681,0 -0.82225,-0.08336 -1.21632,-0.25009c-0.3865,-0.16672 -0.71615,-0.38271 -0.98897,-0.64795c-0.27282,-0.26524 -0.43954,-0.53806 -0.50017,-0.81846l0.35239,-0.18188v4.76299zM259.7423,208.46833c0.41681,0 0.78815,-0.10231 1.11402,-0.30692c0.32587,-0.21219 0.58353,-0.49638 0.77299,-0.85256c0.18946,-0.36376 0.28419,-0.77678 0.28419,-1.23906c0,-0.46228 -0.09473,-0.87151 -0.28419,-1.22769c-0.18188,-0.35618 -0.43576,-0.63658 -0.76162,-0.8412c-0.31829,-0.21219 -0.69342,-0.31829 -1.12538,-0.31829c-0.42439,0 -0.79952,0.10231 -1.12538,0.30692c-0.32587,0.20462 -0.58353,0.4888 -0.77299,0.85256c-0.18946,0.35618 -0.28419,0.76541 -0.28419,1.22769c0,0.46228 0.09473,0.8753 0.28419,1.23906c0.18946,0.35618 0.44712,0.64037 0.77299,0.85256c0.32587,0.20462 0.701,0.30692 1.12538,0.30692zM267.52239,209.7756c-0.58353,0 -1.11781,-0.16294 -1.60282,-0.4888c-0.48501,-0.32587 -0.8753,-0.7692 -1.17085,-1.33c-0.28798,-0.5608 -0.43197,-1.19359 -0.43197,-1.89838c0,-0.71994 0.14778,-1.35652 0.44333,-1.90974c0.29556,-0.55322 0.69342,-0.98897 1.19359,-1.30726c0.50775,-0.31829 1.07234,-0.47744 1.69376,-0.47744c0.37134,0 0.70858,0.05684 1.01171,0.17051c0.31071,0.1061 0.57974,0.25766 0.80709,0.4547c0.23493,0.18946 0.42439,0.41302 0.56838,0.67068c0.15157,0.25009 0.24629,0.51912 0.28419,0.80709l-0.30692,-0.10231v-1.85291h1.40957v7.12743h-1.40957v-1.69376l0.31829,-0.10231c-0.05305,0.25009 -0.16294,0.49259 -0.32966,0.72752c-0.16672,0.22735 -0.37892,0.43197 -0.63658,0.61385c-0.25766,0.1743 -0.54185,0.31829 -0.85256,0.43197c-0.31071,0.1061 -0.64037,0.15915 -0.98897,0.15915zM267.88615,208.49107c0.43197,0 0.80709,-0.10231 1.12538,-0.30692c0.32587,-0.21219 0.57974,-0.50017 0.76162,-0.86393c0.18946,-0.37134 0.28419,-0.79194 0.28419,-1.26179c0,-0.46228 -0.09473,-0.8753 -0.28419,-1.23906c-0.18188,-0.36376 -0.43576,-0.64795 -0.76162,-0.85256c-0.31829,-0.21219 -0.69342,-0.31829 -1.12538,-0.31829c-0.41681,0 -0.78436,0.1061 -1.10265,0.31829c-0.31829,0.20462 -0.57217,0.4888 -0.76162,0.85256c-0.18188,0.36376 -0.27282,0.77678 -0.27282,1.23906c0,0.46986 0.09094,0.89046 0.27282,1.26179c0.18946,0.36376 0.44333,0.65174 0.76162,0.86393c0.31829,0.20462 0.68584,0.30692 1.10265,0.30692zM275.75021,209.7756c-0.59869,0 -1.13675,-0.10231 -1.61419,-0.30692c-0.47744,-0.21219 -0.8753,-0.52291 -1.19359,-0.93214l0.9435,-0.80709c0.27282,0.31071 0.56838,0.53806 0.88667,0.68205c0.32587,0.13641 0.69342,0.20462 1.10265,0.20462c0.15915,0 0.30692,-0.01894 0.44333,-0.05684c0.14399,-0.03789 0.26903,-0.09852 0.37513,-0.18188c0.1061,-0.08336 0.18567,-0.18188 0.23872,-0.29556c0.05305,-0.11368 0.07957,-0.23872 0.07957,-0.37513c0,-0.23493 -0.08715,-0.42439 -0.26145,-0.56838c-0.09094,-0.06063 -0.23493,-0.12883 -0.43197,-0.20462c-0.18946,-0.07578 -0.43954,-0.15535 -0.75026,-0.23872c-0.52291,-0.13641 -0.95108,-0.28798 -1.28453,-0.4547c-0.33345,-0.1743 -0.59111,-0.37134 -0.77299,-0.59111c-0.13641,-0.1743 -0.23872,-0.35997 -0.30692,-0.55701c-0.06063,-0.20462 -0.09094,-0.43197 -0.09094,-0.68205c0,-0.29556 0.06441,-0.56838 0.19325,-0.81846c0.13641,-0.25009 0.31829,-0.46607 0.54564,-0.64795c0.23493,-0.18946 0.50775,-0.33345 0.81846,-0.43197c0.31071,-0.09852 0.64416,-0.14778 1.00034,-0.14778c0.33345,0 0.66311,0.04547 0.98897,0.13641c0.33345,0.09094 0.64037,0.22356 0.92077,0.39786c0.2804,0.16672 0.51533,0.36755 0.70479,0.60248l-0.79573,0.88667c-0.1743,-0.1743 -0.36376,-0.32587 -0.56838,-0.4547c-0.20462,-0.12883 -0.41302,-0.22735 -0.62521,-0.29556c-0.20462,-0.07578 -0.39029,-0.11368 -0.55701,-0.11368c-0.18946,0 -0.36376,0.01894 -0.52291,0.05684c-0.15157,0.03031 -0.2804,0.08336 -0.3865,0.15915c-0.09852,0.06821 -0.17809,0.15915 -0.23872,0.27282c-0.05305,0.1061 -0.07957,0.22735 -0.07957,0.36376c0.00758,0.11368 0.03789,0.22356 0.09094,0.32966c0.05305,0.1061 0.12504,0.19325 0.21598,0.26145c0.09852,0.07578 0.24629,0.15535 0.44333,0.23872c0.19704,0.07578 0.45091,0.15157 0.76162,0.22735c0.44712,0.11368 0.81846,0.24251 1.11402,0.3865c0.29556,0.13641 0.53048,0.29556 0.70479,0.47744c0.18188,0.1743 0.30692,0.37513 0.37513,0.60248c0.07578,0.22735 0.11368,0.48123 0.11368,0.76162c0,0.40165 -0.11747,0.76541 -0.35239,1.09128c-0.22735,0.31829 -0.53806,0.56838 -0.93214,0.75026c-0.3865,0.18188 -0.81846,0.27282 -1.2959,0.27282zM282.25158,209.7756c-0.59869,0 -1.13675,-0.10231 -1.61419,-0.30692c-0.47744,-0.21219 -0.8753,-0.52291 -1.19359,-0.93214l0.9435,-0.80709c0.27282,0.31071 0.56838,0.53806 0.88667,0.68205c0.32587,0.13641 0.69342,0.20462 1.10265,0.20462c0.15915,0 0.30692,-0.01894 0.44333,-0.05684c0.14399,-0.03789 0.26903,-0.09852 0.37513,-0.18188c0.1061,-0.08336 0.18567,-0.18188 0.23872,-0.29556c0.05305,-0.11368 0.07957,-0.23872 0.07957,-0.37513c0,-0.23493 -0.08715,-0.42439 -0.26145,-0.56838c-0.09094,-0.06063 -0.23493,-0.12883 -0.43197,-0.20462c-0.18946,-0.07578 -0.43954,-0.15535 -0.75026,-0.23872c-0.52291,-0.13641 -0.95108,-0.28798 -1.28453,-0.4547c-0.33345,-0.1743 -0.59111,-0.37134 -0.77299,-0.59111c-0.13641,-0.1743 -0.23872,-0.35997 -0.30692,-0.55701c-0.06063,-0.20462 -0.09094,-0.43197 -0.09094,-0.68205c0,-0.29556 0.06441,-0.56838 0.19325,-0.81846c0.13641,-0.25009 0.31829,-0.46607 0.54564,-0.64795c0.23493,-0.18946 0.50775,-0.33345 0.81846,-0.43197c0.31071,-0.09852 0.64416,-0.14778 1.00034,-0.14778c0.33345,0 0.66311,0.04547 0.98897,0.13641c0.33345,0.09094 0.64037,0.22356 0.92077,0.39786c0.2804,0.16672 0.51533,0.36755 0.70479,0.60248l-0.79573,0.88667c-0.1743,-0.1743 -0.36376,-0.32587 -0.56838,-0.4547c-0.20462,-0.12883 -0.41302,-0.22735 -0.62521,-0.29556c-0.20462,-0.07578 -0.39029,-0.11368 -0.55701,-0.11368c-0.18946,0 -0.36376,0.01894 -0.52291,0.05684c-0.15157,0.03031 -0.2804,0.08336 -0.3865,0.15915c-0.09852,0.06821 -0.17809,0.15915 -0.23872,0.27282c-0.05305,0.1061 -0.07957,0.22735 -0.07957,0.36376c0.00758,0.11368 0.03789,0.22356 0.09094,0.32966c0.05305,0.1061 0.12504,0.19325 0.21598,0.26145c0.09852,0.07578 0.24629,0.15535 0.44333,0.23872c0.19704,0.07578 0.45091,0.15157 0.76162,0.22735c0.44712,0.11368 0.81846,0.24251 1.11402,0.3865c0.29556,0.13641 0.53048,0.29556 0.70479,0.47744c0.18188,0.1743 0.30692,0.37513 0.37513,0.60248c0.07578,0.22735 0.11368,0.48123 0.11368,0.76162c0,0.40165 -0.11747,0.76541 -0.35239,1.09128c-0.22735,0.31829 -0.53806,0.56838 -0.93214,0.75026c-0.3865,0.18188 -0.81846,0.27282 -1.2959,0.27282zM288.12774,209.63919l-2.43265,-7.12743l1.40957,-0.01137l1.73923,5.33136l-0.30692,-0.02274l1.88701,-4.17188h0.8412l1.89838,4.18325l-0.36376,0.02274l1.7506,-5.33136h1.40957l-2.39855,7.12743h-0.96624l-1.98932,-4.53564l0.31829,0.04547l-1.84154,4.49017zM300.23732,209.7756c-0.69721,0 -1.32242,-0.15915 -1.87564,-0.47744c-0.54564,-0.32587 -0.97761,-0.76541 -1.2959,-1.31863c-0.31071,-0.5608 -0.46607,-1.19738 -0.46607,-1.90974c0,-0.71236 0.15535,-1.34516 0.46607,-1.89838c0.31829,-0.5608 0.75026,-1.00034 1.2959,-1.31863c0.55322,-0.32587 1.17843,-0.4888 1.87564,-0.4888c0.68205,0 1.2959,0.16294 1.84154,0.4888c0.55322,0.31829 0.98897,0.75783 1.30726,1.31863c0.31829,0.55322 0.47744,1.18601 0.47744,1.89838c0,0.71236 -0.15915,1.34894 -0.47744,1.90974c-0.31829,0.55322 -0.75405,0.99276 -1.30726,1.31863c-0.54564,0.31829 -1.15949,0.47744 -1.84154,0.47744zM300.23732,208.50244c0.42439,0 0.8033,-0.1061 1.13675,-0.31829c0.33345,-0.21219 0.5949,-0.50017 0.78436,-0.86393c0.18946,-0.37134 0.2804,-0.78815 0.27282,-1.25043c0.00758,-0.46986 -0.08336,-0.88667 -0.27282,-1.25043c-0.18946,-0.37134 -0.45091,-0.65932 -0.78436,-0.86393c-0.33345,-0.21219 -0.71236,-0.31829 -1.13675,-0.31829c-0.42439,0 -0.80709,0.1061 -1.14812,0.31829c-0.34103,0.21219 -0.60627,0.50396 -0.79573,0.8753c-0.18946,0.36376 -0.2804,0.77678 -0.27282,1.23906c-0.00758,0.46228 0.08336,0.87909 0.27282,1.25043c0.18946,0.36376 0.4547,0.65174 0.79573,0.86393c0.34103,0.21219 0.72373,0.31829 1.14812,0.31829zM305.37897,209.63919v-7.12743h1.40957v2.2394l-0.13641,-0.54564c0.09852,-0.34103 0.26903,-0.65174 0.51154,-0.93214c0.24251,-0.2804 0.51912,-0.50017 0.82983,-0.65932c0.31071,-0.16672 0.63279,-0.25009 0.96624,-0.25009c0.15157,0 0.29556,0.01516 0.43197,0.04547c0.14399,0.02274 0.25766,0.05305 0.34103,0.09094l-0.36376,1.52325c-0.1061,-0.04547 -0.22735,-0.08336 -0.36376,-0.11368c-0.12883,-0.03789 -0.25766,-0.05684 -0.3865,-0.05684c-0.24251,0 -0.47365,0.04926 -0.69342,0.14778c-0.21977,0.09094 -0.41681,0.22356 -0.59111,0.39786c-0.16672,0.16672 -0.29935,0.35997 -0.39786,0.57974c-0.09852,0.21977 -0.14778,0.46228 -0.14778,0.72752v3.93316zM313.51695,209.7756c-0.65174,0 -1.23148,-0.15915 -1.73923,-0.47744c-0.50775,-0.32587 -0.91319,-0.76541 -1.21632,-1.31863c-0.29556,-0.5608 -0.44333,-1.19738 -0.44333,-1.90974c0,-0.71236 0.14399,-1.34516 0.43197,-1.89838c0.29556,-0.5608 0.69721,-1.00034 1.20496,-1.31863c0.50775,-0.32587 1.0837,-0.4888 1.72786,-0.4888c0.3486,0 0.68963,0.05684 1.02308,0.17051c0.33345,0.11368 0.629,0.26903 0.88667,0.46607c0.26524,0.18946 0.46986,0.40165 0.61385,0.63658c0.15157,0.22735 0.22735,0.45849 0.22735,0.69342l-0.40923,0.0341v-4.77436h1.3982v10.04888h-1.3982v-1.69376h0.27282c0,0.21219 -0.072,0.42818 -0.21598,0.64795c-0.14399,0.21219 -0.33724,0.40923 -0.57974,0.59111c-0.23493,0.1743 -0.51154,0.31829 -0.82983,0.43197c-0.31071,0.1061 -0.629,0.15915 -0.95487,0.15915zM313.7102,208.57064c0.42439,0 0.79952,-0.10988 1.12538,-0.32966c0.32587,-0.21977 0.57974,-0.51533 0.76162,-0.88667c0.18946,-0.37892 0.28419,-0.80709 0.28419,-1.28453c0,-0.47744 -0.09473,-0.90182 -0.28419,-1.27316c-0.18188,-0.37892 -0.43576,-0.67826 -0.76162,-0.89803c-0.32587,-0.21977 -0.701,-0.32966 -1.12538,-0.32966c-0.42439,0 -0.79952,0.10988 -1.12538,0.32966c-0.32587,0.21977 -0.58353,0.51912 -0.77299,0.89803c-0.18188,0.37134 -0.27282,0.79573 -0.27282,1.27316c0,0.47744 0.09094,0.90561 0.27282,1.28453c0.18946,0.37134 0.44712,0.66689 0.77299,0.88667c0.32587,0.21977 0.701,0.32966 1.12538,0.32966z" fill="#ffffff" stroke="none" stroke-width="1" stroke-linecap="square"/></g></g></svg>