<svg version="1.1" xmlns="http://www.w3.org/2000/svg" xmlns:xlink="http://www.w3.org/1999/xlink" width="21.58322" height="27.89234" viewBox="0,0,21.58322,27.89234"><g transform="translate(-121.1867,-166.82737)"><g data-paper-data="{&quot;isPaintingLayer&quot;:true}" stroke="none" stroke-width="1" stroke-linecap="square" stroke-linejoin="miter" stroke-miterlimit="10" stroke-dasharray="" stroke-dashoffset="0" style="mix-blend-mode: normal"><path d="M121.18671,168.55141c0,-0.95215 0.41182,-1.72403 0.91982,-1.72403h19.74357c0.24395,0 0.47791,0.18164 0.65041,0.50495c0.1725,0.32331 0.26942,0.76183 0.26942,1.21908v24.44429c0,0.95215 -0.41182,1.72402 -0.91983,1.72402h-19.74357c-0.508,0 -0.91982,-0.77187 -0.91982,-1.72402z" fill-opacity="0.69355" fill="#2d2d2d" fill-rule="evenodd"/><path d="M123.84089,188.18849l6.11534,-15.46974h3.18723l6.08943,15.46974h-3.80913l-2.9022,-7.85148c-0.12092,-0.31095 -0.24185,-0.63917 -0.36277,-0.98467c-0.12092,-0.36277 -0.24185,-0.72555 -0.36277,-1.08832c-0.12092,-0.38005 -0.23321,-0.75146 -0.33686,-1.11424c-0.10365,-0.36277 -0.19866,-0.69964 -0.28504,-1.01059l0.67372,-0.02591c-0.08638,0.38005 -0.19003,0.75146 -0.31095,1.11424c-0.10365,0.3455 -0.21594,0.691 -0.33686,1.0365c-0.10365,0.3455 -0.22457,0.691 -0.36277,1.0365c-0.12092,0.3455 -0.24185,0.69964 -0.36277,1.06241l-2.92811,7.82557zM126.769,185.23447l1.16606,-2.82446h7.12593l1.14015,2.82446z" fill="#ffffff" fill-rule="nonzero"/></g></g></svg>