<svg version="1.1" xmlns="http://www.w3.org/2000/svg" xmlns:xlink="http://www.w3.org/1999/xlink" width="157.51182" height="69.02763" viewBox="0,0,157.51182,69.02763"><g transform="translate(-161.24409,-145.48619)"><g data-paper-data="{&quot;isPaintingLayer&quot;:true}" stroke="none" stroke-width="1" stroke-linecap="square" stroke-linejoin="miter" stroke-miterlimit="10" stroke-dasharray="" stroke-dashoffset="0" style="mix-blend-mode: normal"><path d="M161.24409,156.99103v0c0,-6.35395 5.15088,-11.50485 11.50483,-11.50485h134.50216c3.05126,0 5.97757,1.21212 8.13515,3.3697c2.15756,2.15758 3.36968,5.08387 3.36968,8.13515v46.01794c0,6.35395 -5.1509,11.50484 -11.50483,11.50484h-134.50216c-6.35395,0 -11.50483,-5.15089 -11.50483,-11.50484z" fill="#434343" fill-rule="evenodd"/><path d="M166.80311,167.72227h112.98441v24.55542h-112.98441z" fill-opacity="0" fill="#000000" fill-rule="evenodd"/><path d="M175.48744,183.56483c-0.41398,0 -0.79751,-0.05479 -1.1506,-0.16437c-0.3531,-0.10958 -0.67271,-0.27395 -0.95883,-0.49312c-0.28613,-0.22525 -0.54182,-0.4992 -0.76707,-0.82186l0.8036,-0.93144c0.35918,0.51138 0.7001,0.86447 1.02276,1.05929c0.32874,0.19482 0.71836,0.29222 1.16887,0.29222c0.27395,0 0.52355,-0.04261 0.74881,-0.12784c0.22525,-0.09132 0.4018,-0.21308 0.52964,-0.36527c0.13393,-0.15219 0.2009,-0.3257 0.2009,-0.52051c0,-0.12784 -0.02131,-0.24961 -0.06392,-0.36527c-0.04262,-0.12176 -0.10958,-0.22829 -0.2009,-0.31961c-0.09132,-0.0974 -0.20699,-0.18568 -0.34701,-0.26482c-0.14002,-0.07914 -0.3044,-0.14915 -0.49312,-0.21003c-0.18873,-0.06087 -0.40789,-0.11263 -0.65749,-0.15524c-0.38962,-0.08523 -0.73054,-0.19176 -1.02276,-0.31961c-0.29222,-0.13393 -0.53573,-0.2983 -0.73054,-0.49312c-0.19482,-0.19482 -0.34092,-0.41702 -0.43833,-0.66662c-0.09741,-0.24961 -0.14611,-0.53269 -0.14611,-0.84925c0,-0.3044 0.06696,-0.58748 0.2009,-0.84925c0.14002,-0.26177 0.3257,-0.48703 0.55704,-0.67575c0.23743,-0.19482 0.51442,-0.34396 0.83099,-0.44745c0.32265,-0.10958 0.66966,-0.16437 1.04102,-0.16437c0.39571,0 0.75489,0.05175 1.07755,0.15524c0.32874,0.1035 0.62096,0.25569 0.87665,0.45659c0.25569,0.19482 0.46572,0.43833 0.6301,0.73054l-0.83099,0.82186c-0.14002,-0.24351 -0.30135,-0.44441 -0.48398,-0.6027c-0.18264,-0.16437 -0.38353,-0.28917 -0.6027,-0.3744c-0.21916,-0.08523 -0.4505,-0.12784 -0.69402,-0.12784c-0.28613,0 -0.53573,0.04566 -0.74881,0.13698c-0.20699,0.08523 -0.37136,0.20698 -0.49312,0.36527c-0.12176,0.15219 -0.18264,0.33483 -0.18264,0.54791c0,0.15219 0.03044,0.29222 0.09132,0.42006c0.06087,0.12784 0.14915,0.24047 0.26482,0.33788c0.12176,0.0974 0.28309,0.18568 0.48399,0.26482c0.20698,0.07305 0.4505,0.13698 0.73054,0.19177c0.4018,0.09132 0.75794,0.20394 1.06842,0.33788c0.31656,0.13393 0.58139,0.29222 0.79447,0.47485c0.21916,0.18264 0.38353,0.38658 0.49312,0.61183c0.11567,0.22525 0.17351,0.46877 0.17351,0.73054c0,0.48703 -0.11263,0.91013 -0.33787,1.26932c-0.22525,0.35309 -0.54486,0.62704 -0.95883,0.82186c-0.41398,0.18872 -0.90709,0.28309 -1.47935,0.28309zM182.31852,183.56483c-0.58443,0 -1.10494,-0.1248 -1.56153,-0.3744c-0.4505,-0.24961 -0.80664,-0.59356 -1.06842,-1.03189c-0.25569,-0.43833 -0.38353,-0.94057 -0.38353,-1.50674c0,-0.4505 0.07305,-0.86143 0.21916,-1.23279c0.14611,-0.37136 0.34701,-0.69097 0.6027,-0.95883c0.25569,-0.27395 0.56313,-0.48398 0.92231,-0.63009c0.36527,-0.15219 0.75794,-0.22829 1.178,-0.22829c0.37136,0 0.71532,0.07001 1.03189,0.21003c0.32266,0.14002 0.59965,0.33483 0.83099,0.58443c0.23743,0.24961 0.42006,0.54486 0.54791,0.88579c0.12784,0.33483 0.18873,0.7001 0.18264,1.09581l-0.00913,0.48399h-4.67547l-0.25569,-0.89491h3.95406l-0.15524,0.18264v-0.25569c-0.02435,-0.24351 -0.10654,-0.45963 -0.24656,-0.64835c-0.13393,-0.18872 -0.30744,-0.33787 -0.52051,-0.44745c-0.21307,-0.10958 -0.44137,-0.16437 -0.68488,-0.16437c-0.39571,0 -0.7275,0.0761 -0.99536,0.2283c-0.26786,0.14611 -0.47181,0.36527 -0.61183,0.65749c-0.13393,0.28613 -0.2009,0.63922 -0.2009,1.05929c0,0.39571 0.08219,0.74272 0.24656,1.04102c0.16437,0.29222 0.39875,0.52051 0.70315,0.68489c0.31048,0.15829 0.66358,0.23743 1.05929,0.23743c0.28613,0 0.55095,-0.04566 0.79447,-0.13697c0.24352,-0.0974 0.50833,-0.27091 0.79447,-0.52051l0.56617,0.79447c-0.17655,0.17655 -0.38962,0.33179 -0.63922,0.46572c-0.2496,0.12784 -0.51442,0.23134 -0.79446,0.31048c-0.28004,0.07305 -0.55704,0.10958 -0.83099,0.10958zM188.24217,183.56483c-0.46877,0 -0.89797,-0.13089 -1.28759,-0.39266c-0.38962,-0.26177 -0.70314,-0.61792 -0.94057,-1.06842c-0.23134,-0.4505 -0.34701,-0.95883 -0.34701,-1.525c0,-0.57835 0.11872,-1.08973 0.35614,-1.53414c0.23743,-0.44441 0.55704,-0.79446 0.95884,-1.05015c0.40788,-0.25569 0.86144,-0.38353 1.36064,-0.38353c0.2983,0 0.56922,0.04566 0.81273,0.13698c0.2496,0.08523 0.46572,0.20698 0.64836,0.36527c0.18872,0.15219 0.34092,0.33179 0.45659,0.53878c0.12176,0.2009 0.19785,0.41702 0.2283,0.64836l-0.24656,-0.08218v-1.48848h1.13234v5.72563h-1.13234v-1.36063l0.25569,-0.08218c-0.04262,0.2009 -0.13089,0.39571 -0.26482,0.58443c-0.13393,0.18264 -0.3044,0.34701 -0.51138,0.49312c-0.20699,0.14002 -0.43528,0.25569 -0.68488,0.34701c-0.24961,0.08523 -0.51442,0.12784 -0.79446,0.12784zM188.53439,182.53294c0.34701,0 0.64836,-0.08218 0.90405,-0.24656c0.26177,-0.17046 0.46572,-0.4018 0.61183,-0.69402c0.15219,-0.2983 0.2283,-0.63618 0.2283,-1.01362c0,-0.37136 -0.0761,-0.70314 -0.22829,-0.99536c-0.14611,-0.29222 -0.35005,-0.52051 -0.61183,-0.68488c-0.25569,-0.17046 -0.55704,-0.25569 -0.90404,-0.25569c-0.33483,0 -0.6301,0.08523 -0.88579,0.25569c-0.25569,0.16437 -0.45963,0.39267 -0.61183,0.68489c-0.14611,0.29222 -0.21916,0.62401 -0.21916,0.99537c0,0.37745 0.07305,0.71532 0.21916,1.01363c0.15219,0.29222 0.35614,0.52356 0.61183,0.69402c0.2557,0.16437 0.55096,0.24656 0.88579,0.24656zM192.94322,183.45525v-5.72562h1.13234v1.79896l-0.10958,-0.43833c0.07914,-0.27395 0.21612,-0.52356 0.41093,-0.74881c0.19482,-0.22525 0.41702,-0.4018 0.66662,-0.52964c0.24961,-0.13393 0.50833,-0.2009 0.7762,-0.2009c0.12176,0 0.23743,0.01218 0.34701,0.03653c0.11567,0.01826 0.20698,0.04261 0.27395,0.07305l-0.29222,1.22366c-0.08523,-0.03653 -0.18264,-0.06697 -0.29222,-0.09132c-0.1035,-0.03044 -0.20698,-0.04566 -0.31048,-0.04566c-0.19482,0 -0.38049,0.03957 -0.55704,0.11872c-0.17655,0.07305 -0.33483,0.17959 -0.47485,0.31962c-0.13393,0.13393 -0.24047,0.28917 -0.31961,0.46572c-0.07914,0.17655 -0.11871,0.37136 -0.11871,0.58443v3.1596zM199.5263,183.56483c-0.52964,0 -1.0045,-0.13089 -1.42456,-0.39266c-0.41398,-0.26177 -0.74272,-0.61792 -0.98623,-1.06842c-0.24351,-0.4505 -0.36527,-0.95579 -0.36527,-1.51588c0,-0.56009 0.12176,-1.06537 0.36527,-1.51588c0.24351,-0.4505 0.57225,-0.80664 0.98623,-1.06842c0.42006,-0.26177 0.89491,-0.39266 1.42456,-0.39266c0.51138,0 0.97405,0.1035 1.38803,0.31048c0.42006,0.20698 0.73968,0.49007 0.95884,0.84926l-0.62096,0.75794c-0.11567,-0.16437 -0.26482,-0.31656 -0.44745,-0.45659c-0.18264,-0.14002 -0.37745,-0.24961 -0.58443,-0.32874c-0.2009,-0.07914 -0.39571,-0.11871 -0.58443,-0.11871c-0.34701,0 -0.65749,0.08523 -0.93144,0.25569c-0.27395,0.17046 -0.49007,0.40484 -0.64835,0.70315c-0.15829,0.2983 -0.23743,0.63314 -0.23743,1.0045c0,0.37136 0.08219,0.70619 0.24656,1.0045c0.17046,0.29222 0.39267,0.5266 0.66662,0.70315c0.27395,0.17046 0.57835,0.25569 0.91318,0.25569c0.2009,0 0.39267,-0.03348 0.5753,-0.10045c0.18264,-0.06697 0.36223,-0.16437 0.53878,-0.29222c0.17655,-0.13393 0.34092,-0.29526 0.49312,-0.48398l0.62096,0.76707c-0.23134,0.32874 -0.56313,0.59965 -0.99536,0.81273c-0.43224,0.20698 -0.88273,0.31048 -1.3515,0.31048zM202.93055,183.45525v-8.07249h1.12321v3.52487l-0.2009,0.12784c0.07305,-0.24961 0.21612,-0.48094 0.4292,-0.69402c0.21307,-0.21916 0.46267,-0.39571 0.74881,-0.52964c0.29222,-0.13393 0.59052,-0.2009 0.89491,-0.2009c0.43833,0 0.80055,0.08523 1.08668,0.25569c0.29222,0.17046 0.51138,0.43224 0.65749,0.78533c0.14611,0.34701 0.21916,0.78533 0.21916,1.31498v3.48834h-1.12321v-3.41529c0,-0.32266 -0.04262,-0.59052 -0.12784,-0.8036c-0.08523,-0.21916 -0.21916,-0.37745 -0.4018,-0.47485c-0.18264,-0.0974 -0.40789,-0.14002 -0.67575,-0.12784c-0.21916,0 -0.42006,0.03653 -0.6027,0.10958c-0.18264,0.06697 -0.34092,0.16437 -0.47485,0.29222c-0.13393,0.12176 -0.24047,0.26482 -0.31961,0.4292c-0.07305,0.15829 -0.10958,0.33179 -0.10958,0.52051v3.47008h-0.55704c-0.09132,0 -0.18568,0 -0.28308,0c-0.09741,0 -0.19176,0 -0.28308,0zM209.60068,183.45525v-5.72562h1.12321v5.72563zM210.14858,176.46944c-0.23743,0 -0.42311,-0.06087 -0.55704,-0.18264c-0.12784,-0.12784 -0.19176,-0.3044 -0.19176,-0.52964c0,-0.21308 0.06696,-0.38353 0.2009,-0.51138c0.13393,-0.13393 0.31657,-0.2009 0.54791,-0.2009c0.23743,0 0.42006,0.06393 0.54791,0.19177c0.13393,0.12176 0.2009,0.29526 0.2009,0.52051c0,0.21308 -0.06696,0.38658 -0.2009,0.52051c-0.13393,0.12784 -0.31657,0.19177 -0.54791,0.19177zM212.44916,183.45525v-5.72562h1.12321v1.178l-0.2009,0.12784c0.07305,-0.24961 0.21612,-0.48094 0.4292,-0.69402c0.21307,-0.21916 0.46267,-0.39571 0.74881,-0.52964c0.29222,-0.13393 0.59052,-0.2009 0.89491,-0.2009c0.43833,0 0.80055,0.08523 1.08668,0.25569c0.29222,0.17046 0.51138,0.43224 0.65749,0.78533c0.14611,0.34701 0.21916,0.78533 0.21916,1.31498v3.48834h-1.12321v-3.41529c0,-0.32266 -0.04262,-0.59052 -0.12784,-0.8036c-0.08523,-0.21916 -0.21916,-0.37745 -0.4018,-0.47485c-0.18264,-0.0974 -0.40789,-0.14002 -0.67575,-0.12784c-0.21916,0 -0.42006,0.03653 -0.6027,0.10958c-0.18264,0.06697 -0.34092,0.16437 -0.47485,0.29222c-0.13393,0.12176 -0.24047,0.26482 -0.31961,0.4292c-0.07305,0.15829 -0.10958,0.33179 -0.10958,0.52051v3.47008h-0.55704c-0.09132,0 -0.18568,0 -0.28308,0c-0.09741,0 -0.19176,0 -0.28308,0zM221.50268,185.96648c-0.40789,0 -0.81578,-0.06392 -1.22366,-0.19176c-0.4018,-0.12784 -0.72446,-0.29526 -0.96797,-0.50224l0.41093,-0.86752c0.14611,0.10958 0.31656,0.20394 0.51138,0.28309c0.19481,0.08523 0.4018,0.15219 0.62096,0.2009c0.21916,0.04871 0.43528,0.07305 0.64836,0.07305c0.39571,0 0.7275,-0.06697 0.99537,-0.2009c0.27395,-0.12784 0.4779,-0.31961 0.61183,-0.5753c0.14002,-0.25569 0.21003,-0.57225 0.21003,-0.9497v-1.09581l0.11872,0.07305c-0.03653,0.22525 -0.15524,0.44137 -0.35614,0.64836c-0.2009,0.20698 -0.4505,0.37745 -0.74881,0.51138c-0.29222,0.12784 -0.59661,0.19177 -0.91318,0.19177c-0.54182,0 -1.0258,-0.12784 -1.45195,-0.38353c-0.42615,-0.26177 -0.76402,-0.61488 -1.01362,-1.05929c-0.24352,-0.4505 -0.36527,-0.96188 -0.36527,-1.53414c0,-0.57225 0.12176,-1.08059 0.36527,-1.525c0.24351,-0.4505 0.5753,-0.8036 0.99537,-1.05929c0.42615,-0.26177 0.90709,-0.39266 1.44282,-0.39266c0.21307,0 0.42006,0.0274 0.62096,0.08219c0.20698,0.05479 0.39875,0.13089 0.5753,0.2283c0.17655,0.0974 0.33179,0.20394 0.46572,0.31962c0.14002,0.11567 0.25264,0.24047 0.33788,0.37441c0.09132,0.12784 0.14611,0.24961 0.16437,0.36527l-0.23743,0.09132v-1.34237h1.12321v5.37862c0,0.45659 -0.06697,0.86143 -0.2009,1.21453c-0.13393,0.35309 -0.32874,0.6514 -0.58443,0.89491c-0.25569,0.24351 -0.56617,0.4292 -0.93144,0.55704c-0.35919,0.12784 -0.76707,0.19177 -1.22366,0.19177zM221.53921,182.53294c0.35918,0 0.67575,-0.08218 0.9497,-0.24656c0.28004,-0.17046 0.49616,-0.4018 0.64836,-0.69402c0.15219,-0.29222 0.2283,-0.62704 0.2283,-1.0045c0,-0.37745 -0.07914,-0.71228 -0.23743,-1.0045c-0.15829,-0.2983 -0.3744,-0.52964 -0.64835,-0.69402c-0.26787,-0.17046 -0.58139,-0.25569 -0.94057,-0.25569c-0.34701,0 -0.65749,0.08523 -0.93144,0.25569c-0.27395,0.17046 -0.49007,0.40484 -0.64835,0.70315c-0.1522,0.29222 -0.22829,0.62401 -0.22829,0.99537c0,0.37136 0.0761,0.70619 0.2283,1.0045c0.15828,0.29222 0.37441,0.52356 0.64836,0.69402c0.27395,0.16437 0.58443,0.24656 0.93144,0.24656zM226.46951,183.57396c-0.23743,0 -0.42311,-0.07001 -0.55704,-0.21003c-0.12784,-0.14002 -0.19176,-0.34092 -0.19176,-0.6027c0,-0.24351 0.06697,-0.44137 0.2009,-0.59356c0.14002,-0.15219 0.32266,-0.22829 0.54791,-0.22829c0.24352,0 0.4292,0.07305 0.55704,0.21916c0.13393,0.14002 0.2009,0.34092 0.2009,0.6027c0,0.23743 -0.07001,0.43224 -0.21003,0.58443c-0.14002,0.15219 -0.32265,0.2283 -0.54791,0.2283zM228.51503,183.57396c-0.23743,0 -0.42311,-0.07001 -0.55704,-0.21003c-0.12784,-0.14002 -0.19176,-0.34092 -0.19176,-0.6027c0,-0.24351 0.06697,-0.44137 0.2009,-0.59356c0.14002,-0.15219 0.32266,-0.22829 0.54791,-0.22829c0.24352,0 0.4292,0.07305 0.55704,0.21916c0.13393,0.14002 0.2009,0.34092 0.2009,0.6027c0,0.23743 -0.07001,0.43224 -0.21003,0.58443c-0.14002,0.15219 -0.32265,0.2283 -0.54791,0.2283zM230.57881,183.57396c-0.23743,0 -0.42311,-0.07001 -0.55704,-0.21003c-0.12784,-0.14002 -0.19176,-0.34092 -0.19176,-0.6027c0,-0.24351 0.06697,-0.44137 0.2009,-0.59356c0.14002,-0.15219 0.32266,-0.22829 0.54791,-0.22829c0.24352,0 0.4292,0.07305 0.55704,0.21916c0.13393,0.14002 0.2009,0.34092 0.2009,0.6027c0,0.23743 -0.07001,0.43224 -0.21003,0.58443c-0.14002,0.15219 -0.32265,0.2283 -0.54791,0.2283z" fill="#ffffff" fill-rule="nonzero"/></g></g></svg>