<svg version="1.1" xmlns="http://www.w3.org/2000/svg" xmlns:xlink="http://www.w3.org/1999/xlink" width="507.86575" height="373.565" viewBox="0,0,507.86575,373.565"><g transform="translate(18.11443,6.6803)"><g data-paper-data="{&quot;isPaintingLayer&quot;:true}" stroke="none" stroke-width="1" stroke-linecap="square" stroke-linejoin="miter" stroke-miterlimit="10" stroke-dasharray="" stroke-dashoffset="0" style="mix-blend-mode: normal"><path d="M-18.11443,16.40976c0,-12.7523 9.69038,-23.09006 21.64406,-23.09006h464.57762c5.74037,0 11.24563,2.43269 15.30467,6.76292c4.05907,4.33023 6.3394,10.20326 6.3394,16.32714v327.38488c0,12.7523 -9.69036,23.09006 -21.64407,23.09006h-464.57761c-11.95367,0 -21.64406,-10.33775 -21.64406,-23.09006z" fill="#171717" fill-rule="evenodd"/><path d="M21.25403,31.79965c-0.79403,0 -1.52965,-0.1051 -2.20691,-0.31528c-0.67724,-0.21018 -1.29028,-0.52546 -1.8391,-0.94583c-0.5488,-0.43203 -1.03924,-0.95749 -1.47127,-1.57637l1.54133,-1.78655c0.68893,0.98086 1.34283,1.6581 1.96169,2.03177c0.63055,0.37366 1.37787,0.56049 2.24195,0.56049c0.52546,0 1.0042,-0.08175 1.43624,-0.24521c0.43204,-0.17516 0.77067,-0.40869 1.01588,-0.7006c0.25688,-0.29192 0.38534,-0.6247 0.38534,-0.99836c0,-0.24521 -0.04087,-0.47875 -0.12261,-0.7006c-0.08175,-0.23353 -0.21018,-0.43788 -0.38534,-0.61303c-0.17516,-0.18682 -0.39701,-0.35613 -0.66557,-0.50793c-0.26857,-0.1518 -0.58385,-0.28608 -0.94583,-0.40286c-0.36198,-0.11677 -0.78234,-0.21602 -1.26109,-0.29775c-0.74731,-0.16348 -1.40121,-0.36783 -1.96169,-0.61304c-0.56049,-0.25688 -1.02755,-0.57216 -1.40122,-0.94583c-0.37366,-0.37367 -0.6539,-0.79985 -0.84073,-1.2786c-0.18682,-0.47874 -0.28024,-1.02172 -0.28024,-1.62892c0,-0.58385 0.12844,-1.1268 0.38534,-1.62891c0.26857,-0.5021 0.62472,-0.93415 1.06843,-1.29612c0.45539,-0.37366 0.98669,-0.65972 1.59389,-0.85824c0.61887,-0.21018 1.28444,-0.31528 1.99673,-0.31528c0.75898,0 1.44792,0.09925 2.0668,0.29775c0.63055,0.1985 1.19103,0.49041 1.68145,0.87575c0.49042,0.37367 0.89327,0.84073 1.20855,1.40122l-1.59389,1.57637c-0.26857,-0.46706 -0.578,-0.85239 -0.92829,-1.15601c-0.35031,-0.31528 -0.73564,-0.55464 -1.15601,-0.71811c-0.42037,-0.16348 -0.86409,-0.24521 -1.33115,-0.24521c-0.54881,0 -1.02756,0.08756 -1.43625,0.26272c-0.39701,0.16348 -0.71228,0.39701 -0.94582,0.7006c-0.23353,0.29192 -0.3503,0.64222 -0.3503,1.05091c0,0.29192 0.05838,0.56049 0.17516,0.8057c0.11678,0.24521 0.28608,0.46123 0.50793,0.64805c0.23353,0.18682 0.54297,0.35614 0.92829,0.50793c0.39701,0.14012 0.86408,0.26272 1.40123,0.36782c0.77067,0.17516 1.45376,0.39118 2.04927,0.64806c0.60719,0.25688 1.11514,0.5605 1.52382,0.91079c0.42037,0.35031 0.73564,0.74147 0.94582,1.17351c0.22185,0.43204 0.3328,0.89911 0.3328,1.40122c0,0.93414 -0.21602,1.74568 -0.64806,2.43461c-0.43204,0.67725 -1.04507,1.20271 -1.8391,1.57637c-0.79403,0.36198 -1.73984,0.54297 -2.83746,0.54297zM34.35636,31.79965c-1.12096,0 -2.11933,-0.23936 -2.99508,-0.71811c-0.86408,-0.47875 -1.54717,-1.13848 -2.04927,-1.97921c-0.49042,-0.84072 -0.73565,-1.80407 -0.73565,-2.89c0,-0.86408 0.14013,-1.65226 0.42037,-2.36453c0.28024,-0.71228 0.66557,-1.32533 1.15601,-1.8391c0.49042,-0.52546 1.0801,-0.9283 1.76902,-1.20855c0.7006,-0.29192 1.45376,-0.43788 2.25946,-0.43788c0.71229,0 1.37201,0.13428 1.97921,0.40285c0.61887,0.26857 1.15017,0.64222 1.59388,1.12097c0.45539,0.47875 0.8057,1.04506 1.05091,1.69897c0.24521,0.64222 0.36198,1.34283 0.35031,2.10182l-0.01751,0.9283h-8.96776l-0.49041,-1.71649h7.58405l-0.29775,0.35031v-0.49042c-0.04671,-0.46706 -0.20434,-0.8816 -0.4729,-1.24357c-0.25688,-0.36199 -0.58968,-0.64807 -0.99836,-0.85825c-0.40869,-0.21018 -0.84656,-0.31528 -1.31363,-0.31528c-0.75898,0 -1.39538,0.14595 -1.90915,0.43788c-0.51378,0.28023 -0.90496,0.70059 -1.17352,1.26108c-0.25688,0.5488 -0.38534,1.22606 -0.38534,2.03177c0,0.75898 0.15763,1.42457 0.4729,1.99673c0.31528,0.56049 0.76483,0.99837 1.34867,1.31363c0.59551,0.3036 1.27276,0.45539 2.03176,0.45539c0.54881,0 1.05674,-0.08758 1.5238,-0.26273c0.46706,-0.18682 0.97501,-0.51961 1.52382,-0.99836l1.08593,1.52381c-0.33863,0.33862 -0.74732,0.63639 -1.22606,0.89327c-0.47875,0.24521 -0.98669,0.44372 -1.52381,0.59552c-0.53714,0.14013 -1.06843,0.21018 -1.59389,0.21018zM42.86319,31.58947v-13.78443h2.15436v13.78443zM40.56872,22.70928v-2.10183h6.98855v2.10183zM50.89383,31.58947v-13.78443h2.15435v13.78443zM48.59934,22.70928v-2.10183h6.98855v2.10183zM57.90859,31.58947v-10.982h2.15436v10.982zM58.9595,18.19038c-0.45539,0 -0.81154,-0.11677 -1.06842,-0.35031c-0.24521,-0.24521 -0.36782,-0.58385 -0.36782,-1.01589c0,-0.40869 0.12844,-0.73564 0.38534,-0.98085c0.25688,-0.25688 0.60719,-0.38534 1.05091,-0.38534c0.45539,0 0.8057,0.12262 1.05091,0.36783c0.25688,0.23354 0.38533,0.56631 0.38533,0.99837c0,0.40868 -0.12844,0.74147 -0.38533,0.99837c-0.25688,0.24521 -0.6072,0.36782 -1.05091,0.36782zM63.37211,31.58947v-10.982h2.15436v2.25946l-0.38534,0.24521c0.14013,-0.47875 0.41452,-0.92247 0.82322,-1.33115c0.40868,-0.42037 0.88743,-0.75898 1.43624,-1.01588c0.56049,-0.25689 1.13265,-0.38533 1.71648,-0.38533c0.84073,0 1.5355,0.16348 2.0843,0.49042c0.56049,0.32695 0.98086,0.82905 1.2611,1.5063c0.28024,0.66558 0.42036,1.5063 0.42036,2.52218v6.69079h-2.15436v-6.55067c0,-0.61887 -0.08174,-1.13264 -0.24521,-1.54132c-0.16348,-0.42037 -0.42036,-0.72396 -0.77067,-0.91079c-0.35031,-0.18682 -0.78234,-0.26857 -1.29612,-0.24521c-0.42037,0 -0.8057,0.07005 -1.15601,0.21018c-0.35031,0.12844 -0.6539,0.31529 -0.91078,0.56049c-0.25689,0.23354 -0.46123,0.50793 -0.61303,0.82321c-0.14012,0.30359 -0.21018,0.63638 -0.21018,0.99837v6.65577h-1.06843c-0.17515,0 -0.35613,0 -0.54298,0c-0.18682,0 -0.36782,0 -0.54297,0zM80.73715,36.40612c-0.78235,0 -1.56468,-0.12261 -2.34703,-0.36782c-0.77067,-0.24521 -1.38953,-0.56632 -1.85661,-0.96335l0.78818,-1.66394c0.28024,0.21018 0.60719,0.39118 0.98086,0.54297c0.37366,0.16348 0.77066,0.29192 1.19103,0.38534c0.42037,0.09341 0.83489,0.14012 1.24358,0.14012c0.75898,0 1.39537,-0.12844 1.90915,-0.38533c0.52546,-0.24521 0.91662,-0.61303 1.17352,-1.10345c0.26857,-0.49042 0.40284,-1.09762 0.40284,-1.82158v-2.10181l0.22769,0.14012c-0.07005,0.43203 -0.29775,0.84657 -0.68308,1.24357c-0.38533,0.39701 -0.86409,0.72396 -1.43625,0.98085c-0.56049,0.24521 -1.14431,0.36782 -1.75151,0.36782c-1.03924,0 -1.96754,-0.24521 -2.78491,-0.73565c-0.81737,-0.50211 -1.46543,-1.17935 -1.94418,-2.03176c-0.46706,-0.86408 -0.7006,-1.84493 -0.7006,-2.94254c0,-1.0976 0.23354,-2.07264 0.7006,-2.92503c0.46707,-0.86408 1.10346,-1.54133 1.90915,-2.03176c0.81737,-0.5021 1.73984,-0.75316 2.7674,-0.75316c0.40869,0 0.8057,0.05254 1.19103,0.15764c0.397,0.1051 0.76484,0.25105 1.10345,0.43788c0.33862,0.18682 0.63638,0.39118 0.89327,0.61304c0.26856,0.22185 0.48459,0.46123 0.64805,0.71811c0.17516,0.24521 0.28024,0.47875 0.31528,0.7006l-0.45539,0.17515v-2.57472h2.15436v10.31642c0,0.87576 -0.12843,1.65227 -0.38533,2.32952c-0.25688,0.67724 -0.63054,1.24942 -1.12096,1.71649c-0.49042,0.46706 -1.08594,0.82321 -1.78655,1.06842c-0.68893,0.24521 -1.47127,0.36782 -2.34703,0.36782zM80.80721,29.82043c0.68893,0 1.29613,-0.15765 1.82159,-0.47291c0.53713,-0.32695 0.95165,-0.77067 1.24357,-1.33114c0.29193,-0.56049 0.43787,-1.2027 0.43787,-1.92666c0,-0.72396 -0.15179,-1.3662 -0.45539,-1.92667c-0.30359,-0.57216 -0.71811,-1.01588 -1.24357,-1.33114c-0.51378,-0.32695 -1.11515,-0.49042 -1.80407,-0.49042c-0.66558,0 -1.26109,0.16348 -1.78655,0.49042c-0.52546,0.32695 -0.93999,0.7765 -1.24358,1.34867c-0.29193,0.56049 -0.43787,1.19688 -0.43787,1.90915c0,0.71229 0.14595,1.3545 0.43787,1.92666c0.3036,0.56049 0.71812,1.00421 1.24358,1.33115c0.52546,0.31528 1.12096,0.4729 1.78655,0.4729zM92.8394,31.79965c-0.92248,0 -1.75151,-0.15763 -2.48716,-0.4729c-0.73565,-0.32695 -1.34866,-0.8057 -1.8391,-1.43624l1.45376,-1.24357c0.42037,0.47875 0.87575,0.82906 1.36619,1.05091c0.50211,0.21018 1.06843,0.31528 1.69897,0.31528c0.24521,0 0.47291,-0.02918 0.68309,-0.08756c0.22186,-0.05838 0.41452,-0.1518 0.578,-0.28024c0.16348,-0.12843 0.28608,-0.28024 0.36783,-0.45539c0.08174,-0.17516 0.1226,-0.36782 0.1226,-0.57801c0,-0.36198 -0.13428,-0.6539 -0.40285,-0.87575c-0.14012,-0.09341 -0.36198,-0.19851 -0.66558,-0.31528c-0.29193,-0.11678 -0.67724,-0.23936 -1.156,-0.36782c-0.8057,-0.21018 -1.46544,-0.44372 -1.97921,-0.7006c-0.51378,-0.26857 -0.91079,-0.57217 -1.19103,-0.91079c-0.21018,-0.26857 -0.36782,-0.55465 -0.4729,-0.85824c-0.09341,-0.31528 -0.14012,-0.66558 -0.14012,-1.05091c0,-0.45539 0.09925,-0.87576 0.29775,-1.26109c0.21018,-0.38533 0.49042,-0.71811 0.84073,-0.99836c0.36198,-0.29192 0.78234,-0.51377 1.26109,-0.66557c0.47875,-0.1518 0.99253,-0.22769 1.54134,-0.22769c0.51378,0 1.02172,0.07006 1.5238,0.21018c0.51378,0.14012 0.98671,0.34447 1.41874,0.61303c0.43204,0.25689 0.79403,0.56631 1.08593,0.9283l-1.22606,1.36618c-0.26856,-0.26857 -0.56049,-0.50211 -0.87575,-0.7006c-0.31528,-0.19852 -0.63639,-0.3503 -0.96334,-0.45539c-0.31528,-0.11678 -0.60136,-0.17516 -0.85824,-0.17516c-0.29193,0 -0.56049,0.02919 -0.8057,0.08756c-0.23354,0.0467 -0.43203,0.12845 -0.59551,0.24521c-0.1518,0.1051 -0.27442,0.24521 -0.36782,0.42037c-0.08174,0.16348 -0.1226,0.35032 -0.1226,0.56049c0.01167,0.17516 0.05838,0.34446 0.14012,0.50793c0.08174,0.16348 0.19267,0.29776 0.33279,0.40286c0.1518,0.11678 0.37949,0.23936 0.68309,0.36782c0.3036,0.11678 0.69477,0.23353 1.17352,0.35031c0.68893,0.17516 1.26109,0.37367 1.71648,0.59552c0.45539,0.21018 0.81738,0.45539 1.08594,0.73564c0.28024,0.26857 0.4729,0.578 0.578,0.92829c0.11677,0.35031 0.17516,0.74148 0.17516,1.17353c0,0.61887 -0.181,1.17934 -0.54297,1.68145c-0.35031,0.49042 -0.82905,0.87576 -1.43624,1.15601c-0.59552,0.28024 -1.2611,0.42036 -1.99674,0.42036z" fill="#ffffff" fill-rule="nonzero"/></g></g></svg>