<svg xmlns="http://www.w3.org/2000/svg" xmlns:xlink="http://www.w3.org/1999/xlink" stroke-miterlimit="10" stroke-linecap="square" stroke="none" fill="none" viewBox="0.0 0.0 960.0 720.0" version="1.1"><clipPath id="p.0"><path clip-rule="nonzero" d="m0 0l960.0 0l0 720.0l-960.0 0l0 -720.0z"></path></clipPath><g clip-path="url(#p.0)"><path fill-rule="evenodd" d="m0 0l960.0 0l0 720.0l-960.0 0z" fill-opacity="0.0" fill="#000000"></path><path fill-rule="evenodd" d="m122.85827 140.95276l318.07874 0l0 42.015747l-318.07874 0z" fill-opacity="0.0" fill="#000000"></path><path fill-rule="nonzero" d="m133.68639 167.87276l0 -13.0625l5.3125 0q1.0625 0 1.921875 0.53125q0.875 0.53125 1.390625 1.453125q0.53125 0.90625 0.53125 2.03125q0 1.125 -0.53125 2.046875q-0.515625 0.90625 -1.390625 1.453125q-0.859375 0.546875 -1.921875 0.546875l-3.296875 0l0 5.0l-2.015625 0zm2.015625 -6.9375l3.265625 0q0.5 0 0.90625 -0.28125q0.421875 -0.296875 0.671875 -0.765625q0.25 -0.484375 0.25 -1.0625q0 -0.578125 -0.25 -1.046875q-0.25 -0.46875 -0.671875 -0.75q-0.40625 -0.28125 -0.90625 -0.28125l-3.265625 0l0 4.1875zm13.547638 7.125q-1.4375 0 -2.578125 -0.65625q-1.125 -0.671875 -1.78125 -1.8125q-0.640625 -1.15625 -0.640625 -2.625q0 -1.46875 0.640625 -2.609375q0.65625 -1.15625 1.78125 -1.8125q1.140625 -0.671875 2.578125 -0.671875q1.40625 0 2.53125 0.671875q1.140625 0.65625 1.796875 1.8125q0.65625 1.140625 0.65625 2.609375q0 1.46875 -0.65625 2.625q-0.65625 1.140625 -1.796875 1.8125q-1.125 0.65625 -2.53125 0.65625zm0 -1.75q0.875 0 1.5625 -0.4375q0.6875 -0.4375 1.078125 -1.1875q0.390625 -0.765625 0.375 -1.71875q0.015625 -0.96875 -0.375 -1.71875q-0.390625 -0.765625 -1.078125 -1.1875q-0.6875 -0.4375 -1.5625 -0.4375q-0.875 0 -1.578125 0.4375q-0.703125 0.4375 -1.09375 1.203125q-0.390625 0.75 -0.375 1.703125q-0.015625 0.953125 0.375 1.71875q0.390625 0.75 1.09375 1.1875q0.703125 0.4375 1.578125 0.4375zm9.1002655 1.5625l-3.34375 -9.796875l1.9375 -0.015625l2.390625 7.328125l-0.421875 -0.03125l2.59375 -5.734375l1.15625 0l2.609375 5.75l-0.5 0.03125l2.40625 -7.328125l1.9375 0l-3.296875 9.796875l-1.328125 0l-2.734375 -6.234375l0.4375 0.0625l-2.53125 6.171875l-1.3125 0zm16.801239 0.1875q-1.5 0 -2.671875 -0.640625q-1.15625 -0.640625 -1.828125 -1.765625q-0.65625 -1.125 -0.65625 -2.578125q0 -1.15625 0.375 -2.109375q0.375 -0.953125 1.03125 -1.640625q0.65625 -0.703125 1.578125 -1.078125q0.9375 -0.390625 2.015625 -0.390625q0.953125 0 1.765625 0.359375q0.828125 0.359375 1.421875 1.0q0.609375 0.640625 0.9375 1.515625q0.328125 0.859375 0.3125 1.875l-0.015625 0.828125l-8.0 0l-0.4375 -1.53125l6.765625 0l-0.265625 0.3125l0 -0.4375q-0.0625 -0.625 -0.421875 -1.109375q-0.34375 -0.484375 -0.890625 -0.765625q-0.546875 -0.28125 -1.171875 -0.28125q-1.015625 0 -1.703125 0.390625q-0.6875 0.375 -1.046875 1.125q-0.34375 0.734375 -0.34375 1.8125q0 1.015625 0.421875 1.78125q0.421875 0.75 1.203125 1.171875q0.796875 0.40625 1.8125 0.40625q0.734375 0 1.359375 -0.234375q0.625 -0.25 1.359375 -0.890625l0.96875 1.359375q-0.453125 0.453125 -1.09375 0.796875q-0.640625 0.328125 -1.359375 0.53125q-0.71875 0.1875 -1.421875 0.1875zm6.3700714 -0.1875l0 -9.796875l1.9375 0l0 3.078125l-0.1875 -0.75q0.203125 -0.703125 0.703125 -1.28125q0.5 -0.578125 1.140625 -0.90625q0.640625 -0.34375 1.328125 -0.34375q0.3125 0 0.59375 0.0625q0.296875 0.046875 0.46875 0.125l-0.5 2.09375q-0.21875 -0.09375 -0.5 -0.15625q-0.265625 -0.078125 -0.53125 -0.078125q-0.5 0 -0.953125 0.203125q-0.453125 0.1875 -0.8125 0.546875q-0.34375 0.34375 -0.546875 0.796875q-0.203125 0.453125 -0.203125 1.0l0 5.40625l-1.9375 0zm18.695343 0.1875q-1.390625 0 -2.5625 -0.5q-1.15625 -0.515625 -2.03125 -1.40625q-0.859375 -0.90625 -1.34375 -2.125q-0.46875 -1.234375 -0.46875 -2.6875q0 -1.453125 0.46875 -2.671875q0.484375 -1.21875 1.34375 -2.125q0.875 -0.90625 2.03125 -1.40625q1.171875 -0.515625 2.5625 -0.515625q1.375 0 2.53125 0.515625q1.171875 0.5 2.046875 1.421875q0.875 0.90625 1.34375 2.125q0.46875 1.21875 0.46875 2.65625q0 1.4375 -0.46875 2.65625q-0.46875 1.21875 -1.34375 2.140625q-0.875 0.90625 -2.046875 1.421875q-1.15625 0.5 -2.53125 0.5zm0 -1.953125q0.953125 0 1.734375 -0.359375q0.796875 -0.359375 1.375 -1.0q0.578125 -0.640625 0.90625 -1.5q0.328125 -0.875 0.328125 -1.90625q0 -1.03125 -0.328125 -1.890625q-0.328125 -0.875 -0.90625 -1.515625q-0.578125 -0.640625 -1.375 -0.984375q-0.78125 -0.359375 -1.734375 -0.359375q-0.953125 0 -1.75 0.359375q-0.796875 0.34375 -1.390625 0.984375q-0.578125 0.625 -0.890625 1.5q-0.3125 0.859375 -0.3125 1.90625q0 1.03125 0.3125 1.90625q0.3125 0.875 0.890625 1.515625q0.59375 0.625 1.390625 0.984375q0.796875 0.359375 1.75 0.359375zm8.636063 5.875l0 -13.90625l1.9375 0l0 2.234375l-0.296875 -0.15625q0.109375 -0.5625 0.625 -1.078125q0.53125 -0.515625 1.28125 -0.84375q0.765625 -0.328125 1.5625 -0.328125q1.328125 0 2.34375 0.65625q1.03125 0.65625 1.625 1.796875q0.609375 1.140625 0.609375 2.609375q0 1.453125 -0.59375 2.609375q-0.59375 1.140625 -1.625 1.8125q-1.015625 0.65625 -2.296875 0.65625q-0.859375 0 -1.671875 -0.34375q-0.796875 -0.34375 -1.359375 -0.890625q-0.5625 -0.546875 -0.6875 -1.125l0.484375 -0.25l0 6.546875l-1.9375 0zm4.84375 -5.71875q0.859375 0 1.53125 -0.421875q0.671875 -0.4375 1.0625 -1.171875q0.390625 -0.75 0.390625 -1.703125q0 -0.953125 -0.390625 -1.6875q-0.375 -0.734375 -1.046875 -1.15625q-0.65625 -0.4375 -1.546875 -0.4375q-0.875 0 -1.546875 0.421875q-0.671875 0.421875 -1.0625 1.171875q-0.390625 0.734375 -0.390625 1.6875q0 0.953125 0.390625 1.703125q0.390625 0.734375 1.0625 1.171875q0.671875 0.421875 1.546875 0.421875zm8.147095 1.609375l0 -12.296875l1.921875 0l0 12.296875l-1.921875 0zm-2.046875 -7.921875l0 -1.875l6.234375 0l0 1.875l-6.234375 0zm8.304626 7.921875l0 -9.796875l1.921875 0l0 9.796875l-1.921875 0zm0.9375 -11.953125q-0.609375 0 -0.953125 -0.3125q-0.328125 -0.328125 -0.328125 -0.90625q0 -0.546875 0.34375 -0.875q0.34375 -0.34375 0.9375 -0.34375q0.609375 0 0.9375 0.328125q0.34375 0.3125 0.34375 0.890625q0 0.546875 -0.34375 0.890625q-0.34375 0.328125 -0.9375 0.328125zm8.342682 12.140625q-1.4375 0 -2.578125 -0.65625q-1.125 -0.671875 -1.78125 -1.8125q-0.640625 -1.15625 -0.640625 -2.625q0 -1.46875 0.640625 -2.609375q0.65625 -1.15625 1.78125 -1.8125q1.140625 -0.671875 2.578125 -0.671875q1.40625 0 2.53125 0.671875q1.140625 0.65625 1.796875 1.8125q0.65625 1.140625 0.65625 2.609375q0 1.46875 -0.65625 2.625q-0.65625 1.140625 -1.796875 1.8125q-1.125 0.65625 -2.53125 0.65625zm0 -1.75q0.875 0 1.5625 -0.4375q0.6875 -0.4375 1.078125 -1.1875q0.390625 -0.765625 0.375 -1.71875q0.015625 -0.96875 -0.375 -1.71875q-0.390625 -0.765625 -1.078125 -1.1875q-0.6875 -0.4375 -1.5625 -0.4375q-0.875 0 -1.578125 0.4375q-0.703125 0.4375 -1.09375 1.203125q-0.390625 0.75 -0.375 1.703125q-0.015625 0.953125 0.375 1.71875q0.390625 0.75 1.09375 1.1875q0.703125 0.4375 1.578125 0.4375zm7.0673523 1.5625l0 -9.796875l1.921875 0l0 2.015625l-0.34375 0.21875q0.1875 -0.640625 0.734375 -1.1875q0.546875 -0.5625 1.28125 -0.90625q0.75 -0.34375 1.53125 -0.34375q1.125 0 1.859375 0.4375q0.75 0.4375 1.125 1.34375q0.375 0.890625 0.375 2.25l0 5.96875l-1.921875 0l0 -5.84375q0 -0.828125 -0.21875 -1.375q-0.21875 -0.5625 -0.6875 -0.8125q-0.46875 -0.25 -1.15625 -0.21875q-0.5625 0 -1.03125 0.1875q-0.46875 0.171875 -0.8125 0.5q-0.34375 0.3125 -0.546875 0.734375q-0.1875 0.40625 -0.1875 0.890625l0 5.9375l-0.953125 0q-0.234375 0 -0.484375 0q-0.25 0 -0.484375 0zm14.366089 0.1875q-1.234375 0 -2.21875 -0.421875q-0.984375 -0.4375 -1.640625 -1.28125l1.296875 -1.109375q0.5625 0.640625 1.21875 0.9375q0.671875 0.28125 1.515625 0.28125q0.328125 0 0.609375 -0.078125q0.296875 -0.078125 0.515625 -0.25q0.21875 -0.171875 0.328125 -0.40625q0.109375 -0.234375 0.109375 -0.515625q0 -0.484375 -0.359375 -0.78125q-0.1875 -0.125 -0.59375 -0.28125q-0.390625 -0.15625 -1.03125 -0.328125q-1.078125 -0.28125 -1.765625 -0.625q-0.6875 -0.359375 -1.0625 -0.8125q-0.28125 -0.359375 -0.421875 -0.765625q-0.125 -0.421875 -0.125 -0.9375q0 -0.609375 0.265625 -1.125q0.28125 -0.515625 0.75 -0.890625q0.484375 -0.390625 1.125 -0.59375q0.640625 -0.203125 1.375 -0.203125q0.6875 0 1.359375 0.1875q0.6875 0.1875 1.265625 0.546875q0.578125 0.34375 0.96875 0.828125l-1.09375 1.21875q-0.359375 -0.359375 -0.78125 -0.625q-0.421875 -0.265625 -0.859375 -0.40625q-0.421875 -0.15625 -0.765625 -0.15625q-0.390625 0 -0.71875 0.078125q-0.3125 0.0625 -0.53125 0.21875q-0.203125 0.140625 -0.328125 0.375q-0.109375 0.21875 -0.109375 0.5q0.015625 0.234375 0.125 0.453125q0.109375 0.21875 0.296875 0.359375q0.203125 0.15625 0.609375 0.328125q0.40625 0.15625 1.046875 0.3125q0.921875 0.234375 1.53125 0.53125q0.609375 0.28125 0.96875 0.65625q0.375 0.359375 0.515625 0.828125q0.15625 0.46875 0.15625 1.046875q0 0.828125 -0.484375 1.5q-0.46875 0.65625 -1.28125 1.03125q-0.796875 0.375 -1.78125 0.375z" fill="#ffffff"></path><path fill-rule="evenodd" d="m145.52493 219.8084l318.07874 0l0 42.015762l-318.07874 0z" fill-opacity="0.0" fill="#000000"></path><path fill-rule="nonzero" d="m156.35306 246.7284l0 -13.0625l2.015625 0l0 11.125l6.125 0l0 1.9375l-8.140625 0zm14.723633 0.1875q-1.4375 0 -2.578125 -0.65625q-1.125 -0.671875 -1.78125 -1.8125q-0.640625 -1.15625 -0.640625 -2.625q0 -1.46875 0.640625 -2.609375q0.65625 -1.15625 1.78125 -1.8125q1.140625 -0.671875 2.578125 -0.671875q1.40625 0 2.53125 0.671875q1.140625 0.65625 1.796875 1.8125q0.65625 1.140625 0.65625 2.609375q0 1.46875 -0.65625 2.625q-0.65625 1.140625 -1.796875 1.8125q-1.125 0.65625 -2.53125 0.65625zm0 -1.75q0.875 0 1.5625 -0.4375q0.6875 -0.4375 1.078125 -1.1875q0.390625 -0.765625 0.375 -1.71875q0.015625 -0.96875 -0.375 -1.71875q-0.390625 -0.765625 -1.078125 -1.1875q-0.6875 -0.4375 -1.5625 -0.4375q-0.875 0 -1.578125 0.4375q-0.703125 0.4375 -1.09375 1.203125q-0.390625 0.75 -0.375 1.703125q-0.015625 0.953125 0.375 1.71875q0.390625 0.75 1.09375 1.1875q0.703125 0.4375 1.578125 0.4375zm11.223602 1.75q-1.359375 0 -2.4375 -0.671875q-1.0625 -0.671875 -1.6875 -1.828125q-0.625 -1.15625 -0.625 -2.59375q0 -1.4375 0.625 -2.59375q0.625 -1.15625 1.6875 -1.828125q1.078125 -0.671875 2.4375 -0.671875q1.3125 0 2.375 0.53125q1.078125 0.53125 1.640625 1.453125l-1.0625 1.296875q-0.296875 -0.421875 -0.765625 -0.78125q-0.46875 -0.359375 -1.0 -0.5625q-0.515625 -0.203125 -1.0 -0.203125q-0.890625 0 -1.59375 0.4375q-0.703125 0.4375 -1.109375 1.203125q-0.40625 0.765625 -0.40625 1.71875q0 0.953125 0.421875 1.71875q0.4375 0.75 1.140625 1.203125q0.703125 0.4375 1.5625 0.4375q0.515625 0 0.984375 -0.171875q0.46875 -0.171875 0.921875 -0.5q0.453125 -0.34375 0.84375 -0.828125l1.0625 1.3125q-0.59375 0.84375 -1.703125 1.390625q-1.109375 0.53125 -2.3125 0.53125zm7.5748444 -3.25l-0.09375 -2.09375l4.6875 -4.640625l2.59375 0l-7.1875 6.734375zm-1.75 3.0625l0 -13.8125l1.921875 0l0 13.8125l-1.921875 0zm6.609375 0l-3.703125 -4.3125l1.359375 -1.25l4.796875 5.5625l-2.453125 0z" fill="#ffffff"></path><path fill-rule="evenodd" d="m287.23883 219.8084l318.07874 0l0 42.015762l-318.07874 0z" fill-opacity="0.0" fill="#000000"></path><path fill-rule="nonzero" d="m298.06696 246.7284l0 -13.0625l5.5625 0q1.109375 0 2.046875 0.5625q0.953125 0.546875 1.515625 1.484375q0.5625 0.9375 0.5625 2.109375q0 1.078125 -0.5625 2.0q-0.5625 0.90625 -1.5 1.453125q-0.921875 0.546875 -2.0625 0.546875l-3.546875 0l0 4.90625l-2.015625 0zm7.765625 0l-3.328125 -5.890625l2.078125 -0.46875l3.6875 6.375l-2.4375 -0.015625zm-5.75 -6.84375l3.734375 0q0.53125 0 0.953125 -0.265625q0.4375 -0.28125 0.671875 -0.75q0.25 -0.484375 0.25 -1.0625q0 -0.65625 -0.3125 -1.140625q-0.296875 -0.5 -0.84375 -0.78125q-0.546875 -0.28125 -1.25 -0.28125l-3.203125 0l0 4.28125zm14.655273 7.03125q-1.5 0 -2.671875 -0.640625q-1.15625 -0.640625 -1.828125 -1.765625q-0.65625 -1.125 -0.65625 -2.578125q0 -1.15625 0.375 -2.109375q0.375 -0.953125 1.03125 -1.640625q0.65625 -0.703125 1.578125 -1.078125q0.9375 -0.390625 2.015625 -0.390625q0.953125 0 1.765625 0.359375q0.828125 0.359375 1.421875 1.0q0.609375 0.640625 0.9375 1.515625q0.328125 0.859375 0.3125 1.875l-0.015625 0.828125l-8.0 0l-0.4375 -1.53125l6.765625 0l-0.265625 0.3125l0 -0.4375q-0.0625 -0.625 -0.421875 -1.109375q-0.34375 -0.484375 -0.890625 -0.765625q-0.546875 -0.28125 -1.171875 -0.28125q-1.015625 0 -1.703125 0.390625q-0.6875 0.375 -1.046875 1.125q-0.34375 0.734375 -0.34375 1.8125q0 1.015625 0.421875 1.78125q0.421875 0.75 1.203125 1.171875q0.796875 0.40625 1.8125 0.40625q0.734375 0 1.359375 -0.234375q0.625 -0.25 1.359375 -0.890625l0.96875 1.359375q-0.453125 0.453125 -1.09375 0.796875q-0.640625 0.328125 -1.359375 0.53125q-0.71875 0.1875 -1.421875 0.1875zm9.635681 0q-1.234375 0 -2.21875 -0.421875q-0.984375 -0.4375 -1.640625 -1.28125l1.296875 -1.109375q0.5625 0.640625 1.21875 0.9375q0.671875 0.28125 1.515625 0.28125q0.328125 0 0.609375 -0.078125q0.296875 -0.078125 0.515625 -0.25q0.21875 -0.171875 0.328125 -0.40625q0.109375 -0.234375 0.109375 -0.515625q0 -0.484375 -0.359375 -0.78125q-0.1875 -0.125 -0.59375 -0.28125q-0.390625 -0.15625 -1.03125 -0.328125q-1.078125 -0.28125 -1.765625 -0.625q-0.6875 -0.359375 -1.0625 -0.8125q-0.28125 -0.359375 -0.421875 -0.765625q-0.125 -0.421875 -0.125 -0.9375q0 -0.609375 0.265625 -1.125q0.28125 -0.515625 0.75 -0.890625q0.484375 -0.390625 1.125 -0.59375q0.640625 -0.203125 1.375 -0.203125q0.6875 0 1.359375 0.1875q0.6875 0.1875 1.265625 0.546875q0.578125 0.34375 0.96875 0.828125l-1.09375 1.21875q-0.359375 -0.359375 -0.78125 -0.625q-0.421875 -0.265625 -0.859375 -0.40625q-0.421875 -0.15625 -0.765625 -0.15625q-0.390625 0 -0.71875 0.078125q-0.3125 0.0625 -0.53125 0.21875q-0.203125 0.140625 -0.328125 0.375q-0.109375 0.21875 -0.109375 0.5q0.015625 0.234375 0.125 0.453125q0.109375 0.21875 0.296875 0.359375q0.203125 0.15625 0.609375 0.328125q0.40625 0.15625 1.046875 0.3125q0.921875 0.234375 1.53125 0.53125q0.609375 0.28125 0.96875 0.65625q0.375 0.359375 0.515625 0.828125q0.15625 0.46875 0.15625 1.046875q0 0.828125 -0.484375 1.5q-0.46875 0.65625 -1.28125 1.03125q-0.796875 0.375 -1.78125 0.375zm6.8894653 -0.1875l0 -12.296875l1.921875 0l0 12.296875l-1.921875 0zm-2.046875 -7.921875l0 -1.875l6.234375 0l0 1.875l-6.234375 0zm11.664429 8.109375q-1.203125 0 -2.203125 -0.671875q-1.0 -0.671875 -1.609375 -1.828125q-0.59375 -1.15625 -0.59375 -2.609375q0 -1.484375 0.609375 -2.625q0.609375 -1.140625 1.640625 -1.796875q1.046875 -0.65625 2.328125 -0.65625q0.765625 0 1.390625 0.234375q0.640625 0.21875 1.109375 0.625q0.484375 0.390625 0.78125 0.921875q0.3125 0.515625 0.390625 1.109375l-0.421875 -0.140625l0 -2.546875l1.9375 0l0 9.796875l-1.9375 0l0 -2.328125l0.4375 -0.140625q-0.109375 0.515625 -0.453125 1.0q-0.34375 0.46875 -0.875 0.84375q-0.53125 0.359375 -1.171875 0.59375q-0.640625 0.21875 -1.359375 0.21875zm0.5 -1.765625q0.890625 0 1.546875 -0.421875q0.671875 -0.4375 1.046875 -1.1875q0.390625 -0.765625 0.390625 -1.734375q0 -0.953125 -0.390625 -1.703125q-0.375 -0.75 -1.046875 -1.171875q-0.65625 -0.4375 -1.546875 -0.4375q-0.859375 0 -1.515625 0.4375q-0.65625 0.421875 -1.046875 1.171875q-0.375 0.75 -0.375 1.703125q0 0.96875 0.375 1.734375q0.390625 0.75 1.046875 1.1875q0.65625 0.421875 1.515625 0.421875zm7.543762 1.578125l0 -9.796875l1.9375 0l0 3.078125l-0.1875 -0.75q0.203125 -0.703125 0.703125 -1.28125q0.5 -0.578125 1.140625 -0.90625q0.640625 -0.34375 1.328125 -0.34375q0.3125 0 0.59375 0.0625q0.296875 0.046875 0.46875 0.125l-0.5 2.09375q-0.21875 -0.09375 -0.5 -0.15625q-0.265625 -0.078125 -0.53125 -0.078125q-0.5 0 -0.953125 0.203125q-0.453125 0.1875 -0.8125 0.546875q-0.34375 0.34375 -0.546875 0.796875q-0.203125 0.453125 -0.203125 1.0l0 5.40625l-1.9375 0zm9.110535 0l0 -12.296875l1.921875 0l0 12.296875l-1.921875 0zm-2.046875 -7.921875l0 -1.875l6.234375 0l0 1.875l-6.234375 0z" fill="#ffffff"></path><path fill-rule="evenodd" d="m205.14436 270.09448l318.07874 0l0 42.015747l-318.07874 0z" fill-opacity="0.0" fill="#000000"></path><path fill-rule="nonzero" d="m220.00374 297.202q-1.0625 0 -1.96875 -0.28125q-0.90625 -0.28125 -1.640625 -0.84375q-0.734375 -0.578125 -1.3125 -1.40625l1.375 -1.59375q0.921875 1.3125 1.75 1.8125q0.84375 0.5 2.0 0.5q0.703125 0 1.28125 -0.21875q0.578125 -0.234375 0.90625 -0.625q0.34375 -0.390625 0.34375 -0.890625q0 -0.328125 -0.109375 -0.625q-0.109375 -0.3125 -0.34375 -0.546875q-0.234375 -0.25 -0.59375 -0.453125q-0.359375 -0.203125 -0.84375 -0.359375q-0.484375 -0.15625 -1.125 -0.265625q-1.0 -0.21875 -1.75 -0.546875q-0.75 -0.34375 -1.25 -0.84375q-0.5 -0.5 -0.75 -1.140625q-0.25 -0.640625 -0.25 -1.453125q0 -0.78125 0.34375 -1.453125q0.359375 -0.671875 0.953125 -1.15625q0.609375 -0.5 1.421875 -0.765625q0.828125 -0.28125 1.78125 -0.28125q1.015625 0 1.84375 0.265625q0.84375 0.265625 1.5 0.78125q0.65625 0.5 1.078125 1.25l-1.421875 1.40625q-0.359375 -0.625 -0.828125 -1.03125q-0.46875 -0.421875 -1.03125 -0.640625q-0.5625 -0.21875 -1.1875 -0.21875q-0.734375 0 -1.28125 0.234375q-0.53125 0.21875 -0.84375 0.625q-0.3125 0.390625 -0.3125 0.9375q0 0.390625 0.15625 0.71875q0.15625 0.328125 0.453125 0.578125q0.3125 0.25 0.828125 0.453125q0.53125 0.1875 1.25 0.328125q1.03125 0.234375 1.828125 0.578125q0.8125 0.34375 1.359375 0.8125q0.5625 0.46875 0.84375 1.046875q0.296875 0.578125 0.296875 1.25q0 1.25 -0.578125 2.171875q-0.578125 0.90625 -1.640625 1.40625q-1.0625 0.484375 -2.53125 0.484375zm7.125885 -0.1875l0 -13.8125l1.921875 0l0 6.03125l-0.34375 0.21875q0.1875 -0.640625 0.734375 -1.1875q0.546875 -0.5625 1.28125 -0.90625q0.75 -0.34375 1.53125 -0.34375q1.125 0 1.859375 0.4375q0.75 0.4375 1.125 1.34375q0.375 0.890625 0.375 2.25l0 5.96875l-1.921875 0l0 -5.84375q0 -0.828125 -0.21875 -1.375q-0.21875 -0.5625 -0.6875 -0.8125q-0.46875 -0.25 -1.15625 -0.21875q-0.5625 0 -1.03125 0.1875q-0.46875 0.171875 -0.8125 0.5q-0.34375 0.3125 -0.546875 0.734375q-0.1875 0.40625 -0.1875 0.890625l0 5.9375l-0.953125 0q-0.234375 0 -0.484375 0q-0.25 0 -0.484375 0zm14.537964 0.1875q-1.046875 0 -1.828125 -0.484375q-0.765625 -0.484375 -1.1875 -1.359375q-0.421875 -0.875 -0.421875 -2.09375l0 -6.046875l1.921875 0l0 5.53125q0 0.84375 0.265625 1.46875q0.28125 0.625 0.78125 0.96875q0.515625 0.328125 1.25 0.328125q0.53125 0 0.984375 -0.171875q0.453125 -0.171875 0.78125 -0.484375q0.328125 -0.328125 0.5 -0.765625q0.1875 -0.453125 0.1875 -0.984375l0 -5.890625l1.921875 0l0 9.796875l-1.921875 0l0 -2.046875l0.34375 -0.234375q-0.21875 0.703125 -0.75 1.265625q-0.53125 0.546875 -1.265625 0.875q-0.734375 0.328125 -1.5625 0.328125zm9.068283 -0.1875l0 -12.296875l1.921875 0l0 12.296875l-1.921875 0zm-2.046875 -7.921875l0 -1.875l6.234375 0l0 1.875l-6.234375 0zm11.976898 8.109375q-1.34375 0 -2.390625 -0.65625q-1.046875 -0.671875 -1.671875 -1.8125q-0.60935974 -1.15625 -0.60935974 -2.625q0 -1.46875 0.59373474 -2.609375q0.609375 -1.15625 1.65625 -1.8125q1.046875 -0.671875 2.375 -0.671875q0.71875 0 1.40625 0.234375q0.6875 0.234375 1.21875 0.640625q0.546875 0.390625 0.84375 0.875q0.3125 0.46875 0.3125 0.953125l-0.5625 0.046875l0 -6.5625l1.921875 0l0 13.8125l-1.921875 0l0 -2.328125l0.375 0q0 0.4375 -0.296875 0.890625q-0.296875 0.4375 -0.796875 0.8125q-0.484375 0.359375 -1.140625 0.59375q-0.640625 0.21875 -1.3125 0.21875zm0.265625 -1.65625q0.875 0 1.546875 -0.453125q0.671875 -0.453125 1.046875 -1.21875q0.390625 -0.78125 0.390625 -1.765625q0 -0.984375 -0.390625 -1.75q-0.375 -0.78125 -1.046875 -1.234375q-0.671875 -0.453125 -1.546875 -0.453125q-0.875 0 -1.546875 0.453125q-0.671875 0.453125 -1.0625 1.234375q-0.375 0.765625 -0.375 1.75q0 0.984375 0.375 1.765625q0.390625 0.765625 1.0625 1.21875q0.671875 0.453125 1.546875 0.453125zm11.890564 1.65625q-1.4375 0 -2.578125 -0.65625q-1.125 -0.671875 -1.78125 -1.8125q-0.640625 -1.15625 -0.640625 -2.625q0 -1.46875 0.640625 -2.609375q0.65625 -1.15625 1.78125 -1.8125q1.140625 -0.671875 2.578125 -0.671875q1.40625 0 2.53125 0.671875q1.140625 0.65625 1.796875 1.8125q0.65625 1.140625 0.65625 2.609375q0 1.46875 -0.65625 2.625q-0.65625 1.140625 -1.796875 1.8125q-1.125 0.65625 -2.53125 0.65625zm0 -1.75q0.875 0 1.5625 -0.4375q0.6875 -0.4375 1.078125 -1.1875q0.390625 -0.765625 0.375 -1.71875q0.015625 -0.96875 -0.375 -1.71875q-0.390625 -0.765625 -1.078125 -1.1875q-0.6875 -0.4375 -1.5625 -0.4375q-0.875 0 -1.578125 0.4375q-0.703125 0.4375 -1.09375 1.203125q-0.390625 0.75 -0.375 1.703125q-0.015625 0.953125 0.375 1.71875q0.390625 0.75 1.09375 1.1875q0.703125 0.4375 1.578125 0.4375zm9.100281 1.5625l-3.34375 -9.796875l1.9375 -0.015625l2.390625 7.328125l-0.421875 -0.03125l2.59375 -5.734375l1.15625 0l2.609375 5.75l-0.5 0.03125l2.40625 -7.328125l1.9375 0l-3.296875 9.796875l-1.328125 0l-2.734375 -6.234375l0.4375 0.0625l-2.53125 6.171875l-1.3125 0zm12.518738 0l0 -9.796875l1.921875 0l0 2.015625l-0.34375 0.21875q0.1875 -0.640625 0.734375 -1.1875q0.546875 -0.5625 1.28125 -0.90625q0.75 -0.34375 1.53125 -0.34375q1.125 0 1.859375 0.4375q0.75 0.4375 1.125 1.34375q0.375 0.890625 0.375 2.25l0 5.96875l-1.921875 0l0 -5.84375q0 -0.828125 -0.21875 -1.375q-0.21875 -0.5625 -0.6875 -0.8125q-0.46875 -0.25 -1.15625 -0.21875q-0.5625 0 -1.03125 0.1875q-0.46875 0.171875 -0.8125 0.5q-0.34375 0.3125 -0.546875 0.734375q-0.1875 0.40625 -0.1875 0.890625l0 5.9375l-0.953125 0q-0.234375 0 -0.484375 0q-0.25 0 -0.484375 0z" fill="#ffffff"></path><path fill-rule="evenodd" d="m195.43045 328.95276l318.07877 0l0 42.015747l-318.07877 0z" fill-opacity="0.0" fill="#000000"></path><path fill-rule="nonzero" d="m211.55545 356.06024q-1.359375 0 -2.5 -0.484375q-1.140625 -0.484375 -1.984375 -1.390625q-0.828125 -0.90625 -1.296875 -2.140625q-0.453125 -1.234375 -0.453125 -2.703125q0 -1.390625 0.5 -2.59375q0.5 -1.203125 1.375 -2.109375q0.875 -0.921875 2.03125 -1.421875q1.15625 -0.515625 2.5 -0.515625q0.953125 0 1.859375 0.296875q0.90625 0.28125 1.640625 0.796875q0.734375 0.515625 1.203125 1.171875l-1.34375 1.390625q-0.546875 -0.546875 -1.09375 -0.90625q-0.546875 -0.359375 -1.125 -0.546875q-0.5625 -0.1875 -1.140625 -0.1875q-0.921875 0 -1.71875 0.34375q-0.78125 0.34375 -1.375 0.96875q-0.578125 0.609375 -0.921875 1.46875q-0.328125 0.84375 -0.328125 1.84375q0 1.0625 0.3125 1.9375q0.328125 0.859375 0.921875 1.484375q0.609375 0.609375 1.4375 0.9375q0.828125 0.328125 1.84375 0.328125q0.609375 0 1.203125 -0.171875q0.59375 -0.171875 1.109375 -0.484375q0.53125 -0.3125 0.96875 -0.75l1.0 1.640625q-0.421875 0.515625 -1.171875 0.921875q-0.734375 0.40625 -1.640625 0.640625q-0.890625 0.234375 -1.8125 0.234375zm6.9176025 -0.1875l0 -13.8125l1.921875 0l0 13.8125l-1.921875 0zm4.963974 0l0 -9.796875l1.921875 0l0 9.796875l-1.921875 0zm0.9375 -11.953125q-0.609375 0 -0.953125 -0.3125q-0.328125 -0.328125 -0.328125 -0.90625q0 -0.546875 0.34375 -0.875q0.34375 -0.34375 0.9375 -0.34375q0.609375 0 0.9375 0.328125q0.34375 0.3125 0.34375 0.890625q0 0.546875 -0.34375 0.890625q-0.34375 0.328125 -0.9375 0.328125zm8.092682 12.140625q-1.359375 0 -2.4375 -0.671875q-1.0625 -0.671875 -1.6875 -1.828125q-0.625 -1.15625 -0.625 -2.59375q0 -1.4375 0.625 -2.59375q0.625 -1.15625 1.6875 -1.828125q1.078125 -0.671875 2.4375 -0.671875q1.3125 0 2.375 0.53125q1.078125 0.53125 1.640625 1.453125l-1.0625 1.296875q-0.296875 -0.421875 -0.765625 -0.78125q-0.46875 -0.359375 -1.0 -0.5625q-0.515625 -0.203125 -1.0 -0.203125q-0.890625 0 -1.59375 0.4375q-0.703125 0.4375 -1.109375 1.203125q-0.40625 0.765625 -0.40625 1.71875q0 0.953125 0.421875 1.71875q0.4375 0.75 1.140625 1.203125q0.703125 0.4375 1.5625 0.4375q0.515625 0 0.984375 -0.171875q0.46875 -0.171875 0.921875 -0.5q0.453125 -0.34375 0.84375 -0.828125l1.0625 1.3125q-0.59375 0.84375 -1.703125 1.390625q-1.109375 0.53125 -2.3125 0.53125zm7.5748444 -3.25l-0.09375 -2.09375l4.6875 -4.640625l2.59375 0l-7.1875 6.734375zm-1.75 3.0625l0 -13.8125l1.921875 0l0 13.8125l-1.921875 0zm6.609375 0l-3.703125 -4.3125l1.359375 -1.25l4.796875 5.5625l-2.453125 0zm12.976746 0.1875q-1.203125 0 -2.2031097 -0.671875q-1.0 -0.671875 -1.609375 -1.828125q-0.59375 -1.15625 -0.59375 -2.609375q0 -1.484375 0.609375 -2.625q0.609375 -1.140625 1.640625 -1.796875q1.0468597 -0.65625 2.3281097 -0.65625q0.765625 0 1.390625 0.234375q0.640625 0.21875 1.109375 0.625q0.484375 0.390625 0.78125 0.921875q0.3125 0.515625 0.390625 1.109375l-0.421875 -0.140625l0 -2.546875l1.9375 0l0 9.796875l-1.9375 0l0 -2.328125l0.4375 -0.140625q-0.109375 0.515625 -0.453125 1.0q-0.34375 0.46875 -0.875 0.84375q-0.53125 0.359375 -1.171875 0.59375q-0.640625 0.21875 -1.359375 0.21875zm0.5 -1.765625q0.890625 0 1.546875 -0.421875q0.671875 -0.4375 1.046875 -1.1875q0.390625 -0.765625 0.390625 -1.734375q0 -0.953125 -0.390625 -1.703125q-0.375 -0.75 -1.046875 -1.171875q-0.65625 -0.4375 -1.546875 -0.4375q-0.859375 0 -1.515625 0.4375q-0.65625 0.421875 -1.0468597 1.171875q-0.375 0.75 -0.375 1.703125q0 0.96875 0.375 1.734375q0.39060974 0.75 1.0468597 1.1875q0.65625 0.421875 1.515625 0.421875zm7.5437927 1.578125l0 -9.796875l1.921875 0l0 2.015625l-0.34375 0.21875q0.1875 -0.640625 0.734375 -1.1875q0.546875 -0.5625 1.28125 -0.90625q0.75 -0.34375 1.53125 -0.34375q1.125 0 1.859375 0.4375q0.75 0.4375 1.125 1.34375q0.375 0.890625 0.375 2.25l0 5.96875l-1.921875 0l0 -5.84375q0 -0.828125 -0.21875 -1.375q-0.21875 -0.5625 -0.6875 -0.8125q-0.46875 -0.25 -1.15625 -0.21875q-0.5625 0 -1.03125 0.1875q-0.46875 0.171875 -0.8125 0.5q-0.34375 0.3125 -0.546875 0.734375q-0.1875 0.40625 -0.1875 0.890625l0 5.9375l-0.953125 0q-0.234375 0 -0.484375 0q-0.25 0 -0.484375 0zm12.647736 4.296875l1.984375 -4.578125l0.015625 1.53125l-4.890625 -11.046875l2.234375 0l3.0625 7.203125q0.09375 0.1875 0.21875 0.578125q0.140625 0.375 0.234375 0.75l-0.484375 0.109375q0.140625 -0.390625 0.28125 -0.78125q0.140625 -0.390625 0.265625 -0.78125l2.5625 -7.078125l2.28125 0l-4.03125 9.796875l-1.65625 4.296875l-2.078125 0zm11.604919 -4.296875l-3.34375 -9.796875l1.9375 -0.015625l2.390625 7.328125l-0.421875 -0.03125l2.59375 -5.734375l1.15625 0l2.609375 5.75l-0.5 0.03125l2.40625 -7.328125l1.9375 0l-3.296875 9.796875l-1.328125 0l-2.734375 -6.234375l0.4375 0.0625l-2.53125 6.171875l-1.3125 0zm12.518738 0l0 -13.8125l1.921875 0l0 6.03125l-0.34375 0.21875q0.1875 -0.640625 0.734375 -1.1875q0.546875 -0.5625 1.28125 -0.90625q0.75 -0.34375 1.53125 -0.34375q1.125 0 1.859375 0.4375q0.75 0.4375 1.125 1.34375q0.375 0.890625 0.375 2.25l0 5.96875l-1.921875 0l0 -5.84375q0 -0.828125 -0.21875 -1.375q-0.21875 -0.5625 -0.6875 -0.8125q-0.46875 -0.25 -1.15625 -0.21875q-0.5625 0 -1.03125 0.1875q-0.46875 0.171875 -0.8125 0.5q-0.34375 0.3125 -0.546875 0.734375q-0.1875 0.40625 -0.1875 0.890625l0 5.9375l-0.953125 0q-0.234375 0 -0.484375 0q-0.25 0 -0.484375 0zm15.662964 0.1875q-1.5 0 -2.671875 -0.640625q-1.15625 -0.640625 -1.828125 -1.765625q-0.65625 -1.125 -0.65625 -2.578125q0 -1.15625 0.375 -2.109375q0.375 -0.953125 1.03125 -1.640625q0.65625 -0.703125 1.578125 -1.078125q0.9375 -0.390625 2.015625 -0.390625q0.953125 0 1.765625 0.359375q0.828125 0.359375 1.421875 1.0q0.609375 0.640625 0.9375 1.515625q0.328125 0.859375 0.3125 1.875l-0.015625 0.828125l-8.0 0l-0.4375 -1.53125l6.765625 0l-0.265625 0.3125l0 -0.4375q-0.0625 -0.625 -0.421875 -1.109375q-0.34375 -0.484375 -0.890625 -0.765625q-0.546875 -0.28125 -1.171875 -0.28125q-1.015625 0 -1.703125 0.390625q-0.6875 0.375 -1.046875 1.125q-0.34375 0.734375 -0.34375 1.8125q0 1.015625 0.421875 1.78125q0.421875 0.75 1.203125 1.171875q0.796875 0.40625 1.8125 0.40625q0.734375 0 1.359375 -0.234375q0.625 -0.25 1.359375 -0.890625l0.96875 1.359375q-0.453125 0.453125 -1.09375 0.796875q-0.640625 0.328125 -1.359375 0.53125q-0.71875 0.1875 -1.421875 0.1875zm6.3700867 -0.1875l0 -9.796875l1.9375 0l0 3.078125l-0.1875 -0.75q0.203125 -0.703125 0.703125 -1.28125q0.5 -0.578125 1.140625 -0.90625q0.640625 -0.34375 1.328125 -0.34375q0.3125 0 0.59375 0.0625q0.296875 0.046875 0.46875 0.125l-0.5 2.09375q-0.21875 -0.09375 -0.5 -0.15625q-0.265625 -0.078125 -0.53125 -0.078125q-0.5 0 -0.953125 0.203125q-0.453125 0.1875 -0.8125 0.546875q-0.34375 0.34375 -0.546875 0.796875q-0.203125 0.453125 -0.203125 1.0l0 5.40625l-1.9375 0zm11.670288 0.1875q-1.5 0 -2.671875 -0.640625q-1.15625 -0.640625 -1.828125 -1.765625q-0.65625 -1.125 -0.65625 -2.578125q0 -1.15625 0.375 -2.109375q0.375 -0.953125 1.03125 -1.640625q0.65625 -0.703125 1.578125 -1.078125q0.9375 -0.390625 2.015625 -0.390625q0.953125 0 1.765625 0.359375q0.828125 0.359375 1.421875 1.0q0.609375 0.640625 0.9375 1.515625q0.328125 0.859375 0.3125 1.875l-0.015625 0.828125l-8.0 0l-0.4375 -1.53125l6.765625 0l-0.265625 0.3125l0 -0.4375q-0.0625 -0.625 -0.421875 -1.109375q-0.34375 -0.484375 -0.890625 -0.765625q-0.546875 -0.28125 -1.171875 -0.28125q-1.015625 0 -1.703125 0.390625q-0.6875 0.375 -1.046875 1.125q-0.34375 0.734375 -0.34375 1.8125q0 1.015625 0.421875 1.78125q0.421875 0.75 1.203125 1.171875q0.796875 0.40625 1.8125 0.40625q0.734375 0 1.359375 -0.234375q0.625 -0.25 1.359375 -0.890625l0.96875 1.359375q-0.453125 0.453125 -1.09375 0.796875q-0.640625 0.328125 -1.359375 0.53125q-0.71875 0.1875 -1.421875 0.1875zm12.812561 -0.1875l0 -12.296875l1.921875 0l0 12.296875l-1.921875 0zm-2.046875 -7.921875l0 -1.875l6.234375 0l0 1.875l-6.234375 0zm12.305054 8.109375q-1.4375 0 -2.578125 -0.65625q-1.125 -0.671875 -1.78125 -1.8125q-0.640625 -1.15625 -0.640625 -2.625q0 -1.46875 0.640625 -2.609375q0.65625 -1.15625 1.78125 -1.8125q1.140625 -0.671875 2.578125 -0.671875q1.40625 0 2.53125 0.671875q1.140625 0.65625 1.796875 1.8125q0.65625 1.140625 0.65625 2.609375q0 1.46875 -0.65625 2.625q-0.65625 1.140625 -1.796875 1.8125q-1.125 0.65625 -2.53125 0.65625zm0 -1.75q0.875 0 1.5625 -0.4375q0.6875 -0.4375 1.078125 -1.1875q0.390625 -0.765625 0.375 -1.71875q0.015625 -0.96875 -0.375 -1.71875q-0.390625 -0.765625 -1.078125 -1.1875q-0.6875 -0.4375 -1.5625 -0.4375q-0.875 0 -1.578125 0.4375q-0.703125 0.4375 -1.09375 1.203125q-0.390625 0.75 -0.375 1.703125q-0.015625 0.953125 0.375 1.71875q0.390625 0.75 1.09375 1.1875q0.703125 0.4375 1.578125 0.4375zm16.447357 1.75q-1.359375 0 -2.4375 -0.671875q-1.0625 -0.671875 -1.6875 -1.828125q-0.625 -1.15625 -0.625 -2.59375q0 -1.4375 0.625 -2.59375q0.625 -1.15625 1.6875 -1.828125q1.078125 -0.671875 2.4375 -0.671875q1.3125 0 2.375 0.53125q1.078125 0.53125 1.640625 1.453125l-1.0625 1.296875q-0.296875 -0.421875 -0.765625 -0.78125q-0.46875 -0.359375 -1.0 -0.5625q-0.515625 -0.203125 -1.0 -0.203125q-0.890625 0 -1.59375 0.4375q-0.703125 0.4375 -1.109375 1.203125q-0.40625 0.765625 -0.40625 1.71875q0 0.953125 0.421875 1.71875q0.4375 0.75 1.140625 1.203125q0.703125 0.4375 1.5625 0.4375q0.515625 0 0.984375 -0.171875q0.46875 -0.171875 0.921875 -0.5q0.453125 -0.34375 0.84375 -0.828125l1.0625 1.3125q-0.59375 0.84375 -1.703125 1.390625q-1.109375 0.53125 -2.3125 0.53125zm9.590454 0q-1.203125 0 -2.203125 -0.671875q-1.0 -0.671875 -1.609375 -1.828125q-0.59375 -1.15625 -0.59375 -2.609375q0 -1.484375 0.609375 -2.625q0.609375 -1.140625 1.640625 -1.796875q1.046875 -0.65625 2.328125 -0.65625q0.765625 0 1.390625 0.234375q0.640625 0.21875 1.109375 0.625q0.484375 0.390625 0.78125 0.921875q0.3125 0.515625 0.390625 1.109375l-0.421875 -0.140625l0 -2.546875l1.9375 0l0 9.796875l-1.9375 0l0 -2.328125l0.4375 -0.140625q-0.109375 0.515625 -0.453125 1.0q-0.34375 0.46875 -0.875 0.84375q-0.53125 0.359375 -1.171875 0.59375q-0.640625 0.21875 -1.359375 0.21875zm0.5 -1.765625q0.890625 0 1.546875 -0.421875q0.671875 -0.4375 1.046875 -1.1875q0.390625 -0.765625 0.390625 -1.734375q0 -0.953125 -0.390625 -1.703125q-0.375 -0.75 -1.046875 -1.171875q-0.65625 -0.4375 -1.546875 -0.4375q-0.859375 0 -1.515625 0.4375q-0.65625 0.421875 -1.046875 1.171875q-0.375 0.75 -0.375 1.703125q0 0.96875 0.375 1.734375q0.390625 0.75 1.046875 1.1875q0.65625 0.421875 1.515625 0.421875zm7.5437927 1.578125l0 -9.796875l1.921875 0l0 2.015625l-0.34375 0.21875q0.1875 -0.640625 0.734375 -1.1875q0.546875 -0.5625 1.28125 -0.90625q0.75 -0.34375 1.53125 -0.34375q1.125 0 1.859375 0.4375q0.75 0.4375 1.125 1.34375q0.375 0.890625 0.375 2.25l0 5.96875l-1.921875 0l0 -5.84375q0 -0.828125 -0.21875 -1.375q-0.21875 -0.5625 -0.6875 -0.8125q-0.46875 -0.25 -1.15625 -0.21875q-0.5625 0 -1.03125 0.1875q-0.46875 0.171875 -0.8125 0.5q-0.34375 0.3125 -0.546875 0.734375q-0.1875 0.40625 -0.1875 0.890625l0 5.9375l-0.953125 0q-0.234375 0 -0.484375 0q-0.25 0 -0.484375 0zm15.256714 0.1875q-1.359375 0 -2.4375 -0.671875q-1.0625 -0.671875 -1.6875 -1.828125q-0.625 -1.15625 -0.625 -2.59375q0 -1.4375 0.625 -2.59375q0.625 -1.15625 1.6875 -1.828125q1.078125 -0.671875 2.4375 -0.671875q1.3125 0 2.375 0.53125q1.078125 0.53125 1.640625 1.453125l-1.0625 1.296875q-0.296875 -0.421875 -0.765625 -0.78125q-0.46875 -0.359375 -1.0 -0.5625q-0.515625 -0.203125 -1.0 -0.203125q-0.890625 0 -1.59375 0.4375q-0.703125 0.4375 -1.109375 1.203125q-0.40625 0.765625 -0.40625 1.71875q0 0.953125 0.421875 1.71875q0.4375 0.75 1.140625 1.203125q0.703125 0.4375 1.5625 0.4375q0.515625 0 0.984375 -0.171875q0.46875 -0.171875 0.921875 -0.5q0.453125 -0.34375 0.84375 -0.828125l1.0625 1.3125q-0.59375 0.84375 -1.703125 1.390625q-1.109375 0.53125 -2.3125 0.53125zm10.387329 0q-1.5 0 -2.671875 -0.640625q-1.15625 -0.640625 -1.828125 -1.765625q-0.65625 -1.125 -0.65625 -2.578125q0 -1.15625 0.375 -2.109375q0.375 -0.953125 1.03125 -1.640625q0.65625 -0.703125 1.578125 -1.078125q0.9375 -0.390625 2.015625 -0.390625q0.953125 0 1.765625 0.359375q0.828125 0.359375 1.421875 1.0q0.609375 0.640625 0.9375 1.515625q0.328125 0.859375 0.3125 1.875l-0.015625 0.828125l-8.0 0l-0.4375 -1.53125l6.765625 0l-0.265625 0.3125l0 -0.4375q-0.0625 -0.625 -0.421875 -1.109375q-0.34375 -0.484375 -0.890625 -0.765625q-0.546875 -0.28125 -1.171875 -0.28125q-1.015625 0 -1.703125 0.390625q-0.6875 0.375 -1.046875 1.125q-0.34375 0.734375 -0.34375 1.8125q0 1.015625 0.421875 1.78125q0.421875 0.75 1.203125 1.171875q0.796875 0.40625 1.8125 0.40625q0.734375 0 1.359375 -0.234375q0.625 -0.25 1.359375 -0.890625l0.96875 1.359375q-0.453125 0.453125 -1.09375 0.796875q-0.640625 0.328125 -1.359375 0.53125q-0.71875 0.1875 -1.421875 0.1875zm6.4013367 -0.1875l0 -13.8125l1.921875 0l0 13.8125l-1.921875 0z" fill="#ffffff"></path></g></svg>