<svg version="1.1" xmlns="http://www.w3.org/2000/svg" xmlns:xlink="http://www.w3.org/1999/xlink" width="21.58322" height="27.89234" viewBox="0,0,21.58322,27.89234"><g transform="translate(-242.97117,-196.36313)"><g data-paper-data="{&quot;isPaintingLayer&quot;:true}" stroke="none" stroke-width="1" stroke-linecap="square" stroke-linejoin="miter" stroke-miterlimit="10" stroke-dasharray="" stroke-dashoffset="0" style="mix-blend-mode: normal"><path d="M242.97117,198.08716c0,-0.95215 0.41182,-1.72403 0.91982,-1.72403h19.74357c0.24395,0 0.47791,0.18164 0.65041,0.50495c0.1725,0.32331 0.26942,0.76183 0.26942,1.21908v24.44429c0,0.95215 -0.41182,1.72402 -0.91983,1.72402h-19.74357c-0.508,0 -0.91982,-0.77187 -0.91982,-1.72402z" fill-opacity="0.69355" fill="#2d2d2d" fill-rule="evenodd"/><path d="M245.98686,217.26289v-16.22649h3.53341l8.50735,11.5787l-0.76104,-0.10872c-0.0906,-0.50736 -0.16308,-0.98754 -0.21744,-1.44054c-0.03624,-0.47112 -0.07248,-0.93318 -0.10872,-1.38618c-0.03624,-0.453 -0.07248,-0.906 -0.10872,-1.359c-0.01812,-0.47112 -0.02718,-0.97848 -0.02718,-1.52208c0,-0.5436 0,-1.1325 0,-1.7667v-3.99547h3.80521v16.22649h-3.56059l-8.88787,-11.95922l1.19592,0.16308c0.07248,0.74292 0.1359,1.37712 0.19026,1.9026c0.05436,0.50736 0.09966,0.96036 0.1359,1.359c0.03624,0.39864 0.06342,0.76104 0.08154,1.0872c0.01812,0.32616 0.02718,0.65232 0.02718,0.97848c0.01812,0.30804 0.02718,0.65232 0.02718,1.03284v5.43601z" fill="#ffffff" fill-rule="nonzero"/></g></g></svg>