<svg xmlns="http://www.w3.org/2000/svg" xmlns:xlink="http://www.w3.org/1999/xlink" stroke-miterlimit="10" stroke-linecap="square" stroke="none" fill="none" viewBox="0.0 0.0 960.0 720.0" version="1.1"><clipPath id="p.0"><path clip-rule="nonzero" d="m0 0l960.0 0l0 720.0l-960.0 0l0 -720.0z"></path></clipPath><g clip-path="url(#p.0)"><path fill-rule="evenodd" d="m0 0l960.0 0l0 720.0l-960.0 0z" fill-opacity="0.0" fill="#000000"></path><path fill-rule="evenodd" d="m210.07874 199.84425l0 0c0 -14.282089 11.577927 -25.86 25.86 -25.86l166.67372 0c6.85849 0 13.436066 2.724533 18.285767 7.5742188c4.849701 4.8496857 7.5742188 11.427277 7.5742188 18.285782l0 274.95715c0 14.282074 -11.577911 25.859985 -25.859985 25.859985l-166.67372 0c-14.282074 0 -25.86 -11.577911 -25.86 -25.859985z" fill="#434343"></path><path fill-rule="evenodd" d="m195.27034 90.23097l0 0c0 -14.054993 11.393829 -25.448822 25.448822 -25.448822l150.83464 0c6.7494507 0 13.222443 2.6812057 17.995026 7.4537888c4.772583 4.7725754 7.4537964 11.245583 7.4537964 17.995033l0 0l0 0c0 14.054993 -11.393829 25.448814 -25.448822 25.448814l-150.83464 0l0 0c-14.054993 0 -25.448822 -11.393822 -25.448822 -25.448814z" fill="#434343"></path></g></svg>