<svg xmlns="http://www.w3.org/2000/svg" xmlns:xlink="http://www.w3.org/1999/xlink" stroke-miterlimit="10" stroke-linecap="square" stroke="none" fill="none" viewBox="0.0 0.0 960.0 720.0" version="1.1"><clipPath id="p.0"><path clip-rule="nonzero" d="m0 0l960.0 0l0 720.0l-960.0 0l0 -720.0z"></path></clipPath><g clip-path="url(#p.0)"><path fill-rule="evenodd" d="m0 0l960.0 0l0 720.0l-960.0 0z" fill-opacity="0.0" fill="#000000"></path><path fill-rule="evenodd" d="m117.53281 88.84252l150.83466 0l0 49.039375l-150.83466 0z" fill-opacity="0.0" fill="#000000"></path><path fill-rule="nonzero" d="m132.39218 115.95002q-1.0625 0 -1.96875 -0.28125q-0.90625 -0.28125 -1.640625 -0.84375q-0.734375 -0.578125 -1.3125 -1.40625l1.375 -1.59375q0.921875 1.3125 1.75 1.8125q0.84375 0.5 2.0 0.5q0.703125 0 1.28125 -0.21875q0.578125 -0.234375 0.90625 -0.625q0.34375 -0.390625 0.34375 -0.890625q0 -0.328125 -0.109375 -0.625q-0.109375 -0.3125 -0.34375 -0.546875q-0.234375 -0.25 -0.59375 -0.453125q-0.359375 -0.203125 -0.84375 -0.359375q-0.484375 -0.15625 -1.125 -0.265625q-1.0 -0.21875 -1.75 -0.546875q-0.75 -0.34375 -1.25 -0.84375q-0.5 -0.5 -0.75 -1.140625q-0.25 -0.640625 -0.25 -1.453125q0 -0.78125 0.34375 -1.453125q0.359375 -0.671875 0.953125 -1.15625q0.609375 -0.5 1.421875 -0.765625q0.828125 -0.28125 1.78125 -0.28125q1.015625 0 1.84375 0.265625q0.84375 0.265625 1.5 0.78125q0.65625 0.5 1.078125 1.25l-1.421875 1.40625q-0.359375 -0.625 -0.828125 -1.03125q-0.46875 -0.421875 -1.03125 -0.640625q-0.5625 -0.21875 -1.1875 -0.21875q-0.734375 0 -1.28125 0.234375q-0.53125 0.21875 -0.84375 0.625q-0.3125 0.390625 -0.3125 0.9375q0 0.390625 0.15625 0.71875q0.15625 0.328125 0.453125 0.578125q0.3125 0.25 0.828125 0.453125q0.53125 0.1875 1.25 0.328125q1.03125 0.234375 1.828125 0.578125q0.8125 0.34375 1.359375 0.8125q0.5625 0.46875 0.84375 1.046875q0.296875 0.578125 0.296875 1.25q0 1.25 -0.578125 2.171875q-0.578125 0.90625 -1.640625 1.40625q-1.0625 0.484375 -2.53125 0.484375zm7.157135 -0.1875l0 -13.8125l1.921875 0l0 13.8125l-1.921875 0zm9.027313 0.1875q-1.5 0 -2.671875 -0.640625q-1.15625 -0.640625 -1.828125 -1.765625q-0.65625 -1.125 -0.65625 -2.578125q0 -1.15625 0.375 -2.109375q0.375 -0.953125 1.03125 -1.640625q0.65625 -0.703125 1.578125 -1.078125q0.9375 -0.390625 2.015625 -0.390625q0.953125 0 1.765625 0.359375q0.828125 0.359375 1.421875 1.0q0.609375 0.640625 0.9375 1.515625q0.328125 0.859375 0.3125 1.875l-0.015625 0.828125l-8.0 0l-0.4375 -1.53125l6.765625 0l-0.265625 0.3125l0 -0.4375q-0.0625 -0.625 -0.421875 -1.109375q-0.34375 -0.484375 -0.890625 -0.765625q-0.546875 -0.28125 -1.171875 -0.28125q-1.015625 0 -1.703125 0.390625q-0.6875 0.375 -1.046875 1.125q-0.34375 0.734375 -0.34375 1.8125q0 1.015625 0.421875 1.78125q0.421875 0.75 1.203125 1.171875q0.796875 0.40625 1.8125 0.40625q0.734375 0 1.359375 -0.234375q0.625 -0.25 1.359375 -0.890625l0.96875 1.359375q-0.453125 0.453125 -1.09375 0.796875q-0.640625 0.328125 -1.359375 0.53125q-0.71875 0.1875 -1.421875 0.1875zm10.932571 0q-1.5 0 -2.671875 -0.640625q-1.15625 -0.640625 -1.828125 -1.765625q-0.65625 -1.125 -0.65625 -2.578125q0 -1.15625 0.375 -2.109375q0.375 -0.953125 1.03125 -1.640625q0.65625 -0.703125 1.578125 -1.078125q0.9375 -0.390625 2.015625 -0.390625q0.953125 0 1.765625 0.359375q0.828125 0.359375 1.421875 1.0q0.609375 0.640625 0.9375 1.515625q0.328125 0.859375 0.3125 1.875l-0.015625 0.828125l-8.0 0l-0.4375 -1.53125l6.765625 0l-0.265625 0.3125l0 -0.4375q-0.0625 -0.625 -0.421875 -1.109375q-0.34375 -0.484375 -0.890625 -0.765625q-0.546875 -0.28125 -1.171875 -0.28125q-1.015625 0 -1.703125 0.390625q-0.6875 0.375 -1.046875 1.125q-0.34375 0.734375 -0.34375 1.8125q0 1.015625 0.421875 1.78125q0.421875 0.75 1.203125 1.171875q0.796875 0.40625 1.8125 0.40625q0.734375 0 1.359375 -0.234375q0.625 -0.25 1.359375 -0.890625l0.96875 1.359375q-0.453125 0.453125 -1.09375 0.796875q-0.640625 0.328125 -1.359375 0.53125q-0.71875 0.1875 -1.421875 0.1875zm6.3700714 3.921875l0 -13.90625l1.9375 0l0 2.234375l-0.296875 -0.15625q0.109375 -0.5625 0.625 -1.078125q0.53125 -0.515625 1.28125 -0.84375q0.765625 -0.328125 1.5625 -0.328125q1.328125 0 2.34375 0.65625q1.03125 0.65625 1.625 1.796875q0.609375 1.140625 0.609375 2.609375q0 1.453125 -0.59375 2.609375q-0.59375 1.140625 -1.625 1.8125q-1.015625 0.65625 -2.296875 0.65625q-0.859375 0 -1.671875 -0.34375q-0.796875 -0.34375 -1.359375 -0.890625q-0.5625 -0.546875 -0.6875 -1.125l0.484375 -0.25l0 6.546875l-1.9375 0zm4.84375 -5.71875q0.859375 0 1.53125 -0.421875q0.671875 -0.4375 1.0625 -1.171875q0.390625 -0.75 0.390625 -1.703125q0 -0.953125 -0.390625 -1.6875q-0.375 -0.734375 -1.046875 -1.15625q-0.65625 -0.4375 -1.546875 -0.4375q-0.875 0 -1.546875 0.421875q-0.671875 0.421875 -1.0625 1.171875q-0.390625 0.734375 -0.390625 1.6875q0 0.953125 0.390625 1.703125q0.390625 0.734375 1.0625 1.171875q0.671875 0.421875 1.546875 0.421875z" fill="#ffffff"></path></g></svg>