<svg version="1.1" xmlns="http://www.w3.org/2000/svg" xmlns:xlink="http://www.w3.org/1999/xlink" width="720" height="540" viewBox="0,0,720,540"><defs><clipPath id="clip-1"><rect x="-240" y="-180" transform="scale(0.5,0.5)" width="1440" height="1080" fill="none" fill-rule="nonzero" stroke-width="0.5" stroke-linecap="butt"/></clipPath></defs><g transform="translate(120,90)"><g clip-path="url(#clip-1)" data-paper-data="{&quot;isPaintingLayer&quot;:true}" stroke="none" stroke-linejoin="miter" stroke-miterlimit="10" stroke-dasharray="" stroke-dashoffset="0" style="mix-blend-mode: normal"><path d="M43.81267,81.45038v0c0,-8.96665 7.26891,-16.23556 16.23556,-16.23556h348.48703c4.30594,0 8.43553,1.71053 11.48028,4.75528c3.04478,3.04477 4.75528,7.17434 4.75528,11.48028v230.19757c0,8.96665 -7.26891,16.23556 -16.23556,16.23556h-348.48703v0c-8.96665,0 -16.23556,-7.26891 -16.23556,-16.23556z" fill-opacity="0.86769" fill="#1d1d1d" fill-rule="evenodd" stroke-width="1" stroke-linecap="square"/><path d="M-240,-180h960v720h-960z" fill-opacity="0" fill="#000000" fill-rule="evenodd" stroke-width="1" stroke-linecap="square"/><text transform="translate(388.83331,179.82083) scale(0.5,0.5)" font-size="40" xml:space="preserve" fill="#a0a0a0" fill-rule="nonzero" stroke="none" stroke-width="1" stroke-linecap="butt" stroke-linejoin="miter" stroke-miterlimit="10" stroke-dasharray="" stroke-dashoffset="0" font-family="Sans Serif" font-weight="normal" text-anchor="start" style="mix-blend-mode: normal"><tspan x="0" dy="0"> </tspan></text><path d="M116.75134,122.51254l3.78937,-9.57072h1.95766l3.76648,9.57072h-2.35834l-1.79737,-4.85405c-0.07633,-0.19081 -0.15264,-0.39306 -0.22897,-0.60675c-0.06869,-0.22133 -0.1412,-0.44647 -0.21752,-0.67544c-0.06869,-0.2366 -0.13738,-0.46557 -0.20607,-0.68689c-0.06869,-0.22897 -0.12592,-0.43885 -0.17172,-0.62965l0.41214,-0.01144c-0.05342,0.22897 -0.11448,0.45411 -0.18318,0.67545c-0.06869,0.2137 -0.13738,0.4274 -0.20607,0.6411c-0.06869,0.2137 -0.14502,0.4274 -0.22897,0.6411c-0.07633,0.2137 -0.15264,0.43503 -0.22897,0.664l-1.80882,4.84261zM118.54871,120.68083l0.73269,-1.75158h4.39612l0.70979,1.75158zM130.13138,122.64992c-0.70216,0 -1.33181,-0.16409 -1.88895,-0.49227c-0.55715,-0.32818 -0.99599,-0.77467 -1.31654,-1.33944c-0.32055,-0.57241 -0.48082,-1.22115 -0.48082,-1.9462c0,-0.71742 0.16027,-1.35852 0.48082,-1.9233c0.32055,-0.57241 0.7594,-1.02271 1.31655,-1.35089c0.55715,-0.32818 1.1868,-0.49227 1.88896,-0.49227c0.64873,0 1.24405,0.11448 1.78592,0.34345c0.54188,0.22897 0.97311,0.5457 1.29366,0.95021l-1.19061,1.41958c-0.12974,-0.14502 -0.28239,-0.27857 -0.45793,-0.40068c-0.16791,-0.12974 -0.35871,-0.22897 -0.57241,-0.29766c-0.20607,-0.07633 -0.42358,-0.11448 -0.65255,-0.11448c-0.34345,0 -0.64873,0.08014 -0.91586,0.24042c-0.26712,0.16027 -0.47319,0.38161 -0.61821,0.664c-0.14502,0.28239 -0.21752,0.60294 -0.21752,0.96165c0,0.35108 0.07251,0.66782 0.21752,0.95021c0.15264,0.28239 0.36252,0.50754 0.62966,0.67545c0.26712,0.16027 0.56859,0.24042 0.90442,0.24042c0.2366,0 0.45411,-0.03053 0.65255,-0.09158c0.19843,-0.06106 0.38161,-0.14882 0.54952,-0.26331c0.17554,-0.12212 0.33582,-0.26712 0.48082,-0.43503l1.16772,1.43103c-0.30529,0.38924 -0.73651,0.69835 -1.29365,0.92731c-0.54952,0.22897 -1.13719,0.34345 -1.76303,0.34345zM137.58109,122.64992c-0.70216,0 -1.33181,-0.16409 -1.88895,-0.49227c-0.55715,-0.32818 -0.99599,-0.77467 -1.31654,-1.33944c-0.32055,-0.57241 -0.48082,-1.22115 -0.48082,-1.9462c0,-0.71742 0.16027,-1.35852 0.48082,-1.9233c0.32055,-0.57241 0.7594,-1.02271 1.31655,-1.35089c0.55715,-0.32818 1.1868,-0.49227 1.88896,-0.49227c0.64873,0 1.24405,0.11448 1.78592,0.34345c0.54188,0.22897 0.97311,0.5457 1.29366,0.95021l-1.19061,1.41958c-0.12974,-0.14502 -0.28239,-0.27857 -0.45793,-0.40068c-0.16791,-0.12974 -0.35871,-0.22897 -0.57241,-0.29766c-0.20607,-0.07633 -0.42358,-0.11448 -0.65255,-0.11448c-0.34345,0 -0.64873,0.08014 -0.91586,0.24042c-0.26712,0.16027 -0.47319,0.38161 -0.61821,0.664c-0.14502,0.28239 -0.21752,0.60294 -0.21752,0.96165c0,0.35108 0.07251,0.66782 0.21752,0.95021c0.15264,0.28239 0.36252,0.50754 0.62966,0.67545c0.26712,0.16027 0.56859,0.24042 0.90442,0.24042c0.2366,0 0.45411,-0.03053 0.65255,-0.09158c0.19843,-0.06106 0.38161,-0.14882 0.54952,-0.26331c0.17554,-0.12212 0.33582,-0.26712 0.48082,-0.43503l1.16772,1.43103c-0.30529,0.38924 -0.73651,0.69835 -1.29365,0.92731c-0.54952,0.22897 -1.13719,0.34345 -1.76303,0.34345zM145.30555,122.64992c-0.80137,0 -1.49971,-0.16027 -2.09502,-0.48082c-0.58767,-0.32818 -1.04561,-0.77085 -1.37379,-1.328c-0.32818,-0.56477 -0.49227,-1.20588 -0.49227,-1.9233c0,-0.55715 0.08777,-1.0685 0.26332,-1.53406c0.18318,-0.46557 0.43885,-0.86625 0.76703,-1.20206c0.32818,-0.34345 0.71742,-0.60675 1.16772,-0.78992c0.45793,-0.19081 0.95401,-0.2862 1.48827,-0.2862c0.51136,0 0.97691,0.09158 1.39668,0.27476c0.4274,0.18318 0.79374,0.43885 1.09903,0.76703c0.31292,0.32818 0.54952,0.71742 0.70979,1.16772c0.16791,0.44267 0.24422,0.92731 0.22897,1.45393l-0.0229,0.58387h-5.78135l-0.3091,-1.22496h4.31599l-0.22897,0.25186v-0.26331c-0.01526,-0.22897 -0.08777,-0.43122 -0.21752,-0.60675c-0.12212,-0.18318 -0.28239,-0.32437 -0.48082,-0.42358c-0.19843,-0.09922 -0.4274,-0.14882 -0.68689,-0.14882c-0.35108,0 -0.65255,0.07251 -0.90441,0.21752c-0.25186,0.13738 -0.44267,0.33963 -0.57241,0.60676c-0.12212,0.26712 -0.18318,0.59912 -0.18318,0.996c0,0.39687 0.08395,0.74414 0.25186,1.04179c0.16791,0.29766 0.41214,0.53043 0.73269,0.69835c0.32818,0.16027 0.71361,0.24042 1.15627,0.24042c0.31292,0 0.58767,-0.04579 0.82427,-0.13738c0.24422,-0.09158 0.50754,-0.24804 0.78993,-0.46937l1.03034,1.45393c-0.28239,0.24422 -0.58386,0.44648 -0.90441,0.60676c-0.32055,0.15264 -0.64873,0.26712 -0.98455,0.34345c-0.32818,0.07633 -0.65637,0.11448 -0.98455,0.11448zM149.85835,125.52342v-10.26906h2.07214l0.08014,1.62565l-0.40068,-0.12592c0.06106,-0.29766 0.2137,-0.56859 0.45793,-0.81282c0.24422,-0.25186 0.55715,-0.45029 0.93876,-0.59531c0.38161,-0.15264 0.77848,-0.22897 1.19061,-0.22897c0.62584,0 1.17917,0.16409 1.66,0.49227c0.48082,0.32055 0.85862,0.76321 1.13338,1.328c0.28239,0.55715 0.42359,1.20207 0.42359,1.93475c0,0.73269 -0.1412,1.38142 -0.42358,1.9462c-0.27476,0.56477 -0.65637,1.01127 -1.14482,1.33945c-0.48846,0.32055 -1.04561,0.48082 -1.67144,0.48082c-0.41214,0 -0.80519,-0.07633 -1.17916,-0.22897c-0.37398,-0.16027 -0.68689,-0.37016 -0.93876,-0.62965c-0.25186,-0.26712 -0.41977,-0.55715 -0.50372,-0.87006l0.50372,-0.18318v4.79682zM153.64771,120.7953c0.32055,0 0.60294,-0.08013 0.84717,-0.24041c0.25186,-0.16027 0.44648,-0.38161 0.58387,-0.664c0.13738,-0.28239 0.20607,-0.62202 0.20607,-1.01889c0,-0.38161 -0.06869,-0.71361 -0.20607,-0.99599c-0.13738,-0.29002 -0.32818,-0.51517 -0.57241,-0.67544c-0.2366,-0.16027 -0.5228,-0.24041 -0.85861,-0.24041c-0.34345,0 -0.63728,0.08014 -0.88151,0.24042c-0.24422,0.15264 -0.43503,0.37398 -0.57241,0.664c-0.13738,0.29002 -0.20607,0.62584 -0.20607,1.00745c0,0.39687 0.06869,0.73651 0.20607,1.0189c0.13738,0.28239 0.32818,0.50372 0.57241,0.664c0.24422,0.16027 0.53807,0.24042 0.88151,0.24042zM159.46165,122.51254v-9.0899h2.18661v9.0899zM158.17944,117.16621v-1.91185h4.87695v1.91186zM169.27612,122.51254v-9.0899h2.18661v9.0899zM167.99393,117.16621v-1.91185h4.87695v1.91186zM174.12115,122.51254v-10.12024h2.14082v4.33888l-0.43503,0.16027c0.09922,-0.32818 0.27857,-0.62584 0.53807,-0.89297c0.2595,-0.26712 0.57241,-0.48082 0.93876,-0.6411c0.36634,-0.16791 0.74795,-0.25186 1.14482,-0.25186c0.54952,0 1.01127,0.11067 1.38524,0.332c0.37398,0.22133 0.65637,0.55333 0.84717,0.996c0.19081,0.44267 0.28621,0.98455 0.28621,1.62565v4.45337h-2.19806v-4.28164c0,-0.29002 -0.04197,-0.53043 -0.12592,-0.72123c-0.08395,-0.19081 -0.20988,-0.332 -0.37779,-0.42358c-0.16791,-0.09922 -0.37398,-0.14502 -0.61821,-0.13738c-0.19081,0 -0.37016,0.03053 -0.53807,0.09158c-0.16027,0.06106 -0.30148,0.14883 -0.42358,0.26332c-0.11448,0.10685 -0.20607,0.2366 -0.27476,0.38924c-0.06869,0.14502 -0.10303,0.30148 -0.10303,0.46938v4.35033h-1.08758c-0.25186,0 -0.46937,0 -0.65255,0c-0.18318,0 -0.332,0 -0.44647,0zM186.25846,122.64992c-0.80137,0 -1.49971,-0.16027 -2.09502,-0.48082c-0.58767,-0.32818 -1.04561,-0.77085 -1.37379,-1.328c-0.32818,-0.56477 -0.49227,-1.20588 -0.49227,-1.9233c0,-0.55715 0.08777,-1.0685 0.26332,-1.53406c0.18318,-0.46557 0.43885,-0.86625 0.76703,-1.20206c0.32818,-0.34345 0.71742,-0.60675 1.16772,-0.78992c0.45793,-0.19081 0.95401,-0.2862 1.48827,-0.2862c0.51136,0 0.97691,0.09158 1.39668,0.27476c0.4274,0.18318 0.79374,0.43885 1.09903,0.76703c0.31292,0.32818 0.54952,0.71742 0.70979,1.16772c0.16791,0.44267 0.24422,0.92731 0.22897,1.45393l-0.0229,0.58387h-5.78135l-0.3091,-1.22496h4.31599l-0.22897,0.25186v-0.26331c-0.01526,-0.22897 -0.08777,-0.43122 -0.21752,-0.60675c-0.12212,-0.18318 -0.28239,-0.32437 -0.48082,-0.42358c-0.19843,-0.09922 -0.4274,-0.14882 -0.68689,-0.14882c-0.35108,0 -0.65255,0.07251 -0.90441,0.21752c-0.25186,0.13738 -0.44267,0.33963 -0.57241,0.60676c-0.12212,0.26712 -0.18318,0.59912 -0.18318,0.996c0,0.39687 0.08395,0.74414 0.25186,1.04179c0.16791,0.29766 0.41214,0.53043 0.73269,0.69835c0.32818,0.16027 0.71361,0.24042 1.15627,0.24042c0.31292,0 0.58767,-0.04579 0.82427,-0.13738c0.24422,-0.09158 0.50754,-0.24804 0.78993,-0.46937l1.03034,1.45393c-0.28239,0.24422 -0.58386,0.44648 -0.90441,0.60676c-0.32055,0.15264 -0.64873,0.26712 -0.98455,0.34345c-0.32818,0.07633 -0.65637,0.11448 -0.98455,0.11448zM195.78071,122.51254v-9.0899h2.18661v9.0899zM194.49851,117.16621v-1.91185h4.87695v1.91186zM204.01471,122.64992c-0.80137,0 -1.49971,-0.16027 -2.09502,-0.48082c-0.58767,-0.32818 -1.04561,-0.77085 -1.37379,-1.328c-0.32818,-0.56477 -0.49227,-1.20588 -0.49227,-1.9233c0,-0.55715 0.08777,-1.0685 0.26332,-1.53406c0.18318,-0.46557 0.43885,-0.86625 0.76703,-1.20206c0.32818,-0.34345 0.71742,-0.60675 1.16772,-0.78992c0.45793,-0.19081 0.95401,-0.2862 1.48827,-0.2862c0.51136,0 0.97691,0.09158 1.39668,0.27476c0.4274,0.18318 0.79374,0.43885 1.09903,0.76703c0.31292,0.32818 0.54952,0.71742 0.70979,1.16772c0.16791,0.44267 0.24422,0.92731 0.22897,1.45393l-0.0229,0.58387h-5.78135l-0.3091,-1.22496h4.31599l-0.22897,0.25186v-0.26331c-0.01526,-0.22897 -0.08777,-0.43122 -0.21752,-0.60675c-0.12212,-0.18318 -0.28239,-0.32437 -0.48082,-0.42358c-0.19843,-0.09922 -0.4274,-0.14882 -0.68689,-0.14882c-0.35108,0 -0.65255,0.07251 -0.90441,0.21752c-0.25186,0.13738 -0.44267,0.33963 -0.57241,0.60676c-0.12212,0.26712 -0.18318,0.59912 -0.18318,0.996c0,0.39687 0.08395,0.74414 0.25186,1.04179c0.16791,0.29766 0.41214,0.53043 0.73269,0.69835c0.32818,0.16027 0.71361,0.24042 1.15627,0.24042c0.31292,0 0.58767,-0.04579 0.82427,-0.13738c0.24422,-0.09158 0.50754,-0.24804 0.78993,-0.46937l1.03034,1.45393c-0.28239,0.24422 -0.58386,0.44648 -0.90441,0.60676c-0.32055,0.15264 -0.64873,0.26712 -0.98455,0.34345c-0.32818,0.07633 -0.65637,0.11448 -0.98455,0.11448zM208.56748,122.51254v-7.25818h2.07214l0.10304,2.36979l-0.41214,-0.45793c0.10685,-0.38924 0.28621,-0.73651 0.53807,-1.04179c0.25186,-0.31292 0.5457,-0.56096 0.88151,-0.74413c0.33582,-0.18318 0.69453,-0.27476 1.07613,-0.27476c0.16791,0 0.32055,0.01526 0.45793,0.04579c0.14502,0.0229 0.27476,0.05342 0.38924,0.09158l-0.59531,2.41558c-0.09922,-0.06106 -0.2366,-0.11067 -0.41214,-0.14882c-0.16791,-0.04579 -0.33963,-0.06869 -0.51517,-0.06869c-0.20607,0 -0.39687,0.03435 -0.57241,0.10304c-0.16791,0.06869 -0.31292,0.16791 -0.43503,0.29766c-0.11448,0.12212 -0.20607,0.27094 -0.27476,0.44648c-0.06869,0.17554 -0.10303,0.37016 -0.10303,0.58387v3.64054zM214.77554,122.51254v-7.25818h2.07214l0.06869,1.31655l-0.2862,0.01145c0.10685,-0.2366 0.24422,-0.44647 0.41214,-0.62965c0.16791,-0.18318 0.35871,-0.33582 0.57241,-0.45793c0.22133,-0.12212 0.44648,-0.2137 0.67545,-0.27476c0.22897,-0.06869 0.46557,-0.10303 0.70979,-0.10303c0.35108,0 0.67163,0.05724 0.96165,0.17172c0.29766,0.10685 0.55333,0.28239 0.76703,0.52661c0.22133,0.2366 0.39687,0.56097 0.52661,0.97311l-0.34345,-0.03434l0.10304,-0.21752c0.12212,-0.2137 0.27476,-0.40832 0.45793,-0.58386c0.19081,-0.18318 0.39687,-0.33582 0.61821,-0.45793c0.22897,-0.12212 0.46557,-0.2137 0.70979,-0.27476c0.25186,-0.06869 0.49227,-0.10303 0.72124,-0.10303c0.57241,0 1.04942,0.11448 1.43103,0.34345c0.38161,0.22133 0.67163,0.55715 0.87006,1.00745c0.19843,0.44267 0.29766,0.98073 0.29766,1.61421v4.43047h-2.2095v-4.24729c0,-0.29766 -0.04197,-0.54188 -0.12592,-0.73269c-0.07633,-0.19081 -0.19462,-0.332 -0.35489,-0.42358c-0.16027,-0.09922 -0.35871,-0.14882 -0.59531,-0.14882c-0.19081,0 -0.36634,0.03435 -0.52661,0.10304c-0.16027,0.06106 -0.29766,0.14883 -0.41214,0.26332c-0.11448,0.10685 -0.20225,0.23278 -0.26331,0.3778c-0.06106,0.14502 -0.09158,0.30911 -0.09158,0.49227v4.31599h-2.2095v-4.27019c0,-0.26712 -0.04197,-0.49609 -0.12592,-0.68689c-0.07633,-0.19081 -0.19843,-0.33582 -0.36634,-0.43503c-0.16027,-0.10685 -0.35108,-0.16027 -0.57241,-0.16027c-0.19081,0 -0.36634,0.03435 -0.52661,0.10304c-0.16027,0.06106 -0.29766,0.14883 -0.41214,0.26332c-0.10685,0.10685 -0.19462,0.23278 -0.26331,0.3778c-0.06106,0.14502 -0.09158,0.30529 -0.09158,0.48082v4.32743zM230.38666,122.64992c-0.71742,0 -1.34707,-0.11448 -1.88895,-0.34345c-0.54188,-0.22897 -0.9731,-0.53425 -1.29365,-0.91586l1.328,-1.14482c0.28239,0.28239 0.59912,0.48846 0.95021,0.61821c0.35871,0.12974 0.69835,0.19463 1.0189,0.19463c0.12974,0 0.24422,-0.01144 0.34345,-0.03434c0.09922,-0.03053 0.18318,-0.06869 0.25186,-0.11448c0.06869,-0.05342 0.12212,-0.11448 0.16027,-0.18318c0.03816,-0.06869 0.05724,-0.14882 0.05724,-0.24041c0,-0.18318 -0.08395,-0.32437 -0.25186,-0.42358c-0.08395,-0.04579 -0.22133,-0.09922 -0.41214,-0.16027c-0.19081,-0.06106 -0.43503,-0.13356 -0.73269,-0.21752c-0.4274,-0.10685 -0.80137,-0.2366 -1.12193,-0.38924c-0.31292,-0.15264 -0.56859,-0.32818 -0.76703,-0.52661c-0.18318,-0.19081 -0.32437,-0.40068 -0.42358,-0.62965c-0.09922,-0.2366 -0.14882,-0.49991 -0.14882,-0.78992c0,-0.34345 0.08014,-0.64873 0.24042,-0.91586c0.16027,-0.27476 0.37398,-0.51136 0.6411,-0.70979c0.26712,-0.20607 0.57623,-0.35871 0.92731,-0.45793c0.35108,-0.10685 0.71361,-0.16027 1.08759,-0.16027c0.4045,0 0.78612,0.04579 1.14482,0.13738c0.36634,0.09158 0.70597,0.22133 1.0189,0.38924c0.32055,0.16027 0.60294,0.3549 0.84717,0.58387l-1.15627,1.2822c-0.16027,-0.15264 -0.34345,-0.29002 -0.54952,-0.41214c-0.20607,-0.12974 -0.41977,-0.22897 -0.6411,-0.29766c-0.2137,-0.07633 -0.41214,-0.11448 -0.59531,-0.11448c-0.13738,0 -0.2595,0.01145 -0.36634,0.03435c-0.09922,0.0229 -0.18699,0.06106 -0.26331,0.11448c-0.06869,0.04579 -0.12212,0.10304 -0.16027,0.17172c-0.03816,0.06869 -0.05724,0.14883 -0.05724,0.24042c0,0.09158 0.0229,0.17936 0.06869,0.26332c0.05342,0.08395 0.12593,0.15264 0.21752,0.20607c0.09158,0.05342 0.2366,0.11448 0.43503,0.18318c0.20607,0.06869 0.48082,0.15264 0.82427,0.25186c0.4274,0.11448 0.79374,0.24804 1.09903,0.40069c0.31292,0.14502 0.56097,0.31673 0.74414,0.51517c0.14502,0.15264 0.25186,0.332 0.32055,0.53807c0.07633,0.20607 0.11448,0.4274 0.11448,0.664c0,0.46557 -0.12974,0.8777 -0.38924,1.23641c-0.2595,0.35871 -0.61821,0.6411 -1.07613,0.84717c-0.45029,0.20607 -0.96547,0.30911 -1.5455,0.30911zM241.75603,122.63846c-0.61057,0 -1.15627,-0.16027 -1.6371,-0.48082c-0.48082,-0.32818 -0.86243,-0.77467 -1.14482,-1.33944c-0.28239,-0.57241 -0.42358,-1.22115 -0.42358,-1.9462c0,-0.73269 0.1412,-1.38142 0.42359,-1.9462c0.28239,-0.56477 0.66782,-1.00745 1.15627,-1.328c0.49609,-0.32818 1.06087,-0.49227 1.69434,-0.49227c0.34345,0 0.65637,0.04961 0.93876,0.14883c0.29002,0.09922 0.5457,0.24042 0.76703,0.42359c0.22133,0.17554 0.40832,0.38161 0.56097,0.61821c0.15264,0.22897 0.26712,0.47319 0.34345,0.73269l-0.45793,-0.05724v-1.71724h2.17516v7.25818h-2.2095v-1.75158l0.49227,-0.01144c-0.07633,0.25186 -0.19843,0.49227 -0.36634,0.72124c-0.16027,0.22897 -0.35871,0.43122 -0.59531,0.60676c-0.2366,0.16791 -0.49991,0.30529 -0.78992,0.41214c-0.29002,0.09922 -0.59912,0.14883 -0.92731,0.14883zM242.35134,120.7953c0.34345,0 0.63728,-0.07633 0.88151,-0.22897c0.24422,-0.16027 0.43503,-0.38161 0.57241,-0.664c0.13738,-0.29002 0.20607,-0.63346 0.20607,-1.03034c0,-0.38924 -0.06869,-0.72505 -0.20607,-1.00745c-0.13738,-0.29002 -0.32818,-0.51517 -0.57241,-0.67544c-0.24422,-0.16027 -0.53807,-0.24041 -0.88151,-0.24041c-0.32818,0 -0.61439,0.08014 -0.85861,0.24042c-0.2366,0.16027 -0.42358,0.38542 -0.56096,0.67545c-0.13738,0.28239 -0.20607,0.61821 -0.20607,1.00745c0,0.39687 0.06869,0.74032 0.20607,1.03034c0.13738,0.28239 0.32437,0.50372 0.56097,0.664c0.24422,0.15264 0.53043,0.22897 0.85862,0.22897zM248.08513,122.51254v-7.25818h2.07214l0.06869,1.47682l-0.43503,0.16027c0.09922,-0.32818 0.27857,-0.62584 0.53807,-0.89297c0.2595,-0.26712 0.57241,-0.48082 0.93876,-0.6411c0.36634,-0.16791 0.74795,-0.25186 1.14482,-0.25186c0.54952,0 1.01127,0.11067 1.38524,0.332c0.37398,0.22133 0.65637,0.55333 0.84717,0.996c0.19081,0.44267 0.28621,0.98455 0.28621,1.62565v4.45337h-2.19806v-4.28164c0,-0.29002 -0.04197,-0.53043 -0.12592,-0.72123c-0.08395,-0.19081 -0.20988,-0.332 -0.37779,-0.42358c-0.16791,-0.09922 -0.37398,-0.14502 -0.61821,-0.13738c-0.19081,0 -0.37016,0.03053 -0.53807,0.09158c-0.16027,0.06106 -0.30148,0.14883 -0.42358,0.26332c-0.11448,0.10685 -0.20607,0.2366 -0.27476,0.38924c-0.06869,0.14502 -0.10303,0.30148 -0.10303,0.46938v4.35033h-1.08758c-0.25186,0 -0.46937,0 -0.65255,0c-0.18318,0 -0.332,0 -0.44647,0zM259.51263,122.66136c-0.63346,0 -1.19443,-0.16027 -1.68289,-0.48082c-0.48082,-0.32818 -0.86243,-0.77467 -1.14482,-1.33944c-0.28239,-0.57241 -0.42358,-1.22115 -0.42358,-1.9462c0,-0.73269 0.1412,-1.38142 0.42359,-1.9462c0.28239,-0.57241 0.66782,-1.02271 1.15627,-1.35089c0.49609,-0.32818 1.06087,-0.49227 1.69434,-0.49227c0.32818,0 0.6411,0.04961 0.93876,0.14883c0.30529,0.09922 0.58005,0.2366 0.82427,0.41214c0.24422,0.16791 0.44267,0.36634 0.59531,0.59531c0.16027,0.22133 0.25568,0.45029 0.28621,0.68689l-0.52661,0.12593v-4.68232h2.19806v10.12024h-2.02634l-0.12592,-1.64855l0.43503,0.05724c-0.03053,0.22897 -0.12212,0.45029 -0.27476,0.664c-0.14502,0.20607 -0.33582,0.38924 -0.57241,0.54952c-0.2366,0.16027 -0.50754,0.28621 -0.81282,0.3778c-0.30529,0.09922 -0.62584,0.14883 -0.96165,0.14883zM260.07361,120.8411c0.33582,0 0.62584,-0.08013 0.87006,-0.24041c0.24422,-0.16791 0.43122,-0.39687 0.56097,-0.68689c0.13738,-0.29002 0.20607,-0.62965 0.20607,-1.01889c0,-0.4045 -0.06869,-0.75176 -0.20607,-1.04179c-0.12974,-0.29002 -0.31673,-0.51517 -0.56096,-0.67544c-0.24422,-0.16791 -0.53425,-0.25186 -0.87006,-0.25186c-0.33582,0 -0.62584,0.08395 -0.87006,0.25186c-0.24422,0.16027 -0.43503,0.38542 -0.57241,0.67545c-0.13738,0.29002 -0.20607,0.63728 -0.20607,1.04179c0,0.38924 0.06869,0.72887 0.20607,1.0189c0.13738,0.29002 0.32818,0.51898 0.57241,0.68689c0.24422,0.16027 0.53425,0.24042 0.87006,0.24042zM273.26148,122.64992c-0.70216,0 -1.33181,-0.16409 -1.88895,-0.49227c-0.55715,-0.32818 -0.99599,-0.77467 -1.31654,-1.33944c-0.32055,-0.57241 -0.48082,-1.22115 -0.48082,-1.9462c0,-0.71742 0.16027,-1.35852 0.48082,-1.9233c0.32055,-0.57241 0.7594,-1.02271 1.31655,-1.35089c0.55715,-0.32818 1.1868,-0.49227 1.88896,-0.49227c0.64873,0 1.24405,0.11448 1.78592,0.34345c0.54188,0.22897 0.97311,0.5457 1.29366,0.95021l-1.19061,1.41958c-0.12974,-0.14502 -0.28239,-0.27857 -0.45793,-0.40068c-0.16791,-0.12974 -0.35871,-0.22897 -0.57241,-0.29766c-0.20607,-0.07633 -0.42358,-0.11448 -0.65255,-0.11448c-0.34345,0 -0.64873,0.08014 -0.91586,0.24042c-0.26712,0.16027 -0.47319,0.38161 -0.61821,0.664c-0.14502,0.28239 -0.21752,0.60294 -0.21752,0.96165c0,0.35108 0.07251,0.66782 0.21752,0.95021c0.15264,0.28239 0.36252,0.50754 0.62966,0.67545c0.26712,0.16027 0.56859,0.24042 0.90442,0.24042c0.2366,0 0.45411,-0.03053 0.65255,-0.09158c0.19843,-0.06106 0.38161,-0.14882 0.54952,-0.26331c0.17554,-0.12212 0.33582,-0.26712 0.48082,-0.43503l1.16772,1.43103c-0.30529,0.38924 -0.73651,0.69835 -1.29365,0.92731c-0.54952,0.22897 -1.13719,0.34345 -1.76303,0.34345zM280.94015,122.64992c-0.75558,0 -1.42721,-0.16409 -2.01489,-0.49227c-0.58767,-0.32818 -1.05324,-0.77467 -1.39668,-1.33944c-0.33582,-0.56477 -0.50372,-1.21351 -0.50372,-1.9462c0,-0.72505 0.16791,-1.36997 0.50372,-1.93475c0.34345,-0.56477 0.80901,-1.01127 1.39668,-1.33944c0.58767,-0.32818 1.25931,-0.49227 2.01489,-0.49227c0.75558,0 1.42721,0.16409 2.01489,0.49227c0.58767,0.32818 1.04942,0.77467 1.38524,1.33945c0.34345,0.56477 0.51517,1.2097 0.51517,1.93475c0,0.73269 -0.17172,1.38142 -0.51517,1.9462c-0.33582,0.56477 -0.79756,1.01127 -1.38523,1.33945c-0.58767,0.32818 -1.25931,0.49227 -2.01489,0.49227zM280.94015,120.76096c0.32818,0 0.61821,-0.08013 0.87006,-0.24041c0.2595,-0.16791 0.46175,-0.39306 0.60676,-0.67544c0.14502,-0.28239 0.2137,-0.60675 0.20607,-0.9731c0.00763,-0.35871 -0.06106,-0.68307 -0.20607,-0.9731c-0.14502,-0.29002 -0.34727,-0.51517 -0.60675,-0.67544c-0.25186,-0.16791 -0.54188,-0.25186 -0.87006,-0.25186c-0.32818,0 -0.62202,0.08395 -0.88151,0.25186c-0.2595,0.16027 -0.46175,0.38542 -0.60675,0.67545c-0.14502,0.29002 -0.2137,0.61439 -0.20607,0.97311c-0.00763,0.36634 0.06106,0.69071 0.20607,0.97311c0.14502,0.28239 0.34727,0.50754 0.60676,0.67545c0.2595,0.16027 0.55333,0.24042 0.88151,0.24042zM286.29053,122.51254v-7.25818h2.07214l0.06869,1.47682l-0.43503,0.16027c0.09922,-0.32818 0.27857,-0.62584 0.53807,-0.89297c0.2595,-0.26712 0.57241,-0.48082 0.93876,-0.6411c0.36634,-0.16791 0.74795,-0.25186 1.14482,-0.25186c0.54952,0 1.01127,0.11067 1.38524,0.332c0.37398,0.22133 0.65637,0.55333 0.84717,0.996c0.19081,0.44267 0.28621,0.98455 0.28621,1.62565v4.45337h-2.19806v-4.28164c0,-0.29002 -0.04197,-0.53043 -0.12592,-0.72123c-0.08395,-0.19081 -0.20988,-0.332 -0.37779,-0.42358c-0.16791,-0.09922 -0.37398,-0.14502 -0.61821,-0.13738c-0.19081,0 -0.37016,0.03053 -0.53807,0.09158c-0.16027,0.06106 -0.30148,0.14883 -0.42358,0.26332c-0.11448,0.10685 -0.20607,0.2366 -0.27476,0.38924c-0.06869,0.14502 -0.10303,0.30148 -0.10303,0.46938v4.35033h-1.08758c-0.25186,0 -0.46937,0 -0.65255,0c-0.18318,0 -0.332,0 -0.44647,0zM297.71806,122.66136c-0.63346,0 -1.19443,-0.16027 -1.68289,-0.48082c-0.48082,-0.32818 -0.86243,-0.77467 -1.14482,-1.33944c-0.28239,-0.57241 -0.42358,-1.22115 -0.42358,-1.9462c0,-0.73269 0.1412,-1.38142 0.42359,-1.9462c0.28239,-0.57241 0.66782,-1.02271 1.15627,-1.35089c0.49609,-0.32818 1.06086,-0.49227 1.69432,-0.49227c0.32818,0 0.6411,0.04961 0.93876,0.14883c0.30529,0.09922 0.58005,0.2366 0.82427,0.41214c0.24422,0.16791 0.44267,0.36634 0.59531,0.59531c0.16027,0.22133 0.25568,0.45029 0.28621,0.68689l-0.52661,0.12593v-4.68232h2.19806v10.12024h-2.02634l-0.12592,-1.64855l0.43503,0.05724c-0.03053,0.22897 -0.12212,0.45029 -0.27476,0.664c-0.14502,0.20607 -0.33582,0.38924 -0.57241,0.54952c-0.2366,0.16027 -0.50754,0.28621 -0.81282,0.3778c-0.30529,0.09922 -0.62583,0.14883 -0.96163,0.14883zM298.27899,120.8411c0.33582,0 0.62584,-0.08013 0.87006,-0.24041c0.24422,-0.16791 0.43122,-0.39687 0.56097,-0.68689c0.13738,-0.29002 0.20607,-0.62965 0.20607,-1.01889c0,-0.4045 -0.06869,-0.75176 -0.20607,-1.04179c-0.12974,-0.29002 -0.31673,-0.51517 -0.56096,-0.67544c-0.24422,-0.16791 -0.53425,-0.25186 -0.87006,-0.25186c-0.33582,0 -0.62583,0.08395 -0.87005,0.25186c-0.24422,0.16027 -0.43503,0.38542 -0.57241,0.67545c-0.13738,0.29002 -0.20607,0.63728 -0.20607,1.04179c0,0.38924 0.06869,0.72887 0.20607,1.0189c0.13738,0.29002 0.32818,0.51898 0.57241,0.68689c0.24422,0.16027 0.53423,0.24042 0.87005,0.24042zM304.03605,122.51254v-7.25818h2.18661v7.25818zM305.12363,113.82333c-0.41214,0 -0.73651,-0.09922 -0.9731,-0.29766c-0.22897,-0.19843 -0.34345,-0.47701 -0.34345,-0.83571c0,-0.32818 0.1183,-0.59531 0.3549,-0.80137c0.24422,-0.2137 0.56477,-0.32055 0.96165,-0.32055c0.41214,0 0.72887,0.09922 0.95021,0.29766c0.22897,0.19081 0.34345,0.46557 0.34345,0.82427c0,0.33582 -0.11448,0.61057 -0.34345,0.82427c-0.22897,0.20607 -0.5457,0.30911 -0.9502,0.30911zM308.86589,122.51254v-9.0899h2.18661v9.0899zM307.58368,117.16621v-1.91185h4.87695v1.91186zM313.83683,122.51254v-7.25818h2.18661v7.25818zM314.92441,113.82333c-0.41214,0 -0.73651,-0.09922 -0.9731,-0.29766c-0.22897,-0.19843 -0.34345,-0.47701 -0.34345,-0.83571c0,-0.32818 0.1183,-0.59531 0.3549,-0.80137c0.24422,-0.2137 0.56477,-0.32055 0.96165,-0.32055c0.41214,0 0.72887,0.09922 0.95021,0.29766c0.22897,0.19081 0.34345,0.46557 0.34345,0.82427c0,0.33582 -0.11448,0.61057 -0.34345,0.82427c-0.22897,0.20607 -0.5457,0.30911 -0.9502,0.30911zM321.48295,122.64992c-0.75558,0 -1.42721,-0.16409 -2.01489,-0.49227c-0.58767,-0.32818 -1.05324,-0.77467 -1.39668,-1.33944c-0.33582,-0.56477 -0.50372,-1.21351 -0.50372,-1.9462c0,-0.72505 0.16791,-1.36997 0.50372,-1.93475c0.34345,-0.56477 0.80901,-1.01127 1.39668,-1.33944c0.58767,-0.32818 1.25931,-0.49227 2.01489,-0.49227c0.75558,0 1.42721,0.16409 2.01489,0.49227c0.58767,0.32818 1.04942,0.77467 1.38524,1.33945c0.34345,0.56477 0.51517,1.2097 0.51517,1.93475c0,0.73269 -0.17172,1.38142 -0.51517,1.9462c-0.33582,0.56477 -0.79756,1.01127 -1.38523,1.33945c-0.58767,0.32818 -1.25931,0.49227 -2.01489,0.49227zM321.48295,120.76096c0.32818,0 0.61821,-0.08013 0.87006,-0.24041c0.2595,-0.16791 0.46175,-0.39306 0.60676,-0.67544c0.14502,-0.28239 0.2137,-0.60675 0.20607,-0.9731c0.00763,-0.35871 -0.06106,-0.68307 -0.20607,-0.9731c-0.14502,-0.29002 -0.34727,-0.51517 -0.60675,-0.67544c-0.25186,-0.16791 -0.54188,-0.25186 -0.87006,-0.25186c-0.32818,0 -0.62202,0.08395 -0.88151,0.25186c-0.2595,0.16027 -0.46175,0.38542 -0.60675,0.67545c-0.14502,0.29002 -0.2137,0.61439 -0.20607,0.97311c-0.00763,0.36634 0.06106,0.69071 0.20607,0.97311c0.14502,0.28239 0.34727,0.50754 0.60676,0.67545c0.2595,0.16027 0.55333,0.24042 0.88151,0.24042zM326.83334,122.51254v-7.25818h2.07214l0.06869,1.47682l-0.43503,0.16027c0.09922,-0.32818 0.27857,-0.62584 0.53807,-0.89297c0.2595,-0.26712 0.57241,-0.48082 0.93876,-0.6411c0.36634,-0.16791 0.74795,-0.25186 1.14482,-0.25186c0.54952,0 1.01127,0.11067 1.38524,0.332c0.37398,0.22133 0.65637,0.55333 0.84717,0.996c0.19081,0.44267 0.28621,0.98455 0.28621,1.62565v4.45337h-2.19806v-4.28164c0,-0.29002 -0.04197,-0.53043 -0.12592,-0.72123c-0.08395,-0.19081 -0.20988,-0.332 -0.37779,-0.42358c-0.16791,-0.09922 -0.37398,-0.14502 -0.61821,-0.13738c-0.19081,0 -0.37016,0.03053 -0.53807,0.09158c-0.16027,0.06106 -0.30148,0.14883 -0.42358,0.26332c-0.11448,0.10685 -0.20607,0.2366 -0.27476,0.38924c-0.06869,0.14502 -0.10303,0.30148 -0.10303,0.46938v4.35033h-1.08758c-0.25186,0 -0.46937,0 -0.65255,0c-0.18318,0 -0.332,0 -0.44647,0zM337.96322,122.64992c-0.71742,0 -1.34707,-0.11448 -1.88895,-0.34345c-0.54188,-0.22897 -0.9731,-0.53425 -1.29365,-0.91586l1.328,-1.14482c0.28239,0.28239 0.59912,0.48846 0.95021,0.61821c0.35871,0.12974 0.69835,0.19463 1.0189,0.19463c0.12974,0 0.24422,-0.01144 0.34345,-0.03434c0.09922,-0.03053 0.18318,-0.06869 0.25186,-0.11448c0.06869,-0.05342 0.12212,-0.11448 0.16027,-0.18318c0.03816,-0.06869 0.05724,-0.14882 0.05724,-0.24041c0,-0.18318 -0.08395,-0.32437 -0.25186,-0.42358c-0.08395,-0.04579 -0.22133,-0.09922 -0.41214,-0.16027c-0.19081,-0.06106 -0.43503,-0.13356 -0.73269,-0.21752c-0.4274,-0.10685 -0.80137,-0.2366 -1.12193,-0.38924c-0.31292,-0.15264 -0.56859,-0.32818 -0.76703,-0.52661c-0.18318,-0.19081 -0.32437,-0.40068 -0.42358,-0.62965c-0.09922,-0.2366 -0.14882,-0.49991 -0.14882,-0.78992c0,-0.34345 0.08014,-0.64873 0.24042,-0.91586c0.16027,-0.27476 0.37398,-0.51136 0.6411,-0.70979c0.26712,-0.20607 0.57623,-0.35871 0.92731,-0.45793c0.35108,-0.10685 0.71361,-0.16027 1.08759,-0.16027c0.4045,0 0.78612,0.04579 1.14482,0.13738c0.36634,0.09158 0.70597,0.22133 1.0189,0.38924c0.32055,0.16027 0.60294,0.3549 0.84717,0.58387l-1.15627,1.2822c-0.16027,-0.15264 -0.34345,-0.29002 -0.54952,-0.41214c-0.20607,-0.12974 -0.41977,-0.22897 -0.6411,-0.29766c-0.2137,-0.07633 -0.41214,-0.11448 -0.59531,-0.11448c-0.13738,0 -0.2595,0.01145 -0.36634,0.03435c-0.09922,0.0229 -0.18699,0.06106 -0.26331,0.11448c-0.06869,0.04579 -0.12212,0.10304 -0.16027,0.17172c-0.03816,0.06869 -0.05724,0.14883 -0.05724,0.24042c0,0.09158 0.0229,0.17936 0.06869,0.26332c0.05342,0.08395 0.12593,0.15264 0.21752,0.20607c0.09158,0.05342 0.2366,0.11448 0.43503,0.18318c0.20607,0.06869 0.48082,0.15264 0.82427,0.25186c0.4274,0.11448 0.79374,0.24804 1.09903,0.40069c0.31292,0.14502 0.56097,0.31673 0.74414,0.51517c0.14502,0.15264 0.25186,0.332 0.32055,0.53807c0.07633,0.20607 0.11448,0.4274 0.11448,0.664c0,0.46557 -0.12974,0.8777 -0.38924,1.23641c-0.2595,0.35871 -0.61821,0.6411 -1.07613,0.84717c-0.45029,0.20607 -0.96547,0.30911 -1.5455,0.30911zM343.05805,122.66136c-0.37398,0 -0.664,-0.10303 -0.87006,-0.3091c-0.20607,-0.2137 -0.3091,-0.51517 -0.3091,-0.90441c0,-0.36634 0.10685,-0.664 0.32055,-0.89297c0.22133,-0.22897 0.50754,-0.34345 0.85862,-0.34345c0.37398,0 0.664,0.11067 0.87006,0.332c0.2137,0.2137 0.32055,0.51517 0.32055,0.90442c0,0.35108 -0.11067,0.6411 -0.332,0.87006c-0.22133,0.22897 -0.50754,0.34345 -0.85861,0.34345z" fill="#ffffff" fill-rule="nonzero" stroke-width="1" stroke-linecap="square"/><path d="M63.14414,286.91291v-142.64264h342.1952v142.64264z" fill-opacity="0.65449" fill="#191919" fill-rule="nonzero" stroke-width="0" stroke-linecap="butt"/><text transform="translate(21.5,175) scale(0.5,0.5)" font-size="40" xml:space="preserve" fill="#ffffff" fill-rule="nonzero" stroke="none" stroke-width="1" stroke-linecap="butt" stroke-linejoin="miter" stroke-miterlimit="10" stroke-dasharray="" stroke-dashoffset="0" font-family="Sans Serif" font-weight="normal" text-anchor="start" style="mix-blend-mode: normal"><tspan x="0" dy="0"> </tspan></text><text transform="translate(196.5,223.41082) scale(0.29104,0.29104)" font-size="40" xml:space="preserve" fill="#929292" fill-rule="nonzero" stroke="none" stroke-width="1" stroke-linecap="butt" stroke-linejoin="miter" stroke-miterlimit="10" stroke-dasharray="" stroke-dashoffset="0" font-family="Sans Serif" font-weight="normal" text-anchor="start" style="mix-blend-mode: normal"><tspan x="0" dy="0">Loading TAC...</tspan></text><path d="M61.57946,86.33703c-0.6943,0 -1.32509,-0.08043 -1.89238,-0.2413c-0.55882,-0.16934 -1.05838,-0.41488 -1.49867,-0.73663c-0.43182,-0.32175 -0.81707,-0.69852 -1.15574,-1.13034l1.56217,-1.77808c0.50802,0.67736 1.01604,1.13458 1.52407,1.37166c0.50802,0.22861 1.03722,0.34292 1.58758,0.34292c0.27094,0 0.51649,-0.03387 0.73663,-0.1016c0.22014,-0.07621 0.38949,-0.18205 0.50803,-0.31751c0.127,-0.13547 0.19051,-0.30481 0.19051,-0.50802c0,-0.15241 -0.03809,-0.28789 -0.1143,-0.40642c-0.07621,-0.11853 -0.18204,-0.22437 -0.31751,-0.31751c-0.127,-0.09314 -0.28364,-0.1778 -0.46992,-0.25401c-0.17781,-0.07621 -0.36831,-0.13971 -0.57152,-0.19051c-0.20321,-0.05927 -0.41065,-0.11007 -0.62232,-0.15241c-0.58423,-0.127 -1.09648,-0.28365 -1.53676,-0.46992c-0.43182,-0.19474 -0.79167,-0.43182 -1.07955,-0.71123c-0.28788,-0.27941 -0.50379,-0.59692 -0.64773,-0.95254c-0.13547,-0.36409 -0.2032,-0.76627 -0.2032,-1.20655c0,-0.48262 0.10583,-0.92291 0.31752,-1.32086c0.22014,-0.39795 0.51226,-0.74086 0.87635,-1.02874c0.37255,-0.28788 0.80014,-0.50802 1.28276,-0.66043c0.49109,-0.16088 0.99911,-0.2413 1.52407,-0.2413c0.6943,0 1.29122,0.0762 1.79078,0.22861c0.50802,0.14393 0.93984,0.35139 1.29546,0.62234c0.35562,0.27094 0.66043,0.60116 0.91444,0.99064l-1.58757,1.52406c-0.21168,-0.26248 -0.44451,-0.47838 -0.69852,-0.64772c-0.24554,-0.16934 -0.50803,-0.30058 -0.78744,-0.39372c-0.27094,-0.09314 -0.55459,-0.1397 -0.85093,-0.1397c-0.30481,0 -0.56729,0.0381 -0.78743,0.11431c-0.21168,0.07621 -0.38102,0.18205 -0.50803,0.31752c-0.11854,0.13547 -0.1778,0.30058 -0.1778,0.49532c0,0.16934 0.0508,0.31752 0.15241,0.44452c0.1016,0.11853 0.23708,0.22861 0.40642,0.33021c0.17781,0.09314 0.37678,0.17357 0.59693,0.24132c0.22014,0.05927 0.45298,0.11008 0.69853,0.15241c0.55882,0.11007 1.06261,0.25825 1.51137,0.44452c0.44875,0.17781 0.834,0.39795 1.15575,0.66043c0.33021,0.26248 0.58422,0.57576 0.76203,0.93984c0.17781,0.35562 0.26672,0.77051 0.26672,1.24465c0,0.73663 -0.18205,1.36319 -0.54612,1.87968c-0.35562,0.50802 -0.84247,0.89751 -1.46056,1.16845c-0.61809,0.26248 -1.33356,0.39372 -2.14639,0.39372zM71.25723,86.33703c-0.88904,0 -1.66376,-0.1778 -2.3242,-0.53342c-0.65196,-0.36409 -1.15998,-0.85517 -1.52407,-1.47326c-0.36409,-0.62656 -0.54612,-1.33778 -0.54612,-2.13369c0,-0.61809 0.09737,-1.18538 0.29212,-1.70188c0.20321,-0.51649 0.48685,-0.96101 0.85094,-1.33356c0.36409,-0.38102 0.79591,-0.67312 1.29546,-0.87633c0.50802,-0.21168 1.05838,-0.31751 1.65108,-0.31751c0.5673,0 1.08378,0.1016 1.54946,0.30481c0.47415,0.20321 0.88057,0.48686 1.21925,0.85094c0.34714,0.36409 0.60962,0.79591 0.78743,1.29546c0.18627,0.49109 0.27094,1.02875 0.25401,1.61297l-0.0254,0.64773h-6.41377l-0.34291,-1.35895h4.78811l-0.25401,0.27941v-0.29211c-0.01693,-0.25401 -0.09737,-0.47839 -0.2413,-0.67312c-0.13547,-0.20321 -0.31328,-0.35985 -0.53342,-0.46992c-0.22014,-0.11007 -0.47415,-0.1651 -0.76203,-0.1651c-0.38948,0 -0.72393,0.08044 -1.00334,0.24132c-0.27941,0.15241 -0.49109,0.37678 -0.63502,0.67313c-0.13547,0.29635 -0.20321,0.66466 -0.20321,1.10496c0,0.44029 0.09314,0.82554 0.27941,1.15575c0.18627,0.33021 0.45722,0.58846 0.81284,0.77474c0.36409,0.17781 0.79167,0.26672 1.28276,0.26672c0.34714,0 0.65196,-0.0508 0.91444,-0.15241c0.27094,-0.10161 0.56306,-0.27518 0.87634,-0.52072l1.14305,1.61298c-0.31328,0.27094 -0.64772,0.49532 -1.00333,0.67313c-0.35562,0.16934 -0.71971,0.29634 -1.09225,0.38101c-0.36409,0.08468 -0.72816,0.12701 -1.09224,0.12701zM76.96846,86.18462v-10.08423h2.42581v10.08423zM75.546,80.25347v-2.12099h5.41043v2.12099zM85.08681,86.34973c-0.60116,0 -1.11341,-0.127 -1.53676,-0.38101c-0.41488,-0.26248 -0.73663,-0.63503 -0.96524,-1.11765c-0.22014,-0.48262 -0.33022,-1.06261 -0.33022,-1.73997v-4.97862h2.43851v4.63571c0,0.33021 0.0508,0.60962 0.15241,0.83823c0.10161,0.22861 0.24978,0.40642 0.44452,0.53342c0.20321,0.127 0.44875,0.19051 0.73663,0.19051c0.21168,0 0.40641,-0.03387 0.58422,-0.1016c0.17781,-0.06773 0.33022,-0.1651 0.45722,-0.29211c0.127,-0.127 0.22437,-0.27517 0.29211,-0.44451c0.06773,-0.16934 0.10161,-0.35562 0.10161,-0.55882v-4.80081h2.45121v8.05215h-2.2988l-0.1016,-1.65107l0.45722,-0.17781c-0.127,0.38102 -0.33021,0.7197 -0.60962,1.01604c-0.27941,0.29635 -0.6181,0.53342 -1.01605,0.71123c-0.39795,0.17781 -0.81707,0.26672 -1.25735,0.26672zM92.07907,89.52487v-11.39239h2.29881l0.0889,1.80348l-0.44451,-0.1397c0.06773,-0.33021 0.23709,-0.63079 0.50803,-0.90173c0.27094,-0.27941 0.61809,-0.49956 1.04144,-0.66043c0.42335,-0.16934 0.86363,-0.25401 1.32085,-0.25401c0.6943,0 1.30816,0.18204 1.84159,0.54613c0.53342,0.35562 0.95254,0.84671 1.25735,1.47326c0.31328,0.61809 0.46993,1.33356 0.46993,2.14639c0,0.81284 -0.15664,1.53253 -0.46992,2.15909c-0.30482,0.62656 -0.72816,1.12188 -1.27005,1.48597c-0.54189,0.35562 -1.15998,0.53342 -1.85428,0.53342c-0.45722,0 -0.89328,-0.08467 -1.30815,-0.25401c-0.41488,-0.17781 -0.76203,-0.41066 -1.04144,-0.69853c-0.27941,-0.29635 -0.46569,-0.61809 -0.55882,-0.96524l0.55882,-0.20321v5.32153zM96.28294,84.27954c0.35562,0 0.6689,-0.0889 0.93984,-0.26671c0.27941,-0.17781 0.49533,-0.42334 0.64773,-0.73663c0.15241,-0.31328 0.22861,-0.69007 0.22861,-1.13035c0,-0.42335 -0.07621,-0.79167 -0.22861,-1.10495c-0.15241,-0.32175 -0.36409,-0.57152 -0.63503,-0.74932c-0.26248,-0.17781 -0.57999,-0.26671 -0.95253,-0.26671c-0.38102,0 -0.707,0.08891 -0.97794,0.26672c-0.27094,0.16934 -0.48262,0.41488 -0.63502,0.73663c-0.15241,0.32175 -0.22861,0.6943 -0.22861,1.11765c0,0.44029 0.07621,0.81707 0.22861,1.13035c0.15241,0.31328 0.36409,0.55882 0.63502,0.73663c0.27094,0.17781 0.59694,0.26672 0.97795,0.26672z" fill="#ffffff" fill-rule="nonzero" stroke-width="1" stroke-linecap="square"/></g></g></svg>