<svg version="1.1" xmlns="http://www.w3.org/2000/svg" xmlns:xlink="http://www.w3.org/1999/xlink" width="720" height="540" viewBox="0,0,720,540"><defs><clipPath id="clip-1"><rect x="-240" y="-180" transform="scale(0.5,0.5)" width="1440" height="1080" fill="none" fill-rule="nonzero" stroke-width="0.5" stroke-linecap="butt"/></clipPath></defs><g transform="translate(120,90)"><g clip-path="url(#clip-1)" data-paper-data="{&quot;isPaintingLayer&quot;:true}" stroke="none" stroke-linejoin="miter" stroke-miterlimit="10" stroke-dasharray="" stroke-dashoffset="0" style="mix-blend-mode: normal"><path d="M9.74957,4.68468h469.50951v352.13213h-469.50951z" fill-opacity="0" fill="#000000" fill-rule="evenodd" stroke-width="1" stroke-linecap="square"/><path d="M16.7365,145.58118v0c0,-9.90251 8.02757,-17.93008 17.93009,-17.93008v0c4.75536,0 9.31594,1.88906 12.67849,5.2516c3.36254,3.36254 5.2516,7.92313 5.2516,12.67848v0c0,9.90252 -8.02758,17.9301 -17.93009,17.9301v0c-9.90251,0 -17.93009,-8.02758 -17.93009,-17.9301z" fill="#666666" fill-rule="evenodd" stroke-width="1" stroke-linecap="square"/><path d="M450.10598,145.58118v0c0,-9.90251 8.02758,-17.93008 17.9301,-17.93008v0c4.75535,0 9.31596,1.88906 12.67848,5.2516c3.36255,3.36254 5.25162,7.92313 5.25162,12.67848v0c0,9.90252 -8.02758,17.9301 -17.9301,17.9301v0c-9.90252,0 -17.9301,-8.02758 -17.9301,-17.9301z" fill="#666666" fill-rule="evenodd" stroke-width="1" stroke-linecap="square"/><path d="M34.43553,127.6511h432.24759v35.86018h-432.24759z" fill="#666666" fill-rule="evenodd" stroke-width="1" stroke-linecap="square"/></g></g></svg>