<svg version="1.1" xmlns="http://www.w3.org/2000/svg" xmlns:xlink="http://www.w3.org/1999/xlink" width="45.87358" height="45.87358" viewBox="0,0,45.87358,45.87358"><g transform="translate(-217.06321,-157.06321)"><g data-paper-data="{&quot;isPaintingLayer&quot;:true}" fill-rule="nonzero" stroke="none" stroke-width="0" stroke-linecap="butt" stroke-linejoin="miter" stroke-miterlimit="10" stroke-dasharray="" stroke-dashoffset="0" style="mix-blend-mode: normal"><path d="M217.06321,202.93679v-45.87358h45.87358v45.87358z" fill="#ffffff"/><path d="M223.35127,167.00884c0,-3.02115 2.44913,-5.47028 5.47028,-5.47028c3.02115,0 5.47028,2.44913 5.47028,5.47028c0,3.02115 -2.44913,5.47028 -5.47028,5.47028c-3.02115,0 -5.47028,-2.44913 -5.47028,-5.47028z" fill="#000000"/><path d="M223.35127,192.38691c0,-3.02115 2.44913,-5.47028 5.47028,-5.47028c3.02115,0 5.47028,2.44913 5.47028,5.47028c0,3.02115 -2.44913,5.47028 -5.47028,5.47028c-3.02115,0 -5.47028,-2.44913 -5.47028,-5.47028z" fill="#000000"/><path d="M223.35128,179.69788c0,-3.02115 2.44913,-5.47028 5.47028,-5.47028c3.02115,0 5.47028,2.44913 5.47028,5.47028c0,3.02115 -2.44913,5.47028 -5.47028,5.47028c-3.02115,0 -5.47028,-2.44913 -5.47028,-5.47028z" fill="#000000"/><path d="M243.98928,167.1027c0,-3.02115 2.44913,-5.47028 5.47028,-5.47028c3.02115,0 5.47028,2.44913 5.47028,5.47028c0,3.02115 -2.44913,5.47028 -5.47028,5.47028c-3.02115,0 -5.47028,-2.44913 -5.47028,-5.47028z" fill="#000000"/><path d="M243.98929,192.48077c0,-3.02115 2.44913,-5.47028 5.47028,-5.47028c3.02115,0 5.47028,2.44913 5.47028,5.47028c0,3.02115 -2.44913,5.47028 -5.47028,5.47028c-3.02115,0 -5.47028,-2.44913 -5.47028,-5.47028z" fill="#000000"/><path d="M243.98929,179.79174c0,-3.02115 2.44913,-5.47028 5.47028,-5.47028c3.02115,0 5.47028,2.44913 5.47028,5.47028c0,3.02115 -2.44913,5.47028 -5.47028,5.47028c-3.02115,0 -5.47028,-2.44913 -5.47028,-5.47028z" fill="#000000"/></g></g></svg>