<svg version="1.1" xmlns="http://www.w3.org/2000/svg" xmlns:xlink="http://www.w3.org/1999/xlink" width="115.21933" height="20.92729" viewBox="0,0,115.21933,20.92729"><g transform="translate(-177.43555,-186.38702)"><g data-paper-data="{&quot;isPaintingLayer&quot;:true}" fill="#000000" fill-rule="nonzero" stroke="none" stroke-width="1" stroke-linecap="square" stroke-linejoin="miter" stroke-miterlimit="10" stroke-dasharray="" stroke-dashoffset="0" style="mix-blend-mode: normal"><path d="M180.694,195.27099v-4.13002l0.08914,0.58434l-3.34759,-4.73417h1.53514l2.55526,3.66452l-0.29712,-0.02971l2.30766,-3.63482h1.46581l-3.19903,4.86293l0.16838,-0.80223v4.21916zM187.81968,195.38984c-0.60745,0 -1.15218,-0.13866 -1.63418,-0.41598c-0.47539,-0.28392 -0.85175,-0.66688 -1.12908,-1.14887c-0.27071,-0.4886 -0.40607,-1.04324 -0.40607,-1.66389c0,-0.62066 0.13536,-1.17199 0.40607,-1.65399c0.27731,-0.4886 0.65367,-0.87156 1.12908,-1.14887c0.48199,-0.28392 1.02673,-0.42588 1.63418,-0.42588c0.59425,0 1.12908,0.14195 1.60447,0.42588c0.48199,0.27731 0.86166,0.66027 1.13897,1.14887c0.27731,0.48199 0.41598,1.03333 0.41598,1.65399c0,0.62066 -0.13866,1.17528 -0.41598,1.66389c-0.27731,0.48199 -0.65697,0.86496 -1.13897,1.14887c-0.47539,0.27731 -1.01022,0.41598 -1.60447,0.41598zM187.81968,194.28059c0.36976,0 0.69989,-0.09244 0.99041,-0.27731c0.29052,-0.18487 0.51831,-0.43577 0.68339,-0.75272c0.16506,-0.32353 0.2443,-0.68669 0.2377,-1.08946c0.0066,-0.40937 -0.07263,-0.77253 -0.2377,-1.08946c-0.16506,-0.32353 -0.39286,-0.57444 -0.68339,-0.75272c-0.29052,-0.18487 -0.62066,-0.27731 -0.99041,-0.27731c-0.36976,0 -0.70319,0.09244 -1.00032,0.27731c-0.29712,0.18487 -0.52822,0.43909 -0.69329,0.76262c-0.16506,0.31693 -0.2443,0.67678 -0.2377,1.07954c-0.0066,0.40277 0.07263,0.76591 0.2377,1.08946c0.16506,0.31693 0.39617,0.56783 0.69329,0.75272c0.29712,0.18487 0.63056,0.27731 1.00032,0.27731zM194.47832,195.38984c-0.44239,0 -0.82864,-0.10235 -1.15878,-0.30703c-0.32353,-0.20468 -0.57444,-0.4919 -0.75272,-0.86166c-0.17827,-0.36976 -0.26741,-0.81213 -0.26741,-1.32715v-3.83289h1.2182v3.50606c0,0.35655 0.05612,0.66688 0.16838,0.93099c0.11885,0.26411 0.28392,0.4688 0.4952,0.61405c0.21789,0.13866 0.48199,0.20798 0.79232,0.20798c0.22449,0 0.43248,-0.03632 0.62396,-0.10895c0.19149,-0.07263 0.35655,-0.17497 0.4952,-0.30703c0.13866,-0.13866 0.2443,-0.30043 0.31693,-0.48531c0.07924,-0.19149 0.11885,-0.39947 0.11885,-0.62396v-3.73385h1.2182v6.20988h-1.2182v-1.29744l0.21789,-0.14857c-0.09244,0.29712 -0.2509,0.56453 -0.47539,0.80223c-0.22449,0.23109 -0.4919,0.41598 -0.80223,0.55463c-0.31033,0.13866 -0.64047,0.20798 -0.99041,0.20798zM199.28548,189.65536l-0.44569,-0.54472c0.30373,-0.14525 0.55463,-0.30703 0.75272,-0.48531c0.19808,-0.17827 0.29712,-0.33674 0.29712,-0.47539c0,-0.09904 -0.04292,-0.18817 -0.12876,-0.26741c-0.08584,-0.08584 -0.16506,-0.15846 -0.2377,-0.21789c-0.17168,-0.13866 -0.28722,-0.2542 -0.34665,-0.34665c-0.05943,-0.09904 -0.08914,-0.19808 -0.08914,-0.29712c0,-0.19149 0.06603,-0.34334 0.19808,-0.45558c0.13866,-0.11885 0.31363,-0.17827 0.52491,-0.17827c0.21789,0 0.41598,0.05943 0.59425,0.17827c0.17827,0.11225 0.31693,0.26741 0.41598,0.4655c0.10565,0.19808 0.15846,0.42918 0.15846,0.69329c0,0.20468 -0.04292,0.40607 -0.12876,0.60415c-0.08584,0.19808 -0.20798,0.38626 -0.36645,0.56453c-0.15187,0.17168 -0.33014,0.32353 -0.53482,0.45558c-0.20468,0.13206 -0.42588,0.23439 -0.66358,0.30703zM201.94882,195.27099v-6.20988h1.22811v1.95111l-0.11885,-0.47539c0.08584,-0.29712 0.23439,-0.56783 0.44569,-0.81213c0.21129,-0.2443 0.45228,-0.43577 0.723,-0.57444c0.27071,-0.14525 0.55133,-0.21789 0.84185,-0.21789c0.13206,0 0.25751,0.01321 0.37636,0.03962c0.12546,0.01981 0.22449,0.04622 0.29712,0.07924l-0.31693,1.32715c-0.09244,-0.03962 -0.19808,-0.07263 -0.31693,-0.09904c-0.11225,-0.03302 -0.22449,-0.04952 -0.33674,-0.04952c-0.21129,0 -0.41267,0.04292 -0.60415,0.12876c-0.19149,0.07924 -0.36315,0.19478 -0.51501,0.34665c-0.14525,0.14525 -0.26081,0.31363 -0.34665,0.50512c-0.08584,0.19149 -0.12876,0.40277 -0.12876,0.63386v3.42682zM209.34619,195.38984c-0.63386,0 -1.1984,-0.13536 -1.69361,-0.40607c-0.4886,-0.27071 -0.87486,-0.64377 -1.15878,-1.11916c-0.27731,-0.47539 -0.41598,-1.02013 -0.41598,-1.63418c0,-0.4886 0.07924,-0.93429 0.2377,-1.33706c0.15846,-0.40277 0.37636,-0.7494 0.65367,-1.03994c0.27731,-0.29712 0.61075,-0.52491 1.00032,-0.68339c0.39617,-0.16506 0.82204,-0.2476 1.27763,-0.2476c0.40277,0 0.77583,0.07593 1.11916,0.22779c0.34995,0.15187 0.65037,0.36315 0.90127,0.63386c0.25751,0.27071 0.45558,0.59094 0.59425,0.9607c0.13866,0.36315 0.20468,0.75932 0.19808,1.18849l-0.0099,0.52491h-5.07091l-0.27731,-0.9706h4.28848l-0.16838,0.19808v-0.27731c-0.02641,-0.26411 -0.11555,-0.4985 -0.26741,-0.70319c-0.14525,-0.20468 -0.33344,-0.36645 -0.56453,-0.48531c-0.23109,-0.11885 -0.47869,-0.17827 -0.74281,-0.17827c-0.42918,0 -0.78902,0.08254 -1.07954,0.2476c-0.29052,0.15846 -0.51171,0.39617 -0.66358,0.7131c-0.14525,0.31033 -0.21789,0.69329 -0.21789,1.14887c0,0.42918 0.08914,0.80553 0.26741,1.12908c0.17827,0.31693 0.43248,0.56453 0.76262,0.74281c0.33674,0.17168 0.7197,0.25751 1.14887,0.25751c0.31033,0 0.59755,-0.04952 0.86166,-0.14857c0.26411,-0.10565 0.55133,-0.29382 0.86166,-0.56453l0.61405,0.86166c-0.19149,0.19149 -0.42258,0.35985 -0.69329,0.50512c-0.27071,0.13866 -0.55793,0.2509 -0.86166,0.33674c-0.30373,0.07924 -0.60415,0.11885 -0.90127,0.11885zM219.082,195.38984c-0.50841,0 -0.97391,-0.14195 -1.39647,-0.42588c-0.42258,-0.28392 -0.76262,-0.67018 -1.02013,-1.15878c-0.2509,-0.4886 -0.37636,-1.03994 -0.37636,-1.65399c0,-0.62726 0.12876,-1.18189 0.38626,-1.66389c0.25751,-0.48199 0.60415,-0.86166 1.03994,-1.13897c0.44239,-0.27731 0.93429,-0.41598 1.47571,-0.41598c0.32353,0 0.61736,0.04952 0.88146,0.14857c0.27071,0.09244 0.50512,0.22449 0.70319,0.39617c0.20468,0.16506 0.36976,0.35985 0.4952,0.58434c0.13206,0.21789 0.21459,0.45228 0.2476,0.70319l-0.26741,-0.08914v-1.61437h1.22811v6.20988h-1.22811v-1.47571l0.27731,-0.08914c-0.04622,0.21789 -0.14195,0.42918 -0.28722,0.63386c-0.14525,0.19808 -0.33014,0.37636 -0.55463,0.53482c-0.22449,0.15187 -0.47209,0.27731 -0.74281,0.37636c-0.27071,0.09244 -0.55793,0.13866 -0.86166,0.13866zM219.39892,194.27068c0.37636,0 0.70319,-0.08914 0.98051,-0.26741c0.28392,-0.18487 0.50512,-0.43577 0.66358,-0.75272c0.16506,-0.32353 0.2476,-0.68999 0.2476,-1.09935c0,-0.40277 -0.08254,-0.76262 -0.2476,-1.07954c-0.15846,-0.31693 -0.37966,-0.56453 -0.66358,-0.74281c-0.27731,-0.18487 -0.60415,-0.27731 -0.98051,-0.27731c-0.36315,0 -0.68339,0.09244 -0.9607,0.27731c-0.27731,0.17827 -0.4985,0.42588 -0.66358,0.74281c-0.15846,0.31693 -0.2377,0.67678 -0.2377,1.07954c0,0.40937 0.07924,0.77583 0.2377,1.09935c0.16506,0.31693 0.38626,0.56783 0.66358,0.75272c0.27731,0.17827 0.59755,0.26741 0.9607,0.26741zM224.20045,195.27099v-8.75524h1.2182v8.75524zM227.16865,195.27099v-8.75524h1.2182v8.75524zM236.0627,195.38984c-0.57444,0 -1.08946,-0.14195 -1.54504,-0.42588c-0.44899,-0.28392 -0.80553,-0.67018 -1.06965,-1.15878c-0.26411,-0.4886 -0.39617,-1.03663 -0.39617,-1.64409c0,-0.60745 0.13206,-1.15548 0.39617,-1.64409c0.26411,-0.4886 0.62066,-0.87486 1.06965,-1.15878c0.45558,-0.28392 0.9706,-0.42588 1.54504,-0.42588c0.55463,0 1.05644,0.11225 1.50542,0.33674c0.45558,0.22449 0.80223,0.53152 1.03994,0.92108l-0.67348,0.82204c-0.12546,-0.17827 -0.28722,-0.34334 -0.48531,-0.4952c-0.19808,-0.15187 -0.40937,-0.27071 -0.63386,-0.35655c-0.21789,-0.08584 -0.42918,-0.12876 -0.63386,-0.12876c-0.37636,0 -0.7131,0.09244 -1.01022,0.27731c-0.29712,0.18487 -0.53152,0.43909 -0.70319,0.76262c-0.17168,0.32353 -0.25751,0.68669 -0.25751,1.08946c0,0.40277 0.08914,0.76591 0.26741,1.08946c0.18487,0.31693 0.42588,0.57113 0.723,0.76262c0.29712,0.18487 0.62726,0.27731 0.99041,0.27731c0.21789,0 0.42588,-0.03632 0.62396,-0.10895c0.19808,-0.07263 0.39286,-0.17827 0.58434,-0.31693c0.19149,-0.14525 0.36976,-0.32023 0.53482,-0.52491l0.67348,0.83194c-0.2509,0.35655 -0.61075,0.65037 -1.07954,0.88146c-0.4688,0.22449 -0.9574,0.33674 -1.46581,0.33674zM242.14174,195.38984c-0.50841,0 -0.97391,-0.14195 -1.39647,-0.42588c-0.42258,-0.28392 -0.76262,-0.67018 -1.02013,-1.15878c-0.2509,-0.4886 -0.37636,-1.03994 -0.37636,-1.65399c0,-0.62726 0.12876,-1.18189 0.38626,-1.66389c0.25751,-0.48199 0.60415,-0.86166 1.03994,-1.13897c0.44239,-0.27731 0.93429,-0.41598 1.47571,-0.41598c0.32353,0 0.61736,0.04952 0.88146,0.14857c0.27071,0.09244 0.50512,0.22449 0.70319,0.39617c0.20468,0.16506 0.36976,0.35985 0.4952,0.58434c0.13206,0.21789 0.21459,0.45228 0.2476,0.70319l-0.26741,-0.08914v-1.61437h1.22811v6.20988h-1.22811v-1.47571l0.27731,-0.08914c-0.04622,0.21789 -0.14195,0.42918 -0.28722,0.63386c-0.14525,0.19808 -0.33014,0.37636 -0.55463,0.53482c-0.22449,0.15187 -0.47209,0.27731 -0.74281,0.37636c-0.27071,0.09244 -0.55793,0.13866 -0.86166,0.13866zM242.45867,194.27068c0.37636,0 0.70319,-0.08914 0.98051,-0.26741c0.28392,-0.18487 0.50512,-0.43577 0.66358,-0.75272c0.16506,-0.32353 0.2476,-0.68999 0.2476,-1.09935c0,-0.40277 -0.08254,-0.76262 -0.2476,-1.07954c-0.15846,-0.31693 -0.37966,-0.56453 -0.66358,-0.74281c-0.27731,-0.18487 -0.60415,-0.27731 -0.98051,-0.27731c-0.36315,0 -0.68339,0.09244 -0.9607,0.27731c-0.27731,0.17827 -0.4985,0.42588 -0.66358,0.74281c-0.15846,0.31693 -0.2377,0.67678 -0.2377,1.07954c0,0.40937 0.07924,0.77583 0.2377,1.09935c0.16506,0.31693 0.38626,0.56783 0.66358,0.75272c0.27731,0.17827 0.59755,0.26741 0.9607,0.26741zM249.30098,195.38984c-0.44239,0 -0.82864,-0.10235 -1.15878,-0.30703c-0.32353,-0.20468 -0.57444,-0.4919 -0.75272,-0.86166c-0.17827,-0.36976 -0.26741,-0.81213 -0.26741,-1.32715v-3.83289h1.2182v3.50606c0,0.35655 0.05612,0.66688 0.16838,0.93099c0.11885,0.26411 0.28392,0.4688 0.4952,0.61405c0.21789,0.13866 0.48199,0.20798 0.79232,0.20798c0.22449,0 0.43248,-0.03632 0.62396,-0.10895c0.19149,-0.07263 0.35655,-0.17497 0.4952,-0.30703c0.13866,-0.13866 0.2443,-0.30043 0.31693,-0.48531c0.07924,-0.19149 0.11885,-0.39947 0.11885,-0.62396v-3.73385h1.2182v6.20988h-1.2182v-1.29744l0.21789,-0.14857c-0.09244,0.29712 -0.2509,0.56453 -0.47539,0.80223c-0.22449,0.23109 -0.4919,0.41598 -0.80223,0.55463c-0.31033,0.13866 -0.64047,0.20798 -0.99041,0.20798zM256.94123,197.99463c-0.44239,0 -0.88477,-0.06933 -1.32715,-0.20798c-0.43577,-0.13866 -0.78572,-0.32023 -1.04984,-0.54472l0.44569,-0.94089c0.15846,0.11885 0.34334,0.22119 0.55463,0.30703c0.21129,0.09244 0.43577,0.16506 0.67348,0.21789c0.2377,0.05282 0.47209,0.07924 0.70319,0.07924c0.42918,0 0.78902,-0.07263 1.07954,-0.21789c0.29712,-0.13866 0.51831,-0.34665 0.66358,-0.62396c0.15187,-0.27731 0.22779,-0.62066 0.22779,-1.03003v-1.18849l0.12876,0.07924c-0.03962,0.2443 -0.16838,0.47869 -0.38626,0.70319c-0.21789,0.22449 -0.4886,0.40937 -0.81213,0.55463c-0.31693,0.13866 -0.64707,0.20798 -0.99041,0.20798c-0.58764,0 -1.11257,-0.13866 -1.57475,-0.41598c-0.4622,-0.28392 -0.82864,-0.66688 -1.09935,-1.14887c-0.26411,-0.4886 -0.39617,-1.04324 -0.39617,-1.66389c0,-0.62066 0.13206,-1.17199 0.39617,-1.65399c0.26411,-0.4886 0.62396,-0.87156 1.07954,-1.14887c0.4622,-0.28392 0.98381,-0.42588 1.56485,-0.42588c0.23109,0 0.45558,0.02971 0.67348,0.08914c0.22449,0.05943 0.43248,0.14195 0.62396,0.2476c0.19149,0.10565 0.35985,0.22119 0.50512,0.34665c0.15187,0.12546 0.27401,0.26081 0.36645,0.40607c0.09904,0.13866 0.15846,0.27071 0.17827,0.39617l-0.25751,0.09904v-1.4559h1.2182v5.83352c0,0.4952 -0.07263,0.93429 -0.21789,1.31725c-0.14525,0.38296 -0.35655,0.7065 -0.63386,0.9706c-0.27731,0.26411 -0.61405,0.4655 -1.01022,0.60415c-0.38957,0.13866 -0.83194,0.20798 -1.32715,0.20798zM256.98085,194.27068c0.38957,0 0.73291,-0.08914 1.03003,-0.26741c0.30373,-0.18487 0.53812,-0.43577 0.70319,-0.75272c0.16506,-0.31693 0.2476,-0.68008 0.2476,-1.08946c0,-0.40937 -0.08584,-0.77253 -0.25751,-1.08946c-0.17168,-0.32353 -0.40607,-0.57444 -0.70319,-0.75272c-0.29052,-0.18487 -0.63056,-0.27731 -1.02013,-0.27731c-0.37636,0 -0.7131,0.09244 -1.01022,0.27731c-0.29712,0.18487 -0.53152,0.43909 -0.70319,0.76262c-0.16506,0.31693 -0.2476,0.67678 -0.2476,1.07954c0,0.40277 0.08254,0.76591 0.2476,1.08946c0.17168,0.31693 0.40607,0.56783 0.70319,0.75272c0.29712,0.17827 0.63386,0.26741 1.01022,0.26741zM261.83293,195.27099v-8.75524h1.2182v3.82299l-0.21789,0.13866c0.07924,-0.27071 0.23439,-0.52161 0.4655,-0.75272c0.23109,-0.2377 0.5018,-0.42918 0.81213,-0.57444c0.31693,-0.14525 0.64047,-0.21789 0.9706,-0.21789c0.47539,0 0.86826,0.09244 1.17859,0.27731c0.31693,0.18487 0.55463,0.4688 0.7131,0.85175c0.15846,0.37636 0.2377,0.85175 0.2377,1.4262v3.78337h-1.2182v-3.70414c0,-0.34995 -0.04622,-0.64047 -0.13866,-0.87156c-0.09244,-0.2377 -0.2377,-0.40937 -0.43577,-0.51501c-0.19808,-0.10565 -0.44239,-0.15187 -0.73291,-0.13866c-0.2377,0 -0.45558,0.03962 -0.65367,0.11885c-0.19808,0.07263 -0.36976,0.17827 -0.51501,0.31693c-0.14525,0.13206 -0.26081,0.28722 -0.34665,0.4655c-0.07924,0.17168 -0.11885,0.35985 -0.11885,0.56453v3.76356h-0.60415c-0.09904,0 -0.20138,0 -0.30703,0c-0.10565,0 -0.20798,0 -0.30703,0zM269.64164,195.27099v-7.79454h1.2182v7.79454zM268.3442,190.24962v-1.18849h3.95175v1.18849zM278.90017,195.38984c-0.44239,0 -0.82864,-0.10235 -1.15878,-0.30703c-0.32353,-0.20468 -0.57444,-0.4919 -0.75272,-0.86166c-0.17827,-0.36976 -0.26741,-0.81213 -0.26741,-1.32715v-3.83289h1.2182v3.50606c0,0.35655 0.05612,0.66688 0.16838,0.93099c0.11885,0.26411 0.28392,0.4688 0.4952,0.61405c0.21789,0.13866 0.48199,0.20798 0.79232,0.20798c0.22449,0 0.43248,-0.03632 0.62396,-0.10895c0.19149,-0.07263 0.35655,-0.17497 0.4952,-0.30703c0.13866,-0.13866 0.2443,-0.30043 0.31693,-0.48531c0.07924,-0.19149 0.11885,-0.39947 0.11885,-0.62396v-3.73385h1.2182v6.20988h-1.2182v-1.29744l0.21789,-0.14857c-0.09244,0.29712 -0.2509,0.56453 -0.47539,0.80223c-0.22449,0.23109 -0.4919,0.41598 -0.80223,0.55463c-0.31033,0.13866 -0.64047,0.20798 -0.99041,0.20798zM283.87571,197.87578v-8.81466h1.22811v1.41628l-0.18817,-0.09904c0.04622,-0.2377 0.17827,-0.4655 0.39617,-0.68339c0.22449,-0.21789 0.4952,-0.39617 0.81213,-0.53482c0.32353,-0.13866 0.65367,-0.20798 0.99041,-0.20798c0.56123,0 1.05644,0.13866 1.48561,0.41598c0.43577,0.27731 0.77913,0.65697 1.03003,1.13897c0.25751,0.48199 0.38626,1.03333 0.38626,1.65399c0,0.61405 -0.12546,1.16538 -0.37636,1.65399c-0.2509,0.48199 -0.59425,0.86496 -1.03003,1.14887c-0.42918,0.27731 -0.91448,0.41598 -1.4559,0.41598c-0.36315,0 -0.7164,-0.07263 -1.05974,-0.21789c-0.33674,-0.14525 -0.62396,-0.33344 -0.86166,-0.56453c-0.2377,-0.23109 -0.38296,-0.4688 -0.43577,-0.7131l0.30703,-0.15846v4.14983zM286.94597,194.25088c0.36315,0 0.68669,-0.08914 0.9706,-0.26741c0.28392,-0.18487 0.50841,-0.43248 0.67348,-0.74281c0.16506,-0.31693 0.2476,-0.67678 0.2476,-1.07954c0,-0.40277 -0.08254,-0.75932 -0.2476,-1.06965c-0.15846,-0.31033 -0.37966,-0.55463 -0.66358,-0.73291c-0.27731,-0.18487 -0.60415,-0.27731 -0.98051,-0.27731c-0.36976,0 -0.69659,0.08914 -0.98051,0.26741c-0.28392,0.17827 -0.50841,0.42588 -0.67348,0.74281c-0.16506,0.31033 -0.2476,0.66688 -0.2476,1.06965c0,0.40277 0.08254,0.76262 0.2476,1.07954c0.16506,0.31033 0.38957,0.55793 0.67348,0.74281c0.28392,0.17827 0.61075,0.26741 0.98051,0.26741zM291.5159,192.41862c-0.05282,-0.4952 -0.10235,-1.00692 -0.14857,-1.53514c-0.04622,-0.53482 -0.08254,-1.06305 -0.10895,-1.58466c-0.01981,-0.52161 -0.02971,-1.01352 -0.02971,-1.47571v-0.83194h1.27763v0.83194c0,0.4886 -0.01321,1.00032 -0.03962,1.53514c-0.01981,0.53482 -0.05282,1.06635 -0.09904,1.59456c-0.03962,0.52161 -0.08584,1.01022 -0.13866,1.46581zM291.83283,195.39975c-0.25751,0 -0.4589,-0.07593 -0.60415,-0.22779c-0.13866,-0.15187 -0.20798,-0.36976 -0.20798,-0.65367c0,-0.26411 0.07263,-0.47869 0.21789,-0.64377c0.15187,-0.16506 0.34995,-0.2476 0.59425,-0.2476c0.26411,0 0.4655,0.07924 0.60415,0.2377c0.14525,0.15187 0.21789,0.36976 0.21789,0.65367c0,0.25751 -0.07593,0.4688 -0.22779,0.63386c-0.15187,0.16506 -0.34995,0.2476 -0.59425,0.2476z"/><path d="M188.92162,207.22074v-6.51602h0.90414l3.98288,5.33129l-0.14809,0.08574c-0.02598,-0.15589 -0.04936,-0.32476 -0.07014,-0.50663c-0.01559,-0.18187 -0.03117,-0.37673 -0.04677,-0.58457c-0.01559,-0.20784 -0.02857,-0.42869 -0.03897,-0.66251c-0.0104,-0.23383 -0.01819,-0.47804 -0.02338,-0.73267c-0.0052,-0.25461 -0.0078,-0.51703 -0.0078,-0.78723v-2.14343h1.00547v6.51602h-0.91973l-3.92052,-5.13643l0.10133,-0.1325c0.03117,0.37933 0.05716,0.70148 0.07794,0.9665c0.02078,0.265 0.03897,0.48844 0.05456,0.67031c0.01559,0.18187 0.02598,0.32996 0.03117,0.44427c0.0104,0.11431 0.01559,0.21044 0.01559,0.28839c0.0052,0.07274 0.0078,0.1377 0.0078,0.19486v2.70461zM198.25794,207.31427c-0.47804,0 -0.90674,-0.10913 -1.28606,-0.32736c-0.37413,-0.22344 -0.67031,-0.52481 -0.88854,-0.90414c-0.21304,-0.38452 -0.31957,-0.821 -0.31957,-1.30944c0,-0.48844 0.10653,-0.92233 0.31957,-1.30164c0.21824,-0.38452 0.51443,-0.6859 0.88854,-0.90414c0.37933,-0.22344 0.80801,-0.33516 1.28606,-0.33516c0.46766,0 0.88854,0.11172 1.26267,0.33516c0.37933,0.21824 0.6781,0.51961 0.89634,0.90414c0.21824,0.37933 0.32736,0.8132 0.32736,1.30164c0,0.48844 -0.10913,0.92491 -0.32736,1.30944c-0.21824,0.37933 -0.51703,0.6807 -0.89634,0.90414c-0.37413,0.21824 -0.79501,0.32736 -1.26267,0.32736zM198.25794,206.44131c0.29099,0 0.5508,-0.07274 0.77943,-0.21824c0.22863,-0.1455 0.4079,-0.34294 0.5378,-0.59237c0.1299,-0.25461 0.19226,-0.5404 0.18706,-0.85737c0.0052,-0.32217 -0.05716,-0.60796 -0.18706,-0.85737c-0.1299,-0.25461 -0.30917,-0.45207 -0.5378,-0.59237c-0.22863,-0.1455 -0.48844,-0.21824 -0.77943,-0.21824c-0.29099,0 -0.5534,0.07274 -0.78723,0.21824c-0.23383,0.1455 -0.4157,0.34554 -0.5456,0.60016c-0.1299,0.24941 -0.19226,0.53261 -0.18706,0.84957c-0.0052,0.31697 0.05716,0.60276 0.18706,0.85737c0.1299,0.24941 0.31177,0.44687 0.5456,0.59237c0.23383,0.1455 0.49624,0.21824 0.78723,0.21824zM204.38916,207.22074v-4.88702h0.9587v1.00547l-0.17147,0.10913c0.06236,-0.21304 0.18447,-0.4105 0.36633,-0.59237c0.18187,-0.18706 0.39491,-0.33776 0.63913,-0.45207c0.24941,-0.11431 0.50403,-0.17147 0.76384,-0.17147c0.37413,0 0.6833,0.07274 0.92751,0.21824c0.24941,0.1455 0.43648,0.36893 0.56119,0.67031c0.12471,0.29618 0.18706,0.67031 0.18706,1.12237v2.97741h-0.9587v-2.91507c0,-0.2754 -0.03637,-0.50403 -0.10913,-0.6859c-0.07274,-0.18706 -0.18706,-0.32217 -0.34294,-0.4053c-0.15589,-0.08314 -0.34814,-0.11951 -0.57677,-0.10913c-0.18706,0 -0.35854,0.03117 -0.51443,0.09353c-0.15589,0.05716 -0.29099,0.1403 -0.4053,0.24941c-0.11431,0.10393 -0.20526,0.22603 -0.2728,0.36633c-0.06236,0.1351 -0.09353,0.2832 -0.09353,0.44427v2.96182h-0.47545c-0.07794,0 -0.15849,0 -0.24163,0c-0.08314,0 -0.16368,0 -0.24163,0zM212.20239,207.31427c-0.49883,0 -0.94311,-0.10653 -1.33283,-0.31957c-0.38452,-0.21304 -0.6885,-0.50663 -0.91193,-0.88076c-0.21824,-0.37413 -0.32736,-0.80281 -0.32736,-1.28606c0,-0.38452 0.06236,-0.73526 0.18706,-1.05223c0.12471,-0.31697 0.29618,-0.58977 0.51443,-0.8184c0.21824,-0.23383 0.48064,-0.4131 0.78723,-0.5378c0.31177,-0.1299 0.64693,-0.19486 1.00547,-0.19486c0.31697,0 0.61056,0.05976 0.88076,0.17927c0.2754,0.11951 0.51183,0.28579 0.70928,0.49883c0.20266,0.21304 0.35854,0.46506 0.46766,0.75604c0.10913,0.28579 0.16108,0.59756 0.15589,0.93531l-0.0078,0.4131h-3.99068l-0.21824,-0.76384h3.37492l-0.1325,0.15589v-0.21824c-0.02078,-0.20784 -0.09093,-0.39231 -0.21044,-0.5534c-0.11431,-0.16108 -0.26241,-0.28839 -0.44427,-0.38193c-0.18187,-0.09353 -0.37673,-0.1403 -0.58457,-0.1403c-0.33776,0 -0.62094,0.06496 -0.84957,0.19486c-0.22863,0.12471 -0.4027,0.31177 -0.52221,0.56119c-0.11431,0.24423 -0.17147,0.5456 -0.17147,0.90414c0,0.33776 0.07014,0.63394 0.21044,0.88854c0.1403,0.24941 0.34034,0.44427 0.60016,0.58457c0.265,0.1351 0.56638,0.20266 0.90414,0.20266c0.24423,0 0.47026,-0.03897 0.6781,-0.11691c0.20784,-0.08314 0.43388,-0.23123 0.6781,-0.44427l0.48324,0.6781c-0.15069,0.15069 -0.33256,0.2832 -0.5456,0.39751c-0.21304,0.10913 -0.43907,0.19746 -0.6781,0.265c-0.23903,0.06236 -0.47545,0.09353 -0.70928,0.09353zM216.48719,207.22074l-1.66798,-4.88702l0.9665,-0.0078l1.19253,3.65552l-0.21044,-0.01559l1.29385,-2.86051h0.57677l1.30164,2.8683l-0.24941,0.01559l1.20031,-3.65552h0.9665l-1.6446,4.88702h-0.66251l-1.364,-3.10992l0.21824,0.03117l-1.26267,3.07874zM225.33775,207.22074v-4.88702h0.9587v1.00547l-0.17147,0.10913c0.06236,-0.21304 0.18447,-0.4105 0.36633,-0.59237c0.18187,-0.18706 0.39491,-0.33776 0.63913,-0.45207c0.24941,-0.11431 0.50403,-0.17147 0.76384,-0.17147c0.37413,0 0.6833,0.07274 0.92751,0.21824c0.24941,0.1455 0.43648,0.36893 0.56119,0.67031c0.12471,0.29618 0.18706,0.67031 0.18706,1.12237v2.97741h-0.9587v-2.91507c0,-0.2754 -0.03637,-0.50403 -0.10913,-0.6859c-0.07274,-0.18706 -0.18706,-0.32217 -0.34294,-0.4053c-0.15589,-0.08314 -0.34814,-0.11951 -0.57677,-0.10913c-0.18706,0 -0.35854,0.03117 -0.51443,0.09353c-0.15589,0.05716 -0.29099,0.1403 -0.4053,0.24941c-0.11431,0.10393 -0.20526,0.22603 -0.2728,0.36633c-0.06236,0.1351 -0.09353,0.2832 -0.09353,0.44427v2.96182h-0.47545c-0.07794,0 -0.15849,0 -0.24163,0c-0.08314,0 -0.16368,0 -0.24163,0zM233.07303,207.31427c-0.47804,0 -0.90674,-0.10913 -1.28606,-0.32736c-0.37413,-0.22344 -0.67031,-0.52481 -0.88854,-0.90414c-0.21304,-0.38452 -0.31957,-0.821 -0.31957,-1.30944c0,-0.48844 0.10653,-0.92233 0.31957,-1.30164c0.21824,-0.38452 0.51443,-0.6859 0.88854,-0.90414c0.37933,-0.22344 0.80801,-0.33516 1.28606,-0.33516c0.46766,0 0.88854,0.11172 1.26267,0.33516c0.37933,0.21824 0.6781,0.51961 0.89634,0.90414c0.21824,0.37933 0.32736,0.8132 0.32736,1.30164c0,0.48844 -0.10913,0.92491 -0.32736,1.30944c-0.21824,0.37933 -0.51703,0.6807 -0.89634,0.90414c-0.37413,0.21824 -0.79501,0.32736 -1.26267,0.32736zM233.07303,206.44131c0.29099,0 0.5508,-0.07274 0.77943,-0.21824c0.22863,-0.1455 0.4079,-0.34294 0.5378,-0.59237c0.1299,-0.25461 0.19226,-0.5404 0.18706,-0.85737c0.0052,-0.32217 -0.05716,-0.60796 -0.18706,-0.85737c-0.1299,-0.25461 -0.30917,-0.45207 -0.5378,-0.59237c-0.22863,-0.1455 -0.48844,-0.21824 -0.77943,-0.21824c-0.29099,0 -0.5534,0.07274 -0.78723,0.21824c-0.23383,0.1455 -0.4157,0.34554 -0.5456,0.60016c-0.1299,0.24941 -0.19226,0.53261 -0.18706,0.84957c-0.0052,0.31697 0.05716,0.60276 0.18706,0.85737c0.1299,0.24941 0.31177,0.44687 0.5456,0.59237c0.23383,0.1455 0.49624,0.21824 0.78723,0.21824zM237.20643,207.22074v-6.1341h0.9587v6.1341zM236.18537,203.26904v-0.93531h3.10992v0.93531zM240.328,207.22074v-4.88702h0.9587v4.88702zM240.79566,201.25812c-0.20266,0 -0.36113,-0.05196 -0.47545,-0.15589c-0.10913,-0.10913 -0.16368,-0.25981 -0.16368,-0.45207c0,-0.18187 0.05716,-0.32736 0.17147,-0.43648c0.11431,-0.11431 0.2702,-0.17147 0.46766,-0.17147c0.20266,0 0.35854,0.05456 0.46766,0.16368c0.11431,0.10393 0.17147,0.25201 0.17147,0.44427c0,0.18187 -0.05716,0.32996 -0.17147,0.44427c-0.11431,0.10913 -0.2702,0.16368 -0.46766,0.16368zM243.2893,207.22074v-5.43262c0,-0.2806 0.06236,-0.53001 0.18706,-0.74825c0.12471,-0.21824 0.29358,-0.38711 0.50663,-0.50663c0.21824,-0.12471 0.47026,-0.18706 0.75604,-0.18706c0.19746,0 0.38193,0.03637 0.5534,0.10913c0.17667,0.07274 0.31957,0.17147 0.42869,0.29618l-0.32736,0.73267c-0.08314,-0.07274 -0.17407,-0.1325 -0.2728,-0.17927c-0.09353,-0.04677 -0.18187,-0.07014 -0.265,-0.07014c-0.1299,0 -0.24163,0.02078 -0.33516,0.06236c-0.08833,0.04157 -0.15589,0.10393 -0.20266,0.18706c-0.04157,0.08314 -0.06236,0.18447 -0.06236,0.30397v5.43262h-0.48324c-0.07794,0 -0.15849,0 -0.24163,0c-0.07794,0 -0.15849,0 -0.24163,0zM242.50987,203.30022v-0.88076h2.89948v0.88076zM246.57069,207.22074v-4.88702h0.9587v4.88702zM247.03835,201.25812c-0.20266,0 -0.36113,-0.05196 -0.47545,-0.15589c-0.10913,-0.10913 -0.16368,-0.25981 -0.16368,-0.45207c0,-0.18187 0.05716,-0.32736 0.17147,-0.43648c0.11431,-0.11431 0.2702,-0.17147 0.46766,-0.17147c0.20266,0 0.35854,0.05456 0.46766,0.16368c0.11431,0.10393 0.17147,0.25201 0.17147,0.44427c0,0.18187 -0.05716,0.32996 -0.17147,0.44427c-0.11431,0.10913 -0.2702,0.16368 -0.46766,0.16368zM251.07714,207.31427c-0.45207,0 -0.85737,-0.11172 -1.21591,-0.33516c-0.35334,-0.22344 -0.63394,-0.52741 -0.84178,-0.91193c-0.20784,-0.38452 -0.31177,-0.8158 -0.31177,-1.29385c0,-0.47804 0.10393,-0.90933 0.31177,-1.29385c0.20784,-0.38452 0.48844,-0.6885 0.84178,-0.91193c0.35854,-0.22344 0.76384,-0.33516 1.21591,-0.33516c0.43648,0 0.8314,0.08833 1.18473,0.265c0.35854,0.17667 0.63134,0.4183 0.8184,0.72487l-0.53001,0.64693c-0.09873,-0.1403 -0.22603,-0.2702 -0.38193,-0.38971c-0.15589,-0.11951 -0.32217,-0.21304 -0.49883,-0.2806c-0.17147,-0.06754 -0.33776,-0.10133 -0.49883,-0.10133c-0.29618,0 -0.56119,0.07274 -0.79501,0.21824c-0.23383,0.1455 -0.4183,0.34554 -0.5534,0.60016c-0.1351,0.25461 -0.20266,0.5404 -0.20266,0.85737c0,0.31697 0.07014,0.60276 0.21044,0.85737c0.1455,0.24941 0.33516,0.44947 0.56898,0.60016c0.23383,0.1455 0.49364,0.21824 0.77943,0.21824c0.17147,0 0.33516,-0.02857 0.49104,-0.08574c0.15589,-0.05716 0.30917,-0.1403 0.45986,-0.24941c0.15069,-0.11431 0.29099,-0.25201 0.4209,-0.4131l0.53001,0.65473c-0.19746,0.2806 -0.48064,0.51183 -0.84957,0.6937c-0.36893,0.17667 -0.75344,0.265 -1.15355,0.265zM255.8612,207.31427c-0.4001,0 -0.76644,-0.11172 -1.099,-0.33516c-0.33256,-0.22344 -0.60016,-0.52741 -0.80281,-0.91193c-0.19746,-0.38452 -0.29618,-0.8184 -0.29618,-1.30164c0,-0.49364 0.10133,-0.93011 0.30397,-1.30944c0.20266,-0.37933 0.47545,-0.6781 0.8184,-0.89634c0.34814,-0.21824 0.73526,-0.32736 1.16134,-0.32736c0.25461,0 0.48584,0.03897 0.6937,0.11691c0.21304,0.07274 0.39751,0.17667 0.5534,0.31177c0.16108,0.1299 0.29099,0.2832 0.38971,0.45986c0.10393,0.17147 0.16887,0.35594 0.19486,0.5534l-0.21044,-0.07014v-1.27047h0.9665v4.88702h-0.9665v-1.16134l0.21824,-0.07014c-0.03637,0.17147 -0.11172,0.33776 -0.22603,0.49883c-0.11431,0.15589 -0.25981,0.29618 -0.43648,0.4209c-0.17667,0.11951 -0.37153,0.21824 -0.58457,0.29618c-0.21304,0.07274 -0.43907,0.10913 -0.6781,0.10913zM256.1106,206.43351c0.29618,0 0.5534,-0.07014 0.77163,-0.21044c0.22344,-0.1455 0.39751,-0.34294 0.52221,-0.59237c0.1299,-0.25461 0.19486,-0.543 0.19486,-0.86517c0,-0.31697 -0.06496,-0.60016 -0.19486,-0.84957c-0.12471,-0.24941 -0.29878,-0.44427 -0.52221,-0.58457c-0.21824,-0.1455 -0.47545,-0.21824 -0.77163,-0.21824c-0.28579,0 -0.5378,0.07274 -0.75604,0.21824c-0.21824,0.1403 -0.39231,0.33516 -0.52221,0.58457c-0.12471,0.24941 -0.18706,0.53261 -0.18706,0.84957c0,0.32217 0.06236,0.61056 0.18706,0.86517c0.1299,0.24941 0.30397,0.44687 0.52221,0.59237c0.21824,0.1403 0.47026,0.21044 0.75604,0.21044zM260.48166,207.22074v-6.1341h0.9587v6.1341zM259.4606,203.26904v-0.93531h3.10992v0.93531zM263.60323,207.22074v-4.88702h0.9587v4.88702zM264.07088,201.25812c-0.20266,0 -0.36113,-0.05196 -0.47545,-0.15589c-0.10913,-0.10913 -0.16368,-0.25981 -0.16368,-0.45207c0,-0.18187 0.05716,-0.32736 0.17147,-0.43648c0.11431,-0.11431 0.2702,-0.17147 0.46766,-0.17147c0.20266,0 0.35854,0.05456 0.46766,0.16368c0.11431,0.10393 0.17147,0.25201 0.17147,0.44427c0,0.18187 -0.05716,0.32996 -0.17147,0.44427c-0.11431,0.10913 -0.2702,0.16368 -0.46766,0.16368zM268.23251,207.31427c-0.47804,0 -0.90674,-0.10913 -1.28606,-0.32736c-0.37413,-0.22344 -0.67031,-0.52481 -0.88854,-0.90414c-0.21304,-0.38452 -0.31957,-0.821 -0.31957,-1.30944c0,-0.48844 0.10653,-0.92233 0.31957,-1.30164c0.21824,-0.38452 0.51443,-0.6859 0.88854,-0.90414c0.37933,-0.22344 0.80801,-0.33516 1.28606,-0.33516c0.46766,0 0.88854,0.11172 1.26267,0.33516c0.37933,0.21824 0.6781,0.51961 0.89634,0.90414c0.21824,0.37933 0.32736,0.8132 0.32736,1.30164c0,0.48844 -0.10913,0.92491 -0.32736,1.30944c-0.21824,0.37933 -0.51703,0.6807 -0.89634,0.90414c-0.37413,0.21824 -0.79501,0.32736 -1.26267,0.32736zM268.23251,206.44131c0.29099,0 0.5508,-0.07274 0.77943,-0.21824c0.22863,-0.1455 0.4079,-0.34294 0.5378,-0.59237c0.1299,-0.25461 0.19226,-0.5404 0.18706,-0.85737c0.0052,-0.32217 -0.05716,-0.60796 -0.18706,-0.85737c-0.1299,-0.25461 -0.30917,-0.45207 -0.5378,-0.59237c-0.22863,-0.1455 -0.48844,-0.21824 -0.77943,-0.21824c-0.29099,0 -0.5534,0.07274 -0.78723,0.21824c-0.23383,0.1455 -0.4157,0.34554 -0.5456,0.60016c-0.1299,0.24941 -0.19226,0.53261 -0.18706,0.84957c-0.0052,0.31697 0.05716,0.60276 0.18706,0.85737c0.1299,0.24941 0.31177,0.44687 0.5456,0.59237c0.23383,0.1455 0.49624,0.21824 0.78723,0.21824zM271.75793,207.22074v-4.88702h0.9587v1.00547l-0.17147,0.10913c0.06236,-0.21304 0.18447,-0.4105 0.36633,-0.59237c0.18187,-0.18706 0.39491,-0.33776 0.63913,-0.45207c0.24941,-0.11431 0.50403,-0.17147 0.76384,-0.17147c0.37413,0 0.6833,0.07274 0.92751,0.21824c0.24941,0.1455 0.43648,0.36893 0.56119,0.67031c0.12471,0.29618 0.18706,0.67031 0.18706,1.12237v2.97741h-0.9587v-2.91507c0,-0.2754 -0.03637,-0.50403 -0.10913,-0.6859c-0.07274,-0.18706 -0.18706,-0.32217 -0.34294,-0.4053c-0.15589,-0.08314 -0.34814,-0.11951 -0.57677,-0.10913c-0.18706,0 -0.35854,0.03117 -0.51443,0.09353c-0.15589,0.05716 -0.29099,0.1403 -0.4053,0.24941c-0.11431,0.10393 -0.20526,0.22603 -0.2728,0.36633c-0.06236,0.1351 -0.09353,0.2832 -0.09353,0.44427v2.96182h-0.47545c-0.07794,0 -0.15849,0 -0.24163,0c-0.08314,0 -0.16368,0 -0.24163,0zM278.92426,207.31427c-0.4105,0 -0.77943,-0.07014 -1.10679,-0.21044c-0.32736,-0.1455 -0.60016,-0.35854 -0.8184,-0.63913l0.64693,-0.5534c0.18706,0.21304 0.38971,0.36893 0.60796,0.46766c0.22344,0.09353 0.47545,0.1403 0.75604,0.1403c0.10913,0 0.21044,-0.01299 0.30397,-0.03897c0.09873,-0.02598 0.18447,-0.06754 0.25721,-0.12471c0.07274,-0.05716 0.1273,-0.12471 0.16368,-0.20266c0.03637,-0.07794 0.05456,-0.16368 0.05456,-0.25721c0,-0.16108 -0.05976,-0.29099 -0.17927,-0.38971c-0.06236,-0.04157 -0.16108,-0.08833 -0.29618,-0.1403c-0.1299,-0.05196 -0.30137,-0.10653 -0.51443,-0.16368c-0.35854,-0.09353 -0.65213,-0.19746 -0.88076,-0.31177c-0.22863,-0.11951 -0.4053,-0.25461 -0.53001,-0.4053c-0.09353,-0.11951 -0.16368,-0.24681 -0.21044,-0.38193c-0.04157,-0.1403 -0.06236,-0.29618 -0.06236,-0.46766c0,-0.20266 0.04417,-0.38971 0.1325,-0.56119c0.09353,-0.17147 0.21824,-0.31957 0.37413,-0.44427c0.16108,-0.1299 0.34814,-0.22863 0.56119,-0.29618c0.21304,-0.06754 0.44167,-0.10133 0.6859,-0.10133c0.22863,0 0.45467,0.03117 0.6781,0.09353c0.22863,0.06236 0.43907,0.15329 0.63134,0.2728c0.19226,0.11431 0.35334,0.25201 0.48324,0.4131l-0.5456,0.60796c-0.11951,-0.11951 -0.24941,-0.22344 -0.38971,-0.31177c-0.1403,-0.08833 -0.2832,-0.15589 -0.42869,-0.20266c-0.1403,-0.05196 -0.2676,-0.07794 -0.38193,-0.07794c-0.1299,0 -0.24941,0.01299 -0.35854,0.03897c-0.10393,0.02078 -0.19226,0.05716 -0.265,0.10913c-0.06754,0.04677 -0.12211,0.10913 -0.16368,0.18706c-0.03637,0.07274 -0.05456,0.15589 -0.05456,0.24941c0.0052,0.07794 0.02598,0.15329 0.06236,0.22603c0.03637,0.07274 0.08574,0.1325 0.14809,0.17927c0.06754,0.05196 0.16887,0.10653 0.30397,0.16368c0.1351,0.05196 0.30917,0.10393 0.52221,0.15589c0.30657,0.07794 0.56119,0.16627 0.76384,0.265c0.20266,0.09353 0.36373,0.20266 0.48324,0.32736c0.12471,0.11951 0.21044,0.25721 0.25721,0.4131c0.05196,0.15589 0.07794,0.32996 0.07794,0.52221c0,0.2754 -0.08054,0.52481 -0.24163,0.74825c-0.15589,0.21824 -0.36893,0.38971 -0.63913,0.51443c-0.265,0.12471 -0.56119,0.18706 -0.88854,0.18706z"/></g></g></svg>