<svg version="1.1" xmlns="http://www.w3.org/2000/svg" xmlns:xlink="http://www.w3.org/1999/xlink" width="596.0961" height="375.10755" viewBox="0,0,596.0961,375.10755"><defs><linearGradient x1="230.99099" y1="290.36037" x2="230.99099" y2="360.93095" gradientUnits="userSpaceOnUse" id="color-1"><stop offset="0" stop-color="#282828" stop-opacity="0"/><stop offset="1" stop-color="#282828"/></linearGradient></defs><g transform="translate(67.05706,14.1766)"><g data-paper-data="{&quot;isPaintingLayer&quot;:true}" stroke="none" stroke-linejoin="miter" stroke-miterlimit="10" stroke-dasharray="" stroke-dashoffset="0" style="mix-blend-mode: normal"><path d="M-18.11446,9.00627c0,-12.80356 9.69038,-23.18287 21.64406,-23.18287h464.57762c5.74037,0 11.24563,2.44247 15.30467,6.7901c4.05907,4.34763 6.3394,10.24427 6.3394,16.39277v328.70077c0,12.80356 -9.69036,23.18287 -21.64407,23.18287h-464.57761c-11.95367,0 -21.64406,-10.37931 -21.64406,-23.18287z" fill="#ebebeb" fill-rule="evenodd" stroke-width="1" stroke-linecap="square"/><path d="M-67.05706,360.93095v-70.57057h596.0961v70.57057z" fill="url(#color-1)" fill-rule="nonzero" stroke-width="0" stroke-linecap="butt"/><path d="M459.5029,12.73421c0,2.34801 -1.91444,4.25144 -4.27602,4.25144c-2.36158,0 -4.27601,-1.90344 -4.27601,-4.25144c0,-2.34801 1.91443,-4.25144 4.27601,-4.25144c2.36158,0 4.27602,1.90344 4.27602,4.25144z" fill-opacity="0.25378" fill="#3a3a3a" fill-rule="nonzero" stroke-width="0" stroke-linecap="butt"/><path d="M474.0029,12.73421c0,2.34801 -1.91444,4.25144 -4.27602,4.25144c-2.36158,0 -4.27601,-1.90344 -4.27601,-4.25144c0,-2.34801 1.91443,-4.25144 4.27601,-4.25144c2.36158,0 4.27602,1.90344 4.27602,4.25144z" fill-opacity="0.25378" fill="#3a3a3a" fill-rule="nonzero" stroke-width="0" stroke-linecap="butt"/><path d="M214.28181,16.81782l-1.78395,-5.60671h0.9188l1.07976,3.50754c0.0313,0.08495 0.06036,0.18555 0.08718,0.3018c0.02682,0.11625 0.05142,0.2325 0.07377,0.34874c0.02235,0.11625 0.04248,0.22579 0.06036,0.32863c0.01789,0.10284 0.03576,0.18555 0.05365,0.24814l-0.23473,-0.00671c0.08047,-0.28615 0.14307,-0.50523 0.18778,-0.65724c0.04471,-0.15649 0.08047,-0.27497 0.10731,-0.35545c0.02682,-0.08495 0.05142,-0.15649 0.07377,-0.21461l1.00599,-2.52838h0.77796l0.97916,2.52838c0.05365,0.12966 0.10059,0.25709 0.14084,0.38228c0.04024,0.12519 0.07601,0.25038 0.10731,0.37557c0.0313,0.12519 0.06706,0.25709 0.10731,0.39569l-0.21461,0.05365c0.02682,-0.14307 0.04694,-0.25485 0.06036,-0.33533c0.01341,-0.08495 0.02459,-0.15425 0.03353,-0.2079c0.01341,-0.05365 0.02459,-0.10507 0.03353,-0.15425c0.01341,-0.05365 0.0313,-0.11848 0.05365,-0.19449c0.02682,-0.08047 0.06036,-0.19002 0.10059,-0.32863l1.06635,-3.48743h0.93222l-1.79066,5.60671h-0.59689l-1.48216,-3.50754l0.07377,0.03353l-1.4285,3.47401zM222.27176,16.8983c-0.34427,0 -0.65948,-0.09613 -0.94563,-0.28839c-0.28615,-0.19226 -0.51641,-0.45381 -0.69078,-0.78467c-0.1699,-0.33086 -0.25485,-0.7042 -0.25485,-1.12c0,-0.42476 0.08718,-0.80033 0.26155,-1.12671c0.17437,-0.32638 0.4091,-0.58347 0.7042,-0.77126c0.29956,-0.18778 0.63266,-0.28167 0.99928,-0.28167c0.21908,0 0.41805,0.03353 0.59689,0.10059c0.18331,0.0626 0.34204,0.15201 0.47616,0.26826c0.1386,0.11177 0.25038,0.24368 0.33533,0.39569c0.08942,0.14755 0.1453,0.30626 0.16767,0.47616l-0.18108,-0.06036v-1.09318h0.83161v4.20503h-0.83161v-0.99928l0.18778,-0.06036c-0.0313,0.14755 -0.09613,0.29062 -0.19449,0.42922c-0.09836,0.13413 -0.22356,0.25485 -0.37557,0.36216c-0.15201,0.10284 -0.31968,0.18778 -0.503,0.25485c-0.18331,0.0626 -0.3778,0.0939 -0.58347,0.0939zM222.48637,16.14046c0.25485,0 0.47616,-0.06036 0.66395,-0.18108c0.19226,-0.12519 0.34204,-0.29508 0.44934,-0.5097c0.11177,-0.21908 0.16767,-0.46722 0.16767,-0.74443c0,-0.27273 -0.05589,-0.51641 -0.16767,-0.73102c-0.10731,-0.21461 -0.25709,-0.38228 -0.44934,-0.503c-0.18778,-0.12519 -0.4091,-0.18778 -0.66395,-0.18778c-0.24591,0 -0.46275,0.0626 -0.65054,0.18778c-0.18778,0.12072 -0.33756,0.28839 -0.44934,0.503c-0.10731,0.21461 -0.16096,0.45829 -0.16096,0.73102c0,0.27721 0.05365,0.52535 0.16096,0.74443c0.11177,0.21461 0.26155,0.38451 0.44934,0.5097c0.18778,0.12072 0.40463,0.18108 0.65054,0.18108zM225.73775,16.81782v-5.92863h0.82491v5.92863zM227.74767,16.81782v-5.92863h0.82491v5.92863zM229.74419,18.58165v-5.96886h0.83161v0.95904l-0.12743,-0.06706c0.0313,-0.16096 0.12072,-0.31521 0.26826,-0.46275c0.15201,-0.14755 0.33533,-0.26826 0.54994,-0.36216c0.21908,-0.0939 0.44263,-0.14084 0.67065,-0.14084c0.38004,0 0.71537,0.0939 1.00599,0.28167c0.29508,0.18778 0.52758,0.44487 0.69749,0.77126c0.17437,0.32638 0.26155,0.69972 0.26155,1.12c0,0.41581 -0.08495,0.78914 -0.25485,1.12c-0.1699,0.32638 -0.40239,0.58571 -0.69749,0.77796c-0.29062,0.18778 -0.61925,0.28167 -0.98587,0.28167c-0.24591,0 -0.48511,-0.04919 -0.71761,-0.14755c-0.22802,-0.09836 -0.42251,-0.22579 -0.58347,-0.38228c-0.16096,-0.15649 -0.25932,-0.31745 -0.29508,-0.48288l0.2079,-0.10731v2.81006zM231.82323,16.12703c0.24591,0 0.46499,-0.06036 0.65724,-0.18108c0.19226,-0.12519 0.34427,-0.29285 0.45604,-0.503c0.11177,-0.21461 0.16767,-0.45829 0.16767,-0.73102c0,-0.27273 -0.05589,-0.51417 -0.16767,-0.72431c-0.10731,-0.21014 -0.25709,-0.37557 -0.44934,-0.49629c-0.18778,-0.12519 -0.4091,-0.18778 -0.66395,-0.18778c-0.25038,0 -0.4717,0.06036 -0.66395,0.18108c-0.19226,0.12072 -0.34427,0.28839 -0.45604,0.503c-0.11177,0.21014 -0.16767,0.45158 -0.16767,0.72431c0,0.27273 0.05589,0.51641 0.16767,0.73102c0.11177,0.21014 0.2638,0.3778 0.45604,0.503c0.19226,0.12072 0.41357,0.18108 0.66395,0.18108zM236.41332,16.8983c-0.34427,0 -0.65948,-0.09613 -0.94563,-0.28839c-0.28615,-0.19226 -0.51641,-0.45381 -0.69078,-0.78467c-0.1699,-0.33086 -0.25485,-0.7042 -0.25485,-1.12c0,-0.42476 0.08718,-0.80033 0.26155,-1.12671c0.17437,-0.32638 0.4091,-0.58347 0.7042,-0.77126c0.29956,-0.18778 0.63266,-0.28167 0.99928,-0.28167c0.21908,0 0.41805,0.03353 0.59689,0.10059c0.18331,0.0626 0.34204,0.15201 0.47616,0.26826c0.1386,0.11177 0.25038,0.24368 0.33533,0.39569c0.08942,0.14755 0.1453,0.30626 0.16767,0.47616l-0.18108,-0.06036v-1.09318h0.83161v4.20503h-0.83161v-0.99928l0.18778,-0.06036c-0.0313,0.14755 -0.09613,0.29062 -0.19449,0.42922c-0.09836,0.13413 -0.22356,0.25485 -0.37557,0.36216c-0.15201,0.10284 -0.31968,0.18778 -0.503,0.25485c-0.18331,0.0626 -0.3778,0.0939 -0.58347,0.0939zM236.62793,16.14046c0.25485,0 0.47616,-0.06036 0.66395,-0.18108c0.19226,-0.12519 0.34204,-0.29508 0.44934,-0.5097c0.11177,-0.21908 0.16767,-0.46722 0.16767,-0.74443c0,-0.27273 -0.05589,-0.51641 -0.16767,-0.73102c-0.10731,-0.21461 -0.25709,-0.38228 -0.44934,-0.503c-0.18778,-0.12519 -0.4091,-0.18778 -0.66395,-0.18778c-0.24591,0 -0.46275,0.0626 -0.65054,0.18778c-0.18778,0.12072 -0.33756,0.28839 -0.44934,0.503c-0.10731,0.21461 -0.16096,0.45829 -0.16096,0.73102c0,0.27721 0.05365,0.52535 0.16096,0.74443c0.11177,0.21461 0.26155,0.38451 0.44934,0.5097c0.18778,0.12072 0.40463,0.18108 0.65054,0.18108zM239.86588,18.58165v-5.96886h0.83161v0.95904l-0.12743,-0.06706c0.0313,-0.16096 0.12072,-0.31521 0.26826,-0.46275c0.15201,-0.14755 0.33533,-0.26826 0.54994,-0.36216c0.21908,-0.0939 0.44263,-0.14084 0.67065,-0.14084c0.38004,0 0.71537,0.0939 1.00599,0.28167c0.29508,0.18778 0.52758,0.44487 0.69749,0.77126c0.17437,0.32638 0.26155,0.69972 0.26155,1.12c0,0.41581 -0.08495,0.78914 -0.25485,1.12c-0.1699,0.32638 -0.40239,0.58571 -0.69749,0.77796c-0.29062,0.18778 -0.61925,0.28167 -0.98587,0.28167c-0.24591,0 -0.48511,-0.04919 -0.71761,-0.14755c-0.22802,-0.09836 -0.42251,-0.22579 -0.58347,-0.38228c-0.16096,-0.15649 -0.25932,-0.31745 -0.29508,-0.48288l0.2079,-0.10731v2.81006zM241.94492,16.12703c0.24591,0 0.46499,-0.06036 0.65724,-0.18108c0.19226,-0.12519 0.34427,-0.29285 0.45604,-0.503c0.11177,-0.21461 0.16767,-0.45829 0.16767,-0.73102c0,-0.27273 -0.05589,-0.51417 -0.16767,-0.72431c-0.10731,-0.21014 -0.25709,-0.37557 -0.44934,-0.49629c-0.18778,-0.12519 -0.4091,-0.18778 -0.66395,-0.18778c-0.25038,0 -0.4717,0.06036 -0.66395,0.18108c-0.19226,0.12072 -0.34427,0.28839 -0.45604,0.503c-0.11177,0.21014 -0.16767,0.45158 -0.16767,0.72431c0,0.27273 0.05589,0.51641 0.16767,0.73102c0.11177,0.21014 0.2638,0.3778 0.45604,0.503c0.19226,0.12072 0.41357,0.18108 0.66395,0.18108zM246.87704,16.8983c-0.42922,0 -0.8115,-0.09165 -1.14683,-0.27497c-0.33086,-0.18331 -0.59241,-0.43593 -0.78467,-0.75785c-0.18778,-0.32192 -0.28167,-0.69078 -0.28167,-1.10659c0,-0.33086 0.05365,-0.63266 0.16096,-0.90539c0.10731,-0.27273 0.25485,-0.50746 0.44263,-0.7042c0.18778,-0.2012 0.41357,-0.35545 0.67737,-0.46275c0.26826,-0.11177 0.55665,-0.16767 0.86516,-0.16767c0.27273,0 0.52535,0.05142 0.75785,0.15425c0.23697,0.10284 0.4404,0.24591 0.6103,0.42922c0.17437,0.18331 0.30851,0.40016 0.40239,0.65054c0.0939,0.24591 0.1386,0.51417 0.13413,0.80479l-0.00671,0.35545h-3.43378l-0.18778,-0.65724h2.90395l-0.11402,0.13413v-0.18778c-0.01789,-0.17885 -0.07824,-0.33756 -0.18108,-0.47616c-0.09836,-0.1386 -0.22579,-0.24814 -0.38228,-0.32863c-0.15649,-0.08047 -0.32415,-0.12072 -0.503,-0.12072c-0.29062,0 -0.53429,0.05589 -0.73102,0.16767c-0.19672,0.10731 -0.3465,0.26826 -0.44934,0.48288c-0.09836,0.21014 -0.14755,0.46946 -0.14755,0.77796c0,0.29062 0.06036,0.54547 0.18108,0.76455c0.12072,0.21461 0.29285,0.38228 0.51641,0.503c0.22802,0.11625 0.48734,0.17437 0.77796,0.17437c0.21014,0 0.40463,-0.03353 0.58347,-0.10059c0.17885,-0.07154 0.37334,-0.19896 0.58347,-0.38228l0.41581,0.58347c-0.12966,0.12966 -0.28615,0.24368 -0.46946,0.34204c-0.18331,0.0939 -0.3778,0.1699 -0.58347,0.22802c-0.20567,0.05365 -0.4091,0.08047 -0.6103,0.08047zM249.61123,16.81782v-4.20503h0.83161v1.3212l-0.08047,-0.32192c0.05812,-0.2012 0.15873,-0.38451 0.3018,-0.54994c0.14307,-0.16542 0.30626,-0.29508 0.48959,-0.38898c0.18331,-0.09836 0.37334,-0.14755 0.57006,-0.14755c0.08942,0 0.17437,0.00894 0.25485,0.02682c0.08495,0.01341 0.15201,0.0313 0.2012,0.05365l-0.21461,0.89869c-0.0626,-0.02682 -0.13413,-0.04919 -0.21461,-0.06706c-0.07601,-0.02235 -0.15201,-0.03353 -0.22802,-0.03353c-0.14307,0 -0.27944,0.02907 -0.4091,0.08718c-0.12966,0.05365 -0.24591,0.13189 -0.34874,0.23473c-0.09836,0.09836 -0.1766,0.21238 -0.23473,0.34204c-0.05812,0.12966 -0.08718,0.27273 -0.08718,0.42922v2.32048zM254.23999,16.8983c-0.35322,0 -0.67065,-0.06036 -0.95234,-0.18108c-0.28167,-0.12519 -0.51641,-0.30851 -0.7042,-0.54994l0.55665,-0.47616c0.16096,0.18331 0.33533,0.31745 0.52312,0.40239c0.19226,0.08047 0.4091,0.12072 0.65054,0.12072c0.0939,0 0.18108,-0.01118 0.26155,-0.03353c0.08495,-0.02235 0.15873,-0.05812 0.22132,-0.10731c0.0626,-0.04919 0.10954,-0.10731 0.14084,-0.17437c0.0313,-0.06706 0.04694,-0.14084 0.04694,-0.22132c0,-0.1386 -0.05142,-0.25038 -0.15425,-0.33533c-0.05365,-0.03576 -0.1386,-0.07601 -0.25485,-0.12072c-0.11177,-0.04471 -0.25932,-0.09165 -0.44263,-0.14084c-0.30851,-0.08047 -0.56112,-0.1699 -0.75785,-0.26826c-0.19672,-0.10284 -0.34874,-0.21908 -0.45604,-0.34874c-0.08047,-0.10284 -0.14084,-0.21238 -0.18108,-0.32863c-0.03576,-0.12072 -0.05365,-0.25485 -0.05365,-0.40239c0,-0.17437 0.038,-0.33533 0.11402,-0.48288c0.08047,-0.14755 0.18778,-0.27497 0.32192,-0.38228c0.1386,-0.11177 0.29956,-0.19672 0.48288,-0.25485c0.18331,-0.05812 0.38004,-0.08718 0.59018,-0.08718c0.19672,0 0.39121,0.02682 0.58347,0.08047c0.19672,0.05365 0.3778,0.13189 0.54324,0.23473c0.16542,0.09836 0.30403,0.21684 0.41581,0.35545l-0.46946,0.52312c-0.10284,-0.10284 -0.21461,-0.19226 -0.33533,-0.26826c-0.12072,-0.07601 -0.24368,-0.13413 -0.36886,-0.17437c-0.12072,-0.04471 -0.23025,-0.06706 -0.32863,-0.06706c-0.11177,0 -0.21461,0.01118 -0.30851,0.03353c-0.08942,0.01789 -0.16542,0.04919 -0.22802,0.0939c-0.05812,0.04024 -0.10507,0.0939 -0.14084,0.16096c-0.0313,0.0626 -0.04694,0.13413 -0.04694,0.21461c0.00447,0.06706 0.02235,0.13189 0.05365,0.19449c0.0313,0.0626 0.07377,0.11402 0.12743,0.15425c0.05812,0.04471 0.1453,0.09165 0.26155,0.14084c0.11625,0.04471 0.26603,0.08942 0.44934,0.13413c0.2638,0.06706 0.48288,0.14307 0.65724,0.22802c0.17437,0.08047 0.31297,0.17437 0.41581,0.28167c0.10731,0.10284 0.18108,0.22132 0.22132,0.35545c0.04471,0.13413 0.06706,0.28391 0.06706,0.44934c0,0.23697 -0.06931,0.45158 -0.2079,0.64383c-0.13413,0.18778 -0.31745,0.33533 -0.54994,0.44263c-0.22802,0.10731 -0.48288,0.16096 -0.76455,0.16096z" fill="#000000" fill-rule="nonzero" stroke-width="1" stroke-linecap="square"/></g></g></svg>