<svg version="1.1" xmlns="http://www.w3.org/2000/svg" xmlns:xlink="http://www.w3.org/1999/xlink" width="256.51671" height="29.63014" viewBox="0,0,256.51671,29.63014"><g transform="translate(-31.1372,-263.18493)"><g data-paper-data="{&quot;isPaintingLayer&quot;:true}" stroke="none" stroke-width="1" stroke-linejoin="miter" stroke-miterlimit="10" stroke-dasharray="" stroke-dashoffset="0" style="mix-blend-mode: normal"><path d="M31.1372,278.00005c0,-7.39574 5.99542,-13.39116 13.39116,-13.39116h156.9433c3.55156,0 6.95765,1.41086 9.46897,3.92218c2.51134,2.51134 3.9222,5.91744 3.9222,9.46899c0,7.39574 -5.99544,13.39116 -13.39117,13.39116h-156.9433c-7.39574,0 -13.39116,-5.99542 -13.39116,-13.39116z" fill-opacity="0.89214" fill="#3e3e3e" fill-rule="evenodd" stroke-linecap="square"/><text transform="translate(57.5,281.43474) scale(0.28897,0.28897)" font-size="40" xml:space="preserve" fill="#ffffff" fill-rule="nonzero" stroke="none" stroke-width="1" stroke-linecap="butt" stroke-linejoin="miter" stroke-miterlimit="10" stroke-dasharray="" stroke-dashoffset="0" font-family="Sans Serif" font-weight="normal" text-anchor="start" style="mix-blend-mode: normal"><tspan x="0" dy="0">Passwords Don't Match</tspan></text><path d="M257.00742,292.81506h-15.33066c-8.46689,0 -15.33067,-6.63294 -15.33067,-14.81506c0,-8.18213 6.86377,-14.81507 15.33067,-14.81507v0h15.33066z" fill-opacity="0.6715" fill="#6c6c6c" fill-rule="evenodd" stroke-linecap="square"/><path d="M256.99259,263.18494h15.33066v0c8.46691,0 15.33066,6.63294 15.33066,14.81507c0,8.18211 -6.86376,14.81506 -15.33066,14.81506h-15.33066z" fill-opacity="0.6715" fill="#6c6c6c" fill-rule="evenodd" stroke-linecap="square"/><text transform="translate(235.31165,281.24945) scale(0.25054,0.25054)" font-size="40" xml:space="preserve" fill="#ffffff" fill-rule="nonzero" stroke="none" stroke-width="1" stroke-linecap="butt" stroke-linejoin="miter" stroke-miterlimit="10" stroke-dasharray="" stroke-dashoffset="0" font-family="Sans Serif" font-weight="normal" text-anchor="start" style="mix-blend-mode: normal"><tspan x="0" dy="0">Try Again</tspan></text></g></g></svg>