<svg version="1.1" xmlns="http://www.w3.org/2000/svg" xmlns:xlink="http://www.w3.org/1999/xlink" width="78.75" height="53.20834" viewBox="0,0,78.75,53.20834"><g transform="translate(-326.5,-34.41666)"><g data-paper-data="{&quot;isPaintingLayer&quot;:true}" fill-rule="nonzero" stroke-linecap="butt" stroke-linejoin="miter" stroke-miterlimit="10" stroke-dasharray="" stroke-dashoffset="0" style="mix-blend-mode: normal"><path d="M376.17486,79c0,4.76346 -3.88386,8.625 -8.67486,8.625c-4.79099,0 -8.67486,-3.86154 -8.67486,-8.625c0,-4.76346 3.88386,-8.625 8.67486,-8.625c4.79099,0 8.67486,3.86154 8.67486,8.625z" fill-opacity="0.37223" fill="#4d4d4d" stroke="none" stroke-width="0"/><path d="M368.78571,83.75v-1.28571h1.92857v-1.92857h1.28571v3.21429zM370.71429,77.96429v-1.92857h-1.92857v-1.28571h3.21429v3.21429zM363,83.75v-3.21429h1.28571v1.92857h1.92857v1.28571zM363,77.96429v-3.21429h3.21429v1.28571h-1.92857v1.92857z" data-paper-data="{&quot;index&quot;:null}" fill="#ffffff" stroke="#ffffff" stroke-width="0.5"/><path d="M326.5,54v-19.58333h78.75v19.58333z" fill-opacity="0.57258" fill="#000000" stroke="none" stroke-width="0"/><text transform="translate(332.75,46.79978) scale(0.21569,0.21569)" font-size="40" xml:space="preserve" fill="#ffffff" fill-rule="nonzero" stroke="none" stroke-width="1" stroke-linecap="butt" stroke-linejoin="miter" stroke-miterlimit="10" stroke-dasharray="" stroke-dashoffset="0" font-family="Sans Serif" font-weight="normal" text-anchor="start" style="mix-blend-mode: normal"><tspan x="0" dy="0">Enter Fullscreen</tspan></text></g></g></svg>