<svg version="1.1" xmlns="http://www.w3.org/2000/svg" xmlns:xlink="http://www.w3.org/1999/xlink" width="63.75249" height="11.58689" viewBox="0,0,63.75249,11.58689"><g transform="translate(-208.12375,-174.20655)"><g data-paper-data="{&quot;isPaintingLayer&quot;:true}" fill="#ffffff" fill-rule="nonzero" stroke="none" stroke-width="1" stroke-linecap="square" stroke-linejoin="miter" stroke-miterlimit="10" stroke-dasharray="" stroke-dashoffset="0" style="mix-blend-mode: normal"><path d="M211.30585,183.25787c-0.45795,0 -0.88224,-0.06061 -1.27284,-0.18184c-0.3906,-0.12122 -0.74417,-0.30306 -1.0607,-0.5455c-0.31653,-0.24918 -0.59938,-0.55224 -0.84856,-0.90917l0.88897,-1.03039c0.39734,0.5657 0.77447,0.95632 1.13141,1.17182c0.36367,0.2155 0.79469,0.32326 1.29305,0.32326c0.30306,0 0.57917,-0.04715 0.82835,-0.14143c0.24918,-0.10102 0.44449,-0.23571 0.58591,-0.40407c0.14816,-0.16836 0.22224,-0.3603 0.22224,-0.57581c0,-0.14142 -0.02357,-0.27612 -0.07071,-0.40408c-0.04714,-0.13469 -0.12123,-0.25254 -0.22225,-0.35357c-0.10102,-0.10775 -0.22897,-0.20541 -0.38387,-0.29296c-0.1549,-0.08755 -0.33673,-0.165 -0.5455,-0.23234c-0.20878,-0.06735 -0.45122,-0.12459 -0.72734,-0.17173c-0.43102,-0.09428 -0.80815,-0.21214 -1.13141,-0.35357c-0.32326,-0.14816 -0.59265,-0.33 -0.80815,-0.54551c-0.21551,-0.2155 -0.37714,-0.46132 -0.48489,-0.73744c-0.10775,-0.27612 -0.16163,-0.58928 -0.16163,-0.93948c0,-0.33673 0.07408,-0.64988 0.22224,-0.93948c0.1549,-0.28959 0.3603,-0.53876 0.61622,-0.74754c0.26265,-0.2155 0.56907,-0.3805 0.91927,-0.495c0.35693,-0.12122 0.7408,-0.18183 1.15161,-0.18183c0.43775,0 0.83509,0.05724 1.19203,0.17173c0.36367,0.11449 0.68693,0.28285 0.96978,0.50509c0.28286,0.2155 0.5152,0.48489 0.69703,0.80815l-0.91927,0.90917c-0.1549,-0.26938 -0.33336,-0.49162 -0.5354,-0.66672c-0.20204,-0.18184 -0.42428,-0.31989 -0.66672,-0.41418c-0.24245,-0.09428 -0.49836,-0.14143 -0.76775,-0.14143c-0.31653,0 -0.59264,0.05051 -0.82835,0.15153c-0.22897,0.09428 -0.41082,0.22898 -0.54551,0.40408c-0.13469,0.16836 -0.20203,0.37041 -0.20203,0.60612c0,0.16836 0.03368,0.32326 0.10102,0.46469c0.06734,0.14142 0.165,0.26601 0.29296,0.37377c0.13469,0.10775 0.31316,0.20541 0.5354,0.29296c0.22897,0.08082 0.49836,0.15153 0.80815,0.21214c0.44448,0.10102 0.83846,0.22561 1.18193,0.37377c0.3502,0.14816 0.64315,0.32326 0.87886,0.5253c0.24245,0.20204 0.42427,0.42765 0.5455,0.67683c0.12795,0.24918 0.19194,0.51856 0.19194,0.80815c0,0.53877 -0.12459,1.00683 -0.37377,1.40417c-0.24918,0.3906 -0.60274,0.69366 -1.0607,0.90917c-0.45795,0.20878 -1.00346,0.31316 -1.6365,0.31316zM218.86265,183.25787c-0.64652,0 -1.22233,-0.13806 -1.72743,-0.41418c-0.49836,-0.27612 -0.89233,-0.65663 -1.18192,-1.14151c-0.28286,-0.48489 -0.42428,-1.04049 -0.42428,-1.66681c0,-0.49836 0.08082,-0.95295 0.24245,-1.36376c0.16163,-0.41081 0.38387,-0.76438 0.66673,-1.0607c0.28286,-0.30306 0.62295,-0.5354 1.0203,-0.69703c0.40408,-0.16836 0.83846,-0.25254 1.30315,-0.25254c0.41081,0 0.79131,0.07744 1.14151,0.23234c0.35693,0.15489 0.66336,0.37041 0.91927,0.64653c0.26265,0.27612 0.46469,0.60274 0.60612,0.97988c0.14142,0.37041 0.20877,0.77448 0.20203,1.21223l-0.0101,0.5354h-5.17217l-0.28285,-0.98999h4.37412l-0.17173,0.20204v-0.28286c-0.02694,-0.26938 -0.11785,-0.50846 -0.27275,-0.71723c-0.14816,-0.20878 -0.3401,-0.37377 -0.57581,-0.49499c-0.23571,-0.12122 -0.48825,-0.18184 -0.75764,-0.18184c-0.43775,0 -0.80479,0.08418 -1.10111,0.25254c-0.29632,0.16163 -0.52193,0.40408 -0.67683,0.72734c-0.14816,0.31652 -0.22224,0.70714 -0.22224,1.17182c0,0.43775 0.09092,0.82162 0.27275,1.15161c0.18184,0.32326 0.44111,0.5758 0.77784,0.75764c0.34347,0.1751 0.73407,0.26265 1.17182,0.26265c0.31653,0 0.60948,-0.05051 0.87886,-0.15153c0.26938,-0.10775 0.56234,-0.29969 0.87886,-0.57581l0.62632,0.87886c-0.1953,0.19531 -0.43101,0.36704 -0.70713,0.5152c-0.27612,0.14142 -0.56907,0.25592 -0.87886,0.34346c-0.30979,0.08082 -0.61622,0.12123 -0.91927,0.12123zM222.98104,185.79345v-8.99069h1.25263v1.44457l-0.19194,-0.10102c0.04714,-0.24245 0.18184,-0.4748 0.40408,-0.69703c0.22897,-0.22224 0.50509,-0.40407 0.82835,-0.5455c0.32999,-0.14142 0.66672,-0.21214 1.01019,-0.21214c0.57244,0 1.07754,0.14142 1.51529,0.42428c0.44448,0.28285 0.79469,0.6701 1.0506,1.16172c0.26265,0.49162 0.39397,1.05397 0.39397,1.68702c0,0.62632 -0.12796,1.18865 -0.38387,1.68702c-0.25591,0.49162 -0.60612,0.88223 -1.0506,1.17182c-0.43775,0.28285 -0.93274,0.42428 -1.48497,0.42428c-0.37041,0 -0.73071,-0.07408 -1.08091,-0.22224c-0.34347,-0.14816 -0.63642,-0.3401 -0.87886,-0.57581c-0.24245,-0.23571 -0.39061,-0.47816 -0.44449,-0.72734l0.31316,-0.16163v4.23269zM226.11262,182.09615c0.37041,0 0.7004,-0.09091 0.98999,-0.27275c0.28959,-0.18857 0.51856,-0.44112 0.68693,-0.75764c0.16836,-0.32326 0.25254,-0.6903 0.25254,-1.10111c0,-0.41081 -0.08418,-0.77448 -0.25254,-1.091c-0.16163,-0.31652 -0.38724,-0.5657 -0.67683,-0.74754c-0.28286,-0.18857 -0.61622,-0.28285 -1.00009,-0.28285c-0.37714,0 -0.7105,0.09091 -1.00009,0.27275c-0.28959,0.18184 -0.51856,0.43439 -0.68693,0.75765c-0.16836,0.31652 -0.25254,0.68019 -0.25254,1.091c0,0.41081 0.08418,0.77784 0.25254,1.10111c0.16836,0.31652 0.39734,0.56907 0.68693,0.75764c0.28959,0.18184 0.62295,0.27275 1.00009,0.27275zM231.37989,183.13665v-7.95019h1.24254v7.95019zM230.05654,178.01499v-1.21223h4.03066v1.21223zM238.11304,183.25787c-0.64652,0 -1.22233,-0.13806 -1.72742,-0.41418c-0.49836,-0.27612 -0.89234,-0.65663 -1.18193,-1.14151c-0.28286,-0.48489 -0.42428,-1.04049 -0.42428,-1.66681c0,-0.49836 0.08082,-0.95295 0.24245,-1.36376c0.16163,-0.41081 0.38387,-0.76438 0.66673,-1.0607c0.28286,-0.30306 0.62295,-0.5354 1.02029,-0.69703c0.40408,-0.16836 0.83846,-0.25254 1.30315,-0.25254c0.41081,0 0.79131,0.07744 1.14151,0.23234c0.35693,0.15489 0.66336,0.37041 0.91927,0.64653c0.26265,0.27612 0.46469,0.60274 0.60611,0.97988c0.14142,0.37041 0.20878,0.77448 0.20204,1.21223l-0.01011,0.5354h-5.17217l-0.28285,-0.98999h4.37412l-0.17174,0.20204v-0.28286c-0.02694,-0.26938 -0.11785,-0.50846 -0.27275,-0.71723c-0.14816,-0.20878 -0.3401,-0.37377 -0.57581,-0.49499c-0.23571,-0.12122 -0.48826,-0.18184 -0.75764,-0.18184c-0.43775,0 -0.80479,0.08418 -1.10111,0.25254c-0.29632,0.16163 -0.52193,0.40408 -0.67683,0.72734c-0.14816,0.31652 -0.22224,0.70714 -0.22224,1.17182c0,0.43775 0.09091,0.82162 0.27275,1.15161c0.18184,0.32326 0.44111,0.5758 0.77784,0.75764c0.34347,0.1751 0.73407,0.26265 1.17182,0.26265c0.31653,0 0.60948,-0.05051 0.87887,-0.15153c0.26938,-0.10775 0.56234,-0.29969 0.87886,-0.57581l0.62632,0.87886c-0.1953,0.19531 -0.43102,0.36704 -0.70713,0.5152c-0.27612,0.14142 -0.56907,0.25592 -0.87886,0.34346c-0.30979,0.08082 -0.61622,0.12123 -0.91927,0.12123zM242.21123,183.13665v-6.33389h1.25264v1.35366l-0.23235,0.14142c0.06734,-0.20878 0.16836,-0.40744 0.30306,-0.59601c0.14142,-0.19531 0.31316,-0.36703 0.5152,-0.51519c0.20878,-0.14816 0.43101,-0.26602 0.66672,-0.35357c0.24245,-0.09428 0.48826,-0.14142 0.73744,-0.14142c0.35693,0 0.67346,0.06061 0.94958,0.18184c0.27612,0.12122 0.50173,0.30305 0.67683,0.5455c0.1751,0.24245 0.30306,0.5455 0.38387,0.90917l-0.19194,-0.05051l0.08082,-0.20204c0.09429,-0.18857 0.21887,-0.36367 0.37377,-0.5253c0.1549,-0.16836 0.33336,-0.31653 0.5354,-0.44449c0.20204,-0.12796 0.41418,-0.22898 0.63642,-0.30306c0.22897,-0.07408 0.45122,-0.11112 0.66673,-0.11112c0.47142,0 0.86203,0.09765 1.17182,0.29296c0.30979,0.19531 0.54213,0.49162 0.69703,0.88896c0.16163,0.3906 0.24245,0.87887 0.24245,1.46478v3.79831h-1.25263v-3.7276c0,-0.36367 -0.04714,-0.65999 -0.14142,-0.88896c-0.09429,-0.22898 -0.23571,-0.39734 -0.42428,-0.50509c-0.18184,-0.11449 -0.41754,-0.17173 -0.70713,-0.17173c-0.22224,0 -0.43438,0.04041 -0.63642,0.12122c-0.1953,0.07408 -0.36704,0.17847 -0.5152,0.31316c-0.14142,0.13469 -0.25254,0.29295 -0.33336,0.47478c-0.07408,0.18184 -0.11113,0.38051 -0.11113,0.59602v3.78821h-1.26273v-3.7478c0,-0.32999 -0.04714,-0.60948 -0.14142,-0.83845c-0.09429,-0.22898 -0.23571,-0.40408 -0.42428,-0.5253c-0.18184,-0.12122 -0.40744,-0.18183 -0.67683,-0.18183c-0.22224,0 -0.43101,0.04041 -0.62632,0.12122c-0.18857,0.07408 -0.35693,0.17847 -0.50509,0.31316c-0.14142,0.12796 -0.25255,0.28285 -0.33337,0.46469c-0.08082,0.18184 -0.12122,0.37713 -0.12122,0.58591v3.80841zM256.67384,183.25787c-0.27612,0 -0.54886,-0.04378 -0.81825,-0.13133c-0.26938,-0.08755 -0.5152,-0.2054 -0.73744,-0.35357c-0.22224,-0.15489 -0.40744,-0.3199 -0.5556,-0.495c-0.14816,-0.18184 -0.24581,-0.36704 -0.29296,-0.5556l0.31316,-0.16163v1.53549h-1.24254v-8.88967h1.24254v4.04076l-0.19194,-0.10102c0.04041,-0.18857 0.12795,-0.36704 0.26264,-0.5354c0.13469,-0.1751 0.3098,-0.33336 0.5253,-0.47478c0.21551,-0.14142 0.44785,-0.25255 0.69703,-0.33337c0.24918,-0.08755 0.50173,-0.13133 0.75764,-0.13133c0.57244,0 1.07754,0.14143 1.51529,0.42428c0.44448,0.28285 0.79468,0.67009 1.05059,1.16172c0.25591,0.49162 0.38388,1.05734 0.38388,1.69712c0,0.63305 -0.12796,1.19875 -0.38388,1.69711c-0.24918,0.49836 -0.59601,0.89233 -1.04049,1.18192c-0.43775,0.28285 -0.93275,0.42428 -1.48498,0.42428zM256.46171,182.12646c0.37041,0 0.7004,-0.09428 0.98999,-0.28285c0.28959,-0.18857 0.51856,-0.44449 0.68693,-0.76775c0.16836,-0.32999 0.25255,-0.70376 0.25255,-1.12131c0,-0.41081 -0.08419,-0.77785 -0.25255,-1.10111c-0.16163,-0.32999 -0.38723,-0.58591 -0.67682,-0.76775c-0.28959,-0.18857 -0.62295,-0.28285 -1.00009,-0.28285c-0.37714,0 -0.7105,0.09428 -1.00009,0.28285c-0.28959,0.18184 -0.51856,0.43775 -0.68693,0.76775c-0.16836,0.32326 -0.25255,0.6903 -0.25255,1.10111c0,0.41755 0.08419,0.79131 0.25255,1.12131c0.16836,0.32326 0.39734,0.57918 0.68693,0.76775c0.28959,0.18857 0.62295,0.28285 1.00009,0.28285zM263.88882,183.25787c-0.64652,0 -1.22232,-0.13806 -1.72742,-0.41418c-0.49836,-0.27612 -0.89234,-0.65663 -1.18193,-1.14151c-0.28286,-0.48489 -0.42428,-1.04049 -0.42428,-1.66681c0,-0.49836 0.08082,-0.95295 0.24245,-1.36376c0.16163,-0.41081 0.38387,-0.76438 0.66672,-1.0607c0.28286,-0.30306 0.62295,-0.5354 1.0203,-0.69703c0.40408,-0.16836 0.83846,-0.25254 1.30315,-0.25254c0.41081,0 0.79131,0.07744 1.14151,0.23234c0.35693,0.15489 0.66336,0.37041 0.91927,0.64653c0.26265,0.27612 0.46469,0.60274 0.60611,0.97988c0.14142,0.37041 0.20878,0.77448 0.20204,1.21223l-0.01011,0.5354h-5.17217l-0.28286,-0.98999h4.37412l-0.17173,0.20204v-0.28286c-0.02694,-0.26938 -0.11785,-0.50846 -0.27275,-0.71723c-0.14816,-0.20878 -0.3401,-0.37377 -0.57581,-0.49499c-0.23571,-0.12122 -0.48826,-0.18184 -0.75764,-0.18184c-0.43775,0 -0.80479,0.08418 -1.10111,0.25254c-0.29632,0.16163 -0.52193,0.40408 -0.67683,0.72734c-0.14816,0.31652 -0.22224,0.70714 -0.22224,1.17182c0,0.43775 0.09092,0.82162 0.27275,1.15161c0.18184,0.32326 0.44112,0.5758 0.77785,0.75764c0.34347,0.1751 0.73407,0.26265 1.17182,0.26265c0.31653,0 0.60948,-0.05051 0.87886,-0.15153c0.26938,-0.10775 0.56234,-0.29969 0.87887,-0.57581l0.62632,0.87886c-0.1953,0.19531 -0.43102,0.36704 -0.70713,0.5152c-0.27612,0.14142 -0.56908,0.25592 -0.87887,0.34346c-0.30979,0.08082 -0.61622,0.12123 -0.91927,0.12123zM268.00721,183.13665v-6.33389h1.25263v1.99008l-0.12122,-0.48489c0.08755,-0.30306 0.23908,-0.57918 0.45458,-0.82836c0.21551,-0.24918 0.46132,-0.44449 0.73744,-0.58591c0.27612,-0.14816 0.56234,-0.22224 0.85867,-0.22224c0.13469,0 0.26264,0.01347 0.38387,0.04041c0.12795,0.02021 0.22898,0.04714 0.30306,0.08082l-0.32327,1.35365c-0.09429,-0.04041 -0.20203,-0.07408 -0.32326,-0.10102c-0.11449,-0.03368 -0.22898,-0.05051 -0.34347,-0.05051c-0.21551,0 -0.42091,0.04378 -0.61622,0.13133c-0.1953,0.08082 -0.3704,0.19867 -0.5253,0.35357c-0.14816,0.14816 -0.26602,0.31989 -0.35357,0.51519c-0.08755,0.19531 -0.13133,0.41081 -0.13133,0.64652v3.49526z"/></g></g></svg>