<svg version="1.1" xmlns="http://www.w3.org/2000/svg" xmlns:xlink="http://www.w3.org/1999/xlink" width="247.95815" height="164.71054" viewBox="0,0,247.95815,164.71054"><g transform="translate(-116.02092,-100.49329)"><g data-paper-data="{&quot;isPaintingLayer&quot;:true}" stroke="none" stroke-width="1" stroke-linejoin="miter" stroke-miterlimit="10" stroke-dasharray="" stroke-dashoffset="0" style="mix-blend-mode: normal"><path d="M116.02094,110.32191c0,-5.4282 4.73119,-9.82862 10.5674,-9.82862h226.82334c2.80265,0 5.49052,1.03551 7.47228,2.87874c1.98179,1.84323 3.09512,4.34317 3.09512,6.94989v139.35617c0,5.4282 -4.73119,9.82862 -10.56741,9.82862h-226.82334c-5.83621,0 -10.5674,-4.40042 -10.5674,-9.82862z" fill-opacity="0.64516" fill="#1d1d1d" fill-rule="evenodd" stroke-linecap="square"/><g fill="#ffffff" fill-rule="evenodd" stroke-linecap="square"><g><path d="M193.38894,107.13896c0,-0.95215 0.41182,-1.72403 0.91983,-1.72403h19.74357c0.24395,0 0.47792,0.18164 0.65042,0.50495c0.1725,0.32332 0.26941,0.76183 0.26941,1.21907v24.44429c0,0.95215 -0.41182,1.72402 -0.91983,1.72402h-19.74357c-0.50801,0 -0.91983,-0.77187 -0.91983,-1.72402z"/><path d="M217.38894,107.30563c0,-0.95215 0.41182,-1.72403 0.91982,-1.72403h19.74357c0.24395,0 0.47791,0.18164 0.65041,0.50495c0.1725,0.32331 0.26942,0.76183 0.26942,1.21908v24.44429c0,0.95215 -0.41182,1.72402 -0.91983,1.72402h-19.74357c-0.508,0 -0.91982,-0.77187 -0.91982,-1.72402z"/><path d="M241.38894,107.13896c0,-0.95215 0.41182,-1.72403 0.91983,-1.72403h19.74357c0.24395,0 0.47791,0.18164 0.65041,0.50495c0.1725,0.32331 0.26942,0.76183 0.26942,1.21908v24.44429c0,0.95215 -0.41182,1.72402 -0.91983,1.72402h-19.74357c-0.508,0 -0.91983,-0.77187 -0.91983,-1.72402z"/></g><g><path d="M121.38894,106.88896c0,-0.95215 0.41182,-1.72403 0.91982,-1.72403h19.74357c0.24395,0 0.47791,0.18164 0.65041,0.50495c0.1725,0.32331 0.26942,0.76183 0.26942,1.21908v24.44429c0,0.95215 -0.41182,1.72402 -0.91983,1.72402h-19.74357c-0.508,0 -0.91982,-0.77187 -0.91982,-1.72402z"/><path d="M145.38894,107.05563c0,-0.95215 0.41182,-1.72403 0.91983,-1.72403h19.74357c0.24395,0 0.47791,0.18164 0.65041,0.50495c0.1725,0.32331 0.26942,0.76183 0.26942,1.21908v24.4443c0,0.95215 -0.41182,1.72402 -0.91983,1.72402h-19.74357c-0.508,0 -0.91983,-0.77187 -0.91983,-1.72402z"/><path d="M169.38894,106.88896c0,-0.95215 0.41182,-1.72403 0.91983,-1.72403h19.74357c0.24395,0 0.47791,0.18164 0.65041,0.50495c0.1725,0.32331 0.26942,0.76183 0.26942,1.21908v24.44429c0,0.95215 -0.41182,1.72402 -0.91983,1.72402h-19.74357c-0.508,0 -0.91983,-0.77187 -0.91983,-1.72402z"/></g><g><path d="M264.88894,107.13896c0,-0.95215 0.41182,-1.72403 0.91983,-1.72403h19.74357c0.24395,0 0.47792,0.18164 0.65042,0.50495c0.1725,0.32332 0.26941,0.76183 0.26941,1.21907v24.44429c0,0.95215 -0.41182,1.72402 -0.91983,1.72402h-19.74357c-0.50801,0 -0.91983,-0.77187 -0.91983,-1.72402z"/><path d="M288.88894,107.30563c0,-0.95215 0.41182,-1.72403 0.91982,-1.72403h19.74357c0.24395,0 0.47791,0.18164 0.65041,0.50495c0.1725,0.32331 0.26942,0.76183 0.26942,1.21908v24.44429c0,0.95215 -0.41182,1.72402 -0.91983,1.72402h-19.74357c-0.508,0 -0.91982,-0.77187 -0.91982,-1.72402z"/><path d="M312.88894,107.13896c0,-0.95215 0.41182,-1.72403 0.91983,-1.72403h19.74357c0.24395,0 0.47791,0.18164 0.65041,0.50495c0.1725,0.32331 0.26942,0.76183 0.26942,1.21908v24.44429c0,0.95215 -0.41182,1.72402 -0.91983,1.72402h-19.74357c-0.508,0 -0.91983,-0.77187 -0.91983,-1.72402z"/></g><path d="M336.88895,107.13896c0,-0.95215 0.41182,-1.72403 0.91983,-1.72403h19.74357c0.24395,0 0.47792,0.18164 0.65042,0.50495c0.1725,0.32332 0.26941,0.76183 0.26941,1.21907v24.44429c0,0.95215 -0.41182,1.72402 -0.91983,1.72402h-19.74357c-0.50801,0 -0.91983,-0.77187 -0.91983,-1.72402z"/></g><g fill="#ffffff" fill-rule="evenodd" stroke-linecap="square"><g><path d="M193.38895,138.13896c0,-0.95215 0.41182,-1.72403 0.91983,-1.72403h19.74357c0.24395,0 0.47792,0.18164 0.65042,0.50495c0.1725,0.32332 0.26941,0.76183 0.26941,1.21907v24.44429c0,0.95215 -0.41182,1.72402 -0.91983,1.72402h-19.74357c-0.50801,0 -0.91983,-0.77187 -0.91983,-1.72402z"/><path d="M217.38895,138.30564c0,-0.95215 0.41182,-1.72403 0.91982,-1.72403h19.74357c0.24395,0 0.47791,0.18164 0.65041,0.50495c0.1725,0.32331 0.26942,0.76183 0.26942,1.21908v24.44429c0,0.95215 -0.41182,1.72402 -0.91983,1.72402h-19.74357c-0.508,0 -0.91982,-0.77187 -0.91982,-1.72402z"/><path d="M241.38895,138.13896c0,-0.95215 0.41182,-1.72403 0.91983,-1.72403h19.74357c0.24395,0 0.47791,0.18164 0.65041,0.50495c0.1725,0.32331 0.26942,0.76183 0.26942,1.21908v24.44429c0,0.95215 -0.41182,1.72402 -0.91983,1.72402h-19.74357c-0.508,0 -0.91983,-0.77187 -0.91983,-1.72402z"/></g><g><path d="M121.38895,137.88896c0,-0.95215 0.41182,-1.72403 0.91982,-1.72403h19.74357c0.24395,0 0.47791,0.18164 0.65041,0.50495c0.1725,0.32331 0.26942,0.76183 0.26942,1.21908v24.44429c0,0.95215 -0.41182,1.72402 -0.91983,1.72402h-19.74357c-0.508,0 -0.91982,-0.77187 -0.91982,-1.72402z"/><path d="M145.38895,138.05564c0,-0.95215 0.41182,-1.72403 0.91983,-1.72403h19.74357c0.24395,0 0.47791,0.18164 0.65041,0.50495c0.1725,0.32331 0.26942,0.76183 0.26942,1.21908v24.4443c0,0.95215 -0.41182,1.72402 -0.91983,1.72402h-19.74357c-0.508,0 -0.91983,-0.77187 -0.91983,-1.72402z"/><path d="M169.38895,137.88896c0,-0.95215 0.41182,-1.72403 0.91983,-1.72403h19.74357c0.24395,0 0.47791,0.18164 0.65041,0.50495c0.1725,0.32331 0.26942,0.76183 0.26942,1.21908v24.44429c0,0.95215 -0.41182,1.72402 -0.91983,1.72402h-19.74357c-0.508,0 -0.91983,-0.77187 -0.91983,-1.72402z"/></g><g><path d="M264.88894,138.13896c0,-0.95215 0.41182,-1.72403 0.91983,-1.72403h19.74357c0.24395,0 0.47792,0.18164 0.65042,0.50495c0.1725,0.32332 0.26941,0.76183 0.26941,1.21907v24.44429c0,0.95215 -0.41182,1.72402 -0.91983,1.72402h-19.74357c-0.50801,0 -0.91983,-0.77187 -0.91983,-1.72402z"/><path d="M288.88894,138.30564c0,-0.95215 0.41182,-1.72403 0.91982,-1.72403h19.74357c0.24395,0 0.47791,0.18164 0.65041,0.50495c0.1725,0.32331 0.26942,0.76183 0.26942,1.21908v24.44429c0,0.95215 -0.41182,1.72402 -0.91983,1.72402h-19.74357c-0.508,0 -0.91982,-0.77187 -0.91982,-1.72402z"/><path d="M312.88894,138.13896c0,-0.95215 0.41182,-1.72403 0.91983,-1.72403h19.74357c0.24395,0 0.47791,0.18164 0.65041,0.50495c0.1725,0.32331 0.26942,0.76183 0.26942,1.21908v24.44429c0,0.95215 -0.41182,1.72402 -0.91983,1.72402h-19.74357c-0.508,0 -0.91983,-0.77187 -0.91983,-1.72402z"/></g><path d="M336.88895,138.13896c0,-0.95215 0.41182,-1.72403 0.91983,-1.72403h19.74357c0.24395,0 0.47792,0.18164 0.65042,0.50495c0.1725,0.32332 0.26941,0.76183 0.26941,1.21907v24.44429c0,0.95215 -0.41182,1.72402 -0.91983,1.72402h-19.74357c-0.50801,0 -0.91983,-0.77187 -0.91983,-1.72402z"/></g><g fill="#ffffff" fill-rule="evenodd" stroke-linecap="square"><g><path d="M193.52783,170.13407c0,-0.95215 0.41182,-1.72403 0.91983,-1.72403h19.74357c0.24395,0 0.47792,0.18164 0.65042,0.50495c0.1725,0.32332 0.26941,0.76183 0.26941,1.21907v24.44429c0,0.95215 -0.41182,1.72402 -0.91983,1.72402h-19.74357c-0.50801,0 -0.91983,-0.77187 -0.91983,-1.72402z"/><path d="M217.52783,170.30073c0,-0.95215 0.41182,-1.72403 0.91982,-1.72403h19.74357c0.24395,0 0.47791,0.18164 0.65041,0.50495c0.1725,0.32331 0.26942,0.76183 0.26942,1.21908v24.44429c0,0.95215 -0.41182,1.72402 -0.91983,1.72402h-19.74357c-0.508,0 -0.91982,-0.77187 -0.91982,-1.72402z"/><path d="M241.52783,170.13407c0,-0.95215 0.41182,-1.72403 0.91983,-1.72403h19.74357c0.24395,0 0.47791,0.18164 0.65041,0.50495c0.1725,0.32331 0.26942,0.76183 0.26942,1.21908v24.44429c0,0.95215 -0.41182,1.72402 -0.91983,1.72402h-19.74357c-0.508,0 -0.91983,-0.77187 -0.91983,-1.72402z"/></g><g><path d="M121.52783,169.88407c0,-0.95215 0.41182,-1.72403 0.91982,-1.72403h19.74357c0.24395,0 0.47791,0.18164 0.65041,0.50495c0.1725,0.32331 0.26942,0.76183 0.26942,1.21908v24.44429c0,0.95215 -0.41182,1.72402 -0.91983,1.72402h-19.74357c-0.508,0 -0.91982,-0.77187 -0.91982,-1.72402z"/><path d="M145.52783,170.05073c0,-0.95215 0.41182,-1.72403 0.91983,-1.72403h19.74357c0.24395,0 0.47791,0.18164 0.65041,0.50495c0.1725,0.32331 0.26942,0.76183 0.26942,1.21908v24.4443c0,0.95215 -0.41182,1.72402 -0.91983,1.72402h-19.74357c-0.508,0 -0.91983,-0.77187 -0.91983,-1.72402z"/><path d="M169.52783,169.88407c0,-0.95215 0.41182,-1.72403 0.91983,-1.72403h19.74357c0.24395,0 0.47791,0.18164 0.65041,0.50495c0.1725,0.32331 0.26942,0.76183 0.26942,1.21908v24.44429c0,0.95215 -0.41182,1.72402 -0.91983,1.72402h-19.74357c-0.508,0 -0.91983,-0.77187 -0.91983,-1.72402z"/></g><g><path d="M265.02783,170.13407c0,-0.95215 0.41182,-1.72403 0.91983,-1.72403h19.74357c0.24395,0 0.47792,0.18164 0.65042,0.50495c0.1725,0.32332 0.26941,0.76183 0.26941,1.21907v24.44429c0,0.95215 -0.41182,1.72402 -0.91983,1.72402h-19.74357c-0.50801,0 -0.91983,-0.77187 -0.91983,-1.72402z"/><path d="M289.02783,170.30073c0,-0.95215 0.41182,-1.72403 0.91982,-1.72403h19.74357c0.24395,0 0.47791,0.18164 0.65041,0.50495c0.1725,0.32331 0.26942,0.76183 0.26942,1.21908v24.44429c0,0.95215 -0.41182,1.72402 -0.91983,1.72402h-19.74357c-0.508,0 -0.91982,-0.77187 -0.91982,-1.72402z"/><path d="M313.02783,170.13407c0,-0.95215 0.41182,-1.72403 0.91983,-1.72403h19.74357c0.24395,0 0.47791,0.18164 0.65041,0.50495c0.1725,0.32331 0.26942,0.76183 0.26942,1.21908v24.44429c0,0.95215 -0.41182,1.72402 -0.91983,1.72402h-19.74357c-0.508,0 -0.91983,-0.77187 -0.91983,-1.72402z"/></g><path d="M337.02783,170.13407c0,-0.95215 0.41182,-1.72403 0.91983,-1.72403h19.74357c0.24395,0 0.47792,0.18164 0.65042,0.50495c0.1725,0.32332 0.26941,0.76183 0.26941,1.21907v24.44429c0,0.95215 -0.41182,1.72402 -0.91983,1.72402h-19.74357c-0.50801,0 -0.91983,-0.77187 -0.91983,-1.72402z"/></g><g fill="#ffffff" fill-rule="evenodd" stroke-linecap="square"><g><path d="M193.52783,200.13407c0,-0.95215 0.41182,-1.72403 0.91983,-1.72403h19.74357c0.24395,0 0.47792,0.18164 0.65042,0.50495c0.1725,0.32332 0.26941,0.76183 0.26941,1.21907v24.44429c0,0.95215 -0.41182,1.72402 -0.91983,1.72402h-19.74357c-0.50801,0 -0.91983,-0.77187 -0.91983,-1.72402z"/><path d="M217.52783,200.30073c0,-0.95215 0.41182,-1.72403 0.91982,-1.72403h19.74357c0.24395,0 0.47791,0.18164 0.65041,0.50495c0.1725,0.32331 0.26942,0.76183 0.26942,1.21908v24.44429c0,0.95215 -0.41182,1.72402 -0.91983,1.72402h-19.74357c-0.508,0 -0.91982,-0.77187 -0.91982,-1.72402z"/><path d="M241.52783,200.13407c0,-0.95215 0.41182,-1.72403 0.91983,-1.72403h19.74357c0.24395,0 0.47791,0.18164 0.65041,0.50495c0.1725,0.32331 0.26942,0.76183 0.26942,1.21908v24.44429c0,0.95215 -0.41182,1.72402 -0.91983,1.72402h-19.74357c-0.508,0 -0.91983,-0.77187 -0.91983,-1.72402z"/></g><g><path d="M121.52783,199.88407c0,-0.95215 0.41182,-1.72403 0.91982,-1.72403h19.74357c0.24395,0 0.47791,0.18164 0.65041,0.50495c0.1725,0.32331 0.26942,0.76183 0.26942,1.21908v24.44429c0,0.95215 -0.41182,1.72402 -0.91983,1.72402h-19.74357c-0.508,0 -0.91982,-0.77187 -0.91982,-1.72402z"/><path d="M145.52783,200.05073c0,-0.95215 0.41182,-1.72403 0.91983,-1.72403h19.74357c0.24395,0 0.47791,0.18164 0.65041,0.50495c0.1725,0.32331 0.26942,0.76183 0.26942,1.21908v24.4443c0,0.95215 -0.41182,1.72402 -0.91983,1.72402h-19.74357c-0.508,0 -0.91983,-0.77187 -0.91983,-1.72402z"/><path d="M169.52783,199.88407c0,-0.95215 0.41182,-1.72403 0.91983,-1.72403h19.74357c0.24395,0 0.47791,0.18164 0.65041,0.50495c0.1725,0.32331 0.26942,0.76183 0.26942,1.21908v24.44429c0,0.95215 -0.41182,1.72402 -0.91983,1.72402h-19.74357c-0.508,0 -0.91983,-0.77187 -0.91983,-1.72402z"/></g><g><path d="M265.02783,200.13407c0,-0.95215 0.41182,-1.72403 0.91983,-1.72403h19.74357c0.24395,0 0.47792,0.18164 0.65042,0.50495c0.1725,0.32332 0.26941,0.76183 0.26941,1.21907v24.44429c0,0.95215 -0.41182,1.72402 -0.91983,1.72402h-19.74357c-0.50801,0 -0.91983,-0.77187 -0.91983,-1.72402z"/><path d="M289.02783,200.30073c0,-0.95215 0.41182,-1.72403 0.91982,-1.72403h19.74357c0.24395,0 0.47791,0.18164 0.65041,0.50495c0.1725,0.32331 0.26942,0.76183 0.26942,1.21908v24.44429c0,0.95215 -0.41182,1.72402 -0.91983,1.72402h-19.74357c-0.508,0 -0.91982,-0.77187 -0.91982,-1.72402z"/><path d="M313.02783,200.13407c0,-0.95215 0.41182,-1.72403 0.91983,-1.72403h19.74357c0.24395,0 0.47791,0.18164 0.65041,0.50495c0.1725,0.32331 0.26942,0.76183 0.26942,1.21908v24.44429c0,0.95215 -0.41182,1.72402 -0.91983,1.72402h-19.74357c-0.508,0 -0.91983,-0.77187 -0.91983,-1.72402z"/></g><path d="M337.02783,200.13407c0,-0.95215 0.41182,-1.72403 0.91983,-1.72403h19.74357c0.24395,0 0.47792,0.18164 0.65042,0.50495c0.1725,0.32332 0.26941,0.76183 0.26941,1.21907v24.44429c0,0.95215 -0.41182,1.72402 -0.91983,1.72402h-19.74357c-0.50801,0 -0.91983,-0.77187 -0.91983,-1.72402z"/></g><text transform="translate(125.00001,129.75563) scale(0.74433,0.74433)" font-size="40" xml:space="preserve" fill="#000000" fill-rule="nonzero" stroke="none" stroke-width="1" stroke-linecap="butt" stroke-linejoin="miter" stroke-miterlimit="10" stroke-dasharray="" stroke-dashoffset="0" font-family="&quot;ヒラギノ角ゴ Pro W3&quot;, &quot;Hiragino Kaku Gothic Pro&quot;, Osaka, &quot;メイリオ&quot;, Meiryo, &quot;ＭＳ Ｐゴシック&quot;, &quot;MS PGothic&quot;" font-weight="normal" text-anchor="start" style="mix-blend-mode: normal"><tspan x="0" dy="0">1 2 3 4 5 6 7 8 9 0</tspan></text><text transform="translate(122.50001,159.84034) scale(0.64385,0.64385)" font-size="40" xml:space="preserve" fill="#000000" fill-rule="nonzero" stroke="none" stroke-width="1" stroke-linecap="butt" stroke-linejoin="miter" stroke-miterlimit="10" stroke-dasharray="" stroke-dashoffset="0" font-family="&quot;ヒラギノ角ゴ Pro W3&quot;, &quot;Hiragino Kaku Gothic Pro&quot;, Osaka, &quot;メイリオ&quot;, Meiryo, &quot;ＭＳ Ｐゴシック&quot;, &quot;MS PGothic&quot;" font-weight="normal" text-anchor="start" style="mix-blend-mode: normal"><tspan x="0" dy="0">Q W E R T Y U    O P</tspan></text><text transform="translate(296.48839,160.375) scale(0.68418,0.68418)" font-size="40" xml:space="preserve" fill="#000000" fill-rule="nonzero" stroke="none" stroke-width="1" stroke-linecap="butt" stroke-linejoin="miter" stroke-miterlimit="10" stroke-dasharray="" stroke-dashoffset="0" font-family="&quot;ヒラギノ角ゴ Pro W3&quot;, &quot;Hiragino Kaku Gothic Pro&quot;, Osaka, &quot;メイリオ&quot;, Meiryo, &quot;ＭＳ Ｐゴシック&quot;, &quot;MS PGothic&quot;" font-weight="normal" text-anchor="start" style="mix-blend-mode: normal"><tspan x="0" dy="0">I</tspan></text><text transform="translate(123.50001,191.83505) scale(0.65815,0.65815)" font-size="40" xml:space="preserve" fill="#000000" fill-rule="nonzero" stroke="none" stroke-width="1" stroke-linecap="butt" stroke-linejoin="miter" stroke-miterlimit="10" stroke-dasharray="" stroke-dashoffset="0" font-family="&quot;ヒラギノ角ゴ Pro W3&quot;, &quot;Hiragino Kaku Gothic Pro&quot;, Osaka, &quot;メイリオ&quot;, Meiryo, &quot;ＭＳ Ｐゴシック&quot;, &quot;MS PGothic&quot;" font-weight="normal" text-anchor="start" style="mix-blend-mode: normal"><tspan x="0" dy="0">A S D F G H J K L</tspan></text><text transform="translate(341.09897,183.00104) scale(1.58334,1.58334)" font-size="40" xml:space="preserve" fill="#000000" fill-rule="nonzero" stroke="none" stroke-width="1" stroke-linecap="butt" stroke-linejoin="miter" stroke-miterlimit="10" stroke-dasharray="" stroke-dashoffset="0" font-family="&quot;ヒラギノ角ゴ Pro W3&quot;, &quot;Hiragino Kaku Gothic Pro&quot;, Osaka, &quot;メイリオ&quot;, Meiryo, &quot;ＭＳ Ｐゴシック&quot;, &quot;MS PGothic&quot;" font-weight="normal" text-anchor="start" style="mix-blend-mode: normal"><tspan x="0" dy="0">,</tspan></text><text transform="translate(125.00001,221.64965) scale(0.63834,0.63834)" font-size="40" xml:space="preserve" fill="#000000" fill-rule="nonzero" stroke="none" stroke-width="1" stroke-linecap="butt" stroke-linejoin="miter" stroke-miterlimit="10" stroke-dasharray="" stroke-dashoffset="0" font-family="&quot;ヒラギノ角ゴ Pro W3&quot;, &quot;Hiragino Kaku Gothic Pro&quot;, Osaka, &quot;メイリオ&quot;, Meiryo, &quot;ＭＳ Ｐゴシック&quot;, &quot;MS PGothic&quot;" font-weight="normal" text-anchor="start" style="mix-blend-mode: normal"><tspan x="0" dy="0">Z X C V B N M</tspan></text><text transform="translate(296.69611,221.34544) scale(0.73008,0.73008)" font-size="40" xml:space="preserve" fill="#000000" fill-rule="nonzero" stroke="none" stroke-width="1" stroke-linecap="butt" stroke-linejoin="miter" stroke-miterlimit="10" stroke-dasharray="" stroke-dashoffset="0" font-family="&quot;ヒラギノ角ゴ Pro W3&quot;, &quot;Hiragino Kaku Gothic Pro&quot;, Osaka, &quot;メイリオ&quot;, Meiryo, &quot;ＭＳ Ｐゴシック&quot;, &quot;MS PGothic&quot;" font-weight="normal" text-anchor="start" style="mix-blend-mode: normal"><tspan x="0" dy="0">;  :  !</tspan></text><path d="M307.27784,231.87707c0,-0.85354 0.9588,-1.54546 2.14153,-1.54546h45.96682c0.56797,0 1.11268,0.16283 1.51429,0.45266c0.40162,0.28983 0.62724,0.68293 0.62724,1.09281v21.91253c0,0.85354 -0.9588,1.54546 -2.14153,1.54546h-45.96682c-1.18274,0 -2.14153,-0.69193 -2.14153,-1.54546z" fill="#ffffff" fill-rule="evenodd" stroke-linecap="square"/><text transform="translate(318.00001,253.99649) scale(1.21822,0.77549)" font-size="40" xml:space="preserve" fill="#000000" fill-rule="nonzero" stroke="none" stroke-width="1" stroke-linecap="butt" stroke-linejoin="miter" stroke-miterlimit="10" stroke-dasharray="" stroke-dashoffset="0" font-family="&quot;ヒラギノ角ゴ Pro W3&quot;, &quot;Hiragino Kaku Gothic Pro&quot;, Osaka, &quot;メイリオ&quot;, Meiryo, &quot;ＭＳ Ｐゴシック&quot;, &quot;MS PGothic&quot;" font-weight="normal" text-anchor="start" style="mix-blend-mode: normal"><tspan x="0" dy="0">X</tspan></text><g><path d="M121.8814,231.60001c0,-0.85354 0.9588,-1.54546 2.14153,-1.54546h45.96682c0.56797,0 1.11268,0.16283 1.51429,0.45266c0.40162,0.28983 0.62724,0.68293 0.62724,1.09281v21.91253c0,0.85354 -0.9588,1.54546 -2.14153,1.54546h-45.96682c-1.18274,0 -2.14153,-0.69193 -2.14153,-1.54546z" fill="#ffffff" fill-rule="evenodd" stroke-linecap="square"/><text transform="translate(131.69847,250.74663) scale(0.57642,0.57642)" font-size="40" xml:space="preserve" fill="#000000" fill-rule="nonzero" stroke="none" stroke-width="1" stroke-linecap="butt" stroke-linejoin="miter" stroke-miterlimit="10" stroke-dasharray="" stroke-dashoffset="0" font-family="&quot;ヒラギノ角ゴ Pro W3&quot;, &quot;Hiragino Kaku Gothic Pro&quot;, Osaka, &quot;メイリオ&quot;, Meiryo, &quot;ＭＳ Ｐゴシック&quot;, &quot;MS PGothic&quot;" font-weight="normal" text-anchor="start" style="mix-blend-mode: normal"><tspan x="0" dy="0">OK</tspan></text></g><g><path d="M178.07567,231.87707c0,-0.85354 2.36508,-1.54546 5.28255,-1.54546h113.38695c1.40102,0 2.74466,0.16283 3.73533,0.45266c0.99068,0.28983 1.54722,0.68293 1.54722,1.09281v21.91253c0,0.85354 -2.36508,1.54546 -5.28255,1.54546h-113.38695c-2.91747,0 -5.28255,-0.69193 -5.28255,-1.54546z" fill="#ffffff" fill-rule="evenodd" stroke-linecap="square"/><text transform="translate(221.73316,248.48462) scale(2.79744,1.23846)" font-size="40" xml:space="preserve" fill="#000000" fill-rule="nonzero" stroke="none" stroke-width="1" stroke-linecap="butt" stroke-linejoin="miter" stroke-miterlimit="10" stroke-dasharray="" stroke-dashoffset="0" font-family="&quot;ヒラギノ角ゴ Pro W3&quot;, &quot;Hiragino Kaku Gothic Pro&quot;, Osaka, &quot;メイリオ&quot;, Meiryo, &quot;ＭＳ Ｐゴシック&quot;, &quot;MS PGothic&quot;" font-weight="normal" text-anchor="start" style="mix-blend-mode: normal"><tspan x="0" dy="0">_</tspan></text></g></g></g></svg>