<svg version="1.1" xmlns="http://www.w3.org/2000/svg" xmlns:xlink="http://www.w3.org/1999/xlink" width="103.41729" height="18.6875" viewBox="0,0,103.41729,18.6875"><g transform="translate(-188.29135,-170.65625)"><g data-paper-data="{&quot;isPaintingLayer&quot;:true}" fill="#ffffff" fill-rule="nonzero" stroke="none" stroke-width="1" stroke-linecap="square" stroke-linejoin="miter" stroke-miterlimit="10" stroke-dasharray="" stroke-dashoffset="0" style="mix-blend-mode: normal"><path d=""/><path d=""/><path d=""/><path d=""/><path d=""/><path d=""/><path d=""/><path d=""/><path d=""/><path d=""/><path d=""/><path d=""/><path d=""/><path d=""/><path d="M188.29135,185.04688v-13.0625h5.5625c0.73958,0 1.42188,0.1875 2.04688,0.5625c0.63542,0.36458 1.14063,0.85938 1.51563,1.48438c0.375,0.625 0.5625,1.32813 0.5625,2.10938c0,0.71875 -0.1875,1.38542 -0.5625,2c-0.375,0.60417 -0.875,1.08854 -1.5,1.45313c-0.61458,0.36458 -1.30208,0.54688 -2.0625,0.54688h-3.54687v4.90625zM196.05698,185.04688l-3.32812,-5.89062l2.07813,-0.46875l3.6875,6.375zM190.30698,178.20313h3.73438c0.35417,0 0.67188,-0.08854 0.95313,-0.26562c0.29167,-0.1875 0.51563,-0.4375 0.67188,-0.75c0.16667,-0.32292 0.25,-0.67708 0.25,-1.0625c0,-0.4375 -0.10417,-0.81771 -0.3125,-1.14062c-0.19792,-0.33333 -0.47917,-0.59375 -0.84375,-0.78125c-0.36458,-0.1875 -0.78125,-0.28125 -1.25,-0.28125h-3.20312zM204.96225,185.23438c-1,0 -1.89062,-0.21354 -2.67187,-0.64062c-0.77083,-0.42708 -1.38021,-1.01562 -1.82812,-1.76562c-0.4375,-0.75 -0.65625,-1.60937 -0.65625,-2.57812c0,-0.77083 0.125,-1.47396 0.375,-2.10937c0.25,-0.63542 0.59375,-1.18229 1.03125,-1.64062c0.4375,-0.46875 0.96354,-0.82812 1.57813,-1.07812c0.625,-0.26042 1.29688,-0.39062 2.01563,-0.39062c0.63542,0 1.22396,0.11979 1.76563,0.35938c0.55208,0.23958 1.02604,0.57292 1.42188,1c0.40625,0.42708 0.71875,0.93229 0.9375,1.51563c0.21875,0.57292 0.32292,1.19792 0.3125,1.875l-0.01562,0.82813h-8l-0.4375,-1.53125h6.76563l-0.26562,0.3125v-0.4375c-0.04167,-0.41667 -0.18229,-0.78646 -0.42187,-1.10937c-0.22917,-0.32292 -0.52604,-0.57812 -0.89062,-0.76562c-0.36458,-0.1875 -0.75521,-0.28125 -1.17187,-0.28125c-0.67708,0 -1.24479,0.13021 -1.70312,0.39063c-0.45833,0.25 -0.80729,0.625 -1.04687,1.125c-0.22917,0.48958 -0.34375,1.09375 -0.34375,1.8125c0,0.67708 0.14063,1.27083 0.42188,1.78125c0.28125,0.5 0.68229,0.89063 1.20313,1.17188c0.53125,0.27083 1.13542,0.40625 1.8125,0.40625c0.48958,0 0.94271,-0.07812 1.35938,-0.23437c0.41667,-0.16667 0.86979,-0.46354 1.35938,-0.89062l0.96875,1.35938c-0.30208,0.30208 -0.66667,0.56771 -1.09375,0.79688c-0.42708,0.21875 -0.88021,0.39583 -1.35937,0.53125c-0.47917,0.125 -0.95312,0.1875 -1.42187,0.1875zM214.59793,185.23438c-0.82292,0 -1.5625,-0.14062 -2.21875,-0.42187c-0.65625,-0.29167 -1.20312,-0.71875 -1.64062,-1.28125l1.29688,-1.10937c0.375,0.42708 0.78125,0.73958 1.21875,0.9375c0.44792,0.1875 0.95313,0.28125 1.51563,0.28125c0.21875,0 0.42188,-0.02604 0.60938,-0.07812c0.19792,-0.05208 0.36979,-0.13542 0.51563,-0.25c0.14583,-0.11458 0.25521,-0.25 0.32813,-0.40625c0.07292,-0.15625 0.10938,-0.32812 0.10938,-0.51562c0,-0.32292 -0.11979,-0.58333 -0.35937,-0.78125c-0.125,-0.08333 -0.32292,-0.17708 -0.59375,-0.28125c-0.26042,-0.10417 -0.60417,-0.21354 -1.03125,-0.32812c-0.71875,-0.1875 -1.30729,-0.39583 -1.76562,-0.625c-0.45833,-0.23958 -0.8125,-0.51042 -1.0625,-0.8125c-0.1875,-0.23958 -0.32812,-0.49479 -0.42187,-0.76562c-0.08333,-0.28125 -0.125,-0.59375 -0.125,-0.9375c0,-0.40625 0.08854,-0.78125 0.26563,-1.125c0.1875,-0.34375 0.4375,-0.64062 0.75,-0.89062c0.32292,-0.26042 0.69792,-0.45833 1.125,-0.59375c0.42708,-0.13542 0.88542,-0.20312 1.375,-0.20312c0.45833,0 0.91146,0.0625 1.35938,0.1875c0.45833,0.125 0.88021,0.30729 1.26563,0.54688c0.38542,0.22917 0.70833,0.50521 0.96875,0.82813l-1.09375,1.21875c-0.23958,-0.23958 -0.5,-0.44792 -0.78125,-0.625c-0.28125,-0.17708 -0.56771,-0.3125 -0.85937,-0.40625c-0.28125,-0.10417 -0.53646,-0.15625 -0.76562,-0.15625c-0.26042,0 -0.5,0.02604 -0.71875,0.07813c-0.20833,0.04167 -0.38542,0.11458 -0.53125,0.21875c-0.13542,0.09375 -0.24479,0.21875 -0.32812,0.375c-0.07292,0.14583 -0.10937,0.3125 -0.10937,0.5c0.01042,0.15625 0.05208,0.30729 0.125,0.45313c0.07292,0.14583 0.17188,0.26563 0.29688,0.35938c0.13542,0.10417 0.33854,0.21354 0.60938,0.32813c0.27083,0.10417 0.61979,0.20833 1.04688,0.3125c0.61458,0.15625 1.125,0.33333 1.53125,0.53125c0.40625,0.1875 0.72917,0.40625 0.96875,0.65625c0.25,0.23958 0.42188,0.51563 0.51563,0.82813c0.10417,0.3125 0.15625,0.66146 0.15625,1.04688c0,0.55208 -0.16146,1.05208 -0.48437,1.5c-0.3125,0.4375 -0.73958,0.78125 -1.28125,1.03125c-0.53125,0.25 -1.125,0.375 -1.78125,0.375zM221.4874,185.04688v-12.29687h1.92188v12.29688zM219.44052,177.125v-1.875h6.23438v1.875zM231.10495,185.23438c-0.80208,0 -1.53646,-0.22396 -2.20312,-0.67187c-0.66667,-0.44792 -1.20312,-1.05729 -1.60937,-1.82812c-0.39583,-0.77083 -0.59375,-1.64062 -0.59375,-2.60937c0,-0.98958 0.20313,-1.86458 0.60938,-2.625c0.40625,-0.76042 0.95313,-1.35937 1.64063,-1.79687c0.69792,-0.4375 1.47396,-0.65625 2.32813,-0.65625c0.51042,0 0.97396,0.07813 1.39063,0.23438c0.42708,0.14583 0.79688,0.35417 1.10938,0.625c0.32292,0.26042 0.58333,0.56771 0.78125,0.92188c0.20833,0.34375 0.33854,0.71354 0.39063,1.10938l-0.42187,-0.14062v-2.54687h1.9375v9.79688h-1.9375v-2.32812l0.4375,-0.14062c-0.07292,0.34375 -0.22396,0.67708 -0.45312,1c-0.22917,0.3125 -0.52083,0.59375 -0.875,0.84375c-0.35417,0.23958 -0.74479,0.4375 -1.17187,0.59375c-0.42708,0.14583 -0.88021,0.21875 -1.35937,0.21875zM231.60495,183.46875c0.59375,0 1.10938,-0.14062 1.54688,-0.42187c0.44792,-0.29167 0.79688,-0.6875 1.04688,-1.1875c0.26042,-0.51042 0.39063,-1.08854 0.39063,-1.73437c0,-0.63542 -0.13021,-1.20312 -0.39062,-1.70312c-0.25,-0.5 -0.59896,-0.89062 -1.04687,-1.17187c-0.4375,-0.29167 -0.95312,-0.4375 -1.54687,-0.4375c-0.57292,0 -1.07812,0.14583 -1.51562,0.4375c-0.4375,0.28125 -0.78646,0.67188 -1.04687,1.17188c-0.25,0.5 -0.375,1.06771 -0.375,1.70313c0,0.64583 0.125,1.22396 0.375,1.73438c0.26042,0.5 0.60938,0.89583 1.04688,1.1875c0.4375,0.28125 0.94271,0.42188 1.51563,0.42188zM239.14871,185.04688v-9.79687h1.9375v3.07813l-0.1875,-0.75c0.13542,-0.46875 0.36979,-0.89583 0.70313,-1.28125c0.33333,-0.38542 0.71354,-0.6875 1.14063,-0.90625c0.42708,-0.22917 0.86979,-0.34375 1.32813,-0.34375c0.20833,0 0.40625,0.02083 0.59375,0.0625c0.19792,0.03125 0.35417,0.07292 0.46875,0.125l-0.5,2.09375c-0.14583,-0.0625 -0.3125,-0.11458 -0.5,-0.15625c-0.17708,-0.05208 -0.35417,-0.07812 -0.53125,-0.07812c-0.33333,0 -0.65104,0.06771 -0.95312,0.20313c-0.30208,0.125 -0.57292,0.30729 -0.8125,0.54688c-0.22917,0.22917 -0.41146,0.49479 -0.54687,0.79688c-0.13542,0.30208 -0.20312,0.63542 -0.20312,1v5.40625zM248.25925,185.04688v-12.29687h1.92188v12.29688zM246.21237,177.125v-1.875h6.23438v1.875zM254.517,185.04688v-9.79687h1.92188v9.79688zM255.4545,173.09375c-0.40625,0 -0.72396,-0.10417 -0.95312,-0.3125c-0.21875,-0.21875 -0.32812,-0.52083 -0.32812,-0.90625c0,-0.36458 0.11458,-0.65625 0.34375,-0.875c0.22917,-0.22917 0.54167,-0.34375 0.9375,-0.34375c0.40625,0 0.71875,0.10938 0.9375,0.32813c0.22917,0.20833 0.34375,0.50521 0.34375,0.89063c0,0.36458 -0.11458,0.66146 -0.34375,0.89063c-0.22917,0.21875 -0.54167,0.32813 -0.9375,0.32813zM259.3909,185.04688v-9.79687h1.92188v2.01563l-0.34375,0.21875c0.125,-0.42708 0.36979,-0.82292 0.73438,-1.1875c0.36458,-0.375 0.79167,-0.67708 1.28125,-0.90625c0.5,-0.22917 1.01041,-0.34375 1.53125,-0.34375c0.75,0 1.36979,0.14583 1.85938,0.4375c0.5,0.29167 0.875,0.73958 1.125,1.34375c0.25,0.59375 0.375,1.34375 0.375,2.25v5.96875h-1.92187v-5.84375c0,-0.55208 -0.07291,-1.01042 -0.21875,-1.375c-0.14584,-0.375 -0.375,-0.64583 -0.6875,-0.8125c-0.3125,-0.16667 -0.69791,-0.23958 -1.15625,-0.21875c-0.375,0 -0.71875,0.0625 -1.03125,0.1875c-0.3125,0.11458 -0.58333,0.28125 -0.8125,0.5c-0.22917,0.20833 -0.41146,0.45313 -0.54687,0.73438c-0.125,0.27083 -0.1875,0.56771 -0.1875,0.89063v5.9375h-0.95312c-0.15625,0 -0.31771,0 -0.48437,0c-0.16667,0 -0.32812,0 -0.48437,0zM274.88199,189.34375c-0.69791,0 -1.39584,-0.10937 -2.09375,-0.32812c-0.6875,-0.21875 -1.23959,-0.50521 -1.65625,-0.85937l0.70313,-1.48437c0.25,0.1875 0.54166,0.34896 0.875,0.48438c0.33334,0.14583 0.6875,0.26042 1.0625,0.34375c0.375,0.08333 0.74479,0.125 1.10938,0.125c0.67709,0 1.24479,-0.11458 1.70313,-0.34375c0.46875,-0.21875 0.81771,-0.54687 1.04688,-0.98437c0.23959,-0.4375 0.35938,-0.97917 0.35938,-1.625v-1.875l0.20313,0.125c-0.0625,0.38542 -0.26562,0.75521 -0.60937,1.10938c-0.34375,0.35417 -0.77084,0.64583 -1.28125,0.875c-0.5,0.21875 -1.02084,0.32813 -1.5625,0.32813c-0.92709,0 -1.75521,-0.21875 -2.48437,-0.65625c-0.72916,-0.44792 -1.30729,-1.05208 -1.73437,-1.8125c-0.41666,-0.77083 -0.625,-1.64583 -0.625,-2.625c0,-0.97917 0.20834,-1.84896 0.625,-2.60937c0.41666,-0.77083 0.98438,-1.375 1.70313,-1.8125c0.72916,-0.44792 1.55209,-0.67187 2.46875,-0.67187c0.36459,0 0.71875,0.04688 1.0625,0.14063c0.35416,0.09375 0.68229,0.22396 0.98438,0.39063c0.30209,0.16667 0.56771,0.34896 0.79688,0.54688c0.23959,0.19792 0.43229,0.41146 0.57813,0.64063c0.15625,0.21875 0.25,0.42708 0.28125,0.625l-0.40625,0.15625v-2.29687h1.92188v9.20313c0,0.78125 -0.11459,1.47396 -0.34375,2.07813c-0.22916,0.60417 -0.5625,1.11458 -1,1.53125c-0.4375,0.41667 -0.96875,0.73438 -1.59375,0.95313c-0.61459,0.21875 -1.3125,0.32813 -2.09375,0.32813zM274.94449,183.46875c0.61459,0 1.15625,-0.14062 1.625,-0.42187c0.47916,-0.29167 0.84896,-0.6875 1.10938,-1.1875c0.26041,-0.5 0.39063,-1.07292 0.39063,-1.71875c0,-0.64583 -0.13541,-1.21875 -0.40625,-1.71875c-0.27084,-0.51042 -0.64062,-0.90625 -1.10937,-1.1875c-0.45834,-0.29167 -0.99479,-0.4375 -1.60937,-0.4375c-0.59375,0 -1.125,0.14583 -1.59375,0.4375c-0.46875,0.29167 -0.83854,0.69271 -1.10937,1.20313c-0.26041,0.5 -0.39062,1.06771 -0.39062,1.70313c0,0.63542 0.13021,1.20833 0.39063,1.71875c0.27084,0.5 0.64063,0.89583 1.10938,1.1875c0.46875,0.28125 1,0.42188 1.59375,0.42188zM283.38052,185.25c-0.40625,0 -0.72396,-0.11979 -0.95312,-0.35937c-0.21875,-0.23958 -0.32812,-0.58333 -0.32812,-1.03125c0,-0.41667 0.11459,-0.75521 0.34375,-1.01562c0.23959,-0.26042 0.55209,-0.39062 0.9375,-0.39062c0.41666,0 0.73438,0.125 0.95313,0.375c0.22916,0.23958 0.34375,0.58333 0.34375,1.03125c0,0.40625 -0.11979,0.73958 -0.35937,1c-0.23959,0.26042 -0.55209,0.39063 -0.9375,0.39063zM286.88052,185.25c-0.40625,0 -0.72396,-0.11979 -0.95312,-0.35937c-0.21875,-0.23958 -0.32812,-0.58333 -0.32812,-1.03125c0,-0.41667 0.11459,-0.75521 0.34375,-1.01562c0.23959,-0.26042 0.55209,-0.39062 0.9375,-0.39062c0.41666,0 0.73438,0.125 0.95313,0.375c0.22916,0.23958 0.34375,0.58333 0.34375,1.03125c0,0.40625 -0.11979,0.73958 -0.35937,1c-0.23959,0.26042 -0.55209,0.39063 -0.9375,0.39063zM290.41177,185.25c-0.40625,0 -0.72396,-0.11979 -0.95312,-0.35937c-0.21875,-0.23958 -0.32812,-0.58333 -0.32812,-1.03125c0,-0.41667 0.11459,-0.75521 0.34375,-1.01562c0.23959,-0.26042 0.55209,-0.39062 0.9375,-0.39062c0.41666,0 0.73438,0.125 0.95313,0.375c0.22916,0.23958 0.34375,0.58333 0.34375,1.03125c0,0.40625 -0.11979,0.73958 -0.35937,1c-0.23959,0.26042 -0.55209,0.39063 -0.9375,0.39063z"/></g></g></svg>