<svg version="1.1" xmlns="http://www.w3.org/2000/svg" xmlns:xlink="http://www.w3.org/1999/xlink" width="720" height="540" viewBox="0,0,720,540"><defs><clipPath id="clip-1"><rect x="-240" y="-180" transform="scale(0.5,0.5)" width="1440" height="1080" fill="none" fill-rule="nonzero" stroke-width="0.5" stroke-linecap="butt"/></clipPath></defs><g transform="translate(120,90)"><g clip-path="url(#clip-1)" data-paper-data="{&quot;isPaintingLayer&quot;:true}" stroke="none" stroke-linejoin="miter" stroke-miterlimit="10" stroke-dasharray="" stroke-dashoffset="0" style="mix-blend-mode: normal"><path d="M43.81267,81.45038v0c0,-8.96665 7.26891,-16.23556 16.23556,-16.23556h348.48703c4.30594,0 8.43553,1.71053 11.48028,4.75528c3.04478,3.04477 4.75528,7.17434 4.75528,11.48028v230.19757c0,8.96665 -7.26891,16.23556 -16.23556,16.23556h-348.48703v0c-8.96665,0 -16.23556,-7.26891 -16.23556,-16.23556z" fill-opacity="0.86769" fill="#1d1d1d" fill-rule="evenodd" stroke-width="1" stroke-linecap="square"/><path d="M-240,-180h960v720h-960z" fill-opacity="0" fill="#000000" fill-rule="evenodd" stroke-width="1" stroke-linecap="square"/><path d="M61.57946,86.33703c-0.6943,0 -1.32509,-0.08044 -1.89238,-0.24131c-0.55882,-0.16934 -1.05838,-0.41489 -1.49866,-0.73663c-0.43182,-0.32174 -0.81707,-0.69853 -1.15575,-1.13034l1.56217,-1.77808c0.50802,0.67736 1.01604,1.13458 1.52407,1.37166c0.50802,0.22861 1.03721,0.34292 1.58757,0.34292c0.27094,0 0.51649,-0.03387 0.73663,-0.1016c0.22014,-0.0762 0.38949,-0.18204 0.50802,-0.31751c0.12701,-0.13548 0.19051,-0.30481 0.19051,-0.50802c0,-0.15241 -0.0381,-0.28788 -0.1143,-0.40642c-0.0762,-0.11854 -0.18204,-0.22437 -0.31751,-0.31751c-0.12701,-0.09313 -0.28365,-0.17781 -0.46992,-0.25401c-0.17781,-0.0762 -0.36831,-0.1397 -0.57152,-0.1905c-0.20321,-0.05927 -0.41065,-0.11007 -0.62232,-0.15241c-0.58423,-0.12701 -1.09648,-0.28365 -1.53676,-0.46992c-0.43182,-0.19474 -0.79167,-0.43182 -1.07954,-0.71123c-0.28788,-0.27941 -0.50379,-0.59692 -0.64772,-0.95254c-0.13548,-0.36409 -0.20321,-0.76627 -0.20321,-1.20655c0,-0.48262 0.10584,-0.92291 0.31752,-1.32086c0.22014,-0.39795 0.51226,-0.74087 0.87634,-1.02874c0.37255,-0.28788 0.80014,-0.50802 1.28276,-0.66043c0.49109,-0.16088 0.99911,-0.24131 1.52407,-0.24131c0.6943,0 1.29122,0.0762 1.79078,0.22861c0.50802,0.14394 0.93984,0.35138 1.29546,0.62233c0.35562,0.27094 0.66043,0.60116 0.91444,0.99064l-1.58756,1.52407c-0.21168,-0.26248 -0.44452,-0.47839 -0.69853,-0.64772c-0.24554,-0.16934 -0.50802,-0.30058 -0.78743,-0.39371c-0.27094,-0.09313 -0.55459,-0.1397 -0.85093,-0.1397c-0.30481,0 -0.56729,0.03811 -0.78743,0.11431c-0.21168,0.0762 -0.38102,0.18204 -0.50802,0.31752c-0.11854,0.13548 -0.17781,0.30058 -0.17781,0.49533c0,0.16934 0.0508,0.31752 0.15241,0.44452c0.1016,0.11854 0.23708,0.22861 0.40642,0.33021c0.17781,0.09313 0.37678,0.17357 0.59693,0.24131c0.22014,0.05927 0.45298,0.11007 0.69853,0.15241c0.55882,0.11007 1.06261,0.25825 1.51137,0.44452c0.44875,0.17781 0.834,0.39795 1.15575,0.66043c0.33021,0.26248 0.58423,0.57576 0.76203,0.93984c0.17781,0.35562 0.26672,0.7705 0.26672,1.24465c0,0.73663 -0.18204,1.36319 -0.54612,1.87968c-0.35562,0.50802 -0.84247,0.89751 -1.46056,1.16845c-0.6181,0.26248 -1.33355,0.39372 -2.14639,0.39372zM71.25722,86.33703c-0.88904,0 -1.66377,-0.17781 -2.3242,-0.53342c-0.65196,-0.36409 -1.15998,-0.85517 -1.52407,-1.47326c-0.36409,-0.62656 -0.54612,-1.33779 -0.54612,-2.13369c0,-0.6181 0.09737,-1.18538 0.29212,-1.70187c0.20321,-0.51649 0.48686,-0.96101 0.85094,-1.33355c0.36409,-0.38102 0.7959,-0.67312 1.29546,-0.87633c0.50802,-0.21168 1.05838,-0.31751 1.65107,-0.31751c0.56729,0 1.08378,0.1016 1.54947,0.30481c0.47415,0.20321 0.88057,0.48686 1.21925,0.85094c0.34715,0.36409 0.60963,0.7959 0.78743,1.29546c0.18628,0.49109 0.27094,1.02875 0.25401,1.61297l-0.0254,0.64773h-6.41377l-0.34291,-1.35895h4.78811l-0.25401,0.27941v-0.29211c-0.01693,-0.25401 -0.09737,-0.47839 -0.24131,-0.67312c-0.13548,-0.20321 -0.31328,-0.35985 -0.53342,-0.46992c-0.22014,-0.11007 -0.47415,-0.1651 -0.76203,-0.1651c-0.38949,0 -0.72393,0.08044 -1.00334,0.24131c-0.27941,0.15241 -0.49109,0.37678 -0.63503,0.67313c-0.13548,0.29634 -0.20321,0.66466 -0.20321,1.10495c0,0.44029 0.09313,0.82554 0.27941,1.15575c0.18628,0.33021 0.45722,0.58846 0.81283,0.77474c0.36409,0.17781 0.79167,0.26672 1.28276,0.26672c0.34715,0 0.65196,-0.0508 0.91444,-0.15241c0.27094,-0.1016 0.56306,-0.27518 0.87634,-0.52072l1.14305,1.61297c-0.31328,0.27094 -0.64772,0.49533 -1.00334,0.67313c-0.35562,0.16934 -0.7197,0.29634 -1.09225,0.38102c-0.36409,0.08467 -0.72816,0.12701 -1.09225,0.12701zM76.96846,86.18462v-10.08423h2.42581v10.08423zM75.546,80.25347v-2.12099h5.41043v2.121zM85.08681,86.34973c-0.60116,0 -1.11341,-0.12701 -1.53676,-0.38102c-0.41489,-0.26248 -0.73663,-0.63503 -0.96524,-1.11765c-0.22014,-0.48262 -0.33021,-1.06261 -0.33021,-1.73997v-4.97861h2.4385v4.6357c0,0.33021 0.0508,0.60963 0.15241,0.83824c0.1016,0.22861 0.24978,0.40642 0.44452,0.53342c0.20321,0.12701 0.44875,0.19051 0.73663,0.19051c0.21168,0 0.40642,-0.03387 0.58423,-0.1016c0.17781,-0.06773 0.33021,-0.1651 0.45722,-0.29211c0.12701,-0.12701 0.22437,-0.27518 0.29212,-0.44452c0.06773,-0.16934 0.1016,-0.35562 0.1016,-0.55882v-4.80081h2.45121v8.05215h-2.29879l-0.1016,-1.65107l0.45722,-0.17781c-0.12701,0.38102 -0.33021,0.7197 -0.60963,1.01604c-0.27941,0.29634 -0.6181,0.53342 -1.01604,0.71123c-0.39795,0.17781 -0.81707,0.26672 -1.25735,0.26672zM92.07907,89.52487v-11.39239h2.2988l0.08891,1.80348l-0.44452,-0.1397c0.06773,-0.33021 0.23708,-0.63079 0.50802,-0.90173c0.27094,-0.27941 0.6181,-0.49955 1.04144,-0.66043c0.42335,-0.16934 0.86364,-0.25401 1.32086,-0.25401c0.6943,0 1.30816,0.18204 1.84158,0.54613c0.53342,0.35562 0.95255,0.84671 1.25736,1.47326c0.31328,0.6181 0.46992,1.33356 0.46992,2.1464c0,0.81283 -0.15664,1.53254 -0.46992,2.15909c-0.30481,0.62656 -0.72816,1.12188 -1.27005,1.48597c-0.54189,0.35562 -1.15998,0.53342 -1.85428,0.53342c-0.45722,0 -0.89327,-0.08467 -1.30815,-0.25401c-0.41489,-0.17781 -0.76203,-0.41065 -1.04144,-0.69853c-0.27941,-0.29634 -0.46569,-0.6181 -0.55882,-0.96524l0.55882,-0.20321v5.32153zM96.28294,84.27954c0.35562,0 0.6689,-0.0889 0.93984,-0.26671c0.27941,-0.17781 0.49533,-0.42335 0.64773,-0.73663c0.15241,-0.31328 0.22861,-0.69006 0.22861,-1.13034c0,-0.42335 -0.0762,-0.79167 -0.22861,-1.10494c-0.15241,-0.32174 -0.36409,-0.57152 -0.63503,-0.74933c-0.26248,-0.17781 -0.57999,-0.26671 -0.95254,-0.26671c-0.38102,0 -0.707,0.08891 -0.97794,0.26672c-0.27094,0.16934 -0.48262,0.41489 -0.63503,0.73663c-0.15241,0.32174 -0.22861,0.6943 -0.22861,1.11765c0,0.44029 0.0762,0.81707 0.22861,1.13035c0.15241,0.31328 0.36409,0.55882 0.63503,0.73663c0.27094,0.17781 0.59693,0.26672 0.97795,0.26672z" fill="#ffffff" fill-rule="nonzero" stroke-width="1" stroke-linecap="square"/><path d="M184.2953,118.4692v-10.6426h4.32833c0.57712,0 1.09906,0.14428 1.56584,0.43283c0.47527,0.28856 0.85294,0.6832 1.13301,1.18393c0.28855,0.49224 0.43283,1.04389 0.43283,1.65495c0,0.61106 -0.14428,1.16695 -0.43283,1.66768c-0.28007,0.49224 -0.65774,0.88688 -1.133,1.18393c-0.46678,0.29704 -0.98873,0.44557 -1.56583,0.44557h-2.68611v4.07372zM185.93752,112.81691h2.66065c0.27159,0 0.5177,-0.07638 0.73836,-0.22915c0.22915,-0.16125 0.41162,-0.36918 0.54741,-0.62378c0.13579,-0.2631 0.20369,-0.55165 0.20369,-0.86567c0,-0.31402 -0.0679,-0.59832 -0.20369,-0.85293c-0.13579,-0.25461 -0.31826,-0.45829 -0.5474,-0.61106c-0.22067,-0.15276 -0.46678,-0.22915 -0.73836,-0.22915h-2.66065zM193.79212,118.4692v-7.98195h1.56584v7.98196zM194.55594,108.73046c-0.33099,0 -0.58984,-0.08487 -0.77655,-0.25461c-0.17823,-0.17823 -0.26733,-0.42434 -0.26733,-0.73836c0,-0.29704 0.09336,-0.53468 0.28007,-0.7129c0.18671,-0.18672 0.44131,-0.28007 0.76382,-0.28007c0.33099,0 0.5856,0.08912 0.76382,0.26734c0.18671,0.16974 0.28007,0.41162 0.28007,0.72564c0,0.29704 -0.09336,0.53892 -0.28007,0.72564c-0.18671,0.17823 -0.44131,0.26734 -0.76382,0.26734zM201.14944,118.62197c-0.73836,0 -1.40034,-0.18247 -1.98594,-0.5474c-0.57712,-0.36494 -1.03541,-0.86142 -1.37488,-1.48945c-0.33947,-0.62803 -0.50922,-1.33245 -0.50922,-2.11324c0,-0.78079 0.16974,-1.48521 0.50922,-2.11324c0.33947,-0.62803 0.79777,-1.12452 1.37488,-1.48945c0.5856,-0.36494 1.24758,-0.5474 1.98594,-0.5474c0.7129,0 1.3579,0.14428 1.93502,0.43283c0.5856,0.28856 1.03117,0.6832 1.33669,1.18393l-0.86567,1.05663c-0.16125,-0.22915 -0.36918,-0.44132 -0.62378,-0.63652c-0.25461,-0.1952 -0.52619,-0.34796 -0.81474,-0.45829c-0.28007,-0.11033 -0.55166,-0.16549 -0.81474,-0.16549c-0.48375,0 -0.91659,0.11881 -1.2985,0.35645c-0.38191,0.23764 -0.6832,0.56438 -0.90385,0.98024c-0.22067,0.41586 -0.33099,0.88264 -0.33099,1.40034c0,0.51771 0.11458,0.98448 0.34372,1.40034c0.23763,0.40737 0.54741,0.73412 0.92932,0.98024c0.38191,0.23764 0.80626,0.35645 1.27304,0.35645c0.28007,0 0.54741,-0.04668 0.80202,-0.14003c0.25461,-0.09335 0.50497,-0.22915 0.7511,-0.40737c0.24613,-0.18672 0.47527,-0.41162 0.68744,-0.67471l0.86567,1.06935c-0.32251,0.45829 -0.78504,0.83596 -1.38761,1.13301c-0.60258,0.28856 -1.2306,0.43283 -1.8841,0.43283zM207.32099,115.97405l-0.07638,-1.70587l3.81912,-3.78092h2.11324zM205.89519,118.4692v-11.25366h1.56584v11.25366zM211.28014,118.4692l-3.0171,-3.51359l1.10755,-1.01843l3.90823,4.53202zM221.85287,118.62197c-0.6535,0 -1.25182,-0.18247 -1.79498,-0.5474c-0.54316,-0.36494 -0.98024,-0.86142 -1.31123,-1.48945c-0.32251,-0.62803 -0.48375,-1.33669 -0.48375,-2.12597c0,-0.80626 0.1655,-1.51916 0.49649,-2.13871c0.33099,-0.61955 0.77656,-1.10754 1.33669,-1.46399c0.56862,-0.35645 1.2009,-0.53468 1.89683,-0.53468c0.41585,0 0.79353,0.06366 1.13301,0.19096c0.34797,0.11881 0.64925,0.28856 0.90386,0.50922c0.26309,0.21218 0.47527,0.46254 0.63652,0.7511c0.16974,0.28007 0.27582,0.58135 0.31826,0.90386l-0.34372,-0.11457v-2.07505h1.57857v7.98196h-1.57857v-1.89682l0.35645,-0.11457c-0.0594,0.28007 -0.18247,0.55165 -0.36918,0.81474c-0.18671,0.25461 -0.42435,0.48375 -0.7129,0.68744c-0.28855,0.1952 -0.60681,0.35645 -0.95477,0.48375c-0.34797,0.11881 -0.71715,0.17823 -1.10754,0.17823zM222.26025,117.18344c0.48375,0 0.90386,-0.11457 1.26031,-0.34372c0.36493,-0.23764 0.64925,-0.56014 0.85294,-0.96751c0.21217,-0.41586 0.31826,-0.88688 0.31826,-1.41307c0,-0.51771 -0.10609,-0.98024 -0.31826,-1.38761c-0.20369,-0.40737 -0.488,-0.72563 -0.85293,-0.95477c-0.35645,-0.23764 -0.77655,-0.35645 -1.2603,-0.35645c-0.46678,0 -0.87839,0.11881 -1.23484,0.35645c-0.35645,0.22915 -0.64076,0.54741 -0.85293,0.95478c-0.20369,0.40737 -0.30553,0.86991 -0.30553,1.38762c0,0.52619 0.10184,0.99722 0.30553,1.41308c0.21217,0.40737 0.49649,0.72987 0.85294,0.96751c0.35645,0.22915 0.76807,0.34372 1.23485,0.34372zM233.65554,118.4692v-10.01881h1.56584v10.01882zM231.98785,112.0149v-1.52765h5.07943v1.52765zM238.4994,118.4692v-11.25366h1.56584v4.91393l-0.28007,0.17823c0.10184,-0.34796 0.30128,-0.67047 0.59833,-0.96751c0.29705,-0.30553 0.645,-0.55165 1.04389,-0.73836c0.40737,-0.18672 0.82323,-0.28007 1.24758,-0.28007c0.61106,0 1.11603,0.11881 1.51492,0.35645c0.40737,0.23764 0.7129,0.60257 0.91659,1.09481c0.20369,0.48375 0.30553,1.09481 0.30553,1.83318v4.86301h-1.56583v-4.76116c0,-0.4498 -0.0594,-0.82323 -0.17823,-1.12027c-0.11882,-0.30553 -0.30553,-0.52619 -0.56014,-0.66198c-0.25461,-0.13579 -0.56862,-0.1952 -0.94205,-0.17823c-0.30553,0 -0.5856,0.05092 -0.84021,0.15276c-0.25461,0.09335 -0.47527,0.22915 -0.66198,0.40737c-0.18671,0.16974 -0.33523,0.36919 -0.44556,0.59833c-0.10184,0.22066 -0.15276,0.46254 -0.15276,0.72564v4.83755h-0.77655c-0.1273,0 -0.25885,0 -0.39464,0c-0.13579,0 -0.26733,0 -0.39464,0zM251.26072,118.62197c-0.81474,0 -1.54037,-0.17398 -2.17689,-0.52194c-0.62804,-0.34796 -1.12452,-0.82747 -1.48945,-1.43853c-0.35645,-0.61106 -0.53468,-1.31123 -0.53468,-2.10051c0,-0.62803 0.10184,-1.2009 0.30553,-1.7186c0.20369,-0.51771 0.48375,-0.96326 0.84021,-1.33669c0.35645,-0.38191 0.78504,-0.67471 1.28577,-0.87839c0.50922,-0.21218 1.05663,-0.31826 1.64222,-0.31826c0.5177,0 0.99722,0.0976 1.43854,0.2928c0.44981,0.1952 0.83596,0.46678 1.15847,0.81474c0.33099,0.34796 0.5856,0.75958 0.76382,1.23485c0.17823,0.46678 0.26309,0.976 0.25461,1.52765l-0.01273,0.67471h-6.51796l-0.35645,-1.24758h5.51226l-0.21641,0.25461v-0.35645c-0.03394,-0.33948 -0.14852,-0.64076 -0.34372,-0.90385c-0.18671,-0.2631 -0.42859,-0.47102 -0.72563,-0.62378c-0.29705,-0.15276 -0.6153,-0.22915 -0.95477,-0.22915c-0.55166,0 -1.01419,0.10609 -1.38761,0.31826c-0.37343,0.20369 -0.65774,0.50922 -0.85293,0.91659c-0.18671,0.39888 -0.28007,0.89113 -0.28007,1.47672c0,0.55165 0.11458,1.0354 0.34372,1.45126c0.22915,0.40737 0.55589,0.72564 0.98024,0.95478c0.43283,0.22066 0.92507,0.33099 1.47672,0.33099c0.39889,0 0.76807,-0.06365 1.10755,-0.19095c0.33947,-0.13579 0.70866,-0.37767 1.10755,-0.72563l0.78928,1.10755c-0.24613,0.24612 -0.54316,0.46254 -0.89113,0.64925c-0.34797,0.17823 -0.71715,0.3225 -1.10754,0.43283c-0.39039,0.10184 -0.77655,0.15276 -1.15846,0.15276zM256.42522,118.4692v-7.98195h1.57857v1.70587l-0.29279,0.17823c0.08486,-0.2631 0.21217,-0.51346 0.38191,-0.75109c0.17823,-0.24612 0.39465,-0.46254 0.64925,-0.64925c0.26309,-0.18672 0.54316,-0.33523 0.84021,-0.44556c0.30553,-0.11881 0.6153,-0.17823 0.92932,-0.17823c0.44981,0 0.84869,0.07638 1.19666,0.22915c0.34797,0.15276 0.63227,0.38191 0.85294,0.68744c0.22067,0.30553 0.38191,0.68744 0.48375,1.14573l-0.24187,-0.06365l0.10184,-0.25461c0.11882,-0.23764 0.27582,-0.45829 0.47103,-0.66198c0.1952,-0.21218 0.42011,-0.39888 0.67471,-0.56014c0.25461,-0.16125 0.52195,-0.28856 0.80202,-0.38191c0.28855,-0.09335 0.56862,-0.14003 0.84021,-0.14003c0.59408,0 1.08633,0.12306 1.47672,0.36919c0.39039,0.24612 0.6832,0.61955 0.8784,1.12027c0.20369,0.49224 0.30553,1.10755 0.30553,1.84591v4.78663h-1.57857v-4.69751c0,-0.45829 -0.0594,-0.83172 -0.17823,-1.12027c-0.11882,-0.28856 -0.29705,-0.50073 -0.53468,-0.63652c-0.22915,-0.14428 -0.52619,-0.21641 -0.89113,-0.21641c-0.28007,0 -0.5474,0.05092 -0.80201,0.15276c-0.24613,0.09335 -0.46254,0.2249 -0.64925,0.39465c-0.17823,0.16974 -0.31826,0.36919 -0.4201,0.59833c-0.09336,0.22915 -0.14003,0.47951 -0.14003,0.7511v4.7739h-1.59129v-4.72297c0,-0.41586 -0.0594,-0.76807 -0.17823,-1.05662c-0.11882,-0.28856 -0.29705,-0.50922 -0.53468,-0.66198c-0.22915,-0.15276 -0.51346,-0.22915 -0.85293,-0.22915c-0.28007,0 -0.54316,0.05092 -0.78928,0.15276c-0.23763,0.09335 -0.44981,0.2249 -0.63652,0.39465c-0.17823,0.16125 -0.31826,0.35645 -0.4201,0.5856c-0.10184,0.22915 -0.15276,0.47527 -0.15276,0.73836v4.79936zM274.16721,118.62197c-0.81474,0 -1.54037,-0.17398 -2.17689,-0.52194c-0.62804,-0.34796 -1.12452,-0.82747 -1.48945,-1.43853c-0.35645,-0.61106 -0.53468,-1.31123 -0.53468,-2.10051c0,-0.62803 0.10184,-1.2009 0.30553,-1.7186c0.20369,-0.51771 0.48375,-0.96326 0.84021,-1.33669c0.35645,-0.38191 0.78504,-0.67471 1.28577,-0.87839c0.50922,-0.21218 1.05663,-0.31826 1.64222,-0.31826c0.5177,0 0.99722,0.0976 1.43854,0.2928c0.44981,0.1952 0.83596,0.46678 1.15847,0.81474c0.33099,0.34796 0.5856,0.75958 0.76382,1.23485c0.17823,0.46678 0.26309,0.976 0.25461,1.52765l-0.01273,0.67471h-6.51796l-0.35645,-1.24758h5.51226l-0.21641,0.25461v-0.35645c-0.03394,-0.33948 -0.14852,-0.64076 -0.34372,-0.90385c-0.18671,-0.2631 -0.42859,-0.47102 -0.72563,-0.62378c-0.29705,-0.15276 -0.6153,-0.22915 -0.95477,-0.22915c-0.55166,0 -1.01419,0.10609 -1.38761,0.31826c-0.37343,0.20369 -0.65774,0.50922 -0.85293,0.91659c-0.18671,0.39888 -0.28007,0.89113 -0.28007,1.47672c0,0.55165 0.11458,1.0354 0.34372,1.45126c0.22915,0.40737 0.55589,0.72564 0.98024,0.95478c0.43283,0.22066 0.92507,0.33099 1.47672,0.33099c0.39889,0 0.76807,-0.06365 1.10755,-0.19095c0.33947,-0.13579 0.70866,-0.37767 1.10755,-0.72563l0.78928,1.10755c-0.24613,0.24612 -0.54316,0.46254 -0.89113,0.64925c-0.34797,0.17823 -0.71715,0.3225 -1.10754,0.43283c-0.39039,0.10184 -0.77655,0.15276 -1.15846,0.15276zM279.99375,118.62197c-0.33099,0 -0.58984,-0.0976 -0.77655,-0.29279c-0.17823,-0.1952 -0.26733,-0.47527 -0.26733,-0.84021c0,-0.33948 0.09336,-0.6153 0.28007,-0.82747c0.1952,-0.21218 0.44981,-0.31826 0.76382,-0.31826c0.33947,0 0.59833,0.10184 0.77656,0.30553c0.18671,0.1952 0.28007,0.47527 0.28007,0.84021c0,0.33099 -0.0976,0.60257 -0.29279,0.81474c-0.1952,0.21218 -0.44981,0.31826 -0.76382,0.31826zM279.99375,112.61322c-0.33099,0 -0.58984,-0.0976 -0.77655,-0.29279c-0.17823,-0.1952 -0.26733,-0.47527 -0.26733,-0.84021c0,-0.33948 0.09336,-0.6153 0.28007,-0.82747c0.1952,-0.21218 0.44981,-0.31826 0.76382,-0.31826c0.33947,0 0.59833,0.10184 0.77656,0.30553c0.18671,0.1952 0.28007,0.47527 0.28007,0.84021c0,0.33099 -0.0976,0.60257 -0.29279,0.81474c-0.1952,0.21218 -0.44981,0.31826 -0.76382,0.31826z" fill="#ffffff" fill-rule="nonzero" stroke-width="1" stroke-linecap="square"/><path d="M282.0617,263.07335v-10.26653h1.58419v8.74374h4.81397v1.52279zM290.70974,263.07335v-7.69989h1.51051v7.6999zM291.44657,253.67874c-0.31929,0 -0.569,-0.08186 -0.74911,-0.24561c-0.17193,-0.17193 -0.25789,-0.40935 -0.25789,-0.71227c0,-0.28654 0.09005,-0.51578 0.27017,-0.68771c0.18012,-0.18011 0.42573,-0.27017 0.73683,-0.27017c0.31929,0 0.5649,0.08597 0.73683,0.2579c0.18012,0.16375 0.27017,0.39707 0.27017,0.69999c0,0.28655 -0.09005,0.51988 -0.27017,0.69999c-0.18012,0.17193 -0.42573,0.2579 -0.73683,0.2579zM297.99123,266.4505c-0.54853,0 -1.09706,-0.08596 -1.64559,-0.25789c-0.54034,-0.17193 -0.97425,-0.39707 -1.30174,-0.67543l0.55263,-1.16665c0.19649,0.14737 0.42573,0.27427 0.68771,0.3807c0.26198,0.11462 0.54034,0.20468 0.83508,0.27017c0.29473,0.0655 0.58537,0.09824 0.87192,0.09824c0.53215,0 0.97835,-0.09005 1.33858,-0.27017c0.36842,-0.17193 0.64268,-0.42981 0.8228,-0.77367c0.1883,-0.34385 0.28246,-0.76957 0.28246,-1.27718v-1.47366l0.15965,0.09824c-0.04912,0.30292 -0.20877,0.59356 -0.47894,0.87192c-0.27017,0.27836 -0.60584,0.5076 -1.007,0.68771c-0.39298,0.17193 -0.80233,0.2579 -1.22805,0.2579c-0.72864,0 -1.37951,-0.17193 -1.9526,-0.51578c-0.57309,-0.35204 -1.02747,-0.82689 -1.36314,-1.42454c-0.32748,-0.60584 -0.49122,-1.29355 -0.49122,-2.06313c0,-0.76957 0.16374,-1.4532 0.49122,-2.05085c0.32748,-0.60584 0.77368,-1.08069 1.33858,-1.42454c0.57309,-0.35204 1.21986,-0.52806 1.94032,-0.52806c0.28654,0 0.5649,0.03685 0.83508,0.11053c0.27836,0.07368 0.53625,0.17602 0.77368,0.30702c0.23742,0.13099 0.44619,0.27427 0.62631,0.42982c0.1883,0.15556 0.33976,0.32339 0.45438,0.50351c0.12281,0.17193 0.19649,0.33567 0.22105,0.49122l-0.31929,0.12281v-1.80523h1.51051v7.23324c0,0.61403 -0.09005,1.15847 -0.27017,1.63332c-0.18012,0.47485 -0.4421,0.87602 -0.78595,1.20349c-0.34385,0.32748 -0.76139,0.57719 -1.25261,0.74912c-0.48303,0.17193 -1.03156,0.2579 -1.64559,0.2579zM298.04035,261.83302c0.48303,0 0.90876,-0.11052 1.27718,-0.33157c0.37661,-0.22923 0.66724,-0.54034 0.87192,-0.93332c0.20468,-0.39298 0.30702,-0.84326 0.30702,-1.35086c0,-0.50759 -0.10643,-0.95788 -0.31929,-1.35086c-0.21286,-0.40116 -0.5035,-0.71227 -0.87191,-0.93332c-0.36023,-0.22923 -0.78186,-0.34385 -1.26489,-0.34385c-0.46666,0 -0.8842,0.11462 -1.25261,0.34385c-0.36842,0.22924 -0.65905,0.54444 -0.87191,0.94561c-0.20468,0.39298 -0.30701,0.83917 -0.30701,1.33858c0,0.49941 0.10234,0.9497 0.30702,1.35086c0.21286,0.39298 0.50351,0.70409 0.87192,0.93332c0.36842,0.22105 0.78595,0.33158 1.25261,0.33158zM304.05667,263.07335v-10.85599h1.51051v4.74029l-0.27017,0.17193c0.09824,-0.33567 0.29064,-0.64677 0.57719,-0.93332c0.28654,-0.29473 0.62222,-0.53215 1.007,-0.71227c0.39298,-0.18011 0.79414,-0.27017 1.20349,-0.27017c0.58947,0 1.07659,0.11462 1.46139,0.34385c0.39298,0.22924 0.68771,0.58128 0.8842,1.05613c0.19649,0.46666 0.29473,1.05613 0.29473,1.7684v4.69116h-1.5105v-4.59292c0,-0.43391 -0.05731,-0.79414 -0.17193,-1.08069c-0.11462,-0.29473 -0.29473,-0.50759 -0.54034,-0.63859c-0.24561,-0.13099 -0.54853,-0.1883 -0.90876,-0.17193c-0.29473,0 -0.5649,0.04912 -0.81052,0.14737c-0.24561,0.09006 -0.45847,0.22105 -0.63859,0.39298c-0.18012,0.16375 -0.32339,0.35614 -0.42981,0.57719c-0.09824,0.21287 -0.14737,0.44619 -0.14737,0.69999v4.6666h-0.74911c-0.12281,0 -0.24971,0 -0.38069,0c-0.13099,0 -0.25789,0 -0.38069,0zM313.739,263.07335v-9.66478h1.51051v9.66478zM312.13026,256.84712v-1.47366h4.89994v1.47366z" fill="#ffffff" fill-rule="nonzero" stroke-width="1" stroke-linecap="square"/><path d="M150.27954,262.18944v-10.56614h4.13293c0.75834,0 1.44084,0.12639 2.04751,0.37917c0.60667,0.25278 1.12487,0.6151 1.55459,1.08695c0.43815,0.47186 0.77098,1.03218 0.99848,1.68098c0.23593,0.64037 0.35389,1.35237 0.35389,2.13598c0,0.78361 -0.11796,1.49982 -0.35389,2.14862c-0.2275,0.6488 -0.55611,1.20912 -0.98584,1.68098c-0.42972,0.46343 -0.95213,0.82153 -1.56723,1.07431c-0.60667,0.25278 -1.28917,0.37917 -2.04751,0.37917zM151.90996,260.78653l-0.05056,-0.1643h2.47723c0.53083,0 1.0069,-0.08425 1.4282,-0.25278c0.42129,-0.17694 0.77518,-0.42129 1.06167,-0.73306c0.28648,-0.32018 0.50134,-0.71199 0.64459,-1.17542c0.15167,-0.46342 0.2275,-0.98162 0.2275,-1.55458c0,-0.57296 -0.07583,-1.08695 -0.2275,-1.54195c-0.14324,-0.46342 -0.36232,-0.85523 -0.65722,-1.17542c-0.29491,-0.32018 -0.6488,-0.56453 -1.06167,-0.73306c-0.41287,-0.17694 -0.88472,-0.26541 -1.41556,-0.26541h-2.51514l0.08848,-0.12639zM164.22171,262.34111c-0.6488,0 -1.24283,-0.18116 -1.78208,-0.54347c-0.53926,-0.36231 -0.97319,-0.85523 -1.3018,-1.47875c-0.32018,-0.62352 -0.48028,-1.32708 -0.48028,-2.1107c0,-0.80046 0.16431,-1.50824 0.49292,-2.12334c0.32861,-0.61509 0.77098,-1.09958 1.32709,-1.45347c0.56454,-0.35389 1.19227,-0.53083 1.8832,-0.53083c0.41287,0 0.78783,0.0632 1.12487,0.18959c0.34546,0.11797 0.64459,0.28648 0.89737,0.50556c0.26121,0.21065 0.47185,0.45922 0.63195,0.7457c0.16852,0.27806 0.27384,0.57718 0.31598,0.89737l-0.34125,-0.11375v-2.06014h1.56723v7.92461h-1.56723v-1.8832l0.35389,-0.11375c-0.05898,0.27806 -0.18116,0.54769 -0.36652,0.80889c-0.18537,0.25278 -0.42129,0.48028 -0.70778,0.6825c-0.28648,0.1938 -0.60245,0.35389 -0.94792,0.48028c-0.34546,0.11797 -0.71199,0.17694 -1.09958,0.17694zM164.62615,260.91292c0.48028,0 0.89737,-0.11375 1.25126,-0.34125c0.36232,-0.23592 0.64459,-0.55611 0.84681,-0.96056c0.21065,-0.41287 0.31598,-0.88051 0.31598,-1.40292c0,-0.51398 -0.10533,-0.97319 -0.31597,-1.37764c-0.20222,-0.40445 -0.48449,-0.72041 -0.8468,-0.94792c-0.35389,-0.23592 -0.77097,-0.35389 -1.25125,-0.35389c-0.46343,0 -0.87208,0.11797 -1.22597,0.35389c-0.35389,0.2275 -0.63616,0.54348 -0.8468,0.94792c-0.20222,0.40445 -0.30333,0.86366 -0.30333,1.37765c0,0.52241 0.10111,0.99005 0.30333,1.40292c0.21065,0.40445 0.49292,0.72464 0.84681,0.96056c0.35389,0.2275 0.76255,0.34125 1.22598,0.34125zM170.72822,262.18944v-7.9246h1.56723v2.48987l-0.15167,-0.60667c0.10954,-0.37917 0.29912,-0.72463 0.56876,-1.03639c0.26963,-0.31175 0.57718,-0.55611 0.92265,-0.73306c0.34546,-0.18537 0.70357,-0.27806 1.07431,-0.27806c0.16852,0 0.32861,0.01686 0.48028,0.05056c0.1601,0.02528 0.28648,0.05898 0.37917,0.10111l-0.40445,1.69362c-0.11796,-0.05056 -0.25278,-0.09268 -0.40445,-0.12639c-0.14324,-0.04213 -0.28648,-0.06319 -0.42972,-0.06319c-0.26963,0 -0.52662,0.05477 -0.77097,0.16431c-0.24435,0.10111 -0.46343,0.24856 -0.65722,0.44237c-0.18537,0.18537 -0.33283,0.40023 -0.44236,0.64459c-0.10954,0.24436 -0.1643,0.51399 -0.1643,0.80889v4.37307zM178.22543,259.71222l-0.07583,-1.69362l3.79168,-3.75376h2.09806zM176.80987,262.18944v-11.17281h1.55459v11.17281zM182.15614,262.18944l-2.99542,-3.48834l1.09959,-1.01111l3.88015,4.49946z" fill="#ffffff" fill-rule="nonzero" stroke-width="1" stroke-linecap="square"/></g></g></svg>