<svg version="1.1" xmlns="http://www.w3.org/2000/svg" xmlns:xlink="http://www.w3.org/1999/xlink" width="32" height="42" viewBox="0,0,32,42"><g transform="translate(-224,-159)"><g data-paper-data="{&quot;isPaintingLayer&quot;:true}" fill="#ffffff" fill-rule="nonzero" stroke="none" stroke-width="1" stroke-linecap="butt" stroke-linejoin="miter" stroke-miterlimit="10" stroke-dasharray="" stroke-dashoffset="0" style="mix-blend-mode: normal"><path d="M228,201c-1.1,0 -2.04167,-0.39167 -2.825,-1.175c-0.78333,-0.78333 -1.175,-1.725 -1.175,-2.825v-20c0,-1.1 0.39167,-2.04167 1.175,-2.825c0.78333,-0.78333 1.725,-1.175 2.825,-1.175h2v-4c0,-2.76667 0.975,-5.125 2.925,-7.075c1.95,-1.95 4.30833,-2.925 7.075,-2.925c2.76667,0 5.125,0.975 7.075,2.925c1.95,1.95 2.925,4.30833 2.925,7.075v4h2c1.1,0 2.04167,0.39167 2.825,1.175c0.78333,0.78333 1.175,1.725 1.175,2.825v20c0,1.1 -0.39167,2.04167 -1.175,2.825c-0.78333,0.78333 -1.725,1.175 -2.825,1.175zM228,197h24v-20h-24zM240,191c1.1,0 2.04167,-0.39167 2.825,-1.175c0.78333,-0.78333 1.175,-1.725 1.175,-2.825c0,-1.1 -0.39167,-2.04167 -1.175,-2.825c-0.78333,-0.78333 -1.725,-1.175 -2.825,-1.175c-1.1,0 -2.04167,0.39167 -2.825,1.175c-0.78333,0.78333 -1.175,1.725 -1.175,2.825c0,1.1 0.39167,2.04167 1.175,2.825c0.78333,0.78333 1.725,1.175 2.825,1.175zM234,173h12v-4c0,-1.66667 -0.58333,-3.08333 -1.75,-4.25c-1.16667,-1.16667 -2.58333,-1.75 -4.25,-1.75c-1.66667,0 -3.08333,0.58333 -4.25,1.75c-1.16667,1.16667 -1.75,2.58333 -1.75,4.25zM228,197v-20z"/></g></g></svg>