<svg version="1.1" xmlns="http://www.w3.org/2000/svg" xmlns:xlink="http://www.w3.org/1999/xlink" width="45.87358" height="45.87358" viewBox="0,0,45.87358,45.87358"><g transform="translate(-217.06321,-157.06321)"><g data-paper-data="{&quot;isPaintingLayer&quot;:true}" fill-rule="nonzero" stroke="none" stroke-width="0" stroke-linecap="butt" stroke-linejoin="miter" stroke-miterlimit="10" stroke-dasharray="" stroke-dashoffset="0" style="mix-blend-mode: normal"><path d="M217.06321,202.93679v-45.87358h45.87358v45.87358z" fill="#ffffff"/><path d="M223.47225,168.90279c0,-2.99921 2.43133,-5.43054 5.43054,-5.43054c2.99921,0 5.43054,2.43133 5.43054,5.43054c0,2.99921 -2.43133,5.43054 -5.43054,5.43054c-2.99921,0 -5.43054,-2.43133 -5.43054,-5.43054z" fill="#000000"/><path d="M245.16,189.99068c0,-2.99921 2.43133,-5.43054 5.43054,-5.43054c2.99921,0 5.43054,2.43133 5.43054,5.43054c0,2.99921 -2.43133,5.43054 -5.43054,5.43054c-2.99921,0 -5.43054,-2.43133 -5.43054,-5.43054z" fill="#000000"/><path d="M223.17233,189.89751c0,-2.99921 2.43133,-5.43054 5.43054,-5.43054c2.99921,0 5.43054,2.43133 5.43054,5.43054c0,2.99921 -2.43133,5.43054 -5.43054,5.43054c-2.99921,0 -5.43054,-2.43133 -5.43054,-5.43054z" fill="#000000"/><path d="M244.86008,168.99597c0,-2.99921 2.43133,-5.43054 5.43054,-5.43054c2.99921,0 5.43054,2.43133 5.43054,5.43054c0,2.99921 -2.43133,5.43054 -5.43054,5.43054c-2.99921,0 -5.43054,-2.43133 -5.43054,-5.43054z" fill="#000000"/><path d="M234.56946,180c0,-2.99921 2.43133,-5.43054 5.43054,-5.43054c2.99921,0 5.43054,2.43133 5.43054,5.43054c0,2.99921 -2.43133,5.43054 -5.43054,5.43054c-2.99921,0 -5.43054,-2.43133 -5.43054,-5.43054z" fill="#000000"/></g></g></svg>