<svg version="1.1" xmlns="http://www.w3.org/2000/svg" xmlns:xlink="http://www.w3.org/1999/xlink" width="21.58322" height="27.89234" viewBox="0,0,21.58322,27.89234"><g transform="translate(-290.71392,-103.10293)"><g data-paper-data="{&quot;isPaintingLayer&quot;:true}" stroke="none" stroke-width="1" stroke-linecap="square" stroke-linejoin="miter" stroke-miterlimit="10" stroke-dasharray="" stroke-dashoffset="0" style="mix-blend-mode: normal"><path d="M290.71392,104.82696c0,-0.95215 0.41182,-1.72403 0.91982,-1.72403h19.74357c0.24395,0 0.47791,0.18164 0.65041,0.50495c0.1725,0.32331 0.26942,0.76183 0.26942,1.21908v24.44429c0,0.95215 -0.41182,1.72402 -0.91983,1.72402h-19.74357c-0.508,0 -0.91982,-0.77187 -0.91982,-1.72402z" fill-opacity="0.69355" fill="#2d2d2d" fill-rule="evenodd"/><path d="M301.35557,125.73693c-1.1862,0 -2.26546,-0.22363 -3.23776,-0.67089c-0.9723,-0.4667 -1.75014,-1.08898 -2.33352,-1.86682c-0.58338,-0.79729 -0.87507,-1.68208 -0.87507,-2.65438c0,-0.64172 0.07778,-1.2251 0.23335,-1.75014c0.17501,-0.52504 0.42781,-0.99175 0.75839,-1.40011c0.35003,-0.40837 0.76812,-0.75839 1.25427,-1.05008c0.48615,-0.29169 1.05008,-0.52504 1.6918,-0.70006l-0.29169,0.99175c-0.4667,-0.17501 -0.89451,-0.38892 -1.28344,-0.64172c-0.36947,-0.27225 -0.69033,-0.57365 -0.96258,-0.90424c-0.27225,-0.35003 -0.47643,-0.7195 -0.61255,-1.10842c-0.13612,-0.40837 -0.20418,-0.83618 -0.20418,-1.28344c0,-0.91397 0.2528,-1.7307 0.75839,-2.4502c0.52504,-0.7195 1.23482,-1.27371 2.12934,-1.66263c0.89451,-0.40837 1.88626,-0.61255 2.97524,-0.61255c1.06953,0 2.05156,0.20418 2.94607,0.61255c0.89451,0.38892 1.6043,0.94313 2.12934,1.66263c0.52504,0.7195 0.78756,1.53623 0.78756,2.4502c0,0.44726 -0.06806,0.87507 -0.20418,1.28344c-0.11668,0.38892 -0.31113,0.74867 -0.58338,1.07925c-0.27225,0.31113 -0.60282,0.60282 -0.99175,0.87507c-0.36947,0.27225 -0.79729,0.5056 -1.28344,0.70006l-0.23335,-0.87507c0.56394,0.13612 1.07925,0.3403 1.54596,0.61255c0.48615,0.27225 0.90424,0.61255 1.25427,1.02092c0.35003,0.40837 0.62228,0.87507 0.81673,1.40011c0.19446,0.52504 0.29169,1.10842 0.29169,1.75014c0,0.99175 -0.29169,1.87654 -0.87507,2.65438c-0.58338,0.77784 -1.37094,1.40011 -2.36269,1.86682c-0.9723,0.44726 -2.05156,0.67089 -3.23776,0.67089zM301.35557,122.38249c0.4667,0 0.87507,-0.08751 1.2251,-0.26252c0.36947,-0.19446 0.66116,-0.44726 0.87507,-0.75839c0.23335,-0.31113 0.35003,-0.67089 0.35003,-1.07925c0,-0.42781 -0.10695,-0.80701 -0.32086,-1.13759c-0.21391,-0.33059 -0.5056,-0.58338 -0.87507,-0.75839c-0.36947,-0.19446 -0.78756,-0.29169 -1.25427,-0.29169c-0.4667,0 -0.8848,0.09723 -1.25427,0.29169c-0.35003,0.17501 -0.64172,0.42781 -0.87507,0.75839c-0.21391,0.33059 -0.32086,0.70978 -0.32086,1.13759c0,0.38892 0.10695,0.74867 0.32086,1.07925c0.23335,0.31113 0.52504,0.56394 0.87507,0.75839c0.36947,0.17501 0.78756,0.26252 1.25427,0.26252zM301.35557,114.74021c0.40837,0 0.76812,-0.07778 1.07925,-0.23335c0.33059,-0.17501 0.58338,-0.39864 0.75839,-0.67089c0.19446,-0.27225 0.29169,-0.59311 0.29169,-0.96258c0,-0.35003 -0.09723,-0.66116 -0.29169,-0.93341c-0.17501,-0.29169 -0.42781,-0.51532 -0.75839,-0.67089c-0.31113,-0.17501 -0.67089,-0.26252 -1.07925,-0.26252c-0.40837,0 -0.77784,0.08751 -1.10842,0.26252c-0.33059,0.15557 -0.58338,0.3792 -0.75839,0.67089c-0.17501,0.27225 -0.26252,0.58338 -0.26252,0.93341c0,0.36947 0.08751,0.69033 0.26252,0.96258c0.17501,0.27225 0.42781,0.49587 0.75839,0.67089c0.33059,0.15557 0.70006,0.23335 1.10842,0.23335z" fill="#ffffff" fill-rule="nonzero"/></g></g></svg>