<svg version="1.1" xmlns="http://www.w3.org/2000/svg" xmlns:xlink="http://www.w3.org/1999/xlink" width="331.70571" height="723.28836" viewBox="0,0,331.70571,723.28836"><defs><linearGradient x1="97.42042" y1="180" x2="429.12613" y2="180" gradientUnits="userSpaceOnUse" id="color-1"><stop offset="0" stop-color="#000000"/><stop offset="1" stop-color="#000000" stop-opacity="0"/></linearGradient></defs><g transform="translate(-97.42042,181.64418)"><g data-paper-data="{&quot;isPaintingLayer&quot;:true}" fill-rule="nonzero" stroke-width="6" stroke-linecap="butt" stroke-linejoin="miter" stroke-miterlimit="10" stroke-dasharray="" stroke-dashoffset="0" style="mix-blend-mode: normal"><path d="M97.42042,541.64418v-723.28836h331.70571v723.28836z" fill="url(#color-1)" stroke="none"/><path d="M313.19328,237.48767c-4.54839,15.82643 -19.13316,27.40562 -36.42237,27.40562c-20.92725,0 -37.89213,-16.96489 -37.89213,-37.89213c0,-16.39836 10.41663,-30.36378 24.99398,-35.64033" fill="none" stroke="#00c1ff"/><path d="M255.38084,218.04729c3.53652,-7.46633 11.14078,-12.63029 19.95114,-12.63029c12.18549,0 22.06378,9.87829 22.06378,22.06378c0,12.18549 -9.87829,22.06378 -22.06378,22.06378c-6.96127,0 -13.16953,-3.22384 -17.21333,-8.25993" fill="none" stroke="#0059af"/><path d="M267.73825,227.96045c0,-4.50333 3.65068,-8.15401 8.15401,-8.15401c4.50333,0 8.15401,3.65068 8.15401,8.15401c0,4.50333 -3.65068,8.15401 -8.15401,8.15401c-4.50333,0 -8.15401,-3.65068 -8.15401,-8.15401z" fill="none" stroke="#000000"/></g></g></svg>