<svg version="1.1" xmlns="http://www.w3.org/2000/svg" xmlns:xlink="http://www.w3.org/1999/xlink" width="105.29863" height="91.90642" viewBox="0,0,105.29863,91.90642"><g transform="translate(-203.20797,-128.46646)"><g data-paper-data="{&quot;isPaintingLayer&quot;:true}" fill="#ffffff" fill-rule="nonzero" stroke="none" stroke-width="1" stroke-linejoin="miter" stroke-miterlimit="10" stroke-dasharray="" stroke-dashoffset="0" style="mix-blend-mode: normal"><text transform="translate(268.47704,199.85805) scale(1.64119,1.64119)" font-size="40" xml:space="preserve" fill="#ffffff" fill-rule="nonzero" stroke="none" stroke-width="1" stroke-linecap="butt" stroke-linejoin="miter" stroke-miterlimit="10" stroke-dasharray="" stroke-dashoffset="0" font-family="Sans Serif" font-weight="normal" text-anchor="start" style="mix-blend-mode: normal"><tspan x="0" dy="0">+</tspan></text><path d="M247.57707,203.07643c-3.76139,0 -6.96623,-0.97872 -9.61455,-2.93618c-2.60994,-1.99583 -4.62496,-4.83606 -6.04507,-8.52068c-1.38173,-3.68462 -2.0726,-8.11766 -2.0726,-13.29916c0,-5.18149 0.69087,-9.61454 2.0726,-13.29916c1.42011,-3.68462 3.43513,-6.50565 6.04507,-8.46311c2.64831,-1.99586 5.85317,-2.99381 9.61455,-2.99381c3.72299,0 6.90866,0.99795 9.55697,2.99381c2.6867,1.95746 4.7209,4.77849 6.10264,8.46311c1.38173,3.68462 2.0726,8.11766 2.0726,13.29916c0,5.18149 -0.69087,9.61455 -2.0726,13.29916c-1.38173,3.68462 -3.41595,6.52485 -6.10264,8.52068c-2.64831,1.95746 -5.83399,2.93618 -9.55697,2.93618zM247.57707,198.06765c3.95328,0 6.98543,-1.70796 9.09639,-5.12392c2.14936,-3.45433 3.22403,-8.32876 3.22403,-14.62332c0,-6.25616 -1.07467,-11.11142 -3.22403,-14.56575c-2.11097,-3.45433 -5.14312,-5.18149 -9.09639,-5.18149c-3.99168,0 -7.06217,1.72716 -9.21154,5.18149c-2.11097,3.45433 -3.16647,8.30959 -3.16647,14.56575c0,6.29456 1.0555,11.16898 3.16647,14.62332c2.14936,3.41594 5.21986,5.12392 9.21154,5.12392z" stroke-linecap="square"/><path d="M211.83338,199.34368v-42.01976l2.0398,1.51528l-9.03338,5.4783l-1.63183,-4.8955l12.06393,-7.11013h2.0398v47.03182zM204.66496,201.73315v-5.30346h19.98998v5.30346z" stroke-linecap="square"/></g></g></svg>