<svg version="1.1" xmlns="http://www.w3.org/2000/svg" xmlns:xlink="http://www.w3.org/1999/xlink" width="235.50205" height="231.90436" viewBox="0,0,235.50205,231.90436"><g transform="translate(-36.24901,-99.98262)"><g data-paper-data="{&quot;isPaintingLayer&quot;:true}" stroke="none" stroke-linejoin="miter" stroke-miterlimit="10" stroke-dasharray="" stroke-dashoffset="0" style="mix-blend-mode: normal"><path d="M240.00636,192.62757h-13.06703c-7.21672,0 -13.06704,-5.65356 -13.06704,-12.62756c0,-6.97401 5.85031,-12.62757 13.06704,-12.62757v0h13.06703z" fill-opacity="0.88773" fill="#363636" fill-rule="evenodd" stroke-width="1" stroke-linecap="square"/><path d="M239.99371,167.37246h13.06703v0c7.21674,0 13.06703,5.65356 13.06703,12.62757c0,6.97399 -5.8503,12.62756 -13.06703,12.62756h-13.06703z" fill-opacity="0.88773" fill="#363636" fill-rule="evenodd" stroke-width="1" stroke-linecap="square"/><path d="M215.98753,179.56252c0,-4.52183 3.66567,-8.1875 8.1875,-8.1875c4.52183,0 8.1875,3.66567 8.1875,8.1875c0,4.52183 -3.66567,8.1875 -8.1875,8.1875c-4.52183,0 -8.1875,-3.66567 -8.1875,-8.1875z" fill="#ffffff" fill-rule="nonzero" stroke-width="0" stroke-linecap="butt"/><path d="M36.24901,124.12851v0c0,-13.33539 10.81049,-24.14588 24.14588,-24.14588h187.21029c6.40388,0 12.54548,2.54394 17.07369,7.07217c4.52823,4.52823 7.07219,10.66983 7.07219,17.07371v183.6126c0,13.33541 -10.81051,24.14588 -24.14588,24.14588h-187.21029c-13.33539,0 -24.14588,-10.81049 -24.14588,-24.14588z" fill-opacity="0.94733" fill="#202020" fill-rule="evenodd" stroke-width="1" stroke-linecap="square"/><text transform="translate(51.68323,157.48272) scale(0.1963,0.1963)" font-size="40" xml:space="preserve" fill="#ffffff" fill-rule="nonzero" stroke="none" stroke-width="1" stroke-linecap="butt" stroke-linejoin="miter" stroke-miterlimit="10" stroke-dasharray="" stroke-dashoffset="0" font-family="Sans Serif" font-weight="normal" text-anchor="start" style="mix-blend-mode: normal"><tspan x="0" dy="0">Developer mode enables features that are</tspan><tspan x="0" dy="46.150000000000006px">highly experiemental and could mess up </tspan><tspan x="0" dy="46.150000000000006px">your installation. Enabling these is not</tspan><tspan x="0" dy="46.150000000000006px">recomended. Enabling this will:</tspan><tspan x="0" dy="46.150000000000006px"> </tspan><tspan x="0" dy="46.150000000000006px">1. Install DevTools</tspan><tspan x="0" dy="46.150000000000006px">2. Install DevTools Command Line Utils</tspan><tspan x="0" dy="46.150000000000006px">3. Enable ugly debuging on some parts of PolyOS</tspan><tspan x="0" dy="46.150000000000006px">4. Set a custom version of PIXAPoLY BIOS that</tspan><tspan x="0" dy="46.150000000000006px">enables preinstalled installation.</tspan><tspan x="0" dy="46.150000000000006px">5. Enable untested features or other apps.</tspan><tspan x="0" dy="46.150000000000006px"> </tspan><tspan x="0" dy="46.150000000000006px">For more info: visit the official PolyOS site (Ask @PolyOS)</tspan></text><text transform="translate(64.50005,133.24224) scale(0.35231,0.35231)" font-size="40" xml:space="preserve" fill="#ffffff" fill-rule="nonzero" stroke="none" stroke-width="1" stroke-linecap="butt" stroke-linejoin="miter" stroke-miterlimit="10" stroke-dasharray="" stroke-dashoffset="0" font-family="Sans Serif" font-weight="normal" text-anchor="start" style="mix-blend-mode: normal"><tspan x="0" dy="0">Enable Developer Mode?</tspan></text><path d="M110.99263,286.68498h15.33066v0c8.46691,0 15.33066,6.63294 15.33066,14.81507c0,8.18211 -6.86376,14.81506 -15.33066,14.81506h-15.33066z" fill-opacity="0.6715" fill="#6c6c6c" fill-rule="evenodd" stroke-width="1" stroke-linecap="square"/><path d="M111.00746,316.31507h-15.33066c-8.46689,0 -15.33067,-6.63294 -15.33067,-14.81506c0,-8.18213 6.86377,-14.81507 15.33067,-14.81507v0h15.33066z" fill-opacity="0.6715" fill="#6c6c6c" fill-rule="evenodd" stroke-width="1" stroke-linecap="square"/><text transform="translate(91.16414,304.52171) scale(0.27264,0.27264)" font-size="40" xml:space="preserve" fill="#ffffff" fill-rule="nonzero" stroke="none" stroke-width="1" stroke-linecap="butt" stroke-linejoin="miter" stroke-miterlimit="10" stroke-dasharray="" stroke-dashoffset="0" font-family="Sans Serif" font-weight="normal" text-anchor="start" style="mix-blend-mode: normal"><tspan x="0" dy="0">Go back</tspan></text><path d="M192.49263,288.68498h15.33066v0c8.46691,0 15.33066,6.63294 15.33066,14.81507c0,8.18211 -6.86376,14.81506 -15.33066,14.81506h-15.33066z" fill-opacity="0.6715" fill="#6c6c6c" fill-rule="evenodd" stroke-width="1" stroke-linecap="square"/><path d="M192.50748,318.31507h-15.33066c-8.46689,0 -15.33067,-6.63294 -15.33067,-14.81506c0,-8.18213 6.86377,-14.81507 15.33067,-14.81507v0h15.33066z" fill-opacity="0.6715" fill="#6c6c6c" fill-rule="evenodd" stroke-width="1" stroke-linecap="square"/><text transform="translate(170.39163,301.83421) scale(0.1841,0.1841)" font-size="40" xml:space="preserve" fill="#ffffff" fill-rule="nonzero" stroke="none" stroke-width="1" stroke-linecap="butt" stroke-linejoin="miter" stroke-miterlimit="10" stroke-dasharray="" stroke-dashoffset="0" font-family="Sans Serif" font-weight="normal" text-anchor="start" style="mix-blend-mode: normal"><tspan x="0" dy="0">I understand</tspan><tspan x="0" dy="48px">(Hold enter)</tspan></text></g></g></svg>