<svg version="1.1" xmlns="http://www.w3.org/2000/svg" xmlns:xlink="http://www.w3.org/1999/xlink" width="21.58322" height="27.89234" viewBox="0,0,21.58322,27.89234"><g transform="translate(-337.04057,-134.0548)"><g data-paper-data="{&quot;isPaintingLayer&quot;:true}" stroke="none" stroke-width="1" stroke-linecap="square" stroke-linejoin="miter" stroke-miterlimit="10" stroke-dasharray="" stroke-dashoffset="0" style="mix-blend-mode: normal"><path d="M337.04057,135.77883c0,-0.95215 0.41182,-1.72403 0.91982,-1.72403h19.74357c0.24395,0 0.47791,0.18164 0.65041,0.50495c0.1725,0.32331 0.26942,0.76183 0.26942,1.21908v24.44429c0,0.95215 -0.41182,1.72402 -0.91983,1.72402h-19.74357c-0.508,0 -0.91982,-0.77187 -0.91982,-1.72402z" fill-opacity="0.69355" fill="#2d2d2d" fill-rule="evenodd"/><path d="M342.14205,155.19994v-15.22472h6.57953c0.95208,0 1.80214,0.22102 2.5502,0.66305c0.74806,0.42503 1.34311,1.02008 1.78514,1.78514c0.44204,0.74806 0.66305,1.58963 0.66305,2.5247c0,0.98608 -0.22102,1.87015 -0.66305,2.65221c-0.44204,0.78206 -1.03708,1.39411 -1.78514,1.83615c-0.74806,0.44204 -1.59813,0.66305 -2.5502,0.66305h-2.88173v5.10041zM345.78884,146.86077h2.39719c0.32302,0 0.61205,-0.07651 0.86707,-0.22952c0.27202,-0.15301 0.48454,-0.36553 0.63755,-0.63755c0.15301,-0.28903 0.22952,-0.61205 0.22952,-0.96908c0,-0.37403 -0.07651,-0.68856 -0.22952,-0.94358c-0.15301,-0.27202 -0.36553,-0.47604 -0.63755,-0.61205c-0.25502,-0.15301 -0.54405,-0.22952 -0.86707,-0.22952h-2.39719z" fill="#ffffff" fill-rule="nonzero"/></g></g></svg>