<svg version="1.1" xmlns="http://www.w3.org/2000/svg" xmlns:xlink="http://www.w3.org/1999/xlink" width="134.27112" height="20.45687" viewBox="0,0,134.27112,20.45687"><g transform="translate(-209.76298,-170.07284)"><g data-paper-data="{&quot;isPaintingLayer&quot;:true}" stroke="none" stroke-linejoin="miter" stroke-miterlimit="10" stroke-dasharray="" stroke-dashoffset="0" style="mix-blend-mode: normal"><path d="M209.76299,180.28296c0,-5.6389 4.3816,-10.21011 9.78658,-10.21011h114.69794c2.59556,0 5.08483,1.07571 6.92016,2.99047c1.83535,1.91477 2.86644,4.51176 2.86644,7.21964c0,5.6389 -4.38161,10.21011 -9.7866,10.21011h-114.69794c-5.40498,0 -9.78658,-4.57122 -9.78658,-10.21011z" fill-opacity="0.66709" fill="#6b6b6b" fill-rule="evenodd" stroke-width="1" stroke-linecap="square"/><path d="M209.8834,180.45331c0,-5.56505 4.41143,-10.0764 9.85322,-10.0764c5.44179,0 9.85322,4.51135 9.85322,10.0764c0,5.56505 -4.41143,10.07641 -9.85322,10.07641c-5.44179,0 -9.85322,-4.51136 -9.85322,-10.07641z" fill="#00aaff" fill-rule="nonzero" stroke-width="0" stroke-linecap="butt"/><path d="M221.67087,190.19898v-19.49134h16.51556v19.49134z" fill="#00aaff" fill-rule="nonzero" stroke-width="0" stroke-linecap="butt"/></g></g></svg>