<svg version="1.1" xmlns="http://www.w3.org/2000/svg" xmlns:xlink="http://www.w3.org/1999/xlink" width="21.58322" height="27.89234" viewBox="0,0,21.58322,27.89234"><g transform="translate(-122.40049,-134.6617)"><g data-paper-data="{&quot;isPaintingLayer&quot;:true}" stroke="none" stroke-width="1" stroke-linecap="square" stroke-linejoin="miter" stroke-miterlimit="10" stroke-dasharray="" stroke-dashoffset="0" style="mix-blend-mode: normal"><path d="M122.40049,136.38573c0,-0.95215 0.41182,-1.72403 0.91982,-1.72403h19.74357c0.24395,0 0.47791,0.18164 0.65041,0.50495c0.1725,0.32331 0.26942,0.76183 0.26942,1.21908v24.44429c0,0.95215 -0.41182,1.72402 -0.91983,1.72402h-19.74357c-0.508,0 -0.91982,-0.77187 -0.91982,-1.72402z" fill-opacity="0.69355" fill="#2d2d2d" fill-rule="evenodd"/><path d="M137.12923,159.11003l-6.11653,-8.28002l2.85794,-1.97652l6.0364,8.19989zM132.34818,156.8397c-1.19303,0 -2.29704,-0.20477 -3.31201,-0.61432c-0.99717,-0.42736 -1.86968,-1.00606 -2.61755,-1.73613c-0.73007,-0.74787 -1.29987,-1.62039 -1.70942,-2.61755c-0.40955,-1.01497 -0.61432,-2.11897 -0.61432,-3.31201c0,-1.19303 0.20477,-2.28813 0.61432,-3.2853c0.40955,-1.01497 0.97935,-1.89639 1.70942,-2.64426c0.74787,-0.74787 1.62039,-1.32658 2.61755,-1.73613c1.01497,-0.40955 2.11897,-0.61432 3.31201,-0.61432c1.21084,0 2.31484,0.20477 3.31201,0.61432c0.99717,0.40955 1.86968,0.98826 2.61755,1.73613c0.74787,0.74787 1.31768,1.62929 1.70942,2.64426c0.40955,0.99717 0.61432,2.09226 0.61432,3.2853c0,1.17523 -0.20477,2.27033 -0.61432,3.2853c-0.39174,1.01497 -0.96155,1.89639 -1.70942,2.64426c-0.74787,0.73007 -1.62039,1.30878 -2.61755,1.73613c-0.99717,0.40955 -2.10116,0.61432 -3.31201,0.61432zM132.34818,153.18047c0.62323,0 1.19303,-0.11575 1.70942,-0.34723c0.53419,-0.23148 0.99717,-0.552 1.38891,-0.96155c0.39174,-0.40955 0.69445,-0.89922 0.90813,-1.46904c0.21368,-0.56981 0.32052,-1.18413 0.32052,-1.84297c0,-0.67665 -0.10684,-1.29097 -0.32052,-1.84297c-0.21368,-0.56981 -0.51639,-1.05948 -0.90813,-1.46904c-0.39174,-0.42736 -0.85471,-0.74787 -1.38891,-0.96155c-0.51639,-0.23148 -1.08619,-0.34723 -1.70942,-0.34723c-0.62323,0 -1.20194,0.11575 -1.73613,0.34723c-0.51639,0.21368 -0.97046,0.53419 -1.3622,0.96155c-0.39174,0.40955 -0.69445,0.89922 -0.90813,1.46904c-0.19587,0.552 -0.29381,1.16632 -0.29381,1.84297c0,0.65884 0.09793,1.27316 0.29381,1.84297c0.21368,0.56981 0.51639,1.05948 0.90813,1.46904c0.39174,0.40955 0.84581,0.73007 1.3622,0.96155c0.53419,0.23148 1.1129,0.34723 1.73613,0.34723z" fill="#ffffff" fill-rule="nonzero"/></g></g></svg>