<svg version="1.1" xmlns="http://www.w3.org/2000/svg" xmlns:xlink="http://www.w3.org/1999/xlink" width="44.43897" height="62.04148" viewBox="0,0,44.43897,62.04148"><g transform="translate(-217.78052,-148.97926)"><g data-paper-data="{&quot;isPaintingLayer&quot;:true}" fill="#ffffff" fill-rule="nonzero" stroke="none" stroke-width="1" stroke-linecap="square" stroke-linejoin="miter" stroke-miterlimit="10" stroke-dasharray="" stroke-dashoffset="0" style="mix-blend-mode: normal"><path d="M240,211.02074c-4.71323,0 -8.72909,-1.2264 -12.04758,-3.6792c-3.27041,-2.50089 -5.79535,-6.05986 -7.57483,-10.67689c-1.73138,-4.61704 -2.59708,-10.17191 -2.59708,-16.66461c0,-6.49271 0.8657,-12.04758 2.59708,-16.66461c1.77948,-4.61704 4.30442,-8.15195 7.57483,-10.60476c3.31849,-2.50093 7.33435,-3.75141 12.04758,-3.75141c4.66512,0 8.65694,1.25048 11.97544,3.75141c3.36658,2.4528 5.91557,5.98772 7.64696,10.60476c1.73138,4.61704 2.59708,10.17191 2.59708,16.66461c0,6.49271 -0.8657,12.04758 -2.59708,16.66461c-1.73138,4.61704 -4.28038,8.17601 -7.64696,10.67689c-3.31849,2.4528 -7.31031,3.6792 -11.97544,3.6792zM240,204.74446c4.95368,0 8.75314,-2.14018 11.3983,-6.42057c2.69327,-4.32847 4.0399,-10.43641 4.0399,-18.32386c0,-7.83933 -1.34663,-13.92325 -4.0399,-18.25172c-2.64517,-4.32847 -6.44462,-6.49271 -11.3983,-6.49271c-5.00179,0 -8.84931,2.16423 -11.54259,6.49271c-2.64517,4.32847 -3.96776,10.41239 -3.96776,18.25172c0,7.88744 1.3226,13.99538 3.96776,18.32386c2.69327,4.28038 6.54079,6.42057 11.54259,6.42057z"/></g></g></svg>