<svg version="1.1" xmlns="http://www.w3.org/2000/svg" xmlns:xlink="http://www.w3.org/1999/xlink" width="92.45877" height="103.37902" viewBox="0,0,92.45877,103.37902"><g transform="translate(-193.77061,-128.31049)"><g data-paper-data="{&quot;isPaintingLayer&quot;:true}" fill-rule="nonzero" stroke="none" stroke-width="0" stroke-linecap="butt" stroke-linejoin="miter" stroke-miterlimit="10" stroke-dasharray="" stroke-dashoffset="0" style="mix-blend-mode: normal"><path d="M194.35157,208.37946l-0.58096,-62.47031l46.96381,19.01609v66.76427z" fill="#ffffff"/><path d="M241.00844,230.03981l-0.58096,-64.92399l44.63999,-17.78925l1.16191,62.47031z" fill="#a9a9a9"/><path d="M194.53205,146.61441l43.57161,-18.30392l46.38285,19.01609l-43.5716,17.6905z" fill="#ffffff"/><path d="M200.69375,173.67543c0.08525,-3.44509 2.79933,-6.16493 6.06208,-6.07492c3.26275,0.09001 5.83863,2.95577 5.75338,6.40087c-0.08525,3.44509 -2.79933,6.16493 -6.06208,6.07492c-3.26275,-0.09001 -5.83863,-2.95577 -5.75338,-6.40087z" fill="#000000"/><path d="M199.9777,202.61465c0.08525,-3.44509 2.79933,-6.16493 6.06208,-6.07492c3.26275,0.09001 5.83863,2.95577 5.75338,6.40087c-0.08525,3.44509 -2.79933,6.16493 -6.06208,6.07492c-3.26275,-0.09001 -5.83863,-2.95577 -5.75338,-6.40087z" fill="#000000"/><path d="M200.33574,188.14505c0.08525,-3.44509 2.79933,-6.16493 6.06208,-6.07492c3.26275,0.09001 5.83863,2.95577 5.75338,6.40087c-0.08525,3.44509 -2.79933,6.16493 -6.06208,6.07492c-3.26275,-0.09001 -5.83863,-2.95577 -5.75338,-6.40087z" fill="#000000"/><path d="M220.65569,183.59865c0.08525,-3.44509 2.79933,-6.16493 6.06208,-6.07492c3.26275,0.09001 5.83863,2.95577 5.75338,6.40087c-0.08525,3.44509 -2.79933,6.16493 -6.06208,6.07492c-3.26275,-0.09001 -5.83863,-2.95577 -5.75338,-6.40087z" fill="#000000"/><path d="M219.93965,212.53787c0.08525,-3.44509 2.79933,-6.16493 6.06208,-6.07492c3.26275,0.09001 5.83863,2.95577 5.75338,6.40087c-0.08525,3.44509 -2.79933,6.16493 -6.06208,6.07492c-3.26275,-0.09001 -5.83863,-2.95577 -5.75338,-6.40087z" fill="#000000"/><path d="M220.29767,198.06826c0.08525,-3.44509 2.79933,-6.16493 6.06208,-6.07492c3.26275,0.09001 5.83863,2.95577 5.75338,6.40087c-0.08525,3.44509 -2.79933,6.16493 -6.06208,6.07492c-3.26275,-0.09001 -5.83863,-2.95577 -5.75338,-6.40087z" fill="#000000"/><path d="M230.26219,147.08661c0,-4.10143 3.14888,-7.42629 7.03323,-7.42629c3.88435,0 7.03323,3.32486 7.03323,7.42629c0,4.10143 -3.14888,7.42629 -7.03323,7.42629c-3.88435,0 -7.03323,-3.32486 -7.03323,-7.42629z" fill="#000000"/><path d="M245.5475,174.88118c0,-4.10143 3.14888,-7.42629 7.03323,-7.42629c3.88435,0 7.03323,3.32486 7.03323,7.42629c0,4.10143 -3.14888,7.42629 -7.03323,7.42629c-3.88435,0 -7.03323,-3.32485 -7.03323,-7.42629z" fill="#000000"/><path d="M268.96618,200.22207c0,-4.10143 3.14888,-7.42629 7.03323,-7.42629c3.88435,0 7.03323,3.32486 7.03323,7.42629c0,4.10143 -3.14888,7.42629 -7.03323,7.42629c-3.88435,0 -7.03323,-3.32485 -7.03323,-7.42629z" fill="#000000"/></g></g></svg>