<svg version="1.1" xmlns="http://www.w3.org/2000/svg" xmlns:xlink="http://www.w3.org/1999/xlink" width="344.85386" height="217.03322" viewBox="0,0,344.85386,217.03322"><g transform="translate(-68.57306,20.71391)"><g data-paper-data="{&quot;isPaintingLayer&quot;:true}" stroke="none" stroke-width="1" stroke-linecap="square" stroke-linejoin="miter" stroke-miterlimit="10" stroke-dasharray="" stroke-dashoffset="0" style="mix-blend-mode: normal"><path d="M68.57307,42.45441c0,-16.99586 13.77786,-30.77372 30.77372,-30.77372h283.30642c8.1617,0 15.98916,3.24223 21.76035,9.01342c5.77119,5.77119 9.01336,13.5986 9.01336,21.76029v123.09119c0,16.99586 -13.77783,30.77372 -30.77372,30.77372h-283.30642c-16.99586,0 -30.77372,-13.77786 -30.77372,-30.77372z" fill-opacity="0.75189" fill="#202020" fill-rule="evenodd"/><path d="M68.8084,-20.71391h140.94489v64.62993h-140.94489z" fill-opacity="0" fill="#000000" fill-rule="evenodd"/><path d="M92.66777,39.39359c-0.70834,0 -1.36459,-0.09375 -1.96875,-0.28125c-0.60417,-0.1875 -1.15104,-0.46875 -1.64062,-0.84375c-0.48959,-0.38541 -0.92709,-0.85416 -1.3125,-1.40625l1.375,-1.59375c0.61458,0.875 1.19791,1.47916 1.75,1.8125c0.5625,0.33334 1.22916,0.5 2,0.5c0.46875,0 0.89583,-0.07291 1.28125,-0.21875c0.38541,-0.15625 0.6875,-0.36459 0.90625,-0.625c0.22916,-0.26041 0.34375,-0.55729 0.34375,-0.89062c0,-0.21875 -0.03646,-0.42709 -0.10937,-0.625c-0.07292,-0.20834 -0.1875,-0.39062 -0.34375,-0.54687c-0.15625,-0.16666 -0.35417,-0.31771 -0.59375,-0.45312c-0.23959,-0.13541 -0.52084,-0.25521 -0.84375,-0.35937c-0.32292,-0.10416 -0.69792,-0.19271 -1.125,-0.26562c-0.66667,-0.14584 -1.25,-0.32812 -1.75,-0.54687c-0.5,-0.22916 -0.91667,-0.51041 -1.25,-0.84375c-0.33334,-0.33334 -0.58334,-0.71354 -0.75,-1.14062c-0.16667,-0.42709 -0.25,-0.91146 -0.25,-1.45312c0,-0.52084 0.11458,-1.00521 0.34375,-1.45312c0.23958,-0.44791 0.55729,-0.83334 0.95313,-1.15625c0.40625,-0.33334 0.88021,-0.58854 1.42188,-0.76562c0.55208,-0.1875 1.14583,-0.28125 1.78125,-0.28125c0.67708,0 1.29166,0.08854 1.84375,0.26563c0.5625,0.17709 1.0625,0.4375 1.5,0.78125c0.4375,0.33334 0.79688,0.75 1.07813,1.25l-1.42187,1.40625c-0.23959,-0.41666 -0.51562,-0.76041 -0.82812,-1.03125c-0.3125,-0.28125 -0.65625,-0.49479 -1.03125,-0.64062c-0.375,-0.14584 -0.77084,-0.21875 -1.1875,-0.21875c-0.48959,0 -0.91667,0.07813 -1.28125,0.23438c-0.35417,0.14584 -0.63542,0.35416 -0.84375,0.625c-0.20834,0.26041 -0.3125,0.57291 -0.3125,0.9375c0,0.26041 0.05208,0.5 0.15625,0.71875c0.10416,0.21875 0.25521,0.41146 0.45313,0.57813c0.20833,0.16666 0.48438,0.31771 0.82813,0.45313c0.35416,0.125 0.77083,0.23438 1.25,0.32813c0.6875,0.15625 1.29688,0.34896 1.82813,0.57813c0.54166,0.22916 0.99479,0.5 1.35938,0.8125c0.375,0.3125 0.65625,0.66146 0.84375,1.04688c0.19791,0.38541 0.29688,0.80209 0.29688,1.25c0,0.83334 -0.19271,1.55729 -0.57812,2.17188c-0.38542,0.60416 -0.93229,1.07291 -1.64062,1.40625c-0.70834,0.32291 -1.55209,0.48438 -2.53125,0.48438zM103.55928,39.39359c-0.80209,0 -1.53646,-0.22396 -2.20312,-0.67187c-0.66666,-0.44791 -1.20312,-1.05729 -1.60937,-1.82812c-0.39584,-0.77084 -0.59375,-1.64062 -0.59375,-2.60937c0,-0.98959 0.20313,-1.86459 0.60938,-2.625c0.40625,-0.76041 0.95313,-1.35937 1.64063,-1.79687c0.69791,-0.4375 1.47396,-0.65625 2.32813,-0.65625c0.51041,0 0.97396,0.07813 1.39063,0.23438c0.42709,0.14584 0.79688,0.35416 1.10938,0.625c0.32291,0.26041 0.58334,0.56771 0.78125,0.92188c0.20834,0.34375 0.33854,0.71354 0.39063,1.10938l-0.42187,-0.14062v-2.54687h1.9375v9.79688h-1.9375v-2.32812l0.4375,-0.14062c-0.07291,0.34375 -0.22396,0.67709 -0.45312,1c-0.22916,0.3125 -0.52084,0.59375 -0.875,0.84375c-0.35416,0.23959 -0.74479,0.4375 -1.17187,0.59375c-0.42709,0.14584 -0.88021,0.21875 -1.35937,0.21875zM104.05928,37.62797c0.59375,0 1.10938,-0.14062 1.54688,-0.42187c0.44791,-0.29166 0.79688,-0.6875 1.04688,-1.1875c0.26041,-0.51041 0.39063,-1.08854 0.39063,-1.73437c0,-0.63541 -0.13021,-1.20312 -0.39062,-1.70312c-0.25,-0.5 -0.59896,-0.89062 -1.04687,-1.17187c-0.4375,-0.29166 -0.95312,-0.4375 -1.54687,-0.4375c-0.57291,0 -1.07812,0.14584 -1.51562,0.4375c-0.4375,0.28125 -0.78646,0.67188 -1.04687,1.17188c-0.25,0.5 -0.375,1.06771 -0.375,1.70313c0,0.64584 0.125,1.22396 0.375,1.73438c0.26041,0.5 0.60938,0.89584 1.04688,1.1875c0.4375,0.28125 0.94271,0.42188 1.51563,0.42188zM114.58217,39.20609l-4.14062,-9.79687h2.07813l2.98438,7.32813l-0.35937,0.17188l3.1875,-7.5h1.98438l-4.34375,9.79688zM126.35156,39.39359c-1,0 -1.89062,-0.21354 -2.67187,-0.64062c-0.77084,-0.42709 -1.38021,-1.01562 -1.82812,-1.76562c-0.4375,-0.75 -0.65625,-1.60937 -0.65625,-2.57812c0,-0.77084 0.125,-1.47396 0.375,-2.10937c0.25,-0.63541 0.59375,-1.18229 1.03125,-1.64062c0.4375,-0.46875 0.96354,-0.82812 1.57813,-1.07812c0.625,-0.26041 1.29688,-0.39062 2.01563,-0.39062c0.63541,0 1.22396,0.11979 1.76563,0.35938c0.55209,0.23959 1.02604,0.57291 1.42188,1c0.40625,0.42709 0.71875,0.93229 0.9375,1.51563c0.21875,0.57291 0.32291,1.19791 0.3125,1.875l-0.01562,0.82813h-8l-0.4375,-1.53125h6.76563l-0.26562,0.3125v-0.4375c-0.04166,-0.41666 -0.18229,-0.78646 -0.42187,-1.10937c-0.22916,-0.32291 -0.52604,-0.57812 -0.89062,-0.76562c-0.36459,-0.1875 -0.75521,-0.28125 -1.17187,-0.28125c-0.67709,0 -1.24479,0.13021 -1.70312,0.39063c-0.45834,0.25 -0.80729,0.625 -1.04687,1.125c-0.22916,0.48959 -0.34375,1.09375 -0.34375,1.8125c0,0.67709 0.14063,1.27084 0.42188,1.78125c0.28125,0.5 0.68229,0.89063 1.20313,1.17188c0.53125,0.27084 1.13541,0.40625 1.8125,0.40625c0.48959,0 0.94271,-0.07812 1.35938,-0.23437c0.41666,-0.16666 0.86979,-0.46354 1.35938,-0.89062l0.96875,1.35938c-0.30209,0.30209 -0.66666,0.56771 -1.09375,0.79688c-0.42709,0.21875 -0.88021,0.39584 -1.35937,0.53125c-0.47916,0.125 -0.95312,0.1875 -1.42187,0.1875z" fill="#ffffff" fill-rule="nonzero"/><path d="M136.63652,39.60608v-13.0625h5.10937c0.9375,0 1.78125,0.15625 2.53125,0.46875c0.75,0.3125 1.39063,0.76041 1.92188,1.34375c0.54166,0.58334 0.95313,1.27604 1.23438,2.07813c0.29166,0.79166 0.4375,1.67188 0.4375,2.64063c0,0.96875 -0.14584,1.85416 -0.4375,2.65625c-0.28125,0.80209 -0.6875,1.49479 -1.21875,2.07813c-0.53125,0.57291 -1.17709,1.01563 -1.9375,1.32813c-0.75,0.3125 -1.59375,0.46875 -2.53125,0.46875zM138.65215,37.87171l-0.0625,-0.20312h3.0625c0.65625,0 1.24479,-0.10416 1.76563,-0.3125c0.52084,-0.21875 0.95834,-0.52084 1.3125,-0.90625c0.35416,-0.39584 0.61979,-0.88021 0.79688,-1.45312c0.1875,-0.57291 0.28125,-1.21354 0.28125,-1.92187c0,-0.70834 -0.09375,-1.34375 -0.28125,-1.90625c-0.17709,-0.57291 -0.44791,-1.05729 -0.8125,-1.45312c-0.36459,-0.39584 -0.80209,-0.69791 -1.3125,-0.90625c-0.51041,-0.21875 -1.09375,-0.32812 -1.75,-0.32812h-3.10937l0.10938,-0.15625zM154.66953,39.79358c-1,0 -1.89062,-0.21354 -2.67187,-0.64062c-0.77084,-0.42709 -1.38021,-1.01562 -1.82812,-1.76562c-0.4375,-0.75 -0.65625,-1.60937 -0.65625,-2.57812c0,-0.77084 0.125,-1.47396 0.375,-2.10937c0.25,-0.63541 0.59375,-1.18229 1.03125,-1.64062c0.4375,-0.46875 0.96354,-0.82812 1.57813,-1.07812c0.625,-0.26041 1.29688,-0.39062 2.01563,-0.39062c0.63541,0 1.22396,0.11979 1.76563,0.35938c0.55209,0.23959 1.02604,0.57291 1.42188,1c0.40625,0.42709 0.71875,0.93229 0.9375,1.51563c0.21875,0.57291 0.32291,1.19791 0.3125,1.875l-0.01562,0.82813h-8l-0.4375,-1.53125h6.76563l-0.26562,0.3125v-0.4375c-0.04166,-0.41666 -0.18229,-0.78646 -0.42187,-1.10937c-0.22916,-0.32291 -0.52604,-0.57812 -0.89062,-0.76562c-0.36459,-0.1875 -0.75521,-0.28125 -1.17187,-0.28125c-0.67709,0 -1.24479,0.13021 -1.70312,0.39063c-0.45834,0.25 -0.80729,0.625 -1.04687,1.125c-0.22916,0.48959 -0.34375,1.09375 -0.34375,1.8125c0,0.67709 0.14063,1.27084 0.42188,1.78125c0.28125,0.5 0.68229,0.89063 1.20313,1.17188c0.53125,0.27084 1.13541,0.40625 1.8125,0.40625c0.48959,0 0.94271,-0.07812 1.35938,-0.23437c0.41666,-0.16666 0.86979,-0.46354 1.35938,-0.89062l0.96875,1.35938c-0.30209,0.30209 -0.66666,0.56771 -1.09375,0.79688c-0.42709,0.21875 -0.88021,0.39584 -1.35937,0.53125c-0.47916,0.125 -0.95312,0.1875 -1.42187,0.1875zM164.30522,39.79358c-0.82291,0 -1.5625,-0.14062 -2.21875,-0.42187c-0.65625,-0.29166 -1.20312,-0.71875 -1.64062,-1.28125l1.29688,-1.10937c0.375,0.42709 0.78125,0.73959 1.21875,0.9375c0.44791,0.1875 0.95313,0.28125 1.51563,0.28125c0.21875,0 0.42188,-0.02604 0.60938,-0.07812c0.19791,-0.05209 0.36979,-0.13541 0.51563,-0.25c0.14584,-0.11459 0.25521,-0.25 0.32813,-0.40625c0.07291,-0.15625 0.10938,-0.32812 0.10938,-0.51562c0,-0.32291 -0.11979,-0.58334 -0.35937,-0.78125c-0.125,-0.08334 -0.32291,-0.17709 -0.59375,-0.28125c-0.26041,-0.10416 -0.60416,-0.21354 -1.03125,-0.32812c-0.71875,-0.1875 -1.30729,-0.39584 -1.76562,-0.625c-0.45834,-0.23959 -0.8125,-0.51041 -1.0625,-0.8125c-0.1875,-0.23959 -0.32812,-0.49479 -0.42187,-0.76562c-0.08334,-0.28125 -0.125,-0.59375 -0.125,-0.9375c0,-0.40625 0.08854,-0.78125 0.26563,-1.125c0.1875,-0.34375 0.4375,-0.64062 0.75,-0.89062c0.32291,-0.26041 0.69791,-0.45834 1.125,-0.59375c0.42709,-0.13541 0.88541,-0.20312 1.375,-0.20312c0.45834,0 0.91146,0.0625 1.35938,0.1875c0.45834,0.125 0.88021,0.30729 1.26563,0.54688c0.38541,0.22916 0.70834,0.50521 0.96875,0.82813l-1.09375,1.21875c-0.23959,-0.23959 -0.5,-0.44791 -0.78125,-0.625c-0.28125,-0.17709 -0.56771,-0.3125 -0.85937,-0.40625c-0.28125,-0.10416 -0.53646,-0.15625 -0.76562,-0.15625c-0.26041,0 -0.5,0.02604 -0.71875,0.07813c-0.20834,0.04166 -0.38541,0.11459 -0.53125,0.21875c-0.13541,0.09375 -0.24479,0.21875 -0.32812,0.375c-0.07291,0.14584 -0.10937,0.3125 -0.10937,0.5c0.01041,0.15625 0.05209,0.30729 0.125,0.45313c0.07291,0.14584 0.17188,0.26563 0.29688,0.35938c0.13541,0.10416 0.33854,0.21354 0.60938,0.32813c0.27084,0.10416 0.61979,0.20834 1.04688,0.3125c0.61459,0.15625 1.125,0.33334 1.53125,0.53125c0.40625,0.1875 0.72916,0.40625 0.96875,0.65625c0.25,0.23959 0.42188,0.51563 0.51563,0.82813c0.10416,0.3125 0.15625,0.66146 0.15625,1.04688c0,0.55209 -0.16146,1.05209 -0.48437,1.5c-0.3125,0.4375 -0.73959,0.78125 -1.28125,1.03125c-0.53125,0.25 -1.125,0.375 -1.78125,0.375zM171.72594,36.54358l-0.09375,-2.09375l4.6875,-4.64062h2.59375zM169.97594,39.60608v-13.8125h1.92188v13.8125zM176.58531,39.60608l-3.70312,-4.3125l1.35938,-1.25l4.79688,5.5625zM181.79144,39.60608v-12.29687h1.92188v12.29688zM179.74456,31.68421v-1.875h6.23438v1.875zM192.04961,39.79358c-0.95834,0 -1.81771,-0.21875 -2.57812,-0.65625c-0.75,-0.44791 -1.34375,-1.05209 -1.78125,-1.8125c-0.42709,-0.77084 -0.64062,-1.64584 -0.64062,-2.625c0,-0.97916 0.21354,-1.84896 0.64063,-2.60937c0.4375,-0.77084 1.03125,-1.375 1.78125,-1.8125c0.76041,-0.44791 1.61979,-0.67187 2.57813,-0.67187c0.9375,0 1.78125,0.22396 2.53125,0.67188c0.76041,0.4375 1.35938,1.04166 1.79688,1.8125c0.4375,0.76041 0.65625,1.63021 0.65625,2.60938c0,0.97916 -0.21875,1.85416 -0.65625,2.625c-0.4375,0.76041 -1.03646,1.36459 -1.79687,1.8125c-0.75,0.4375 -1.59375,0.65625 -2.53125,0.65625zM192.04961,38.04358c0.58334,0 1.10416,-0.14584 1.5625,-0.4375c0.45834,-0.29166 0.81771,-0.6875 1.07813,-1.1875c0.26041,-0.51041 0.38541,-1.08334 0.375,-1.71875c0.01041,-0.64584 -0.11459,-1.21875 -0.375,-1.71875c-0.26041,-0.51041 -0.61979,-0.90625 -1.07812,-1.1875c-0.45834,-0.29166 -0.97916,-0.4375 -1.5625,-0.4375c-0.58334,0 -1.10937,0.14584 -1.57812,0.4375c-0.46875,0.29166 -0.83334,0.69271 -1.09375,1.20313c-0.26041,0.5 -0.38541,1.06771 -0.375,1.70313c-0.01041,0.63541 0.11459,1.20834 0.375,1.71875c0.26041,0.5 0.625,0.89584 1.09375,1.1875c0.46875,0.29166 0.99479,0.4375 1.57813,0.4375zM199.11696,43.71546v-13.90625h1.9375v2.23438l-0.29687,-0.15625c0.07291,-0.375 0.28125,-0.73437 0.625,-1.07812c0.35416,-0.34375 0.78125,-0.625 1.28125,-0.84375c0.51041,-0.21875 1.03125,-0.32812 1.5625,-0.32812c0.88541,0 1.66666,0.21875 2.34375,0.65625c0.6875,0.4375 1.22916,1.03646 1.625,1.79688c0.40625,0.76041 0.60938,1.63021 0.60938,2.60938c0,0.96875 -0.19792,1.83854 -0.59375,2.60938c-0.39584,0.76041 -0.9375,1.36459 -1.625,1.8125c-0.67709,0.4375 -1.44271,0.65625 -2.29687,0.65625c-0.57292,0 -1.13021,-0.11459 -1.67187,-0.34375c-0.53125,-0.22916 -0.98437,-0.52604 -1.35937,-0.89062c-0.375,-0.36459 -0.60417,-0.73959 -0.6875,-1.125l0.48438,-0.25v6.54688zM203.96071,37.99671c0.57291,0 1.08333,-0.14062 1.53125,-0.42187c0.44791,-0.29166 0.80208,-0.68229 1.0625,-1.17187c0.26041,-0.5 0.39063,-1.06771 0.39063,-1.70312c0,-0.63541 -0.13021,-1.19791 -0.39062,-1.6875c-0.25,-0.48959 -0.59896,-0.875 -1.04687,-1.15625c-0.4375,-0.29166 -0.95312,-0.4375 -1.54687,-0.4375c-0.58334,0 -1.09896,0.14063 -1.54687,0.42188c-0.44792,0.28125 -0.80209,0.67188 -1.0625,1.17188c-0.26042,0.48959 -0.39062,1.05209 -0.39062,1.6875c0,0.63541 0.13021,1.20313 0.39063,1.70313c0.26041,0.48959 0.61458,0.88021 1.0625,1.17188c0.44791,0.28125 0.96354,0.42188 1.54688,0.42188z" fill="#ffffff" fill-rule="nonzero"/><path d="M140.1222,108.30074v-11.13145h7.01708v1.65108h-5.29942v7.8293h5.29942v1.65108zM140.90779,103.4141v-1.65108h5.35268v1.65108zM149.47097,108.30074v-8.34858h1.63777v1.71766l-0.29293,0.18641c0.10652,-0.36394 0.31512,-0.70127 0.62582,-1.01195c0.31068,-0.31956 0.67464,-0.57699 1.09184,-0.77228c0.42608,-0.19529 0.86105,-0.29293 1.30488,-0.29293c0.63913,0 1.16729,0.12427 1.5845,0.37282c0.42608,0.24855 0.74565,0.63025 0.95869,1.1451c0.21304,0.50597 0.31956,1.1451 0.31956,1.91738v5.08638h-1.63776v-4.97986c0,-0.47047 -0.06214,-0.86105 -0.18641,-1.17173c-0.12427,-0.31956 -0.31956,-0.55036 -0.58587,-0.69239c-0.2663,-0.14203 -0.59475,-0.20416 -0.98532,-0.18641c-0.31956,0 -0.6125,0.05326 -0.8788,0.15978c-0.2663,0.09764 -0.4971,0.23967 -0.69239,0.42608c-0.19529,0.17753 -0.35063,0.38614 -0.46603,0.62582c-0.10652,0.23079 -0.15978,0.48378 -0.15978,0.75897v5.05975h-0.81222c-0.13315,0 -0.27074,0 -0.41276,0c-0.14203,0 -0.27961,0 -0.41276,0zM162.47225,108.46053c-0.77228,0 -1.46466,-0.19085 -2.07716,-0.57255c-0.60362,-0.3817 -1.08296,-0.90099 -1.43803,-1.55787c-0.35507,-0.65688 -0.53261,-1.39365 -0.53261,-2.21031c0,-0.81666 0.17753,-1.55343 0.53261,-2.21031c0.35507,-0.65688 0.83442,-1.17617 1.43803,-1.55787c0.6125,-0.3817 1.30488,-0.57255 2.07716,-0.57255c0.74565,0 1.42028,0.1509 2.0239,0.45271c0.6125,0.30181 1.07853,0.71458 1.39809,1.23831l-0.90543,1.10516c-0.16866,-0.23967 -0.38613,-0.46159 -0.65244,-0.66576c-0.2663,-0.20416 -0.55036,-0.36394 -0.85217,-0.47934c-0.29293,-0.1154 -0.57699,-0.17309 -0.85217,-0.17309c-0.50597,0 -0.95869,0.12427 -1.35814,0.37282c-0.39945,0.24855 -0.71458,0.59031 -0.94537,1.02527c-0.23079,0.43496 -0.34619,0.92318 -0.34619,1.46466c0,0.54148 0.11984,1.0297 0.35951,1.46466c0.24855,0.42608 0.57255,0.76784 0.97201,1.02527c0.39945,0.24855 0.84329,0.37282 1.33151,0.37282c0.29293,0 0.57255,-0.04882 0.83886,-0.14646c0.2663,-0.09764 0.52817,-0.23967 0.7856,-0.42608c0.25742,-0.19529 0.4971,-0.43052 0.71902,-0.7057l0.90543,1.11847c-0.33731,0.47934 -0.8211,0.87436 -1.45134,1.18505c-0.63025,0.30181 -1.28713,0.45271 -1.97064,0.45271zM171.19086,108.46053c-0.81666,0 -1.54899,-0.18641 -2.19699,-0.55924c-0.63913,-0.3817 -1.1451,-0.89655 -1.51792,-1.54455c-0.36394,-0.65688 -0.54592,-1.40252 -0.54592,-2.23694c0,-0.83442 0.18197,-1.57562 0.54592,-2.22362c0.37282,-0.65688 0.8788,-1.17173 1.51792,-1.54455c0.64801,-0.3817 1.38033,-0.57255 2.197,-0.57255c0.79891,0 1.51792,0.19085 2.15705,0.57255c0.64801,0.37282 1.15842,0.88768 1.53124,1.54455c0.37282,0.64801 0.55924,1.38921 0.55924,2.22363c0,0.83442 -0.18641,1.58006 -0.55924,2.23694c-0.37282,0.64801 -0.88324,1.16285 -1.53124,1.54455c-0.63913,0.37282 -1.35814,0.55924 -2.15705,0.55924zM171.19086,106.96923c0.4971,0 0.94094,-0.12427 1.33151,-0.37282c0.39057,-0.24855 0.69683,-0.58587 0.91875,-1.01195c0.22192,-0.43496 0.32844,-0.92318 0.31956,-1.46466c0.00888,-0.55036 -0.09764,-1.03858 -0.31956,-1.46466c-0.22192,-0.43496 -0.52817,-0.77228 -0.91874,-1.01195c-0.39057,-0.24855 -0.83442,-0.37282 -1.33151,-0.37282c-0.4971,0 -0.94537,0.12427 -1.34482,0.37282c-0.39945,0.24855 -0.71014,0.59031 -0.93206,1.02527c-0.22192,0.42608 -0.32844,0.90987 -0.31956,1.45135c-0.00888,0.54148 0.09764,1.0297 0.31956,1.46466c0.22192,0.42608 0.53261,0.7634 0.93206,1.01195c0.39945,0.24855 0.84773,0.37282 1.34483,0.37282zM180.68869,108.46053c-0.7634,0 -1.44247,-0.18641 -2.03721,-0.55924c-0.59475,-0.3817 -1.06965,-0.89655 -1.42471,-1.54455c-0.34619,-0.65688 -0.51929,-1.40252 -0.51929,-2.23694c0,-0.83442 0.16866,-1.57562 0.50597,-2.22362c0.34619,-0.65688 0.81666,-1.17173 1.4114,-1.54455c0.59475,-0.3817 1.26937,-0.57255 2.0239,-0.57255c0.40833,0 0.80779,0.06658 1.19836,0.19973c0.39057,0.13315 0.73677,0.31512 1.03858,0.54592c0.31068,0.22192 0.55036,0.47047 0.71902,0.74565c0.17753,0.2663 0.2663,0.53704 0.2663,0.81223l-0.47934,0.03995v-5.59235h1.63777v11.77057h-1.63776v-1.98395h0.31956c0,0.24855 -0.08433,0.50154 -0.25298,0.75897c-0.16866,0.24855 -0.39501,0.47934 -0.67907,0.69239c-0.27518,0.20416 -0.59918,0.37282 -0.972,0.50597c-0.36394,0.12427 -0.73677,0.18641 -1.11847,0.18641zM180.91505,107.04912c0.4971,0 0.9365,-0.12871 1.3182,-0.38613c0.3817,-0.25742 0.67908,-0.60362 0.89212,-1.03858c0.22192,-0.44383 0.33288,-0.94537 0.33288,-1.50461c0,-0.55924 -0.11096,-1.05633 -0.33287,-1.49129c-0.21304,-0.44383 -0.51041,-0.79447 -0.89211,-1.05189c-0.3817,-0.25742 -0.8211,-0.38613 -1.31819,-0.38613c-0.4971,0 -0.9365,0.12871 -1.31819,0.38614c-0.3817,0.25742 -0.68351,0.60806 -0.90543,1.0519c-0.21304,0.43496 -0.31956,0.93206 -0.31956,1.49129c0,0.55924 0.10652,1.06077 0.31956,1.50461c0.22192,0.43496 0.52373,0.78116 0.90543,1.03858c0.3817,0.25742 0.8211,0.38614 1.3182,0.38614zM187.55924,108.30074v-8.34858h1.63777v8.34859zM188.35815,98.11467c-0.34619,0 -0.61694,-0.08877 -0.81222,-0.2663c-0.18641,-0.18641 -0.27961,-0.44383 -0.27961,-0.77228c0,-0.31068 0.09764,-0.55924 0.29293,-0.74565c0.19529,-0.19529 0.46159,-0.29293 0.79891,-0.29293c0.34619,0 0.6125,0.09321 0.79891,0.27962c0.19529,0.17753 0.29293,0.43052 0.29293,0.75897c0,0.31068 -0.09764,0.56368 -0.29293,0.75897c-0.19529,0.18641 -0.46159,0.27962 -0.79891,0.27962zM191.71265,108.30074v-8.34858h1.63777v1.71766l-0.29293,0.18641c0.10652,-0.36394 0.31512,-0.70127 0.62582,-1.01195c0.31068,-0.31956 0.67464,-0.57699 1.09184,-0.77228c0.42608,-0.19529 0.86105,-0.29293 1.30488,-0.29293c0.63913,0 1.16729,0.12427 1.5845,0.37282c0.42608,0.24855 0.74565,0.63025 0.95869,1.1451c0.21304,0.50597 0.31956,1.1451 0.31956,1.91738v5.08638h-1.63776v-4.97986c0,-0.47047 -0.06214,-0.86105 -0.18641,-1.17173c-0.12427,-0.31956 -0.31956,-0.55036 -0.58587,-0.69239c-0.2663,-0.14203 -0.59475,-0.20416 -0.98532,-0.18641c-0.31956,0 -0.6125,0.05326 -0.8788,0.15978c-0.2663,0.09764 -0.4971,0.23967 -0.69239,0.42608c-0.19529,0.17753 -0.35063,0.38614 -0.46603,0.62582c-0.10652,0.23079 -0.15978,0.48378 -0.15978,0.75897v5.05975h-0.81222c-0.13315,0 -0.27074,0 -0.41276,0c-0.14203,0 -0.27961,0 -0.41276,0zM204.91367,111.96241c-0.59475,0 -1.18948,-0.0932 -1.78423,-0.27961c-0.58587,-0.18641 -1.05633,-0.43052 -1.4114,-0.73233l0.59919,-1.26493c0.21304,0.15978 0.46159,0.29737 0.74565,0.41277c0.28405,0.12427 0.58587,0.22192 0.90543,0.29293c0.31956,0.07101 0.63469,0.10652 0.94538,0.10652c0.57699,0 1.06077,-0.09764 1.45135,-0.29293c0.39945,-0.18641 0.69683,-0.46603 0.89212,-0.83885c0.20416,-0.37282 0.30625,-0.83442 0.30625,-1.38477v-1.59782l0.1731,0.10652c-0.05326,0.32844 -0.22635,0.64357 -0.51929,0.94538c-0.29293,0.30181 -0.65688,0.55036 -1.09184,0.74565c-0.42608,0.18641 -0.86992,0.27962 -1.33151,0.27962c-0.79003,0 -1.49573,-0.18641 -2.1171,-0.55924c-0.62138,-0.3817 -1.11403,-0.89655 -1.47798,-1.54455c-0.35507,-0.65688 -0.53261,-1.40252 -0.53261,-2.23694c0,-0.83442 0.17753,-1.57562 0.53261,-2.22362c0.35507,-0.65688 0.83886,-1.17173 1.45135,-1.54455c0.62138,-0.3817 1.32263,-0.57255 2.10379,-0.57255c0.31068,0 0.6125,0.03995 0.90543,0.11984c0.30181,0.07989 0.58143,0.19085 0.83886,0.33288c0.25742,0.14203 0.48378,0.29737 0.67908,0.46603c0.20416,0.16866 0.36838,0.35063 0.49266,0.54592c0.13315,0.18641 0.21304,0.36394 0.23967,0.53261l-0.34619,0.13315v-1.95732h1.63777v7.84261c0,0.66576 -0.09764,1.25606 -0.29293,1.77092c-0.19529,0.51485 -0.47934,0.94981 -0.85217,1.30488c-0.37282,0.35507 -0.82554,0.62582 -1.35814,0.81223c-0.52373,0.18641 -1.11847,0.27962 -1.78423,0.27962zM204.96693,106.95592c0.52373,0 0.98532,-0.11983 1.38477,-0.3595c0.40833,-0.24855 0.72346,-0.58587 0.94538,-1.01195c0.22192,-0.42608 0.33288,-0.91431 0.33288,-1.46466c0,-0.55036 -0.1154,-1.03858 -0.34619,-1.46466c-0.23079,-0.43496 -0.54592,-0.77228 -0.94537,-1.01195c-0.39057,-0.24855 -0.84773,-0.37282 -1.37145,-0.37282c-0.50597,0 -0.95869,0.12427 -1.35814,0.37282c-0.39945,0.24855 -0.71458,0.59031 -0.94537,1.02527c-0.22192,0.42608 -0.33287,0.90987 -0.33287,1.45135c0,0.54148 0.11096,1.0297 0.33288,1.46466c0.23079,0.42608 0.54592,0.7634 0.94538,1.01195c0.39945,0.23967 0.85217,0.35951 1.35814,0.35951zM216.35438,108.30074v-11.13145h4.35405c0.79891,0 1.51792,0.13315 2.15705,0.39945c0.63913,0.2663 1.18505,0.64801 1.63777,1.1451c0.46159,0.4971 0.81223,1.0874 1.0519,1.77092c0.24855,0.67464 0.37282,1.42472 0.37282,2.25026c0,0.82554 -0.12427,1.58006 -0.37282,2.26357c-0.23967,0.68351 -0.58587,1.27381 -1.03858,1.77092c-0.45271,0.48822 -1.00307,0.86549 -1.65108,1.13179c-0.63913,0.2663 -1.35814,0.39945 -2.15705,0.39945zM218.07203,106.82277l-0.05326,-0.17309h2.60977c0.55924,0 1.06077,-0.08877 1.50461,-0.2663c0.44383,-0.18641 0.81666,-0.44383 1.11847,-0.77228c0.30181,-0.33731 0.52817,-0.75009 0.67908,-1.2383c0.15978,-0.48822 0.23967,-1.03414 0.23967,-1.63776c0,-0.60362 -0.07989,-1.1451 -0.23967,-1.62445c-0.1509,-0.48822 -0.3817,-0.90099 -0.69239,-1.2383c-0.31068,-0.33731 -0.68351,-0.59475 -1.11847,-0.77228c-0.43496,-0.18641 -0.93206,-0.27961 -1.49129,-0.27961h-2.64971l0.09321,-0.13315zM227.83352,108.30074v-8.34858h1.65108v2.62308l-0.15978,-0.63913c0.1154,-0.39945 0.31512,-0.7634 0.59919,-1.09184c0.28405,-0.32844 0.60806,-0.58587 0.97201,-0.77228c0.36394,-0.19529 0.74121,-0.29293 1.13179,-0.29293c0.17753,0 0.34619,0.01775 0.50597,0.05326c0.16866,0.02663 0.30181,0.06214 0.39945,0.10652l-0.42608,1.78423c-0.12427,-0.05326 -0.2663,-0.09764 -0.42608,-0.13315c-0.1509,-0.04438 -0.30181,-0.06657 -0.45271,-0.06657c-0.28405,0 -0.5548,0.0577 -0.81222,0.1731c-0.25742,0.10652 -0.48822,0.26186 -0.69239,0.46603c-0.19529,0.19529 -0.35063,0.42164 -0.46603,0.67908c-0.1154,0.25742 -0.17309,0.54148 -0.17309,0.85217v4.60703zM234.50681,108.30074v-8.34858h1.63777v8.34859zM235.30572,98.11467c-0.34619,0 -0.61694,-0.08877 -0.81222,-0.2663c-0.18641,-0.18641 -0.27961,-0.44383 -0.27961,-0.77228c0,-0.31068 0.09764,-0.55924 0.29293,-0.74565c0.19529,-0.19529 0.46159,-0.29293 0.79891,-0.29293c0.34619,0 0.6125,0.09321 0.79891,0.27962c0.19529,0.17753 0.29293,0.43052 0.29293,0.75897c0,0.31068 -0.09764,0.56368 -0.29293,0.75897c-0.19529,0.18641 -0.46159,0.27962 -0.79891,0.27962zM241.38982,108.30074l-3.5285,-8.34858h1.77092l2.54319,6.2448l-0.30624,0.14647l2.71629,-6.39126h1.69103l-3.70161,8.34859zM251.41932,108.46053c-0.85217,0 -1.61113,-0.18197 -2.27688,-0.54592c-0.65688,-0.36394 -1.17617,-0.86548 -1.55787,-1.50461c-0.37282,-0.63913 -0.55924,-1.37145 -0.55924,-2.19699c0,-0.65688 0.10652,-1.25606 0.31956,-1.79754c0.21304,-0.54148 0.50597,-1.00751 0.8788,-1.39808c0.37282,-0.39945 0.8211,-0.7057 1.34483,-0.91874c0.53261,-0.22192 1.10516,-0.33287 1.71766,-0.33287c0.54148,0 1.04302,0.10208 1.50461,0.30625c0.47047,0.20416 0.87436,0.48822 1.21168,0.85217c0.34619,0.36394 0.6125,0.79447 0.79891,1.29157c0.18641,0.48822 0.27518,1.02083 0.2663,1.59782l-0.01331,0.70571h-6.81735l-0.37282,-1.30488h5.76545l-0.22635,0.2663v-0.37282c-0.03551,-0.35507 -0.15534,-0.6702 -0.3595,-0.94537c-0.19529,-0.27518 -0.44827,-0.49266 -0.75896,-0.65244c-0.31068,-0.15978 -0.64357,-0.23967 -0.99863,-0.23967c-0.57699,0 -1.06077,0.11096 -1.45134,0.33288c-0.39057,0.21304 -0.68795,0.53261 -0.89211,0.95869c-0.19529,0.4172 -0.29293,0.93206 -0.29293,1.54455c0,0.57699 0.11984,1.08296 0.35951,1.51792c0.23967,0.42608 0.58143,0.75897 1.02527,0.99864c0.45271,0.23079 0.96757,0.34619 1.54455,0.34619c0.4172,0 0.80335,-0.06657 1.15842,-0.19972c0.35507,-0.14203 0.74121,-0.39501 1.15842,-0.75896l0.82554,1.15842c-0.25742,0.25742 -0.56811,0.48378 -0.93206,0.67908c-0.36394,0.18641 -0.75009,0.33731 -1.15841,0.45271c-0.40833,0.10652 -0.81222,0.15978 -1.21167,0.15978z" fill="#ffffff" fill-rule="nonzero"/><path d="M262.6347,101.09193c-0.29293,0 -0.55924,-0.07545 -0.79891,-0.22635c-0.23967,-0.15978 -0.43052,-0.37282 -0.57255,-0.63913c-0.13315,-0.27518 -0.19972,-0.58587 -0.19972,-0.93206c0,-0.27518 0.0577,-0.54592 0.1731,-0.81222c0.1154,-0.2663 0.27518,-0.51485 0.47934,-0.74565c0.21304,-0.23079 0.45715,-0.43496 0.73234,-0.6125c0.27518,-0.18641 0.57255,-0.32844 0.89212,-0.42608l0.59919,0.73234c-0.4172,0.19529 -0.75896,0.4172 -1.02526,0.66576c-0.25742,0.23967 -0.38613,0.44827 -0.38613,0.62582c0,0.13315 0.0577,0.25299 0.1731,0.35951c0.1154,0.10652 0.22192,0.20416 0.31956,0.29293c0.23079,0.18641 0.38614,0.34619 0.46603,0.47934c0.07989,0.12427 0.11984,0.25742 0.11984,0.39945c0,0.24855 -0.0932,0.45271 -0.27961,0.6125c-0.17753,0.1509 -0.40833,0.22636 -0.69239,0.22636zM265.92353,101.09193c-0.29293,0 -0.55924,-0.07545 -0.79891,-0.22635c-0.23967,-0.15978 -0.43052,-0.37282 -0.57255,-0.63913c-0.13315,-0.27518 -0.19972,-0.58587 -0.19972,-0.93206c0,-0.27518 0.0577,-0.54592 0.1731,-0.81222c0.1154,-0.2663 0.27518,-0.51485 0.47934,-0.74565c0.21304,-0.23079 0.45715,-0.43496 0.73234,-0.6125c0.27518,-0.18641 0.57255,-0.32844 0.89212,-0.42608l0.59919,0.73234c-0.4172,0.19529 -0.75896,0.4172 -1.02526,0.66576c-0.25742,0.23967 -0.38613,0.44827 -0.38613,0.62582c0,0.13315 0.0577,0.25299 0.1731,0.35951c0.1154,0.10652 0.22192,0.20416 0.31956,0.29293c0.23079,0.18641 0.38614,0.34619 0.46603,0.47934c0.07989,0.12427 0.11984,0.25742 0.11984,0.39945c0,0.24855 -0.0932,0.45271 -0.27961,0.6125c-0.17753,0.1509 -0.40833,0.22636 -0.69239,0.22636zM269.10468,108.64161v-11.13145h1.69102l4.0478,6.6043l-0.81222,-0.01331l4.10106,-6.59098h1.59782v11.13145h-1.71765v-4.56708c0,-0.94981 0.02219,-1.80642 0.06658,-2.56982c0.04438,-0.7634 0.12871,-1.52236 0.25299,-2.27688l0.21304,0.58587l-3.63503,5.6323h-1.05189l-3.5285,-5.56572l0.17309,-0.65244c0.1154,0.71014 0.19529,1.44247 0.23967,2.197c0.05326,0.74565 0.07989,1.62889 0.07989,2.64971v4.56709zM285.63696,108.80139c-0.68351,0 -1.30932,-0.19085 -1.87743,-0.57255c-0.56811,-0.3817 -1.02526,-0.90099 -1.37145,-1.55787c-0.33731,-0.65688 -0.50597,-1.39808 -0.50597,-2.22362c0,-0.84329 0.1731,-1.58894 0.51929,-2.23694c0.34619,-0.64801 0.81223,-1.15841 1.39809,-1.53124c0.59475,-0.37282 1.25606,-0.55924 1.98396,-0.55924c0.43496,0 0.82998,0.06658 1.18505,0.19973c0.36394,0.12427 0.67908,0.30181 0.94538,0.53261c0.27518,0.22192 0.4971,0.48378 0.66576,0.7856c0.17753,0.29293 0.28849,0.60806 0.33288,0.94538l-0.3595,-0.11983v-2.17036h1.65108v8.34859h-1.65108v-1.98395l0.37282,-0.11983c-0.06214,0.29293 -0.19085,0.57699 -0.38613,0.85217c-0.19529,0.2663 -0.44383,0.50597 -0.74565,0.71902c-0.30181,0.20416 -0.63469,0.37282 -0.99863,0.50597c-0.36394,0.12427 -0.75009,0.18641 -1.15841,0.18641zM286.06305,107.29678c0.50597,0 0.94538,-0.11983 1.3182,-0.3595c0.3817,-0.24855 0.67908,-0.58587 0.89212,-1.01195c0.22192,-0.43496 0.33288,-0.92762 0.33288,-1.47798c0,-0.54148 -0.11096,-1.02526 -0.33287,-1.45134c-0.21304,-0.42608 -0.51041,-0.75896 -0.89211,-0.99863c-0.37282,-0.24855 -0.81222,-0.37282 -1.31819,-0.37282c-0.48822,0 -0.91874,0.12427 -1.29156,0.37282c-0.37282,0.23967 -0.6702,0.57255 -0.89211,0.99864c-0.21304,0.42608 -0.31956,0.90987 -0.31956,1.45135c0,0.55036 0.10652,1.04302 0.31956,1.47798c0.22192,0.42608 0.51929,0.7634 0.89212,1.01195c0.37282,0.23967 0.80335,0.35951 1.29157,0.35951zM292.75791,108.64161v-8.34858h1.63777v8.34859zM293.55682,98.45553c-0.34619,0 -0.61694,-0.08877 -0.81222,-0.2663c-0.18641,-0.18641 -0.27961,-0.44383 -0.27961,-0.77228c0,-0.31068 0.09764,-0.55924 0.29293,-0.74565c0.19529,-0.19529 0.46159,-0.29293 0.79891,-0.29293c0.34619,0 0.6125,0.09321 0.79891,0.27962c0.19529,0.17753 0.29293,0.43052 0.29293,0.75897c0,0.31068 -0.09764,0.56368 -0.29293,0.75897c-0.19529,0.18641 -0.46159,0.27962 -0.79891,0.27962zM296.91133,108.64161v-8.34858h1.63777v1.71766l-0.29293,0.18641c0.10652,-0.36394 0.31512,-0.70127 0.62582,-1.01195c0.31068,-0.31956 0.67464,-0.57699 1.09184,-0.77228c0.42608,-0.19529 0.86105,-0.29293 1.30488,-0.29293c0.63913,0 1.16729,0.12427 1.5845,0.37282c0.42608,0.24855 0.74565,0.63025 0.95869,1.1451c0.21304,0.50597 0.31956,1.1451 0.31956,1.91738v5.08638h-1.63776v-4.97986c0,-0.47047 -0.06214,-0.86105 -0.18641,-1.17173c-0.12427,-0.31956 -0.31956,-0.55036 -0.58587,-0.69239c-0.2663,-0.14203 -0.59475,-0.20416 -0.98532,-0.18641c-0.31956,0 -0.6125,0.05326 -0.8788,0.15978c-0.2663,0.09764 -0.4971,0.23967 -0.69239,0.42608c-0.19529,0.17753 -0.35063,0.38614 -0.46603,0.62582c-0.10652,0.23079 -0.15978,0.48378 -0.15978,0.75897v5.05975h-0.81222c-0.13315,0 -0.27074,0 -0.41276,0c-0.14203,0 -0.27961,0 -0.41276,0zM306.78355,108.64161v-11.13145h1.71766v11.13145zM307.54252,103.90143v-1.65108h5.73882v1.65108zM307.54252,99.16124v-1.65108h6.45784v1.65108zM319.71008,108.80139c-0.60362,0 -1.16285,-0.07989 -1.67771,-0.23967c-0.51485,-0.15978 -0.98088,-0.39945 -1.39808,-0.71902c-0.4172,-0.32844 -0.79003,-0.7279 -1.11847,-1.19836l1.17173,-1.35814c0.52373,0.74565 1.02083,1.2605 1.49129,1.54455c0.47934,0.28405 1.04746,0.42608 1.70434,0.42608c0.39945,0 0.7634,-0.06214 1.09184,-0.18641c0.32844,-0.13315 0.58587,-0.31068 0.77228,-0.53261c0.19529,-0.22192 0.29293,-0.4749 0.29293,-0.75896c0,-0.18641 -0.03107,-0.36394 -0.0932,-0.53261c-0.06214,-0.17753 -0.15978,-0.33287 -0.29293,-0.46603c-0.13315,-0.14203 -0.30181,-0.27074 -0.50597,-0.38613c-0.20416,-0.1154 -0.44383,-0.21748 -0.71902,-0.30624c-0.27518,-0.08877 -0.59475,-0.16422 -0.95869,-0.22635c-0.56811,-0.12427 -1.06521,-0.27961 -1.49129,-0.46603c-0.42608,-0.19529 -0.78116,-0.43496 -1.06521,-0.71902c-0.28405,-0.28405 -0.4971,-0.60806 -0.63913,-0.972c-0.14203,-0.36394 -0.21304,-0.77672 -0.21304,-1.2383c0,-0.44383 0.09764,-0.85661 0.29293,-1.2383c0.20416,-0.3817 0.4749,-0.71014 0.81223,-0.98532c0.34619,-0.28405 0.75009,-0.50154 1.21168,-0.65244c0.47047,-0.15978 0.97644,-0.23967 1.51792,-0.23967c0.57699,0 1.10072,0.07545 1.57119,0.22636c0.47934,0.1509 0.90543,0.37282 1.27825,0.66576c0.37282,0.28405 0.67908,0.63913 0.91875,1.06521l-1.21167,1.19836c-0.20416,-0.35507 -0.43939,-0.64801 -0.7057,-0.8788c-0.2663,-0.23967 -0.55924,-0.42164 -0.8788,-0.54592c-0.31956,-0.12427 -0.65688,-0.18641 -1.01195,-0.18641c-0.4172,0 -0.78116,0.06658 -1.09184,0.19973c-0.30181,0.12427 -0.54148,0.30181 -0.71902,0.53261c-0.17753,0.22192 -0.2663,0.48822 -0.2663,0.79891c0,0.22192 0.04438,0.42608 0.13315,0.6125c0.08877,0.18641 0.21748,0.35063 0.38614,0.49266c0.17753,0.14203 0.41277,0.27074 0.70571,0.38614c0.30181,0.10652 0.65688,0.19973 1.06521,0.27962c0.58587,0.13315 1.10516,0.29737 1.55787,0.49266c0.46159,0.19529 0.84773,0.42608 1.15842,0.69239c0.31956,0.2663 0.55924,0.56368 0.71902,0.89212c0.16866,0.32844 0.25299,0.68351 0.25299,1.06521c0,0.71014 -0.16422,1.32707 -0.49266,1.85081c-0.32844,0.51485 -0.79447,0.91431 -1.39808,1.19836c-0.60362,0.27518 -1.32263,0.41277 -2.15705,0.41277zM325.55617,101.09193l-0.59918,-0.73233c0.40833,-0.19529 0.74565,-0.41276 1.01195,-0.65244c0.2663,-0.23967 0.39945,-0.45271 0.39945,-0.63913c0,-0.13315 -0.0577,-0.25298 -0.17309,-0.3595c-0.1154,-0.1154 -0.22192,-0.21304 -0.31956,-0.29293c-0.23079,-0.18641 -0.38613,-0.34175 -0.46603,-0.46603c-0.07989,-0.13315 -0.11983,-0.2663 -0.11983,-0.39945c0,-0.25742 0.08877,-0.46159 0.2663,-0.6125c0.18641,-0.15978 0.42164,-0.23967 0.70571,-0.23967c0.29293,0 0.55924,0.07989 0.79891,0.23967c0.23967,0.1509 0.42608,0.35951 0.55924,0.62582c0.14203,0.2663 0.21304,0.57699 0.21304,0.93206c0,0.27518 -0.0577,0.54592 -0.17309,0.81223c-0.1154,0.2663 -0.27961,0.51929 -0.49266,0.75897c-0.20416,0.23079 -0.44383,0.43496 -0.71902,0.6125c-0.27518,0.17753 -0.57255,0.31512 -0.89211,0.41277zM328.80506,101.09193l-0.59918,-0.73233c0.40833,-0.19529 0.74565,-0.41276 1.01195,-0.65244c0.2663,-0.23967 0.39945,-0.45271 0.39945,-0.63913c0,-0.13315 -0.0577,-0.25298 -0.17309,-0.3595c-0.1154,-0.1154 -0.22192,-0.21304 -0.31956,-0.29293c-0.23079,-0.18641 -0.38613,-0.34175 -0.46603,-0.46603c-0.07989,-0.13315 -0.11983,-0.2663 -0.11983,-0.39945c0,-0.25742 0.08877,-0.46159 0.2663,-0.6125c0.18641,-0.15978 0.42164,-0.23967 0.70571,-0.23967c0.29293,0 0.55924,0.07989 0.79891,0.23967c0.23967,0.1509 0.42608,0.35951 0.55924,0.62582c0.14203,0.2663 0.21304,0.57699 0.21304,0.93206c0,0.27518 -0.0577,0.54592 -0.17309,0.81223c-0.1154,0.2663 -0.27961,0.51929 -0.49266,0.75897c-0.20416,0.23079 -0.44383,0.43496 -0.71902,0.6125c-0.27518,0.17753 -0.57255,0.31512 -0.89211,0.41277zM333.52301,108.8147c-0.34619,0 -0.61694,-0.10208 -0.81222,-0.30624c-0.18641,-0.20416 -0.27961,-0.4971 -0.27961,-0.8788c0,-0.35507 0.09764,-0.64357 0.29293,-0.86548c0.20416,-0.22192 0.47047,-0.33287 0.79891,-0.33287c0.35507,0 0.62582,0.10652 0.81223,0.31956c0.19529,0.20416 0.29293,0.4971 0.29293,0.8788c0,0.34619 -0.10208,0.63025 -0.30624,0.85217c-0.20416,0.22192 -0.47047,0.33288 -0.79891,0.33288zM337.14782,108.8147c-0.34619,0 -0.61694,-0.10208 -0.81222,-0.30624c-0.18641,-0.20416 -0.27961,-0.4971 -0.27961,-0.8788c0,-0.35507 0.09764,-0.64357 0.29293,-0.86548c0.20416,-0.22192 0.47047,-0.33287 0.79891,-0.33287c0.35507,0 0.62582,0.10652 0.81223,0.31956c0.19529,0.20416 0.29293,0.4971 0.29293,0.8788c0,0.34619 -0.10208,0.63025 -0.30624,0.85217c-0.20416,0.22192 -0.47047,0.33288 -0.79891,0.33288zM340.77263,108.8147c-0.34619,0 -0.61694,-0.10208 -0.81222,-0.30624c-0.18641,-0.20416 -0.27961,-0.4971 -0.27961,-0.8788c0,-0.35507 0.09764,-0.64357 0.29293,-0.86548c0.20416,-0.22192 0.47047,-0.33287 0.79891,-0.33287c0.35507,0 0.62582,0.10652 0.81223,0.31956c0.19529,0.20416 0.29293,0.4971 0.29293,0.8788c0,0.34619 -0.10208,0.63025 -0.30624,0.85217c-0.20416,0.22192 -0.47047,0.33288 -0.79891,0.33288z" fill="#ffffff" fill-rule="nonzero"/></g></g></svg>