<svg version="1.1" xmlns="http://www.w3.org/2000/svg" xmlns:xlink="http://www.w3.org/1999/xlink" width="79.11654" height="292.64133" viewBox="0,0,79.11654,292.64133"><g transform="translate(-172.87778,100.83023)"><g data-paper-data="{&quot;isPaintingLayer&quot;:true}" stroke="none" stroke-linejoin="miter" stroke-miterlimit="10" stroke-dasharray="" stroke-dashoffset="0" style="mix-blend-mode: normal"><path d="M228.00573,170.64851v0c0,-1.35836 1.10116,-2.45954 2.45954,-2.45954h19.06951c0.65231,0 1.27789,0.25913 1.73915,0.72039c0.46126,0.46126 0.72039,1.08685 0.72039,1.73916v18.70304c0,1.35836 -1.10116,2.45954 -2.45954,2.45954h-19.06951c-1.35836,0 -2.45954,-1.10116 -2.45954,-2.45954z" fill="#686868" fill-rule="evenodd" stroke-width="1" stroke-linecap="square"/><path d="M172.87778,-81.16261v-19.66762h58.98183v19.66762z" fill-opacity="0.74194" fill="#000000" fill-rule="nonzero" stroke-width="0" stroke-linecap="butt"/><text transform="translate(177.37743,-88.56019) scale(0.2358,0.2358)" font-size="40" xml:space="preserve" fill="#ffffff" fill-rule="nonzero" stroke="none" stroke-width="1" stroke-linecap="butt" stroke-linejoin="miter" stroke-miterlimit="10" stroke-dasharray="" stroke-dashoffset="0" font-family="Sans Serif" font-weight="normal" text-anchor="start" style="mix-blend-mode: normal"><tspan x="0" dy="0">More Apps</tspan></text><path d="M234,188c-0.55,0 -1.02084,-0.19584 -1.4125,-0.5875c-0.39166,-0.39166 -0.5875,-0.8625 -0.5875,-1.4125c0,-0.55 0.19584,-1.02084 0.5875,-1.4125c0.39166,-0.39166 0.8625,-0.5875 1.4125,-0.5875c0.55,0 1.02084,0.19584 1.4125,0.5875c0.39166,0.39166 0.5875,0.8625 0.5875,1.4125c0,0.55 -0.19584,1.02084 -0.5875,1.4125c-0.39166,0.39166 -0.8625,0.5875 -1.4125,0.5875zM240,188c-0.55,0 -1.02084,-0.19584 -1.4125,-0.5875c-0.39166,-0.39166 -0.5875,-0.8625 -0.5875,-1.4125c0,-0.55 0.19584,-1.02084 0.5875,-1.4125c0.39166,-0.39166 0.8625,-0.5875 1.4125,-0.5875c0.55,0 1.02084,0.19584 1.4125,0.5875c0.39166,0.39166 0.5875,0.8625 0.5875,1.4125c0,0.55 -0.19584,1.02084 -0.5875,1.4125c-0.39166,0.39166 -0.8625,0.5875 -1.4125,0.5875zM246,188c-0.55,0 -1.02084,-0.19584 -1.4125,-0.5875c-0.39166,-0.39166 -0.5875,-0.8625 -0.5875,-1.4125c0,-0.55 0.19584,-1.02084 0.5875,-1.4125c0.39166,-0.39166 0.8625,-0.5875 1.4125,-0.5875c0.55,0 1.02084,0.19584 1.4125,0.5875c0.39166,0.39166 0.5875,0.8625 0.5875,1.4125c0,0.55 -0.19584,1.02084 -0.5875,1.4125c-0.39166,0.39166 -0.8625,0.5875 -1.4125,0.5875zM234,182c-0.55,0 -1.02084,-0.19584 -1.4125,-0.5875c-0.39166,-0.39166 -0.5875,-0.8625 -0.5875,-1.4125c0,-0.55 0.19584,-1.02084 0.5875,-1.4125c0.39166,-0.39166 0.8625,-0.5875 1.4125,-0.5875c0.55,0 1.02084,0.19584 1.4125,0.5875c0.39166,0.39166 0.5875,0.8625 0.5875,1.4125c0,0.55 -0.19584,1.02084 -0.5875,1.4125c-0.39166,0.39166 -0.8625,0.5875 -1.4125,0.5875zM240,182c-0.55,0 -1.02084,-0.19584 -1.4125,-0.5875c-0.39166,-0.39166 -0.5875,-0.8625 -0.5875,-1.4125c0,-0.55 0.19584,-1.02084 0.5875,-1.4125c0.39166,-0.39166 0.8625,-0.5875 1.4125,-0.5875c0.55,0 1.02084,0.19584 1.4125,0.5875c0.39166,0.39166 0.5875,0.8625 0.5875,1.4125c0,0.55 -0.19584,1.02084 -0.5875,1.4125c-0.39166,0.39166 -0.8625,0.5875 -1.4125,0.5875zM246,182c-0.55,0 -1.02084,-0.19584 -1.4125,-0.5875c-0.39166,-0.39166 -0.5875,-0.8625 -0.5875,-1.4125c0,-0.55 0.19584,-1.02084 0.5875,-1.4125c0.39166,-0.39166 0.8625,-0.5875 1.4125,-0.5875c0.55,0 1.02084,0.19584 1.4125,0.5875c0.39166,0.39166 0.5875,0.8625 0.5875,1.4125c0,0.55 -0.19584,1.02084 -0.5875,1.4125c-0.39166,0.39166 -0.8625,0.5875 -1.4125,0.5875zM234,176c-0.55,0 -1.02084,-0.19584 -1.4125,-0.5875c-0.39166,-0.39166 -0.5875,-0.8625 -0.5875,-1.4125c0,-0.55 0.19584,-1.02084 0.5875,-1.4125c0.39166,-0.39166 0.8625,-0.5875 1.4125,-0.5875c0.55,0 1.02084,0.19584 1.4125,0.5875c0.39166,0.39166 0.5875,0.8625 0.5875,1.4125c0,0.55 -0.19584,1.02084 -0.5875,1.4125c-0.39166,0.39166 -0.8625,0.5875 -1.4125,0.5875zM240,176c-0.55,0 -1.02084,-0.19584 -1.4125,-0.5875c-0.39166,-0.39166 -0.5875,-0.8625 -0.5875,-1.4125c0,-0.55 0.19584,-1.02084 0.5875,-1.4125c0.39166,-0.39166 0.8625,-0.5875 1.4125,-0.5875c0.55,0 1.02084,0.19584 1.4125,0.5875c0.39166,0.39166 0.5875,0.8625 0.5875,1.4125c0,0.55 -0.19584,1.02084 -0.5875,1.4125c-0.39166,0.39166 -0.8625,0.5875 -1.4125,0.5875zM246,176c-0.55,0 -1.02084,-0.19584 -1.4125,-0.5875c-0.39166,-0.39166 -0.5875,-0.8625 -0.5875,-1.4125c0,-0.55 0.19584,-1.02084 0.5875,-1.4125c0.39166,-0.39166 0.8625,-0.5875 1.4125,-0.5875c0.55,0 1.02084,0.19584 1.4125,0.5875c0.39166,0.39166 0.5875,0.8625 0.5875,1.4125c0,0.55 -0.19584,1.02084 -0.5875,1.4125c-0.39166,0.39166 -0.8625,0.5875 -1.4125,0.5875z" fill-opacity="0.62903" fill="#ffffff" fill-rule="nonzero" stroke-width="1" stroke-linecap="butt"/></g></g></svg>