<svg version="1.1" xmlns="http://www.w3.org/2000/svg" xmlns:xlink="http://www.w3.org/1999/xlink" width="23.98859" height="23.62213" viewBox="0,0,23.98859,23.62213"><g transform="translate(-228.00571,-168.18894)"><g data-paper-data="{&quot;isPaintingLayer&quot;:true}" fill-rule="evenodd" stroke="none" stroke-width="1" stroke-linecap="square" stroke-linejoin="miter" stroke-miterlimit="10" stroke-dasharray="" stroke-dashoffset="0" style="mix-blend-mode: normal"><path d="M230.92774,182.26149v0c0,-0.43706 0.35431,-0.79138 0.79137,-0.79138h6.13577c0.20989,0 0.41117,0.08338 0.55959,0.23179c0.14841,0.14841 0.23179,0.3497 0.23179,0.55959v6.01785c0,0.43707 -0.35431,0.79137 -0.79137,0.79137h-6.13577c-0.43706,0 -0.79137,-0.35431 -0.79137,-0.79137z" fill-opacity="0.46774" fill="#7b7b7b"/><path d="M241.5416,171.72066v0c0,-0.43706 0.35431,-0.79137 0.79137,-0.79137h6.13577c0.20989,0 0.41117,0.08338 0.55958,0.23179c0.14841,0.14841 0.23179,0.3497 0.23179,0.55959v6.01785c0,0.43707 -0.35431,0.79137 -0.79137,0.79137h-6.13577c-0.43706,0 -0.79137,-0.35431 -0.79137,-0.79137z" fill-opacity="0.46774" fill="#7b7b7b"/><path d="M241.5416,182.26149v0c0,-0.43706 0.35431,-0.79138 0.79137,-0.79138h6.13577c0.20989,0 0.41117,0.08338 0.55958,0.23179c0.14841,0.14841 0.23179,0.3497 0.23179,0.55959v6.01785c0,0.43707 -0.35431,0.79137 -0.79137,0.79137h-6.13577c-0.43706,0 -0.79137,-0.35431 -0.79137,-0.79137z" fill-opacity="0.46774" fill="#7b7b7b"/><path d="M230.7399,171.72066v0c0,-0.43706 0.35431,-0.79137 0.79137,-0.79137h6.13577c0.20989,0 0.41117,0.08338 0.55958,0.23179c0.14841,0.14841 0.23179,0.3497 0.23179,0.55958v6.01785c0,0.43706 -0.35431,0.79137 -0.79137,0.79137h-6.13577c-0.43706,0 -0.79137,-0.35431 -0.79137,-0.79137z" fill-opacity="0.46774" fill="#7b7b7b"/><path d="M228.00572,170.64849v0c0,-1.35836 1.10116,-2.45954 2.45954,-2.45954h19.06951c0.65231,0 1.27789,0.25913 1.73915,0.72039c0.46126,0.46126 0.72039,1.08685 0.72039,1.73916v18.70304c0,1.35836 -1.10116,2.45954 -2.45954,2.45954h-19.06951c-1.35836,0 -2.45954,-1.10116 -2.45954,-2.45954z" fill-opacity="0.01021" fill="#7b7b7b"/></g></g></svg>