<svg version="1.1" xmlns="http://www.w3.org/2000/svg" xmlns:xlink="http://www.w3.org/1999/xlink" width="232.39571" height="160.12502" viewBox="0,0,232.39571,160.12502"><g transform="translate(-123.72193,-99.93749)"><g data-paper-data="{&quot;isPaintingLayer&quot;:true}" stroke="none" stroke-linejoin="miter" stroke-miterlimit="10" stroke-dasharray="" stroke-dashoffset="0" style="mix-blend-mode: normal"><path d="M123.88237,109.83482c0,-5.46615 4.43119,-9.89733 9.89733,-9.89733h212.44061c2.62494,0 5.14237,1.04275 6.99847,2.89886c1.85612,1.85611 2.89886,4.37353 2.89886,6.99847v140.33036c0,5.46615 -4.43118,9.89733 -9.89733,9.89733h-212.44061c-5.46614,0 -9.89733,-4.43118 -9.89733,-9.89733z" fill="#171717" fill-rule="evenodd" stroke-width="1" stroke-linecap="square"/><path d="M329.5029,111.23421c0,2.34801 -1.91444,4.25144 -4.27602,4.25144c-2.36158,0 -4.27601,-1.90344 -4.27601,-4.25144c0,-2.34801 1.91443,-4.25144 4.27601,-4.25144c2.36158,0 4.27602,1.90344 4.27602,4.25144z" fill-opacity="0.25378" fill="#3a3a3a" fill-rule="nonzero" stroke-width="0" stroke-linecap="butt"/><path d="M344.0029,111.23421c0,2.34801 -1.91444,4.25144 -4.27602,4.25144c-2.36158,0 -4.27601,-1.90344 -4.27601,-4.25144c0,-2.34801 1.91443,-4.25144 4.27601,-4.25144c2.36158,0 4.27602,1.90344 4.27602,4.25144z" fill-opacity="0.25378" fill="#3a3a3a" fill-rule="nonzero" stroke-width="0" stroke-linecap="butt"/><path d="M123.72193,254.3055v-137.36477h229.74459v137.36477z" fill="#000000" fill-rule="nonzero" stroke-width="0" stroke-linecap="butt"/><text transform="translate(219.1823,112.42523) scale(0.23572,0.23572)" font-size="40" xml:space="preserve" fill="#ffffff" fill-rule="nonzero" stroke="none" stroke-width="1" stroke-linecap="butt" stroke-linejoin="miter" stroke-miterlimit="10" stroke-dasharray="" stroke-dashoffset="0" font-family="Sans Serif" font-weight="normal" text-anchor="start" style="mix-blend-mode: normal"><tspan x="0" dy="0">Terminal</tspan></text><text transform="translate(131.15904,111.52996) scale(0.13819,0.13819)" font-size="40" xml:space="preserve" fill="#ffffff" fill-rule="nonzero" stroke="none" stroke-width="1" stroke-linecap="butt" stroke-linejoin="miter" stroke-miterlimit="10" stroke-dasharray="" stroke-dashoffset="0" font-family="Sans Serif" font-weight="normal" text-anchor="start" style="mix-blend-mode: normal"><tspan x="0" dy="0">VPBBIOS 1.1</tspan></text></g></g></svg>