<svg version="1.1" xmlns="http://www.w3.org/2000/svg" xmlns:xlink="http://www.w3.org/1999/xlink" width="189.1125" height="225.10987" viewBox="0,0,189.1125,225.10987"><g transform="translate(-213.821,30.02641)"><g data-paper-data="{&quot;isPaintingLayer&quot;:true}" stroke-linejoin="miter" stroke-miterlimit="10" stroke-dasharray="" stroke-dashoffset="0" style="mix-blend-mode: normal"><path d="M225.59556,-13.63947c0,-9.05027 7.08512,-16.38694 15.8251,-16.38694h145.68774c4.19708,0 8.22227,1.72649 11.19007,4.79963c2.96777,3.07314 4.63503,7.24123 4.63503,11.5873v65.54579c0,9.05027 -7.08512,16.38694 -15.8251,16.38694h-145.68774c-8.73998,0 -15.8251,-7.33666 -15.8251,-16.38694z" fill="#ffffff" fill-rule="evenodd" stroke="none" stroke-width="1" stroke-linecap="square"/><path d="M213.821,170.77779c0,-2.6848 2.10183,-4.86125 4.69458,-4.86125h43.21885c1.24508,0 2.43917,0.51217 3.31958,1.42383c0.8804,0.91166 1.375,2.14814 1.375,3.43742v19.44442c0,2.6848 -2.10183,4.86125 -4.69458,4.86125h-43.21885c-2.59275,0 -4.69458,-2.17645 -4.69458,-4.86125z" fill-opacity="0.66318" fill="#272727" fill-rule="evenodd" stroke="none" stroke-width="1" stroke-linecap="square"/><text transform="translate(230.33267,191.01719) scale(0.08184,0.08184)" font-size="40" xml:space="preserve" fill="#ffffff" fill-rule="nonzero" stroke="none" stroke-width="1" stroke-linecap="butt" stroke-linejoin="miter" stroke-miterlimit="10" stroke-dasharray="" stroke-dashoffset="0" font-family="Sans Serif" font-weight="normal" text-anchor="start" style="mix-blend-mode: normal"><tspan x="0" dy="0">Ask Marcus</tspan></text><path d="M246.92375,178.78202c-0.95699,3.32992 -4.02566,5.76621 -7.66336,5.76621c-4.40315,0 -7.9726,-3.56946 -7.9726,-7.9726c0,-3.45026 2.19168,-6.38862 5.2588,-7.49882" fill="none" fill-rule="nonzero" stroke="#00c1ff" stroke-width="2" stroke-linecap="butt"/><path d="M234.75986,174.69171c0.74409,-1.57094 2.34405,-2.65745 4.19777,-2.65745c2.56386,0 4.64228,2.07842 4.64228,4.64228c0,2.56386 -2.07842,4.64228 -4.64228,4.64228c-1.46467,0 -2.7709,-0.6783 -3.62173,-1.73791" fill="none" fill-rule="nonzero" stroke="#0059af" stroke-width="2" stroke-linecap="butt"/><path d="M237.35989,176.77746c0,-0.94751 0.76811,-1.71563 1.71563,-1.71563c0.94751,0 1.71563,0.76811 1.71563,1.71563c0,0.94751 -0.76811,1.71563 -1.71563,1.71563c-0.94751,0 -1.71563,-0.76811 -1.71563,-1.71563z" fill="none" fill-rule="nonzero" stroke="#000000" stroke-width="2" stroke-linecap="butt"/><text transform="translate(250.0045,-4.47667) scale(0.2066,0.2066)" font-size="40" xml:space="preserve" fill="#000000" fill-rule="nonzero" stroke="none" stroke-width="1" stroke-linecap="butt" stroke-linejoin="miter" stroke-miterlimit="10" stroke-dasharray="" stroke-dashoffset="0" font-family="Sans Serif" font-weight="normal" text-anchor="start" style="mix-blend-mode: normal"><tspan x="0" dy="0">A better Marcus is coming soon...</tspan></text><text transform="translate(250.5045,23.89833) scale(0.1741,0.1741)" font-size="40" xml:space="preserve" fill="#000000" fill-rule="nonzero" stroke="none" stroke-width="1" stroke-linecap="butt" stroke-linejoin="miter" stroke-miterlimit="10" stroke-dasharray="" stroke-dashoffset="0" font-family="Sans Serif" font-weight="normal" text-anchor="start" style="mix-blend-mode: normal"><tspan x="0" dy="0">Please be patient as the new version is</tspan><tspan x="0" dy="46.15px">being implemented.</tspan></text></g></g></svg>