<svg version="1.1" xmlns="http://www.w3.org/2000/svg" xmlns:xlink="http://www.w3.org/1999/xlink" width="222.80431" height="22.99203" viewBox="0,0,222.80431,22.99203"><g transform="translate(-86.92032,-170.95998)"><g data-paper-data="{&quot;isPaintingLayer&quot;:true}" fill="#ffffff" fill-rule="nonzero" stroke="none" stroke-width="1" stroke-linejoin="miter" stroke-miterlimit="10" stroke-dasharray="" stroke-dashoffset="0" style="mix-blend-mode: normal"><text transform="translate(146.75,192.35413) scale(0.12515,0.12783)" font-size="40" xml:space="preserve" fill="#ffffff" fill-rule="nonzero" stroke="none" stroke-width="1" stroke-linecap="butt" stroke-linejoin="miter" stroke-miterlimit="10" stroke-dasharray="" stroke-dashoffset="0" font-family="Sans Serif" font-weight="normal" text-anchor="start" style="mix-blend-mode: normal"><tspan x="0" dy="0">Nothing here yet... :( we will tell you when there has been an update</tspan></text><path d="M88.52151,176.50396l-1.60119,-5.03233h0.82468l0.96914,3.14821c0.02809,0.07625 0.05418,0.16654 0.07825,0.27088c0.02408,0.10434 0.04615,0.20868 0.06621,0.31302c0.02007,0.10434 0.03812,0.20266 0.05418,0.29496c0.01605,0.0923 0.0321,0.16654 0.04816,0.22272l-0.21068,-0.00602c0.07223,-0.25683 0.12842,-0.45347 0.16855,-0.58991c0.04013,-0.14046 0.07223,-0.2468 0.09631,-0.31904c0.02408,-0.07625 0.04615,-0.14046 0.06621,-0.19262l0.90293,-2.26936h0.69827l0.87885,2.26936c0.04816,0.11638 0.09029,0.23075 0.12641,0.34311c0.03612,0.11236 0.06822,0.22473 0.09631,0.33709c0.02809,0.11236 0.0602,0.23075 0.09631,0.35515l-0.19262,0.04816c0.02408,-0.12842 0.04214,-0.22874 0.05418,-0.30098c0.01204,-0.07625 0.02207,-0.13845 0.0301,-0.18661c0.01204,-0.04816 0.02207,-0.09431 0.0301,-0.13845c0.01204,-0.04816 0.02809,-0.10634 0.04816,-0.17457c0.02408,-0.07223 0.05418,-0.17055 0.09029,-0.29496l0.95711,-3.13016h0.83671l-1.60721,5.03233h-0.53574l-1.33032,-3.14821l0.06621,0.0301l-1.28216,3.11812zM94.422,176.50396v-5.32126h0.7404v2.32354l-0.13243,0.08427c0.04816,-0.16453 0.14246,-0.31703 0.28292,-0.45748c0.14046,-0.14447 0.30499,-0.26085 0.4936,-0.34913c0.19262,-0.08829 0.38926,-0.13243 0.58991,-0.13243c0.28894,0 0.52771,0.05618 0.71632,0.16855c0.19262,0.11236 0.33709,0.28493 0.43341,0.51768c0.09631,0.22874 0.14447,0.51768 0.14447,0.86681v2.29946h-0.7404v-2.2513c0,-0.21269 -0.02809,-0.38926 -0.08427,-0.52972c-0.05618,-0.14447 -0.14447,-0.24881 -0.26486,-0.31302c-0.12039,-0.06421 -0.26887,-0.0923 -0.44545,-0.08427c-0.14447,0 -0.2769,0.02408 -0.39729,0.07223c-0.12039,0.04414 -0.22473,0.10835 -0.31302,0.19262c-0.08829,0.08026 -0.15851,0.17457 -0.21068,0.28292c-0.04816,0.10434 -0.07223,0.21871 -0.07223,0.34311v2.28742h-0.36719c-0.0602,0 -0.1224,0 -0.18661,0c-0.06421,0 -0.12641,0 -0.18661,0zM100.14916,176.57619c-0.309,0 -0.59192,-0.08628 -0.84875,-0.25884c-0.25683,-0.17256 -0.4635,-0.40732 -0.62001,-0.70428c-0.1525,-0.29696 -0.22874,-0.63205 -0.22874,-1.00526c0,-0.38124 0.07825,-0.71833 0.23476,-1.01128c0.15651,-0.29295 0.36719,-0.5237 0.63205,-0.69225c0.26887,-0.16855 0.56784,-0.25282 0.89691,-0.25282c0.19664,0 0.37522,0.0301 0.53574,0.09029c0.16453,0.05618 0.307,0.13644 0.42739,0.24078c0.1244,0.10032 0.22473,0.21871 0.30098,0.35515c0.08026,0.13243 0.13042,0.27489 0.15049,0.42739l-0.16253,-0.05418v-0.98118h0.74642v3.77424h-0.74642v-0.89691l0.16855,-0.05418c-0.02809,0.13243 -0.08628,0.26085 -0.17457,0.38525c-0.08829,0.12039 -0.20065,0.22874 -0.33709,0.32505c-0.13644,0.0923 -0.28693,0.16855 -0.45146,0.22874c-0.16453,0.05618 -0.3391,0.08427 -0.5237,0.08427zM100.34178,175.89598c0.22874,0 0.42739,-0.05418 0.59593,-0.16253c0.17256,-0.11236 0.307,-0.26486 0.40331,-0.45748c0.10032,-0.19664 0.15049,-0.41936 0.15049,-0.66817c0,-0.24479 -0.05016,-0.4635 -0.15049,-0.65613c-0.09631,-0.19262 -0.23075,-0.34311 -0.40331,-0.45146c-0.16855,-0.11236 -0.36719,-0.16855 -0.59593,-0.16855c-0.22072,0 -0.41535,0.05618 -0.58389,0.16855c-0.16855,0.10835 -0.30298,0.25884 -0.40331,0.45146c-0.09631,0.19262 -0.14447,0.41134 -0.14447,0.65613c0,0.24881 0.04816,0.47153 0.14447,0.66817c0.10032,0.19262 0.23476,0.34512 0.40331,0.45748c0.16855,0.10835 0.36318,0.16253 0.58389,0.16253zM103.71755,176.50396v-4.73737h0.7404v4.73737zM102.92899,173.45205v-0.72234h2.40179v0.72234zM105.90562,173.09088l-0.27088,-0.33107c0.1846,-0.08829 0.33709,-0.18661 0.45748,-0.29496c0.12039,-0.10835 0.18059,-0.20466 0.18059,-0.28894c0,-0.0602 -0.02609,-0.11437 -0.07825,-0.16253c-0.05217,-0.05217 -0.10032,-0.09631 -0.14447,-0.13243c-0.10434,-0.08427 -0.17457,-0.1545 -0.21068,-0.21068c-0.03612,-0.0602 -0.05418,-0.12039 -0.05418,-0.18059c0,-0.11638 0.04013,-0.20868 0.12039,-0.2769c0.08427,-0.07223 0.19062,-0.10835 0.31904,-0.10835c0.13243,0 0.25282,0.03612 0.36117,0.10835c0.10835,0.06822 0.19262,0.16253 0.25282,0.28292c0.06421,0.12039 0.09631,0.26085 0.09631,0.42137c0,0.1244 -0.02609,0.2468 -0.07825,0.36719c-0.05217,0.12039 -0.12641,0.23476 -0.22272,0.34311c-0.0923,0.10434 -0.20065,0.19664 -0.32505,0.2769c-0.1244,0.08026 -0.25884,0.14246 -0.40331,0.18661zM108.99818,176.57619c-0.31703,0 -0.60195,-0.05418 -0.85477,-0.16253c-0.25282,-0.11236 -0.4635,-0.2769 -0.63205,-0.4936l0.49962,-0.42739c0.14447,0.16453 0.30098,0.28493 0.46952,0.36117c0.17256,0.07223 0.36719,0.10835 0.58389,0.10835c0.08427,0 0.16253,-0.01003 0.23476,-0.0301c0.07625,-0.02007 0.14246,-0.05217 0.19864,-0.09631c0.05618,-0.04414 0.09832,-0.09631 0.12641,-0.15651c0.02809,-0.0602 0.04214,-0.12641 0.04214,-0.19864c0,-0.1244 -0.04615,-0.22473 -0.13845,-0.30098c-0.04816,-0.0321 -0.1244,-0.06822 -0.22874,-0.10835c-0.10032,-0.04013 -0.23275,-0.08227 -0.39729,-0.12641c-0.2769,-0.07223 -0.50363,-0.1525 -0.68021,-0.24078c-0.17657,-0.0923 -0.31302,-0.19664 -0.40933,-0.31302c-0.07223,-0.0923 -0.12641,-0.19062 -0.16253,-0.29496c-0.0321,-0.10835 -0.04816,-0.22874 -0.04816,-0.36117c0,-0.15651 0.03411,-0.30098 0.10233,-0.43341c0.07223,-0.13243 0.16855,-0.2468 0.28894,-0.34311c0.1244,-0.10032 0.26887,-0.17657 0.43341,-0.22874c0.16453,-0.05217 0.34111,-0.07825 0.52972,-0.07825c0.17657,0 0.35114,0.02408 0.5237,0.07223c0.17657,0.04816 0.3391,0.11838 0.48758,0.21068c0.14848,0.08829 0.27289,0.19463 0.37321,0.31904l-0.42137,0.46952c-0.0923,-0.0923 -0.19262,-0.17256 -0.30098,-0.24078c-0.10835,-0.06822 -0.21871,-0.12039 -0.33107,-0.15651c-0.10835,-0.04013 -0.20667,-0.0602 -0.29496,-0.0602c-0.10032,0 -0.19262,0.01003 -0.2769,0.0301c-0.08026,0.01605 -0.14848,0.04414 -0.20466,0.08427c-0.05217,0.03612 -0.09431,0.08427 -0.12641,0.14447c-0.02809,0.05618 -0.04214,0.12039 -0.04214,0.19262c0.00401,0.0602 0.02007,0.11838 0.04816,0.17457c0.02809,0.05618 0.06621,0.10233 0.11437,0.13845c0.05217,0.04013 0.13042,0.08227 0.23476,0.12641c0.10434,0.04013 0.23877,0.08026 0.40331,0.12039c0.23677,0.0602 0.43341,0.12842 0.58991,0.20466c0.15651,0.07223 0.28091,0.15651 0.37321,0.25282c0.09631,0.0923 0.16253,0.19864 0.19864,0.31904c0.04013,0.12039 0.0602,0.25483 0.0602,0.40331c0,0.21269 -0.0622,0.40532 -0.18661,0.57787c-0.12039,0.16855 -0.28493,0.30098 -0.4936,0.39729c-0.20466,0.09631 -0.43341,0.14447 -0.68623,0.14447zM113.19527,176.50396v-3.77424h0.7404v0.77652l-0.13243,0.08427c0.04816,-0.16453 0.14246,-0.31703 0.28292,-0.45748c0.14046,-0.14447 0.30499,-0.26085 0.4936,-0.34913c0.19262,-0.08829 0.38926,-0.13243 0.58991,-0.13243c0.28894,0 0.52771,0.05618 0.71632,0.16855c0.19262,0.11236 0.33709,0.28493 0.43341,0.51768c0.09631,0.22874 0.14447,0.51768 0.14447,0.86681v2.29946h-0.7404v-2.2513c0,-0.21269 -0.02809,-0.38926 -0.08427,-0.52972c-0.05618,-0.14447 -0.14447,-0.24881 -0.26486,-0.31302c-0.12039,-0.06421 -0.26887,-0.0923 -0.44545,-0.08427c-0.14447,0 -0.2769,0.02408 -0.39729,0.07223c-0.12039,0.04414 -0.22473,0.10835 -0.31302,0.19262c-0.08829,0.08026 -0.15851,0.17457 -0.21068,0.28292c-0.04816,0.10434 -0.07223,0.21871 -0.07223,0.34311v2.28742h-0.36719c-0.0602,0 -0.1224,0 -0.18661,0c-0.06421,0 -0.12641,0 -0.18661,0zM119.22942,176.57619c-0.38525,0 -0.72836,-0.08227 -1.02934,-0.2468c-0.29696,-0.16453 -0.53173,-0.39127 -0.70428,-0.68021c-0.16855,-0.28894 -0.25282,-0.62001 -0.25282,-0.99322c0,-0.29696 0.04816,-0.56784 0.14447,-0.81264c0.09631,-0.24479 0.22874,-0.45548 0.39729,-0.63205c0.16855,-0.18059 0.3712,-0.31904 0.60797,-0.41535c0.24078,-0.10032 0.49962,-0.15049 0.77652,-0.15049c0.24479,0 0.47153,0.04615 0.68021,0.13845c0.21269,0.0923 0.39528,0.22072 0.54778,0.38525c0.15651,0.16453 0.2769,0.35916 0.36117,0.58389c0.08427,0.22072 0.1244,0.4615 0.12039,0.72234l-0.00602,0.31904h-3.082l-0.16855,-0.58991h2.60646l-0.10233,0.12039v-0.16855c-0.01605,-0.16052 -0.07023,-0.30298 -0.16253,-0.42739c-0.08829,-0.1244 -0.20266,-0.22272 -0.34311,-0.29496c-0.14046,-0.07223 -0.29094,-0.10835 -0.45146,-0.10835c-0.26085,0 -0.47956,0.05016 -0.65613,0.15049c-0.17657,0.09631 -0.31101,0.24078 -0.40331,0.43341c-0.08829,0.18861 -0.13243,0.42137 -0.13243,0.69827c0,0.26085 0.05418,0.48959 0.16253,0.68623c0.10835,0.19262 0.26285,0.34311 0.4635,0.45146c0.20466,0.10434 0.43742,0.15651 0.69827,0.15651c0.18861,0 0.36318,-0.0301 0.5237,-0.09029c0.16052,-0.06421 0.33509,-0.17858 0.5237,-0.34311l0.37321,0.5237c-0.11638,0.11638 -0.25683,0.21871 -0.42137,0.307c-0.16453,0.08427 -0.3391,0.1525 -0.5237,0.20466c-0.1846,0.04816 -0.36719,0.07223 -0.54778,0.07223zM122.53859,176.50396l-1.28818,-3.77424l0.74642,-0.00602l0.92099,2.82316l-0.16253,-0.01204l0.99924,-2.20917h0.44545l1.00526,2.21519l-0.19262,0.01204l0.92701,-2.82316h0.74642l-1.27012,3.77424h-0.51166l-1.05342,-2.40179l0.16855,0.02408l-0.97516,2.37771zM130.3009,176.50396l-1.28818,-3.77424l0.74642,-0.00602l0.92099,2.82316l-0.16253,-0.01204l0.99924,-2.20917h0.44545l1.00526,2.21519l-0.19262,0.01204l0.92701,-2.82316h0.74642l-1.27012,3.77424h-0.51166l-1.05342,-2.40179l0.16855,0.02408l-0.97516,2.37771zM135.24414,176.50396v-3.77424h0.7404v3.77424zM135.60531,171.89902c-0.15651,0 -0.27891,-0.04013 -0.36719,-0.12039c-0.08427,-0.08427 -0.12641,-0.20065 -0.12641,-0.34913c0,-0.14046 0.04414,-0.25282 0.13243,-0.33709c0.08829,-0.08829 0.20868,-0.13243 0.36117,-0.13243c0.15651,0 0.2769,0.04214 0.36117,0.12641c0.08829,0.08026 0.13243,0.19463 0.13243,0.34311c0,0.14046 -0.04414,0.25483 -0.13243,0.34311c-0.08829,0.08427 -0.20868,0.12641 -0.36117,0.12641zM137.59134,176.50396v-4.73737h0.7404v4.73737zM136.80278,173.45205v-0.72234h2.40179v0.72234zM139.88175,176.50396v-5.32126h0.7404v2.32354l-0.13243,0.08427c0.04816,-0.16453 0.14246,-0.31703 0.28292,-0.45748c0.14046,-0.14447 0.30499,-0.26085 0.4936,-0.34913c0.19262,-0.08829 0.38926,-0.13243 0.58991,-0.13243c0.28894,0 0.52771,0.05618 0.71632,0.16855c0.19262,0.11236 0.33709,0.28493 0.43341,0.51768c0.09631,0.22874 0.14447,0.51768 0.14447,0.86681v2.29946h-0.7404v-2.2513c0,-0.21269 -0.02809,-0.38926 -0.08427,-0.52972c-0.05618,-0.14447 -0.14447,-0.24881 -0.26486,-0.31302c-0.12039,-0.06421 -0.26887,-0.0923 -0.44545,-0.08427c-0.14447,0 -0.2769,0.02408 -0.39729,0.07223c-0.12039,0.04414 -0.22473,0.10835 -0.31302,0.19262c-0.08829,0.08026 -0.15851,0.17457 -0.21068,0.28292c-0.04816,0.10434 -0.07223,0.21871 -0.07223,0.34311v2.28742h-0.36719c-0.0602,0 -0.1224,0 -0.18661,0c-0.06421,0 -0.12641,0 -0.18661,0z" stroke-linecap="square"/><path d="M148.34167,176.77547c-0.24881,0 -0.47956,-0.04414 -0.69225,-0.13243c-0.21269,-0.08829 -0.39729,-0.21068 -0.5538,-0.36719c-0.15651,-0.16052 -0.27891,-0.34713 -0.36719,-0.55982c-0.08829,-0.2167 -0.13243,-0.45548 -0.13243,-0.71632c0,-0.12842 0.01806,-0.27289 0.05418,-0.43341c0.03612,-0.16052 0.09029,-0.33709 0.16253,-0.52972c0.07625,-0.19262 0.16654,-0.39528 0.27088,-0.60797c0.10434,-0.21269 0.22673,-0.43341 0.36719,-0.66215l0.65613,-1.10759h0.75244l0.0301,0.07223l-0.79458,1.33032c-0.14447,0.24479 -0.27289,0.47755 -0.38525,0.69827c-0.11236,0.2167 -0.20667,0.42337 -0.28292,0.62001c-0.07625,0.19262 -0.13243,0.3692 -0.16855,0.52972l-0.17457,-0.7404c0.0923,-0.14848 0.19062,-0.27891 0.29496,-0.39127c0.10434,-0.11638 0.2167,-0.21269 0.33709,-0.28894c0.1244,-0.07625 0.25282,-0.13243 0.38525,-0.16855c0.13644,-0.04013 0.2769,-0.0602 0.42137,-0.0602c0.2769,0 0.53173,0.07625 0.76448,0.22874c0.23275,0.14848 0.41936,0.34913 0.55982,0.60195c0.14046,0.24881 0.21068,0.52169 0.21068,0.81866c0,0.35716 -0.07424,0.67619 -0.22272,0.95711c-0.14447,0.28091 -0.34713,0.50363 -0.60797,0.66817c-0.25683,0.16052 -0.55179,0.24078 -0.88487,0.24078zM148.34167,176.05915c0.1846,0 0.34913,-0.04414 0.4936,-0.13243c0.14848,-0.0923 0.26486,-0.21871 0.34913,-0.37923c0.08427,-0.16052 0.12641,-0.34311 0.12641,-0.54778c0,-0.17657 -0.04414,-0.34311 -0.13243,-0.49962c-0.08427,-0.15651 -0.19864,-0.28091 -0.34311,-0.37321c-0.14447,-0.09631 -0.30499,-0.14447 -0.48156,-0.14447c-0.19664,0 -0.3712,0.04615 -0.5237,0.13845c-0.1525,0.08829 -0.27289,0.20868 -0.36117,0.36117c-0.08427,0.1525 -0.12641,0.32305 -0.12641,0.51166c0,0.20065 0.04214,0.38124 0.12641,0.54176c0.08829,0.16052 0.20667,0.28894 0.35515,0.38525c0.14848,0.0923 0.32104,0.13845 0.51768,0.13845zM151.12906,176.85372c-0.15651,0 -0.27891,-0.04615 -0.36719,-0.13845c-0.08427,-0.0923 -0.12641,-0.22473 -0.12641,-0.39729c0,-0.16052 0.04414,-0.29094 0.13243,-0.39127c0.0923,-0.10032 0.21269,-0.15049 0.36117,-0.15049c0.16052,0 0.28292,0.04816 0.36719,0.14447c0.08829,0.0923 0.13243,0.22473 0.13243,0.39729c0,0.15651 -0.04615,0.28493 -0.13845,0.38525c-0.0923,0.10032 -0.21269,0.15049 -0.36117,0.15049zM154.12819,176.8477c-0.38525,0 -0.71632,-0.10434 -0.99322,-0.31302c-0.27289,-0.21269 -0.48357,-0.51166 -0.63205,-0.89691c-0.14848,-0.38525 -0.22272,-0.84474 -0.22272,-1.37847c0,-0.52972 0.07424,-0.9872 0.22272,-1.37245c0.14848,-0.38926 0.35916,-0.68823 0.63205,-0.89691c0.2769,-0.21269 0.60797,-0.31904 0.99322,-0.31904c0.38124,0 0.7103,0.10634 0.9872,0.31904c0.28091,0.20868 0.49561,0.50765 0.64409,0.89691c0.14848,0.38525 0.22272,0.84273 0.22272,1.37245c0,0.53373 -0.07424,0.99322 -0.22272,1.37847c-0.14848,0.38525 -0.36318,0.68422 -0.64409,0.89691c-0.2769,0.20868 -0.60597,0.31302 -0.9872,0.31302zM154.12819,176.14342c0.34913,0 0.618,-0.16453 0.80662,-0.4936c0.19262,-0.32907 0.28894,-0.79257 0.28894,-1.39051c0,-0.59794 -0.09631,-1.06144 -0.28894,-1.39051c-0.18861,-0.32907 -0.45748,-0.4936 -0.80662,-0.4936c-0.34913,0 -0.62001,0.16453 -0.81264,0.4936c-0.19262,0.32907 -0.28894,0.79257 -0.28894,1.39051c0,0.59794 0.09631,1.06144 0.28894,1.39051c0.19262,0.32907 0.4635,0.4936 0.81264,0.4936zM157.13048,176.85372c-0.15651,0 -0.27891,-0.04615 -0.36719,-0.13845c-0.08427,-0.0923 -0.12641,-0.22473 -0.12641,-0.39729c0,-0.16052 0.04414,-0.29094 0.13243,-0.39127c0.0923,-0.10032 0.21269,-0.15049 0.36117,-0.15049c0.16052,0 0.28292,0.04816 0.36719,0.14447c0.08829,0.0923 0.13243,0.22473 0.13243,0.39729c0,0.15651 -0.04615,0.28493 -0.13845,0.38525c-0.0923,0.10032 -0.21269,0.15049 -0.36117,0.15049zM160.1296,176.8477c-0.38525,0 -0.71632,-0.10434 -0.99322,-0.31302c-0.27289,-0.21269 -0.48357,-0.51166 -0.63205,-0.89691c-0.14848,-0.38525 -0.22272,-0.84474 -0.22272,-1.37847c0,-0.52972 0.07424,-0.9872 0.22272,-1.37245c0.14848,-0.38926 0.35916,-0.68823 0.63205,-0.89691c0.2769,-0.21269 0.60797,-0.31904 0.99322,-0.31904c0.38124,0 0.7103,0.10634 0.9872,0.31904c0.28091,0.20868 0.49561,0.50765 0.64409,0.89691c0.14848,0.38525 0.22272,0.84273 0.22272,1.37245c0,0.53373 -0.07424,0.99322 -0.22272,1.37847c-0.14848,0.38525 -0.36318,0.68422 -0.64409,0.89691c-0.2769,0.20868 -0.60597,0.31302 -0.9872,0.31302zM160.1296,176.14342c0.34913,0 0.618,-0.16453 0.80662,-0.4936c0.19262,-0.32907 0.28894,-0.79257 0.28894,-1.39051c0,-0.59794 -0.09631,-1.06144 -0.28894,-1.39051c-0.18861,-0.32907 -0.45748,-0.4936 -0.80662,-0.4936c-0.34913,0 -0.62001,0.16453 -0.81264,0.4936c-0.19262,0.32907 -0.28894,0.79257 -0.28894,1.39051c0,0.59794 0.09631,1.06144 0.28894,1.39051c0.19262,0.32907 0.4635,0.4936 0.81264,0.4936zM163.69772,175.25855l-0.18661,-1.01128c0.18861,-0.04816 0.35716,-0.10233 0.50564,-0.16253c0.14848,-0.0602 0.2769,-0.1244 0.38525,-0.19262c0.10835,-0.07223 0.19864,-0.14848 0.27088,-0.22874c0.07223,-0.08026 0.1244,-0.16654 0.15651,-0.25884c0.03612,-0.09631 0.05418,-0.19664 0.05418,-0.30098c0,-0.14046 -0.03812,-0.26486 -0.11437,-0.37321c-0.07223,-0.11236 -0.17256,-0.19864 -0.30098,-0.25884c-0.12842,-0.06421 -0.27489,-0.09631 -0.43943,-0.09631c-0.18861,0 -0.37321,0.06621 -0.5538,0.19864c-0.18059,0.13243 -0.33509,0.31904 -0.4635,0.55982l-0.54176,-0.45748c0.20868,-0.31302 0.45548,-0.55781 0.7404,-0.73438c0.28493,-0.17657 0.58189,-0.26486 0.89089,-0.26486c0.30499,0 0.57587,0.06421 0.81264,0.19262c0.24078,0.1244 0.4314,0.29496 0.57186,0.51166c0.14046,0.21269 0.21068,0.45347 0.21068,0.72234c0,0.15651 -0.0321,0.31101 -0.09631,0.4635c-0.06421,0.14848 -0.15651,0.29094 -0.2769,0.42739c-0.12039,0.13243 -0.26085,0.25282 -0.42137,0.36117c-0.16052,0.10434 -0.33509,0.19062 -0.5237,0.25884l-0.12641,0.64409zM163.45092,176.31799c0,-0.16052 0.04414,-0.29094 0.13243,-0.39127c0.0923,-0.10032 0.21269,-0.15049 0.36117,-0.15049c0.15651,0 0.2769,0.04816 0.36117,0.14447c0.08829,0.0923 0.13243,0.22473 0.13243,0.39729c0,0.15651 -0.04615,0.28493 -0.13845,0.38525c-0.08829,0.10032 -0.20667,0.15049 -0.35515,0.15049c-0.15651,0 -0.27891,-0.04615 -0.36719,-0.13845c-0.08427,-0.0923 -0.12641,-0.22473 -0.12641,-0.39729z" stroke-linecap="square"/></g></g></svg>