<svg version="1.1" xmlns="http://www.w3.org/2000/svg" xmlns:xlink="http://www.w3.org/1999/xlink" width="291.53172" height="22.27988" viewBox="0,0,291.53172,22.27988"><g transform="translate(-36.24226,-279.79259)"><g data-paper-data="{&quot;isPaintingLayer&quot;:true}" fill-opacity="0.59677" fill="#7f7f7f" fill-rule="evenodd" stroke="none" stroke-width="1" stroke-linecap="square" stroke-linejoin="miter" stroke-miterlimit="10" stroke-dasharray="" stroke-dashoffset="0" style="mix-blend-mode: normal"><g><path d="M36.24227,290.93253v0c0,-6.15241 4.98752,-11.13994 11.13994,-11.13994v0c2.9545,0 5.78798,1.17367 7.87712,3.26281c2.08914,2.08914 3.26281,4.92263 3.26281,7.87712v0c0,6.15242 -4.98752,11.13994 -11.13994,11.13994v0c-6.15242,0 -11.13994,-4.98752 -11.13994,-11.13994z"/><path d="M305.49411,290.93253v0c0,-6.15241 4.98752,-11.13994 11.13994,-11.13994v0c2.95449,0 5.78799,1.17367 7.87712,3.26281c2.08915,2.08914 3.26282,4.92263 3.26282,7.87712v0c0,6.15242 -4.98752,11.13994 -11.13994,11.13994v0c-6.15242,0 -11.13994,-4.98752 -11.13994,-11.13994z"/><path d="M47.23865,279.79259h268.5548v22.27988h-268.5548z"/></g></g></g></svg>