<svg version="1.1" xmlns="http://www.w3.org/2000/svg" xmlns:xlink="http://www.w3.org/1999/xlink" width="507.86575" height="373.565" viewBox="0,0,507.86575,373.565"><g transform="translate(17.11444,7.57515)"><g data-paper-data="{&quot;isPaintingLayer&quot;:true}" stroke="none" stroke-width="1" stroke-linejoin="miter" stroke-miterlimit="10" stroke-dasharray="" stroke-dashoffset="0" style="mix-blend-mode: normal"><path d="M-17.11443,15.51492c0,-12.7523 9.69038,-23.09006 21.64406,-23.09006h464.57762c5.74037,0 11.24563,2.43269 15.30467,6.76292c4.05907,4.33023 6.3394,10.20326 6.3394,16.32714v327.38488c0,12.7523 -9.69036,23.09006 -21.64407,23.09006h-464.57761c-11.95367,0 -21.64406,-10.33775 -21.64406,-23.09006z" fill="#171717" fill-rule="evenodd" stroke-linecap="square"/><path d="M21.76117,78.81901h217.76738v40.19673h-217.76738z" fill-opacity="0" fill="#000000" fill-rule="evenodd" stroke-linecap="square"/><text transform="translate(246.05772,18.04576) scale(0.17628,0.17628)" font-size="40" xml:space="preserve" fill="#ffffff" fill-rule="nonzero" stroke="none" stroke-width="1" stroke-linecap="butt" stroke-linejoin="miter" stroke-miterlimit="10" stroke-dasharray="" stroke-dashoffset="0" font-family="Sans Serif" font-weight="normal" text-anchor="start" style="mix-blend-mode: normal"><tspan x="0" dy="0">Files</tspan></text><path d="M155.41828,237.46509h158.8149v17.58209h-158.8149z" fill-opacity="0.58707" fill="#454545" fill-rule="evenodd" stroke-linecap="square"/><path d="M155.41828,255.04718h-9.09699c-5.02413,0 -9.097,-3.93589 -9.097,-8.79104c0,-4.85516 4.07286,-8.79105 9.097,-8.79105v0h9.09699z" fill-opacity="0.58707" fill="#454545" fill-rule="evenodd" stroke-linecap="square"/><path d="M314.23318,237.46509h9.09699v0c5.02414,0 9.09699,3.93589 9.09699,8.79105c0,4.85515 -4.07286,8.79104 -9.09699,8.79104h-9.09699z" fill-opacity="0.58707" fill="#454545" fill-rule="evenodd" stroke-linecap="square"/><text transform="translate(138.2593,229.14166) scale(0.25288,0.25288)" font-size="40" xml:space="preserve" fill="#ffffff" fill-rule="nonzero" stroke="none" stroke-width="1" stroke-linecap="butt" stroke-linejoin="miter" stroke-miterlimit="10" stroke-dasharray="" stroke-dashoffset="0" font-family="Sans Serif" font-weight="normal" text-anchor="start" style="mix-blend-mode: normal"><tspan x="0" dy="0">File Name:</tspan></text><path d="M421.42896,82.34094c5.66931,0 10.2652,5.24486 10.2652,11.71471v76.32597c0,3.10693 -1.08151,6.08665 -3.00661,8.28358c-1.9251,2.19693 -4.5361,3.43116 -7.25859,3.43116h-41.05956c-5.66931,0 -10.26519,-5.24486 -10.26519,-11.71473v-76.32597c0,-6.46985 4.59588,-11.71471 10.26519,-11.71471z" fill-opacity="0.4002" fill="#717171" fill-rule="evenodd" stroke-linecap="square"/><text transform="translate(17.83816,67.3539) scale(0.29846,0.29846)" font-size="40" xml:space="preserve" fill="#ffffff" fill-rule="nonzero" stroke="none" stroke-width="1" stroke-linecap="butt" stroke-linejoin="miter" stroke-miterlimit="10" stroke-dasharray="" stroke-dashoffset="0" font-family="Sans Serif" font-weight="normal" text-anchor="start" style="mix-blend-mode: normal"><tspan x="0" dy="0">PolyOS Drive (MainFS) //Main/</tspan></text></g></g></svg>