<svg version="1.1" xmlns="http://www.w3.org/2000/svg" xmlns:xlink="http://www.w3.org/1999/xlink" width="85.50205" height="84.19585" viewBox="0,0,85.50205,84.19585"><g transform="translate(-197.24897,-137.90207)"><g data-paper-data="{&quot;isPaintingLayer&quot;:true}" stroke="none" stroke-width="1" stroke-linejoin="miter" stroke-miterlimit="10" stroke-dasharray="" stroke-dashoffset="0" style="mix-blend-mode: normal"><path d="M197.24898,146.66855v0c0,-4.84159 3.92488,-8.76647 8.76647,-8.76647h67.96911c2.32501,0 4.5548,0.92362 6.19882,2.56764c1.64403,1.64403 2.56765,3.87382 2.56765,6.19882v66.66292c0,4.8416 -3.92489,8.76647 -8.76647,8.76647h-67.96911c-4.84159,0 -8.76647,-3.92488 -8.76647,-8.76647z" fill-opacity="0.3474" fill="#555555" fill-rule="evenodd" stroke-linecap="square"/><g fill="#ffffff" fill-rule="nonzero" stroke-linecap="butt"><path d="M258.63921,187.48081h4.79413v7.1912c0,2.63678 -2.15736,4.79414 -4.79413,4.79414h-9.58827v4.79413h-19.17654v-4.79413h-9.58827c-2.66074,0 -4.79414,-2.15736 -4.79414,-4.79414v-28.76481c0,-2.66074 2.13339,-4.79414 4.79414,-4.79414h19.17654v4.79414h-19.17654v28.76482h38.35308z"/><path d="M239.46268,175.49547l3.37987,-3.37986l6.2084,6.18444v-17.18698h4.79413v17.18698l6.2084,-6.18444l3.37986,3.37986l-11.98533,11.98534z"/></g></g></g></svg>