<svg version="1.1" xmlns="http://www.w3.org/2000/svg" xmlns:xlink="http://www.w3.org/1999/xlink" width="247.86098" height="200.43457" viewBox="0,0,247.86098,200.43457"><g transform="translate(-93.91105,-79.78272)"><g data-paper-data="{&quot;isPaintingLayer&quot;:true}" stroke="none" stroke-width="1" stroke-linejoin="miter" stroke-miterlimit="10" stroke-dasharray="" stroke-dashoffset="0" style="mix-blend-mode: normal"><path d="M138.22798,100.65197v0c0,-11.52576 9.34348,-20.86925 20.86925,-20.86925h161.80556c5.53487,0 10.84302,2.19872 14.75677,6.11247c3.91374,3.91374 6.11247,9.22191 6.11247,14.75678v158.69607c0,11.52577 -9.34349,20.86925 -20.86925,20.86925h-161.80556c-11.52576,0 -20.86925,-9.34348 -20.86925,-20.86925z" fill-opacity="0.70186" fill="#f2f2f2" fill-rule="evenodd" stroke-linecap="square"/><path d="M148.50612,91.60739v0c0,-1.56692 1.27023,-2.83715 2.83714,-2.83715h21.99725c0.75246,0 1.47409,0.29892 2.00616,0.83099c0.53207,0.53207 0.83099,1.25371 0.83099,2.00617v21.57451c0,1.56692 -1.27023,2.83714 -2.83714,2.83714h-21.99725c-1.56692,0 -2.83714,-1.27023 -2.83714,-2.83714z" fill-opacity="0.81993" fill="#969696" fill-rule="evenodd" stroke-linecap="square"/><path d="M186.2959,91.93549v0c0,-1.56692 1.27023,-2.83715 2.83714,-2.83715h21.99724c0.75246,0 1.47409,0.29892 2.00616,0.83099c0.53207,0.53207 0.83099,1.25371 0.83099,2.00617v21.57451c0,1.56692 -1.27024,2.83714 -2.83714,2.83714h-21.99724c-1.56692,0 -2.83714,-1.27023 -2.83714,-2.83714z" fill-opacity="0.81993" fill="#969696" fill-rule="evenodd" stroke-linecap="square"/><path d="M226.605,91.93549v0c0,-1.56692 1.27024,-2.83715 2.83715,-2.83715h21.99724c0.75246,0 1.4741,0.29892 2.00617,0.83099c0.53207,0.53207 0.83099,1.25371 0.83099,2.00617v21.57451c0,1.56692 -1.27024,2.83714 -2.83715,2.83714h-21.99724c-1.56692,0 -2.83715,-1.27023 -2.83715,-2.83714z" fill-opacity="0.81993" fill="#969696" fill-rule="evenodd" stroke-linecap="square"/><path d="M264.39478,91.93549v0c0,-1.56692 1.27023,-2.83715 2.83714,-2.83715h21.99724c0.75246,0 1.4741,0.29892 2.00617,0.83099c0.53207,0.53207 0.83099,1.25371 0.83099,2.00617v21.57451c0,1.56692 -1.27024,2.83714 -2.83714,2.83714h-21.99724c-1.56692,0 -2.83714,-1.27023 -2.83714,-2.83714z" fill-opacity="0.81993" fill="#969696" fill-rule="evenodd" stroke-linecap="square"/><path d="M226.605,129.72528v0c0,-1.56692 1.27024,-2.83714 2.83715,-2.83714h21.99724c0.75246,0 1.4741,0.29892 2.00617,0.83099c0.53207,0.53207 0.83099,1.25371 0.83099,2.00617v21.57451c0,1.56692 -1.27024,2.83714 -2.83715,2.83714h-21.99724c-1.56692,0 -2.83715,-1.27023 -2.83715,-2.83714z" fill-opacity="0.81993" fill="#969696" fill-rule="evenodd" stroke-linecap="square"/><path d="M264.39478,129.72528v0c0,-1.56692 1.27023,-2.83714 2.83714,-2.83714h21.99724c0.75246,0 1.4741,0.29892 2.00617,0.83099c0.53207,0.53207 0.83099,1.25371 0.83099,2.00617v21.57451c0,1.56692 -1.27024,2.83714 -2.83714,2.83714h-21.99724c-1.56692,0 -2.83714,-1.27023 -2.83714,-2.83714z" fill-opacity="0.81993" fill="#969696" fill-rule="evenodd" stroke-linecap="square"/><path d="M148.50612,168.77472v0c0,-1.56692 1.27023,-2.83715 2.83714,-2.83715h21.99725c0.75246,0 1.47409,0.29892 2.00616,0.83099c0.53207,0.53207 0.83099,1.25371 0.83099,2.00617v21.57451c0,1.56692 -1.27023,2.83714 -2.83714,2.83714h-21.99725c-1.56692,0 -2.83714,-1.27024 -2.83714,-2.83714z" fill-opacity="0.81993" fill="#969696" fill-rule="evenodd" stroke-linecap="square"/><path d="M186.2959,168.77472v0c0,-1.56692 1.27023,-2.83715 2.83714,-2.83715h21.99724c0.75246,0 1.47409,0.29892 2.00616,0.83099c0.53207,0.53207 0.83099,1.25371 0.83099,2.00617v21.57451c0,1.56692 -1.27024,2.83714 -2.83714,2.83714h-21.99724c-1.56692,0 -2.83714,-1.27024 -2.83714,-2.83714z" fill-opacity="0.81993" fill="#969696" fill-rule="evenodd" stroke-linecap="square"/><path d="M148.50612,206.5645v0c0,-1.56692 1.27023,-2.83715 2.83714,-2.83715h21.99725c0.75246,0 1.47409,0.29892 2.00616,0.83099c0.53207,0.53207 0.83099,1.25371 0.83099,2.00617v21.5745c0,1.56692 -1.27023,2.83714 -2.83714,2.83714h-21.99725c-1.56692,0 -2.83714,-1.27023 -2.83714,-2.83714z" fill-opacity="0.81993" fill="#969696" fill-rule="evenodd" stroke-linecap="square"/><path d="M186.2959,206.5645v0c0,-1.56692 1.27023,-2.83715 2.83714,-2.83715h21.99724c0.75246,0 1.47409,0.29892 2.00616,0.83099c0.53207,0.53207 0.83099,1.25371 0.83099,2.00617v21.5745c0,1.56692 -1.27024,2.83714 -2.83714,2.83714h-21.99724c-1.56692,0 -2.83714,-1.27023 -2.83714,-2.83714z" fill-opacity="0.81993" fill="#969696" fill-rule="evenodd" stroke-linecap="square"/><path d="M226.605,168.77472v0c0,-1.56692 1.27024,-2.83715 2.83715,-2.83715h21.99724c0.75246,0 1.4741,0.29892 2.00617,0.83099c0.53207,0.53207 0.83099,1.25371 0.83099,2.00617v21.57451c0,1.56692 -1.27024,2.83714 -2.83715,2.83714h-21.99724c-1.56692,0 -2.83715,-1.27024 -2.83715,-2.83714z" fill-opacity="0.81993" fill="#969696" fill-rule="evenodd" stroke-linecap="square"/><path d="M264.39478,168.77472v0c0,-1.56692 1.27023,-2.83715 2.83714,-2.83715h21.99724c0.75246,0 1.4741,0.29892 2.00617,0.83099c0.53207,0.53207 0.83099,1.25371 0.83099,2.00617v21.57451c0,1.56692 -1.27024,2.83714 -2.83714,2.83714h-21.99724c-1.56692,0 -2.83714,-1.27024 -2.83714,-2.83714z" fill-opacity="0.81993" fill="#969696" fill-rule="evenodd" stroke-linecap="square"/><path d="M226.605,206.5645v0c0,-1.56692 1.27024,-2.83715 2.83715,-2.83715h21.99724c0.75246,0 1.4741,0.29892 2.00617,0.83099c0.53207,0.53207 0.83099,1.25371 0.83099,2.00617v21.5745c0,1.56692 -1.27024,2.83714 -2.83715,2.83714h-21.99724c-1.56692,0 -2.83715,-1.27023 -2.83715,-2.83714z" fill-opacity="0.81993" fill="#969696" fill-rule="evenodd" stroke-linecap="square"/><path d="M264.39478,206.5645v0c0,-1.56692 1.27023,-2.83715 2.83714,-2.83715h21.99724c0.75246,0 1.4741,0.29892 2.00617,0.83099c0.53207,0.53207 0.83099,1.25371 0.83099,2.00617v21.5745c0,1.56692 -1.27024,2.83714 -2.83714,2.83714h-21.99724c-1.56692,0 -2.83714,-1.27023 -2.83714,-2.83714z" fill-opacity="0.81993" fill="#969696" fill-rule="evenodd" stroke-linecap="square"/><path d="M148.50612,129.72528v0c0,-1.56692 1.27023,-2.83714 2.83714,-2.83714h21.99725c0.75246,0 1.47409,0.29892 2.00616,0.83099c0.53207,0.53207 0.83099,1.25371 0.83099,2.00617v21.57451c0,1.56692 -1.27023,2.83714 -2.83714,2.83714h-21.99725c-1.56692,0 -2.83714,-1.27023 -2.83714,-2.83714z" fill-opacity="0.81993" fill="#969696" fill-rule="evenodd" stroke-linecap="square"/><path d="M186.2959,129.72528v0c0,-1.56692 1.27023,-2.83714 2.83714,-2.83714h21.99724c0.75246,0 1.47409,0.29892 2.00616,0.83099c0.53207,0.53207 0.83099,1.25371 0.83099,2.00617v21.57451c0,1.56692 -1.27024,2.83714 -2.83714,2.83714h-21.99724c-1.56692,0 -2.83714,-1.27023 -2.83714,-2.83714z" fill-opacity="0.81993" fill="#969696" fill-rule="evenodd" stroke-linecap="square"/><path d="M302.44642,91.93549v0c0,-1.56691 1.27024,-2.83715 2.83715,-2.83715h21.99725c0.75246,0 1.47409,0.29892 2.00616,0.83099c0.53207,0.53207 0.83099,1.25371 0.83099,2.00617v21.57451c0,1.56692 -1.27024,2.83714 -2.83714,2.83714h-21.99725c-1.56691,0 -2.83715,-1.27024 -2.83715,-2.83714z" fill-opacity="0.81993" fill="#969696" fill-rule="evenodd" stroke-linecap="square"/><path d="M302.44642,129.72528v0c0,-1.56691 1.27024,-2.83714 2.83715,-2.83714h21.99725c0.75246,0 1.47409,0.29892 2.00616,0.83099c0.53207,0.53207 0.83099,1.25371 0.83099,2.00617v21.5745c0,1.56692 -1.27024,2.83715 -2.83714,2.83715h-21.99725c-1.56691,0 -2.83715,-1.27024 -2.83715,-2.83715z" fill-opacity="0.81993" fill="#969696" fill-rule="evenodd" stroke-linecap="square"/><path d="M302.44642,168.77472v0c0,-1.56691 1.27024,-2.83715 2.83715,-2.83715h21.99725c0.75246,0 1.47409,0.29892 2.00616,0.83099c0.53207,0.53207 0.83099,1.25371 0.83099,2.00617v21.57451c0,1.56692 -1.27024,2.83714 -2.83714,2.83714h-21.99725c-1.56691,0 -2.83715,-1.27024 -2.83715,-2.83714z" fill-opacity="0.81993" fill="#969696" fill-rule="evenodd" stroke-linecap="square"/><path d="M302.44642,206.5645v0c0,-1.56691 1.27024,-2.83715 2.83715,-2.83715h21.99725c0.75246,0 1.47409,0.29891 2.00616,0.83098c0.53207,0.53207 0.83099,1.25371 0.83099,2.00617v21.5745c0,1.56692 -1.27024,2.83714 -2.83714,2.83714h-21.99725c-1.56691,0 -2.83715,-1.27024 -2.83715,-2.83714z" fill-opacity="0.81993" fill="#969696" fill-rule="evenodd" stroke-linecap="square"/><text transform="translate(94.16105,215.59848) scale(0.5,0.5)" font-size="40" xml:space="preserve" fill="#000000" fill-rule="nonzero" stroke="none" stroke-width="1" stroke-linecap="butt" stroke-linejoin="miter" stroke-miterlimit="10" stroke-dasharray="" stroke-dashoffset="0" font-family="Sans Serif" font-weight="normal" text-anchor="start" style="mix-blend-mode: normal"><tspan x="0" dy="0"> </tspan></text><path d="M210.18215,259.00216v-8.7953h1.33613l3.19829,5.21827l-0.64176,-0.01052l3.24037,-5.20775h1.26248v8.7953h-1.35717v-3.6086c0,-0.75047 0.01754,-1.4273 0.0526,-2.03049c0.03507,-0.60318 0.1017,-1.20287 0.19989,-1.79904l0.16833,0.46291l-2.87215,4.45025h-0.83113l-2.78798,-4.39765l0.13677,-0.51552c0.09118,0.5611 0.1543,1.13975 0.18937,1.73592c0.04208,0.58916 0.06313,1.28703 0.06313,2.09361v3.6086zM223.67615,259.1284c-0.64527,0 -1.22391,-0.14729 -1.73592,-0.44187c-0.505,-0.30159 -0.90478,-0.70839 -1.19935,-1.2204c-0.28757,-0.51902 -0.43135,-1.10818 -0.43135,-1.76748c0,-0.65929 0.14379,-1.24495 0.43135,-1.75696c0.29458,-0.51902 0.69436,-0.92582 1.19935,-1.2204c0.512,-0.30159 1.09064,-0.45239 1.73592,-0.45239c0.63124,0 1.19936,0.1508 1.70435,0.45239c0.512,0.29458 0.9153,0.70138 1.20988,1.2204c0.29458,0.512 0.44187,1.09766 0.44187,1.75696c0,0.6593 -0.14729,1.24846 -0.44187,1.76748c-0.29458,0.512 -0.69787,0.91881 -1.20988,1.2204c-0.505,0.29458 -1.07312,0.44187 -1.70435,0.44187zM223.67615,257.95009c0.39278,0 0.74346,-0.09819 1.05207,-0.29458c0.30861,-0.19639 0.55059,-0.46292 0.72593,-0.79958c0.17534,-0.34368 0.25951,-0.72944 0.2525,-1.15727c0.00701,-0.43485 -0.07715,-0.82062 -0.2525,-1.15727c-0.17534,-0.34367 -0.41732,-0.6102 -0.72593,-0.79957c-0.30861,-0.19638 -0.65929,-0.29458 -1.05207,-0.29458c-0.39278,0 -0.74697,0.0982 -1.06259,0.29458c-0.31562,0.19638 -0.5611,0.46642 -0.73645,0.81009c-0.17534,0.33666 -0.25951,0.71892 -0.2525,1.14676c-0.00701,0.42784 0.07716,0.8136 0.2525,1.15727c0.17534,0.33666 0.42083,0.60319 0.73645,0.79958c0.31562,0.19639 0.66981,0.29458 1.06259,0.29458zM228.43477,259.00216v-6.59648h1.30457v2.07258l-0.12625,-0.50499c0.09118,-0.31562 0.24898,-0.60319 0.47343,-0.8627c0.22445,-0.25951 0.48045,-0.46291 0.76801,-0.6102c0.28757,-0.1543 0.58565,-0.23145 0.89426,-0.23145c0.14028,0 0.27354,0.01403 0.39979,0.04208c0.13326,0.02104 0.23847,0.0491 0.31562,0.08417l-0.33666,1.40977c-0.0982,-0.04208 -0.21041,-0.07715 -0.33666,-0.10521c-0.11924,-0.03507 -0.23847,-0.0526 -0.35771,-0.0526c-0.22445,0 -0.43836,0.04559 -0.64176,0.13677c-0.2034,0.08417 -0.38576,0.20691 -0.54708,0.36822c-0.1543,0.1543 -0.27704,0.33316 -0.36822,0.53655c-0.09118,0.2034 -0.13677,0.42784 -0.13677,0.67333v3.64016zM236.29266,259.1284c-0.67333,0 -1.273,-0.14378 -1.79904,-0.43135c-0.51902,-0.28756 -0.92933,-0.68384 -1.23092,-1.18884c-0.29458,-0.505 -0.44187,-1.08363 -0.44187,-1.73592c0,-0.51902 0.08417,-0.99245 0.2525,-1.42029c0.16833,-0.42784 0.39978,-0.79607 0.69436,-1.10468c0.29458,-0.31562 0.64878,-0.55759 1.06259,-0.72592c0.42083,-0.17534 0.87322,-0.26302 1.35717,-0.26302c0.42784,0 0.82413,0.08066 1.18884,0.24197c0.37173,0.16132 0.69085,0.38576 0.95738,0.67333c0.27354,0.28757 0.48395,0.62774 0.63124,1.02051c0.14729,0.38576 0.21743,0.80658 0.21041,1.26248l-0.01052,0.55759h-5.38659l-0.29458,-1.03102h4.55545l-0.17885,0.21042v-0.29458c-0.02805,-0.28055 -0.12274,-0.52955 -0.28406,-0.74697c-0.1543,-0.21742 -0.3542,-0.38927 -0.59968,-0.51552c-0.24549,-0.12625 -0.5085,-0.18937 -0.78905,-0.18937c-0.4559,0 -0.83815,0.08767 -1.14676,0.26301c-0.30861,0.16833 -0.54357,0.42083 -0.70488,0.75749c-0.1543,0.32965 -0.23146,0.73645 -0.23146,1.2204c0,0.4559 0.09468,0.85568 0.28405,1.19936c0.18937,0.33666 0.45941,0.59968 0.8101,0.78905c0.35771,0.18236 0.7645,0.27354 1.2204,0.27354c0.32965,0 0.63475,-0.0526 0.9153,-0.15781c0.28055,-0.11222 0.58565,-0.31212 0.9153,-0.59968l0.65229,0.9153c-0.2034,0.2034 -0.44889,0.38226 -0.73645,0.53656c-0.28757,0.14729 -0.59266,0.26653 -0.9153,0.35771c-0.32263,0.08416 -0.64177,0.12624 -0.95739,0.12624zM246.63456,259.1284c-0.54006,0 -1.03454,-0.1508 -1.48342,-0.45239c-0.44888,-0.30159 -0.81009,-0.7119 -1.08363,-1.23092c-0.26653,-0.51902 -0.39979,-1.10467 -0.39979,-1.75696c0,-0.66631 0.13677,-1.25547 0.41031,-1.76747c0.27354,-0.512 0.64176,-0.9153 1.10467,-1.20988c0.46992,-0.29458 0.99245,-0.44187 1.56758,-0.44187c0.34367,0 0.65579,0.0526 0.93634,0.15781c0.28755,0.0982 0.53653,0.23847 0.74695,0.42083c0.21742,0.17534 0.39278,0.38225 0.52604,0.62072c0.14028,0.23146 0.22795,0.48045 0.26301,0.74697l-0.28406,-0.09468v-1.71488h1.30456v6.59648h-1.30456v-1.56759l0.29458,-0.09469c-0.04909,0.23145 -0.1508,0.4559 -0.3051,0.67333c-0.1543,0.21042 -0.35068,0.39978 -0.58916,0.56811c-0.23845,0.16132 -0.50147,0.29458 -0.78903,0.39979c-0.28757,0.09819 -0.59267,0.14729 -0.9153,0.14729zM246.97122,257.93957c0.39979,0 0.74697,-0.09469 1.04155,-0.28406c0.30158,-0.19639 0.53654,-0.46292 0.70487,-0.79958c0.17534,-0.34368 0.26302,-0.73294 0.26302,-1.1678c0,-0.42784 -0.08767,-0.81009 -0.26302,-1.14675c-0.16833,-0.33666 -0.40329,-0.59968 -0.70487,-0.78905c-0.29458,-0.19638 -0.64176,-0.29458 -1.04155,-0.29458c-0.38576,0 -0.72593,0.0982 -1.02051,0.29458c-0.29458,0.18937 -0.52954,0.45239 -0.70488,0.78905c-0.16833,0.33666 -0.2525,0.71891 -0.2525,1.14675c0,0.43486 0.08417,0.82412 0.2525,1.1678c0.17534,0.33666 0.4103,0.60319 0.70488,0.79958c0.29458,0.18937 0.63475,0.28406 1.02051,0.28406zM252.05064,261.7691v-9.36342h1.30457v1.50446l-0.1999,-0.10521c0.04909,-0.2525 0.18938,-0.49447 0.42083,-0.72593c0.23847,-0.23146 0.52604,-0.42083 0.8627,-0.56812c0.34367,-0.14729 0.69436,-0.22093 1.05207,-0.22093c0.59617,0 1.1222,0.14729 1.5781,0.44187c0.46291,0.29458 0.82763,0.69788 1.09416,1.20988c0.27354,0.512 0.4103,1.09766 0.4103,1.75696c0,0.65228 -0.13326,1.23793 -0.39979,1.75695c-0.26653,0.512 -0.63124,0.91881 -1.09416,1.2204c-0.4559,0.29458 -0.97141,0.44187 -1.54654,0.44187c-0.38576,0 -0.761,-0.07716 -1.12571,-0.23146c-0.35771,-0.1543 -0.6628,-0.3542 -0.9153,-0.59968c-0.2525,-0.24548 -0.4068,-0.49798 -0.46291,-0.75749l0.32615,-0.16833v4.40817zM255.31205,257.91852c0.38576,0 0.72944,-0.09469 1.03103,-0.28406c0.30159,-0.19639 0.54006,-0.4594 0.71541,-0.78905c0.17534,-0.33666 0.26302,-0.71892 0.26302,-1.14676c0,-0.42784 -0.08767,-0.80659 -0.26302,-1.13623c-0.16833,-0.32965 -0.4033,-0.58916 -0.70489,-0.77853c-0.29458,-0.19638 -0.64176,-0.29458 -1.04155,-0.29458c-0.39278,0 -0.73995,0.09469 -1.04154,0.28406c-0.30159,0.18937 -0.54007,0.45239 -0.71541,0.78905c-0.17534,0.32965 -0.26301,0.70839 -0.26301,1.13623c0,0.42784 0.08767,0.8101 0.26301,1.14676c0.17534,0.32965 0.41382,0.59267 0.71541,0.78905c0.30159,0.18937 0.64877,0.28406 1.04154,0.28406zM259.97708,261.7691v-9.36342h1.30456v1.50446l-0.19989,-0.10521c0.0491,-0.2525 0.18937,-0.49447 0.42083,-0.72593c0.23847,-0.23146 0.52604,-0.42083 0.8627,-0.56812c0.34368,-0.14729 0.69437,-0.22093 1.05207,-0.22093c0.59617,0 1.12221,0.14729 1.5781,0.44187c0.46291,0.29458 0.82762,0.69788 1.09415,1.20988c0.27354,0.512 0.41031,1.09766 0.41031,1.75696c0,0.65228 -0.13326,1.23793 -0.39979,1.75695c-0.26653,0.512 -0.63124,0.91881 -1.09415,1.2204c-0.4559,0.29458 -0.97141,0.44187 -1.54654,0.44187c-0.38576,0 -0.761,-0.07716 -1.12571,-0.23146c-0.35771,-0.1543 -0.6628,-0.3542 -0.9153,-0.59968c-0.2525,-0.24548 -0.4068,-0.49798 -0.46291,-0.75749l0.32614,-0.16833v4.40817zM263.23849,257.91852c0.38576,0 0.72944,-0.09469 1.03102,-0.28406c0.30159,-0.19639 0.54006,-0.4594 0.7154,-0.78905c0.17534,-0.33666 0.26302,-0.71892 0.26302,-1.14676c0,-0.42784 -0.08768,-0.80659 -0.26302,-1.13623c-0.16833,-0.32965 -0.4033,-0.58916 -0.70488,-0.77853c-0.29458,-0.19638 -0.64176,-0.29458 -1.04154,-0.29458c-0.39277,0 -0.73996,0.09469 -1.04155,0.28406c-0.30159,0.18937 -0.54006,0.45239 -0.71541,0.78905c-0.17534,0.32965 -0.26301,0.70839 -0.26301,1.13623c0,0.42784 0.08767,0.8101 0.26301,1.14676c0.17534,0.32965 0.41382,0.59267 0.71541,0.78905c0.30159,0.18937 0.64878,0.28406 1.04155,0.28406zM270.10234,259.1284c-0.55409,0 -1.05207,-0.09469 -1.49394,-0.28406c-0.44187,-0.19639 -0.81009,-0.48395 -1.10467,-0.8627l0.87322,-0.74697c0.2525,0.28756 0.52604,0.49799 0.82062,0.63125c0.30159,0.12625 0.64176,0.18937 1.0205,0.18937c0.14729,0 0.28406,-0.01754 0.41031,-0.05261c0.13326,-0.03507 0.24899,-0.09117 0.34718,-0.16833c0.09819,-0.07716 0.17184,-0.16833 0.22093,-0.27354c0.0491,-0.10521 0.07364,-0.22093 0.07364,-0.34718c0,-0.21742 -0.08065,-0.39278 -0.24197,-0.52604c-0.08416,-0.05611 -0.21742,-0.11924 -0.39979,-0.18937c-0.17534,-0.07013 -0.4068,-0.14378 -0.69437,-0.22093c-0.48395,-0.12625 -0.88023,-0.26653 -1.18884,-0.42083c-0.30861,-0.16132 -0.54707,-0.34367 -0.7154,-0.54707c-0.12625,-0.16132 -0.22093,-0.33316 -0.28406,-0.51551c-0.05611,-0.18937 -0.08416,-0.39979 -0.08416,-0.63124c0,-0.27354 0.05962,-0.52603 0.17885,-0.75749c0.12625,-0.23146 0.29458,-0.43135 0.50499,-0.59968c0.21742,-0.17534 0.46993,-0.3086 0.75749,-0.39979c0.28756,-0.09118 0.59617,-0.13677 0.92582,-0.13677c0.30861,0 0.61371,0.04208 0.9153,0.12625c0.30861,0.08417 0.59267,0.20691 0.85217,0.36822c0.25951,0.1543 0.47694,0.34017 0.65229,0.55759l-0.73645,0.82062c-0.16132,-0.16132 -0.33666,-0.30159 -0.52603,-0.42083c-0.18937,-0.11924 -0.38225,-0.21041 -0.57864,-0.27354c-0.18937,-0.07013 -0.36121,-0.10521 -0.51551,-0.10521c-0.17534,0 -0.33666,0.01754 -0.48395,0.0526c-0.14027,0.02805 -0.25951,0.07716 -0.3577,0.14729c-0.09118,0.06313 -0.16483,0.14729 -0.22093,0.2525c-0.0491,0.0982 -0.07364,0.21042 -0.07364,0.33667c0.00702,0.10521 0.03507,0.2069 0.08416,0.3051c0.0491,0.0982 0.11573,0.17885 0.19989,0.24197c0.09118,0.07013 0.22795,0.14378 0.41031,0.22094c0.18236,0.07013 0.41732,0.14028 0.70488,0.21041c0.41381,0.10521 0.75749,0.22444 1.03103,0.3577c0.27354,0.12625 0.49096,0.27354 0.65228,0.44187c0.16833,0.16132 0.28406,0.34718 0.34719,0.55759c0.07013,0.21042 0.1052,0.44538 0.1052,0.70489c0,0.37173 -0.10871,0.70839 -0.32614,1.00998c-0.21042,0.29458 -0.49798,0.52603 -0.8627,0.69437c-0.35771,0.16833 -0.75749,0.2525 -1.19936,0.2525z" fill="#000000" fill-rule="nonzero" stroke-linecap="square"/></g></g></svg>