<svg version="1.1" xmlns="http://www.w3.org/2000/svg" xmlns:xlink="http://www.w3.org/1999/xlink" width="18" height="18" viewBox="0,0,18,18"><g transform="translate(-231,-171)"><g data-paper-data="{&quot;isPaintingLayer&quot;:true}" fill="#ffffff" fill-rule="nonzero" stroke="none" stroke-width="1" stroke-linecap="butt" stroke-linejoin="miter" stroke-miterlimit="10" stroke-dasharray="" stroke-dashoffset="0" style="mix-blend-mode: normal"><path d="M249,175v12c0,0.55 -0.19583,1.02084 -0.5875,1.4125c-0.39166,0.39167 -0.8625,0.5875 -1.4125,0.5875h-14c-0.55,0 -1.02084,-0.19583 -1.4125,-0.5875c-0.39167,-0.39166 -0.5875,-0.8625 -0.5875,-1.4125v-14c0,-0.55 0.19583,-1.02084 0.5875,-1.4125c0.39166,-0.39167 0.8625,-0.5875 1.4125,-0.5875h12zM247,175.85l-2.85,-2.85h-11.15v14h14zM240,186c0.83334,0 1.54166,-0.29166 2.125,-0.875c0.58334,-0.58334 0.875,-1.29166 0.875,-2.125c0,-0.83334 -0.29166,-1.54166 -0.875,-2.125c-0.58334,-0.58334 -1.29166,-0.875 -2.125,-0.875c-0.83334,0 -1.54166,0.29166 -2.125,0.875c-0.58334,0.58334 -0.875,1.29166 -0.875,2.125c0,0.83334 0.29166,1.54166 0.875,2.125c0.58334,0.58334 1.29166,0.875 2.125,0.875zM234,178h9v-4h-9zM233,175.85v11.15v-14z"/></g></g></svg>