<svg version="1.1" xmlns="http://www.w3.org/2000/svg" xmlns:xlink="http://www.w3.org/1999/xlink" width="21.58322" height="27.89234" viewBox="0,0,21.58322,27.89234"><g transform="translate(-148.49717,-133.6502)"><g data-paper-data="{&quot;isPaintingLayer&quot;:true}" stroke="none" stroke-width="1" stroke-linecap="square" stroke-linejoin="miter" stroke-miterlimit="10" stroke-dasharray="" stroke-dashoffset="0" style="mix-blend-mode: normal"><path d="M148.49718,135.37424c0,-0.95215 0.41182,-1.72403 0.91982,-1.72403h19.74357c0.24395,0 0.47791,0.18164 0.65041,0.50495c0.1725,0.32331 0.26942,0.76183 0.26942,1.21908v24.44429c0,0.95215 -0.41182,1.72402 -0.91983,1.72402h-19.74357c-0.508,0 -0.91982,-0.77187 -0.91982,-1.72402z" fill-opacity="0.69355" fill="#2d2d2d" fill-rule="evenodd"/><path d="M152.97016,155.47441l-4.41923,-14.65711h3.63359l2.20961,7.7091c0.09821,0.34372 0.18005,0.69562 0.24551,1.0557c0.08184,0.36008 0.14731,0.7038 0.19641,1.03115c0.0491,0.31098 0.08184,0.6056 0.09821,0.88385c0.03274,0.26188 0.06547,0.48284 0.09821,0.66288h-0.46647c0.08184,-0.50739 0.15549,-0.96569 0.22096,-1.37487c0.06547,-0.40919 0.13912,-0.78564 0.22096,-1.12936c0.08184,-0.36008 0.18822,-0.73654 0.31917,-1.12936l2.18506,-5.7941h2.84795l2.13596,5.7941c0.16367,0.45829 0.3028,0.89203 0.41737,1.30122c0.11457,0.39282 0.19641,0.77745 0.24551,1.15391c0.06547,0.37646 0.12276,0.74472 0.17186,1.10481l-0.41737,0.0491c0.01636,-0.24551 0.03274,-0.47466 0.0491,-0.68744c0.01636,-0.21278 0.03274,-0.41737 0.0491,-0.61378c0.03274,-0.21278 0.05729,-0.42556 0.07365,-0.63833c0.03274,-0.22915 0.07365,-0.48284 0.12276,-0.76109c0.06547,-0.27825 0.14731,-0.58923 0.24551,-0.93295l2.18506,-7.68455h3.53538l-4.39468,14.65711h-2.72519l-3.48628,-8.44564l0.39282,0.0491l-3.19167,8.39654z" fill="#ffffff" fill-rule="nonzero"/></g></g></svg>