<svg version="1.1" xmlns="http://www.w3.org/2000/svg" xmlns:xlink="http://www.w3.org/1999/xlink" width="558.41002" height="342.42093" viewBox="0,0,558.41002,342.42093"><g transform="translate(178.15223,65.71391)"><g data-paper-data="{&quot;isPaintingLayer&quot;:true}" stroke="none" stroke-width="1" stroke-linejoin="miter" stroke-miterlimit="10" stroke-dasharray="" stroke-dashoffset="0" style="mix-blend-mode: normal"><path d="M99.74221,95.24792c0,-6.60253 5.35241,-11.95493 11.95493,-11.95493h256.60572c3.17065,0 6.21144,1.25953 8.45341,3.50151c2.24199,2.24198 3.50152,5.28276 3.50152,8.45341v169.50418c0,6.60253 -5.3524,11.95493 -11.95493,11.95493h-256.60572c-6.60252,0 -11.95493,-5.3524 -11.95493,-11.95493z" fill="#323232" fill-rule="evenodd" stroke-linecap="square"/><path d="M-152.38058,-65.71391h218.11023v42.01575h-218.11023z" fill-opacity="0" fill="#000000" fill-rule="evenodd" stroke-linecap="square"/><path d="M112.44755,104.24627v-10.26339h4.37054c0.5811,0 1.11719,0.14732 1.60826,0.44196c0.49925,0.28646 0.89621,0.67522 1.19085,1.16629c0.29464,0.49107 0.44196,1.04353 0.44196,1.65737c0,0.56473 -0.14732,1.08854 -0.44196,1.57143c-0.29464,0.4747 -0.6875,0.85528 -1.17857,1.14174c-0.48289,0.28646 -1.02307,0.42969 -1.62054,0.42969h-2.78683v3.85491zM118.54911,104.24627l-2.61496,-4.62835l1.63281,-0.3683l2.89732,5.00893zM114.03126,98.86904h2.93415c0.27827,0 0.5279,-0.06957 0.74888,-0.20871c0.22917,-0.14732 0.40513,-0.34375 0.5279,-0.58929c0.13095,-0.25372 0.19643,-0.532 0.19643,-0.83482c0,-0.34375 -0.08184,-0.64249 -0.24554,-0.89621c-0.1555,-0.26191 -0.37649,-0.46652 -0.66295,-0.61384c-0.28646,-0.14732 -0.61384,-0.22098 -0.98214,-0.22098h-2.51674zM125.5461,104.39359c-0.78571,0 -1.48549,-0.16778 -2.09933,-0.50335c-0.60566,-0.33557 -1.08445,-0.79799 -1.43638,-1.38728c-0.34375,-0.58929 -0.51563,-1.26451 -0.51563,-2.02567c0,-0.60566 0.09821,-1.15811 0.29464,-1.65737c0.19643,-0.49925 0.46652,-0.92894 0.81027,-1.28906c0.34375,-0.3683 0.75707,-0.65067 1.23996,-0.8471c0.49107,-0.20461 1.01897,-0.30692 1.58371,-0.30692c0.49925,0 0.96168,0.09412 1.38728,0.28237c0.43378,0.18825 0.80617,0.45015 1.11719,0.78571c0.3192,0.33557 0.56473,0.73251 0.73661,1.19085c0.17187,0.45015 0.25372,0.94122 0.24554,1.47321l-0.01228,0.65067h-6.28571l-0.34375,-1.20312h5.31585l-0.20871,0.24554v-0.34375c-0.03274,-0.32738 -0.14323,-0.61793 -0.33147,-0.87165c-0.18006,-0.25372 -0.41332,-0.45424 -0.69978,-0.60156c-0.28646,-0.14732 -0.59338,-0.22098 -0.92076,-0.22098c-0.532,0 -0.97805,0.10231 -1.33817,0.30692c-0.36012,0.19643 -0.6343,0.49107 -0.82254,0.88393c-0.18006,0.38467 -0.27009,0.85937 -0.27009,1.42411c0,0.532 0.11049,0.99851 0.33147,1.39955c0.22098,0.39286 0.53608,0.69978 0.94531,0.92076c0.41741,0.2128 0.89211,0.3192 1.42411,0.3192c0.38467,0 0.7407,-0.06138 1.06808,-0.18415c0.32738,-0.13095 0.68341,-0.36421 1.06808,-0.69978l0.76116,1.06808c-0.23735,0.23735 -0.52381,0.44606 -0.85937,0.62612c-0.33557,0.17188 -0.69159,0.31101 -1.06808,0.41741c-0.37649,0.09821 -0.74888,0.14732 -1.11719,0.14732zM133.11701,104.39359c-0.64658,0 -1.22768,-0.11049 -1.7433,-0.33147c-0.51562,-0.22917 -0.94531,-0.56473 -1.28906,-1.0067l1.01897,-0.87165c0.29464,0.33557 0.61384,0.5811 0.95759,0.73661c0.35193,0.14732 0.74888,0.22098 1.19085,0.22098c0.17188,0 0.33147,-0.02046 0.47879,-0.06138c0.1555,-0.04092 0.29055,-0.1064 0.40513,-0.19643c0.11458,-0.09003 0.20052,-0.19643 0.25781,-0.3192c0.05729,-0.12277 0.08594,-0.25781 0.08594,-0.40513c0,-0.25372 -0.09412,-0.45833 -0.28237,-0.61384c-0.09821,-0.06548 -0.25372,-0.13914 -0.46652,-0.22098c-0.20461,-0.08184 -0.4747,-0.16778 -0.81027,-0.25781c-0.56473,-0.14732 -1.02716,-0.31101 -1.38728,-0.49107c-0.36012,-0.18825 -0.63839,-0.40104 -0.83482,-0.63839c-0.14732,-0.18825 -0.25781,-0.38876 -0.33147,-0.60156c-0.06548,-0.22098 -0.09821,-0.46652 -0.09821,-0.73661c0,-0.3192 0.06957,-0.61384 0.20871,-0.88393c0.14732,-0.27009 0.34375,-0.50335 0.58929,-0.69978c0.25372,-0.20461 0.54836,-0.36012 0.88393,-0.46652c0.33557,-0.1064 0.69568,-0.1596 1.08036,-0.1596c0.36012,0 0.71615,0.04911 1.06808,0.14732c0.36012,0.09821 0.69159,0.24144 0.99442,0.42969c0.30283,0.18006 0.55654,0.39695 0.76115,0.65067l-0.85937,0.95759c-0.18825,-0.18825 -0.39286,-0.35193 -0.61384,-0.49107c-0.22098,-0.13914 -0.44606,-0.24554 -0.67522,-0.3192c-0.22098,-0.08184 -0.4215,-0.12277 -0.60156,-0.12277c-0.20461,0 -0.39286,0.02046 -0.56473,0.06138c-0.16369,0.03274 -0.30283,0.09003 -0.41741,0.17187c-0.1064,0.07366 -0.19233,0.17188 -0.25781,0.29464c-0.05729,0.11458 -0.08594,0.24554 -0.08594,0.39286c0.00818,0.12277 0.04092,0.24144 0.09821,0.35603c0.05729,0.11458 0.13504,0.20871 0.23326,0.28237c0.1064,0.08184 0.266,0.16778 0.47879,0.25781c0.2128,0.08184 0.48698,0.16369 0.82254,0.24554c0.48289,0.12277 0.88393,0.26191 1.20313,0.41741c0.3192,0.14732 0.57292,0.3192 0.76116,0.51562c0.19642,0.18825 0.33147,0.40513 0.40513,0.65067c0.08184,0.24554 0.12277,0.51972 0.12277,0.82254c0,0.43378 -0.12686,0.82664 -0.38057,1.17857c-0.24554,0.34375 -0.5811,0.61384 -1.0067,0.81027c-0.41741,0.19643 -0.88393,0.29464 -1.39955,0.29464zM141.15738,104.39359c-0.78571,0 -1.48549,-0.16778 -2.09933,-0.50335c-0.60566,-0.33557 -1.08445,-0.79799 -1.43638,-1.38728c-0.34375,-0.58929 -0.51562,-1.26451 -0.51562,-2.02567c0,-0.60566 0.09821,-1.15811 0.29464,-1.65737c0.19643,-0.49925 0.46652,-0.92894 0.81027,-1.28906c0.34375,-0.3683 0.75707,-0.65067 1.23996,-0.8471c0.49107,-0.20461 1.01897,-0.30692 1.58371,-0.30692c0.49925,0 0.96168,0.09412 1.38728,0.28237c0.43378,0.18825 0.80617,0.45015 1.11719,0.78571c0.3192,0.33557 0.56473,0.73251 0.73661,1.19085c0.17187,0.45015 0.25372,0.94122 0.24554,1.47321l-0.01228,0.65067h-6.28571l-0.34375,-1.20312h5.31585l-0.20871,0.24554v-0.34375c-0.03274,-0.32738 -0.14323,-0.61793 -0.33147,-0.87165c-0.18006,-0.25372 -0.41332,-0.45424 -0.69978,-0.60156c-0.28646,-0.14732 -0.59338,-0.22098 -0.92076,-0.22098c-0.532,0 -0.97805,0.10231 -1.33817,0.30692c-0.36012,0.19643 -0.6343,0.49107 -0.82254,0.88393c-0.18006,0.38467 -0.27009,0.85937 -0.27009,1.42411c0,0.532 0.11049,0.99851 0.33147,1.39955c0.22098,0.39286 0.53609,0.69978 0.94531,0.92076c0.41741,0.2128 0.89211,0.3192 1.42411,0.3192c0.38467,0 0.7407,-0.06138 1.06808,-0.18415c0.32738,-0.13095 0.68341,-0.36421 1.06808,-0.69978l0.76116,1.06808c-0.23735,0.23735 -0.52381,0.44606 -0.85937,0.62612c-0.33557,0.17188 -0.69159,0.31101 -1.06808,0.41741c-0.37649,0.09821 -0.74888,0.14732 -1.11719,0.14732zM147.12003,104.24627v-9.66183h1.51004v9.66183zM145.51177,98.02194v-1.47321h4.89844v1.47321zM156.27626,104.24627v-10.26339h4.17411c0.55655,0 1.0599,0.13914 1.51004,0.41741c0.45833,0.27827 0.82254,0.65885 1.09263,1.14174c0.27827,0.4747 0.41741,1.0067 0.41741,1.59598c0,0.58929 -0.13914,1.12537 -0.41741,1.60826c-0.27009,0.4747 -0.6343,0.85528 -1.09263,1.14174c-0.45015,0.28646 -0.9535,0.42969 -1.51004,0.42969h-2.5904v3.92857zM157.85996,98.79538h2.56585c0.26191,0 0.49925,-0.07366 0.71205,-0.22098c0.22098,-0.1555 0.39695,-0.35603 0.5279,-0.60156c0.13095,-0.25372 0.19643,-0.532 0.19643,-0.83482c0,-0.30283 -0.06548,-0.57701 -0.19643,-0.82254c-0.13095,-0.24554 -0.30692,-0.44196 -0.5279,-0.58929c-0.2128,-0.14732 -0.45015,-0.22098 -0.71205,-0.22098h-2.56585zM168.0012,104.39359c-0.63021,0 -1.20722,-0.17597 -1.73103,-0.5279c-0.52381,-0.35193 -0.94531,-0.83073 -1.26451,-1.43638c-0.31101,-0.60566 -0.46652,-1.28906 -0.46652,-2.05022c0,-0.77753 0.1596,-1.46503 0.47879,-2.0625c0.3192,-0.59747 0.74888,-1.06808 1.28906,-1.41183c0.54836,-0.34375 1.15811,-0.51563 1.82924,-0.51563c0.40104,0 0.76525,0.06138 1.09263,0.18415c0.33557,0.11458 0.62612,0.27827 0.87165,0.49107c0.25372,0.20461 0.45833,0.44606 0.61384,0.72433c0.16369,0.27009 0.266,0.56064 0.30692,0.87165l-0.33147,-0.11049v-2.00112h1.52232v7.69754h-1.52232v-1.82924l0.34375,-0.11049c-0.05729,0.27009 -0.17597,0.532 -0.35603,0.78571c-0.18006,0.24554 -0.40923,0.46652 -0.6875,0.66295c-0.27827,0.18825 -0.58519,0.34375 -0.92076,0.46652c-0.33557,0.11458 -0.69159,0.17187 -1.06808,0.17187zM168.39405,103.00631c0.46652,0 0.87165,-0.11049 1.2154,-0.33147c0.35193,-0.22917 0.62612,-0.54018 0.82254,-0.93304c0.20461,-0.40104 0.30692,-0.85528 0.30692,-1.36272c0,-0.49925 -0.10231,-0.94531 -0.30692,-1.33817c-0.19643,-0.39286 -0.47061,-0.69978 -0.82254,-0.92076c-0.34375,-0.22917 -0.74888,-0.34375 -1.2154,-0.34375c-0.45015,0 -0.8471,0.11458 -1.19085,0.34375c-0.34375,0.22098 -0.61793,0.5279 -0.82254,0.92076c-0.19643,0.39286 -0.29464,0.83892 -0.29464,1.33817c0,0.50744 0.09821,0.96168 0.29464,1.36272c0.20461,0.39286 0.47879,0.70387 0.82254,0.93304c0.34375,0.22098 0.7407,0.33147 1.19085,0.33147zM176.88716,104.39359c-0.64658,0 -1.22768,-0.11049 -1.7433,-0.33147c-0.51562,-0.22917 -0.94531,-0.56473 -1.28906,-1.0067l1.01897,-0.87165c0.29464,0.33557 0.61384,0.5811 0.95759,0.73661c0.35193,0.14732 0.74888,0.22098 1.19085,0.22098c0.17187,0 0.33147,-0.02046 0.47879,-0.06138c0.1555,-0.04092 0.29055,-0.1064 0.40513,-0.19643c0.11458,-0.09003 0.20052,-0.19643 0.25781,-0.3192c0.05729,-0.12277 0.08594,-0.25781 0.08594,-0.40513c0,-0.25372 -0.09412,-0.45833 -0.28237,-0.61384c-0.09821,-0.06548 -0.25372,-0.13914 -0.46652,-0.22098c-0.20461,-0.08184 -0.4747,-0.16778 -0.81027,-0.25781c-0.56473,-0.14732 -1.02716,-0.31101 -1.38728,-0.49107c-0.36012,-0.18825 -0.63839,-0.40104 -0.83482,-0.63839c-0.14732,-0.18825 -0.25781,-0.38876 -0.33147,-0.60156c-0.06548,-0.22098 -0.09821,-0.46652 -0.09821,-0.73661c0,-0.3192 0.06957,-0.61384 0.20871,-0.88393c0.14732,-0.27009 0.34375,-0.50335 0.58929,-0.69978c0.25372,-0.20461 0.54836,-0.36012 0.88393,-0.46652c0.33557,-0.1064 0.69568,-0.1596 1.08036,-0.1596c0.36012,0 0.71615,0.04911 1.06808,0.14732c0.36012,0.09821 0.69159,0.24144 0.99442,0.42969c0.30283,0.18006 0.55655,0.39695 0.76116,0.65067l-0.85938,0.95759c-0.18825,-0.18825 -0.39286,-0.35193 -0.61384,-0.49107c-0.22098,-0.13914 -0.44606,-0.24554 -0.67522,-0.3192c-0.22098,-0.08184 -0.4215,-0.12277 -0.60156,-0.12277c-0.20461,0 -0.39286,0.02046 -0.56473,0.06138c-0.16369,0.03274 -0.30283,0.09003 -0.41741,0.17187c-0.1064,0.07366 -0.19234,0.17188 -0.25781,0.29464c-0.05729,0.11458 -0.08594,0.24554 -0.08594,0.39286c0.00818,0.12277 0.04092,0.24144 0.09821,0.35603c0.05729,0.11458 0.13504,0.20871 0.23326,0.28237c0.1064,0.08184 0.266,0.16778 0.47879,0.25781c0.2128,0.08184 0.48698,0.16369 0.82254,0.24554c0.48289,0.12277 0.88393,0.26191 1.20312,0.41741c0.3192,0.14732 0.57292,0.3192 0.76116,0.51562c0.19643,0.18825 0.33147,0.40513 0.40513,0.65067c0.08184,0.24554 0.12277,0.51972 0.12277,0.82254c0,0.43378 -0.12686,0.82664 -0.38058,1.17857c-0.24554,0.34375 -0.5811,0.61384 -1.0067,0.81027c-0.41741,0.19643 -0.88393,0.29464 -1.39955,0.29464zM183.90857,104.39359c-0.64658,0 -1.22768,-0.11049 -1.7433,-0.33147c-0.51563,-0.22917 -0.94531,-0.56473 -1.28906,-1.0067l1.01897,-0.87165c0.29464,0.33557 0.61384,0.5811 0.95759,0.73661c0.35193,0.14732 0.74888,0.22098 1.19085,0.22098c0.17188,0 0.33147,-0.02046 0.47879,-0.06138c0.1555,-0.04092 0.29055,-0.1064 0.40513,-0.19643c0.11458,-0.09003 0.20052,-0.19643 0.25781,-0.3192c0.05729,-0.12277 0.08594,-0.25781 0.08594,-0.40513c0,-0.25372 -0.09412,-0.45833 -0.28237,-0.61384c-0.09821,-0.06548 -0.25372,-0.13914 -0.46652,-0.22098c-0.20461,-0.08184 -0.4747,-0.16778 -0.81027,-0.25781c-0.56473,-0.14732 -1.02716,-0.31101 -1.38728,-0.49107c-0.36012,-0.18825 -0.63839,-0.40104 -0.83482,-0.63839c-0.14732,-0.18825 -0.25781,-0.38876 -0.33147,-0.60156c-0.06548,-0.22098 -0.09821,-0.46652 -0.09821,-0.73661c0,-0.3192 0.06957,-0.61384 0.20871,-0.88393c0.14732,-0.27009 0.34375,-0.50335 0.58929,-0.69978c0.25372,-0.20461 0.54836,-0.36012 0.88393,-0.46652c0.33557,-0.1064 0.69568,-0.1596 1.08036,-0.1596c0.36012,0 0.71615,0.04911 1.06808,0.14732c0.36012,0.09821 0.69159,0.24144 0.99442,0.42969c0.30283,0.18006 0.55655,0.39695 0.76116,0.65067l-0.85937,0.95759c-0.18825,-0.18825 -0.39286,-0.35193 -0.61384,-0.49107c-0.22098,-0.13914 -0.44606,-0.24554 -0.67522,-0.3192c-0.22098,-0.08184 -0.4215,-0.12277 -0.60156,-0.12277c-0.20461,0 -0.39286,0.02046 -0.56473,0.06138c-0.16369,0.03274 -0.30283,0.09003 -0.41741,0.17187c-0.1064,0.07366 -0.19233,0.17188 -0.25781,0.29464c-0.05729,0.11458 -0.08594,0.24554 -0.08594,0.39286c0.00818,0.12277 0.04092,0.24144 0.09821,0.35603c0.05729,0.11458 0.13504,0.20871 0.23326,0.28237c0.1064,0.08184 0.266,0.16778 0.47879,0.25781c0.2128,0.08184 0.48698,0.16369 0.82254,0.24554c0.48289,0.12277 0.88393,0.26191 1.20313,0.41741c0.3192,0.14732 0.57292,0.3192 0.76116,0.51562c0.19643,0.18825 0.33147,0.40513 0.40513,0.65067c0.08184,0.24554 0.12277,0.51972 0.12277,0.82254c0,0.43378 -0.12686,0.82664 -0.38058,1.17857c-0.24554,0.34375 -0.5811,0.61384 -1.0067,0.81027c-0.41741,0.19643 -0.88393,0.29464 -1.39955,0.29464zM190.25475,104.24627l-2.62723,-7.69754l1.52232,-0.01228l1.87835,5.75781l-0.33147,-0.02455l2.03795,-4.50558h0.90848l2.05022,4.51786l-0.39286,0.02455l1.89063,-5.75781h1.52232l-2.5904,7.69754h-1.04353l-2.14844,-4.89844l0.34375,0.04911l-1.98884,4.84933zM203.33297,104.39359c-0.75298,0 -1.4282,-0.17187 -2.02567,-0.51562c-0.58929,-0.35193 -1.0558,-0.82664 -1.39955,-1.42411c-0.33557,-0.60566 -0.50335,-1.29316 -0.50335,-2.0625c0,-0.76934 0.16778,-1.45275 0.50335,-2.05022c0.34375,-0.60566 0.81027,-1.08036 1.39955,-1.42411c0.59747,-0.35193 1.27269,-0.5279 2.02567,-0.5279c0.73661,0 1.39955,0.17597 1.98884,0.5279c0.59747,0.34375 1.06808,0.81845 1.41183,1.42411c0.34375,0.59747 0.51562,1.28088 0.51562,2.05022c0,0.76934 -0.17187,1.45684 -0.51562,2.0625c-0.34375,0.59747 -0.81436,1.07217 -1.41183,1.42411c-0.58929,0.34375 -1.25223,0.51563 -1.98884,0.51563zM203.33297,103.01859c0.45833,0 0.86756,-0.11458 1.22768,-0.34375c0.36012,-0.22917 0.64249,-0.54018 0.8471,-0.93304c0.20461,-0.40104 0.30283,-0.85119 0.29464,-1.35045c0.00818,-0.50744 -0.09003,-0.95759 -0.29464,-1.35045c-0.20461,-0.40104 -0.48698,-0.71205 -0.8471,-0.93304c-0.36012,-0.22917 -0.76934,-0.34375 -1.22768,-0.34375c-0.45833,0 -0.87165,0.11458 -1.23996,0.34375c-0.3683,0.22917 -0.65476,0.54427 -0.85937,0.94531c-0.20461,0.39286 -0.30283,0.83892 -0.29464,1.33817c-0.00818,0.49925 0.09003,0.94941 0.29464,1.35045c0.20461,0.39286 0.49107,0.70387 0.85938,0.93304c0.3683,0.22917 0.78162,0.34375 1.23996,0.34375zM208.88589,104.24627v-7.69754h1.52232v2.41853l-0.14732,-0.58929c0.1064,-0.3683 0.29055,-0.70387 0.55246,-1.0067c0.26191,-0.30283 0.56064,-0.54018 0.89621,-0.71205c0.33557,-0.18006 0.68341,-0.27009 1.04353,-0.27009c0.16369,0 0.3192,0.01637 0.46652,0.04911c0.1555,0.02455 0.27827,0.05729 0.3683,0.09821l-0.39286,1.64509c-0.11458,-0.04911 -0.24554,-0.09003 -0.39286,-0.12277c-0.13914,-0.04092 -0.27827,-0.06138 -0.41741,-0.06138c-0.26191,0 -0.51153,0.0532 -0.74888,0.1596c-0.23735,0.09821 -0.45015,0.24144 -0.63839,0.42969c-0.18006,0.18006 -0.32329,0.38876 -0.42969,0.62612c-0.1064,0.23735 -0.1596,0.49925 -0.1596,0.78571v4.24777zM217.67483,104.39359c-0.70387,0 -1.32999,-0.17187 -1.87835,-0.51562c-0.54836,-0.35193 -0.98624,-0.82664 -1.31362,-1.42411c-0.3192,-0.60566 -0.47879,-1.29316 -0.47879,-2.0625c0,-0.76934 0.1555,-1.45275 0.46652,-2.05022c0.3192,-0.60566 0.75298,-1.08036 1.30134,-1.42411c0.54836,-0.35193 1.17039,-0.5279 1.86607,-0.5279c0.37649,0 0.74479,0.06138 1.10491,0.18415c0.36012,0.12277 0.67932,0.29055 0.95759,0.50335c0.28646,0.20461 0.50744,0.43378 0.66295,0.6875c0.16369,0.24554 0.24554,0.49516 0.24554,0.74888l-0.44196,0.03683v-5.15625h1.51004v10.85268h-1.51004v-1.82924h0.29464c0,0.22917 -0.07775,0.46242 -0.23326,0.69978c-0.1555,0.22917 -0.36421,0.44196 -0.62612,0.63839c-0.25372,0.18825 -0.55246,0.34375 -0.89621,0.46652c-0.33557,0.11458 -0.67932,0.17187 -1.03125,0.17187zM217.88354,103.09225c0.45833,0 0.86347,-0.11867 1.2154,-0.35603c0.35193,-0.23735 0.62612,-0.55655 0.82254,-0.95759c0.20461,-0.40923 0.30692,-0.87165 0.30692,-1.38728c0,-0.51563 -0.10231,-0.97396 -0.30692,-1.375c-0.19643,-0.40923 -0.47061,-0.73251 -0.82254,-0.96987c-0.35193,-0.23735 -0.75707,-0.35603 -1.2154,-0.35603c-0.45833,0 -0.86347,0.11867 -1.2154,0.35603c-0.35193,0.23735 -0.63021,0.56064 -0.83482,0.96987c-0.19643,0.40104 -0.29464,0.85938 -0.29464,1.375c0,0.51562 0.09821,0.97805 0.29464,1.38728c0.20461,0.40104 0.48289,0.72024 0.83482,0.95759c0.35193,0.23735 0.75707,0.35603 1.2154,0.35603z" fill="#ffffff" fill-rule="nonzero" stroke-linecap="square"/><path d="M-178.15223,21.56168h445.88974v42.01575h-445.88974z" fill-opacity="0" fill="#000000" fill-rule="evenodd" stroke-linecap="square"/><path d="M120.52416,150.55512h238.95169v58.88977h-238.95169z" fill-opacity="0" fill="#000000" fill-rule="evenodd" stroke-linecap="square"/><path d="M110.56692,163.63196h266.86615v32.73609h-266.86615z" fill-opacity="0" fill="#000000" fill-rule="evenodd" stroke-linecap="square"/><path d="M117.46029,177.26738l-2.10521,-6.61637h1.08426l1.27421,4.13919c0.03694,0.10025 0.07123,0.21896 0.10289,0.35615c0.03166,0.13718 0.06068,0.27436 0.08706,0.41154c0.02638,0.13718 0.05012,0.26645 0.07123,0.3878c0.02111,0.12135 0.04221,0.21896 0.06331,0.29283l-0.277,-0.00791c0.09497,-0.33768 0.16884,-0.59621 0.2216,-0.7756c0.05276,-0.18467 0.09497,-0.32448 0.12663,-0.41946c0.03166,-0.10025 0.06068,-0.18467 0.08706,-0.25326l1.18715,-2.98369h0.91806l1.15549,2.9837c0.06331,0.15301 0.11872,0.30338 0.1662,0.45112c0.04749,0.14774 0.08969,0.29547 0.12663,0.4432c0.03694,0.14774 0.07914,0.30338 0.12663,0.46695l-0.25326,0.06331c0.03166,-0.16884 0.0554,-0.30074 0.07123,-0.39572c0.01583,-0.10025 0.02902,-0.18203 0.03957,-0.24534c0.01583,-0.06331 0.02902,-0.12399 0.03957,-0.18203c0.01583,-0.06331 0.03694,-0.13982 0.06331,-0.22951c0.03166,-0.09497 0.07123,-0.22424 0.11872,-0.3878l1.25838,-4.11544h1.10009l-2.11312,6.61637h-0.70437l-1.74906,-4.13918l0.08706,0.03957l-1.68575,4.09961zM127.2927,177.36235c-0.50652,0 -0.95763,-0.10816 -1.35334,-0.32448c-0.39044,-0.21632 -0.6991,-0.51443 -0.92597,-0.89431c-0.2216,-0.37989 -0.3324,-0.81517 -0.3324,-1.30586c0,-0.39044 0.06331,-0.74658 0.18994,-1.06843c0.12663,-0.32185 0.30074,-0.59885 0.52234,-0.831c0.2216,-0.23743 0.48805,-0.41946 0.79935,-0.54609c0.31657,-0.13191 0.65689,-0.19786 1.02095,-0.19786c0.32185,0 0.61996,0.06068 0.89432,0.18203c0.27964,0.12135 0.51971,0.29019 0.72021,0.50652c0.20577,0.21632 0.36406,0.47222 0.47486,0.76769c0.1108,0.29019 0.16356,0.60677 0.15829,0.94972l-0.00791,0.41946h-4.05213l-0.2216,-0.7756h3.4269l-0.13454,0.15829v-0.2216c-0.02111,-0.21105 -0.09233,-0.39835 -0.21368,-0.56191c-0.11608,-0.16356 -0.26645,-0.29283 -0.45111,-0.3878c-0.18467,-0.09497 -0.38253,-0.14246 -0.59357,-0.14246c-0.34295,0 -0.63051,0.06595 -0.86266,0.19786c-0.23215,0.12663 -0.40891,0.31657 -0.53026,0.56983c-0.11608,0.24798 -0.17411,0.554 -0.17411,0.91806c0,0.34295 0.07123,0.6437 0.21369,0.90223c0.14246,0.25326 0.34559,0.45112 0.6094,0.59358c0.26909,0.13718 0.57511,0.20577 0.91806,0.20577c0.24798,0 0.4775,-0.03957 0.68855,-0.11871c0.21105,-0.08442 0.44056,-0.23479 0.68855,-0.45111l0.49069,0.68855c-0.15301,0.15301 -0.33768,0.28755 -0.554,0.40363c-0.21632,0.1108 -0.44584,0.20049 -0.68854,0.26909c-0.24271,0.06331 -0.48277,0.09497 -0.7202,0.09497zM135.07251,177.36235c-0.40627,0 -0.77824,-0.11344 -1.11592,-0.34031c-0.33768,-0.22688 -0.6094,-0.53553 -0.81517,-0.92597c-0.20049,-0.39044 -0.30074,-0.831 -0.30074,-1.32169c0,-0.50124 0.10289,-0.94444 0.30866,-1.3296c0.20577,-0.38516 0.48278,-0.68854 0.83101,-0.91014c0.35351,-0.2216 0.74658,-0.3324 1.17924,-0.3324c0.25854,0 0.49333,0.03957 0.70438,0.11872c0.21632,0.07387 0.40363,0.17939 0.56192,0.31657c0.16356,0.13191 0.29547,0.28755 0.39572,0.46695c0.10552,0.17411 0.17148,0.36142 0.19786,0.56192l-0.21368,-0.07123v-1.29003h0.98137v4.96228h-0.98137v-1.17923l0.2216,-0.07123c-0.03694,0.17411 -0.11344,0.34295 -0.22951,0.50652c-0.11608,0.15829 -0.26381,0.30074 -0.4432,0.42737c-0.17939,0.12135 -0.37725,0.2216 -0.59357,0.30074c-0.21632,0.07387 -0.44584,0.1108 -0.68854,0.1108zM135.32577,176.46804c0.30074,0 0.56192,-0.07123 0.78352,-0.21368c0.22688,-0.14774 0.40363,-0.34823 0.53026,-0.60149c0.13191,-0.25854 0.19786,-0.55136 0.19786,-0.87849c0,-0.32185 -0.06595,-0.6094 -0.19786,-0.86266c-0.12663,-0.25326 -0.30338,-0.45111 -0.53026,-0.59357c-0.2216,-0.14774 -0.48277,-0.2216 -0.78351,-0.2216c-0.29019,0 -0.54609,0.07387 -0.76769,0.2216c-0.2216,0.14246 -0.39835,0.34032 -0.53026,0.59358c-0.12663,0.25326 -0.18994,0.54081 -0.18994,0.86266c0,0.32712 0.06331,0.61996 0.18994,0.87849c0.13191,0.25326 0.30866,0.45375 0.53026,0.60149c0.2216,0.14246 0.4775,0.21369 0.76769,0.21369zM139.14681,177.26738v-4.96227h0.98137v1.55912l-0.09497,-0.37989c0.06859,-0.23743 0.1873,-0.45375 0.35615,-0.64897c0.16884,-0.19522 0.36142,-0.34823 0.57775,-0.45903c0.21632,-0.11608 0.44056,-0.17411 0.67272,-0.17411c0.10552,0 0.20577,0.01055 0.30074,0.03166c0.10025,0.01583 0.17939,0.03694 0.23743,0.06331l-0.25326,1.06052c-0.07387,-0.03166 -0.15829,-0.05804 -0.25326,-0.07914c-0.08969,-0.02638 -0.17939,-0.03957 -0.26909,-0.03957c-0.16884,0 -0.32976,0.0343 -0.48277,0.10289c-0.15301,0.06331 -0.29019,0.15565 -0.41154,0.277c-0.11608,0.11608 -0.20841,0.25062 -0.277,0.40363c-0.06859,0.15301 -0.10288,0.32185 -0.10288,0.50652v2.73835zM145.05801,177.36235c-0.50652,0 -0.95763,-0.10816 -1.35334,-0.32448c-0.39044,-0.21632 -0.6991,-0.51443 -0.92597,-0.89431c-0.2216,-0.37989 -0.3324,-0.81517 -0.3324,-1.30586c0,-0.39044 0.06331,-0.74658 0.18994,-1.06843c0.12663,-0.32185 0.30074,-0.59885 0.52234,-0.831c0.2216,-0.23743 0.48805,-0.41946 0.79935,-0.54609c0.31657,-0.13191 0.65689,-0.19786 1.02095,-0.19786c0.32185,0 0.61996,0.06068 0.89432,0.18203c0.27964,0.12135 0.51971,0.29019 0.72021,0.50652c0.20577,0.21632 0.36406,0.47222 0.47486,0.76769c0.1108,0.29019 0.16356,0.60677 0.15829,0.94972l-0.00791,0.41946h-4.05213l-0.2216,-0.7756h3.4269l-0.13454,0.15829v-0.2216c-0.02111,-0.21105 -0.09233,-0.39835 -0.21368,-0.56191c-0.11608,-0.16356 -0.26645,-0.29283 -0.45111,-0.3878c-0.18467,-0.09497 -0.38253,-0.14246 -0.59357,-0.14246c-0.34295,0 -0.63051,0.06595 -0.86266,0.19786c-0.23215,0.12663 -0.40891,0.31657 -0.53026,0.56983c-0.11608,0.24798 -0.17411,0.554 -0.17411,0.91806c0,0.34295 0.07123,0.6437 0.21369,0.90223c0.14246,0.25326 0.34559,0.45112 0.6094,0.59358c0.26909,0.13718 0.57511,0.20577 0.91806,0.20577c0.24798,0 0.4775,-0.03957 0.68855,-0.11871c0.21105,-0.08442 0.44056,-0.23479 0.68855,-0.45111l0.49069,0.68855c-0.15301,0.15301 -0.33768,0.28755 -0.554,0.40363c-0.21632,0.1108 -0.44584,0.20049 -0.68854,0.26909c-0.24271,0.06331 -0.48277,0.09497 -0.7202,0.09497zM152.67161,177.36235c-0.35351,0 -0.66216,-0.08178 -0.92597,-0.24534c-0.25854,-0.16356 -0.45903,-0.39308 -0.60149,-0.68854c-0.14246,-0.29547 -0.21368,-0.64897 -0.21368,-1.06052v-3.06284h0.97346v2.80167c0,0.28492 0.04485,0.5329 0.13455,0.74395c0.09497,0.21105 0.22688,0.37461 0.39572,0.49069c0.17411,0.1108 0.38516,0.1662 0.63315,0.1662c0.17939,0 0.34559,-0.02902 0.4986,-0.08705c0.15301,-0.05804 0.28492,-0.13982 0.39572,-0.24534c0.1108,-0.1108 0.19522,-0.24007 0.25326,-0.3878c0.06331,-0.15301 0.09497,-0.31921 0.09497,-0.4986v-2.98369h0.97346v4.96228h-0.97346v-1.03677l0.17411,-0.11871c-0.07387,0.23743 -0.20049,0.45112 -0.37989,0.64106c-0.17939,0.18467 -0.39308,0.3324 -0.64106,0.4432c-0.24798,0.1108 -0.51179,0.1662 -0.79143,0.1662zM156.64753,177.26738v-4.96227h0.97346v1.02095l-0.17411,0.1108c0.06331,-0.21632 0.1873,-0.41682 0.37198,-0.60149c0.18467,-0.18994 0.40099,-0.34295 0.64897,-0.45903c0.25326,-0.11608 0.51179,-0.17411 0.7756,-0.17411c0.37989,0 0.69382,0.07387 0.94181,0.2216c0.25326,0.14774 0.4432,0.37461 0.56983,0.68063c0.12663,0.30074 0.18994,0.68063 0.18994,1.13966v3.02327h-0.97346v-2.95995c0,-0.27964 -0.03694,-0.51179 -0.1108,-0.69646c-0.07387,-0.18994 -0.18994,-0.32712 -0.34823,-0.41154c-0.15829,-0.08442 -0.35351,-0.12135 -0.58566,-0.1108c-0.18994,0 -0.36406,0.03166 -0.52234,0.09497c-0.15829,0.05804 -0.29547,0.14246 -0.41154,0.25326c-0.11608,0.10552 -0.20841,0.22952 -0.277,0.37198c-0.06331,0.13718 -0.09497,0.28755 -0.09497,0.45112v3.00744h-0.48277c-0.07914,0 -0.16093,0 -0.24534,0c-0.08442,0 -0.1662,0 -0.24534,0zM164.17745,177.36235c-0.40627,0 -0.77824,-0.11344 -1.11592,-0.34031c-0.33768,-0.22688 -0.6094,-0.53553 -0.81517,-0.92597c-0.20049,-0.39044 -0.30074,-0.831 -0.30074,-1.32169c0,-0.50124 0.10289,-0.94444 0.30866,-1.3296c0.20577,-0.38516 0.48278,-0.68854 0.83101,-0.91014c0.35351,-0.2216 0.74658,-0.3324 1.17924,-0.3324c0.25854,0 0.49333,0.03957 0.70438,0.11872c0.21632,0.07387 0.40363,0.17939 0.56192,0.31657c0.16356,0.13191 0.29547,0.28755 0.39572,0.46695c0.10552,0.17411 0.17148,0.36142 0.19786,0.56192l-0.21368,-0.07123v-1.29003h0.98137v4.96228h-0.98137v-1.17923l0.2216,-0.07123c-0.03694,0.17411 -0.11344,0.34295 -0.22951,0.50652c-0.11608,0.15829 -0.26381,0.30074 -0.4432,0.42737c-0.17939,0.12135 -0.37725,0.2216 -0.59357,0.30074c-0.21632,0.07387 -0.44584,0.1108 -0.68854,0.1108zM164.43071,176.46804c0.30074,0 0.56192,-0.07123 0.78352,-0.21368c0.22688,-0.14774 0.40363,-0.34823 0.53026,-0.60149c0.13191,-0.25854 0.19786,-0.55136 0.19786,-0.87849c0,-0.32185 -0.06595,-0.6094 -0.19786,-0.86266c-0.12663,-0.25326 -0.30338,-0.45111 -0.53026,-0.59357c-0.2216,-0.14774 -0.48277,-0.2216 -0.78351,-0.2216c-0.29019,0 -0.54609,0.07387 -0.76769,0.2216c-0.2216,0.14246 -0.39835,0.34032 -0.53026,0.59358c-0.12663,0.25326 -0.18994,0.54081 -0.18994,0.86266c0,0.32712 0.06331,0.61996 0.18994,0.87849c0.13191,0.25326 0.30866,0.45375 0.53026,0.60149c0.2216,0.14246 0.4775,0.21369 0.76769,0.21369zM170.86346,177.36235c-0.21632,0 -0.43001,-0.0343 -0.64106,-0.10288c-0.21105,-0.06859 -0.40363,-0.16093 -0.57774,-0.277c-0.17411,-0.12135 -0.31921,-0.25062 -0.43528,-0.3878c-0.11608,-0.14246 -0.19258,-0.28755 -0.22951,-0.43528l0.24535,-0.12663v1.20298h-0.97346v-6.9646h0.97346v3.16573l-0.15037,-0.07914c0.03166,-0.14774 0.10025,-0.28755 0.20577,-0.41946c0.10552,-0.13718 0.24271,-0.26117 0.41154,-0.37197c0.16884,-0.1108 0.35087,-0.19786 0.54609,-0.26117c0.19522,-0.06859 0.39308,-0.10288 0.59358,-0.10288c0.44848,0 0.8442,0.1108 1.18715,0.3324c0.34823,0.2216 0.62259,0.52498 0.82309,0.91015c0.20049,0.38516 0.30074,0.82837 0.30074,1.3296c0,0.49597 -0.10025,0.93917 -0.30074,1.3296c-0.19522,0.39044 -0.46694,0.6991 -0.81517,0.92598c-0.34295,0.2216 -0.73076,0.3324 -1.1634,0.3324zM170.69727,176.47595c0.29019,0 0.54872,-0.07387 0.7756,-0.2216c0.22688,-0.14774 0.40627,-0.34823 0.53817,-0.60149c0.13191,-0.25854 0.19786,-0.55136 0.19786,-0.87849c0,-0.32185 -0.06595,-0.6094 -0.19786,-0.86266c-0.12663,-0.25854 -0.30338,-0.45903 -0.53026,-0.60149c-0.22688,-0.14774 -0.48805,-0.2216 -0.78351,-0.2216c-0.29547,0 -0.55664,0.07387 -0.78351,0.2216c-0.22688,0.14246 -0.40627,0.34295 -0.53817,0.60149c-0.13191,0.25326 -0.19786,0.54081 -0.19786,0.86266c0,0.32712 0.06595,0.61996 0.19786,0.87849c0.13191,0.25326 0.31129,0.45375 0.53817,0.60149c0.22688,0.14774 0.48805,0.2216 0.78352,0.2216zM174.22088,177.26738v-6.99625h0.97346v6.99625zM178.79336,177.36235c-0.50652,0 -0.95763,-0.10816 -1.35334,-0.32448c-0.39044,-0.21632 -0.6991,-0.51443 -0.92597,-0.89431c-0.2216,-0.37989 -0.3324,-0.81517 -0.3324,-1.30586c0,-0.39044 0.06331,-0.74658 0.18994,-1.06843c0.12663,-0.32185 0.30074,-0.59885 0.52234,-0.831c0.2216,-0.23743 0.48805,-0.41946 0.79935,-0.54609c0.31657,-0.13191 0.65689,-0.19786 1.02095,-0.19786c0.32185,0 0.61996,0.06068 0.89432,0.18203c0.27964,0.12135 0.51971,0.29019 0.72021,0.50652c0.20577,0.21632 0.36406,0.47222 0.47486,0.76769c0.1108,0.29019 0.16356,0.60677 0.15829,0.94972l-0.00791,0.41946h-4.05213l-0.2216,-0.7756h3.4269l-0.13454,0.15829v-0.2216c-0.02111,-0.21105 -0.09233,-0.39835 -0.21368,-0.56191c-0.11608,-0.16356 -0.26645,-0.29283 -0.45111,-0.3878c-0.18467,-0.09497 -0.38253,-0.14246 -0.59357,-0.14246c-0.34295,0 -0.63051,0.06595 -0.86266,0.19786c-0.23215,0.12663 -0.40891,0.31657 -0.53026,0.56983c-0.11608,0.24798 -0.17411,0.554 -0.17411,0.91806c0,0.34295 0.07123,0.6437 0.21369,0.90223c0.14246,0.25326 0.34559,0.45112 0.6094,0.59358c0.26909,0.13718 0.57511,0.20577 0.91806,0.20577c0.24798,0 0.4775,-0.03957 0.68855,-0.11871c0.21105,-0.08442 0.44056,-0.23479 0.68855,-0.45111l0.49069,0.68855c-0.15301,0.15301 -0.33768,0.28755 -0.554,0.40363c-0.21632,0.1108 -0.44584,0.20049 -0.68854,0.26909c-0.24271,0.06331 -0.48277,0.09497 -0.7202,0.09497zM185.28313,177.26738v-6.22856h0.97346v6.22857zM184.24635,173.25482v-0.94972h3.15781v0.94972zM190.47906,177.36235c-0.48541,0 -0.9207,-0.1108 -1.30586,-0.3324c-0.37989,-0.22688 -0.68063,-0.5329 -0.90223,-0.91806c-0.21632,-0.39044 -0.32448,-0.83364 -0.32448,-1.3296c0,-0.49597 0.10816,-0.93653 0.32449,-1.32169c0.2216,-0.39044 0.52234,-0.69646 0.90223,-0.91806c0.38516,-0.22688 0.82045,-0.34031 1.30586,-0.34031c0.47486,0 0.90223,0.11344 1.28212,0.34032c0.38516,0.2216 0.68855,0.52762 0.91015,0.91806c0.2216,0.38516 0.3324,0.82573 0.3324,1.32169c0,0.49597 -0.1108,0.93917 -0.3324,1.3296c-0.2216,0.38516 -0.52498,0.69118 -0.91014,0.91806c-0.37989,0.2216 -0.80726,0.3324 -1.28212,0.3324zM190.47906,176.47595c0.29547,0 0.55928,-0.07387 0.79143,-0.2216c0.23215,-0.14774 0.41418,-0.34823 0.54609,-0.60149c0.13191,-0.25854 0.19522,-0.54872 0.18994,-0.87057c0.00528,-0.32712 -0.05804,-0.61732 -0.18994,-0.87057c-0.13191,-0.25854 -0.31393,-0.45903 -0.54609,-0.60149c-0.23215,-0.14774 -0.49597,-0.2216 -0.79143,-0.2216c-0.29547,0 -0.56191,0.07387 -0.79934,0.2216c-0.23743,0.14774 -0.4221,0.35087 -0.554,0.6094c-0.13191,0.25326 -0.19522,0.54081 -0.18994,0.86266c-0.00528,0.32185 0.05804,0.61204 0.18994,0.87057c0.13191,0.25326 0.31657,0.45375 0.554,0.60149c0.23743,0.14774 0.50388,0.2216 0.79935,0.2216zM196.7047,177.26738v-4.96227h0.98137v1.55912l-0.09497,-0.37989c0.06859,-0.23743 0.1873,-0.45375 0.35615,-0.64897c0.16884,-0.19522 0.36142,-0.34823 0.57775,-0.45903c0.21632,-0.11608 0.44056,-0.17411 0.67272,-0.17411c0.10552,0 0.20577,0.01055 0.30074,0.03166c0.10025,0.01583 0.17939,0.03694 0.23743,0.06331l-0.25326,1.06052c-0.07387,-0.03166 -0.15829,-0.05804 -0.25326,-0.07914c-0.08969,-0.02638 -0.17939,-0.03957 -0.26909,-0.03957c-0.16884,0 -0.32976,0.0343 -0.48277,0.10289c-0.15301,0.06331 -0.29019,0.15565 -0.41154,0.277c-0.11608,0.11608 -0.20841,0.25062 -0.277,0.40363c-0.06859,0.15301 -0.10288,0.32185 -0.10288,0.50652v2.73835zM202.61589,177.36235c-0.50652,0 -0.95763,-0.10816 -1.35334,-0.32448c-0.39044,-0.21632 -0.6991,-0.51443 -0.92597,-0.89431c-0.2216,-0.37989 -0.3324,-0.81517 -0.3324,-1.30586c0,-0.39044 0.06331,-0.74658 0.18994,-1.06843c0.12663,-0.32185 0.30074,-0.59885 0.52234,-0.831c0.2216,-0.23743 0.48805,-0.41946 0.79935,-0.54609c0.31657,-0.13191 0.65689,-0.19786 1.02095,-0.19786c0.32185,0 0.61996,0.06068 0.89432,0.18203c0.27964,0.12135 0.51971,0.29019 0.72021,0.50652c0.20577,0.21632 0.36406,0.47222 0.47486,0.76769c0.1108,0.29019 0.16356,0.60677 0.15829,0.94972l-0.00791,0.41946h-4.05213l-0.2216,-0.7756h3.4269l-0.13454,0.15829v-0.2216c-0.02111,-0.21105 -0.09233,-0.39835 -0.21368,-0.56191c-0.11608,-0.16356 -0.26645,-0.29283 -0.45111,-0.3878c-0.18467,-0.09497 -0.38253,-0.14246 -0.59357,-0.14246c-0.34295,0 -0.63051,0.06595 -0.86266,0.19786c-0.23215,0.12663 -0.40891,0.31657 -0.53026,0.56983c-0.11608,0.24798 -0.17411,0.554 -0.17411,0.91806c0,0.34295 0.07123,0.6437 0.21369,0.90223c0.14246,0.25326 0.34559,0.45112 0.6094,0.59358c0.26909,0.13718 0.57511,0.20577 0.91806,0.20577c0.24798,0 0.4775,-0.03957 0.68855,-0.11871c0.21105,-0.08442 0.44056,-0.23479 0.68855,-0.45111l0.49069,0.68855c-0.15301,0.15301 -0.33768,0.28755 -0.554,0.40363c-0.21632,0.1108 -0.44584,0.20049 -0.68854,0.26909c-0.24271,0.06331 -0.48277,0.09497 -0.7202,0.09497zM207.49653,177.36235c-0.41682,0 -0.79143,-0.07123 -1.12383,-0.21368c-0.3324,-0.14774 -0.6094,-0.36406 -0.831,-0.64897l0.65689,-0.56191c0.18994,0.21632 0.39572,0.37461 0.61732,0.47486c0.22688,0.09497 0.48278,0.14246 0.76769,0.14246c0.1108,0 0.21369,-0.01319 0.30866,-0.03957c0.10025,-0.02638 0.1873,-0.06859 0.26117,-0.12663c0.07387,-0.05804 0.12927,-0.12663 0.1662,-0.20577c0.03694,-0.07914 0.0554,-0.1662 0.0554,-0.26117c0,-0.16356 -0.06068,-0.29547 -0.18203,-0.39572c-0.06331,-0.04221 -0.16356,-0.08969 -0.30074,-0.14246c-0.13191,-0.05276 -0.30602,-0.10816 -0.52234,-0.1662c-0.36406,-0.09497 -0.66216,-0.20049 -0.89431,-0.31657c-0.23215,-0.12135 -0.41154,-0.25854 -0.53817,-0.41154c-0.09497,-0.12135 -0.1662,-0.25062 -0.21368,-0.3878c-0.04221,-0.14246 -0.06331,-0.30074 -0.06331,-0.47486c0,-0.20577 0.04485,-0.39572 0.13455,-0.56983c0.09497,-0.17411 0.2216,-0.32448 0.37989,-0.45111c0.16356,-0.13191 0.35351,-0.23215 0.56983,-0.30074c0.21632,-0.06859 0.44848,-0.10288 0.69646,-0.10288c0.23215,0 0.46167,0.03166 0.68855,0.09497c0.23215,0.06331 0.44584,0.15565 0.64106,0.277c0.19521,0.11608 0.35877,0.2559 0.49067,0.41946l-0.55399,0.61732c-0.12135,-0.12135 -0.25326,-0.22688 -0.39572,-0.31657c-0.14246,-0.08969 -0.28755,-0.15829 -0.43528,-0.20577c-0.14246,-0.05276 -0.27173,-0.07914 -0.3878,-0.07914c-0.13191,0 -0.25326,0.01319 -0.36406,0.03957c-0.10552,0.02111 -0.19522,0.05804 -0.26909,0.1108c-0.06859,0.04749 -0.12399,0.1108 -0.1662,0.18994c-0.03694,0.07387 -0.0554,0.15829 -0.0554,0.25326c0.00528,0.07914 0.02638,0.15565 0.06331,0.22952c0.03694,0.07387 0.08706,0.13455 0.15037,0.18203c0.06859,0.05276 0.17148,0.10816 0.30866,0.1662c0.13718,0.05276 0.31393,0.10552 0.53026,0.15829c0.31129,0.07914 0.56983,0.16884 0.7756,0.26909c0.20577,0.09497 0.36933,0.20577 0.49067,0.3324c0.12663,0.12135 0.21369,0.26117 0.26117,0.41946c0.05276,0.15829 0.07914,0.33504 0.07914,0.53026c0,0.27964 -0.08178,0.5329 -0.24534,0.75977c-0.15828,0.2216 -0.37459,0.39572 -0.64896,0.52234c-0.26909,0.12663 -0.56983,0.18994 -0.90223,0.18994zM212.67981,177.36235c-0.50652,0 -0.95763,-0.10816 -1.35334,-0.32448c-0.39044,-0.21632 -0.6991,-0.51443 -0.92597,-0.89431c-0.2216,-0.37989 -0.3324,-0.81517 -0.3324,-1.30586c0,-0.39044 0.06331,-0.74658 0.18994,-1.06843c0.12663,-0.32185 0.30074,-0.59885 0.52234,-0.831c0.2216,-0.23743 0.48805,-0.41946 0.79935,-0.54609c0.31657,-0.13191 0.65689,-0.19786 1.02095,-0.19786c0.32185,0 0.61996,0.06068 0.89432,0.18203c0.27964,0.12135 0.51971,0.29019 0.72021,0.50652c0.20577,0.21632 0.36406,0.47222 0.47486,0.76769c0.1108,0.29019 0.16356,0.60677 0.15829,0.94972l-0.00791,0.41946h-4.05213l-0.2216,-0.7756h3.4269l-0.13454,0.15829v-0.2216c-0.02111,-0.21105 -0.09233,-0.39835 -0.21368,-0.56191c-0.11608,-0.16356 -0.26645,-0.29283 -0.45111,-0.3878c-0.18467,-0.09497 -0.38253,-0.14246 -0.59357,-0.14246c-0.34295,0 -0.63051,0.06595 -0.86266,0.19786c-0.23215,0.12663 -0.40891,0.31657 -0.53026,0.56983c-0.11608,0.24798 -0.17411,0.554 -0.17411,0.91806c0,0.34295 0.07123,0.6437 0.21369,0.90223c0.14246,0.25326 0.34559,0.45112 0.6094,0.59358c0.26909,0.13718 0.57511,0.20577 0.91806,0.20577c0.24798,0 0.4775,-0.03957 0.68855,-0.11871c0.21105,-0.08442 0.44056,-0.23479 0.68855,-0.45111l0.49069,0.68855c-0.15301,0.15301 -0.33768,0.28755 -0.554,0.40363c-0.21632,0.1108 -0.44584,0.20049 -0.68854,0.26909c-0.24271,0.06331 -0.48277,0.09497 -0.7202,0.09497zM216.52369,177.26738v-6.22856h0.97346v6.22857zM215.48691,173.25482v-0.94972h3.15781v0.94972zM223.01197,179.44382l1.00512,-2.31889l0.00792,0.7756l-2.47718,-5.59542h1.13175l1.55121,3.6485c0.03166,0.06331 0.06859,0.16093 0.1108,0.29283c0.04749,0.12663 0.08706,0.25326 0.11872,0.37989l-0.24534,0.0554c0.04749,-0.13191 0.09497,-0.26381 0.14246,-0.39572c0.04749,-0.13191 0.09233,-0.26381 0.13455,-0.39572l1.29795,-3.58518h1.15549l-2.04189,4.96228l-0.83892,2.17644zM229.80851,177.36235c-0.48541,0 -0.9207,-0.1108 -1.30586,-0.3324c-0.37989,-0.22688 -0.68063,-0.5329 -0.90223,-0.91806c-0.21632,-0.39044 -0.32448,-0.83364 -0.32448,-1.3296c0,-0.49597 0.10816,-0.93653 0.32449,-1.32169c0.2216,-0.39044 0.52234,-0.69646 0.90223,-0.91806c0.38516,-0.22688 0.82045,-0.34031 1.30586,-0.34031c0.47486,0 0.90223,0.11344 1.28212,0.34032c0.38516,0.2216 0.68855,0.52762 0.91015,0.91806c0.2216,0.38516 0.3324,0.82573 0.3324,1.32169c0,0.49597 -0.1108,0.93917 -0.3324,1.3296c-0.2216,0.38516 -0.52498,0.69118 -0.91014,0.91806c-0.37989,0.2216 -0.80726,0.3324 -1.28212,0.3324zM229.80851,176.47595c0.29547,0 0.55928,-0.07387 0.79143,-0.2216c0.23215,-0.14774 0.41418,-0.34823 0.54609,-0.60149c0.13191,-0.25854 0.19522,-0.54872 0.18994,-0.87057c0.00528,-0.32712 -0.05804,-0.61732 -0.18994,-0.87057c-0.13191,-0.25854 -0.31393,-0.45903 -0.54609,-0.60149c-0.23215,-0.14774 -0.49597,-0.2216 -0.79143,-0.2216c-0.29547,0 -0.56191,0.07387 -0.79934,0.2216c-0.23743,0.14774 -0.4221,0.35087 -0.554,0.6094c-0.13191,0.25326 -0.19522,0.54081 -0.18994,0.86266c-0.00528,0.32185 0.05804,0.61204 0.18994,0.87057c0.13191,0.25326 0.31657,0.45375 0.554,0.60149c0.23743,0.14774 0.50388,0.2216 0.79935,0.2216zM235.1294,177.36235c-0.35351,0 -0.66216,-0.08178 -0.92597,-0.24534c-0.25854,-0.16356 -0.45903,-0.39308 -0.60149,-0.68854c-0.14246,-0.29547 -0.21368,-0.64897 -0.21368,-1.06052v-3.06284h0.97346v2.80167c0,0.28492 0.04485,0.5329 0.13455,0.74395c0.09497,0.21105 0.22688,0.37461 0.39572,0.49069c0.17411,0.1108 0.38516,0.1662 0.63315,0.1662c0.17939,0 0.34559,-0.02902 0.4986,-0.08705c0.15301,-0.05804 0.28492,-0.13982 0.39572,-0.24534c0.1108,-0.1108 0.19522,-0.24007 0.25326,-0.3878c0.06331,-0.15301 0.09497,-0.31921 0.09497,-0.4986v-2.98369h0.97346v4.96228h-0.97346v-1.03677l0.17411,-0.11871c-0.07387,0.23743 -0.20049,0.45112 -0.37989,0.64106c-0.17939,0.18467 -0.39308,0.3324 -0.64106,0.4432c-0.24798,0.1108 -0.51179,0.1662 -0.79143,0.1662zM239.1053,177.26738v-4.96227h0.98137v1.55912l-0.09497,-0.37989c0.06859,-0.23743 0.1873,-0.45375 0.35615,-0.64897c0.16884,-0.19522 0.36142,-0.34823 0.57775,-0.45903c0.21632,-0.11608 0.44056,-0.17411 0.67272,-0.17411c0.10552,0 0.20577,0.01055 0.30074,0.03166c0.10025,0.01583 0.17939,0.03694 0.23743,0.06331l-0.25326,1.06052c-0.07387,-0.03166 -0.15829,-0.05804 -0.25326,-0.07914c-0.08969,-0.02638 -0.17939,-0.03957 -0.26909,-0.03957c-0.16884,0 -0.32976,0.0343 -0.48277,0.10289c-0.15301,0.06331 -0.29019,0.15565 -0.41154,0.277c-0.11608,0.11608 -0.20841,0.25062 -0.277,0.40363c-0.06859,0.15301 -0.10288,0.32185 -0.10288,0.50652v2.73835zM245.55945,179.34885v-7.04374h0.98137v1.13175l-0.15037,-0.07914c0.03694,-0.18994 0.14246,-0.37197 0.31657,-0.54609c0.17939,-0.17411 0.39572,-0.31657 0.64897,-0.42737c0.25854,-0.1108 0.52234,-0.1662 0.79143,-0.1662c0.44848,0 0.8442,0.1108 1.18715,0.3324c0.34823,0.2216 0.62259,0.52498 0.82309,0.91015c0.20577,0.38516 0.30866,0.82573 0.30866,1.32169c0,0.49069 -0.10025,0.93125 -0.30074,1.32169c-0.20049,0.38516 -0.47486,0.69118 -0.82309,0.91806c-0.34295,0.2216 -0.73076,0.3324 -1.1634,0.3324c-0.29019,0 -0.57247,-0.05804 -0.84683,-0.17411c-0.26909,-0.11608 -0.4986,-0.26645 -0.68854,-0.45111c-0.18994,-0.18467 -0.30602,-0.37461 -0.34823,-0.56983l0.24535,-0.12663v3.3161zM248.01289,176.45221c0.29019,0 0.54872,-0.07123 0.7756,-0.21368c0.22688,-0.14774 0.40627,-0.34559 0.53817,-0.59357c0.13191,-0.25326 0.19786,-0.54081 0.19786,-0.86266c0,-0.32185 -0.06595,-0.60677 -0.19786,-0.85475c-0.12663,-0.24798 -0.30338,-0.4432 -0.53026,-0.58566c-0.2216,-0.14774 -0.48277,-0.2216 -0.78351,-0.2216c-0.29547,0 -0.55664,0.07123 -0.78351,0.21369c-0.22688,0.14246 -0.40627,0.34032 -0.53817,0.59358c-0.13191,0.24798 -0.19786,0.5329 -0.19786,0.85475c0,0.32185 0.06595,0.6094 0.19786,0.86266c0.13191,0.24798 0.31129,0.44584 0.53817,0.59358c0.22688,0.14246 0.48805,0.21369 0.78352,0.21369zM253.42955,177.36235c-0.40627,0 -0.77824,-0.11344 -1.11592,-0.34031c-0.33768,-0.22688 -0.6094,-0.53553 -0.81517,-0.92597c-0.20049,-0.39044 -0.30074,-0.831 -0.30074,-1.32169c0,-0.50124 0.10289,-0.94444 0.30866,-1.3296c0.20577,-0.38516 0.48278,-0.68854 0.83101,-0.91014c0.35351,-0.2216 0.74658,-0.3324 1.17924,-0.3324c0.25854,0 0.49333,0.03957 0.70438,0.11872c0.21632,0.07387 0.40363,0.17939 0.56192,0.31657c0.16356,0.13191 0.29547,0.28755 0.39572,0.46695c0.10552,0.17411 0.17148,0.36142 0.19786,0.56192l-0.21368,-0.07123v-1.29003h0.98137v4.96228h-0.98137v-1.17923l0.2216,-0.07123c-0.03694,0.17411 -0.11344,0.34295 -0.22951,0.50652c-0.11608,0.15829 -0.26381,0.30074 -0.4432,0.42737c-0.17939,0.12135 -0.37725,0.2216 -0.59357,0.30074c-0.21632,0.07387 -0.44584,0.1108 -0.68854,0.1108zM253.68281,176.46804c0.30074,0 0.56192,-0.07123 0.78352,-0.21368c0.22688,-0.14774 0.40363,-0.34823 0.53026,-0.60149c0.13191,-0.25854 0.19786,-0.55136 0.19786,-0.87849c0,-0.32185 -0.06595,-0.6094 -0.19786,-0.86266c-0.12663,-0.25326 -0.30338,-0.45111 -0.53026,-0.59357c-0.2216,-0.14774 -0.48277,-0.2216 -0.78351,-0.2216c-0.29019,0 -0.54609,0.07387 -0.76769,0.2216c-0.2216,0.14246 -0.39835,0.34032 -0.53026,0.59358c-0.12663,0.25326 -0.18994,0.54081 -0.18994,0.86266c0,0.32712 0.06331,0.61996 0.18994,0.87849c0.13191,0.25326 0.30866,0.45375 0.53026,0.60149c0.2216,0.14246 0.4775,0.21369 0.76769,0.21369zM259.15794,177.36235c-0.41682,0 -0.79143,-0.07123 -1.12383,-0.21368c-0.3324,-0.14774 -0.6094,-0.36406 -0.831,-0.64897l0.65689,-0.56191c0.18994,0.21632 0.39572,0.37461 0.61732,0.47486c0.22688,0.09497 0.48278,0.14246 0.76769,0.14246c0.1108,0 0.21369,-0.01319 0.30866,-0.03957c0.10025,-0.02638 0.1873,-0.06859 0.26117,-0.12663c0.07387,-0.05804 0.12927,-0.12663 0.1662,-0.20577c0.03694,-0.07914 0.0554,-0.1662 0.0554,-0.26117c0,-0.16356 -0.06068,-0.29547 -0.18203,-0.39572c-0.06331,-0.04221 -0.16356,-0.08969 -0.30074,-0.14246c-0.13191,-0.05276 -0.30602,-0.10816 -0.52234,-0.1662c-0.36406,-0.09497 -0.66216,-0.20049 -0.89431,-0.31657c-0.23215,-0.12135 -0.41154,-0.25854 -0.53817,-0.41154c-0.09497,-0.12135 -0.1662,-0.25062 -0.21368,-0.3878c-0.04221,-0.14246 -0.06331,-0.30074 -0.06331,-0.47486c0,-0.20577 0.04485,-0.39572 0.13455,-0.56983c0.09497,-0.17411 0.2216,-0.32448 0.37989,-0.45111c0.16356,-0.13191 0.35351,-0.23215 0.56983,-0.30074c0.21632,-0.06859 0.44848,-0.10288 0.69646,-0.10288c0.23215,0 0.46167,0.03166 0.68855,0.09497c0.23215,0.06331 0.44584,0.15565 0.64106,0.277c0.19522,0.11608 0.35878,0.2559 0.49069,0.41946l-0.554,0.61732c-0.12135,-0.12135 -0.25326,-0.22688 -0.39572,-0.31657c-0.14246,-0.08969 -0.28755,-0.15829 -0.43528,-0.20577c-0.14246,-0.05276 -0.27173,-0.07914 -0.3878,-0.07914c-0.13191,0 -0.25326,0.01319 -0.36406,0.03957c-0.10552,0.02111 -0.19522,0.05804 -0.26909,0.1108c-0.06859,0.04749 -0.12399,0.1108 -0.1662,0.18994c-0.03694,0.07387 -0.0554,0.15829 -0.0554,0.25326c0.00528,0.07914 0.02638,0.15565 0.06331,0.22952c0.03694,0.07387 0.08706,0.13455 0.15037,0.18203c0.06859,0.05276 0.17148,0.10816 0.30866,0.1662c0.13718,0.05276 0.31393,0.10552 0.53026,0.15829c0.31129,0.07914 0.56983,0.16884 0.7756,0.26909c0.20577,0.09497 0.36934,0.20577 0.49069,0.3324c0.12663,0.12135 0.21369,0.26117 0.26117,0.41946c0.05276,0.15829 0.07914,0.33504 0.07914,0.53026c0,0.27964 -0.08178,0.5329 -0.24534,0.75977c-0.15829,0.2216 -0.37461,0.39572 -0.64897,0.52234c-0.26909,0.12663 -0.56983,0.18994 -0.90223,0.18994zM263.68433,177.36235c-0.41682,0 -0.79143,-0.07123 -1.12383,-0.21368c-0.3324,-0.14774 -0.6094,-0.36406 -0.831,-0.64897l0.65689,-0.56191c0.18994,0.21632 0.39572,0.37461 0.61732,0.47486c0.22688,0.09497 0.48278,0.14246 0.76769,0.14246c0.1108,0 0.21369,-0.01319 0.30866,-0.03957c0.10025,-0.02638 0.1873,-0.06859 0.26117,-0.12663c0.07387,-0.05804 0.12927,-0.12663 0.1662,-0.20577c0.03694,-0.07914 0.0554,-0.1662 0.0554,-0.26117c0,-0.16356 -0.06068,-0.29547 -0.18203,-0.39572c-0.06331,-0.04221 -0.16356,-0.08969 -0.30074,-0.14246c-0.13191,-0.05276 -0.30602,-0.10816 -0.52234,-0.1662c-0.36406,-0.09497 -0.66216,-0.20049 -0.89431,-0.31657c-0.23215,-0.12135 -0.41154,-0.25854 -0.53817,-0.41154c-0.09497,-0.12135 -0.1662,-0.25062 -0.21368,-0.3878c-0.04221,-0.14246 -0.06331,-0.30074 -0.06331,-0.47486c0,-0.20577 0.04485,-0.39572 0.13455,-0.56983c0.09497,-0.17411 0.2216,-0.32448 0.37989,-0.45111c0.16356,-0.13191 0.35351,-0.23215 0.56983,-0.30074c0.21632,-0.06859 0.44848,-0.10288 0.69646,-0.10288c0.23215,0 0.46167,0.03166 0.68855,0.09497c0.23215,0.06331 0.44584,0.15565 0.64106,0.277c0.19522,0.11608 0.35878,0.2559 0.49069,0.41946l-0.554,0.61732c-0.12135,-0.12135 -0.25326,-0.22688 -0.39572,-0.31657c-0.14246,-0.08969 -0.28755,-0.15829 -0.43528,-0.20577c-0.14246,-0.05276 -0.27173,-0.07914 -0.3878,-0.07914c-0.13191,0 -0.25326,0.01319 -0.36406,0.03957c-0.10552,0.02111 -0.19522,0.05804 -0.26909,0.1108c-0.06859,0.04749 -0.12399,0.1108 -0.1662,0.18994c-0.03694,0.07387 -0.0554,0.15829 -0.0554,0.25326c0.00528,0.07914 0.02638,0.15565 0.06331,0.22952c0.03694,0.07387 0.08706,0.13455 0.15037,0.18203c0.06859,0.05276 0.17148,0.10816 0.30866,0.1662c0.13718,0.05276 0.31393,0.10552 0.53026,0.15829c0.31129,0.07914 0.56983,0.16884 0.7756,0.26909c0.20577,0.09497 0.36934,0.20577 0.49069,0.3324c0.12663,0.12135 0.21369,0.26117 0.26117,0.41946c0.05276,0.15829 0.07914,0.33504 0.07914,0.53026c0,0.27964 -0.08178,0.5329 -0.24534,0.75977c-0.15829,0.2216 -0.37461,0.39572 -0.64897,0.52234c-0.26909,0.12663 -0.56983,0.18994 -0.90223,0.18994zM267.77545,177.26738l-1.69366,-4.96227l0.98137,-0.00791l1.21089,3.71182l-0.21368,-0.01583l1.31378,-2.90455h0.58566l1.32169,2.91247l-0.25326,0.01583l1.2188,-3.71181h0.98137l-1.66992,4.96228h-0.67271l-1.385,-3.15781l0.2216,0.03166l-1.28212,3.12616zM276.20642,177.36235c-0.48541,0 -0.9207,-0.1108 -1.30586,-0.3324c-0.37989,-0.22688 -0.68063,-0.5329 -0.90223,-0.91806c-0.21632,-0.39044 -0.32448,-0.83364 -0.32448,-1.3296c0,-0.49597 0.10816,-0.93653 0.32449,-1.32169c0.2216,-0.39044 0.52234,-0.69646 0.90223,-0.91806c0.38516,-0.22688 0.82045,-0.34031 1.30586,-0.34031c0.47486,0 0.90223,0.11344 1.28212,0.34032c0.38516,0.2216 0.68855,0.52762 0.91015,0.91806c0.2216,0.38516 0.3324,0.82573 0.3324,1.32169c0,0.49597 -0.1108,0.93917 -0.3324,1.3296c-0.2216,0.38516 -0.52498,0.69118 -0.91014,0.91806c-0.37989,0.2216 -0.80726,0.3324 -1.28212,0.3324zM276.20642,176.47595c0.29547,0 0.55928,-0.07387 0.79143,-0.2216c0.23215,-0.14774 0.41418,-0.34823 0.54609,-0.60149c0.13191,-0.25854 0.19522,-0.54872 0.18994,-0.87057c0.00528,-0.32712 -0.05804,-0.61732 -0.18994,-0.87057c-0.13191,-0.25854 -0.31393,-0.45903 -0.54609,-0.60149c-0.23215,-0.14774 -0.49597,-0.2216 -0.79143,-0.2216c-0.29547,0 -0.56191,0.07387 -0.79934,0.2216c-0.23743,0.14774 -0.4221,0.35087 -0.554,0.6094c-0.13191,0.25326 -0.19522,0.54081 -0.18994,0.86266c-0.00528,0.32185 0.05804,0.61204 0.18994,0.87057c0.13191,0.25326 0.31657,0.45375 0.554,0.60149c0.23743,0.14774 0.50388,0.2216 0.79935,0.2216zM279.78613,177.26738v-4.96227h0.98137v1.55912l-0.09497,-0.37989c0.06859,-0.23743 0.1873,-0.45375 0.35615,-0.64897c0.16884,-0.19522 0.36142,-0.34823 0.57775,-0.45903c0.21632,-0.11608 0.44056,-0.17411 0.67272,-0.17411c0.10552,0 0.20577,0.01055 0.30074,0.03166c0.10025,0.01583 0.17939,0.03694 0.23743,0.06331l-0.25326,1.06052c-0.07387,-0.03166 -0.15829,-0.05804 -0.25326,-0.07914c-0.08969,-0.02638 -0.17939,-0.03957 -0.26909,-0.03957c-0.16884,0 -0.32976,0.0343 -0.48277,0.10289c-0.15301,0.06331 -0.29019,0.15565 -0.41154,0.277c-0.11608,0.11608 -0.20841,0.25062 -0.277,0.40363c-0.06859,0.15301 -0.10288,0.32185 -0.10288,0.50652v2.73835zM285.45201,177.36235c-0.45375,0 -0.85738,-0.1108 -1.21089,-0.3324c-0.35351,-0.22688 -0.63578,-0.5329 -0.84683,-0.91806c-0.20577,-0.39044 -0.30866,-0.83364 -0.30866,-1.3296c0,-0.49597 0.10025,-0.93653 0.30074,-1.32169c0.20577,-0.39044 0.48541,-0.69646 0.83892,-0.91806c0.35351,-0.22688 0.7545,-0.34031 1.20298,-0.34031c0.24271,0 0.48014,0.03957 0.71229,0.11872c0.23215,0.07914 0.43792,0.1873 0.61732,0.32449c0.18467,0.13191 0.32712,0.27964 0.42737,0.4432c0.10552,0.15829 0.15829,0.31921 0.15829,0.48278l-0.28492,0.02375v-3.32401h0.97346v6.99625h-0.97346v-1.17923h0.18994c0,0.14774 -0.05012,0.2981 -0.15037,0.45112c-0.10025,0.14774 -0.23479,0.28492 -0.40363,0.41154c-0.16356,0.12135 -0.35614,0.2216 -0.57774,0.30074c-0.21632,0.07387 -0.43792,0.1108 -0.6648,0.1108zM285.58655,176.52343c0.29547,0 0.55664,-0.0765 0.78352,-0.22951c0.22688,-0.15301 0.40363,-0.35878 0.53026,-0.61732c0.13191,-0.26381 0.19786,-0.56191 0.19786,-0.89431c0,-0.3324 -0.06595,-0.62787 -0.19786,-0.8864c-0.12663,-0.26381 -0.30338,-0.47222 -0.53026,-0.62523c-0.22688,-0.15301 -0.48805,-0.22951 -0.78351,-0.22951c-0.29547,0 -0.55664,0.0765 -0.78351,0.22952c-0.22688,0.15301 -0.40627,0.36142 -0.53817,0.62523c-0.12663,0.25854 -0.18994,0.554 -0.18994,0.8864c0,0.3324 0.06331,0.63051 0.18994,0.89432c0.13191,0.25854 0.31129,0.46431 0.53817,0.61732c0.22688,0.15301 0.48805,0.22952 0.78352,0.22952zM289.77319,177.37027c-0.20577,0 -0.3667,-0.06068 -0.48277,-0.18203c-0.1108,-0.12135 -0.1662,-0.29547 -0.1662,-0.52234c0,-0.21105 0.05804,-0.38253 0.17411,-0.51443c0.12135,-0.13191 0.27964,-0.19786 0.47486,-0.19786c0.21105,0 0.37198,0.06331 0.48278,0.18994c0.11608,0.12135 0.17411,0.29547 0.17411,0.52234c0,0.20577 -0.06068,0.37461 -0.18203,0.50652c-0.12135,0.13191 -0.27964,0.19786 -0.47486,0.19786zM297.1062,177.36235c-0.45903,0 -0.88113,-0.08178 -1.26629,-0.24534c-0.38516,-0.16356 -0.7202,-0.39835 -1.00512,-0.70437c-0.27964,-0.30602 -0.4986,-0.66744 -0.65689,-1.08426c-0.15301,-0.41682 -0.22951,-0.87321 -0.22951,-1.36917c0,-0.46958 0.08442,-0.90751 0.25326,-1.31378c0.16884,-0.40627 0.40099,-0.76241 0.69646,-1.06843c0.29547,-0.31129 0.63842,-0.55136 1.02886,-0.7202c0.39044,-0.17411 0.81254,-0.26117 1.26629,-0.26117c0.32185,0 0.63578,0.05012 0.94181,0.15037c0.30602,0.09497 0.58302,0.22952 0.83101,0.40363c0.24798,0.17411 0.45112,0.37198 0.6094,0.59358l-0.68063,0.70438c-0.18467,-0.18467 -0.36934,-0.33768 -0.554,-0.45903c-0.18467,-0.12135 -0.37461,-0.21368 -0.56983,-0.277c-0.18994,-0.06331 -0.38253,-0.09497 -0.57774,-0.09497c-0.31129,0 -0.60149,0.05804 -0.87057,0.17411c-0.26381,0.11608 -0.49597,0.27964 -0.69646,0.49069c-0.19522,0.20577 -0.35087,0.45375 -0.46694,0.74395c-0.1108,0.28492 -0.1662,0.59621 -0.1662,0.93389c0,0.35878 0.05276,0.68591 0.15829,0.98137c0.1108,0.29019 0.26645,0.54081 0.46695,0.75186c0.20577,0.20577 0.44848,0.36406 0.72812,0.47486c0.27964,0.1108 0.59094,0.1662 0.93389,0.1662c0.20577,0 0.40891,-0.02902 0.6094,-0.08705c0.20049,-0.05804 0.3878,-0.13982 0.56192,-0.24534c0.17939,-0.10552 0.34295,-0.23215 0.49069,-0.37989l0.50652,0.83101c-0.14246,0.17411 -0.34031,0.32976 -0.59357,0.46695c-0.24798,0.13718 -0.52498,0.24535 -0.831,0.32449c-0.30074,0.07914 -0.60677,0.11872 -0.91806,0.11872zM302.82609,177.36235c-0.48541,0 -0.9207,-0.1108 -1.30586,-0.3324c-0.37989,-0.22688 -0.68063,-0.5329 -0.90223,-0.91806c-0.21632,-0.39044 -0.32448,-0.83364 -0.32448,-1.3296c0,-0.49597 0.10816,-0.93653 0.32449,-1.32169c0.2216,-0.39044 0.52234,-0.69646 0.90223,-0.91806c0.38516,-0.22688 0.82045,-0.34031 1.30586,-0.34031c0.47486,0 0.90223,0.11344 1.28212,0.34032c0.38516,0.2216 0.68855,0.52762 0.91015,0.91806c0.2216,0.38516 0.3324,0.82573 0.3324,1.32169c0,0.49597 -0.1108,0.93917 -0.3324,1.3296c-0.2216,0.38516 -0.52498,0.69118 -0.91014,0.91806c-0.37989,0.2216 -0.80726,0.3324 -1.28212,0.3324zM302.82609,176.47595c0.29547,0 0.55928,-0.07387 0.79143,-0.2216c0.23215,-0.14774 0.41418,-0.34823 0.54609,-0.60149c0.13191,-0.25854 0.19522,-0.54872 0.18994,-0.87057c0.00528,-0.32712 -0.05804,-0.61732 -0.18994,-0.87057c-0.13191,-0.25854 -0.31393,-0.45903 -0.54609,-0.60149c-0.23215,-0.14774 -0.49597,-0.2216 -0.79143,-0.2216c-0.29547,0 -0.56191,0.07387 -0.79934,0.2216c-0.23743,0.14774 -0.4221,0.35087 -0.554,0.6094c-0.13191,0.25326 -0.19522,0.54081 -0.18994,0.86266c-0.00528,0.32185 0.05804,0.61204 0.18994,0.87057c0.13191,0.25326 0.31657,0.45375 0.554,0.60149c0.23743,0.14774 0.50388,0.2216 0.79935,0.2216zM306.40583,177.26738v-4.96227h0.97346v1.02095l-0.17411,0.1108c0.06331,-0.21632 0.1873,-0.41682 0.37198,-0.60149c0.18467,-0.18994 0.40099,-0.34295 0.64897,-0.45903c0.25326,-0.11608 0.51179,-0.17411 0.7756,-0.17411c0.37989,0 0.69382,0.07387 0.94181,0.2216c0.25326,0.14774 0.4432,0.37461 0.56983,0.68063c0.12663,0.30074 0.18994,0.68063 0.18994,1.13966v3.02327h-0.97346v-2.95995c0,-0.27964 -0.03694,-0.51179 -0.1108,-0.69646c-0.07387,-0.18994 -0.18994,-0.32712 -0.34823,-0.41154c-0.15829,-0.08442 -0.35351,-0.12135 -0.58566,-0.1108c-0.18994,0 -0.36406,0.03166 -0.52234,0.09497c-0.15829,0.05804 -0.29547,0.14246 -0.41154,0.25326c-0.11608,0.10552 -0.20841,0.22952 -0.277,0.37198c-0.06331,0.13718 -0.09497,0.28755 -0.09497,0.45112v3.00744h-0.48277c-0.07914,0 -0.16093,0 -0.24534,0c-0.08442,0 -0.1662,0 -0.24534,0zM312.64571,177.26738v-6.22856h0.97346v6.22857zM311.60894,173.25482v-0.94972h3.15781v0.94972zM317.51715,177.36235c-0.40627,0 -0.77824,-0.11344 -1.11592,-0.34031c-0.33768,-0.22688 -0.6094,-0.53553 -0.81517,-0.92597c-0.20049,-0.39044 -0.30074,-0.831 -0.30074,-1.32169c0,-0.50124 0.10289,-0.94444 0.30866,-1.3296c0.20577,-0.38516 0.48278,-0.68854 0.83101,-0.91014c0.35351,-0.2216 0.74658,-0.3324 1.17924,-0.3324c0.25854,0 0.49333,0.03957 0.70438,0.11872c0.21632,0.07387 0.40363,0.17939 0.56192,0.31657c0.16356,0.13191 0.29547,0.28755 0.39572,0.46695c0.10552,0.17411 0.17148,0.36142 0.19786,0.56192l-0.21368,-0.07123v-1.29003h0.98137v4.96228h-0.98137v-1.17923l0.2216,-0.07123c-0.03694,0.17411 -0.11344,0.34295 -0.22951,0.50652c-0.11608,0.15829 -0.26381,0.30074 -0.4432,0.42737c-0.17939,0.12135 -0.37725,0.2216 -0.59357,0.30074c-0.21632,0.07387 -0.44584,0.1108 -0.68854,0.1108zM317.77041,176.46804c0.30074,0 0.56192,-0.07123 0.78352,-0.21368c0.22688,-0.14774 0.40363,-0.34823 0.53026,-0.60149c0.13191,-0.25854 0.19786,-0.55136 0.19786,-0.87849c0,-0.32185 -0.06595,-0.6094 -0.19786,-0.86266c-0.12663,-0.25326 -0.30338,-0.45111 -0.53026,-0.59357c-0.2216,-0.14774 -0.48277,-0.2216 -0.78351,-0.2216c-0.29019,0 -0.54609,0.07387 -0.76769,0.2216c-0.2216,0.14246 -0.39835,0.34032 -0.53026,0.59358c-0.12663,0.25326 -0.18994,0.54081 -0.18994,0.86266c0,0.32712 0.06331,0.61996 0.18994,0.87849c0.13191,0.25326 0.30866,0.45375 0.53026,0.60149c0.2216,0.14246 0.4775,0.21369 0.76769,0.21369zM323.69666,177.36235c-0.45903,0 -0.87057,-0.11344 -1.23463,-0.34031c-0.35878,-0.22688 -0.6437,-0.53553 -0.85475,-0.92597c-0.21105,-0.39044 -0.31657,-0.82837 -0.31657,-1.31378c0,-0.48541 0.10552,-0.92334 0.31657,-1.31378c0.21105,-0.39044 0.49597,-0.6991 0.85475,-0.92597c0.36406,-0.22688 0.7756,-0.34031 1.23463,-0.34031c0.4432,0 0.8442,0.08969 1.20298,0.26909c0.36406,0.17939 0.64106,0.42473 0.83101,0.73603l-0.53817,0.65689c-0.10025,-0.14246 -0.22951,-0.27436 -0.3878,-0.39572c-0.15829,-0.12135 -0.32712,-0.21632 -0.50652,-0.28492c-0.17411,-0.06859 -0.34295,-0.10288 -0.50652,-0.10288c-0.30074,0 -0.56983,0.07387 -0.80726,0.2216c-0.23743,0.14774 -0.42473,0.35087 -0.56191,0.6094c-0.13718,0.25854 -0.20577,0.54872 -0.20577,0.87057c0,0.32185 0.07123,0.61204 0.21369,0.87057c0.14774,0.25326 0.34032,0.45639 0.57775,0.6094c0.23743,0.14774 0.50124,0.2216 0.79143,0.2216c0.17411,0 0.34032,-0.02902 0.4986,-0.08705c0.15829,-0.05804 0.31393,-0.14246 0.46695,-0.25326c0.15301,-0.11608 0.29547,-0.2559 0.42737,-0.41946l0.53817,0.6648c-0.20049,0.28492 -0.48805,0.51971 -0.86266,0.70438c-0.37461,0.17939 -0.76505,0.26909 -1.17132,0.26909zM327.26434,177.26738v-6.22856h0.97346v6.22857zM326.22757,173.25482v-0.94972h3.15781v0.94972z" fill="#ffffff" fill-rule="nonzero" stroke-linecap="square"/><path d="M119.03523,190.1408c-0.54872,0 -1.04205,-0.08442 -1.47997,-0.25326c-0.43792,-0.16356 -0.8099,-0.39835 -1.11592,-0.70437c-0.30074,-0.30602 -0.5329,-0.67271 -0.69646,-1.10009c-0.15829,-0.42737 -0.23743,-0.89959 -0.23743,-1.41666c0,-0.73867 0.12927,-1.40083 0.3878,-1.98649c0.26381,-0.59094 0.62523,-1.09218 1.08426,-1.50372c0.46431,-0.41154 1.00248,-0.72548 1.61452,-0.9418c0.61732,-0.2216 1.27684,-0.3324 1.97858,-0.3324c0.50124,0 0.95236,0.07123 1.35335,0.21369c0.40627,0.14246 0.7545,0.34559 1.04469,0.6094c0.29019,0.26381 0.51179,0.57775 0.6648,0.94181c0.15301,0.36406 0.22952,0.76505 0.22952,1.20298c0,0.42737 -0.06068,0.83628 -0.18203,1.22672c-0.12135,0.38516 -0.29283,0.72812 -0.51443,1.02886c-0.2216,0.30074 -0.48014,0.53817 -0.7756,0.71229c-0.29019,0.16884 -0.60413,0.25326 -0.9418,0.25326c-0.2216,0 -0.41682,-0.03957 -0.58566,-0.11871c-0.16356,-0.07914 -0.29283,-0.1873 -0.3878,-0.32448c-0.09497,-0.13718 -0.14246,-0.30338 -0.14246,-0.4986c0,-0.09497 0.01055,-0.19522 0.03166,-0.30074c0.02111,-0.1108 0.03957,-0.2216 0.0554,-0.3324l0.12663,0.18994c-0.09497,0.29547 -0.2216,0.54872 -0.37989,0.75977c-0.15829,0.20577 -0.34559,0.36142 -0.56191,0.46695c-0.21632,0.10552 -0.44848,0.15829 -0.69646,0.15829c-0.27436,0 -0.51707,-0.07123 -0.72812,-0.21368c-0.21105,-0.14774 -0.37725,-0.35087 -0.4986,-0.6094c-0.11608,-0.25854 -0.17411,-0.55664 -0.17411,-0.89431c0,-0.29547 0.05276,-0.59357 0.15829,-0.89431c0.10552,-0.30602 0.25854,-0.58302 0.45903,-0.831c0.20577,-0.25326 0.44584,-0.45903 0.72021,-0.61732c0.27964,-0.15829 0.58566,-0.23743 0.91806,-0.23743c0.19522,0 0.36934,0.04749 0.52234,0.14246c0.15829,0.09497 0.28492,0.22688 0.37989,0.39572c0.10025,0.16884 0.15829,0.3667 0.17411,0.59358l-0.2216,0.56192l0.24535,-1.6066h0.94972l-0.48277,2.91247c-0.01583,0.11608 -0.00791,0.21369 0.02375,0.29283c0.03694,0.07914 0.08969,0.13718 0.15829,0.17411c0.06859,0.03694 0.1451,0.0554 0.22952,0.0554c0.18994,0 0.3667,-0.06068 0.53026,-0.18203c0.16356,-0.12663 0.30338,-0.30074 0.41946,-0.52234c0.12135,-0.22688 0.21632,-0.48541 0.28492,-0.7756c0.06859,-0.29019 0.10289,-0.59621 0.10289,-0.91806c0,-0.46958 -0.10025,-0.87321 -0.30074,-1.21089c-0.20049,-0.33768 -0.49333,-0.59621 -0.87849,-0.7756c-0.37989,-0.17939 -0.83628,-0.26909 -1.36917,-0.26909c-0.6437,0 -1.22672,0.08969 -1.74906,0.26909c-0.52234,0.17939 -0.96819,0.44056 -1.33752,0.78352c-0.36934,0.34295 -0.65425,0.75977 -0.85475,1.25046c-0.19522,0.49069 -0.29283,1.04733 -0.29283,1.66992c0,0.43792 0.06068,0.82573 0.18203,1.16341c0.12663,0.33768 0.30602,0.62523 0.53817,0.86266c0.23215,0.23743 0.51971,0.41682 0.86266,0.53817c0.34823,0.12663 0.74395,0.18994 1.18715,0.18994c0.29547,0 0.54872,-0.02111 0.75977,-0.06331c0.21632,-0.04221 0.4221,-0.10552 0.61732,-0.18994c0.19522,-0.08442 0.41418,-0.18994 0.65689,-0.31657l0.34823,0.63315c-0.37461,0.18994 -0.69382,0.3324 -0.95763,0.42737c-0.26381,0.10025 -0.50915,0.16884 -0.73603,0.20577c-0.22688,0.03694 -0.46694,0.0554 -0.7202,0.0554zM119.12229,187.29165c0.21632,0 0.4221,-0.06859 0.61732,-0.20577c0.20049,-0.13718 0.37198,-0.31129 0.51443,-0.52234c0.14246,-0.21105 0.22952,-0.42737 0.26117,-0.64897c0.01583,-0.11608 0.02902,-0.21368 0.03957,-0.29283c0.01583,-0.08442 0.02375,-0.16356 0.02375,-0.23743c0,-0.16356 -0.03166,-0.30338 -0.09497,-0.41946c-0.06331,-0.12135 -0.15301,-0.21105 -0.26909,-0.26909c-0.11608,-0.06331 -0.25326,-0.09497 -0.41154,-0.09497c-0.24798,0 -0.47222,0.08969 -0.67271,0.26909c-0.20049,0.17939 -0.36142,0.40891 -0.48277,0.68855c-0.11608,0.27964 -0.17411,0.56719 -0.17411,0.86266c0,0.26909 0.05804,0.48278 0.17411,0.64106c0.11608,0.15301 0.27436,0.22952 0.47486,0.22952zM125.17048,188.61334v-6.61637h2.69087c0.35878,0 0.68327,0.08969 0.97346,0.26909c0.29547,0.17939 0.53026,0.42473 0.70438,0.73603c0.17939,0.30602 0.26909,0.64897 0.26909,1.02886c0,0.37989 -0.08969,0.72548 -0.26909,1.03678c-0.17411,0.30602 -0.40891,0.55136 -0.70437,0.73603c-0.29019,0.18467 -0.61468,0.277 -0.97346,0.277h-1.66992v2.53258zM126.19143,185.09938h1.65409c0.16884,0 0.32185,-0.04749 0.45903,-0.14246c0.14246,-0.10025 0.2559,-0.22951 0.34032,-0.3878c0.08442,-0.16356 0.12663,-0.34295 0.12663,-0.53817c0,-0.19522 -0.04221,-0.37197 -0.12663,-0.53026c-0.08442,-0.15829 -0.19786,-0.28492 -0.34031,-0.37989c-0.13718,-0.09497 -0.29019,-0.14246 -0.45903,-0.14246h-1.65409zM133.05354,188.70831c-0.48541,0 -0.9207,-0.1108 -1.30586,-0.3324c-0.37989,-0.22688 -0.68063,-0.5329 -0.90223,-0.91806c-0.21632,-0.39044 -0.32448,-0.83364 -0.32448,-1.3296c0,-0.49597 0.10816,-0.93653 0.32449,-1.32169c0.2216,-0.39044 0.52234,-0.69646 0.90223,-0.91806c0.38516,-0.22688 0.82045,-0.34031 1.30586,-0.34031c0.47486,0 0.90223,0.11344 1.28212,0.34032c0.38516,0.2216 0.68855,0.52762 0.91015,0.91806c0.2216,0.38516 0.3324,0.82573 0.3324,1.32169c0,0.49597 -0.1108,0.93917 -0.3324,1.3296c-0.2216,0.38516 -0.52498,0.69118 -0.91014,0.91806c-0.37989,0.2216 -0.80726,0.3324 -1.28212,0.3324zM133.05354,187.82191c0.29547,0 0.55928,-0.07387 0.79143,-0.2216c0.23215,-0.14774 0.41418,-0.34823 0.54609,-0.60149c0.13191,-0.25854 0.19522,-0.54872 0.18994,-0.87057c0.00528,-0.32712 -0.05804,-0.61732 -0.18994,-0.87057c-0.13191,-0.25854 -0.31393,-0.45903 -0.54609,-0.60149c-0.23215,-0.14774 -0.49597,-0.2216 -0.79143,-0.2216c-0.29547,0 -0.56191,0.07387 -0.79934,0.2216c-0.23743,0.14774 -0.4221,0.35087 -0.554,0.6094c-0.13191,0.25326 -0.19522,0.54081 -0.18994,0.86266c-0.00528,0.32185 0.05804,0.61204 0.18994,0.87057c0.13191,0.25326 0.31657,0.45375 0.554,0.60149c0.23743,0.14774 0.50388,0.2216 0.79935,0.2216zM136.6491,188.61334v-6.99625h0.97346v6.99625zM139.69431,190.78977l1.00512,-2.31889l0.00792,0.7756l-2.47718,-5.59542h1.13175l1.55121,3.6485c0.03166,0.06331 0.06859,0.16093 0.1108,0.29283c0.04749,0.12663 0.08706,0.25326 0.11872,0.37989l-0.24534,0.0554c0.04749,-0.13191 0.09497,-0.26381 0.14246,-0.39572c0.04749,-0.13191 0.09233,-0.26381 0.13455,-0.39572l1.29795,-3.58518h1.15549l-2.04189,4.96228l-0.83892,2.17644zM147.36894,188.70831c-0.46958,0 -0.90223,-0.08442 -1.29795,-0.25326c-0.39044,-0.17411 -0.73339,-0.41154 -1.02886,-0.71229c-0.29019,-0.30602 -0.51707,-0.6648 -0.68063,-1.07635c-0.15829,-0.41682 -0.23743,-0.87057 -0.23743,-1.36126c0,-0.49069 0.07914,-0.9418 0.23743,-1.35334c0.16356,-0.41154 0.39044,-0.77032 0.68063,-1.07635c0.29547,-0.30602 0.63842,-0.54345 1.02886,-0.71229c0.39572,-0.17411 0.82837,-0.26117 1.29795,-0.26117c0.46431,0 0.89168,0.08706 1.28212,0.26117c0.39572,0.16884 0.74131,0.40891 1.03678,0.72021c0.29547,0.30602 0.52234,0.6648 0.68063,1.07635c0.15829,0.41154 0.23743,0.86002 0.23743,1.34543c0,0.48541 -0.07914,0.93389 -0.23743,1.34543c-0.15829,0.41154 -0.38516,0.77296 -0.68063,1.08426c-0.29547,0.30602 -0.64106,0.54609 -1.03677,0.72021c-0.39044,0.16884 -0.81781,0.25326 -1.28212,0.25326zM147.36894,187.71902c0.32185,0 0.61468,-0.06068 0.87849,-0.18203c0.26909,-0.12135 0.50124,-0.29019 0.69646,-0.50652c0.19522,-0.21632 0.34823,-0.46958 0.45903,-0.75977c0.1108,-0.29547 0.1662,-0.61732 0.1662,-0.96555c0,-0.34823 -0.0554,-0.66744 -0.1662,-0.95763c-0.1108,-0.29547 -0.26381,-0.55136 -0.45903,-0.76769c-0.19522,-0.21632 -0.42737,-0.38253 -0.69646,-0.4986c-0.26381,-0.12135 -0.55664,-0.18203 -0.87849,-0.18203c-0.32185,0 -0.61732,0.06068 -0.8864,0.18203c-0.26909,0.11608 -0.50388,0.28228 -0.70437,0.4986c-0.19522,0.21105 -0.34559,0.46431 -0.45111,0.75977c-0.10552,0.29019 -0.15829,0.61204 -0.15829,0.96555c0,0.34823 0.05276,0.67008 0.15829,0.96555c0.10552,0.29547 0.2559,0.55136 0.45112,0.76769c0.20049,0.21105 0.43529,0.37725 0.70438,0.4986c0.26909,0.12135 0.56455,0.18203 0.8864,0.18203zM154.03047,188.70831c-0.35878,0 -0.69118,-0.04749 -0.9972,-0.14246c-0.30602,-0.09497 -0.58302,-0.23743 -0.831,-0.42737c-0.24798,-0.19522 -0.46958,-0.43265 -0.6648,-0.71229l0.69646,-0.80726c0.31129,0.4432 0.60677,0.74922 0.8864,0.91806c0.28492,0.16884 0.62259,0.25326 1.01303,0.25326c0.23743,0 0.45375,-0.03694 0.64897,-0.1108c0.19522,-0.07914 0.34823,-0.18467 0.45903,-0.31657c0.11608,-0.13191 0.17411,-0.28228 0.17411,-0.45111c0,-0.1108 -0.01847,-0.21632 -0.0554,-0.31657c-0.03694,-0.10552 -0.09497,-0.19786 -0.17411,-0.277c-0.07914,-0.08442 -0.17939,-0.16093 -0.30074,-0.22951c-0.12135,-0.06859 -0.26381,-0.12927 -0.42737,-0.18203c-0.16356,-0.05276 -0.35351,-0.09761 -0.56983,-0.13454c-0.33768,-0.07387 -0.63315,-0.1662 -0.8864,-0.277c-0.25326,-0.11608 -0.46431,-0.25854 -0.63315,-0.42737c-0.16884,-0.16884 -0.29547,-0.36142 -0.37989,-0.57774c-0.08442,-0.21632 -0.12663,-0.46167 -0.12663,-0.73603c0,-0.26381 0.05804,-0.50915 0.17411,-0.73603c0.12135,-0.22688 0.28228,-0.4221 0.48278,-0.58566c0.20577,-0.16884 0.44584,-0.2981 0.72021,-0.3878c0.27964,-0.09497 0.58038,-0.14246 0.90223,-0.14246c0.34295,0 0.65425,0.04485 0.93389,0.13455c0.28492,0.08969 0.53817,0.2216 0.75977,0.39572c0.2216,0.16884 0.40363,0.37989 0.54609,0.63315l-0.7202,0.71229c-0.12135,-0.21105 -0.26117,-0.38516 -0.41946,-0.52234c-0.15829,-0.14246 -0.3324,-0.25062 -0.52234,-0.32448c-0.18994,-0.07387 -0.39044,-0.1108 -0.60149,-0.1108c-0.24798,0 -0.46431,0.03957 -0.64897,0.11872c-0.17939,0.07387 -0.32185,0.17939 -0.42737,0.31657c-0.10552,0.13191 -0.15829,0.29019 -0.15829,0.47486c0,0.13191 0.02638,0.25326 0.07914,0.36406c0.05276,0.1108 0.12927,0.20841 0.22952,0.29283c0.10552,0.08442 0.24535,0.16093 0.41946,0.22952c0.17939,0.06331 0.39044,0.11872 0.63315,0.1662c0.34823,0.07914 0.65689,0.17675 0.92598,0.29283c0.27436,0.11608 0.50388,0.25326 0.68855,0.41154c0.18994,0.15829 0.3324,0.33504 0.42737,0.53026c0.10025,0.19522 0.15037,0.40627 0.15037,0.63315c0,0.4221 -0.09761,0.78879 -0.29283,1.10009c-0.19522,0.30602 -0.47222,0.54345 -0.831,0.71229c-0.35878,0.16356 -0.78615,0.24535 -1.28212,0.24535zM162.5176,188.70831c-0.48541,0 -0.9207,-0.1108 -1.30586,-0.3324c-0.37989,-0.22688 -0.68063,-0.5329 -0.90223,-0.91806c-0.21632,-0.39044 -0.32448,-0.83364 -0.32448,-1.3296c0,-0.49597 0.10816,-0.93653 0.32449,-1.32169c0.2216,-0.39044 0.52234,-0.69646 0.90223,-0.91806c0.38516,-0.22688 0.82045,-0.34031 1.30586,-0.34031c0.47486,0 0.90223,0.11344 1.28212,0.34032c0.38516,0.2216 0.68855,0.52762 0.91015,0.91806c0.2216,0.38516 0.3324,0.82573 0.3324,1.32169c0,0.49597 -0.1108,0.93917 -0.3324,1.3296c-0.2216,0.38516 -0.52498,0.69118 -0.91014,0.91806c-0.37989,0.2216 -0.80726,0.3324 -1.28212,0.3324zM162.5176,187.82191c0.29547,0 0.55928,-0.07387 0.79143,-0.2216c0.23215,-0.14774 0.41418,-0.34823 0.54609,-0.60149c0.13191,-0.25854 0.19522,-0.54872 0.18994,-0.87057c0.00528,-0.32712 -0.05804,-0.61732 -0.18994,-0.87057c-0.13191,-0.25854 -0.31393,-0.45903 -0.54609,-0.60149c-0.23215,-0.14774 -0.49597,-0.2216 -0.79143,-0.2216c-0.29547,0 -0.56191,0.07387 -0.79934,0.2216c-0.23743,0.14774 -0.4221,0.35087 -0.554,0.6094c-0.13191,0.25326 -0.19522,0.54081 -0.18994,0.86266c-0.00528,0.32185 0.05804,0.61204 0.18994,0.87057c0.13191,0.25326 0.31657,0.45375 0.554,0.60149c0.23743,0.14774 0.50388,0.2216 0.79935,0.2216zM166.09733,188.61334v-4.96227h0.98137v1.55912l-0.09497,-0.37989c0.06859,-0.23743 0.1873,-0.45375 0.35615,-0.64897c0.16884,-0.19522 0.36142,-0.34823 0.57775,-0.45903c0.21632,-0.11608 0.44056,-0.17411 0.67272,-0.17411c0.10552,0 0.20577,0.01055 0.30074,0.03166c0.10025,0.01583 0.17939,0.03694 0.23743,0.06331l-0.25326,1.06052c-0.07387,-0.03166 -0.15829,-0.05804 -0.25326,-0.07914c-0.08969,-0.02638 -0.17939,-0.03957 -0.26909,-0.03957c-0.16884,0 -0.32976,0.0343 -0.48277,0.10289c-0.15301,0.06331 -0.29019,0.15565 -0.41154,0.277c-0.11608,0.11608 -0.20841,0.25062 -0.277,0.40363c-0.06859,0.15301 -0.10288,0.32185 -0.10288,0.50652v2.73835zM174.1739,188.61334l-2.09729,-4.96227h1.05261l1.51164,3.71182l-0.18203,0.08706l1.61452,-3.79887h1.00512l-2.20018,4.96228zM178.12442,188.61334v-4.96227h0.97346v4.96228zM178.59928,182.55889c-0.20577,0 -0.3667,-0.05276 -0.48277,-0.15829c-0.1108,-0.1108 -0.1662,-0.26381 -0.1662,-0.45903c0,-0.18467 0.05804,-0.3324 0.17411,-0.4432c0.11608,-0.11608 0.27436,-0.17411 0.47486,-0.17411c0.20577,0 0.36406,0.0554 0.47486,0.1662c0.11608,0.10552 0.17411,0.2559 0.17411,0.45112c0,0.18467 -0.05804,0.33504 -0.17411,0.45112c-0.11608,0.1108 -0.27436,0.1662 -0.47486,0.1662zM182.24724,188.70831c-0.41682,0 -0.79143,-0.07123 -1.12383,-0.21368c-0.3324,-0.14774 -0.6094,-0.36406 -0.831,-0.64897l0.65689,-0.56191c0.18994,0.21632 0.39572,0.37461 0.61732,0.47486c0.22688,0.09497 0.48278,0.14246 0.76769,0.14246c0.1108,0 0.21369,-0.01319 0.30866,-0.03957c0.10025,-0.02638 0.1873,-0.06859 0.26117,-0.12663c0.07387,-0.05804 0.12927,-0.12663 0.1662,-0.20577c0.03694,-0.07914 0.0554,-0.1662 0.0554,-0.26117c0,-0.16356 -0.06068,-0.29547 -0.18203,-0.39572c-0.06331,-0.04221 -0.16356,-0.08969 -0.30074,-0.14246c-0.13191,-0.05276 -0.30602,-0.10816 -0.52234,-0.1662c-0.36406,-0.09497 -0.66216,-0.20049 -0.89431,-0.31657c-0.23215,-0.12135 -0.41154,-0.25854 -0.53817,-0.41154c-0.09497,-0.12135 -0.1662,-0.25062 -0.21368,-0.3878c-0.04221,-0.14246 -0.06331,-0.30074 -0.06331,-0.47486c0,-0.20577 0.04485,-0.39572 0.13455,-0.56983c0.09497,-0.17411 0.2216,-0.32448 0.37989,-0.45111c0.16356,-0.13191 0.35351,-0.23215 0.56983,-0.30074c0.21632,-0.06859 0.44848,-0.10288 0.69646,-0.10288c0.23215,0 0.46167,0.03166 0.68855,0.09497c0.23215,0.06331 0.44584,0.15565 0.64106,0.277c0.19522,0.11608 0.35878,0.2559 0.49069,0.41946l-0.554,0.61732c-0.12135,-0.12135 -0.25326,-0.22688 -0.39572,-0.31657c-0.14246,-0.08969 -0.28755,-0.15829 -0.43528,-0.20577c-0.14246,-0.05276 -0.27173,-0.07914 -0.3878,-0.07914c-0.13191,0 -0.25326,0.01319 -0.36406,0.03957c-0.10552,0.02111 -0.19522,0.05804 -0.26909,0.1108c-0.06859,0.04749 -0.12399,0.1108 -0.1662,0.18994c-0.03694,0.07387 -0.0554,0.15829 -0.0554,0.25326c0.00528,0.07914 0.02638,0.15565 0.06331,0.22952c0.03694,0.07387 0.08706,0.13455 0.15037,0.18203c0.06859,0.05276 0.17148,0.10816 0.30866,0.1662c0.13718,0.05276 0.31393,0.10552 0.53026,0.15829c0.31129,0.07914 0.56983,0.16884 0.7756,0.26909c0.20577,0.09497 0.36934,0.20577 0.49069,0.3324c0.12663,0.12135 0.21369,0.26117 0.26117,0.41946c0.05276,0.15829 0.07914,0.33504 0.07914,0.53026c0,0.27964 -0.08178,0.5329 -0.24534,0.75977c-0.15829,0.2216 -0.37461,0.39572 -0.64897,0.52234c-0.26909,0.12663 -0.56983,0.18994 -0.90223,0.18994zM185.27783,188.61334v-4.96227h0.97346v4.96228zM185.75269,182.55889c-0.20577,0 -0.3667,-0.05276 -0.48277,-0.15829c-0.1108,-0.1108 -0.1662,-0.26381 -0.1662,-0.45903c0,-0.18467 0.05804,-0.3324 0.17411,-0.4432c0.11608,-0.11608 0.27436,-0.17411 0.47486,-0.17411c0.20577,0 0.36406,0.0554 0.47486,0.1662c0.11608,0.10552 0.17411,0.2559 0.17411,0.45112c0,0.18467 -0.05804,0.33504 -0.17411,0.45112c-0.11608,0.1108 -0.27436,0.1662 -0.47486,0.1662zM188.36387,188.61334v-6.22856h0.97346v6.22857zM187.3271,184.60078v-0.94972h3.15781v0.94972zM194.2665,188.61334v-6.61637h2.69087c0.35878,0 0.68327,0.08969 0.97346,0.26909c0.29547,0.17939 0.53026,0.42473 0.70438,0.73603c0.17939,0.30602 0.26909,0.64897 0.26909,1.02886c0,0.37989 -0.08969,0.72548 -0.26909,1.03678c-0.17411,0.30602 -0.40891,0.55136 -0.70437,0.73603c-0.29019,0.18467 -0.61468,0.277 -0.97346,0.277h-1.66992v2.53258zM195.28744,185.09938h1.65409c0.16884,0 0.32185,-0.04749 0.45903,-0.14246c0.14246,-0.10025 0.2559,-0.22951 0.34032,-0.3878c0.08442,-0.16356 0.12663,-0.34295 0.12663,-0.53817c0,-0.19522 -0.04221,-0.37197 -0.12663,-0.53026c-0.08442,-0.15829 -0.19786,-0.28492 -0.34031,-0.37989c-0.13718,-0.09497 -0.29019,-0.14246 -0.45903,-0.14246h-1.65409zM202.14956,188.70831c-0.48541,0 -0.9207,-0.1108 -1.30586,-0.3324c-0.37989,-0.22688 -0.68063,-0.5329 -0.90223,-0.91806c-0.21632,-0.39044 -0.32448,-0.83364 -0.32448,-1.3296c0,-0.49597 0.10816,-0.93653 0.32449,-1.32169c0.2216,-0.39044 0.52234,-0.69646 0.90223,-0.91806c0.38516,-0.22688 0.82045,-0.34031 1.30586,-0.34031c0.47486,0 0.90223,0.11344 1.28212,0.34032c0.38516,0.2216 0.68855,0.52762 0.91015,0.91806c0.2216,0.38516 0.3324,0.82573 0.3324,1.32169c0,0.49597 -0.1108,0.93917 -0.3324,1.3296c-0.2216,0.38516 -0.52498,0.69118 -0.91014,0.91806c-0.37989,0.2216 -0.80726,0.3324 -1.28212,0.3324zM202.14956,187.82191c0.29547,0 0.55928,-0.07387 0.79143,-0.2216c0.23215,-0.14774 0.41418,-0.34823 0.54609,-0.60149c0.13191,-0.25854 0.19522,-0.54872 0.18994,-0.87057c0.00528,-0.32712 -0.05804,-0.61732 -0.18994,-0.87057c-0.13191,-0.25854 -0.31393,-0.45903 -0.54609,-0.60149c-0.23215,-0.14774 -0.49597,-0.2216 -0.79143,-0.2216c-0.29547,0 -0.56191,0.07387 -0.79934,0.2216c-0.23743,0.14774 -0.4221,0.35087 -0.554,0.6094c-0.13191,0.25326 -0.19522,0.54081 -0.18994,0.86266c-0.00528,0.32185 0.05804,0.61204 0.18994,0.87057c0.13191,0.25326 0.31657,0.45375 0.554,0.60149c0.23743,0.14774 0.50388,0.2216 0.79935,0.2216zM205.74511,188.61334v-6.99625h0.97346v6.99625zM208.79033,190.78977l1.00514,-2.31889l0.00792,0.7756l-2.4772,-5.59542h1.13175l1.55122,3.6485c0.03166,0.06331 0.06859,0.16093 0.1108,0.29283c0.04749,0.12663 0.08706,0.25326 0.11872,0.37989l-0.24534,0.0554c0.04749,-0.13191 0.09497,-0.26381 0.14246,-0.39572c0.04749,-0.13191 0.09233,-0.26381 0.13455,-0.39572l1.29795,-3.58518h1.15549l-2.04189,4.96228l-0.83892,2.17644zM216.46494,188.70831c-0.46958,0 -0.90223,-0.08442 -1.29795,-0.25326c-0.39044,-0.17411 -0.73339,-0.41154 -1.02886,-0.71229c-0.29019,-0.30602 -0.51707,-0.6648 -0.68063,-1.07635c-0.15829,-0.41682 -0.23743,-0.87057 -0.23743,-1.36126c0,-0.49069 0.07914,-0.9418 0.23743,-1.35334c0.16356,-0.41154 0.39044,-0.77032 0.68063,-1.07635c0.29547,-0.30602 0.63842,-0.54345 1.02886,-0.71229c0.39572,-0.17411 0.82837,-0.26117 1.29795,-0.26117c0.46431,0 0.89168,0.08706 1.28212,0.26117c0.39572,0.16884 0.74131,0.40891 1.03678,0.72021c0.29547,0.30602 0.52234,0.6648 0.68063,1.07635c0.15829,0.41154 0.23743,0.86002 0.23743,1.34543c0,0.48541 -0.07914,0.93389 -0.23743,1.34543c-0.15829,0.41154 -0.38516,0.77296 -0.68063,1.08426c-0.29547,0.30602 -0.64106,0.54609 -1.03677,0.72021c-0.39044,0.16884 -0.81781,0.25326 -1.28212,0.25326zM216.46494,187.71902c0.32185,0 0.61468,-0.06068 0.87849,-0.18203c0.26909,-0.12135 0.50124,-0.29019 0.69646,-0.50652c0.19522,-0.21632 0.34823,-0.46958 0.45903,-0.75977c0.1108,-0.29547 0.1662,-0.61732 0.1662,-0.96555c0,-0.34823 -0.0554,-0.66744 -0.1662,-0.95763c-0.1108,-0.29547 -0.26381,-0.55136 -0.45903,-0.76769c-0.19522,-0.21632 -0.42737,-0.38253 -0.69646,-0.4986c-0.26381,-0.12135 -0.55664,-0.18203 -0.87849,-0.18203c-0.32185,0 -0.61732,0.06068 -0.8864,0.18203c-0.26909,0.11608 -0.50388,0.28228 -0.70437,0.4986c-0.19522,0.21105 -0.34559,0.46431 -0.45111,0.75977c-0.10552,0.29019 -0.15829,0.61204 -0.15829,0.96555c0,0.34823 0.05276,0.67008 0.15829,0.96555c0.10552,0.29547 0.2559,0.55136 0.45112,0.76769c0.20049,0.21105 0.43529,0.37725 0.70438,0.4986c0.26909,0.12135 0.56455,0.18203 0.8864,0.18203zM223.1265,188.70831c-0.35878,0 -0.69118,-0.04749 -0.9972,-0.14246c-0.30602,-0.09497 -0.58302,-0.23743 -0.831,-0.42737c-0.24798,-0.19522 -0.46958,-0.43265 -0.6648,-0.71229l0.69646,-0.80726c0.31129,0.4432 0.60677,0.74922 0.8864,0.91806c0.28492,0.16884 0.62259,0.25326 1.01303,0.25326c0.23743,0 0.45375,-0.03694 0.64897,-0.1108c0.19522,-0.07914 0.34823,-0.18467 0.45903,-0.31657c0.11608,-0.13191 0.17411,-0.28228 0.17411,-0.45111c0,-0.1108 -0.01847,-0.21632 -0.0554,-0.31657c-0.03694,-0.10552 -0.09497,-0.19786 -0.17411,-0.277c-0.07914,-0.08442 -0.17939,-0.16093 -0.30074,-0.22951c-0.12135,-0.06859 -0.26381,-0.12927 -0.42737,-0.18203c-0.16356,-0.05276 -0.35351,-0.09761 -0.56983,-0.13454c-0.33768,-0.07387 -0.63315,-0.1662 -0.8864,-0.277c-0.25326,-0.11608 -0.46431,-0.25854 -0.63315,-0.42737c-0.16884,-0.16884 -0.29547,-0.36142 -0.37989,-0.57774c-0.08442,-0.21632 -0.12663,-0.46167 -0.12663,-0.73603c0,-0.26381 0.05804,-0.50915 0.17411,-0.73603c0.12135,-0.22688 0.28228,-0.4221 0.48278,-0.58566c0.20577,-0.16884 0.44584,-0.2981 0.72021,-0.3878c0.27964,-0.09497 0.58038,-0.14246 0.90223,-0.14246c0.34295,0 0.65425,0.04485 0.93389,0.13455c0.28492,0.08969 0.53817,0.2216 0.75977,0.39572c0.2216,0.16884 0.40363,0.37989 0.54609,0.63315l-0.7202,0.71229c-0.12135,-0.21105 -0.26117,-0.38516 -0.41946,-0.52234c-0.15829,-0.14246 -0.3324,-0.25062 -0.52234,-0.32448c-0.18994,-0.07387 -0.39044,-0.1108 -0.60149,-0.1108c-0.24798,0 -0.46431,0.03957 -0.64897,0.11872c-0.17939,0.07387 -0.32185,0.17939 -0.42737,0.31657c-0.10552,0.13191 -0.15829,0.29019 -0.15829,0.47486c0,0.13191 0.02638,0.25326 0.07914,0.36406c0.05276,0.1108 0.12927,0.20841 0.22952,0.29283c0.10552,0.08442 0.24535,0.16093 0.41946,0.22952c0.17939,0.06331 0.39044,0.11872 0.63315,0.1662c0.34823,0.07914 0.65689,0.17675 0.92598,0.29283c0.27436,0.11608 0.50388,0.25326 0.68855,0.41154c0.18994,0.15829 0.3324,0.33504 0.42737,0.53026c0.10025,0.19522 0.15037,0.40627 0.15037,0.63315c0,0.4221 -0.09761,0.78879 -0.29283,1.10009c-0.19522,0.30602 -0.47222,0.54345 -0.831,0.71229c-0.35878,0.16356 -0.78615,0.24535 -1.28212,0.24535zM227.13158,188.71622c-0.20577,0 -0.3667,-0.06068 -0.48277,-0.18203c-0.1108,-0.12135 -0.1662,-0.29547 -0.1662,-0.52234c0,-0.21105 0.05804,-0.38253 0.17411,-0.51443c0.12135,-0.13191 0.27964,-0.19786 0.47486,-0.19786c0.21105,0 0.37198,0.06331 0.48278,0.18994c0.11608,0.12135 0.17411,0.29547 0.17411,0.52234c0,0.20577 -0.06068,0.37461 -0.18203,0.50652c-0.12135,0.13191 -0.27964,0.19786 -0.47486,0.19786zM231.29741,188.61334v-5.32633l0.23743,0.0554l-2.16852,2.6513l-0.03957,-0.1108h4.10753v0.93389h-4.74067l-0.43528,-0.84683l3.23696,-3.97299h0.78352v6.61637zM234.5216,188.61334l-0.30866,-0.7756l2.01815,-2.27932c0.10552,-0.1108 0.21632,-0.24007 0.3324,-0.3878c0.12135,-0.14774 0.23479,-0.30074 0.34032,-0.45903c0.10552,-0.15829 0.18994,-0.31393 0.25326,-0.46694c0.06859,-0.15301 0.10289,-0.30074 0.10289,-0.4432c0,-0.20049 -0.03957,-0.37197 -0.11871,-0.51443c-0.07914,-0.14246 -0.19258,-0.25062 -0.34031,-0.32448c-0.14774,-0.07387 -0.32448,-0.1108 -0.53026,-0.1108c-0.18467,0 -0.3667,0.05276 -0.54609,0.15829c-0.17411,0.10552 -0.3324,0.2559 -0.47486,0.45112c-0.14246,0.19522 -0.2559,0.4221 -0.34031,0.68063l-0.78351,-0.49069c0.10552,-0.36406 0.26645,-0.67535 0.48278,-0.93389c0.2216,-0.26381 0.48278,-0.46431 0.78352,-0.60149c0.30602,-0.14246 0.63842,-0.21368 0.9972,-0.21368c0.37461,0 0.70701,0.07914 0.9972,0.23743c0.29019,0.15301 0.51707,0.3667 0.68063,0.64106c0.16356,0.27436 0.24535,0.59094 0.24535,0.94972c0,0.14246 -0.01583,0.29019 -0.04749,0.4432c-0.03166,0.14774 -0.08178,0.30338 -0.15037,0.46695c-0.06859,0.15829 -0.15829,0.32449 -0.26909,0.4986c-0.10552,0.17411 -0.23215,0.35615 -0.37989,0.54609c-0.14774,0.18994 -0.31657,0.3878 -0.50652,0.59358l-1.50372,1.63827l-0.18994,-0.28492h3.25279v0.98137zM240.72098,188.61334l-1.69366,-4.96227l0.98137,-0.00791l1.21089,3.71182l-0.21368,-0.01583l1.31378,-2.90455h0.58566l1.32169,2.91247l-0.25326,0.01583l1.2188,-3.71181h0.98137l-1.66992,4.96228h-0.67271l-1.385,-3.15781l0.2216,0.03166l-1.28212,3.12616zM249.23109,188.70831c-0.50652,0 -0.95763,-0.10816 -1.35334,-0.32448c-0.39044,-0.21632 -0.6991,-0.51443 -0.92597,-0.89431c-0.2216,-0.37989 -0.3324,-0.81517 -0.3324,-1.30586c0,-0.39044 0.06331,-0.74658 0.18994,-1.06843c0.12663,-0.32185 0.30074,-0.59885 0.52234,-0.831c0.2216,-0.23743 0.48805,-0.41946 0.79935,-0.54609c0.31657,-0.13191 0.65689,-0.19786 1.02095,-0.19786c0.32185,0 0.61996,0.06068 0.89432,0.18203c0.27964,0.12135 0.51971,0.29019 0.72021,0.50652c0.20577,0.21632 0.36406,0.47222 0.47486,0.76769c0.1108,0.29019 0.16356,0.60677 0.15829,0.94972l-0.00791,0.41946h-4.05213l-0.2216,-0.7756h3.4269l-0.13454,0.15829v-0.2216c-0.02111,-0.21105 -0.09233,-0.39835 -0.21368,-0.56191c-0.11608,-0.16356 -0.26645,-0.29283 -0.45111,-0.3878c-0.18467,-0.09497 -0.38253,-0.14246 -0.59357,-0.14246c-0.34295,0 -0.63051,0.06595 -0.86266,0.19786c-0.23215,0.12663 -0.40891,0.31657 -0.53026,0.56983c-0.11608,0.24798 -0.17411,0.554 -0.17411,0.91806c0,0.34295 0.07123,0.6437 0.21369,0.90223c0.14246,0.25326 0.34559,0.45112 0.6094,0.59358c0.26909,0.13718 0.57511,0.20577 0.91806,0.20577c0.24798,0 0.4775,-0.03957 0.68855,-0.11871c0.21105,-0.08442 0.44056,-0.23479 0.68855,-0.45111l0.49069,0.68855c-0.15301,0.15301 -0.33768,0.28755 -0.554,0.40363c-0.21632,0.1108 -0.44584,0.20049 -0.68854,0.26909c-0.24271,0.06331 -0.48277,0.09497 -0.7202,0.09497zM255.06935,188.70831c-0.21632,0 -0.43001,-0.0343 -0.64106,-0.10288c-0.21105,-0.06859 -0.40363,-0.16093 -0.57774,-0.277c-0.17411,-0.12135 -0.31921,-0.25062 -0.43528,-0.3878c-0.11608,-0.14246 -0.19258,-0.28755 -0.22951,-0.43528l0.24535,-0.12663v1.20298h-0.97346v-6.9646h0.97346v3.16573l-0.15037,-0.07914c0.03166,-0.14774 0.10025,-0.28755 0.20577,-0.41946c0.10552,-0.13718 0.24271,-0.26117 0.41154,-0.37197c0.16884,-0.1108 0.35087,-0.19786 0.54609,-0.26117c0.19522,-0.06859 0.39308,-0.10288 0.59358,-0.10288c0.44848,0 0.8442,0.1108 1.18715,0.3324c0.34823,0.2216 0.62259,0.52498 0.82309,0.91015c0.20049,0.38516 0.30074,0.82837 0.30074,1.3296c0,0.49597 -0.10025,0.93917 -0.30074,1.3296c-0.19522,0.39044 -0.46694,0.6991 -0.81517,0.92598c-0.34295,0.2216 -0.73076,0.3324 -1.1634,0.3324zM254.90315,187.82191c0.29019,0 0.54872,-0.07387 0.7756,-0.2216c0.22688,-0.14774 0.40627,-0.34823 0.53817,-0.60149c0.13191,-0.25854 0.19786,-0.55136 0.19786,-0.87849c0,-0.32185 -0.06595,-0.6094 -0.19786,-0.86266c-0.12663,-0.25854 -0.30338,-0.45903 -0.53026,-0.60149c-0.22688,-0.14774 -0.48805,-0.2216 -0.78351,-0.2216c-0.29547,0 -0.55664,0.07387 -0.78351,0.2216c-0.22688,0.14246 -0.40627,0.34295 -0.53817,0.60149c-0.13191,0.25326 -0.19786,0.54081 -0.19786,0.86266c0,0.32712 0.06595,0.61996 0.19786,0.87849c0.13191,0.25326 0.31129,0.45375 0.53817,0.60149c0.22688,0.14774 0.48805,0.2216 0.78352,0.2216zM258.80664,188.71622c-0.20577,0 -0.3667,-0.06068 -0.48277,-0.18203c-0.1108,-0.12135 -0.1662,-0.29547 -0.1662,-0.52234c0,-0.21105 0.05804,-0.38253 0.17411,-0.51443c0.12135,-0.13191 0.27964,-0.19786 0.47486,-0.19786c0.21105,0 0.37198,0.06331 0.48278,0.18994c0.11608,0.12135 0.17411,0.29547 0.17411,0.52234c0,0.20577 -0.06068,0.37461 -0.18203,0.50652c-0.12135,0.13191 -0.27964,0.19786 -0.47486,0.19786zM260.72372,188.61334v-4.96227h0.97346v4.96228zM261.19858,182.55889c-0.20577,0 -0.3667,-0.05276 -0.48277,-0.15829c-0.1108,-0.1108 -0.1662,-0.26381 -0.1662,-0.45903c0,-0.18467 0.05804,-0.3324 0.17411,-0.4432c0.11608,-0.11608 0.27436,-0.17411 0.47486,-0.17411c0.20577,0 0.36406,0.0554 0.47486,0.1662c0.11608,0.10552 0.17411,0.2559 0.17411,0.45112c0,0.18467 -0.05804,0.33504 -0.17411,0.45112c-0.11608,0.1108 -0.27436,0.1662 -0.47486,0.1662zM265.4243,188.70831c-0.48541,0 -0.9207,-0.1108 -1.30586,-0.3324c-0.37989,-0.22688 -0.68063,-0.5329 -0.90223,-0.91806c-0.21632,-0.39044 -0.32448,-0.83364 -0.32448,-1.3296c0,-0.49597 0.10816,-0.93653 0.32449,-1.32169c0.2216,-0.39044 0.52234,-0.69646 0.90223,-0.91806c0.38516,-0.22688 0.82045,-0.34031 1.30586,-0.34031c0.47486,0 0.90223,0.11344 1.28212,0.34032c0.38516,0.2216 0.68855,0.52762 0.91015,0.91806c0.2216,0.38516 0.3324,0.82573 0.3324,1.32169c0,0.49597 -0.1108,0.93917 -0.3324,1.3296c-0.2216,0.38516 -0.52498,0.69118 -0.91014,0.91806c-0.37989,0.2216 -0.80726,0.3324 -1.28212,0.3324zM265.4243,187.82191c0.29547,0 0.55928,-0.07387 0.79143,-0.2216c0.23215,-0.14774 0.41418,-0.34823 0.54609,-0.60149c0.13191,-0.25854 0.19522,-0.54872 0.18994,-0.87057c0.00528,-0.32712 -0.05804,-0.61732 -0.18994,-0.87057c-0.13191,-0.25854 -0.31393,-0.45903 -0.54609,-0.60149c-0.23215,-0.14774 -0.49597,-0.2216 -0.79143,-0.2216c-0.29547,0 -0.56191,0.07387 -0.79934,0.2216c-0.23743,0.14774 -0.4221,0.35087 -0.554,0.6094c-0.13191,0.25326 -0.19522,0.54081 -0.18994,0.86266c-0.00528,0.32185 0.05804,0.61204 0.18994,0.87057c0.13191,0.25326 0.31657,0.45375 0.554,0.60149c0.23743,0.14774 0.50388,0.2216 0.79935,0.2216zM272.1881,188.61334v-5.51627c0,-0.28492 0.06331,-0.53817 0.18994,-0.75977c0.12663,-0.2216 0.2981,-0.39308 0.51443,-0.51443c0.2216,-0.12663 0.4775,-0.18994 0.76769,-0.18994c0.20049,0 0.3878,0.03694 0.56192,0.1108c0.17939,0.07387 0.32449,0.17411 0.43529,0.30074l-0.3324,0.74395c-0.08442,-0.07387 -0.17675,-0.13454 -0.277,-0.18203c-0.09497,-0.04749 -0.18467,-0.07123 -0.26909,-0.07123c-0.13191,0 -0.24534,0.02111 -0.34031,0.06331c-0.08969,0.04221 -0.15829,0.10552 -0.20577,0.18994c-0.04221,0.08442 -0.06331,0.1873 -0.06331,0.30866v5.51628h-0.49069c-0.07914,0 -0.16093,0 -0.24534,0c-0.07914,0 -0.16093,0 -0.24534,0zM271.39667,184.63244v-0.89431h2.94412v0.89432zM277.40642,188.70831c-0.48541,0 -0.9207,-0.1108 -1.30586,-0.3324c-0.37989,-0.22688 -0.68063,-0.5329 -0.90223,-0.91806c-0.21632,-0.39044 -0.32448,-0.83364 -0.32448,-1.3296c0,-0.49597 0.10816,-0.93653 0.32449,-1.32169c0.2216,-0.39044 0.52234,-0.69646 0.90223,-0.91806c0.38516,-0.22688 0.82045,-0.34031 1.30586,-0.34031c0.47486,0 0.90223,0.11344 1.28212,0.34032c0.38516,0.2216 0.68855,0.52762 0.91015,0.91806c0.2216,0.38516 0.3324,0.82573 0.3324,1.32169c0,0.49597 -0.1108,0.93917 -0.3324,1.3296c-0.2216,0.38516 -0.52498,0.69118 -0.91014,0.91806c-0.37989,0.2216 -0.80726,0.3324 -1.28212,0.3324zM277.40642,187.82191c0.29547,0 0.55928,-0.07387 0.79143,-0.2216c0.23215,-0.14774 0.41418,-0.34823 0.54609,-0.60149c0.13191,-0.25854 0.19522,-0.54872 0.18994,-0.87057c0.00528,-0.32712 -0.05804,-0.61732 -0.18994,-0.87057c-0.13191,-0.25854 -0.31393,-0.45903 -0.54609,-0.60149c-0.23215,-0.14774 -0.49597,-0.2216 -0.79143,-0.2216c-0.29547,0 -0.56191,0.07387 -0.79934,0.2216c-0.23743,0.14774 -0.4221,0.35087 -0.554,0.6094c-0.13191,0.25326 -0.19522,0.54081 -0.18994,0.86266c-0.00528,0.32185 0.05804,0.61204 0.18994,0.87057c0.13191,0.25326 0.31657,0.45375 0.554,0.60149c0.23743,0.14774 0.50388,0.2216 0.79935,0.2216zM280.98613,188.61334v-4.96227h0.98137v1.55912l-0.09497,-0.37989c0.06859,-0.23743 0.1873,-0.45375 0.35615,-0.64897c0.16884,-0.19522 0.36142,-0.34823 0.57775,-0.45903c0.21632,-0.11608 0.44056,-0.17411 0.67272,-0.17411c0.10552,0 0.20577,0.01055 0.30074,0.03166c0.10025,0.01583 0.17939,0.03694 0.23743,0.06331l-0.25326,1.06052c-0.07387,-0.03166 -0.15829,-0.05804 -0.25326,-0.07914c-0.08969,-0.02638 -0.17939,-0.03957 -0.26909,-0.03957c-0.16884,0 -0.32976,0.0343 -0.48277,0.10289c-0.15301,0.06331 -0.29019,0.15565 -0.41154,0.277c-0.11608,0.11608 -0.20841,0.25062 -0.277,0.40363c-0.06859,0.15301 -0.10288,0.32185 -0.10288,0.50652v2.73835zM287.42445,188.61334v-4.96227h0.98137v1.06052l-0.18203,0.1108c0.05276,-0.16356 0.13191,-0.31921 0.23743,-0.46694c0.1108,-0.15301 0.24535,-0.28755 0.40363,-0.40363c0.16356,-0.11608 0.33768,-0.20841 0.52234,-0.277c0.18994,-0.07387 0.38253,-0.1108 0.57775,-0.1108c0.27964,0 0.52762,0.04749 0.74395,0.14246c0.21632,0.09497 0.39308,0.23743 0.53026,0.42737c0.13718,0.18994 0.23743,0.42737 0.30074,0.71229l-0.15037,-0.03957l0.06331,-0.15829c0.07387,-0.14774 0.17148,-0.28492 0.29283,-0.41154c0.12135,-0.13191 0.26117,-0.24798 0.41946,-0.34823c0.15829,-0.10025 0.32449,-0.17939 0.4986,-0.23743c0.17939,-0.05804 0.35351,-0.08705 0.52234,-0.08705c0.36934,0 0.67535,0.0765 0.91806,0.22952c0.24271,0.15301 0.42473,0.38516 0.54609,0.69646c0.12663,0.30602 0.18994,0.68855 0.18994,1.14758v2.97578h-0.98137v-2.92038c0,-0.28492 -0.03694,-0.51707 -0.1108,-0.69646c-0.07387,-0.17939 -0.18467,-0.31129 -0.3324,-0.39572c-0.14246,-0.08969 -0.32712,-0.13454 -0.554,-0.13454c-0.17411,0 -0.34031,0.03166 -0.4986,0.09497c-0.15301,0.05804 -0.28755,0.13982 -0.40363,0.24535c-0.1108,0.10552 -0.19786,0.22952 -0.26117,0.37198c-0.05804,0.14246 -0.08705,0.2981 -0.08705,0.46695v2.96787h-0.98929v-2.93621c0,-0.25854 -0.03694,-0.4775 -0.1108,-0.65689c-0.07387,-0.17939 -0.18467,-0.31657 -0.3324,-0.41154c-0.14246,-0.09497 -0.31921,-0.14246 -0.53026,-0.14246c-0.17411,0 -0.33768,0.03166 -0.49069,0.09497c-0.14774,0.05804 -0.27964,0.13982 -0.39572,0.24535c-0.1108,0.10025 -0.19786,0.2216 -0.26117,0.36406c-0.06331,0.14246 -0.09497,0.29547 -0.09497,0.45903v2.9837zM298.37527,188.70831c-0.48541,0 -0.9207,-0.1108 -1.30586,-0.3324c-0.37989,-0.22688 -0.68063,-0.5329 -0.90223,-0.91806c-0.21632,-0.39044 -0.32448,-0.83364 -0.32448,-1.3296c0,-0.49597 0.10816,-0.93653 0.32449,-1.32169c0.2216,-0.39044 0.52234,-0.69646 0.90223,-0.91806c0.38516,-0.22688 0.82045,-0.34031 1.30586,-0.34031c0.47486,0 0.90223,0.11344 1.28212,0.34032c0.38516,0.2216 0.68855,0.52762 0.91015,0.91806c0.2216,0.38516 0.3324,0.82573 0.3324,1.32169c0,0.49597 -0.1108,0.93917 -0.3324,1.3296c-0.2216,0.38516 -0.52498,0.69118 -0.91014,0.91806c-0.37989,0.2216 -0.80726,0.3324 -1.28212,0.3324zM298.37527,187.82191c0.29547,0 0.55928,-0.07387 0.79143,-0.2216c0.23215,-0.14774 0.41418,-0.34823 0.54609,-0.60149c0.13191,-0.25854 0.19522,-0.54872 0.18994,-0.87057c0.00528,-0.32712 -0.05804,-0.61732 -0.18994,-0.87057c-0.13191,-0.25854 -0.31393,-0.45903 -0.54609,-0.60149c-0.23215,-0.14774 -0.49597,-0.2216 -0.79143,-0.2216c-0.29547,0 -0.56191,0.07387 -0.79934,0.2216c-0.23743,0.14774 -0.4221,0.35087 -0.554,0.6094c-0.13191,0.25326 -0.19522,0.54081 -0.18994,0.86266c-0.00528,0.32185 0.05804,0.61204 0.18994,0.87057c0.13191,0.25326 0.31657,0.45375 0.554,0.60149c0.23743,0.14774 0.50388,0.2216 0.79935,0.2216zM301.95501,188.61334v-4.96227h0.98137v1.55912l-0.09497,-0.37989c0.06859,-0.23743 0.1873,-0.45375 0.35615,-0.64897c0.16884,-0.19522 0.36142,-0.34823 0.57775,-0.45903c0.21632,-0.11608 0.44056,-0.17411 0.67272,-0.17411c0.10552,0 0.20577,0.01055 0.30074,0.03166c0.10025,0.01583 0.17939,0.03694 0.23743,0.06331l-0.25326,1.06052c-0.07387,-0.03166 -0.15829,-0.05804 -0.25326,-0.07914c-0.08969,-0.02638 -0.17939,-0.03957 -0.26909,-0.03957c-0.16884,0 -0.32976,0.0343 -0.48277,0.10289c-0.15301,0.06331 -0.29019,0.15565 -0.41154,0.277c-0.11608,0.11608 -0.20841,0.25062 -0.277,0.40363c-0.06859,0.15301 -0.10288,0.32185 -0.10288,0.50652v2.73835zM307.8662,188.70831c-0.50652,0 -0.95763,-0.10816 -1.35334,-0.32448c-0.39044,-0.21632 -0.6991,-0.51443 -0.92597,-0.89431c-0.2216,-0.37989 -0.3324,-0.81517 -0.3324,-1.30586c0,-0.39044 0.06331,-0.74658 0.18994,-1.06843c0.12663,-0.32185 0.30074,-0.59885 0.52234,-0.831c0.2216,-0.23743 0.48805,-0.41946 0.79935,-0.54609c0.31657,-0.13191 0.65689,-0.19786 1.02095,-0.19786c0.32185,0 0.61996,0.06068 0.89432,0.18203c0.27964,0.12135 0.51971,0.29019 0.72021,0.50652c0.20577,0.21632 0.36406,0.47222 0.47486,0.76769c0.1108,0.29019 0.16356,0.60677 0.15829,0.94972l-0.00791,0.41946h-4.05213l-0.2216,-0.7756h3.4269l-0.13454,0.15829v-0.2216c-0.02111,-0.21105 -0.09233,-0.39835 -0.21368,-0.56191c-0.11608,-0.16356 -0.26645,-0.29283 -0.45111,-0.3878c-0.18467,-0.09497 -0.38253,-0.14246 -0.59357,-0.14246c-0.34295,0 -0.63051,0.06595 -0.86266,0.19786c-0.23215,0.12663 -0.40891,0.31657 -0.53026,0.56983c-0.11608,0.24798 -0.17411,0.554 -0.17411,0.91806c0,0.34295 0.07123,0.6437 0.21369,0.90223c0.14246,0.25326 0.34559,0.45112 0.6094,0.59358c0.26909,0.13718 0.57511,0.20577 0.91806,0.20577c0.24798,0 0.4775,-0.03957 0.68855,-0.11871c0.21105,-0.08442 0.44056,-0.23479 0.68855,-0.45111l0.49069,0.68855c-0.15301,0.15301 -0.33768,0.28755 -0.554,0.40363c-0.21632,0.1108 -0.44584,0.20049 -0.68854,0.26909c-0.24271,0.06331 -0.48277,0.09497 -0.7202,0.09497zM313.89694,188.61334v-4.96227h0.97346v4.96228zM314.37179,182.55889c-0.20577,0 -0.3667,-0.05276 -0.48277,-0.15829c-0.1108,-0.1108 -0.1662,-0.26381 -0.1662,-0.45903c0,-0.18467 0.05804,-0.3324 0.17411,-0.4432c0.11608,-0.11608 0.27436,-0.17411 0.47486,-0.17411c0.20577,0 0.36406,0.0554 0.47486,0.1662c0.11608,0.10552 0.17411,0.2559 0.17411,0.45112c0,0.18467 -0.05804,0.33504 -0.17411,0.45112c-0.11608,0.1108 -0.27436,0.1662 -0.47486,0.1662zM316.36564,188.61334v-4.96227h0.97346v1.02095l-0.17411,0.1108c0.06331,-0.21632 0.1873,-0.41682 0.37198,-0.60149c0.18467,-0.18994 0.40099,-0.34295 0.64897,-0.45903c0.25326,-0.11608 0.51179,-0.17411 0.7756,-0.17411c0.37989,0 0.69382,0.07387 0.94181,0.2216c0.25326,0.14774 0.4432,0.37461 0.56983,0.68063c0.12663,0.30074 0.18994,0.68063 0.18994,1.13966v3.02327h-0.97346v-2.95995c0,-0.27964 -0.03694,-0.51179 -0.1108,-0.69646c-0.07387,-0.18994 -0.18994,-0.32712 -0.34823,-0.41154c-0.15829,-0.08442 -0.35351,-0.12135 -0.58566,-0.1108c-0.18994,0 -0.36406,0.03166 -0.52234,0.09497c-0.15829,0.05804 -0.29547,0.14246 -0.41154,0.25326c-0.11608,0.10552 -0.20841,0.22952 -0.277,0.37198c-0.06331,0.13718 -0.09497,0.28755 -0.09497,0.45112v3.00744h-0.48277c-0.07914,0 -0.16093,0 -0.24534,0c-0.08442,0 -0.1662,0 -0.24534,0zM322.52638,188.61334v-5.51627c0,-0.28492 0.06331,-0.53817 0.18994,-0.75977c0.12663,-0.2216 0.2981,-0.39308 0.51443,-0.51443c0.2216,-0.12663 0.4775,-0.18994 0.76769,-0.18994c0.20049,0 0.3878,0.03694 0.56192,0.1108c0.17939,0.07387 0.32449,0.17411 0.43529,0.30074l-0.3324,0.74395c-0.08442,-0.07387 -0.17675,-0.13454 -0.277,-0.18203c-0.09497,-0.04749 -0.18467,-0.07123 -0.26909,-0.07123c-0.13191,0 -0.24534,0.02111 -0.34031,0.06331c-0.08969,0.04221 -0.15829,0.10552 -0.20577,0.18994c-0.04221,0.08442 -0.06331,0.1873 -0.06331,0.30866v5.51628h-0.49069c-0.07914,0 -0.16093,0 -0.24534,0c-0.07914,0 -0.16093,0 -0.24534,0zM321.73495,184.63244v-0.89431h2.94412v0.89432zM327.74469,188.70831c-0.48541,0 -0.9207,-0.1108 -1.30586,-0.3324c-0.37989,-0.22688 -0.68063,-0.5329 -0.90223,-0.91806c-0.21632,-0.39044 -0.32448,-0.83364 -0.32448,-1.3296c0,-0.49597 0.10816,-0.93653 0.32449,-1.32169c0.2216,-0.39044 0.52234,-0.69646 0.90223,-0.91806c0.38516,-0.22688 0.82045,-0.34031 1.30586,-0.34031c0.47486,0 0.90223,0.11344 1.28212,0.34032c0.38516,0.2216 0.68855,0.52762 0.91015,0.91806c0.2216,0.38516 0.3324,0.82573 0.3324,1.32169c0,0.49597 -0.1108,0.93917 -0.3324,1.3296c-0.2216,0.38516 -0.52498,0.69118 -0.91014,0.91806c-0.37989,0.2216 -0.80726,0.3324 -1.28212,0.3324zM327.74469,187.82191c0.29547,0 0.55928,-0.07387 0.79143,-0.2216c0.23215,-0.14774 0.41418,-0.34823 0.54609,-0.60149c0.13191,-0.25854 0.19522,-0.54872 0.18994,-0.87057c0.00528,-0.32712 -0.05804,-0.61732 -0.18994,-0.87057c-0.13191,-0.25854 -0.31393,-0.45903 -0.54609,-0.60149c-0.23215,-0.14774 -0.49597,-0.2216 -0.79143,-0.2216c-0.29547,0 -0.56191,0.07387 -0.79934,0.2216c-0.23743,0.14774 -0.4221,0.35087 -0.554,0.6094c-0.13191,0.25326 -0.19522,0.54081 -0.18994,0.86266c-0.00528,0.32185 0.05804,0.61204 0.18994,0.87057c0.13191,0.25326 0.31657,0.45375 0.554,0.60149c0.23743,0.14774 0.50388,0.2216 0.79935,0.2216zM331.3244,188.61334v-4.96227h0.98137v1.55912l-0.09497,-0.37989c0.06859,-0.23743 0.1873,-0.45375 0.35615,-0.64897c0.16884,-0.19522 0.36142,-0.34823 0.57775,-0.45903c0.21632,-0.11608 0.44056,-0.17411 0.67272,-0.17411c0.10552,0 0.20577,0.01055 0.30074,0.03166c0.10025,0.01583 0.17939,0.03694 0.23743,0.06331l-0.25326,1.06052c-0.07387,-0.03166 -0.15829,-0.05804 -0.25326,-0.07914c-0.08969,-0.02638 -0.17939,-0.03957 -0.26909,-0.03957c-0.16884,0 -0.32976,0.0343 -0.48277,0.10289c-0.15301,0.06331 -0.29019,0.15565 -0.41154,0.277c-0.11608,0.11608 -0.20841,0.25062 -0.277,0.40363c-0.06859,0.15301 -0.10288,0.32185 -0.10288,0.50652v2.73835zM335.11682,188.61334v-4.96227h0.98137v1.06052l-0.18203,0.1108c0.05276,-0.16356 0.13191,-0.31921 0.23743,-0.46694c0.1108,-0.15301 0.24535,-0.28755 0.40363,-0.40363c0.16356,-0.11608 0.33768,-0.20841 0.52234,-0.277c0.18994,-0.07387 0.38253,-0.1108 0.57775,-0.1108c0.27964,0 0.52762,0.04749 0.74395,0.14246c0.21632,0.09497 0.39308,0.23743 0.53026,0.42737c0.13718,0.18994 0.23743,0.42737 0.30074,0.71229l-0.15037,-0.03957l0.06331,-0.15829c0.07387,-0.14774 0.17148,-0.28492 0.29283,-0.41154c0.12135,-0.13191 0.26117,-0.24798 0.41946,-0.34823c0.15829,-0.10025 0.32449,-0.17939 0.4986,-0.23743c0.17939,-0.05804 0.35351,-0.08705 0.52234,-0.08705c0.36934,0 0.67535,0.0765 0.91806,0.22952c0.24271,0.15301 0.42473,0.38516 0.54609,0.69646c0.12663,0.30602 0.18994,0.68855 0.18994,1.14758v2.97578h-0.98137v-2.92038c0,-0.28492 -0.03694,-0.51707 -0.1108,-0.69646c-0.07387,-0.17939 -0.18467,-0.31129 -0.3324,-0.39572c-0.14246,-0.08969 -0.32712,-0.13454 -0.554,-0.13454c-0.17411,0 -0.34031,0.03166 -0.4986,0.09497c-0.15301,0.05804 -0.28755,0.13982 -0.40363,0.24535c-0.1108,0.10552 -0.19786,0.22952 -0.26117,0.37198c-0.05804,0.14246 -0.08705,0.2981 -0.08705,0.46695v2.96787h-0.98929v-2.93621c0,-0.25854 -0.03694,-0.4775 -0.1108,-0.65689c-0.07387,-0.17939 -0.18467,-0.31657 -0.3324,-0.41154c-0.14246,-0.09497 -0.31921,-0.14246 -0.53026,-0.14246c-0.17411,0 -0.33768,0.03166 -0.49069,0.09497c-0.14774,0.05804 -0.27964,0.13982 -0.39572,0.24535c-0.1108,0.10025 -0.19786,0.2216 -0.26117,0.36406c-0.06331,0.14246 -0.09497,0.29547 -0.09497,0.45903v2.9837zM345.74314,188.70831c-0.40627,0 -0.77824,-0.11344 -1.11592,-0.34031c-0.33768,-0.22688 -0.6094,-0.53553 -0.81517,-0.92597c-0.20049,-0.39044 -0.30074,-0.831 -0.30074,-1.32169c0,-0.50124 0.10289,-0.94444 0.30866,-1.3296c0.20577,-0.38516 0.48278,-0.68854 0.83101,-0.91014c0.35351,-0.2216 0.74658,-0.3324 1.17924,-0.3324c0.25854,0 0.49333,0.03957 0.70438,0.11872c0.21632,0.07387 0.40363,0.17939 0.56192,0.31657c0.16356,0.13191 0.29547,0.28755 0.39572,0.46695c0.10552,0.17411 0.17148,0.36142 0.19786,0.56192l-0.21368,-0.07123v-1.29003h0.98137v4.96228h-0.98137v-1.17923l0.2216,-0.07123c-0.03694,0.17411 -0.11344,0.34295 -0.22951,0.50652c-0.11608,0.15829 -0.26381,0.30074 -0.4432,0.42737c-0.17939,0.12135 -0.37725,0.2216 -0.59357,0.30074c-0.21632,0.07387 -0.44584,0.1108 -0.68854,0.1108zM345.9964,187.81399c0.30074,0 0.56192,-0.07123 0.78352,-0.21368c0.22688,-0.14774 0.40363,-0.34823 0.53026,-0.60149c0.13191,-0.25854 0.19786,-0.55136 0.19786,-0.87849c0,-0.32185 -0.06595,-0.6094 -0.19786,-0.86266c-0.12663,-0.25326 -0.30338,-0.45111 -0.53026,-0.59357c-0.2216,-0.14774 -0.48277,-0.2216 -0.78351,-0.2216c-0.29019,0 -0.54609,0.07387 -0.76769,0.2216c-0.2216,0.14246 -0.39835,0.34032 -0.53026,0.59358c-0.12663,0.25326 -0.18994,0.54081 -0.18994,0.86266c0,0.32712 0.06331,0.61996 0.18994,0.87849c0.13191,0.25326 0.30866,0.45375 0.53026,0.60149c0.2216,0.14246 0.4775,0.21369 0.76769,0.21369zM350.43478,188.61334v-6.22856h0.97346v6.22857zM349.39801,184.60078v-0.94972h3.15781v0.94972zM353.60443,188.61334v-4.96227h0.97346v4.96228zM354.07929,182.55889c-0.20577,0 -0.3667,-0.05276 -0.48277,-0.15829c-0.1108,-0.1108 -0.1662,-0.26381 -0.1662,-0.45903c0,-0.18467 0.05804,-0.3324 0.17411,-0.4432c0.11608,-0.11608 0.27436,-0.17411 0.47486,-0.17411c0.20577,0 0.36406,0.0554 0.47486,0.1662c0.11608,0.10552 0.17411,0.2559 0.17411,0.45112c0,0.18467 -0.05804,0.33504 -0.17411,0.45112c-0.11608,0.1108 -0.27436,0.1662 -0.47486,0.1662zM358.30498,188.70831c-0.48541,0 -0.9207,-0.1108 -1.30586,-0.3324c-0.37989,-0.22688 -0.68063,-0.5329 -0.90223,-0.91806c-0.21632,-0.39044 -0.32448,-0.83364 -0.32448,-1.3296c0,-0.49597 0.10816,-0.93653 0.32449,-1.32169c0.2216,-0.39044 0.52234,-0.69646 0.90223,-0.91806c0.38516,-0.22688 0.82045,-0.34031 1.30586,-0.34031c0.47486,0 0.90223,0.11344 1.28212,0.34032c0.38516,0.2216 0.68855,0.52762 0.91015,0.91806c0.2216,0.38516 0.3324,0.82573 0.3324,1.32169c0,0.49597 -0.1108,0.93917 -0.3324,1.3296c-0.2216,0.38516 -0.52498,0.69118 -0.91014,0.91806c-0.37989,0.2216 -0.80726,0.3324 -1.28212,0.3324zM358.30498,187.82191c0.29547,0 0.55928,-0.07387 0.79143,-0.2216c0.23215,-0.14774 0.41418,-0.34823 0.54609,-0.60149c0.13191,-0.25854 0.19522,-0.54872 0.18994,-0.87057c0.00528,-0.32712 -0.05804,-0.61732 -0.18994,-0.87057c-0.13191,-0.25854 -0.31393,-0.45903 -0.54609,-0.60149c-0.23215,-0.14774 -0.49597,-0.2216 -0.79143,-0.2216c-0.29547,0 -0.56191,0.07387 -0.79934,0.2216c-0.23743,0.14774 -0.4221,0.35087 -0.554,0.6094c-0.13191,0.25326 -0.19522,0.54081 -0.18994,0.86266c-0.00528,0.32185 0.05804,0.61204 0.18994,0.87057c0.13191,0.25326 0.31657,0.45375 0.554,0.60149c0.23743,0.14774 0.50388,0.2216 0.79935,0.2216zM361.88472,188.61334v-4.96227h0.97346v1.02095l-0.17411,0.1108c0.06331,-0.21632 0.1873,-0.41682 0.37198,-0.60149c0.18467,-0.18994 0.40099,-0.34295 0.64897,-0.45903c0.25326,-0.11608 0.51179,-0.17411 0.7756,-0.17411c0.37989,0 0.69382,0.07387 0.94181,0.2216c0.25326,0.14774 0.4432,0.37461 0.56983,0.68063c0.12663,0.30074 0.18994,0.68063 0.18994,1.13966v3.02327h-0.97346v-2.95995c0,-0.27964 -0.03694,-0.51179 -0.1108,-0.69646c-0.07387,-0.18994 -0.18994,-0.32712 -0.34823,-0.41154c-0.15829,-0.08442 -0.35351,-0.12135 -0.58566,-0.1108c-0.18994,0 -0.36406,0.03166 -0.52234,0.09497c-0.15829,0.05804 -0.29547,0.14246 -0.41154,0.25326c-0.11608,0.10552 -0.20841,0.22952 -0.277,0.37198c-0.06331,0.13718 -0.09497,0.28755 -0.09497,0.45112v3.00744h-0.48277c-0.07914,0 -0.16093,0 -0.24534,0c-0.08442,0 -0.1662,0 -0.24534,0zM367.903,188.71622c-0.20577,0 -0.3667,-0.06068 -0.48277,-0.18203c-0.1108,-0.12135 -0.1662,-0.29547 -0.1662,-0.52234c0,-0.21105 0.05804,-0.38253 0.17411,-0.51443c0.12135,-0.13191 0.27964,-0.19786 0.47486,-0.19786c0.21105,0 0.37198,0.06331 0.48278,0.18994c0.11608,0.12135 0.17411,0.29547 0.17411,0.52234c0,0.20577 -0.06068,0.37461 -0.18203,0.50652c-0.12135,0.13191 -0.27964,0.19786 -0.47486,0.19786z" fill="#ffffff" fill-rule="nonzero" stroke-linecap="square"/><path d="M237.78265,232.59148h-14.866c-8.21029,0 -14.866,-6.43189 -14.866,-14.36603c0,-7.93414 6.65575,-14.36605 14.866,-14.36605v0h14.866z" fill-opacity="0.6715" fill="#6c6c6c" fill-rule="evenodd" stroke-linecap="square"/><path d="M237.76822,203.85942h14.866v0c8.21029,0 14.866,6.43189 14.866,14.36605c0,7.9341 -6.65573,14.36603 -14.866,14.36603h-14.866z" fill-opacity="0.6715" fill="#6c6c6c" fill-rule="evenodd" stroke-linecap="square"/><text transform="translate(222.07608,222.56851) scale(0.28593,0.28593)" font-size="40" xml:space="preserve" fill="#ffffff" fill-rule="nonzero" stroke="none" stroke-width="1" stroke-linecap="butt" stroke-linejoin="miter" stroke-miterlimit="10" stroke-dasharray="" stroke-dashoffset="0" font-family="Sans Serif" font-weight="normal" text-anchor="start" style="mix-blend-mode: normal"><tspan x="0" dy="0">Close</tspan></text></g></g></svg>