<svg version="1.1" xmlns="http://www.w3.org/2000/svg" xmlns:xlink="http://www.w3.org/1999/xlink" width="555.55556" height="463.96396" viewBox="0,0,555.55556,463.96396"><g transform="translate(37.77778,51.98198)"><g data-paper-data="{&quot;isPaintingLayer&quot;:true}" stroke="none" stroke-linejoin="miter" stroke-miterlimit="10" stroke-dasharray="" stroke-dashoffset="0" style="mix-blend-mode: normal"><path d="M-37.77778,411.98198v-463.96396h555.55556v463.96396z" fill-opacity="0.65285" fill="#000000" fill-rule="nonzero" stroke-width="0" stroke-linecap="butt"/><path d="M68.8084,-20.71391h140.94489v64.62993h-140.94489z" fill-opacity="0" fill="#000000" fill-rule="evenodd" stroke-width="1" stroke-linecap="square"/><path d="M21.26475,29.24724c-0.64931,0 -1.25087,-0.08594 -1.80469,-0.25781c-0.55382,-0.17187 -1.05512,-0.42969 -1.5039,-0.77344c-0.44879,-0.35329 -0.84983,-0.78298 -1.20313,-1.28906l1.26042,-1.46094c0.56336,0.80208 1.09808,1.3559 1.60417,1.66146c0.51562,0.30556 1.12673,0.45833 1.83333,0.45833c0.42969,0 0.82118,-0.06683 1.17448,-0.20052c0.35329,-0.14323 0.63021,-0.33421 0.83073,-0.57292c0.21006,-0.23871 0.3151,-0.51085 0.3151,-0.8164c0,-0.20052 -0.03342,-0.3915 -0.10026,-0.57292c-0.06684,-0.19098 -0.17187,-0.35807 -0.3151,-0.5013c-0.14323,-0.15277 -0.32466,-0.29123 -0.54427,-0.41536c-0.21962,-0.12413 -0.47744,-0.23394 -0.77344,-0.32942c-0.29601,-0.09548 -0.63976,-0.17665 -1.03125,-0.24348c-0.61111,-0.13369 -1.14583,-0.30078 -1.60417,-0.5013c-0.45833,-0.21006 -0.84028,-0.46788 -1.14583,-0.77344c-0.30556,-0.30556 -0.53473,-0.65408 -0.6875,-1.04557c-0.15278,-0.3915 -0.22917,-0.8355 -0.22917,-1.33203c0,-0.47744 0.10503,-0.92144 0.3151,-1.33203c0.21961,-0.41058 0.51085,-0.7639 0.8737,-1.0599c0.3724,-0.30556 0.80686,-0.53949 1.30339,-0.70182c0.50607,-0.17187 1.05034,-0.25781 1.63281,-0.25781c0.62066,0 1.18402,0.08116 1.6901,0.24349c0.51563,0.16233 0.97396,0.40104 1.375,0.71615c0.40104,0.30556 0.73047,0.6875 0.98829,1.14583l-1.30338,1.28906c-0.21962,-0.38194 -0.47265,-0.69704 -0.75911,-0.94531c-0.28646,-0.25781 -0.60156,-0.45356 -0.94531,-0.58723c-0.34375,-0.13369 -0.7066,-0.20052 -1.08854,-0.20052c-0.44879,0 -0.84028,0.07162 -1.17448,0.21485c-0.32466,0.13369 -0.58247,0.32465 -0.77344,0.57292c-0.19098,0.23871 -0.28646,0.52517 -0.28646,0.85938c0,0.23871 0.04774,0.45833 0.14323,0.65885c0.09548,0.20052 0.23394,0.37717 0.41537,0.52995c0.19097,0.15277 0.44402,0.29123 0.75912,0.41537c0.32465,0.11458 0.70659,0.21485 1.14583,0.30079c0.63021,0.14323 1.18881,0.31988 1.67579,0.52995c0.49652,0.21006 0.91189,0.45833 1.2461,0.74479c0.34375,0.28646 0.60156,0.60634 0.77344,0.95964c0.18142,0.35329 0.27214,0.73525 0.27214,1.14583c0,0.7639 -0.17665,1.42752 -0.52994,1.99089c-0.3533,0.55381 -0.8546,0.9835 -1.5039,1.28906c-0.64931,0.296 -1.42275,0.44401 -2.32031,0.44401zM31.24863,29.24724c-0.73525,0 -1.40842,-0.2053 -2.01953,-0.61588c-0.6111,-0.41058 -1.10286,-0.96918 -1.47526,-1.67578c-0.36285,-0.7066 -0.54427,-1.5039 -0.54427,-2.39192c0,-0.90712 0.1862,-1.70921 0.5586,-2.40625c0.3724,-0.69704 0.8737,-1.24609 1.50391,-1.64713c0.63975,-0.40104 1.35113,-0.60156 2.13412,-0.60156c0.46788,0 0.8928,0.07162 1.27474,0.21485c0.3915,0.13369 0.73047,0.32465 1.01693,0.57292c0.296,0.23871 0.53473,0.5204 0.71615,0.84506c0.19098,0.3151 0.31033,0.65408 0.35808,1.01693l-0.38671,-0.1289v-2.33463h1.77604v8.98047h-1.77604v-2.13411l0.40104,-0.1289c-0.06683,0.3151 -0.2053,0.62067 -0.41536,0.91667c-0.21006,0.28646 -0.47744,0.54427 -0.80208,0.77344c-0.32465,0.21962 -0.68272,0.40104 -1.07421,0.54427c-0.3915,0.13369 -0.80686,0.20052 -1.24609,0.20052zM31.70697,27.62876c0.54427,0 1.01693,-0.1289 1.41797,-0.38671c0.41058,-0.26735 0.73047,-0.63021 0.95964,-1.08854c0.23871,-0.46788 0.35808,-0.99783 0.35808,-1.58984c0,-0.58246 -0.11936,-1.10286 -0.35807,-1.56119c-0.22917,-0.45833 -0.54905,-0.8164 -0.95963,-1.07421c-0.40104,-0.26735 -0.87369,-0.40104 -1.41796,-0.40104c-0.52517,0 -0.98828,0.13369 -1.38932,0.40104c-0.40104,0.25781 -0.72092,0.61589 -0.95963,1.07422c-0.22917,0.45833 -0.34375,0.97873 -0.34375,1.5612c0,0.59202 0.11458,1.12196 0.34375,1.58985c0.23871,0.45833 0.5586,0.82119 0.95964,1.08854c0.40104,0.25781 0.86415,0.38672 1.38933,0.38672zM41.35295,29.07537l-3.79557,-8.98046h1.90495l2.73568,6.71745l-0.32942,0.15756l2.92188,-6.875h1.81902l-3.98177,8.98047zM52.14156,29.24724c-0.91667,0 -1.73307,-0.19574 -2.44921,-0.58723c-0.7066,-0.3915 -1.26519,-0.93099 -1.67578,-1.61848c-0.40104,-0.6875 -0.60156,-1.47526 -0.60156,-2.36328c0,-0.7066 0.11458,-1.35113 0.34375,-1.93359c0.22917,-0.58246 0.54427,-1.08377 0.94531,-1.5039c0.40104,-0.42969 0.88325,-0.75911 1.44662,-0.98828c0.57292,-0.23871 1.18881,-0.35807 1.84766,-0.35807c0.58246,0 1.12196,0.10981 1.61849,0.32943c0.50608,0.21962 0.94054,0.52517 1.30339,0.91667c0.3724,0.3915 0.65885,0.8546 0.85938,1.38933c0.20052,0.52517 0.296,1.09808 0.28646,1.71875l-0.01432,0.75912h-7.33333l-0.40104,-1.40365h6.20183l-0.24349,0.28646v-0.40104c-0.03819,-0.38194 -0.1671,-0.72092 -0.38671,-1.01692c-0.21006,-0.296 -0.4822,-0.52994 -0.8164,-0.70182c-0.33421,-0.17187 -0.69228,-0.25781 -1.07421,-0.25781c-0.62067,0 -1.14106,0.11936 -1.56119,0.35808c-0.42014,0.22917 -0.74002,0.57292 -0.95963,1.03125c-0.21006,0.44879 -0.3151,1.0026 -0.3151,1.66146c0,0.62067 0.12891,1.16494 0.38672,1.63281c0.25781,0.45833 0.62543,0.81641 1.10287,1.07422c0.48698,0.24827 1.04079,0.3724 1.66146,0.3724c0.44879,0 0.86415,-0.07161 1.2461,-0.21484c0.38194,-0.15277 0.79731,-0.42491 1.2461,-0.8164l0.88802,1.2461c-0.27692,0.27692 -0.6111,0.5204 -1.0026,0.73047c-0.3915,0.20052 -0.80686,0.36285 -1.24609,0.48698c-0.43923,0.11458 -0.87369,0.17187 -1.30338,0.17187z" fill="#ffffff" fill-rule="nonzero" stroke-width="1" stroke-linecap="square"/><path d="M61.56944,29.44203v-11.97396h4.68359c0.85938,0 1.63281,0.14323 2.32031,0.42969c0.6875,0.28646 1.27474,0.69704 1.76172,1.23177c0.49652,0.53473 0.8737,1.1697 1.13151,1.90495c0.26736,0.72569 0.40104,1.53256 0.40104,2.42058c0,0.88802 -0.13369,1.69965 -0.40104,2.4349c-0.25781,0.73525 -0.63021,1.37022 -1.11719,1.90495c-0.48698,0.52517 -1.079,0.93099 -1.77604,1.21745c-0.6875,0.28646 -1.46094,0.42969 -2.32031,0.42969zM63.4171,27.85219l-0.05729,-0.18619h2.80729c0.60156,0 1.14106,-0.09548 1.61849,-0.28646c0.47744,-0.20052 0.87848,-0.47744 1.20312,-0.83073c0.32465,-0.36285 0.56814,-0.80686 0.73047,-1.33203c0.17188,-0.52517 0.25781,-1.11241 0.25781,-1.76171c0,-0.64931 -0.08594,-1.23177 -0.25781,-1.7474c-0.16233,-0.52517 -0.41058,-0.96918 -0.74479,-1.33203c-0.33421,-0.36285 -0.73525,-0.63975 -1.20313,-0.83073c-0.46788,-0.20052 -1.0026,-0.30078 -1.60417,-0.30078h-2.85026l0.10026,-0.14323zM78.09969,29.6139c-0.91667,0 -1.73307,-0.19575 -2.44921,-0.58724c-0.7066,-0.3915 -1.26519,-0.93098 -1.67578,-1.61848c-0.40104,-0.6875 -0.60156,-1.47526 -0.60156,-2.36328c0,-0.7066 0.11458,-1.35113 0.34375,-1.93359c0.22917,-0.58246 0.54427,-1.08377 0.94531,-1.5039c0.40104,-0.42969 0.88325,-0.75911 1.44662,-0.98828c0.57292,-0.23871 1.18881,-0.35807 1.84766,-0.35807c0.58246,0 1.12196,0.10981 1.61849,0.32943c0.50608,0.21962 0.94054,0.52517 1.30339,0.91667c0.3724,0.3915 0.65885,0.8546 0.85937,1.38933c0.20052,0.52517 0.296,1.09808 0.28646,1.71875l-0.01432,0.75912h-7.33333l-0.40104,-1.40365h6.20183l-0.24348,0.28646v-0.40104c-0.03819,-0.38194 -0.1671,-0.72092 -0.38671,-1.01692c-0.21006,-0.296 -0.4822,-0.52994 -0.8164,-0.70182c-0.33421,-0.17187 -0.69228,-0.25781 -1.07421,-0.25781c-0.62067,0 -1.14106,0.11936 -1.56119,0.35808c-0.42014,0.22917 -0.74002,0.57292 -0.95963,1.03125c-0.21006,0.44879 -0.3151,1.0026 -0.3151,1.66146c0,0.62067 0.12891,1.16494 0.38672,1.63281c0.25781,0.45833 0.62543,0.81641 1.10287,1.07422c0.48698,0.24827 1.04079,0.3724 1.66146,0.3724c0.44879,0 0.86415,-0.07161 1.2461,-0.21484c0.38194,-0.15277 0.79731,-0.42491 1.2461,-0.8164l0.88802,1.2461c-0.27692,0.27692 -0.61111,0.5204 -1.0026,0.73047c-0.3915,0.20052 -0.80686,0.36285 -1.24609,0.48698c-0.43923,0.11458 -0.87369,0.17187 -1.30338,0.17187zM86.93241,29.6139c-0.75433,0 -1.43229,-0.1289 -2.03385,-0.38671c-0.60156,-0.26735 -1.10286,-0.65885 -1.5039,-1.17448l1.18881,-1.01692c0.34375,0.3915 0.71615,0.67796 1.11719,0.85938c0.41058,0.17188 0.8737,0.25781 1.38933,0.25781c0.20052,0 0.38672,-0.02387 0.5586,-0.07161c0.18142,-0.04775 0.33897,-0.12413 0.47266,-0.22917c0.13369,-0.10504 0.23394,-0.22917 0.30079,-0.3724c0.06683,-0.14323 0.10027,-0.30078 0.10027,-0.47265c0,-0.296 -0.10981,-0.53473 -0.32942,-0.71615c-0.11458,-0.0764 -0.296,-0.16233 -0.54427,-0.25781c-0.23871,-0.09548 -0.55381,-0.19575 -0.94531,-0.30078c-0.65885,-0.17187 -1.19835,-0.36285 -1.61848,-0.57292c-0.42014,-0.21962 -0.74479,-0.46788 -0.97396,-0.74479c-0.17187,-0.21962 -0.30078,-0.45356 -0.38671,-0.70182c-0.0764,-0.25781 -0.11458,-0.54427 -0.11458,-0.85937c0,-0.3724 0.08116,-0.71615 0.24349,-1.03125c0.17187,-0.3151 0.40104,-0.58724 0.6875,-0.8164c0.296,-0.23871 0.63975,-0.42015 1.03125,-0.54427c0.3915,-0.12413 0.81163,-0.18619 1.26042,-0.18619c0.42015,0 0.83551,0.05729 1.2461,0.17188c0.42014,0.11458 0.80686,0.28168 1.16016,0.50131c0.35329,0.21006 0.64931,0.46311 0.88802,0.75912l-1.0026,1.11719c-0.21962,-0.21962 -0.45833,-0.41058 -0.71615,-0.57292c-0.25781,-0.16233 -0.5204,-0.28646 -0.78776,-0.3724c-0.25781,-0.09548 -0.49175,-0.14323 -0.70182,-0.14323c-0.23871,0 -0.45833,0.02387 -0.65885,0.07162c-0.19098,0.03819 -0.35329,0.10504 -0.48698,0.20052c-0.12413,0.08594 -0.22439,0.20052 -0.30078,0.34375c-0.06683,0.13369 -0.10026,0.28646 -0.10026,0.45833c0.00954,0.14323 0.04775,0.28168 0.11458,0.41537c0.06683,0.13369 0.15756,0.24349 0.27214,0.32943c0.12413,0.09548 0.31033,0.19574 0.5586,0.30079c0.24827,0.09548 0.56814,0.19098 0.95964,0.28646c0.56337,0.14323 1.03125,0.30556 1.40365,0.48698c0.3724,0.17188 0.6684,0.3724 0.88802,0.60156c0.22917,0.21962 0.38672,0.47266 0.47266,0.75912c0.09548,0.28646 0.14323,0.60634 0.14323,0.95964c0,0.50608 -0.148,0.96442 -0.44401,1.375c-0.28646,0.40104 -0.67796,0.71615 -1.17448,0.94531c-0.48698,0.22917 -1.03125,0.34375 -1.63281,0.34375zM93.73474,26.63473l-0.08594,-1.91927l4.29688,-4.2539h2.3776zM92.13057,29.44203v-12.66146h1.76172v12.66146zM98.18916,29.44203l-3.39453,-3.95312l1.2461,-1.14583l4.39714,5.09896zM102.96145,29.44203v-11.27213h1.76172v11.27214zM101.08514,22.18031v-1.71875h5.71485v1.71875zM112.36477,29.6139c-0.87848,0 -1.66623,-0.20052 -2.36328,-0.60156c-0.6875,-0.41058 -1.23177,-0.96442 -1.63281,-1.66146c-0.3915,-0.7066 -0.58723,-1.50869 -0.58723,-2.40625c0,-0.89756 0.19574,-1.69488 0.58724,-2.39192c0.40104,-0.7066 0.94531,-1.26042 1.63281,-1.66146c0.69704,-0.41058 1.48481,-0.61588 2.36329,-0.61588c0.85938,0 1.63281,0.2053 2.32031,0.61589c0.69704,0.40104 1.2461,0.95485 1.64714,1.66146c0.40104,0.69704 0.60156,1.49436 0.60156,2.39193c0,0.89756 -0.20052,1.69965 -0.60156,2.40625c-0.40104,0.69704 -0.95009,1.25087 -1.64713,1.66146c-0.6875,0.40104 -1.46094,0.60156 -2.32031,0.60156zM112.36477,28.00973c0.53473,0 1.01215,-0.13369 1.43229,-0.40104c0.42014,-0.26736 0.74957,-0.63021 0.98829,-1.08854c0.23871,-0.46788 0.35329,-0.99306 0.34375,-1.57552c0.00954,-0.59202 -0.10504,-1.11719 -0.34375,-1.57552c-0.23871,-0.46788 -0.56814,-0.83073 -0.98828,-1.08854c-0.42014,-0.26735 -0.89756,-0.40104 -1.43229,-0.40104c-0.53473,0 -1.01692,0.13369 -1.44661,0.40104c-0.42969,0.26736 -0.76389,0.63498 -1.0026,1.10287c-0.23871,0.45833 -0.35329,0.97873 -0.34375,1.5612c-0.00954,0.58246 0.10504,1.10764 0.34375,1.57552c0.23871,0.45833 0.57292,0.82119 1.0026,1.08854c0.42969,0.26735 0.91189,0.40104 1.44662,0.40104zM118.84317,33.20896v-12.7474h1.77604v2.04818l-0.27213,-0.14323c0.06683,-0.34375 0.25781,-0.67317 0.57292,-0.98828c0.32465,-0.3151 0.71615,-0.57292 1.17448,-0.77344c0.46788,-0.20052 0.94531,-0.30078 1.43229,-0.30078c0.81163,0 1.52777,0.20052 2.14844,0.60156c0.63021,0.40104 1.12673,0.95009 1.48958,1.64714c0.3724,0.69704 0.5586,1.49436 0.5586,2.39193c0,0.88802 -0.18143,1.68533 -0.54427,2.39193c-0.36285,0.69704 -0.85937,1.25087 -1.48958,1.66146c-0.62067,0.40104 -1.32248,0.60156 -2.10546,0.60156c-0.52518,0 -1.03603,-0.10504 -1.53255,-0.3151c-0.48698,-0.21006 -0.90234,-0.4822 -1.24609,-0.8164c-0.34375,-0.33421 -0.55382,-0.67796 -0.63021,-1.03125l0.44401,-0.22917v6.00131zM123.28328,27.96677c0.52517,0 0.99305,-0.1289 1.40365,-0.38671c0.41058,-0.26736 0.73524,-0.62543 0.97396,-1.07421c0.23871,-0.45833 0.35808,-0.97873 0.35808,-1.56119c0,-0.58246 -0.11936,-1.09808 -0.35807,-1.54687c-0.22917,-0.44879 -0.54905,-0.80208 -0.95963,-1.0599c-0.40104,-0.26735 -0.87369,-0.40104 -1.41796,-0.40104c-0.53473,0 -1.00738,0.12891 -1.41796,0.38672c-0.41059,0.25781 -0.73525,0.61589 -0.97396,1.07422c-0.23872,0.44879 -0.35807,0.96442 -0.35807,1.54688c0,0.58246 0.11936,1.10287 0.35808,1.5612c0.23871,0.44879 0.56336,0.80686 0.97396,1.07422c0.41058,0.25781 0.88324,0.38672 1.41797,0.38672z" fill="#ffffff" fill-rule="nonzero" stroke-width="1" stroke-linecap="square"/><path d="M149.20121,183.87104v-10.01927h6.31598v1.48612h-4.76994v7.04705h4.76994v1.48612zM149.90831,179.47264v-1.48612h4.81788v1.48612zM157.61592,183.87104v-7.51445h1.47414v1.54604l-0.26366,0.16779c0.09588,-0.32758 0.28364,-0.6312 0.56329,-0.91084c0.27964,-0.28763 0.60723,-0.51934 0.98275,-0.69512c0.38351,-0.17578 0.77502,-0.26366 1.17451,-0.26366c0.57527,0 1.05066,0.11185 1.42619,0.33557c0.38351,0.22372 0.67115,0.56728 0.8629,1.03069c0.19175,0.45542 0.28763,1.03069 0.28763,1.72581v4.57818h-1.47413v-4.48231c0,-0.42346 -0.05593,-0.77502 -0.16779,-1.05466c-0.11185,-0.28763 -0.28763,-0.49537 -0.52733,-0.62321c-0.23969,-0.12784 -0.53533,-0.18376 -0.88687,-0.16779c-0.28763,0 -0.5513,0.04794 -0.791,0.14382c-0.23969,0.08788 -0.44743,0.21572 -0.62321,0.38351c-0.17578,0.15979 -0.3156,0.34756 -0.41947,0.56329c-0.09588,0.20773 -0.14382,0.43544 -0.14382,0.68314v4.55421h-0.73107c-0.11985,0 -0.24369,0 -0.37152,0c-0.12784,0 -0.25167,0 -0.37152,0zM169.3182,184.01487c-0.69512,0 -1.31832,-0.17178 -1.86962,-0.51534c-0.54331,-0.34356 -0.97476,-0.81097 -1.29435,-1.40222c-0.31959,-0.59125 -0.4794,-1.25441 -0.4794,-1.98947c0,-0.73506 0.15979,-1.39822 0.4794,-1.98947c0.31959,-0.59125 0.75105,-1.05866 1.29435,-1.40222c0.5513,-0.34356 1.17451,-0.51534 1.86962,-0.51534c0.67115,0 1.27838,0.13582 1.82169,0.40748c0.5513,0.27166 0.97077,0.64318 1.2584,1.11459l-0.81497,0.99474c-0.15181,-0.21572 -0.34755,-0.41547 -0.58725,-0.59924c-0.23969,-0.18376 -0.49537,-0.32758 -0.76703,-0.43145c-0.26366,-0.10387 -0.51934,-0.1558 -0.76703,-0.1558c-0.45542,0 -0.8629,0.11185 -1.22244,0.33557c-0.35954,0.22372 -0.64318,0.53133 -0.85092,0.92283c-0.20773,0.3915 -0.3116,0.83094 -0.3116,1.31832c0,0.48738 0.10787,0.92682 0.32359,1.31832c0.22372,0.38351 0.51534,0.69112 0.87489,0.92283c0.35954,0.22372 0.75903,0.33557 1.19847,0.33557c0.26366,0 0.51534,-0.04394 0.75505,-0.13183c0.23969,-0.08788 0.4754,-0.21572 0.70711,-0.38351c0.2317,-0.17578 0.44743,-0.38751 0.64718,-0.63519l0.81497,1.00672c-0.30361,0.43145 -0.73906,0.787 -1.30633,1.06665c-0.56728,0.27166 -1.15853,0.40748 -1.77375,0.40748zM177.16571,184.01487c-0.73506,0 -1.39423,-0.16779 -1.97748,-0.50336c-0.57527,-0.34356 -1.03069,-0.80697 -1.36626,-1.39023c-0.32758,-0.59125 -0.49138,-1.26239 -0.49138,-2.01344c0,-0.75105 0.16379,-1.41819 0.49138,-2.00145c0.33557,-0.59125 0.791,-1.05466 1.36626,-1.39023c0.58327,-0.34356 1.24242,-0.51534 1.97749,-0.51534c0.71909,0 1.36626,0.17178 1.94153,0.51534c0.58327,0.33557 1.04268,0.79899 1.37825,1.39023c0.33557,0.58327 0.50336,1.25041 0.50336,2.00146c0,0.75105 -0.16779,1.42219 -0.50336,2.01344c-0.33557,0.58327 -0.79499,1.04667 -1.37825,1.39023c-0.57527,0.33557 -1.22244,0.50336 -1.94153,0.50336zM177.16571,182.67257c0.44743,0 0.84693,-0.11185 1.19847,-0.33557c0.35155,-0.22372 0.62721,-0.52733 0.82695,-0.91084c0.19975,-0.3915 0.29562,-0.83094 0.28763,-1.31832c0.00799,-0.49537 -0.08788,-0.93481 -0.28763,-1.31832c-0.19975,-0.3915 -0.4754,-0.69512 -0.82695,-0.91084c-0.35155,-0.22372 -0.75105,-0.33557 -1.19847,-0.33557c-0.44743,0 -0.85092,0.11185 -1.21045,0.33557c-0.35954,0.22372 -0.63919,0.53133 -0.83894,0.92283c-0.19975,0.38351 -0.29562,0.81896 -0.28763,1.30634c-0.00799,0.48738 0.08788,0.92682 0.28763,1.31832c0.19975,0.38351 0.4794,0.68713 0.83894,0.91084c0.35954,0.22372 0.76303,0.33557 1.21046,0.33557zM185.71458,184.01487c-0.68713,0 -1.29835,-0.16779 -1.83367,-0.50336c-0.53533,-0.34356 -0.96278,-0.80697 -1.28236,-1.39023c-0.3116,-0.59125 -0.46741,-1.26239 -0.46741,-2.01344c0,-0.75105 0.15181,-1.41819 0.45542,-2.00145c0.3116,-0.59125 0.73506,-1.05466 1.27038,-1.39023c0.53533,-0.34356 1.14254,-0.51534 1.82169,-0.51534c0.36753,0 0.72708,0.05993 1.07863,0.17977c0.35155,0.11985 0.66316,0.28364 0.93481,0.49138c0.27964,0.19975 0.49537,0.42346 0.64718,0.67115c0.15979,0.23969 0.23969,0.48338 0.23969,0.73108l-0.43145,0.03596v-5.0336h1.47414v10.59454h-1.47413v-1.78573h0.28763c0,0.22372 -0.0759,0.45143 -0.2277,0.68314c-0.15181,0.22372 -0.35554,0.43145 -0.61122,0.62321c-0.24769,0.18376 -0.53931,0.33557 -0.87488,0.45542c-0.32758,0.11185 -0.66316,0.16779 -1.00672,0.16779zM185.91832,182.74448c0.44743,0 0.84293,-0.11585 1.18649,-0.34755c0.34356,-0.2317 0.61123,-0.54331 0.80299,-0.93481c0.19975,-0.39949 0.29962,-0.85092 0.29962,-1.35428c0,-0.50336 -0.09987,-0.95079 -0.29961,-1.34229c-0.19175,-0.39949 -0.45941,-0.71509 -0.80298,-0.94679c-0.34356,-0.2317 -0.73906,-0.34755 -1.18649,-0.34755c-0.44743,0 -0.84293,0.11585 -1.18649,0.34756c-0.34356,0.2317 -0.61522,0.54731 -0.81497,0.9468c-0.19175,0.3915 -0.28763,0.83894 -0.28763,1.34229c0,0.50336 0.09588,0.95479 0.28763,1.35428c0.19975,0.3915 0.4714,0.70311 0.81497,0.93481c0.34356,0.2317 0.73906,0.34756 1.18649,0.34756zM191.89867,183.87104v-7.51445h1.47414v7.51446zM192.61776,174.7027c-0.3116,0 -0.5553,-0.0799 -0.73107,-0.23969c-0.16779,-0.16779 -0.25167,-0.39949 -0.25167,-0.69512c0,-0.27964 0.08788,-0.50336 0.26366,-0.67115c0.17578,-0.17578 0.41547,-0.26366 0.71909,-0.26366c0.3116,0 0.5513,0.0839 0.71909,0.25168c0.17578,0.15979 0.26366,0.38751 0.26366,0.68314c0,0.27964 -0.08788,0.50736 -0.26366,0.68314c-0.17578,0.16779 -0.41547,0.25168 -0.71909,0.25168zM195.6371,183.87104v-7.51445h1.47414v1.54604l-0.26366,0.16779c0.09588,-0.32758 0.28364,-0.6312 0.56329,-0.91084c0.27964,-0.28763 0.60723,-0.51934 0.98275,-0.69512c0.38351,-0.17578 0.77502,-0.26366 1.17451,-0.26366c0.57527,0 1.05066,0.11185 1.42619,0.33557c0.38351,0.22372 0.67115,0.56728 0.8629,1.03069c0.19175,0.45542 0.28763,1.03069 0.28763,1.72581v4.57818h-1.47413v-4.48231c0,-0.42346 -0.05593,-0.77502 -0.16779,-1.05466c-0.11185,-0.28763 -0.28763,-0.49537 -0.52733,-0.62321c-0.23969,-0.12784 -0.53533,-0.18376 -0.88687,-0.16779c-0.28763,0 -0.5513,0.04794 -0.791,0.14382c-0.23969,0.08788 -0.44743,0.21572 -0.62321,0.38351c-0.17578,0.15979 -0.3156,0.34756 -0.41947,0.56329c-0.09588,0.20773 -0.14382,0.43544 -0.14382,0.68314v4.55421h-0.73107c-0.11985,0 -0.24369,0 -0.37152,0c-0.12784,0 -0.25167,0 -0.37152,0zM207.51917,187.16687c-0.53533,0 -1.07064,-0.08389 -1.60596,-0.25167c-0.52733,-0.16779 -0.95079,-0.38751 -1.27038,-0.65916l0.53932,-1.13855c0.19175,0.14382 0.41547,0.26766 0.67115,0.37153c0.25567,0.11185 0.52733,0.19975 0.81497,0.26366c0.28763,0.06392 0.57128,0.09588 0.85092,0.09588c0.51934,0 0.95479,-0.08788 1.30634,-0.26366c0.35954,-0.16779 0.62721,-0.41947 0.80299,-0.75504c0.18376,-0.33557 0.27565,-0.75105 0.27565,-1.24641v-1.43818l0.15581,0.09588c-0.04794,0.29562 -0.20373,0.57927 -0.46741,0.85092c-0.26366,0.27166 -0.59125,0.49537 -0.98275,0.67115c-0.38351,0.16779 -0.783,0.25168 -1.19847,0.25168c-0.7111,0 -1.34629,-0.16779 -1.90557,-0.50336c-0.5593,-0.34356 -1.00272,-0.80697 -1.33031,-1.39023c-0.31959,-0.59125 -0.4794,-1.26239 -0.4794,-2.01344c0,-0.75105 0.15979,-1.41819 0.4794,-2.00145c0.31959,-0.59125 0.75505,-1.05466 1.30634,-1.39023c0.5593,-0.34356 1.19048,-0.51534 1.89359,-0.51534c0.27964,0 0.5513,0.03596 0.81497,0.10787c0.27166,0.07191 0.52334,0.17178 0.75505,0.29962c0.2317,0.12784 0.43544,0.26766 0.61123,0.41947c0.18376,0.15181 0.33157,0.3156 0.44344,0.49138c0.11985,0.16779 0.19175,0.32758 0.21572,0.4794l-0.3116,0.11985v-1.76176h1.47414v7.05903c0,0.59924 -0.08788,1.13056 -0.26366,1.59398c-0.17578,0.46341 -0.43145,0.85491 -0.76703,1.17451c-0.33557,0.31959 -0.74306,0.56329 -1.22244,0.73108c-0.4714,0.16779 -1.00672,0.25168 -1.60596,0.25168zM207.56711,182.66059c0.4714,0 0.88687,-0.10786 1.24641,-0.32358c0.36753,-0.22372 0.65118,-0.52733 0.85092,-0.91084c0.19975,-0.38351 0.29962,-0.82296 0.29962,-1.31832c0,-0.49537 -0.10387,-0.93481 -0.3116,-1.31832c-0.20773,-0.3915 -0.49138,-0.69512 -0.85092,-0.91084c-0.35155,-0.22372 -0.76303,-0.33557 -1.23442,-0.33557c-0.45542,0 -0.8629,0.11185 -1.22244,0.33557c-0.35954,0.22372 -0.64318,0.53133 -0.85092,0.92283c-0.19975,0.38351 -0.29961,0.81896 -0.29961,1.30634c0,0.48738 0.09987,0.92682 0.29962,1.31832c0.20773,0.38351 0.49138,0.68713 0.85092,0.91084c0.35954,0.21572 0.76703,0.32359 1.22244,0.32359zM217.8168,183.87104v-10.01927h3.91902c0.71909,0 1.36626,0.11985 1.94153,0.35954c0.57527,0.23969 1.06665,0.58327 1.47414,1.03069c0.41547,0.44743 0.73108,0.97875 0.9468,1.59398c0.22372,0.60723 0.33557,1.28237 0.33557,2.02543c0,0.74306 -0.11185,1.42219 -0.33557,2.03741c-0.21572,0.61522 -0.52733,1.14654 -0.93481,1.59398c-0.40748,0.43944 -0.90285,0.77902 -1.48612,1.01871c-0.57527,0.23969 -1.22244,0.35954 -1.94153,0.35954zM219.36283,182.54074l-0.04794,-0.1558h2.34902c0.50336,0 0.95479,-0.0799 1.35428,-0.23969c0.39949,-0.16779 0.73506,-0.39949 1.00672,-0.69512c0.27166,-0.30361 0.4754,-0.67515 0.61123,-1.11458c0.14382,-0.43944 0.21572,-0.93082 0.21572,-1.47413c0,-0.54331 -0.07191,-1.03069 -0.21572,-1.46215c-0.13582,-0.43944 -0.34356,-0.81097 -0.62321,-1.11458c-0.27964,-0.30361 -0.61522,-0.53533 -1.00672,-0.69512c-0.3915,-0.16779 -0.83894,-0.25167 -1.34229,-0.25167h-2.38497l0.0839,-0.11985zM228.14902,183.87104v-7.51445h1.48612v2.361l-0.14382,-0.57527c0.10387,-0.35954 0.28364,-0.68713 0.53932,-0.98275c0.25567,-0.29562 0.54731,-0.52733 0.87489,-0.69512c0.32758,-0.17578 0.66715,-0.26366 1.01871,-0.26366c0.15979,0 0.3116,0.01598 0.45542,0.04794c0.15181,0.02397 0.27166,0.05593 0.35954,0.09588l-0.38351,1.60596c-0.11185,-0.04794 -0.23969,-0.08788 -0.38351,-0.11985c-0.13582,-0.03995 -0.27166,-0.05992 -0.40748,-0.05992c-0.25567,0 -0.49937,0.05194 -0.73107,0.15581c-0.2317,0.09588 -0.43944,0.2357 -0.62321,0.41947c-0.17578,0.17578 -0.3156,0.37951 -0.41947,0.61123c-0.10387,0.2317 -0.1558,0.48738 -0.1558,0.76703v4.14673zM234.15556,183.87104v-7.51445h1.47414v7.51446zM234.87465,174.7027c-0.3116,0 -0.5553,-0.0799 -0.73107,-0.23969c-0.16779,-0.16779 -0.25167,-0.39949 -0.25167,-0.69512c0,-0.27964 0.08788,-0.50336 0.26366,-0.67115c0.17578,-0.17578 0.41547,-0.26366 0.71909,-0.26366c0.3116,0 0.5513,0.0839 0.71909,0.25168c0.17578,0.15979 0.26366,0.38751 0.26366,0.68314c0,0.27964 -0.08788,0.50736 -0.26366,0.68314c-0.17578,0.16779 -0.41547,0.25168 -0.71909,0.25168zM240.35087,183.87104l-3.17596,-7.51445h1.59398l2.28909,5.62086l-0.27564,0.13184l2.4449,-5.75269h1.52207l-3.33177,7.51446zM249.37829,184.01487c-0.76703,0 -1.45016,-0.16379 -2.04939,-0.49138c-0.59125,-0.32758 -1.05866,-0.77901 -1.40222,-1.35428c-0.33557,-0.57527 -0.50336,-1.23442 -0.50336,-1.97748c0,-0.59125 0.09588,-1.13056 0.28763,-1.61794c0.19175,-0.48738 0.45542,-0.90685 0.791,-1.25839c0.33557,-0.35954 0.73906,-0.63519 1.21046,-0.82695c0.4794,-0.19975 0.99474,-0.29961 1.54604,-0.29961c0.48738,0 0.93881,0.09188 1.35428,0.27565c0.42346,0.18376 0.787,0.43944 1.09062,0.76703c0.3116,0.32758 0.5513,0.71509 0.71909,1.16253c0.16779,0.43944 0.24769,0.91884 0.23969,1.43818l-0.01198,0.6352h-6.13621l-0.33557,-1.17451h5.18941l-0.20373,0.23969v-0.33557c-0.03196,-0.31959 -0.13982,-0.60324 -0.32358,-0.85092c-0.17578,-0.24769 -0.40348,-0.44344 -0.68313,-0.58725c-0.27964,-0.14382 -0.57927,-0.21572 -0.89885,-0.21572c-0.51934,0 -0.95479,0.09987 -1.30633,0.29962c-0.35155,0.19175 -0.61921,0.4794 -0.80298,0.8629c-0.17578,0.37552 -0.26366,0.83894 -0.26366,1.39023c0,0.51934 0.10787,0.97476 0.32359,1.36626c0.21572,0.38351 0.52334,0.68314 0.92283,0.89886c0.40748,0.20773 0.8709,0.3116 1.39023,0.3116c0.37552,0 0.72308,-0.05992 1.04268,-0.17977c0.31959,-0.12784 0.66715,-0.35554 1.04268,-0.68313l0.74306,1.04268c-0.2317,0.2317 -0.51135,0.43544 -0.83894,0.61123c-0.32758,0.16779 -0.67515,0.30361 -1.04267,0.40748c-0.36753,0.09588 -0.73107,0.14382 -1.09061,0.14382z" fill="#ffffff" fill-rule="nonzero" stroke-width="1" stroke-linecap="square"/><path d="M259.47311,177.38249c-0.26366,0 -0.50336,-0.06791 -0.71909,-0.20373c-0.21572,-0.14382 -0.38751,-0.33557 -0.51534,-0.57527c-0.11985,-0.24769 -0.17977,-0.52733 -0.17977,-0.83894c0,-0.24769 0.05194,-0.49138 0.15581,-0.73107c0.10387,-0.23969 0.24769,-0.46341 0.43145,-0.67115c0.19175,-0.20773 0.41147,-0.3915 0.65917,-0.5513c0.24769,-0.16779 0.51534,-0.29562 0.80299,-0.38351l0.53932,0.65917c-0.37552,0.17578 -0.68313,0.37552 -0.92282,0.59924c-0.2317,0.21572 -0.34755,0.40348 -0.34755,0.56329c0,0.11985 0.05194,0.22771 0.15581,0.32359c0.10387,0.09588 0.19975,0.18376 0.28763,0.26366c0.20773,0.16779 0.34756,0.3116 0.41947,0.43145c0.07191,0.11185 0.10787,0.2317 0.10787,0.35954c0,0.22372 -0.08389,0.40748 -0.25167,0.5513c-0.15979,0.13582 -0.36753,0.20374 -0.62321,0.20374zM262.43334,177.38249c-0.26366,0 -0.50336,-0.06791 -0.71909,-0.20373c-0.21572,-0.14382 -0.38751,-0.33557 -0.51534,-0.57527c-0.11985,-0.24769 -0.17977,-0.52733 -0.17977,-0.83894c0,-0.24769 0.05194,-0.49138 0.15581,-0.73107c0.10387,-0.23969 0.24769,-0.46341 0.43145,-0.67115c0.19175,-0.20773 0.41147,-0.3915 0.65917,-0.5513c0.24769,-0.16779 0.51534,-0.29562 0.80299,-0.38351l0.53932,0.65917c-0.37552,0.17578 -0.68313,0.37552 -0.92282,0.59924c-0.2317,0.21572 -0.34755,0.40348 -0.34755,0.56329c0,0.11985 0.05194,0.22771 0.15581,0.32359c0.10387,0.09588 0.19975,0.18376 0.28763,0.26366c0.20773,0.16779 0.34756,0.3116 0.41947,0.43145c0.07191,0.11185 0.10787,0.2317 0.10787,0.35954c0,0.22372 -0.08389,0.40748 -0.25167,0.5513c-0.15979,0.13582 -0.36753,0.20374 -0.62321,0.20374zM265.29665,184.17786v-10.01927h1.52206l3.64337,5.94444l-0.73107,-0.01198l3.69131,-5.93245h1.43818v10.01927h-1.54603v-4.11077c0,-0.85491 0.01997,-1.62593 0.05993,-2.31306c0.03995,-0.68713 0.11585,-1.37026 0.22771,-2.04939l0.19175,0.52733l-3.27184,5.06956h-0.94679l-3.17596,-5.00963l0.1558,-0.58725c0.10387,0.63919 0.17578,1.29835 0.21572,1.97749c0.04794,0.67115 0.07191,1.46614 0.07191,2.38497v4.11078zM280.17714,184.32167c-0.61522,0 -1.1785,-0.17178 -1.68985,-0.51534c-0.51135,-0.34356 -0.92282,-0.81097 -1.23442,-1.40222c-0.30361,-0.59125 -0.45542,-1.25839 -0.45542,-2.00145c0,-0.75903 0.15581,-1.43018 0.46741,-2.01344c0.3116,-0.58327 0.73108,-1.04267 1.2584,-1.37825c0.53533,-0.33557 1.13056,-0.50336 1.78574,-0.50336c0.3915,0 0.74705,0.05993 1.06665,0.17977c0.32758,0.11185 0.61123,0.27166 0.85092,0.4794c0.24769,0.19975 0.44743,0.43544 0.59924,0.70711c0.15979,0.26366 0.25967,0.54731 0.29962,0.85092l-0.32358,-0.10786v-1.95351h1.48612v7.51446h-1.48612v-1.78573l0.33557,-0.10786c-0.05593,0.26366 -0.17178,0.51934 -0.34755,0.76703c-0.17578,0.23969 -0.39949,0.45542 -0.67115,0.64718c-0.27166,0.18376 -0.57128,0.33557 -0.89885,0.45542c-0.32758,0.11185 -0.67515,0.16779 -1.04267,0.16779zM280.56066,182.96739c0.45542,0 0.85092,-0.10786 1.18649,-0.32358c0.34356,-0.22372 0.61123,-0.52733 0.80299,-0.91084c0.19975,-0.3915 0.29962,-0.83494 0.29962,-1.33031c0,-0.48738 -0.09987,-0.92282 -0.29961,-1.30633c-0.19175,-0.38351 -0.45941,-0.68313 -0.80298,-0.89885c-0.33557,-0.22372 -0.73107,-0.33557 -1.18649,-0.33557c-0.43944,0 -0.82695,0.11185 -1.16252,0.33557c-0.33557,0.21572 -0.60324,0.51534 -0.80298,0.89886c-0.19175,0.38351 -0.28763,0.81896 -0.28763,1.30634c0,0.49537 0.09588,0.93881 0.28763,1.33031c0.19975,0.38351 0.46741,0.68713 0.80299,0.91084c0.33557,0.21572 0.72308,0.32359 1.16253,0.32359zM286.58662,184.17786v-7.51445h1.47414v7.51446zM287.30571,175.0095c-0.3116,0 -0.5553,-0.0799 -0.73107,-0.23969c-0.16779,-0.16779 -0.25167,-0.39949 -0.25167,-0.69512c0,-0.27964 0.08788,-0.50336 0.26366,-0.67115c0.17578,-0.17578 0.41547,-0.26366 0.71909,-0.26366c0.3116,0 0.5513,0.0839 0.71909,0.25168c0.17578,0.15979 0.26366,0.38751 0.26366,0.68314c0,0.27964 -0.08788,0.50736 -0.26366,0.68314c-0.17578,0.16779 -0.41547,0.25168 -0.71909,0.25168zM290.32506,184.17786v-7.51445h1.47414v1.54604l-0.26366,0.16779c0.09588,-0.32758 0.28364,-0.6312 0.56329,-0.91084c0.27964,-0.28763 0.60723,-0.51934 0.98275,-0.69512c0.38351,-0.17578 0.77502,-0.26366 1.17451,-0.26366c0.57527,0 1.05066,0.11185 1.42619,0.33557c0.38351,0.22372 0.67115,0.56728 0.8629,1.03069c0.19175,0.45542 0.28763,1.03069 0.28763,1.72581v4.57818h-1.47413v-4.48231c0,-0.42346 -0.05593,-0.77502 -0.16779,-1.05466c-0.11185,-0.28763 -0.28763,-0.49537 -0.52733,-0.62321c-0.23969,-0.12784 -0.53533,-0.18376 -0.88687,-0.16779c-0.28763,0 -0.5513,0.04794 -0.791,0.14382c-0.23969,0.08788 -0.44743,0.21572 -0.62321,0.38351c-0.17578,0.15979 -0.3156,0.34756 -0.41947,0.56329c-0.09588,0.20773 -0.14382,0.43544 -0.14382,0.68314v4.55421h-0.73107c-0.11985,0 -0.24369,0 -0.37152,0c-0.12784,0 -0.25167,0 -0.37152,0zM299.21091,184.17786v-10.01927h1.54604v10.01927zM299.89405,179.91128v-1.48612h5.16544v1.48612zM299.89405,175.6447v-1.48612h5.81262v1.48612zM310.84591,184.32167c-0.54331,0 -1.04667,-0.07191 -1.51008,-0.21572c-0.46341,-0.14382 -0.88288,-0.35954 -1.25839,-0.64718c-0.37552,-0.29562 -0.7111,-0.65517 -1.00672,-1.07863l1.05466,-1.22244c0.4714,0.67115 0.91884,1.13456 1.34229,1.39023c0.43145,0.25567 0.94281,0.38351 1.53405,0.38351c0.35954,0 0.68713,-0.05593 0.98275,-0.16779c0.29562,-0.11985 0.52733,-0.27964 0.69512,-0.4794c0.17578,-0.19975 0.26366,-0.42745 0.26366,-0.68313c0,-0.16779 -0.02797,-0.32758 -0.08389,-0.4794c-0.05593,-0.15979 -0.14382,-0.29961 -0.26366,-0.41947c-0.11985,-0.12784 -0.27166,-0.24369 -0.45542,-0.34755c-0.18376,-0.10387 -0.39949,-0.19575 -0.64718,-0.27564c-0.24769,-0.0799 -0.53533,-0.14781 -0.8629,-0.20373c-0.51135,-0.11185 -0.95878,-0.25167 -1.34229,-0.41947c-0.38351,-0.17578 -0.70311,-0.3915 -0.95878,-0.64718c-0.25567,-0.25567 -0.44743,-0.54731 -0.57527,-0.87488c-0.12784,-0.32758 -0.19175,-0.69912 -0.19175,-1.11458c0,-0.39949 0.08788,-0.77102 0.26366,-1.11458c0.18376,-0.34356 0.42745,-0.63919 0.73108,-0.88687c0.3116,-0.25567 0.67515,-0.45143 1.09062,-0.58725c0.42346,-0.14382 0.87888,-0.21572 1.36626,-0.21572c0.51934,0 0.99074,0.06791 1.41421,0.20374c0.43145,0.13582 0.81497,0.33557 1.15054,0.59924c0.33557,0.25567 0.61123,0.57527 0.82695,0.95878l-1.09061,1.07863c-0.18376,-0.31959 -0.39549,-0.58327 -0.63519,-0.791c-0.23969,-0.21572 -0.50336,-0.37951 -0.791,-0.49138c-0.28763,-0.11185 -0.59125,-0.16779 -0.91084,-0.16779c-0.37552,0 -0.70311,0.05993 -0.98275,0.17977c-0.27166,0.11185 -0.48738,0.27166 -0.64718,0.4794c-0.15979,0.19975 -0.23969,0.43944 -0.23969,0.71909c0,0.19975 0.03995,0.38351 0.11985,0.5513c0.0799,0.16779 0.19575,0.3156 0.34756,0.44344c0.15979,0.12784 0.37153,0.24369 0.6352,0.34756c0.27166,0.09588 0.59125,0.17977 0.95878,0.25168c0.52733,0.11985 0.99474,0.26766 1.40222,0.44344c0.41547,0.17578 0.76303,0.38351 1.04268,0.62321c0.28763,0.23969 0.50336,0.50736 0.64718,0.80299c0.15181,0.29562 0.22771,0.61522 0.22771,0.95878c0,0.63919 -0.14781,1.19448 -0.44344,1.66589c-0.29562,0.46341 -0.71509,0.82296 -1.25839,1.07863c-0.54331,0.24769 -1.19048,0.37153 -1.94153,0.37153zM316.1079,177.38249l-0.53931,-0.65916c0.36753,-0.17578 0.67115,-0.37152 0.91084,-0.58725c0.23969,-0.21572 0.35954,-0.40748 0.35954,-0.57527c0,-0.11985 -0.05194,-0.2277 -0.1558,-0.32358c-0.10387,-0.10387 -0.19975,-0.19175 -0.28763,-0.26366c-0.20773,-0.16779 -0.34755,-0.3076 -0.41947,-0.41947c-0.07191,-0.11985 -0.10786,-0.23969 -0.10786,-0.35954c0,-0.2317 0.0799,-0.41547 0.23969,-0.5513c0.16779,-0.14382 0.37951,-0.21572 0.6352,-0.21572c0.26366,0 0.50336,0.07191 0.71909,0.21572c0.21572,0.13582 0.38351,0.32359 0.50336,0.56329c0.12784,0.23969 0.19175,0.51934 0.19175,0.83894c0,0.24769 -0.05194,0.49138 -0.1558,0.73108c-0.10387,0.23969 -0.25167,0.46741 -0.44344,0.68314c-0.18376,0.20773 -0.39949,0.3915 -0.64718,0.5513c-0.24769,0.15979 -0.51534,0.28364 -0.80298,0.37153zM319.03218,177.38249l-0.53931,-0.65916c0.36753,-0.17578 0.67115,-0.37152 0.91084,-0.58725c0.23969,-0.21572 0.35954,-0.40748 0.35954,-0.57527c0,-0.11985 -0.05194,-0.2277 -0.1558,-0.32358c-0.10387,-0.10387 -0.19975,-0.19175 -0.28763,-0.26366c-0.20773,-0.16779 -0.34755,-0.3076 -0.41947,-0.41947c-0.07191,-0.11985 -0.10786,-0.23969 -0.10786,-0.35954c0,-0.2317 0.0799,-0.41547 0.23969,-0.5513c0.16779,-0.14382 0.37951,-0.21572 0.6352,-0.21572c0.26366,0 0.50336,0.07191 0.71909,0.21572c0.21572,0.13582 0.38351,0.32359 0.50336,0.56329c0.12784,0.23969 0.19175,0.51934 0.19175,0.83894c0,0.24769 -0.05194,0.49138 -0.1558,0.73108c-0.10387,0.23969 -0.25167,0.46741 -0.44344,0.68314c-0.18376,0.20773 -0.39949,0.3915 -0.64718,0.5513c-0.24769,0.15979 -0.51534,0.28364 -0.80298,0.37153zM323.27875,184.33365c-0.3116,0 -0.5553,-0.09188 -0.73107,-0.27564c-0.16779,-0.18376 -0.25167,-0.44743 -0.25167,-0.791c0,-0.31959 0.08788,-0.57927 0.26366,-0.77901c0.18376,-0.19975 0.42346,-0.29961 0.71909,-0.29961c0.31959,0 0.56329,0.09588 0.73108,0.28763c0.17578,0.18376 0.26366,0.44743 0.26366,0.791c0,0.3116 -0.09188,0.56728 -0.27564,0.76703c-0.18376,0.19975 -0.42346,0.29962 -0.71909,0.29962zM326.54139,184.33365c-0.3116,0 -0.5553,-0.09188 -0.73107,-0.27564c-0.16779,-0.18376 -0.25167,-0.44743 -0.25167,-0.791c0,-0.31959 0.08788,-0.57927 0.26366,-0.77901c0.18376,-0.19975 0.42346,-0.29961 0.71909,-0.29961c0.31959,0 0.56329,0.09588 0.73108,0.28763c0.17578,0.18376 0.26366,0.44743 0.26366,0.791c0,0.3116 -0.09188,0.56728 -0.27564,0.76703c-0.18376,0.19975 -0.42346,0.29962 -0.71909,0.29962zM329.80404,184.33365c-0.3116,0 -0.5553,-0.09188 -0.73107,-0.27564c-0.16779,-0.18376 -0.25167,-0.44743 -0.25167,-0.791c0,-0.31959 0.08788,-0.57927 0.26366,-0.77901c0.18376,-0.19975 0.42346,-0.29961 0.71909,-0.29961c0.31959,0 0.56329,0.09588 0.73108,0.28763c0.17578,0.18376 0.26366,0.44743 0.26366,0.791c0,0.3116 -0.09188,0.56728 -0.27564,0.76703c-0.18376,0.19975 -0.42346,0.29962 -0.71909,0.29962z" fill="#ffffff" fill-rule="nonzero" stroke-width="1" stroke-linecap="square"/></g></g></svg>