<svg version="1.1" xmlns="http://www.w3.org/2000/svg" xmlns:xlink="http://www.w3.org/1999/xlink" width="73.52022" height="94.37264" viewBox="0,0,73.52022,94.37264"><g transform="translate(-205.19092,-137.31686)"><g data-paper-data="{&quot;isPaintingLayer&quot;:true}" fill-rule="nonzero" stroke="none" stroke-width="0" stroke-linecap="butt" stroke-linejoin="miter" stroke-miterlimit="10" stroke-dasharray="" stroke-dashoffset="0" style="mix-blend-mode: normal"><path d="M206.00062,200.32419l1.73245,-63.00733l19.63539,27.60837v66.76427z" fill="#ffffff"/><path d="M227.5645,230.03981l-0.41562,-64.92399l50.194,-0.06766l1.36825,66.22943z" fill="#a9a9a9"/><path d="M206.12974,138.55914l42.44845,-0.04532l29.42311,27.60837l-50.50371,-1.10512z" fill="#ffffff"/><path d="M205.64532,169.9163c0.05394,-3.44509 1.77134,-6.16493 3.83593,-6.07492c2.06459,0.09001 3.69454,2.95577 3.64059,6.40087c-0.05394,3.44509 -1.77134,6.16493 -3.83593,6.07492c-2.06459,-0.09001 -3.69454,-2.95577 -3.64059,-6.40087z" fill="#000000"/><path d="M205.19222,198.85552c0.05394,-3.44509 1.77134,-6.16493 3.83593,-6.07492c2.06459,0.09001 3.69454,2.95577 3.64059,6.40087c-0.05394,3.44509 -1.77134,6.16493 -3.83593,6.07492c-2.06459,-0.09001 -3.69454,-2.95577 -3.64059,-6.40087z" fill="#000000"/><path d="M205.41878,184.38592c0.05394,-3.44509 1.77134,-6.16493 3.83593,-6.07492c2.06459,0.09001 3.69454,2.95577 3.64059,6.40087c-0.05394,3.44509 -1.77134,6.16493 -3.83593,6.07492c-2.06459,-0.09001 -3.69454,-2.95577 -3.64059,-6.40087z" fill="#000000"/><path d="M218.27672,179.83952c0.05394,-3.44509 1.77134,-6.16493 3.83593,-6.07492c2.06459,0.09001 3.69454,2.95577 3.64059,6.40087c-0.05394,3.44509 -1.77134,6.16493 -3.83593,6.07492c-2.06459,-0.09001 -3.69454,-2.95577 -3.64059,-6.40087z" fill="#000000"/><path d="M217.82363,208.77874c0.05394,-3.44509 1.77134,-6.16493 3.83593,-6.07492c2.06459,0.09001 3.69454,2.95577 3.64059,6.40087c-0.05394,3.44509 -1.77134,6.16493 -3.83593,6.07492c-2.06459,-0.09001 -3.69454,-2.95577 -3.64059,-6.40087z" fill="#000000"/><path d="M218.05018,194.30913c0.05394,-3.44509 1.77134,-6.16493 3.83593,-6.07492c2.06459,0.09001 3.69454,2.95577 3.64059,6.40087c-0.05394,3.44509 -1.77134,6.16493 -3.83593,6.07492c-2.06459,-0.09001 -3.69454,-2.95577 -3.64059,-6.40087z" fill="#000000"/><path d="M233.30209,150.84573c0,-4.10143 2.25271,-7.42629 5.03156,-7.42629c2.77886,0 5.03156,3.32486 5.03156,7.42629c0,4.10143 -2.25271,7.42629 -5.03156,7.42629c-2.77886,0 -5.03156,-3.32486 -5.03156,-7.42629z" fill="#000000"/><path d="M230.81174,174.88118c0,-4.10143 2.25271,-7.42629 5.03156,-7.42629c2.77886,0 5.03156,3.32486 5.03156,7.42629c0,4.10143 -2.25271,7.42629 -5.03156,7.42629c-2.77886,0 -5.03156,-3.32485 -5.03156,-7.42629z" fill="#000000"/><path d="M260.91092,216.3326c0,-4.10143 2.66802,-7.42629 5.95919,-7.42629c3.29118,0 5.95919,3.32486 5.95919,7.42629c0,4.10143 -2.66802,7.42629 -5.95919,7.42629c-3.29118,0 -5.95919,-3.32485 -5.95919,-7.42629z" fill="#000000"/></g></g></svg>