<svg version="1.1" xmlns="http://www.w3.org/2000/svg" xmlns:xlink="http://www.w3.org/1999/xlink" width="720" height="540" viewBox="0,0,720,540"><defs><clipPath id="clip-1"><rect x="-240" y="-180" transform="scale(0.5,0.5)" width="1440" height="1080" fill="none" fill-rule="nonzero" stroke-width="0.5" stroke-linecap="butt"/></clipPath></defs><g transform="translate(120,90)"><g clip-path="url(#clip-1)" data-paper-data="{&quot;isPaintingLayer&quot;:true}" stroke="none" stroke-linejoin="miter" stroke-miterlimit="10" stroke-dasharray="" stroke-dashoffset="0" style="mix-blend-mode: normal"><path d="M-5.25114,52.73273h503.54354v377.65766h-503.54354z" fill-opacity="0" fill="#000000" fill-rule="evenodd" stroke-width="1" stroke-linecap="square"/><path d="M2.24227,203.8426v0c0,-10.62032 8.60948,-19.22981 19.22981,-19.22981v0c5.10006,0 9.99124,2.02599 13.59753,5.63228c3.60629,3.60628 5.63228,8.49746 5.63228,13.59752v0c0,10.62034 -8.60948,19.22982 -19.22981,19.22982v0c-10.62033,0 -19.22981,-8.60948 -19.22981,-19.22982z" fill="#666666" fill-rule="evenodd" stroke-width="1" stroke-linecap="square"/><path d="M467.02605,203.8426v0c0,-10.62032 8.60948,-19.22981 19.22982,-19.22981v0c5.10006,0 9.99126,2.02599 13.59752,5.63228c3.6063,3.60628 5.6323,8.49746 5.6323,13.59752v0c0,10.62034 -8.60948,19.22982 -19.22982,19.22982v0c-10.62034,0 -19.22982,-8.60948 -19.22982,-19.22982z" fill="#666666" fill-rule="evenodd" stroke-width="1" stroke-linecap="square"/><path d="M21.22427,184.6128h463.58057v38.45963h-463.58057z" fill="#666666" fill-rule="evenodd" stroke-width="1" stroke-linecap="square"/></g></g></svg>