<svg version="1.1" xmlns="http://www.w3.org/2000/svg" xmlns:xlink="http://www.w3.org/1999/xlink" width="142.57181" height="18.6875" viewBox="0,0,142.57181,18.6875"><g transform="translate(-168.7141,-170.65625)"><g data-paper-data="{&quot;isPaintingLayer&quot;:true}" fill="#ffffff" fill-rule="nonzero" stroke="none" stroke-width="1" stroke-linecap="square" stroke-linejoin="miter" stroke-miterlimit="10" stroke-dasharray="" stroke-dashoffset="0" style="mix-blend-mode: normal"><path d="M173.63597,185.23438c-0.70834,0 -1.36459,-0.09375 -1.96875,-0.28125c-0.60416,-0.1875 -1.15104,-0.46875 -1.64062,-0.84375c-0.48959,-0.38542 -0.92709,-0.85417 -1.3125,-1.40625l1.375,-1.59375c0.61459,0.875 1.19791,1.47916 1.75,1.8125c0.5625,0.33333 1.22916,0.5 2,0.5c0.46875,0 0.89584,-0.07292 1.28125,-0.21875c0.38541,-0.15625 0.6875,-0.36459 0.90625,-0.625c0.22916,-0.26042 0.34375,-0.55729 0.34375,-0.89062c0,-0.21875 -0.03646,-0.42709 -0.10937,-0.625c-0.07291,-0.20834 -0.1875,-0.39063 -0.34375,-0.54688c-0.15625,-0.16667 -0.35416,-0.31771 -0.59375,-0.45312c-0.23959,-0.13542 -0.52084,-0.25521 -0.84375,-0.35937c-0.32291,-0.10417 -0.69791,-0.19271 -1.125,-0.26562c-0.66666,-0.14584 -1.25,-0.32812 -1.75,-0.54688c-0.5,-0.22916 -0.91666,-0.51041 -1.25,-0.84375c-0.33334,-0.33334 -0.58334,-0.71354 -0.75,-1.14062c-0.16666,-0.42709 -0.25,-0.91146 -0.25,-1.45312c0,-0.52084 0.11459,-1.00521 0.34375,-1.45312c0.23959,-0.44791 0.55729,-0.83334 0.95313,-1.15625c0.40625,-0.33334 0.88021,-0.58854 1.42188,-0.76562c0.55209,-0.1875 1.14584,-0.28125 1.78125,-0.28125c0.67709,0 1.29166,0.08854 1.84375,0.26563c0.5625,0.17709 1.0625,0.4375 1.5,0.78125c0.4375,0.33334 0.79688,0.75 1.07813,1.25l-1.42187,1.40625c-0.23959,-0.41666 -0.51562,-0.76041 -0.82812,-1.03125c-0.3125,-0.28125 -0.65625,-0.49479 -1.03125,-0.64062c-0.375,-0.14584 -0.77084,-0.21875 -1.1875,-0.21875c-0.48959,0 -0.91666,0.07813 -1.28125,0.23438c-0.35416,0.14584 -0.63541,0.35416 -0.84375,0.625c-0.20834,0.26041 -0.3125,0.57291 -0.3125,0.9375c0,0.26041 0.05209,0.5 0.15625,0.71875c0.10416,0.21875 0.25521,0.41146 0.45313,0.57813c0.20834,0.16666 0.48438,0.31771 0.82813,0.45313c0.35416,0.125 0.77084,0.23438 1.25,0.32813c0.6875,0.15625 1.29688,0.34896 1.82813,0.57813c0.54166,0.22916 0.99479,0.5 1.35938,0.8125c0.375,0.3125 0.65625,0.66146 0.84375,1.04688c0.19791,0.38541 0.29688,0.80208 0.29688,1.25c0,0.83333 -0.19271,1.55729 -0.57812,2.17188c-0.38541,0.60416 -0.93229,1.07291 -1.64062,1.40625c-0.70834,0.32291 -1.55209,0.48438 -2.53125,0.48438zM180.76186,185.04688v-13.8125h1.92188v6.03125l-0.34375,0.21875c0.125,-0.42709 0.36979,-0.82291 0.73438,-1.1875c0.36458,-0.375 0.79166,-0.67709 1.28125,-0.90625c0.5,-0.22916 1.01041,-0.34375 1.53125,-0.34375c0.75,0 1.36979,0.14584 1.85938,0.4375c0.5,0.29166 0.875,0.73959 1.125,1.34375c0.25,0.59375 0.375,1.34375 0.375,2.25v5.96875h-1.92187v-5.84375c0,-0.55209 -0.07292,-1.01042 -0.21875,-1.375c-0.14584,-0.375 -0.375,-0.64584 -0.6875,-0.8125c-0.3125,-0.16666 -0.69792,-0.23959 -1.15625,-0.21875c-0.375,0 -0.71875,0.0625 -1.03125,0.1875c-0.3125,0.11459 -0.58334,0.28125 -0.8125,0.5c-0.22917,0.20834 -0.41146,0.45313 -0.54687,0.73438c-0.125,0.27084 -0.1875,0.56771 -0.1875,0.89063v5.9375h-0.95312c-0.15625,0 -0.31771,0 -0.48437,0c-0.16667,0 -0.32812,0 -0.48437,0zM195.29982,185.23438c-0.69792,0 -1.30729,-0.16146 -1.82812,-0.48437c-0.51042,-0.32292 -0.90625,-0.77604 -1.1875,-1.35937c-0.28125,-0.58334 -0.42187,-1.28125 -0.42187,-2.09375v-6.04688h1.92188v5.53125c0,0.5625 0.08854,1.05208 0.26563,1.46875c0.1875,0.41666 0.44792,0.73958 0.78125,0.96875c0.34375,0.21875 0.76042,0.32813 1.25,0.32813c0.35417,0 0.68229,-0.05729 0.98438,-0.17187c0.30208,-0.11459 0.5625,-0.27604 0.78125,-0.48437c0.21875,-0.21875 0.38542,-0.47396 0.5,-0.76562c0.125,-0.30209 0.1875,-0.63021 0.1875,-0.98437v-5.89063h1.92188v9.79688h-1.92187v-2.04687l0.34375,-0.23437c-0.14583,0.46875 -0.39583,0.89063 -0.75,1.26563c-0.35417,0.36458 -0.77604,0.65625 -1.26562,0.875c-0.48958,0.21875 -1.01042,0.32813 -1.5625,0.32813zM204.3681,185.04688v-12.29688h1.92188v12.29688zM202.32123,177.125v-1.875h6.23438v1.875zM211.53211,185.04688v-12.29688h1.92188v12.29688zM209.48523,177.125v-1.875h6.23438v1.875zM217.78986,185.04688v-9.79688h1.92188v9.79688zM218.72736,173.09375c-0.40625,0 -0.72396,-0.10416 -0.95312,-0.3125c-0.21875,-0.21875 -0.32812,-0.52084 -0.32812,-0.90625c0,-0.36459 0.11459,-0.65625 0.34375,-0.875c0.22917,-0.22916 0.54167,-0.34375 0.9375,-0.34375c0.40625,0 0.71875,0.10938 0.9375,0.32813c0.22917,0.20834 0.34375,0.50521 0.34375,0.89063c0,0.36459 -0.11458,0.66146 -0.34375,0.89063c-0.22916,0.21875 -0.54166,0.32813 -0.9375,0.32813zM222.66379,185.04688v-9.79688h1.92188v2.01563l-0.34375,0.21875c0.125,-0.42709 0.36979,-0.82291 0.73438,-1.1875c0.36458,-0.375 0.79166,-0.67709 1.28125,-0.90625c0.5,-0.22916 1.01041,-0.34375 1.53125,-0.34375c0.75,0 1.36979,0.14584 1.85938,0.4375c0.5,0.29166 0.875,0.73959 1.125,1.34375c0.25,0.59375 0.375,1.34375 0.375,2.25v5.96875h-1.92187v-5.84375c0,-0.55209 -0.07292,-1.01042 -0.21875,-1.375c-0.14583,-0.375 -0.375,-0.64584 -0.6875,-0.8125c-0.3125,-0.16666 -0.69792,-0.23959 -1.15625,-0.21875c-0.375,0 -0.71875,0.0625 -1.03125,0.1875c-0.3125,0.11459 -0.58334,0.28125 -0.8125,0.5c-0.22917,0.20834 -0.41146,0.45313 -0.54687,0.73438c-0.125,0.27084 -0.1875,0.56771 -0.1875,0.89063v5.9375h-0.95312c-0.15625,0 -0.31771,0 -0.48437,0c-0.16667,0 -0.32812,0 -0.48437,0zM238.15488,189.34375c-0.69792,0 -1.39583,-0.10937 -2.09375,-0.32812c-0.6875,-0.21875 -1.23958,-0.50521 -1.65625,-0.85937l0.70313,-1.48437c0.25,0.1875 0.54167,0.34896 0.875,0.48437c0.33333,0.14584 0.6875,0.26042 1.0625,0.34375c0.375,0.08334 0.74479,0.125 1.10938,0.125c0.67708,0 1.24479,-0.11458 1.70313,-0.34375c0.46875,-0.21875 0.81771,-0.54687 1.04688,-0.98437c0.23958,-0.4375 0.35938,-0.97917 0.35938,-1.625v-1.875l0.20313,0.125c-0.0625,0.38541 -0.26562,0.75521 -0.60937,1.10938c-0.34375,0.35416 -0.77083,0.64583 -1.28125,0.875c-0.5,0.21875 -1.02083,0.32813 -1.5625,0.32813c-0.92708,0 -1.75521,-0.21875 -2.48437,-0.65625c-0.72917,-0.44792 -1.30729,-1.05209 -1.73437,-1.8125c-0.41667,-0.77084 -0.625,-1.64584 -0.625,-2.625c0,-0.97917 0.20833,-1.84896 0.625,-2.60938c0.41667,-0.77084 0.98438,-1.375 1.70313,-1.8125c0.72917,-0.44791 1.55208,-0.67187 2.46875,-0.67187c0.36458,0 0.71875,0.04688 1.0625,0.14063c0.35417,0.09375 0.68229,0.22396 0.98438,0.39063c0.30208,0.16666 0.56771,0.34896 0.79688,0.54688c0.23958,0.19791 0.43229,0.41146 0.57813,0.64063c0.15625,0.21875 0.25,0.42709 0.28125,0.625l-0.40625,0.15625v-2.29687h1.92188v9.20313c0,0.78125 -0.11458,1.47396 -0.34375,2.07813c-0.22917,0.60416 -0.5625,1.11458 -1,1.53125c-0.4375,0.41667 -0.96875,0.73438 -1.59375,0.95313c-0.61458,0.21875 -1.3125,0.32813 -2.09375,0.32813zM238.21738,183.46875c0.61458,0 1.15625,-0.14062 1.625,-0.42187c0.47917,-0.29167 0.84896,-0.6875 1.10938,-1.1875c0.26042,-0.5 0.39063,-1.07292 0.39063,-1.71875c0,-0.64584 -0.13542,-1.21875 -0.40625,-1.71875c-0.27083,-0.51041 -0.64062,-0.90625 -1.10937,-1.1875c-0.45833,-0.29166 -0.99479,-0.4375 -1.60937,-0.4375c-0.59375,0 -1.125,0.14584 -1.59375,0.4375c-0.46875,0.29166 -0.83854,0.69271 -1.10937,1.20313c-0.26042,0.5 -0.39062,1.06771 -0.39062,1.70313c0,0.63541 0.13021,1.20833 0.39063,1.71875c0.27083,0.5 0.64063,0.89583 1.10938,1.1875c0.46875,0.28125 1,0.42188 1.59375,0.42188zM251.58029,185.04688v-13.0625h5.10936c0.9375,0 1.78125,0.15625 2.53125,0.46875c0.75,0.3125 1.39063,0.76041 1.92188,1.34375c0.54166,0.58334 0.95313,1.27604 1.23438,2.07813c0.29166,0.79166 0.4375,1.67188 0.4375,2.64063c0,0.96875 -0.14584,1.85416 -0.4375,2.65625c-0.28125,0.80208 -0.6875,1.49479 -1.21875,2.07813c-0.53125,0.57291 -1.17709,1.01563 -1.9375,1.32813c-0.75,0.3125 -1.59375,0.46875 -2.53125,0.46875zM253.59592,183.3125l-0.0625,-0.20312h3.06249c0.65625,0 1.24479,-0.10417 1.76563,-0.3125c0.52083,-0.21875 0.95833,-0.52084 1.3125,-0.90625c0.35416,-0.39584 0.61979,-0.88021 0.79688,-1.45313c0.1875,-0.57292 0.28125,-1.21354 0.28125,-1.92188c0,-0.70834 -0.09375,-1.34375 -0.28125,-1.90625c-0.17709,-0.57291 -0.44792,-1.05729 -0.8125,-1.45312c-0.36459,-0.39584 -0.80209,-0.69791 -1.3125,-0.90625c-0.51042,-0.21875 -1.09375,-0.32812 -1.75,-0.32812h-3.10936l0.10938,-0.15625zM269.45705,185.23438c-0.95833,0 -1.81771,-0.21875 -2.57812,-0.65625c-0.75,-0.44792 -1.34375,-1.05209 -1.78125,-1.8125c-0.42708,-0.77084 -0.64062,-1.64584 -0.64062,-2.625c0,-0.97917 0.21354,-1.84896 0.64063,-2.60938c0.4375,-0.77084 1.03125,-1.375 1.78125,-1.8125c0.76042,-0.44791 1.61979,-0.67187 2.57813,-0.67187c0.9375,0 1.78125,0.22396 2.53125,0.67188c0.76042,0.4375 1.35938,1.04166 1.79688,1.8125c0.4375,0.76041 0.65625,1.63021 0.65625,2.60938c0,0.97916 -0.21875,1.85416 -0.65625,2.625c-0.4375,0.76041 -1.03646,1.36458 -1.79687,1.8125c-0.75,0.4375 -1.59375,0.65625 -2.53125,0.65625zM269.45705,183.48438c0.58334,0 1.10417,-0.14584 1.5625,-0.4375c0.45834,-0.29167 0.81771,-0.6875 1.07813,-1.1875c0.26042,-0.51042 0.38542,-1.08334 0.375,-1.71875c0.01042,-0.64584 -0.11458,-1.21875 -0.375,-1.71875c-0.26041,-0.51041 -0.61979,-0.90625 -1.07812,-1.1875c-0.45833,-0.29166 -0.97916,-0.4375 -1.5625,-0.4375c-0.58333,0 -1.10937,0.14584 -1.57812,0.4375c-0.46875,0.29166 -0.83333,0.69271 -1.09375,1.20313c-0.26041,0.5 -0.38541,1.06771 -0.375,1.70313c-0.01041,0.63541 0.11459,1.20833 0.375,1.71875c0.26042,0.5 0.625,0.89583 1.09375,1.1875c0.46875,0.29166 0.99479,0.4375 1.57813,0.4375zM278.5573,185.04688l-3.34375,-9.79688l1.9375,-0.01562l2.39063,7.32813l-0.42187,-0.03125l2.59375,-5.73438h1.15625l2.60938,5.75l-0.5,0.03125l2.40625,-7.32813h1.9375l-3.29687,9.79688h-1.32812l-2.73437,-6.23438l0.4375,0.0625l-2.53125,6.17188zM291.07607,185.04688v-9.79688h1.92188v2.01563l-0.34375,0.21875c0.125,-0.42709 0.36979,-0.82291 0.73438,-1.1875c0.36458,-0.375 0.79166,-0.67709 1.28125,-0.90625c0.5,-0.22916 1.01041,-0.34375 1.53125,-0.34375c0.75,0 1.36979,0.14584 1.85938,0.4375c0.5,0.29166 0.875,0.73959 1.125,1.34375c0.25,0.59375 0.375,1.34375 0.375,2.25v5.96875h-1.92187v-5.84375c0,-0.55209 -0.07292,-1.01042 -0.21875,-1.375c-0.14584,-0.375 -0.375,-0.64584 -0.6875,-0.8125c-0.3125,-0.16666 -0.69792,-0.23959 -1.15625,-0.21875c-0.375,0 -0.71875,0.0625 -1.03125,0.1875c-0.3125,0.11459 -0.58334,0.28125 -0.8125,0.5c-0.22917,0.20834 -0.41146,0.45313 -0.54687,0.73438c-0.125,0.27084 -0.1875,0.56771 -0.1875,0.89063v5.9375h-0.95312c-0.15625,0 -0.31771,0 -0.48437,0c-0.16667,0 -0.32812,0 -0.48437,0zM302.95778,185.25c-0.40625,0 -0.72396,-0.11979 -0.95312,-0.35937c-0.21875,-0.23959 -0.32812,-0.58334 -0.32812,-1.03125c0,-0.41667 0.11458,-0.75521 0.34375,-1.01562c0.23958,-0.26042 0.55208,-0.39062 0.9375,-0.39062c0.41666,0 0.73438,0.125 0.95313,0.375c0.22916,0.23958 0.34375,0.58333 0.34375,1.03125c0,0.40625 -0.11979,0.73958 -0.35937,1c-0.23959,0.26041 -0.55209,0.39063 -0.9375,0.39063zM306.45778,185.25c-0.40625,0 -0.72396,-0.11979 -0.95312,-0.35937c-0.21875,-0.23959 -0.32812,-0.58334 -0.32812,-1.03125c0,-0.41667 0.11458,-0.75521 0.34375,-1.01562c0.23958,-0.26042 0.55208,-0.39062 0.9375,-0.39062c0.41666,0 0.73438,0.125 0.95313,0.375c0.22916,0.23958 0.34375,0.58333 0.34375,1.03125c0,0.40625 -0.11979,0.73958 -0.35937,1c-0.23959,0.26041 -0.55209,0.39063 -0.9375,0.39063zM309.98903,185.25c-0.40625,0 -0.72396,-0.11979 -0.95312,-0.35937c-0.21875,-0.23959 -0.32812,-0.58334 -0.32812,-1.03125c0,-0.41667 0.11458,-0.75521 0.34375,-1.01562c0.23958,-0.26042 0.55208,-0.39062 0.9375,-0.39062c0.41666,0 0.73438,0.125 0.95313,0.375c0.22916,0.23958 0.34375,0.58333 0.34375,1.03125c0,0.40625 -0.11979,0.73958 -0.35937,1c-0.23959,0.26041 -0.55209,0.39063 -0.9375,0.39063z"/></g></g></svg>