<svg version="1.1" xmlns="http://www.w3.org/2000/svg" xmlns:xlink="http://www.w3.org/1999/xlink" width="50.24988" height="25.00346" viewBox="0,0,50.24988,25.00346"><g transform="translate(-374.15288,-144.42423)"><g data-paper-data="{&quot;isPaintingLayer&quot;:true}" stroke="none" stroke-width="1" stroke-linecap="square" stroke-linejoin="miter" stroke-miterlimit="10" stroke-dasharray="" stroke-dashoffset="0" style="mix-blend-mode: normal"><path d="M374.15289,145.96969c0,-0.85354 0.9588,-1.54546 2.14153,-1.54546h45.96682c0.56797,0 1.11268,0.16283 1.51429,0.45266c0.40162,0.28983 0.62724,0.68293 0.62724,1.09281v21.91253c0,0.85354 -0.9588,1.54546 -2.14153,1.54546h-45.96682c-1.18274,0 -2.14153,-0.69193 -2.14153,-1.54546z" fill-opacity="0.84677" fill="#3c3c3c" fill-rule="evenodd"/><path d="M381.9557,163.013c-0.90625,0 -1.73958,-0.16146 -2.5,-0.48437c-0.76042,-0.32292 -1.42187,-0.78646 -1.98437,-1.39062c-0.55208,-0.60417 -0.98437,-1.31771 -1.29687,-2.14063c-0.30208,-0.82292 -0.45312,-1.72396 -0.45312,-2.70312c0,-0.92709 0.16667,-1.79167 0.5,-2.59375c0.33333,-0.80208 0.79167,-1.50521 1.375,-2.10937c0.58333,-0.61458 1.26042,-1.08854 2.03125,-1.42187c0.77083,-0.34375 1.60417,-0.51562 2.5,-0.51562c0.63542,0 1.25521,0.09896 1.85938,0.29688c0.60417,0.1875 1.15104,0.45313 1.64063,0.79688c0.48958,0.34375 0.89063,0.73438 1.20313,1.17188l-1.34375,1.39063c-0.36458,-0.36458 -0.72917,-0.66667 -1.09375,-0.90625c-0.36458,-0.23958 -0.73958,-0.42187 -1.125,-0.54687c-0.375,-0.125 -0.75521,-0.1875 -1.14062,-0.1875c-0.61458,0 -1.1875,0.11458 -1.71875,0.34375c-0.52083,0.22917 -0.97917,0.55208 -1.375,0.96875c-0.38542,0.40625 -0.69271,0.89583 -0.92187,1.46875c-0.21875,0.5625 -0.32812,1.17708 -0.32812,1.84375c0,0.70833 0.10417,1.35416 0.3125,1.9375c0.21875,0.57291 0.52604,1.06771 0.92188,1.48438c0.40625,0.40625 0.88542,0.71875 1.4375,0.9375c0.55208,0.21875 1.16667,0.32813 1.84375,0.32813c0.40625,0 0.80729,-0.05729 1.20313,-0.17187c0.39583,-0.11459 0.76563,-0.27604 1.10938,-0.48437c0.35417,-0.20834 0.67708,-0.45834 0.96875,-0.75l1,1.64063c-0.28125,0.34375 -0.67187,0.65104 -1.17187,0.92188c-0.48958,0.27083 -1.03646,0.48438 -1.64062,0.64063c-0.59375,0.15625 -1.19792,0.23438 -1.8125,0.23438zM388.87331,162.8255v-13.8125h1.92188v13.8125zM397.90065,163.013c-1,0 -1.89062,-0.21354 -2.67187,-0.64062c-0.77083,-0.42709 -1.38021,-1.01562 -1.82812,-1.76563c-0.4375,-0.75 -0.65625,-1.60937 -0.65625,-2.57812c0,-0.77084 0.125,-1.47396 0.375,-2.10938c0.25,-0.63542 0.59375,-1.18229 1.03125,-1.64062c0.4375,-0.46875 0.96354,-0.82812 1.57813,-1.07812c0.625,-0.26042 1.29688,-0.39062 2.01563,-0.39062c0.63542,0 1.22396,0.11979 1.76563,0.35938c0.55208,0.23958 1.02604,0.57292 1.42188,1c0.40625,0.42708 0.71875,0.93229 0.9375,1.51563c0.21875,0.57291 0.32292,1.19791 0.3125,1.875l-0.01562,0.82813h-8l-0.4375,-1.53125h6.76563l-0.26562,0.3125v-0.4375c-0.04167,-0.41667 -0.18229,-0.78646 -0.42187,-1.10938c-0.22917,-0.32292 -0.52604,-0.57812 -0.89062,-0.76562c-0.36458,-0.1875 -0.75521,-0.28125 -1.17187,-0.28125c-0.67708,0 -1.24479,0.13021 -1.70312,0.39063c-0.45833,0.25 -0.80729,0.625 -1.04687,1.125c-0.22917,0.48958 -0.34375,1.09375 -0.34375,1.8125c0,0.67708 0.14063,1.27083 0.42188,1.78125c0.28125,0.5 0.68229,0.89063 1.20313,1.17188c0.53125,0.27083 1.13542,0.40625 1.8125,0.40625c0.48958,0 0.94271,-0.07812 1.35938,-0.23437c0.41667,-0.16667 0.86979,-0.46354 1.35938,-0.89063l0.96875,1.35938c-0.30208,0.30208 -0.66667,0.56771 -1.09375,0.79688c-0.42708,0.21875 -0.88021,0.39583 -1.35937,0.53125c-0.47917,0.125 -0.95312,0.1875 -1.42187,0.1875zM408.03633,163.013c-0.80208,0 -1.53646,-0.22396 -2.20312,-0.67187c-0.66667,-0.44792 -1.20312,-1.05729 -1.60937,-1.82813c-0.39583,-0.77084 -0.59375,-1.64062 -0.59375,-2.60937c0,-0.98959 0.20313,-1.86459 0.60938,-2.625c0.40625,-0.76042 0.95313,-1.35937 1.64063,-1.79687c0.69792,-0.4375 1.47396,-0.65625 2.32813,-0.65625c0.51042,0 0.97396,0.07813 1.39063,0.23438c0.42708,0.14583 0.79688,0.35417 1.10938,0.625c0.32292,0.26042 0.58333,0.56771 0.78125,0.92188c0.20833,0.34375 0.33854,0.71354 0.39063,1.10938l-0.42187,-0.14062v-2.54687h1.9375v9.79688h-1.9375v-2.32813l0.4375,-0.14062c-0.07292,0.34375 -0.22396,0.67708 -0.45312,1c-0.22917,0.3125 -0.52083,0.59375 -0.875,0.84375c-0.35417,0.23958 -0.74479,0.4375 -1.17187,0.59375c-0.42708,0.14583 -0.88021,0.21875 -1.35937,0.21875zM408.53633,161.24738c0.59375,0 1.10938,-0.14062 1.54688,-0.42188c0.44792,-0.29167 0.79688,-0.6875 1.04688,-1.1875c0.26042,-0.51042 0.39063,-1.08854 0.39063,-1.73437c0,-0.63542 -0.13021,-1.20312 -0.39062,-1.70312c-0.25,-0.5 -0.59896,-0.89063 -1.04687,-1.17188c-0.4375,-0.29167 -0.95312,-0.4375 -1.54687,-0.4375c-0.57292,0 -1.07812,0.14583 -1.51562,0.4375c-0.4375,0.28125 -0.78646,0.67188 -1.04687,1.17188c-0.25,0.5 -0.375,1.06771 -0.375,1.70313c0,0.64583 0.125,1.22396 0.375,1.73438c0.26042,0.5 0.60938,0.89583 1.04688,1.1875c0.4375,0.28125 0.94271,0.42188 1.51563,0.42188zM416.08009,162.8255v-9.79688h1.9375v3.07813l-0.1875,-0.75c0.13542,-0.46875 0.36979,-0.89583 0.70313,-1.28125c0.33333,-0.38542 0.71354,-0.6875 1.14063,-0.90625c0.42708,-0.22917 0.86979,-0.34375 1.32813,-0.34375c0.20833,0 0.40625,0.02083 0.59375,0.0625c0.19792,0.03125 0.35417,0.07292 0.46875,0.125l-0.5,2.09375c-0.14583,-0.0625 -0.3125,-0.11458 -0.5,-0.15625c-0.17708,-0.05208 -0.35417,-0.07812 -0.53125,-0.07812c-0.33333,0 -0.65104,0.06771 -0.95312,0.20313c-0.30208,0.125 -0.57292,0.30729 -0.8125,0.54688c-0.22917,0.22917 -0.41146,0.49479 -0.54687,0.79688c-0.13542,0.30208 -0.20312,0.63541 -0.20312,1v5.40625z" fill="#ffffff" fill-rule="nonzero"/></g></g></svg>