<svg version="1.1" xmlns="http://www.w3.org/2000/svg" xmlns:xlink="http://www.w3.org/1999/xlink" width="152.03298" height="66.62658" viewBox="0,0,152.03298,66.62658"><g transform="translate(-163.98352,-146.68671)"><g data-paper-data="{&quot;isPaintingLayer&quot;:true}" stroke="none" stroke-width="1" stroke-linejoin="miter" stroke-miterlimit="10" stroke-dasharray="" stroke-dashoffset="0" style="mix-blend-mode: normal"><path d="M163.98352,157.79136v0c0,-6.13293 4.97172,-11.10465 11.10466,-11.10465h129.82367c2.94513,0 5.76965,1.16995 7.85218,3.25248c2.08251,2.08253 3.25247,4.90704 3.25247,7.85217v44.41727c0,6.13293 -4.97173,11.10466 -11.10465,11.10466h-129.82367c-6.13294,0 -11.10466,-4.97173 -11.10466,-11.10466z" fill="#f9f9f9" fill-rule="evenodd" stroke-linecap="square"/><path d="M174.08264,169.76023h109.05437v23.70129h-109.05437z" fill-opacity="0" fill="#000000" fill-rule="evenodd" stroke-linecap="square"/><path d="M172.43843,182.56058v-7.36862h1.13702v6.27567h3.45514v1.09295zM180.7441,182.66635c-0.5406,0 -1.02538,-0.1234 -1.45433,-0.37019c-0.42308,-0.25267 -0.75802,-0.59349 -1.00481,-1.02244c-0.24092,-0.43483 -0.36138,-0.92842 -0.36138,-1.48078c0,-0.55235 0.12046,-1.04301 0.36138,-1.47196c0.2468,-0.43483 0.58173,-0.77564 1.00481,-1.02244c0.42895,-0.25267 0.91373,-0.37901 1.45433,-0.37901c0.52885,0 1.00481,0.12634 1.42789,0.37901c0.42895,0.2468 0.76683,0.58761 1.01363,1.02244c0.2468,0.42895 0.37019,0.91961 0.37019,1.47196c0,0.55235 -0.1234,1.04594 -0.37019,1.48078c-0.2468,0.42895 -0.58467,0.76977 -1.01363,1.02244c-0.42308,0.2468 -0.89904,0.37019 -1.42789,0.37019zM180.7441,181.67917c0.32906,0 0.62287,-0.08227 0.88141,-0.2468c0.25855,-0.16453 0.46127,-0.38782 0.60818,-0.66987c0.1469,-0.28793 0.21741,-0.61111 0.21154,-0.96956c0.00588,-0.36432 -0.06464,-0.6875 -0.21154,-0.96956c-0.1469,-0.28793 -0.34963,-0.51122 -0.60818,-0.66987c-0.25855,-0.16453 -0.55235,-0.2468 -0.88141,-0.2468c-0.32906,0 -0.6258,0.08227 -0.89023,0.2468c-0.26442,0.16453 -0.47009,0.39076 -0.61699,0.67869c-0.1469,0.28205 -0.21741,0.6023 -0.21154,0.96074c-0.00588,0.35844 0.06464,0.68163 0.21154,0.96956c0.1469,0.28205 0.35257,0.50535 0.61699,0.66987c0.26442,0.16453 0.56117,0.2468 0.89023,0.2468zM186.85504,182.66635c-0.45246,0 -0.86672,-0.12634 -1.24279,-0.37901c-0.37607,-0.25267 -0.67869,-0.59642 -0.90786,-1.03125c-0.22329,-0.43483 -0.33494,-0.92548 -0.33494,-1.47196c0,-0.55823 0.11458,-1.05182 0.34375,-1.48078c0.22917,-0.42895 0.53766,-0.76683 0.92548,-1.01363c0.3937,-0.2468 0.83147,-0.37019 1.31331,-0.37019c0.28793,0 0.54942,0.04407 0.78446,0.13221c0.24092,0.08227 0.44952,0.19979 0.6258,0.35257c0.18216,0.1469 0.32906,0.32025 0.44071,0.52003c0.11752,0.19391 0.19097,0.40251 0.22035,0.6258l-0.23798,-0.07933v-1.43671h1.09295v5.52647h-1.09295v-1.31331l0.2468,-0.07933c-0.04113,0.19391 -0.12634,0.38195 -0.25561,0.56411c-0.12927,0.17628 -0.29381,0.33494 -0.49359,0.47596c-0.19979,0.13515 -0.42014,0.2468 -0.66106,0.33494c-0.24092,0.08227 -0.49653,0.1234 -0.76683,0.1234zM187.13709,181.67035c0.33494,0 0.6258,-0.07933 0.8726,-0.23798c0.25267,-0.16453 0.44952,-0.38782 0.59055,-0.66987c0.1469,-0.28793 0.22035,-0.61405 0.22035,-0.97837c0,-0.35844 -0.07345,-0.67869 -0.22035,-0.96074c-0.14103,-0.28205 -0.33788,-0.50241 -0.59055,-0.66106c-0.2468,-0.16453 -0.53766,-0.2468 -0.8726,-0.2468c-0.32318,0 -0.60818,0.08227 -0.85497,0.2468c-0.2468,0.15865 -0.44365,0.37901 -0.59055,0.66106c-0.14103,0.28205 -0.21154,0.6023 -0.21154,0.96074c0,0.36432 0.07051,0.69044 0.21154,0.97837c0.1469,0.28205 0.34375,0.50535 0.59055,0.66987c0.2468,0.15865 0.53179,0.23798 0.85497,0.23798zM193.69305,182.66635c-0.50535,0 -0.95487,-0.1234 -1.34856,-0.37019c-0.3937,-0.25267 -0.70807,-0.59349 -0.94311,-1.02244c-0.22917,-0.43483 -0.34375,-0.92842 -0.34375,-1.48078c0,-0.55235 0.11164,-1.04301 0.33494,-1.47196c0.22917,-0.43483 0.5406,-0.77564 0.9343,-1.02244c0.3937,-0.25267 0.84028,-0.37901 1.33975,-0.37901c0.2703,0 0.53472,0.04407 0.79327,0.13221c0.25855,0.08814 0.48772,0.2086 0.6875,0.36138c0.20566,0.1469 0.36432,0.31143 0.47596,0.49359c0.11752,0.17628 0.17628,0.3555 0.17628,0.53766l-0.31731,0.02644v-3.70194h1.08414v7.7917h-1.08414v-1.31331h0.21154c0,0.16453 -0.05582,0.332 -0.16747,0.50241c-0.11164,0.16453 -0.26149,0.31731 -0.44952,0.45834c-0.18216,0.13515 -0.39664,0.2468 -0.64343,0.33494c-0.24092,0.08227 -0.48772,0.1234 -0.74039,0.1234zM193.8429,181.73205c0.32906,0 0.61993,-0.0852 0.8726,-0.25561c0.25267,-0.17041 0.44952,-0.39958 0.59055,-0.6875c0.1469,-0.29381 0.22035,-0.6258 0.22035,-0.996c0,-0.37019 -0.07345,-0.69926 -0.22035,-0.98718c-0.14103,-0.29381 -0.33788,-0.52591 -0.59055,-0.69632c-0.25267,-0.17041 -0.54354,-0.25561 -0.8726,-0.25561c-0.32906,0 -0.61993,0.0852 -0.8726,0.25561c-0.25267,0.17041 -0.45246,0.40251 -0.59936,0.69632c-0.14103,0.28793 -0.21154,0.61699 -0.21154,0.98718c0,0.37019 0.07051,0.70219 0.21154,0.996c0.1469,0.28793 0.34669,0.5171 0.59936,0.6875c0.25267,0.17041 0.54354,0.25561 0.8726,0.25561zM198.24112,182.56058v-5.52647h1.08414v5.52647zM198.76997,175.81776c-0.22917,0 -0.40839,-0.05876 -0.53766,-0.17628c-0.1234,-0.1234 -0.1851,-0.29381 -0.1851,-0.51122c0,-0.20566 0.06464,-0.37019 0.19391,-0.49359c0.12927,-0.12927 0.30556,-0.19391 0.52885,-0.19391c0.22917,0 0.40545,0.0617 0.52885,0.1851c0.12927,0.11752 0.19391,0.28499 0.19391,0.50241c0,0.20566 -0.06464,0.37313 -0.19391,0.50241c-0.12927,0.1234 -0.30556,0.1851 -0.52885,0.1851zM200.99053,182.56058v-5.52647h1.08414v1.13702l-0.19391,0.1234c0.07051,-0.24092 0.2086,-0.46421 0.41426,-0.66987c0.20566,-0.21154 0.44658,-0.38195 0.72276,-0.51122c0.28205,-0.12927 0.56998,-0.19391 0.86379,-0.19391c0.42308,0 0.77271,0.08227 1.04888,0.2468c0.28205,0.16453 0.49359,0.4172 0.63462,0.75802c0.14103,0.33494 0.21154,0.75802 0.21154,1.26924v3.367h-1.08414v-3.29649c0,-0.31143 -0.04113,-0.56998 -0.1234,-0.77564c-0.08227,-0.21154 -0.21154,-0.36432 -0.38782,-0.45834c-0.17628,-0.09402 -0.3937,-0.13515 -0.65225,-0.1234c-0.21154,0 -0.40545,0.03526 -0.58173,0.10577c-0.17628,0.06464 -0.32906,0.15865 -0.45834,0.28205c-0.12927,0.11752 -0.23211,0.25561 -0.30849,0.41426c-0.07051,0.15278 -0.10577,0.32025 -0.10577,0.50241v3.34937h-0.53766c-0.08814,0 -0.17922,0 -0.27324,0c-0.09402,0 -0.1851,0 -0.27324,0zM209.72913,184.98447c-0.3937,0 -0.7874,-0.0617 -1.18109,-0.1851c-0.38782,-0.1234 -0.69926,-0.28499 -0.9343,-0.48478l0.39664,-0.83734c0.14103,0.10577 0.30556,0.19685 0.49359,0.27324c0.18804,0.08227 0.38782,0.1469 0.59936,0.19391c0.21154,0.04701 0.42014,0.07051 0.6258,0.07051c0.38195,0 0.70219,-0.06464 0.96074,-0.19391c0.26442,-0.1234 0.46127,-0.30849 0.59055,-0.55529c0.13515,-0.2468 0.20273,-0.55235 0.20273,-0.91667v-1.0577l0.11458,0.07051c-0.03526,0.21741 -0.14984,0.42602 -0.34375,0.6258c-0.19391,0.19979 -0.43483,0.36432 -0.72276,0.49359c-0.28205,0.1234 -0.57586,0.1851 -0.88141,0.1851c-0.52297,0 -0.99012,-0.1234 -1.40145,-0.37019c-0.41133,-0.25267 -0.73745,-0.59349 -0.97837,-1.02244c-0.23504,-0.43483 -0.35257,-0.92842 -0.35257,-1.48078c0,-0.55235 0.11752,-1.04301 0.35257,-1.47196c0.23504,-0.43483 0.55529,-0.77564 0.96074,-1.02244c0.41133,-0.25267 0.87554,-0.37901 1.39263,-0.37901c0.20566,0 0.40545,0.02644 0.59936,0.07933c0.19979,0.05288 0.38488,0.12634 0.55529,0.22035c0.17041,0.09402 0.32025,0.19685 0.44952,0.30849c0.13515,0.11164 0.24386,0.23211 0.32612,0.36138c0.08814,0.1234 0.14103,0.24092 0.15865,0.35257l-0.22917,0.08814v-1.29568h1.08414v5.19153c0,0.44071 -0.06464,0.83147 -0.19391,1.17228c-0.12927,0.34081 -0.31731,0.62874 -0.56411,0.86379c-0.2468,0.23504 -0.54648,0.41426 -0.89904,0.53766c-0.34669,0.1234 -0.74039,0.1851 -1.18109,0.1851zM209.76438,181.67035c0.34669,0 0.65225,-0.07933 0.91667,-0.23798c0.2703,-0.16453 0.4789,-0.38782 0.6258,-0.66987c0.1469,-0.28205 0.22035,-0.60524 0.22035,-0.96956c0,-0.36432 -0.07639,-0.6875 -0.22917,-0.96956c-0.15278,-0.28793 -0.36138,-0.51122 -0.6258,-0.66987c-0.25855,-0.16453 -0.56117,-0.2468 -0.90786,-0.2468c-0.33494,0 -0.63462,0.08227 -0.89904,0.2468c-0.26442,0.16453 -0.47302,0.39076 -0.6258,0.67869c-0.1469,0.28205 -0.22035,0.6023 -0.22035,0.96074c0,0.35844 0.07345,0.68163 0.22035,0.96956c0.15278,0.28205 0.36138,0.50535 0.6258,0.66987c0.26442,0.15865 0.56411,0.23798 0.89904,0.23798zM220.16707,182.62228c-0.56998,0 -1.0812,-0.1234 -1.53366,-0.37019c-0.44658,-0.25267 -0.79915,-0.59642 -1.0577,-1.03125c-0.25267,-0.44071 -0.37901,-0.93724 -0.37901,-1.48959v-4.5481h1.13702v4.45114c0,0.35844 0.08227,0.68163 0.2468,0.96956c0.17041,0.28205 0.3937,0.50828 0.66987,0.67869c0.28205,0.16453 0.58761,0.2468 0.91667,0.2468c0.34669,0 0.66106,-0.08227 0.94311,-0.2468c0.28793,-0.17041 0.5171,-0.39664 0.6875,-0.67869c0.17041,-0.28793 0.25561,-0.61111 0.25561,-0.96956v-4.45114h1.07533v4.5481c0,0.55235 -0.12927,1.04888 -0.38782,1.48959c-0.25267,0.43483 -0.60524,0.77858 -1.0577,1.03125c-0.44658,0.2468 -0.95193,0.37019 -1.51603,0.37019zM224.81706,182.56058v-1.04888h1.18991v-5.26204h-1.18991v-1.0577h3.51684v1.0577h-1.18991v5.26204h1.18991v1.04888zM230.28829,182.67517c-0.22917,0 -0.40839,-0.06757 -0.53766,-0.20273c-0.1234,-0.13515 -0.1851,-0.32906 -0.1851,-0.58173c0,-0.23504 0.06464,-0.42602 0.19391,-0.57292c0.13515,-0.1469 0.31143,-0.22035 0.52885,-0.22035c0.23504,0 0.41426,0.07051 0.53766,0.21154c0.12927,0.13515 0.19391,0.32906 0.19391,0.58173c0,0.22917 -0.06757,0.4172 -0.20273,0.56411c-0.13515,0.1469 -0.31143,0.22035 -0.52885,0.22035zM232.26265,182.67517c-0.22917,0 -0.40839,-0.06757 -0.53766,-0.20273c-0.1234,-0.13515 -0.1851,-0.32906 -0.1851,-0.58173c0,-0.23504 0.06464,-0.42602 0.19391,-0.57292c0.13515,-0.1469 0.31143,-0.22035 0.52885,-0.22035c0.23504,0 0.41426,0.07051 0.53766,0.21154c0.12927,0.13515 0.19391,0.32906 0.19391,0.58173c0,0.22917 -0.06757,0.4172 -0.20273,0.56411c-0.13515,0.1469 -0.31143,0.22035 -0.52885,0.22035zM234.25465,182.67517c-0.22917,0 -0.40839,-0.06757 -0.53766,-0.20273c-0.1234,-0.13515 -0.1851,-0.32906 -0.1851,-0.58173c0,-0.23504 0.06464,-0.42602 0.19391,-0.57292c0.13515,-0.1469 0.31143,-0.22035 0.52885,-0.22035c0.23504,0 0.41426,0.07051 0.53766,0.21154c0.12927,0.13515 0.19391,0.32906 0.19391,0.58173c0,0.22917 -0.06757,0.4172 -0.20273,0.56411c-0.13515,0.1469 -0.31143,0.22035 -0.52885,0.22035z" fill="#000000" fill-rule="nonzero" stroke-linecap="square"/><text transform="translate(172.82345,203.50455) scale(0.14422,0.14422)" font-size="40" xml:space="preserve" fill="#000000" fill-rule="nonzero" stroke="none" stroke-width="1" stroke-linecap="butt" stroke-linejoin="miter" stroke-miterlimit="10" stroke-dasharray="" stroke-dashoffset="0" font-family="Sans Serif" font-weight="normal" text-anchor="start" style="mix-blend-mode: normal"><tspan x="0" dy="0">2.04 XUI Stable</tspan></text></g></g></svg>