<svg version="1.1" xmlns="http://www.w3.org/2000/svg" xmlns:xlink="http://www.w3.org/1999/xlink" width="41.25324" height="41.25324" viewBox="0,0,41.25324,41.25324"><g transform="translate(-219.37338,-159.37338)"><g data-paper-data="{&quot;isPaintingLayer&quot;:true}" fill-rule="nonzero" stroke="none" stroke-linecap="butt" stroke-linejoin="miter" stroke-miterlimit="10" stroke-dasharray="" stroke-dashoffset="0" style="mix-blend-mode: normal"><path d="M219.37338,180c0,-11.39177 9.23485,-20.62662 20.62662,-20.62662c11.39177,0 20.62662,9.23485 20.62662,20.62662c0,11.39177 -9.23485,20.62662 -20.62662,20.62662c-11.39177,0 -20.62662,-9.23485 -20.62662,-20.62662z" fill-opacity="0.80645" fill="#303030" stroke-width="0"/><path d="M234,190.5c-0.55,0 -1.02084,-0.19584 -1.4125,-0.5875c-0.39166,-0.39166 -0.5875,-0.8625 -0.5875,-1.4125v-10c0,-0.55 0.19584,-1.02084 0.5875,-1.4125c0.39166,-0.39166 0.8625,-0.5875 1.4125,-0.5875h1v-2c0,-1.38333 0.4875,-2.5625 1.4625,-3.5375c0.975,-0.975 2.15417,-1.4625 3.5375,-1.4625c1.38333,0 2.5625,0.4875 3.5375,1.4625c0.975,0.975 1.4625,2.15417 1.4625,3.5375v2h1c0.55,0 1.02084,0.19584 1.4125,0.5875c0.39166,0.39166 0.5875,0.8625 0.5875,1.4125v10c0,0.55 -0.19584,1.02084 -0.5875,1.4125c-0.39166,0.39166 -0.8625,0.5875 -1.4125,0.5875zM234,188.5h12v-10h-12zM240,185.5c0.55,0 1.02084,-0.19584 1.4125,-0.5875c0.39166,-0.39166 0.5875,-0.8625 0.5875,-1.4125c0,-0.55 -0.19584,-1.02084 -0.5875,-1.4125c-0.39166,-0.39166 -0.8625,-0.5875 -1.4125,-0.5875c-0.55,0 -1.02084,0.19584 -1.4125,0.5875c-0.39166,0.39166 -0.5875,0.8625 -0.5875,1.4125c0,0.55 0.19584,1.02084 0.5875,1.4125c0.39166,0.39166 0.8625,0.5875 1.4125,0.5875zM237,176.5h6v-2c0,-0.83334 -0.29166,-1.54166 -0.875,-2.125c-0.58334,-0.58334 -1.29166,-0.875 -2.125,-0.875c-0.83334,0 -1.54166,0.29166 -2.125,0.875c-0.58334,0.58334 -0.875,1.29166 -0.875,2.125zM234,188.5v-10z" fill="#ffffff" stroke-width="1"/></g></g></svg>