<svg version="1.1" xmlns="http://www.w3.org/2000/svg" xmlns:xlink="http://www.w3.org/1999/xlink" width="41.15167" height="57.45206" viewBox="0,0,41.15167,57.45206"><g transform="translate(-219.42417,-151.27397)"><g data-paper-data="{&quot;isPaintingLayer&quot;:true}" fill="#ffffff" fill-rule="nonzero" stroke="none" stroke-width="1" stroke-linecap="square" stroke-linejoin="miter" stroke-miterlimit="10" stroke-dasharray="" stroke-dashoffset="0" style="mix-blend-mode: normal"><path d="M240,208.72603c-4.36458,0 -8.08336,-1.13567 -11.15638,-3.40704c-3.02848,-2.31589 -5.36665,-5.61159 -7.01449,-9.88708c-1.60331,-4.2755 -2.40497,-9.41946 -2.40497,-15.43187c0,-6.01242 0.80166,-11.15638 2.40497,-15.43187c1.64784,-4.2755 3.986,-7.54892 7.01449,-9.82029c3.07302,-2.31592 6.7918,-3.4739 11.15638,-3.4739c4.32003,0 8.01656,1.15798 11.08957,3.4739c3.11755,2.27137 5.47797,5.54479 7.08129,9.82029c1.60331,4.2755 2.40497,9.41946 2.40497,15.43187c0,6.01242 -0.80166,11.15638 -2.40497,15.43187c-1.60331,4.2755 -3.96375,7.5712 -7.08129,9.88708c-3.07302,2.27137 -6.76955,3.40704 -11.08957,3.40704zM240,202.91402c4.58724,0 8.10564,-1.98186 10.55513,-5.94562c2.49404,-4.00828 3.74105,-9.6644 3.74105,-16.96838c0,-7.25943 -1.24701,-12.8933 -3.74105,-16.90158c-2.4495,-4.00828 -5.9679,-6.01242 -10.55513,-6.01242c-4.63179,0 -8.19469,2.00414 -10.68874,6.01242c-2.4495,4.00828 -3.67426,9.64215 -3.67426,16.90158c0,7.30398 1.22476,12.9601 3.67426,16.96838c2.49404,3.96375 6.05695,5.94562 10.68874,5.94562z"/></g></g></svg>