<svg version="1.1" xmlns="http://www.w3.org/2000/svg" xmlns:xlink="http://www.w3.org/1999/xlink" width="92.83117" height="17.5161" viewBox="0,0,92.83117,17.5161"><g transform="translate(-193.58441,-171.55699)"><g data-paper-data="{&quot;isPaintingLayer&quot;:true}" stroke-linejoin="miter" stroke-miterlimit="10" stroke-dasharray="" stroke-dashoffset="0" style="mix-blend-mode: normal"><path d="M193.58443,180.00001c0,-3.73685 3.02931,-6.76616 6.76616,-6.76616h79.29884c1.7945,0 3.5155,0.71286 4.78439,1.98176c1.26891,1.26891 1.98177,2.98991 1.98177,4.7844c0,3.73685 -3.02932,6.76616 -6.76617,6.76616h-79.29884c-3.73685,0 -6.76616,-3.02931 -6.76616,-6.76616z" fill-opacity="0.77772" fill="#303030" fill-rule="evenodd" stroke="none" stroke-width="1" stroke-linecap="square"/><path d="M193.60824,180.04484c0,-3.7582 3.04662,-6.80482 6.80482,-6.80482c3.7582,0 6.80482,3.04662 6.80482,6.80482c0,3.7582 -3.04662,6.80482 -6.80482,6.80482c-3.7582,0 -6.80482,-3.04662 -6.80482,-6.80482z" fill="#303030" fill-rule="nonzero" stroke="none" stroke-width="0" stroke-linecap="butt"/><path d="M196.08794,180.00424c0,-3.7582 3.04662,-6.80482 6.80482,-6.80482c3.7582,0 6.80482,3.04662 6.80482,6.80482c0,3.7582 -3.04662,6.80482 -6.80482,6.80482c-3.7582,0 -6.80482,-3.04662 -6.80482,-6.80482z" fill="#303030" fill-rule="nonzero" stroke="none" stroke-width="0" stroke-linecap="butt"/><path d="M204.74239,180.08965c0,-3.7582 3.04662,-6.80482 6.80482,-6.80482c3.7582,0 6.80482,3.04662 6.80482,6.80482c0,3.7582 -3.04662,6.80482 -6.80482,6.80482c-3.7582,0 -6.80482,-3.04662 -6.80482,-6.80482z" fill="#303030" fill-rule="nonzero" stroke="none" stroke-width="0" stroke-linecap="butt"/><path d="M199.49036,180.13025c0,-3.7582 3.04662,-6.80482 6.80482,-6.80482c3.7582,0 6.80482,3.04662 6.80482,6.80482c0,3.7582 -3.04662,6.80482 -6.80482,6.80482c-3.7582,0 -6.80482,-3.04662 -6.80482,-6.80482z" fill="#303030" fill-rule="nonzero" stroke="none" stroke-width="0" stroke-linecap="butt"/><g fill="#303030" fill-rule="nonzero" stroke="none" stroke-width="0" stroke-linecap="butt"><path d="M209.44555,180.00424c0,-3.7582 3.04662,-6.80482 6.80482,-6.80482c3.7582,0 6.80482,3.04662 6.80482,6.80482c0,3.7582 -3.04662,6.80482 -6.80482,6.80482c-3.7582,0 -6.80482,-3.04662 -6.80482,-6.80482z"/><path d="M211.92525,179.96364c0,-3.7582 3.04662,-6.80482 6.80482,-6.80482c3.7582,0 6.80482,3.04662 6.80482,6.80482c0,3.7582 -3.04662,6.80482 -6.80482,6.80482c-3.7582,0 -6.80482,-3.04662 -6.80482,-6.80482z"/><path d="M216.79924,180.04905c0,-3.7582 3.04662,-6.80482 6.80482,-6.80482c3.7582,0 6.80482,3.04662 6.80482,6.80482c0,3.7582 -3.04662,6.80482 -6.80482,6.80482c-3.7582,0 -6.80482,-3.04662 -6.80482,-6.80482z"/><path d="M214.31954,180.08965c0,-3.7582 3.04662,-6.80482 6.80482,-6.80482c3.7582,0 6.80482,3.04662 6.80482,6.80482c0,3.7582 -3.04662,6.80482 -6.80482,6.80482c-3.7582,0 -6.80482,-3.04662 -6.80482,-6.80482z"/></g><g fill="#303030" fill-rule="nonzero" stroke="none" stroke-width="0" stroke-linecap="butt"><path d="M218.09999,179.96364c0,-3.7582 3.04662,-6.80482 6.80482,-6.80482c3.7582,0 6.80482,3.04662 6.80482,6.80482c0,3.7582 -3.04662,6.80482 -6.80482,6.80482c-3.7582,0 -6.80482,-3.04662 -6.80482,-6.80482z"/><path d="M220.57969,179.92304c0,-3.7582 3.04662,-6.80482 6.80482,-6.80482c3.7582,0 6.80482,3.04662 6.80482,6.80482c0,3.7582 -3.04662,6.80482 -6.80482,6.80482c-3.7582,0 -6.80482,-3.04662 -6.80482,-6.80482z"/><path d="M225.45368,180.00845c0,-3.7582 3.04662,-6.80482 6.80482,-6.80482c3.7582,0 6.80482,3.04662 6.80482,6.80482c0,3.7582 -3.04662,6.80482 -6.80482,6.80482c-3.7582,0 -6.80482,-3.04662 -6.80482,-6.80482z"/><path d="M222.97398,180.04905c0,-3.7582 3.04662,-6.80482 6.80482,-6.80482c3.7582,0 6.80482,3.04662 6.80482,6.80482c0,3.7582 -3.04662,6.80482 -6.80482,6.80482c-3.7582,0 -6.80482,-3.04662 -6.80482,-6.80482z"/></g><g fill="#303030" fill-rule="nonzero" stroke="none" stroke-width="0" stroke-linecap="butt"><path d="M227.2585,180.04905c0,-3.7582 3.04662,-6.80482 6.80482,-6.80482c3.7582,0 6.80482,3.04662 6.80482,6.80482c0,3.7582 -3.04662,6.80482 -6.80482,6.80482c-3.7582,0 -6.80482,-3.04662 -6.80482,-6.80482z"/><path d="M229.7382,180.00845c0,-3.7582 3.04662,-6.80482 6.80482,-6.80482c3.7582,0 6.80482,3.04662 6.80482,6.80482c0,3.7582 -3.04662,6.80482 -6.80482,6.80482c-3.7582,0 -6.80482,-3.04662 -6.80482,-6.80482z"/><path d="M234.61219,180.09386c0,-3.7582 3.04662,-6.80482 6.80482,-6.80482c3.7582,0 6.80482,3.04662 6.80482,6.80482c0,3.7582 -3.04662,6.80482 -6.80482,6.80482c-3.7582,0 -6.80482,-3.04662 -6.80482,-6.80482z"/><path d="M232.13249,180.13446c0,-3.7582 3.04662,-6.80482 6.80482,-6.80482c3.7582,0 6.80482,3.04662 6.80482,6.80482c0,3.7582 -3.04662,6.80482 -6.80482,6.80482c-3.7582,0 -6.80482,-3.04662 -6.80482,-6.80482z"/></g><g fill="#303030" fill-rule="nonzero" stroke="none" stroke-width="0" stroke-linecap="butt"><path d="M237.29911,180.00845c0,-3.7582 3.04662,-6.80482 6.80482,-6.80482c3.7582,0 6.80482,3.04662 6.80482,6.80482c0,3.7582 -3.04662,6.80482 -6.80482,6.80482c-3.7582,0 -6.80482,-3.04662 -6.80482,-6.80482z"/><path d="M239.77881,179.96785c0,-3.7582 3.04662,-6.80482 6.80482,-6.80482c3.7582,0 6.80482,3.04662 6.80482,6.80482c0,3.7582 -3.04662,6.80482 -6.80482,6.80482c-3.7582,0 -6.80482,-3.04662 -6.80482,-6.80482z"/><path d="M244.6528,180.05326c0,-3.7582 3.04662,-6.80482 6.80482,-6.80482c3.7582,0 6.80482,3.04662 6.80482,6.80482c0,3.7582 -3.04662,6.80482 -6.80482,6.80482c-3.7582,0 -6.80482,-3.04662 -6.80482,-6.80482z"/><path d="M242.1731,180.09386c0,-3.7582 3.04662,-6.80482 6.80482,-6.80482c3.7582,0 6.80482,3.04662 6.80482,6.80482c0,3.7582 -3.04662,6.80482 -6.80482,6.80482c-3.7582,0 -6.80482,-3.04662 -6.80482,-6.80482z"/></g><g fill="#303030" fill-rule="nonzero" stroke="none" stroke-width="0" stroke-linecap="butt"><path d="M247.71776,179.96784c0,-3.7582 3.04662,-6.80482 6.80482,-6.80482c3.7582,0 6.80482,3.04662 6.80482,6.80482c0,3.7582 -3.04662,6.80482 -6.80482,6.80482c-3.7582,0 -6.80482,-3.04662 -6.80482,-6.80482z"/><path d="M250.19746,179.92724c0,-3.7582 3.04662,-6.80482 6.80482,-6.80482c3.7582,0 6.80482,3.04662 6.80482,6.80482c0,3.7582 -3.04662,6.80482 -6.80482,6.80482c-3.7582,0 -6.80482,-3.04662 -6.80482,-6.80482z"/><path d="M255.07145,180.01265c0,-3.7582 3.04662,-6.80482 6.80482,-6.80482c3.7582,0 6.80482,3.04662 6.80482,6.80482c0,3.7582 -3.04662,6.80482 -6.80482,6.80482c-3.7582,0 -6.80482,-3.04662 -6.80482,-6.80482z"/><path d="M252.59175,180.05325c0,-3.7582 3.04662,-6.80482 6.80482,-6.80482c3.7582,0 6.80482,3.04662 6.80482,6.80482c0,3.7582 -3.04662,6.80482 -6.80482,6.80482c-3.7582,0 -6.80482,-3.04662 -6.80482,-6.80482z"/></g><path d="M260.6035,180.31505c0,-4.83694 3.92111,-8.75805 8.75805,-8.75805c4.83694,0 8.75805,3.92111 8.75805,8.75805c0,4.83694 -3.92111,8.75805 -8.75805,8.75805c-4.83694,0 -8.75805,-3.92111 -8.75805,-8.75805z" fill="#525252" fill-rule="nonzero" stroke="#000000" stroke-width="0" stroke-linecap="butt"/></g></g></svg>