<svg version="1.1" xmlns="http://www.w3.org/2000/svg" xmlns:xlink="http://www.w3.org/1999/xlink" width="21.58322" height="27.89234" viewBox="0,0,21.58322,27.89234"><g transform="translate(-145.86727,-196.16083)"><g data-paper-data="{&quot;isPaintingLayer&quot;:true}" stroke="none" stroke-width="1" stroke-linecap="square" stroke-linejoin="miter" stroke-miterlimit="10" stroke-dasharray="" stroke-dashoffset="0" style="mix-blend-mode: normal"><path d="M145.86727,197.88486c0,-0.95215 0.41182,-1.72403 0.91982,-1.72403h19.74357c0.24395,0 0.47791,0.18164 0.65041,0.50495c0.1725,0.32331 0.26942,0.76183 0.26942,1.21908v24.44429c0,0.95215 -0.41182,1.72402 -0.91983,1.72402h-19.74357c-0.508,0 -0.91982,-0.77187 -0.91982,-1.72402z" fill-opacity="0.69355" fill="#2d2d2d" fill-rule="evenodd"/><path d="M158.7267,215.96011l-4.66273,-6.75466l-5.99854,-8.2921h4.4611l4.56191,6.65384l6.07415,8.39292zM147.96462,215.96011l5.7465,-8.19128l2.94886,1.68866l-4.4611,6.50262zM157.4161,208.97861l-2.92366,-1.63826l4.23426,-6.42701h4.23426z" fill="#ffffff" fill-rule="nonzero"/></g></g></svg>