<svg version="1.1" xmlns="http://www.w3.org/2000/svg" xmlns:xlink="http://www.w3.org/1999/xlink" width="38.52613" height="58.86516" viewBox="0,0,38.52613,58.86516"><g transform="translate(-220.73693,-150.56742)"><g data-paper-data="{&quot;isPaintingLayer&quot;:true}" fill="#ffffff" fill-rule="nonzero" stroke="none" stroke-width="1" stroke-linecap="square" stroke-linejoin="miter" stroke-miterlimit="10" stroke-dasharray="" stroke-dashoffset="0" style="mix-blend-mode: normal"><path d="M224.20774,209.43258l-2.01307,-4.78974l19.57545,-22.00502c0.92556,-1.0181 1.89739,-2.19818 2.91549,-3.54024c1.0644,-1.34206 2.03623,-2.73039 2.91549,-4.16499c0.92556,-1.48089 1.666,-2.93863 2.22133,-4.37324c0.55533,-1.4346 0.83299,-2.84608 0.83299,-4.2344c0,-2.03623 -0.43964,-3.74848 -1.31891,-5.13682c-0.87927,-1.4346 -2.15191,-2.52214 -3.81791,-3.26257c-1.61972,-0.78673 -3.49397,-1.18008 -5.62273,-1.18008c-1.89739,0 -3.77164,0.43964 -5.62273,1.31891c-1.80482,0.87927 -3.44768,2.24448 -4.92857,4.09557c-1.48089,1.80482 -2.63783,4.11871 -3.47082,6.94165l-5.13682,-3.12374c0.97183,-3.33199 2.42958,-6.15492 4.37324,-8.46881c1.94366,-2.31389 4.2344,-4.0493 6.87223,-5.20623c2.6841,-1.15693 5.53017,-1.73541 8.53822,-1.73541c3.23943,0 6.10865,0.64789 8.60764,1.94366c2.54526,1.29577 4.55834,3.12374 6.03923,5.4839c1.52716,2.36016 2.29074,5.0674 2.29074,8.12172c0,1.29577 -0.16198,2.61468 -0.48592,3.95674c-0.27766,1.34206 -0.74044,2.6841 -1.38833,4.02616c-0.6016,1.29577 -1.34206,2.63783 -2.22133,4.02616c-0.83299,1.38833 -1.82798,2.79981 -2.9849,4.2344c-1.11067,1.4346 -2.33701,2.91549 -3.67907,4.44265l-16.65996,18.53419l-1.04124,-2.15191h30.26558v6.24748z"/></g></g></svg>