<svg xmlns="http://www.w3.org/2000/svg" xmlns:xlink="http://www.w3.org/1999/xlink" stroke-miterlimit="10" stroke-linecap="square" stroke="none" fill="none" viewBox="0.0 0.0 960.0 720.0" version="1.1"><clipPath id="p.0"><path clip-rule="nonzero" d="m0 0l960.0 0l0 720.0l-960.0 0l0 -720.0z"></path></clipPath><g clip-path="url(#p.0)"><path fill-rule="evenodd" d="m0 0l960.0 0l0 720.0l-960.0 0z" fill-opacity="0.0" fill="#000000"></path><path fill-rule="evenodd" d="m6.0026245 346.1942l0 0c0 -20.247528 16.413876 -36.661407 36.66142 -36.661407l0 0c9.723209 0 19.048187 3.8625183 25.923534 10.7378845c6.875351 6.8753357 10.7378845 16.200317 10.7378845 25.923523l0 0c0 20.247559 -16.41388 36.661438 -36.66142 36.661438l0 0c-20.247543 0 -36.66142 -16.41388 -36.66142 -36.661438z" fill="#666666"></path><path fill-rule="evenodd" d="m892.1076 346.1942l0 0c0 -20.247528 16.41388 -36.661407 36.661438 -36.661407l0 0c9.723206 0 19.048157 3.8625183 25.923523 10.7378845c6.875366 6.8753357 10.737854 16.200317 10.737854 25.923523l0 0c0 20.247559 -16.41388 36.661438 -36.661377 36.661438l0 0c-20.247559 0 -36.661438 -16.41388 -36.661438 -36.661438z" fill="#666666"></path><path fill-rule="evenodd" d="m42.1916 309.5328l883.81104 0l0 73.322845l-883.81104 0z" fill="#666666"></path></g></svg>