<svg version="1.1" xmlns="http://www.w3.org/2000/svg" xmlns:xlink="http://www.w3.org/1999/xlink" width="93.1042" height="17.51611" viewBox="0,0,93.1042,17.51611"><g transform="translate(-193.31137,-171.55698)"><g data-paper-data="{&quot;isPaintingLayer&quot;:true}" stroke-linejoin="miter" stroke-miterlimit="10" stroke-dasharray="" stroke-dashoffset="0" style="mix-blend-mode: normal"><path d="M193.58442,180c0,-3.73685 3.02931,-6.76616 6.76616,-6.76616h79.29884c1.7945,0 3.5155,0.71286 4.78439,1.98176c1.26891,1.26891 1.98177,2.98991 1.98177,4.7844c0,3.73685 -3.02932,6.76616 -6.76617,6.76616h-79.29884c-3.73685,0 -6.76616,-3.02931 -6.76616,-6.76616z" fill-opacity="0.77772" fill="#303030" fill-rule="evenodd" stroke="none" stroke-width="1" stroke-linecap="square"/><path d="M193.31137,180.31504c0,-4.83694 3.92111,-8.75805 8.75805,-8.75805c4.83694,0 8.75805,3.92111 8.75805,8.75805c0,4.83694 -3.92111,8.75805 -8.75805,8.75805c-4.83694,0 -8.75805,-3.92111 -8.75805,-8.75805z" fill="#525252" fill-rule="nonzero" stroke="#000000" stroke-width="0" stroke-linecap="butt"/></g></g></svg>