<svg version="1.1" xmlns="http://www.w3.org/2000/svg" xmlns:xlink="http://www.w3.org/1999/xlink" width="52.60801" height="29.16692" viewBox="0,0,52.60801,29.16692"><g transform="translate(-213.821,-165.91654)"><g data-paper-data="{&quot;isPaintingLayer&quot;:true}" stroke-linejoin="miter" stroke-miterlimit="10" stroke-dasharray="" stroke-dashoffset="0" style="mix-blend-mode: normal"><path d="M213.821,170.77779c0,-2.6848 2.10183,-4.86125 4.69458,-4.86125h43.21885c1.24508,0 2.43917,0.51217 3.31958,1.42383c0.8804,0.91166 1.375,2.14814 1.375,3.43742v19.44442c0,2.6848 -2.10183,4.86125 -4.69458,4.86125h-43.21885c-2.59275,0 -4.69458,-2.17645 -4.69458,-4.86125z" fill-opacity="0.66318" fill="#272727" fill-rule="evenodd" stroke="none" stroke-width="1" stroke-linecap="square"/><text transform="translate(230.33267,191.01719) scale(0.08184,0.08184)" font-size="40" xml:space="preserve" fill="#ffffff" fill-rule="nonzero" stroke="none" stroke-width="1" stroke-linecap="butt" stroke-linejoin="miter" stroke-miterlimit="10" stroke-dasharray="" stroke-dashoffset="0" font-family="Sans Serif" font-weight="normal" text-anchor="start" style="mix-blend-mode: normal"><tspan x="0" dy="0">Ask Marcus</tspan></text><path d="M246.92375,178.78202c-0.95699,3.32992 -4.02566,5.76621 -7.66336,5.76621c-4.40315,0 -7.9726,-3.56946 -7.9726,-7.9726c0,-3.45026 2.19168,-6.38862 5.2588,-7.49882" fill="none" fill-rule="nonzero" stroke="#00c1ff" stroke-width="2" stroke-linecap="butt"/><path d="M234.75986,174.69171c0.74409,-1.57094 2.34405,-2.65745 4.19777,-2.65745c2.56386,0 4.64228,2.07842 4.64228,4.64228c0,2.56386 -2.07842,4.64228 -4.64228,4.64228c-1.46467,0 -2.7709,-0.6783 -3.62173,-1.73791" fill="none" fill-rule="nonzero" stroke="#0059af" stroke-width="2" stroke-linecap="butt"/><path d="M237.35989,176.77746c0,-0.94751 0.76811,-1.71563 1.71563,-1.71563c0.94751,0 1.71563,0.76811 1.71563,1.71563c0,0.94751 -0.76811,1.71563 -1.71563,1.71563c-0.94751,0 -1.71563,-0.76811 -1.71563,-1.71563z" fill="none" fill-rule="nonzero" stroke="#000000" stroke-width="2" stroke-linecap="butt"/></g></g></svg>