<svg version="1.1" xmlns="http://www.w3.org/2000/svg" xmlns:xlink="http://www.w3.org/1999/xlink" width="34.27683" height="9.05131" viewBox="0,0,34.27683,9.05131"><g transform="translate(-222.86158,-175.47434)"><g data-paper-data="{&quot;isPaintingLayer&quot;:true}" fill="#ffffff" fill-rule="nonzero" stroke="none" stroke-width="1" stroke-linecap="square" stroke-linejoin="miter" stroke-miterlimit="10" stroke-dasharray="" stroke-dashoffset="0" style="mix-blend-mode: normal"><path d="M222.86159,184.40443v-8.44519h1.28294l3.07098,5.01054l-0.61622,-0.0101l3.11139,-5.00044h1.21223v8.44519h-1.30315v-3.46495c0,-0.7206 0.01684,-1.37049 0.05051,-1.94966c0.03368,-0.57917 0.09765,-1.15499 0.19194,-1.72743l0.16163,0.44448l-2.75782,4.2731h-0.79805l-2.677,-4.22259l0.13133,-0.49499c0.08755,0.53877 0.14816,1.09437 0.18183,1.66681c0.04041,0.56571 0.06061,1.23579 0.06061,2.01028v3.46495zM235.40427,184.52566c-0.51856,0 -0.99335,-0.14479 -1.42436,-0.43438c-0.43102,-0.28959 -0.77785,-0.68356 -1.0405,-1.18192c-0.25592,-0.49836 -0.38387,-1.0607 -0.38387,-1.68702c0,-0.63978 0.13133,-1.2055 0.39397,-1.69712c0.26265,-0.49162 0.61621,-0.87886 1.0607,-1.16172c0.45122,-0.28286 0.95294,-0.42428 1.50518,-0.42428c0.32999,0 0.62969,0.05051 0.89907,0.15153c0.27612,0.09429 0.5152,0.22898 0.71724,0.40408c0.20878,0.16836 0.37714,0.36704 0.50509,0.59601c0.13469,0.22224 0.21887,0.46132 0.25254,0.71724l-0.27275,-0.09092v-1.64661h1.25263v6.33389h-1.25263v-1.50518l0.28285,-0.09092c-0.04714,0.22224 -0.14479,0.43775 -0.29295,0.64652c-0.14816,0.20204 -0.33673,0.38387 -0.56571,0.5455c-0.22898,0.1549 -0.48152,0.28285 -0.75764,0.38387c-0.27612,0.09429 -0.56907,0.14142 -0.87887,0.14142zM235.72753,183.38414c0.38387,0 0.71724,-0.09091 1.00009,-0.27275c0.28959,-0.18857 0.51519,-0.44448 0.67682,-0.76774c0.16836,-0.32999 0.25255,-0.70377 0.25255,-1.12131c0,-0.41081 -0.08419,-0.77785 -0.25255,-1.10111c-0.16163,-0.32326 -0.38723,-0.57581 -0.67682,-0.75764c-0.28285,-0.18857 -0.61622,-0.28285 -1.00009,-0.28285c-0.37041,0 -0.69703,0.09428 -0.97988,0.28285c-0.28285,0.18184 -0.50846,0.43438 -0.67683,0.75764c-0.16163,0.32326 -0.24244,0.6903 -0.24244,1.10111c0,0.41754 0.08081,0.79131 0.24244,1.12131c0.16836,0.32326 0.39397,0.57917 0.67683,0.76774c0.28285,0.18184 0.60948,0.27275 0.97988,0.27275zM240.60474,184.40443v-6.33389h1.25263v1.99007l-0.12122,-0.48489c0.08755,-0.30306 0.23908,-0.57917 0.45459,-0.82835c0.2155,-0.24918 0.46131,-0.44449 0.73743,-0.58591c0.27612,-0.14816 0.56235,-0.22224 0.85867,-0.22224c0.13469,0 0.26265,0.01347 0.38387,0.04041c0.12796,0.02021 0.22898,0.04714 0.30306,0.08082l-0.32327,1.35366c-0.09428,-0.04041 -0.20203,-0.07408 -0.32326,-0.10102c-0.11449,-0.03367 -0.22898,-0.05051 -0.34347,-0.05051c-0.2155,0 -0.42091,0.04378 -0.61621,0.13133c-0.19531,0.08082 -0.37041,0.19867 -0.5253,0.35357c-0.14816,0.14816 -0.26602,0.3199 -0.35357,0.5152c-0.08755,0.1953 -0.13132,0.41081 -0.13132,0.64652v3.49526zM247.8872,184.52566c-0.58591,0 -1.11122,-0.14479 -1.5759,-0.43438c-0.45795,-0.28959 -0.82162,-0.68356 -1.091,-1.18192c-0.26938,-0.49836 -0.40408,-1.05733 -0.40408,-1.67692c0,-0.61959 0.13469,-1.17856 0.40408,-1.67692c0.26938,-0.49836 0.63305,-0.89233 1.091,-1.18192c0.46469,-0.28959 0.98999,-0.43438 1.5759,-0.43438c0.5657,0 1.07753,0.11449 1.53548,0.34346c0.46469,0.22897 0.81825,0.54214 1.0607,0.93948l-0.68693,0.83846c-0.12796,-0.18184 -0.29295,-0.3502 -0.49499,-0.5051c-0.20204,-0.1549 -0.41755,-0.27612 -0.64652,-0.36367c-0.22224,-0.08755 -0.43775,-0.13133 -0.64652,-0.13133c-0.38387,0 -0.72734,0.09428 -1.03039,0.28285c-0.30306,0.18857 -0.54213,0.44785 -0.71723,0.77785c-0.1751,0.32999 -0.26265,0.7004 -0.26265,1.11121c0,0.41081 0.09091,0.78122 0.27275,1.11121c0.18857,0.32326 0.43439,0.58254 0.73744,0.77785c0.30306,0.18857 0.63978,0.28285 1.01019,0.28285c0.22224,0 0.43438,-0.03704 0.63642,-0.11112c0.20204,-0.07408 0.40071,-0.18184 0.59601,-0.32326c0.19531,-0.14816 0.37714,-0.32663 0.5455,-0.5354l0.68693,0.84856c-0.25592,0.36367 -0.62295,0.66336 -1.1011,0.89907c-0.47816,0.22897 -0.97652,0.34346 -1.49508,0.34346zM251.65308,184.40443v-8.93008h1.24254v3.89933l-0.22225,0.14143c0.08082,-0.27612 0.23908,-0.53203 0.47479,-0.76774c0.23571,-0.24245 0.51183,-0.43775 0.82836,-0.58591c0.32326,-0.14816 0.65326,-0.22224 0.98999,-0.22224c0.48489,0 0.8856,0.09428 1.20213,0.28285c0.32326,0.18857 0.5657,0.47816 0.72733,0.86876c0.16163,0.38387 0.24245,0.86876 0.24245,1.45467v3.85892h-1.24253v-3.77811c0,-0.35693 -0.04715,-0.65326 -0.14143,-0.88897c-0.09428,-0.24245 -0.24244,-0.41754 -0.44448,-0.5253c-0.20204,-0.10775 -0.45123,-0.1549 -0.74755,-0.14142c-0.24245,0 -0.46469,0.0404 -0.66672,0.12122c-0.20204,0.07408 -0.37713,0.18184 -0.52529,0.32326c-0.14816,0.13469 -0.26602,0.29295 -0.35357,0.47478c-0.08082,0.1751 -0.12122,0.36703 -0.12122,0.57581v3.83872h-0.61622c-0.10102,0 -0.2054,0 -0.31316,0c-0.10775,0 -0.21214,0 -0.31316,0z"/></g></g></svg>