<svg version="1.1" xmlns="http://www.w3.org/2000/svg" xmlns:xlink="http://www.w3.org/1999/xlink" width="45.87358" height="45.87358" viewBox="0,0,45.87358,45.87358"><g transform="translate(-217.06321,-157.06321)"><g data-paper-data="{&quot;isPaintingLayer&quot;:true}" fill-rule="nonzero" stroke="none" stroke-width="0" stroke-linecap="butt" stroke-linejoin="miter" stroke-miterlimit="10" stroke-dasharray="" stroke-dashoffset="0" style="mix-blend-mode: normal"><path d="M217.06321,202.93679v-45.87358h45.87358v45.87358z" fill="#ffffff"/><path d="M223.21028,168.73103c0,-2.88944 2.34235,-5.23179 5.23179,-5.23179c2.88944,0 5.23179,2.34235 5.23179,5.23179c0,2.88944 -2.34235,5.23179 -5.23179,5.23179c-2.88944,0 -5.23179,-2.34235 -5.23179,-5.23179z" fill="#000000"/><path d="M246.12695,190.78085c0,-2.88944 2.34235,-5.23179 5.23179,-5.23179c2.88944,0 5.23179,2.34235 5.23179,5.23179c0,2.88944 -2.34235,5.23179 -5.23179,5.23179c-2.88944,0 -5.23179,-2.34235 -5.23179,-5.23179z" fill="#000000"/><path d="M234.76821,180c0,-2.88944 2.34235,-5.23179 5.23179,-5.23179c2.88944,0 5.23179,2.34235 5.23179,5.23179c0,2.88944 -2.34235,5.23179 -5.23179,5.23179c-2.88944,0 -5.23179,-2.34235 -5.23179,-5.23179z" fill="#000000"/></g></g></svg>