<svg version="1.1" xmlns="http://www.w3.org/2000/svg" xmlns:xlink="http://www.w3.org/1999/xlink" width="81.54025" height="81.54025" viewBox="0,0,81.54025,81.54025"><g transform="translate(-199.22988,-139.22987)"><g data-paper-data="{&quot;isPaintingLayer&quot;:true}" fill-rule="nonzero" stroke="none" stroke-width="0" stroke-linecap="butt" stroke-linejoin="miter" stroke-miterlimit="10" stroke-dasharray="" stroke-dashoffset="0" style="mix-blend-mode: normal"><path d="M199.22988,220.77012v-81.54025h81.54025v81.54025z" fill="#ffffff"/><path d="M210.40691,156.90822c0,-5.3701 4.35332,-9.72342 9.72342,-9.72342c5.3701,0 9.72342,4.35332 9.72342,9.72342c0,5.3701 -4.35332,9.72342 -9.72342,9.72342c-5.3701,0 -9.72342,-4.35332 -9.72342,-9.72342z" fill="#000000"/><path d="M210.40691,202.01772c0,-5.3701 4.35332,-9.72342 9.72342,-9.72342c5.3701,0 9.72342,4.35332 9.72342,9.72342c0,5.3701 -4.35332,9.72342 -9.72342,9.72342c-5.3701,0 -9.72342,-4.35332 -9.72342,-9.72342z" fill="#000000"/><path d="M210.40692,179.46298c0,-5.3701 4.35332,-9.72342 9.72342,-9.72342c5.3701,0 9.72342,4.35332 9.72342,9.72342c0,5.3701 -4.35332,9.72342 -9.72342,9.72342c-5.3701,0 -9.72342,-4.35332 -9.72342,-9.72342z" fill="#000000"/><path d="M247.09095,157.07506c0,-5.3701 4.35332,-9.72342 9.72342,-9.72342c5.3701,0 9.72342,4.35332 9.72342,9.72342c0,5.3701 -4.35332,9.72342 -9.72342,9.72342c-5.3701,0 -9.72342,-4.35332 -9.72342,-9.72342z" fill="#000000"/><path d="M247.09096,202.18456c0,-5.3701 4.35332,-9.72342 9.72342,-9.72342c5.3701,0 9.72342,4.35332 9.72342,9.72342c0,5.3701 -4.35332,9.72342 -9.72342,9.72342c-5.3701,0 -9.72342,-4.35332 -9.72342,-9.72342z" fill="#000000"/><path d="M247.09097,179.62982c0,-5.3701 4.35332,-9.72342 9.72342,-9.72342c5.3701,0 9.72342,4.35332 9.72342,9.72342c0,5.3701 -4.35332,9.72342 -9.72342,9.72342c-5.3701,0 -9.72342,-4.35332 -9.72342,-9.72342z" fill="#000000"/></g></g></svg>