<svg version="1.1" xmlns="http://www.w3.org/2000/svg" xmlns:xlink="http://www.w3.org/1999/xlink" width="104.36278" height="23.52578" viewBox="0,0,104.36278,23.52578"><g transform="translate(-190.88159,-167.7958)"><g data-paper-data="{&quot;isPaintingLayer&quot;:true}" stroke-linejoin="miter" stroke-miterlimit="10" stroke-dasharray="" stroke-dashoffset="0" style="mix-blend-mode: normal"><path d="M229.23746,185.80583v-1.85937h2.10938v-9.32812h-2.10937v-1.87501h6.23438v1.87501h-2.10937v9.32813h2.10938v1.85938zM242.50391,185.80583l5.04688,-13.06251h2.0625l5.01563,13.06251h-2.14062l-2.98437,-7.875c-0.04166,-0.08333 -0.11459,-0.29167 -0.21875,-0.625c-0.10416,-0.34375 -0.22916,-0.71875 -0.375,-1.125c-0.13541,-0.41667 -0.26041,-0.79167 -0.375,-1.125c-0.10416,-0.34375 -0.17709,-0.56771 -0.21875,-0.67187l0.4375,-0.01562c-0.07291,0.20833 -0.16666,0.47396 -0.28125,0.79688c-0.10416,0.32292 -0.21354,0.66667 -0.32812,1.03125c-0.11459,0.36458 -0.22916,0.70833 -0.34375,1.03125c-0.11459,0.3125 -0.20834,0.57292 -0.28125,0.78125l-2.96875,7.79688zM244.73829,182.55583l0.75,-1.9375h5.9375l0.85938,1.9375zM260.64223,190.10271c-0.69791,0 -1.39584,-0.10937 -2.09375,-0.32812c-0.6875,-0.21875 -1.23959,-0.50521 -1.65625,-0.85937l0.70313,-1.48437c0.25,0.1875 0.54166,0.34896 0.875,0.48438c0.33334,0.14583 0.6875,0.26042 1.0625,0.34375c0.375,0.08333 0.74479,0.125 1.10938,0.125c0.67709,0 1.24479,-0.11458 1.70313,-0.34375c0.46875,-0.21875 0.81771,-0.54687 1.04688,-0.98437c0.23959,-0.4375 0.35938,-0.97917 0.35938,-1.625v-1.875l0.20313,0.125c-0.0625,0.38542 -0.26562,0.75521 -0.60937,1.10938c-0.34375,0.35417 -0.77084,0.64583 -1.28125,0.875c-0.5,0.21875 -1.02084,0.32813 -1.5625,0.32813c-0.92709,0 -1.75521,-0.21875 -2.48437,-0.65625c-0.72916,-0.44792 -1.30729,-1.05208 -1.73437,-1.8125c-0.41666,-0.77083 -0.625,-1.64583 -0.625,-2.625c0,-0.97917 0.20834,-1.84896 0.625,-2.60937c0.41666,-0.77083 0.98438,-1.375 1.70313,-1.8125c0.72916,-0.44792 1.55209,-0.67187 2.46875,-0.67187c0.36459,0 0.71875,0.04688 1.0625,0.14063c0.35416,0.09375 0.68229,0.22396 0.98438,0.39063c0.30209,0.16667 0.56771,0.34896 0.79688,0.54688c0.23959,0.19792 0.43229,0.41146 0.57813,0.64063c0.15625,0.21875 0.25,0.42708 0.28125,0.625l-0.40625,0.15625v-2.29687h1.92188v9.20313c0,0.78125 -0.11458,1.47396 -0.34375,2.07813c-0.22917,0.60417 -0.5625,1.11458 -1,1.53125c-0.4375,0.41667 -0.96875,0.73438 -1.59375,0.95313c-0.61459,0.21875 -1.3125,0.32813 -2.09375,0.32813zM260.70473,184.22771c0.61459,0 1.15625,-0.14062 1.625,-0.42187c0.47916,-0.29167 0.84896,-0.6875 1.10938,-1.1875c0.26041,-0.5 0.39063,-1.07292 0.39063,-1.71875c0,-0.64583 -0.13541,-1.21875 -0.40625,-1.71875c-0.27084,-0.51042 -0.64062,-0.90625 -1.10937,-1.1875c-0.45834,-0.29167 -0.99479,-0.4375 -1.60937,-0.4375c-0.59375,0 -1.125,0.14583 -1.59375,0.4375c-0.46875,0.29167 -0.83854,0.69271 -1.10937,1.20313c-0.26041,0.5 -0.39062,1.06771 -0.39062,1.70313c0,0.63542 0.13021,1.20833 0.39063,1.71875c0.27084,0.5 0.64063,0.89583 1.10938,1.1875c0.46875,0.28125 1,0.42188 1.59375,0.42188zM268.35952,185.80583v-9.79687h1.9375v3.07813l-0.1875,-0.75c0.13542,-0.46875 0.36979,-0.89583 0.70313,-1.28125c0.33333,-0.38542 0.71354,-0.6875 1.14063,-0.90625c0.42708,-0.22917 0.86979,-0.34375 1.32813,-0.34375c0.20833,0 0.40625,0.02083 0.59375,0.0625c0.19792,0.03125 0.35417,0.07292 0.46875,0.125l-0.5,2.09375c-0.14583,-0.0625 -0.3125,-0.11458 -0.5,-0.15625c-0.17708,-0.05208 -0.35417,-0.07812 -0.53125,-0.07812c-0.33333,0 -0.65104,0.06771 -0.95312,0.20313c-0.30208,0.125 -0.57292,0.30729 -0.8125,0.54688c-0.22917,0.22917 -0.41146,0.49479 -0.54687,0.79688c-0.13542,0.30208 -0.20312,0.63542 -0.20312,1v5.40625zM280.02981,185.99333c-1,0 -1.89062,-0.21354 -2.67187,-0.64062c-0.77083,-0.42708 -1.38021,-1.01562 -1.82812,-1.76562c-0.4375,-0.75 -0.65625,-1.60937 -0.65625,-2.57812c0,-0.77083 0.125,-1.47396 0.375,-2.10937c0.25,-0.63542 0.59375,-1.18229 1.03125,-1.64062c0.4375,-0.46875 0.96354,-0.82812 1.57813,-1.07812c0.625,-0.26042 1.29688,-0.39062 2.01563,-0.39062c0.63542,0 1.22396,0.11979 1.76563,0.35938c0.55208,0.23958 1.02604,0.57292 1.42188,1c0.40625,0.42708 0.71875,0.93229 0.9375,1.51563c0.21875,0.57292 0.32292,1.19792 0.3125,1.875l-0.01562,0.82813h-8l-0.4375,-1.53125h6.76563l-0.26562,0.3125v-0.4375c-0.04167,-0.41667 -0.18229,-0.78646 -0.42187,-1.10937c-0.22917,-0.32292 -0.52604,-0.57812 -0.89062,-0.76562c-0.36458,-0.1875 -0.75521,-0.28125 -1.17187,-0.28125c-0.67708,0 -1.24479,0.13021 -1.70312,0.39063c-0.45833,0.25 -0.80729,0.625 -1.04687,1.125c-0.22917,0.48958 -0.34375,1.09375 -0.34375,1.8125c0,0.67708 0.14063,1.27083 0.42188,1.78125c0.28125,0.5 0.68229,0.89063 1.20313,1.17188c0.53125,0.27083 1.13542,0.40625 1.8125,0.40625c0.48958,0 0.94271,-0.07812 1.35938,-0.23437c0.41667,-0.16667 0.86979,-0.46354 1.35938,-0.89062l0.96875,1.35938c-0.30208,0.30208 -0.66667,0.56771 -1.09375,0.79688c-0.42708,0.21875 -0.88021,0.39583 -1.35937,0.53125c-0.47917,0.125 -0.95312,0.1875 -1.42187,0.1875zM290.96238,185.99333c-1,0 -1.89062,-0.21354 -2.67187,-0.64062c-0.77083,-0.42708 -1.38021,-1.01562 -1.82812,-1.76562c-0.4375,-0.75 -0.65625,-1.60937 -0.65625,-2.57812c0,-0.77083 0.125,-1.47396 0.375,-2.10937c0.25,-0.63542 0.59375,-1.18229 1.03125,-1.64062c0.4375,-0.46875 0.96354,-0.82812 1.57813,-1.07812c0.625,-0.26042 1.29688,-0.39062 2.01563,-0.39062c0.63542,0 1.22396,0.11979 1.76563,0.35938c0.55208,0.23958 1.02604,0.57292 1.42188,1c0.40625,0.42708 0.71875,0.93229 0.9375,1.51563c0.21875,0.57292 0.32292,1.19792 0.3125,1.875l-0.01562,0.82813h-8l-0.4375,-1.53125h6.76563l-0.26562,0.3125v-0.4375c-0.04167,-0.41667 -0.18229,-0.78646 -0.42187,-1.10937c-0.22917,-0.32292 -0.52604,-0.57812 -0.89062,-0.76562c-0.36458,-0.1875 -0.75521,-0.28125 -1.17187,-0.28125c-0.67708,0 -1.24479,0.13021 -1.70312,0.39063c-0.45833,0.25 -0.80729,0.625 -1.04687,1.125c-0.22917,0.48958 -0.34375,1.09375 -0.34375,1.8125c0,0.67708 0.14063,1.27083 0.42188,1.78125c0.28125,0.5 0.68229,0.89063 1.20313,1.17188c0.53125,0.27083 1.13542,0.40625 1.8125,0.40625c0.48958,0 0.94271,-0.07812 1.35938,-0.23437c0.41667,-0.16667 0.86979,-0.46354 1.35938,-0.89062l0.96875,1.35938c-0.30208,0.30208 -0.66667,0.56771 -1.09375,0.79688c-0.42708,0.21875 -0.88021,0.39583 -1.35937,0.53125c-0.47917,0.125 -0.95312,0.1875 -1.42187,0.1875z" fill="#ffffff" fill-rule="nonzero" stroke="none" stroke-width="1" stroke-linecap="square"/><path d="M190.88159,170.11403v0c0,-1.28032 0.85186,-2.31823 1.90269,-2.31823h20.73996c0.50463,0 0.98858,0.24424 1.3454,0.67899c0.35682,0.43475 0.55729,1.0244 0.55729,1.63924v18.88932c0,1.28032 -0.85186,2.31823 -1.90269,2.31823h-20.73996c-1.05083,0 -1.90269,-1.03791 -1.90269,-2.31823z" fill-opacity="0.69997" fill="#307acf" fill-rule="evenodd" stroke="none" stroke-width="1" stroke-linecap="square"/><path d="M197.25,178.77934l4,4.5l8,-9" fill="none" fill-rule="nonzero" stroke="#ffffff" stroke-width="3.5" stroke-linecap="round"/></g></g></svg>