<svg version="1.1" xmlns="http://www.w3.org/2000/svg" xmlns:xlink="http://www.w3.org/1999/xlink" width="720" height="540" viewBox="0,0,720,540"><defs><clipPath id="clip-1"><rect x="-240" y="-180" transform="scale(0.5,0.5)" width="1440" height="1080" fill="none" fill-rule="nonzero" stroke-width="0.5" stroke-linecap="butt"/></clipPath></defs><g transform="translate(120,90)"><g clip-path="url(#clip-1)" data-paper-data="{&quot;isPaintingLayer&quot;:true}" stroke="none" stroke-linejoin="miter" stroke-miterlimit="10" stroke-dasharray="" stroke-dashoffset="0" style="mix-blend-mode: normal"><path d="M43.81267,81.45038v0c0,-8.96665 7.26891,-16.23556 16.23556,-16.23556h348.48703c4.30594,0 8.43553,1.71053 11.48028,4.75528c3.04478,3.04477 4.75528,7.17434 4.75528,11.48028v230.19757c0,8.96665 -7.26891,16.23556 -16.23556,16.23556h-348.48703v0c-8.96665,0 -16.23556,-7.26891 -16.23556,-16.23556z" fill-opacity="0.64516" fill="#1d1d1d" fill-rule="evenodd" stroke-width="1" stroke-linecap="square"/><path d="M-240,-180h960v720h-960z" fill-opacity="0" fill="#000000" fill-rule="evenodd" stroke-width="1" stroke-linecap="square"/><path d="M57.10782,87.7494v-13.0625h3.17188v10.26563h5.82813v2.79688zM72.4399,87.9369c-1.03125,0 -1.94791,-0.22396 -2.75,-0.67187c-0.80209,-0.44791 -1.4375,-1.05729 -1.90625,-1.82812c-0.45834,-0.77083 -0.6875,-1.65625 -0.6875,-2.65625c0,-0.98958 0.22916,-1.86979 0.6875,-2.64062c0.46875,-0.77083 1.10416,-1.38021 1.90625,-1.82812c0.80209,-0.44791 1.71875,-0.67187 2.75,-0.67187c1.03125,0 1.94791,0.22396 2.75,0.67188c0.80208,0.44792 1.43229,1.05729 1.89063,1.82813c0.46875,0.77084 0.70313,1.65104 0.70313,2.64063c0,1 -0.23437,1.88542 -0.70312,2.65625c-0.45834,0.77084 -1.08854,1.38021 -1.89062,1.82813c-0.80209,0.44792 -1.71875,0.67188 -2.75,0.67188zM72.4399,85.35877c0.44791,0 0.84375,-0.10937 1.1875,-0.32812c0.35416,-0.22916 0.63021,-0.53646 0.82813,-0.92187c0.19791,-0.38541 0.29166,-0.82812 0.28125,-1.32812c0.01041,-0.48958 -0.08334,-0.93229 -0.28125,-1.32812c-0.19792,-0.39583 -0.47396,-0.70312 -0.82812,-0.92187c-0.34375,-0.22916 -0.73959,-0.34375 -1.1875,-0.34375c-0.44792,0 -0.84896,0.11459 -1.20312,0.34375c-0.35416,0.21875 -0.63021,0.52604 -0.82812,0.92188c-0.19791,0.39584 -0.29166,0.83854 -0.28125,1.32813c-0.01041,0.5 0.08334,0.94271 0.28125,1.32813c0.19791,0.38542 0.47396,0.69271 0.82813,0.92188c0.35416,0.21875 0.75521,0.32813 1.20313,0.32813zM83.39856,87.92127c-0.83333,0 -1.57812,-0.21875 -2.23437,-0.65625c-0.65625,-0.44791 -1.17708,-1.05729 -1.5625,-1.82812c-0.38541,-0.78125 -0.57812,-1.66666 -0.57812,-2.65625c0,-1 0.19271,-1.88541 0.57813,-2.65625c0.38542,-0.77083 0.91146,-1.375 1.57813,-1.8125c0.67709,-0.44791 1.44792,-0.67187 2.3125,-0.67187c0.46875,0 0.89584,0.06771 1.28125,0.20313c0.39584,0.13542 0.74479,0.32813 1.04688,0.57813c0.30209,0.23959 0.55729,0.52084 0.76563,0.84375c0.20834,0.3125 0.36459,0.64584 0.46875,1l-0.625,-0.07812v-2.34375h2.96875v9.90625h-3.01562v-2.39062l0.67188,-0.01562c-0.10416,0.34375 -0.27083,0.67188 -0.5,0.98438c-0.21875,0.3125 -0.48958,0.58854 -0.8125,0.82813c-0.32291,0.22917 -0.68229,0.41667 -1.07812,0.5625c-0.39583,0.13542 -0.81771,0.20313 -1.26562,0.20313zM84.21106,85.40565c0.46875,0 0.86979,-0.10416 1.20313,-0.3125c0.33334,-0.21875 0.59375,-0.52083 0.78125,-0.90625c0.1875,-0.39583 0.28125,-0.86458 0.28125,-1.40625c0,-0.53125 -0.09375,-0.98958 -0.28125,-1.375c-0.1875,-0.39583 -0.44791,-0.70312 -0.78125,-0.92187c-0.33333,-0.21875 -0.73437,-0.32812 -1.20312,-0.32812c-0.44791,0 -0.83854,0.10938 -1.17187,0.32813c-0.32291,0.21875 -0.57812,0.52604 -0.76562,0.92188c-0.1875,0.38542 -0.28125,0.84375 -0.28125,1.375c0,0.54167 0.09375,1.01042 0.28125,1.40625c0.1875,0.38542 0.44271,0.6875 0.76563,0.90625c0.33334,0.20834 0.72396,0.3125 1.17188,0.3125zM95.78678,87.95252c-0.86459,0 -1.63021,-0.21875 -2.29687,-0.65625c-0.65625,-0.44791 -1.17709,-1.05729 -1.5625,-1.82812c-0.38542,-0.78125 -0.57812,-1.66666 -0.57812,-2.65625c0,-1 0.19271,-1.88541 0.57813,-2.65625c0.38541,-0.78125 0.91146,-1.39583 1.57813,-1.84375c0.67708,-0.44791 1.44791,-0.67187 2.3125,-0.67187c0.44791,0 0.875,0.06771 1.28125,0.20313c0.41666,0.13542 0.79166,0.32292 1.125,0.5625c0.33333,0.22917 0.60416,0.5 0.8125,0.8125c0.21875,0.30209 0.34896,0.61459 0.39063,0.9375l-0.71875,0.17188v-6.39062h3v13.8125h-2.76562l-0.17187,-2.25l0.59375,0.07813c-0.04167,0.3125 -0.16667,0.61459 -0.375,0.90625c-0.19792,0.28125 -0.45834,0.53125 -0.78125,0.75c-0.32292,0.21875 -0.69271,0.39063 -1.10937,0.51563c-0.41667,0.13542 -0.85417,0.20313 -1.3125,0.20313zM96.5524,85.46815c0.45833,0 0.85416,-0.10937 1.1875,-0.32812c0.33333,-0.22916 0.58854,-0.54166 0.76563,-0.9375c0.1875,-0.39583 0.28125,-0.85937 0.28125,-1.39062c0,-0.55208 -0.09375,-1.02604 -0.28125,-1.42187c-0.17709,-0.39583 -0.43229,-0.70312 -0.76562,-0.92187c-0.33334,-0.22916 -0.72917,-0.34375 -1.1875,-0.34375c-0.45834,0 -0.85417,0.11459 -1.1875,0.34375c-0.33334,0.21875 -0.59375,0.52604 -0.78125,0.92188c-0.1875,0.39584 -0.28125,0.86979 -0.28125,1.42188c0,0.53125 0.09375,0.99479 0.28125,1.39063c0.1875,0.39584 0.44791,0.70834 0.78125,0.9375c0.33333,0.21875 0.72916,0.32813 1.1875,0.32813z" fill="#ffffff" fill-rule="nonzero" stroke-width="1" stroke-linecap="square"/></g></g></svg>