<svg version="1.1" xmlns="http://www.w3.org/2000/svg" xmlns:xlink="http://www.w3.org/1999/xlink" width="2.93792" height="14.20727" viewBox="0,0,2.93792,14.20727"><g transform="translate(-238.53104,-172.89637)"><g data-paper-data="{&quot;isPaintingLayer&quot;:true}" fill="#ffffff" fill-rule="nonzero" stroke="none" stroke-width="1" stroke-linecap="square" stroke-linejoin="miter" stroke-miterlimit="10" stroke-dasharray="" stroke-dashoffset="0" style="mix-blend-mode: normal"><path d="M240,187.10363c-0.4385,0 -0.78929,-0.14616 -1.05239,-0.4385c-0.27771,-0.30695 -0.41657,-0.7016 -0.41657,-1.18394c0,-0.51158 0.13155,-0.90623 0.39465,-1.18394c0.24849,-0.29233 0.60659,-0.4385 1.07432,-0.4385c0.4385,0 0.7966,0.15347 1.07432,0.46042c0.2631,0.30695 0.39465,0.69428 0.39465,1.16201c0,0.5262 -0.12424,0.92815 -0.37272,1.20586c-0.2631,0.27771 -0.62851,0.41657 -1.09624,0.41657zM240,176.14124c-0.4385,0 -0.78929,-0.14616 -1.05239,-0.4385c-0.27771,-0.30695 -0.41657,-0.7016 -0.41657,-1.18394c0,-0.51158 0.13155,-0.90623 0.39465,-1.18394c0.24849,-0.29233 0.60659,-0.4385 1.07432,-0.4385c0.4385,0 0.7966,0.15347 1.07432,0.46042c0.2631,0.30695 0.39465,0.69428 0.39465,1.16202c0,0.5262 -0.12424,0.92815 -0.37272,1.20586c-0.2631,0.27771 -0.62851,0.41657 -1.09624,0.41657z"/></g></g></svg>