<svg version="1.1" xmlns="http://www.w3.org/2000/svg" xmlns:xlink="http://www.w3.org/1999/xlink" width="168.90006" height="172.59017" viewBox="0,0,168.90006,172.59017"><g transform="translate(-95.33598,-62.07958)"><g data-paper-data="{&quot;isPaintingLayer&quot;:true}" stroke-linejoin="miter" stroke-miterlimit="10" stroke-dasharray="" stroke-dashoffset="0" style="mix-blend-mode: normal"><path d="M180.12409,69.41285l2.40923,-6.23563h0.98457l2.39431,6.23563h-1.02187l-1.42465,-3.75928c-0.01988,-0.03978 -0.0547,-0.13923 -0.10442,-0.29835c-0.04972,-0.1641 -0.10939,-0.34311 -0.17901,-0.53704c-0.06464,-0.1989 -0.12432,-0.37791 -0.17901,-0.53704c-0.04972,-0.1641 -0.08453,-0.27101 -0.10442,-0.32073l0.20885,-0.00746c-0.03481,0.09946 -0.07956,0.22625 -0.13427,0.3804c-0.04972,0.15415 -0.10194,0.31825 -0.15664,0.49229c-0.0547,0.17404 -0.10939,0.33814 -0.1641,0.49229c-0.0547,0.14918 -0.09946,0.27349 -0.13427,0.37295l-1.41719,3.72199zM181.19071,67.8614l0.35803,-0.9249h2.83438l0.41024,0.9249zM186.77592,71.37453v-6.63841h0.9249v1.06662l-0.14172,-0.07459c0.03481,-0.17901 0.13427,-0.35057 0.29835,-0.51466c0.16906,-0.1641 0.37295,-0.29835 0.61163,-0.40279c0.24366,-0.10442 0.49229,-0.15664 0.74589,-0.15664c0.42267,0 0.79562,0.10442 1.11884,0.31328c0.3282,0.20885 0.58677,0.49477 0.77572,0.85778c0.19393,0.363 0.29089,0.77821 0.29089,1.24564c0,0.46245 -0.09447,0.87766 -0.28344,1.24564c-0.18896,0.363 -0.44754,0.65141 -0.77572,0.86523c-0.32322,0.20885 -0.6887,0.31328 -1.09646,0.31328c-0.27349,0 -0.53953,-0.0547 -0.7981,-0.1641c-0.25361,-0.10939 -0.46991,-0.25112 -0.64892,-0.42516c-0.17901,-0.17404 -0.2884,-0.35305 -0.3282,-0.53704l0.23123,-0.11934v3.12528zM189.08818,68.64458c0.27349,0 0.51715,-0.06713 0.73097,-0.20138c0.21382,-0.13923 0.38289,-0.32571 0.50721,-0.55941c0.12432,-0.23869 0.18647,-0.5097 0.18647,-0.81302c0,-0.30333 -0.06215,-0.57185 -0.18647,-0.80556c-0.11934,-0.23371 -0.28593,-0.4177 -0.49975,-0.55196c-0.20885,-0.13923 -0.45499,-0.20885 -0.73843,-0.20885c-0.27846,0 -0.52461,0.06713 -0.73843,0.20138c-0.21382,0.13427 -0.38289,0.32073 -0.50721,0.55941c-0.12432,0.23371 -0.18647,0.50223 -0.18647,0.80556c0,0.30333 0.06215,0.57433 0.18647,0.81302c0.12432,0.23371 0.29338,0.42019 0.50721,0.55941c0.21382,0.13427 0.45997,0.20138 0.73843,0.20138zM192.39556,71.37453v-6.63841h0.9249v1.06662l-0.14172,-0.07459c0.03481,-0.17901 0.13427,-0.35057 0.29835,-0.51466c0.16906,-0.1641 0.37295,-0.29835 0.61163,-0.40279c0.24366,-0.10442 0.49229,-0.15664 0.74589,-0.15664c0.42267,0 0.79562,0.10442 1.11884,0.31328c0.3282,0.20885 0.58677,0.49477 0.77572,0.85778c0.19393,0.363 0.29089,0.77821 0.29089,1.24564c0,0.46245 -0.09447,0.87766 -0.28344,1.24564c-0.18896,0.363 -0.44754,0.65141 -0.77572,0.86523c-0.32322,0.20885 -0.6887,0.31328 -1.09646,0.31328c-0.27349,0 -0.53953,-0.0547 -0.7981,-0.1641c-0.25361,-0.10939 -0.46991,-0.25112 -0.64892,-0.42516c-0.17901,-0.17404 -0.2884,-0.35305 -0.3282,-0.53704l0.23123,-0.11934v3.12528zM194.70782,68.64458c0.27349,0 0.51715,-0.06713 0.73097,-0.20138c0.21382,-0.13923 0.38289,-0.32571 0.50721,-0.55941c0.12432,-0.23869 0.18647,-0.5097 0.18647,-0.81302c0,-0.30333 -0.06215,-0.57185 -0.18647,-0.80556c-0.11934,-0.23371 -0.28593,-0.4177 -0.49975,-0.55196c-0.20885,-0.13923 -0.45499,-0.20885 -0.73843,-0.20885c-0.27846,0 -0.52461,0.06713 -0.73843,0.20138c-0.21382,0.13427 -0.38289,0.32073 -0.50721,0.55941c-0.12432,0.23371 -0.18647,0.50223 -0.18647,0.80556c0,0.30333 0.06215,0.57433 0.18647,0.81302c0.12432,0.23371 0.29338,0.42019 0.50721,0.55941c0.21382,0.13427 0.45997,0.20138 0.73843,0.20138zM202.66447,69.50236c-0.33814,0 -0.65141,-0.04476 -0.93982,-0.13427c-0.2884,-0.08951 -0.54947,-0.22377 -0.78319,-0.40279c-0.23371,-0.18398 -0.44256,-0.40775 -0.62655,-0.6713l0.65638,-0.76081c0.29338,0.4177 0.57185,0.70611 0.83539,0.86523c0.26852,0.15912 0.58677,0.23869 0.95474,0.23869c0.22377,0 0.42764,-0.03481 0.61163,-0.10442c0.18398,-0.07459 0.3282,-0.17404 0.43262,-0.29835c0.10939,-0.12432 0.1641,-0.26603 0.1641,-0.42516c0,-0.10442 -0.0174,-0.20387 -0.05221,-0.29835c-0.03481,-0.09946 -0.08951,-0.18647 -0.1641,-0.26106c-0.07459,-0.07956 -0.16906,-0.15166 -0.28344,-0.2163c-0.11437,-0.06464 -0.24863,-0.12183 -0.40279,-0.17155c-0.15415,-0.04972 -0.33316,-0.09199 -0.53704,-0.1268c-0.31825,-0.06962 -0.59671,-0.15664 -0.83539,-0.26106c-0.23869,-0.10939 -0.43759,-0.24366 -0.59671,-0.40279c-0.15912,-0.15912 -0.27846,-0.34063 -0.35803,-0.5445c-0.07956,-0.20387 -0.11934,-0.43511 -0.11934,-0.69368c0,-0.24863 0.0547,-0.47986 0.1641,-0.69368c0.11437,-0.21382 0.26603,-0.3978 0.45499,-0.55196c0.19393,-0.15912 0.42019,-0.28095 0.67876,-0.36548c0.26355,-0.08951 0.54699,-0.13427 0.85031,-0.13427c0.32322,0 0.6166,0.04227 0.88015,0.1268c0.26852,0.08453 0.50721,0.20885 0.71605,0.37295c0.20885,0.15912 0.3804,0.35803 0.51466,0.59671l-0.67876,0.6713c-0.11437,-0.1989 -0.24614,-0.363 -0.39532,-0.49229c-0.14918,-0.13427 -0.31328,-0.2362 -0.49229,-0.30581c-0.17901,-0.06962 -0.36797,-0.10442 -0.56688,-0.10442c-0.23371,0 -0.43759,0.0373 -0.61163,0.11188c-0.16906,0.06962 -0.30333,0.16906 -0.40279,0.29835c-0.09946,0.12432 -0.14918,0.27349 -0.14918,0.44754c0,0.12432 0.02487,0.23869 0.07459,0.34311c0.04972,0.10442 0.12183,0.19642 0.2163,0.27598c0.09946,0.07956 0.23123,0.15166 0.39532,0.2163c0.16906,0.05967 0.36797,0.11188 0.59671,0.15664c0.3282,0.07459 0.61909,0.16659 0.87269,0.27598c0.25857,0.10939 0.47488,0.23869 0.64892,0.38786c0.17901,0.14918 0.31328,0.31576 0.40279,0.49975c0.09447,0.18398 0.14172,0.38289 0.14172,0.59671c0,0.3978 -0.09199,0.7434 -0.27598,1.03679c-0.18398,0.2884 -0.44505,0.51218 -0.78319,0.6713c-0.33814,0.15415 -0.74092,0.23123 -1.20834,0.23123zM208.24415,69.50236c-0.47737,0 -0.90253,-0.10194 -1.27547,-0.30581c-0.36797,-0.20387 -0.65887,-0.48482 -0.87269,-0.84285c-0.20885,-0.35803 -0.31328,-0.76827 -0.31328,-1.23072c0,-0.36797 0.05967,-0.70363 0.17901,-1.00695c0.11934,-0.30333 0.28344,-0.56439 0.49229,-0.78319c0.20885,-0.22377 0.45997,-0.39532 0.75335,-0.51466c0.29835,-0.12432 0.61909,-0.18647 0.9622,-0.18647c0.30333,0 0.58428,0.05719 0.84285,0.17155c0.26355,0.11437 0.4898,0.27349 0.67876,0.47737c0.19393,0.20387 0.34311,0.44505 0.44754,0.72351c0.10442,0.27349 0.15415,0.57185 0.14918,0.89506l-0.00746,0.39532h-3.81895l-0.20885,-0.73097h3.2297l-0.1268,0.14918v-0.20885c-0.01988,-0.1989 -0.08702,-0.37543 -0.20138,-0.52958c-0.10939,-0.15415 -0.25112,-0.27598 -0.42516,-0.36548c-0.17404,-0.08951 -0.36052,-0.13427 -0.55941,-0.13427c-0.32322,0 -0.59422,0.06215 -0.81302,0.18647c-0.2188,0.11934 -0.38537,0.29835 -0.49975,0.53704c-0.10939,0.23371 -0.1641,0.52213 -0.1641,0.86523c0,0.32322 0.06713,0.60666 0.20138,0.85031c0.13427,0.23869 0.32571,0.42516 0.57433,0.55941c0.25361,0.12929 0.54201,0.19393 0.86523,0.19393c0.23371,0 0.45002,-0.0373 0.64892,-0.11188c0.1989,-0.07956 0.41522,-0.22128 0.64892,-0.42516l0.46245,0.64892c-0.14421,0.14421 -0.31825,0.27101 -0.52213,0.3804c-0.20387,0.10442 -0.42019,0.18896 -0.64892,0.25361c-0.22874,0.05967 -0.45499,0.08951 -0.67876,0.08951zM211.86682,69.41285v-5.87015h0.91744v5.87015zM210.88971,65.63118v-0.89506h2.97609v0.89506zM215.28669,69.41285v-5.87015h0.91744v5.87015zM214.30958,65.63118v-0.89506h2.97609v0.89506zM218.27395,69.41285v-4.67672h0.91744v4.67672zM218.72149,63.7068c-0.19393,0 -0.3456,-0.04972 -0.45499,-0.14918c-0.10442,-0.10442 -0.15664,-0.24863 -0.15664,-0.43262c0,-0.17404 0.0547,-0.31328 0.1641,-0.4177c0.10939,-0.10939 0.25857,-0.1641 0.44754,-0.1641c0.19393,0 0.34311,0.05221 0.44754,0.15664c0.10939,0.09946 0.1641,0.24117 0.1641,0.42516c0,0.17404 -0.0547,0.31576 -0.1641,0.42516c-0.10939,0.10442 -0.25857,0.15664 -0.44754,0.15664zM220.60062,69.41285v-4.67672h0.91744v0.9622l-0.1641,0.10442c0.05967,-0.20387 0.17653,-0.39284 0.35057,-0.56688c0.17404,-0.17901 0.37791,-0.32322 0.61163,-0.43262c0.23869,-0.10939 0.48234,-0.1641 0.73097,-0.1641c0.35803,0 0.6539,0.06962 0.88761,0.20885c0.23869,0.13923 0.4177,0.35305 0.53704,0.64147c0.11934,0.28344 0.17901,0.64147 0.17901,1.07408v2.8493h-0.91744v-2.78963c0,-0.26355 -0.03481,-0.48234 -0.10442,-0.65638c-0.06962,-0.17901 -0.17901,-0.3083 -0.3282,-0.38786c-0.14918,-0.07956 -0.33316,-0.11437 -0.55196,-0.10442c-0.17901,0 -0.34311,0.02983 -0.49229,0.08951c-0.14918,0.0547 -0.27846,0.13427 -0.38786,0.23869c-0.10939,0.09946 -0.19642,0.2163 -0.26106,0.35057c-0.05967,0.12929 -0.08951,0.27101 -0.08951,0.42516v2.83438h-0.45499c-0.07459,0 -0.15166,0 -0.23123,0c-0.07956,0 -0.15664,0 -0.23123,0zM227.99558,71.46404c-0.33316,0 -0.66633,-0.05221 -0.99949,-0.15664c-0.3282,-0.10442 -0.59173,-0.24117 -0.79064,-0.41024l0.33565,-0.7086c0.11934,0.08951 0.25857,0.16659 0.4177,0.23123c0.15912,0.06962 0.3282,0.12432 0.50721,0.1641c0.17901,0.03978 0.35554,0.05967 0.52958,0.05967c0.32322,0 0.59422,-0.0547 0.81302,-0.1641c0.22377,-0.10442 0.39035,-0.26106 0.49975,-0.46991c0.11437,-0.20885 0.17155,-0.46742 0.17155,-0.77572v-0.89506l0.09696,0.05967c-0.02983,0.18398 -0.1268,0.36052 -0.29089,0.52958c-0.1641,0.16906 -0.36797,0.3083 -0.61163,0.4177c-0.23869,0.10442 -0.48731,0.15664 -0.74589,0.15664c-0.44256,0 -0.83789,-0.10442 -1.18597,-0.31328c-0.34808,-0.21382 -0.62405,-0.50223 -0.82794,-0.86523c-0.1989,-0.36797 -0.29835,-0.78567 -0.29835,-1.25309c0,-0.46742 0.09946,-0.88264 0.29835,-1.24564c0.1989,-0.36797 0.46991,-0.65638 0.81302,-0.86523c0.34808,-0.21382 0.74092,-0.32073 1.1785,-0.32073c0.17404,0 0.34311,0.02238 0.50721,0.06713c0.16906,0.04476 0.32571,0.10691 0.46991,0.18647c0.14421,0.07956 0.27101,0.16659 0.3804,0.26106c0.11437,0.09447 0.20637,0.19642 0.27598,0.30581c0.07459,0.10442 0.11934,0.20387 0.13427,0.29835l-0.19393,0.07459v-1.09646h0.91744v4.39329c0,0.37295 -0.0547,0.70363 -0.1641,0.99203c-0.10939,0.2884 -0.26852,0.53207 -0.47737,0.73097c-0.20885,0.1989 -0.46245,0.35057 -0.76081,0.45499c-0.29338,0.10442 -0.62655,0.15664 -0.99949,0.15664zM228.02542,68.6595c0.29338,0 0.55196,-0.06713 0.77572,-0.20138c0.22874,-0.13923 0.40527,-0.3282 0.52958,-0.56688c0.12432,-0.23869 0.18647,-0.51218 0.18647,-0.82047c0,-0.3083 -0.06464,-0.58179 -0.19393,-0.82047c-0.12929,-0.24366 -0.30581,-0.43262 -0.52958,-0.56688c-0.2188,-0.13923 -0.47488,-0.20885 -0.76827,-0.20885c-0.28344,0 -0.53704,0.06962 -0.76081,0.20885c-0.22377,0.13923 -0.40029,0.33068 -0.52958,0.57433c-0.12432,0.23869 -0.18647,0.5097 -0.18647,0.81302c0,0.30333 0.06215,0.57682 0.18647,0.82047c0.12929,0.23869 0.30581,0.42764 0.52958,0.56688c0.22377,0.13427 0.47737,0.20138 0.76081,0.20138zM233.14937,69.50236c-0.39284,0 -0.74589,-0.06713 -1.05916,-0.20138c-0.31328,-0.13923 -0.57433,-0.34311 -0.78319,-0.61163l0.61909,-0.52958c0.17901,0.20387 0.37295,0.35305 0.58179,0.44754c0.21382,0.08951 0.45499,0.13427 0.72351,0.13427c0.10442,0 0.20138,-0.01243 0.29089,-0.0373c0.09447,-0.02487 0.17653,-0.06464 0.24614,-0.11934c0.06962,-0.0547 0.12183,-0.11934 0.15664,-0.19393c0.03481,-0.07459 0.05221,-0.15664 0.05221,-0.24614c0,-0.15415 -0.05719,-0.27846 -0.17155,-0.37295c-0.05967,-0.03978 -0.15415,-0.08453 -0.28344,-0.13427c-0.12432,-0.04972 -0.2884,-0.10194 -0.49229,-0.15664c-0.34311,-0.08951 -0.62405,-0.18896 -0.84285,-0.29835c-0.2188,-0.11437 -0.38786,-0.24366 -0.50721,-0.38786c-0.08951,-0.11437 -0.15664,-0.2362 -0.20138,-0.36548c-0.03978,-0.13427 -0.05967,-0.28344 -0.05967,-0.44754c0,-0.19393 0.04227,-0.37295 0.1268,-0.53704c0.08951,-0.1641 0.20885,-0.30581 0.35803,-0.42516c0.15415,-0.12432 0.33316,-0.2188 0.53704,-0.28344c0.20387,-0.06464 0.42267,-0.09696 0.65638,-0.09696c0.2188,0 0.43511,0.02983 0.64892,0.08951c0.2188,0.05967 0.42019,0.14669 0.60417,0.26106c0.18398,0.10939 0.33814,0.24117 0.46245,0.39532l-0.52213,0.58179c-0.11437,-0.11437 -0.23869,-0.21382 -0.37295,-0.29835c-0.13427,-0.08453 -0.27101,-0.14918 -0.41024,-0.19393c-0.13427,-0.04972 -0.25609,-0.07459 -0.36548,-0.07459c-0.12432,0 -0.23869,0.01243 -0.34311,0.0373c-0.09946,0.01988 -0.18398,0.0547 -0.25361,0.10442c-0.06464,0.04476 -0.11686,0.10442 -0.15664,0.17901c-0.03481,0.06962 -0.05221,0.14918 -0.05221,0.23869c0.00497,0.07459 0.02487,0.14669 0.05967,0.2163c0.03481,0.06962 0.08204,0.1268 0.14172,0.17155c0.06464,0.04972 0.16161,0.10194 0.29089,0.15664c0.12929,0.04972 0.29588,0.09946 0.49975,0.14918c0.29338,0.07459 0.53704,0.15912 0.73097,0.25361c0.19393,0.08951 0.34808,0.19393 0.46245,0.31328c0.11934,0.11437 0.20138,0.24614 0.24614,0.39532c0.04972,0.14918 0.07459,0.31576 0.07459,0.49975c0,0.26355 -0.07708,0.50223 -0.23123,0.71605c-0.14918,0.20885 -0.35305,0.37295 -0.61163,0.49229c-0.25361,0.11934 -0.53704,0.17901 -0.85031,0.17901z" fill="#ffffff" fill-rule="nonzero" stroke="none" stroke-width="1" stroke-linecap="square"/><path d="M182.39519,78.25972c-0.37704,0 -0.71521,-0.08163 -1.01451,-0.24488c-0.29541,-0.16714 -0.52863,-0.39453 -0.69967,-0.68218c-0.16714,-0.29153 -0.25071,-0.61998 -0.25071,-0.98535v-3.00854h0.75214v2.94441c0,0.2371 0.05442,0.4509 0.16326,0.64136c0.11272,0.18658 0.26042,0.33622 0.44312,0.44895c0.18658,0.10884 0.3887,0.16326 0.60637,0.16326c0.22933,0 0.43729,-0.05442 0.62387,-0.16326c0.19046,-0.11272 0.34206,-0.26237 0.45478,-0.44895c0.11272,-0.19046 0.16909,-0.40425 0.16909,-0.64136v-2.94441h0.71131v3.00854c0,0.36538 -0.08551,0.69383 -0.25654,0.98535c-0.16714,0.28763 -0.40037,0.51503 -0.69967,0.68218c-0.29541,0.16326 -0.6297,0.24488 -1.00284,0.24488zM185.47114,78.21891v-3.65573h0.71716v0.75214l-0.12827,0.08163c0.04665,-0.15937 0.13799,-0.30707 0.27404,-0.44312c0.13605,-0.13994 0.29541,-0.25265 0.47811,-0.33817c0.18658,-0.08551 0.37704,-0.12827 0.57139,-0.12827c0.27986,0 0.51114,0.05442 0.69383,0.16326c0.18658,0.10884 0.32651,0.27598 0.4198,0.50142c0.09329,0.22156 0.13994,0.50142 0.13994,0.83959v2.22725h-0.71716v-2.18062c0,-0.20602 -0.02721,-0.37704 -0.08163,-0.51309c-0.05442,-0.13994 -0.13994,-0.241 -0.25654,-0.30319c-0.11661,-0.06219 -0.26042,-0.0894 -0.43145,-0.08163c-0.13994,0 -0.2682,0.02332 -0.38481,0.06997c-0.11661,0.04276 -0.21767,0.10495 -0.30319,0.18658c-0.08551,0.07774 -0.15354,0.16909 -0.20407,0.27404c-0.04665,0.10106 -0.06997,0.21184 -0.06997,0.33234v2.21559h-0.35566c-0.0583,0 -0.11855,0 -0.18075,0c-0.06219,0 -0.12244,0 -0.18075,0zM189.72992,78.21891v-3.65573h0.71716v3.65573zM190.07975,73.75857c-0.15159,0 -0.27014,-0.03887 -0.35566,-0.11661c-0.08163,-0.08163 -0.12244,-0.19435 -0.12244,-0.33817c0,-0.13605 0.04276,-0.24488 0.12827,-0.32651c0.08551,-0.08551 0.20212,-0.12827 0.34983,-0.12827c0.15159,0 0.2682,0.04081 0.34983,0.12244c0.08551,0.07774 0.12827,0.18852 0.12827,0.33234c0,0.13605 -0.04276,0.24683 -0.12827,0.33234c-0.08551,0.08163 -0.20212,0.12244 -0.34983,0.12244zM191.54864,78.21891v-3.65573h0.71716v0.75214l-0.12827,0.08163c0.04665,-0.15937 0.13799,-0.30707 0.27404,-0.44312c0.13605,-0.13994 0.29541,-0.25265 0.47811,-0.33817c0.18658,-0.08551 0.37704,-0.12827 0.57139,-0.12827c0.27986,0 0.51114,0.05442 0.69383,0.16326c0.18658,0.10884 0.32651,0.27598 0.4198,0.50142c0.09329,0.22156 0.13994,0.50142 0.13994,0.83959v2.22725h-0.71716v-2.18062c0,-0.20602 -0.02721,-0.37704 -0.08163,-0.51309c-0.05442,-0.13994 -0.13994,-0.241 -0.25654,-0.30319c-0.11661,-0.06219 -0.26042,-0.0894 -0.43145,-0.08163c-0.13994,0 -0.2682,0.02332 -0.38481,0.06997c-0.11661,0.04276 -0.21767,0.10495 -0.30319,0.18658c-0.08551,0.07774 -0.15354,0.16909 -0.20407,0.27404c-0.04665,0.10106 -0.06997,0.21184 -0.06997,0.33234v2.21559h-0.35566c-0.0583,0 -0.11855,0 -0.18075,0c-0.06219,0 -0.12244,0 -0.18075,0zM196.90938,78.28888c-0.30707,0 -0.58305,-0.05248 -0.82793,-0.15742c-0.24488,-0.10884 -0.44895,-0.2682 -0.61221,-0.47811l0.48393,-0.41396c0.13994,0.15937 0.29153,0.27598 0.45478,0.34983c0.16714,0.06997 0.35566,0.10495 0.56556,0.10495c0.08163,0 0.15742,-0.00972 0.22739,-0.02916c0.07385,-0.01944 0.13799,-0.05053 0.1924,-0.09329c0.05442,-0.04276 0.09523,-0.09329 0.12244,-0.15159c0.02721,-0.0583 0.04081,-0.12244 0.04081,-0.1924c0,-0.12049 -0.0447,-0.21767 -0.1341,-0.29153c-0.04665,-0.03109 -0.12049,-0.06608 -0.22156,-0.10495c-0.09718,-0.03887 -0.22545,-0.07969 -0.38481,-0.12244c-0.2682,-0.06997 -0.48782,-0.14771 -0.65885,-0.23323c-0.17103,-0.0894 -0.30319,-0.19046 -0.39647,-0.30319c-0.06997,-0.0894 -0.12244,-0.18463 -0.15742,-0.28569c-0.03109,-0.10495 -0.04665,-0.22156 -0.04665,-0.34983c0,-0.15159 0.03303,-0.29153 0.09912,-0.4198c0.06997,-0.12827 0.16326,-0.23905 0.27986,-0.33234c0.12049,-0.09718 0.26042,-0.17103 0.4198,-0.22156c0.15937,-0.05053 0.33039,-0.07579 0.51309,-0.07579c0.17103,0 0.34011,0.02332 0.50725,0.06997c0.17103,0.04665 0.32845,0.11467 0.47227,0.20407c0.14382,0.08551 0.26432,0.18852 0.36149,0.30902l-0.40814,0.45478c-0.0894,-0.0894 -0.18658,-0.16714 -0.29153,-0.23323c-0.10495,-0.06608 -0.21184,-0.11661 -0.32068,-0.15159c-0.10495,-0.03887 -0.20018,-0.0583 -0.28569,-0.0583c-0.09718,0 -0.18658,0.00972 -0.2682,0.02916c-0.07774,0.01554 -0.14382,0.04276 -0.19824,0.08163c-0.05053,0.03498 -0.09134,0.08163 -0.12244,0.13994c-0.02721,0.05442 -0.04081,0.11661 -0.04081,0.18658c0.00389,0.0583 0.01944,0.11467 0.04665,0.16909c0.02721,0.05442 0.06413,0.09912 0.11078,0.1341c0.05053,0.03887 0.12633,0.07969 0.22739,0.12244c0.10106,0.03887 0.23128,0.07774 0.39065,0.11661c0.22933,0.0583 0.4198,0.12438 0.57139,0.19824c0.15159,0.06997 0.27209,0.15159 0.36149,0.24488c0.09329,0.0894 0.15742,0.1924 0.1924,0.30902c0.03887,0.11661 0.0583,0.24683 0.0583,0.39065c0,0.20602 -0.06025,0.39259 -0.18075,0.55973c-0.11661,0.16326 -0.27598,0.29153 -0.47811,0.38481c-0.19824,0.09329 -0.4198,0.13994 -0.66468,0.13994zM199.4802,78.21891v-4.58861h0.71716v4.58861zM198.71641,75.26285v-0.69967h2.32637v0.69967zM203.06901,78.28888c-0.2993,0 -0.57334,-0.08357 -0.8221,-0.25071c-0.24877,-0.16714 -0.44895,-0.39453 -0.60054,-0.68218c-0.14771,-0.28763 -0.22156,-0.61221 -0.22156,-0.9737c0,-0.36927 0.07579,-0.69577 0.22739,-0.97953c0.15159,-0.28376 0.35566,-0.50725 0.61221,-0.67051c0.26042,-0.16326 0.55001,-0.24488 0.86875,-0.24488c0.19046,0 0.36344,0.02916 0.51891,0.08746c0.15937,0.05442 0.29735,0.13216 0.41396,0.23323c0.12049,0.09718 0.21767,0.21184 0.29153,0.344c0.07774,0.12827 0.12633,0.26626 0.14576,0.41396l-0.15742,-0.05248v-0.95037h0.72298v3.65573h-0.72298v-0.86875l0.16326,-0.05248c-0.02721,0.12827 -0.08357,0.25265 -0.16909,0.37315c-0.08551,0.11661 -0.19435,0.22156 -0.32651,0.31484c-0.13216,0.0894 -0.27792,0.16326 -0.43729,0.22156c-0.15937,0.05442 -0.32845,0.08163 -0.50725,0.08163zM203.25559,77.63003c0.22156,0 0.41396,-0.05248 0.57722,-0.15742c0.16714,-0.10884 0.29735,-0.25654 0.39065,-0.44312c0.09718,-0.19046 0.14576,-0.40619 0.14576,-0.64719c0,-0.2371 -0.04858,-0.44895 -0.14576,-0.63552c-0.09329,-0.18658 -0.22351,-0.33234 -0.39065,-0.43729c-0.16326,-0.10884 -0.35566,-0.16326 -0.57722,-0.16326c-0.21379,0 -0.4023,0.05442 -0.56556,0.16326c-0.16326,0.10495 -0.29347,0.25071 -0.39065,0.43729c-0.09329,0.18658 -0.13994,0.39842 -0.13994,0.63552c0,0.241 0.04665,0.45672 0.13994,0.64719c0.09718,0.18658 0.22739,0.33429 0.39065,0.44312c0.16326,0.10495 0.35178,0.15742 0.56556,0.15742zM206.08223,78.21891v-5.15417h0.71716v5.15417zM207.8296,78.21891v-5.15417h0.71716v5.15417zM209.6761,79.46664l-0.26237,-0.32068c0.15937,-0.09329 0.28958,-0.20018 0.39065,-0.32068c0.10495,-0.12049 0.15742,-0.22545 0.15742,-0.31484c0,-0.04665 -0.01167,-0.09134 -0.03498,-0.1341c-0.02332,-0.04276 -0.07191,-0.10495 -0.14576,-0.18658c-0.09329,-0.08551 -0.15354,-0.15937 -0.18075,-0.22156c-0.02721,-0.06219 -0.04081,-0.12633 -0.04081,-0.1924c0,-0.11272 0.03887,-0.20212 0.11661,-0.2682c0.07774,-0.06997 0.18075,-0.10495 0.30902,-0.10495c0.11272,0 0.21573,0.03498 0.30902,0.10495c0.09718,0.06608 0.17297,0.15937 0.22739,0.27986c0.05442,0.11661 0.08163,0.25071 0.08163,0.4023c0,0.13994 -0.02332,0.27404 -0.06997,0.4023c-0.04665,0.13216 -0.11272,0.25265 -0.19824,0.36149c-0.08163,0.11272 -0.1788,0.21379 -0.29153,0.30319c-0.10884,0.0894 -0.23128,0.15937 -0.36732,0.20989zM215.01752,78.28888c-0.3576,0 -0.67828,-0.08163 -0.96204,-0.24488c-0.27986,-0.16714 -0.50142,-0.39259 -0.66468,-0.67634c-0.15937,-0.28763 -0.23905,-0.61415 -0.23905,-0.97953c0,-0.36538 0.07969,-0.68995 0.23905,-0.9737c0.16326,-0.28763 0.38481,-0.51309 0.66468,-0.67634c0.28376,-0.16714 0.60443,-0.25071 0.96204,-0.25071c0.34983,0 0.66468,0.08357 0.94454,0.25071c0.28376,0.16326 0.50725,0.3887 0.67051,0.67634c0.16326,0.28376 0.24488,0.60832 0.24488,0.9737c0,0.36538 -0.08163,0.69189 -0.24488,0.97953c-0.16326,0.28376 -0.38676,0.50919 -0.67051,0.67634c-0.27986,0.16326 -0.59471,0.24488 -0.94454,0.24488zM215.01752,77.63587c0.21767,0 0.41202,-0.05442 0.58305,-0.16326c0.17103,-0.10884 0.30513,-0.25654 0.4023,-0.44312c0.09718,-0.19046 0.14382,-0.40425 0.13994,-0.64136c0.00389,-0.241 -0.04276,-0.45478 -0.13994,-0.64136c-0.09718,-0.19046 -0.23128,-0.33817 -0.4023,-0.44312c-0.17103,-0.10884 -0.36538,-0.16326 -0.58305,-0.16326c-0.21767,0 -0.41396,0.05442 -0.58888,0.16326c-0.17491,0.10884 -0.31096,0.25849 -0.40814,0.44895c-0.09718,0.18658 -0.14382,0.39842 -0.13994,0.63552c-0.00389,0.2371 0.04276,0.4509 0.13994,0.64136c0.09718,0.18658 0.23323,0.33429 0.40814,0.44312c0.17491,0.10884 0.37121,0.16326 0.58888,0.16326zM217.65472,78.21891v-3.65573h0.72298v1.14861l-0.06997,-0.27986c0.05053,-0.17491 0.13799,-0.33429 0.26237,-0.47811c0.12438,-0.14382 0.26626,-0.25654 0.42563,-0.33817c0.15937,-0.08551 0.32456,-0.12827 0.4956,-0.12827c0.07774,0 0.15159,0.00777 0.22156,0.02332c0.07385,0.01167 0.13216,0.02721 0.17491,0.04665l-0.18658,0.78128c-0.05442,-0.02332 -0.11661,-0.04276 -0.18658,-0.0583c-0.06608,-0.01944 -0.13216,-0.02916 -0.19824,-0.02916c-0.12438,0 -0.24293,0.02526 -0.35566,0.07579c-0.11272,0.04665 -0.21379,0.11467 -0.30319,0.20407c-0.08551,0.08551 -0.15354,0.18463 -0.20407,0.29735c-0.05053,0.11272 -0.07579,0.2371 -0.07579,0.37315v2.01736zM223.69223,78.28888c-0.26042,0 -0.48782,-0.06025 -0.68218,-0.18075c-0.19046,-0.12049 -0.33817,-0.28958 -0.44312,-0.50725c-0.10495,-0.21767 -0.15742,-0.47811 -0.15742,-0.78128v-2.25641h0.71716v2.064c0,0.20989 0.03303,0.39259 0.09912,0.54807c0.06997,0.15548 0.16714,0.27598 0.29153,0.36149c0.12827,0.08163 0.28376,0.12244 0.46644,0.12244c0.13216,0 0.2546,-0.02138 0.36732,-0.06413c0.11272,-0.04276 0.20989,-0.103 0.29153,-0.18075c0.08163,-0.08163 0.14382,-0.17686 0.18658,-0.28569c0.04665,-0.11272 0.06997,-0.23516 0.06997,-0.36732v-2.19811h0.71716v3.65573h-0.71716v-0.76379l0.12827,-0.08746c-0.05442,0.17491 -0.14771,0.33234 -0.27986,0.47227c-0.13216,0.13605 -0.28958,0.24488 -0.47227,0.32651c-0.18269,0.08163 -0.37704,0.12244 -0.58305,0.12244zM226.6213,79.75234v-5.18916h0.72298v0.83376l-0.11078,-0.0583c0.02721,-0.13994 0.10495,-0.27404 0.23323,-0.4023c0.13216,-0.12827 0.29153,-0.23323 0.47811,-0.31484c0.19046,-0.08163 0.38481,-0.12244 0.58305,-0.12244c0.33039,0 0.62192,0.08163 0.87458,0.24488c0.25654,0.16326 0.45867,0.38676 0.60637,0.67051c0.15159,0.28376 0.22739,0.60832 0.22739,0.9737c0,0.36149 -0.07385,0.68605 -0.22156,0.9737c-0.14771,0.28376 -0.34983,0.50919 -0.60637,0.67634c-0.25265,0.16326 -0.53835,0.24488 -0.85708,0.24488c-0.21379,0 -0.42174,-0.04276 -0.62387,-0.12827c-0.19824,-0.08551 -0.36732,-0.1963 -0.50725,-0.33234c-0.13994,-0.13605 -0.22545,-0.27598 -0.25654,-0.4198l0.18075,-0.09329v2.44299zM228.42875,77.61838c0.21379,0 0.40425,-0.05248 0.57139,-0.15742c0.16714,-0.10884 0.2993,-0.2546 0.39647,-0.43729c0.09718,-0.18658 0.14576,-0.39842 0.14576,-0.63552c0,-0.2371 -0.04858,-0.447 -0.14576,-0.6297c-0.09329,-0.18269 -0.22351,-0.32651 -0.39065,-0.43145c-0.16326,-0.10884 -0.35566,-0.16326 -0.57722,-0.16326c-0.21767,0 -0.41008,0.05248 -0.57722,0.15742c-0.16714,0.10495 -0.2993,0.25071 -0.39647,0.43729c-0.09718,0.18269 -0.14576,0.39259 -0.14576,0.6297c0,0.2371 0.04858,0.44895 0.14576,0.63552c0.09718,0.18269 0.22933,0.32845 0.39647,0.43729c0.16714,0.10495 0.35955,0.15742 0.57722,0.15742zM232.53585,78.28888c-0.33429,0 -0.63164,-0.08163 -0.89207,-0.24488c-0.26042,-0.16714 -0.46839,-0.39259 -0.62387,-0.67634c-0.15159,-0.28763 -0.22739,-0.61415 -0.22739,-0.97953c0,-0.36538 0.07385,-0.68995 0.22156,-0.9737c0.15159,-0.28763 0.3576,-0.51309 0.61803,-0.67634c0.26042,-0.16714 0.55585,-0.25071 0.88624,-0.25071c0.1788,0 0.35371,0.02916 0.52474,0.08746c0.17103,0.0583 0.32262,0.13799 0.45478,0.23905c0.13605,0.09718 0.241,0.20602 0.31484,0.32651c0.07774,0.11661 0.11661,0.23516 0.11661,0.35566l-0.20989,0.01749v-2.44881h0.71716v5.15417h-0.71716v-0.86875h0.13994c0,0.10884 -0.03693,0.21961 -0.11078,0.33234c-0.07385,0.10884 -0.17297,0.20989 -0.29735,0.30319c-0.12049,0.0894 -0.26237,0.16326 -0.42563,0.22156c-0.15937,0.05442 -0.32262,0.08163 -0.48976,0.08163zM232.63497,77.67084c0.21767,0 0.41008,-0.05636 0.57722,-0.16909c0.16714,-0.11272 0.29735,-0.26432 0.39065,-0.45478c0.09718,-0.19435 0.14576,-0.41396 0.14576,-0.65885c0,-0.24488 -0.04858,-0.46256 -0.14576,-0.65302c-0.09329,-0.19435 -0.22351,-0.34789 -0.39065,-0.46061c-0.16714,-0.11272 -0.35955,-0.16909 -0.57722,-0.16909c-0.21767,0 -0.41008,0.05636 -0.57722,0.16909c-0.16714,0.11272 -0.2993,0.26626 -0.39647,0.46061c-0.09329,0.19046 -0.13994,0.40814 -0.13994,0.65302c0,0.24488 0.04665,0.46449 0.13994,0.65885c0.09718,0.19046 0.22933,0.34206 0.39647,0.45478c0.16714,0.11272 0.35955,0.16909 0.57722,0.16909zM236.83291,78.28888c-0.2993,0 -0.57334,-0.08357 -0.8221,-0.25071c-0.24877,-0.16714 -0.44895,-0.39453 -0.60054,-0.68218c-0.14771,-0.28763 -0.22156,-0.61221 -0.22156,-0.9737c0,-0.36927 0.07579,-0.69577 0.22739,-0.97953c0.15159,-0.28376 0.35566,-0.50725 0.61221,-0.67051c0.26042,-0.16326 0.55001,-0.24488 0.86875,-0.24488c0.19046,0 0.36344,0.02916 0.51891,0.08746c0.15937,0.05442 0.29735,0.13216 0.41396,0.23323c0.12049,0.09718 0.21767,0.21184 0.29153,0.344c0.07774,0.12827 0.12633,0.26626 0.14576,0.41396l-0.15742,-0.05248v-0.95037h0.72298v3.65573h-0.72298v-0.86875l0.16326,-0.05248c-0.02721,0.12827 -0.08357,0.25265 -0.16909,0.37315c-0.08551,0.11661 -0.19435,0.22156 -0.32651,0.31484c-0.13216,0.0894 -0.27792,0.16326 -0.43729,0.22156c-0.15937,0.05442 -0.32845,0.08163 -0.50725,0.08163zM237.01949,77.63003c0.22156,0 0.41396,-0.05248 0.57722,-0.15742c0.16714,-0.10884 0.29735,-0.25654 0.39065,-0.44312c0.09718,-0.19046 0.14576,-0.40619 0.14576,-0.64719c0,-0.2371 -0.04858,-0.44895 -0.14576,-0.63552c-0.09329,-0.18658 -0.22351,-0.33234 -0.39065,-0.43729c-0.16326,-0.10884 -0.35566,-0.16326 -0.57722,-0.16326c-0.21379,0 -0.4023,0.05442 -0.56556,0.16326c-0.16326,0.10495 -0.29347,0.25071 -0.39065,0.43729c-0.09329,0.18658 -0.13994,0.39842 -0.13994,0.63552c0,0.241 0.04665,0.45672 0.13994,0.64719c0.09718,0.18658 0.22739,0.33429 0.39065,0.44312c0.16326,0.10495 0.35178,0.15742 0.56556,0.15742zM240.28924,78.21891v-4.58861h0.71716v4.58861zM239.52544,75.26285v-0.69967h2.32637v0.69967zM244.17541,78.28888c-0.37315,0 -0.70549,-0.07969 -0.99702,-0.23905c-0.28763,-0.15937 -0.51503,-0.37898 -0.68218,-0.65885c-0.16326,-0.27986 -0.24488,-0.60054 -0.24488,-0.96204c0,-0.28763 0.04665,-0.55001 0.13994,-0.78712c0.09329,-0.2371 0.22156,-0.44117 0.38481,-0.61221c0.16326,-0.17491 0.35955,-0.30902 0.58888,-0.4023c0.23323,-0.09718 0.48393,-0.14576 0.75214,-0.14576c0.2371,0 0.45672,0.0447 0.65885,0.1341c0.20602,0.0894 0.38287,0.21379 0.53058,0.37315c0.15159,0.15937 0.2682,0.34789 0.34983,0.56556c0.08163,0.21379 0.12049,0.447 0.11661,0.69967l-0.00582,0.30902h-2.98522l-0.16326,-0.57139h2.52461l-0.09912,0.11661v-0.16326c-0.01554,-0.15548 -0.06802,-0.29347 -0.15742,-0.41396c-0.08551,-0.12049 -0.1963,-0.21573 -0.33234,-0.28569c-0.13605,-0.06997 -0.28181,-0.10495 -0.43729,-0.10495c-0.25265,0 -0.46449,0.04858 -0.63552,0.14576c-0.17103,0.09329 -0.30125,0.23323 -0.39065,0.4198c-0.08551,0.18269 -0.12827,0.40814 -0.12827,0.67634c0,0.25265 0.05248,0.47421 0.15742,0.66468c0.10495,0.18658 0.2546,0.33234 0.44895,0.43729c0.19824,0.10106 0.42368,0.15159 0.67634,0.15159c0.18269,0 0.35178,-0.02916 0.50725,-0.08746c0.15548,-0.06219 0.32456,-0.17297 0.50725,-0.33234l0.36149,0.50725c-0.11272,0.11272 -0.24877,0.21184 -0.40814,0.29735c-0.15937,0.08163 -0.32845,0.14771 -0.50725,0.19824c-0.1788,0.04665 -0.35566,0.06997 -0.53058,0.06997zM249.90683,78.28888c-0.2993,0 -0.57334,-0.08357 -0.8221,-0.25071c-0.24877,-0.16714 -0.44895,-0.39453 -0.60054,-0.68218c-0.14771,-0.28763 -0.22156,-0.61221 -0.22156,-0.9737c0,-0.36927 0.07579,-0.69577 0.22739,-0.97953c0.15159,-0.28376 0.35566,-0.50725 0.61221,-0.67051c0.26042,-0.16326 0.55001,-0.24488 0.86875,-0.24488c0.19046,0 0.36344,0.02916 0.51891,0.08746c0.15937,0.05442 0.29735,0.13216 0.41396,0.23323c0.12049,0.09718 0.21767,0.21184 0.29153,0.344c0.07774,0.12827 0.12633,0.26626 0.14576,0.41396l-0.15742,-0.05248v-0.95037h0.72298v3.65573h-0.72298v-0.86875l0.16326,-0.05248c-0.02721,0.12827 -0.08357,0.25265 -0.16909,0.37315c-0.08551,0.11661 -0.19435,0.22156 -0.32651,0.31484c-0.13216,0.0894 -0.27792,0.16326 -0.43729,0.22156c-0.15937,0.05442 -0.32845,0.08163 -0.50725,0.08163zM250.0934,77.63003c0.22156,0 0.41396,-0.05248 0.57722,-0.15742c0.16714,-0.10884 0.29735,-0.25654 0.39065,-0.44312c0.09718,-0.19046 0.14576,-0.40619 0.14576,-0.64719c0,-0.2371 -0.04858,-0.44895 -0.14576,-0.63552c-0.09329,-0.18658 -0.22351,-0.33234 -0.39065,-0.43729c-0.16326,-0.10884 -0.35566,-0.16326 -0.57722,-0.16326c-0.21379,0 -0.4023,0.05442 -0.56556,0.16326c-0.16326,0.10495 -0.29347,0.25071 -0.39065,0.43729c-0.09329,0.18658 -0.13994,0.39842 -0.13994,0.63552c0,0.241 0.04665,0.45672 0.13994,0.64719c0.09718,0.18658 0.22739,0.33429 0.39065,0.44312c0.16326,0.10495 0.35178,0.15742 0.56556,0.15742zM252.90839,79.75234v-5.18916h0.72298v0.83376l-0.11078,-0.0583c0.02721,-0.13994 0.10495,-0.27404 0.23323,-0.4023c0.13216,-0.12827 0.29153,-0.23323 0.47811,-0.31484c0.19046,-0.08163 0.38481,-0.12244 0.58305,-0.12244c0.33039,0 0.62192,0.08163 0.87458,0.24488c0.25654,0.16326 0.45867,0.38676 0.60637,0.67051c0.15159,0.28376 0.22739,0.60832 0.22739,0.9737c0,0.36149 -0.07385,0.68605 -0.22156,0.9737c-0.14771,0.28376 -0.34983,0.50919 -0.60637,0.67634c-0.25265,0.16326 -0.53835,0.24488 -0.85708,0.24488c-0.21379,0 -0.42174,-0.04276 -0.62387,-0.12827c-0.19824,-0.08551 -0.36732,-0.1963 -0.50725,-0.33234c-0.13994,-0.13605 -0.22545,-0.27598 -0.25654,-0.4198l0.18075,-0.09329v2.44299zM254.71584,77.61838c0.21379,0 0.40425,-0.05248 0.57139,-0.15742c0.16714,-0.10884 0.2993,-0.2546 0.39647,-0.43729c0.09718,-0.18658 0.14576,-0.39842 0.14576,-0.63552c0,-0.2371 -0.04858,-0.447 -0.14576,-0.6297c-0.09329,-0.18269 -0.22351,-0.32651 -0.39065,-0.43145c-0.16326,-0.10884 -0.35566,-0.16326 -0.57722,-0.16326c-0.21767,0 -0.41008,0.05248 -0.57722,0.15742c-0.16714,0.10495 -0.2993,0.25071 -0.39647,0.43729c-0.09718,0.18269 -0.14576,0.39259 -0.14576,0.6297c0,0.2371 0.04858,0.44895 0.14576,0.63552c0.09718,0.18269 0.22933,0.32845 0.39647,0.43729c0.16714,0.10495 0.35955,0.15742 0.57722,0.15742zM257.30118,79.75234v-5.18916h0.72298v0.83376l-0.11078,-0.0583c0.02721,-0.13994 0.10495,-0.27404 0.23323,-0.4023c0.13216,-0.12827 0.29153,-0.23323 0.47811,-0.31484c0.19046,-0.08163 0.38481,-0.12244 0.58305,-0.12244c0.33039,0 0.62192,0.08163 0.87458,0.24488c0.25654,0.16326 0.45867,0.38676 0.60637,0.67051c0.15159,0.28376 0.22739,0.60832 0.22739,0.9737c0,0.36149 -0.07385,0.68605 -0.22156,0.9737c-0.14771,0.28376 -0.34983,0.50919 -0.60637,0.67634c-0.25265,0.16326 -0.53835,0.24488 -0.85708,0.24488c-0.21379,0 -0.42174,-0.04276 -0.62387,-0.12827c-0.19824,-0.08551 -0.36732,-0.1963 -0.50725,-0.33234c-0.13994,-0.13605 -0.22545,-0.27598 -0.25654,-0.4198l0.18075,-0.09329v2.44299zM259.10863,77.61838c0.21379,0 0.40425,-0.05248 0.57139,-0.15742c0.16714,-0.10884 0.2993,-0.2546 0.39647,-0.43729c0.09718,-0.18658 0.14576,-0.39842 0.14576,-0.63552c0,-0.2371 -0.04858,-0.447 -0.14576,-0.6297c-0.09329,-0.18269 -0.22351,-0.32651 -0.39065,-0.43145c-0.16326,-0.10884 -0.35566,-0.16326 -0.57722,-0.16326c-0.21767,0 -0.41008,0.05248 -0.57722,0.15742c-0.16714,0.10495 -0.2993,0.25071 -0.39647,0.43729c-0.09718,0.18269 -0.14576,0.39259 -0.14576,0.6297c0,0.2371 0.04858,0.44895 0.14576,0.63552c0.09718,0.18269 0.22933,0.32845 0.39647,0.43729c0.16714,0.10495 0.35955,0.15742 0.57722,0.15742zM262.91253,78.28888c-0.30707,0 -0.58305,-0.05248 -0.82793,-0.15742c-0.24488,-0.10884 -0.44895,-0.2682 -0.61221,-0.47811l0.48393,-0.41396c0.13994,0.15937 0.29153,0.27598 0.45478,0.34983c0.16714,0.06997 0.35566,0.10495 0.56556,0.10495c0.08163,0 0.15742,-0.00972 0.22739,-0.02916c0.07385,-0.01944 0.13799,-0.05053 0.1924,-0.09329c0.05442,-0.04276 0.09523,-0.09329 0.12244,-0.15159c0.02721,-0.0583 0.04081,-0.12244 0.04081,-0.1924c0,-0.12049 -0.0447,-0.21767 -0.1341,-0.29153c-0.04665,-0.03109 -0.12049,-0.06608 -0.22156,-0.10495c-0.09718,-0.03887 -0.22545,-0.07969 -0.38481,-0.12244c-0.2682,-0.06997 -0.48782,-0.14771 -0.65885,-0.23323c-0.17103,-0.0894 -0.30319,-0.19046 -0.39647,-0.30319c-0.06997,-0.0894 -0.12244,-0.18463 -0.15742,-0.28569c-0.03109,-0.10495 -0.04665,-0.22156 -0.04665,-0.34983c0,-0.15159 0.03303,-0.29153 0.09912,-0.4198c0.06997,-0.12827 0.16326,-0.23905 0.27986,-0.33234c0.12049,-0.09718 0.26042,-0.17103 0.4198,-0.22156c0.15937,-0.05053 0.33039,-0.07579 0.51309,-0.07579c0.17103,0 0.34011,0.02332 0.50725,0.06997c0.17103,0.04665 0.32845,0.11467 0.47227,0.20407c0.14382,0.08551 0.26432,0.18852 0.36149,0.30902l-0.40814,0.45478c-0.0894,-0.0894 -0.18658,-0.16714 -0.29153,-0.23323c-0.10495,-0.06608 -0.21184,-0.11661 -0.32068,-0.15159c-0.10495,-0.03887 -0.20018,-0.0583 -0.28569,-0.0583c-0.09718,0 -0.18658,0.00972 -0.2682,0.02916c-0.07774,0.01554 -0.14382,0.04276 -0.19824,0.08163c-0.05053,0.03498 -0.09134,0.08163 -0.12244,0.13994c-0.02721,0.05442 -0.04081,0.11661 -0.04081,0.18658c0.00389,0.0583 0.01944,0.11467 0.04665,0.16909c0.02721,0.05442 0.06413,0.09912 0.11078,0.1341c0.05053,0.03887 0.12633,0.07969 0.22739,0.12244c0.10106,0.03887 0.23128,0.07774 0.39065,0.11661c0.22933,0.0583 0.4198,0.12438 0.57139,0.19824c0.15159,0.06997 0.27209,0.15159 0.36149,0.24488c0.09329,0.0894 0.15742,0.1924 0.1924,0.30902c0.03887,0.11661 0.0583,0.24683 0.0583,0.39065c0,0.20602 -0.06025,0.39259 -0.18075,0.55973c-0.11661,0.16326 -0.27598,0.29153 -0.47811,0.38481c-0.19824,0.09329 -0.4198,0.13994 -0.66468,0.13994z" fill="#ffffff" fill-rule="nonzero" stroke="none" stroke-width="1" stroke-linecap="square"/><path d="M176.32986,63.07958v17.203" fill="none" fill-rule="nonzero" stroke="#ffffff" stroke-width="2" stroke-linecap="round"/><path d="M95.33598,99.59598v0c0,-6.41299 5.67588,-11.61173 12.67742,-11.61173h81.70893c3.36226,0 6.5868,1.22338 8.96428,3.401c2.37748,2.17762 3.71313,5.13111 3.71313,8.21073v123.46204c0,6.41298 -5.67587,11.61173 -12.67741,11.61173h-81.70893c-7.00154,0 -12.67742,-5.19875 -12.67742,-11.61173z" fill-opacity="0.6938" fill="#2d2d2d" fill-rule="evenodd" stroke="none" stroke-width="1" stroke-linecap="square"/><path d="M133.91876,166.64722v0c0,-4.53827 3.67898,-8.21724 8.21725,-8.21724h48.70343c2.17935,0 4.26944,0.86574 5.81048,2.40677c1.54104,1.54103 2.40678,3.63111 2.40678,5.81047v0v0c0,4.53827 -3.67899,8.21725 -8.21725,8.21725h-48.70343v0c-4.53827,0 -8.21725,-3.67898 -8.21725,-8.21725z" fill-opacity="0.8629" fill="#434343" fill-rule="evenodd" stroke="none" stroke-width="1" stroke-linecap="square"/><path d="M139.70759,102.41649l2.55889,-6.623h1.04574l2.54304,6.623h-1.08535l-1.51315,-3.99282c-0.02113,-0.04225 -0.0581,-0.14788 -0.11091,-0.31689c-0.05281,-0.17429 -0.11619,-0.36442 -0.19013,-0.5704c-0.06866,-0.21126 -0.13204,-0.40139 -0.19013,-0.5704c-0.05281,-0.17429 -0.08979,-0.28784 -0.11091,-0.34066l0.22182,-0.00792c-0.03697,0.10563 -0.0845,0.24031 -0.1426,0.40403c-0.05281,0.16373 -0.10827,0.33802 -0.16637,0.52287c-0.0581,0.18485 -0.11619,0.35914 -0.17429,0.52287c-0.0581,0.15845 -0.10563,0.29048 -0.1426,0.39611l-1.50523,3.95321zM140.84047,100.76865l0.38027,-0.98236h3.01046l0.43572,0.98236zM146.77266,104.50003v-7.05081h0.98236v1.13288l-0.15052,-0.07922c0.03697,-0.19013 0.1426,-0.37235 0.31689,-0.54664c0.17957,-0.17429 0.39611,-0.31689 0.64962,-0.4278c0.25879,-0.11091 0.52287,-0.16637 0.79223,-0.16637c0.44893,0 0.84504,0.11091 1.18834,0.33273c0.34858,0.22182 0.62322,0.52551 0.82391,0.91106c0.20598,0.38555 0.30897,0.82656 0.30897,1.32302c0,0.49118 -0.10035,0.93218 -0.30105,1.32302c-0.2007,0.38555 -0.47534,0.69188 -0.82391,0.91898c-0.3433,0.22182 -0.73149,0.33273 -1.16457,0.33273c-0.29048,0 -0.57304,-0.0581 -0.84768,-0.17429c-0.26936,-0.11619 -0.4991,-0.26672 -0.68924,-0.45157c-0.19013,-0.18485 -0.30633,-0.37499 -0.34858,-0.5704l0.24559,-0.12676v3.31942zM149.22856,101.60047c0.29048,0 0.54928,-0.0713 0.77638,-0.2139c0.2271,-0.14788 0.40668,-0.34594 0.53871,-0.59417c0.13204,-0.25351 0.19806,-0.54135 0.19806,-0.86353c0,-0.32217 -0.06602,-0.60737 -0.19806,-0.8556c-0.12676,-0.24823 -0.30369,-0.44365 -0.53079,-0.58625c-0.22182,-0.14788 -0.48326,-0.22182 -0.7843,-0.22182c-0.29577,0 -0.5572,0.0713 -0.7843,0.2139c-0.2271,0.1426 -0.40668,0.34066 -0.53871,0.59417c-0.13204,0.24823 -0.19806,0.53343 -0.19806,0.8556c0,0.32217 0.06602,0.61001 0.19806,0.86353c0.13204,0.24823 0.31161,0.44629 0.53871,0.59417c0.2271,0.1426 0.48854,0.2139 0.7843,0.2139zM152.7414,104.50003v-7.05081h0.98236v1.13288l-0.15052,-0.07922c0.03697,-0.19013 0.1426,-0.37235 0.31689,-0.54664c0.17957,-0.17429 0.39611,-0.31689 0.64962,-0.4278c0.25879,-0.11091 0.52287,-0.16637 0.79223,-0.16637c0.44893,0 0.84504,0.11091 1.18834,0.33273c0.34858,0.22182 0.62322,0.52551 0.82391,0.91106c0.20598,0.38555 0.30897,0.82656 0.30897,1.32302c0,0.49118 -0.10035,0.93218 -0.30105,1.32302c-0.2007,0.38555 -0.47534,0.69188 -0.82391,0.91898c-0.3433,0.22182 -0.73149,0.33273 -1.16457,0.33273c-0.29048,0 -0.57304,-0.0581 -0.84768,-0.17429c-0.26936,-0.11619 -0.4991,-0.26672 -0.68924,-0.45157c-0.19013,-0.18485 -0.30633,-0.37499 -0.34858,-0.5704l0.24559,-0.12676v3.31942zM155.1973,101.60047c0.29048,0 0.54928,-0.0713 0.77638,-0.2139c0.2271,-0.14788 0.40668,-0.34594 0.53871,-0.59417c0.13204,-0.25351 0.19806,-0.54135 0.19806,-0.86353c0,-0.32217 -0.06602,-0.60737 -0.19806,-0.8556c-0.12676,-0.24823 -0.30369,-0.44365 -0.53079,-0.58625c-0.22182,-0.14788 -0.48326,-0.22182 -0.7843,-0.22182c-0.29577,0 -0.5572,0.0713 -0.7843,0.2139c-0.2271,0.1426 -0.40668,0.34066 -0.53871,0.59417c-0.13204,0.24823 -0.19806,0.53343 -0.19806,0.8556c0,0.32217 0.06602,0.61001 0.19806,0.86353c0.13204,0.24823 0.31161,0.44629 0.53871,0.59417c0.2271,0.1426 0.48854,0.2139 0.7843,0.2139zM161.02343,102.51153c-0.50702,0 -0.95859,-0.10827 -1.35471,-0.32481c-0.39083,-0.21654 -0.6998,-0.51495 -0.9269,-0.89521c-0.22182,-0.38027 -0.33273,-0.81599 -0.33273,-1.30717c0,-0.39083 0.06338,-0.74733 0.19013,-1.0695c0.12676,-0.32217 0.30105,-0.59945 0.52287,-0.83184c0.22182,-0.23767 0.48854,-0.41988 0.80015,-0.54664c0.31689,-0.13204 0.65755,-0.19806 1.02197,-0.19806c0.32217,0 0.62058,0.06074 0.89521,0.18221c0.27992,0.12148 0.52023,0.29048 0.72093,0.50702c0.20598,0.21654 0.36442,0.47269 0.47534,0.76846c0.11091,0.29048 0.16373,0.60737 0.15845,0.95067l-0.00792,0.41988h-4.05619l-0.22182,-0.77638h3.43034l-0.13468,0.15845v-0.22182c-0.02113,-0.21126 -0.09243,-0.39875 -0.2139,-0.56248c-0.11619,-0.16373 -0.26672,-0.29312 -0.45157,-0.38819c-0.18485,-0.09507 -0.38291,-0.1426 -0.59417,-0.1426c-0.3433,0 -0.63114,0.06602 -0.86353,0.19806c-0.23239,0.12676 -0.40932,0.31689 -0.53079,0.5704c-0.11619,0.24823 -0.17429,0.55456 -0.17429,0.91898c0,0.3433 0.0713,0.64434 0.2139,0.90314c0.1426,0.25351 0.34594,0.45157 0.61001,0.59417c0.26936,0.13732 0.57568,0.20598 0.91898,0.20598c0.24823,0 0.47798,-0.03961 0.68924,-0.11883c0.21126,-0.0845 0.441,-0.23503 0.68924,-0.45157l0.49118,0.68924c-0.15316,0.15316 -0.33802,0.28784 -0.55456,0.40403c-0.21654,0.11091 -0.44629,0.2007 -0.68924,0.26936c-0.24295,0.06338 -0.48326,0.09507 -0.72093,0.09507zM166.16247,102.51153c-0.40668,0 -0.77902,-0.11355 -1.11704,-0.34066c-0.33802,-0.2271 -0.61001,-0.53607 -0.81599,-0.9269c-0.2007,-0.39083 -0.30105,-0.83184 -0.30105,-1.32302c0,-0.50174 0.10299,-0.94539 0.30897,-1.33094c0.20598,-0.38555 0.48326,-0.68924 0.83184,-0.91106c0.35386,-0.22182 0.74733,-0.33273 1.18042,-0.33273c0.25879,0 0.49382,0.03961 0.70508,0.11883c0.21654,0.07394 0.40403,0.17957 0.56248,0.31689c0.16373,0.13204 0.29577,0.28784 0.39611,0.46741c0.10563,0.17429 0.17165,0.36178 0.19806,0.56248l-0.2139,-0.0713v-1.29133h0.98236v4.96725h-0.98236v-1.18042l0.22182,-0.0713c-0.03697,0.17429 -0.11355,0.3433 -0.22975,0.50702c-0.11619,0.15845 -0.26408,0.30105 -0.44365,0.4278c-0.17957,0.12148 -0.37763,0.22182 -0.59417,0.30105c-0.21654,0.07394 -0.44629,0.11091 -0.68924,0.11091zM166.41598,101.61632c0.30105,0 0.56248,-0.0713 0.7843,-0.2139c0.2271,-0.14788 0.40403,-0.34858 0.53079,-0.60209c0.13204,-0.25879 0.19806,-0.55192 0.19806,-0.87937c0,-0.32217 -0.06602,-0.61001 -0.19806,-0.86353c-0.12676,-0.25351 -0.30369,-0.45157 -0.53079,-0.59417c-0.22182,-0.14788 -0.48326,-0.22182 -0.7843,-0.22182c-0.29048,0 -0.54664,0.07394 -0.76846,0.22182c-0.22182,0.1426 -0.39875,0.34066 -0.53079,0.59417c-0.12676,0.25351 -0.19013,0.54135 -0.19013,0.86353c0,0.32745 0.06338,0.62058 0.19013,0.87937c0.13204,0.25351 0.30897,0.45421 0.53079,0.60209c0.22182,0.1426 0.47798,0.2139 0.76846,0.2139zM170.24087,102.41649v-4.96725h0.98236v1.56068l-0.09507,-0.38027c0.06866,-0.23767 0.18749,-0.45421 0.3565,-0.64962c0.16901,-0.19541 0.36178,-0.34858 0.57832,-0.45949c0.21654,-0.11619 0.441,-0.17429 0.67339,-0.17429c0.10563,0 0.20598,0.01056 0.30105,0.03169c0.10035,0.01584 0.17957,0.03697 0.23767,0.06338l-0.25351,1.06158c-0.07394,-0.03169 -0.15845,-0.0581 -0.25351,-0.07922c-0.08979,-0.02641 -0.17957,-0.03961 -0.26936,-0.03961c-0.16901,0 -0.33009,0.03433 -0.48326,0.10299c-0.15316,0.06338 -0.29048,0.1558 -0.41196,0.27728c-0.11619,0.11619 -0.20862,0.25087 -0.27728,0.40403c-0.06866,0.15316 -0.10299,0.32217 -0.10299,0.50702v2.7411zM175.75395,102.51153c-0.40668,0 -0.77902,-0.11355 -1.11704,-0.34066c-0.33802,-0.2271 -0.61001,-0.53607 -0.81599,-0.9269c-0.2007,-0.39083 -0.30105,-0.83184 -0.30105,-1.32302c0,-0.50174 0.10299,-0.94539 0.30897,-1.33094c0.20598,-0.38555 0.48326,-0.68924 0.83184,-0.91106c0.35386,-0.22182 0.74733,-0.33273 1.18042,-0.33273c0.25879,0 0.49382,0.03961 0.70508,0.11883c0.21654,0.07394 0.40403,0.17957 0.56248,0.31689c0.16373,0.13204 0.29577,0.28784 0.39611,0.46741c0.10563,0.17429 0.17165,0.36178 0.19806,0.56248l-0.2139,-0.0713v-1.29133h0.98236v4.96725h-0.98236v-1.18042l0.22182,-0.0713c-0.03697,0.17429 -0.11355,0.3433 -0.22975,0.50702c-0.11619,0.15845 -0.26408,0.30105 -0.44365,0.4278c-0.17957,0.12148 -0.37763,0.22182 -0.59417,0.30105c-0.21654,0.07394 -0.44629,0.11091 -0.68924,0.11091zM176.00747,101.61632c0.30105,0 0.56248,-0.0713 0.7843,-0.2139c0.2271,-0.14788 0.40403,-0.34858 0.53079,-0.60209c0.13204,-0.25879 0.19806,-0.55192 0.19806,-0.87937c0,-0.32217 -0.06602,-0.61001 -0.19806,-0.86353c-0.12676,-0.25351 -0.30369,-0.45157 -0.53079,-0.59417c-0.22182,-0.14788 -0.48326,-0.22182 -0.7843,-0.22182c-0.29048,0 -0.54664,0.07394 -0.76846,0.22182c-0.22182,0.1426 -0.39875,0.34066 -0.53079,0.59417c-0.12676,0.25351 -0.19013,0.54135 -0.19013,0.86353c0,0.32745 0.06338,0.62058 0.19013,0.87937c0.13204,0.25351 0.30897,0.45421 0.53079,0.60209c0.22182,0.1426 0.47798,0.2139 0.76846,0.2139zM179.83235,102.41649v-4.96725h0.97444v1.02197l-0.17429,0.11091c0.06338,-0.21654 0.18749,-0.41724 0.37235,-0.60209c0.18485,-0.19013 0.40139,-0.3433 0.64962,-0.45949c0.25351,-0.11619 0.5123,-0.17429 0.77638,-0.17429c0.38027,0 0.69452,0.07394 0.94275,0.22182c0.25351,0.14788 0.44365,0.37499 0.5704,0.68131c0.12676,0.30105 0.19013,0.68131 0.19013,1.1408v3.0263h-0.97444v-2.96292c0,-0.27992 -0.03697,-0.5123 -0.11091,-0.69716c-0.07394,-0.19013 -0.19013,-0.32745 -0.34858,-0.41196c-0.15845,-0.0845 -0.35386,-0.12148 -0.58625,-0.11091c-0.19013,0 -0.36442,0.03169 -0.52287,0.09507c-0.15845,0.0581 -0.29577,0.1426 -0.41196,0.25351c-0.11619,0.10563 -0.20862,0.22975 -0.27728,0.37235c-0.06338,0.13732 -0.09507,0.28784 -0.09507,0.45157v3.01046h-0.48326c-0.07922,0 -0.16109,0 -0.24559,0c-0.0845,0 -0.16637,0 -0.24559,0zM187.56786,102.51153c-0.45948,0 -0.87143,-0.11355 -1.23586,-0.34066c-0.35914,-0.2271 -0.64434,-0.53607 -0.8556,-0.9269c-0.21126,-0.39083 -0.31689,-0.8292 -0.31689,-1.31509c0,-0.4859 0.10563,-0.92426 0.31689,-1.31509c0.21126,-0.39083 0.49646,-0.6998 0.8556,-0.9269c0.36442,-0.2271 0.77638,-0.34066 1.23586,-0.34066c0.44365,0 0.84504,0.08979 1.20418,0.26936c0.36442,0.17957 0.6417,0.42516 0.83184,0.73677l-0.53871,0.65755c-0.10035,-0.1426 -0.22975,-0.27464 -0.38819,-0.39611c-0.15845,-0.12148 -0.32745,-0.21654 -0.50702,-0.2852c-0.17429,-0.06866 -0.3433,-0.10299 -0.50702,-0.10299c-0.30104,0 -0.57039,0.07394 -0.80805,0.22182c-0.23767,0.14788 -0.42516,0.35122 -0.56248,0.61001c-0.13732,0.25879 -0.20598,0.54928 -0.20598,0.87145c0,0.32217 0.0713,0.61266 0.2139,0.87145c0.14788,0.25351 0.34066,0.45685 0.57832,0.61001c0.23767,0.14788 0.50174,0.22182 0.79221,0.22182c0.17429,0 0.34066,-0.02905 0.4991,-0.08714c0.15845,-0.0581 0.31425,-0.1426 0.46741,-0.25351c0.15316,-0.11619 0.29577,-0.25615 0.4278,-0.41988l0.53871,0.66547c-0.2007,0.2852 -0.48854,0.52023 -0.86353,0.70508c-0.37499,0.17957 -0.76582,0.26936 -1.17249,0.26936zM192.83452,102.51153c-0.50702,0 -0.95859,-0.10827 -1.35471,-0.32481c-0.39083,-0.21654 -0.6998,-0.51495 -0.9269,-0.89521c-0.22182,-0.38027 -0.33273,-0.81599 -0.33273,-1.30717c0,-0.39083 0.06338,-0.74733 0.19013,-1.0695c0.12676,-0.32217 0.30105,-0.59945 0.52287,-0.83184c0.22182,-0.23767 0.48854,-0.41988 0.80015,-0.54664c0.31689,-0.13204 0.65755,-0.19806 1.02197,-0.19806c0.32217,0 0.62058,0.06074 0.89521,0.18221c0.27992,0.12148 0.52023,0.29048 0.72093,0.50702c0.20598,0.21654 0.36442,0.47269 0.47534,0.76846c0.11091,0.29048 0.16373,0.60737 0.15845,0.95067l-0.00792,0.41988h-4.05619l-0.22182,-0.77638h3.43034l-0.13468,0.15845v-0.22182c-0.02113,-0.21126 -0.09243,-0.39875 -0.2139,-0.56248c-0.11619,-0.16373 -0.26672,-0.29312 -0.45157,-0.38819c-0.18485,-0.09507 -0.38291,-0.1426 -0.59417,-0.1426c-0.3433,0 -0.63114,0.06602 -0.86353,0.19806c-0.23239,0.12676 -0.40932,0.31689 -0.53079,0.5704c-0.11619,0.24823 -0.17429,0.55456 -0.17429,0.91898c0,0.3433 0.0713,0.64434 0.2139,0.90314c0.1426,0.25351 0.34594,0.45157 0.61001,0.59417c0.26936,0.13732 0.57568,0.20598 0.91898,0.20598c0.24823,0 0.47798,-0.03961 0.68924,-0.11883c0.21126,-0.0845 0.441,-0.23503 0.68924,-0.45157l0.49118,0.68924c-0.15316,0.15316 -0.33802,0.28784 -0.55456,0.40403c-0.21654,0.11091 -0.44629,0.2007 -0.68924,0.26936c-0.24295,0.06338 -0.48326,0.09507 -0.72093,0.09507z" fill="#ffffff" fill-rule="nonzero" stroke="none" stroke-width="1" stroke-linecap="square"/><path d="M150.15106,125.39885c-0.36654,0 -0.70613,-0.04851 -1.01877,-0.14553c-0.31264,-0.09703 -0.59562,-0.24256 -0.84897,-0.43662c-0.25334,-0.19944 -0.47974,-0.442 -0.67918,-0.72769l0.71152,-0.82471c0.31803,0.45279 0.61988,0.76542 0.90556,0.93791c0.29108,0.17249 0.63606,0.25873 1.03494,0.25873c0.24257,0 0.46357,-0.03773 0.66301,-0.11319c0.19944,-0.08085 0.35576,-0.18867 0.46895,-0.32342c0.11858,-0.13475 0.17788,-0.28838 0.17788,-0.46087c0,-0.1132 -0.01887,-0.221 -0.0566,-0.32342c-0.03773,-0.1078 -0.09703,-0.20213 -0.17788,-0.28299c-0.08086,-0.08625 -0.18327,-0.1644 -0.30724,-0.23448c-0.12398,-0.07008 -0.26951,-0.13207 -0.43661,-0.18597c-0.1671,-0.0539 -0.36115,-0.09972 -0.58215,-0.13745c-0.34498,-0.07546 -0.64683,-0.16979 -0.90557,-0.28299c-0.25874,-0.11858 -0.47434,-0.26412 -0.64684,-0.43661c-0.17249,-0.17249 -0.30186,-0.36923 -0.3881,-0.59024c-0.08624,-0.22101 -0.12936,-0.47165 -0.12936,-0.75194c0,-0.26951 0.05929,-0.52017 0.17788,-0.75195c0.12398,-0.23178 0.28839,-0.43122 0.49321,-0.59833c0.21022,-0.17249 0.45548,-0.30455 0.73577,-0.39619c0.28569,-0.09703 0.59294,-0.14553 0.92174,-0.14553c0.35037,0 0.6684,0.04582 0.95408,0.13745c0.29108,0.09163 0.54981,0.22639 0.7762,0.40427c0.22639,0.17249 0.41235,0.3881 0.5579,0.64683l-0.73577,0.72769c-0.12398,-0.21561 -0.26682,-0.39349 -0.42853,-0.53364c-0.16171,-0.14554 -0.33959,-0.25603 -0.53364,-0.3315c-0.19405,-0.07546 -0.39889,-0.1132 -0.6145,-0.1132c-0.25334,0 -0.47434,0.04042 -0.663,0.12128c-0.18327,0.07546 -0.32881,0.18326 -0.43661,0.32341c-0.10781,0.13475 -0.16171,0.29647 -0.16171,0.48513c0,0.13475 0.02696,0.25874 0.08086,0.37193c0.0539,0.1132 0.13206,0.21291 0.23447,0.29916c0.10781,0.08625 0.25065,0.1644 0.42853,0.23448c0.18327,0.06468 0.39888,0.12128 0.64683,0.16979c0.35576,0.08085 0.67109,0.18058 0.946,0.29916c0.28029,0.11858 0.51477,0.25874 0.70343,0.42045c0.19405,0.16171 0.33959,0.34229 0.43661,0.54172c0.10242,0.19944 0.15363,0.41505 0.15363,0.64683c0,0.43122 -0.09972,0.80585 -0.29916,1.12387c-0.19944,0.31264 -0.48244,0.5552 -0.84897,0.72769c-0.36654,0.1671 -0.80316,0.25065 -1.30984,0.25065zM154.46915,125.3018v-6.36323h0.99451v6.36323zM153.40996,121.20249v-0.97025h3.22609v0.97025zM159.77743,125.39885c-0.4959,0 -0.94061,-0.1132 -1.3341,-0.33958c-0.3881,-0.23178 -0.69534,-0.54442 -0.92173,-0.93791c-0.221,-0.39888 -0.3315,-0.85166 -0.3315,-1.35835c0,-0.50669 0.1105,-0.95678 0.3315,-1.35027c0.22639,-0.39888 0.53363,-0.71152 0.92173,-0.93791c0.39349,-0.23178 0.8382,-0.34767 1.3341,-0.34767c0.48513,0 0.92174,0.11589 1.30984,0.34767c0.39349,0.22639 0.70343,0.53903 0.92982,0.93791c0.22639,0.39349 0.33958,0.84359 0.33958,1.35027c0,0.50669 -0.11319,0.95947 -0.33958,1.35835c-0.22639,0.39349 -0.53633,0.70613 -0.92982,0.93791c-0.3881,0.22639 -0.82471,0.33958 -1.30984,0.33958zM159.77743,124.49327c0.30185,0 0.57136,-0.07546 0.80854,-0.22639c0.23718,-0.15093 0.42314,-0.35576 0.5579,-0.6145c0.13476,-0.26413 0.19945,-0.56059 0.19406,-0.88939c0.00539,-0.3342 -0.0593,-0.63067 -0.19406,-0.8894c-0.13476,-0.26413 -0.32072,-0.46895 -0.5579,-0.61449c-0.23718,-0.15093 -0.50669,-0.2264 -0.80854,-0.2264c-0.30185,0 -0.57406,0.07547 -0.81663,0.2264c-0.24257,0.15093 -0.43122,0.35845 -0.56598,0.62257c-0.13476,0.25874 -0.19944,0.55251 -0.19405,0.88132c-0.00539,0.32881 0.05929,0.62527 0.19405,0.88939c0.13476,0.25874 0.32341,0.46357 0.56598,0.6145c0.24257,0.15093 0.51478,0.22639 0.81663,0.22639zM163.43455,125.3018v-5.06956h1.00259v1.59283l-0.09702,-0.3881c0.07008,-0.24256 0.19135,-0.46357 0.36384,-0.663c0.17249,-0.19944 0.36923,-0.35576 0.59023,-0.46896c0.221,-0.11858 0.45009,-0.17788 0.68726,-0.17788c0.10781,0 0.21023,0.01078 0.30725,0.03234c0.10242,0.01617 0.18327,0.03773 0.24256,0.06468l-0.25874,1.08344c-0.07547,-0.03234 -0.16171,-0.0593 -0.25873,-0.08085c-0.09163,-0.02695 -0.18327,-0.04042 -0.2749,-0.04042c-0.17249,0 -0.33689,0.03503 -0.49321,0.10511c-0.15632,0.06468 -0.29646,0.15901 -0.42044,0.28299c-0.11858,0.11858 -0.21291,0.25604 -0.28299,0.41236c-0.07008,0.15632 -0.10511,0.32881 -0.10511,0.51747v2.79756zM169.06119,125.39885c-0.41505,0 -0.79507,-0.11589 -1.14005,-0.34767c-0.34498,-0.23178 -0.62258,-0.54711 -0.8328,-0.94599c-0.20483,-0.39888 -0.30724,-0.84897 -0.30724,-1.35027c0,-0.51208 0.10511,-0.96487 0.31533,-1.35836c0.21022,-0.39349 0.49321,-0.70343 0.84897,-0.92982c0.36115,-0.22639 0.76272,-0.33958 1.20473,-0.33958c0.26413,0 0.504,0.04042 0.71961,0.12128c0.221,0.07546 0.41236,0.18326 0.57407,0.32341c0.1671,0.13475 0.30186,0.29377 0.40427,0.47704c0.10781,0.17788 0.17518,0.36924 0.20213,0.57407l-0.21831,-0.07277v-1.31793h1.0026v5.06956h-1.0026v-1.20473l0.22639,-0.07277c-0.03773,0.17788 -0.11589,0.35037 -0.23448,0.51747c-0.11858,0.16171 -0.26952,0.30725 -0.45279,0.43662c-0.18327,0.12398 -0.3854,0.22639 -0.6064,0.30725c-0.221,0.07546 -0.45548,0.11319 -0.70343,0.11319zM169.31993,124.48517c0.30724,0 0.57407,-0.07277 0.80046,-0.21831c0.23178,-0.15093 0.41236,-0.35576 0.54173,-0.6145c0.13476,-0.26413 0.20213,-0.56328 0.20213,-0.89748c0,-0.32881 -0.06738,-0.62258 -0.20213,-0.88132c-0.12937,-0.25874 -0.30995,-0.46086 -0.54173,-0.6064c-0.22639,-0.15093 -0.49321,-0.22639 -0.80046,-0.22639c-0.29647,0 -0.5579,0.07547 -0.78429,0.22639c-0.22639,0.14554 -0.40697,0.34767 -0.54173,0.6064c-0.12937,0.25874 -0.19405,0.55251 -0.19405,0.88132c0,0.3342 0.06468,0.63335 0.19405,0.89748c0.13476,0.25874 0.31534,0.46357 0.54173,0.6145c0.22639,0.14554 0.48782,0.21831 0.78429,0.21831zM175.4956,127.5253c-0.36115,0 -0.72229,-0.0566 -1.08344,-0.16979c-0.35576,-0.1132 -0.64145,-0.26143 -0.85706,-0.4447l0.36384,-0.76812c0.12937,0.09703 0.28029,0.18058 0.45279,0.25065c0.17249,0.07546 0.35576,0.13475 0.54981,0.17788c0.19405,0.04313 0.3854,0.06468 0.57406,0.06468c0.35037,0 0.64414,-0.05929 0.88132,-0.17788c0.24257,-0.1132 0.42314,-0.28299 0.54172,-0.50938c0.12398,-0.22639 0.18597,-0.50669 0.18597,-0.84089v-0.97025l0.10511,0.06468c-0.03234,0.19944 -0.13745,0.39079 -0.31533,0.57406c-0.17788,0.18327 -0.39888,0.3342 -0.663,0.45279c-0.25874,0.1132 -0.52825,0.16979 -0.80855,0.16979c-0.47974,0 -0.90826,-0.1132 -1.28558,-0.33958c-0.37732,-0.23178 -0.67648,-0.54442 -0.89748,-0.93791c-0.21561,-0.39888 -0.32342,-0.85166 -0.32342,-1.35835c0,-0.50669 0.10781,-0.95678 0.32342,-1.35027c0.21561,-0.39888 0.50938,-0.71152 0.88131,-0.93791c0.37732,-0.23178 0.80316,-0.34767 1.2775,-0.34767c0.18866,0 0.37193,0.02425 0.54981,0.07277c0.18327,0.04851 0.35306,0.11589 0.50938,0.20214c0.15632,0.08625 0.29378,0.18058 0.41236,0.28299c0.12398,0.10241 0.22369,0.21291 0.29916,0.3315c0.08086,0.1132 0.12937,0.22101 0.14554,0.32342l-0.21023,0.08085v-1.18856h0.99451v4.76232c0,0.40427 -0.05929,0.76273 -0.17788,1.07536c-0.11858,0.31264 -0.29108,0.57676 -0.51747,0.79237c-0.22639,0.21561 -0.5013,0.38002 -0.82471,0.49321c-0.31803,0.1132 -0.67918,0.16979 -1.08345,0.16979zM175.52794,124.48517c0.31803,0 0.59832,-0.07277 0.84089,-0.21831c0.24795,-0.15093 0.43931,-0.35576 0.57406,-0.6145c0.13476,-0.25874 0.20213,-0.55519 0.20213,-0.88939c0,-0.3342 -0.07007,-0.63067 -0.21022,-0.8894c-0.14015,-0.26413 -0.3315,-0.46895 -0.57407,-0.61449c-0.23718,-0.15093 -0.51477,-0.2264 -0.8328,-0.2264c-0.30724,0 -0.58214,0.07547 -0.82471,0.2264c-0.24257,0.15093 -0.43392,0.35845 -0.57407,0.62257c-0.13476,0.25874 -0.20214,0.55251 -0.20214,0.88132c0,0.32881 0.06738,0.62527 0.20214,0.88939c0.14015,0.25874 0.3315,0.46357 0.57407,0.6145c0.24257,0.14554 0.51747,0.21831 0.82471,0.21831zM181.85,125.39885c-0.51747,0 -0.97834,-0.11049 -1.38261,-0.3315c-0.39888,-0.22101 -0.71422,-0.52556 -0.946,-0.91366c-0.22639,-0.3881 -0.33959,-0.8328 -0.33959,-1.3341c0,-0.39888 0.06468,-0.76273 0.19405,-1.09153c0.12937,-0.32881 0.30725,-0.6118 0.53364,-0.84897c0.22639,-0.24256 0.4986,-0.42853 0.81663,-0.5579c0.32342,-0.13475 0.67109,-0.20214 1.04302,-0.20214c0.3288,0 0.63336,0.06198 0.91366,0.18596c0.28569,0.12398 0.53095,0.29646 0.73577,0.51747c0.21022,0.22101 0.37193,0.48243 0.48513,0.78428c0.11319,0.29646 0.1671,0.61988 0.16171,0.97025l-0.00809,0.42853h-4.13974l-0.22639,-0.79237h3.50099l-0.13745,0.16171v-0.22639c-0.02156,-0.21561 -0.09433,-0.40696 -0.21831,-0.57407c-0.11858,-0.1671 -0.27221,-0.29916 -0.46087,-0.39618c-0.18866,-0.09703 -0.39079,-0.14554 -0.6064,-0.14554c-0.35037,0 -0.64414,0.06738 -0.88132,0.20213c-0.23718,0.12937 -0.41774,0.32342 -0.54172,0.58216c-0.11858,0.25334 -0.17788,0.56598 -0.17788,0.93791c0,0.35037 0.07276,0.65761 0.2183,0.92174c0.14554,0.25874 0.35306,0.46087 0.62258,0.60641c0.2749,0.14015 0.58754,0.21022 0.93791,0.21022c0.25334,0 0.48782,-0.04042 0.70343,-0.12128c0.21561,-0.08625 0.45009,-0.23986 0.70343,-0.46087l0.50129,0.70343c-0.15632,0.15632 -0.34498,0.29377 -0.56598,0.41236c-0.221,0.1132 -0.45548,0.20483 -0.70343,0.2749c-0.24795,0.06468 -0.49321,0.09703 -0.73577,0.09703z" fill="#ffffff" fill-rule="nonzero" stroke="none" stroke-width="1" stroke-linecap="square"/><path d="M150.72343,194.28191c-0.36657,0 -0.70617,-0.04852 -1.01883,-0.14555c-0.31266,-0.09703 -0.59567,-0.24258 -0.84903,-0.43665c-0.25337,-0.19945 -0.47977,-0.44203 -0.67923,-0.72774l0.71157,-0.82477c0.31805,0.45282 0.61993,0.76547 0.90563,0.93797c0.2911,0.1725 0.6361,0.25875 1.03501,0.25875c0.24258,0 0.4636,-0.03774 0.66305,-0.11321c0.19945,-0.08085 0.35578,-0.18867 0.46899,-0.32344c0.11859,-0.13477 0.17789,-0.2884 0.17789,-0.46091c0,-0.11321 -0.01887,-0.22102 -0.0566,-0.32344c-0.03774,-0.10782 -0.09703,-0.20215 -0.17789,-0.28301c-0.08086,-0.08625 -0.18328,-0.16442 -0.30727,-0.23449c-0.12399,-0.07007 -0.26953,-0.13207 -0.43665,-0.18598c-0.16711,-0.05391 -0.36117,-0.09973 -0.5822,-0.13746c-0.345,-0.07547 -0.64688,-0.16981 -0.90563,-0.28301c-0.25875,-0.11859 -0.47438,-0.26414 -0.64688,-0.43665c-0.17251,-0.1725 -0.30188,-0.36926 -0.38813,-0.59028c-0.08625,-0.22102 -0.12938,-0.47169 -0.12938,-0.752c0,-0.26954 0.0593,-0.5202 0.17789,-0.752c0.12399,-0.2318 0.2884,-0.43125 0.49325,-0.59836c0.21024,-0.1725 0.45552,-0.30457 0.73583,-0.39621c0.2857,-0.09703 0.59298,-0.14555 0.9218,-0.14555c0.3504,0 0.66844,0.04582 0.95415,0.13746c0.2911,0.09164 0.54985,0.22641 0.77626,0.4043c0.2264,0.1725 0.41238,0.38813 0.55793,0.64688l-0.73582,0.72774c-0.12399,-0.21563 -0.26684,-0.39351 -0.42855,-0.53368c-0.16172,-0.14555 -0.33962,-0.25606 -0.53368,-0.33152c-0.19407,-0.07547 -0.39891,-0.11321 -0.61454,-0.11321c-0.25337,0 -0.47438,0.04043 -0.66305,0.12129c-0.18328,0.07547 -0.32883,0.18328 -0.43664,0.32344c-0.10782,0.13477 -0.16172,0.29648 -0.16172,0.48516c0,0.13477 0.02696,0.25875 0.08086,0.37196c0.05391,0.11321 0.13207,0.21293 0.23449,0.29918c0.10782,0.08625 0.25067,0.16442 0.42856,0.23449c0.18328,0.06469 0.39891,0.12129 0.64688,0.16981c0.35578,0.08085 0.67113,0.18059 0.94606,0.29918c0.28032,0.11859 0.5148,0.25875 0.70348,0.42048c0.19407,0.16172 0.33961,0.34231 0.43665,0.54176c0.10242,0.19945 0.15363,0.41508 0.15363,0.64688c0,0.43126 -0.09973,0.80591 -0.29918,1.12396c-0.19945,0.31266 -0.48246,0.55524 -0.84903,0.72774c-0.36657,0.16711 -0.80321,0.25067 -1.30994,0.25067zM155.26015,196.40854l1.02693,-2.3692l0.00808,0.79242l-2.53092,-5.71681h1.1563l1.58486,3.72765c0.03234,0.06469 0.07008,0.16441 0.11321,0.29918c0.04851,0.12938 0.08895,0.25875 0.12129,0.38813l-0.25066,0.0566c0.04851,-0.13477 0.09703,-0.26953 0.14555,-0.4043c0.04851,-0.13477 0.09433,-0.26953 0.13746,-0.4043l1.32611,-3.66296h1.18056l-2.08619,5.06993l-0.85712,2.22365zM161.61386,194.28191c-0.42586,0 -0.80861,-0.07277 -1.14822,-0.21832c-0.33961,-0.15094 -0.62262,-0.37195 -0.84903,-0.66305l0.67113,-0.57411c0.19407,0.22102 0.4043,0.38274 0.63071,0.48517c0.2318,0.09703 0.49324,0.14555 0.78434,0.14555c0.11321,0 0.21832,-0.01348 0.31536,-0.04043c0.10242,-0.02696 0.19136,-0.07008 0.26684,-0.12938c0.07548,-0.0593 0.13207,-0.12938 0.16981,-0.21024c0.03774,-0.08085 0.0566,-0.16981 0.0566,-0.26684c0,-0.16711 -0.06199,-0.30189 -0.18598,-0.4043c-0.06469,-0.04312 -0.16711,-0.09164 -0.30727,-0.14554c-0.13477,-0.05391 -0.31265,-0.11051 -0.53368,-0.16981c-0.37196,-0.09703 -0.67653,-0.20485 -0.91372,-0.32344c-0.23719,-0.12399 -0.42047,-0.26414 -0.54985,-0.42047c-0.09704,-0.12399 -0.16981,-0.25606 -0.21832,-0.39621c-0.04312,-0.14555 -0.06469,-0.30727 -0.06469,-0.48516c0,-0.21024 0.04582,-0.4043 0.13746,-0.5822c0.09704,-0.17789 0.22641,-0.33152 0.38814,-0.4609c0.16711,-0.13477 0.36117,-0.23719 0.5822,-0.30727c0.22102,-0.07007 0.4582,-0.10512 0.71157,-0.10512c0.23719,0 0.47169,0.03234 0.70348,0.09703c0.23719,0.06469 0.45551,0.15903 0.65497,0.28301c0.19945,0.11859 0.36657,0.26145 0.50133,0.42856l-0.56602,0.63071c-0.12399,-0.12399 -0.25875,-0.2318 -0.4043,-0.32344c-0.14555,-0.09164 -0.29379,-0.16172 -0.44473,-0.21024c-0.14555,-0.05391 -0.27763,-0.08085 -0.39621,-0.08085c-0.13477,0 -0.25875,0.01347 -0.37196,0.04043c-0.10782,0.02156 -0.19945,0.0593 -0.27492,0.11321c-0.07007,0.04852 -0.12668,0.11321 -0.16981,0.19406c-0.03774,0.07547 -0.0566,0.16172 -0.0566,0.25875c0.00539,0.08085 0.02696,0.15903 0.06469,0.23449c0.03774,0.07547 0.08895,0.13746 0.15363,0.18598c0.07007,0.05391 0.1752,0.11051 0.31536,0.16981c0.14015,0.05391 0.32074,0.10781 0.54176,0.16172c0.31805,0.08085 0.5822,0.17251 0.79243,0.27492c0.21024,0.09703 0.37735,0.21024 0.50133,0.33962c0.12938,0.12399 0.21833,0.26684 0.26684,0.42856c0.05391,0.16172 0.08086,0.34231 0.08086,0.54177c0,0.2857 -0.08356,0.54446 -0.25067,0.77626c-0.16172,0.22641 -0.38274,0.4043 -0.66305,0.53368c-0.27493,0.12938 -0.5822,0.19407 -0.9218,0.19407zM165.17919,194.18487v-6.36369h0.99458v6.36369zM164.11993,190.08522v-0.97032h3.22632v0.97032zM170.56871,194.28191c-0.51751,0 -0.97841,-0.1105 -1.38271,-0.33152c-0.39891,-0.22102 -0.71427,-0.52559 -0.94606,-0.91372c-0.2264,-0.38813 -0.33961,-0.83286 -0.33961,-1.33419c0,-0.39891 0.06469,-0.76278 0.19407,-1.09161c0.12938,-0.32884 0.30727,-0.61183 0.53368,-0.84903c0.2264,-0.24258 0.49864,-0.42855 0.81668,-0.55794c0.32344,-0.13477 0.67114,-0.20215 1.04309,-0.20215c0.32884,0 0.6334,0.06199 0.91372,0.18598c0.2857,0.12399 0.53099,0.29648 0.73583,0.5175c0.21024,0.22102 0.37196,0.48246 0.48516,0.78434c0.11321,0.29648 0.16711,0.61993 0.16172,0.97032l-0.00808,0.42855h-4.14004l-0.22641,-0.79242h3.50124l-0.13746,0.16172v-0.22641c-0.02156,-0.21563 -0.09433,-0.40699 -0.21832,-0.5741c-0.11859,-0.16711 -0.27223,-0.29918 -0.46091,-0.39621c-0.18867,-0.09703 -0.39082,-0.14555 -0.60645,-0.14555c-0.3504,0 -0.64418,0.06738 -0.88138,0.20215c-0.23719,0.12938 -0.41777,0.32344 -0.54177,0.58219c-0.11859,0.25337 -0.17789,0.56603 -0.17789,0.93798c0,0.3504 0.07277,0.65766 0.21833,0.9218c0.14555,0.25875 0.35309,0.4609 0.62262,0.60645c0.27493,0.14016 0.58758,0.21024 0.93798,0.21024c0.25337,0 0.48785,-0.04043 0.70348,-0.12129c0.21563,-0.08625 0.45012,-0.23988 0.70348,-0.4609l0.50133,0.70348c-0.15633,0.15633 -0.345,0.29379 -0.56602,0.41239c-0.22102,0.11321 -0.45551,0.20485 -0.70348,0.27492c-0.24797,0.06469 -0.49325,0.09703 -0.73583,0.09703zM173.84907,194.18487v-5.06993h1.00267v1.08352l-0.18598,0.11321c0.05391,-0.16711 0.13477,-0.32613 0.24258,-0.47707c0.11321,-0.15633 0.25066,-0.29379 0.41239,-0.41239c0.16711,-0.11859 0.345,-0.21293 0.53368,-0.28301c0.19407,-0.07547 0.39082,-0.11321 0.59028,-0.11321c0.2857,0 0.53907,0.04852 0.76009,0.14555c0.22102,0.09703 0.40161,0.24258 0.54176,0.43665c0.14015,0.19406 0.24258,0.43665 0.30727,0.72774l-0.15363,-0.04043l0.06469,-0.16172c0.07548,-0.15094 0.1752,-0.2911 0.29918,-0.42048c0.12399,-0.13477 0.26684,-0.25337 0.42856,-0.35578c0.16172,-0.10242 0.33152,-0.18328 0.50942,-0.24258c0.18328,-0.0593 0.36117,-0.08895 0.53368,-0.08895c0.37735,0 0.69001,0.07816 0.93798,0.23449c0.24797,0.15633 0.43395,0.39351 0.55794,0.71157c0.12938,0.31266 0.19407,0.70348 0.19407,1.17247v3.04034h-1.00267v-2.98374c0,-0.2911 -0.03773,-0.52829 -0.11321,-0.71157c-0.07548,-0.18328 -0.18867,-0.31805 -0.33961,-0.4043c-0.14555,-0.09164 -0.33423,-0.13746 -0.56603,-0.13746c-0.17789,0 -0.3477,0.03235 -0.50942,0.09703c-0.15633,0.0593 -0.29379,0.14285 -0.41239,0.25066c-0.11321,0.10782 -0.20215,0.23449 -0.26684,0.38004c-0.0593,0.14555 -0.08895,0.30457 -0.08895,0.47707v3.03225h-1.01075v-2.99991c0,-0.26414 -0.03773,-0.48785 -0.11321,-0.67114c-0.07548,-0.18328 -0.18867,-0.32344 -0.33962,-0.42048c-0.14555,-0.09703 -0.32614,-0.14555 -0.54176,-0.14555c-0.17789,0 -0.345,0.03235 -0.50133,0.09703c-0.15094,0.0593 -0.28571,0.14285 -0.4043,0.25066c-0.11321,0.10242 -0.20215,0.22641 -0.26684,0.37196c-0.06469,0.14555 -0.09703,0.30188 -0.09703,0.46899v3.04843z" fill="#ffffff" fill-rule="nonzero" stroke="none" stroke-width="1" stroke-linecap="square"/><path d="M140.85446,147.40267c-0.48399,0 -0.91809,-0.10478 -1.30229,-0.31435c-0.37921,-0.21455 -0.67858,-0.50645 -0.89812,-0.87568c-0.21455,-0.37422 -0.32183,-0.79584 -0.32183,-1.26486v-3.86195h0.96549v3.77963c0,0.30436 0.06985,0.57879 0.20956,0.82328c0.1447,0.2395 0.33431,0.43159 0.56882,0.57629c0.2395,0.13971 0.49896,0.20956 0.77838,0.20956c0.29439,0 0.56133,-0.06985 0.80083,-0.20956c0.24449,-0.1447 0.43908,-0.33679 0.58378,-0.57629c0.1447,-0.24449 0.21705,-0.51892 0.21705,-0.82328v-3.77963h0.91309v3.86195c0,0.46902 -0.10976,0.89064 -0.32931,1.26486c-0.21455,0.36923 -0.51393,0.66112 -0.89813,0.87568c-0.37921,0.20956 -0.80831,0.31435 -1.28732,0.31435zM146.36719,147.44009c-0.39418,0 -0.74844,-0.06736 -1.06278,-0.20208c-0.31435,-0.13971 -0.5763,-0.34428 -0.78587,-0.61372l0.62121,-0.53139c0.17962,0.20458 0.37422,0.35426 0.58379,0.44906c0.21455,0.08981 0.45654,0.13472 0.72598,0.13472c0.10478,0 0.20208,-0.01247 0.29189,-0.03742c0.0948,-0.02495 0.17714,-0.06486 0.24699,-0.11975c0.06985,-0.05489 0.12225,-0.11975 0.15717,-0.19459c0.03492,-0.07485 0.05239,-0.15717 0.05239,-0.24698c0,-0.15467 -0.05738,-0.27942 -0.17214,-0.37422c-0.05988,-0.03992 -0.15468,-0.08482 -0.28441,-0.13472c-0.12474,-0.04989 -0.28939,-0.10228 -0.49397,-0.15717c-0.34428,-0.08981 -0.62619,-0.18961 -0.84573,-0.29937c-0.21955,-0.11476 -0.38919,-0.24449 -0.50894,-0.38919c-0.08981,-0.11476 -0.15718,-0.23701 -0.20208,-0.36674c-0.03992,-0.13472 -0.05987,-0.28441 -0.05987,-0.44906c0,-0.19459 0.04241,-0.37422 0.12723,-0.53887c0.08981,-0.16466 0.20957,-0.30686 0.35926,-0.42661c0.15467,-0.12474 0.3343,-0.21955 0.53887,-0.28441c0.20458,-0.06486 0.42412,-0.09729 0.65863,-0.09729c0.21955,0 0.43659,0.02993 0.65114,0.08981c0.21955,0.05988 0.42162,0.1472 0.60623,0.26196c0.18462,0.10977 0.3393,0.242 0.46404,0.39667l-0.52391,0.58378c-0.11476,-0.11476 -0.2395,-0.21455 -0.37422,-0.29937c-0.13472,-0.08482 -0.27193,-0.14969 -0.41164,-0.19459c-0.13472,-0.04989 -0.25697,-0.07485 -0.36674,-0.07485c-0.12474,0 -0.2395,0.01248 -0.34428,0.03743c-0.0998,0.01996 -0.18462,0.05489 -0.25447,0.10478c-0.06486,0.0449 -0.11725,0.10478 -0.15717,0.17962c-0.03492,0.06985 -0.05239,0.14969 -0.05239,0.2395c0.00499,0.07485 0.02495,0.1472 0.05988,0.21705c0.03492,0.06985 0.08232,0.12724 0.1422,0.17214c0.06486,0.04989 0.16216,0.10229 0.29189,0.15717c0.12973,0.04989 0.29688,0.09979 0.50146,0.14969c0.29439,0.07485 0.53887,0.15967 0.73347,0.25447c0.19459,0.08981 0.34927,0.19459 0.46403,0.31435c0.11975,0.11476 0.20208,0.24698 0.24698,0.39667c0.04989,0.14969 0.07485,0.31684 0.07485,0.50146c0,0.26445 -0.07734,0.50395 -0.23202,0.7185c-0.14969,0.20956 -0.35426,0.37422 -0.61372,0.49397c-0.25447,0.11975 -0.53888,0.17963 -0.85322,0.17963zM151.26892,147.44009c-0.479,0 -0.90561,-0.10229 -1.27983,-0.30687c-0.36923,-0.20458 -0.66112,-0.48648 -0.87568,-0.84573c-0.20956,-0.35925 -0.31435,-0.77089 -0.31435,-1.23493c0,-0.36923 0.05988,-0.70603 0.17963,-1.01039c0.11975,-0.30436 0.2844,-0.56632 0.49397,-0.78586c0.20956,-0.22453 0.46154,-0.39667 0.75593,-0.51642c0.29937,-0.12474 0.62121,-0.18711 0.96549,-0.18711c0.30436,0 0.58628,0.05738 0.84574,0.17214c0.26445,0.11476 0.49148,0.27443 0.68108,0.479c0.19459,0.20458 0.34428,0.44657 0.44906,0.72599c0.10478,0.27443 0.15468,0.5738 0.14969,0.89812l-0.00749,0.39668h-3.83201l-0.20956,-0.73347h3.24075l-0.12724,0.14969v-0.20956c-0.01996,-0.19959 -0.08732,-0.37672 -0.20208,-0.5314c-0.10977,-0.15467 -0.25197,-0.27692 -0.42661,-0.36674c-0.17463,-0.08981 -0.36174,-0.13472 -0.56133,-0.13472c-0.32432,0 -0.59626,0.06237 -0.8158,0.18711c-0.21955,0.11975 -0.3867,0.29938 -0.50145,0.53888c-0.10977,0.23451 -0.16465,0.52391 -0.16465,0.86819c0,0.32432 0.06736,0.60873 0.20208,0.85322c0.13472,0.2395 0.32681,0.42661 0.57629,0.56133c0.25447,0.12973 0.54387,0.1946 0.86819,0.1946c0.23451,0 0.45156,-0.03742 0.65115,-0.11227c0.19959,-0.07984 0.41663,-0.22204 0.65114,-0.42661l0.46403,0.65114c-0.1447,0.1447 -0.31933,0.27194 -0.52391,0.38171c-0.20458,0.10478 -0.42162,0.18961 -0.65114,0.25447c-0.22952,0.05988 -0.45655,0.08982 -0.68108,0.08982zM154.32018,147.35028v-4.69272h0.92807v1.47443l-0.08981,-0.35925c0.06486,-0.22453 0.17712,-0.4291 0.33679,-0.61372c0.15967,-0.18462 0.34179,-0.32932 0.54637,-0.4341c0.20458,-0.10977 0.41662,-0.16465 0.63617,-0.16465c0.0998,0 0.1946,0.00997 0.28441,0.02993c0.0948,0.01497 0.16964,0.03493 0.22453,0.05988l-0.2395,1.00291c-0.06985,-0.02994 -0.14969,-0.05489 -0.2395,-0.07485c-0.08482,-0.02495 -0.16965,-0.03742 -0.25447,-0.03742c-0.15967,0 -0.31185,0.03243 -0.45655,0.0973c-0.1447,0.05988 -0.27443,0.1472 -0.38919,0.26196c-0.10977,0.10977 -0.19709,0.23701 -0.26196,0.38171c-0.06486,0.1447 -0.0973,0.30436 -0.0973,0.479v2.58961zM162.5867,147.44009c-0.33929,0 -0.65364,-0.04491 -0.94304,-0.13472c-0.2894,-0.08981 -0.55135,-0.22454 -0.78586,-0.40416c-0.23451,-0.18462 -0.44407,-0.40914 -0.62869,-0.6736l0.65863,-0.76341c0.29439,0.41913 0.5738,0.70852 0.83826,0.86819c0.26944,0.15967 0.58877,0.2395 0.958,0.2395c0.22453,0 0.4291,-0.03493 0.61372,-0.10478c0.18462,-0.07485 0.32932,-0.17463 0.4341,-0.29937c0.10977,-0.12474 0.16465,-0.26694 0.16465,-0.42661c0,-0.10478 -0.01747,-0.20458 -0.05239,-0.29937c-0.03492,-0.0998 -0.08981,-0.18711 -0.16465,-0.26196c-0.07485,-0.07984 -0.16965,-0.15219 -0.28441,-0.21705c-0.11476,-0.06486 -0.24948,-0.12225 -0.40416,-0.17214c-0.15467,-0.04989 -0.33431,-0.09231 -0.53888,-0.12724c-0.31933,-0.06985 -0.59875,-0.15717 -0.83825,-0.26196c-0.2395,-0.10977 -0.43909,-0.24448 -0.59876,-0.40415c-0.15967,-0.15967 -0.27942,-0.34179 -0.35925,-0.54637c-0.07984,-0.20458 -0.11975,-0.43659 -0.11975,-0.69604c0,-0.24948 0.05488,-0.4815 0.16465,-0.69605c0.11476,-0.21455 0.26695,-0.39917 0.45655,-0.55385c0.19459,-0.15967 0.42162,-0.28191 0.68108,-0.36674c0.26445,-0.08981 0.54886,-0.13471 0.85322,-0.13471c0.32432,0 0.61871,0.04241 0.88316,0.12724c0.26944,0.08482 0.50894,0.20956 0.71851,0.37422c0.20956,0.15967 0.38171,0.35925 0.51642,0.59875l-0.68108,0.6736c-0.11476,-0.19959 -0.24698,-0.36424 -0.39667,-0.49397c-0.14969,-0.13472 -0.31435,-0.237 -0.49397,-0.30686c-0.17962,-0.06986 -0.36923,-0.10478 -0.56882,-0.10478c-0.23451,0 -0.43909,0.03742 -0.61372,0.11226c-0.16965,0.06986 -0.30436,0.16965 -0.40416,0.29938c-0.0998,0.12474 -0.14969,0.27443 -0.14969,0.44906c0,0.12474 0.02495,0.2395 0.07484,0.34428c0.04989,0.10478 0.12225,0.19709 0.21705,0.27693c0.0998,0.07984 0.23201,0.15218 0.39667,0.21705c0.16965,0.05988 0.36924,0.11227 0.59876,0.15717c0.32932,0.07485 0.62121,0.16716 0.87568,0.27693c0.25946,0.10977 0.47651,0.2395 0.65114,0.38918c0.17962,0.14969 0.31435,0.31684 0.40416,0.50145c0.0948,0.18462 0.14221,0.3842 0.14221,0.59875c0,0.39917 -0.09231,0.74595 -0.27693,1.04033c-0.18462,0.2894 -0.44657,0.51393 -0.78586,0.6736c-0.33929,0.15467 -0.74345,0.23202 -1.21247,0.23202zM168.18548,147.44009c-0.479,0 -0.90561,-0.10229 -1.27983,-0.30687c-0.36923,-0.20458 -0.66112,-0.48648 -0.87568,-0.84573c-0.20956,-0.35925 -0.31435,-0.77089 -0.31435,-1.23493c0,-0.36923 0.05987,-0.70603 0.17962,-1.01039c0.11975,-0.30436 0.28441,-0.56632 0.49397,-0.78586c0.20956,-0.22453 0.46154,-0.39667 0.75592,-0.51642c0.29937,-0.12474 0.62121,-0.18711 0.96549,-0.18711c0.30436,0 0.58628,0.05738 0.84574,0.17214c0.26445,0.11476 0.49148,0.27443 0.68108,0.479c0.19459,0.20458 0.34428,0.44657 0.44906,0.72599c0.10478,0.27443 0.15468,0.5738 0.14969,0.89812l-0.00749,0.39668h-3.83201l-0.20956,-0.73347h3.24075l-0.12724,0.14969v-0.20956c-0.01996,-0.19959 -0.08732,-0.37672 -0.20208,-0.5314c-0.10977,-0.15467 -0.25197,-0.27692 -0.42661,-0.36674c-0.17463,-0.08981 -0.36175,-0.13472 -0.56133,-0.13472c-0.32432,0 -0.59625,0.06237 -0.8158,0.18711c-0.21955,0.11975 -0.3867,0.29938 -0.50145,0.53888c-0.10977,0.23451 -0.16466,0.52391 -0.16466,0.86819c0,0.32432 0.06736,0.60873 0.20208,0.85322c0.13472,0.2395 0.32682,0.42661 0.5763,0.56133c0.25447,0.12973 0.54387,0.1946 0.86819,0.1946c0.23451,0 0.45156,-0.03742 0.65115,-0.11227c0.19959,-0.07984 0.41663,-0.22204 0.65114,-0.42661l0.46403,0.65114c-0.1447,0.1447 -0.31933,0.27194 -0.52391,0.38171c-0.20458,0.10478 -0.42162,0.18961 -0.65114,0.25447c-0.22952,0.05988 -0.45655,0.08982 -0.68108,0.08982zM171.82053,147.35028v-5.89023h0.92058v5.89023zM170.84007,143.55568v-0.89813h2.98628v0.89813zM175.25209,147.35028v-5.89023h0.92058v5.89023zM174.27164,143.55568v-0.89813h2.98628v0.89813zM178.24957,147.35028v-4.69272h0.92058v4.69272zM178.69863,141.62471c-0.19459,0 -0.34678,-0.04989 -0.45655,-0.14969c-0.10478,-0.10478 -0.15717,-0.24948 -0.15717,-0.43409c0,-0.17463 0.05489,-0.31434 0.16466,-0.41912c0.10977,-0.10977 0.25946,-0.16466 0.44907,-0.16466c0.19459,0 0.34428,0.0524 0.44906,0.15718c0.10977,0.0998 0.16466,0.242 0.16466,0.42661c0,0.17463 -0.05489,0.31684 -0.16466,0.42661c-0.10977,0.10478 -0.25946,0.15717 -0.44906,0.15717zM180.5842,147.35028v-4.69272h0.92058v0.96549l-0.16466,0.10478c0.05988,-0.20458 0.17713,-0.39418 0.35177,-0.56882c0.17463,-0.17962 0.37921,-0.32433 0.61372,-0.4341c0.2395,-0.10977 0.48399,-0.16465 0.73347,-0.16465c0.35925,0 0.65614,0.06985 0.89065,0.20956c0.2395,0.13971 0.41912,0.35426 0.53887,0.64366c0.11975,0.2844 0.17963,0.64366 0.17963,1.07775v2.85904h-0.92058v-2.79916c0,-0.26445 -0.03493,-0.484 -0.10479,-0.65863c-0.06985,-0.17962 -0.17962,-0.30935 -0.32931,-0.38918c-0.14969,-0.07984 -0.3343,-0.11477 -0.55384,-0.10478c-0.17962,0 -0.34428,0.02994 -0.49397,0.08981c-0.14969,0.05489 -0.27942,0.13472 -0.38919,0.2395c-0.10977,0.0998 -0.19709,0.21705 -0.26196,0.35177c-0.05988,0.12973 -0.08981,0.27194 -0.08981,0.42661v2.84407h-0.45655c-0.07485,0 -0.15219,0 -0.23202,0c-0.07984,0 -0.15717,0 -0.23201,0zM188.00446,149.40848c-0.3343,0 -0.66861,-0.05239 -1.00291,-0.15717c-0.32932,-0.10478 -0.59376,-0.242 -0.79334,-0.41164l0.3368,-0.71102c0.11975,0.08981 0.25946,0.16716 0.41913,0.23202c0.15967,0.06985 0.32932,0.12473 0.50894,0.16465c0.17962,0.03992 0.35676,0.05988 0.53139,0.05988c0.32432,0 0.59625,-0.05489 0.8158,-0.16466c0.22453,-0.10478 0.39168,-0.26196 0.50145,-0.47152c0.11476,-0.20956 0.17214,-0.46902 0.17214,-0.77837v-0.89813l0.0973,0.05988c-0.02994,0.18462 -0.12724,0.36175 -0.2919,0.5314c-0.16466,0.16965 -0.36923,0.30935 -0.61372,0.41912c-0.2395,0.10478 -0.48898,0.15718 -0.74844,0.15718c-0.44407,0 -0.84075,-0.10478 -1.19002,-0.31435c-0.34927,-0.21455 -0.62619,-0.50396 -0.83076,-0.8682c-0.19959,-0.36923 -0.29938,-0.78835 -0.29938,-1.25737c0,-0.46902 0.0998,-0.88566 0.29938,-1.2499c0.19959,-0.36923 0.47152,-0.65863 0.8158,-0.86819c0.34927,-0.21455 0.74345,-0.32183 1.18254,-0.32183c0.17463,0 0.34428,0.02245 0.50893,0.06736c0.16965,0.0449 0.32682,0.10728 0.47152,0.18711c0.1447,0.07984 0.27193,0.16715 0.3817,0.26195c0.11476,0.0948 0.20707,0.19709 0.27692,0.30686c0.07485,0.10478 0.11975,0.20458 0.13472,0.29938l-0.19459,0.07484v-1.10021h0.92058v4.40832c0,0.37422 -0.05489,0.70603 -0.16466,0.99543c-0.10977,0.2894 -0.26944,0.53388 -0.479,0.73347c-0.20956,0.19959 -0.46403,0.35177 -0.76341,0.45655c-0.29439,0.10478 -0.62869,0.15717 -1.00291,0.15717zM188.0344,146.59436c0.29439,0 0.55385,-0.06736 0.77838,-0.20208c0.22952,-0.13971 0.40666,-0.32932 0.5314,-0.56882c0.12474,-0.2395 0.18711,-0.51393 0.18711,-0.82328c0,-0.30936 -0.06486,-0.58379 -0.19459,-0.82328c-0.12973,-0.24449 -0.30687,-0.4341 -0.5314,-0.56882c-0.21955,-0.13971 -0.47651,-0.20956 -0.77089,-0.20956c-0.2844,0 -0.53888,0.06985 -0.76341,0.20956c-0.22453,0.13971 -0.40167,0.33181 -0.5314,0.5763c-0.12474,0.2395 -0.18711,0.51144 -0.18711,0.8158c0,0.30436 0.06237,0.57879 0.18711,0.82328c0.12973,0.2395 0.30687,0.4291 0.5314,0.56882c0.22453,0.13472 0.47901,0.20208 0.76341,0.20208zM193.17586,147.44009c-0.39418,0 -0.74844,-0.06736 -1.06279,-0.20208c-0.31435,-0.13971 -0.57629,-0.34428 -0.78586,-0.61372l0.62121,-0.53139c0.17962,0.20458 0.37422,0.35426 0.58378,0.44906c0.21455,0.08981 0.45655,0.13472 0.72599,0.13472c0.10478,0 0.20208,-0.01247 0.29189,-0.03742c0.0948,-0.02495 0.17713,-0.06486 0.24698,-0.11975c0.06985,-0.05489 0.12225,-0.11975 0.15718,-0.19459c0.03492,-0.07485 0.05239,-0.15717 0.05239,-0.24698c0,-0.15467 -0.05738,-0.27942 -0.17214,-0.37422c-0.05988,-0.03992 -0.15468,-0.08482 -0.28441,-0.13472c-0.12474,-0.04989 -0.28939,-0.10228 -0.49397,-0.15717c-0.34428,-0.08981 -0.62619,-0.18961 -0.84573,-0.29937c-0.21955,-0.11476 -0.38919,-0.24449 -0.50894,-0.38919c-0.08981,-0.11476 -0.15717,-0.23701 -0.20208,-0.36674c-0.03992,-0.13472 -0.05988,-0.28441 -0.05988,-0.44906c0,-0.19459 0.04241,-0.37422 0.12724,-0.53887c0.08981,-0.16466 0.20956,-0.30686 0.35925,-0.42661c0.15467,-0.12474 0.33431,-0.21955 0.53888,-0.28441c0.20458,-0.06486 0.42412,-0.09729 0.65863,-0.09729c0.21955,0 0.43659,0.02993 0.65114,0.08981c0.21955,0.05988 0.42162,0.1472 0.60623,0.26196c0.18462,0.10977 0.33929,0.242 0.46403,0.39667l-0.52391,0.58378c-0.11476,-0.11476 -0.2395,-0.21455 -0.37422,-0.29937c-0.13472,-0.08482 -0.27194,-0.14969 -0.41165,-0.19459c-0.13472,-0.04989 -0.25696,-0.07485 -0.36673,-0.07485c-0.12474,0 -0.2395,0.01248 -0.34428,0.03743c-0.0998,0.01996 -0.18462,0.05489 -0.25447,0.10478c-0.06486,0.0449 -0.11726,0.10478 -0.15717,0.17962c-0.03492,0.06985 -0.05239,0.14969 -0.05239,0.2395c0.00499,0.07485 0.02495,0.1472 0.05988,0.21705c0.03492,0.06985 0.08233,0.12724 0.14221,0.17214c0.06486,0.04989 0.16216,0.10229 0.29189,0.15717c0.12973,0.04989 0.29688,0.09979 0.50145,0.14969c0.29439,0.07485 0.53888,0.15967 0.73347,0.25447c0.19459,0.08981 0.34927,0.19459 0.46403,0.31435c0.11975,0.11476 0.20208,0.24698 0.24698,0.39667c0.04989,0.14969 0.07485,0.31684 0.07485,0.50146c0,0.26445 -0.07734,0.50395 -0.23202,0.7185c-0.14969,0.20956 -0.35426,0.37422 -0.61372,0.49397c-0.25447,0.11975 -0.53888,0.17963 -0.85322,0.17963z" fill="#ffffff" fill-rule="nonzero" stroke="none" stroke-width="1" stroke-linecap="square"/><path d="M139.75485,169.21931l2.31706,-5.99708h0.94691l2.30271,5.99708h-0.98277l-1.37014,-3.61546c-0.01913,-0.03826 -0.05261,-0.13391 -0.10043,-0.28694c-0.04782,-0.15782 -0.10521,-0.32998 -0.17216,-0.51649c-0.06217,-0.1913 -0.11956,-0.36346 -0.17216,-0.51649c-0.04782,-0.15782 -0.0813,-0.26064 -0.10043,-0.30846l0.20086,-0.00717c-0.03347,0.09565 -0.07651,0.2176 -0.12912,0.36585c-0.04782,0.14825 -0.09804,0.30607 -0.15064,0.47345c-0.05261,0.16738 -0.10521,0.3252 -0.15782,0.47345c-0.05261,0.14347 -0.09565,0.26303 -0.12912,0.35868l-1.36297,3.5796zM140.78067,167.72717l0.34433,-0.88952h2.72594l0.39455,0.88952zM146.1522,171.10595v-6.38445h0.88952v1.02582l-0.13629,-0.07174c0.03347,-0.17216 0.12912,-0.33715 0.28694,-0.49497c0.1626,-0.15782 0.35868,-0.28694 0.58823,-0.38737c0.23433,-0.10043 0.47345,-0.15064 0.71735,-0.15064c0.4065,0 0.76517,0.10043 1.07603,0.30129c0.31564,0.20086 0.56432,0.47585 0.74605,0.82496c0.18651,0.34911 0.27977,0.74844 0.27977,1.19798c0,0.44476 -0.09087,0.84409 -0.27259,1.19798c-0.18173,0.34911 -0.43041,0.62649 -0.74605,0.83213c-0.31086,0.20086 -0.66236,0.30129 -1.05451,0.30129c-0.26303,0 -0.51889,-0.0526 -0.76757,-0.15782c-0.2439,-0.10521 -0.45193,-0.24151 -0.6241,-0.40889c-0.17216,-0.16738 -0.27737,-0.33955 -0.31564,-0.51649l0.22238,-0.11478v3.00571zM148.376,168.48044c0.26303,0 0.49737,-0.06456 0.70301,-0.19368c0.20564,-0.13391 0.36824,-0.31324 0.4878,-0.53801c0.11956,-0.22955 0.17934,-0.49019 0.17934,-0.78191c0,-0.29173 -0.05978,-0.54997 -0.17934,-0.77474c-0.11478,-0.22477 -0.27499,-0.40172 -0.48062,-0.53084c-0.20086,-0.13391 -0.43758,-0.20086 -0.71018,-0.20086c-0.26782,0 -0.50454,0.06456 -0.71018,0.19369c-0.20564,0.12912 -0.36824,0.30846 -0.4878,0.53802c-0.11956,0.22477 -0.17934,0.48302 -0.17934,0.77474c0,0.29173 0.05978,0.55236 0.17934,0.78192c0.11956,0.22477 0.28216,0.40411 0.4878,0.53802c0.20564,0.12912 0.44237,0.19369 0.71018,0.19369zM151.55685,171.10595v-6.38445h0.88952v1.02582l-0.13629,-0.07174c0.03348,-0.17216 0.12912,-0.33715 0.28694,-0.49497c0.1626,-0.15782 0.35868,-0.28694 0.58823,-0.38737c0.23434,-0.10043 0.47345,-0.15064 0.71735,-0.15064c0.4065,0 0.76518,0.10043 1.07603,0.30129c0.31564,0.20086 0.56432,0.47585 0.74605,0.82496c0.18651,0.34911 0.27977,0.74844 0.27977,1.19798c0,0.44476 -0.09087,0.84409 -0.27259,1.19798c-0.18173,0.34911 -0.43041,0.62649 -0.74605,0.83213c-0.31085,0.20086 -0.66236,0.30129 -1.05451,0.30129c-0.26303,0 -0.51889,-0.0526 -0.76757,-0.15782c-0.2439,-0.10521 -0.45193,-0.24151 -0.6241,-0.40889c-0.17216,-0.16738 -0.27738,-0.33955 -0.31564,-0.51649l0.22238,-0.11478v3.00571zM153.78064,168.48044c0.26303,0 0.49736,-0.06456 0.70301,-0.19368c0.20564,-0.13391 0.36824,-0.31324 0.4878,-0.53801c0.11956,-0.22955 0.17934,-0.49019 0.17934,-0.78191c0,-0.29173 -0.05978,-0.54997 -0.17934,-0.77474c-0.11478,-0.22477 -0.27499,-0.40172 -0.48062,-0.53084c-0.20086,-0.13391 -0.43758,-0.20086 -0.71018,-0.20086c-0.26781,0 -0.50454,0.06456 -0.71018,0.19369c-0.20564,0.12912 -0.36824,0.30846 -0.4878,0.53802c-0.11956,0.22477 -0.17934,0.48302 -0.17934,0.77474c0,0.29173 0.05978,0.55236 0.17934,0.78192c0.11956,0.22477 0.28216,0.40411 0.4878,0.53802c0.20564,0.12912 0.44237,0.19369 0.71018,0.19369zM161.43291,169.30539c-0.3252,0 -0.62649,-0.04304 -0.90387,-0.12912c-0.27738,-0.08608 -0.52845,-0.21521 -0.75322,-0.38737c-0.22477,-0.17695 -0.42563,-0.39215 -0.60258,-0.64562l0.63127,-0.7317c0.28216,0.40172 0.54997,0.6791 0.80344,0.83213c0.25825,0.15303 0.56432,0.22955 0.91821,0.22955c0.21521,0 0.41128,-0.03348 0.58823,-0.10043c0.17695,-0.07174 0.31564,-0.16738 0.41607,-0.28694c0.10521,-0.11956 0.15782,-0.25586 0.15782,-0.40889c0,-0.10043 -0.01674,-0.19608 -0.05021,-0.28694c-0.03348,-0.09565 -0.08608,-0.17934 -0.15782,-0.25107c-0.07174,-0.07652 -0.1626,-0.14586 -0.27259,-0.20803c-0.10999,-0.06217 -0.23912,-0.11717 -0.38737,-0.16499c-0.14825,-0.04783 -0.32042,-0.08847 -0.51649,-0.12195c-0.30607,-0.06695 -0.57388,-0.15064 -0.80344,-0.25107c-0.22955,-0.10521 -0.42085,-0.23434 -0.57388,-0.38737c-0.15303,-0.15303 -0.26781,-0.32759 -0.34433,-0.52367c-0.07652,-0.19608 -0.11478,-0.41846 -0.11478,-0.66714c0,-0.23912 0.0526,-0.4615 0.15782,-0.66714c0.10999,-0.20564 0.25586,-0.38259 0.43759,-0.53084c0.18651,-0.15303 0.40411,-0.2702 0.65279,-0.3515c0.25346,-0.08608 0.52606,-0.12912 0.81778,-0.12912c0.31085,0 0.59301,0.04065 0.84648,0.12195c0.25825,0.0813 0.4878,0.20086 0.68866,0.35868c0.20086,0.15303 0.36585,0.34433 0.49498,0.57388l-0.65279,0.64562c-0.10999,-0.1913 -0.23672,-0.34911 -0.3802,-0.47345c-0.14347,-0.12912 -0.30129,-0.22716 -0.47345,-0.29411c-0.17216,-0.06695 -0.35389,-0.10043 -0.54519,-0.10043c-0.22477,0 -0.42085,0.03587 -0.58823,0.10761c-0.1626,0.06695 -0.29173,0.1626 -0.38737,0.28694c-0.09565,0.11956 -0.14347,0.26303 -0.14347,0.43041c0,0.11956 0.02391,0.22955 0.07174,0.32998c0.04783,0.10043 0.11717,0.1889 0.20803,0.26542c0.09565,0.07652 0.22238,0.14586 0.3802,0.20803c0.1626,0.05739 0.35389,0.10761 0.57388,0.15065c0.31564,0.07174 0.59541,0.16021 0.83931,0.26542c0.24868,0.10521 0.45671,0.22955 0.6241,0.37302c0.17216,0.14347 0.30129,0.30368 0.38737,0.48063c0.09087,0.17695 0.1363,0.36824 0.1363,0.57388c0,0.38259 -0.08847,0.71496 -0.26542,0.99712c-0.17695,0.27738 -0.42802,0.49258 -0.75322,0.64562c-0.3252,0.14825 -0.71257,0.22238 -1.16211,0.22238zM166.79912,169.30539c-0.45911,0 -0.868,-0.09804 -1.22667,-0.29411c-0.35389,-0.19608 -0.63366,-0.46628 -0.8393,-0.81061c-0.20086,-0.34433 -0.30129,-0.73887 -0.30129,-1.18363c0,-0.35389 0.05739,-0.6767 0.17216,-0.96843c0.11478,-0.29173 0.27259,-0.5428 0.47345,-0.75322c0.20086,-0.21521 0.44237,-0.3802 0.72453,-0.49497c0.28694,-0.11956 0.59541,-0.17934 0.92539,-0.17934c0.29173,0 0.56193,0.055 0.81061,0.16499c0.25346,0.10999 0.47106,0.26303 0.65279,0.45911c0.18651,0.19608 0.32998,0.42802 0.43041,0.69584c0.10043,0.26303 0.14825,0.54997 0.14347,0.86082l-0.00717,0.3802h-3.67285l-0.20086,-0.70301h3.10614l-0.12195,0.14347v-0.20086c-0.01913,-0.1913 -0.08369,-0.36107 -0.19368,-0.50932c-0.10521,-0.14825 -0.24151,-0.26542 -0.40889,-0.3515c-0.16738,-0.08608 -0.34672,-0.12912 -0.53801,-0.12912c-0.31085,0 -0.57149,0.05978 -0.78191,0.17934c-0.21042,0.11478 -0.37063,0.28694 -0.48062,0.51649c-0.10521,0.22477 -0.15782,0.50215 -0.15782,0.83213c0,0.31085 0.06456,0.58345 0.19369,0.81778c0.12912,0.22955 0.31324,0.40889 0.55236,0.53802c0.2439,0.12434 0.52128,0.18651 0.83213,0.18651c0.22477,0 0.4328,-0.03587 0.6241,-0.1076c0.1913,-0.07652 0.39933,-0.21281 0.6241,-0.40889l0.44476,0.6241c-0.13869,0.13869 -0.30607,0.26064 -0.50215,0.36585c-0.19608,0.10043 -0.40411,0.18173 -0.6241,0.2439c-0.21999,0.05739 -0.43758,0.08608 -0.65279,0.08608zM170.2832,169.21931v-5.64557h0.88235v5.64558zM169.34347,165.58229v-0.86082h2.86224v0.86082zM173.57224,169.21931v-5.64557h0.88235v5.64558zM172.63251,165.58229v-0.86082h2.86224v0.86082zM176.44521,169.21931v-4.49781h0.88235v4.49781zM176.87563,163.73151c-0.18651,0 -0.33237,-0.04783 -0.43758,-0.14347c-0.10043,-0.10043 -0.15064,-0.23912 -0.15064,-0.41607c0,-0.16738 0.0526,-0.30129 0.15782,-0.40172c0.10521,-0.10521 0.24868,-0.15782 0.43041,-0.15782c0.18651,0 0.32998,0.05022 0.43041,0.15065c0.10521,0.09565 0.15782,0.23195 0.15782,0.40889c0,0.16738 -0.0526,0.30368 -0.15782,0.40889c-0.10521,0.10043 -0.24868,0.15065 -0.43041,0.15065zM178.68285,169.21931v-4.49781h0.88235v0.92539l-0.15782,0.10043c0.05739,-0.19608 0.16977,-0.37781 0.33716,-0.54519c0.16738,-0.17216 0.36346,-0.31085 0.58823,-0.41607c0.22955,-0.10521 0.46389,-0.15782 0.70301,-0.15782c0.34433,0 0.62888,0.06695 0.85365,0.20086c0.22955,0.13391 0.40172,0.33955 0.51649,0.61692c0.11478,0.27259 0.17216,0.61692 0.17216,1.03299v2.74029h-0.88234v-2.6829c0,-0.25346 -0.03348,-0.46389 -0.10043,-0.63127c-0.06695,-0.17216 -0.17216,-0.2965 -0.31564,-0.37302c-0.14347,-0.07652 -0.32042,-0.10999 -0.53084,-0.10043c-0.17216,0 -0.32998,0.02869 -0.47345,0.08608c-0.14347,0.0526 -0.26781,0.12912 -0.37302,0.22955c-0.10521,0.09565 -0.1889,0.20803 -0.25107,0.33716c-0.05739,0.12434 -0.08608,0.26064 -0.08608,0.40889v2.72594h-0.43758c-0.07174,0 -0.14586,0 -0.22238,0c-0.07652,0 -0.15064,0 -0.22238,0zM185.79491,171.19203c-0.32042,0 -0.64083,-0.05021 -0.96125,-0.15064c-0.31564,-0.10043 -0.5691,-0.23195 -0.7604,-0.39454l0.32281,-0.68148c0.11478,0.08608 0.24868,0.16021 0.40172,0.22238c0.15303,0.06695 0.31564,0.11956 0.4878,0.15782c0.17216,0.03826 0.34194,0.05739 0.50932,0.05739c0.31085,0 0.57149,-0.0526 0.78192,-0.15782c0.21521,-0.10043 0.37542,-0.25107 0.48063,-0.45193c0.10999,-0.20086 0.16499,-0.44954 0.16499,-0.74605v-0.86082l0.09326,0.05739c-0.02869,0.17695 -0.12195,0.34672 -0.27977,0.50932c-0.15782,0.1626 -0.35389,0.2965 -0.58823,0.40172c-0.22955,0.10043 -0.46867,0.15065 -0.71735,0.15065c-0.42563,0 -0.80583,-0.10043 -1.14059,-0.30129c-0.33477,-0.20564 -0.60019,-0.48302 -0.79626,-0.83213c-0.1913,-0.35389 -0.28694,-0.75561 -0.28694,-1.20515c0,-0.44954 0.09565,-0.84887 0.28694,-1.19798c0.1913,-0.35389 0.45194,-0.63127 0.78192,-0.83213c0.33477,-0.20564 0.71257,-0.30846 1.13342,-0.30846c0.16738,0 0.32998,0.02152 0.4878,0.06456c0.1626,0.04304 0.31324,0.10282 0.45194,0.17934c0.13869,0.07652 0.26064,0.16021 0.36585,0.25108c0.10999,0.09087 0.19847,0.1889 0.26542,0.29412c0.07174,0.10043 0.11478,0.19608 0.12912,0.28694l-0.18651,0.07174v-1.05451h0.88235v4.22522c0,0.35868 -0.0526,0.6767 -0.15782,0.95408c-0.10521,0.27738 -0.25825,0.51171 -0.45911,0.70301c-0.20086,0.1913 -0.44476,0.33716 -0.7317,0.43759c-0.28216,0.10043 -0.60258,0.15065 -0.96125,0.15065zM185.82361,168.49477c0.28216,0 0.53084,-0.06456 0.74605,-0.19368c0.21999,-0.13391 0.38976,-0.31564 0.50932,-0.54519c0.11956,-0.22955 0.17934,-0.49258 0.17934,-0.78909c0,-0.2965 -0.06217,-0.55954 -0.18651,-0.78909c-0.12434,-0.23434 -0.29411,-0.41607 -0.50932,-0.54519c-0.21042,-0.13391 -0.45671,-0.20086 -0.73887,-0.20086c-0.27259,0 -0.51649,0.06695 -0.7317,0.20086c-0.21521,0.13391 -0.38498,0.31803 -0.50932,0.55236c-0.11956,0.22955 -0.17934,0.49019 -0.17934,0.78192c0,0.29173 0.05978,0.55475 0.17934,0.78909c0.12434,0.22955 0.29412,0.41128 0.50932,0.54519c0.21521,0.12912 0.45911,0.19369 0.7317,0.19369zM190.75155,169.30539c-0.37781,0 -0.71735,-0.06456 -1.01864,-0.19368c-0.30129,-0.13391 -0.55236,-0.32998 -0.75322,-0.58823l0.59541,-0.50932c0.17216,0.19608 0.35868,0.33955 0.55954,0.43041c0.20564,0.08608 0.43759,0.12912 0.69584,0.12912c0.10043,0 0.19369,-0.01196 0.27977,-0.03587c0.09087,-0.02391 0.16977,-0.06217 0.23673,-0.11478c0.06695,-0.0526 0.11717,-0.11478 0.15065,-0.18651c0.03348,-0.07174 0.05022,-0.15064 0.05022,-0.23672c0,-0.14825 -0.055,-0.26781 -0.16499,-0.35868c-0.05739,-0.03826 -0.14825,-0.0813 -0.27259,-0.12912c-0.11956,-0.04783 -0.27738,-0.09804 -0.47345,-0.15064c-0.32998,-0.08608 -0.60019,-0.18173 -0.81061,-0.28694c-0.21042,-0.10999 -0.37302,-0.23434 -0.4878,-0.37302c-0.08608,-0.10999 -0.15064,-0.22716 -0.19368,-0.3515c-0.03826,-0.12912 -0.05739,-0.27259 -0.05739,-0.43041c0,-0.18651 0.04065,-0.35868 0.12195,-0.51649c0.08608,-0.15782 0.20086,-0.29411 0.34433,-0.40889c0.14825,-0.11956 0.32042,-0.21042 0.51649,-0.27259c0.19608,-0.06217 0.4065,-0.09325 0.63127,-0.09325c0.21042,0 0.41846,0.02869 0.6241,0.08608c0.21042,0.05739 0.40411,0.14108 0.58106,0.25108c0.17695,0.10521 0.3252,0.23195 0.44476,0.3802l-0.50215,0.55954c-0.10999,-0.10999 -0.22955,-0.20564 -0.35868,-0.28694c-0.12912,-0.0813 -0.26064,-0.14347 -0.39454,-0.18651c-0.12912,-0.04783 -0.24629,-0.07174 -0.3515,-0.07174c-0.11956,0 -0.22955,0.01196 -0.32998,0.03587c-0.09565,0.01913 -0.17695,0.0526 -0.2439,0.10043c-0.06217,0.04304 -0.11238,0.10043 -0.15064,0.17216c-0.03348,0.06695 -0.05021,0.14347 -0.05021,0.22955c0.00478,0.07174 0.02391,0.14108 0.05739,0.20803c0.03348,0.06695 0.07891,0.12195 0.1363,0.16499c0.06217,0.04783 0.15543,0.09804 0.27977,0.15065c0.12434,0.04783 0.28455,0.09565 0.48063,0.14347c0.28216,0.07174 0.51649,0.15303 0.70301,0.2439c0.18651,0.08608 0.33477,0.18651 0.44476,0.30129c0.11478,0.10999 0.19369,0.23673 0.23673,0.3802c0.04783,0.14347 0.07174,0.30368 0.07174,0.48063c0,0.25346 -0.07413,0.48302 -0.22238,0.68866c-0.14347,0.20086 -0.33955,0.35868 -0.58823,0.47345c-0.2439,0.11478 -0.51649,0.17216 -0.81778,0.17216z" fill="#ffffff" fill-rule="nonzero" stroke="none" stroke-width="1" stroke-linecap="square"/><path d="M116.18739,105.4692c-0.31835,0 -0.58782,-0.11029 -0.80841,-0.33087c-0.22058,-0.22058 -0.33087,-0.49005 -0.33087,-0.8084v-8.43542c0,-0.31835 0.11029,-0.58782 0.33087,-0.8084c0.22058,-0.22058 0.49006,-0.33087 0.80841,-0.33087h5.45516l-0.94534,0.94534h-4.50983c-0.04849,0 -0.09294,0.0202 -0.13334,0.0606c-0.04039,0.04041 -0.0606,0.08486 -0.0606,0.13334v8.43542c0,0.04849 0.0202,0.09294 0.0606,0.13334c0.04041,0.04039 0.08486,0.0606 0.13334,0.0606h8.43542c0.04849,0 0.09294,-0.0202 0.13334,-0.0606c0.04039,-0.04041 0.0606,-0.08486 0.0606,-0.13334v-4.54983l0.94534,-0.94532v5.49515c0,0.31835 -0.11029,0.58782 -0.33087,0.8084c-0.22058,0.22058 -0.49006,0.33087 -0.80841,0.33087zM118.82952,101.68779v-2.16338l5.70971,-5.70968c0.09776,-0.09777 0.20522,-0.16907 0.32238,-0.21392c0.11715,-0.04484 0.23633,-0.06726 0.35753,-0.06726c0.12361,0 0.24237,0.02243 0.3563,0.06726c0.11393,0.04484 0.21775,0.11412 0.31148,0.20785l0.79142,0.78901c0.0913,0.09776 0.1614,0.20563 0.21028,0.3236c0.04889,0.11796 0.07333,0.23753 0.07333,0.35873c0,0.12121 -0.0208,0.23877 -0.0624,0.35269c-0.04161,0.11392 -0.11131,0.21976 -0.20907,0.31753l-5.72787,5.73757zM126.02631,95.28606l-0.79142,-0.8096zM119.77487,100.74246h0.78537l3.92808,-3.92809l-0.39269,-0.39268l-0.42056,-0.4048l-3.90022,3.90022zM124.09564,96.42168l-0.42056,-0.4048l0.42056,0.4048l0.39268,0.39268z" fill="#ffffff" fill-rule="nonzero" stroke="none" stroke-width="1" stroke-linecap="butt"/><path d="M119.36365,171.61535c-0.26922,0 -0.4997,-0.09586 -0.69142,-0.28757c-0.19171,-0.19173 -0.28757,-0.4222 -0.28757,-0.69142c0,-0.26922 0.09586,-0.4997 0.28757,-0.69142c0.19173,-0.19171 0.4222,-0.28757 0.69142,-0.28757c0.26922,0 0.4997,0.09586 0.69142,0.28757c0.19171,0.19173 0.28757,0.4222 0.28757,0.69142c0,0.26922 -0.09586,0.4997 -0.28757,0.69142c-0.19173,0.19171 -0.4222,0.28757 -0.69142,0.28757zM123,171.61535c-0.26922,0 -0.4997,-0.09586 -0.69142,-0.28757c-0.19171,-0.19173 -0.28757,-0.4222 -0.28757,-0.69142c0,-0.26922 0.09586,-0.4997 0.28757,-0.69142c0.19173,-0.19171 0.4222,-0.28757 0.69142,-0.28757c0.26922,0 0.4997,0.09586 0.69142,0.28757c0.19171,0.19173 0.28757,0.4222 0.28757,0.69142c0,0.26922 -0.09586,0.4997 -0.28757,0.69142c-0.19173,0.19171 -0.4222,0.28757 -0.69142,0.28757zM126.63635,171.61535c-0.26922,0 -0.4997,-0.09586 -0.69142,-0.28757c-0.19171,-0.19173 -0.28757,-0.4222 -0.28757,-0.69142c0,-0.26922 0.09586,-0.4997 0.28757,-0.69142c0.19173,-0.19171 0.4222,-0.28757 0.69142,-0.28757c0.26922,0 0.4997,0.09586 0.69142,0.28757c0.19171,0.19173 0.28757,0.4222 0.28757,0.69142c0,0.26922 -0.09586,0.4997 -0.28757,0.69142c-0.19173,0.19171 -0.4222,0.28757 -0.69142,0.28757zM119.36365,167.979c-0.26922,0 -0.4997,-0.09586 -0.69142,-0.28757c-0.19171,-0.19173 -0.28757,-0.4222 -0.28757,-0.69142c0,-0.26922 0.09586,-0.4997 0.28757,-0.69142c0.19173,-0.19171 0.4222,-0.28757 0.69142,-0.28757c0.26922,0 0.4997,0.09586 0.69142,0.28757c0.19171,0.19173 0.28757,0.4222 0.28757,0.69142c0,0.26922 -0.09586,0.4997 -0.28757,0.69142c-0.19173,0.19171 -0.4222,0.28757 -0.69142,0.28757zM123,167.979c-0.26922,0 -0.4997,-0.09586 -0.69142,-0.28757c-0.19171,-0.19173 -0.28757,-0.4222 -0.28757,-0.69142c0,-0.26922 0.09586,-0.4997 0.28757,-0.69142c0.19173,-0.19171 0.4222,-0.28757 0.69142,-0.28757c0.26922,0 0.4997,0.09586 0.69142,0.28757c0.19171,0.19173 0.28757,0.4222 0.28757,0.69142c0,0.26922 -0.09586,0.4997 -0.28757,0.69142c-0.19173,0.19171 -0.4222,0.28757 -0.69142,0.28757zM126.63635,167.979c-0.26922,0 -0.4997,-0.09586 -0.69142,-0.28757c-0.19171,-0.19173 -0.28757,-0.4222 -0.28757,-0.69142c0,-0.26922 0.09586,-0.4997 0.28757,-0.69142c0.19173,-0.19171 0.4222,-0.28757 0.69142,-0.28757c0.26922,0 0.4997,0.09586 0.69142,0.28757c0.19171,0.19173 0.28757,0.4222 0.28757,0.69142c0,0.26922 -0.09586,0.4997 -0.28757,0.69142c-0.19173,0.19171 -0.4222,0.28757 -0.69142,0.28757zM119.36365,164.34264c-0.26922,0 -0.4997,-0.09586 -0.69142,-0.28757c-0.19171,-0.19173 -0.28757,-0.4222 -0.28757,-0.69142c0,-0.26922 0.09586,-0.4997 0.28757,-0.69142c0.19173,-0.19171 0.4222,-0.28757 0.69142,-0.28757c0.26922,0 0.4997,0.09586 0.69142,0.28757c0.19171,0.19173 0.28757,0.4222 0.28757,0.69142c0,0.26922 -0.09586,0.4997 -0.28757,0.69142c-0.19173,0.19171 -0.4222,0.28757 -0.69142,0.28757zM123,164.34264c-0.26922,0 -0.4997,-0.09586 -0.69142,-0.28757c-0.19171,-0.19173 -0.28757,-0.4222 -0.28757,-0.69142c0,-0.26922 0.09586,-0.4997 0.28757,-0.69142c0.19173,-0.19171 0.4222,-0.28757 0.69142,-0.28757c0.26922,0 0.4997,0.09586 0.69142,0.28757c0.19171,0.19173 0.28757,0.4222 0.28757,0.69142c0,0.26922 -0.09586,0.4997 -0.28757,0.69142c-0.19173,0.19171 -0.4222,0.28757 -0.69142,0.28757zM126.63635,164.34264c-0.26922,0 -0.4997,-0.09586 -0.69142,-0.28757c-0.19171,-0.19173 -0.28757,-0.4222 -0.28757,-0.69142c0,-0.26922 0.09586,-0.4997 0.28757,-0.69142c0.19173,-0.19171 0.4222,-0.28757 0.69142,-0.28757c0.26922,0 0.4997,0.09586 0.69142,0.28757c0.19171,0.19173 0.28757,0.4222 0.28757,0.69142c0,0.26922 -0.09586,0.4997 -0.28757,0.69142c-0.19173,0.19171 -0.4222,0.28757 -0.69142,0.28757z" fill="#ffffff" fill-rule="nonzero" stroke="none" stroke-width="1" stroke-linecap="butt"/><path d="M116.8654,127.28845v-1.91989h9.2692v1.91989zM117.81502,126.81364h0.97026v-0.97028h-0.97026zM116.8654,120.84748v-1.91989h9.2692v1.91989zM117.81502,120.37267h0.97026v-0.97028h-0.97026zM116.8654,124.06796v-1.91989h9.2692v1.91989zM117.81502,123.59316h0.97026v-0.97028h-0.97026z" fill="#ffffff" fill-rule="nonzero" stroke="none" stroke-width="1" stroke-linecap="butt"/><path d="M121.93421,144.29755c-0.63321,0 -1.17528,-0.22546 -1.62621,-0.67638c-0.45093,-0.45093 -0.6764,-0.993 -0.6764,-1.62621c0,-0.63322 0.22547,-1.17529 0.6764,-1.62621c0.45093,-0.45093 0.993,-0.6764 1.62621,-0.6764c0.63321,0 1.17528,0.22547 1.62621,0.6764c0.45093,0.45092 0.6764,0.99299 0.6764,1.62621c0,0.63321 -0.22547,1.17528 -0.6764,1.62621c-0.45093,0.45092 -0.993,0.67638 -1.62621,0.67638zM117.00003,149.30765v-1.46253c0,-0.32219 0.08751,-0.62056 0.26253,-0.8951c0.17501,-0.27454 0.40885,-0.48561 0.70152,-0.63322c0.65031,-0.31883 1.3063,-0.55794 1.96799,-0.71735c0.66169,-0.15941 1.32906,-0.23911 2.00213,-0.23911c0.67307,0 1.34044,0.0797 2.00213,0.23911c0.66169,0.15941 1.31768,0.39853 1.96799,0.71735c0.29268,0.14761 0.52652,0.35868 0.70152,0.63322c0.17502,0.27454 0.26253,0.57291 0.26253,0.8951v1.46253zM117.98685,148.32083h7.89471v-0.47571c0,-0.13327 -0.03859,-0.25662 -0.11577,-0.37006c-0.07717,-0.11344 -0.18197,-0.20601 -0.31439,-0.27771c-0.56679,-0.27918 -1.14475,-0.49068 -1.73384,-0.63449c-0.5891,-0.1438 -1.18355,-0.2157 -1.78335,-0.2157c-0.5998,0 -1.19425,0.0719 -1.78335,0.2157c-0.5891,0.14382 -1.16705,0.35531 -1.73384,0.63449c-0.13242,0.0717 -0.23722,0.16427 -0.31439,0.27771c-0.07718,0.11344 -0.11577,0.2368 -0.11577,0.37006zM121.93421,143.31075c0.36184,0 0.6716,-0.12884 0.92927,-0.38651c0.25768,-0.25768 0.38651,-0.56743 0.38651,-0.92927c0,-0.36184 -0.12884,-0.6716 -0.38651,-0.92927c-0.25768,-0.25768 -0.56743,-0.38651 -0.92927,-0.38651c-0.36184,0 -0.6716,0.12884 -0.92927,0.38651c-0.25768,0.25768 -0.38651,0.56743 -0.38651,0.92927c0,0.36184 0.12884,0.6716 0.38651,0.92927c0.25768,0.25768 0.56743,0.38651 0.92927,0.38651z" fill="#ffffff" fill-rule="nonzero" stroke="none" stroke-width="1" stroke-linecap="butt"/><path d="M117.81672,194.74995c-0.1226,0 -0.22527,-0.04137 -0.30798,-0.12409c-0.08271,-0.08272 -0.12407,-0.18537 -0.12407,-0.30797c0,-0.1226 0.04135,-0.22526 0.12406,-0.30797c0.08271,-0.08272 0.18537,-0.12407 0.30797,-0.12407h11.36659c0.1226,0 0.22527,0.04135 0.30798,0.12407c0.08272,0.08272 0.12407,0.18537 0.12407,0.30797c0,0.1226 -0.04135,0.22526 -0.12407,0.30797c-0.08272,0.08273 -0.18538,0.12409 -0.30798,0.12409zM119.06861,193.30975c-0.291,0 -0.53732,-0.10082 -0.73895,-0.30245c-0.20163,-0.20163 -0.30245,-0.44795 -0.30245,-0.73893v-5.98239c0,-0.29099 0.10082,-0.5373 0.30245,-0.73893c0.20163,-0.20163 0.44795,-0.30245 0.73895,-0.30245h8.8628c0.291,0 0.53732,0.10082 0.73895,0.30245c0.20163,0.20163 0.30245,0.44794 0.30245,0.73893v5.98239c0,0.29099 -0.10082,0.53731 -0.30245,0.73893c-0.20163,0.20163 -0.44795,0.30245 -0.73895,0.30245zM119.06861,192.44564h8.8628c0.04432,0 0.08495,-0.01846 0.12189,-0.05539c0.03692,-0.03692 0.05539,-0.07756 0.05539,-0.12188v-5.98239c0,-0.04432 -0.01846,-0.08495 -0.05539,-0.12187c-0.03694,-0.03694 -0.07757,-0.0554 -0.12189,-0.0554h-8.8628c-0.04432,0 -0.08495,0.01846 -0.12189,0.0554c-0.03692,0.03692 -0.05539,0.07755 -0.05539,0.12187v5.98239c0,0.04432 0.01847,0.08495 0.05539,0.12188c0.03694,0.03692 0.07757,0.05539 0.12189,0.05539zM118.89133,192.44564v-6.33694z" fill="#ffffff" fill-rule="nonzero" stroke="none" stroke-width="1" stroke-linecap="butt"/></g></g></svg>