<svg version="1.1" xmlns="http://www.w3.org/2000/svg" xmlns:xlink="http://www.w3.org/1999/xlink" width="21.58322" height="27.89234" viewBox="0,0,21.58322,27.89234"><g transform="translate(-217.48139,-196.16083)"><g data-paper-data="{&quot;isPaintingLayer&quot;:true}" stroke="none" stroke-width="1" stroke-linecap="square" stroke-linejoin="miter" stroke-miterlimit="10" stroke-dasharray="" stroke-dashoffset="0" style="mix-blend-mode: normal"><path d="M217.48139,197.88486c0,-0.95215 0.41182,-1.72403 0.91982,-1.72403h19.74357c0.24395,0 0.47791,0.18164 0.65041,0.50495c0.1725,0.32331 0.26942,0.76183 0.26942,1.21908v24.44429c0,0.95215 -0.41182,1.72402 -0.91983,1.72402h-19.74357c-0.508,0 -0.91982,-0.77187 -0.91982,-1.72402z" fill-opacity="0.69355" fill="#2d2d2d" fill-rule="evenodd"/><path d="M221.52335,217.44373v-16.51656h7.3038c1.12508,0 2.07494,0.166 2.84959,0.49799c0.79309,0.31355 1.39252,0.77465 1.79829,1.3833c0.40576,0.60865 0.60865,1.33719 0.60865,2.18561c0,0.94064 -0.23055,1.73373 -0.69165,2.37927c-0.4611,0.64554 -1.1343,1.07897 -2.01961,1.3003l-0.05533,-0.47032c0.73776,0.166 1.37407,0.45188 1.90895,0.85764c0.55332,0.38732 0.97753,0.86687 1.27263,1.43863c0.2951,0.57176 0.44265,1.2173 0.44265,1.93661c0,0.82998 -0.13833,1.55852 -0.41499,2.18561c-0.27666,0.62709 -0.68242,1.15274 -1.2173,1.57696c-0.53488,0.42421 -1.16197,0.73776 -1.88128,0.94064c-0.71931,0.20289 -1.5124,0.30433 -2.37927,0.30433zM225.31358,214.09616h3.59657c0.44265,0 0.81154,-0.06456 1.10664,-0.19366c0.31355,-0.14755 0.55332,-0.35966 0.71931,-0.63632c0.18444,-0.27666 0.27666,-0.61788 0.27666,-1.02364c0,-0.35043 -0.09222,-0.65476 -0.27666,-0.91298c-0.18444,-0.25822 -0.44265,-0.45188 -0.77465,-0.58098c-0.31355,-0.1291 -0.70087,-0.19366 -1.16197,-0.19366h-3.48591zM225.31358,207.567h2.93259c0.40576,0 0.7562,-0.06456 1.05131,-0.19366c0.2951,-0.14755 0.51643,-0.34122 0.66398,-0.58098c0.14755,-0.23977 0.22133,-0.53488 0.22133,-0.88531c0,-0.49799 -0.17522,-0.89453 -0.52565,-1.18963c-0.33199,-0.2951 -0.84842,-0.44265 -1.54929,-0.44265h-2.79426z" fill="#ffffff" fill-rule="nonzero"/></g></g></svg>