<svg version="1.1" xmlns="http://www.w3.org/2000/svg" xmlns:xlink="http://www.w3.org/1999/xlink" width="483.23706" height="367.64465" viewBox="0,0,483.23706,367.64465"><g transform="translate(159.75,22.25)"><g data-paper-data="{&quot;isPaintingLayer&quot;:true}" fill-rule="nonzero" stroke-linejoin="miter" stroke-miterlimit="10" stroke-dasharray="" stroke-dashoffset="0" style="mix-blend-mode: normal"><path d="M-151.5,-22l-8,21" fill="none" stroke="#000000" stroke-width="0.5" stroke-linecap="round"/><path d="M181.85212,94.56771v-10.90994h6.87744v1.61822h-5.19397v7.6735h5.19397v1.61822zM182.62208,89.7783v-1.61822h5.24617v1.61822zM191.01487,94.56771v-8.18245h1.60518v1.68348l-0.2871,0.1827c0.1044,-0.35671 0.30885,-0.6873 0.61336,-0.99181c0.30451,-0.3132 0.6612,-0.56551 1.07011,-0.75691c0.41761,-0.1914 0.84391,-0.2871 1.27892,-0.2871c0.62641,0 1.14406,0.12181 1.55297,0.3654c0.41761,0.2436 0.73081,0.61771 0.93961,1.12231c0.2088,0.49591 0.3132,1.12231 0.3132,1.87922v4.98517h-1.60517v-4.88076c0,-0.46111 -0.0609,-0.84391 -0.1827,-1.14842c-0.12181,-0.3132 -0.3132,-0.53941 -0.57421,-0.67861c-0.261,-0.1392 -0.5829,-0.20011 -0.96571,-0.1827c-0.3132,0 -0.60031,0.0522 -0.86131,0.1566c-0.261,0.09571 -0.48721,0.2349 -0.67861,0.41761c-0.1914,0.17401 -0.34366,0.37846 -0.45675,0.61336c-0.1044,0.22621 -0.1566,0.47416 -0.1566,0.74386v4.95907h-0.79606c-0.1305,0 -0.26535,0 -0.40455,0c-0.1392,0 -0.27405,0 -0.40455,0zM201.30402,94.56771v-10.27048h1.60518v10.27049zM199.59444,87.95127v-1.56602h5.20702v1.56602zM210.00224,94.72431c-0.83521,0 -1.57907,-0.17835 -2.23158,-0.53505c-0.64381,-0.35671 -1.15277,-0.84826 -1.52687,-1.47467c-0.3654,-0.62641 -0.54811,-1.34416 -0.54811,-2.15327c0,-0.64381 0.1044,-1.23107 0.3132,-1.76177c0.2088,-0.5307 0.49591,-0.98746 0.86131,-1.37026c0.3654,-0.39151 0.80476,-0.69165 1.31807,-0.90046c0.52201,-0.2175 1.08317,-0.32625 1.68348,-0.32625c0.5307,0 1.02226,0.10005 1.47467,0.30016c0.46111,0.20011 0.85696,0.4785 1.18757,0.83521c0.3393,0.35671 0.60031,0.77866 0.78301,1.26587c0.1827,0.4785 0.2697,1.00051 0.261,1.56602l-0.01305,0.69166h-6.68169l-0.3654,-1.27892h5.65073l-0.22185,0.261v-0.3654c-0.03479,-0.348 -0.15225,-0.65686 -0.35235,-0.92656c-0.1914,-0.2697 -0.43935,-0.48285 -0.74386,-0.63945c-0.30451,-0.1566 -0.63076,-0.2349 -0.97876,-0.2349c-0.56551,0 -1.03966,0.10875 -1.42246,0.32626c-0.38281,0.2088 -0.67426,0.52201 -0.87436,0.93961c-0.1914,0.40891 -0.2871,0.91351 -0.2871,1.51382c0,0.56551 0.11746,1.06142 0.35236,1.48772c0.2349,0.41761 0.56986,0.74386 1.00487,0.97877c0.44371,0.22621 0.94831,0.3393 1.51382,0.3393c0.40891,0 0.78736,-0.06525 1.13537,-0.19575c0.348,-0.1392 0.72646,-0.38715 1.13537,-0.74386l0.80911,1.13537c-0.25231,0.25231 -0.5568,0.47416 -0.91351,0.66556c-0.35671,0.1827 -0.73516,0.33061 -1.13536,0.44371c-0.4002,0.1044 -0.79606,0.1566 -1.18756,0.1566zM215.3226,94.56771v-8.18245h1.61822v2.57089l-0.1566,-0.62641c0.1131,-0.39151 0.30885,-0.74822 0.58726,-1.07011c0.27841,-0.3219 0.59596,-0.57421 0.95267,-0.75691c0.35671,-0.1914 0.72646,-0.2871 1.10927,-0.2871c0.17401,0 0.3393,0.01741 0.49591,0.0522c0.1653,0.0261 0.2958,0.0609 0.39151,0.1044l-0.41761,1.74872c-0.12181,-0.0522 -0.261,-0.09571 -0.41761,-0.1305c-0.14791,-0.04351 -0.2958,-0.06525 -0.44371,-0.06525c-0.27841,0 -0.54376,0.05655 -0.79606,0.16966c-0.25231,0.1044 -0.4785,0.25665 -0.67861,0.45676c-0.1914,0.1914 -0.34366,0.41325 -0.45675,0.66556c-0.1131,0.25231 -0.16965,0.5307 -0.16965,0.83521v4.51536zM226.3696,94.56771v-10.90994h4.43706c0.59161,0 1.12667,0.14791 1.60518,0.44371c0.48721,0.2958 0.87437,0.70036 1.16147,1.21367c0.2958,0.5046 0.44371,1.07011 0.44371,1.69652c0,0.62641 -0.14791,1.19626 -0.44371,1.70958c-0.2871,0.5046 -0.67426,0.90916 -1.16146,1.21367c-0.4785,0.30451 -1.01356,0.45676 -1.60517,0.45676h-2.75358v4.17605zM228.05307,88.77343h2.72749c0.27841,0 0.5307,-0.0783 0.75691,-0.2349c0.2349,-0.1653 0.42196,-0.37845 0.56116,-0.63945c0.1392,-0.2697 0.2088,-0.56551 0.2088,-0.88741c0,-0.3219 -0.06961,-0.61335 -0.2088,-0.87436c-0.1392,-0.261 -0.32625,-0.46981 -0.56115,-0.62641c-0.22621,-0.1566 -0.4785,-0.2349 -0.75691,-0.2349h-2.72748zM238.83314,94.72431c-0.66991,0 -1.28327,-0.18705 -1.84007,-0.56115c-0.5568,-0.3741 -1.00486,-0.88306 -1.34416,-1.52687c-0.33061,-0.64381 -0.49591,-1.37026 -0.49591,-2.17937c0,-0.82652 0.16966,-1.55733 0.50896,-2.19243c0.3393,-0.6351 0.79606,-1.13536 1.37027,-1.50077c0.5829,-0.3654 1.23107,-0.54811 1.94448,-0.54811c0.4263,0 0.81346,0.06526 1.16147,0.19576c0.35671,0.12181 0.66556,0.2958 0.92657,0.52201c0.2697,0.2175 0.48721,0.47416 0.65251,0.76996c0.17401,0.2871 0.28275,0.59596 0.32626,0.92657l-0.35235,-0.11745v-2.12717h1.61822v8.18246h-1.61822v-1.94447l0.3654,-0.11745c-0.0609,0.2871 -0.18705,0.56551 -0.37845,0.83521c-0.1914,0.261 -0.43501,0.49591 -0.73081,0.70471c-0.2958,0.20011 -0.62206,0.3654 -0.97876,0.49591c-0.35671,0.12181 -0.73516,0.1827 -1.13536,0.1827zM239.25075,93.24964c0.49591,0 0.92657,-0.11745 1.29197,-0.35235c0.3741,-0.2436 0.66556,-0.57421 0.87437,-0.99181c0.2175,-0.4263 0.32626,-0.90916 0.32626,-1.44856c0,-0.5307 -0.10875,-1.00486 -0.32625,-1.42246c-0.2088,-0.41761 -0.50026,-0.74386 -0.87436,-0.97876c-0.3654,-0.2436 -0.79606,-0.3654 -1.29196,-0.3654c-0.4785,0 -0.90046,0.12181 -1.26586,0.3654c-0.3654,0.2349 -0.65686,0.56116 -0.87436,0.97877c-0.2088,0.41761 -0.3132,0.89176 -0.3132,1.42247c0,0.53941 0.1044,1.02226 0.3132,1.44857c0.2175,0.41761 0.50896,0.74822 0.87437,0.99181c0.3654,0.2349 0.78736,0.35236 1.26587,0.35236zM248.27887,94.72431c-0.6873,0 -1.30502,-0.11745 -1.85312,-0.35235c-0.54811,-0.2436 -1.00486,-0.60031 -1.37026,-1.07011l1.08317,-0.92656c0.3132,0.35671 0.65251,0.61771 1.01791,0.78301c0.3741,0.1566 0.79606,0.2349 1.26587,0.2349c0.1827,0 0.35236,-0.02175 0.50896,-0.06525c0.1653,-0.04351 0.30885,-0.1131 0.43066,-0.2088c0.12181,-0.09571 0.21315,-0.2088 0.27406,-0.3393c0.0609,-0.1305 0.09136,-0.27405 0.09136,-0.43065c0,-0.2697 -0.10005,-0.48721 -0.30015,-0.65251c-0.1044,-0.06961 -0.2697,-0.14791 -0.49591,-0.2349c-0.2175,-0.087 -0.5046,-0.17835 -0.86131,-0.27405c-0.60031,-0.1566 -1.09186,-0.33061 -1.47467,-0.52201c-0.38281,-0.20011 -0.67861,-0.4263 -0.88741,-0.67861c-0.1566,-0.20011 -0.27405,-0.41325 -0.35235,-0.63945c-0.06961,-0.2349 -0.1044,-0.49591 -0.1044,-0.78301c0,-0.3393 0.07395,-0.65251 0.22186,-0.93961c0.1566,-0.2871 0.3654,-0.53505 0.62641,-0.74386c0.2697,-0.2175 0.5829,-0.38281 0.93961,-0.49591c0.35671,-0.1131 0.7395,-0.16965 1.14842,-0.16965c0.38281,0 0.76126,0.0522 1.13537,0.1566c0.38281,0.1044 0.73516,0.25665 1.05707,0.45676c0.3219,0.1914 0.59161,0.42196 0.80911,0.69166l-0.91351,1.01791c-0.20011,-0.20011 -0.41761,-0.3741 -0.65251,-0.52201c-0.2349,-0.14791 -0.47416,-0.261 -0.71776,-0.3393c-0.2349,-0.087 -0.44806,-0.1305 -0.63945,-0.1305c-0.2175,0 -0.41761,0.02175 -0.60031,0.06526c-0.17401,0.03479 -0.3219,0.09571 -0.44371,0.1827c-0.1131,0.0783 -0.20445,0.1827 -0.27405,0.3132c-0.0609,0.12181 -0.09135,0.261 -0.09135,0.41761c0.00869,0.1305 0.04351,0.25665 0.1044,0.37846c0.0609,0.12181 0.14356,0.22186 0.24796,0.30016c0.1131,0.087 0.28275,0.17835 0.50896,0.27406c0.22621,0.087 0.51766,0.17401 0.87437,0.261c0.51331,0.1305 0.93961,0.27841 1.27892,0.44371c0.3393,0.1566 0.609,0.3393 0.80911,0.54811c0.2088,0.20011 0.35236,0.43066 0.43066,0.69166c0.087,0.261 0.1305,0.55246 0.1305,0.87437c0,0.46111 -0.13485,0.87872 -0.40455,1.25282c-0.261,0.3654 -0.61771,0.65251 -1.07011,0.86131c-0.44371,0.2088 -0.93961,0.3132 -1.48772,0.3132zM255.7426,94.72431c-0.6873,0 -1.30502,-0.11745 -1.85312,-0.35235c-0.54811,-0.2436 -1.00486,-0.60031 -1.37026,-1.07011l1.08317,-0.92656c0.3132,0.35671 0.65251,0.61771 1.01791,0.78301c0.37411,0.1566 0.79606,0.2349 1.26587,0.2349c0.1827,0 0.35236,-0.02175 0.50896,-0.06525c0.1653,-0.04351 0.30885,-0.1131 0.43066,-0.2088c0.12181,-0.09571 0.21315,-0.2088 0.27406,-0.3393c0.0609,-0.1305 0.09136,-0.27405 0.09136,-0.43065c0,-0.2697 -0.10005,-0.48721 -0.30015,-0.65251c-0.1044,-0.06961 -0.2697,-0.14791 -0.49591,-0.2349c-0.2175,-0.087 -0.5046,-0.17835 -0.86131,-0.27405c-0.60031,-0.1566 -1.09186,-0.33061 -1.47467,-0.52201c-0.3828,-0.20011 -0.67861,-0.4263 -0.88741,-0.67861c-0.1566,-0.20011 -0.27405,-0.41325 -0.35235,-0.63945c-0.0696,-0.2349 -0.1044,-0.49591 -0.1044,-0.78301c0,-0.3393 0.07395,-0.65251 0.22186,-0.93961c0.1566,-0.2871 0.3654,-0.53505 0.62641,-0.74386c0.26971,-0.2175 0.58291,-0.38281 0.93961,-0.49591c0.35671,-0.1131 0.73951,-0.16965 1.14842,-0.16965c0.38281,0 0.76126,0.0522 1.13537,0.1566c0.38281,0.1044 0.73516,0.25665 1.05707,0.45676c0.32191,0.1914 0.59161,0.42196 0.80911,0.69166l-0.91351,1.01791c-0.2001,-0.20011 -0.41761,-0.3741 -0.65251,-0.52201c-0.2349,-0.14791 -0.47416,-0.261 -0.71776,-0.3393c-0.2349,-0.087 -0.44806,-0.1305 -0.63945,-0.1305c-0.2175,0 -0.41761,0.02175 -0.60031,0.06526c-0.174,0.03479 -0.3219,0.09571 -0.44371,0.1827c-0.1131,0.0783 -0.20445,0.1827 -0.27405,0.3132c-0.0609,0.12181 -0.09135,0.261 -0.09135,0.41761c0.0087,0.1305 0.04351,0.25665 0.1044,0.37846c0.0609,0.12181 0.14356,0.22186 0.24796,0.30016c0.1131,0.087 0.28275,0.17835 0.50896,0.27406c0.22621,0.087 0.51766,0.17401 0.87437,0.261c0.51331,0.1305 0.93961,0.27841 1.27892,0.44371c0.3393,0.1566 0.60901,0.3393 0.80911,0.54811c0.2088,0.20011 0.35236,0.43066 0.43066,0.69166c0.087,0.261 0.1305,0.55246 0.1305,0.87437c0,0.46111 -0.13485,0.87872 -0.40455,1.25282c-0.261,0.3654 -0.61771,0.65251 -1.07011,0.86131c-0.44371,0.2088 -0.93961,0.3132 -1.48772,0.3132zM262.48857,94.56771l-2.79274,-8.18245l1.61822,-0.01305l1.99668,6.12053l-0.35235,-0.0261l2.16633,-4.78941h0.96571l2.17938,4.80246l-0.41761,0.0261l2.00973,-6.12053h1.61822l-2.75358,8.18246h-1.10926l-2.28378,-5.20701l0.3654,0.0522l-2.11413,5.15482zM276.39064,94.72431c-0.80041,0 -1.51817,-0.1827 -2.15327,-0.54811c-0.62641,-0.3741 -1.12231,-0.87872 -1.48772,-1.51382c-0.3567,-0.64381 -0.53505,-1.37462 -0.53505,-2.19243c0,-0.81781 0.17835,-1.54427 0.53506,-2.17937c0.3654,-0.64381 0.86131,-1.14842 1.48772,-1.51382c0.63511,-0.3741 1.35287,-0.56115 2.15328,-0.56115c0.78301,0 1.48772,0.18705 2.11413,0.56116c0.63512,0.3654 1.13539,0.87001 1.5008,1.51382c0.3654,0.6351 0.54811,1.36157 0.54811,2.17938c0,0.81781 -0.1827,1.54861 -0.54811,2.19243c-0.3654,0.6351 -0.86567,1.13972 -1.5008,1.51382c-0.62641,0.3654 -1.33112,0.54811 -2.11413,0.54811zM276.39064,93.26269c0.4872,0 0.92221,-0.12181 1.30502,-0.3654c0.3828,-0.2436 0.68296,-0.57421 0.90047,-0.99181c0.21751,-0.4263 0.32193,-0.90482 0.31323,-1.43552c0.0087,-0.53941 -0.09572,-1.01791 -0.31323,-1.43552c-0.21751,-0.4263 -0.51766,-0.75691 -0.90046,-0.99181c-0.3828,-0.2436 -0.81781,-0.3654 -1.30502,-0.3654c-0.4872,0 -0.92656,0.12181 -1.31806,0.3654c-0.39151,0.2436 -0.69601,0.57856 -0.91351,1.00487c-0.21751,0.41761 -0.32191,0.89176 -0.3132,1.42247c-0.0087,0.5307 0.0957,1.00922 0.3132,1.43552c0.21751,0.41761 0.52201,0.74822 0.91351,0.99181c0.39151,0.2436 0.83086,0.3654 1.31807,0.3654zM282.29338,94.56771v-8.18245h1.61822v2.57089l-0.1566,-0.62641c0.1131,-0.39151 0.30885,-0.74822 0.58726,-1.07011c0.2784,-0.3219 0.59596,-0.57421 0.95267,-0.75691c0.3567,-0.1914 0.72646,-0.2871 1.10927,-0.2871c0.174,0 0.3393,0.01741 0.49591,0.0522c0.1653,0.0261 0.29581,0.0609 0.39151,0.1044l-0.41761,1.74872c-0.1218,-0.0522 -0.261,-0.09571 -0.41761,-0.1305c-0.1479,-0.04351 -0.29581,-0.06525 -0.44371,-0.06525c-0.2784,0 -0.54376,0.05655 -0.79606,0.16966c-0.2523,0.1044 -0.47851,0.25665 -0.67861,0.45676c-0.19141,0.1914 -0.34366,0.41325 -0.45675,0.66556c-0.1131,0.25231 -0.16965,0.5307 -0.16965,0.83521v4.51536zM291.63597,94.72431c-0.74821,0 -1.41377,-0.1827 -1.99667,-0.54811c-0.58291,-0.3741 -1.04837,-0.87872 -1.39636,-1.51382c-0.3393,-0.64381 -0.50895,-1.37462 -0.50895,-2.19243c0,-0.81781 0.1653,-1.54427 0.49591,-2.17937c0.3393,-0.64381 0.80041,-1.14842 1.38332,-1.51382c0.58291,-0.3741 1.24411,-0.56115 1.98363,-0.56115c0.40021,0 0.79171,0.06526 1.17452,0.19576c0.3828,0.1305 0.72211,0.30885 1.01791,0.53506c0.3045,0.2175 0.5394,0.46111 0.70471,0.73081c0.174,0.261 0.261,0.52636 0.261,0.79606l-0.46981,0.03915v-5.48107h1.60518v11.53635h-1.60517v-1.94447h0.3132c0,0.2436 -0.08265,0.49156 -0.24795,0.74386c-0.1653,0.2436 -0.38715,0.46981 -0.66555,0.67861c-0.26971,0.20011 -0.58725,0.3654 -0.95266,0.49591c-0.3567,0.12181 -0.72211,0.1827 -1.09621,0.1827zM291.85782,93.34099c0.4872,0 0.91786,-0.12615 1.29197,-0.37845c0.37411,-0.25231 0.66556,-0.59161 0.87437,-1.01791c0.21751,-0.43501 0.32626,-0.92656 0.32626,-1.47467c0,-0.54811 -0.10875,-1.03532 -0.32625,-1.46162c-0.2088,-0.43501 -0.50026,-0.77866 -0.87436,-1.03096c-0.37411,-0.25231 -0.80476,-0.37845 -1.29196,-0.37845c-0.4872,0 -0.91786,0.12615 -1.29196,0.37846c-0.37411,0.25231 -0.66991,0.59596 -0.88741,1.03097c-0.2088,0.4263 -0.3132,0.91351 -0.3132,1.46162c0,0.54811 0.1044,1.03966 0.3132,1.47467c0.21751,0.4263 0.5133,0.7656 0.88741,1.01791c0.37411,0.25231 0.80476,0.37846 1.29197,0.37846z" fill="#ffffff" stroke="none" stroke-width="1" stroke-linecap="square"/><path d="M168.83077,329.54971c-0.44208,0 -0.85164,-0.05851 -1.2287,-0.17553c-0.37705,-0.11702 -0.71837,-0.29254 -1.02392,-0.52659c-0.30555,-0.24054 -0.57859,-0.53308 -0.81913,-0.87764l0.85814,-0.99466c0.38357,0.54608 0.74762,0.92315 1.09218,1.13118c0.35106,0.20803 0.76712,0.31205 1.2482,0.31205c0.29255,0 0.55909,-0.04551 0.79963,-0.13652c0.24054,-0.09752 0.42907,-0.22754 0.56559,-0.39006c0.14303,-0.16253 0.21454,-0.34781 0.21454,-0.55584c0,-0.13652 -0.02275,-0.26655 -0.06826,-0.39006c-0.04551,-0.13002 -0.11702,-0.24378 -0.21454,-0.3413c-0.09752,-0.10402 -0.22103,-0.19828 -0.37056,-0.28279c-0.14952,-0.08451 -0.32505,-0.15928 -0.52659,-0.22429c-0.20154,-0.065 -0.43556,-0.12027 -0.70211,-0.16578c-0.41607,-0.09102 -0.78013,-0.20478 -1.09218,-0.3413c-0.31205,-0.14303 -0.57209,-0.31855 -0.78013,-0.52659c-0.20803,-0.20803 -0.36405,-0.44532 -0.46807,-0.71186c-0.10402,-0.26655 -0.15603,-0.56884 -0.15603,-0.9069c0,-0.32505 0.07151,-0.62736 0.21454,-0.9069c0.14952,-0.27954 0.34781,-0.52008 0.59484,-0.72162c0.25354,-0.20803 0.54934,-0.36731 0.8874,-0.47783c0.34456,-0.11702 0.71511,-0.17553 1.11168,-0.17553c0.42257,0 0.80613,0.05526 1.15069,0.16578c0.35106,0.11051 0.66311,0.27305 0.93616,0.48758c0.27305,0.20803 0.49733,0.46808 0.67286,0.78013l-0.8874,0.87764c-0.14952,-0.26005 -0.3218,-0.47457 -0.51683,-0.6436c-0.19503,-0.17554 -0.40957,-0.3088 -0.6436,-0.39981c-0.23404,-0.09102 -0.48108,-0.13652 -0.74112,-0.13652c-0.30555,0 -0.57209,0.04875 -0.79963,0.14627c-0.22103,0.09102 -0.39656,0.22103 -0.52659,0.39006c-0.13003,0.16253 -0.19503,0.35756 -0.19503,0.5851c0,0.16253 0.03251,0.31206 0.09751,0.44858c0.065,0.13652 0.15928,0.25678 0.28279,0.3608c0.13003,0.10402 0.3023,0.19828 0.51683,0.2828c0.22103,0.07801 0.48108,0.14627 0.78013,0.20478c0.42907,0.09752 0.80938,0.21778 1.14094,0.36081c0.33806,0.14303 0.62085,0.31206 0.84839,0.50709c0.23404,0.19503 0.40956,0.41281 0.52658,0.65335c0.12351,0.24054 0.18528,0.50059 0.18528,0.78013c0,0.52009 -0.12027,0.97192 -0.36081,1.35548c-0.24054,0.37706 -0.58184,0.66961 -1.02392,0.87764c-0.44208,0.20153 -0.96866,0.3023 -1.57976,0.3023zM174.03868,329.43269v-7.6745h1.19945v7.6745zM172.76122,324.48863v-1.17019h3.89088v1.17019zM180.04099,329.54971c-0.50059,0 -0.95891,-0.13978 -1.37497,-0.41932c-0.41607,-0.27954 -0.75087,-0.65986 -1.00441,-1.14094c-0.24704,-0.48108 -0.37056,-1.02391 -0.37056,-1.62851c0,-0.6176 0.12677,-1.1637 0.38031,-1.63827c0.25354,-0.47457 0.59485,-0.84838 1.02392,-1.12143c0.43557,-0.27305 0.91989,-0.40957 1.45299,-0.40957c0.31854,0 0.60785,0.04876 0.86789,0.14627c0.26654,0.09102 0.49733,0.22103 0.69236,0.39006c0.20154,0.16253 0.36406,0.3543 0.48758,0.57534c0.13003,0.21454 0.21129,0.44533 0.24379,0.69236l-0.26329,-0.08777v-1.58951h1.2092v6.11426h-1.2092v-1.45299l0.27305,-0.08777c-0.04551,0.21454 -0.13978,0.42257 -0.2828,0.6241c-0.14303,0.19503 -0.32505,0.37057 -0.54609,0.52659c-0.22103,0.14952 -0.46483,0.27304 -0.73137,0.37056c-0.26654,0.09102 -0.54935,0.13652 -0.84839,0.13652zM180.35304,328.44778c0.37056,0 0.69236,-0.08776 0.96541,-0.26329c0.27954,-0.18203 0.49733,-0.42908 0.65335,-0.74112c0.16253,-0.31854 0.24379,-0.67935 0.24379,-1.08243c0,-0.39657 -0.08127,-0.75088 -0.24379,-1.06293c-0.15602,-0.31205 -0.37381,-0.55583 -0.65335,-0.73137c-0.27305,-0.18203 -0.59485,-0.27305 -0.96541,-0.27305c-0.35756,0 -0.67285,0.09102 -0.94591,0.27305c-0.27305,0.17554 -0.49083,0.41932 -0.65335,0.73137c-0.15602,0.31205 -0.23404,0.66636 -0.23404,1.06293c0,0.40306 0.07801,0.76387 0.23404,1.08243c0.16253,0.31205 0.38031,0.55909 0.65335,0.74112c0.27305,0.17554 0.58835,0.26329 0.94591,0.26329zM185.06114,329.43269v-6.11426h1.20919v1.92106l-0.11702,-0.46808c0.08452,-0.29254 0.23079,-0.55909 0.43882,-0.79963c0.20803,-0.24054 0.44532,-0.42907 0.71187,-0.56559c0.26654,-0.14303 0.54284,-0.21454 0.82889,-0.21454c0.13003,0 0.25354,0.013 0.37056,0.039c0.12351,0.0195 0.22103,0.04551 0.29255,0.07801l-0.31205,1.30671c-0.09102,-0.039 -0.19503,-0.07151 -0.31205,-0.09752c-0.11051,-0.03251 -0.22103,-0.04876 -0.33156,-0.04876c-0.20803,0 -0.40632,0.04226 -0.59485,0.12677c-0.18854,0.07801 -0.35756,0.19178 -0.50708,0.3413c-0.14303,0.14303 -0.25679,0.3088 -0.34131,0.49733c-0.08452,0.18854 -0.12677,0.39657 -0.12677,0.6241v3.37405zM190.74704,329.43269v-7.6745h1.19945v7.6745zM189.46958,324.48863v-1.17019h3.89088v1.17019zM198.47826,329.43269v-7.6745h1.19945v7.6745zM197.2008,324.48863v-1.17019h3.89089v1.17019zM203.21263,332.11437l1.23845,-2.85721l0.00975,0.95566l-3.05225,-6.89437h1.39448l1.91132,4.49549c0.03901,0.07801 0.08452,0.19828 0.13652,0.36081c0.05851,0.15602 0.10727,0.31205 0.14628,0.46807l-0.3023,0.06827c0.05851,-0.16253 0.11702,-0.32505 0.17553,-0.48758c0.05851,-0.16253 0.11376,-0.32505 0.16577,-0.48758l1.59926,-4.41748h1.42373l-2.51591,6.11426l-1.03367,2.68169zM208.95351,331.99736v-8.67892h1.2092v1.39448l-0.18528,-0.09751c0.04551,-0.23404 0.17553,-0.45833 0.39006,-0.67286c0.22103,-0.21454 0.48758,-0.39006 0.79963,-0.52659c0.31854,-0.13652 0.6436,-0.20478 0.97516,-0.20478c0.55259,0 1.04016,0.13652 1.46274,0.40957c0.42907,0.27305 0.76713,0.64686 1.01416,1.12143c0.25354,0.47457 0.38031,1.01741 0.38031,1.62851c0,0.6046 -0.12352,1.14744 -0.37056,1.62851c-0.24704,0.47457 -0.58509,0.85164 -1.01416,1.13118c-0.42257,0.27305 -0.9004,0.40957 -1.43348,0.40957c-0.35756,0 -0.70537,-0.07151 -1.04342,-0.21454c-0.33156,-0.14303 -0.61435,-0.3283 -0.84839,-0.55584c-0.23404,-0.22754 -0.37706,-0.46157 -0.42907,-0.70211l0.3023,-0.15603v4.08592zM211.9765,328.42828c0.35756,0 0.67611,-0.08776 0.95566,-0.2633c0.27954,-0.18203 0.50058,-0.42582 0.6631,-0.73137c0.16253,-0.31205 0.24379,-0.66635 0.24379,-1.06292c0,-0.39657 -0.08127,-0.74762 -0.24379,-1.05317c-0.15602,-0.30555 -0.37381,-0.54608 -0.65335,-0.72162c-0.27305,-0.18203 -0.59484,-0.27305 -0.96541,-0.27305c-0.36406,0 -0.68586,0.08776 -0.9654,0.26329c-0.27954,0.17554 -0.50059,0.41933 -0.66311,0.73137c-0.16253,0.30555 -0.24379,0.65661 -0.24379,1.05317c0,0.39657 0.08127,0.75087 0.24379,1.06292c0.16253,0.30555 0.38357,0.54935 0.66311,0.73137c0.27954,0.17554 0.60134,0.2633 0.9654,0.2633zM216.49553,329.43269v-6.11426h1.19945v6.11426zM217.08063,321.97272c-0.25354,0 -0.45183,-0.065 -0.59485,-0.19503c-0.13652,-0.13652 -0.20478,-0.32505 -0.20478,-0.5656c0,-0.22754 0.07151,-0.40956 0.21454,-0.54608c0.14303,-0.14303 0.33806,-0.21454 0.5851,-0.21454c0.25354,0 0.44857,0.06827 0.5851,0.20479c0.14303,0.13002 0.21454,0.31529 0.21454,0.55583c0,0.22754 -0.07151,0.41282 -0.21454,0.55584c-0.14303,0.13652 -0.33805,0.20478 -0.5851,0.20478zM219.53736,329.43269v-6.11426h1.19945v1.25795l-0.21454,0.13652c0.07801,-0.26655 0.23078,-0.51359 0.45832,-0.74112c0.22754,-0.23404 0.49409,-0.42256 0.79963,-0.56559c0.31205,-0.14303 0.63059,-0.21454 0.95565,-0.21454c0.46808,0 0.85489,0.09102 1.16044,0.27305c0.31205,0.18203 0.54609,0.46157 0.70211,0.83864c0.15602,0.37056 0.23403,0.83864 0.23403,1.40424v3.7251h-1.19945v-3.6471c0,-0.34456 -0.0455,-0.6306 -0.13651,-0.85814c-0.09102,-0.23404 -0.23404,-0.40307 -0.42908,-0.50708c-0.19503,-0.10402 -0.43557,-0.14951 -0.72162,-0.13652c-0.23404,0 -0.44857,0.039 -0.6436,0.11702c-0.19503,0.07151 -0.36405,0.17553 -0.50708,0.31205c-0.14303,0.13002 -0.25679,0.28279 -0.34131,0.45833c-0.07801,0.16903 -0.11702,0.35431 -0.11702,0.55584v3.70561h-0.59485c-0.09752,0 -0.19828,0 -0.3023,0c-0.10402,0 -0.20478,0 -0.3023,0zM229.20537,332.11437c-0.43557,0 -0.87114,-0.06826 -1.30671,-0.20478c-0.42907,-0.13652 -0.77363,-0.3153 -1.03367,-0.53634l0.43882,-0.92641c0.15602,0.11702 0.33805,0.21778 0.54608,0.3023c0.20803,0.09102 0.42907,0.16253 0.66311,0.21454c0.23404,0.05201 0.46483,0.07801 0.69236,0.07801c0.42257,0 0.77688,-0.07151 1.06292,-0.21454c0.29255,-0.13652 0.51033,-0.3413 0.65336,-0.61435c0.14952,-0.27305 0.22429,-0.6111 0.22429,-1.01416v-1.17019l0.12677,0.07801c-0.03901,0.24054 -0.16578,0.47133 -0.38031,0.69236c-0.21453,0.22103 -0.48108,0.40306 -0.79963,0.54608c-0.31205,0.13652 -0.6371,0.20479 -0.97516,0.20479c-0.57859,0 -1.09544,-0.13652 -1.55051,-0.40957c-0.45508,-0.27954 -0.81588,-0.65661 -1.08242,-1.13118c-0.26004,-0.48108 -0.39006,-1.02717 -0.39006,-1.63827c0,-0.6111 0.13003,-1.15395 0.39006,-1.62851c0.26004,-0.48108 0.61435,-0.85814 1.06292,-1.13119c0.45508,-0.27954 0.96866,-0.41932 1.54076,-0.41932c0.22754,0 0.44857,0.02926 0.6631,0.08777c0.22103,0.05851 0.42581,0.13978 0.61435,0.24379c0.18854,0.10402 0.3543,0.21779 0.49733,0.34131c0.14952,0.12352 0.26979,0.25678 0.36081,0.39981c0.09752,0.13652 0.15603,0.26654 0.17553,0.39006l-0.25354,0.09752v-1.43349h1.19945v5.74369c0,0.48758 -0.07151,0.9199 -0.21453,1.29696c-0.14303,0.37706 -0.35105,0.69562 -0.6241,0.95566c-0.27305,0.26005 -0.6046,0.45832 -0.99466,0.59484c-0.38357,0.13652 -0.81914,0.20478 -1.30671,0.20478zM229.24438,328.44778c0.38357,0 0.72161,-0.08776 1.01416,-0.26329c0.29905,-0.18203 0.52984,-0.42908 0.69236,-0.74112c0.16253,-0.31205 0.24379,-0.66961 0.24379,-1.07268c0,-0.40306 -0.08452,-0.76063 -0.25355,-1.07268c-0.16903,-0.31854 -0.39981,-0.56559 -0.69236,-0.74112c-0.28605,-0.18203 -0.62085,-0.27304 -1.00441,-0.27304c-0.37056,0 -0.70211,0.09102 -0.99467,0.27304c-0.29255,0.18203 -0.52333,0.43233 -0.69236,0.75087c-0.16253,0.31205 -0.24379,0.66636 -0.24379,1.06292c0,0.39657 0.08127,0.75413 0.24379,1.07268c0.16903,0.31205 0.39981,0.55909 0.69236,0.74112c0.29255,0.17554 0.6241,0.26329 0.99467,0.26329zM240.03185,329.54971c-0.5981,0 -1.13443,-0.13652 -1.60902,-0.40957c-0.46808,-0.27954 -0.83864,-0.65661 -1.11168,-1.13118c-0.26654,-0.48108 -0.39981,-1.02717 -0.39981,-1.63827c0,-0.6111 0.13327,-1.15395 0.39981,-1.62851c0.27305,-0.48108 0.6436,-0.85814 1.11168,-1.13119c0.47457,-0.27954 1.01092,-0.41932 1.60902,-0.41932c0.5851,0 1.11168,0.13978 1.57976,0.41932c0.47457,0.27305 0.84838,0.65011 1.12143,1.13119c0.27305,0.47457 0.40956,1.01741 0.40956,1.62851c0,0.6111 -0.13651,1.15719 -0.40956,1.63827c-0.27305,0.47457 -0.64686,0.85164 -1.12143,1.13118c-0.46808,0.27305 -0.99467,0.40957 -1.57976,0.40957zM240.03185,328.45753c0.36406,0 0.68911,-0.09102 0.97516,-0.27305c0.28605,-0.18203 0.51033,-0.42908 0.67286,-0.74112c0.16253,-0.31854 0.24053,-0.67611 0.23403,-1.07268c0.0065,-0.40306 -0.07151,-0.76063 -0.23403,-1.07268c-0.16253,-0.31854 -0.38682,-0.56559 -0.67286,-0.74112c-0.28605,-0.18203 -0.6111,-0.27304 -0.97516,-0.27304c-0.36406,0 -0.69236,0.09102 -0.98491,0.27304c-0.29255,0.18203 -0.52008,0.43233 -0.68261,0.75087c-0.16253,0.31205 -0.24054,0.66636 -0.23404,1.06292c-0.0065,0.39657 0.07151,0.75413 0.23404,1.07268c0.16253,0.31205 0.39006,0.55909 0.68261,0.74112c0.29255,0.18203 0.62085,0.27305 0.98491,0.27305zM244.4426,329.43269v-6.11426h1.20919v1.92106l-0.11702,-0.46808c0.08452,-0.29254 0.23079,-0.55909 0.43882,-0.79963c0.20803,-0.24054 0.44532,-0.42907 0.71186,-0.56559c0.26654,-0.14303 0.54284,-0.21454 0.82889,-0.21454c0.13003,0 0.25354,0.013 0.37056,0.039c0.12351,0.0195 0.22103,0.04551 0.29255,0.07801l-0.31205,1.30671c-0.09102,-0.039 -0.19503,-0.07151 -0.31205,-0.09752c-0.11051,-0.03251 -0.22104,-0.04876 -0.33156,-0.04876c-0.20803,0 -0.40632,0.04226 -0.59484,0.12677c-0.18854,0.07801 -0.35756,0.19178 -0.50708,0.3413c-0.14303,0.14303 -0.25679,0.3088 -0.3413,0.49733c-0.08452,0.18854 -0.12677,0.39657 -0.12677,0.6241v3.37405zM254.98897,329.54971c-0.56559,0 -1.07267,-0.13978 -1.52124,-0.41932c-0.44208,-0.27954 -0.79314,-0.65986 -1.05317,-1.14094c-0.26005,-0.48108 -0.39006,-1.02067 -0.39006,-1.61876c0,-0.5981 0.13002,-1.13768 0.39006,-1.61876c0.26005,-0.48108 0.61111,-0.86139 1.05317,-1.14094c0.44857,-0.27954 0.95565,-0.41932 1.52124,-0.41932c0.54608,0 1.04016,0.11052 1.48224,0.33156c0.44857,0.22103 0.78988,0.52333 1.02392,0.90689l-0.66311,0.80938c-0.12351,-0.17554 -0.28279,-0.33805 -0.47783,-0.48758c-0.19503,-0.14952 -0.40307,-0.26654 -0.6241,-0.35106c-0.21454,-0.08451 -0.42257,-0.12677 -0.6241,-0.12677c-0.37056,0 -0.70211,0.09102 -0.99466,0.27304c-0.29255,0.18203 -0.52333,0.43233 -0.69236,0.75087c-0.16903,0.31854 -0.25354,0.67611 -0.25354,1.07268c0,0.39657 0.08776,0.75413 0.26329,1.07268c0.18203,0.31205 0.41932,0.56234 0.71186,0.75087c0.29255,0.18203 0.6176,0.27305 0.97516,0.27305c0.21453,0 0.41932,-0.03576 0.61435,-0.10727c0.19503,-0.07151 0.38681,-0.17554 0.57534,-0.31206c0.18854,-0.14303 0.36406,-0.3153 0.52659,-0.51683l0.66311,0.81914c-0.24704,0.35106 -0.60135,0.64035 -1.06292,0.86789c-0.46158,0.22103 -0.94265,0.33156 -1.44324,0.33156zM258.64377,329.43269v-8.62041h1.19945v8.62041zM261.74181,329.43269v-6.11426h1.19945v6.11426zM262.3269,321.97272c-0.25354,0 -0.45183,-0.065 -0.59484,-0.19503c-0.13652,-0.13652 -0.20479,-0.32505 -0.20479,-0.5656c0,-0.22754 0.07151,-0.40956 0.21454,-0.54608c0.14303,-0.14303 0.33805,-0.21454 0.5851,-0.21454c0.25354,0 0.44857,0.06827 0.5851,0.20479c0.14303,0.13002 0.21453,0.31529 0.21453,0.55583c0,0.22754 -0.07151,0.41282 -0.21453,0.55584c-0.14303,0.13652 -0.33805,0.20478 -0.5851,0.20478zM267.37754,329.54971c-0.56559,0 -1.07267,-0.13978 -1.52124,-0.41932c-0.44208,-0.27954 -0.79314,-0.65986 -1.05317,-1.14094c-0.26005,-0.48108 -0.39006,-1.02067 -0.39006,-1.61876c0,-0.5981 0.13003,-1.13768 0.39006,-1.61876c0.26004,-0.48108 0.6111,-0.86139 1.05317,-1.14094c0.44857,-0.27954 0.95565,-0.41932 1.52124,-0.41932c0.54609,0 1.04017,0.11052 1.48224,0.33156c0.44857,0.22103 0.78989,0.52333 1.02392,0.90689l-0.66311,0.80938c-0.12352,-0.17554 -0.28279,-0.33805 -0.47783,-0.48758c-0.19503,-0.14952 -0.40307,-0.26654 -0.62411,-0.35106c-0.21453,-0.08451 -0.42257,-0.12677 -0.6241,-0.12677c-0.37057,0 -0.70211,0.09102 -0.99466,0.27304c-0.29255,0.18203 -0.52333,0.43233 -0.69236,0.75087c-0.16903,0.31854 -0.25354,0.67611 -0.25354,1.07268c0,0.39657 0.08776,0.75413 0.26329,1.07268c0.18203,0.31205 0.41932,0.56234 0.71187,0.75087c0.29254,0.18203 0.6176,0.27305 0.97516,0.27305c0.21453,0 0.41932,-0.03576 0.61435,-0.10727c0.19503,-0.07151 0.38681,-0.17554 0.57535,-0.31206c0.18854,-0.14303 0.36406,-0.3153 0.52659,-0.51683l0.66311,0.81914c-0.24704,0.35106 -0.60135,0.64035 -1.06293,0.86789c-0.46157,0.22103 -0.94265,0.33156 -1.44324,0.33156zM272.105,327.52138l-0.05851,-1.30671l2.92548,-2.89622h1.61876zM271.01283,329.43269v-8.62041h1.19945v8.62041zM275.13775,329.43269l-2.31113,-2.69144l0.84839,-0.78013l2.99374,3.47156zM281.64709,329.43269v-7.6745h1.19945v7.6745zM280.36963,324.48863v-1.17019h3.89088v1.17019zM285.35753,329.43269v-8.62041h1.19945v3.76411l-0.21454,0.13652c0.07801,-0.26655 0.23079,-0.51359 0.45833,-0.74112c0.22754,-0.23404 0.49408,-0.42256 0.79962,-0.56559c0.31205,-0.14303 0.6306,-0.21454 0.95566,-0.21454c0.46808,0 0.85489,0.09102 1.16044,0.27305c0.31205,0.18203 0.54608,0.46157 0.70211,0.83864c0.15602,0.37056 0.23404,0.83864 0.23404,1.40424v3.7251h-1.19945v-3.6471c0,-0.34456 -0.04551,-0.6306 -0.13652,-0.85814c-0.09102,-0.23404 -0.23403,-0.40307 -0.42907,-0.50708c-0.19503,-0.10402 -0.43557,-0.14951 -0.72162,-0.13652c-0.23404,0 -0.44857,0.039 -0.6436,0.11702c-0.19503,0.07151 -0.36406,0.17553 -0.50708,0.31205c-0.14303,0.13002 -0.25679,0.28279 -0.3413,0.45833c-0.07801,0.16903 -0.11702,0.35431 -0.11702,0.55584v3.70561h-0.59485c-0.09752,0 -0.19828,0 -0.3023,0c-0.10402,0 -0.20478,0 -0.3023,0zM295.13282,329.54971c-0.6241,0 -1.17995,-0.13327 -1.66752,-0.39982c-0.48108,-0.26655 -0.86139,-0.63385 -1.14093,-1.10193c-0.27305,-0.46808 -0.40957,-1.00441 -0.40957,-1.60902c0,-0.48108 0.07801,-0.91989 0.23404,-1.31646c0.15602,-0.39657 0.37056,-0.73787 0.6436,-1.02392c0.27305,-0.29254 0.60135,-0.51683 0.98491,-0.67286c0.39006,-0.16253 0.80938,-0.24379 1.25795,-0.24379c0.39657,0 0.76387,0.07476 1.10193,0.22429c0.34456,0.14952 0.64036,0.35755 0.8874,0.6241c0.25354,0.26655 0.44857,0.58184 0.5851,0.94591c0.13652,0.35756 0.20154,0.74762 0.19503,1.17019l-0.00975,0.51683h-4.99282l-0.27305,-0.95565h4.22244l-0.16578,0.19503v-0.27305c-0.026,-0.26005 -0.11376,-0.49084 -0.26329,-0.69236c-0.14303,-0.20153 -0.3283,-0.36081 -0.55584,-0.47783c-0.22754,-0.11702 -0.47132,-0.17553 -0.73137,-0.17553c-0.42257,0 -0.77688,0.08127 -1.06292,0.24379c-0.28605,0.15602 -0.50384,0.39006 -0.65336,0.70211c-0.14303,0.30555 -0.21453,0.68262 -0.21453,1.13119c0,0.42257 0.08775,0.79313 0.26329,1.11168c0.17554,0.31205 0.42582,0.55584 0.75087,0.73137c0.33156,0.16903 0.70861,0.25354 1.13118,0.25354c0.30555,0 0.58835,-0.04876 0.84839,-0.14627c0.26005,-0.10402 0.54284,-0.28929 0.84839,-0.55584l0.60459,0.84838c-0.18854,0.18854 -0.41607,0.3543 -0.68261,0.49733c-0.26655,0.13652 -0.54934,0.24704 -0.84838,0.33156c-0.29905,0.07801 -0.59485,0.11702 -0.8874,0.11702zM303.12916,329.43269v-7.6745h1.19945v7.6745zM301.8517,324.48863v-1.17019h3.89089v1.17019zM309.62883,329.54971c-0.6241,0 -1.17994,-0.13327 -1.66752,-0.39982c-0.48108,-0.26655 -0.86139,-0.63385 -1.14094,-1.10193c-0.27305,-0.46808 -0.40956,-1.00441 -0.40956,-1.60902c0,-0.48108 0.07801,-0.91989 0.23404,-1.31646c0.15602,-0.39657 0.37056,-0.73787 0.6436,-1.02392c0.27305,-0.29254 0.60135,-0.51683 0.98491,-0.67286c0.39006,-0.16253 0.80939,-0.24379 1.25796,-0.24379c0.39657,0 0.76387,0.07476 1.10193,0.22429c0.34456,0.14952 0.64035,0.35755 0.8874,0.6241c0.25354,0.26655 0.44857,0.58184 0.5851,0.94591c0.13652,0.35756 0.20154,0.74762 0.19503,1.17019l-0.00975,0.51683h-4.99282l-0.27305,-0.95565h4.22244l-0.16578,0.19503v-0.27305c-0.026,-0.26005 -0.11376,-0.49084 -0.26329,-0.69236c-0.14303,-0.20153 -0.3283,-0.36081 -0.55584,-0.47783c-0.22754,-0.11702 -0.47132,-0.17553 -0.73137,-0.17553c-0.42257,0 -0.77688,0.08127 -1.06293,0.24379c-0.28605,0.15602 -0.50383,0.39006 -0.65335,0.70211c-0.14303,0.30555 -0.21454,0.68262 -0.21454,1.13119c0,0.42257 0.08776,0.79313 0.26329,1.11168c0.17554,0.31205 0.42581,0.55584 0.75087,0.73137c0.33156,0.16903 0.70861,0.25354 1.13118,0.25354c0.30555,0 0.58835,-0.04876 0.84839,-0.14627c0.26005,-0.10402 0.54284,-0.28929 0.84839,-0.55584l0.6046,0.84838c-0.18854,0.18854 -0.41607,0.3543 -0.68262,0.49733c-0.26655,0.13652 -0.54935,0.24704 -0.84839,0.33156c-0.29905,0.07801 -0.59484,0.11702 -0.88739,0.11702zM317.63583,329.43269l-1.97957,-2.57443l-0.17554,-0.22429l-2.57443,-3.31554h1.5115l1.95032,2.53541l0.19503,0.26329l2.53541,3.31554zM312.91606,329.43269l2.40865,-3.14002l0.71187,0.84838l-1.69678,2.29163zM316.63141,326.47796l-0.6631,-0.83864l1.50175,-2.32089h1.42373zM320.87363,329.43269v-7.6745h1.19945v7.6745zM319.59617,324.48863v-1.17019h3.89089v1.17019z" fill="#ffffff" stroke="none" stroke-width="1" stroke-linecap="square"/><path d="M206.46167,345.39465c-0.26117,0 -0.51916,-0.04141 -0.77396,-0.12422c-0.2548,-0.08281 -0.48731,-0.19429 -0.69752,-0.33443c-0.21021,-0.14651 -0.38539,-0.30258 -0.52553,-0.4682c-0.14014,-0.17199 -0.23251,-0.34717 -0.2771,-0.52553l0.2962,-0.15288v1.45236h-1.17527v-8.40846h1.17527v3.82202l-0.18155,-0.09555c0.03822,-0.17836 0.12103,-0.34717 0.24843,-0.50642c0.1274,-0.16562 0.29302,-0.31532 0.49686,-0.44908c0.20384,-0.13377 0.42361,-0.23888 0.6593,-0.31532c0.23569,-0.08281 0.47456,-0.12422 0.71663,-0.12422c0.54146,0 1.01921,0.13377 1.43326,0.40131c0.42042,0.26755 0.75166,0.63382 0.99373,1.09883c0.24206,0.46501 0.3631,1.0001 0.3631,1.60527c0,0.59878 -0.12103,1.13387 -0.3631,1.60525c-0.23569,0.47139 -0.56375,0.84403 -0.98417,1.11794c-0.41405,0.26755 -0.88225,0.40131 -1.40459,0.40131zM206.26102,344.32449c0.35035,0 0.66249,-0.08918 0.9364,-0.26755c0.27391,-0.17836 0.49049,-0.42042 0.64975,-0.72618c0.15925,-0.31213 0.23888,-0.66567 0.23888,-1.06061c0,-0.38857 -0.07962,-0.73574 -0.23888,-1.04152c-0.15288,-0.31213 -0.36627,-0.5542 -0.64018,-0.72618c-0.27391,-0.17836 -0.58923,-0.26755 -0.94595,-0.26755c-0.35672,0 -0.67204,0.08918 -0.94595,0.26755c-0.27391,0.17199 -0.49049,0.41405 -0.64975,0.72618c-0.15925,0.30578 -0.23888,0.65294 -0.23888,1.04152c0,0.39494 0.07962,0.74848 0.23888,1.06061c0.15925,0.30576 0.37584,0.54782 0.64975,0.72618c0.27391,0.17836 0.58923,0.26755 0.94595,0.26755zM213.19052,345.39465c-0.58604,0 -1.11157,-0.13377 -1.57658,-0.40131c-0.45865,-0.27391 -0.82173,-0.64337 -1.08928,-1.10838c-0.26117,-0.47139 -0.39176,-1.00647 -0.39176,-1.60525c0,-0.59879 0.13059,-1.1307 0.39176,-1.59571c0.26755,-0.47139 0.63063,-0.84085 1.08928,-1.10838c0.46501,-0.27391 0.99054,-0.41087 1.57658,-0.41087c0.5733,0 1.08928,0.13696 1.54791,0.41087c0.46501,0.26755 0.83129,0.63701 1.09883,1.10838c0.26755,0.46501 0.40131,0.99691 0.40131,1.59571c0,0.59878 -0.13377,1.13387 -0.40131,1.60525c-0.26755,0.46501 -0.63382,0.83447 -1.09883,1.10838c-0.45865,0.26755 -0.97461,0.40131 -1.54791,0.40131zM213.19052,344.32449c0.35672,0 0.67522,-0.08918 0.9555,-0.26755c0.28029,-0.17836 0.50005,-0.42042 0.6593,-0.72618c0.15925,-0.31213 0.23569,-0.66249 0.22932,-1.05106c0.00637,-0.39494 -0.07007,-0.7453 -0.22932,-1.05107c-0.15925,-0.31213 -0.37901,-0.5542 -0.6593,-0.72618c-0.28029,-0.17836 -0.59878,-0.26755 -0.9555,-0.26755c-0.35672,0 -0.67841,0.08918 -0.96506,0.26755c-0.28665,0.17836 -0.5096,0.42361 -0.66885,0.73574c-0.15925,0.30578 -0.23569,0.65294 -0.22932,1.04152c-0.00637,0.38857 0.07007,0.73892 0.22932,1.05106c0.15925,0.30576 0.3822,0.54782 0.66885,0.72618c0.28665,0.17836 0.60834,0.26755 0.96506,0.26755zM221.26853,345.28l-1.93968,-2.52253l-0.17199,-0.21977l-2.52253,-3.24874h1.48103l1.91101,2.48433l0.1911,0.25798l2.48431,3.24872zM216.64388,345.28l2.36009,-3.07672l0.69752,0.83129l-1.66258,2.24544zM220.28435,342.38481l-0.64975,-0.82173l1.47148,-2.27412h1.39504zM227.53996,345.28v-6.65988c0,-0.34398 0.07644,-0.64975 0.22932,-0.91728c0.15288,-0.26755 0.35991,-0.47456 0.62108,-0.62108c0.26755,-0.15288 0.57649,-0.22932 0.92684,-0.22932c0.24206,0 0.4682,0.04459 0.67841,0.13377c0.21658,0.08918 0.39176,0.21021 0.52553,0.3631l-0.40131,0.89818c-0.10192,-0.08918 -0.21339,-0.16243 -0.33443,-0.21977c-0.11466,-0.05733 -0.22295,-0.086 -0.32487,-0.086c-0.15925,0 -0.2962,0.02548 -0.41087,0.07644c-0.10829,0.05096 -0.1911,0.1274 -0.24843,0.22932c-0.05096,0.10192 -0.07644,0.22614 -0.07644,0.37265v6.65988h-0.59241c-0.09555,0 -0.19429,0 -0.2962,0c-0.09555,0 -0.19429,0 -0.2962,0zM226.58445,340.47378v-1.07972h3.55447v1.07972zM233.84008,345.39465c-0.58604,0 -1.11157,-0.13377 -1.57658,-0.40131c-0.45865,-0.27391 -0.82173,-0.64337 -1.08928,-1.10838c-0.26117,-0.47139 -0.39176,-1.00647 -0.39176,-1.60525c0,-0.59879 0.13059,-1.1307 0.39176,-1.59571c0.26755,-0.47139 0.63063,-0.84085 1.08928,-1.10838c0.46501,-0.27391 0.99054,-0.41087 1.57658,-0.41087c0.5733,0 1.08928,0.13696 1.54791,0.41087c0.46501,0.26755 0.83129,0.63701 1.09883,1.10838c0.26755,0.46501 0.40131,0.99691 0.40131,1.59571c0,0.59878 -0.13377,1.13387 -0.40131,1.60525c-0.26755,0.46501 -0.63382,0.83447 -1.09883,1.10838c-0.45865,0.26755 -0.97461,0.40131 -1.54791,0.40131zM233.84008,344.32449c0.35672,0 0.67522,-0.08918 0.9555,-0.26755c0.28029,-0.17836 0.50005,-0.42042 0.6593,-0.72618c0.15925,-0.31213 0.23569,-0.66249 0.22932,-1.05106c0.00637,-0.39494 -0.07007,-0.7453 -0.22932,-1.05107c-0.15925,-0.31213 -0.37901,-0.5542 -0.6593,-0.72618c-0.28029,-0.17836 -0.59878,-0.26755 -0.9555,-0.26755c-0.35672,0 -0.67841,0.08918 -0.96506,0.26755c-0.28665,0.17836 -0.5096,0.42361 -0.66885,0.73574c-0.15925,0.30578 -0.23569,0.65294 -0.22932,1.04152c-0.00637,0.38857 0.07007,0.73892 0.22932,1.05106c0.15925,0.30576 0.3822,0.54782 0.66885,0.72618c0.28665,0.17836 0.60834,0.26755 0.96506,0.26755zM238.16192,345.28v-5.99103h1.18483v1.88234l-0.11466,-0.45865c0.08281,-0.28665 0.22614,-0.54782 0.42998,-0.78351c0.20384,-0.23569 0.43634,-0.42042 0.69752,-0.5542c0.26117,-0.14014 0.53189,-0.21021 0.81218,-0.21021c0.1274,0 0.24843,0.01274 0.3631,0.03822c0.12103,0.01911 0.21658,0.04459 0.28665,0.07644l-0.30576,1.28038c-0.08918,-0.03822 -0.1911,-0.07007 -0.30576,-0.09555c-0.10829,-0.03185 -0.21658,-0.04778 -0.32487,-0.04778c-0.20384,0 -0.39813,0.04141 -0.58286,0.12422c-0.18474,0.07644 -0.35035,0.18791 -0.49686,0.33443c-0.14014,0.14014 -0.25162,0.30258 -0.33443,0.48731c-0.08281,0.18474 -0.12422,0.38859 -0.12422,0.61154v3.30605zM245.93498,345.28v-5.99103h1.18483v1.28038l-0.21977,0.13377c0.0637,-0.19747 0.15925,-0.38539 0.28665,-0.56375c0.13377,-0.18474 0.2962,-0.34717 0.48731,-0.48731c0.19747,-0.14014 0.40768,-0.25162 0.63063,-0.33443c0.22932,-0.08918 0.46182,-0.13377 0.69752,-0.13377c0.33761,0 0.63701,0.05733 0.89818,0.17199c0.26117,0.11466 0.47456,0.28665 0.64018,0.51597c0.16562,0.22932 0.28665,0.51597 0.3631,0.85995l-0.18155,-0.04778l0.07644,-0.1911c0.08918,-0.17836 0.20703,-0.34398 0.35353,-0.49686c0.14651,-0.15925 0.31532,-0.29939 0.50642,-0.42042c0.1911,-0.12103 0.39176,-0.21658 0.60197,-0.28665c0.21658,-0.07007 0.42679,-0.1051 0.63063,-0.1051c0.44591,0 0.81537,0.09236 1.10838,0.2771c0.29302,0.18474 0.51279,0.46501 0.6593,0.84085c0.15288,0.36946 0.22932,0.83129 0.22932,1.3855v3.5927h-1.18483v-3.52581c0,-0.344 -0.04459,-0.62428 -0.13377,-0.84087c-0.08918,-0.21658 -0.22295,-0.37584 -0.40131,-0.47775c-0.17199,-0.10829 -0.39494,-0.16243 -0.66885,-0.16243c-0.21021,0 -0.41087,0.03822 -0.60197,0.11466c-0.18474,0.07007 -0.34717,0.16881 -0.48731,0.2962c-0.13377,0.1274 -0.23888,0.2771 -0.31532,0.44908c-0.07007,0.17199 -0.1051,0.35991 -0.1051,0.56377v3.58314h-1.19438v-3.54492c0,-0.31214 -0.04459,-0.57651 -0.13377,-0.79309c-0.08918,-0.21658 -0.22295,-0.3822 -0.40131,-0.49686c-0.17199,-0.11466 -0.38539,-0.17199 -0.64018,-0.17199c-0.21021,0 -0.40768,0.03822 -0.59241,0.11466c-0.17836,0.07007 -0.33761,0.16881 -0.47775,0.2962c-0.13377,0.12103 -0.23888,0.26755 -0.31532,0.43953c-0.07644,0.17199 -0.11466,0.35673 -0.11466,0.55422v3.60225zM259.15605,345.39465c-0.58604,0 -1.11157,-0.13377 -1.57658,-0.40131c-0.45865,-0.27391 -0.82173,-0.64337 -1.08928,-1.10838c-0.26117,-0.47139 -0.39176,-1.00647 -0.39176,-1.60525c0,-0.59879 0.13059,-1.1307 0.39176,-1.59571c0.26755,-0.47139 0.63063,-0.84085 1.08928,-1.10838c0.46501,-0.27391 0.99054,-0.41087 1.57658,-0.41087c0.5733,0 1.08928,0.13696 1.54791,0.41087c0.46501,0.26755 0.83129,0.63701 1.09883,1.10838c0.26755,0.46501 0.40131,0.99691 0.40131,1.59571c0,0.59878 -0.13377,1.13387 -0.40131,1.60525c-0.26755,0.46501 -0.63382,0.83447 -1.09883,1.10838c-0.45865,0.26755 -0.97461,0.40131 -1.54791,0.40131zM259.15605,344.32449c0.35672,0 0.67522,-0.08918 0.9555,-0.26755c0.28029,-0.17836 0.50005,-0.42042 0.6593,-0.72618c0.15925,-0.31213 0.23569,-0.66249 0.22932,-1.05106c0.00637,-0.39494 -0.07007,-0.7453 -0.22932,-1.05107c-0.15925,-0.31213 -0.37901,-0.5542 -0.6593,-0.72618c-0.28029,-0.17836 -0.59878,-0.26755 -0.9555,-0.26755c-0.35672,0 -0.67841,0.08918 -0.96506,0.26755c-0.28665,0.17836 -0.5096,0.42361 -0.66885,0.73574c-0.15925,0.30578 -0.23569,0.65294 -0.22932,1.04152c-0.00637,0.38857 0.07007,0.73892 0.22932,1.05106c0.15925,0.30576 0.3822,0.54782 0.66885,0.72618c0.28665,0.17836 0.60834,0.26755 0.96506,0.26755zM266.63106,345.39465c-0.26117,0 -0.51916,-0.04141 -0.77396,-0.12422c-0.2548,-0.08281 -0.48731,-0.19429 -0.69752,-0.33443c-0.21021,-0.14651 -0.38539,-0.30258 -0.52553,-0.4682c-0.14014,-0.17199 -0.23251,-0.34717 -0.2771,-0.52553l0.2962,-0.15288v1.45236h-1.17527v-8.40846h1.17527v3.82202l-0.18155,-0.09555c0.03822,-0.17836 0.12103,-0.34717 0.24843,-0.50642c0.1274,-0.16562 0.29302,-0.31532 0.49686,-0.44908c0.20384,-0.13377 0.42361,-0.23888 0.6593,-0.31532c0.23569,-0.08281 0.47456,-0.12422 0.71663,-0.12422c0.54146,0 1.01921,0.13377 1.43326,0.40131c0.42042,0.26755 0.75166,0.63382 0.99373,1.09883c0.24206,0.46501 0.3631,1.0001 0.3631,1.60527c0,0.59878 -0.12103,1.13387 -0.3631,1.60525c-0.23569,0.47139 -0.56375,0.84403 -0.98417,1.11794c-0.41405,0.26755 -0.88225,0.40131 -1.40459,0.40131zM266.43041,344.32449c0.35035,0 0.66249,-0.08918 0.9364,-0.26755c0.27391,-0.17836 0.49049,-0.42042 0.64975,-0.72618c0.15925,-0.31213 0.23888,-0.66567 0.23888,-1.06061c0,-0.38857 -0.07962,-0.73574 -0.23888,-1.04152c-0.15288,-0.31213 -0.36627,-0.5542 -0.64018,-0.72618c-0.27391,-0.17836 -0.58923,-0.26755 -0.94595,-0.26755c-0.35672,0 -0.67204,0.08918 -0.94595,0.26755c-0.27391,0.17199 -0.49049,0.41405 -0.64975,0.72618c-0.15925,0.30578 -0.23888,0.65294 -0.23888,1.04152c0,0.39494 0.07962,0.74848 0.23888,1.06061c0.15925,0.30576 0.37584,0.54782 0.64975,0.72618c0.27391,0.17836 0.58923,0.26755 0.94595,0.26755zM270.85649,345.28v-5.99103h1.17527v5.99103zM271.42979,337.97037c-0.24843,0 -0.44272,-0.0637 -0.58286,-0.1911c-0.13377,-0.13377 -0.20065,-0.3185 -0.20065,-0.5542c0,-0.22295 0.07007,-0.40131 0.21021,-0.53508c0.14014,-0.14014 0.33124,-0.21021 0.5733,-0.21021c0.24843,0 0.43953,0.06688 0.5733,0.20065c0.14014,0.1274 0.21021,0.30895 0.21021,0.54463c0,0.22295 -0.07007,0.4045 -0.21021,0.54463c-0.14014,0.13377 -0.33124,0.20065 -0.5733,0.20065zM273.85612,345.28v-8.44668h1.17527v8.44668zM279.37653,345.39465c-0.61152,0 -1.15616,-0.13059 -1.63391,-0.39176c-0.47139,-0.26117 -0.84403,-0.62108 -1.11794,-1.07972c-0.26755,-0.45865 -0.40131,-0.98417 -0.40131,-1.57658c0,-0.47139 0.07644,-0.90136 0.22932,-1.28995c0.15288,-0.38857 0.3631,-0.72299 0.63063,-1.00328c0.26755,-0.28665 0.58923,-0.50642 0.96506,-0.6593c0.3822,-0.15925 0.79307,-0.23888 1.2326,-0.23888c0.38857,0 0.74848,0.07326 1.07972,0.21977c0.33761,0.14651 0.62744,0.35035 0.86951,0.61152c0.24843,0.26117 0.43953,0.57012 0.5733,0.92684c0.13377,0.35035 0.19747,0.73256 0.1911,1.14662l-0.00955,0.50642h-4.89218l-0.26755,-0.9364h4.13734l-0.16243,0.1911v-0.26755c-0.02548,-0.25481 -0.11148,-0.48096 -0.25798,-0.67843c-0.14014,-0.19747 -0.32169,-0.35353 -0.54463,-0.4682c-0.22295,-0.11466 -0.46182,-0.17199 -0.71663,-0.17199c-0.41405,0 -0.76122,0.07962 -1.0415,0.23888c-0.28029,0.15288 -0.49368,0.3822 -0.64018,0.68796c-0.14014,0.2994 -0.21021,0.66887 -0.21021,1.1084c0,0.41405 0.086,0.77714 0.25798,1.08928c0.17199,0.30576 0.41724,0.54463 0.73574,0.71663c0.32487,0.16562 0.69433,0.24843 1.10838,0.24843c0.29939,0 0.57649,-0.04778 0.83129,-0.14333c0.2548,-0.10192 0.53189,-0.28346 0.83129,-0.54463l0.59241,0.83129c-0.18474,0.18474 -0.40768,0.34717 -0.66885,0.48731c-0.26117,0.13377 -0.53827,0.24206 -0.83129,0.32487c-0.29302,0.07644 -0.58286,0.11466 -0.86951,0.11466z" fill="#ffffff" stroke="none" stroke-width="1" stroke-linecap="square"/><path d="M234.78281,306.46619v-1.93743h19.37435v1.93743zM235.89683,300.60545l-1.25933,-0.72654l0.82341,-1.45308h-1.64682v-1.45308h1.64682l-0.82341,-1.40464l1.25933,-0.72654l0.82341,1.40464l0.82341,-1.40464l1.25933,0.72654l-0.82341,1.40464h1.64682v1.45308h-1.64682l0.82341,1.45308l-1.25933,0.72654l-0.82341,-1.45308zM243.64657,300.60545l-1.25933,-0.72654l0.82341,-1.45308h-1.64682v-1.45308h1.64682l-0.82341,-1.40464l1.25933,-0.72654l0.82341,1.40464l0.82341,-1.40464l1.25933,0.72654l-0.82341,1.40464h1.64682v1.45308h-1.64682l0.82341,1.45308l-1.25933,0.72654l-0.82341,-1.45308zM251.39631,300.60545l-1.25933,-0.72654l0.82341,-1.45308h-1.64682v-1.45308h1.64682l-0.82341,-1.40464l1.25933,-0.72654l0.82341,1.40464l0.82341,-1.40464l1.25933,0.72654l-0.82341,1.40464h1.64682v1.45308h-1.64682l0.82341,1.45308l-1.25933,0.72654l-0.82341,-1.45308z" fill="#ffffff" stroke="none" stroke-width="1" stroke-linecap="butt"/></g></g></svg>