<svg version="1.1" xmlns="http://www.w3.org/2000/svg" xmlns:xlink="http://www.w3.org/1999/xlink" width="115.05853" height="14.59375" viewBox="0,0,115.05853,14.59375"><g transform="translate(-182.47074,-172.70312)"><g data-paper-data="{&quot;isPaintingLayer&quot;:true}" fill="#ffffff" fill-rule="nonzero" stroke="none" stroke-width="1" stroke-linecap="square" stroke-linejoin="miter" stroke-miterlimit="10" stroke-dasharray="" stroke-dashoffset="0" style="mix-blend-mode: normal"><path d="M182.47074,187.09375v-13.0625h5.3125c0.70833,0 1.34896,0.17709 1.92188,0.53125c0.58333,0.35416 1.04688,0.83854 1.39063,1.45313c0.35416,0.60416 0.53125,1.28125 0.53125,2.03125c0,0.75 -0.17709,1.43229 -0.53125,2.04688c-0.34375,0.60416 -0.80729,1.08854 -1.39062,1.45313c-0.57292,0.36459 -1.21354,0.54688 -1.92187,0.54688h-3.29687v5zM184.48636,180.15625h3.26563c0.33333,0 0.63541,-0.09375 0.90625,-0.28125c0.28125,-0.19791 0.50521,-0.45312 0.67188,-0.76562c0.16666,-0.32291 0.25,-0.67709 0.25,-1.0625c0,-0.38541 -0.08334,-0.73437 -0.25,-1.04687c-0.16667,-0.3125 -0.39062,-0.5625 -0.67187,-0.75c-0.27084,-0.1875 -0.57292,-0.28125 -0.90625,-0.28125h-3.26562zM193.84568,187.09375v-13.8125h1.92188v13.8125zM202.87297,187.28125c-1,0 -1.89062,-0.21354 -2.67187,-0.64062c-0.77084,-0.42709 -1.38021,-1.01562 -1.82812,-1.76562c-0.4375,-0.75 -0.65625,-1.60937 -0.65625,-2.57812c0,-0.77084 0.125,-1.47396 0.375,-2.10937c0.25,-0.63541 0.59375,-1.18229 1.03125,-1.64062c0.4375,-0.46875 0.96354,-0.82812 1.57813,-1.07812c0.625,-0.26041 1.29688,-0.39062 2.01563,-0.39062c0.63541,0 1.22396,0.11979 1.76563,0.35938c0.55209,0.23959 1.02604,0.57291 1.42188,1c0.40625,0.42709 0.71875,0.93229 0.9375,1.51563c0.21875,0.57291 0.32291,1.19791 0.3125,1.875l-0.01562,0.82813h-8l-0.4375,-1.53125h6.76563l-0.26562,0.3125v-0.4375c-0.04166,-0.41666 -0.18229,-0.78646 -0.42187,-1.10937c-0.22916,-0.32291 -0.52604,-0.57812 -0.89062,-0.76562c-0.36459,-0.1875 -0.75521,-0.28125 -1.17187,-0.28125c-0.67709,0 -1.24479,0.13021 -1.70312,0.39063c-0.45834,0.25 -0.80729,0.625 -1.04687,1.125c-0.22916,0.48959 -0.34375,1.09375 -0.34375,1.8125c0,0.67709 0.14063,1.27084 0.42188,1.78125c0.28125,0.5 0.68229,0.89063 1.20313,1.17188c0.53125,0.27084 1.13541,0.40625 1.8125,0.40625c0.48959,0 0.94271,-0.07812 1.35938,-0.23437c0.41666,-0.16666 0.86979,-0.46354 1.35938,-0.89062l0.96875,1.35938c-0.30209,0.30209 -0.66666,0.56771 -1.09375,0.79688c-0.42709,0.21875 -0.88021,0.39584 -1.35937,0.53125c-0.47916,0.125 -0.95312,0.1875 -1.42187,0.1875zM213.00867,187.28125c-0.80209,0 -1.53646,-0.22396 -2.20312,-0.67187c-0.66667,-0.44791 -1.20312,-1.05729 -1.60937,-1.82812c-0.39584,-0.77084 -0.59375,-1.64062 -0.59375,-2.60937c0,-0.98959 0.20313,-1.86459 0.60938,-2.625c0.40625,-0.76041 0.95313,-1.35937 1.64063,-1.79687c0.69791,-0.4375 1.47396,-0.65625 2.32813,-0.65625c0.51041,0 0.97396,0.07813 1.39063,0.23438c0.42708,0.14584 0.79688,0.35416 1.10938,0.625c0.32291,0.26041 0.58333,0.56771 0.78125,0.92188c0.20833,0.34375 0.33854,0.71354 0.39063,1.10938l-0.42187,-0.14062v-2.54687h1.9375v9.79688h-1.9375v-2.32812l0.4375,-0.14062c-0.07292,0.34375 -0.22396,0.67709 -0.45312,1c-0.22917,0.3125 -0.52084,0.59375 -0.875,0.84375c-0.35417,0.23959 -0.74479,0.4375 -1.17187,0.59375c-0.42709,0.14584 -0.88021,0.21875 -1.35937,0.21875zM213.50867,185.51563c0.59375,0 1.10938,-0.14062 1.54688,-0.42187c0.44791,-0.29166 0.79688,-0.6875 1.04688,-1.1875c0.26041,-0.51041 0.39063,-1.08854 0.39063,-1.73437c0,-0.63541 -0.13021,-1.20312 -0.39062,-1.70312c-0.25,-0.5 -0.59896,-0.89062 -1.04687,-1.17187c-0.4375,-0.29166 -0.95312,-0.4375 -1.54687,-0.4375c-0.57292,0 -1.07812,0.14584 -1.51562,0.4375c-0.4375,0.28125 -0.78646,0.67188 -1.04687,1.17188c-0.25,0.5 -0.375,1.06771 -0.375,1.70313c0,0.64584 0.125,1.22396 0.375,1.73438c0.26041,0.5 0.60938,0.89584 1.04688,1.1875c0.4375,0.28125 0.94271,0.42188 1.51563,0.42188zM224.31807,187.28125c-0.82291,0 -1.5625,-0.14062 -2.21875,-0.42187c-0.65625,-0.29166 -1.20312,-0.71875 -1.64062,-1.28125l1.29688,-1.10937c0.375,0.42709 0.78125,0.73959 1.21875,0.9375c0.44791,0.1875 0.95313,0.28125 1.51563,0.28125c0.21875,0 0.42188,-0.02604 0.60938,-0.07812c0.19791,-0.05209 0.36979,-0.13541 0.51563,-0.25c0.14584,-0.11459 0.25521,-0.25 0.32813,-0.40625c0.07291,-0.15625 0.10938,-0.32812 0.10938,-0.51562c0,-0.32291 -0.11979,-0.58334 -0.35937,-0.78125c-0.125,-0.08334 -0.32291,-0.17709 -0.59375,-0.28125c-0.26041,-0.10416 -0.60416,-0.21354 -1.03125,-0.32812c-0.71875,-0.1875 -1.30729,-0.39584 -1.76562,-0.625c-0.45834,-0.23959 -0.8125,-0.51041 -1.0625,-0.8125c-0.1875,-0.23959 -0.32812,-0.49479 -0.42187,-0.76562c-0.08334,-0.28125 -0.125,-0.59375 -0.125,-0.9375c0,-0.40625 0.08854,-0.78125 0.26563,-1.125c0.1875,-0.34375 0.4375,-0.64062 0.75,-0.89062c0.32291,-0.26041 0.69791,-0.45834 1.125,-0.59375c0.42709,-0.13541 0.88541,-0.20312 1.375,-0.20312c0.45834,0 0.91146,0.0625 1.35938,0.1875c0.45834,0.125 0.88021,0.30729 1.26563,0.54688c0.38541,0.22916 0.70834,0.50521 0.96875,0.82813l-1.09375,1.21875c-0.23959,-0.23959 -0.5,-0.44791 -0.78125,-0.625c-0.28125,-0.17709 -0.56771,-0.3125 -0.85937,-0.40625c-0.28125,-0.10416 -0.53646,-0.15625 -0.76562,-0.15625c-0.26041,0 -0.5,0.02604 -0.71875,0.07813c-0.20834,0.04166 -0.38541,0.11459 -0.53125,0.21875c-0.13541,0.09375 -0.24479,0.21875 -0.32812,0.375c-0.07291,0.14584 -0.10937,0.3125 -0.10937,0.5c0.01041,0.15625 0.05209,0.30729 0.125,0.45313c0.07291,0.14584 0.17188,0.26563 0.29688,0.35938c0.13541,0.10416 0.33854,0.21354 0.60938,0.32813c0.27084,0.10416 0.61979,0.20834 1.04688,0.3125c0.61459,0.15625 1.125,0.33334 1.53125,0.53125c0.40625,0.1875 0.72916,0.40625 0.96875,0.65625c0.25,0.23959 0.42188,0.51563 0.51563,0.82813c0.10416,0.3125 0.15625,0.66146 0.15625,1.04688c0,0.55209 -0.16146,1.05209 -0.48437,1.5c-0.3125,0.4375 -0.73959,0.78125 -1.28125,1.03125c-0.53125,0.25 -1.125,0.375 -1.78125,0.375zM234.55129,187.28125c-1,0 -1.89062,-0.21354 -2.67187,-0.64062c-0.77084,-0.42709 -1.38021,-1.01562 -1.82812,-1.76562c-0.4375,-0.75 -0.65625,-1.60937 -0.65625,-2.57812c0,-0.77084 0.125,-1.47396 0.375,-2.10937c0.25,-0.63541 0.59375,-1.18229 1.03125,-1.64062c0.4375,-0.46875 0.96354,-0.82812 1.57813,-1.07812c0.625,-0.26041 1.29688,-0.39062 2.01563,-0.39062c0.63541,0 1.22396,0.11979 1.76563,0.35938c0.55209,0.23959 1.02604,0.57291 1.42188,1c0.40625,0.42709 0.71875,0.93229 0.9375,1.51563c0.21875,0.57291 0.32291,1.19791 0.3125,1.875l-0.01562,0.82813h-8l-0.4375,-1.53125h6.76563l-0.26562,0.3125v-0.4375c-0.04166,-0.41666 -0.18229,-0.78646 -0.42187,-1.10937c-0.22916,-0.32291 -0.52604,-0.57812 -0.89062,-0.76562c-0.36459,-0.1875 -0.75521,-0.28125 -1.17187,-0.28125c-0.67709,0 -1.24479,0.13021 -1.70312,0.39063c-0.45834,0.25 -0.80729,0.625 -1.04687,1.125c-0.22916,0.48959 -0.34375,1.09375 -0.34375,1.8125c0,0.67709 0.14063,1.27084 0.42188,1.78125c0.28125,0.5 0.68229,0.89063 1.20313,1.17188c0.53125,0.27084 1.13541,0.40625 1.8125,0.40625c0.48959,0 0.94271,-0.07812 1.35938,-0.23437c0.41666,-0.16666 0.86979,-0.46354 1.35938,-0.89062l0.96875,1.35938c-0.30209,0.30209 -0.66666,0.56771 -1.09375,0.79688c-0.42709,0.21875 -0.88021,0.39584 -1.35937,0.53125c-0.47916,0.125 -0.95312,0.1875 -1.42187,0.1875zM249.41074,187.09375l-4.15625,-13.0625h2.14063l2.51563,8.17188c0.07291,0.19791 0.14063,0.43229 0.20313,0.70313c0.0625,0.27084 0.11979,0.54166 0.17188,0.8125c0.05208,0.27084 0.09896,0.52604 0.14063,0.76563c0.04166,0.23959 0.08333,0.43229 0.125,0.57813l-0.54687,-0.01562c0.1875,-0.66666 0.33333,-1.17709 0.4375,-1.53125c0.10416,-0.36459 0.1875,-0.64062 0.25,-0.82812c0.0625,-0.19791 0.11979,-0.36459 0.17188,-0.5l2.34375,-5.89062h1.8125l2.28125,5.89063c0.125,0.30209 0.23438,0.59896 0.32813,0.89063c0.09375,0.29166 0.17708,0.58334 0.25,0.875c0.07291,0.29166 0.15625,0.59896 0.25,0.92188l-0.5,0.125c0.0625,-0.33334 0.10938,-0.59375 0.14063,-0.78125c0.03125,-0.19791 0.05729,-0.35937 0.07813,-0.48437c0.03125,-0.125 0.05729,-0.24479 0.07813,-0.35937c0.03125,-0.125 0.07291,-0.27604 0.125,-0.45312c0.0625,-0.1875 0.14063,-0.44271 0.23438,-0.76562l2.48438,-8.125h2.17188l-4.17187,13.0625h-1.39062l-3.45313,-8.17187l0.17188,0.07813l-3.32812,8.09375zM268.0257,187.28125c-0.80209,0 -1.53646,-0.22396 -2.20312,-0.67187c-0.66667,-0.44791 -1.20312,-1.05729 -1.60937,-1.82812c-0.39584,-0.77084 -0.59375,-1.64062 -0.59375,-2.60937c0,-0.98959 0.20313,-1.86459 0.60938,-2.625c0.40625,-0.76041 0.95313,-1.35937 1.64063,-1.79687c0.69791,-0.4375 1.47396,-0.65625 2.32813,-0.65625c0.51041,0 0.97396,0.07813 1.39063,0.23438c0.42708,0.14584 0.79688,0.35416 1.10938,0.625c0.32291,0.26041 0.58333,0.56771 0.78125,0.92188c0.20833,0.34375 0.33854,0.71354 0.39063,1.10938l-0.42187,-0.14062v-2.54687h1.9375v9.79688h-1.9375v-2.32812l0.4375,-0.14062c-0.07292,0.34375 -0.22396,0.67709 -0.45312,1c-0.22917,0.3125 -0.52084,0.59375 -0.875,0.84375c-0.35417,0.23959 -0.74479,0.4375 -1.17187,0.59375c-0.42709,0.14584 -0.88021,0.21875 -1.35937,0.21875zM268.5257,185.51563c0.59375,0 1.10938,-0.14062 1.54688,-0.42187c0.44791,-0.29166 0.79688,-0.6875 1.04688,-1.1875c0.26041,-0.51041 0.39063,-1.08854 0.39063,-1.73437c0,-0.63541 -0.13021,-1.20312 -0.39062,-1.70312c-0.25,-0.5 -0.59896,-0.89062 -1.04687,-1.17187c-0.4375,-0.29166 -0.95312,-0.4375 -1.54687,-0.4375c-0.57292,0 -1.07812,0.14584 -1.51562,0.4375c-0.4375,0.28125 -0.78646,0.67188 -1.04687,1.17188c-0.25,0.5 -0.375,1.06771 -0.375,1.70313c0,0.64584 0.125,1.22396 0.375,1.73438c0.26041,0.5 0.60938,0.89584 1.04688,1.1875c0.4375,0.28125 0.94271,0.42188 1.51563,0.42188zM276.38196,187.09375v-9.79687h1.92188v9.79688zM277.31946,175.14063c-0.40625,0 -0.72396,-0.10416 -0.95312,-0.3125c-0.21875,-0.21875 -0.32812,-0.52084 -0.32812,-0.90625c0,-0.36459 0.11458,-0.65625 0.34375,-0.875c0.22916,-0.22916 0.54166,-0.34375 0.9375,-0.34375c0.40625,0 0.71875,0.10938 0.9375,0.32813c0.22916,0.20834 0.34375,0.50521 0.34375,0.89063c0,0.36459 -0.11459,0.66146 -0.34375,0.89063c-0.22917,0.21875 -0.54167,0.32813 -0.9375,0.32813zM282.47464,187.09375v-12.29687h1.92188v12.29688zM280.42777,179.17188v-1.875h6.23438v1.875zM289.20114,187.29688c-0.40625,0 -0.72396,-0.11979 -0.95312,-0.35937c-0.21875,-0.23959 -0.32812,-0.58334 -0.32812,-1.03125c0,-0.41666 0.11459,-0.75521 0.34375,-1.01562c0.23959,-0.26041 0.55209,-0.39062 0.9375,-0.39062c0.41666,0 0.73438,0.125 0.95313,0.375c0.22916,0.23959 0.34375,0.58334 0.34375,1.03125c0,0.40625 -0.11979,0.73959 -0.35937,1c-0.23959,0.26041 -0.55209,0.39063 -0.9375,0.39063zM292.70114,187.29688c-0.40625,0 -0.72396,-0.11979 -0.95312,-0.35937c-0.21875,-0.23959 -0.32812,-0.58334 -0.32812,-1.03125c0,-0.41666 0.11459,-0.75521 0.34375,-1.01562c0.23959,-0.26041 0.55209,-0.39062 0.9375,-0.39062c0.41666,0 0.73438,0.125 0.95313,0.375c0.22916,0.23959 0.34375,0.58334 0.34375,1.03125c0,0.40625 -0.11979,0.73959 -0.35937,1c-0.23959,0.26041 -0.55209,0.39063 -0.9375,0.39063zM296.23239,187.29688c-0.40625,0 -0.72396,-0.11979 -0.95312,-0.35937c-0.21875,-0.23959 -0.32812,-0.58334 -0.32812,-1.03125c0,-0.41666 0.11459,-0.75521 0.34375,-1.01562c0.23959,-0.26041 0.55209,-0.39062 0.9375,-0.39062c0.41666,0 0.73438,0.125 0.95313,0.375c0.22916,0.23959 0.34375,0.58334 0.34375,1.03125c0,0.40625 -0.11979,0.73959 -0.35937,1c-0.23959,0.26041 -0.55209,0.39063 -0.9375,0.39063z"/></g></g></svg>