<svg version="1.1" xmlns="http://www.w3.org/2000/svg" xmlns:xlink="http://www.w3.org/1999/xlink" width="19.8" height="20.6" viewBox="0,0,19.8,20.6"><g transform="translate(-230.1,-169.7)"><g data-paper-data="{&quot;isPaintingLayer&quot;:true}" fill="#ffffff" fill-rule="nonzero" stroke="none" stroke-width="1" stroke-linecap="butt" stroke-linejoin="miter" stroke-miterlimit="10" stroke-dasharray="" stroke-dashoffset="0" style="mix-blend-mode: normal"><path d="M232.7,186.7v-2h2v-7c0,-0.55 0.07083,-1.09167 0.2125,-1.625c0.14167,-0.53333 0.35417,-1.04167 0.6375,-1.525l1.5,1.5c-0.11667,0.26667 -0.20417,0.5375 -0.2625,0.8125c-0.05833,0.275 -0.0875,0.55417 -0.0875,0.8375v7h6.2l-12.8,-12.8l1.4,-1.4l18.4,18.4l-1.4,1.4l-3.65,-3.6zM246.7,182.85l-2,-2v-3.15c0,-1.1 -0.39167,-2.04167 -1.175,-2.825c-0.78333,-0.78333 -1.725,-1.175 -2.825,-1.175c-0.43333,0 -0.85,0.06667 -1.25,0.2c-0.4,0.13333 -0.76667,0.33333 -1.1,0.6l-1.45,-1.45c0.33333,-0.26667 0.69167,-0.5 1.075,-0.7c0.38333,-0.2 0.79167,-0.35 1.225,-0.45v-0.7c0,-0.41667 0.14583,-0.77083 0.4375,-1.0625c0.29167,-0.29167 0.64583,-0.4375 1.0625,-0.4375c0.41667,0 0.77083,0.14583 1.0625,0.4375c0.29167,0.29167 0.4375,0.64583 0.4375,1.0625v0.7c1.33333,0.33333 2.41667,1.0375 3.25,2.1125c0.83333,1.075 1.25,2.30417 1.25,3.6875zM240.7,189.7c-0.55,0 -1.02083,-0.19583 -1.4125,-0.5875c-0.39167,-0.39167 -0.5875,-0.8625 -0.5875,-1.4125h4c0,0.55 -0.19583,1.02083 -0.5875,1.4125c-0.39167,0.39167 -0.8625,0.5875 -1.4125,0.5875z"/></g></g></svg>