<svg version="1.1" xmlns="http://www.w3.org/2000/svg" xmlns:xlink="http://www.w3.org/1999/xlink" width="50.24988" height="25.00346" viewBox="0,0,50.24988,25.00346"><g transform="translate(-121.88142,-228.13487)"><g data-paper-data="{&quot;isPaintingLayer&quot;:true}" stroke="none" stroke-width="1" stroke-linecap="square" stroke-linejoin="miter" stroke-miterlimit="10" stroke-dasharray="" stroke-dashoffset="0" style="mix-blend-mode: normal"><path d="M121.88143,229.68034c0,-0.85354 0.9588,-1.54546 2.14153,-1.54546h45.96682c0.56797,0 1.11268,0.16283 1.51429,0.45266c0.40162,0.28983 0.62724,0.68293 0.62724,1.09281v21.91253c0,0.85354 -0.9588,1.54546 -2.14153,1.54546h-45.96682c-1.18274,0 -2.14153,-0.69193 -2.14153,-1.54546z" fill="#3e3e3e" fill-rule="evenodd"/><path d="M141.74176,247.1902c-0.92708,0 -1.78125,-0.16666 -2.5625,-0.5c-0.77083,-0.34375 -1.44792,-0.8125 -2.03125,-1.40625c-0.57292,-0.60416 -1.02083,-1.3125 -1.34375,-2.125c-0.3125,-0.82291 -0.46875,-1.71875 -0.46875,-2.6875c0,-0.96875 0.15625,-1.85937 0.46875,-2.67187c0.32292,-0.8125 0.77083,-1.52084 1.34375,-2.125c0.58333,-0.60416 1.26042,-1.07291 2.03125,-1.40625c0.78125,-0.34375 1.63542,-0.51562 2.5625,-0.51562c0.91667,0 1.76042,0.17188 2.53125,0.51563c0.78125,0.33334 1.46354,0.80729 2.04688,1.42188c0.58333,0.60416 1.03125,1.3125 1.34375,2.125c0.3125,0.8125 0.46875,1.69791 0.46875,2.65625c0,0.95834 -0.15625,1.84375 -0.46875,2.65625c-0.3125,0.8125 -0.76042,1.52604 -1.34375,2.14063c-0.58333,0.60416 -1.26562,1.07813 -2.04687,1.42188c-0.77083,0.33334 -1.61458,0.5 -2.53125,0.5zM141.74176,245.23708c0.63542,0 1.21354,-0.11979 1.73438,-0.35937c0.53125,-0.23959 0.98958,-0.57291 1.375,-1c0.38542,-0.42709 0.6875,-0.92709 0.90625,-1.5c0.21875,-0.58334 0.32813,-1.21875 0.32813,-1.90625c0,-0.6875 -0.10937,-1.31771 -0.32812,-1.89062c-0.21875,-0.58334 -0.52083,-1.08854 -0.90625,-1.51562c-0.38542,-0.42709 -0.84375,-0.75521 -1.375,-0.98437c-0.52083,-0.23959 -1.09896,-0.35937 -1.73437,-0.35937c-0.63542,0 -1.21875,0.11979 -1.75,0.35938c-0.53125,0.22916 -0.99479,0.55729 -1.39062,0.98438c-0.38542,0.41666 -0.68229,0.91666 -0.89062,1.5c-0.20833,0.57291 -0.3125,1.20834 -0.3125,1.90625c0,0.6875 0.10417,1.32291 0.3125,1.90625c0.20833,0.58334 0.50521,1.08854 0.89063,1.51563c0.39583,0.41666 0.85938,0.74479 1.39063,0.98438c0.53125,0.23959 1.11458,0.35938 1.75,0.35938zM152.12781,243.9402l-0.09375,-2.09375l4.6875,-4.64062h2.59375zM150.37781,247.0027v-13.8125h1.92188v13.8125zM156.98718,247.0027l-3.70312,-4.3125l1.35938,-1.25l4.79688,5.5625z" fill="#ffffff" fill-rule="nonzero"/></g></g></svg>