<svg version="1.1" xmlns="http://www.w3.org/2000/svg" xmlns:xlink="http://www.w3.org/1999/xlink" width="41.22636" height="13.43752" viewBox="0,0,41.22636,13.43752"><g transform="translate(-219.38682,-173.28124)"><g data-paper-data="{&quot;isPaintingLayer&quot;:true}" fill="#ffffff" fill-rule="nonzero" stroke="none" stroke-width="1" stroke-linecap="square" stroke-linejoin="miter" stroke-miterlimit="10" stroke-dasharray="" stroke-dashoffset="0" style="mix-blend-mode: normal"><path d="M220.16803,186.53122l-0.60937,-1.53125l3.98438,-4.5c0.20833,-0.21875 0.42708,-0.47396 0.65625,-0.76562c0.23958,-0.29167 0.46354,-0.59375 0.67188,-0.90625c0.20833,-0.3125 0.375,-0.61979 0.5,-0.92187c0.13542,-0.30208 0.20313,-0.59375 0.20313,-0.875c0,-0.39583 -0.07812,-0.73437 -0.23437,-1.01562c-0.15625,-0.28125 -0.38021,-0.49479 -0.67187,-0.64062c-0.29167,-0.14583 -0.64062,-0.21875 -1.04687,-0.21875c-0.36458,0 -0.72396,0.10417 -1.07812,0.3125c-0.34375,0.20833 -0.65625,0.50521 -0.9375,0.89063c-0.28125,0.38542 -0.50521,0.83333 -0.67188,1.34375l-1.54687,-0.96875c0.20833,-0.71875 0.52604,-1.33333 0.95313,-1.84375c0.4375,-0.52083 0.95313,-0.91667 1.54688,-1.1875c0.60417,-0.28125 1.26042,-0.42187 1.96875,-0.42187c0.73958,0 1.39583,0.15625 1.96875,0.46875c0.57292,0.30208 1.02083,0.72396 1.34375,1.26563c0.32292,0.54167 0.48438,1.16667 0.48438,1.875c0,0.28125 -0.03125,0.57292 -0.09375,0.875c-0.0625,0.29167 -0.16146,0.59896 -0.29687,0.92188c-0.13542,0.3125 -0.3125,0.64063 -0.53125,0.98438c-0.20833,0.34375 -0.45833,0.70313 -0.75,1.07813c-0.29167,0.375 -0.625,0.76563 -1,1.17188l-2.96875,3.23438l-0.375,-0.5625h6.42188v1.9375zM234.31354,186.71872c-1,0 -1.85937,-0.27083 -2.57812,-0.8125c-0.70833,-0.55208 -1.25521,-1.32812 -1.64062,-2.32812c-0.38542,-1 -0.57812,-2.19271 -0.57812,-3.57812c0,-1.375 0.19271,-2.5625 0.57813,-3.5625c0.38542,-1.01042 0.93229,-1.78646 1.64063,-2.32812c0.71875,-0.55208 1.57813,-0.82812 2.57813,-0.82812c0.98958,0 1.84375,0.27604 2.5625,0.82813c0.72917,0.54167 1.28646,1.31771 1.67188,2.32813c0.38542,1 0.57813,2.1875 0.57813,3.5625c0,1.38542 -0.19271,2.57813 -0.57812,3.57813c-0.38542,1 -0.94271,1.77604 -1.67187,2.32813c-0.71875,0.54167 -1.57292,0.8125 -2.5625,0.8125zM234.31354,184.8906c0.90625,0 1.60417,-0.42708 2.09375,-1.28125c0.5,-0.85417 0.75,-2.05729 0.75,-3.60937c0,-1.55208 -0.25,-2.75521 -0.75,-3.60937c-0.48958,-0.85417 -1.1875,-1.28125 -2.09375,-1.28125c-0.90625,0 -1.60937,0.42708 -2.10937,1.28125c-0.5,0.85417 -0.75,2.05729 -0.75,3.60938c0,1.55208 0.25,2.75521 0.75,3.60938c0.5,0.85417 1.20313,1.28125 2.10938,1.28125zM241.716,186.53122l-0.60937,-1.53125l3.98438,-4.5c0.20833,-0.21875 0.42708,-0.47396 0.65625,-0.76562c0.23958,-0.29167 0.46354,-0.59375 0.67188,-0.90625c0.20833,-0.3125 0.375,-0.61979 0.5,-0.92187c0.13542,-0.30208 0.20313,-0.59375 0.20313,-0.875c0,-0.39583 -0.07812,-0.73437 -0.23437,-1.01562c-0.15625,-0.28125 -0.38021,-0.49479 -0.67187,-0.64062c-0.29167,-0.14583 -0.64062,-0.21875 -1.04687,-0.21875c-0.36458,0 -0.72396,0.10417 -1.07812,0.3125c-0.34375,0.20833 -0.65625,0.50521 -0.9375,0.89063c-0.28125,0.38542 -0.50521,0.83333 -0.67187,1.34375l-1.54687,-0.96875c0.20833,-0.71875 0.52604,-1.33333 0.95313,-1.84375c0.4375,-0.52083 0.95313,-0.91667 1.54688,-1.1875c0.60417,-0.28125 1.26042,-0.42187 1.96875,-0.42187c0.73958,0 1.39583,0.15625 1.96875,0.46875c0.57292,0.30208 1.02083,0.72396 1.34375,1.26563c0.32292,0.54167 0.48438,1.16667 0.48438,1.875c0,0.28125 -0.03125,0.57292 -0.09375,0.875c-0.0625,0.29167 -0.16146,0.59896 -0.29687,0.92188c-0.13542,0.3125 -0.3125,0.64063 -0.53125,0.98438c-0.20833,0.34375 -0.45833,0.70313 -0.75,1.07813c-0.29167,0.375 -0.625,0.76563 -1,1.17188l-2.96875,3.23438l-0.375,-0.5625h6.42188v1.9375zM256.39442,186.53122v-10.51562l0.46875,0.10938l-4.28125,5.23438l-0.07812,-0.21875h8.10938v1.84375h-9.35937l-0.85937,-1.67187l6.39063,-7.84375h1.54688v13.0625z"/></g></g></svg>