<svg version="1.1" xmlns="http://www.w3.org/2000/svg" xmlns:xlink="http://www.w3.org/1999/xlink" width="960" height="720" viewBox="0,0,960,720"><defs><clipPath id="clip-1"><path d="M-240,-180h960v720h-960z" fill="none" fill-rule="nonzero"/></clipPath></defs><g transform="translate(240,180)"><g clip-path="url(#clip-1)" data-paper-data="{&quot;isPaintingLayer&quot;:true}" stroke="none" stroke-width="1" stroke-linecap="square" stroke-linejoin="miter" stroke-miterlimit="10" stroke-dasharray="" stroke-dashoffset="0" style="mix-blend-mode: normal"><path d="M-240,-180h960v720h-960z" fill-opacity="0" fill="#000000" fill-rule="evenodd"/><path d="M-95.23885,15.23885h650.48816v116.34645h-650.48816z" fill-opacity="0" fill="#000000" fill-rule="evenodd"/><path d="M155.49481,190.64224v-29.79826h9.96342c1.66202,0 3.15899,0.388 4.49092,1.16399c1.33772,0.77045 2.40327,1.81251 3.19663,3.12616c0.79337,1.31365 1.19005,2.78527 1.19005,4.41486c0,1.64622 -0.40537,3.12893 -1.21611,4.44812c-0.81074,1.31919 -1.88787,2.36402 -3.23138,3.13447c-1.33772,0.76492 -2.81443,1.14737 -4.43012,1.14737h-6.84496v12.36328h-3.11845zM158.61326,175.29413h6.60174c1.0945,0 2.09634,-0.25774 3.00553,-0.77322c0.91498,-0.52103 1.64175,-1.22497 2.18031,-2.11182c0.54435,-0.88685 0.81653,-1.8901 0.81653,-3.00976c0,-1.11965 -0.27218,-2.1229 -0.81653,-3.00976c-0.53856,-0.88685 -1.26533,-1.58802 -2.18031,-2.1035c-0.90919,-0.52103 -1.91103,-0.78154 -3.00553,-0.78154h-6.60174zM186.72137,191.19929c-2.05001,0 -3.91761,-0.5044 -5.60279,-1.51319c-1.67939,-1.00879 -3.02001,-2.36125 -4.02185,-4.05735c-0.99605,-1.69611 -1.49408,-3.57235 -1.49408,-5.62874c0,-1.56308 0.28665,-3.02084 0.85996,-4.3733c0.5791,-1.35799 1.37536,-2.5497 2.38879,-3.57512c1.01922,-1.03097 2.20348,-1.83745 3.55278,-2.41944c1.3493,-0.582 2.78837,-0.873 4.31719,-0.873c2.04422,0 3.90603,0.5044 5.58542,1.51319c1.68518,1.00879 3.02869,2.36402 4.03054,4.06566c1.00184,1.70165 1.50277,3.58898 1.50277,5.66201c0,1.54645 -0.28955,2.99313 -0.86865,4.34003c-0.5791,1.34691 -1.37826,2.53584 -2.39747,3.56681c-1.01343,1.03097 -2.19189,1.83745 -3.53541,2.41944c-1.33772,0.582 -2.77679,0.873 -4.31719,0.873zM186.72137,188.21448c1.51145,0 2.86944,-0.37968 4.07397,-1.13905c1.21032,-0.75937 2.16583,-1.76262 2.86655,-3.00976c0.7065,-1.24714 1.05975,-2.60236 1.05975,-4.06566c0,-1.49102 -0.35615,-2.86287 -1.06844,-4.11556c-0.71229,-1.25822 -1.6736,-2.26147 -2.88392,-3.00976c-1.20453,-0.75382 -2.55383,-1.13074 -4.04791,-1.13074c-1.51724,0 -2.88102,0.37968 -4.09134,1.13905c-1.20453,0.75937 -2.16004,1.76262 -2.86655,3.00976c-0.70071,1.24714 -1.05107,2.61622 -1.05107,4.10724c0,1.52982 0.36194,2.91553 1.08581,4.15712c0.72967,1.24159 1.70255,2.22822 2.91867,2.95987c1.21611,0.73165 2.55094,1.09748 4.00448,1.09748zM201.45957,190.64224v-31.9267h3.11845v31.9267zM224.4788,169.35776h3.29218l-12.16979,31.9267h-3.30956l4.04791,-10.64223l-7.98291,-21.28447h3.39643l6.14136,17.17723l6.58437,-17.17723zM246.66827,191.19929c-2.10213,0 -4.07976,-0.40186 -5.93288,-1.20557c-1.85312,-0.80371 -3.48618,-1.91505 -4.89919,-3.33401c-1.40721,-1.41896 -2.5104,-3.05964 -3.30956,-4.92203c-0.79916,-1.86793 -1.19874,-3.86613 -1.19874,-5.99458c0,-2.12845 0.39958,-4.12386 1.19874,-5.98626c0.79916,-1.86793 1.90234,-3.51138 3.30956,-4.93035c1.413,-1.41896 3.04607,-2.5303 4.89919,-3.33401c1.85312,-0.80371 3.83075,-1.20557 5.93288,-1.20557c2.11951,0 4.10582,0.40186 5.95894,1.20557c1.85312,0.80371 3.48329,1.91505 4.8905,3.33401c1.413,1.41896 2.51619,3.06241 3.30956,4.93035c0.79337,1.86239 1.19005,3.85781 1.19005,5.98626c0,2.12845 -0.39668,4.12664 -1.19005,5.99458c-0.79337,1.86239 -1.89655,3.50307 -3.30956,4.92203c-1.40721,1.41896 -3.03738,2.5303 -4.8905,3.33401c-1.85312,0.80371 -3.83943,1.20557 -5.95894,1.20557zM246.66827,188.21448c1.70835,0 3.29798,-0.3298 4.76889,-0.98939c1.47671,-0.6596 2.77389,-1.56308 3.89155,-2.71044c1.12345,-1.15291 1.9979,-2.48042 2.62332,-3.98252c0.63122,-1.50211 0.94683,-3.09844 0.94683,-4.78901c0,-1.70165 -0.31851,-3.3063 -0.95552,-4.81395c-0.63701,-1.51319 -1.51724,-2.8407 -2.6407,-3.98252c-1.11766,-1.14737 -2.41485,-2.0453 -3.89155,-2.69381c-1.47091,-0.65405 -3.05186,-0.98108 -4.74283,-0.98108c-1.70255,0 -3.29218,0.3298 -4.76889,0.98939c-1.47671,0.6596 -2.77389,1.56585 -3.89155,2.71876c-1.11766,1.14737 -1.9921,2.4721 -2.62332,3.97421c-0.63122,1.50211 -0.94683,3.09844 -0.94683,4.789c0,1.71828 0.31851,3.32848 0.95552,4.83058c0.63701,1.50211 1.51435,2.82961 2.63201,3.98252c1.12345,1.14737 2.42064,2.0453 3.89155,2.69381c1.47671,0.64297 3.06054,0.96445 4.75152,0.96445zM277.62417,191.19929c-1.66202,0 -3.26902,-0.24943 -4.82101,-0.74828c-1.5462,-0.49885 -2.8984,-1.20834 -4.0566,-2.12845c-1.15241,-0.92011 -1.96605,-2.02036 -2.44091,-3.30075l2.90998,-1.03928c0.33009,0.87577 0.92656,1.62959 1.78942,2.26147c0.86865,0.63188 1.88497,1.11965 3.04896,1.46331c1.16399,0.33811 2.35404,0.50717 3.57015,0.50717c1.42459,0 2.75073,-0.22726 3.97842,-0.68177c1.23348,-0.45451 2.22664,-1.08917 2.97947,-1.90396c0.75862,-0.8148 1.13793,-1.77648 1.13793,-2.88504c0,-1.11965 -0.39379,-2.03976 -1.18136,-2.76033c-0.78179,-0.72611 -1.79232,-1.29702 -3.03159,-1.71273c-1.23927,-0.42125 -2.53356,-0.74551 -3.88287,-0.97277c-2.11951,-0.35474 -4.02185,-0.83697 -5.70703,-1.44668c-1.67939,-0.60971 -3.00843,-1.47162 -3.98711,-2.58573c-0.97868,-1.11411 -1.46802,-2.58573 -1.46802,-4.41486c0,-1.71828 0.51829,-3.2093 1.55488,-4.47306c1.03659,-1.26376 2.40327,-2.24207 4.10003,-2.93493c1.70255,-0.6984 3.5383,-1.04759 5.50724,-1.04759c1.61569,0 3.19374,0.24111 4.73414,0.72334c1.5462,0.48223 2.90708,1.18617 4.08266,2.11182c1.18136,0.92011 2.02975,2.04808 2.54515,3.3839l-2.95341,1.02265c-0.33009,-0.89794 -0.92946,-1.66008 -1.79811,-2.28642c-0.86286,-0.63188 -1.87339,-1.11411 -3.03159,-1.44668c-1.15241,-0.33811 -2.34536,-0.50717 -3.57884,-0.50717c-1.40721,-0.01109 -2.72467,0.2134 -3.95236,0.67345c-1.2219,0.46005 -2.21216,1.09748 -2.97078,1.91228c-0.75283,0.8148 -1.12925,1.77093 -1.12925,2.86841c0,1.27485 0.35325,2.25593 1.05975,2.94324c0.7065,0.68731 1.66491,1.20279 2.87523,1.54645c1.21611,0.33811 2.58858,0.64297 4.1174,0.91457c1.98631,0.32703 3.83075,0.8342 5.5333,1.52151c1.70835,0.68731 3.08081,1.60188 4.1174,2.74371c1.03659,1.14182 1.55488,2.5497 1.55488,4.22364c0,1.70165 -0.51829,3.1899 -1.55488,4.46475c-1.03659,1.26931 -2.40327,2.25316 -4.10003,2.95156c-1.69676,0.69285 -3.54699,1.03928 -5.55068,1.03928zM313.71656,191.19929c-1.95736,0 -3.74967,-0.4656 -5.37695,-1.39679c-1.62148,-0.9312 -2.91867,-2.17556 -3.89155,-3.7331c-0.9671,-1.56308 -1.45065,-3.2869 -1.45065,-5.17146c0,-1.09748 0.13319,-2.03145 0.39958,-2.8019c0.26639,-0.776 0.66017,-1.63791 1.18136,-2.58574l8.82549,-14.66633h3.62227l-6.47145,10.72537c1.30877,-0.48223 2.62043,-0.6984 3.93499,-0.64851c1.32035,0.04989 2.57989,0.3298 3.77863,0.83974c1.20453,0.50994 2.27297,1.20834 3.20532,2.09519c0.93814,0.88685 1.6765,1.9289 2.21506,3.12616c0.54435,1.19171 0.81653,2.49705 0.81653,3.91602c0,1.41896 -0.28376,2.74924 -0.85128,3.99084c-0.56173,1.24159 -1.33772,2.33353 -2.32798,3.27581c-0.98447,0.94228 -2.12819,1.68502 -3.43117,2.22822c-1.30298,0.53765 -2.69571,0.80648 -4.17821,0.80648zM313.71656,188.21448c1.4825,0 2.79995,-0.34366 3.95236,-1.03097c1.1582,-0.68731 2.06739,-1.59079 2.72756,-2.71044c0.66017,-1.12519 0.99026,-2.32522 0.99026,-3.60007c0,-1.33582 -0.34167,-2.55248 -1.02501,-3.64996c-0.67755,-1.09748 -1.59542,-1.97602 -2.75362,-2.63562c-1.1582,-0.66514 -2.44091,-0.99771 -3.84812,-0.99771c-1.45354,0 -2.75941,0.34088 -3.91761,1.02265c-1.15241,0.68177 -2.06449,1.57416 -2.73625,2.67719c-0.66597,1.09749 -0.99895,2.29197 -0.99895,3.58345c0,1.39125 0.35325,2.64116 1.05975,3.74972c0.7065,1.10302 1.63596,1.97879 2.78837,2.6273c1.1582,0.64297 2.41195,0.96445 3.76126,0.96445z" fill="#ffffff" fill-rule="nonzero"/></g></g></svg>