<svg version="1.1" xmlns="http://www.w3.org/2000/svg" xmlns:xlink="http://www.w3.org/1999/xlink" width="16" height="16" viewBox="0,0,16,16"><g transform="translate(-232,-172)"><g data-paper-data="{&quot;isPaintingLayer&quot;:true}" fill="#ffffff" fill-rule="nonzero" stroke="none" stroke-width="1" stroke-linecap="butt" stroke-linejoin="miter" stroke-miterlimit="10" stroke-dasharray="" stroke-dashoffset="0" style="mix-blend-mode: normal"><path d="M234,188c-0.55,0 -1.02083,-0.19583 -1.4125,-0.5875c-0.39167,-0.39167 -0.5875,-0.8625 -0.5875,-1.4125c0,-0.55 0.19583,-1.02083 0.5875,-1.4125c0.39167,-0.39167 0.8625,-0.5875 1.4125,-0.5875c0.55,0 1.02083,0.19583 1.4125,0.5875c0.39167,0.39167 0.5875,0.8625 0.5875,1.4125c0,0.55 -0.19583,1.02083 -0.5875,1.4125c-0.39167,0.39167 -0.8625,0.5875 -1.4125,0.5875zM240,188c-0.55,0 -1.02083,-0.19583 -1.4125,-0.5875c-0.39167,-0.39167 -0.5875,-0.8625 -0.5875,-1.4125c0,-0.55 0.19583,-1.02083 0.5875,-1.4125c0.39167,-0.39167 0.8625,-0.5875 1.4125,-0.5875c0.55,0 1.02083,0.19583 1.4125,0.5875c0.39167,0.39167 0.5875,0.8625 0.5875,1.4125c0,0.55 -0.19583,1.02083 -0.5875,1.4125c-0.39167,0.39167 -0.8625,0.5875 -1.4125,0.5875zM246,188c-0.55,0 -1.02083,-0.19583 -1.4125,-0.5875c-0.39167,-0.39167 -0.5875,-0.8625 -0.5875,-1.4125c0,-0.55 0.19583,-1.02083 0.5875,-1.4125c0.39167,-0.39167 0.8625,-0.5875 1.4125,-0.5875c0.55,0 1.02083,0.19583 1.4125,0.5875c0.39167,0.39167 0.5875,0.8625 0.5875,1.4125c0,0.55 -0.19583,1.02083 -0.5875,1.4125c-0.39167,0.39167 -0.8625,0.5875 -1.4125,0.5875zM234,182c-0.55,0 -1.02083,-0.19583 -1.4125,-0.5875c-0.39167,-0.39167 -0.5875,-0.8625 -0.5875,-1.4125c0,-0.55 0.19583,-1.02083 0.5875,-1.4125c0.39167,-0.39167 0.8625,-0.5875 1.4125,-0.5875c0.55,0 1.02083,0.19583 1.4125,0.5875c0.39167,0.39167 0.5875,0.8625 0.5875,1.4125c0,0.55 -0.19583,1.02083 -0.5875,1.4125c-0.39167,0.39167 -0.8625,0.5875 -1.4125,0.5875zM240,182c-0.55,0 -1.02083,-0.19583 -1.4125,-0.5875c-0.39167,-0.39167 -0.5875,-0.8625 -0.5875,-1.4125c0,-0.55 0.19583,-1.02083 0.5875,-1.4125c0.39167,-0.39167 0.8625,-0.5875 1.4125,-0.5875c0.55,0 1.02083,0.19583 1.4125,0.5875c0.39167,0.39167 0.5875,0.8625 0.5875,1.4125c0,0.55 -0.19583,1.02083 -0.5875,1.4125c-0.39167,0.39167 -0.8625,0.5875 -1.4125,0.5875zM246,182c-0.55,0 -1.02083,-0.19583 -1.4125,-0.5875c-0.39167,-0.39167 -0.5875,-0.8625 -0.5875,-1.4125c0,-0.55 0.19583,-1.02083 0.5875,-1.4125c0.39167,-0.39167 0.8625,-0.5875 1.4125,-0.5875c0.55,0 1.02083,0.19583 1.4125,0.5875c0.39167,0.39167 0.5875,0.8625 0.5875,1.4125c0,0.55 -0.19583,1.02083 -0.5875,1.4125c-0.39167,0.39167 -0.8625,0.5875 -1.4125,0.5875zM234,176c-0.55,0 -1.02083,-0.19583 -1.4125,-0.5875c-0.39167,-0.39167 -0.5875,-0.8625 -0.5875,-1.4125c0,-0.55 0.19583,-1.02083 0.5875,-1.4125c0.39167,-0.39167 0.8625,-0.5875 1.4125,-0.5875c0.55,0 1.02083,0.19583 1.4125,0.5875c0.39167,0.39167 0.5875,0.8625 0.5875,1.4125c0,0.55 -0.19583,1.02083 -0.5875,1.4125c-0.39167,0.39167 -0.8625,0.5875 -1.4125,0.5875zM240,176c-0.55,0 -1.02083,-0.19583 -1.4125,-0.5875c-0.39167,-0.39167 -0.5875,-0.8625 -0.5875,-1.4125c0,-0.55 0.19583,-1.02083 0.5875,-1.4125c0.39167,-0.39167 0.8625,-0.5875 1.4125,-0.5875c0.55,0 1.02083,0.19583 1.4125,0.5875c0.39167,0.39167 0.5875,0.8625 0.5875,1.4125c0,0.55 -0.19583,1.02083 -0.5875,1.4125c-0.39167,0.39167 -0.8625,0.5875 -1.4125,0.5875zM246,176c-0.55,0 -1.02083,-0.19583 -1.4125,-0.5875c-0.39167,-0.39167 -0.5875,-0.8625 -0.5875,-1.4125c0,-0.55 0.19583,-1.02083 0.5875,-1.4125c0.39167,-0.39167 0.8625,-0.5875 1.4125,-0.5875c0.55,0 1.02083,0.19583 1.4125,0.5875c0.39167,0.39167 0.5875,0.8625 0.5875,1.4125c0,0.55 -0.19583,1.02083 -0.5875,1.4125c-0.39167,0.39167 -0.8625,0.5875 -1.4125,0.5875z"/></g></g></svg>