<svg version="1.1" xmlns="http://www.w3.org/2000/svg" xmlns:xlink="http://www.w3.org/1999/xlink" width="96.00256" height="17.5161" viewBox="0,0,96.00256,17.5161"><g transform="translate(-193.58442,-171.17896)"><g data-paper-data="{&quot;isPaintingLayer&quot;:true}" stroke-linejoin="miter" stroke-miterlimit="10" stroke-dasharray="" stroke-dashoffset="0" style="mix-blend-mode: normal"><path d="M193.58444,180.00002c0,-3.73685 3.02931,-6.76616 6.76616,-6.76616h79.29884c1.7945,0 3.5155,0.71286 4.78439,1.98176c1.26891,1.26891 1.98177,2.98991 1.98177,4.7844c0,3.73685 -3.02932,6.76616 -6.76617,6.76616h-79.29884c-3.73685,0 -6.76616,-3.02931 -6.76616,-6.76616z" fill-opacity="0.77772" fill="#303030" fill-rule="evenodd" stroke="none" stroke-width="1" stroke-linecap="square"/><path d="M193.60825,180.04484c0,-3.7582 3.04662,-6.80482 6.80482,-6.80482c3.7582,0 6.80482,3.04662 6.80482,6.80482c0,3.7582 -3.04662,6.80482 -6.80482,6.80482c-3.7582,0 -6.80482,-3.04662 -6.80482,-6.80482z" fill="#303030" fill-rule="nonzero" stroke="none" stroke-width="0" stroke-linecap="butt"/><path d="M196.08795,180.00425c0,-3.7582 3.04662,-6.80482 6.80482,-6.80482c3.7582,0 6.80482,3.04662 6.80482,6.80482c0,3.7582 -3.04662,6.80482 -6.80482,6.80482c-3.7582,0 -6.80482,-3.04662 -6.80482,-6.80482z" fill="#303030" fill-rule="nonzero" stroke="none" stroke-width="0" stroke-linecap="butt"/><path d="M204.7424,180.08966c0,-3.7582 3.04662,-6.80482 6.80482,-6.80482c3.7582,0 6.80482,3.04662 6.80482,6.80482c0,3.7582 -3.04662,6.80482 -6.80482,6.80482c-3.7582,0 -6.80482,-3.04662 -6.80482,-6.80482z" fill="#303030" fill-rule="nonzero" stroke="none" stroke-width="0" stroke-linecap="butt"/><path d="M199.49037,180.13025c0,-3.7582 3.04662,-6.80482 6.80482,-6.80482c3.7582,0 6.80482,3.04662 6.80482,6.80482c0,3.7582 -3.04662,6.80482 -6.80482,6.80482c-3.7582,0 -6.80482,-3.04662 -6.80482,-6.80482z" fill="#303030" fill-rule="nonzero" stroke="none" stroke-width="0" stroke-linecap="butt"/><g fill="#303030" fill-rule="nonzero" stroke="none" stroke-width="0" stroke-linecap="butt"><path d="M209.44556,180.00425c0,-3.7582 3.04662,-6.80482 6.80482,-6.80482c3.7582,0 6.80482,3.04662 6.80482,6.80482c0,3.7582 -3.04662,6.80482 -6.80482,6.80482c-3.7582,0 -6.80482,-3.04662 -6.80482,-6.80482z"/><path d="M211.92526,179.96365c0,-3.7582 3.04662,-6.80482 6.80482,-6.80482c3.7582,0 6.80482,3.04662 6.80482,6.80482c0,3.7582 -3.04662,6.80482 -6.80482,6.80482c-3.7582,0 -6.80482,-3.04662 -6.80482,-6.80482z"/><path d="M216.79925,180.04906c0,-3.7582 3.04662,-6.80482 6.80482,-6.80482c3.7582,0 6.80482,3.04662 6.80482,6.80482c0,3.7582 -3.04662,6.80482 -6.80482,6.80482c-3.7582,0 -6.80482,-3.04662 -6.80482,-6.80482z"/><path d="M214.31955,180.08966c0,-3.7582 3.04662,-6.80482 6.80482,-6.80482c3.7582,0 6.80482,3.04662 6.80482,6.80482c0,3.7582 -3.04662,6.80482 -6.80482,6.80482c-3.7582,0 -6.80482,-3.04662 -6.80482,-6.80482z"/></g><g fill="#303030" fill-rule="nonzero" stroke="none" stroke-width="0" stroke-linecap="butt"><path d="M218.1,179.96365c0,-3.7582 3.04662,-6.80482 6.80482,-6.80482c3.7582,0 6.80482,3.04662 6.80482,6.80482c0,3.7582 -3.04662,6.80482 -6.80482,6.80482c-3.7582,0 -6.80482,-3.04662 -6.80482,-6.80482z"/><path d="M220.5797,179.92304c0,-3.7582 3.04662,-6.80482 6.80482,-6.80482c3.7582,0 6.80482,3.04662 6.80482,6.80482c0,3.7582 -3.04662,6.80482 -6.80482,6.80482c-3.7582,0 -6.80482,-3.04662 -6.80482,-6.80482z"/><path d="M225.45369,180.00846c0,-3.7582 3.04662,-6.80482 6.80482,-6.80482c3.7582,0 6.80482,3.04662 6.80482,6.80482c0,3.7582 -3.04662,6.80482 -6.80482,6.80482c-3.7582,0 -6.80482,-3.04662 -6.80482,-6.80482z"/><path d="M222.97399,180.04906c0,-3.7582 3.04662,-6.80482 6.80482,-6.80482c3.7582,0 6.80482,3.04662 6.80482,6.80482c0,3.7582 -3.04662,6.80482 -6.80482,6.80482c-3.7582,0 -6.80482,-3.04662 -6.80482,-6.80482z"/></g><g fill="#303030" fill-rule="nonzero" stroke="none" stroke-width="0" stroke-linecap="butt"><path d="M227.25851,180.04906c0,-3.7582 3.04662,-6.80482 6.80482,-6.80482c3.7582,0 6.80482,3.04662 6.80482,6.80482c0,3.7582 -3.04662,6.80482 -6.80482,6.80482c-3.7582,0 -6.80482,-3.04662 -6.80482,-6.80482z"/><path d="M229.73821,180.00846c0,-3.7582 3.04662,-6.80482 6.80482,-6.80482c3.7582,0 6.80482,3.04662 6.80482,6.80482c0,3.7582 -3.04662,6.80482 -6.80482,6.80482c-3.7582,0 -6.80482,-3.04662 -6.80482,-6.80482z"/><path d="M234.6122,180.09387c0,-3.7582 3.04662,-6.80482 6.80482,-6.80482c3.7582,0 6.80482,3.04662 6.80482,6.80482c0,3.7582 -3.04662,6.80482 -6.80482,6.80482c-3.7582,0 -6.80482,-3.04662 -6.80482,-6.80482z"/><path d="M232.1325,180.13446c0,-3.7582 3.04662,-6.80482 6.80482,-6.80482c3.7582,0 6.80482,3.04662 6.80482,6.80482c0,3.7582 -3.04662,6.80482 -6.80482,6.80482c-3.7582,0 -6.80482,-3.04662 -6.80482,-6.80482z"/></g><g fill="#303030" fill-rule="nonzero" stroke="none" stroke-width="0" stroke-linecap="butt"><path d="M237.29912,180.00846c0,-3.7582 3.04662,-6.80482 6.80482,-6.80482c3.7582,0 6.80482,3.04662 6.80482,6.80482c0,3.7582 -3.04662,6.80482 -6.80482,6.80482c-3.7582,0 -6.80482,-3.04662 -6.80482,-6.80482z"/><path d="M239.77882,179.96786c0,-3.7582 3.04662,-6.80482 6.80482,-6.80482c3.7582,0 6.80482,3.04662 6.80482,6.80482c0,3.7582 -3.04662,6.80482 -6.80482,6.80482c-3.7582,0 -6.80482,-3.04662 -6.80482,-6.80482z"/><path d="M244.65281,180.05327c0,-3.7582 3.04662,-6.80482 6.80482,-6.80482c3.7582,0 6.80482,3.04662 6.80482,6.80482c0,3.7582 -3.04662,6.80482 -6.80482,6.80482c-3.7582,0 -6.80482,-3.04662 -6.80482,-6.80482z"/><path d="M242.17311,180.09387c0,-3.7582 3.04662,-6.80482 6.80482,-6.80482c3.7582,0 6.80482,3.04662 6.80482,6.80482c0,3.7582 -3.04662,6.80482 -6.80482,6.80482c-3.7582,0 -6.80482,-3.04662 -6.80482,-6.80482z"/></g><g fill="#303030" fill-rule="nonzero" stroke="none" stroke-width="0" stroke-linecap="butt"><path d="M247.71777,179.96785c0,-3.7582 3.04662,-6.80482 6.80482,-6.80482c3.7582,0 6.80482,3.04662 6.80482,6.80482c0,3.7582 -3.04662,6.80482 -6.80482,6.80482c-3.7582,0 -6.80482,-3.04662 -6.80482,-6.80482z"/><path d="M250.19747,179.92725c0,-3.7582 3.04662,-6.80482 6.80482,-6.80482c3.7582,0 6.80482,3.04662 6.80482,6.80482c0,3.7582 -3.04662,6.80482 -6.80482,6.80482c-3.7582,0 -6.80482,-3.04662 -6.80482,-6.80482z"/><path d="M255.07146,180.01266c0,-3.7582 3.04662,-6.80482 6.80482,-6.80482c3.7582,0 6.80482,3.04662 6.80482,6.80482c0,3.7582 -3.04662,6.80482 -6.80482,6.80482c-3.7582,0 -6.80482,-3.04662 -6.80482,-6.80482z"/><path d="M252.59176,180.05325c0,-3.7582 3.04662,-6.80482 6.80482,-6.80482c3.7582,0 6.80482,3.04662 6.80482,6.80482c0,3.7582 -3.04662,6.80482 -6.80482,6.80482c-3.7582,0 -6.80482,-3.04662 -6.80482,-6.80482z"/></g><g fill="#303030" fill-rule="nonzero" stroke="none" stroke-width="0" stroke-linecap="butt"><path d="M257.38033,179.92724c0,-3.7582 3.04662,-6.80482 6.80482,-6.80482c3.7582,0 6.80482,3.04662 6.80482,6.80482c0,3.7582 -3.04662,6.80482 -6.80482,6.80482c-3.7582,0 -6.80482,-3.04662 -6.80482,-6.80482z"/><path d="M259.86003,179.88664c0,-3.7582 3.04662,-6.80482 6.80482,-6.80482c3.7582,0 6.80482,3.04662 6.80482,6.80482c0,3.7582 -3.04662,6.80482 -6.80482,6.80482c-3.7582,0 -6.80482,-3.04662 -6.80482,-6.80482z"/><path d="M264.73402,179.97205c0,-3.7582 3.04662,-6.80482 6.80482,-6.80482c3.7582,0 6.80482,3.04662 6.80482,6.80482c0,3.7582 -3.04662,6.80482 -6.80482,6.80482c-3.7582,0 -6.80482,-3.04662 -6.80482,-6.80482z"/><path d="M262.25432,180.01265c0,-3.7582 3.04662,-6.80482 6.80482,-6.80482c3.7582,0 6.80482,3.04662 6.80482,6.80482c0,3.7582 -3.04662,6.80482 -6.80482,6.80482c-3.7582,0 -6.80482,-3.04662 -6.80482,-6.80482z"/></g><path d="M272.07088,179.93701c0,-4.83694 3.92111,-8.75805 8.75805,-8.75805c4.83694,0 8.75805,3.92111 8.75805,8.75805c0,4.83694 -3.92111,8.75805 -8.75805,8.75805c-4.83694,0 -8.75805,-3.92111 -8.75805,-8.75805z" fill="#525252" fill-rule="nonzero" stroke="#000000" stroke-width="0" stroke-linecap="butt"/></g></g></svg>