<svg version="1.1" xmlns="http://www.w3.org/2000/svg" xmlns:xlink="http://www.w3.org/1999/xlink" width="28.12824" height="28.12824" viewBox="0,0,28.12824,28.12824"><g transform="translate(-225.93588,-165.93588)"><g data-paper-data="{&quot;isPaintingLayer&quot;:true}" fill-rule="nonzero" stroke="none" stroke-linecap="butt" stroke-linejoin="miter" stroke-miterlimit="10" stroke-dasharray="" stroke-dashoffset="0" style="mix-blend-mode: normal"><path d="M225.93588,180c0,-7.7674 6.29672,-14.06412 14.06412,-14.06412c7.7674,0 14.06412,6.29672 14.06412,14.06412c0,7.7674 -6.29672,14.06412 -14.06412,14.06412c-7.7674,0 -14.06412,-6.29672 -14.06412,-14.06412z" fill-opacity="0.80645" fill="#303030" stroke-width="0"/><path d="M239.27083,180.72917v-7.29167h1.45833v7.29167zM240,186.5625c-0.89931,0 -1.74697,-0.17318 -2.54297,-0.51953c-0.79601,-0.34635 -1.49175,-0.81727 -2.08724,-1.41276c-0.59549,-0.59549 -1.06641,-1.29123 -1.41276,-2.08724c-0.34635,-0.79601 -0.51953,-1.64367 -0.51953,-2.54297c0,-0.97223 0.20052,-1.88976 0.60156,-2.7526c0.40104,-0.86284 0.96615,-1.61024 1.69531,-2.24219l1.02083,1.02083c-0.58333,0.48611 -1.03906,1.07552 -1.36719,1.76823c-0.32813,0.69271 -0.49219,1.42796 -0.49219,2.20573c0,1.40972 0.49826,2.61284 1.49479,3.60938c0.99653,0.99653 2.19965,1.49479 3.60937,1.49479c1.42188,0 2.62803,-0.49826 3.61849,-1.49479c0.99046,-0.99653 1.48568,-2.19965 1.48568,-3.60938c0,-0.77778 -0.16102,-1.51302 -0.48307,-2.20573c-0.32205,-0.69271 -0.78082,-1.28212 -1.3763,-1.76823l1.02083,-1.02083c0.72917,0.63195 1.29427,1.37934 1.69531,2.24219c0.40104,0.86284 0.60156,1.78038 0.60156,2.7526c0,0.89931 -0.17318,1.74697 -0.51953,2.54297c-0.34635,0.79601 -0.81423,1.49175 -1.40365,2.08724c-0.58941,0.59549 -1.28212,1.06641 -2.07813,1.41276c-0.79601,0.34635 -1.64974,0.51953 -2.5612,0.51953z" fill="#ffffff" stroke-width="1"/></g></g></svg>