<svg version="1.1" xmlns="http://www.w3.org/2000/svg" xmlns:xlink="http://www.w3.org/1999/xlink" width="720" height="540" viewBox="0,0,720,540"><defs><clipPath id="clip-1"><path d="M-120,450v-540h720v540z" fill="none" fill-rule="nonzero" stroke-linecap="butt"/></clipPath></defs><g transform="translate(120,90)"><g clip-path="url(#clip-1)" data-paper-data="{&quot;isPaintingLayer&quot;:true}" stroke="none" stroke-width="1" stroke-linejoin="miter" stroke-miterlimit="10" stroke-dasharray="" stroke-dashoffset="0" style="mix-blend-mode: normal"><path d="M81.43545,165.41049h313.93272v27.47583h-313.93272z" fill-opacity="0.83279" fill="#e1e1e1" fill-rule="evenodd" stroke-linecap="square"/><path d="M81.43545,192.88632h-14.21602c-7.85129,0 -14.21603,-6.15068 -14.21603,-13.73791c0,-7.58724 6.36473,-13.73792 14.21603,-13.73792v0h14.21602z" fill-opacity="0.83279" fill="#e1e1e1" fill-rule="evenodd" stroke-linecap="square"/><path d="M395.36817,165.41049h14.21602v0c7.85131,0 14.21602,6.15068 14.21602,13.73792c0,7.58722 -6.36472,13.73791 -14.21602,13.73791h-14.21602z" fill-opacity="0.83279" fill="#e1e1e1" fill-rule="evenodd" stroke-linecap="square"/><path d="M89.90372,183.40099c-0.60384,0 -1.15911,-0.10758 -1.66577,-0.32275c-0.50668,-0.21516 -0.94741,-0.52402 -1.32221,-0.92659c-0.36786,-0.40256 -0.6559,-0.878 -0.86412,-1.42632c-0.20128,-0.54832 -0.30191,-1.14869 -0.30191,-1.80112c0,-0.61773 0.11105,-1.19381 0.33315,-1.72824c0.2221,-0.53444 0.52749,-1.00293 0.91618,-1.4055c0.38869,-0.4095 0.83983,-0.72531 1.35344,-0.94741c0.51361,-0.22904 1.06887,-0.34356 1.66577,-0.34356c0.42339,0 0.83636,0.06594 1.23892,0.19781c0.40256,0.12493 0.76695,0.30192 1.09317,0.53096c0.32622,0.22904 0.59343,0.48932 0.80166,0.78083l-0.89535,0.92659c-0.24293,-0.24293 -0.48585,-0.44421 -0.72878,-0.60384c-0.24293,-0.15963 -0.49279,-0.2811 -0.7496,-0.36439c-0.24987,-0.08329 -0.50321,-0.12493 -0.76001,-0.12493c-0.4095,0 -0.79125,0.07635 -1.14522,0.22904c-0.34703,0.15269 -0.65243,0.36786 -0.91618,0.64549c-0.25681,0.27068 -0.46156,0.5969 -0.61426,0.97865c-0.14576,0.3748 -0.21863,0.7843 -0.21863,1.22851c0,0.47197 0.06941,0.9023 0.20823,1.29098c0.14576,0.38174 0.35051,0.71142 0.61426,0.98906c0.27068,0.27068 0.58996,0.47891 0.95782,0.62467c0.36786,0.14576 0.77736,0.21863 1.22851,0.21863c0.27068,0 0.53791,-0.03817 0.80166,-0.11452c0.26375,-0.07635 0.51015,-0.18393 0.73919,-0.32275c0.23598,-0.13882 0.45114,-0.30539 0.64549,-0.49974l0.66631,1.09317c-0.1874,0.22904 -0.44768,0.4338 -0.78083,0.61426c-0.32622,0.18046 -0.69061,0.32275 -1.09317,0.42686c-0.39562,0.10411 -0.79819,0.15616 -1.20769,0.15616zM94.51299,183.27605v-9.20342h1.28057v9.20342zM97.82054,183.27605v-6.52776h1.28057v6.52776zM98.44521,175.31156c-0.27068,0 -0.48238,-0.06941 -0.63507,-0.20823c-0.14576,-0.14576 -0.21863,-0.34703 -0.21863,-0.60384c0,-0.24293 0.07635,-0.43727 0.22904,-0.58302c0.15269,-0.15269 0.36092,-0.22904 0.62467,-0.22904c0.27068,0 0.47891,0.07288 0.62467,0.21863c0.15269,0.13882 0.22904,0.33662 0.22904,0.59343c0,0.24293 -0.07635,0.44074 -0.22904,0.59343c-0.15269,0.14576 -0.36092,0.21863 -0.62467,0.21863zM103.83745,183.40099c-0.60384,0 -1.14522,-0.14923 -1.62413,-0.44768c-0.47197,-0.29845 -0.84677,-0.70448 -1.1244,-1.2181c-0.27763,-0.51361 -0.41644,-1.0897 -0.41644,-1.72824c0,-0.63854 0.13882,-1.21463 0.41644,-1.72824c0.27763,-0.51361 0.65243,-0.91965 1.1244,-1.2181c0.47891,-0.29845 1.02029,-0.44768 1.62413,-0.44768c0.58302,0 1.11052,0.11799 1.58249,0.35398c0.47891,0.23598 0.8433,0.55873 1.09317,0.96823l-0.70795,0.86412c-0.13188,-0.1874 -0.30192,-0.36092 -0.51015,-0.52055c-0.20823,-0.15963 -0.43033,-0.28457 -0.66631,-0.3748c-0.22904,-0.09023 -0.45114,-0.13535 -0.66631,-0.13535c-0.39562,0 -0.7496,0.09717 -1.06193,0.29151c-0.31233,0.19434 -0.55873,0.46156 -0.73919,0.80166c-0.18046,0.34009 -0.27068,0.72184 -0.27068,1.14522c0,0.42339 0.0937,0.80513 0.2811,1.14522c0.19434,0.33315 0.44768,0.60037 0.76001,0.80166c0.31233,0.19434 0.65937,0.29151 1.04111,0.29151c0.22904,0 0.44768,-0.03817 0.6559,-0.11452c0.20823,-0.07635 0.41297,-0.1874 0.61426,-0.33315c0.20128,-0.15269 0.38869,-0.33662 0.5622,-0.55179l0.70795,0.87453c-0.26375,0.3748 -0.64202,0.68367 -1.13481,0.92659c-0.49279,0.23598 -1.0064,0.35398 -1.54084,0.35398zM108.88465,181.23548l-0.06247,-1.39509l3.12333,-3.0921h1.72824zM107.71861,183.27605v-9.20342h1.28057v9.20342zM112.1225,183.27605l-2.46743,-2.87346l0.90577,-0.83289l3.19621,3.70635zM120.76906,183.40099c-0.53444,0 -1.02376,-0.14923 -1.46797,-0.44768c-0.44421,-0.29845 -0.80166,-0.70448 -1.07234,-1.2181c-0.26375,-0.51361 -0.39562,-1.09317 -0.39562,-1.73865c0,-0.65937 0.13535,-1.24239 0.40603,-1.74907c0.27068,-0.50668 0.63507,-0.90577 1.09317,-1.19728c0.46503,-0.29151 0.98212,-0.43727 1.55125,-0.43727c0.34009,0 0.64896,0.05205 0.92659,0.15616c0.28457,0.09717 0.53096,0.23598 0.73919,0.41644c0.21516,0.17352 0.38869,0.37827 0.52055,0.61426c0.13882,0.22904 0.22557,0.47544 0.26028,0.73919l-0.2811,-0.0937v-1.69701h1.29098v6.52776h-1.29098v-1.55125l0.29151,-0.0937c-0.04858,0.22904 -0.14923,0.45114 -0.30192,0.66631c-0.15269,0.20823 -0.34703,0.39562 -0.58302,0.5622c-0.23598,0.15963 -0.49626,0.29151 -0.78083,0.39562c-0.28457,0.09717 -0.58649,0.14576 -0.90577,0.14576zM121.10221,182.22453c0.39562,0 0.73919,-0.0937 1.0307,-0.2811c0.29845,-0.19434 0.53096,-0.45809 0.69754,-0.79125c0.17352,-0.34009 0.26028,-0.72531 0.26028,-1.15563c0,-0.42339 -0.08676,-0.80166 -0.26028,-1.13481c-0.16658,-0.33315 -0.39909,-0.59343 -0.69754,-0.78083c-0.29151,-0.19434 -0.63507,-0.29151 -1.0307,-0.29151c-0.38174,0 -0.71837,0.09717 -1.00988,0.29151c-0.29151,0.1874 -0.52402,0.44768 -0.69754,0.78083c-0.16658,0.33315 -0.24987,0.71142 -0.24987,1.13481c0,0.43033 0.08329,0.81553 0.24987,1.15563c0.17352,0.33315 0.40603,0.5969 0.69754,0.79125c0.29151,0.1874 0.62814,0.2811 1.00988,0.2811zM131.78527,183.40099c-0.54832,0 -1.04111,-0.0937 -1.47837,-0.2811c-0.43727,-0.19434 -0.80166,-0.47891 -1.09317,-0.85371l0.86412,-0.73919c0.24987,0.28457 0.52055,0.49279 0.81206,0.62467c0.29845,0.12493 0.63507,0.1874 1.00988,0.1874c0.14576,0 0.2811,-0.01735 0.40603,-0.05205c0.13188,-0.0347 0.2464,-0.09023 0.34356,-0.16658c0.09717,-0.07635 0.17005,-0.16658 0.21863,-0.27068c0.04858,-0.10411 0.07288,-0.21863 0.07288,-0.34356c0,-0.21516 -0.07982,-0.38869 -0.23946,-0.52055c-0.08329,-0.05553 -0.21516,-0.11799 -0.39562,-0.1874c-0.17352,-0.06941 -0.40256,-0.14229 -0.68714,-0.21863c-0.47891,-0.12493 -0.87106,-0.26375 -1.17645,-0.41644c-0.30539,-0.15963 -0.54138,-0.34009 -0.70795,-0.54138c-0.12493,-0.15963 -0.21863,-0.32969 -0.2811,-0.51015c-0.05553,-0.1874 -0.08329,-0.39562 -0.08329,-0.62467c0,-0.27068 0.059,-0.52055 0.17699,-0.7496c0.12493,-0.22904 0.29151,-0.42686 0.49974,-0.59343c0.21516,-0.17352 0.46503,-0.30539 0.7496,-0.39562c0.28457,-0.09023 0.58996,-0.13535 0.91618,-0.13535c0.30539,0 0.60732,0.04164 0.90577,0.12493c0.30539,0.08329 0.58649,0.20476 0.8433,0.36439c0.25681,0.15269 0.47197,0.33662 0.64549,0.55179l-0.72878,0.81206c-0.15963,-0.15963 -0.33315,-0.29845 -0.52055,-0.41644c-0.1874,-0.11799 -0.37827,-0.20823 -0.57261,-0.27068c-0.1874,-0.06941 -0.35745,-0.10411 -0.51015,-0.10411c-0.17352,0 -0.33315,0.01735 -0.47891,0.05205c-0.13882,0.02777 -0.25681,0.07635 -0.35398,0.14576c-0.09023,0.06247 -0.1631,0.14576 -0.21863,0.24987c-0.04858,0.09717 -0.07288,0.20823 -0.07288,0.33315c0.00694,0.10411 0.0347,0.20476 0.08329,0.30192c0.04858,0.09717 0.11452,0.17699 0.19781,0.23946c0.09023,0.06941 0.22557,0.14229 0.40603,0.21863c0.18046,0.06941 0.41297,0.13882 0.69754,0.20823c0.4095,0.10411 0.7496,0.2221 1.02029,0.35398c0.27068,0.12493 0.48585,0.27068 0.64549,0.43727c0.16658,0.15963 0.2811,0.34356 0.34356,0.55179c0.06941,0.20823 0.10411,0.44074 0.10411,0.69754c0,0.36786 -0.10758,0.70101 -0.32275,0.99946c-0.20823,0.29151 -0.49279,0.52055 -0.85371,0.68714c-0.35398,0.16658 -0.7496,0.24987 -1.18686,0.24987zM135.56373,186.01417v-9.26588h1.29098v1.48879l-0.19781,-0.10411c0.04858,-0.24987 0.1874,-0.48932 0.41644,-0.71837c0.23598,-0.22904 0.52055,-0.41644 0.85371,-0.5622c0.34009,-0.14576 0.68714,-0.21863 1.04111,-0.21863c0.58996,0 1.11052,0.14576 1.56167,0.43727c0.45809,0.29151 0.819,0.69061 1.08275,1.19728c0.27068,0.50668 0.40603,1.08623 0.40603,1.73865c0,0.64549 -0.13188,1.22504 -0.39562,1.73865c-0.26375,0.50668 -0.62467,0.90924 -1.08275,1.20769c-0.45114,0.29151 -0.96129,0.43727 -1.53044,0.43727c-0.38174,0 -0.75307,-0.07635 -1.11398,-0.22904c-0.35398,-0.15269 -0.6559,-0.35051 -0.90577,-0.59343c-0.24987,-0.24293 -0.40256,-0.49279 -0.45809,-0.7496l0.32275,-0.16658v4.36225zM138.79117,182.20371c0.38174,0 0.72184,-0.0937 1.02029,-0.2811c0.29845,-0.19434 0.53444,-0.45461 0.70795,-0.78083c0.17352,-0.33315 0.26028,-0.71142 0.26028,-1.13481c0,-0.42339 -0.08676,-0.79819 -0.26028,-1.1244c-0.16658,-0.32622 -0.39909,-0.58302 -0.69754,-0.77042c-0.29151,-0.19434 -0.63507,-0.29151 -1.0307,-0.29151c-0.38869,0 -0.73225,0.0937 -1.0307,0.2811c-0.29845,0.1874 -0.53444,0.44768 -0.70795,0.78083c-0.17352,0.32622 -0.26028,0.70101 -0.26028,1.1244c0,0.42339 0.08676,0.80166 0.26028,1.13481c0.17352,0.32622 0.4095,0.58649 0.70795,0.78083c0.29845,0.1874 0.64202,0.2811 1.0307,0.2811zM146.34353,183.40099c-0.63854,0 -1.21116,-0.14576 -1.71783,-0.43727c-0.49974,-0.29845 -0.89535,-0.70101 -1.18686,-1.20769c-0.28457,-0.51361 -0.42686,-1.09664 -0.42686,-1.74907c0,-0.65243 0.14229,-1.23198 0.42686,-1.73865c0.29151,-0.51361 0.68714,-0.91618 1.18686,-1.20769c0.50668,-0.29845 1.07928,-0.44768 1.71783,-0.44768c0.62467,0 1.18686,0.14923 1.6866,0.44768c0.50668,0.29151 0.90577,0.69407 1.19728,1.20769c0.29151,0.50668 0.43727,1.08623 0.43727,1.73865c0,0.65243 -0.14576,1.23545 -0.43727,1.74907c-0.29151,0.50668 -0.69061,0.90924 -1.19728,1.20769c-0.49974,0.29151 -1.06193,0.43727 -1.6866,0.43727zM146.34353,182.23494c0.38869,0 0.73572,-0.09717 1.04111,-0.29151c0.30539,-0.19434 0.54485,-0.45809 0.71837,-0.79125c0.17352,-0.34009 0.25681,-0.72184 0.24987,-1.14522c0.00694,-0.43033 -0.07635,-0.81206 -0.24987,-1.14522c-0.17352,-0.34009 -0.41297,-0.60384 -0.71837,-0.79125c-0.30539,-0.19434 -0.65243,-0.29151 -1.04111,-0.29151c-0.38869,0 -0.73919,0.09717 -1.05152,0.29151c-0.31233,0.19434 -0.55526,0.46156 -0.72878,0.80166c-0.17352,0.33315 -0.25681,0.71142 -0.24987,1.13481c-0.00694,0.42339 0.07635,0.80513 0.24987,1.14522c0.17352,0.33315 0.41644,0.5969 0.72878,0.79125c0.31233,0.19434 0.66284,0.29151 1.05152,0.29151zM151.86465,183.27605v-8.19354h1.28057v8.19354zM150.50079,177.99763v-1.24933h4.15403v1.24933zM162.24261,183.40099c-0.63854,0 -1.21116,-0.14576 -1.71783,-0.43727c-0.49974,-0.29845 -0.89535,-0.70101 -1.18686,-1.20769c-0.28457,-0.51361 -0.42686,-1.09664 -0.42686,-1.74907c0,-0.65243 0.14229,-1.23198 0.42686,-1.73865c0.29151,-0.51361 0.68714,-0.91618 1.18686,-1.20769c0.50668,-0.29845 1.07928,-0.44768 1.71783,-0.44768c0.62467,0 1.18686,0.14923 1.6866,0.44768c0.50668,0.29151 0.90577,0.69407 1.19728,1.20769c0.29151,0.50668 0.43727,1.08623 0.43727,1.73865c0,0.65243 -0.14576,1.23545 -0.43727,1.74907c-0.29151,0.50668 -0.69061,0.90924 -1.19728,1.20769c-0.49974,0.29151 -1.06193,0.43727 -1.6866,0.43727zM162.24261,182.23494c0.38869,0 0.73572,-0.09717 1.04111,-0.29151c0.30539,-0.19434 0.54485,-0.45809 0.71837,-0.79125c0.17352,-0.34009 0.25681,-0.72184 0.24987,-1.14522c0.00694,-0.43033 -0.07635,-0.81206 -0.24987,-1.14522c-0.17352,-0.34009 -0.41297,-0.60384 -0.71837,-0.79125c-0.30539,-0.19434 -0.65243,-0.29151 -1.04111,-0.29151c-0.38869,0 -0.73919,0.09717 -1.05152,0.29151c-0.31233,0.19434 -0.55526,0.46156 -0.72878,0.80166c-0.17352,0.33315 -0.25681,0.71142 -0.24987,1.13481c-0.00694,0.42339 0.07635,0.80513 0.24987,1.14522c0.17352,0.33315 0.41644,0.5969 0.72878,0.79125c0.31233,0.19434 0.66284,0.29151 1.05152,0.29151zM166.95166,183.27605v-6.52776h1.28057v1.34304l-0.22904,0.14576c0.08329,-0.28457 0.2464,-0.54832 0.48932,-0.79125c0.24293,-0.24987 0.52749,-0.45114 0.85371,-0.60384c0.33315,-0.15269 0.67325,-0.22904 1.02029,-0.22904c0.49974,0 0.91271,0.09717 1.23892,0.29151c0.33315,0.19434 0.58302,0.49279 0.7496,0.89535c0.16658,0.39562 0.24987,0.89535 0.24987,1.4992v3.97704h-1.28057v-3.89375c0,-0.36786 -0.04858,-0.67325 -0.14576,-0.91618c-0.09717,-0.24987 -0.24987,-0.43033 -0.45809,-0.54138c-0.20823,-0.11105 -0.46503,-0.15963 -0.77042,-0.14576c-0.24987,0 -0.47891,0.04164 -0.68714,0.12493c-0.20823,0.07635 -0.38869,0.1874 -0.54138,0.33315c-0.15269,0.13882 -0.27416,0.30192 -0.36439,0.48932c-0.08329,0.18046 -0.12493,0.37827 -0.12493,0.59343v3.95622h-0.63507c-0.10411,0 -0.21169,0 -0.32275,0c-0.11105,0 -0.21863,0 -0.32275,0zM178.64073,183.27605v-8.19354h1.28057v8.19354zM177.27687,177.99763v-1.24933h4.15403v1.24933zM182.60211,183.27605v-9.20342h1.28057v4.01868l-0.22904,0.14576c0.08329,-0.28457 0.2464,-0.54832 0.48932,-0.79125c0.24293,-0.24987 0.52749,-0.45114 0.85371,-0.60384c0.33315,-0.15269 0.67325,-0.22904 1.02029,-0.22904c0.49974,0 0.91271,0.09717 1.23892,0.29151c0.33315,0.19434 0.58302,0.49279 0.7496,0.89535c0.16658,0.39562 0.24987,0.89535 0.24987,1.4992v3.97704h-1.28057v-3.89375c0,-0.36786 -0.04858,-0.67325 -0.14576,-0.91618c-0.09717,-0.24987 -0.24987,-0.43033 -0.45809,-0.54138c-0.20823,-0.11105 -0.46503,-0.15963 -0.77042,-0.14576c-0.24987,0 -0.47891,0.04164 -0.68714,0.12493c-0.20823,0.07635 -0.38869,0.1874 -0.54138,0.33315c-0.15269,0.13882 -0.27416,0.30192 -0.36439,0.48932c-0.08329,0.18046 -0.12493,0.37827 -0.12493,0.59343v3.95622h-0.63507c-0.10411,0 -0.21169,0 -0.32275,0c-0.11105,0 -0.21863,0 -0.32275,0zM193.03851,183.40099c-0.66631,0 -1.25974,-0.14229 -1.7803,-0.42686c-0.51361,-0.28457 -0.91965,-0.67672 -1.2181,-1.17645c-0.29151,-0.49974 -0.43727,-1.07234 -0.43727,-1.71783c0,-0.51361 0.08329,-0.98212 0.24987,-1.4055c0.16658,-0.42339 0.39562,-0.78777 0.68714,-1.09317c0.29151,-0.31233 0.64202,-0.55179 1.05152,-0.71837c0.41644,-0.17352 0.86412,-0.26028 1.34304,-0.26028c0.42339,0 0.81553,0.07982 1.17645,0.23946c0.36786,0.15963 0.68367,0.38174 0.94741,0.66631c0.27068,0.28457 0.47891,0.6212 0.62467,1.00988c0.14576,0.38174 0.21516,0.79819 0.20823,1.24933l-0.01041,0.55179h-5.33048l-0.29151,-1.02029h4.50801l-0.17699,0.20823v-0.29151c-0.02777,-0.27763 -0.12146,-0.52402 -0.2811,-0.73919c-0.15269,-0.21516 -0.35051,-0.38521 -0.59343,-0.51015c-0.24293,-0.12493 -0.50321,-0.1874 -0.78083,-0.1874c-0.45114,0 -0.82942,0.08676 -1.13481,0.26028c-0.30539,0.16658 -0.53791,0.41644 -0.69754,0.7496c-0.15269,0.32622 -0.22904,0.72878 -0.22904,1.20769c0,0.45114 0.0937,0.84677 0.2811,1.18686c0.1874,0.33315 0.45461,0.59343 0.80166,0.78083c0.35398,0.18046 0.75654,0.27068 1.20769,0.27068c0.32622,0 0.62814,-0.05205 0.90577,-0.15616c0.27763,-0.11105 0.57955,-0.30886 0.90577,-0.59343l0.64549,0.90577c-0.20128,0.20128 -0.44421,0.37827 -0.72878,0.53096c-0.28457,0.14576 -0.58649,0.26375 -0.90577,0.35398c-0.31928,0.08329 -0.63507,0.12493 -0.94741,0.12493zM200.74279,183.27605v-6.52776h1.29098v1.39509l-0.23946,0.14576c0.06941,-0.21516 0.17352,-0.41991 0.31233,-0.61426c0.14576,-0.20128 0.32275,-0.37827 0.53096,-0.53096c0.21516,-0.15269 0.44421,-0.27416 0.68714,-0.36439c0.24987,-0.09717 0.50321,-0.14576 0.76001,-0.14576c0.36786,0 0.69407,0.06247 0.97865,0.1874c0.28457,0.12493 0.51708,0.31233 0.69754,0.5622c0.18046,0.24987 0.31233,0.5622 0.39562,0.937l-0.19781,-0.05205l0.08329,-0.20823c0.09717,-0.19434 0.22557,-0.3748 0.38521,-0.54138c0.15963,-0.17352 0.34356,-0.32622 0.55179,-0.45809c0.20823,-0.13188 0.42686,-0.23598 0.6559,-0.31233c0.23598,-0.07635 0.46503,-0.11452 0.68714,-0.11452c0.48585,0 0.88841,0.10064 1.20769,0.30192c0.31928,0.20128 0.55873,0.50668 0.71837,0.91618c0.16658,0.40256 0.24987,0.90577 0.24987,1.50961v3.91458h-1.29098v-3.8417c0,-0.3748 -0.04858,-0.68019 -0.14576,-0.91618c-0.09717,-0.23598 -0.24293,-0.4095 -0.43727,-0.52055c-0.1874,-0.11799 -0.43033,-0.17699 -0.72878,-0.17699c-0.22904,0 -0.44768,0.04164 -0.6559,0.12493c-0.20128,0.07635 -0.37827,0.18393 -0.53096,0.32275c-0.14576,0.13882 -0.26028,0.30192 -0.34356,0.48932c-0.07635,0.1874 -0.11452,0.39215 -0.11452,0.61426v3.90416h-1.30138v-3.86252c0,-0.34009 -0.04858,-0.62814 -0.14576,-0.86412c-0.09717,-0.23598 -0.24293,-0.41644 -0.43727,-0.54138c-0.1874,-0.12493 -0.41991,-0.1874 -0.69754,-0.1874c-0.22904,0 -0.44421,0.04164 -0.64549,0.12493c-0.19434,0.07635 -0.36786,0.18393 -0.52055,0.32275c-0.14576,0.13188 -0.26028,0.29151 -0.34356,0.47891c-0.08329,0.1874 -0.12493,0.38869 -0.12493,0.60384v3.92499zM215.25247,183.40099c-0.66631,0 -1.25974,-0.14229 -1.7803,-0.42686c-0.51361,-0.28457 -0.91965,-0.67672 -1.2181,-1.17645c-0.29151,-0.49974 -0.43727,-1.07234 -0.43727,-1.71783c0,-0.51361 0.08329,-0.98212 0.24987,-1.4055c0.16658,-0.42339 0.39562,-0.78777 0.68714,-1.09317c0.29151,-0.31233 0.64202,-0.55179 1.05152,-0.71837c0.41644,-0.17352 0.86412,-0.26028 1.34304,-0.26028c0.42339,0 0.81553,0.07982 1.17645,0.23946c0.36786,0.15963 0.68367,0.38174 0.94741,0.66631c0.27068,0.28457 0.47891,0.6212 0.62467,1.00988c0.14576,0.38174 0.21516,0.79819 0.20823,1.24933l-0.01041,0.55179h-5.33048l-0.29151,-1.02029h4.50801l-0.17699,0.20823v-0.29151c-0.02777,-0.27763 -0.12146,-0.52402 -0.2811,-0.73919c-0.15269,-0.21516 -0.35051,-0.38521 -0.59343,-0.51015c-0.24293,-0.12493 -0.50321,-0.1874 -0.78083,-0.1874c-0.45114,0 -0.82942,0.08676 -1.13481,0.26028c-0.30539,0.16658 -0.53791,0.41644 -0.69754,0.7496c-0.15269,0.32622 -0.22904,0.72878 -0.22904,1.20769c0,0.45114 0.0937,0.84677 0.2811,1.18686c0.1874,0.33315 0.45461,0.59343 0.80166,0.78083c0.35398,0.18046 0.75654,0.27068 1.20769,0.27068c0.32622,0 0.62814,-0.05205 0.90577,-0.15616c0.27763,-0.11105 0.57955,-0.30886 0.90577,-0.59343l0.64549,0.90577c-0.20128,0.20128 -0.44421,0.37827 -0.72878,0.53096c-0.28457,0.14576 -0.58649,0.26375 -0.90577,0.35398c-0.31928,0.08329 -0.63507,0.12493 -0.94741,0.12493zM219.4969,183.27605v-6.52776h1.28057v1.34304l-0.22904,0.14576c0.08329,-0.28457 0.2464,-0.54832 0.48932,-0.79125c0.24293,-0.24987 0.52749,-0.45114 0.85371,-0.60384c0.33315,-0.15269 0.67325,-0.22904 1.02029,-0.22904c0.49974,0 0.91271,0.09717 1.23892,0.29151c0.33315,0.19434 0.58302,0.49279 0.7496,0.89535c0.16658,0.39562 0.24987,0.89535 0.24987,1.4992v3.97704h-1.28057v-3.89375c0,-0.36786 -0.04858,-0.67325 -0.14576,-0.91618c-0.09717,-0.24987 -0.24987,-0.43033 -0.45809,-0.54138c-0.20823,-0.11105 -0.46503,-0.15963 -0.77042,-0.14576c-0.24987,0 -0.47891,0.04164 -0.68714,0.12493c-0.20823,0.07635 -0.38869,0.1874 -0.54138,0.33315c-0.15269,0.13882 -0.27416,0.30192 -0.36439,0.48932c-0.08329,0.18046 -0.12493,0.37827 -0.12493,0.59343v3.95622h-0.63507c-0.10411,0 -0.21169,0 -0.32275,0c-0.11105,0 -0.21863,0 -0.32275,0zM229.1837,183.40099c-0.46503,0 -0.87106,-0.10758 -1.2181,-0.32275c-0.34009,-0.21516 -0.60384,-0.51708 -0.79125,-0.90577c-0.1874,-0.38869 -0.2811,-0.85371 -0.2811,-1.39509v-4.0291h1.28057v3.68553c0,0.3748 0.059,0.70101 0.17699,0.97865c0.12493,0.27763 0.29845,0.49279 0.52055,0.64549c0.22904,0.14576 0.50668,0.21863 0.83289,0.21863c0.23598,0 0.45461,-0.03817 0.6559,-0.11452c0.20128,-0.07635 0.3748,-0.18393 0.52055,-0.32275c0.14576,-0.14576 0.25681,-0.31581 0.33315,-0.51015c0.08329,-0.20128 0.12493,-0.41991 0.12493,-0.6559v-3.92499h1.28057v6.52776h-1.28057v-1.36385l0.22904,-0.15616c-0.09717,0.31233 -0.26375,0.59343 -0.49974,0.8433c-0.23598,0.24293 -0.51708,0.43727 -0.8433,0.58302c-0.32622,0.14576 -0.67325,0.21863 -1.04111,0.21863zM241.33024,183.40099c-0.28457,0 -0.56567,-0.04511 -0.8433,-0.13535c-0.27763,-0.09023 -0.53096,-0.21169 -0.76001,-0.36439c-0.22904,-0.15963 -0.41991,-0.32969 -0.57261,-0.51015c-0.15269,-0.1874 -0.25334,-0.37827 -0.30192,-0.57261l0.32275,-0.16658v1.58249h-1.28057v-9.16177h1.28057v4.16444l-0.19781,-0.10411c0.04164,-0.19434 0.13188,-0.37827 0.27068,-0.55179c0.13882,-0.18046 0.31928,-0.34356 0.54138,-0.48932c0.2221,-0.14576 0.46156,-0.26028 0.71837,-0.34356c0.25681,-0.09023 0.51708,-0.13535 0.78083,-0.13535c0.58996,0 1.11052,0.14576 1.56167,0.43727c0.45809,0.29151 0.819,0.69061 1.08275,1.19728c0.26375,0.50668 0.39562,1.0897 0.39562,1.74907c0,0.65243 -0.13188,1.23545 -0.39562,1.74907c-0.25681,0.51361 -0.61426,0.91965 -1.07234,1.2181c-0.45114,0.29151 -0.96129,0.43727 -1.53044,0.43727zM241.11161,182.23494c0.38174,0 0.72184,-0.09717 1.02029,-0.29151c0.29845,-0.19434 0.53444,-0.45809 0.70795,-0.79125c0.17352,-0.34009 0.26028,-0.72531 0.26028,-1.15563c0,-0.42339 -0.08676,-0.80166 -0.26028,-1.13481c-0.16658,-0.34009 -0.39909,-0.60384 -0.69754,-0.79125c-0.29845,-0.19434 -0.64202,-0.29151 -1.0307,-0.29151c-0.38869,0 -0.73225,0.09717 -1.0307,0.29151c-0.29845,0.1874 -0.53444,0.45114 -0.70795,0.79125c-0.17352,0.33315 -0.26028,0.71142 -0.26028,1.13481c0,0.43033 0.08676,0.81553 0.26028,1.15563c0.17352,0.33315 0.4095,0.5969 0.70795,0.79125c0.29845,0.19434 0.64202,0.29151 1.0307,0.29151zM248.23509,183.40099c-0.53444,0 -1.02376,-0.14923 -1.46797,-0.44768c-0.44421,-0.29845 -0.80166,-0.70448 -1.07234,-1.2181c-0.26375,-0.51361 -0.39562,-1.09317 -0.39562,-1.73865c0,-0.65937 0.13535,-1.24239 0.40603,-1.74907c0.27068,-0.50668 0.63507,-0.90577 1.09317,-1.19728c0.46503,-0.29151 0.98212,-0.43727 1.55125,-0.43727c0.34009,0 0.64896,0.05205 0.92659,0.15616c0.28457,0.09717 0.53096,0.23598 0.73919,0.41644c0.21516,0.17352 0.38869,0.37827 0.52055,0.61426c0.13882,0.22904 0.22557,0.47544 0.26028,0.73919l-0.2811,-0.0937v-1.69701h1.29098v6.52776h-1.29098v-1.55125l0.29151,-0.0937c-0.04858,0.22904 -0.14923,0.45114 -0.30192,0.66631c-0.15269,0.20823 -0.34703,0.39562 -0.58302,0.5622c-0.23598,0.15963 -0.49626,0.29151 -0.78083,0.39562c-0.28457,0.09717 -0.58649,0.14576 -0.90577,0.14576zM248.56824,182.22453c0.39562,0 0.73919,-0.0937 1.0307,-0.2811c0.29845,-0.19434 0.53096,-0.45809 0.69754,-0.79125c0.17352,-0.34009 0.26028,-0.72531 0.26028,-1.15563c0,-0.42339 -0.08676,-0.80166 -0.26028,-1.13481c-0.16658,-0.33315 -0.39909,-0.59343 -0.69754,-0.78083c-0.29151,-0.19434 -0.63507,-0.29151 -1.0307,-0.29151c-0.38174,0 -0.71837,0.09717 -1.00988,0.29151c-0.29151,0.1874 -0.52402,0.44768 -0.69754,0.78083c-0.16658,0.33315 -0.24987,0.71142 -0.24987,1.13481c0,0.43033 0.08329,0.81553 0.24987,1.15563c0.17352,0.33315 0.40603,0.5969 0.69754,0.79125c0.29151,0.1874 0.62814,0.2811 1.00988,0.2811zM253.59473,183.27605v-6.52776h1.29098v2.05099l-0.12493,-0.49974c0.09023,-0.31233 0.2464,-0.5969 0.4685,-0.85371c0.2221,-0.25681 0.47544,-0.45809 0.76001,-0.60384c0.28457,-0.15269 0.57955,-0.22904 0.88494,-0.22904c0.13882,0 0.27068,0.01388 0.39562,0.04164c0.13188,0.02083 0.23598,0.04858 0.31233,0.08329l-0.33315,1.39509c-0.09717,-0.04164 -0.20823,-0.07635 -0.33315,-0.10411c-0.11799,-0.0347 -0.23598,-0.05205 -0.35398,-0.05205c-0.2221,0 -0.4338,0.04511 -0.63507,0.13535c-0.20128,0.08329 -0.38174,0.20476 -0.54138,0.36439c-0.15269,0.15269 -0.27416,0.32969 -0.36439,0.53096c-0.09023,0.20128 -0.13535,0.42339 -0.13535,0.66631v3.60224zM262.89709,183.27605v-8.19354h1.28057v8.19354zM261.53323,177.99763v-1.24933h4.15403v1.24933zM269.73222,183.40099c-0.63854,0 -1.21116,-0.14576 -1.71783,-0.43727c-0.49974,-0.29845 -0.89535,-0.70101 -1.18686,-1.20769c-0.28457,-0.51361 -0.42686,-1.09664 -0.42686,-1.74907c0,-0.65243 0.14229,-1.23198 0.42686,-1.73865c0.29151,-0.51361 0.68714,-0.91618 1.18686,-1.20769c0.50668,-0.29845 1.07928,-0.44768 1.71783,-0.44768c0.62467,0 1.18686,0.14923 1.6866,0.44768c0.50668,0.29151 0.90577,0.69407 1.19728,1.20769c0.29151,0.50668 0.43727,1.08623 0.43727,1.73865c0,0.65243 -0.14576,1.23545 -0.43727,1.74907c-0.29151,0.50668 -0.69061,0.90924 -1.19728,1.20769c-0.49974,0.29151 -1.06193,0.43727 -1.6866,0.43727zM269.73222,182.23494c0.38869,0 0.73572,-0.09717 1.04111,-0.29151c0.30539,-0.19434 0.54485,-0.45809 0.71837,-0.79125c0.17352,-0.34009 0.25681,-0.72184 0.24987,-1.14522c0.00694,-0.43033 -0.07635,-0.81206 -0.24987,-1.14522c-0.17352,-0.34009 -0.41297,-0.60384 -0.71837,-0.79125c-0.30539,-0.19434 -0.65243,-0.29151 -1.04111,-0.29151c-0.38869,0 -0.73919,0.09717 -1.05152,0.29151c-0.31233,0.19434 -0.55526,0.46156 -0.72878,0.80166c-0.17352,0.33315 -0.25681,0.71142 -0.24987,1.13481c-0.00694,0.42339 0.07635,0.80513 0.24987,1.14522c0.17352,0.33315 0.41644,0.5969 0.72878,0.79125c0.31233,0.19434 0.66284,0.29151 1.05152,0.29151zM277.92192,186.01417v-9.26588h1.29098v1.48879l-0.19781,-0.10411c0.04858,-0.24987 0.1874,-0.48932 0.41644,-0.71837c0.23598,-0.22904 0.52055,-0.41644 0.85371,-0.5622c0.34009,-0.14576 0.68714,-0.21863 1.04111,-0.21863c0.58996,0 1.11052,0.14576 1.56167,0.43727c0.45809,0.29151 0.819,0.69061 1.08275,1.19728c0.27068,0.50668 0.40603,1.08623 0.40603,1.73865c0,0.64549 -0.13188,1.22504 -0.39562,1.73865c-0.26375,0.50668 -0.62467,0.90924 -1.08275,1.20769c-0.45114,0.29151 -0.96129,0.43727 -1.53044,0.43727c-0.38174,0 -0.75307,-0.07635 -1.11398,-0.22904c-0.35398,-0.15269 -0.6559,-0.35051 -0.90577,-0.59343c-0.24987,-0.24293 -0.40256,-0.49279 -0.45809,-0.7496l0.32275,-0.16658v4.36225zM281.14936,182.20371c0.38174,0 0.72184,-0.0937 1.02029,-0.2811c0.29845,-0.19434 0.53444,-0.45461 0.70795,-0.78083c0.17352,-0.33315 0.26028,-0.71142 0.26028,-1.13481c0,-0.42339 -0.08676,-0.79819 -0.26028,-1.1244c-0.16658,-0.32622 -0.39909,-0.58302 -0.69754,-0.77042c-0.29151,-0.19434 -0.63507,-0.29151 -1.0307,-0.29151c-0.38869,0 -0.73225,0.0937 -1.0307,0.2811c-0.29845,0.1874 -0.53444,0.44768 -0.70795,0.78083c-0.17352,0.32622 -0.26028,0.70101 -0.26028,1.1244c0,0.42339 0.08676,0.80166 0.26028,1.13481c0.17352,0.32622 0.4095,0.58649 0.70795,0.78083c0.29845,0.1874 0.64202,0.2811 1.0307,0.2811zM288.05623,183.40099c-0.46503,0 -0.87106,-0.10758 -1.2181,-0.32275c-0.34009,-0.21516 -0.60384,-0.51708 -0.79125,-0.90577c-0.1874,-0.38869 -0.2811,-0.85371 -0.2811,-1.39509v-4.0291h1.28057v3.68553c0,0.3748 0.059,0.70101 0.17699,0.97865c0.12493,0.27763 0.29845,0.49279 0.52055,0.64549c0.22904,0.14576 0.50668,0.21863 0.83289,0.21863c0.23598,0 0.45461,-0.03817 0.6559,-0.11452c0.20128,-0.07635 0.3748,-0.18393 0.52055,-0.32275c0.14576,-0.14576 0.25681,-0.31581 0.33315,-0.51015c0.08329,-0.20128 0.12493,-0.41991 0.12493,-0.6559v-3.92499h1.28057v6.52776h-1.28057v-1.36385l0.22904,-0.15616c-0.09717,0.31233 -0.26375,0.59343 -0.49974,0.8433c-0.23598,0.24293 -0.51708,0.43727 -0.8433,0.58302c-0.32622,0.14576 -0.67325,0.21863 -1.04111,0.21863zM294.09851,183.27605v-8.19354h1.28057v8.19354zM292.73466,177.99763v-1.24933h4.15403v1.24933zM304.47648,183.40099c-0.63854,0 -1.21116,-0.14576 -1.71783,-0.43727c-0.49974,-0.29845 -0.89535,-0.70101 -1.18686,-1.20769c-0.28457,-0.51361 -0.42686,-1.09664 -0.42686,-1.74907c0,-0.65243 0.14229,-1.23198 0.42686,-1.73865c0.29151,-0.51361 0.68714,-0.91618 1.18686,-1.20769c0.50668,-0.29845 1.07928,-0.44768 1.71783,-0.44768c0.62467,0 1.18686,0.14923 1.6866,0.44768c0.50668,0.29151 0.90577,0.69407 1.19728,1.20769c0.29151,0.50668 0.43727,1.08623 0.43727,1.73865c0,0.65243 -0.14576,1.23545 -0.43727,1.74907c-0.29151,0.50668 -0.69061,0.90924 -1.19728,1.20769c-0.49974,0.29151 -1.06193,0.43727 -1.6866,0.43727zM304.47648,182.23494c0.38869,0 0.73572,-0.09717 1.04111,-0.29151c0.30539,-0.19434 0.54485,-0.45809 0.71837,-0.79125c0.17352,-0.34009 0.25681,-0.72184 0.24987,-1.14522c0.00694,-0.43033 -0.07635,-0.81206 -0.24987,-1.14522c-0.17352,-0.34009 -0.41297,-0.60384 -0.71837,-0.79125c-0.30539,-0.19434 -0.65243,-0.29151 -1.04111,-0.29151c-0.38869,0 -0.73919,0.09717 -1.05152,0.29151c-0.31233,0.19434 -0.55526,0.46156 -0.72878,0.80166c-0.17352,0.33315 -0.25681,0.71142 -0.24987,1.13481c-0.00694,0.42339 0.07635,0.80513 0.24987,1.14522c0.17352,0.33315 0.41644,0.5969 0.72878,0.79125c0.31233,0.19434 0.66284,0.29151 1.05152,0.29151zM309.18553,183.27605v-6.52776h1.29098v2.05099l-0.12493,-0.49974c0.09023,-0.31233 0.2464,-0.5969 0.4685,-0.85371c0.2221,-0.25681 0.47544,-0.45809 0.76001,-0.60384c0.28457,-0.15269 0.57955,-0.22904 0.88494,-0.22904c0.13882,0 0.27068,0.01388 0.39562,0.04164c0.13188,0.02083 0.23598,0.04858 0.31233,0.08329l-0.33315,1.39509c-0.09717,-0.04164 -0.20823,-0.07635 -0.33315,-0.10411c-0.11799,-0.0347 -0.23598,-0.05205 -0.35398,-0.05205c-0.2221,0 -0.4338,0.04511 -0.63507,0.13535c-0.20128,0.08329 -0.38174,0.20476 -0.54138,0.36439c-0.15269,0.15269 -0.27416,0.32969 -0.36439,0.53096c-0.09023,0.20128 -0.13535,0.42339 -0.13535,0.66631v3.60224zM317.6758,183.27605v-6.52776h1.29098v2.05099l-0.12493,-0.49974c0.09023,-0.31233 0.2464,-0.5969 0.4685,-0.85371c0.2221,-0.25681 0.47544,-0.45809 0.76001,-0.60384c0.28457,-0.15269 0.57955,-0.22904 0.88494,-0.22904c0.13882,0 0.27068,0.01388 0.39562,0.04164c0.13188,0.02083 0.23598,0.04858 0.31233,0.08329l-0.33315,1.39509c-0.09717,-0.04164 -0.20823,-0.07635 -0.33315,-0.10411c-0.11799,-0.0347 -0.23598,-0.05205 -0.35398,-0.05205c-0.2221,0 -0.4338,0.04511 -0.63507,0.13535c-0.20128,0.08329 -0.38174,0.20476 -0.54138,0.36439c-0.15269,0.15269 -0.27416,0.32969 -0.36439,0.53096c-0.09023,0.20128 -0.13535,0.42339 -0.13535,0.66631v3.60224zM325.45184,183.40099c-0.66631,0 -1.25974,-0.14229 -1.7803,-0.42686c-0.51361,-0.28457 -0.91965,-0.67672 -1.2181,-1.17645c-0.29151,-0.49974 -0.43727,-1.07234 -0.43727,-1.71783c0,-0.51361 0.08329,-0.98212 0.24987,-1.4055c0.16658,-0.42339 0.39562,-0.78777 0.68714,-1.09317c0.29151,-0.31233 0.64202,-0.55179 1.05152,-0.71837c0.41644,-0.17352 0.86412,-0.26028 1.34304,-0.26028c0.42339,0 0.81553,0.07982 1.17645,0.23946c0.36786,0.15963 0.68367,0.38174 0.94741,0.66631c0.27068,0.28457 0.47891,0.6212 0.62467,1.00988c0.14576,0.38174 0.21516,0.79819 0.20823,1.24933l-0.01041,0.55179h-5.33048l-0.29151,-1.02029h4.50801l-0.17699,0.20823v-0.29151c-0.02777,-0.27763 -0.12146,-0.52402 -0.2811,-0.73919c-0.15269,-0.21516 -0.35051,-0.38521 -0.59343,-0.51015c-0.24293,-0.12493 -0.50321,-0.1874 -0.78083,-0.1874c-0.45114,0 -0.82942,0.08676 -1.13481,0.26028c-0.30539,0.16658 -0.53791,0.41644 -0.69754,0.7496c-0.15269,0.32622 -0.22904,0.72878 -0.22904,1.20769c0,0.45114 0.0937,0.84677 0.2811,1.18686c0.1874,0.33315 0.45461,0.59343 0.80166,0.78083c0.35398,0.18046 0.75654,0.27068 1.20769,0.27068c0.32622,0 0.62814,-0.05205 0.90577,-0.15616c0.27763,-0.11105 0.57955,-0.30886 0.90577,-0.59343l0.64549,0.90577c-0.20128,0.20128 -0.44421,0.37827 -0.72878,0.53096c-0.28457,0.14576 -0.58649,0.26375 -0.90577,0.35398c-0.31928,0.08329 -0.63507,0.12493 -0.94741,0.12493zM329.69628,186.01417v-9.26588h1.29098v1.48879l-0.19781,-0.10411c0.04858,-0.24987 0.1874,-0.48932 0.41644,-0.71837c0.23598,-0.22904 0.52055,-0.41644 0.85371,-0.5622c0.34009,-0.14576 0.68714,-0.21863 1.04111,-0.21863c0.58996,0 1.11052,0.14576 1.56167,0.43727c0.45809,0.29151 0.819,0.69061 1.08275,1.19728c0.27068,0.50668 0.40603,1.08623 0.40603,1.73865c0,0.64549 -0.13188,1.22504 -0.39562,1.73865c-0.26375,0.50668 -0.62467,0.90924 -1.08275,1.20769c-0.45114,0.29151 -0.96129,0.43727 -1.53044,0.43727c-0.38174,0 -0.75307,-0.07635 -1.11398,-0.22904c-0.35398,-0.15269 -0.6559,-0.35051 -0.90577,-0.59343c-0.24987,-0.24293 -0.40256,-0.49279 -0.45809,-0.7496l0.32275,-0.16658v4.36225zM332.92372,182.20371c0.38174,0 0.72184,-0.0937 1.02029,-0.2811c0.29845,-0.19434 0.53444,-0.45461 0.70795,-0.78083c0.17352,-0.33315 0.26028,-0.71142 0.26028,-1.13481c0,-0.42339 -0.08676,-0.79819 -0.26028,-1.1244c-0.16658,-0.32622 -0.39909,-0.58302 -0.69754,-0.77042c-0.29151,-0.19434 -0.63507,-0.29151 -1.0307,-0.29151c-0.38869,0 -0.73225,0.0937 -1.0307,0.2811c-0.29845,0.1874 -0.53444,0.44768 -0.70795,0.78083c-0.17352,0.32622 -0.26028,0.70101 -0.26028,1.1244c0,0.42339 0.08676,0.80166 0.26028,1.13481c0.17352,0.32622 0.4095,0.58649 0.70795,0.78083c0.29845,0.1874 0.64202,0.2811 1.0307,0.2811zM337.56096,183.27605v-9.20342h1.28057v9.20342zM343.04497,183.40099c-0.53444,0 -1.02376,-0.14923 -1.46797,-0.44768c-0.44421,-0.29845 -0.80166,-0.70448 -1.07234,-1.2181c-0.26375,-0.51361 -0.39562,-1.09317 -0.39562,-1.73865c0,-0.65937 0.13535,-1.24239 0.40603,-1.74907c0.27068,-0.50668 0.63507,-0.90577 1.09317,-1.19728c0.46503,-0.29151 0.98212,-0.43727 1.55125,-0.43727c0.34009,0 0.64896,0.05205 0.92659,0.15616c0.28457,0.09717 0.53096,0.23598 0.73919,0.41644c0.21516,0.17352 0.38869,0.37827 0.52055,0.61426c0.13882,0.22904 0.22557,0.47544 0.26028,0.73919l-0.2811,-0.0937v-1.69701h1.29098v6.52776h-1.29098v-1.55125l0.29151,-0.0937c-0.04858,0.22904 -0.14923,0.45114 -0.30192,0.66631c-0.15269,0.20823 -0.34703,0.39562 -0.58302,0.5622c-0.23598,0.15963 -0.49626,0.29151 -0.78083,0.39562c-0.28457,0.09717 -0.58649,0.14576 -0.90577,0.14576zM343.37813,182.22453c0.39562,0 0.73919,-0.0937 1.0307,-0.2811c0.29845,-0.19434 0.53096,-0.45809 0.69754,-0.79125c0.17352,-0.34009 0.26028,-0.72531 0.26028,-1.15563c0,-0.42339 -0.08676,-0.80166 -0.26028,-1.13481c-0.16658,-0.33315 -0.39909,-0.59343 -0.69754,-0.78083c-0.29151,-0.19434 -0.63507,-0.29151 -1.0307,-0.29151c-0.38174,0 -0.71837,0.09717 -1.00988,0.29151c-0.29151,0.1874 -0.52402,0.44768 -0.69754,0.78083c-0.16658,0.33315 -0.24987,0.71142 -0.24987,1.13481c0,0.43033 0.08329,0.81553 0.24987,1.15563c0.17352,0.33315 0.40603,0.5969 0.69754,0.79125c0.29151,0.1874 0.62814,0.2811 1.00988,0.2811zM351.17397,183.40099c-0.60384,0 -1.14522,-0.14923 -1.62413,-0.44768c-0.47197,-0.29845 -0.84677,-0.70448 -1.1244,-1.2181c-0.27763,-0.51361 -0.41644,-1.0897 -0.41644,-1.72824c0,-0.63854 0.13882,-1.21463 0.41644,-1.72824c0.27763,-0.51361 0.65243,-0.91965 1.1244,-1.2181c0.47891,-0.29845 1.02029,-0.44768 1.62413,-0.44768c0.58302,0 1.11052,0.11799 1.58249,0.35398c0.47891,0.23598 0.8433,0.55873 1.09317,0.96823l-0.70795,0.86412c-0.13188,-0.1874 -0.30192,-0.36092 -0.51015,-0.52055c-0.20823,-0.15963 -0.43033,-0.28457 -0.66631,-0.3748c-0.22904,-0.09023 -0.45114,-0.13535 -0.66631,-0.13535c-0.39562,0 -0.7496,0.09717 -1.06193,0.29151c-0.31233,0.19434 -0.55873,0.46156 -0.73919,0.80166c-0.18046,0.34009 -0.27068,0.72184 -0.27068,1.14522c0,0.42339 0.0937,0.80513 0.2811,1.14522c0.19434,0.33315 0.44768,0.60037 0.76001,0.80166c0.31233,0.19434 0.65937,0.29151 1.04111,0.29151c0.22904,0 0.44768,-0.03817 0.6559,-0.11452c0.20823,-0.07635 0.41297,-0.1874 0.61426,-0.33315c0.20128,-0.15269 0.38869,-0.33662 0.5622,-0.55179l0.70795,0.87453c-0.26375,0.3748 -0.64202,0.68367 -1.13481,0.92659c-0.49279,0.23598 -1.0064,0.35398 -1.54084,0.35398zM358.09516,183.40099c-0.66631,0 -1.25974,-0.14229 -1.7803,-0.42686c-0.51361,-0.28457 -0.91965,-0.67672 -1.2181,-1.17645c-0.29151,-0.49974 -0.43727,-1.07234 -0.43727,-1.71783c0,-0.51361 0.08329,-0.98212 0.24987,-1.4055c0.16658,-0.42339 0.39562,-0.78777 0.68714,-1.09317c0.29151,-0.31233 0.64202,-0.55179 1.05152,-0.71837c0.41644,-0.17352 0.86412,-0.26028 1.34304,-0.26028c0.42339,0 0.81553,0.07982 1.17645,0.23946c0.36786,0.15963 0.68367,0.38174 0.94741,0.66631c0.27068,0.28457 0.47891,0.6212 0.62467,1.00988c0.14576,0.38174 0.21516,0.79819 0.20823,1.24933l-0.01041,0.55179h-5.33048l-0.29151,-1.02029h4.50801l-0.17699,0.20823v-0.29151c-0.02777,-0.27763 -0.12146,-0.52402 -0.2811,-0.73919c-0.15269,-0.21516 -0.35051,-0.38521 -0.59343,-0.51015c-0.24293,-0.12493 -0.50321,-0.1874 -0.78083,-0.1874c-0.45114,0 -0.82942,0.08676 -1.13481,0.26028c-0.30539,0.16658 -0.53791,0.41644 -0.69754,0.7496c-0.15269,0.32622 -0.22904,0.72878 -0.22904,1.20769c0,0.45114 0.0937,0.84677 0.2811,1.18686c0.1874,0.33315 0.45461,0.59343 0.80166,0.78083c0.35398,0.18046 0.75654,0.27068 1.20769,0.27068c0.32622,0 0.62814,-0.05205 0.90577,-0.15616c0.27763,-0.11105 0.57955,-0.30886 0.90577,-0.59343l0.64549,0.90577c-0.20128,0.20128 -0.44421,0.37827 -0.72878,0.53096c-0.28457,0.14576 -0.58649,0.26375 -0.90577,0.35398c-0.31928,0.08329 -0.63507,0.12493 -0.94741,0.12493zM368.32932,183.40099c-0.53444,0 -1.02376,-0.14923 -1.46797,-0.44768c-0.44421,-0.29845 -0.80166,-0.70448 -1.07234,-1.2181c-0.26375,-0.51361 -0.39562,-1.09317 -0.39562,-1.73865c0,-0.65937 0.13535,-1.24239 0.40603,-1.74907c0.27068,-0.50668 0.63507,-0.90577 1.09317,-1.19728c0.46503,-0.29151 0.98212,-0.43727 1.55125,-0.43727c0.34009,0 0.64896,0.05205 0.92659,0.15616c0.28457,0.09717 0.53096,0.23598 0.73919,0.41644c0.21516,0.17352 0.38869,0.37827 0.52055,0.61426c0.13882,0.22904 0.22557,0.47544 0.26028,0.73919l-0.2811,-0.0937v-1.69701h1.29098v6.52776h-1.29098v-1.55125l0.29151,-0.0937c-0.04858,0.22904 -0.14923,0.45114 -0.30192,0.66631c-0.15269,0.20823 -0.34703,0.39562 -0.58302,0.5622c-0.23598,0.15963 -0.49626,0.29151 -0.78083,0.39562c-0.28457,0.09717 -0.58649,0.14576 -0.90577,0.14576zM368.66247,182.22453c0.39562,0 0.73919,-0.0937 1.0307,-0.2811c0.29845,-0.19434 0.53096,-0.45809 0.69754,-0.79125c0.17352,-0.34009 0.26028,-0.72531 0.26028,-1.15563c0,-0.42339 -0.08676,-0.80166 -0.26028,-1.13481c-0.16658,-0.33315 -0.39909,-0.59343 -0.69754,-0.78083c-0.29151,-0.19434 -0.63507,-0.29151 -1.0307,-0.29151c-0.38174,0 -0.71837,0.09717 -1.00988,0.29151c-0.29151,0.1874 -0.52402,0.44768 -0.69754,0.78083c-0.16658,0.33315 -0.24987,0.71142 -0.24987,1.13481c0,0.43033 0.08329,0.81553 0.24987,1.15563c0.17352,0.33315 0.40603,0.5969 0.69754,0.79125c0.29151,0.1874 0.62814,0.2811 1.00988,0.2811zM377.1696,186.01417v-9.26588h1.29098v1.48879l-0.19781,-0.10411c0.04858,-0.24987 0.1874,-0.48932 0.41644,-0.71837c0.23598,-0.22904 0.52055,-0.41644 0.85371,-0.5622c0.34009,-0.14576 0.68714,-0.21863 1.04111,-0.21863c0.58996,0 1.11052,0.14576 1.56167,0.43727c0.45809,0.29151 0.819,0.69061 1.08275,1.19728c0.27068,0.50668 0.40603,1.08623 0.40603,1.73865c0,0.64549 -0.13188,1.22504 -0.39562,1.73865c-0.26375,0.50668 -0.62467,0.90924 -1.08275,1.20769c-0.45114,0.29151 -0.96129,0.43727 -1.53044,0.43727c-0.38174,0 -0.75307,-0.07635 -1.11398,-0.22904c-0.35398,-0.15269 -0.6559,-0.35051 -0.90577,-0.59343c-0.24987,-0.24293 -0.40256,-0.49279 -0.45809,-0.7496l0.32275,-0.16658v4.36225zM380.39705,182.20371c0.38174,0 0.72184,-0.0937 1.02029,-0.2811c0.29845,-0.19434 0.53444,-0.45461 0.70795,-0.78083c0.17352,-0.33315 0.26028,-0.71142 0.26028,-1.13481c0,-0.42339 -0.08676,-0.79819 -0.26028,-1.1244c-0.16658,-0.32622 -0.39909,-0.58302 -0.69754,-0.77042c-0.29151,-0.19434 -0.63507,-0.29151 -1.0307,-0.29151c-0.38869,0 -0.73225,0.0937 -1.0307,0.2811c-0.29845,0.1874 -0.53444,0.44768 -0.70795,0.78083c-0.17352,0.32622 -0.26028,0.70101 -0.26028,1.1244c0,0.42339 0.08676,0.80166 0.26028,1.13481c0.17352,0.32622 0.4095,0.58649 0.70795,0.78083c0.29845,0.1874 0.64202,0.2811 1.0307,0.2811zM385.2217,183.27605v-6.52776h1.28057v6.52776zM385.84637,175.31156c-0.27068,0 -0.48238,-0.06941 -0.63507,-0.20823c-0.14576,-0.14576 -0.21863,-0.34703 -0.21863,-0.60384c0,-0.24293 0.07635,-0.43727 0.22904,-0.58302c0.15269,-0.15269 0.36092,-0.22904 0.62467,-0.22904c0.27068,0 0.47891,0.07288 0.62467,0.21863c0.15269,0.13882 0.22904,0.33662 0.22904,0.59343c0,0.24293 -0.07635,0.44074 -0.22904,0.59343c-0.15269,0.14576 -0.36092,0.21863 -0.62467,0.21863zM388.46927,183.27605v-6.52776h1.28057v1.34304l-0.22904,0.14576c0.08329,-0.28457 0.2464,-0.54832 0.48932,-0.79125c0.24293,-0.24987 0.52749,-0.45114 0.85371,-0.60384c0.33315,-0.15269 0.67325,-0.22904 1.02029,-0.22904c0.49974,0 0.91271,0.09717 1.23892,0.29151c0.33315,0.19434 0.58302,0.49279 0.7496,0.89535c0.16658,0.39562 0.24987,0.89535 0.24987,1.4992v3.97704h-1.28057v-3.89375c0,-0.36786 -0.04858,-0.67325 -0.14576,-0.91618c-0.09717,-0.24987 -0.24987,-0.43033 -0.45809,-0.54138c-0.20823,-0.11105 -0.46503,-0.15963 -0.77042,-0.14576c-0.24987,0 -0.47891,0.04164 -0.68714,0.12493c-0.20823,0.07635 -0.38869,0.1874 -0.54138,0.33315c-0.15269,0.13882 -0.27416,0.30192 -0.36439,0.48932c-0.08329,0.18046 -0.12493,0.37827 -0.12493,0.59343v3.95622h-0.63507c-0.10411,0 -0.21169,0 -0.32275,0c-0.11105,0 -0.21863,0 -0.32275,0zM396.38619,183.4114c-0.27068,0 -0.48238,-0.07982 -0.63507,-0.23946c-0.14576,-0.15963 -0.21863,-0.38869 -0.21863,-0.68714c0,-0.27763 0.07635,-0.50321 0.22904,-0.67672c0.15963,-0.17352 0.36786,-0.26028 0.62467,-0.26028c0.27763,0 0.48932,0.08329 0.63507,0.24987c0.15269,0.15963 0.22904,0.38869 0.22904,0.68714c0,0.27068 -0.07982,0.49279 -0.23946,0.66631c-0.15963,0.17352 -0.36786,0.26028 -0.62467,0.26028z" fill="#000000" fill-rule="nonzero" stroke-linecap="square"/><path d="M-240,-180h960v720h-960z" fill-opacity="0" fill="#000000" fill-rule="evenodd" stroke-linecap="square"/><path d="M-121.90551,-32.38058h542.86615v42.01576h-542.86615z" fill-opacity="0" fill="#000000" fill-rule="evenodd" stroke-linecap="square"/></g></g></svg>