<svg xmlns="http://www.w3.org/2000/svg" xmlns:xlink="http://www.w3.org/1999/xlink" stroke-miterlimit="10" stroke-linecap="square" stroke="none" fill="none" viewBox="0.0 0.0 960.0 720.0" version="1.1"><clipPath id="p.0"><path clip-rule="nonzero" d="m0 0l960.0 0l0 720.0l-960.0 0l0 -720.0z"></path></clipPath><g clip-path="url(#p.0)"><path fill-rule="evenodd" d="m0 0l960.0 0l0 720.0l-960.0 0z" fill-opacity="0.0" fill="#000000"></path><path fill-rule="evenodd" d="m270.4777 258.0971l468.56693 0l0 42.015747l-468.56693 0z" fill-opacity="0.0" fill="#000000"></path><path fill-rule="nonzero" d="m281.30582 285.01712l0 -13.0625l5.3125 0q1.0625 0 1.921875 0.53125q0.875 0.53125 1.390625 1.453125q0.53125 0.90625 0.53125 2.03125q0 1.125 -0.53125 2.046875q-0.515625 0.90625 -1.390625 1.453125q-0.859375 0.546875 -1.921875 0.546875l-3.296875 0l0 5.0l-2.015625 0zm2.015625 -6.9375l3.265625 0q0.5 0 0.90625 -0.28125q0.421875 -0.296875 0.671875 -0.765625q0.25 -0.484375 0.25 -1.0625q0 -0.578125 -0.25 -1.046875q-0.25 -0.46875 -0.671875 -0.75q-0.40625 -0.28125 -0.90625 -0.28125l-3.265625 0l0 4.1875zm13.547638 7.125q-1.4375 0 -2.578125 -0.65625q-1.125 -0.671875 -1.78125 -1.8125q-0.640625 -1.15625 -0.640625 -2.625q0 -1.46875 0.640625 -2.609375q0.65625 -1.15625 1.78125 -1.8125q1.140625 -0.671875 2.578125 -0.671875q1.40625 0 2.53125 0.671875q1.140625 0.65625 1.796875 1.8125q0.65625 1.140625 0.65625 2.609375q0 1.46875 -0.65625 2.625q-0.65625 1.140625 -1.796875 1.8125q-1.125 0.65625 -2.53125 0.65625zm0 -1.75q0.875 0 1.5625 -0.4375q0.6875 -0.4375 1.078125 -1.1875q0.390625 -0.765625 0.375 -1.71875q0.015625 -0.96875 -0.375 -1.71875q-0.390625 -0.765625 -1.078125 -1.1875q-0.6875 -0.4375 -1.5625 -0.4375q-0.875 0 -1.578125 0.4375q-0.703125 0.4375 -1.09375 1.203125q-0.390625 0.75 -0.375 1.703125q-0.015625 0.953125 0.375 1.71875q0.390625 0.75 1.09375 1.1875q0.703125 0.4375 1.578125 0.4375zm7.0986023 1.5625l0 -13.8125l1.921875 0l0 13.8125l-1.921875 0zm6.0121155 4.296875l1.984375 -4.578125l0.015625 1.53125l-4.890625 -11.046875l2.234375 0l3.0625 7.203125q0.09375 0.1875 0.21875 0.578125q0.140625 0.375 0.234375 0.75l-0.484375 0.109375q0.140625 -0.390625 0.28125 -0.78125q0.140625 -0.390625 0.265625 -0.78125l2.5625 -7.078125l2.28125 0l-4.03125 9.796875l-1.65625 4.296875l-2.078125 0zm15.151764 -4.109375q-1.390625 0 -2.5625 -0.5q-1.15625 -0.515625 -2.03125 -1.40625q-0.859375 -0.90625 -1.34375 -2.125q-0.46875 -1.234375 -0.46875 -2.6875q0 -1.453125 0.46875 -2.671875q0.484375 -1.21875 1.34375 -2.125q0.875 -0.90625 2.03125 -1.40625q1.171875 -0.515625 2.5625 -0.515625q1.375 0 2.53125 0.515625q1.171875 0.5 2.046875 1.421875q0.875 0.90625 1.34375 2.125q0.46875 1.21875 0.46875 2.65625q0 1.4375 -0.46875 2.65625q-0.46875 1.21875 -1.34375 2.140625q-0.875 0.90625 -2.046875 1.421875q-1.15625 0.5 -2.53125 0.5zm0 -1.953125q0.953125 0 1.734375 -0.359375q0.796875 -0.359375 1.375 -1.0q0.578125 -0.640625 0.90625 -1.5q0.328125 -0.875 0.328125 -1.90625q0 -1.03125 -0.328125 -1.890625q-0.328125 -0.875 -0.90625 -1.515625q-0.578125 -0.640625 -1.375 -0.984375q-0.78125 -0.359375 -1.734375 -0.359375q-0.953125 0 -1.75 0.359375q-0.796875 0.34375 -1.390625 0.984375q-0.578125 0.625 -0.890625 1.5q-0.3125 0.859375 -0.3125 1.90625q0 1.03125 0.3125 1.90625q0.3125 0.875 0.890625 1.515625q0.59375 0.625 1.390625 0.984375q0.796875 0.359375 1.75 0.359375zm13.151703 1.953125q-1.0625 0 -1.96875 -0.28125q-0.90625 -0.28125 -1.640625 -0.84375q-0.734375 -0.578125 -1.3125 -1.40625l1.375 -1.59375q0.921875 1.3125 1.75 1.8125q0.84375 0.5 2.0 0.5q0.703125 0 1.28125 -0.21875q0.578125 -0.234375 0.90625 -0.625q0.34375 -0.390625 0.34375 -0.890625q0 -0.328125 -0.109375 -0.625q-0.109375 -0.3125 -0.34375 -0.546875q-0.234375 -0.25 -0.59375 -0.453125q-0.359375 -0.203125 -0.84375 -0.359375q-0.484375 -0.15625 -1.125 -0.265625q-1.0 -0.21875 -1.75 -0.546875q-0.75 -0.34375 -1.25 -0.84375q-0.5 -0.5 -0.75 -1.140625q-0.25 -0.640625 -0.25 -1.453125q0 -0.78125 0.34375 -1.453125q0.359375 -0.671875 0.953125 -1.15625q0.609375 -0.5 1.421875 -0.765625q0.828125 -0.28125 1.78125 -0.28125q1.015625 0 1.84375 0.265625q0.84375 0.265625 1.5 0.78125q0.65625 0.5 1.078125 1.25l-1.421875 1.40625q-0.359375 -0.625 -0.828125 -1.03125q-0.46875 -0.421875 -1.03125 -0.640625q-0.5625 -0.21875 -1.1875 -0.21875q-0.734375 0 -1.28125 0.234375q-0.53125 0.21875 -0.84375 0.625q-0.3125 0.390625 -0.3125 0.9375q0 0.390625 0.15625 0.71875q0.15625 0.328125 0.453125 0.578125q0.3125 0.25 0.828125 0.453125q0.53125 0.1875 1.25 0.328125q1.03125 0.234375 1.828125 0.578125q0.8125 0.34375 1.359375 0.8125q0.5625 0.46875 0.84375 1.046875q0.296875 0.578125 0.296875 1.25q0 1.25 -0.578125 2.171875q-0.578125 0.90625 -1.640625 1.40625q-1.0625 0.484375 -2.53125 0.484375zm16.28714 -0.1875q-0.96875 0 -1.796875 -0.34375q-0.828125 -0.34375 -1.4375 -0.953125q-0.609375 -0.625 -0.953125 -1.453125q-0.34375 -0.84375 -0.34375 -1.859375q0 -0.5 0.140625 -1.125q0.140625 -0.625 0.421875 -1.375q0.296875 -0.75 0.703125 -1.578125q0.40625 -0.828125 0.953125 -1.71875l1.703125 -2.875l1.953125 0l0.078125 0.1875l-2.0625 3.453125q-0.5625 0.953125 -1.0 1.8125q-0.4375 0.84375 -0.734375 1.609375q-0.296875 0.75 -0.4375 1.375l-0.453125 -1.921875q0.359375 -0.578125 0.765625 -1.015625q0.40625 -0.453125 0.875 -0.75q0.484375 -0.296875 1.0 -0.4375q0.53125 -0.15625 1.09375 -0.15625q1.078125 0 1.984375 0.59375q0.90625 0.578125 1.453125 1.5625q0.546875 0.96875 0.546875 2.125q0 1.390625 -0.578125 2.484375q-0.5625 1.09375 -1.578125 1.734375q-1.0 0.625 -2.296875 0.625zm0 -1.859375q0.71875 0 1.28125 -0.34375q0.578125 -0.359375 0.90625 -0.984375q0.328125 -0.625 0.328125 -1.421875q0 -0.6875 -0.34375 -1.296875q-0.328125 -0.609375 -0.890625 -0.96875q-0.5625 -0.375 -1.25 -0.375q-0.765625 0 -1.359375 0.359375q-0.59375 0.34375 -0.9375 0.9375q-0.328125 0.59375 -0.328125 1.328125q0 0.78125 0.328125 1.40625q0.34375 0.625 0.921875 1.0q0.578125 0.359375 1.34375 0.359375zm16.19342 2.046875q-1.0625 0 -1.96875 -0.28125q-0.90625 -0.28125 -1.640625 -0.84375q-0.734375 -0.578125 -1.3125 -1.40625l1.375 -1.59375q0.921875 1.3125 1.75 1.8125q0.84375 0.5 2.0 0.5q0.703125 0 1.28125 -0.21875q0.578125 -0.234375 0.90625 -0.625q0.34375 -0.390625 0.34375 -0.890625q0 -0.328125 -0.109375 -0.625q-0.109375 -0.3125 -0.34375 -0.546875q-0.234375 -0.25 -0.59375 -0.453125q-0.359375 -0.203125 -0.84375 -0.359375q-0.484375 -0.15625 -1.125 -0.265625q-1.0 -0.21875 -1.75 -0.546875q-0.75 -0.34375 -1.25 -0.84375q-0.5 -0.5 -0.75 -1.140625q-0.25 -0.640625 -0.25 -1.453125q0 -0.78125 0.34375 -1.453125q0.359375 -0.671875 0.953125 -1.15625q0.609375 -0.5 1.421875 -0.765625q0.828125 -0.28125 1.78125 -0.28125q1.015625 0 1.84375 0.265625q0.84375 0.265625 1.5 0.78125q0.65625 0.5 1.078125 1.25l-1.421875 1.40625q-0.359375 -0.625 -0.828125 -1.03125q-0.46875 -0.421875 -1.03125 -0.640625q-0.5625 -0.21875 -1.1875 -0.21875q-0.734375 0 -1.28125 0.234375q-0.53125 0.21875 -0.84375 0.625q-0.3125 0.390625 -0.3125 0.9375q0 0.390625 0.15625 0.71875q0.15625 0.328125 0.453125 0.578125q0.3125 0.25 0.828125 0.453125q0.53125 0.1875 1.25 0.328125q1.03125 0.234375 1.828125 0.578125q0.8125 0.34375 1.359375 0.8125q0.5625 0.46875 0.84375 1.046875q0.296875 0.578125 0.296875 1.25q0 1.25 -0.578125 2.171875q-0.578125 0.90625 -1.640625 1.40625q-1.0625 0.484375 -2.53125 0.484375zm11.688385 0q-1.5 0 -2.671875 -0.640625q-1.15625 -0.640625 -1.828125 -1.765625q-0.65625 -1.125 -0.65625 -2.578125q0 -1.15625 0.375 -2.109375q0.375 -0.953125 1.03125 -1.640625q0.65625 -0.703125 1.578125 -1.078125q0.9375 -0.390625 2.015625 -0.390625q0.953125 0 1.765625 0.359375q0.828125 0.359375 1.421875 1.0q0.609375 0.640625 0.9375 1.515625q0.328125 0.859375 0.3125 1.875l-0.015625 0.828125l-8.0 0l-0.4375 -1.53125l6.765625 0l-0.265625 0.3125l0 -0.4375q-0.0625 -0.625 -0.421875 -1.109375q-0.34375 -0.484375 -0.890625 -0.765625q-0.546875 -0.28125 -1.171875 -0.28125q-1.015625 0 -1.703125 0.390625q-0.6875 0.375 -1.046875 1.125q-0.34375 0.734375 -0.34375 1.8125q0 1.015625 0.421875 1.78125q0.421875 0.75 1.203125 1.171875q0.796875 0.40625 1.8125 0.40625q0.734375 0 1.359375 -0.234375q0.625 -0.25 1.359375 -0.890625l0.96875 1.359375q-0.453125 0.453125 -1.09375 0.796875q-0.640625 0.328125 -1.359375 0.53125q-0.71875 0.1875 -1.421875 0.1875zm7.588806 -0.1875l0 -12.296875l1.921875 0l0 12.296875l-1.921875 0zm-2.046875 -7.921875l0 -1.875l6.234375 0l0 1.875l-6.234375 0zm11.429626 8.109375q-1.046875 0 -1.828125 -0.484375q-0.765625 -0.484375 -1.1875 -1.359375q-0.421875 -0.875 -0.421875 -2.09375l0 -6.046875l1.921875 0l0 5.53125q0 0.84375 0.265625 1.46875q0.28125 0.625 0.78125 0.96875q0.515625 0.328125 1.25 0.328125q0.53125 0 0.984375 -0.171875q0.453125 -0.171875 0.78125 -0.484375q0.328125 -0.328125 0.5 -0.765625q0.1875 -0.453125 0.1875 -0.984375l0 -5.890625l1.921875 0l0 9.796875l-1.921875 0l0 -2.046875l0.34375 -0.234375q-0.21875 0.703125 -0.75 1.265625q-0.53125 0.546875 -1.265625 0.875q-0.734375 0.328125 -1.5625 0.328125zm7.8495483 3.921875l0 -13.90625l1.9375 0l0 2.234375l-0.296875 -0.15625q0.109375 -0.5625 0.625 -1.078125q0.53125 -0.515625 1.28125 -0.84375q0.765625 -0.328125 1.5625 -0.328125q1.328125 0 2.34375 0.65625q1.03125 0.65625 1.625 1.796875q0.609375 1.140625 0.609375 2.609375q0 1.453125 -0.59375 2.609375q-0.59375 1.140625 -1.625 1.8125q-1.015625 0.65625 -2.296875 0.65625q-0.859375 0 -1.671875 -0.34375q-0.796875 -0.34375 -1.359375 -0.890625q-0.5625 -0.546875 -0.6875 -1.125l0.484375 -0.25l0 6.546875l-1.9375 0zm4.84375 -5.71875q0.859375 0 1.53125 -0.421875q0.671875 -0.4375 1.0625 -1.171875q0.390625 -0.75 0.390625 -1.703125q0 -0.953125 -0.390625 -1.6875q-0.375 -0.734375 -1.046875 -1.15625q-0.65625 -0.4375 -1.546875 -0.4375q-0.875 0 -1.546875 0.421875q-0.671875 0.421875 -1.0625 1.171875q-0.390625 0.734375 -0.390625 1.6875q0 0.953125 0.390625 1.703125q0.390625 0.734375 1.0625 1.171875q0.671875 0.421875 1.546875 0.421875zm18.105225 1.796875q-1.390625 0 -2.5625 -0.5q-1.15625 -0.515625 -2.03125 -1.40625q-0.859375 -0.90625 -1.34375 -2.125q-0.46875 -1.234375 -0.46875 -2.6875q0 -1.453125 0.46875 -2.671875q0.484375 -1.21875 1.34375 -2.125q0.875 -0.90625 2.03125 -1.40625q1.171875 -0.515625 2.5625 -0.515625q1.375 0 2.53125 0.515625q1.171875 0.5 2.046875 1.421875q0.875 0.90625 1.34375 2.125q0.46875 1.21875 0.46875 2.65625q0 1.4375 -0.46875 2.65625q-0.46875 1.21875 -1.34375 2.140625q-0.875 0.90625 -2.046875 1.421875q-1.15625 0.5 -2.53125 0.5zm0 -1.953125q0.953125 0 1.734375 -0.359375q0.796875 -0.359375 1.375 -1.0q0.578125 -0.640625 0.90625 -1.5q0.328125 -0.875 0.328125 -1.90625q0 -1.03125 -0.328125 -1.890625q-0.328125 -0.875 -0.90625 -1.515625q-0.578125 -0.640625 -1.375 -0.984375q-0.78125 -0.359375 -1.734375 -0.359375q-0.953125 0 -1.75 0.359375q-0.796875 0.34375 -1.390625 0.984375q-0.578125 0.625 -0.890625 1.5q-0.3125 0.859375 -0.3125 1.90625q0 1.03125 0.3125 1.90625q0.3125 0.875 0.890625 1.515625q0.59375 0.625 1.390625 0.984375q0.796875 0.359375 1.75 0.359375zm14.589172 1.953125q-1.390625 0 -2.5625 -0.5q-1.15625 -0.515625 -2.03125 -1.40625q-0.859375 -0.90625 -1.34375 -2.125q-0.46875 -1.234375 -0.46875 -2.6875q0 -1.453125 0.46875 -2.671875q0.484375 -1.21875 1.34375 -2.125q0.875 -0.90625 2.03125 -1.40625q1.171875 -0.515625 2.5625 -0.515625q1.375 0 2.53125 0.515625q1.171875 0.5 2.046875 1.421875q0.875 0.90625 1.34375 2.125q0.46875 1.21875 0.46875 2.65625q0 1.4375 -0.46875 2.65625q-0.46875 1.21875 -1.34375 2.140625q-0.875 0.90625 -2.046875 1.421875q-1.15625 0.5 -2.53125 0.5zm0 -1.953125q0.953125 0 1.734375 -0.359375q0.796875 -0.359375 1.375 -1.0q0.578125 -0.640625 0.90625 -1.5q0.328125 -0.875 0.328125 -1.90625q0 -1.03125 -0.328125 -1.890625q-0.328125 -0.875 -0.90625 -1.515625q-0.578125 -0.640625 -1.375 -0.984375q-0.78125 -0.359375 -1.734375 -0.359375q-0.953125 0 -1.75 0.359375q-0.796875 0.34375 -1.390625 0.984375q-0.578125 0.625 -0.890625 1.5q-0.3125 0.859375 -0.3125 1.90625q0 1.03125 0.3125 1.90625q0.3125 0.875 0.890625 1.515625q0.59375 0.625 1.390625 0.984375q0.796875 0.359375 1.75 0.359375zm9.120453 1.765625l0 -13.0625l5.453125 0q1.25 0 2.109375 0.375q0.859375 0.375 1.296875 1.109375q0.4375 0.734375 0.4375 1.796875q0 1.0625 -0.59375 1.8125q-0.59375 0.75 -1.625 1.03125l0 -0.375q0.875 0.1875 1.515625 0.671875q0.65625 0.46875 1.015625 1.1875q0.375 0.703125 0.375 1.609375q0 0.9375 -0.296875 1.65625q-0.28125 0.71875 -0.859375 1.203125q-0.5625 0.484375 -1.375 0.734375q-0.796875 0.25 -1.8125 0.25l-5.640625 0zm2.015625 -1.9375l3.5 0q0.765625 0 1.296875 -0.21875q0.53125 -0.234375 0.8125 -0.671875q0.296875 -0.4375 0.296875 -1.046875q0 -0.578125 -0.3125 -0.984375q-0.296875 -0.421875 -0.859375 -0.625q-0.5625 -0.21875 -1.328125 -0.21875l-3.40625 0l0 3.765625zm0 -5.71875l3.3125 0q0.5625 0 1.0 -0.21875q0.4375 -0.21875 0.6875 -0.609375q0.265625 -0.390625 0.265625 -0.90625q0 -0.828125 -0.5625 -1.28125q-0.5625 -0.453125 -1.609375 -0.453125l-3.09375 0l0 3.46875zm10.68927 7.65625l0 -13.0625l8.234375 0l0 1.9375l-6.21875 0l0 9.1875l6.21875 0l0 1.9375l-8.234375 0zm0.921875 -5.734375l0 -1.9375l6.28125 0l0 1.9375l-6.28125 0z" fill="#ffffff"></path><path fill-rule="evenodd" d="m277.90814 306.4777l468.5669 0l0 42.015747l-468.5669 0z" fill-opacity="0.0" fill="#000000"></path><path fill-rule="nonzero" d="m294.23627 333.52267q-1.390625 0 -2.59375 -0.5q-1.203125 -0.515625 -2.125 -1.421875q-0.90625 -0.921875 -1.421875 -2.125q-0.515625 -1.203125 -0.515625 -2.609375q0 -1.390625 0.515625 -2.59375q0.515625 -1.203125 1.421875 -2.109375q0.921875 -0.921875 2.125 -1.4375q1.203125 -0.515625 2.59375 -0.515625q1.390625 0 2.59375 0.515625q1.203125 0.515625 2.125 1.4375q0.921875 0.90625 1.4375 2.109375q0.515625 1.203125 0.515625 2.59375q0 1.40625 -0.515625 2.609375q-0.515625 1.203125 -1.4375 2.125q-0.921875 0.90625 -2.125 1.421875q-1.203125 0.5 -2.59375 0.5zm0.34375 -2.78125q-1.125 0 -2.03125 -0.5q-0.90625 -0.5 -1.4375 -1.375q-0.53125 -0.875 -0.53125 -2.0q0 -1.0625 0.53125 -1.9375q0.53125 -0.875 1.4375 -1.390625q0.90625 -0.53125 2.03125 -0.53125q0.625 0 1.234375 0.21875q0.625 0.203125 1.171875 0.625l-0.6875 1.390625q-0.359375 -0.25 -0.65625 -0.40625q-0.296875 -0.171875 -0.5625 -0.234375q-0.265625 -0.078125 -0.5 -0.078125q-0.6875 0 -1.234375 0.3125q-0.546875 0.3125 -0.859375 0.84375q-0.296875 0.53125 -0.296875 1.1875q0 0.6875 0.296875 1.234375q0.3125 0.546875 0.859375 0.84375q0.546875 0.296875 1.234375 0.296875q0.421875 0 0.875 -0.171875q0.453125 -0.1875 0.90625 -0.546875l0.703125 1.421875q-0.5625 0.390625 -1.203125 0.59375q-0.625 0.203125 -1.28125 0.203125zm-0.34375 1.40625q1.109375 0 2.0625 -0.40625q0.96875 -0.421875 1.6875 -1.125q0.71875 -0.71875 1.125 -1.671875q0.40625 -0.96875 0.40625 -2.078125q0 -1.125 -0.40625 -2.0625q-0.40625 -0.953125 -1.125 -1.671875q-0.71875 -0.734375 -1.6875 -1.140625q-0.953125 -0.40625 -2.0625 -0.40625q-1.09375 0 -2.0625 0.40625q-0.953125 0.40625 -1.671875 1.140625q-0.71875 0.71875 -1.140625 1.671875q-0.40625 0.9375 -0.40625 2.0625q0 1.109375 0.40625 2.078125q0.421875 0.953125 1.140625 1.671875q0.71875 0.703125 1.671875 1.125q0.96875 0.40625 2.0625 0.40625zm14.387573 1.25l0 -13.0625l5.3125 0q1.0625 0 1.921875 0.53125q0.875 0.53125 1.390625 1.453125q0.53125 0.90625 0.53125 2.03125q0 1.125 -0.53125 2.046875q-0.515625 0.90625 -1.390625 1.453125q-0.859375 0.546875 -1.921875 0.546875l-3.296875 0l0 5.0l-2.015625 0zm2.015625 -6.9375l3.265625 0q0.5 0 0.90625 -0.28125q0.421875 -0.296875 0.671875 -0.765625q0.25 -0.484375 0.25 -1.0625q0 -0.578125 -0.25 -1.046875q-0.25 -0.46875 -0.671875 -0.75q-0.40625 -0.28125 -0.90625 -0.28125l-3.265625 0l0 4.1875zm13.547638 7.125q-1.4375 0 -2.578125 -0.65625q-1.125 -0.671875 -1.78125 -1.8125q-0.640625 -1.15625 -0.640625 -2.625q0 -1.46875 0.640625 -2.609375q0.65625 -1.15625 1.78125 -1.8125q1.140625 -0.671875 2.578125 -0.671875q1.40625 0 2.53125 0.671875q1.140625 0.65625 1.796875 1.8125q0.65625 1.140625 0.65625 2.609375q0 1.46875 -0.65625 2.625q-0.65625 1.140625 -1.796875 1.8125q-1.125 0.65625 -2.53125 0.65625zm0 -1.75q0.875 0 1.5625 -0.4375q0.6875 -0.4375 1.078125 -1.1875q0.390625 -0.765625 0.375 -1.71875q0.015625 -0.96875 -0.375 -1.71875q-0.390625 -0.765625 -1.078125 -1.1875q-0.6875 -0.4375 -1.5625 -0.4375q-0.875 0 -1.578125 0.4375q-0.703125 0.4375 -1.09375 1.203125q-0.390625 0.75 -0.375 1.703125q-0.015625 0.953125 0.375 1.71875q0.390625 0.75 1.09375 1.1875q0.703125 0.4375 1.578125 0.4375zm7.0986023 1.5625l0 -13.8125l1.921875 0l0 13.8125l-1.921875 0zm6.0121155 4.296875l1.984375 -4.578125l0.015625 1.53125l-4.890625 -11.046875l2.234375 0l3.0625 7.203125q0.09375 0.1875 0.21875 0.578125q0.140625 0.375 0.234375 0.75l-0.484375 0.109375q0.140625 -0.390625 0.28125 -0.78125q0.140625 -0.390625 0.265625 -0.78125l2.5625 -7.078125l2.28125 0l-4.03125 9.796875l-1.65625 4.296875l-2.078125 0zm15.151764 -4.109375q-1.390625 0 -2.5625 -0.5q-1.15625 -0.515625 -2.03125 -1.40625q-0.859375 -0.90625 -1.34375 -2.125q-0.46875 -1.234375 -0.46875 -2.6875q0 -1.453125 0.46875 -2.671875q0.484375 -1.21875 1.34375 -2.125q0.875 -0.90625 2.03125 -1.40625q1.171875 -0.515625 2.5625 -0.515625q1.375 0 2.53125 0.515625q1.171875 0.5 2.046875 1.421875q0.875 0.90625 1.34375 2.125q0.46875 1.21875 0.46875 2.65625q0 1.4375 -0.46875 2.65625q-0.46875 1.21875 -1.34375 2.140625q-0.875 0.90625 -2.046875 1.421875q-1.15625 0.5 -2.53125 0.5zm0 -1.953125q0.953125 0 1.734375 -0.359375q0.796875 -0.359375 1.375 -1.0q0.578125 -0.640625 0.90625 -1.5q0.328125 -0.875 0.328125 -1.90625q0 -1.03125 -0.328125 -1.890625q-0.328125 -0.875 -0.90625 -1.515625q-0.578125 -0.640625 -1.375 -0.984375q-0.78125 -0.359375 -1.734375 -0.359375q-0.953125 0 -1.75 0.359375q-0.796875 0.34375 -1.390625 0.984375q-0.578125 0.625 -0.890625 1.5q-0.3125 0.859375 -0.3125 1.90625q0 1.03125 0.3125 1.90625q0.3125 0.875 0.890625 1.515625q0.59375 0.625 1.390625 0.984375q0.796875 0.359375 1.75 0.359375zm13.151703 1.953125q-1.0625 0 -1.96875 -0.28125q-0.90625 -0.28125 -1.640625 -0.84375q-0.734375 -0.578125 -1.3125 -1.40625l1.375 -1.59375q0.921875 1.3125 1.75 1.8125q0.84375 0.5 2.0 0.5q0.703125 0 1.28125 -0.21875q0.578125 -0.234375 0.90625 -0.625q0.34375 -0.390625 0.34375 -0.890625q0 -0.328125 -0.109375 -0.625q-0.109375 -0.3125 -0.34375 -0.546875q-0.234375 -0.25 -0.59375 -0.453125q-0.359375 -0.203125 -0.84375 -0.359375q-0.484375 -0.15625 -1.125 -0.265625q-1.0 -0.21875 -1.75 -0.546875q-0.75 -0.34375 -1.25 -0.84375q-0.5 -0.5 -0.75 -1.140625q-0.25 -0.640625 -0.25 -1.453125q0 -0.78125 0.34375 -1.453125q0.359375 -0.671875 0.953125 -1.15625q0.609375 -0.5 1.421875 -0.765625q0.828125 -0.28125 1.78125 -0.28125q1.015625 0 1.84375 0.265625q0.84375 0.265625 1.5 0.78125q0.65625 0.5 1.078125 1.25l-1.421875 1.40625q-0.359375 -0.625 -0.828125 -1.03125q-0.46875 -0.421875 -1.03125 -0.640625q-0.5625 -0.21875 -1.1875 -0.21875q-0.734375 0 -1.28125 0.234375q-0.53125 0.21875 -0.84375 0.625q-0.3125 0.390625 -0.3125 0.9375q0 0.390625 0.15625 0.71875q0.15625 0.328125 0.453125 0.578125q0.3125 0.25 0.828125 0.453125q0.53125 0.1875 1.25 0.328125q1.03125 0.234375 1.828125 0.578125q0.8125 0.34375 1.359375 0.8125q0.5625 0.46875 0.84375 1.046875q0.296875 0.578125 0.296875 1.25q0 1.25 -0.578125 2.171875q-0.578125 0.90625 -1.640625 1.40625q-1.0625 0.484375 -2.53125 0.484375zm16.865265 0q-1.0625 0 -1.96875 -0.28125q-0.90625 -0.28125 -1.640625 -0.84375q-0.734375 -0.578125 -1.3125 -1.40625l1.375 -1.59375q0.921875 1.3125 1.75 1.8125q0.84375 0.5 2.0 0.5q0.703125 0 1.28125 -0.21875q0.578125 -0.234375 0.90625 -0.625q0.34375 -0.390625 0.34375 -0.890625q0 -0.328125 -0.109375 -0.625q-0.109375 -0.3125 -0.34375 -0.546875q-0.234375 -0.25 -0.59375 -0.453125q-0.359375 -0.203125 -0.84375 -0.359375q-0.484375 -0.15625 -1.125 -0.265625q-1.0 -0.21875 -1.75 -0.546875q-0.75 -0.34375 -1.25 -0.84375q-0.5 -0.5 -0.75 -1.140625q-0.25 -0.640625 -0.25 -1.453125q0 -0.78125 0.34375 -1.453125q0.359375 -0.671875 0.953125 -1.15625q0.609375 -0.5 1.421875 -0.765625q0.828125 -0.28125 1.78125 -0.28125q1.015625 0 1.84375 0.265625q0.84375 0.265625 1.5 0.78125q0.65625 0.5 1.078125 1.25l-1.421875 1.40625q-0.359375 -0.625 -0.828125 -1.03125q-0.46875 -0.421875 -1.03125 -0.640625q-0.5625 -0.21875 -1.1875 -0.21875q-0.734375 0 -1.28125 0.234375q-0.53125 0.21875 -0.84375 0.625q-0.3125 0.390625 -0.3125 0.9375q0 0.390625 0.15625 0.71875q0.15625 0.328125 0.453125 0.578125q0.3125 0.25 0.828125 0.453125q0.53125 0.1875 1.25 0.328125q1.03125 0.234375 1.828125 0.578125q0.8125 0.34375 1.359375 0.8125q0.5625 0.46875 0.84375 1.046875q0.296875 0.578125 0.296875 1.25q0 1.25 -0.578125 2.171875q-0.578125 0.90625 -1.640625 1.40625q-1.0625 0.484375 -2.53125 0.484375zm11.532135 0q-1.4375 0 -2.578125 -0.65625q-1.125 -0.671875 -1.78125 -1.8125q-0.640625 -1.15625 -0.640625 -2.625q0 -1.46875 0.640625 -2.609375q0.65625 -1.15625 1.78125 -1.8125q1.140625 -0.671875 2.578125 -0.671875q1.40625 0 2.53125 0.671875q1.140625 0.65625 1.796875 1.8125q0.65625 1.140625 0.65625 2.609375q0 1.46875 -0.65625 2.625q-0.65625 1.140625 -1.796875 1.8125q-1.125 0.65625 -2.53125 0.65625zm0 -1.75q0.875 0 1.5625 -0.4375q0.6875 -0.4375 1.078125 -1.1875q0.390625 -0.765625 0.375 -1.71875q0.015625 -0.96875 -0.375 -1.71875q-0.390625 -0.765625 -1.078125 -1.1875q-0.6875 -0.4375 -1.5625 -0.4375q-0.875 0 -1.578125 0.4375q-0.703125 0.4375 -1.09375 1.203125q-0.390625 0.75 -0.375 1.703125q-0.015625 0.953125 0.375 1.71875q0.390625 0.75 1.09375 1.1875q0.703125 0.4375 1.578125 0.4375zm7.7565002 1.5625l0 -10.890625q0 -0.84375 0.375 -1.5q0.375 -0.65625 1.015625 -1.015625q0.65625 -0.375 1.515625 -0.375q0.59375 0 1.109375 0.21875q0.53125 0.21875 0.859375 0.59375l-0.65625 1.46875q-0.25 -0.21875 -0.546875 -0.359375q-0.28125 -0.140625 -0.53125 -0.140625q-0.390625 0 -0.671875 0.125q-0.265625 0.125 -0.40625 0.375q-0.125 0.25 -0.125 0.609375l0 10.890625l-0.96875 0q-0.234375 0 -0.484375 0q-0.234375 0 -0.484375 0zm-1.5625 -7.859375l0 -1.765625l5.8125 0l0 1.765625l-5.8125 0zm9.106659 7.859375l0 -12.296875l1.921875 0l0 12.296875l-1.921875 0zm-2.046875 -7.921875l0 -1.875l6.234375 0l0 1.875l-6.234375 0zm10.398376 7.921875l-3.34375 -9.796875l1.9375 -0.015625l2.390625 7.328125l-0.421875 -0.03125l2.59375 -5.734375l1.15625 0l2.609375 5.75l-0.5 0.03125l2.40625 -7.328125l1.9375 0l-3.296875 9.796875l-1.328125 0l-2.734375 -6.234375l0.4375 0.0625l-2.53125 6.171875l-1.3125 0zm16.004395 0.1875q-1.203125 0 -2.203125 -0.671875q-1.0 -0.671875 -1.609375 -1.828125q-0.59375 -1.15625 -0.59375 -2.609375q0 -1.484375 0.609375 -2.625q0.609375 -1.140625 1.640625 -1.796875q1.046875 -0.65625 2.328125 -0.65625q0.765625 0 1.390625 0.234375q0.640625 0.21875 1.109375 0.625q0.484375 0.390625 0.78125 0.921875q0.3125 0.515625 0.390625 1.109375l-0.421875 -0.140625l0 -2.546875l1.9375 0l0 9.796875l-1.9375 0l0 -2.328125l0.4375 -0.140625q-0.109375 0.515625 -0.453125 1.0q-0.34375 0.46875 -0.875 0.84375q-0.53125 0.359375 -1.171875 0.59375q-0.640625 0.21875 -1.359375 0.21875zm0.5 -1.765625q0.890625 0 1.546875 -0.421875q0.671875 -0.4375 1.046875 -1.1875q0.390625 -0.765625 0.390625 -1.734375q0 -0.953125 -0.390625 -1.703125q-0.375 -0.75 -1.046875 -1.171875q-0.65625 -0.4375 -1.546875 -0.4375q-0.859375 0 -1.515625 0.4375q-0.65625 0.421875 -1.046875 1.171875q-0.375 0.75 -0.375 1.703125q0 0.96875 0.375 1.734375q0.390625 0.75 1.046875 1.1875q0.65625 0.421875 1.515625 0.421875zm7.543762 1.578125l0 -9.796875l1.9375 0l0 3.078125l-0.1875 -0.75q0.203125 -0.703125 0.703125 -1.28125q0.5 -0.578125 1.140625 -0.90625q0.640625 -0.34375 1.328125 -0.34375q0.3125 0 0.59375 0.0625q0.296875 0.046875 0.46875 0.125l-0.5 2.09375q-0.21875 -0.09375 -0.5 -0.15625q-0.265625 -0.078125 -0.53125 -0.078125q-0.5 0 -0.953125 0.203125q-0.453125 0.1875 -0.8125 0.546875q-0.34375 0.34375 -0.546875 0.796875q-0.203125 0.453125 -0.203125 1.0l0 5.40625l-1.9375 0zm11.670319 0.1875q-1.5 0 -2.671875 -0.640625q-1.15625 -0.640625 -1.828125 -1.765625q-0.65625 -1.125 -0.65625 -2.578125q0 -1.15625 0.375 -2.109375q0.375 -0.953125 1.03125 -1.640625q0.65625 -0.703125 1.578125 -1.078125q0.9375 -0.390625 2.015625 -0.390625q0.953125 0 1.765625 0.359375q0.828125 0.359375 1.421875 1.0q0.609375 0.640625 0.9375 1.515625q0.328125 0.859375 0.3125 1.875l-0.015625 0.828125l-8.0 0l-0.4375 -1.53125l6.765625 0l-0.265625 0.3125l0 -0.4375q-0.0625 -0.625 -0.421875 -1.109375q-0.34375 -0.484375 -0.890625 -0.765625q-0.546875 -0.28125 -1.171875 -0.28125q-1.015625 0 -1.703125 0.390625q-0.6875 0.375 -1.046875 1.125q-0.34375 0.734375 -0.34375 1.8125q0 1.015625 0.421875 1.78125q0.421875 0.75 1.203125 1.171875q0.796875 0.40625 1.8125 0.40625q0.734375 0 1.359375 -0.234375q0.625 -0.25 1.359375 -0.890625l0.96875 1.359375q-0.453125 0.453125 -1.09375 0.796875q-0.640625 0.328125 -1.359375 0.53125q-0.71875 0.1875 -1.421875 0.1875zm11.984436 -0.1875l-0.609375 -1.53125l3.984375 -4.5q0.3125 -0.328125 0.65625 -0.765625q0.359375 -0.4375 0.671875 -0.90625q0.3125 -0.46875 0.5 -0.921875q0.203125 -0.453125 0.203125 -0.875q0 -0.59375 -0.234375 -1.015625q-0.234375 -0.421875 -0.671875 -0.640625q-0.4375 -0.21875 -1.046875 -0.21875q-0.546875 0 -1.078125 0.3125q-0.515625 0.3125 -0.9375 0.890625q-0.421875 0.578125 -0.671875 1.34375l-1.546875 -0.96875q0.3125 -1.078125 0.953125 -1.84375q0.65625 -0.78125 1.546875 -1.1875q0.90625 -0.421875 1.96875 -0.421875q1.109375 0 1.96875 0.46875q0.859375 0.453125 1.34375 1.265625q0.484375 0.8125 0.484375 1.875q0 0.421875 -0.09375 0.875q-0.09375 0.4375 -0.296875 0.921875q-0.203125 0.46875 -0.53125 0.984375q-0.3125 0.515625 -0.75 1.078125q-0.4375 0.5625 -1.0 1.171875l-2.96875 3.234375l-0.375 -0.5625l6.421875 0l0 1.9375l-7.890625 0zm14.145508 0.1875q-1.5 0 -2.578125 -0.8125q-1.0625 -0.828125 -1.640625 -2.328125q-0.578125 -1.5 -0.578125 -3.578125q0 -2.0625 0.578125 -3.5625q0.578125 -1.515625 1.640625 -2.328125q1.078125 -0.828125 2.578125 -0.828125q1.484375 0 2.5625 0.828125q1.09375 0.8125 1.671875 2.328125q0.578125 1.5 0.578125 3.5625q0 2.078125 -0.578125 3.578125q-0.578125 1.5 -1.671875 2.328125q-1.078125 0.8125 -2.5625 0.8125zm0 -1.828125q1.359375 0 2.09375 -1.28125q0.75 -1.28125 0.75 -3.609375q0 -2.328125 -0.75 -3.609375q-0.734375 -1.28125 -2.09375 -1.28125q-1.359375 0 -2.109375 1.28125q-0.75 1.28125 -0.75 3.609375q0 2.328125 0.75 3.609375q0.75 1.28125 2.109375 1.28125zm7.402466 1.640625l-0.609375 -1.53125l3.984375 -4.5q0.3125 -0.328125 0.65625 -0.765625q0.359375 -0.4375 0.671875 -0.90625q0.3125 -0.46875 0.5 -0.921875q0.203125 -0.453125 0.203125 -0.875q0 -0.59375 -0.234375 -1.015625q-0.234375 -0.421875 -0.671875 -0.640625q-0.4375 -0.21875 -1.046875 -0.21875q-0.546875 0 -1.078125 0.3125q-0.515625 0.3125 -0.9375 0.890625q-0.421875 0.578125 -0.671875 1.34375l-1.546875 -0.96875q0.3125 -1.078125 0.953125 -1.84375q0.65625 -0.78125 1.546875 -1.1875q0.90625 -0.421875 1.96875 -0.421875q1.109375 0 1.96875 0.46875q0.859375 0.453125 1.34375 1.265625q0.484375 0.8125 0.484375 1.875q0 0.421875 -0.09375 0.875q-0.09375 0.4375 -0.296875 0.921875q-0.203125 0.46875 -0.53125 0.984375q-0.3125 0.515625 -0.75 1.078125q-0.4375 0.5625 -1.0 1.171875l-2.96875 3.234375l-0.375 -0.5625l6.421875 0l0 1.9375l-7.890625 0zm13.176758 0.1875q-1.390625 0 -2.40625 -0.625q-1.015625 -0.640625 -1.90625 -2.140625l1.5625 -0.984375q0.46875 0.6875 0.921875 1.125q0.46875 0.4375 0.953125 0.65625q0.484375 0.203125 1.015625 0.203125q0.65625 0 1.21875 -0.328125q0.5625 -0.328125 0.890625 -0.90625q0.34375 -0.578125 0.34375 -1.3125q0 -0.71875 -0.265625 -1.234375q-0.265625 -0.515625 -0.765625 -0.78125q-0.5 -0.28125 -1.1875 -0.28125q-0.328125 0 -0.671875 0.078125q-0.34375 0.0625 -0.734375 0.1875q-0.390625 0.109375 -0.859375 0.296875l-0.5625 -1.46875l4.03125 -4.4375l0.390625 0.578125l-5.5625 0l0 -1.875l7.484375 0l0.375 0.75l-4.265625 4.734375l-0.46875 -0.484375q0.140625 -0.078125 0.484375 -0.140625q0.359375 -0.0625 0.578125 -0.0625q0.8125 0 1.53125 0.3125q0.71875 0.296875 1.25 0.859375q0.53125 0.546875 0.84375 1.28125q0.3125 0.734375 0.3125 1.578125q0 1.265625 -0.609375 2.265625q-0.609375 1.0 -1.640625 1.578125q-1.015625 0.578125 -2.28125 0.578125z" fill="#ffffff"></path><path fill-rule="evenodd" d="m341.52756 436.7638l468.56693 0l0 42.015747l-468.56693 0z" fill-opacity="0.0" fill="#000000"></path><path fill-rule="nonzero" d="m355.85568 463.68378l0 -6.515625l0.140625 0.921875l-5.28125 -7.46875l2.421875 0l4.03125 5.78125l-0.46875 -0.046875l3.640625 -5.734375l2.3125 0l-5.046875 7.671875l0.265625 -1.265625l0 6.65625l-2.015625 0zm11.241669 0.1875q-1.4375 0 -2.578125 -0.65625q-1.125 -0.671875 -1.78125 -1.8125q-0.640625 -1.15625 -0.640625 -2.625q0 -1.46875 0.640625 -2.609375q0.65625 -1.15625 1.78125 -1.8125q1.140625 -0.671875 2.578125 -0.671875q1.40625 0 2.53125 0.671875q1.140625 0.65625 1.796875 1.8125q0.65625 1.140625 0.65625 2.609375q0 1.46875 -0.65625 2.625q-0.65625 1.140625 -1.796875 1.8125q-1.125 0.65625 -2.53125 0.65625zm0 -1.75q0.875 0 1.5625 -0.4375q0.6875 -0.4375 1.078125 -1.1875q0.390625 -0.765625 0.375 -1.71875q0.015625 -0.96875 -0.375 -1.71875q-0.390625 -0.765625 -1.078125 -1.1875q-0.6875 -0.4375 -1.5625 -0.4375q-0.875 0 -1.578125 0.4375q-0.703125 0.4375 -1.09375 1.203125q-0.390625 0.75 -0.375 1.703125q-0.015625 0.953125 0.375 1.71875q0.390625 0.75 1.09375 1.1875q0.703125 0.4375 1.578125 0.4375zm10.504852 1.75q-1.046875 0 -1.828125 -0.484375q-0.765625 -0.484375 -1.1875 -1.359375q-0.421875 -0.875 -0.421875 -2.09375l0 -6.046875l1.921875 0l0 5.53125q0 0.84375 0.265625 1.46875q0.28125 0.625 0.78125 0.96875q0.515625 0.328125 1.25 0.328125q0.53125 0 0.984375 -0.171875q0.453125 -0.171875 0.78125 -0.484375q0.328125 -0.328125 0.5 -0.765625q0.1875 -0.453125 0.1875 -0.984375l0 -5.890625l1.921875 0l0 9.796875l-1.921875 0l0 -2.046875l0.34375 -0.234375q-0.21875 0.703125 -0.75 1.265625q-0.53125 0.546875 -1.265625 0.875q-0.734375 0.328125 -1.5625 0.328125zm7.5839233 -9.046875l-0.703125 -0.859375q0.71875 -0.34375 1.1875 -0.765625q0.46875 -0.421875 0.46875 -0.75q0 -0.234375 -0.203125 -0.421875q-0.203125 -0.203125 -0.375 -0.34375q-0.40625 -0.328125 -0.546875 -0.546875q-0.140625 -0.234375 -0.140625 -0.46875q0 -0.453125 0.3125 -0.71875q0.328125 -0.28125 0.828125 -0.28125q0.515625 0 0.9375 0.28125q0.421875 0.265625 0.65625 0.734375q0.25 0.46875 0.25 1.09375q0 0.484375 -0.203125 0.953125q-0.203125 0.46875 -0.578125 0.890625q-0.359375 0.40625 -0.84375 0.71875q-0.484375 0.3125 -1.046875 0.484375zm4.201782 8.859375l0 -9.796875l1.9375 0l0 3.078125l-0.1875 -0.75q0.203125 -0.703125 0.703125 -1.28125q0.5 -0.578125 1.140625 -0.90625q0.640625 -0.34375 1.328125 -0.34375q0.3125 0 0.59375 0.0625q0.296875 0.046875 0.46875 0.125l-0.5 2.09375q-0.21875 -0.09375 -0.5 -0.15625q-0.265625 -0.078125 -0.53125 -0.078125q-0.5 0 -0.953125 0.203125q-0.453125 0.1875 -0.8125 0.546875q-0.34375 0.34375 -0.546875 0.796875q-0.203125 0.453125 -0.203125 1.0l0 5.40625l-1.9375 0zm11.670288 0.1875q-1.5 0 -2.671875 -0.640625q-1.15625 -0.640625 -1.828125 -1.765625q-0.65625 -1.125 -0.65625 -2.578125q0 -1.15625 0.375 -2.109375q0.375 -0.953125 1.03125 -1.640625q0.65625 -0.703125 1.578125 -1.078125q0.9375 -0.390625 2.015625 -0.390625q0.953125 0 1.765625 0.359375q0.828125 0.359375 1.421875 1.0q0.609375 0.640625 0.9375 1.515625q0.328125 0.859375 0.3125 1.875l-0.015625 0.828125l-8.0 0l-0.4375 -1.53125l6.765625 0l-0.265625 0.3125l0 -0.4375q-0.0625 -0.625 -0.421875 -1.109375q-0.34375 -0.484375 -0.890625 -0.765625q-0.546875 -0.28125 -1.171875 -0.28125q-1.015625 0 -1.703125 0.390625q-0.6875 0.375 -1.046875 1.125q-0.34375 0.734375 -0.34375 1.8125q0 1.015625 0.421875 1.78125q0.421875 0.75 1.203125 1.171875q0.796875 0.40625 1.8125 0.40625q0.734375 0 1.359375 -0.234375q0.625 -0.25 1.359375 -0.890625l0.96875 1.359375q-0.453125 0.453125 -1.09375 0.796875q-0.640625 0.328125 -1.359375 0.53125q-0.71875 0.1875 -1.421875 0.1875zm11.906342 -0.1875l0 -9.796875l1.921875 0l0 9.796875l-1.921875 0zm0.9375 -11.953125q-0.609375 0 -0.953125 -0.3125q-0.328125 -0.328125 -0.328125 -0.90625q0 -0.546875 0.34375 -0.875q0.34375 -0.34375 0.9375 -0.34375q0.609375 0 0.9375 0.328125q0.34375 0.3125 0.34375 0.890625q0 0.546875 -0.34375 0.890625q-0.34375 0.328125 -0.9375 0.328125zm3.936432 11.953125l0 -9.796875l1.921875 0l0 2.015625l-0.34375 0.21875q0.1875 -0.640625 0.734375 -1.1875q0.546875 -0.5625 1.28125 -0.90625q0.75 -0.34375 1.53125 -0.34375q1.125 0 1.859375 0.4375q0.75 0.4375 1.125 1.34375q0.375 0.890625 0.375 2.25l0 5.96875l-1.921875 0l0 -5.84375q0 -0.828125 -0.21875 -1.375q-0.21875 -0.5625 -0.6875 -0.8125q-0.46875 -0.25 -1.15625 -0.21875q-0.5625 0 -1.03125 0.1875q-0.46875 0.171875 -0.8125 0.5q-0.34375 0.3125 -0.546875 0.734375q-0.1875 0.40625 -0.1875 0.890625l0 5.9375l-0.953125 0q-0.234375 0 -0.484375 0q-0.25 0 -0.484375 0zm14.366089 0.1875q-1.234375 0 -2.21875 -0.421875q-0.984375 -0.4375 -1.640625 -1.28125l1.296875 -1.109375q0.5625 0.640625 1.21875 0.9375q0.671875 0.28125 1.515625 0.28125q0.328125 0 0.609375 -0.078125q0.296875 -0.078125 0.515625 -0.25q0.21875 -0.171875 0.328125 -0.40625q0.109375 -0.234375 0.109375 -0.515625q0 -0.484375 -0.359375 -0.78125q-0.1875 -0.125 -0.59375 -0.28125q-0.390625 -0.15625 -1.03125 -0.328125q-1.078125 -0.28125 -1.765625 -0.625q-0.6875 -0.359375 -1.0625 -0.8125q-0.28125 -0.359375 -0.421875 -0.765625q-0.125 -0.421875 -0.125 -0.9375q0 -0.609375 0.265625 -1.125q0.28125 -0.515625 0.75 -0.890625q0.484375 -0.390625 1.125 -0.59375q0.640625 -0.203125 1.375 -0.203125q0.6875 0 1.359375 0.1875q0.6875 0.1875 1.265625 0.546875q0.578125 0.34375 0.96875 0.828125l-1.09375 1.21875q-0.359375 -0.359375 -0.78125 -0.625q-0.421875 -0.265625 -0.859375 -0.40625q-0.421875 -0.15625 -0.765625 -0.15625q-0.390625 0 -0.71875 0.078125q-0.3125 0.0625 -0.53125 0.21875q-0.203125 0.140625 -0.328125 0.375q-0.109375 0.21875 -0.109375 0.5q0.015625 0.234375 0.125 0.453125q0.109375 0.21875 0.296875 0.359375q0.203125 0.15625 0.609375 0.328125q0.40625 0.15625 1.046875 0.3125q0.921875 0.234375 1.53125 0.53125q0.609375 0.28125 0.96875 0.65625q0.375 0.359375 0.515625 0.828125q0.15625 0.46875 0.15625 1.046875q0 0.828125 -0.484375 1.5q-0.46875 0.65625 -1.28125 1.03125q-0.796875 0.375 -1.78125 0.375zm6.8894653 -0.1875l0 -12.296875l1.921875 0l0 12.296875l-1.921875 0zm-2.046875 -7.921875l0 -1.875l6.234375 0l0 1.875l-6.234375 0zm11.664398 8.109375q-1.203125 0 -2.203125 -0.671875q-1.0 -0.671875 -1.609375 -1.828125q-0.59375 -1.15625 -0.59375 -2.609375q0 -1.484375 0.609375 -2.625q0.609375 -1.140625 1.640625 -1.796875q1.046875 -0.65625 2.328125 -0.65625q0.765625 0 1.390625 0.234375q0.640625 0.21875 1.109375 0.625q0.484375 0.390625 0.78125 0.921875q0.3125 0.515625 0.390625 1.109375l-0.421875 -0.140625l0 -2.546875l1.9375 0l0 9.796875l-1.9375 0l0 -2.328125l0.4375 -0.140625q-0.109375 0.515625 -0.453125 1.0q-0.34375 0.46875 -0.875 0.84375q-0.53125 0.359375 -1.171875 0.59375q-0.640625 0.21875 -1.359375 0.21875zm0.5 -1.765625q0.890625 0 1.546875 -0.421875q0.671875 -0.4375 1.046875 -1.1875q0.390625 -0.765625 0.390625 -1.734375q0 -0.953125 -0.390625 -1.703125q-0.375 -0.75 -1.046875 -1.171875q-0.65625 -0.4375 -1.546875 -0.4375q-0.859375 0 -1.515625 0.4375q-0.65625 0.421875 -1.046875 1.171875q-0.375 0.75 -0.375 1.703125q0 0.96875 0.375 1.734375q0.390625 0.75 1.046875 1.1875q0.65625 0.421875 1.515625 0.421875zm7.5750427 1.578125l0 -13.8125l1.921875 0l0 13.8125l-1.921875 0zm4.6827087 0l0 -13.8125l1.921875 0l0 13.8125l-1.921875 0zm4.9639893 0l0 -9.796875l1.921875 0l0 9.796875l-1.921875 0zm0.9375 -11.953125q-0.609375 0 -0.953125 -0.3125q-0.328125 -0.328125 -0.328125 -0.90625q0 -0.546875 0.34375 -0.875q0.34375 -0.34375 0.9375 -0.34375q0.609375 0 0.9375 0.328125q0.34375 0.3125 0.34375 0.890625q0 0.546875 -0.34375 0.890625q-0.34375 0.328125 -0.9375 0.328125zm3.936432 11.953125l0 -9.796875l1.921875 0l0 2.015625l-0.34375 0.21875q0.1875 -0.640625 0.734375 -1.1875q0.546875 -0.5625 1.28125 -0.90625q0.75 -0.34375 1.53125 -0.34375q1.125 0 1.859375 0.4375q0.75 0.4375 1.125 1.34375q0.375 0.890625 0.375 2.25l0 5.96875l-1.921875 0l0 -5.84375q0 -0.828125 -0.21875 -1.375q-0.21875 -0.5625 -0.6875 -0.8125q-0.46875 -0.25 -1.15625 -0.21875q-0.5625 0 -1.03125 0.1875q-0.46875 0.171875 -0.8125 0.5q-0.34375 0.3125 -0.546875 0.734375q-0.1875 0.40625 -0.1875 0.890625l0 5.9375l-0.953125 0q-0.234375 0 -0.484375 0q-0.25 0 -0.484375 0zm15.491089 4.296875q-1.046875 0 -2.09375 -0.328125q-1.03125 -0.328125 -1.65625 -0.859375l0.703125 -1.484375q0.375 0.28125 0.875 0.484375q0.5 0.21875 1.0625 0.34375q0.5625 0.125 1.109375 0.125q1.015625 0 1.703125 -0.34375q0.703125 -0.328125 1.046875 -0.984375q0.359375 -0.65625 0.359375 -1.625l0 -1.875l0.203125 0.125q-0.09375 0.578125 -0.609375 1.109375q-0.515625 0.53125 -1.28125 0.875q-0.75 0.328125 -1.5625 0.328125q-1.390625 0 -2.484375 -0.65625q-1.09375 -0.671875 -1.734375 -1.8125q-0.625 -1.15625 -0.625 -2.625q0 -1.46875 0.625 -2.609375q0.625 -1.15625 1.703125 -1.8125q1.09375 -0.671875 2.46875 -0.671875q0.546875 0 1.0625 0.140625q0.53125 0.140625 0.984375 0.390625q0.453125 0.25 0.796875 0.546875q0.359375 0.296875 0.578125 0.640625q0.234375 0.328125 0.28125 0.625l-0.40625 0.15625l0 -2.296875l1.921875 0l0 9.203125q0 1.171875 -0.34375 2.078125q-0.34375 0.90625 -1.0 1.53125q-0.65625 0.625 -1.59375 0.953125q-0.921875 0.328125 -2.09375 0.328125zm0.0625 -5.875q0.921875 0 1.625 -0.421875q0.71875 -0.4375 1.109375 -1.1875q0.390625 -0.75 0.390625 -1.71875q0 -0.96875 -0.40625 -1.71875q-0.40625 -0.765625 -1.109375 -1.1875q-0.6875 -0.4375 -1.609375 -0.4375q-0.890625 0 -1.59375 0.4375q-0.703125 0.4375 -1.109375 1.203125q-0.390625 0.75 -0.390625 1.703125q0 0.953125 0.390625 1.71875q0.40625 0.75 1.109375 1.1875q0.703125 0.421875 1.59375 0.421875zm13.362915 1.578125l0 -13.0625l5.3125 0q1.0625 0 1.921875 0.53125q0.875 0.53125 1.390625 1.453125q0.53125 0.90625 0.53125 2.03125q0 1.125 -0.53125 2.046875q-0.515625 0.90625 -1.390625 1.453125q-0.859375 0.546875 -1.921875 0.546875l-3.296875 0l0 5.0l-2.015625 0zm2.015625 -6.9375l3.265625 0q0.5 0 0.90625 -0.28125q0.421875 -0.296875 0.671875 -0.765625q0.25 -0.484375 0.25 -1.0625q0 -0.578125 -0.25 -1.046875q-0.25 -0.46875 -0.671875 -0.75q-0.40625 -0.28125 -0.90625 -0.28125l-3.265625 0l0 4.1875zm13.547638 7.125q-1.4375 0 -2.578125 -0.65625q-1.125 -0.671875 -1.78125 -1.8125q-0.640625 -1.15625 -0.640625 -2.625q0 -1.46875 0.640625 -2.609375q0.65625 -1.15625 1.78125 -1.8125q1.140625 -0.671875 2.578125 -0.671875q1.40625 0 2.53125 0.671875q1.140625 0.65625 1.796875 1.8125q0.65625 1.140625 0.65625 2.609375q0 1.46875 -0.65625 2.625q-0.65625 1.140625 -1.796875 1.8125q-1.125 0.65625 -2.53125 0.65625zm0 -1.75q0.875 0 1.5625 -0.4375q0.6875 -0.4375 1.078125 -1.1875q0.390625 -0.765625 0.375 -1.71875q0.015625 -0.96875 -0.375 -1.71875q-0.390625 -0.765625 -1.078125 -1.1875q-0.6875 -0.4375 -1.5625 -0.4375q-0.875 0 -1.578125 0.4375q-0.703125 0.4375 -1.09375 1.203125q-0.390625 0.75 -0.375 1.703125q-0.015625 0.953125 0.375 1.71875q0.390625 0.75 1.09375 1.1875q0.703125 0.4375 1.578125 0.4375zm7.098633 1.5625l0 -13.8125l1.921875 0l0 13.8125l-1.921875 0zm6.012085 4.296875l1.984375 -4.578125l0.015625 1.53125l-4.890625 -11.046875l2.234375 0l3.0625 7.203125q0.09375 0.1875 0.21875 0.578125q0.140625 0.375 0.234375 0.75l-0.484375 0.109375q0.140625 -0.390625 0.28125 -0.78125q0.140625 -0.390625 0.265625 -0.78125l2.5625 -7.078125l2.28125 0l-4.03125 9.796875l-1.65625 4.296875l-2.078125 0zm15.151794 -4.109375q-1.390625 0 -2.5625 -0.5q-1.15625 -0.515625 -2.03125 -1.40625q-0.859375 -0.90625 -1.34375 -2.125q-0.46875 -1.234375 -0.46875 -2.6875q0 -1.453125 0.46875 -2.671875q0.484375 -1.21875 1.34375 -2.125q0.875 -0.90625 2.03125 -1.40625q1.171875 -0.515625 2.5625 -0.515625q1.375 0 2.53125 0.515625q1.171875 0.5 2.046875 1.421875q0.875 0.90625 1.34375 2.125q0.46875 1.21875 0.46875 2.65625q0 1.4375 -0.46875 2.65625q-0.46875 1.21875 -1.34375 2.140625q-0.875 0.90625 -2.046875 1.421875q-1.15625 0.5 -2.53125 0.5zm0 -1.953125q0.953125 0 1.734375 -0.359375q0.796875 -0.359375 1.375 -1.0q0.578125 -0.640625 0.90625 -1.5q0.328125 -0.875 0.328125 -1.90625q0 -1.03125 -0.328125 -1.890625q-0.328125 -0.875 -0.90625 -1.515625q-0.578125 -0.640625 -1.375 -0.984375q-0.78125 -0.359375 -1.734375 -0.359375q-0.953125 0 -1.75 0.359375q-0.796875 0.34375 -1.390625 0.984375q-0.578125 0.625 -0.890625 1.5q-0.3125 0.859375 -0.3125 1.90625q0 1.03125 0.3125 1.90625q0.3125 0.875 0.890625 1.515625q0.59375 0.625 1.390625 0.984375q0.796875 0.359375 1.75 0.359375zm13.151672 1.953125q-1.0625 0 -1.96875 -0.28125q-0.90625 -0.28125 -1.640625 -0.84375q-0.734375 -0.578125 -1.3125 -1.40625l1.375 -1.59375q0.921875 1.3125 1.75 1.8125q0.84375 0.5 2.0 0.5q0.703125 0 1.28125 -0.21875q0.578125 -0.234375 0.90625 -0.625q0.34375 -0.390625 0.34375 -0.890625q0 -0.328125 -0.109375 -0.625q-0.109375 -0.3125 -0.34375 -0.546875q-0.234375 -0.25 -0.59375 -0.453125q-0.359375 -0.203125 -0.84375 -0.359375q-0.484375 -0.15625 -1.125 -0.265625q-1.0 -0.21875 -1.75 -0.546875q-0.75 -0.34375 -1.25 -0.84375q-0.5 -0.5 -0.75 -1.140625q-0.25 -0.640625 -0.25 -1.453125q0 -0.78125 0.34375 -1.453125q0.359375 -0.671875 0.953125 -1.15625q0.609375 -0.5 1.421875 -0.765625q0.828125 -0.28125 1.78125 -0.28125q1.015625 0 1.84375 0.265625q0.84375 0.265625 1.5 0.78125q0.65625 0.5 1.078125 1.25l-1.421875 1.40625q-0.359375 -0.625 -0.828125 -1.03125q-0.46875 -0.421875 -1.03125 -0.640625q-0.5625 -0.21875 -1.1875 -0.21875q-0.734375 0 -1.28125 0.234375q-0.53125 0.21875 -0.84375 0.625q-0.3125 0.390625 -0.3125 0.9375q0 0.390625 0.15625 0.71875q0.15625 0.328125 0.453125 0.578125q0.3125 0.25 0.828125 0.453125q0.53125 0.1875 1.25 0.328125q1.03125 0.234375 1.828125 0.578125q0.8125 0.34375 1.359375 0.8125q0.5625 0.46875 0.84375 1.046875q0.296875 0.578125 0.296875 1.25q0 1.25 -0.578125 2.171875q-0.578125 0.90625 -1.640625 1.40625q-1.0625 0.484375 -2.53125 0.484375zm16.28711 -0.1875q-0.96875 0 -1.796875 -0.34375q-0.828125 -0.34375 -1.4375 -0.953125q-0.609375 -0.625 -0.953125 -1.453125q-0.34375 -0.84375 -0.34375 -1.859375q0 -0.5 0.140625 -1.125q0.140625 -0.625 0.421875 -1.375q0.296875 -0.75 0.703125 -1.578125q0.40625 -0.828125 0.953125 -1.71875l1.703125 -2.875l1.953125 0l0.078125 0.1875l-2.0625 3.453125q-0.5625 0.953125 -1.0 1.8125q-0.4375 0.84375 -0.734375 1.609375q-0.296875 0.75 -0.4375 1.375l-0.453125 -1.921875q0.359375 -0.578125 0.765625 -1.015625q0.40625 -0.453125 0.875 -0.75q0.484375 -0.296875 1.0 -0.4375q0.53125 -0.15625 1.09375 -0.15625q1.078125 0 1.984375 0.59375q0.90625 0.578125 1.453125 1.5625q0.546875 0.96875 0.546875 2.125q0 1.390625 -0.578125 2.484375q-0.5625 1.09375 -1.578125 1.734375q-1.0 0.625 -2.296875 0.625zm0 -1.859375q0.71875 0 1.28125 -0.34375q0.578125 -0.359375 0.90625 -0.984375q0.328125 -0.625 0.328125 -1.421875q0 -0.6875 -0.34375 -1.296875q-0.328125 -0.609375 -0.890625 -0.96875q-0.5625 -0.375 -1.25 -0.375q-0.765625 0 -1.359375 0.359375q-0.59375 0.34375 -0.9375 0.9375q-0.328125 0.59375 -0.328125 1.328125q0 0.78125 0.328125 1.40625q0.34375 0.625 0.921875 1.0q0.578125 0.359375 1.34375 0.359375zm7.2352905 2.0625q-0.609375 0 -0.953125 -0.359375q-0.328125 -0.359375 -0.328125 -1.03125q0 -0.625 0.34375 -1.015625q0.359375 -0.390625 0.9375 -0.390625q0.625 0 0.953125 0.375q0.34375 0.359375 0.34375 1.03125q0 0.609375 -0.359375 1.0q-0.359375 0.390625 -0.9375 0.390625zm7.784912 -0.015625q-1.5 0 -2.578125 -0.8125q-1.0625 -0.828125 -1.640625 -2.328125q-0.578125 -1.5 -0.578125 -3.578125q0 -2.0625 0.578125 -3.5625q0.578125 -1.515625 1.640625 -2.328125q1.078125 -0.828125 2.578125 -0.828125q1.484375 0 2.5625 0.828125q1.09375 0.8125 1.671875 2.328125q0.578125 1.5 0.578125 3.5625q0 2.078125 -0.578125 3.578125q-0.578125 1.5 -1.671875 2.328125q-1.078125 0.8125 -2.5625 0.8125zm0 -1.828125q1.359375 0 2.09375 -1.28125q0.75 -1.28125 0.75 -3.609375q0 -2.328125 -0.75 -3.609375q-0.734375 -1.28125 -2.09375 -1.28125q-1.359375 0 -2.109375 1.28125q-0.75 1.28125 -0.75 3.609375q0 2.328125 0.75 3.609375q0.75 1.28125 2.109375 1.28125zm7.793091 1.84375q-0.609375 0 -0.953125 -0.359375q-0.328125 -0.359375 -0.328125 -1.03125q0 -0.625 0.34375 -1.015625q0.359375 -0.390625 0.9375 -0.390625q0.625 0 0.953125 0.375q0.34375 0.359375 0.34375 1.03125q0 0.609375 -0.359375 1.0q-0.359375 0.390625 -0.9375 0.390625zm3.863037 -0.203125l-0.609375 -1.53125l3.984375 -4.5q0.3125 -0.328125 0.65625 -0.765625q0.359375 -0.4375 0.671875 -0.90625q0.3125 -0.46875 0.5 -0.921875q0.203125 -0.453125 0.203125 -0.875q0 -0.59375 -0.234375 -1.015625q-0.234375 -0.421875 -0.671875 -0.640625q-0.4375 -0.21875 -1.046875 -0.21875q-0.546875 0 -1.078125 0.3125q-0.515625 0.3125 -0.9375 0.890625q-0.421875 0.578125 -0.671875 1.34375l-1.546875 -0.96875q0.3125 -1.078125 0.953125 -1.84375q0.65625 -0.78125 1.546875 -1.1875q0.90625 -0.421875 1.96875 -0.421875q1.109375 0 1.96875 0.46875q0.859375 0.453125 1.34375 1.265625q0.484375 0.8125 0.484375 1.875q0 0.421875 -0.09375 0.875q-0.09375 0.4375 -0.296875 0.921875q-0.203125 0.46875 -0.53125 0.984375q-0.3125 0.515625 -0.75 1.078125q-0.4375 0.5625 -1.0 1.171875l-2.96875 3.234375l-0.375 -0.5625l6.421875 0l0 1.9375l-7.890625 0zm19.119263 3.46875q-2.265625 -1.421875 -3.46875 -3.546875q-1.1875 -2.125 -1.1875 -4.734375q0 -2.59375 1.203125 -4.71875q1.203125 -2.140625 3.46875 -3.5625l1.03125 1.15625q-1.90625 1.328125 -2.90625 3.171875q-0.984375 1.828125 -0.984375 3.953125q0 2.125 0.984375 3.96875q1.0 1.828125 2.90625 3.15625l-1.046875 1.15625zm7.281311 -3.28125q-1.0625 0 -1.96875 -0.28125q-0.90625 -0.28125 -1.640625 -0.84375q-0.734375 -0.578125 -1.3125 -1.40625l1.375 -1.59375q0.921875 1.3125 1.75 1.8125q0.84375 0.5 2.0 0.5q0.703125 0 1.28125 -0.21875q0.578125 -0.234375 0.90625 -0.625q0.34375 -0.390625 0.34375 -0.890625q0 -0.328125 -0.109375 -0.625q-0.109375 -0.3125 -0.34375 -0.546875q-0.234375 -0.25 -0.59375 -0.453125q-0.359375 -0.203125 -0.84375 -0.359375q-0.484375 -0.15625 -1.125 -0.265625q-1.0 -0.21875 -1.75 -0.546875q-0.75 -0.34375 -1.25 -0.84375q-0.5 -0.5 -0.75 -1.140625q-0.25 -0.640625 -0.25 -1.453125q0 -0.78125 0.34375 -1.453125q0.359375 -0.671875 0.953125 -1.15625q0.609375 -0.5 1.421875 -0.765625q0.828125 -0.28125 1.78125 -0.28125q1.015625 0 1.84375 0.265625q0.84375 0.265625 1.5 0.78125q0.65625 0.5 1.078125 1.25l-1.421875 1.40625q-0.359375 -0.625 -0.828125 -1.03125q-0.46875 -0.421875 -1.03125 -0.640625q-0.5625 -0.21875 -1.1875 -0.21875q-0.734375 0 -1.28125 0.234375q-0.53125 0.21875 -0.84375 0.625q-0.3125 0.390625 -0.3125 0.9375q0 0.390625 0.15625 0.71875q0.15625 0.328125 0.453125 0.578125q0.3125 0.25 0.828125 0.453125q0.53125 0.1875 1.25 0.328125q1.03125 0.234375 1.828125 0.578125q0.8125 0.34375 1.359375 0.8125q0.5625 0.46875 0.84375 1.046875q0.296875 0.578125 0.296875 1.25q0 1.25 -0.578125 2.171875q-0.578125 0.90625 -1.640625 1.40625q-1.0625 0.484375 -2.53125 0.484375zm11.6883545 0q-1.5 0 -2.671875 -0.640625q-1.15625 -0.640625 -1.828125 -1.765625q-0.65625 -1.125 -0.65625 -2.578125q0 -1.15625 0.375 -2.109375q0.375 -0.953125 1.03125 -1.640625q0.65625 -0.703125 1.578125 -1.078125q0.9375 -0.390625 2.015625 -0.390625q0.953125 0 1.765625 0.359375q0.828125 0.359375 1.421875 1.0q0.609375 0.640625 0.9375 1.515625q0.328125 0.859375 0.3125 1.875l-0.015625 0.828125l-8.0 0l-0.4375 -1.53125l6.765625 0l-0.265625 0.3125l0 -0.4375q-0.0625 -0.625 -0.421875 -1.109375q-0.34375 -0.484375 -0.890625 -0.765625q-0.546875 -0.28125 -1.171875 -0.28125q-1.015625 0 -1.703125 0.390625q-0.6875 0.375 -1.046875 1.125q-0.34375 0.734375 -0.34375 1.8125q0 1.015625 0.421875 1.78125q0.421875 0.75 1.203125 1.171875q0.796875 0.40625 1.8125 0.40625q0.734375 0 1.359375 -0.234375q0.625 -0.25 1.359375 -0.890625l0.96875 1.359375q-0.453125 0.453125 -1.09375 0.796875q-0.640625 0.328125 -1.359375 0.53125q-0.71875 0.1875 -1.421875 0.1875zm6.370117 -0.1875l0 -9.796875l1.9375 0l0 3.078125l-0.1875 -0.75q0.203125 -0.703125 0.703125 -1.28125q0.5 -0.578125 1.140625 -0.90625q0.640625 -0.34375 1.328125 -0.34375q0.3125 0 0.59375 0.0625q0.296875 0.046875 0.46875 0.125l-0.5 2.09375q-0.21875 -0.09375 -0.5 -0.15625q-0.265625 -0.078125 -0.53125 -0.078125q-0.5 0 -0.953125 0.203125q-0.453125 0.1875 -0.8125 0.546875q-0.34375 0.34375 -0.546875 0.796875q-0.203125 0.453125 -0.203125 1.0l0 5.40625l-1.9375 0zm11.654907 0l-4.140625 -9.796875l2.078125 0l2.984375 7.328125l-0.359375 0.171875l3.1875 -7.5l1.984375 0l-4.34375 9.796875l-1.390625 0zm7.7993774 0l0 -9.796875l1.921875 0l0 9.796875l-1.921875 0zm0.9375 -11.953125q-0.609375 0 -0.953125 -0.3125q-0.328125 -0.328125 -0.328125 -0.90625q0 -0.546875 0.34375 -0.875q0.34375 -0.34375 0.9375 -0.34375q0.609375 0 0.9375 0.328125q0.34375 0.3125 0.34375 0.890625q0 0.546875 -0.34375 0.890625q-0.34375 0.328125 -0.9375 0.328125zm8.092712 12.140625q-1.359375 0 -2.4375 -0.671875q-1.0625 -0.671875 -1.6875 -1.828125q-0.625 -1.15625 -0.625 -2.59375q0 -1.4375 0.625 -2.59375q0.625 -1.15625 1.6875 -1.828125q1.078125 -0.671875 2.4375 -0.671875q1.3125 0 2.375 0.53125q1.078125 0.53125 1.640625 1.453125l-1.0625 1.296875q-0.296875 -0.421875 -0.765625 -0.78125q-0.46875 -0.359375 -1.0 -0.5625q-0.515625 -0.203125 -1.0 -0.203125q-0.890625 0 -1.59375 0.4375q-0.703125 0.4375 -1.109375 1.203125q-0.40625 0.765625 -0.40625 1.71875q0 0.953125 0.421875 1.71875q0.4375 0.75 1.140625 1.203125q0.703125 0.4375 1.5625 0.4375q0.515625 0 0.984375 -0.171875q0.46875 -0.171875 0.921875 -0.5q0.453125 -0.34375 0.84375 -0.828125l1.0625 1.3125q-0.59375 0.84375 -1.703125 1.390625q-1.109375 0.53125 -2.3125 0.53125zm10.387329 0q-1.5 0 -2.671875 -0.640625q-1.15625 -0.640625 -1.828125 -1.765625q-0.65625 -1.125 -0.65625 -2.578125q0 -1.15625 0.375 -2.109375q0.375 -0.953125 1.03125 -1.640625q0.65625 -0.703125 1.578125 -1.078125q0.9375 -0.390625 2.015625 -0.390625q0.953125 0 1.765625 0.359375q0.828125 0.359375 1.421875 1.0q0.609375 0.640625 0.9375 1.515625q0.328125 0.859375 0.3125 1.875l-0.015625 0.828125l-8.0 0l-0.4375 -1.53125l6.765625 0l-0.265625 0.3125l0 -0.4375q-0.0625 -0.625 -0.421875 -1.109375q-0.34375 -0.484375 -0.890625 -0.765625q-0.546875 -0.28125 -1.171875 -0.28125q-1.015625 0 -1.703125 0.390625q-0.6875 0.375 -1.046875 1.125q-0.34375 0.734375 -0.34375 1.8125q0 1.015625 0.421875 1.78125q0.421875 0.75 1.203125 1.171875q0.796875 0.40625 1.8125 0.40625q0.734375 0 1.359375 -0.234375q0.625 -0.25 1.359375 -0.890625l0.96875 1.359375q-0.453125 0.453125 -1.09375 0.796875q-0.640625 0.328125 -1.359375 0.53125q-0.71875 0.1875 -1.421875 0.1875zm12.078186 -0.1875l0 -13.0625l5.3125 0q1.0625 0 1.921875 0.53125q0.875 0.53125 1.390625 1.453125q0.53125 0.90625 0.53125 2.03125q0 1.125 -0.53125 2.046875q-0.515625 0.90625 -1.390625 1.453125q-0.859375 0.546875 -1.921875 0.546875l-3.296875 0l0 5.0l-2.015625 0zm2.015625 -6.9375l3.265625 0q0.5 0 0.90625 -0.28125q0.421875 -0.296875 0.671875 -0.765625q0.25 -0.484375 0.25 -1.0625q0 -0.578125 -0.25 -1.046875q-0.25 -0.46875 -0.671875 -0.75q-0.40625 -0.28125 -0.90625 -0.28125l-3.265625 0l0 4.1875zm12.907043 7.125q-1.203125 0 -2.203125 -0.671875q-1.0 -0.671875 -1.609375 -1.828125q-0.59375 -1.15625 -0.59375 -2.609375q0 -1.484375 0.609375 -2.625q0.609375 -1.140625 1.640625 -1.796875q1.046875 -0.65625 2.328125 -0.65625q0.765625 0 1.390625 0.234375q0.640625 0.21875 1.109375 0.625q0.484375 0.390625 0.78125 0.921875q0.3125 0.515625 0.390625 1.109375l-0.421875 -0.140625l0 -2.546875l1.9375 0l0 9.796875l-1.9375 0l0 -2.328125l0.4375 -0.140625q-0.109375 0.515625 -0.453125 1.0q-0.34375 0.46875 -0.875 0.84375q-0.53125 0.359375 -1.171875 0.59375q-0.640625 0.21875 -1.359375 0.21875zm0.5 -1.765625q0.890625 0 1.546875 -0.421875q0.671875 -0.4375 1.046875 -1.1875q0.390625 -0.765625 0.390625 -1.734375q0 -0.953125 -0.390625 -1.703125q-0.375 -0.75 -1.046875 -1.171875q-0.65625 -0.4375 -1.546875 -0.4375q-0.859375 0 -1.515625 0.4375q-0.65625 0.421875 -1.046875 1.171875q-0.375 0.75 -0.375 1.703125q0 0.96875 0.375 1.734375q0.390625 0.75 1.046875 1.1875q0.65625 0.421875 1.515625 0.421875zm11.700012 1.765625q-1.359375 0 -2.4375 -0.671875q-1.0625 -0.671875 -1.6875 -1.828125q-0.625 -1.15625 -0.625 -2.59375q0 -1.4375 0.625 -2.59375q0.625 -1.15625 1.6875 -1.828125q1.078125 -0.671875 2.4375 -0.671875q1.3125 0 2.375 0.53125q1.078125 0.53125 1.640625 1.453125l-1.0625 1.296875q-0.296875 -0.421875 -0.765625 -0.78125q-0.46875 -0.359375 -1.0 -0.5625q-0.515625 -0.203125 -1.0 -0.203125q-0.890625 0 -1.59375 0.4375q-0.703125 0.4375 -1.109375 1.203125q-0.40625 0.765625 -0.40625 1.71875q0 0.953125 0.421875 1.71875q0.4375 0.75 1.140625 1.203125q0.703125 0.4375 1.5625 0.4375q0.515625 0 0.984375 -0.171875q0.46875 -0.171875 0.921875 -0.5q0.453125 -0.34375 0.84375 -0.828125l1.0625 1.3125q-0.59375 0.84375 -1.703125 1.390625q-1.109375 0.53125 -2.3125 0.53125zm7.574829 -3.25l-0.09375 -2.09375l4.6875 -4.640625l2.59375 0l-7.1875 6.734375zm-1.75 3.0625l0 -13.8125l1.921875 0l0 13.8125l-1.921875 0zm6.609375 0l-3.703125 -4.3125l1.359375 -1.25l4.796875 5.5625l-2.453125 0zm11.914246 -0.921875l0 -10.59375l0.6875 0.53125l-2.5625 1.359375l-0.546875 -1.75l3.484375 -1.875l0.96875 0l0 12.328125l-2.03125 0zm-2.0625 0.921875l0 -1.9375l6.21875 0l0 1.9375l-6.21875 0zm8.75 3.46875l-1.03125 -1.15625q1.90625 -1.328125 2.890625 -3.15625q1.0 -1.84375 1.0 -3.96875q0 -2.125 -1.0 -3.953125q-0.984375 -1.84375 -2.890625 -3.171875l1.046875 -1.15625q2.265625 1.421875 3.453125 3.546875q1.203125 2.125 1.203125 4.734375q0 2.59375 -1.203125 4.734375q-1.203125 2.125 -3.46875 3.546875zm6.828186 0l-1.03125 -1.15625q1.90625 -1.328125 2.890625 -3.15625q1.0 -1.84375 1.0 -3.96875q0 -2.125 -1.0 -3.953125q-0.984375 -1.84375 -2.890625 -3.171875l1.046875 -1.15625q2.265625 1.421875 3.453125 3.546875q1.203125 2.125 1.203125 4.734375q0 2.59375 -1.203125 4.734375q-1.203125 2.125 -3.46875 3.546875z" fill="#ffffff"></path></g></svg>