<svg version="1.1" xmlns="http://www.w3.org/2000/svg" xmlns:xlink="http://www.w3.org/1999/xlink" width="173.9745" height="56.34138" viewBox="0,0,173.9745,56.34138"><g transform="translate(-153.01275,-170.65623)"><g data-paper-data="{&quot;isPaintingLayer&quot;:true}" fill="#ffffff" fill-rule="nonzero" stroke="none" stroke-width="1" stroke-linecap="square" stroke-linejoin="miter" stroke-miterlimit="10" stroke-dasharray="" stroke-dashoffset="0" style="mix-blend-mode: normal"><path d=""/><path d=""/><path d=""/><path d=""/><path d=""/><path d=""/><path d=""/><path d=""/><path d="M153.01275,185.0469v-1.85937h2.10938v-9.32812h-2.10937v-1.875h6.23438v1.875h-2.10937v9.32813h2.10938v1.85938zM161.93041,185.0469v-9.79687h1.92188v2.01563l-0.34375,0.21875c0.125,-0.42708 0.36979,-0.82292 0.73438,-1.1875c0.36458,-0.375 0.79167,-0.67708 1.28125,-0.90625c0.5,-0.22917 1.01042,-0.34375 1.53125,-0.34375c0.75,0 1.36979,0.14583 1.85938,0.4375c0.5,0.29167 0.875,0.73958 1.125,1.34375c0.25,0.59375 0.375,1.34375 0.375,2.25v5.96875h-1.92187v-5.84375c0,-0.55208 -0.07292,-1.01042 -0.21875,-1.375c-0.14583,-0.375 -0.375,-0.64583 -0.6875,-0.8125c-0.3125,-0.16667 -0.69792,-0.23958 -1.15625,-0.21875c-0.375,0 -0.71875,0.0625 -1.03125,0.1875c-0.3125,0.11458 -0.58333,0.28125 -0.8125,0.5c-0.22917,0.20833 -0.41146,0.45313 -0.54687,0.73438c-0.125,0.27083 -0.1875,0.56771 -0.1875,0.89063v5.9375h-0.95312c-0.15625,0 -0.31771,0 -0.48437,0c-0.16667,0 -0.32812,0 -0.48437,0zM176.2965,185.2344c-0.82292,0 -1.5625,-0.14062 -2.21875,-0.42187c-0.65625,-0.29167 -1.20312,-0.71875 -1.64062,-1.28125l1.29688,-1.10937c0.375,0.42708 0.78125,0.73958 1.21875,0.9375c0.44792,0.1875 0.95313,0.28125 1.51563,0.28125c0.21875,0 0.42188,-0.02604 0.60938,-0.07812c0.19792,-0.05208 0.36979,-0.13542 0.51563,-0.25c0.14583,-0.11458 0.25521,-0.25 0.32813,-0.40625c0.07292,-0.15625 0.10938,-0.32812 0.10938,-0.51562c0,-0.32292 -0.11979,-0.58333 -0.35937,-0.78125c-0.125,-0.08333 -0.32292,-0.17708 -0.59375,-0.28125c-0.26042,-0.10417 -0.60417,-0.21354 -1.03125,-0.32812c-0.71875,-0.1875 -1.30729,-0.39583 -1.76562,-0.625c-0.45833,-0.23958 -0.8125,-0.51042 -1.0625,-0.8125c-0.1875,-0.23958 -0.32812,-0.49479 -0.42187,-0.76562c-0.08333,-0.28125 -0.125,-0.59375 -0.125,-0.9375c0,-0.40625 0.08854,-0.78125 0.26563,-1.125c0.1875,-0.34375 0.4375,-0.64062 0.75,-0.89062c0.32292,-0.26042 0.69792,-0.45833 1.125,-0.59375c0.42708,-0.13542 0.88542,-0.20312 1.375,-0.20312c0.45833,0 0.91146,0.0625 1.35938,0.1875c0.45833,0.125 0.88021,0.30729 1.26563,0.54688c0.38542,0.22917 0.70833,0.50521 0.96875,0.82813l-1.09375,1.21875c-0.23958,-0.23958 -0.5,-0.44792 -0.78125,-0.625c-0.28125,-0.17708 -0.56771,-0.3125 -0.85937,-0.40625c-0.28125,-0.10417 -0.53646,-0.15625 -0.76562,-0.15625c-0.26042,0 -0.5,0.02604 -0.71875,0.07813c-0.20833,0.04167 -0.38542,0.11458 -0.53125,0.21875c-0.13542,0.09375 -0.24479,0.21875 -0.32812,0.375c-0.07292,0.14583 -0.10937,0.3125 -0.10937,0.5c0.01042,0.15625 0.05208,0.30729 0.125,0.45313c0.07292,0.14583 0.17188,0.26563 0.29688,0.35938c0.13542,0.10417 0.33854,0.21354 0.60938,0.32813c0.27083,0.10417 0.61979,0.20833 1.04688,0.3125c0.61458,0.15625 1.125,0.33333 1.53125,0.53125c0.40625,0.1875 0.72917,0.40625 0.96875,0.65625c0.25,0.23958 0.42188,0.51563 0.51563,0.82813c0.10417,0.3125 0.15625,0.66146 0.15625,1.04688c0,0.55208 -0.16146,1.05208 -0.48437,1.5c-0.3125,0.4375 -0.73958,0.78125 -1.28125,1.03125c-0.53125,0.25 -1.125,0.375 -1.78125,0.375zM183.18597,185.0469v-12.29687h1.92188v12.29688zM181.13909,177.12499v-1.875h6.23438v1.875zM192.80352,185.2344c-0.80208,0 -1.53646,-0.22396 -2.20312,-0.67187c-0.66667,-0.44792 -1.20312,-1.05729 -1.60937,-1.82812c-0.39583,-0.77083 -0.59375,-1.64062 -0.59375,-2.60937c0,-0.98958 0.20313,-1.86458 0.60938,-2.625c0.40625,-0.76042 0.95313,-1.35937 1.64063,-1.79687c0.69792,-0.4375 1.47396,-0.65625 2.32813,-0.65625c0.51042,0 0.97396,0.07813 1.39063,0.23438c0.42708,0.14583 0.79688,0.35417 1.10938,0.625c0.32292,0.26042 0.58333,0.56771 0.78125,0.92188c0.20833,0.34375 0.33854,0.71354 0.39063,1.10938l-0.42187,-0.14062v-2.54687h1.9375v9.79688h-1.9375v-2.32812l0.4375,-0.14062c-0.07292,0.34375 -0.22396,0.67708 -0.45312,1c-0.22917,0.3125 -0.52083,0.59375 -0.875,0.84375c-0.35417,0.23958 -0.74479,0.4375 -1.17187,0.59375c-0.42708,0.14583 -0.88021,0.21875 -1.35937,0.21875zM193.30352,183.46874c0.59375,0 1.10938,-0.14062 1.54688,-0.42187c0.44792,-0.29167 0.79688,-0.6875 1.04688,-1.1875c0.26042,-0.51042 0.39063,-1.08854 0.39063,-1.73437c0,-0.63542 -0.13021,-1.20312 -0.39062,-1.70312c-0.25,-0.5 -0.59896,-0.89062 -1.04687,-1.17187c-0.4375,-0.29167 -0.95312,-0.4375 -1.54687,-0.4375c-0.57292,0 -1.07812,0.14583 -1.51562,0.4375c-0.4375,0.28125 -0.78646,0.67188 -1.04687,1.17188c-0.25,0.5 -0.375,1.06771 -0.375,1.70313c0,0.64583 0.125,1.22396 0.375,1.73438c0.26042,0.5 0.60938,0.89583 1.04688,1.1875c0.4375,0.28125 0.94271,0.42188 1.51563,0.42188zM200.87853,185.0469v-13.8125h1.92188v13.8125zM205.56127,185.0469v-13.8125h1.92188v13.8125zM210.52526,185.0469v-9.79687h1.92188v9.79688zM211.46276,173.09374c-0.40625,0 -0.72396,-0.10417 -0.95312,-0.3125c-0.21875,-0.21875 -0.32812,-0.52083 -0.32812,-0.90625c0,-0.36458 0.11458,-0.65625 0.34375,-0.875c0.22917,-0.22917 0.54167,-0.34375 0.9375,-0.34375c0.40625,0 0.71875,0.10938 0.9375,0.32813c0.22917,0.20833 0.34375,0.50521 0.34375,0.89063c0,0.36458 -0.11458,0.66146 -0.34375,0.89063c-0.22917,0.21875 -0.54167,0.32813 -0.9375,0.32813zM215.39916,185.0469v-9.79687h1.92188v2.01563l-0.34375,0.21875c0.125,-0.42708 0.36979,-0.82292 0.73438,-1.1875c0.36458,-0.375 0.79167,-0.67708 1.28125,-0.90625c0.5,-0.22917 1.01042,-0.34375 1.53125,-0.34375c0.75,0 1.36979,0.14583 1.85938,0.4375c0.5,0.29167 0.875,0.73958 1.125,1.34375c0.25,0.59375 0.375,1.34375 0.375,2.25v5.96875h-1.92187v-5.84375c0,-0.55208 -0.07292,-1.01042 -0.21875,-1.375c-0.14583,-0.375 -0.375,-0.64583 -0.6875,-0.8125c-0.3125,-0.16667 -0.69792,-0.23958 -1.15625,-0.21875c-0.375,0 -0.71875,0.0625 -1.03125,0.1875c-0.3125,0.11458 -0.58333,0.28125 -0.8125,0.5c-0.22917,0.20833 -0.41146,0.45313 -0.54687,0.73438c-0.125,0.27083 -0.1875,0.56771 -0.1875,0.89063v5.9375h-0.95312c-0.15625,0 -0.31771,0 -0.48437,0c-0.16667,0 -0.32812,0 -0.48437,0zM230.89025,189.34374c-0.69792,0 -1.39583,-0.10937 -2.09375,-0.32812c-0.6875,-0.21875 -1.23958,-0.50521 -1.65625,-0.85937l0.70313,-1.48437c0.25,0.1875 0.54167,0.34896 0.875,0.48438c0.33333,0.14583 0.6875,0.26042 1.0625,0.34375c0.375,0.08333 0.74479,0.125 1.10938,0.125c0.67708,0 1.24479,-0.11458 1.70313,-0.34375c0.46875,-0.21875 0.81771,-0.54687 1.04688,-0.98437c0.23958,-0.4375 0.35938,-0.97917 0.35938,-1.625v-1.875l0.20313,0.125c-0.0625,0.38542 -0.26562,0.75521 -0.60937,1.10938c-0.34375,0.35417 -0.77083,0.64583 -1.28125,0.875c-0.5,0.21875 -1.02083,0.32813 -1.5625,0.32813c-0.92708,0 -1.75521,-0.21875 -2.48437,-0.65625c-0.72917,-0.44792 -1.30729,-1.05208 -1.73437,-1.8125c-0.41667,-0.77083 -0.625,-1.64583 -0.625,-2.625c0,-0.97917 0.20833,-1.84896 0.625,-2.60937c0.41667,-0.77083 0.98438,-1.375 1.70313,-1.8125c0.72917,-0.44792 1.55208,-0.67187 2.46875,-0.67187c0.36458,0 0.71875,0.04688 1.0625,0.14063c0.35417,0.09375 0.68229,0.22396 0.98438,0.39063c0.30208,0.16667 0.56771,0.34896 0.79688,0.54688c0.23958,0.19792 0.43229,0.41146 0.57813,0.64063c0.15625,0.21875 0.25,0.42708 0.28125,0.625l-0.40625,0.15625v-2.29687h1.92188v9.20313c0,0.78125 -0.11458,1.47396 -0.34375,2.07813c-0.22917,0.60417 -0.5625,1.11458 -1,1.53125c-0.4375,0.41667 -0.96875,0.73438 -1.59375,0.95313c-0.61458,0.21875 -1.3125,0.32813 -2.09375,0.32813zM230.95275,183.46874c0.61458,0 1.15625,-0.14062 1.625,-0.42187c0.47917,-0.29167 0.84896,-0.6875 1.10938,-1.1875c0.26042,-0.5 0.39063,-1.07292 0.39063,-1.71875c0,-0.64583 -0.13542,-1.21875 -0.40625,-1.71875c-0.27083,-0.51042 -0.64062,-0.90625 -1.10937,-1.1875c-0.45833,-0.29167 -0.99479,-0.4375 -1.60937,-0.4375c-0.59375,0 -1.125,0.14583 -1.59375,0.4375c-0.46875,0.29167 -0.83854,0.69271 -1.10937,1.20313c-0.26042,0.5 -0.39062,1.06771 -0.39062,1.70313c0,0.63542 0.13021,1.20833 0.39063,1.71875c0.27083,0.5 0.64063,0.89583 1.10938,1.1875c0.46875,0.28125 1,0.42188 1.59375,0.42188zM248.34692,185.2344c-0.70833,0 -1.36458,-0.09375 -1.96875,-0.28125c-0.60417,-0.1875 -1.15104,-0.46875 -1.64062,-0.84375c-0.48958,-0.38542 -0.92708,-0.85417 -1.3125,-1.40625l1.375,-1.59375c0.61458,0.875 1.19792,1.47917 1.75,1.8125c0.5625,0.33333 1.22917,0.5 2,0.5c0.46875,0 0.89583,-0.07292 1.28125,-0.21875c0.38542,-0.15625 0.6875,-0.36458 0.90625,-0.625c0.22917,-0.26042 0.34375,-0.55729 0.34375,-0.89062c0,-0.21875 -0.03646,-0.42708 -0.10937,-0.625c-0.07292,-0.20833 -0.1875,-0.39062 -0.34375,-0.54687c-0.15625,-0.16667 -0.35417,-0.31771 -0.59375,-0.45312c-0.23958,-0.13542 -0.52083,-0.25521 -0.84375,-0.35937c-0.32292,-0.10417 -0.69792,-0.19271 -1.125,-0.26562c-0.66667,-0.14583 -1.25,-0.32812 -1.75,-0.54687c-0.5,-0.22917 -0.91667,-0.51042 -1.25,-0.84375c-0.33333,-0.33333 -0.58333,-0.71354 -0.75,-1.14062c-0.16667,-0.42708 -0.25,-0.91146 -0.25,-1.45312c0,-0.52083 0.11458,-1.00521 0.34375,-1.45312c0.23958,-0.44792 0.55729,-0.83333 0.95313,-1.15625c0.40625,-0.33333 0.88021,-0.58854 1.42188,-0.76562c0.55208,-0.1875 1.14583,-0.28125 1.78125,-0.28125c0.67708,0 1.29167,0.08854 1.84375,0.26563c0.5625,0.17708 1.0625,0.4375 1.5,0.78125c0.4375,0.33333 0.79688,0.75 1.07813,1.25l-1.42187,1.40625c-0.23958,-0.41667 -0.51562,-0.76042 -0.82812,-1.03125c-0.3125,-0.28125 -0.65625,-0.49479 -1.03125,-0.64062c-0.375,-0.14583 -0.77083,-0.21875 -1.1875,-0.21875c-0.48958,0 -0.91667,0.07813 -1.28125,0.23438c-0.35417,0.14583 -0.63542,0.35417 -0.84375,0.625c-0.20833,0.26042 -0.3125,0.57292 -0.3125,0.9375c0,0.26042 0.05208,0.5 0.15625,0.71875c0.10417,0.21875 0.25521,0.41146 0.45313,0.57813c0.20833,0.16667 0.48438,0.31771 0.82813,0.45313c0.35417,0.125 0.77083,0.23438 1.25,0.32813c0.6875,0.15625 1.29688,0.34896 1.82813,0.57813c0.54167,0.22917 0.99479,0.5 1.35938,0.8125c0.375,0.3125 0.65625,0.66146 0.84375,1.04688c0.19792,0.38542 0.29688,0.80208 0.29688,1.25c0,0.83333 -0.19271,1.55729 -0.57812,2.17188c-0.38542,0.60417 -0.93229,1.07292 -1.64062,1.40625c-0.70833,0.32292 -1.55208,0.48438 -2.53125,0.48438zM260.03533,185.2344c-1,0 -1.89062,-0.21354 -2.67187,-0.64062c-0.77083,-0.42708 -1.38021,-1.01562 -1.82812,-1.76562c-0.4375,-0.75 -0.65625,-1.60937 -0.65625,-2.57812c0,-0.77083 0.125,-1.47396 0.375,-2.10937c0.25,-0.63542 0.59375,-1.18229 1.03125,-1.64062c0.4375,-0.46875 0.96354,-0.82812 1.57813,-1.07812c0.625,-0.26042 1.29688,-0.39062 2.01563,-0.39062c0.63542,0 1.22396,0.11979 1.76563,0.35938c0.55208,0.23958 1.02604,0.57292 1.42188,1c0.40625,0.42708 0.71875,0.93229 0.9375,1.51563c0.21875,0.57292 0.32292,1.19792 0.3125,1.875l-0.01562,0.82813h-8l-0.4375,-1.53125h6.76563l-0.26562,0.3125v-0.4375c-0.04167,-0.41667 -0.18229,-0.78646 -0.42187,-1.10937c-0.22917,-0.32292 -0.52604,-0.57812 -0.89062,-0.76562c-0.36458,-0.1875 -0.75521,-0.28125 -1.17187,-0.28125c-0.67708,0 -1.24479,0.13021 -1.70312,0.39063c-0.45833,0.25 -0.80729,0.625 -1.04687,1.125c-0.22917,0.48958 -0.34375,1.09375 -0.34375,1.8125c0,0.67708 0.14063,1.27083 0.42188,1.78125c0.28125,0.5 0.68229,0.89063 1.20313,1.17188c0.53125,0.27083 1.13542,0.40625 1.8125,0.40625c0.48958,0 0.94271,-0.07812 1.35938,-0.23437c0.41667,-0.16667 0.86979,-0.46354 1.35938,-0.89062l0.96875,1.35938c-0.30208,0.30208 -0.66667,0.56771 -1.09375,0.79688c-0.42708,0.21875 -0.88021,0.39583 -1.35937,0.53125c-0.47917,0.125 -0.95312,0.1875 -1.42187,0.1875zM267.62414,185.0469v-12.29687h1.92188v12.29688zM265.57727,177.12499v-1.875h6.23438v1.875zM274.78814,185.0469v-12.29687h1.92188v12.29688zM272.74127,177.12499v-1.875h6.23438v1.875zM281.04589,185.0469v-9.79687h1.92188v9.79688zM281.98339,173.09374c-0.40625,0 -0.72396,-0.10417 -0.95312,-0.3125c-0.21875,-0.21875 -0.32812,-0.52083 -0.32812,-0.90625c0,-0.36458 0.11458,-0.65625 0.34375,-0.875c0.22917,-0.22917 0.54167,-0.34375 0.9375,-0.34375c0.40625,0 0.71875,0.10938 0.9375,0.32813c0.22917,0.20833 0.34375,0.50521 0.34375,0.89063c0,0.36458 -0.11458,0.66146 -0.34375,0.89063c-0.22917,0.21875 -0.54167,0.32813 -0.9375,0.32813zM285.91985,185.0469v-9.79687h1.92188v2.01563l-0.34375,0.21875c0.125,-0.42708 0.36979,-0.82292 0.73438,-1.1875c0.36458,-0.375 0.79167,-0.67708 1.28125,-0.90625c0.5,-0.22917 1.01042,-0.34375 1.53125,-0.34375c0.75,0 1.36979,0.14583 1.85938,0.4375c0.5,0.29167 0.875,0.73958 1.125,1.34375c0.25,0.59375 0.375,1.34375 0.375,2.25v5.96875h-1.92187v-5.84375c0,-0.55208 -0.07292,-1.01042 -0.21875,-1.375c-0.14583,-0.375 -0.375,-0.64583 -0.6875,-0.8125c-0.3125,-0.16667 -0.69792,-0.23958 -1.15625,-0.21875c-0.375,0 -0.71875,0.0625 -1.03125,0.1875c-0.3125,0.11458 -0.58333,0.28125 -0.8125,0.5c-0.22917,0.20833 -0.41146,0.45313 -0.54687,0.73438c-0.125,0.27083 -0.1875,0.56771 -0.1875,0.89063v5.9375h-0.95312c-0.15625,0 -0.31771,0 -0.48437,0c-0.16667,0 -0.32812,0 -0.48437,0zM301.41094,189.34374c-0.69792,0 -1.39583,-0.10937 -2.09375,-0.32812c-0.6875,-0.21875 -1.23958,-0.50521 -1.65625,-0.85937l0.70313,-1.48437c0.25,0.1875 0.54167,0.34896 0.875,0.48438c0.33333,0.14583 0.6875,0.26042 1.0625,0.34375c0.375,0.08333 0.74479,0.125 1.10938,0.125c0.67708,0 1.24479,-0.11458 1.70313,-0.34375c0.46875,-0.21875 0.81771,-0.54687 1.04688,-0.98437c0.23958,-0.4375 0.35938,-0.97917 0.35938,-1.625v-1.875l0.20313,0.125c-0.0625,0.38542 -0.26562,0.75521 -0.60937,1.10938c-0.34375,0.35417 -0.77083,0.64583 -1.28125,0.875c-0.5,0.21875 -1.02083,0.32813 -1.5625,0.32813c-0.92708,0 -1.75521,-0.21875 -2.48437,-0.65625c-0.72917,-0.44792 -1.30729,-1.05208 -1.73437,-1.8125c-0.41667,-0.77083 -0.625,-1.64583 -0.625,-2.625c0,-0.97917 0.20833,-1.84896 0.625,-2.60937c0.41667,-0.77083 0.98438,-1.375 1.70313,-1.8125c0.72917,-0.44792 1.55208,-0.67187 2.46875,-0.67187c0.36458,0 0.71875,0.04688 1.0625,0.14063c0.35417,0.09375 0.68229,0.22396 0.98438,0.39063c0.30208,0.16667 0.56771,0.34896 0.79688,0.54688c0.23958,0.19792 0.43229,0.41146 0.57813,0.64063c0.15625,0.21875 0.25,0.42708 0.28125,0.625l-0.40625,0.15625v-2.29687h1.92188v9.20313c0,0.78125 -0.11458,1.47396 -0.34375,2.07813c-0.22917,0.60417 -0.5625,1.11458 -1,1.53125c-0.4375,0.41667 -0.96875,0.73438 -1.59375,0.95313c-0.61458,0.21875 -1.3125,0.32813 -2.09375,0.32813zM301.47344,183.46874c0.61458,0 1.15625,-0.14062 1.625,-0.42187c0.47917,-0.29167 0.84896,-0.6875 1.10938,-1.1875c0.26042,-0.5 0.39063,-1.07292 0.39063,-1.71875c0,-0.64583 -0.13542,-1.21875 -0.40625,-1.71875c-0.27083,-0.51042 -0.64062,-0.90625 -1.10937,-1.1875c-0.45833,-0.29167 -0.99479,-0.4375 -1.60937,-0.4375c-0.59375,0 -1.125,0.14583 -1.59375,0.4375c-0.46875,0.29167 -0.83854,0.69271 -1.10937,1.20313c-0.26042,0.5 -0.39062,1.06771 -0.39062,1.70313c0,0.63542 0.13021,1.20833 0.39063,1.71875c0.27083,0.5 0.64063,0.89583 1.10938,1.1875c0.46875,0.28125 1,0.42188 1.59375,0.42188zM312.20715,185.2344c-0.82292,0 -1.5625,-0.14062 -2.21875,-0.42187c-0.65625,-0.29167 -1.20312,-0.71875 -1.64062,-1.28125l1.29688,-1.10937c0.375,0.42708 0.78125,0.73958 1.21875,0.9375c0.44792,0.1875 0.95313,0.28125 1.51563,0.28125c0.21875,0 0.42188,-0.02604 0.60938,-0.07812c0.19792,-0.05208 0.36979,-0.13542 0.51563,-0.25c0.14583,-0.11458 0.25521,-0.25 0.32813,-0.40625c0.07292,-0.15625 0.10938,-0.32812 0.10938,-0.51562c0,-0.32292 -0.11979,-0.58333 -0.35937,-0.78125c-0.125,-0.08333 -0.32292,-0.17708 -0.59375,-0.28125c-0.26042,-0.10417 -0.60417,-0.21354 -1.03125,-0.32812c-0.71875,-0.1875 -1.30729,-0.39583 -1.76562,-0.625c-0.45833,-0.23958 -0.8125,-0.51042 -1.0625,-0.8125c-0.1875,-0.23958 -0.32812,-0.49479 -0.42187,-0.76562c-0.08333,-0.28125 -0.125,-0.59375 -0.125,-0.9375c0,-0.40625 0.08854,-0.78125 0.26563,-1.125c0.1875,-0.34375 0.4375,-0.64062 0.75,-0.89062c0.32292,-0.26042 0.69792,-0.45833 1.125,-0.59375c0.42708,-0.13542 0.88542,-0.20312 1.375,-0.20312c0.45833,0 0.91146,0.0625 1.35938,0.1875c0.45833,0.125 0.88021,0.30729 1.26563,0.54688c0.38542,0.22917 0.70833,0.50521 0.96875,0.82813l-1.09375,1.21875c-0.23958,-0.23958 -0.5,-0.44792 -0.78125,-0.625c-0.28125,-0.17708 -0.56771,-0.3125 -0.85937,-0.40625c-0.28125,-0.10417 -0.53646,-0.15625 -0.76562,-0.15625c-0.26042,0 -0.5,0.02604 -0.71875,0.07813c-0.20833,0.04167 -0.38542,0.11458 -0.53125,0.21875c-0.13542,0.09375 -0.24479,0.21875 -0.32812,0.375c-0.07292,0.14583 -0.10937,0.3125 -0.10937,0.5c0.01042,0.15625 0.05208,0.30729 0.125,0.45313c0.07292,0.14583 0.17188,0.26563 0.29688,0.35938c0.13542,0.10417 0.33854,0.21354 0.60938,0.32813c0.27083,0.10417 0.61979,0.20833 1.04688,0.3125c0.61458,0.15625 1.125,0.33333 1.53125,0.53125c0.40625,0.1875 0.72917,0.40625 0.96875,0.65625c0.25,0.23958 0.42188,0.51563 0.51563,0.82813c0.10417,0.3125 0.15625,0.66146 0.15625,1.04688c0,0.55208 -0.16146,1.05208 -0.48437,1.5c-0.3125,0.4375 -0.73958,0.78125 -1.28125,1.03125c-0.53125,0.25 -1.125,0.375 -1.78125,0.375zM318.65911,185.24999c-0.40625,0 -0.72396,-0.11979 -0.95312,-0.35937c-0.21875,-0.23958 -0.32812,-0.58333 -0.32812,-1.03125c0,-0.41667 0.11458,-0.75521 0.34375,-1.01562c0.23958,-0.26042 0.55208,-0.39062 0.9375,-0.39062c0.41667,0 0.73438,0.125 0.95313,0.375c0.22917,0.23958 0.34375,0.58333 0.34375,1.03125c0,0.40625 -0.11979,0.73958 -0.35937,1c-0.23958,0.26042 -0.55208,0.39063 -0.9375,0.39063zM322.15911,185.24999c-0.40625,0 -0.72396,-0.11979 -0.95312,-0.35937c-0.21875,-0.23958 -0.32812,-0.58333 -0.32812,-1.03125c0,-0.41667 0.11458,-0.75521 0.34375,-1.01562c0.23958,-0.26042 0.55208,-0.39062 0.9375,-0.39062c0.41667,0 0.73438,0.125 0.95313,0.375c0.22917,0.23958 0.34375,0.58333 0.34375,1.03125c0,0.40625 -0.11979,0.73958 -0.35937,1c-0.23958,0.26042 -0.55208,0.39063 -0.9375,0.39063zM325.69036,185.24999c-0.40625,0 -0.72396,-0.11979 -0.95312,-0.35937c-0.21875,-0.23958 -0.32812,-0.58333 -0.32812,-1.03125c0,-0.41667 0.11458,-0.75521 0.34375,-1.01562c0.23958,-0.26042 0.55208,-0.39062 0.9375,-0.39062c0.41667,0 0.73438,0.125 0.95313,0.375c0.22917,0.23958 0.34375,0.58333 0.34375,1.03125c0,0.40625 -0.11979,0.73958 -0.35937,1c-0.23958,0.26042 -0.55208,0.39063 -0.9375,0.39063z"/><path d=""/><path d=""/><path d=""/><path d=""/><path d=""/><path d=""/><path d="M215.74389,226.88822c-0.8125,0 -1.55208,-0.17187 -2.21875,-0.51562c-0.65625,-0.34375 -1.1875,-0.80208 -1.59375,-1.375c-0.39583,-0.57292 -0.59375,-1.20833 -0.59375,-1.90625c0,-0.38542 0.05208,-0.74479 0.15625,-1.07812c0.11458,-0.34375 0.27604,-0.65625 0.48438,-0.9375c0.21875,-0.29167 0.48438,-0.55729 0.79688,-0.79687c0.3125,-0.23958 0.67188,-0.45312 1.07813,-0.64062l-0.10937,0.39063c-0.32292,-0.125 -0.61458,-0.27604 -0.875,-0.45312c-0.25,-0.17708 -0.46875,-0.38542 -0.65625,-0.625c-0.1875,-0.23958 -0.32812,-0.49479 -0.42187,-0.76562c-0.08333,-0.27083 -0.125,-0.55729 -0.125,-0.85937c0,-0.65625 0.18229,-1.25 0.54688,-1.78125c0.36458,-0.54167 0.85417,-0.97396 1.46875,-1.29687c0.61458,-0.32292 1.30208,-0.48437 2.0625,-0.48437c0.76042,0 1.44792,0.16146 2.0625,0.48438c0.61458,0.32292 1.10417,0.75521 1.46875,1.29688c0.375,0.53125 0.5625,1.125 0.5625,1.78125c0,0.30208 -0.04687,0.58854 -0.14062,0.85938c-0.09375,0.27083 -0.22917,0.52083 -0.40625,0.75c-0.17708,0.21875 -0.40104,0.42188 -0.67187,0.60938c-0.26042,0.1875 -0.55729,0.34896 -0.89062,0.48438l-0.0625,-0.3125c0.375,0.14583 0.71354,0.33854 1.01563,0.57813c0.30208,0.23958 0.5625,0.51042 0.78125,0.8125c0.22917,0.29167 0.40104,0.60938 0.51563,0.95313c0.125,0.33333 0.1875,0.67708 0.1875,1.03125c0,0.70833 -0.19792,1.34896 -0.59375,1.92188c-0.39583,0.57292 -0.92708,1.03125 -1.59375,1.375c-0.66667,0.33333 -1.41146,0.5 -2.23437,0.5zM215.74389,225.01322c0.45833,0 0.86979,-0.08333 1.23438,-0.25c0.375,-0.17708 0.66667,-0.41667 0.875,-0.71875c0.20833,-0.30208 0.3125,-0.64583 0.3125,-1.03125c0,-0.40625 -0.10417,-0.76562 -0.3125,-1.07812c-0.20833,-0.32292 -0.5,-0.57812 -0.875,-0.76562c-0.36458,-0.1875 -0.77604,-0.28125 -1.23437,-0.28125c-0.45833,0 -0.86979,0.09375 -1.23437,0.28125c-0.35417,0.1875 -0.64062,0.44271 -0.85937,0.76563c-0.20833,0.3125 -0.3125,0.67188 -0.3125,1.07813c0,0.375 0.10417,0.71354 0.3125,1.01563c0.21875,0.30208 0.50521,0.54167 0.85938,0.71875c0.36458,0.17708 0.77604,0.26563 1.23438,0.26563zM215.74389,219.10697c0.39583,0 0.75,-0.07292 1.0625,-0.21875c0.32292,-0.15625 0.57292,-0.35937 0.75,-0.60937c0.1875,-0.26042 0.28125,-0.55729 0.28125,-0.89062c0,-0.33333 -0.09375,-0.63021 -0.28125,-0.89062c-0.17708,-0.27083 -0.42708,-0.47917 -0.75,-0.625c-0.3125,-0.15625 -0.66667,-0.23437 -1.0625,-0.23437c-0.39583,0 -0.75521,0.07813 -1.07812,0.23438c-0.3125,0.14583 -0.5625,0.35417 -0.75,0.625c-0.17708,0.26042 -0.26562,0.55729 -0.26562,0.89063c0,0.33333 0.08854,0.63021 0.26563,0.89063c0.1875,0.25 0.4375,0.45313 0.75,0.60938c0.32292,0.14583 0.68229,0.21875 1.07813,0.21875zM225.40527,226.82572l-0.07812,-0.1875l3.89063,-8.25l0.04688,1.54688c-0.21875,0.375 -0.46354,0.70833 -0.73437,1c-0.26042,0.28125 -0.55208,0.52604 -0.875,0.73438c-0.3125,0.20833 -0.64062,0.36458 -0.98437,0.46875c-0.33333,0.10417 -0.67187,0.15625 -1.01562,0.15625c-0.70833,0 -1.36458,-0.1875 -1.96875,-0.5625c-0.59375,-0.375 -1.07292,-0.86979 -1.4375,-1.48437c-0.35417,-0.625 -0.53125,-1.30729 -0.53125,-2.04687c0,-0.875 0.19792,-1.66146 0.59375,-2.35937c0.39583,-0.70833 0.9375,-1.26562 1.625,-1.67187c0.69792,-0.41667 1.47396,-0.625 2.32813,-0.625c0.625,0 1.20833,0.11458 1.75,0.34375c0.55208,0.21875 1.03125,0.53125 1.4375,0.9375c0.41667,0.39583 0.73958,0.85938 0.96875,1.39063c0.23958,0.53125 0.35938,1.09375 0.35938,1.6875c0,0.3125 -0.03125,0.64583 -0.09375,1c-0.0625,0.35417 -0.16667,0.75521 -0.3125,1.20313c-0.13542,0.4375 -0.32292,0.94271 -0.5625,1.51563c-0.23958,0.5625 -0.53125,1.21354 -0.875,1.95313l-1.54687,3.25zM226.07714,220.41947c0.48958,0 0.92708,-0.10417 1.3125,-0.3125c0.38542,-0.21875 0.6875,-0.51042 0.90625,-0.875c0.21875,-0.375 0.32813,-0.79167 0.32813,-1.25c0,-0.48958 -0.10937,-0.92708 -0.32812,-1.3125c-0.20833,-0.39583 -0.50521,-0.70312 -0.89062,-0.92187c-0.375,-0.22917 -0.80208,-0.34375 -1.28125,-0.34375c-0.44792,0 -0.84896,0.10938 -1.20312,0.32813c-0.34375,0.21875 -0.61979,0.52083 -0.82812,0.90625c-0.20833,0.375 -0.3125,0.81771 -0.3125,1.32813c0,0.4375 0.10417,0.84375 0.3125,1.21875c0.20833,0.36458 0.48438,0.66146 0.82813,0.89063c0.35417,0.22917 0.73958,0.34375 1.15625,0.34375zM233.84112,226.82572l8.64063,-13.0625h1.92188l-8.73437,13.0625zM235.02862,220.68509c-0.55208,0 -1.04687,-0.15104 -1.48437,-0.45312c-0.42708,-0.30208 -0.76042,-0.71875 -1,-1.25c-0.23958,-0.53125 -0.35937,-1.13542 -0.35937,-1.8125c0,-0.6875 0.11979,-1.30208 0.35938,-1.84375c0.23958,-0.54167 0.57813,-0.96354 1.01563,-1.26562c0.4375,-0.3125 0.9375,-0.46875 1.5,-0.46875c0.55208,0 1.04167,0.15625 1.46875,0.46875c0.4375,0.30208 0.77604,0.72396 1.01563,1.26563c0.23958,0.54167 0.35938,1.15625 0.35938,1.84375c0,0.65625 -0.125,1.25 -0.375,1.78125c-0.23958,0.53125 -0.57812,0.95313 -1.01562,1.26563c-0.4375,0.3125 -0.93229,0.46875 -1.48437,0.46875zM235.05987,219.29447c0.26042,0 0.48438,-0.08854 0.67188,-0.26562c0.19792,-0.17708 0.34896,-0.42187 0.45313,-0.73437c0.10417,-0.32292 0.15625,-0.69792 0.15625,-1.125c0,-0.4375 -0.05208,-0.81771 -0.15625,-1.14062c-0.10417,-0.32292 -0.25521,-0.57292 -0.45312,-0.75c-0.1875,-0.17708 -0.42187,-0.26562 -0.70312,-0.26562c-0.26042,0 -0.48958,0.09375 -0.6875,0.28125c-0.19792,0.17708 -0.34896,0.42708 -0.45312,0.75c-0.10417,0.3125 -0.15625,0.6875 -0.15625,1.125c0,0.42708 0.05208,0.80208 0.15625,1.125c0.10417,0.3125 0.25521,0.55729 0.45313,0.73438c0.19792,0.17708 0.4375,0.26563 0.71875,0.26563zM243.29424,226.99759c-0.55208,0 -1.04687,-0.15625 -1.48437,-0.46875c-0.42708,-0.3125 -0.76562,-0.72917 -1.01562,-1.25c-0.23958,-0.53125 -0.35937,-1.13542 -0.35937,-1.8125c0,-0.6875 0.11979,-1.29687 0.35938,-1.82812c0.23958,-0.54167 0.57813,-0.96354 1.01563,-1.26562c0.4375,-0.3125 0.93229,-0.46875 1.48438,-0.46875c0.5625,0 1.05729,0.15625 1.48438,0.46875c0.4375,0.30208 0.77604,0.72396 1.01563,1.26563c0.23958,0.53125 0.35938,1.14063 0.35938,1.82813c0,0.65625 -0.125,1.25521 -0.375,1.79688c-0.25,0.53125 -0.58854,0.95313 -1.01562,1.26563c-0.42708,0.3125 -0.91667,0.46875 -1.46875,0.46875zM243.29424,225.60697c0.26042,0 0.48958,-0.08854 0.6875,-0.26562c0.20833,-0.17708 0.36458,-0.42187 0.46875,-0.73437c0.10417,-0.32292 0.15625,-0.70312 0.15625,-1.14062c0,-0.4375 -0.05208,-0.8125 -0.15625,-1.125c-0.10417,-0.32292 -0.26042,-0.57292 -0.46875,-0.75c-0.19792,-0.17708 -0.42708,-0.26562 -0.6875,-0.26562c-0.27083,0 -0.50521,0.08854 -0.70312,0.26563c-0.19792,0.16667 -0.34896,0.41146 -0.45312,0.73438c-0.10417,0.32292 -0.15625,0.70313 -0.15625,1.14063c0,0.4375 0.05208,0.81771 0.15625,1.14063c0.10417,0.3125 0.25521,0.55729 0.45313,0.73438c0.19792,0.17708 0.43229,0.26563 0.70313,0.26563z"/></g></g></svg>