<svg version="1.1" xmlns="http://www.w3.org/2000/svg" xmlns:xlink="http://www.w3.org/1999/xlink" width="247.95815" height="160.91711" viewBox="0,0,247.95815,160.91711"><g transform="translate(-116.02096,-100.49329)"><g data-paper-data="{&quot;isPaintingLayer&quot;:true}" stroke="none" stroke-width="1" stroke-linejoin="miter" stroke-miterlimit="10" stroke-dasharray="" stroke-dashoffset="0" style="mix-blend-mode: normal"><path d="M116.02097,110.32191c0,-5.4282 4.73119,-9.82862 10.5674,-9.82862h226.82334c2.80265,0 5.49052,1.03551 7.47228,2.87874c1.98179,1.84323 3.09512,4.34317 3.09512,6.94989v139.35617c0,5.4282 -4.73119,9.82862 -10.56741,9.82862h-226.82334c-5.83621,0 -10.5674,-4.40042 -10.5674,-9.82862z" fill-opacity="0.64516" fill="#1d1d1d" fill-rule="evenodd" stroke-linecap="square"/><g><path d="M307.27788,231.87709c0,-0.85354 0.9588,-1.54546 2.14153,-1.54546h45.96682c0.56797,0 1.11268,0.16283 1.51429,0.45266c0.40162,0.28983 0.62724,0.68293 0.62724,1.09281v21.91253c0,0.85354 -0.9588,1.54546 -2.14153,1.54546h-45.96682c-1.18274,0 -2.14153,-0.69193 -2.14153,-1.54546z" fill="#ffffff" fill-rule="evenodd" stroke-linecap="square"/><text transform="translate(309.89615,248.54066) scale(0.48048,0.48048)" font-size="40" xml:space="preserve" fill="#000000" fill-rule="nonzero" stroke="none" stroke-width="1" stroke-linecap="butt" stroke-linejoin="miter" stroke-miterlimit="10" stroke-dasharray="" stroke-dashoffset="0" font-family="&quot;ヒラギノ角ゴ Pro W3&quot;, &quot;Hiragino Kaku Gothic Pro&quot;, Osaka, &quot;メイリオ&quot;, Meiryo, &quot;ＭＳ Ｐゴシック&quot;, &quot;MS PGothic&quot;" font-weight="normal" text-anchor="start" style="mix-blend-mode: normal"><tspan x="0" dy="0">Close</tspan></text></g><g fill-opacity="0.46774" fill="#464646"><path d="M121.88143,231.60001c0,-0.85354 0.9588,-1.54546 2.14153,-1.54546h45.96682c0.56797,0 1.11268,0.16283 1.51429,0.45266c0.40162,0.28983 0.62724,0.68293 0.62724,1.09281v21.91253c0,0.85354 -0.9588,1.54546 -2.14153,1.54546h-45.96682c-1.18274,0 -2.14153,-0.69193 -2.14153,-1.54546z" fill-rule="evenodd" stroke-linecap="square"/><text transform="translate(131.69849,250.74663) scale(0.57642,0.57642)" font-size="40" xml:space="preserve" fill-opacity="0.46774" fill="#464646" fill-rule="nonzero" stroke="none" stroke-width="1" stroke-linecap="butt" stroke-linejoin="miter" stroke-miterlimit="10" stroke-dasharray="" stroke-dashoffset="0" font-family="&quot;ヒラギノ角ゴ Pro W3&quot;, &quot;Hiragino Kaku Gothic Pro&quot;, Osaka, &quot;メイリオ&quot;, Meiryo, &quot;ＭＳ Ｐゴシック&quot;, &quot;MS PGothic&quot;" font-weight="normal" text-anchor="start" style="mix-blend-mode: normal"><tspan x="0" dy="0">OK</tspan></text></g><path d="M121.78369,107.2978c0,-0.95224 0.39741,-1.72418 0.88764,-1.72418h19.05257c0.23541,0 0.46119,0.18165 0.62765,0.505c0.16646,0.32335 0.25999,0.7619 0.25999,1.21918v24.44642c0,0.95224 -0.39741,1.72418 -0.88763,1.72418h-19.05257c-0.49022,0 -0.88763,-0.77194 -0.88763,-1.72418z" fill-opacity="0.66935" fill="#515151" fill-rule="evenodd" stroke-linecap="square"/><path d="M145.79794,106.86515c0,-0.95224 0.39741,-1.72418 0.88763,-1.72418h19.05257c0.23541,0 0.46119,0.18166 0.62765,0.505c0.16646,0.32335 0.25999,0.7619 0.25999,1.21918v24.44642c0,0.95224 -0.39741,1.72418 -0.88763,1.72418h-19.05257c-0.49023,0 -0.88763,-0.77194 -0.88763,-1.72418z" fill-opacity="0.66935" fill="#515151" fill-rule="evenodd" stroke-linecap="square"/><path d="M169.80262,107.16988c0,-0.95224 0.39741,-1.72418 0.88764,-1.72418h19.05256c0.23541,0 0.46119,0.18165 0.62765,0.505c0.16646,0.32335 0.25999,0.7619 0.25999,1.21918v24.44642c0,0.95224 -0.39741,1.72418 -0.88764,1.72418h-19.05257c-0.49023,0 -0.88763,-0.77194 -0.88763,-1.72418z" fill-opacity="0.66935" fill="#515151" fill-rule="evenodd" stroke-linecap="square"/><path d="M121.64125,138.4572c0,-0.95224 0.39741,-1.72418 0.88764,-1.72418h19.05257c0.23541,0 0.46119,0.18166 0.62765,0.505c0.16646,0.32334 0.25999,0.7619 0.25999,1.21918v24.44642c0,0.95224 -0.39741,1.72418 -0.88763,1.72418h-19.05257c-0.49022,0 -0.88763,-0.77194 -0.88763,-1.72418z" fill-opacity="0.66935" fill="#515151" fill-rule="evenodd" stroke-linecap="square"/><path d="M145.65549,138.02455c0,-0.95224 0.39741,-1.72418 0.88763,-1.72418h19.05257c0.23541,0 0.46119,0.18166 0.62765,0.505c0.16646,0.32334 0.25999,0.7619 0.25999,1.21918v24.44642c0,0.95224 -0.39741,1.72418 -0.88763,1.72418h-19.05257c-0.49023,0 -0.88763,-0.77194 -0.88763,-1.72418z" fill-opacity="0.66935" fill="#515151" fill-rule="evenodd" stroke-linecap="square"/><path d="M169.66019,138.32928c0,-0.95224 0.39741,-1.72418 0.88763,-1.72418h19.05257c0.23541,0 0.46119,0.18166 0.62765,0.505c0.16646,0.32334 0.25999,0.7619 0.25999,1.21918v24.44642c0,0.95224 -0.39741,1.72417 -0.88763,1.72417h-19.05257c-0.49023,0 -0.88763,-0.77194 -0.88763,-1.72417z" fill-opacity="0.66935" fill="#515151" fill-rule="evenodd" stroke-linecap="square"/><path d="M121.78802,170.5544c0,-0.95224 0.39741,-1.72418 0.88764,-1.72418h19.05257c0.23541,0 0.46119,0.18166 0.62765,0.505c0.16646,0.32334 0.25999,0.7619 0.25999,1.21918v24.44642c0,0.95224 -0.39741,1.72418 -0.88763,1.72418h-19.05257c-0.49022,0 -0.88763,-0.77194 -0.88763,-1.72418z" fill-opacity="0.66935" fill="#515151" fill-rule="evenodd" stroke-linecap="square"/><path d="M145.80226,170.12176c0,-0.95224 0.39741,-1.72418 0.88763,-1.72418h19.05257c0.23541,0 0.46119,0.18166 0.62765,0.505c0.16646,0.32334 0.25999,0.7619 0.25999,1.21918v24.44642c0,0.95224 -0.39741,1.72418 -0.88763,1.72418h-19.05257c-0.49023,0 -0.88763,-0.77194 -0.88763,-1.72418z" fill-opacity="0.66935" fill="#515151" fill-rule="evenodd" stroke-linecap="square"/><path d="M169.80696,170.42648c0,-0.95224 0.39741,-1.72418 0.88763,-1.72418h19.05256c0.23541,0 0.46119,0.18166 0.62765,0.505c0.16646,0.32334 0.25999,0.7619 0.25999,1.21918v24.44642c0,0.95224 -0.39741,1.72418 -0.88764,1.72418h-19.05257c-0.49023,0 -0.88763,-0.77194 -0.88763,-1.72418z" fill-opacity="0.66935" fill="#515151" fill-rule="evenodd" stroke-linecap="square"/><path d="M193.92005,107.04013c0,-0.95224 0.39741,-1.72418 0.88763,-1.72418h19.05256c0.23541,0 0.46119,0.18165 0.62765,0.505c0.16646,0.32335 0.25999,0.7619 0.25999,1.21918v24.44642c0,0.95224 -0.39741,1.72418 -0.88764,1.72418h-19.05257c-0.49023,0 -0.88763,-0.77194 -0.88763,-1.72418z" fill-opacity="0.66935" fill="#515151" fill-rule="evenodd" stroke-linecap="square"/><path d="M217.9343,107.01192c0,-0.95224 0.39741,-1.72418 0.88764,-1.72418h19.05256c0.23541,0 0.46119,0.18165 0.62765,0.505c0.16646,0.32335 0.25999,0.7619 0.25999,1.21918v24.44642c0,0.95224 -0.39741,1.72418 -0.88764,1.72418h-19.05257c-0.49023,0 -0.88763,-0.77194 -0.88763,-1.72418z" fill-opacity="0.66935" fill="#515151" fill-rule="evenodd" stroke-linecap="square"/><path d="M241.93899,106.91221c0,-0.95224 0.39741,-1.72418 0.88763,-1.72418h19.05256c0.23541,0 0.46119,0.18166 0.62765,0.505c0.16647,0.32335 0.25999,0.7619 0.25999,1.21918v24.44642c0,0.95224 -0.39741,1.72418 -0.88764,1.72418h-19.05257c-0.49023,0 -0.88763,-0.77194 -0.88763,-1.72418z" fill-opacity="0.66935" fill="#515151" fill-rule="evenodd" stroke-linecap="square"/><path d="M193.7776,138.60396c0,-0.95224 0.39741,-1.72418 0.88763,-1.72418h19.05257c0.23541,0 0.46119,0.18166 0.62765,0.505c0.16646,0.32334 0.25999,0.7619 0.25999,1.21918v24.44642c0,0.95224 -0.39741,1.72417 -0.88763,1.72417h-19.05257c-0.49023,0 -0.88763,-0.77194 -0.88763,-1.72417z" fill-opacity="0.66935" fill="#515151" fill-rule="evenodd" stroke-linecap="square"/><path d="M217.79185,138.17132c0,-0.95224 0.39741,-1.72418 0.88763,-1.72418h19.05257c0.23541,0 0.46119,0.18166 0.62765,0.505c0.16646,0.32334 0.25999,0.7619 0.25999,1.21918v24.44642c0,0.95224 -0.39741,1.72418 -0.88763,1.72418h-19.05257c-0.49023,0 -0.88763,-0.77194 -0.88763,-1.72418z" fill-opacity="0.66935" fill="#515151" fill-rule="evenodd" stroke-linecap="square"/><path d="M241.79654,138.47604c0,-0.95224 0.39741,-1.72418 0.88764,-1.72418h19.05257c0.23541,0 0.46118,0.18166 0.62765,0.505c0.16647,0.32334 0.25999,0.7619 0.25999,1.21918v24.44642c0,0.95224 -0.39741,1.72418 -0.88763,1.72418h-19.05257c-0.49023,0 -0.88763,-0.77194 -0.88763,-1.72418z" fill-opacity="0.66935" fill="#515151" fill-rule="evenodd" stroke-linecap="square"/><path d="M193.92437,169.48786c0,-0.95224 0.39741,-1.72418 0.88763,-1.72418h19.05257c0.23541,0 0.46119,0.18166 0.62765,0.505c0.16646,0.32334 0.25999,0.7619 0.25999,1.21918v24.44642c0,0.95224 -0.39741,1.72418 -0.88763,1.72418h-19.05257c-0.49023,0 -0.88763,-0.77194 -0.88763,-1.72418z" fill-opacity="0.66935" fill="#515151" fill-rule="evenodd" stroke-linecap="square"/><path d="M217.93862,169.45965c0,-0.95224 0.39741,-1.72418 0.88763,-1.72418h19.05256c0.23541,0 0.46119,0.18166 0.62765,0.505c0.16646,0.32334 0.25999,0.7619 0.25999,1.21918v24.44642c0,0.95224 -0.39741,1.72418 -0.88764,1.72418h-19.05257c-0.49023,0 -0.88763,-0.77194 -0.88763,-1.72418z" fill-opacity="0.66935" fill="#515151" fill-rule="evenodd" stroke-linecap="square"/><path d="M241.94331,169.76438c0,-0.95224 0.39741,-1.72418 0.88764,-1.72418h19.05257c0.23541,0 0.46118,0.18166 0.62765,0.505c0.16647,0.32334 0.25999,0.7619 0.25999,1.21918v24.44642c0,0.95224 -0.39741,1.72418 -0.88763,1.72418h-19.05257c-0.49023,0 -0.88763,-0.77194 -0.88763,-1.72418z" fill-opacity="0.66935" fill="#515151" fill-rule="evenodd" stroke-linecap="square"/><path d="M265.65196,106.78246c0,-0.95224 0.39741,-1.72418 0.88763,-1.72418h19.05257c0.23541,0 0.46118,0.18166 0.62765,0.505c0.16647,0.32335 0.25999,0.7619 0.25999,1.21918v24.44642c0,0.95224 -0.39741,1.72418 -0.88763,1.72418h-19.05257c-0.49023,0 -0.88763,-0.77194 -0.88763,-1.72418z" fill-opacity="0.66935" fill="#515151" fill-rule="evenodd" stroke-linecap="square"/><path d="M289.66621,106.34982c0,-0.95224 0.39741,-1.72418 0.88763,-1.72418h19.05257c0.23541,0 0.46118,0.18165 0.62765,0.505c0.16647,0.32335 0.25999,0.7619 0.25999,1.21918v24.44642c0,0.95224 -0.39741,1.72418 -0.88763,1.72418h-19.05257c-0.49023,0 -0.88763,-0.77194 -0.88763,-1.72418z" fill-opacity="0.66935" fill="#515151" fill-rule="evenodd" stroke-linecap="square"/><path d="M313.26647,106.65454c0,-0.95224 0.39741,-1.72418 0.88763,-1.72418h19.05257c0.23541,0 0.46119,0.18166 0.62765,0.505c0.16647,0.32335 0.25998,0.7619 0.25998,1.21918v24.44642c0,0.95224 -0.39741,1.72418 -0.88763,1.72418h-19.05257c-0.49023,0 -0.88763,-0.77194 -0.88763,-1.72418z" fill-opacity="0.66935" fill="#515151" fill-rule="evenodd" stroke-linecap="square"/><path d="M265.50951,138.75073c0,-0.95224 0.39741,-1.72418 0.88763,-1.72418h19.05257c0.23541,0 0.46119,0.18166 0.62765,0.505c0.16647,0.32334 0.25998,0.7619 0.25998,1.21918v24.44642c0,0.95224 -0.39741,1.72418 -0.88763,1.72418h-19.05257c-0.49023,0 -0.88763,-0.77194 -0.88763,-1.72418z" fill-opacity="0.66935" fill="#515151" fill-rule="evenodd" stroke-linecap="square"/><path d="M289.52376,137.91365c0,-0.95224 0.39741,-1.72418 0.88763,-1.72418h19.05257c0.23541,0 0.46119,0.18166 0.62765,0.505c0.16647,0.32334 0.25998,0.7619 0.25998,1.21918v24.44642c0,0.95224 -0.39741,1.72418 -0.88763,1.72418h-19.05257c-0.49023,0 -0.88763,-0.77194 -0.88763,-1.72418z" fill-opacity="0.66935" fill="#515151" fill-rule="evenodd" stroke-linecap="square"/><path d="M313.12402,137.81394c0,-0.95224 0.39741,-1.72418 0.88763,-1.72418h19.05257c0.23541,0 0.46119,0.18166 0.62765,0.505c0.16647,0.32334 0.25998,0.7619 0.25998,1.21918v24.44642c0,0.95224 -0.39741,1.72418 -0.88763,1.72418h-19.05257c-0.49023,0 -0.88763,-0.77194 -0.88763,-1.72418z" fill-opacity="0.66935" fill="#515151" fill-rule="evenodd" stroke-linecap="square"/><path d="M265.65628,169.63463c0,-0.95224 0.39741,-1.72418 0.88763,-1.72418h19.05257c0.23541,0 0.46119,0.18166 0.62765,0.505c0.16647,0.32334 0.25998,0.7619 0.25998,1.21918v24.44642c0,0.95224 -0.39741,1.72418 -0.88763,1.72418h-19.05257c-0.49023,0 -0.88763,-0.77194 -0.88763,-1.72418z" fill-opacity="0.66935" fill="#515151" fill-rule="evenodd" stroke-linecap="square"/><path d="M289.67053,169.60642c0,-0.95224 0.39741,-1.72418 0.88763,-1.72418h19.05257c0.23541,0 0.46119,0.18166 0.62765,0.505c0.16647,0.32334 0.25998,0.7619 0.25998,1.21918v24.44642c0,0.95224 -0.39741,1.72418 -0.88763,1.72418h-19.05257c-0.49023,0 -0.88763,-0.77194 -0.88763,-1.72418z" fill-opacity="0.66935" fill="#515151" fill-rule="evenodd" stroke-linecap="square"/><path d="M313.27079,169.91115c0,-0.95224 0.39741,-1.72418 0.88763,-1.72418h19.05257c0.23541,0 0.46119,0.18166 0.62765,0.505c0.16647,0.32334 0.25998,0.7619 0.25998,1.21918v24.44642c0,0.95224 -0.39741,1.72418 -0.88763,1.72418h-19.05257c-0.49023,0 -0.88763,-0.77194 -0.88763,-1.72418z" fill-opacity="0.66935" fill="#515151" fill-rule="evenodd" stroke-linecap="square"/><path d="M121.93478,200.62942c0,-0.95224 0.39741,-1.72418 0.88764,-1.72418h19.05257c0.23541,0 0.46119,0.18166 0.62765,0.505c0.16646,0.32334 0.25999,0.7619 0.25999,1.21918v24.44642c0,0.95224 -0.39741,1.72418 -0.88763,1.72418h-19.05257c-0.49022,0 -0.88763,-0.77194 -0.88763,-1.72418z" fill-opacity="0.66935" fill="#515151" fill-rule="evenodd" stroke-linecap="square"/><path d="M145.94903,200.19678c0,-0.95224 0.39741,-1.72418 0.88763,-1.72418h19.05257c0.23541,0 0.46119,0.18166 0.62765,0.505c0.16646,0.32334 0.25999,0.7619 0.25999,1.21918v24.44642c0,0.95224 -0.39741,1.72418 -0.88763,1.72418h-19.05257c-0.49023,0 -0.88763,-0.77194 -0.88763,-1.72418z" fill-opacity="0.66935" fill="#515151" fill-rule="evenodd" stroke-linecap="square"/><path d="M169.95372,200.5015c0,-0.95224 0.39741,-1.72418 0.88763,-1.72418h19.05256c0.23541,0 0.46119,0.18166 0.62765,0.505c0.16646,0.32334 0.25999,0.7619 0.25999,1.21918v24.44642c0,0.95224 -0.39741,1.72418 -0.88764,1.72418h-19.05257c-0.49023,0 -0.88763,-0.77194 -0.88763,-1.72418z" fill-opacity="0.66935" fill="#515151" fill-rule="evenodd" stroke-linecap="square"/><path d="M194.07114,200.37176c0,-0.95224 0.39741,-1.72418 0.88763,-1.72418h19.05257c0.23541,0 0.46119,0.18166 0.62765,0.505c0.16646,0.32334 0.25999,0.7619 0.25999,1.21918v24.44642c0,0.95224 -0.39741,1.72418 -0.88763,1.72418h-19.05257c-0.49023,0 -0.88763,-0.77194 -0.88763,-1.72418z" fill-opacity="0.66935" fill="#515151" fill-rule="evenodd" stroke-linecap="square"/><path d="M218.08538,199.93911c0,-0.95224 0.39741,-1.72418 0.88763,-1.72418h19.05256c0.23541,0 0.46119,0.18166 0.62765,0.505c0.16646,0.32334 0.25999,0.7619 0.25999,1.21918v24.44642c0,0.95224 -0.39741,1.72418 -0.88764,1.72418h-19.05257c-0.49023,0 -0.88763,-0.77194 -0.88763,-1.72418z" fill-opacity="0.66935" fill="#515151" fill-rule="evenodd" stroke-linecap="square"/><path d="M242.09008,200.24384c0,-0.95224 0.39741,-1.72418 0.88764,-1.72418h19.05257c0.23541,0 0.46118,0.18166 0.62765,0.505c0.16647,0.32334 0.25999,0.7619 0.25999,1.21918v24.44642c0,0.95224 -0.39741,1.72418 -0.88763,1.72418h-19.05257c-0.49023,0 -0.88763,-0.77194 -0.88763,-1.72418z" fill-opacity="0.66935" fill="#515151" fill-rule="evenodd" stroke-linecap="square"/><path d="M265.80305,200.11409c0,-0.95224 0.39741,-1.72418 0.88764,-1.72418h19.05256c0.23541,0 0.46119,0.18166 0.62765,0.505c0.16647,0.32334 0.25998,0.7619 0.25998,1.21918v24.44642c0,0.95224 -0.39741,1.72418 -0.88763,1.72418h-19.05257c-0.49023,0 -0.88763,-0.77194 -0.88763,-1.72418z" fill-opacity="0.66935" fill="#515151" fill-rule="evenodd" stroke-linecap="square"/><path d="M289.8173,199.68144c0,-0.95224 0.39741,-1.72418 0.88763,-1.72418h19.05257c0.23541,0 0.46119,0.18166 0.62765,0.505c0.16647,0.32334 0.25998,0.7619 0.25998,1.21918v24.44642c0,0.95224 -0.39741,1.72418 -0.88763,1.72418h-19.05257c-0.49023,0 -0.88763,-0.77194 -0.88763,-1.72418z" fill-opacity="0.66935" fill="#515151" fill-rule="evenodd" stroke-linecap="square"/><path d="M313.41756,199.98617c0,-0.95224 0.39741,-1.72418 0.88763,-1.72418h19.05256c0.23541,0 0.46119,0.18166 0.62765,0.505c0.16647,0.32334 0.25999,0.7619 0.25999,1.21918v24.44642c0,0.95224 -0.39741,1.72418 -0.88764,1.72418h-19.05257c-0.49023,0 -0.88763,-0.77194 -0.88763,-1.72418z" fill-opacity="0.66935" fill="#515151" fill-rule="evenodd" stroke-linecap="square"/><path d="M337.27496,106.80131c0,-0.95224 0.39741,-1.72418 0.88763,-1.72418h19.05257c0.23541,0 0.46119,0.18166 0.62765,0.505c0.16647,0.32335 0.25998,0.7619 0.25998,1.21918v24.44642c0,0.95224 -0.39741,1.72418 -0.88763,1.72418h-19.05257c-0.49023,0 -0.88763,-0.77194 -0.88763,-1.72418z" fill-opacity="0.66935" fill="#515151" fill-rule="evenodd" stroke-linecap="square"/><path d="M337.13251,137.96071c0,-0.95224 0.39741,-1.72418 0.88763,-1.72418h19.05257c0.23541,0 0.46119,0.18166 0.62765,0.505c0.16647,0.32334 0.25998,0.7619 0.25998,1.21918v24.44642c0,0.95224 -0.39741,1.72418 -0.88763,1.72418h-19.05257c-0.49023,0 -0.88763,-0.77194 -0.88763,-1.72418z" fill-opacity="0.66935" fill="#515151" fill-rule="evenodd" stroke-linecap="square"/><path d="M337.27928,170.05791c0,-0.95224 0.39741,-1.72418 0.88763,-1.72418h19.05257c0.23541,0 0.46119,0.18166 0.62765,0.505c0.16647,0.32334 0.25998,0.7619 0.25998,1.21918v24.44642c0,0.95224 -0.39741,1.72418 -0.88763,1.72418h-19.05257c-0.49023,0 -0.88763,-0.77194 -0.88763,-1.72418z" fill-opacity="0.66935" fill="#515151" fill-rule="evenodd" stroke-linecap="square"/><path d="M337.42605,200.13294c0,-0.95224 0.39741,-1.72418 0.88763,-1.72418h19.05257c0.23541,0 0.46119,0.18166 0.62765,0.505c0.16647,0.32334 0.25998,0.7619 0.25998,1.21918v24.44642c0,0.95224 -0.39741,1.72418 -0.88763,1.72418h-19.05257c-0.49023,0 -0.88763,-0.77194 -0.88763,-1.72418z" fill-opacity="0.66935" fill="#515151" fill-rule="evenodd" stroke-linecap="square"/></g></g></svg>