<svg version="1.1" xmlns="http://www.w3.org/2000/svg" xmlns:xlink="http://www.w3.org/1999/xlink" width="49.91654" height="24.8376" viewBox="0,0,49.91654,24.8376"><g transform="translate(-392.1314,-180.2174)"><g data-paper-data="{&quot;isPaintingLayer&quot;:true}" stroke="none" stroke-width="1" stroke-linecap="square" stroke-linejoin="miter" stroke-miterlimit="10" stroke-dasharray="" stroke-dashoffset="0" style="mix-blend-mode: normal"><path d="M392.1314,181.75261c0,-0.84788 0.95244,-1.53521 2.12732,-1.53521h45.6619c0.56421,0 1.1053,0.16175 1.50424,0.44966c0.39896,0.28791 0.62308,0.6784 0.62308,1.08556v21.76717c0,0.84788 -0.95244,1.53521 -2.12732,1.53521h-45.6619c-1.17489,0 -2.12732,-0.68734 -2.12732,-1.53521z" fill="#ffffff" fill-rule="evenodd"/><path d="M412.05033,197.91281c-0.84268,0 -1.61907,-0.1515 -2.32919,-0.45448c-0.70066,-0.31245 -1.31608,-0.73852 -1.84631,-1.27821c-0.52075,-0.54916 -0.9279,-1.193 -1.22141,-1.93152c-0.28405,-0.748 -0.42607,-1.56226 -0.42607,-2.44281c0,-0.88055 0.14202,-1.69008 0.42607,-2.4286c0.29351,-0.73852 0.70066,-1.38237 1.22141,-1.93152c0.53023,-0.54916 1.14565,-0.97523 1.84631,-1.27821c0.71012,-0.31245 1.48651,-0.46867 2.32919,-0.46867c0.8332,0 1.60013,0.15623 2.30079,0.46868c0.71012,0.30298 1.33029,0.73379 1.86052,1.29242c0.53022,0.54915 0.93736,1.193 1.22141,1.93152c0.28405,0.73852 0.42607,1.54332 0.42607,2.41441c0,0.87108 -0.14202,1.67588 -0.42607,2.41441c-0.28405,0.73852 -0.69119,1.3871 -1.22141,1.94573c-0.53022,0.54915 -1.15039,0.97997 -1.86051,1.29242c-0.70066,0.30298 -1.46759,0.45448 -2.30079,0.45448zM412.05033,196.13752c0.57756,0 1.10305,-0.10888 1.57647,-0.32665c0.48288,-0.21778 0.89948,-0.52076 1.24981,-0.90895c0.35033,-0.3882 0.62491,-0.84268 0.82374,-1.36343c0.19883,-0.53023 0.29825,-1.10779 0.29825,-1.73269c0,-0.62491 -0.09941,-1.19774 -0.29825,-1.71848c-0.19883,-0.53023 -0.47341,-0.98943 -0.82374,-1.37763c-0.35033,-0.3882 -0.76693,-0.68645 -1.24981,-0.89475c-0.47342,-0.21778 -0.9989,-0.32665 -1.57646,-0.32665c-0.57756,0 -1.10779,0.10888 -1.59067,0.32666c-0.48288,0.2083 -0.90422,0.50655 -1.26401,0.89475c-0.35032,0.37872 -0.62017,0.8332 -0.80953,1.36343c-0.18937,0.52075 -0.28405,1.09831 -0.28405,1.73269c0,0.62491 0.09468,1.20246 0.28405,1.73269c0.18937,0.53022 0.45921,0.98943 0.80954,1.37764c0.3598,0.37872 0.78114,0.67698 1.26402,0.89475c0.48288,0.21777 1.01311,0.32666 1.59067,0.32666zM421.49078,194.95872l-0.08521,-1.90312l4.26072,-4.2181h2.3576zM419.90011,197.74238v-12.55491h1.7469v12.55491zM425.90772,197.74238l-3.36596,-3.91986l1.23561,-1.13619l4.36014,5.05605z" fill="#000000" fill-rule="nonzero"/></g></g></svg>