<svg version="1.1" xmlns="http://www.w3.org/2000/svg" xmlns:xlink="http://www.w3.org/1999/xlink" width="46.70345" height="9.05132" viewBox="0,0,46.70345,9.05132"><g transform="translate(-216.64827,-175.47434)"><g data-paper-data="{&quot;isPaintingLayer&quot;:true}" fill="#ffffff" fill-rule="nonzero" stroke="none" stroke-width="1" stroke-linecap="square" stroke-linejoin="miter" stroke-miterlimit="10" stroke-dasharray="" stroke-dashoffset="0" style="mix-blend-mode: normal"><path d="M220.79006,184.52565c-0.59938,0 -1.15161,-0.10775 -1.65671,-0.32326c-0.49836,-0.22224 -0.93611,-0.5253 -1.31325,-0.90917c-0.37041,-0.3906 -0.65999,-0.84856 -0.86876,-1.37386c-0.20204,-0.53204 -0.30306,-1.11121 -0.30306,-1.73753c0,-0.62632 0.10102,-1.20212 0.30306,-1.72742c0.20878,-0.5253 0.49836,-0.98326 0.86876,-1.37386c0.37714,-0.3906 0.81489,-0.69367 1.31325,-0.90917c0.5051,-0.22224 1.05733,-0.33336 1.65671,-0.33336c0.59265,0 1.13815,0.11112 1.63651,0.33336c0.5051,0.21551 0.9462,0.52193 1.32334,0.91927c0.37714,0.3906 0.66672,0.84856 0.86876,1.37386c0.20204,0.5253 0.30306,1.09774 0.30306,1.71732c0,0.61959 -0.10101,1.19203 -0.30306,1.71733c-0.20204,0.5253 -0.49162,0.98662 -0.86876,1.38396c-0.37714,0.3906 -0.81825,0.69703 -1.32334,0.91927c-0.49836,0.21551 -1.04386,0.32326 -1.63651,0.32326zM220.79006,183.26292c0.41081,0 0.78458,-0.07745 1.12131,-0.23235c0.34347,-0.1549 0.63979,-0.3704 0.88897,-0.64652c0.24918,-0.27612 0.44448,-0.59938 0.58591,-0.96979c0.14142,-0.37714 0.21214,-0.78795 0.21214,-1.23243c0,-0.44448 -0.07072,-0.85192 -0.21214,-1.22233c-0.14142,-0.37714 -0.33673,-0.70377 -0.58591,-0.97988c-0.24918,-0.27612 -0.5455,-0.48826 -0.88897,-0.63642c-0.33673,-0.1549 -0.7105,-0.23234 -1.12131,-0.23234c-0.41081,0 -0.78795,0.07745 -1.13142,0.23234c-0.34347,0.14816 -0.64315,0.3603 -0.89907,0.63642c-0.24918,0.26938 -0.44112,0.59265 -0.57581,0.96979c-0.13469,0.37041 -0.20204,0.78121 -0.20204,1.23243c0,0.44448 0.06735,0.85529 0.20204,1.23243c0.13469,0.37714 0.32663,0.70377 0.57581,0.97989c0.25591,0.26938 0.5556,0.48152 0.89907,0.63642c0.34347,0.1549 0.72061,0.23235 1.13142,0.23235zM229.06056,184.52565c-0.58591,0 -1.11121,-0.14479 -1.5759,-0.43438c-0.45795,-0.28959 -0.82162,-0.68357 -1.091,-1.18193c-0.26938,-0.49836 -0.40408,-1.05733 -0.40408,-1.67691c0,-0.61959 0.13469,-1.17856 0.40408,-1.67692c0.26938,-0.49836 0.63305,-0.89233 1.091,-1.18192c0.46469,-0.28959 0.98998,-0.43438 1.5759,-0.43438c0.56571,0 1.07754,0.11449 1.53549,0.34346c0.46469,0.22897 0.81825,0.54214 1.0607,0.93948l-0.68693,0.83846c-0.12795,-0.18184 -0.29295,-0.3502 -0.49499,-0.5051c-0.20204,-0.1549 -0.41755,-0.27612 -0.64652,-0.36366c-0.22224,-0.08755 -0.43774,-0.13133 -0.64652,-0.13133c-0.38387,0 -0.72734,0.09428 -1.03039,0.28285c-0.30306,0.18857 -0.54214,0.44786 -0.71724,0.77785c-0.1751,0.32999 -0.26265,0.7004 -0.26265,1.11121c0,0.41081 0.09091,0.78122 0.27275,1.11121c0.18857,0.32326 0.43439,0.58254 0.73744,0.77784c0.30306,0.18857 0.63978,0.28286 1.01019,0.28286c0.22224,0 0.43438,-0.03704 0.63642,-0.11112c0.20204,-0.07408 0.40071,-0.18184 0.59601,-0.32326c0.1953,-0.14816 0.37714,-0.32663 0.5455,-0.5354l0.68693,0.84856c-0.25591,0.36367 -0.62296,0.66335 -1.10111,0.89906c-0.47815,0.22897 -0.97652,0.34347 -1.49508,0.34347zM233.61441,184.40443v-7.9502h1.24254v7.9502zM232.29106,179.28277v-1.21222h4.03066v1.21222zM240.24652,184.52565c-0.61959,0 -1.17519,-0.14142 -1.66681,-0.42428c-0.48489,-0.28959 -0.86876,-0.68019 -1.15162,-1.17182c-0.27612,-0.49836 -0.41418,-1.06407 -0.41418,-1.69712c0,-0.63305 0.13806,-1.19539 0.41418,-1.68702c0.28286,-0.49836 0.66673,-0.88896 1.15162,-1.17182c0.49162,-0.28959 1.04723,-0.43438 1.66681,-0.43438c0.60611,0 1.15161,0.14479 1.6365,0.43438c0.49162,0.28286 0.87886,0.67346 1.16172,1.17182c0.28286,0.49162 0.42428,1.05397 0.42428,1.68702c0,0.63305 -0.14142,1.19876 -0.42428,1.69712c-0.28286,0.49162 -0.6701,0.88223 -1.16172,1.17182c-0.48489,0.28286 -1.03039,0.42428 -1.6365,0.42428zM240.24652,183.39424c0.37714,0 0.71387,-0.09429 1.01019,-0.28286c0.29632,-0.18857 0.52867,-0.44448 0.69703,-0.76774c0.16836,-0.32999 0.24918,-0.7004 0.24245,-1.11121c0.00673,-0.41754 -0.07408,-0.78795 -0.24245,-1.11121c-0.16836,-0.32999 -0.40071,-0.58591 -0.69703,-0.76774c-0.29632,-0.18857 -0.63305,-0.28286 -1.01019,-0.28286c-0.37714,0 -0.71723,0.09429 -1.02029,0.28286c-0.30306,0.18857 -0.53877,0.44785 -0.70713,0.77784c-0.16836,0.32326 -0.24918,0.6903 -0.24245,1.10111c-0.00673,0.41081 0.07408,0.78122 0.24245,1.11121c0.16836,0.32326 0.40408,0.57917 0.70713,0.76774c0.30306,0.18857 0.64315,0.28286 1.02029,0.28286zM248.14934,184.52565c-0.27612,0 -0.54887,-0.04378 -0.81826,-0.13133c-0.26938,-0.08755 -0.5152,-0.20541 -0.73744,-0.35357c-0.22224,-0.1549 -0.40744,-0.3199 -0.5556,-0.49499c-0.14816,-0.18184 -0.24581,-0.36703 -0.29296,-0.5556l0.31316,-0.16164v1.53549h-1.24254v-8.88967h1.24254v4.04076l-0.19194,-0.10102c0.04041,-0.18857 0.12796,-0.36704 0.26265,-0.5354c0.13469,-0.1751 0.3098,-0.33336 0.5253,-0.47479c0.21551,-0.14142 0.44785,-0.25254 0.69703,-0.33336c0.24918,-0.08755 0.50173,-0.13133 0.75764,-0.13133c0.57244,0 1.07754,0.14142 1.51529,0.42428c0.44448,0.28286 0.79468,0.67009 1.0506,1.16172c0.25591,0.49162 0.38387,1.05733 0.38387,1.69712c0,0.63305 -0.12796,1.19876 -0.38387,1.69712c-0.24918,0.49836 -0.59601,0.89233 -1.0405,1.18192c-0.43775,0.28286 -0.93274,0.42428 -1.48498,0.42428zM247.9372,183.39424c0.37041,0 0.70039,-0.09429 0.98998,-0.28286c0.28959,-0.18857 0.51856,-0.44448 0.68693,-0.76774c0.16836,-0.32999 0.25255,-0.70377 0.25255,-1.12131c0,-0.41081 -0.08419,-0.77784 -0.25255,-1.1011c-0.16163,-0.32999 -0.38723,-0.58591 -0.67682,-0.76774c-0.28959,-0.18857 -0.62295,-0.28286 -1.00009,-0.28286c-0.37714,0 -0.7105,0.09429 -1.00009,0.28286c-0.28959,0.18184 -0.51856,0.43775 -0.68693,0.76774c-0.16836,0.32326 -0.25255,0.69029 -0.25255,1.1011c0,0.41754 0.08419,0.79132 0.25255,1.12131c0.16836,0.32326 0.39734,0.57917 0.68693,0.76774c0.28959,0.18857 0.62295,0.28286 1.00009,0.28286zM255.36433,184.52565c-0.64652,0 -1.22233,-0.13806 -1.72743,-0.41418c-0.49836,-0.27612 -0.89233,-0.65662 -1.18192,-1.14151c-0.28286,-0.48489 -0.42428,-1.0405 -0.42428,-1.66682c0,-0.49836 0.08082,-0.95294 0.24245,-1.36375c0.16163,-0.41081 0.38387,-0.76438 0.66673,-1.0607c0.28286,-0.30306 0.62295,-0.5354 1.02029,-0.69703c0.40408,-0.16836 0.83846,-0.25255 1.30315,-0.25255c0.41081,0 0.79131,0.07745 1.14151,0.23235c0.35693,0.1549 0.66336,0.3704 0.91927,0.64652c0.26265,0.27612 0.46469,0.60275 0.60612,0.97989c0.14142,0.37041 0.20877,0.77448 0.20203,1.21223l-0.0101,0.5354h-5.17217l-0.28286,-0.98998h4.37412l-0.17173,0.20203v-0.28285c-0.02694,-0.26938 -0.11785,-0.50846 -0.27275,-0.71724c-0.14816,-0.20878 -0.3401,-0.37377 -0.57581,-0.49499c-0.23571,-0.12123 -0.48826,-0.18184 -0.75764,-0.18184c-0.43775,0 -0.80478,0.08419 -1.1011,0.25255c-0.29632,0.16163 -0.52193,0.40407 -0.67683,0.72733c-0.14816,0.31653 -0.22224,0.70713 -0.22224,1.17182c0,0.43775 0.09092,0.82162 0.27275,1.15162c0.18184,0.32326 0.44112,0.57581 0.77785,0.75764c0.34347,0.1751 0.73407,0.26265 1.17182,0.26265c0.31653,0 0.60948,-0.05051 0.87886,-0.15153c0.26938,-0.10775 0.56234,-0.29969 0.87886,-0.57581l0.62632,0.87887c-0.1953,0.1953 -0.43101,0.36704 -0.70713,0.5152c-0.27612,0.14142 -0.56907,0.25592 -0.87886,0.34347c-0.30979,0.08082 -0.61622,0.12122 -0.91927,0.12122zM259.48271,184.40443v-6.33389h1.25263v1.99007l-0.12123,-0.48489c0.08755,-0.30306 0.23909,-0.57918 0.45459,-0.82836c0.21551,-0.24918 0.46131,-0.44448 0.73743,-0.58591c0.27612,-0.14816 0.56234,-0.22224 0.85867,-0.22224c0.13469,0 0.26264,0.01346 0.38387,0.0404c0.12795,0.02021 0.22897,0.04714 0.30306,0.08082l-0.32326,1.35366c-0.09429,-0.04041 -0.20203,-0.07408 -0.32326,-0.10102c-0.11449,-0.03367 -0.22898,-0.05051 -0.34347,-0.05051c-0.21551,0 -0.42091,0.04378 -0.61622,0.13133c-0.1953,0.08082 -0.3704,0.19867 -0.5253,0.35357c-0.14816,0.14816 -0.26602,0.31989 -0.35357,0.5152c-0.08755,0.1953 -0.13133,0.41081 -0.13133,0.64652v3.49526z"/></g></g></svg>