<svg version="1.1" xmlns="http://www.w3.org/2000/svg" xmlns:xlink="http://www.w3.org/1999/xlink" width="720" height="540" viewBox="0,0,720,540"><defs><clipPath id="clip-1"><rect x="-240" y="-180" transform="scale(0.5,0.5)" width="1440" height="1080" fill="none" fill-rule="nonzero" stroke-width="0.5" stroke-linecap="butt"/></clipPath></defs><g transform="translate(120,90)"><g clip-path="url(#clip-1)" data-paper-data="{&quot;isPaintingLayer&quot;:true}" stroke="none" stroke-linejoin="miter" stroke-miterlimit="10" stroke-dasharray="" stroke-dashoffset="0" style="mix-blend-mode: normal"><path d="M43.81267,81.45038v0c0,-8.96665 7.26891,-16.23556 16.23556,-16.23556h348.48703c4.30594,0 8.43553,1.71053 11.48028,4.75528c3.04478,3.04477 4.75528,7.17434 4.75528,11.48028v230.19757c0,8.96665 -7.26891,16.23556 -16.23556,16.23556h-348.48703v0c-8.96665,0 -16.23556,-7.26891 -16.23556,-16.23556z" fill-opacity="0.86769" fill="#1d1d1d" fill-rule="evenodd" stroke-width="1" stroke-linecap="square"/><path d="M-240,-180h960v720h-960z" fill-opacity="0" fill="#000000" fill-rule="evenodd" stroke-width="1" stroke-linecap="square"/><path d="M64.62641,90.60298c-0.85417,0 -1.63021,-0.09896 -2.32812,-0.29687c-0.6875,-0.20833 -1.30208,-0.51042 -1.84375,-0.90625c-0.53125,-0.39583 -1.00521,-0.85937 -1.42187,-1.39062l1.92188,-2.1875c0.625,0.83333 1.25,1.39583 1.875,1.6875c0.625,0.28125 1.27604,0.42188 1.95313,0.42188c0.33333,0 0.63542,-0.04167 0.90625,-0.125c0.27083,-0.09375 0.47917,-0.22396 0.625,-0.39062c0.15625,-0.16667 0.23438,-0.375 0.23438,-0.625c0,-0.1875 -0.04687,-0.35417 -0.14062,-0.5c-0.09375,-0.14583 -0.22396,-0.27604 -0.39062,-0.39062c-0.15625,-0.11458 -0.34896,-0.21875 -0.57812,-0.3125c-0.21875,-0.09375 -0.45312,-0.17187 -0.70312,-0.23437c-0.25,-0.07292 -0.50521,-0.13542 -0.76562,-0.1875c-0.71875,-0.15625 -1.34896,-0.34896 -1.89062,-0.57812c-0.53125,-0.23958 -0.97396,-0.53125 -1.32812,-0.875c-0.35417,-0.34375 -0.61979,-0.73437 -0.79687,-1.17187c-0.16667,-0.44792 -0.25,-0.94271 -0.25,-1.48437c0,-0.59375 0.13021,-1.13542 0.39063,-1.625c0.27083,-0.48958 0.63021,-0.91146 1.07813,-1.26562c0.45833,-0.35417 0.98438,-0.625 1.57813,-0.8125c0.60417,-0.19792 1.22917,-0.29687 1.875,-0.29687c0.85417,0 1.58854,0.09375 2.20313,0.28125c0.625,0.17708 1.15625,0.43229 1.59375,0.76563c0.4375,0.33333 0.8125,0.73958 1.125,1.21875l-1.95312,1.875c-0.26042,-0.32292 -0.54687,-0.58854 -0.85937,-0.79687c-0.30208,-0.20833 -0.625,-0.36979 -0.96875,-0.48437c-0.33333,-0.11458 -0.68229,-0.17187 -1.04687,-0.17187c-0.375,0 -0.69792,0.04688 -0.96875,0.14063c-0.26042,0.09375 -0.46875,0.22396 -0.625,0.39063c-0.14583,0.16667 -0.21875,0.36979 -0.21875,0.60938c0,0.20833 0.0625,0.39063 0.1875,0.54688c0.125,0.14583 0.29167,0.28125 0.5,0.40625c0.21875,0.11458 0.46354,0.21354 0.73438,0.29688c0.27083,0.07292 0.55729,0.13542 0.85938,0.1875c0.6875,0.13542 1.30729,0.31771 1.85938,0.54688c0.55208,0.21875 1.02604,0.48958 1.42188,0.8125c0.40625,0.32292 0.71875,0.70833 0.9375,1.15625c0.21875,0.4375 0.32813,0.94792 0.32813,1.53125c0,0.90625 -0.22396,1.67708 -0.67187,2.3125c-0.4375,0.625 -1.03646,1.10417 -1.79687,1.4375c-0.76042,0.32292 -1.64062,0.48438 -2.64062,0.48438zM76.5326,90.60298c-1.09375,0 -2.04687,-0.21875 -2.85937,-0.65625c-0.80208,-0.44792 -1.42708,-1.05208 -1.875,-1.8125c-0.44792,-0.77083 -0.67187,-1.64583 -0.67187,-2.625c0,-0.76042 0.11979,-1.45833 0.35938,-2.09375c0.25,-0.63542 0.59896,-1.18229 1.04688,-1.64062c0.44792,-0.46875 0.97917,-0.82812 1.59375,-1.07812c0.625,-0.26042 1.30208,-0.39062 2.03125,-0.39062c0.69792,0 1.33333,0.125 1.90625,0.375c0.58333,0.25 1.08333,0.59896 1.5,1.04688c0.42708,0.44792 0.75,0.97917 0.96875,1.59375c0.22917,0.60417 0.33333,1.26563 0.3125,1.98438l-0.03125,0.79688h-7.89062l-0.42187,-1.67187h5.89063l-0.3125,0.34375v-0.35937c-0.02083,-0.3125 -0.11979,-0.58854 -0.29687,-0.82812c-0.16667,-0.25 -0.38542,-0.44271 -0.65625,-0.57812c-0.27083,-0.13542 -0.58333,-0.20312 -0.9375,-0.20312c-0.47917,0 -0.89062,0.09896 -1.23437,0.29688c-0.34375,0.1875 -0.60417,0.46354 -0.78125,0.82813c-0.16667,0.36458 -0.25,0.81771 -0.25,1.35938c0,0.54167 0.11458,1.01563 0.34375,1.42188c0.22917,0.40625 0.5625,0.72396 1,0.95313c0.44792,0.21875 0.97396,0.32813 1.57813,0.32813c0.42708,0 0.80208,-0.0625 1.125,-0.1875c0.33333,-0.125 0.69271,-0.33854 1.07813,-0.64062l1.40625,1.98438c-0.38542,0.33333 -0.79687,0.60938 -1.23437,0.82813c-0.4375,0.20833 -0.88542,0.36458 -1.34375,0.46875c-0.44792,0.10417 -0.89583,0.15625 -1.34375,0.15625zM83.55892,90.41548v-12.40625h2.98438v12.40625zM81.80892,83.11861v-2.60937h6.65625v2.60938zM93.54661,90.61861c-0.73958,0 -1.36979,-0.15625 -1.89062,-0.46875c-0.51042,-0.32292 -0.90625,-0.78125 -1.1875,-1.375c-0.27083,-0.59375 -0.40625,-1.30729 -0.40625,-2.14062v-6.125h3v5.70313c0,0.40625 0.0625,0.75 0.1875,1.03125c0.125,0.28125 0.30729,0.5 0.54688,0.65625c0.25,0.15625 0.55208,0.23438 0.90625,0.23438c0.26042,0 0.5,-0.04167 0.71875,-0.125c0.21875,-0.08333 0.40625,-0.20312 0.5625,-0.35937c0.15625,-0.15625 0.27604,-0.33854 0.35938,-0.54687c0.08333,-0.20833 0.125,-0.4375 0.125,-0.6875v-5.90625h3.01563v9.90625h-2.82812l-0.125,-2.03125l0.5625,-0.21875c-0.15625,0.46875 -0.40625,0.88542 -0.75,1.25c-0.34375,0.36458 -0.76042,0.65625 -1.25,0.875c-0.48958,0.21875 -1.00521,0.32813 -1.54687,0.32813zM102.14892,94.52486v-14.01562h2.82813l0.10938,2.21875l-0.54687,-0.17187c0.08333,-0.40625 0.29167,-0.77604 0.625,-1.10937c0.33333,-0.34375 0.76042,-0.61458 1.28125,-0.8125c0.52083,-0.20833 1.0625,-0.3125 1.625,-0.3125c0.85417,0 1.60938,0.22396 2.26563,0.67188c0.65625,0.4375 1.17188,1.04167 1.54688,1.8125c0.38542,0.76042 0.57813,1.64063 0.57813,2.64063c0,1 -0.19271,1.88542 -0.57812,2.65625c-0.375,0.77083 -0.89583,1.38021 -1.5625,1.82813c-0.66667,0.4375 -1.42708,0.65625 -2.28125,0.65625c-0.5625,0 -1.09896,-0.10417 -1.60937,-0.3125c-0.51042,-0.21875 -0.9375,-0.50521 -1.28125,-0.85937c-0.34375,-0.36458 -0.57292,-0.76042 -0.6875,-1.1875l0.6875,-0.25v6.54688zM107.32079,88.07173c0.4375,0 0.82292,-0.10937 1.15625,-0.32812c0.34375,-0.21875 0.60938,-0.52083 0.79688,-0.90625c0.1875,-0.38542 0.28125,-0.84896 0.28125,-1.39062c0,-0.52083 -0.09375,-0.97396 -0.28125,-1.35937c-0.1875,-0.39583 -0.44792,-0.70312 -0.78125,-0.92187c-0.32292,-0.21875 -0.71354,-0.32812 -1.17187,-0.32812c-0.46875,0 -0.86979,0.10938 -1.20312,0.32813c-0.33333,0.20833 -0.59375,0.51042 -0.78125,0.90625c-0.1875,0.39583 -0.28125,0.85417 -0.28125,1.375c0,0.54167 0.09375,1.00521 0.28125,1.39063c0.1875,0.38542 0.44792,0.6875 0.78125,0.90625c0.33333,0.21875 0.73438,0.32813 1.20313,0.32813z" fill="#ffffff" fill-rule="nonzero" stroke-width="1" stroke-linecap="square"/></g></g></svg>