<svg version="1.1" xmlns="http://www.w3.org/2000/svg" xmlns:xlink="http://www.w3.org/1999/xlink" width="720" height="540" viewBox="0,0,720,540"><defs><clipPath id="clip-1"><rect x="-240" y="-180" transform="scale(0.5,0.5)" width="1440" height="1080" fill="none" fill-rule="nonzero" stroke-width="0.5" stroke-linecap="butt"/></clipPath></defs><g transform="translate(120,90)"><g clip-path="url(#clip-1)" data-paper-data="{&quot;isPaintingLayer&quot;:true}" stroke="none" stroke-linejoin="miter" stroke-miterlimit="10" stroke-dasharray="" stroke-dashoffset="0" style="mix-blend-mode: normal"><path d="M43.81267,81.45038v0c0,-8.96665 7.26891,-16.23556 16.23556,-16.23556h348.48703c4.30594,0 8.43553,1.71053 11.48028,4.75528c3.04478,3.04477 4.75528,7.17434 4.75528,11.48028v230.19757c0,8.96665 -7.26891,16.23556 -16.23556,16.23556h-348.48703v0c-8.96665,0 -16.23556,-7.26891 -16.23556,-16.23556z" fill-opacity="0.86769" fill="#1d1d1d" fill-rule="evenodd" stroke-width="1" stroke-linecap="square"/><path d="M-240,-180h960v720h-960z" fill-opacity="0" fill="#000000" fill-rule="evenodd" stroke-width="1" stroke-linecap="square"/><path d="M129.11295,130.94764v-10.12648h-3.32809v-1.7636h8.59045v1.7636h-3.42764v10.12648h-1.83471zM137.92068,131.11831c-0.73009,0 -1.39856,-0.20386 -2.00538,-0.61157c-0.60683,-0.40772 -1.09513,-0.96239 -1.46492,-1.66404c-0.3603,-0.70164 -0.54046,-1.49337 -0.54046,-2.37517c0,-0.90076 0.1849,-1.69723 0.55469,-2.38939c0.36979,-0.69217 0.86758,-1.23736 1.49338,-1.63559c0.63528,-0.39823 1.34167,-0.59735 2.11917,-0.59735c0.46461,0 0.88654,0.07112 1.26581,0.21334c0.38875,0.13274 0.72536,0.32238 1.00981,0.5689c0.29394,0.23705 0.53097,0.51676 0.71113,0.83914c0.18963,0.3129 0.30815,0.6495 0.35557,1.00981l-0.38401,-0.128v-2.31828h1.7636v8.91757h-1.7636v-2.11916l0.39823,-0.128c-0.06638,0.3129 -0.20386,0.61631 -0.41245,0.91025c-0.2086,0.28445 -0.47408,0.54046 -0.79646,0.76802c-0.32238,0.21808 -0.67794,0.39823 -1.06669,0.54046c-0.38875,0.13274 -0.80121,0.19912 -1.23736,0.19912zM138.3758,129.51116c0.54046,0 1.00981,-0.128 1.40804,-0.38401c0.40772,-0.26549 0.72536,-0.62579 0.95292,-1.08092c0.23705,-0.46461 0.35557,-0.99084 0.35557,-1.5787c0,-0.57839 -0.11852,-1.09513 -0.35556,-1.55026c-0.22756,-0.45512 -0.5452,-0.81068 -0.95291,-1.06669c-0.39823,-0.26549 -0.86757,-0.39823 -1.40803,-0.39823c-0.5215,0 -0.98135,0.13274 -1.37959,0.39823c-0.39823,0.25601 -0.71587,0.61158 -0.95291,1.0667c-0.22756,0.45512 -0.34134,0.97188 -0.34134,1.55027c0,0.58786 0.11378,1.1141 0.34134,1.57871c0.23705,0.45512 0.55469,0.81543 0.95292,1.08092c0.39823,0.25601 0.8581,0.38401 1.3796,0.38401zM145.24249,134.68818v-12.6581h1.7636v2.03383l-0.27022,-0.14223c0.06638,-0.34134 0.25601,-0.66846 0.5689,-0.98135c0.32238,-0.3129 0.71113,-0.5689 1.16625,-0.76802c0.46461,-0.19912 0.93869,-0.29867 1.42226,-0.29867c0.80595,0 1.51708,0.19912 2.13339,0.59735c0.62579,0.39823 1.11885,0.94343 1.47915,1.6356c0.36979,0.69217 0.55469,1.48389 0.55469,2.37518c0,0.8818 -0.18016,1.67352 -0.54046,2.37518c-0.3603,0.69217 -0.85336,1.2421 -1.47915,1.64982c-0.61631,0.39823 -1.31322,0.59735 -2.09072,0.59735c-0.5215,0 -1.02877,-0.1043 -1.52181,-0.3129c-0.48357,-0.2086 -0.89602,-0.47883 -1.23736,-0.81068c-0.34134,-0.33186 -0.54994,-0.6732 -0.62579,-1.02403l0.4409,-0.22756v5.95927zM149.6515,129.48272c0.5215,0 0.9861,-0.128 1.39381,-0.38401c0.40772,-0.26549 0.73009,-0.62105 0.96714,-1.06669c0.23705,-0.45512 0.35557,-0.97188 0.35557,-1.55026c0,-0.57839 -0.11852,-1.0904 -0.35556,-1.53604c-0.22756,-0.44564 -0.5452,-0.79646 -0.95291,-1.05247c-0.39823,-0.26549 -0.86757,-0.39823 -1.40803,-0.39823c-0.53097,0 -1.00032,0.12801 -1.40803,0.38401c-0.40772,0.25601 -0.73009,0.61158 -0.96714,1.0667c-0.23705,0.44564 -0.35556,0.95765 -0.35556,1.53604c0,0.57839 0.11852,1.09514 0.35557,1.55027c0.23705,0.44564 0.55942,0.80121 0.96714,1.0667c0.40772,0.25601 0.87706,0.38401 1.40804,0.38401zM164.14053,131.11831c-0.73009,0 -1.39856,-0.20386 -2.00538,-0.61157c-0.60683,-0.40772 -1.09513,-0.96239 -1.46492,-1.66404c-0.3603,-0.70164 -0.54046,-1.49337 -0.54046,-2.37517c0,-0.90076 0.1849,-1.69723 0.55469,-2.38939c0.36979,-0.69217 0.86758,-1.23736 1.49338,-1.63559c0.63528,-0.39823 1.34167,-0.59735 2.11917,-0.59735c0.46461,0 0.88654,0.07112 1.26581,0.21334c0.38875,0.13274 0.72536,0.32238 1.00981,0.5689c0.29394,0.23705 0.53097,0.51676 0.71113,0.83914c0.18963,0.3129 0.30815,0.6495 0.35557,1.00981l-0.38401,-0.128v-2.31828h1.7636v8.91757h-1.7636v-2.11916l0.39823,-0.128c-0.06638,0.3129 -0.20386,0.61631 -0.41245,0.91025c-0.2086,0.28445 -0.47408,0.54046 -0.79646,0.76802c-0.32238,0.21808 -0.67794,0.39823 -1.06669,0.54046c-0.38875,0.13274 -0.80121,0.19912 -1.23736,0.19912zM164.59565,129.51116c0.54046,0 1.00981,-0.128 1.40804,-0.38401c0.40772,-0.26549 0.72536,-0.62579 0.95292,-1.08092c0.23705,-0.46461 0.35557,-0.99084 0.35557,-1.5787c0,-0.57839 -0.11852,-1.09513 -0.35556,-1.55026c-0.22756,-0.45512 -0.5452,-0.81068 -0.95291,-1.06669c-0.39823,-0.26549 -0.86757,-0.39823 -1.40803,-0.39823c-0.5215,0 -0.98135,0.13274 -1.37959,0.39823c-0.39823,0.25601 -0.71587,0.61158 -0.95291,1.0667c-0.22756,0.45512 -0.34134,0.97188 -0.34134,1.55027c0,0.58786 0.11378,1.1141 0.34134,1.57871c0.23705,0.45512 0.55469,0.81543 0.95292,1.08092c0.39823,0.25601 0.8581,0.38401 1.3796,0.38401zM171.46234,130.94764v-8.91756h1.74938v1.83472l-0.3129,0.19912c0.11378,-0.38875 0.3366,-0.74906 0.66847,-1.08092c0.33186,-0.34134 0.72061,-0.61631 1.16625,-0.82491c0.45512,-0.2086 0.91973,-0.3129 1.39381,-0.3129c0.68268,0 1.24685,0.13274 1.69249,0.39823c0.45512,0.26549 0.79646,0.6732 1.02403,1.22314c0.22756,0.54046 0.34134,1.22314 0.34134,2.04805v5.43303h-1.74937v-5.31925c0,-0.50253 -0.06638,-0.91973 -0.19912,-1.25159c-0.13274,-0.34134 -0.34134,-0.58786 -0.62579,-0.73957c-0.28445,-0.15171 -0.63528,-0.21808 -1.05247,-0.19912c-0.34134,0 -0.65424,0.05689 -0.93869,0.17067c-0.28445,0.1043 -0.53097,0.25601 -0.73957,0.45512c-0.2086,0.18963 -0.37453,0.41246 -0.49779,0.66847c-0.11378,0.24652 -0.17067,0.51676 -0.17067,0.81069v5.40458h-0.86757c-0.14223,0 -0.28919,0 -0.4409,0c-0.15171,0 -0.29867,0 -0.4409,0zM190.33216,131.11831c-0.87232,0 -1.65456,-0.19912 -2.34672,-0.59735c-0.68268,-0.40772 -1.22314,-0.95765 -1.62137,-1.64982c-0.38875,-0.70164 -0.58312,-1.49811 -0.58312,-2.38939c0,-0.89129 0.19437,-1.68301 0.58313,-2.37517c0.39823,-0.70164 0.93869,-1.25159 1.62137,-1.64982c0.69217,-0.40772 1.47441,-0.61157 2.34673,-0.61157c0.85336,0 1.62137,0.20386 2.30406,0.61158c0.69217,0.39823 1.23737,0.94818 1.6356,1.64982c0.39823,0.69217 0.59735,1.48389 0.59735,2.37518c0,0.89129 -0.19912,1.68775 -0.59735,2.38939c-0.39823,0.69217 -0.94343,1.2421 -1.63559,1.64982c-0.68268,0.39823 -1.4507,0.59735 -2.30406,0.59735zM190.33216,129.52538c0.53097,0 1.00507,-0.13274 1.42226,-0.39823c0.41719,-0.26549 0.74432,-0.62579 0.98136,-1.08092c0.23705,-0.46461 0.35083,-0.9861 0.34134,-1.56448c0.00948,-0.58786 -0.1043,-1.10936 -0.34134,-1.56448c-0.23705,-0.46461 -0.56416,-0.82491 -0.98135,-1.08092c-0.41719,-0.26549 -0.89129,-0.39823 -1.42226,-0.39823c-0.53097,0 -1.0098,0.13274 -1.43648,0.39823c-0.42668,0.26549 -0.75853,0.63054 -0.99558,1.09514c-0.23705,0.45512 -0.35083,0.97188 -0.34134,1.55027c-0.00948,0.57839 0.1043,1.09988 0.34134,1.56448c0.23705,0.45512 0.5689,0.81543 0.99558,1.08092c0.42668,0.26549 0.9055,0.39823 1.43649,0.39823zM196.76518,134.68818v-12.6581h1.7636v2.03383l-0.27022,-0.14223c0.06638,-0.34134 0.25601,-0.66846 0.5689,-0.98135c0.32238,-0.3129 0.71113,-0.5689 1.16625,-0.76802c0.46461,-0.19912 0.93869,-0.29867 1.42226,-0.29867c0.80595,0 1.51708,0.19912 2.13339,0.59735c0.62579,0.39823 1.11885,0.94343 1.47915,1.6356c0.36979,0.69217 0.55469,1.48389 0.55469,2.37518c0,0.8818 -0.18016,1.67352 -0.54046,2.37518c-0.3603,0.69217 -0.85336,1.2421 -1.47915,1.64982c-0.61631,0.39823 -1.31322,0.59735 -2.09072,0.59735c-0.5215,0 -1.02877,-0.1043 -1.52181,-0.3129c-0.48357,-0.2086 -0.89602,-0.47883 -1.23736,-0.81068c-0.34134,-0.33186 -0.54994,-0.6732 -0.62579,-1.02403l0.4409,-0.22756v5.95927zM201.17418,129.48272c0.5215,0 0.9861,-0.128 1.39381,-0.38401c0.40772,-0.26549 0.73009,-0.62105 0.96714,-1.06669c0.23705,-0.45512 0.35557,-0.97188 0.35557,-1.55026c0,-0.57839 -0.11852,-1.0904 -0.35556,-1.53604c-0.22756,-0.44564 -0.5452,-0.79646 -0.95291,-1.05247c-0.39823,-0.26549 -0.86757,-0.39823 -1.40803,-0.39823c-0.53097,0 -1.00032,0.12801 -1.40803,0.38401c-0.40772,0.25601 -0.73009,0.61158 -0.96714,1.0667c-0.23705,0.44564 -0.35556,0.95765 -0.35556,1.53604c0,0.57839 0.11852,1.09514 0.35557,1.55027c0.23705,0.44564 0.55942,0.80121 0.96714,1.0667c0.40772,0.25601 0.87706,0.38401 1.40804,0.38401zM208.59004,130.94764v-11.19317h1.74938v11.19318zM206.72688,123.73679v-1.70671h5.67482v1.70671zM214.28613,130.94764v-8.91756h1.74938v8.91757zM215.13949,120.06737c-0.36979,0 -0.65898,-0.09482 -0.86757,-0.28445c-0.19912,-0.19912 -0.29867,-0.47408 -0.29867,-0.82491c0,-0.33186 0.1043,-0.59735 0.3129,-0.79646c0.2086,-0.2086 0.49305,-0.3129 0.85336,-0.3129c0.36979,0 0.65424,0.09956 0.85336,0.29868c0.2086,0.18963 0.3129,0.45987 0.3129,0.81069c0,0.33186 -0.1043,0.60209 -0.3129,0.81069c-0.2086,0.19912 -0.49305,0.29868 -0.85336,0.29868zM222.73338,131.11831c-0.87232,0 -1.65456,-0.19912 -2.34672,-0.59735c-0.68268,-0.40772 -1.22314,-0.95765 -1.62137,-1.64982c-0.38875,-0.70164 -0.58312,-1.49811 -0.58312,-2.38939c0,-0.89129 0.19437,-1.68301 0.58313,-2.37517c0.39823,-0.70164 0.93869,-1.25159 1.62137,-1.64982c0.69217,-0.40772 1.47441,-0.61157 2.34673,-0.61157c0.85336,0 1.62137,0.20386 2.30406,0.61158c0.69217,0.39823 1.23737,0.94818 1.6356,1.64982c0.39823,0.69217 0.59735,1.48389 0.59735,2.37518c0,0.89129 -0.19912,1.68775 -0.59735,2.38939c-0.39823,0.69217 -0.94343,1.2421 -1.63559,1.64982c-0.68268,0.39823 -1.4507,0.59735 -2.30406,0.59735zM222.73338,129.52538c0.53097,0 1.00507,-0.13274 1.42226,-0.39823c0.41719,-0.26549 0.74432,-0.62579 0.98136,-1.08092c0.23705,-0.46461 0.35083,-0.9861 0.34134,-1.56448c0.00948,-0.58786 -0.1043,-1.10936 -0.34134,-1.56448c-0.23705,-0.46461 -0.56416,-0.82491 -0.98135,-1.08092c-0.41719,-0.26549 -0.89129,-0.39823 -1.42226,-0.39823c-0.53097,0 -1.0098,0.13274 -1.43648,0.39823c-0.42668,0.26549 -0.75853,0.63054 -0.99558,1.09514c-0.23705,0.45512 -0.35083,0.97188 -0.34134,1.55027c-0.00948,0.57839 0.1043,1.09988 0.34134,1.56448c0.23705,0.45512 0.5689,0.81543 0.99558,1.08092c0.42668,0.26549 0.9055,0.39823 1.43649,0.39823zM229.1664,130.94764v-8.91756h1.74938v1.83472l-0.3129,0.19912c0.11378,-0.38875 0.3366,-0.74906 0.66847,-1.08092c0.33186,-0.34134 0.72061,-0.61631 1.16625,-0.82491c0.45512,-0.2086 0.91973,-0.3129 1.39381,-0.3129c0.68268,0 1.24685,0.13274 1.69249,0.39823c0.45512,0.26549 0.79646,0.6732 1.02403,1.22314c0.22756,0.54046 0.34134,1.22314 0.34134,2.04805v5.43303h-1.74937v-5.31925c0,-0.50253 -0.06638,-0.91973 -0.19912,-1.25159c-0.13274,-0.34134 -0.34134,-0.58786 -0.62579,-0.73957c-0.28445,-0.15171 -0.63528,-0.21808 -1.05247,-0.19912c-0.34134,0 -0.65424,0.05689 -0.93869,0.17067c-0.28445,0.1043 -0.53097,0.25601 -0.73957,0.45512c-0.2086,0.18963 -0.37453,0.41246 -0.49779,0.66847c-0.11378,0.24652 -0.17067,0.51676 -0.17067,0.81069v5.40458h-0.86757c-0.14223,0 -0.28919,0 -0.4409,0c-0.15171,0 -0.29867,0 -0.4409,0zM245.13479,130.94764v-11.19317h1.74938v11.19318zM243.27164,123.73679v-1.70671h5.67482v1.70671zM254.47225,131.11831c-0.87232,0 -1.65456,-0.19912 -2.34672,-0.59735c-0.68268,-0.40772 -1.22314,-0.95765 -1.62137,-1.64982c-0.38875,-0.70164 -0.58312,-1.49811 -0.58312,-2.38939c0,-0.89129 0.19437,-1.68301 0.58313,-2.37517c0.39823,-0.70164 0.93869,-1.25159 1.62137,-1.64982c0.69217,-0.40772 1.47441,-0.61157 2.34673,-0.61157c0.85336,0 1.62137,0.20386 2.30406,0.61158c0.69217,0.39823 1.23737,0.94818 1.6356,1.64982c0.39823,0.69217 0.59735,1.48389 0.59735,2.37518c0,0.89129 -0.19912,1.68775 -0.59735,2.38939c-0.39823,0.69217 -0.94343,1.2421 -1.63559,1.64982c-0.68268,0.39823 -1.4507,0.59735 -2.30406,0.59735zM254.47225,129.52538c0.53097,0 1.00507,-0.13274 1.42226,-0.39823c0.41719,-0.26549 0.74432,-0.62579 0.98136,-1.08092c0.23705,-0.46461 0.35083,-0.9861 0.34134,-1.56448c0.00948,-0.58786 -0.1043,-1.10936 -0.34134,-1.56448c-0.23705,-0.46461 -0.56416,-0.82491 -0.98135,-1.08092c-0.41719,-0.26549 -0.89129,-0.39823 -1.42226,-0.39823c-0.53097,0 -1.0098,0.13274 -1.43648,0.39823c-0.42668,0.26549 -0.75853,0.63054 -0.99558,1.09514c-0.23705,0.45512 -0.35083,0.97188 -0.34134,1.55027c-0.00948,0.57839 0.1043,1.09988 0.34134,1.56448c0.23705,0.45512 0.5689,0.81543 0.99558,1.08092c0.42668,0.26549 0.9055,0.39823 1.43649,0.39823zM269.44339,131.11831c-0.82491,0 -1.56448,-0.20386 -2.21872,-0.61157c-0.64475,-0.40772 -1.15677,-0.96239 -1.53604,-1.66404c-0.37927,-0.70164 -0.5689,-1.48863 -0.5689,-2.36095c0,-0.87232 0.18963,-1.6593 0.5689,-2.36095c0.37927,-0.70164 0.89129,-1.25633 1.53604,-1.66404c0.65424,-0.40772 1.39381,-0.61157 2.21872,-0.61157c0.79646,0 1.51708,0.16119 2.16183,0.48357c0.65424,0.32238 1.15203,0.76328 1.49338,1.32271l-0.96714,1.18048c-0.18016,-0.25601 -0.41245,-0.49305 -0.6969,-0.71113c-0.28445,-0.21808 -0.58786,-0.38875 -0.91025,-0.51201c-0.3129,-0.12327 -0.61631,-0.18489 -0.91025,-0.18489c-0.54046,0 -1.02403,0.13274 -1.4507,0.39823c-0.42668,0.26549 -0.76328,0.63054 -1.0098,1.09514c-0.24652,0.46461 -0.36979,0.9861 -0.36979,1.56448c0,0.57839 0.12801,1.09988 0.38401,1.56448c0.26549,0.45512 0.61158,0.82017 1.03825,1.09514c0.42668,0.26549 0.90076,0.39823 1.42226,0.39823c0.3129,0 0.61158,-0.05215 0.89603,-0.15644c0.28445,-0.1043 0.56416,-0.25601 0.83914,-0.45512c0.27497,-0.2086 0.53097,-0.45987 0.76802,-0.75379l0.96714,1.1947c-0.3603,0.51201 -0.87706,0.93395 -1.55026,1.26581c-0.6732,0.32238 -1.37485,0.48357 -2.10494,0.48357zM278.75618,131.11831c-0.87232,0 -1.65456,-0.19912 -2.34672,-0.59735c-0.68268,-0.40772 -1.22314,-0.95765 -1.62137,-1.64982c-0.38875,-0.70164 -0.58312,-1.49811 -0.58312,-2.38939c0,-0.89129 0.19437,-1.68301 0.58313,-2.37517c0.39823,-0.70164 0.93869,-1.25159 1.62137,-1.64982c0.69217,-0.40772 1.47441,-0.61157 2.34673,-0.61157c0.85336,0 1.62137,0.20386 2.30406,0.61158c0.69217,0.39823 1.23737,0.94818 1.6356,1.64982c0.39823,0.69217 0.59735,1.48389 0.59735,2.37518c0,0.89129 -0.19912,1.68775 -0.59735,2.38939c-0.39823,0.69217 -0.94343,1.2421 -1.63559,1.64982c-0.68268,0.39823 -1.4507,0.59735 -2.30406,0.59735zM278.75618,129.52538c0.53097,0 1.00507,-0.13274 1.42226,-0.39823c0.41719,-0.26549 0.74432,-0.62579 0.98136,-1.08092c0.23705,-0.46461 0.35083,-0.9861 0.34134,-1.56448c0.00948,-0.58786 -0.1043,-1.10936 -0.34134,-1.56448c-0.23705,-0.46461 -0.56416,-0.82491 -0.98135,-1.08092c-0.41719,-0.26549 -0.89129,-0.39823 -1.42226,-0.39823c-0.53097,0 -1.0098,0.13274 -1.43648,0.39823c-0.42668,0.26549 -0.75853,0.63054 -0.99558,1.09514c-0.23705,0.45512 -0.35083,0.97188 -0.34134,1.55027c-0.00948,0.57839 0.1043,1.09988 0.34134,1.56448c0.23705,0.45512 0.5689,0.81543 0.99558,1.08092c0.42668,0.26549 0.9055,0.39823 1.43649,0.39823zM285.1892,130.94764v-8.91756h1.74938v1.83472l-0.3129,0.19912c0.11378,-0.38875 0.3366,-0.74906 0.66847,-1.08092c0.33186,-0.34134 0.72061,-0.61631 1.16625,-0.82491c0.45512,-0.2086 0.91973,-0.3129 1.39381,-0.3129c0.68268,0 1.24685,0.13274 1.69249,0.39823c0.45512,0.26549 0.79646,0.6732 1.02403,1.22314c0.22756,0.54046 0.34134,1.22314 0.34134,2.04805v5.43303h-1.74937v-5.31925c0,-0.50253 -0.06638,-0.91973 -0.19912,-1.25159c-0.13274,-0.34134 -0.34134,-0.58786 -0.62579,-0.73957c-0.28445,-0.15171 -0.63528,-0.21808 -1.05247,-0.19912c-0.34134,0 -0.65424,0.05689 -0.93869,0.17067c-0.28445,0.1043 -0.53097,0.25601 -0.73957,0.45512c-0.2086,0.18963 -0.37453,0.41246 -0.49779,0.66847c-0.11378,0.24652 -0.17067,0.51676 -0.17067,0.81069v5.40458h-0.86757c-0.14223,0 -0.28919,0 -0.4409,0c-0.15171,0 -0.29867,0 -0.4409,0zM296.40271,130.94764v-11.19317h1.74938v11.19318zM294.53956,123.73679v-1.70671h5.67482v1.70671zM302.09881,130.94764v-8.91756h1.74938v8.91757zM302.95216,120.06737c-0.36979,0 -0.65898,-0.09482 -0.86757,-0.28445c-0.19912,-0.19912 -0.29867,-0.47408 -0.29867,-0.82491c0,-0.33186 0.1043,-0.59735 0.3129,-0.79646c0.2086,-0.2086 0.49305,-0.3129 0.85336,-0.3129c0.36979,0 0.65424,0.09956 0.85336,0.29868c0.2086,0.18963 0.3129,0.45987 0.3129,0.81069c0,0.33186 -0.1043,0.60209 -0.3129,0.81069c-0.2086,0.19912 -0.49305,0.29868 -0.85336,0.29868zM306.53528,130.94764v-8.91756h1.74938v1.83472l-0.3129,0.19912c0.11378,-0.38875 0.3366,-0.74906 0.66847,-1.08092c0.33186,-0.34134 0.72061,-0.61631 1.16625,-0.82491c0.45512,-0.2086 0.91973,-0.3129 1.39381,-0.3129c0.68268,0 1.24685,0.13274 1.69249,0.39823c0.45512,0.26549 0.79646,0.6732 1.02403,1.22314c0.22756,0.54046 0.34134,1.22314 0.34134,2.04805v5.43303h-1.74937v-5.31925c0,-0.50253 -0.06638,-0.91973 -0.19912,-1.25159c-0.13274,-0.34134 -0.34134,-0.58786 -0.62579,-0.73957c-0.28445,-0.15171 -0.63528,-0.21808 -1.05247,-0.19912c-0.34134,0 -0.65424,0.05689 -0.93869,0.17067c-0.28445,0.1043 -0.53097,0.25601 -0.73957,0.45512c-0.2086,0.18963 -0.37453,0.41246 -0.49779,0.66847c-0.11378,0.24652 -0.17067,0.51676 -0.17067,0.81069v5.40458h-0.86757c-0.14223,0 -0.28919,0 -0.4409,0c-0.15171,0 -0.29867,0 -0.4409,0zM319.76839,131.11831c-0.63528,0 -1.18995,-0.14697 -1.66404,-0.4409c-0.46461,-0.29394 -0.82491,-0.70639 -1.08092,-1.23736c-0.25601,-0.53097 -0.38401,-1.16625 -0.38401,-1.90583v-5.50414h1.74938v5.0348c0,0.51201 0.08059,0.95765 0.24179,1.33692c0.17067,0.37927 0.40772,0.6732 0.71113,0.8818c0.3129,0.19912 0.69217,0.29868 1.13781,0.29868c0.32238,0 0.62105,-0.05215 0.89603,-0.15644c0.27497,-0.1043 0.51201,-0.25126 0.71113,-0.4409c0.19912,-0.19912 0.35083,-0.43142 0.45512,-0.6969c0.11378,-0.27497 0.17067,-0.57365 0.17067,-0.89602v-5.36191h1.74938v8.91757h-1.74937v-1.86315l0.3129,-0.21333c-0.13274,0.42668 -0.3603,0.81069 -0.68268,1.15203c-0.32238,0.33186 -0.70639,0.59735 -1.15202,0.79646c-0.44564,0.19912 -0.91973,0.29868 -1.42226,0.29868zM331.0664,131.11831c-0.91025,0 -1.72093,-0.19437 -2.43206,-0.58312c-0.70164,-0.38875 -1.25633,-0.92446 -1.66404,-1.60715c-0.39823,-0.68268 -0.59735,-1.46492 -0.59735,-2.34672c0,-0.70164 0.11378,-1.34167 0.34134,-1.92004c0.22756,-0.57839 0.54046,-1.07617 0.93869,-1.49337c0.39823,-0.42668 0.87706,-0.75379 1.43649,-0.98135c0.5689,-0.23705 1.18048,-0.35556 1.83472,-0.35556c0.57839,0 1.1141,0.10904 1.60716,0.32712c0.50253,0.21808 0.93395,0.5215 1.29426,0.91025c0.36979,0.38875 0.65424,0.84861 0.85336,1.3796c0.19912,0.5215 0.29394,1.0904 0.28445,1.70671l-0.01422,0.7538h-7.28196l-0.39823,-1.39381h6.15838l-0.24178,0.28445v-0.39823c-0.03793,-0.37927 -0.16593,-0.71587 -0.38401,-1.0098c-0.2086,-0.29394 -0.47883,-0.52623 -0.81068,-0.6969c-0.33186,-0.17067 -0.68743,-0.25601 -1.06669,-0.25601c-0.61631,0 -1.13306,0.11852 -1.55026,0.35557c-0.41719,0.22756 -0.73483,0.5689 -0.95291,1.02403c-0.2086,0.44564 -0.3129,0.99558 -0.3129,1.64982c0,0.61631 0.12801,1.15677 0.38401,1.62137c0.25601,0.45512 0.62105,0.81069 1.09514,1.0667c0.48357,0.24652 1.03351,0.36979 1.64982,0.36979c0.44564,0 0.8581,-0.07111 1.23737,-0.21333c0.37927,-0.15171 0.79172,-0.42194 1.23737,-0.81068l0.8818,1.23737c-0.27497,0.27497 -0.60683,0.51676 -0.99558,0.72536c-0.38875,0.19912 -0.80121,0.3603 -1.23736,0.48357c-0.43616,0.11378 -0.86757,0.17067 -1.29425,0.17067zM337.57585,131.13254c-0.36979,0 -0.65898,-0.10904 -0.86757,-0.32711c-0.19912,-0.21808 -0.29867,-0.53097 -0.29867,-0.93869c0,-0.37927 0.1043,-0.68743 0.3129,-0.92446c0.21808,-0.23705 0.50253,-0.35556 0.85336,-0.35556c0.37927,0 0.66847,0.11378 0.86758,0.34134c0.2086,0.21808 0.3129,0.53097 0.3129,0.93869c0,0.36979 -0.10904,0.6732 -0.32711,0.91025c-0.21808,0.23705 -0.50253,0.35557 -0.85336,0.35557z" fill="#ffffff" fill-rule="nonzero" stroke-width="1" stroke-linecap="square"/><text transform="translate(257.15725,246.6203) scale(0.39584,0.39584)" font-size="40" xml:space="preserve" fill="#ffffff" fill-rule="nonzero" stroke="none" stroke-width="1" stroke-linecap="butt" stroke-linejoin="miter" stroke-miterlimit="10" stroke-dasharray="" stroke-dashoffset="0" font-family="Sans Serif" font-weight="normal" text-anchor="start" style="mix-blend-mode: normal"><tspan x="0" dy="0">PolyOS 6 Dev</tspan></text><text transform="translate(90.71741,247.64418) scale(0.39856,0.39856)" font-size="40" xml:space="preserve" fill="#ffffff" fill-rule="nonzero" stroke="none" stroke-width="1" stroke-linecap="butt" stroke-linejoin="miter" stroke-miterlimit="10" stroke-dasharray="" stroke-dashoffset="0" font-family="Sans Serif" font-weight="normal" text-anchor="start" style="mix-blend-mode: normal"><tspan x="0" dy="0">PolyOS 6 Full</tspan></text><text transform="translate(77.5,266.69215) scale(0.26731,0.26731)" font-size="40" xml:space="preserve" fill="#ffffff" fill-rule="nonzero" stroke="none" stroke-width="1" stroke-linecap="butt" stroke-linejoin="miter" stroke-miterlimit="10" stroke-dasharray="" stroke-dashoffset="0" font-family="Sans Serif" font-weight="normal" text-anchor="start" style="mix-blend-mode: normal"><tspan x="0" dy="0">The full PolyOS experience</tspan></text><text transform="translate(245.51367,261.92606) scale(0.20911,0.20911)" font-size="40" xml:space="preserve" fill="#ffffff" fill-rule="nonzero" stroke="none" stroke-width="1" stroke-linecap="butt" stroke-linejoin="miter" stroke-miterlimit="10" stroke-dasharray="" stroke-dashoffset="0" font-family="Sans Serif" font-weight="normal" text-anchor="start" style="mix-blend-mode: normal"><tspan x="0" dy="0">A lite, unstable version with </tspan><tspan x="0" dy="48px">developer features and MANY bugs</tspan></text><text transform="translate(63.51367,301.39032) scale(0.1813,0.1813)" font-size="40" xml:space="preserve" fill="#ffffff" fill-rule="nonzero" stroke="none" stroke-width="1" stroke-linecap="butt" stroke-linejoin="miter" stroke-miterlimit="10" stroke-dasharray="" stroke-dashoffset="0" font-family="Sans Serif" font-weight="normal" text-anchor="start" style="mix-blend-mode: normal"><tspan x="0" dy="0">Installing PolyOS 6 Dev will also install software like PIXAPoLY Cpanel.</tspan></text><path d="M61.57946,86.33703c-0.6943,0 -1.32509,-0.08043 -1.89238,-0.2413c-0.55882,-0.16934 -1.05838,-0.41488 -1.49867,-0.73663c-0.43182,-0.32175 -0.81707,-0.69852 -1.15574,-1.13034l1.56217,-1.77808c0.50802,0.67736 1.01604,1.13458 1.52407,1.37166c0.50802,0.22861 1.03722,0.34292 1.58758,0.34292c0.27094,0 0.51649,-0.03387 0.73663,-0.1016c0.22014,-0.07621 0.38949,-0.18205 0.50803,-0.31751c0.127,-0.13547 0.19051,-0.30481 0.19051,-0.50802c0,-0.15241 -0.03809,-0.28789 -0.1143,-0.40642c-0.07621,-0.11853 -0.18204,-0.22437 -0.31751,-0.31751c-0.127,-0.09314 -0.28364,-0.1778 -0.46992,-0.25401c-0.17781,-0.07621 -0.36831,-0.13971 -0.57152,-0.19051c-0.20321,-0.05927 -0.41065,-0.11007 -0.62232,-0.15241c-0.58423,-0.127 -1.09648,-0.28365 -1.53676,-0.46992c-0.43182,-0.19474 -0.79167,-0.43182 -1.07955,-0.71123c-0.28788,-0.27941 -0.50379,-0.59692 -0.64773,-0.95254c-0.13547,-0.36409 -0.2032,-0.76627 -0.2032,-1.20655c0,-0.48262 0.10583,-0.92291 0.31752,-1.32086c0.22014,-0.39795 0.51226,-0.74086 0.87635,-1.02874c0.37255,-0.28788 0.80014,-0.50802 1.28276,-0.66043c0.49109,-0.16088 0.99911,-0.2413 1.52407,-0.2413c0.6943,0 1.29122,0.0762 1.79078,0.22861c0.50802,0.14393 0.93984,0.35139 1.29546,0.62234c0.35562,0.27094 0.66043,0.60116 0.91444,0.99064l-1.58757,1.52406c-0.21168,-0.26248 -0.44451,-0.47838 -0.69852,-0.64772c-0.24554,-0.16934 -0.50803,-0.30058 -0.78744,-0.39372c-0.27094,-0.09314 -0.55459,-0.1397 -0.85093,-0.1397c-0.30481,0 -0.56729,0.0381 -0.78743,0.11431c-0.21168,0.07621 -0.38102,0.18205 -0.50803,0.31752c-0.11854,0.13547 -0.1778,0.30058 -0.1778,0.49532c0,0.16934 0.0508,0.31752 0.15241,0.44452c0.1016,0.11853 0.23708,0.22861 0.40642,0.33021c0.17781,0.09314 0.37678,0.17357 0.59693,0.24132c0.22014,0.05927 0.45298,0.11008 0.69853,0.15241c0.55882,0.11007 1.06261,0.25825 1.51137,0.44452c0.44875,0.17781 0.834,0.39795 1.15575,0.66043c0.33021,0.26248 0.58422,0.57576 0.76203,0.93984c0.17781,0.35562 0.26672,0.77051 0.26672,1.24465c0,0.73663 -0.18205,1.36319 -0.54612,1.87968c-0.35562,0.50802 -0.84247,0.89751 -1.46056,1.16845c-0.61809,0.26248 -1.33356,0.39372 -2.14639,0.39372zM71.25723,86.33703c-0.88904,0 -1.66376,-0.1778 -2.3242,-0.53342c-0.65196,-0.36409 -1.15998,-0.85517 -1.52407,-1.47326c-0.36409,-0.62656 -0.54612,-1.33778 -0.54612,-2.13369c0,-0.61809 0.09737,-1.18538 0.29212,-1.70188c0.20321,-0.51649 0.48685,-0.96101 0.85094,-1.33356c0.36409,-0.38102 0.79591,-0.67312 1.29546,-0.87633c0.50802,-0.21168 1.05838,-0.31751 1.65108,-0.31751c0.5673,0 1.08378,0.1016 1.54946,0.30481c0.47415,0.20321 0.88057,0.48686 1.21925,0.85094c0.34714,0.36409 0.60962,0.79591 0.78743,1.29546c0.18627,0.49109 0.27094,1.02875 0.25401,1.61297l-0.0254,0.64773h-6.41377l-0.34291,-1.35895h4.78811l-0.25401,0.27941v-0.29211c-0.01693,-0.25401 -0.09737,-0.47839 -0.2413,-0.67312c-0.13547,-0.20321 -0.31328,-0.35985 -0.53342,-0.46992c-0.22014,-0.11007 -0.47415,-0.1651 -0.76203,-0.1651c-0.38948,0 -0.72393,0.08044 -1.00334,0.24132c-0.27941,0.15241 -0.49109,0.37678 -0.63502,0.67313c-0.13547,0.29635 -0.20321,0.66466 -0.20321,1.10496c0,0.44029 0.09314,0.82554 0.27941,1.15575c0.18627,0.33021 0.45722,0.58846 0.81284,0.77474c0.36409,0.17781 0.79167,0.26672 1.28276,0.26672c0.34714,0 0.65196,-0.0508 0.91444,-0.15241c0.27094,-0.10161 0.56306,-0.27518 0.87634,-0.52072l1.14305,1.61298c-0.31328,0.27094 -0.64772,0.49532 -1.00333,0.67313c-0.35562,0.16934 -0.71971,0.29634 -1.09225,0.38101c-0.36409,0.08468 -0.72816,0.12701 -1.09224,0.12701zM76.96846,86.18462v-10.08423h2.42581v10.08423zM75.546,80.25347v-2.12099h5.41043v2.12099zM85.08681,86.34973c-0.60116,0 -1.11341,-0.127 -1.53676,-0.38101c-0.41488,-0.26248 -0.73663,-0.63503 -0.96524,-1.11765c-0.22014,-0.48262 -0.33022,-1.06261 -0.33022,-1.73997v-4.97862h2.43851v4.63571c0,0.33021 0.0508,0.60962 0.15241,0.83823c0.10161,0.22861 0.24978,0.40642 0.44452,0.53342c0.20321,0.127 0.44875,0.19051 0.73663,0.19051c0.21168,0 0.40641,-0.03387 0.58422,-0.1016c0.17781,-0.06773 0.33022,-0.1651 0.45722,-0.29211c0.127,-0.127 0.22437,-0.27517 0.29211,-0.44451c0.06773,-0.16934 0.10161,-0.35562 0.10161,-0.55882v-4.80081h2.45121v8.05215h-2.2988l-0.1016,-1.65107l0.45722,-0.17781c-0.127,0.38102 -0.33021,0.7197 -0.60962,1.01604c-0.27941,0.29635 -0.6181,0.53342 -1.01605,0.71123c-0.39795,0.17781 -0.81707,0.26672 -1.25735,0.26672zM92.07907,89.52487v-11.39239h2.29881l0.0889,1.80348l-0.44451,-0.1397c0.06773,-0.33021 0.23709,-0.63079 0.50803,-0.90173c0.27094,-0.27941 0.61809,-0.49956 1.04144,-0.66043c0.42335,-0.16934 0.86363,-0.25401 1.32085,-0.25401c0.6943,0 1.30816,0.18204 1.84159,0.54613c0.53342,0.35562 0.95254,0.84671 1.25735,1.47326c0.31328,0.61809 0.46993,1.33356 0.46993,2.14639c0,0.81284 -0.15664,1.53253 -0.46992,2.15909c-0.30482,0.62656 -0.72816,1.12188 -1.27005,1.48597c-0.54189,0.35562 -1.15998,0.53342 -1.85428,0.53342c-0.45722,0 -0.89328,-0.08467 -1.30815,-0.25401c-0.41488,-0.17781 -0.76203,-0.41066 -1.04144,-0.69853c-0.27941,-0.29635 -0.46569,-0.61809 -0.55882,-0.96524l0.55882,-0.20321v5.32153zM96.28294,84.27954c0.35562,0 0.6689,-0.0889 0.93984,-0.26671c0.27941,-0.17781 0.49533,-0.42334 0.64773,-0.73663c0.15241,-0.31328 0.22861,-0.69007 0.22861,-1.13035c0,-0.42335 -0.07621,-0.79167 -0.22861,-1.10495c-0.15241,-0.32175 -0.36409,-0.57152 -0.63503,-0.74932c-0.26248,-0.17781 -0.57999,-0.26671 -0.95253,-0.26671c-0.38102,0 -0.707,0.08891 -0.97794,0.26672c-0.27094,0.16934 -0.48262,0.41488 -0.63502,0.73663c-0.15241,0.32175 -0.22861,0.6943 -0.22861,1.11765c0,0.44029 0.07621,0.81707 0.22861,1.13035c0.15241,0.31328 0.36409,0.55882 0.63502,0.73663c0.27094,0.17781 0.59694,0.26672 0.97795,0.26672z" fill="#ffffff" fill-rule="nonzero" stroke-width="1" stroke-linecap="square"/></g></g></svg>