<svg version="1.1" xmlns="http://www.w3.org/2000/svg" xmlns:xlink="http://www.w3.org/1999/xlink" width="247.95815" height="164.71054" viewBox="0,0,247.95815,164.71054"><g transform="translate(-116.02094,-100.49329)"><g data-paper-data="{&quot;isPaintingLayer&quot;:true}" stroke="none" stroke-width="1" stroke-linejoin="miter" stroke-miterlimit="10" stroke-dasharray="" stroke-dashoffset="0" style="mix-blend-mode: normal"><path d="M116.02095,110.32191c0,-5.4282 4.73119,-9.82862 10.5674,-9.82862h226.82334c2.80265,0 5.49052,1.03551 7.47228,2.87874c1.98179,1.84323 3.09512,4.34317 3.09512,6.94989v139.35617c0,5.4282 -4.73119,9.82862 -10.56741,9.82862h-226.82334c-5.83621,0 -10.5674,-4.40042 -10.5674,-9.82862z" fill-opacity="0.64516" fill="#1d1d1d" fill-rule="evenodd" stroke-linecap="square"/><g><path d="M121.38897,106.88897c0,-0.95215 0.41182,-1.72403 0.91982,-1.72403h19.74357c0.24395,0 0.47791,0.18164 0.65041,0.50495c0.1725,0.32331 0.26942,0.76183 0.26942,1.21908v24.44429c0,0.95215 -0.41182,1.72402 -0.91983,1.72402h-19.74357c-0.508,0 -0.91982,-0.77187 -0.91982,-1.72402z" fill="#ffffff" fill-rule="evenodd" stroke-linecap="square"/><text transform="translate(125.00004,129.75563) scale(0.74433,0.74433)" font-size="40" xml:space="preserve" fill="#000000" fill-rule="nonzero" stroke="none" stroke-width="1" stroke-linecap="butt" stroke-linejoin="miter" stroke-miterlimit="10" stroke-dasharray="" stroke-dashoffset="0" font-family="&quot;ヒラギノ角ゴ Pro W3&quot;, &quot;Hiragino Kaku Gothic Pro&quot;, Osaka, &quot;メイリオ&quot;, Meiryo, &quot;ＭＳ Ｐゴシック&quot;, &quot;MS PGothic&quot;" font-weight="normal" text-anchor="start" style="mix-blend-mode: normal"><tspan x="0" dy="0">1</tspan></text></g><g><path d="M145.38894,107.05564c0,-0.95215 0.41182,-1.72403 0.91983,-1.72403h19.74357c0.24395,0 0.47791,0.18164 0.65041,0.50495c0.1725,0.32331 0.26942,0.76183 0.26942,1.21908v24.4443c0,0.95215 -0.41182,1.72402 -0.91983,1.72402h-19.74357c-0.508,0 -0.91983,-0.77187 -0.91983,-1.72402z" fill="#ffffff" fill-rule="evenodd" stroke-linecap="square"/><text transform="translate(149.10778,129.23563) scale(0.74433,0.74433)" font-size="40" xml:space="preserve" fill="#000000" fill-rule="nonzero" stroke="none" stroke-width="1" stroke-linecap="butt" stroke-linejoin="miter" stroke-miterlimit="10" stroke-dasharray="" stroke-dashoffset="0" font-family="&quot;ヒラギノ角ゴ Pro W3&quot;, &quot;Hiragino Kaku Gothic Pro&quot;, Osaka, &quot;メイリオ&quot;, Meiryo, &quot;ＭＳ Ｐゴシック&quot;, &quot;MS PGothic&quot;" font-weight="normal" text-anchor="start" style="mix-blend-mode: normal"><tspan x="0" dy="0">2</tspan></text></g><g><path d="M169.38894,106.88897c0,-0.95215 0.41182,-1.72403 0.91983,-1.72403h19.74357c0.24395,0 0.47791,0.18164 0.65041,0.50495c0.1725,0.32331 0.26942,0.76183 0.26942,1.21908v24.44429c0,0.95215 -0.41182,1.72402 -0.91983,1.72402h-19.74357c-0.508,0 -0.91983,-0.77187 -0.91983,-1.72402z" fill="#ffffff" fill-rule="evenodd" stroke-linecap="square"/><text transform="translate(173.21549,129.56486) scale(0.74433,0.74433)" font-size="40" xml:space="preserve" fill="#000000" fill-rule="nonzero" stroke="none" stroke-width="1" stroke-linecap="butt" stroke-linejoin="miter" stroke-miterlimit="10" stroke-dasharray="" stroke-dashoffset="0" font-family="&quot;ヒラギノ角ゴ Pro W3&quot;, &quot;Hiragino Kaku Gothic Pro&quot;, Osaka, &quot;メイリオ&quot;, Meiryo, &quot;ＭＳ Ｐゴシック&quot;, &quot;MS PGothic&quot;" font-weight="normal" text-anchor="start" style="mix-blend-mode: normal"><tspan x="0" dy="0">3</tspan></text></g><g><path d="M193.38894,107.13897c0,-0.95215 0.41182,-1.72403 0.91983,-1.72403h19.74357c0.24395,0 0.47792,0.18164 0.65042,0.50495c0.1725,0.32332 0.26941,0.76183 0.26941,1.21907v24.44429c0,0.95215 -0.41182,1.72402 -0.91983,1.72402h-19.74357c-0.50801,0 -0.91983,-0.77187 -0.91983,-1.72402z" fill="#ffffff" fill-rule="evenodd" stroke-linecap="square"/><text transform="translate(196.474,129.46945) scale(0.74433,0.74433)" font-size="40" xml:space="preserve" fill="#000000" fill-rule="nonzero" stroke="none" stroke-width="1" stroke-linecap="butt" stroke-linejoin="miter" stroke-miterlimit="10" stroke-dasharray="" stroke-dashoffset="0" font-family="&quot;ヒラギノ角ゴ Pro W3&quot;, &quot;Hiragino Kaku Gothic Pro&quot;, Osaka, &quot;メイリオ&quot;, Meiryo, &quot;ＭＳ Ｐゴシック&quot;, &quot;MS PGothic&quot;" font-weight="normal" text-anchor="start" style="mix-blend-mode: normal"><tspan x="0" dy="0">4</tspan></text></g><g><path d="M217.38894,107.30564c0,-0.95215 0.41182,-1.72403 0.91982,-1.72403h19.74357c0.24395,0 0.47791,0.18164 0.65041,0.50495c0.1725,0.32331 0.26942,0.76183 0.26942,1.21908v24.44429c0,0.95215 -0.41182,1.72402 -0.91983,1.72402h-19.74357c-0.508,0 -0.91982,-0.77187 -0.91982,-1.72402z" fill="#ffffff" fill-rule="evenodd" stroke-linecap="square"/><text transform="translate(221.00633,130.64791) scale(0.74433,0.74433)" font-size="40" xml:space="preserve" fill="#000000" fill-rule="nonzero" stroke="none" stroke-width="1" stroke-linecap="butt" stroke-linejoin="miter" stroke-miterlimit="10" stroke-dasharray="" stroke-dashoffset="0" font-family="&quot;ヒラギノ角ゴ Pro W3&quot;, &quot;Hiragino Kaku Gothic Pro&quot;, Osaka, &quot;メイリオ&quot;, Meiryo, &quot;ＭＳ Ｐゴシック&quot;, &quot;MS PGothic&quot;" font-weight="normal" text-anchor="start" style="mix-blend-mode: normal"><tspan x="0" dy="0">5</tspan></text></g><g><path d="M241.38894,107.13897c0,-0.95215 0.41182,-1.72403 0.91983,-1.72403h19.74357c0.24395,0 0.47791,0.18164 0.65041,0.50495c0.1725,0.32331 0.26942,0.76183 0.26942,1.21908v24.44429c0,0.95215 -0.41182,1.72402 -0.91983,1.72402h-19.74357c-0.508,0 -0.91983,-0.77187 -0.91983,-1.72402z" fill="#ffffff" fill-rule="evenodd" stroke-linecap="square"/><text transform="translate(245.11408,130.12791) scale(0.74433,0.74433)" font-size="40" xml:space="preserve" fill="#000000" fill-rule="nonzero" stroke="none" stroke-width="1" stroke-linecap="butt" stroke-linejoin="miter" stroke-miterlimit="10" stroke-dasharray="" stroke-dashoffset="0" font-family="&quot;ヒラギノ角ゴ Pro W3&quot;, &quot;Hiragino Kaku Gothic Pro&quot;, Osaka, &quot;メイリオ&quot;, Meiryo, &quot;ＭＳ Ｐゴシック&quot;, &quot;MS PGothic&quot;" font-weight="normal" text-anchor="start" style="mix-blend-mode: normal"><tspan x="0" dy="0">6</tspan></text></g><g><path d="M264.88897,107.13897c0,-0.95215 0.41182,-1.72403 0.91983,-1.72403h19.74357c0.24395,0 0.47792,0.18164 0.65042,0.50495c0.1725,0.32332 0.26941,0.76183 0.26941,1.21907v24.44429c0,0.95215 -0.41182,1.72402 -0.91983,1.72402h-19.74357c-0.50801,0 -0.91983,-0.77187 -0.91983,-1.72402z" fill="#ffffff" fill-rule="evenodd" stroke-linecap="square"/><text transform="translate(268.7972,130.0325) scale(0.74433,0.74433)" font-size="40" xml:space="preserve" fill="#000000" fill-rule="nonzero" stroke="none" stroke-width="1" stroke-linecap="butt" stroke-linejoin="miter" stroke-miterlimit="10" stroke-dasharray="" stroke-dashoffset="0" font-family="&quot;ヒラギノ角ゴ Pro W3&quot;, &quot;Hiragino Kaku Gothic Pro&quot;, Osaka, &quot;メイリオ&quot;, Meiryo, &quot;ＭＳ Ｐゴシック&quot;, &quot;MS PGothic&quot;" font-weight="normal" text-anchor="start" style="mix-blend-mode: normal"><tspan x="0" dy="0">7</tspan></text></g><g><path d="M288.88897,107.30564c0,-0.95215 0.41182,-1.72403 0.91982,-1.72403h19.74357c0.24395,0 0.47791,0.18164 0.65041,0.50495c0.1725,0.32331 0.26942,0.76183 0.26942,1.21908v24.44429c0,0.95215 -0.41182,1.72402 -0.91983,1.72402h-19.74357c-0.508,0 -0.91982,-0.77187 -0.91982,-1.72402z" fill="#ffffff" fill-rule="evenodd" stroke-linecap="square"/><text transform="translate(292.48032,129.5125) scale(0.74433,0.74433)" font-size="40" xml:space="preserve" fill="#000000" fill-rule="nonzero" stroke="none" stroke-width="1" stroke-linecap="butt" stroke-linejoin="miter" stroke-miterlimit="10" stroke-dasharray="" stroke-dashoffset="0" font-family="&quot;ヒラギノ角ゴ Pro W3&quot;, &quot;Hiragino Kaku Gothic Pro&quot;, Osaka, &quot;メイリオ&quot;, Meiryo, &quot;ＭＳ Ｐゴシック&quot;, &quot;MS PGothic&quot;" font-weight="normal" text-anchor="start" style="mix-blend-mode: normal"><tspan x="0" dy="0">8</tspan></text></g><g><path d="M312.88897,107.13897c0,-0.95215 0.41182,-1.72403 0.91983,-1.72403h19.74357c0.24395,0 0.47791,0.18164 0.65041,0.50495c0.1725,0.32331 0.26942,0.76183 0.26942,1.21908v24.44429c0,0.95215 -0.41182,1.72402 -0.91983,1.72402h-19.74357c-0.508,0 -0.91983,-0.77187 -0.91983,-1.72402z" fill="#ffffff" fill-rule="evenodd" stroke-linecap="square"/><text transform="translate(316.58804,130.26634) scale(0.74433,0.74433)" font-size="40" xml:space="preserve" fill="#000000" fill-rule="nonzero" stroke="none" stroke-width="1" stroke-linecap="butt" stroke-linejoin="miter" stroke-miterlimit="10" stroke-dasharray="" stroke-dashoffset="0" font-family="&quot;ヒラギノ角ゴ Pro W3&quot;, &quot;Hiragino Kaku Gothic Pro&quot;, Osaka, &quot;メイリオ&quot;, Meiryo, &quot;ＭＳ Ｐゴシック&quot;, &quot;MS PGothic&quot;" font-weight="normal" text-anchor="start" style="mix-blend-mode: normal"><tspan x="0" dy="0">9</tspan></text></g><g><path d="M336.88897,107.13897c0,-0.95215 0.41182,-1.72403 0.91983,-1.72403h19.74357c0.24395,0 0.47792,0.18164 0.65042,0.50495c0.1725,0.32332 0.26941,0.76183 0.26941,1.21907v24.44429c0,0.95215 -0.41182,1.72402 -0.91983,1.72402h-19.74357c-0.50801,0 -0.91983,-0.77187 -0.91983,-1.72402z" fill="#ffffff" fill-rule="evenodd" stroke-linecap="square"/><text transform="translate(339.84656,129.74631) scale(0.74433,0.74433)" font-size="40" xml:space="preserve" fill="#000000" fill-rule="nonzero" stroke="none" stroke-width="1" stroke-linecap="butt" stroke-linejoin="miter" stroke-miterlimit="10" stroke-dasharray="" stroke-dashoffset="0" font-family="&quot;ヒラギノ角ゴ Pro W3&quot;, &quot;Hiragino Kaku Gothic Pro&quot;, Osaka, &quot;メイリオ&quot;, Meiryo, &quot;ＭＳ Ｐゴシック&quot;, &quot;MS PGothic&quot;" font-weight="normal" text-anchor="start" style="mix-blend-mode: normal"><tspan x="0" dy="0">0</tspan></text></g><g><path d="M121.38898,137.88896c0,-0.95215 0.41182,-1.72403 0.91982,-1.72403h19.74357c0.24395,0 0.47791,0.18164 0.65041,0.50495c0.1725,0.32331 0.26942,0.76183 0.26942,1.21908v24.44429c0,0.95215 -0.41182,1.72402 -0.91983,1.72402h-19.74357c-0.508,0 -0.91982,-0.77187 -0.91982,-1.72402z" fill="#ffffff" fill-rule="evenodd" stroke-linecap="square"/><text transform="translate(122.92465,158.5665) scale(0.64385,0.64385)" font-size="40" xml:space="preserve" fill="#000000" fill-rule="nonzero" stroke="none" stroke-width="1" stroke-linecap="butt" stroke-linejoin="miter" stroke-miterlimit="10" stroke-dasharray="" stroke-dashoffset="0" font-family="&quot;ヒラギノ角ゴ Pro W3&quot;, &quot;Hiragino Kaku Gothic Pro&quot;, Osaka, &quot;メイリオ&quot;, Meiryo, &quot;ＭＳ Ｐゴシック&quot;, &quot;MS PGothic&quot;" font-weight="normal" text-anchor="start" style="mix-blend-mode: normal"><tspan x="0" dy="0">Q</tspan></text></g><g><path d="M145.38896,138.05566c0,-0.95215 0.41182,-1.72403 0.91983,-1.72403h19.74357c0.24395,0 0.47791,0.18164 0.65041,0.50495c0.1725,0.32331 0.26942,0.76183 0.26942,1.21908v24.4443c0,0.95215 -0.41182,1.72402 -0.91983,1.72402h-19.74357c-0.508,0 -0.91983,-0.77187 -0.91983,-1.72402z" fill="#ffffff" fill-rule="evenodd" stroke-linecap="square"/><text transform="translate(147.03238,158.89573) scale(0.64385,0.64385)" font-size="40" xml:space="preserve" fill="#000000" fill-rule="nonzero" stroke="none" stroke-width="1" stroke-linecap="butt" stroke-linejoin="miter" stroke-miterlimit="10" stroke-dasharray="" stroke-dashoffset="0" font-family="&quot;ヒラギノ角ゴ Pro W3&quot;, &quot;Hiragino Kaku Gothic Pro&quot;, Osaka, &quot;メイリオ&quot;, Meiryo, &quot;ＭＳ Ｐゴシック&quot;, &quot;MS PGothic&quot;" font-weight="normal" text-anchor="start" style="mix-blend-mode: normal"><tspan x="0" dy="0">W</tspan></text></g><g><path d="M169.38899,137.88896c0,-0.95215 0.41182,-1.72403 0.91983,-1.72403h19.74357c0.24395,0 0.47791,0.18164 0.65041,0.50495c0.1725,0.32331 0.26942,0.76183 0.26942,1.21908v24.44429c0,0.95215 -0.41182,1.72402 -0.91983,1.72402h-19.74357c-0.508,0 -0.91983,-0.77187 -0.91983,-1.72402z" fill="#ffffff" fill-rule="evenodd" stroke-linecap="square"/><text transform="translate(172.41398,159.22495) scale(0.64385,0.64385)" font-size="40" xml:space="preserve" fill="#000000" fill-rule="nonzero" stroke="none" stroke-width="1" stroke-linecap="butt" stroke-linejoin="miter" stroke-miterlimit="10" stroke-dasharray="" stroke-dashoffset="0" font-family="&quot;ヒラギノ角ゴ Pro W3&quot;, &quot;Hiragino Kaku Gothic Pro&quot;, Osaka, &quot;メイリオ&quot;, Meiryo, &quot;ＭＳ Ｐゴシック&quot;, &quot;MS PGothic&quot;" font-weight="normal" text-anchor="start" style="mix-blend-mode: normal"><tspan x="0" dy="0">E</tspan></text></g><g><path d="M193.38899,138.13896c0,-0.95215 0.41182,-1.72403 0.91983,-1.72403h19.74357c0.24395,0 0.47792,0.18164 0.65042,0.50495c0.1725,0.32332 0.26941,0.76183 0.26941,1.21907v24.44429c0,0.95215 -0.41182,1.72402 -0.91983,1.72402h-19.74357c-0.50801,0 -0.91983,-0.77187 -0.91983,-1.72402z" fill="#ffffff" fill-rule="evenodd" stroke-linecap="square"/><text transform="translate(195.67248,159.97878) scale(0.64385,0.64385)" font-size="40" xml:space="preserve" fill="#000000" fill-rule="nonzero" stroke="none" stroke-width="1" stroke-linecap="butt" stroke-linejoin="miter" stroke-miterlimit="10" stroke-dasharray="" stroke-dashoffset="0" font-family="&quot;ヒラギノ角ゴ Pro W3&quot;, &quot;Hiragino Kaku Gothic Pro&quot;, Osaka, &quot;メイリオ&quot;, Meiryo, &quot;ＭＳ Ｐゴシック&quot;, &quot;MS PGothic&quot;" font-weight="normal" text-anchor="start" style="mix-blend-mode: normal"><tspan x="0" dy="0">R</tspan></text></g><g><path d="M217.38899,138.30566c0,-0.95215 0.41182,-1.72403 0.91982,-1.72403h19.74357c0.24395,0 0.47791,0.18164 0.65041,0.50495c0.1725,0.32331 0.26942,0.76183 0.26942,1.21908v24.44429c0,0.95215 -0.41182,1.72402 -0.91983,1.72402h-19.74357c-0.508,0 -0.91982,-0.77187 -0.91982,-1.72402z" fill="#ffffff" fill-rule="evenodd" stroke-linecap="square"/><text transform="translate(220.62944,160.308) scale(0.64385,0.64385)" font-size="40" xml:space="preserve" fill="#000000" fill-rule="nonzero" stroke="none" stroke-width="1" stroke-linecap="butt" stroke-linejoin="miter" stroke-miterlimit="10" stroke-dasharray="" stroke-dashoffset="0" font-family="&quot;ヒラギノ角ゴ Pro W3&quot;, &quot;Hiragino Kaku Gothic Pro&quot;, Osaka, &quot;メイリオ&quot;, Meiryo, &quot;ＭＳ Ｐゴシック&quot;, &quot;MS PGothic&quot;" font-weight="normal" text-anchor="start" style="mix-blend-mode: normal"><tspan x="0" dy="0">T</tspan></text></g><g><path d="M241.38899,138.13896c0,-0.95215 0.41182,-1.72403 0.91983,-1.72403h19.74357c0.24395,0 0.47791,0.18164 0.65041,0.50495c0.1725,0.32331 0.26942,0.76183 0.26942,1.21908v24.44429c0,0.95215 -0.41182,1.72402 -0.91983,1.72402h-19.74357c-0.508,0 -0.91983,-0.77187 -0.91983,-1.72402z" fill="#ffffff" fill-rule="evenodd" stroke-linecap="square"/><text transform="translate(244.7961,159.47466) scale(0.64385,0.64385)" font-size="40" xml:space="preserve" fill="#000000" fill-rule="nonzero" stroke="none" stroke-width="1" stroke-linecap="butt" stroke-linejoin="miter" stroke-miterlimit="10" stroke-dasharray="" stroke-dashoffset="0" font-family="&quot;ヒラギノ角ゴ Pro W3&quot;, &quot;Hiragino Kaku Gothic Pro&quot;, Osaka, &quot;メイリオ&quot;, Meiryo, &quot;ＭＳ Ｐゴシック&quot;, &quot;MS PGothic&quot;" font-weight="normal" text-anchor="start" style="mix-blend-mode: normal"><tspan x="0" dy="0">Y</tspan></text></g><g><path d="M264.88897,138.13896c0,-0.95215 0.41182,-1.72403 0.91983,-1.72403h19.74357c0.24395,0 0.47792,0.18164 0.65042,0.50495c0.1725,0.32332 0.26941,0.76183 0.26941,1.21907v24.44429c0,0.95215 -0.41182,1.72402 -0.91983,1.72402h-19.74357c-0.50801,0 -0.91983,-0.77187 -0.91983,-1.72402z" fill="#ffffff" fill-rule="evenodd" stroke-linecap="square"/><text transform="translate(267.46277,159.64134) scale(0.64385,0.64385)" font-size="40" xml:space="preserve" fill="#000000" fill-rule="nonzero" stroke="none" stroke-width="1" stroke-linecap="butt" stroke-linejoin="miter" stroke-miterlimit="10" stroke-dasharray="" stroke-dashoffset="0" font-family="&quot;ヒラギノ角ゴ Pro W3&quot;, &quot;Hiragino Kaku Gothic Pro&quot;, Osaka, &quot;メイリオ&quot;, Meiryo, &quot;ＭＳ Ｐゴシック&quot;, &quot;MS PGothic&quot;" font-weight="normal" text-anchor="start" style="mix-blend-mode: normal"><tspan x="0" dy="0">U</tspan></text></g><g><path d="M288.88897,138.30566c0,-0.95215 0.41182,-1.72403 0.91982,-1.72403h19.74357c0.24395,0 0.47791,0.18164 0.65041,0.50495c0.1725,0.32331 0.26942,0.76183 0.26942,1.21908v24.44429c0,0.95215 -0.41182,1.72402 -0.91983,1.72402h-19.74357c-0.508,0 -0.91982,-0.77187 -0.91982,-1.72402z" fill="#ffffff" fill-rule="evenodd" stroke-linecap="square"/><text transform="translate(296.79607,159.64134) scale(0.64385,0.64385)" font-size="40" xml:space="preserve" fill="#000000" fill-rule="nonzero" stroke="none" stroke-width="1" stroke-linecap="butt" stroke-linejoin="miter" stroke-miterlimit="10" stroke-dasharray="" stroke-dashoffset="0" font-family="&quot;ヒラギノ角ゴ Pro W3&quot;, &quot;Hiragino Kaku Gothic Pro&quot;, Osaka, &quot;メイリオ&quot;, Meiryo, &quot;ＭＳ Ｐゴシック&quot;, &quot;MS PGothic&quot;" font-weight="normal" text-anchor="start" style="mix-blend-mode: normal"><tspan x="0" dy="0">I</tspan></text></g><g><path d="M312.88897,138.13896c0,-0.95215 0.41182,-1.72403 0.91983,-1.72403h19.74357c0.24395,0 0.47791,0.18164 0.65041,0.50495c0.1725,0.32331 0.26942,0.76183 0.26942,1.21908v24.44429c0,0.95215 -0.41182,1.72402 -0.91983,1.72402h-19.74357c-0.508,0 -0.91983,-0.77187 -0.91983,-1.72402z" fill="#ffffff" fill-rule="evenodd" stroke-linecap="square"/><text transform="translate(314.79607,159.64134) scale(0.64385,0.64385)" font-size="40" xml:space="preserve" fill="#000000" fill-rule="nonzero" stroke="none" stroke-width="1" stroke-linecap="butt" stroke-linejoin="miter" stroke-miterlimit="10" stroke-dasharray="" stroke-dashoffset="0" font-family="&quot;ヒラギノ角ゴ Pro W3&quot;, &quot;Hiragino Kaku Gothic Pro&quot;, Osaka, &quot;メイリオ&quot;, Meiryo, &quot;ＭＳ Ｐゴシック&quot;, &quot;MS PGothic&quot;" font-weight="normal" text-anchor="start" style="mix-blend-mode: normal"><tspan x="0" dy="0">O</tspan></text></g><g><path d="M336.88897,138.13896c0,-0.95215 0.41182,-1.72403 0.91983,-1.72403h19.74357c0.24395,0 0.47792,0.18164 0.65042,0.50495c0.1725,0.32332 0.26941,0.76183 0.26941,1.21907v24.44429c0,0.95215 -0.41182,1.72402 -0.91983,1.72402h-19.74357c-0.50801,0 -0.91983,-0.77187 -0.91983,-1.72402z" fill="#ffffff" fill-rule="evenodd" stroke-linecap="square"/><text transform="translate(340.29611,159.47466) scale(0.64385,0.64385)" font-size="40" xml:space="preserve" fill="#000000" fill-rule="nonzero" stroke="none" stroke-width="1" stroke-linecap="butt" stroke-linejoin="miter" stroke-miterlimit="10" stroke-dasharray="" stroke-dashoffset="0" font-family="&quot;ヒラギノ角ゴ Pro W3&quot;, &quot;Hiragino Kaku Gothic Pro&quot;, Osaka, &quot;メイリオ&quot;, Meiryo, &quot;ＭＳ Ｐゴシック&quot;, &quot;MS PGothic&quot;" font-weight="normal" text-anchor="start" style="mix-blend-mode: normal"><tspan x="0" dy="0">P</tspan></text></g><g><path d="M121.52786,169.88409c0,-0.95215 0.41182,-1.72403 0.91982,-1.72403h19.74357c0.24395,0 0.47791,0.18164 0.65041,0.50495c0.1725,0.32331 0.26942,0.76183 0.26942,1.21908v24.44429c0,0.95215 -0.41182,1.72402 -0.91983,1.72402h-19.74357c-0.508,0 -0.91982,-0.77187 -0.91982,-1.72402z" fill="#ffffff" fill-rule="evenodd" stroke-linecap="square"/><text transform="translate(123.83337,191.33507) scale(0.65815,0.65815)" font-size="40" xml:space="preserve" fill="#000000" fill-rule="nonzero" stroke="none" stroke-width="1" stroke-linecap="butt" stroke-linejoin="miter" stroke-miterlimit="10" stroke-dasharray="" stroke-dashoffset="0" font-family="&quot;ヒラギノ角ゴ Pro W3&quot;, &quot;Hiragino Kaku Gothic Pro&quot;, Osaka, &quot;メイリオ&quot;, Meiryo, &quot;ＭＳ Ｐゴシック&quot;, &quot;MS PGothic&quot;" font-weight="normal" text-anchor="start" style="mix-blend-mode: normal"><tspan x="0" dy="0">A</tspan></text></g><g><path d="M145.52783,170.05073c0,-0.95215 0.41182,-1.72403 0.91983,-1.72403h19.74357c0.24395,0 0.47791,0.18164 0.65041,0.50495c0.1725,0.32331 0.26942,0.76183 0.26942,1.21908v24.4443c0,0.95215 -0.41182,1.72402 -0.91983,1.72402h-19.74357c-0.508,0 -0.91983,-0.77187 -0.91983,-1.72402z" fill="#ffffff" fill-rule="evenodd" stroke-linecap="square"/><text transform="translate(148.1667,191.6684) scale(0.65815,0.65815)" font-size="40" xml:space="preserve" fill="#000000" fill-rule="nonzero" stroke="none" stroke-width="1" stroke-linecap="butt" stroke-linejoin="miter" stroke-miterlimit="10" stroke-dasharray="" stroke-dashoffset="0" font-family="&quot;ヒラギノ角ゴ Pro W3&quot;, &quot;Hiragino Kaku Gothic Pro&quot;, Osaka, &quot;メイリオ&quot;, Meiryo, &quot;ＭＳ Ｐゴシック&quot;, &quot;MS PGothic&quot;" font-weight="normal" text-anchor="start" style="mix-blend-mode: normal"><tspan x="0" dy="0">S</tspan></text></g><g><path d="M169.52787,169.88409c0,-0.95215 0.41182,-1.72403 0.91983,-1.72403h19.74357c0.24395,0 0.47791,0.18164 0.65041,0.50495c0.1725,0.32331 0.26942,0.76183 0.26942,1.21908v24.44429c0,0.95215 -0.41182,1.72402 -0.91983,1.72402h-19.74357c-0.508,0 -0.91983,-0.77187 -0.91983,-1.72402z" fill="#ffffff" fill-rule="evenodd" stroke-linecap="square"/><text transform="translate(172.33338,191.83507) scale(0.65815,0.65815)" font-size="40" xml:space="preserve" fill="#000000" fill-rule="nonzero" stroke="none" stroke-width="1" stroke-linecap="butt" stroke-linejoin="miter" stroke-miterlimit="10" stroke-dasharray="" stroke-dashoffset="0" font-family="&quot;ヒラギノ角ゴ Pro W3&quot;, &quot;Hiragino Kaku Gothic Pro&quot;, Osaka, &quot;メイリオ&quot;, Meiryo, &quot;ＭＳ Ｐゴシック&quot;, &quot;MS PGothic&quot;" font-weight="normal" text-anchor="start" style="mix-blend-mode: normal"><tspan x="0" dy="0">D</tspan></text></g><g><path d="M193.52787,170.13409c0,-0.95215 0.41182,-1.72403 0.91983,-1.72403h19.74357c0.24395,0 0.47792,0.18164 0.65042,0.50495c0.1725,0.32332 0.26941,0.76183 0.26941,1.21907v24.44429c0,0.95215 -0.41182,1.72402 -0.91983,1.72402h-19.74357c-0.50801,0 -0.91983,-0.77187 -0.91983,-1.72402z" fill="#ffffff" fill-rule="evenodd" stroke-linecap="square"/><text transform="translate(197.33338,191.83507) scale(0.65815,0.65815)" font-size="40" xml:space="preserve" fill="#000000" fill-rule="nonzero" stroke="none" stroke-width="1" stroke-linecap="butt" stroke-linejoin="miter" stroke-miterlimit="10" stroke-dasharray="" stroke-dashoffset="0" font-family="&quot;ヒラギノ角ゴ Pro W3&quot;, &quot;Hiragino Kaku Gothic Pro&quot;, Osaka, &quot;メイリオ&quot;, Meiryo, &quot;ＭＳ Ｐゴシック&quot;, &quot;MS PGothic&quot;" font-weight="normal" text-anchor="start" style="mix-blend-mode: normal"><tspan x="0" dy="0">F</tspan></text></g><g><path d="M217.52787,170.30073c0,-0.95215 0.41182,-1.72403 0.91982,-1.72403h19.74357c0.24395,0 0.47791,0.18164 0.65041,0.50495c0.1725,0.32331 0.26942,0.76183 0.26942,1.21908v24.44429c0,0.95215 -0.41182,1.72402 -0.91983,1.72402h-19.74357c-0.508,0 -0.91982,-0.77187 -0.91982,-1.72402z" fill="#ffffff" fill-rule="evenodd" stroke-linecap="square"/><text transform="translate(219.50005,191.6684) scale(0.65815,0.65815)" font-size="40" xml:space="preserve" fill="#000000" fill-rule="nonzero" stroke="none" stroke-width="1" stroke-linecap="butt" stroke-linejoin="miter" stroke-miterlimit="10" stroke-dasharray="" stroke-dashoffset="0" font-family="&quot;ヒラギノ角ゴ Pro W3&quot;, &quot;Hiragino Kaku Gothic Pro&quot;, Osaka, &quot;メイリオ&quot;, Meiryo, &quot;ＭＳ Ｐゴシック&quot;, &quot;MS PGothic&quot;" font-weight="normal" text-anchor="start" style="mix-blend-mode: normal"><tspan x="0" dy="0">G</tspan></text></g><g><path d="M241.52787,170.13409c0,-0.95215 0.41182,-1.72403 0.91983,-1.72403h19.74357c0.24395,0 0.47791,0.18164 0.65041,0.50495c0.1725,0.32331 0.26942,0.76183 0.26942,1.21908v24.44429c0,0.95215 -0.41182,1.72402 -0.91983,1.72402h-19.74357c-0.508,0 -0.91983,-0.77187 -0.91983,-1.72402z" fill="#ffffff" fill-rule="evenodd" stroke-linecap="square"/><text transform="translate(244.16669,191.83507) scale(0.65815,0.65815)" font-size="40" xml:space="preserve" fill="#000000" fill-rule="nonzero" stroke="none" stroke-width="1" stroke-linecap="butt" stroke-linejoin="miter" stroke-miterlimit="10" stroke-dasharray="" stroke-dashoffset="0" font-family="&quot;ヒラギノ角ゴ Pro W3&quot;, &quot;Hiragino Kaku Gothic Pro&quot;, Osaka, &quot;メイリオ&quot;, Meiryo, &quot;ＭＳ Ｐゴシック&quot;, &quot;MS PGothic&quot;" font-weight="normal" text-anchor="start" style="mix-blend-mode: normal"><tspan x="0" dy="0">H</tspan></text></g><g><path d="M265.02787,170.13409c0,-0.95215 0.41182,-1.72403 0.91983,-1.72403h19.74357c0.24395,0 0.47792,0.18164 0.65042,0.50495c0.1725,0.32332 0.26941,0.76183 0.26941,1.21907v24.44429c0,0.95215 -0.41182,1.72402 -0.91983,1.72402h-19.74357c-0.50801,0 -0.91983,-0.77187 -0.91983,-1.72402z" fill="#ffffff" fill-rule="evenodd" stroke-linecap="square"/><text transform="translate(269.1667,191.6684) scale(0.65815,0.65815)" font-size="40" xml:space="preserve" fill="#000000" fill-rule="nonzero" stroke="none" stroke-width="1" stroke-linecap="butt" stroke-linejoin="miter" stroke-miterlimit="10" stroke-dasharray="" stroke-dashoffset="0" font-family="&quot;ヒラギノ角ゴ Pro W3&quot;, &quot;Hiragino Kaku Gothic Pro&quot;, Osaka, &quot;メイリオ&quot;, Meiryo, &quot;ＭＳ Ｐゴシック&quot;, &quot;MS PGothic&quot;" font-weight="normal" text-anchor="start" style="mix-blend-mode: normal"><tspan x="0" dy="0">J</tspan></text></g><g><path d="M289.02787,170.30073c0,-0.95215 0.41182,-1.72403 0.91982,-1.72403h19.74357c0.24395,0 0.47791,0.18164 0.65041,0.50495c0.1725,0.32331 0.26942,0.76183 0.26942,1.21908v24.44429c0,0.95215 -0.41182,1.72402 -0.91983,1.72402h-19.74357c-0.508,0 -0.91982,-0.77187 -0.91982,-1.72402z" fill="#ffffff" fill-rule="evenodd" stroke-linecap="square"/><text transform="translate(291.83338,191.50174) scale(0.65815,0.65815)" font-size="40" xml:space="preserve" fill="#000000" fill-rule="nonzero" stroke="none" stroke-width="1" stroke-linecap="butt" stroke-linejoin="miter" stroke-miterlimit="10" stroke-dasharray="" stroke-dashoffset="0" font-family="&quot;ヒラギノ角ゴ Pro W3&quot;, &quot;Hiragino Kaku Gothic Pro&quot;, Osaka, &quot;メイリオ&quot;, Meiryo, &quot;ＭＳ Ｐゴシック&quot;, &quot;MS PGothic&quot;" font-weight="normal" text-anchor="start" style="mix-blend-mode: normal"><tspan x="0" dy="0">K</tspan></text></g><g><path d="M313.02787,170.13409c0,-0.95215 0.41182,-1.72403 0.91983,-1.72403h19.74357c0.24395,0 0.47791,0.18164 0.65041,0.50495c0.1725,0.32331 0.26942,0.76183 0.26942,1.21908v24.44429c0,0.95215 -0.41182,1.72402 -0.91983,1.72402h-19.74357c-0.508,0 -0.91983,-0.77187 -0.91983,-1.72402z" fill="#ffffff" fill-rule="evenodd" stroke-linecap="square"/><text transform="translate(316.50001,191.50174) scale(0.65815,0.65815)" font-size="40" xml:space="preserve" fill="#000000" fill-rule="nonzero" stroke="none" stroke-width="1" stroke-linecap="butt" stroke-linejoin="miter" stroke-miterlimit="10" stroke-dasharray="" stroke-dashoffset="0" font-family="&quot;ヒラギノ角ゴ Pro W3&quot;, &quot;Hiragino Kaku Gothic Pro&quot;, Osaka, &quot;メイリオ&quot;, Meiryo, &quot;ＭＳ Ｐゴシック&quot;, &quot;MS PGothic&quot;" font-weight="normal" text-anchor="start" style="mix-blend-mode: normal"><tspan x="0" dy="0">L</tspan></text></g><g><path d="M337.02787,170.13409c0,-0.95215 0.41182,-1.72403 0.91983,-1.72403h19.74357c0.24395,0 0.47792,0.18164 0.65042,0.50495c0.1725,0.32332 0.26941,0.76183 0.26941,1.21907v24.44429c0,0.95215 -0.41182,1.72402 -0.91983,1.72402h-19.74357c-0.50801,0 -0.91983,-0.77187 -0.91983,-1.72402z" fill="#ffffff" fill-rule="evenodd" stroke-linecap="square"/><text transform="translate(342.63807,182.95105) scale(1.27084,1.27084)" font-size="40" xml:space="preserve" fill="#000000" fill-rule="nonzero" stroke="none" stroke-width="1" stroke-linecap="butt" stroke-linejoin="miter" stroke-miterlimit="10" stroke-dasharray="" stroke-dashoffset="0" font-family="&quot;ヒラギノ角ゴ Pro W3&quot;, &quot;Hiragino Kaku Gothic Pro&quot;, Osaka, &quot;メイリオ&quot;, Meiryo, &quot;ＭＳ Ｐゴシック&quot;, &quot;MS PGothic&quot;" font-weight="normal" text-anchor="start" style="mix-blend-mode: normal"><tspan x="0" dy="0">,</tspan></text></g><g><path d="M121.52786,199.88409c0,-0.95215 0.41182,-1.72403 0.91982,-1.72403h19.74357c0.24395,0 0.47791,0.18164 0.65041,0.50495c0.1725,0.32331 0.26942,0.76183 0.26942,1.21908v24.44429c0,0.95215 -0.41182,1.72402 -0.91983,1.72402h-19.74357c-0.508,0 -0.91982,-0.77187 -0.91982,-1.72402z" fill="#ffffff" fill-rule="evenodd" stroke-linecap="square"/><text transform="translate(125.40004,220.84967) scale(0.63834,0.63834)" font-size="40" xml:space="preserve" fill="#000000" fill-rule="nonzero" stroke="none" stroke-width="1" stroke-linecap="butt" stroke-linejoin="miter" stroke-miterlimit="10" stroke-dasharray="" stroke-dashoffset="0" font-family="&quot;ヒラギノ角ゴ Pro W3&quot;, &quot;Hiragino Kaku Gothic Pro&quot;, Osaka, &quot;メイリオ&quot;, Meiryo, &quot;ＭＳ Ｐゴシック&quot;, &quot;MS PGothic&quot;" font-weight="normal" text-anchor="start" style="mix-blend-mode: normal"><tspan x="0" dy="0">Z</tspan></text></g><g><path d="M145.52783,200.05073c0,-0.95215 0.41182,-1.72403 0.91983,-1.72403h19.74357c0.24395,0 0.47791,0.18164 0.65041,0.50495c0.1725,0.32331 0.26942,0.76183 0.26942,1.21908v24.4443c0,0.95215 -0.41182,1.72402 -0.91983,1.72402h-19.74357c-0.508,0 -0.91983,-0.77187 -0.91983,-1.72402z" fill="#ffffff" fill-rule="evenodd" stroke-linecap="square"/><text transform="translate(149.00004,220.64967) scale(0.63834,0.63834)" font-size="40" xml:space="preserve" fill="#000000" fill-rule="nonzero" stroke="none" stroke-width="1" stroke-linecap="butt" stroke-linejoin="miter" stroke-miterlimit="10" stroke-dasharray="" stroke-dashoffset="0" font-family="&quot;ヒラギノ角ゴ Pro W3&quot;, &quot;Hiragino Kaku Gothic Pro&quot;, Osaka, &quot;メイリオ&quot;, Meiryo, &quot;ＭＳ Ｐゴシック&quot;, &quot;MS PGothic&quot;" font-weight="normal" text-anchor="start" style="mix-blend-mode: normal"><tspan x="0" dy="0">X</tspan></text></g><g><path d="M169.52787,199.88409c0,-0.95215 0.41182,-1.72403 0.91983,-1.72403h19.74357c0.24395,0 0.47791,0.18164 0.65041,0.50495c0.1725,0.32331 0.26942,0.76183 0.26942,1.21908v24.44429c0,0.95215 -0.41182,1.72402 -0.91983,1.72402h-19.74357c-0.508,0 -0.91983,-0.77187 -0.91983,-1.72402z" fill="#ffffff" fill-rule="evenodd" stroke-linecap="square"/><text transform="translate(172.00005,220.64967) scale(0.63834,0.63834)" font-size="40" xml:space="preserve" fill="#000000" fill-rule="nonzero" stroke="none" stroke-width="1" stroke-linecap="butt" stroke-linejoin="miter" stroke-miterlimit="10" stroke-dasharray="" stroke-dashoffset="0" font-family="&quot;ヒラギノ角ゴ Pro W3&quot;, &quot;Hiragino Kaku Gothic Pro&quot;, Osaka, &quot;メイリオ&quot;, Meiryo, &quot;ＭＳ Ｐゴシック&quot;, &quot;MS PGothic&quot;" font-weight="normal" text-anchor="start" style="mix-blend-mode: normal"><tspan x="0" dy="0">C</tspan></text></g><g><path d="M193.52787,200.13409c0,-0.95215 0.41182,-1.72403 0.91983,-1.72403h19.74357c0.24395,0 0.47792,0.18164 0.65042,0.50495c0.1725,0.32332 0.26941,0.76183 0.26941,1.21907v24.44429c0,0.95215 -0.41182,1.72402 -0.91983,1.72402h-19.74357c-0.50801,0 -0.91983,-0.77187 -0.91983,-1.72402z" fill="#ffffff" fill-rule="evenodd" stroke-linecap="square"/><text transform="translate(196.60005,221.04966) scale(0.63834,0.63834)" font-size="40" xml:space="preserve" fill="#000000" fill-rule="nonzero" stroke="none" stroke-width="1" stroke-linecap="butt" stroke-linejoin="miter" stroke-miterlimit="10" stroke-dasharray="" stroke-dashoffset="0" font-family="&quot;ヒラギノ角ゴ Pro W3&quot;, &quot;Hiragino Kaku Gothic Pro&quot;, Osaka, &quot;メイリオ&quot;, Meiryo, &quot;ＭＳ Ｐゴシック&quot;, &quot;MS PGothic&quot;" font-weight="normal" text-anchor="start" style="mix-blend-mode: normal"><tspan x="0" dy="0">V</tspan></text></g><g><path d="M217.52787,200.30073c0,-0.95215 0.41182,-1.72403 0.91982,-1.72403h19.74357c0.24395,0 0.47791,0.18164 0.65041,0.50495c0.1725,0.32331 0.26942,0.76183 0.26942,1.21908v24.44429c0,0.95215 -0.41182,1.72402 -0.91983,1.72402h-19.74357c-0.508,0 -0.91982,-0.77187 -0.91982,-1.72402z" fill="#ffffff" fill-rule="evenodd" stroke-linecap="square"/><text transform="translate(220.60005,221.04966) scale(0.63834,0.63834)" font-size="40" xml:space="preserve" fill="#000000" fill-rule="nonzero" stroke="none" stroke-width="1" stroke-linecap="butt" stroke-linejoin="miter" stroke-miterlimit="10" stroke-dasharray="" stroke-dashoffset="0" font-family="&quot;ヒラギノ角ゴ Pro W3&quot;, &quot;Hiragino Kaku Gothic Pro&quot;, Osaka, &quot;メイリオ&quot;, Meiryo, &quot;ＭＳ Ｐゴシック&quot;, &quot;MS PGothic&quot;" font-weight="normal" text-anchor="start" style="mix-blend-mode: normal"><tspan x="0" dy="0">B</tspan></text></g><g><path d="M241.52787,200.13409c0,-0.95215 0.41182,-1.72403 0.91983,-1.72403h19.74357c0.24395,0 0.47791,0.18164 0.65041,0.50495c0.1725,0.32331 0.26942,0.76183 0.26942,1.21908v24.44429c0,0.95215 -0.41182,1.72402 -0.91983,1.72402h-19.74357c-0.508,0 -0.91983,-0.77187 -0.91983,-1.72402z" fill="#ffffff" fill-rule="evenodd" stroke-linecap="square"/><text transform="translate(244.40003,220.84967) scale(0.63834,0.63834)" font-size="40" xml:space="preserve" fill="#000000" fill-rule="nonzero" stroke="none" stroke-width="1" stroke-linecap="butt" stroke-linejoin="miter" stroke-miterlimit="10" stroke-dasharray="" stroke-dashoffset="0" font-family="&quot;ヒラギノ角ゴ Pro W3&quot;, &quot;Hiragino Kaku Gothic Pro&quot;, Osaka, &quot;メイリオ&quot;, Meiryo, &quot;ＭＳ Ｐゴシック&quot;, &quot;MS PGothic&quot;" font-weight="normal" text-anchor="start" style="mix-blend-mode: normal"><tspan x="0" dy="0">N</tspan></text></g><g><path d="M265.02787,200.13409c0,-0.95215 0.41182,-1.72403 0.91983,-1.72403h19.74357c0.24395,0 0.47792,0.18164 0.65042,0.50495c0.1725,0.32332 0.26941,0.76183 0.26941,1.21907v24.44429c0,0.95215 -0.41182,1.72402 -0.91983,1.72402h-19.74357c-0.50801,0 -0.91983,-0.77187 -0.91983,-1.72402z" fill="#ffffff" fill-rule="evenodd" stroke-linecap="square"/><text transform="translate(266.40004,220.84967) scale(0.63834,0.63834)" font-size="40" xml:space="preserve" fill="#000000" fill-rule="nonzero" stroke="none" stroke-width="1" stroke-linecap="butt" stroke-linejoin="miter" stroke-miterlimit="10" stroke-dasharray="" stroke-dashoffset="0" font-family="&quot;ヒラギノ角ゴ Pro W3&quot;, &quot;Hiragino Kaku Gothic Pro&quot;, Osaka, &quot;メイリオ&quot;, Meiryo, &quot;ＭＳ Ｐゴシック&quot;, &quot;MS PGothic&quot;" font-weight="normal" text-anchor="start" style="mix-blend-mode: normal"><tspan x="0" dy="0">M</tspan></text></g><g><path d="M289.02787,200.30073c0,-0.95215 0.41182,-1.72403 0.91982,-1.72403h19.74357c0.24395,0 0.47791,0.18164 0.65041,0.50495c0.1725,0.32331 0.26942,0.76183 0.26942,1.21908v24.44429c0,0.95215 -0.41182,1.72402 -0.91983,1.72402h-19.74357c-0.508,0 -0.91982,-0.77187 -0.91982,-1.72402z" fill="#ffffff" fill-rule="evenodd" stroke-linecap="square"/><text transform="translate(296.69611,219.14546) scale(0.73008,0.73008)" font-size="40" xml:space="preserve" fill="#000000" fill-rule="nonzero" stroke="none" stroke-width="1" stroke-linecap="butt" stroke-linejoin="miter" stroke-miterlimit="10" stroke-dasharray="" stroke-dashoffset="0" font-family="&quot;ヒラギノ角ゴ Pro W3&quot;, &quot;Hiragino Kaku Gothic Pro&quot;, Osaka, &quot;メイリオ&quot;, Meiryo, &quot;ＭＳ Ｐゴシック&quot;, &quot;MS PGothic&quot;" font-weight="normal" text-anchor="start" style="mix-blend-mode: normal"><tspan x="0" dy="0">;</tspan></text></g><g><path d="M313.02787,200.13409c0,-0.95215 0.41182,-1.72403 0.91983,-1.72403h19.74357c0.24395,0 0.47791,0.18164 0.65041,0.50495c0.1725,0.32331 0.26942,0.76183 0.26942,1.21908v24.44429c0,0.95215 -0.41182,1.72402 -0.91983,1.72402h-19.74357c-0.508,0 -0.91983,-0.77187 -0.91983,-1.72402z" fill="#ffffff" fill-rule="evenodd" stroke-linecap="square"/><text transform="translate(321.09613,219.34546) scale(0.73008,0.73008)" font-size="40" xml:space="preserve" fill="#000000" fill-rule="nonzero" stroke="none" stroke-width="1" stroke-linecap="butt" stroke-linejoin="miter" stroke-miterlimit="10" stroke-dasharray="" stroke-dashoffset="0" font-family="&quot;ヒラギノ角ゴ Pro W3&quot;, &quot;Hiragino Kaku Gothic Pro&quot;, Osaka, &quot;メイリオ&quot;, Meiryo, &quot;ＭＳ Ｐゴシック&quot;, &quot;MS PGothic&quot;" font-weight="normal" text-anchor="start" style="mix-blend-mode: normal"><tspan x="0" dy="0">:</tspan></text></g><g><path d="M337.02787,200.13409c0,-0.95215 0.41182,-1.72403 0.91983,-1.72403h19.74357c0.24395,0 0.47792,0.18164 0.65042,0.50495c0.1725,0.32332 0.26941,0.76183 0.26941,1.21907v24.44429c0,0.95215 -0.41182,1.72402 -0.91983,1.72402h-19.74357c-0.50801,0 -0.91983,-0.77187 -0.91983,-1.72402z" fill="#ffffff" fill-rule="evenodd" stroke-linecap="square"/><text transform="translate(344.69614,221.94545) scale(0.73008,0.73008)" font-size="40" xml:space="preserve" fill="#000000" fill-rule="nonzero" stroke="none" stroke-width="1" stroke-linecap="butt" stroke-linejoin="miter" stroke-miterlimit="10" stroke-dasharray="" stroke-dashoffset="0" font-family="&quot;ヒラギノ角ゴ Pro W3&quot;, &quot;Hiragino Kaku Gothic Pro&quot;, Osaka, &quot;メイリオ&quot;, Meiryo, &quot;ＭＳ Ｐゴシック&quot;, &quot;MS PGothic&quot;" font-weight="normal" text-anchor="start" style="mix-blend-mode: normal"><tspan x="0" dy="0">!</tspan></text></g><g><path d="M307.27787,231.87709c0,-0.85354 0.9588,-1.54546 2.14153,-1.54546h45.96682c0.56797,0 1.11268,0.16283 1.51429,0.45266c0.40162,0.28983 0.62724,0.68293 0.62724,1.09281v21.91253c0,0.85354 -0.9588,1.54546 -2.14153,1.54546h-45.96682c-1.18274,0 -2.14153,-0.69193 -2.14153,-1.54546z" fill="#ffffff" fill-rule="evenodd" stroke-linecap="square"/><text transform="translate(309.89614,248.54066) scale(0.48048,0.48048)" font-size="40" xml:space="preserve" fill="#000000" fill-rule="nonzero" stroke="none" stroke-width="1" stroke-linecap="butt" stroke-linejoin="miter" stroke-miterlimit="10" stroke-dasharray="" stroke-dashoffset="0" font-family="&quot;ヒラギノ角ゴ Pro W3&quot;, &quot;Hiragino Kaku Gothic Pro&quot;, Osaka, &quot;メイリオ&quot;, Meiryo, &quot;ＭＳ Ｐゴシック&quot;, &quot;MS PGothic&quot;" font-weight="normal" text-anchor="start" style="mix-blend-mode: normal"><tspan x="0" dy="0">Close</tspan></text></g><g><path d="M178.07567,231.87707c0,-0.85354 2.36508,-1.54546 5.28254,-1.54546h113.38695c1.40102,0 2.74466,0.16283 3.73533,0.45266c0.99068,0.28983 1.54722,0.68293 1.54722,1.09281v21.91253c0,0.85354 -2.36508,1.54546 -5.28255,1.54546h-113.38695c-2.91747,0 -5.28254,-0.69193 -5.28254,-1.54546z" fill="#ffffff" fill-rule="evenodd" stroke-linecap="square"/><text transform="translate(221.73317,248.48462) scale(2.79744,1.23846)" font-size="40" xml:space="preserve" fill="#000000" fill-rule="nonzero" stroke="none" stroke-width="1" stroke-linecap="butt" stroke-linejoin="miter" stroke-miterlimit="10" stroke-dasharray="" stroke-dashoffset="0" font-family="&quot;ヒラギノ角ゴ Pro W3&quot;, &quot;Hiragino Kaku Gothic Pro&quot;, Osaka, &quot;メイリオ&quot;, Meiryo, &quot;ＭＳ Ｐゴシック&quot;, &quot;MS PGothic&quot;" font-weight="normal" text-anchor="start" style="mix-blend-mode: normal"><tspan x="0" dy="0">_</tspan></text></g><g><path d="M121.88141,231.60001c0,-0.85354 0.9588,-1.54546 2.14153,-1.54546h45.96682c0.56797,0 1.11268,0.16283 1.51429,0.45266c0.40162,0.28983 0.62724,0.68293 0.62724,1.09281v21.91253c0,0.85354 -0.9588,1.54546 -2.14153,1.54546h-45.96682c-1.18274,0 -2.14153,-0.69193 -2.14153,-1.54546z" fill="#ffffff" fill-rule="evenodd" stroke-linecap="square"/><text transform="translate(131.69848,250.74663) scale(0.57642,0.57642)" font-size="40" xml:space="preserve" fill="#000000" fill-rule="nonzero" stroke="none" stroke-width="1" stroke-linecap="butt" stroke-linejoin="miter" stroke-miterlimit="10" stroke-dasharray="" stroke-dashoffset="0" font-family="&quot;ヒラギノ角ゴ Pro W3&quot;, &quot;Hiragino Kaku Gothic Pro&quot;, Osaka, &quot;メイリオ&quot;, Meiryo, &quot;ＭＳ Ｐゴシック&quot;, &quot;MS PGothic&quot;" font-weight="normal" text-anchor="start" style="mix-blend-mode: normal"><tspan x="0" dy="0">OK</tspan></text></g></g></g></svg>