<svg version="1.1" xmlns="http://www.w3.org/2000/svg" xmlns:xlink="http://www.w3.org/1999/xlink" width="486.31113" height="358.20645" viewBox="0,0,486.31113,358.20645"><g transform="translate(159.75,22.25)"><g data-paper-data="{&quot;isPaintingLayer&quot;:true}" fill-rule="nonzero" stroke-linejoin="miter" stroke-miterlimit="10" stroke-dasharray="" stroke-dashoffset="0" style="mix-blend-mode: normal"><path d="M-151.5,-22l-8,21" fill="none" stroke="#000000" stroke-width="0.5" stroke-linecap="round"/><path d="M153.43887,161.18362v-1.85937h2.10938v-9.32812h-2.10937v-1.875h6.23438v1.875h-2.10937v9.32812h2.10938v1.85938zM162.35656,161.18362v-9.79687h1.92188v2.01563l-0.34375,0.21875c0.125,-0.42708 0.36979,-0.82292 0.73438,-1.1875c0.36459,-0.375 0.79166,-0.67708 1.28125,-0.90625c0.5,-0.22917 1.01041,-0.34375 1.53125,-0.34375c0.75,0 1.36979,0.14583 1.85938,0.4375c0.5,0.29167 0.875,0.73958 1.125,1.34375c0.25,0.59375 0.375,1.34375 0.375,2.25v5.96875h-1.92187v-5.84375c0,-0.55208 -0.07291,-1.01042 -0.21875,-1.375c-0.14584,-0.375 -0.375,-0.64583 -0.6875,-0.8125c-0.3125,-0.16667 -0.69791,-0.23958 -1.15625,-0.21875c-0.375,0 -0.71875,0.0625 -1.03125,0.1875c-0.3125,0.11458 -0.58334,0.28125 -0.8125,0.5c-0.22916,0.20833 -0.41146,0.45313 -0.54687,0.73438c-0.125,0.27083 -0.1875,0.56771 -0.1875,0.89063v5.9375h-0.95312c-0.15625,0 -0.31771,0 -0.48437,0c-0.16666,0 -0.32812,0 -0.48437,0zM177.61328,161.37112c-0.90625,0 -1.71875,-0.22396 -2.4375,-0.67187c-0.70834,-0.44791 -1.27084,-1.05729 -1.6875,-1.82812c-0.41666,-0.77083 -0.625,-1.63541 -0.625,-2.59375c0,-0.95833 0.20834,-1.82292 0.625,-2.59375c0.41666,-0.77083 0.97916,-1.38021 1.6875,-1.82812c0.71875,-0.44792 1.53125,-0.67187 2.4375,-0.67187c0.875,0 1.66666,0.17708 2.375,0.53125c0.71875,0.35417 1.26563,0.83854 1.64063,1.45313l-1.0625,1.29688c-0.19791,-0.28125 -0.45312,-0.54167 -0.76562,-0.78125c-0.3125,-0.23958 -0.64584,-0.42708 -1,-0.5625c-0.34375,-0.13542 -0.67709,-0.20312 -1,-0.20312c-0.59375,0 -1.125,0.14583 -1.59375,0.4375c-0.46875,0.29167 -0.83854,0.69271 -1.10937,1.20313c-0.27084,0.51042 -0.40625,1.08333 -0.40625,1.71875c0,0.63542 0.14063,1.20834 0.42188,1.71875c0.29166,0.5 0.67188,0.90104 1.14063,1.20313c0.46875,0.29167 0.98959,0.4375 1.5625,0.4375c0.34375,0 0.67188,-0.05729 0.98438,-0.17187c0.3125,-0.11458 0.61979,-0.28125 0.92188,-0.5c0.30209,-0.22916 0.58334,-0.50521 0.84375,-0.82812l1.0625,1.3125c-0.39584,0.5625 -0.96354,1.02604 -1.70312,1.39063c-0.73959,0.35417 -1.51041,0.53125 -2.3125,0.53125zM187.84435,161.37112c-0.95834,0 -1.81771,-0.21875 -2.57812,-0.65625c-0.75,-0.44791 -1.34375,-1.05208 -1.78125,-1.8125c-0.42709,-0.77083 -0.64062,-1.64583 -0.64062,-2.625c0,-0.97917 0.21354,-1.84896 0.64063,-2.60937c0.4375,-0.77083 1.03125,-1.375 1.78125,-1.8125c0.76041,-0.44792 1.61979,-0.67187 2.57813,-0.67187c0.9375,0 1.78125,0.22396 2.53125,0.67188c0.76041,0.4375 1.35938,1.04167 1.79688,1.8125c0.4375,0.76042 0.65625,1.63021 0.65625,2.60938c0,0.97917 -0.21875,1.85417 -0.65625,2.625c-0.4375,0.76042 -1.03646,1.36459 -1.79687,1.8125c-0.75,0.4375 -1.59375,0.65625 -2.53125,0.65625zM187.84435,159.62112c0.58334,0 1.10416,-0.14583 1.5625,-0.4375c0.45834,-0.29166 0.81771,-0.6875 1.07813,-1.1875c0.26041,-0.51041 0.38541,-1.08333 0.375,-1.71875c0.01041,-0.64583 -0.11459,-1.21875 -0.375,-1.71875c-0.26041,-0.51042 -0.61979,-0.90625 -1.07812,-1.1875c-0.45834,-0.29167 -0.97916,-0.4375 -1.5625,-0.4375c-0.58334,0 -1.10937,0.14583 -1.57812,0.4375c-0.46875,0.29167 -0.83334,0.69271 -1.09375,1.20313c-0.26041,0.5 -0.38541,1.06771 -0.375,1.70313c-0.01041,0.63542 0.11459,1.20834 0.375,1.71875c0.26041,0.5 0.625,0.89584 1.09375,1.1875c0.46875,0.29167 0.99479,0.4375 1.57813,0.4375zM194.91171,161.18362v-9.79687h1.9375v3.07813l-0.1875,-0.75c0.13541,-0.46875 0.36979,-0.89583 0.70313,-1.28125c0.33334,-0.38542 0.71354,-0.6875 1.14063,-0.90625c0.42709,-0.22917 0.86979,-0.34375 1.32813,-0.34375c0.20834,0 0.40625,0.02083 0.59375,0.0625c0.19791,0.03125 0.35416,0.07292 0.46875,0.125l-0.5,2.09375c-0.14584,-0.0625 -0.3125,-0.11458 -0.5,-0.15625c-0.17709,-0.05208 -0.35416,-0.07812 -0.53125,-0.07812c-0.33334,0 -0.65104,0.06771 -0.95312,0.20313c-0.30209,0.125 -0.57291,0.30729 -0.8125,0.54688c-0.22916,0.22917 -0.41146,0.49479 -0.54687,0.79688c-0.13541,0.30208 -0.20312,0.63542 -0.20312,1v5.40625zM202.43017,161.18362v-9.79687h1.9375v3.07813l-0.1875,-0.75c0.13541,-0.46875 0.36979,-0.89583 0.70313,-1.28125c0.33334,-0.38542 0.71354,-0.6875 1.14063,-0.90625c0.42709,-0.22917 0.86979,-0.34375 1.32813,-0.34375c0.20834,0 0.40625,0.02083 0.59375,0.0625c0.19791,0.03125 0.35416,0.07292 0.46875,0.125l-0.5,2.09375c-0.14584,-0.0625 -0.3125,-0.11458 -0.5,-0.15625c-0.17709,-0.05208 -0.35416,-0.07812 -0.53125,-0.07812c-0.33334,0 -0.65104,0.06771 -0.95312,0.20313c-0.30209,0.125 -0.57291,0.30729 -0.8125,0.54688c-0.22916,0.22917 -0.41146,0.49479 -0.54687,0.79688c-0.13541,0.30208 -0.20312,0.63542 -0.20312,1v5.40625zM214.10046,161.37112c-1,0 -1.89062,-0.21354 -2.67187,-0.64062c-0.77084,-0.42708 -1.38021,-1.01562 -1.82812,-1.76562c-0.4375,-0.75 -0.65625,-1.60937 -0.65625,-2.57812c0,-0.77083 0.125,-1.47396 0.375,-2.10937c0.25,-0.63542 0.59375,-1.18229 1.03125,-1.64062c0.4375,-0.46875 0.96354,-0.82812 1.57813,-1.07812c0.625,-0.26042 1.29688,-0.39062 2.01563,-0.39062c0.63541,0 1.22396,0.11979 1.76563,0.35938c0.55209,0.23958 1.02604,0.57292 1.42188,1c0.40625,0.42708 0.71875,0.93229 0.9375,1.51563c0.21875,0.57292 0.32291,1.19792 0.3125,1.875l-0.01562,0.82813h-8l-0.4375,-1.53125h6.76563l-0.26562,0.3125v-0.4375c-0.04166,-0.41667 -0.18229,-0.78646 -0.42187,-1.10937c-0.22916,-0.32292 -0.52604,-0.57812 -0.89062,-0.76562c-0.36459,-0.1875 -0.75521,-0.28125 -1.17187,-0.28125c-0.67709,0 -1.24479,0.13021 -1.70312,0.39063c-0.45834,0.25 -0.80729,0.625 -1.04687,1.125c-0.22916,0.48958 -0.34375,1.09375 -0.34375,1.8125c0,0.67708 0.14063,1.27084 0.42188,1.78125c0.28125,0.5 0.68229,0.89063 1.20313,1.17188c0.53125,0.27084 1.13541,0.40625 1.8125,0.40625c0.48959,0 0.94271,-0.07812 1.35938,-0.23437c0.41666,-0.16666 0.86979,-0.46354 1.35938,-0.89062l0.96875,1.35938c-0.30209,0.30209 -0.66666,0.56771 -1.09375,0.79688c-0.42709,0.21875 -0.88021,0.39584 -1.35937,0.53125c-0.47916,0.125 -0.95312,0.1875 -1.42187,0.1875zM224.62679,161.37112c-0.90625,0 -1.71875,-0.22396 -2.4375,-0.67187c-0.70834,-0.44791 -1.27084,-1.05729 -1.6875,-1.82812c-0.41666,-0.77083 -0.625,-1.63541 -0.625,-2.59375c0,-0.95833 0.20834,-1.82292 0.625,-2.59375c0.41666,-0.77083 0.97916,-1.38021 1.6875,-1.82812c0.71875,-0.44792 1.53125,-0.67187 2.4375,-0.67187c0.875,0 1.66666,0.17708 2.375,0.53125c0.71875,0.35417 1.26563,0.83854 1.64063,1.45313l-1.0625,1.29688c-0.19791,-0.28125 -0.45312,-0.54167 -0.76562,-0.78125c-0.3125,-0.23958 -0.64584,-0.42708 -1,-0.5625c-0.34375,-0.13542 -0.67709,-0.20312 -1,-0.20312c-0.59375,0 -1.125,0.14583 -1.59375,0.4375c-0.46875,0.29167 -0.83854,0.69271 -1.10937,1.20313c-0.27084,0.51042 -0.40625,1.08333 -0.40625,1.71875c0,0.63542 0.14063,1.20834 0.42188,1.71875c0.29166,0.5 0.67188,0.90104 1.14063,1.20313c0.46875,0.29167 0.98959,0.4375 1.5625,0.4375c0.34375,0 0.67188,-0.05729 0.98438,-0.17187c0.3125,-0.11458 0.61979,-0.28125 0.92188,-0.5c0.30209,-0.22916 0.58334,-0.50521 0.84375,-0.82812l1.0625,1.3125c-0.39584,0.5625 -0.96354,1.02604 -1.70312,1.39063c-0.73959,0.35417 -1.51041,0.53125 -2.3125,0.53125zM231.67037,161.18362v-12.29687h1.92188v12.29687zM229.6235,153.26175v-1.875h6.23438v1.875zM243.32375,161.18362v-13.0625h5.3125c0.70834,0 1.34896,0.17708 1.92188,0.53125c0.58334,0.35417 1.04688,0.83854 1.39063,1.45313c0.35416,0.60417 0.53125,1.28125 0.53125,2.03125c0,0.75 -0.17709,1.43229 -0.53125,2.04688c-0.34375,0.60417 -0.80729,1.08854 -1.39062,1.45313c-0.57291,0.36458 -1.21354,0.54688 -1.92187,0.54688h-3.29687v5zM245.33938,154.24612h3.26563c0.33334,0 0.63541,-0.09375 0.90625,-0.28125c0.28125,-0.19792 0.50521,-0.45312 0.67188,-0.76562c0.16666,-0.32292 0.25,-0.67708 0.25,-1.0625c0,-0.38542 -0.08334,-0.73437 -0.25,-1.04687c-0.16666,-0.3125 -0.39062,-0.5625 -0.67187,-0.75c-0.27084,-0.1875 -0.57291,-0.28125 -0.90625,-0.28125h-3.26562zM258.24639,161.37112c-0.80209,0 -1.53646,-0.22396 -2.20312,-0.67187c-0.66666,-0.44791 -1.20312,-1.05729 -1.60937,-1.82812c-0.39584,-0.77083 -0.59375,-1.64062 -0.59375,-2.60937c0,-0.98958 0.20313,-1.86458 0.60938,-2.625c0.40625,-0.76042 0.95313,-1.35937 1.64063,-1.79687c0.69791,-0.4375 1.47396,-0.65625 2.32813,-0.65625c0.51041,0 0.97396,0.07813 1.39063,0.23438c0.42709,0.14583 0.79688,0.35417 1.10938,0.625c0.32291,0.26042 0.58334,0.56771 0.78125,0.92188c0.20834,0.34375 0.33854,0.71354 0.39063,1.10938l-0.42187,-0.14062v-2.54687h1.9375v9.79687h-1.9375v-2.32812l0.4375,-0.14062c-0.07291,0.34375 -0.22396,0.67709 -0.45312,1c-0.22916,0.3125 -0.52084,0.59375 -0.875,0.84375c-0.35416,0.23959 -0.74479,0.4375 -1.17187,0.59375c-0.42709,0.14584 -0.88021,0.21875 -1.35937,0.21875zM258.74639,159.6055c0.59375,0 1.10938,-0.14062 1.54688,-0.42187c0.44791,-0.29166 0.79688,-0.6875 1.04688,-1.1875c0.26041,-0.51041 0.39063,-1.08854 0.39063,-1.73437c0,-0.63542 -0.13021,-1.20312 -0.39062,-1.70312c-0.25,-0.5 -0.59896,-0.89062 -1.04687,-1.17187c-0.4375,-0.29167 -0.95312,-0.4375 -1.54687,-0.4375c-0.57291,0 -1.07812,0.14583 -1.51562,0.4375c-0.4375,0.28125 -0.78646,0.67188 -1.04687,1.17188c-0.25,0.5 -0.375,1.06771 -0.375,1.70313c0,0.64583 0.125,1.22396 0.375,1.73437c0.26041,0.5 0.60938,0.89584 1.04688,1.1875c0.4375,0.28125 0.94271,0.42188 1.51563,0.42188zM269.5558,161.37112c-0.82292,0 -1.5625,-0.14062 -2.21875,-0.42187c-0.65625,-0.29166 -1.20312,-0.71875 -1.64062,-1.28125l1.29688,-1.10937c0.375,0.42709 0.78125,0.73959 1.21875,0.9375c0.44791,0.1875 0.95313,0.28125 1.51563,0.28125c0.21875,0 0.42188,-0.02604 0.60938,-0.07812c0.19791,-0.05208 0.36979,-0.13541 0.51563,-0.25c0.14583,-0.11458 0.25521,-0.25 0.32813,-0.40625c0.07291,-0.15625 0.10938,-0.32812 0.10938,-0.51562c0,-0.32291 -0.11979,-0.58333 -0.35937,-0.78125c-0.125,-0.08333 -0.32292,-0.17708 -0.59375,-0.28125c-0.26042,-0.10416 -0.60417,-0.21354 -1.03125,-0.32812c-0.71875,-0.1875 -1.30729,-0.39583 -1.76562,-0.625c-0.45834,-0.23958 -0.8125,-0.51042 -1.0625,-0.8125c-0.1875,-0.23958 -0.32812,-0.49479 -0.42187,-0.76562c-0.08334,-0.28125 -0.125,-0.59375 -0.125,-0.9375c0,-0.40625 0.08854,-0.78125 0.26563,-1.125c0.1875,-0.34375 0.4375,-0.64062 0.75,-0.89062c0.32291,-0.26042 0.69791,-0.45833 1.125,-0.59375c0.42708,-0.13542 0.88541,-0.20312 1.375,-0.20312c0.45833,0 0.91146,0.0625 1.35938,0.1875c0.45833,0.125 0.88021,0.30729 1.26563,0.54688c0.38541,0.22917 0.70833,0.50521 0.96875,0.82813l-1.09375,1.21875c-0.23959,-0.23958 -0.5,-0.44792 -0.78125,-0.625c-0.28125,-0.17708 -0.56771,-0.3125 -0.85937,-0.40625c-0.28125,-0.10417 -0.53646,-0.15625 -0.76562,-0.15625c-0.26042,0 -0.5,0.02604 -0.71875,0.07813c-0.20834,0.04167 -0.38542,0.11458 -0.53125,0.21875c-0.13542,0.09375 -0.24479,0.21875 -0.32812,0.375c-0.07292,0.14583 -0.10937,0.3125 -0.10937,0.5c0.01041,0.15625 0.05208,0.30729 0.125,0.45313c0.07291,0.14583 0.17188,0.26563 0.29688,0.35938c0.13541,0.10417 0.33854,0.21354 0.60938,0.32813c0.27083,0.10417 0.61979,0.20833 1.04688,0.3125c0.61458,0.15625 1.125,0.33333 1.53125,0.53125c0.40625,0.1875 0.72916,0.40625 0.96875,0.65625c0.25,0.23958 0.42188,0.51563 0.51563,0.82812c0.10416,0.3125 0.15625,0.66146 0.15625,1.04688c0,0.55209 -0.16146,1.05209 -0.48437,1.5c-0.3125,0.4375 -0.73959,0.78125 -1.28125,1.03125c-0.53125,0.25 -1.125,0.375 -1.78125,0.375zM278.49215,161.37112c-0.82291,0 -1.5625,-0.14062 -2.21875,-0.42187c-0.65625,-0.29166 -1.20312,-0.71875 -1.64062,-1.28125l1.29688,-1.10937c0.375,0.42709 0.78125,0.73959 1.21875,0.9375c0.44791,0.1875 0.95313,0.28125 1.51563,0.28125c0.21875,0 0.42188,-0.02604 0.60938,-0.07812c0.19791,-0.05208 0.36979,-0.13541 0.51563,-0.25c0.14584,-0.11458 0.25521,-0.25 0.32813,-0.40625c0.07291,-0.15625 0.10938,-0.32812 0.10938,-0.51562c0,-0.32291 -0.11979,-0.58333 -0.35937,-0.78125c-0.125,-0.08333 -0.32291,-0.17708 -0.59375,-0.28125c-0.26041,-0.10416 -0.60416,-0.21354 -1.03125,-0.32812c-0.71875,-0.1875 -1.30729,-0.39583 -1.76562,-0.625c-0.45834,-0.23958 -0.8125,-0.51042 -1.0625,-0.8125c-0.1875,-0.23958 -0.32812,-0.49479 -0.42187,-0.76562c-0.08334,-0.28125 -0.125,-0.59375 -0.125,-0.9375c0,-0.40625 0.08854,-0.78125 0.26563,-1.125c0.1875,-0.34375 0.4375,-0.64062 0.75,-0.89062c0.32291,-0.26042 0.69791,-0.45833 1.125,-0.59375c0.42709,-0.13542 0.88541,-0.20312 1.375,-0.20312c0.45834,0 0.91146,0.0625 1.35938,0.1875c0.45834,0.125 0.88021,0.30729 1.26563,0.54688c0.38541,0.22917 0.70834,0.50521 0.96875,0.82813l-1.09375,1.21875c-0.23959,-0.23958 -0.5,-0.44792 -0.78125,-0.625c-0.28125,-0.17708 -0.56771,-0.3125 -0.85937,-0.40625c-0.28125,-0.10417 -0.53646,-0.15625 -0.76562,-0.15625c-0.26041,0 -0.5,0.02604 -0.71875,0.07813c-0.20834,0.04167 -0.38541,0.11458 -0.53125,0.21875c-0.13541,0.09375 -0.24479,0.21875 -0.32812,0.375c-0.07291,0.14583 -0.10937,0.3125 -0.10937,0.5c0.01041,0.15625 0.05209,0.30729 0.125,0.45313c0.07291,0.14583 0.17188,0.26563 0.29688,0.35938c0.13541,0.10417 0.33854,0.21354 0.60938,0.32813c0.27084,0.10417 0.61979,0.20833 1.04688,0.3125c0.61459,0.15625 1.125,0.33333 1.53125,0.53125c0.40625,0.1875 0.72916,0.40625 0.96875,0.65625c0.25,0.23958 0.42188,0.51563 0.51563,0.82812c0.10416,0.3125 0.15625,0.66146 0.15625,1.04688c0,0.55209 -0.16146,1.05209 -0.48437,1.5c-0.3125,0.4375 -0.73959,0.78125 -1.28125,1.03125c-0.53125,0.25 -1.125,0.375 -1.78125,0.375zM286.56912,161.18362l-3.34375,-9.79687l1.9375,-0.01562l2.39063,7.32812l-0.42187,-0.03125l2.59375,-5.73437h1.15625l2.60938,5.75l-0.5,0.03125l2.40625,-7.32812h1.9375l-3.29687,9.79687h-1.32812l-2.73437,-6.23437l0.4375,0.0625l-2.53125,6.17187zM303.21407,161.37112c-0.95833,0 -1.81771,-0.21875 -2.57812,-0.65625c-0.74998,-0.44791 -1.34372,-1.05208 -1.78122,-1.8125c-0.42708,-0.77083 -0.64062,-1.64583 -0.64062,-2.625c0,-0.97917 0.21354,-1.84896 0.64063,-2.60937c0.4375,-0.77083 1.03124,-1.375 1.78122,-1.8125c0.76042,-0.44792 1.61979,-0.67187 2.57813,-0.67187c0.9375,0 1.78125,0.22396 2.53125,0.67188c0.76042,0.4375 1.35938,1.04167 1.79688,1.8125c0.4375,0.76042 0.65625,1.63021 0.65625,2.60938c0,0.97917 -0.21875,1.85417 -0.65625,2.625c-0.4375,0.76042 -1.03646,1.36459 -1.79687,1.8125c-0.75,0.4375 -1.59375,0.65625 -2.53125,0.65625zM303.21407,159.62112c0.58333,0 1.10417,-0.14583 1.5625,-0.4375c0.45833,-0.29166 0.81771,-0.6875 1.07813,-1.1875c0.26042,-0.51041 0.38542,-1.08333 0.375,-1.71875c0.01042,-0.64583 -0.11458,-1.21875 -0.375,-1.71875c-0.26042,-0.51042 -0.61979,-0.90625 -1.07812,-1.1875c-0.45833,-0.29167 -0.97917,-0.4375 -1.5625,-0.4375c-0.58333,0 -1.10937,0.14583 -1.57812,0.4375c-0.46875,0.29167 -0.83333,0.69271 -1.09375,1.20313c-0.2604,0.5 -0.38539,1.06771 -0.37497,1.70313c-0.01042,0.63542 0.11458,1.20834 0.37497,1.71875c0.26042,0.5 0.625,0.89584 1.09375,1.1875c0.46875,0.29167 0.99479,0.4375 1.57813,0.4375zM310.28146,161.18362v-9.79687h1.9375v3.07813l-0.1875,-0.75c0.13542,-0.46875 0.36979,-0.89583 0.70313,-1.28125c0.33333,-0.38542 0.71354,-0.6875 1.14063,-0.90625c0.42708,-0.22917 0.86979,-0.34375 1.32813,-0.34375c0.20833,0 0.40625,0.02083 0.59375,0.0625c0.19792,0.03125 0.35417,0.07292 0.46875,0.125l-0.5,2.09375c-0.14583,-0.0625 -0.3125,-0.11458 -0.5,-0.15625c-0.17708,-0.05208 -0.35417,-0.07812 -0.53125,-0.07812c-0.33333,0 -0.65104,0.06771 -0.95312,0.20313c-0.30208,0.125 -0.57292,0.30729 -0.8125,0.54688c-0.22917,0.22917 -0.41146,0.49479 -0.54687,0.79688c-0.13542,0.30208 -0.20312,0.63542 -0.20312,1v5.40625zM321.46736,161.37112c-0.89583,0 -1.69271,-0.21875 -2.39062,-0.65625c-0.69792,-0.44791 -1.25521,-1.05208 -1.67187,-1.8125c-0.40625,-0.77083 -0.60937,-1.64583 -0.60937,-2.625c0,-0.97917 0.19792,-1.84896 0.59375,-2.60937c0.40625,-0.77083 0.95833,-1.375 1.65625,-1.8125c0.69792,-0.44792 1.48958,-0.67187 2.375,-0.67187c0.47917,0 0.94792,0.07813 1.40625,0.23438c0.45833,0.15625 0.86458,0.36979 1.21875,0.64063c0.36458,0.26042 0.64583,0.55208 0.84375,0.875c0.20833,0.3125 0.3125,0.63021 0.3125,0.95313l-0.5625,0.04688v-6.5625h1.92188v13.8125h-1.92187v-2.32812h0.375c0,0.29167 -0.09896,0.58854 -0.29687,0.89063c-0.19792,0.29167 -0.46354,0.5625 -0.79687,0.8125c-0.32292,0.23959 -0.70312,0.4375 -1.14062,0.59375c-0.42708,0.14584 -0.86458,0.21875 -1.3125,0.21875zM321.73299,159.71487c0.58333,0 1.09896,-0.15104 1.54688,-0.45312c0.44792,-0.30208 0.79688,-0.70833 1.04688,-1.21875c0.26042,-0.52083 0.39063,-1.10937 0.39063,-1.76562c0,-0.65625 -0.13021,-1.23958 -0.39062,-1.75c-0.25,-0.52083 -0.59896,-0.93229 -1.04687,-1.23437c-0.44792,-0.30208 -0.96354,-0.45312 -1.54687,-0.45312c-0.58333,0 -1.09896,0.15104 -1.54687,0.45313c-0.44792,0.30208 -0.80208,0.71354 -1.0625,1.23438c-0.25,0.51042 -0.375,1.09375 -0.375,1.75c0,0.65625 0.125,1.24479 0.375,1.76562c0.26042,0.51042 0.61458,0.91667 1.0625,1.21875c0.44792,0.30209 0.96354,0.45313 1.54688,0.45313z" fill="#ffffff" stroke="none" stroke-width="1" stroke-linecap="square"/><path d="M172.18054,198.01933c-0.603,0 -1.15748,-0.10744 -1.66344,-0.32229c-0.50596,-0.21486 -0.94608,-0.5233 -1.32035,-0.92529c-0.36734,-0.40199 -0.65498,-0.87677 -0.86291,-1.42432c-0.201,-0.54755 -0.3015,-1.14709 -0.3015,-1.7986c0,-0.61686 0.11089,-1.19213 0.33269,-1.72582c0.22179,-0.53369 0.52675,-1.00153 0.91489,-1.40352c0.38814,-0.40893 0.83865,-0.72429 1.35155,-0.94608c0.5129,-0.22873 1.06737,-0.34309 1.66344,-0.34309c0.42279,0 0.83519,0.06585 1.23718,0.19753c0.40199,0.12476 0.76588,0.3015 1.09163,0.53022c0.32576,0.22873 0.5926,0.48863 0.80053,0.77973l-0.8941,0.92529c-0.24258,-0.24258 -0.48517,-0.44358 -0.72776,-0.603c-0.24258,-0.15941 -0.4921,-0.2807 -0.74855,-0.36388c-0.24952,-0.08317 -0.5025,-0.12476 -0.75895,-0.12476c-0.40893,0 -0.79013,0.07624 -1.14362,0.22873c-0.34655,0.15248 -0.65151,0.36734 -0.91489,0.64459c-0.25645,0.27031 -0.46091,0.59607 -0.61339,0.97728c-0.14556,0.37427 -0.21833,0.7832 -0.21833,1.22679c0,0.47131 0.06931,0.90103 0.20793,1.28917c0.14556,0.38121 0.35002,0.71043 0.61339,0.98766c0.27031,0.27031 0.58914,0.47824 0.95648,0.62379c0.36734,0.14556 0.77627,0.21833 1.22679,0.21833c0.27031,0 0.53715,-0.03812 0.80053,-0.11436c0.26338,-0.07624 0.50943,-0.18367 0.73815,-0.32229c0.23565,-0.13862 0.45051,-0.30497 0.64459,-0.49903l0.66538,1.09163c-0.18714,0.22873 -0.44705,0.43319 -0.77973,0.61339c-0.32576,0.18021 -0.68964,0.32229 -1.09163,0.42626c-0.39507,0.10397 -0.79707,0.15595 -1.20599,0.15595zM176.78336,197.89457v-9.19051h1.27877v9.19051zM180.08628,197.89457v-6.51861h1.27877v6.51861zM180.71007,189.94124c-0.27031,0 -0.48171,-0.06931 -0.63419,-0.20793c-0.14556,-0.14556 -0.21833,-0.34655 -0.21833,-0.603c0,-0.24258 0.07624,-0.43666 0.22873,-0.5822c0.15248,-0.15248 0.36041,-0.22873 0.62379,-0.22873c0.27031,0 0.47824,0.07277 0.62379,0.21833c0.15248,0.13862 0.22873,0.33615 0.22873,0.5926c0,0.24258 -0.07624,0.44012 -0.22873,0.5926c-0.15248,0.14556 -0.36041,0.21833 -0.62379,0.21833zM186.09475,198.01933c-0.603,0 -1.14362,-0.14902 -1.62185,-0.44705c-0.47131,-0.29803 -0.84558,-0.7035 -1.12282,-1.21639c-0.27724,-0.5129 -0.41586,-1.08817 -0.41586,-1.72582c0,-0.63765 0.13862,-1.21293 0.41586,-1.72582c0.27724,-0.5129 0.65151,-0.91836 1.12282,-1.21639c0.47824,-0.29803 1.01886,-0.44705 1.62185,-0.44705c0.5822,0 1.10896,0.11783 1.58027,0.35349c0.47824,0.23565 0.84212,0.55795 1.09163,0.96688l-0.70696,0.86291c-0.13169,-0.18714 -0.3015,-0.36041 -0.50943,-0.51983c-0.20793,-0.15941 -0.42972,-0.28417 -0.66538,-0.37427c-0.22873,-0.0901 -0.45051,-0.13516 -0.66538,-0.13516c-0.39507,0 -0.74855,0.09704 -1.06045,0.2911c-0.3119,0.19406 -0.55795,0.46091 -0.73815,0.80053c-0.18021,0.33962 -0.27031,0.72083 -0.27031,1.14362c0,0.42279 0.09357,0.804 0.2807,1.14362c0.19406,0.33269 0.44705,0.59954 0.75895,0.80053c0.3119,0.19406 0.65844,0.2911 1.03965,0.2911c0.22873,0 0.44705,-0.03812 0.65498,-0.11436c0.20793,-0.07624 0.41239,-0.18714 0.61339,-0.33269c0.201,-0.15248 0.38814,-0.33615 0.56142,-0.55102l0.70696,0.87331c-0.26338,0.37427 -0.64112,0.68271 -1.13322,0.92529c-0.4921,0.23565 -1.005,0.35349 -1.53868,0.35349zM191.13487,195.85686l-0.06238,-1.39314l3.11895,-3.08776h1.72582zM189.97046,197.89457v-9.19051h1.27877v9.19051zM194.36818,197.89457l-2.46397,-2.86943l0.90449,-0.83172l3.19173,3.70116zM201.308,197.89457v-8.18205h1.27877v8.18205zM199.94605,192.62354v-1.24758h4.14821v1.24758zM208.13352,198.01933c-0.63765,0 -1.20946,-0.14556 -1.71542,-0.43666c-0.49903,-0.29803 -0.8941,-0.70003 -1.18521,-1.20599c-0.28417,-0.5129 -0.42626,-1.0951 -0.42626,-1.74661c0,-0.65151 0.14208,-1.23026 0.42626,-1.73622c0.2911,-0.5129 0.68617,-0.91489 1.18521,-1.20599c0.50596,-0.29803 1.07777,-0.44705 1.71542,-0.44705c0.62379,0 1.18521,0.14902 1.68424,0.44705c0.50596,0.2911 0.90449,0.6931 1.19559,1.20599c0.2911,0.50596 0.43666,1.0847 0.43666,1.73622c0,0.65151 -0.14556,1.23371 -0.43666,1.74661c-0.2911,0.50596 -0.68964,0.90796 -1.19559,1.20599c-0.49903,0.2911 -1.06045,0.43666 -1.68424,0.43666zM208.13352,196.85492c0.38814,0 0.73468,-0.09704 1.03965,-0.2911c0.30497,-0.19406 0.54408,-0.45745 0.71736,-0.79013c0.17328,-0.33962 0.25645,-0.72083 0.24952,-1.14362c0.00693,-0.42972 -0.07624,-0.81093 -0.24952,-1.14362c-0.17328,-0.33962 -0.41239,-0.603 -0.71736,-0.79013c-0.30497,-0.19406 -0.65151,-0.2911 -1.03965,-0.2911c-0.38814,0 -0.73815,0.09704 -1.05005,0.2911c-0.3119,0.19406 -0.55448,0.46091 -0.72776,0.80053c-0.17328,0.33269 -0.25645,0.71043 -0.24952,1.13322c-0.00693,0.42279 0.07624,0.804 0.24952,1.14362c0.17328,0.33269 0.41586,0.59607 0.72776,0.79013c0.3119,0.19406 0.66191,0.2911 1.05005,0.2911zM219.34752,198.01933c-0.66538,0 -1.25798,-0.14208 -1.77781,-0.42626c-0.5129,-0.28417 -0.91836,-0.67577 -1.21639,-1.17481c-0.2911,-0.49903 -0.43666,-1.07084 -0.43666,-1.71542c0,-0.5129 0.08317,-0.98074 0.24952,-1.40352c0.16634,-0.42279 0.39507,-0.78667 0.68617,-1.09163c0.2911,-0.3119 0.64112,-0.55102 1.05005,-0.71736c0.41586,-0.17328 0.86291,-0.25991 1.34115,-0.25991c0.42279,0 0.8144,0.07971 1.17481,0.23912c0.36734,0.15941 0.68271,0.38121 0.94608,0.66538c0.27031,0.28417 0.47824,0.62032 0.62379,1.00846c0.14556,0.38121 0.21486,0.79707 0.20793,1.24758l-0.0104,0.55102h-5.32302l-0.2911,-1.01886h4.50169l-0.17674,0.20793v-0.2911c-0.02772,-0.27724 -0.12129,-0.5233 -0.2807,-0.73815c-0.15248,-0.21486 -0.35002,-0.38467 -0.5926,-0.50943c-0.24258,-0.12476 -0.5025,-0.18714 -0.77973,-0.18714c-0.45051,0 -0.82825,0.08664 -1.13322,0.25991c-0.30497,0.16634 -0.53715,0.41586 -0.69656,0.74855c-0.15248,0.32576 -0.22873,0.72776 -0.22873,1.20599c0,0.45051 0.09357,0.84558 0.2807,1.18521c0.18714,0.33269 0.45398,0.5926 0.80053,0.77973c0.35349,0.18021 0.75548,0.27031 1.20599,0.27031c0.32576,0 0.62726,-0.05198 0.90449,-0.15595c0.27724,-0.11089 0.57874,-0.30843 0.90449,-0.5926l0.64459,0.90449c-0.201,0.201 -0.44358,0.37774 -0.72776,0.53022c-0.28417,0.14556 -0.58567,0.26338 -0.90449,0.35349c-0.31882,0.08317 -0.63419,0.12476 -0.94608,0.12476zM223.58603,197.89457v-6.51861h1.27877v1.34115l-0.22873,0.14556c0.08317,-0.28417 0.24605,-0.54755 0.48863,-0.79013c0.24258,-0.24952 0.52675,-0.45051 0.85252,-0.603c0.33269,-0.15248 0.67231,-0.22873 1.01886,-0.22873c0.49903,0 0.91143,0.09704 1.23718,0.2911c0.33269,0.19406 0.5822,0.4921 0.74855,0.8941c0.16634,0.39507 0.24952,0.8941 0.24952,1.4971v3.97147h-1.27877v-3.88829c0,-0.36734 -0.04852,-0.67231 -0.14556,-0.91489c-0.09704,-0.24952 -0.24952,-0.42972 -0.45745,-0.54062c-0.20793,-0.11089 -0.46438,-0.15941 -0.76935,-0.14556c-0.24952,0 -0.47824,0.04159 -0.68617,0.12476c-0.20793,0.07624 -0.38814,0.18714 -0.54062,0.33269c-0.15248,0.13862 -0.27378,0.3015 -0.36388,0.48863c-0.08317,0.18021 -0.12476,0.37774 -0.12476,0.5926v3.95068h-0.63419c-0.10397,0 -0.2114,0 -0.32229,0c-0.11089,0 -0.21833,0 -0.32229,0zM231.78294,197.89457v-8.18205h1.27877v8.18205zM230.421,192.62354v-1.24758h4.14821v1.24758zM238.71244,198.01933c-0.66538,0 -1.25798,-0.14208 -1.77781,-0.42626c-0.5129,-0.28417 -0.91836,-0.67577 -1.21639,-1.17481c-0.2911,-0.49903 -0.43666,-1.07084 -0.43666,-1.71542c0,-0.5129 0.08317,-0.98074 0.24952,-1.40352c0.16634,-0.42279 0.39507,-0.78667 0.68617,-1.09163c0.2911,-0.3119 0.64112,-0.55102 1.05005,-0.71736c0.41586,-0.17328 0.86291,-0.25991 1.34115,-0.25991c0.42279,0 0.8144,0.07971 1.17481,0.23912c0.36734,0.15941 0.68271,0.38121 0.94608,0.66538c0.27031,0.28417 0.47824,0.62032 0.62379,1.00846c0.14556,0.38121 0.21486,0.79707 0.20793,1.24758l-0.0104,0.55102h-5.32302l-0.2911,-1.01886h4.50169l-0.17674,0.20793v-0.2911c-0.02772,-0.27724 -0.12129,-0.5233 -0.2807,-0.73815c-0.15248,-0.21486 -0.35002,-0.38467 -0.5926,-0.50943c-0.24258,-0.12476 -0.5025,-0.18714 -0.77973,-0.18714c-0.45051,0 -0.82825,0.08664 -1.13322,0.25991c-0.30497,0.16634 -0.53715,0.41586 -0.69656,0.74855c-0.15248,0.32576 -0.22873,0.72776 -0.22873,1.20599c0,0.45051 0.09357,0.84558 0.2807,1.18521c0.18714,0.33269 0.45398,0.5926 0.80053,0.77973c0.35349,0.18021 0.75548,0.27031 1.20599,0.27031c0.32576,0 0.62726,-0.05198 0.90449,-0.15595c0.27724,-0.11089 0.57874,-0.30843 0.90449,-0.5926l0.64459,0.90449c-0.201,0.201 -0.44358,0.37774 -0.72776,0.53022c-0.28417,0.14556 -0.58567,0.26338 -0.90449,0.35349c-0.31882,0.08317 -0.63419,0.12476 -0.94608,0.12476zM242.95095,197.89457v-6.51861h1.28917v2.04811l-0.12476,-0.49903c0.0901,-0.3119 0.24605,-0.59607 0.46784,-0.85252c0.22179,-0.25645 0.47478,-0.45745 0.75895,-0.603c0.28417,-0.15248 0.57874,-0.22873 0.8837,-0.22873c0.13862,0 0.27031,0.01387 0.39507,0.04159c0.13169,0.0208 0.23565,0.04852 0.3119,0.08317l-0.33269,1.39314c-0.09704,-0.04159 -0.20793,-0.07624 -0.33269,-0.10397c-0.11783,-0.03465 -0.23565,-0.05198 -0.35349,-0.05198c-0.22179,0 -0.43319,0.04505 -0.63419,0.13516c-0.201,0.08317 -0.38121,0.20446 -0.54062,0.36388c-0.15248,0.15248 -0.27378,0.32922 -0.36388,0.53022c-0.0901,0.201 -0.13516,0.42279 -0.13516,0.66538v3.59719zM251.42932,200.62885v-9.2529h1.28917v1.4867l-0.19753,-0.10397c0.04852,-0.24952 0.18714,-0.48863 0.41586,-0.71736c0.23565,-0.22873 0.51983,-0.41586 0.85252,-0.56142c0.33962,-0.14556 0.68617,-0.21833 1.03965,-0.21833c0.58914,0 1.10896,0.14556 1.55948,0.43666c0.45745,0.2911 0.81785,0.68964 1.08124,1.19559c0.27031,0.50596 0.40546,1.0847 0.40546,1.73622c0,0.64459 -0.13169,1.22332 -0.39507,1.73622c-0.26338,0.50596 -0.62379,0.90796 -1.08124,1.20599c-0.45051,0.2911 -0.95994,0.43666 -1.52828,0.43666c-0.38121,0 -0.75201,-0.07624 -1.11242,-0.22873c-0.35349,-0.15248 -0.65498,-0.35002 -0.90449,-0.5926c-0.24952,-0.24258 -0.40199,-0.4921 -0.45745,-0.74855l0.32229,-0.16634v4.35614zM254.65224,196.82372c0.38121,0 0.72083,-0.09357 1.01886,-0.2807c0.29803,-0.19406 0.53369,-0.45398 0.70696,-0.77973c0.17328,-0.33269 0.25991,-0.71043 0.25991,-1.13322c0,-0.42279 -0.08664,-0.79707 -0.25991,-1.12282c-0.16634,-0.32576 -0.39854,-0.5822 -0.69656,-0.76935c-0.2911,-0.19406 -0.63419,-0.2911 -1.02925,-0.2911c-0.38814,0 -0.73123,0.09357 -1.02925,0.2807c-0.29803,0.18714 -0.53369,0.44705 -0.70696,0.77973c-0.17328,0.32576 -0.25991,0.70003 -0.25991,1.12282c0,0.42279 0.08664,0.80053 0.25991,1.13322c0.17328,0.32576 0.40893,0.58567 0.70696,0.77973c0.29803,0.18714 0.64112,0.2807 1.02925,0.2807zM261.76776,198.01933c-0.53369,0 -1.02233,-0.14902 -1.46591,-0.44705c-0.44358,-0.29803 -0.80053,-0.7035 -1.07084,-1.21639c-0.26338,-0.5129 -0.39507,-1.09163 -0.39507,-1.73622c0,-0.65844 0.13516,-1.24065 0.40546,-1.74661c0.27031,-0.50596 0.63419,-0.90449 1.09163,-1.19559c0.46438,-0.2911 0.98074,-0.43666 1.54908,-0.43666c0.33962,0 0.64805,0.05198 0.92529,0.15595c0.28417,0.09704 0.53022,0.23565 0.73815,0.41586c0.21486,0.17328 0.38814,0.37774 0.51983,0.61339c0.13862,0.22873 0.22525,0.47478 0.25991,0.73815l-0.2807,-0.09357v-1.69464h1.28917v6.51861h-1.28917v-1.54908l0.2911,-0.09357c-0.04852,0.22873 -0.14902,0.45051 -0.3015,0.66538c-0.15248,0.20793 -0.34655,0.39507 -0.5822,0.56142c-0.23565,0.15941 -0.49557,0.2911 -0.77973,0.39507c-0.28417,0.09704 -0.58567,0.14556 -0.90449,0.14556zM262.10045,196.84452c0.39507,0 0.73815,-0.09357 1.02925,-0.2807c0.29803,-0.19406 0.53022,-0.45745 0.69656,-0.79013c0.17328,-0.33962 0.25991,-0.72429 0.25991,-1.15401c0,-0.42279 -0.08664,-0.80053 -0.25991,-1.13322c-0.16634,-0.33269 -0.39854,-0.5926 -0.69656,-0.77973c-0.2911,-0.19406 -0.63419,-0.2911 -1.02925,-0.2911c-0.38121,0 -0.71736,0.09704 -1.00846,0.2911c-0.2911,0.18714 -0.5233,0.44705 -0.69656,0.77973c-0.16634,0.33269 -0.24952,0.71043 -0.24952,1.13322c0,0.42972 0.08317,0.8144 0.24952,1.15401c0.17328,0.33269 0.40546,0.59607 0.69656,0.79013c0.2911,0.18714 0.62726,0.2807 1.00846,0.2807zM269.29277,198.01933c-0.54755,0 -1.03965,-0.09357 -1.47631,-0.2807c-0.43666,-0.19406 -0.80053,-0.47824 -1.09163,-0.85252l0.86291,-0.73815c0.24952,0.28417 0.51983,0.4921 0.81093,0.62379c0.29803,0.12476 0.63419,0.18714 1.00846,0.18714c0.14556,0 0.2807,-0.01732 0.40546,-0.05198c0.13169,-0.03465 0.24605,-0.0901 0.34309,-0.16634c0.09704,-0.07624 0.16981,-0.16634 0.21833,-0.27031c0.04852,-0.10397 0.07277,-0.21833 0.07277,-0.34309c0,-0.21486 -0.07971,-0.38814 -0.23912,-0.51983c-0.08317,-0.05545 -0.21486,-0.11783 -0.39507,-0.18714c-0.17328,-0.06931 -0.40199,-0.14208 -0.68617,-0.21833c-0.47824,-0.12476 -0.86984,-0.26338 -1.17481,-0.41586c-0.30497,-0.15941 -0.54062,-0.33962 -0.70696,-0.54062c-0.12476,-0.15941 -0.21833,-0.32922 -0.2807,-0.50943c-0.05545,-0.18714 -0.08317,-0.39507 -0.08317,-0.62379c0,-0.27031 0.05891,-0.51983 0.17674,-0.74855c0.12476,-0.22873 0.2911,-0.42626 0.49903,-0.5926c0.21486,-0.17328 0.46438,-0.30497 0.74855,-0.39507c0.28417,-0.0901 0.58914,-0.13516 0.91489,-0.13516c0.30497,0 0.60647,0.04159 0.90449,0.12476c0.30497,0.08317 0.58567,0.20446 0.84212,0.36388c0.25645,0.15248 0.47131,0.33615 0.64459,0.55102l-0.72776,0.81093c-0.15941,-0.15941 -0.33269,-0.29803 -0.51983,-0.41586c-0.18714,-0.11783 -0.37774,-0.20793 -0.57181,-0.27031c-0.18714,-0.06931 -0.35695,-0.10397 -0.50943,-0.10397c-0.17328,0 -0.33269,0.01732 -0.47824,0.05198c-0.13862,0.02772 -0.25645,0.07624 -0.35349,0.14556c-0.0901,0.06238 -0.16288,0.14556 -0.21833,0.24952c-0.04852,0.09704 -0.07277,0.20793 -0.07277,0.33269c0.00693,0.10397 0.03465,0.20446 0.08317,0.3015c0.04852,0.09704 0.11436,0.17674 0.19753,0.23912c0.0901,0.06931 0.22525,0.14208 0.40546,0.21833c0.18021,0.06931 0.41239,0.13862 0.69656,0.20793c0.40893,0.10397 0.74855,0.22179 1.01886,0.35349c0.27031,0.12476 0.48517,0.27031 0.64459,0.43666c0.16634,0.15941 0.2807,0.34309 0.34309,0.55102c0.06931,0.20793 0.10397,0.44012 0.10397,0.69656c0,0.36734 -0.10744,0.70003 -0.32229,0.99806c-0.20793,0.2911 -0.4921,0.51983 -0.85252,0.68617c-0.35349,0.16634 -0.74855,0.24952 -1.18521,0.24952zM275.2388,198.01933c-0.54755,0 -1.03965,-0.09357 -1.47631,-0.2807c-0.43666,-0.19406 -0.80053,-0.47824 -1.09163,-0.85252l0.86291,-0.73815c0.24952,0.28417 0.51983,0.4921 0.81093,0.62379c0.29803,0.12476 0.63419,0.18714 1.00846,0.18714c0.14556,0 0.2807,-0.01732 0.40546,-0.05198c0.13169,-0.03465 0.24605,-0.0901 0.34309,-0.16634c0.09704,-0.07624 0.16981,-0.16634 0.21833,-0.27031c0.04852,-0.10397 0.07277,-0.21833 0.07277,-0.34309c0,-0.21486 -0.07971,-0.38814 -0.23912,-0.51983c-0.08317,-0.05545 -0.21486,-0.11783 -0.39507,-0.18714c-0.17328,-0.06931 -0.40199,-0.14208 -0.68617,-0.21833c-0.47824,-0.12476 -0.86984,-0.26338 -1.17481,-0.41586c-0.30497,-0.15941 -0.54062,-0.33962 -0.70696,-0.54062c-0.12476,-0.15941 -0.21833,-0.32922 -0.2807,-0.50943c-0.05545,-0.18714 -0.08317,-0.39507 -0.08317,-0.62379c0,-0.27031 0.05891,-0.51983 0.17674,-0.74855c0.12476,-0.22873 0.2911,-0.42626 0.49903,-0.5926c0.21486,-0.17328 0.46438,-0.30497 0.74855,-0.39507c0.28417,-0.0901 0.58914,-0.13516 0.91489,-0.13516c0.30497,0 0.60647,0.04159 0.90449,0.12476c0.30497,0.08317 0.58567,0.20446 0.84212,0.36388c0.25645,0.15248 0.47131,0.33615 0.64459,0.55102l-0.72776,0.81093c-0.15941,-0.15941 -0.33269,-0.29803 -0.51983,-0.41586c-0.18714,-0.11783 -0.37774,-0.20793 -0.57181,-0.27031c-0.18714,-0.06931 -0.35695,-0.10397 -0.50943,-0.10397c-0.17328,0 -0.33269,0.01732 -0.47824,0.05198c-0.13862,0.02772 -0.25645,0.07624 -0.35349,0.14556c-0.0901,0.06238 -0.16288,0.14556 -0.21833,0.24952c-0.04852,0.09704 -0.07277,0.20793 -0.07277,0.33269c0.00693,0.10397 0.03465,0.20446 0.08317,0.3015c0.04852,0.09704 0.11436,0.17674 0.19753,0.23912c0.0901,0.06931 0.22525,0.14208 0.40546,0.21833c0.18021,0.06931 0.41239,0.13862 0.69656,0.20793c0.40893,0.10397 0.74855,0.22179 1.01886,0.35349c0.27031,0.12476 0.48517,0.27031 0.64459,0.43666c0.16634,0.15941 0.2807,0.34309 0.34309,0.55102c0.06931,0.20793 0.10397,0.44012 0.10397,0.69656c0,0.36734 -0.10744,0.70003 -0.32229,0.99806c-0.20793,0.2911 -0.4921,0.51983 -0.85252,0.68617c-0.35349,0.16634 -0.74855,0.24952 -1.18521,0.24952zM280.61302,197.89457l-2.22485,-6.51861l1.28917,-0.0104l1.59067,4.87596l-0.2807,-0.0208l1.72582,-3.81552h0.76935l1.73622,3.82592l-0.33269,0.0208l1.60106,-4.87596h1.28917l-2.19367,6.51861h-0.8837l-1.81939,-4.14821l0.2911,0.04159l-1.68424,4.10662zM291.68821,198.01933c-0.63765,0 -1.20946,-0.14556 -1.71542,-0.43666c-0.49903,-0.29803 -0.8941,-0.70003 -1.18521,-1.20599c-0.28417,-0.5129 -0.42626,-1.0951 -0.42626,-1.74661c0,-0.65151 0.14208,-1.23026 0.42626,-1.73622c0.2911,-0.5129 0.68617,-0.91489 1.18521,-1.20599c0.50596,-0.29803 1.07777,-0.44705 1.71542,-0.44705c0.62379,0 1.18521,0.14902 1.68424,0.44705c0.50596,0.2911 0.90449,0.6931 1.19559,1.20599c0.2911,0.50596 0.43666,1.0847 0.43666,1.73622c0,0.65151 -0.14556,1.23371 -0.43666,1.74661c-0.2911,0.50596 -0.68964,0.90796 -1.19559,1.20599c-0.49903,0.2911 -1.06045,0.43666 -1.68424,0.43666zM291.68821,196.85492c0.38814,0 0.73468,-0.09704 1.03965,-0.2911c0.30497,-0.19406 0.54408,-0.45745 0.71736,-0.79013c0.17328,-0.33962 0.25645,-0.72083 0.24952,-1.14362c0.00693,-0.42972 -0.07624,-0.81093 -0.24952,-1.14362c-0.17328,-0.33962 -0.41239,-0.603 -0.71736,-0.79013c-0.30497,-0.19406 -0.65151,-0.2911 -1.03965,-0.2911c-0.38814,0 -0.73815,0.09704 -1.05005,0.2911c-0.3119,0.19406 -0.55448,0.46091 -0.72776,0.80053c-0.17328,0.33269 -0.25645,0.71043 -0.24952,1.13322c-0.00693,0.42279 0.07624,0.804 0.24952,1.14362c0.17328,0.33269 0.41586,0.59607 0.72776,0.79013c0.3119,0.19406 0.66191,0.2911 1.05005,0.2911zM296.39066,197.89457v-6.51861h1.28917v2.04811l-0.12476,-0.49903c0.0901,-0.3119 0.24605,-0.59607 0.46784,-0.85252c0.22179,-0.25645 0.47478,-0.45745 0.75895,-0.603c0.28417,-0.15248 0.57874,-0.22873 0.8837,-0.22873c0.13862,0 0.27031,0.01387 0.39507,0.04159c0.13169,0.0208 0.23565,0.04852 0.3119,0.08317l-0.33269,1.39314c-0.09704,-0.04159 -0.20793,-0.07624 -0.33269,-0.10397c-0.11783,-0.03465 -0.23565,-0.05198 -0.35349,-0.05198c-0.22179,0 -0.43319,0.04505 -0.63419,0.13516c-0.201,0.08317 -0.38121,0.20446 -0.54062,0.36388c-0.15248,0.15248 -0.27378,0.32922 -0.36388,0.53022c-0.0901,0.201 -0.13516,0.42279 -0.13516,0.66538v3.59719zM303.8335,198.01933c-0.59607,0 -1.12629,-0.14556 -1.59067,-0.43666c-0.46438,-0.29803 -0.83519,-0.70003 -1.11242,-1.20599c-0.27031,-0.5129 -0.40546,-1.0951 -0.40546,-1.74661c0,-0.65151 0.13169,-1.23026 0.39507,-1.73622c0.27031,-0.5129 0.63765,-0.91489 1.10203,-1.20599c0.46438,-0.29803 0.99113,-0.44705 1.58027,-0.44705c0.31882,0 0.63072,0.05198 0.93569,0.15595c0.30497,0.10397 0.57527,0.24605 0.81093,0.42626c0.24258,0.17328 0.42972,0.36734 0.56142,0.5822c0.13862,0.20793 0.20793,0.41933 0.20793,0.63419l-0.37427,0.03119v-4.36654h1.27877v9.19051h-1.27877v-1.54908h0.24952c0,0.19406 -0.06585,0.39161 -0.19753,0.5926c-0.13169,0.19406 -0.30843,0.37427 -0.53022,0.54062c-0.21486,0.15941 -0.46784,0.2911 -0.75895,0.39507c-0.28417,0.09704 -0.57527,0.14556 -0.87331,0.14556zM304.01024,196.91729c0.38814,0 0.73123,-0.10049 1.02925,-0.3015c0.29803,-0.201 0.53022,-0.47131 0.69656,-0.81093c0.17328,-0.34655 0.25991,-0.73815 0.25991,-1.17481c0,-0.43666 -0.08664,-0.82479 -0.25991,-1.16441c-0.16634,-0.34655 -0.39854,-0.62032 -0.69656,-0.82132c-0.29803,-0.201 -0.64112,-0.3015 -1.02925,-0.3015c-0.38814,0 -0.73123,0.10049 -1.02925,0.3015c-0.29803,0.201 -0.53369,0.47478 -0.70696,0.82132c-0.16634,0.33962 -0.24952,0.72776 -0.24952,1.16441c0,0.43666 0.08317,0.82825 0.24952,1.17481c0.17328,0.33962 0.40893,0.60992 0.70696,0.81093c0.29803,0.201 0.64112,0.3015 1.02925,0.3015z" fill="#ffffff" stroke="none" stroke-width="1" stroke-linecap="square"/><path d="M232.2381,335.95646c-0.61548,0 -1.14236,-0.21915 -1.58065,-0.65744c-0.43829,-0.43829 -0.65744,-0.96518 -0.65744,-1.58065v-11.19048c0,-0.61548 0.21915,-1.14236 0.65744,-1.58065c0.43829,-0.43829 0.96518,-0.65744 1.58065,-0.65744h1.11905v-2.2381c0,-1.54802 0.54554,-2.86756 1.63661,-3.95863c1.09107,-1.09107 2.41061,-1.63661 3.95863,-1.63661c1.54802,0 2.86756,0.54554 3.95863,1.63661c1.09107,1.09107 1.63661,2.41061 1.63661,3.95863v2.2381h1.11905c0.61548,0 1.14236,0.21915 1.58065,0.65744c0.43829,0.43829 0.65744,0.96518 0.65744,1.58065v11.19048c0,0.61548 -0.21915,1.14236 -0.65744,1.58065c-0.43829,0.43829 -0.96518,0.65744 -1.58065,0.65744zM232.2381,333.71836h13.42857v-11.19048h-13.42857zM238.95238,330.36122c0.61548,0 1.14236,-0.21915 1.58065,-0.65744c0.43829,-0.43829 0.65744,-0.96518 0.65744,-1.58065c0,-0.61548 -0.21915,-1.14236 -0.65744,-1.58065c-0.43829,-0.43829 -0.96518,-0.65744 -1.58065,-0.65744c-0.61548,0 -1.14236,0.21915 -1.58065,0.65744c-0.43829,0.43829 -0.65744,0.96518 -0.65744,1.58065c0,0.61548 0.21915,1.14236 0.65744,1.58065c0.43829,0.43829 0.96518,0.65744 1.58065,0.65744zM235.59524,320.28979h6.71429v-2.2381c0,-0.93254 -0.32639,-1.7252 -0.97917,-2.37798c-0.65278,-0.65278 -1.44543,-0.97917 -2.37798,-0.97917c-0.93254,0 -1.7252,0.32639 -2.37798,0.97917c-0.65278,0.65278 -0.97917,1.44543 -0.97917,2.37798zM232.2381,333.71836v-11.19048z" fill="#ffffff" stroke="none" stroke-width="1" stroke-linecap="butt"/></g></g></svg>