<svg version="1.1" xmlns="http://www.w3.org/2000/svg" xmlns:xlink="http://www.w3.org/1999/xlink" width="48.08908" height="11.2232" viewBox="0,0,48.08908,11.2232"><g transform="translate(-215.95546,-174.3884)"><g data-paper-data="{&quot;isPaintingLayer&quot;:true}" fill="#ffffff" fill-rule="nonzero" stroke="none" stroke-width="1" stroke-linecap="square" stroke-linejoin="miter" stroke-miterlimit="10" stroke-dasharray="" stroke-dashoffset="0" style="mix-blend-mode: normal"><path d="M218.44053,182.95481c-0.27612,0 -0.53877,-0.03704 -0.78795,-0.11112c-0.24918,-0.07408 -0.48152,-0.17846 -0.69703,-0.31316c-0.20878,-0.13469 -0.39735,-0.29632 -0.56571,-0.48489c-0.16836,-0.18857 -0.31315,-0.39734 -0.43438,-0.62631l0.81825,-0.84856c0.16836,0.23571 0.32326,0.42765 0.46469,0.57581c0.14142,0.14143 0.27612,0.25254 0.40408,0.33336c0.12796,0.08081 0.25591,0.13806 0.38387,0.17173c0.12796,0.02694 0.26602,0.0404 0.41418,0.0404c0.28959,0 0.54214,-0.06735 0.75764,-0.20204c0.21551,-0.13469 0.38387,-0.31652 0.5051,-0.5455c0.12123,-0.23571 0.18184,-0.50173 0.18184,-0.79805v-4.54585h-1.54559v-1.21223h4.15188v1.21223h-1.30315v4.66708c0,0.38387 -0.06735,0.7408 -0.20204,1.0708c-0.13469,0.32326 -0.32326,0.60612 -0.56571,0.84856c-0.24244,0.23571 -0.53204,0.42428 -0.86876,0.5657c-0.32999,0.13469 -0.7004,0.20204 -1.1112,0.20204zM225.79284,182.95481c-0.51857,0 -0.99335,-0.14479 -1.42437,-0.43438c-0.43102,-0.28959 -0.77785,-0.68356 -1.0405,-1.18192c-0.25591,-0.49836 -0.38387,-1.0607 -0.38387,-1.68702c0,-0.63979 0.13133,-1.20549 0.39398,-1.69712c0.26265,-0.49162 0.61622,-0.87886 1.0607,-1.16172c0.45122,-0.28286 0.95294,-0.42428 1.50518,-0.42428c0.32999,0 0.62969,0.05051 0.89907,0.15153c0.27612,0.09429 0.51519,0.22897 0.71723,0.40408c0.20878,0.16836 0.37714,0.36704 0.5051,0.59601c0.13469,0.22224 0.21887,0.46132 0.25255,0.71724l-0.27276,-0.09092v-1.64661h1.25263v6.33389h-1.25263v-1.50519l0.28285,-0.09091c-0.04714,0.22224 -0.14479,0.43774 -0.29296,0.64652c-0.14816,0.20204 -0.33673,0.38388 -0.5657,0.54551c-0.22897,0.15489 -0.48152,0.28285 -0.75764,0.38387c-0.27612,0.09429 -0.56907,0.14143 -0.87886,0.14143zM226.1161,181.81329c0.38387,0 0.71723,-0.09092 1.00009,-0.27275c0.28959,-0.18857 0.51519,-0.44448 0.67682,-0.76774c0.16836,-0.32999 0.25255,-0.70377 0.25255,-1.12131c0,-0.41081 -0.08419,-0.77785 -0.25255,-1.10111c-0.16163,-0.32326 -0.38724,-0.57581 -0.67682,-0.75764c-0.28286,-0.18857 -0.61622,-0.28285 -1.00009,-0.28285c-0.37041,0 -0.69703,0.09428 -0.97989,0.28285c-0.28285,0.18184 -0.50846,0.43438 -0.67683,0.75764c-0.16163,0.32326 -0.24244,0.69029 -0.24244,1.10111c0,0.41754 0.08081,0.79132 0.24244,1.12131c0.16836,0.32326 0.39397,0.57917 0.67683,0.76774c0.28285,0.18184 0.60948,0.27275 0.97989,0.27275zM230.99331,182.83358v-6.33389h1.24254v1.30314l-0.22224,0.14143c0.08082,-0.27612 0.23907,-0.53204 0.47478,-0.76775c0.23571,-0.24245 0.51183,-0.43775 0.82836,-0.58591c0.32326,-0.14816 0.65326,-0.22224 0.98998,-0.22224c0.48489,0 0.8856,0.09428 1.20213,0.28285c0.32326,0.18857 0.5657,0.47816 0.72733,0.86876c0.16163,0.38387 0.24245,0.86876 0.24245,1.45468v3.85892h-1.24253v-3.77811c0,-0.35693 -0.04715,-0.65326 -0.14143,-0.88896c-0.09428,-0.24245 -0.24244,-0.41755 -0.44448,-0.5253c-0.20204,-0.10775 -0.45122,-0.1549 -0.74754,-0.14143c-0.24245,0 -0.46469,0.04041 -0.66673,0.12123c-0.20204,0.07408 -0.37714,0.18183 -0.5253,0.32326c-0.14816,0.13469 -0.26602,0.29295 -0.35357,0.47479c-0.08082,0.1751 -0.12122,0.36703 -0.12122,0.57581v3.83872h-0.61621c-0.10102,0 -0.20541,0 -0.31316,0c-0.10775,0 -0.21214,0 -0.31316,0zM240.39242,182.95481c-0.45122,0 -0.84519,-0.10438 -1.18193,-0.31316c-0.32999,-0.20878 -0.58591,-0.50173 -0.76774,-0.87887c-0.18184,-0.37714 -0.27275,-0.82835 -0.27275,-1.35366v-3.90943h1.24253v3.57607c0,0.36367 0.05724,0.68019 0.17173,0.94958c0.12122,0.26938 0.28959,0.47816 0.50509,0.62632c0.22224,0.14142 0.49163,0.21214 0.80815,0.21214c0.22898,0 0.44111,-0.03705 0.63641,-0.11113c0.19531,-0.07408 0.36367,-0.17846 0.5051,-0.31315c0.14142,-0.14142 0.24919,-0.30642 0.32327,-0.49499c0.08081,-0.1953 0.12122,-0.40744 0.12122,-0.63642v-3.80841h1.24253v6.33389h-1.24253v-1.32335l0.22224,-0.15152c-0.09429,0.30305 -0.25592,0.5758 -0.48489,0.81825c-0.22897,0.23571 -0.50173,0.42428 -0.81826,0.56571c-0.31652,0.14142 -0.65325,0.21214 -1.01018,0.21214zM247.90187,182.95481c-0.51856,0 -0.99335,-0.14479 -1.42436,-0.43438c-0.43102,-0.28959 -0.77785,-0.68356 -1.0405,-1.18192c-0.25592,-0.49836 -0.38387,-1.0607 -0.38387,-1.68702c0,-0.63979 0.13133,-1.20549 0.39398,-1.69712c0.26265,-0.49162 0.61622,-0.87886 1.0607,-1.16172c0.45122,-0.28286 0.95295,-0.42428 1.50518,-0.42428c0.32999,0 0.62968,0.05051 0.89907,0.15153c0.27612,0.09429 0.5152,0.22897 0.71724,0.40408c0.20878,0.16836 0.37714,0.36704 0.50509,0.59601c0.13469,0.22224 0.21887,0.46132 0.25255,0.71724l-0.27275,-0.09092v-1.64661h1.25263v6.33389h-1.25263v-1.50519l0.28285,-0.09091c-0.04714,0.22224 -0.14479,0.43774 -0.29296,0.64652c-0.14816,0.20204 -0.33673,0.38388 -0.5657,0.54551c-0.22898,0.15489 -0.48153,0.28285 -0.75765,0.38387c-0.27612,0.09429 -0.56907,0.14143 -0.87887,0.14143zM248.22513,181.81329c0.38387,0 0.71723,-0.09092 1.00009,-0.27275c0.28959,-0.18857 0.5152,-0.44448 0.67683,-0.76774c0.16836,-0.32999 0.25254,-0.70377 0.25254,-1.12131c0,-0.41081 -0.08418,-0.77785 -0.25254,-1.10111c-0.16163,-0.32326 -0.38724,-0.57581 -0.67683,-0.75764c-0.28285,-0.18857 -0.61622,-0.28285 -1.00009,-0.28285c-0.37041,0 -0.69703,0.09428 -0.97988,0.28285c-0.28285,0.18184 -0.50847,0.43438 -0.67683,0.75764c-0.16163,0.32326 -0.24245,0.69029 -0.24245,1.10111c0,0.41754 0.08082,0.79132 0.24245,1.12131c0.16836,0.32326 0.39398,0.57917 0.67683,0.76774c0.28285,0.18184 0.60948,0.27275 0.97988,0.27275zM253.10234,182.83358v-6.33389h1.25264v1.99007l-0.12122,-0.48489c0.08755,-0.30306 0.23908,-0.57918 0.45459,-0.82836c0.2155,-0.24918 0.46132,-0.44449 0.73744,-0.58591c0.27612,-0.14816 0.56234,-0.22224 0.85866,-0.22224c0.13469,0 0.26265,0.01346 0.38387,0.0404c0.12796,0.02021 0.22897,0.04714 0.30306,0.08082l-0.32326,1.35366c-0.09429,-0.04041 -0.20204,-0.07407 -0.32326,-0.10102c-0.11449,-0.03367 -0.22897,-0.05051 -0.34347,-0.05051c-0.21551,0 -0.42091,0.04377 -0.61622,0.13133c-0.19531,0.08081 -0.37041,0.19867 -0.5253,0.35356c-0.14816,0.14816 -0.26601,0.31989 -0.35357,0.5152c-0.08755,0.1953 -0.13133,0.41081 -0.13133,0.64652v3.49526zM259.02389,185.6116l1.28294,-2.95985l0.0101,0.98998l-3.16189,-7.14204h1.44457l1.97997,4.65697c0.04041,0.08082 0.08755,0.2054 0.14143,0.37377c0.06061,0.16163 0.11111,0.32326 0.15152,0.48489l-0.31316,0.07072c0.06061,-0.16836 0.12122,-0.33673 0.18183,-0.50509c0.06061,-0.16836 0.11786,-0.33673 0.17173,-0.5051l1.65671,-4.57616h1.47488l-2.60629,6.33389l-1.0708,2.77802z"/></g></g></svg>