<svg version="1.1" xmlns="http://www.w3.org/2000/svg" xmlns:xlink="http://www.w3.org/1999/xlink" width="232.23527" height="160.12502" viewBox="0,0,232.23527,160.12502"><g transform="translate(-123.88237,-99.93749)"><g data-paper-data="{&quot;isPaintingLayer&quot;:true}" stroke="none" stroke-linejoin="miter" stroke-miterlimit="10" stroke-dasharray="" stroke-dashoffset="0" style="mix-blend-mode: normal"><path d="M123.88237,109.83482c0,-5.46615 4.43119,-9.89733 9.89733,-9.89733h212.44061c2.62494,0 5.14237,1.04275 6.99847,2.89886c1.85612,1.85611 2.89886,4.37353 2.89886,6.99847v140.33036c0,5.46615 -4.43118,9.89733 -9.89733,9.89733h-212.44061c-5.46614,0 -9.89733,-4.43118 -9.89733,-9.89733z" fill="#ebebeb" fill-rule="evenodd" stroke-width="1" stroke-linecap="square"/><path d="M329.5029,111.23421c0,2.34801 -1.91444,4.25144 -4.27602,4.25144c-2.36158,0 -4.27601,-1.90344 -4.27601,-4.25144c0,-2.34801 1.91443,-4.25144 4.27601,-4.25144c2.36158,0 4.27602,1.90344 4.27602,4.25144z" fill-opacity="0.27419" fill="#727272" fill-rule="nonzero" stroke-width="0" stroke-linecap="butt"/><path d="M344.0029,111.23421c0,2.34801 -1.91444,4.25144 -4.27602,4.25144c-2.36158,0 -4.27601,-1.90344 -4.27601,-4.25144c0,-2.34801 1.91443,-4.25144 4.27601,-4.25144c2.36158,0 4.27602,1.90344 4.27602,4.25144z" fill-opacity="0.27419" fill="#727272" fill-rule="nonzero" stroke-width="0" stroke-linecap="butt"/><path d="M223.94607,115.73939c-0.54204,0 -1.04047,-0.09657 -1.49528,-0.28971c-0.45481,-0.19314 -0.85044,-0.47039 -1.18688,-0.83175c-0.33021,-0.36136 -0.58877,-0.78814 -0.77568,-1.28034c-0.18068,-0.4922 -0.27102,-1.03112 -0.27102,-1.61678c0,-0.5545 0.09968,-1.07162 0.29906,-1.55136c0.19937,-0.47974 0.47351,-0.90029 0.82241,-1.26165c0.3489,-0.36759 0.75387,-0.65107 1.21492,-0.85044c0.46105,-0.2056 0.95947,-0.3084 1.49528,-0.3084c0.38005,0 0.75076,0.05919 1.11212,0.17757c0.36136,0.11215 0.68845,0.27102 0.98128,0.47662c0.29283,0.2056 0.5327,0.43924 0.71961,0.70091l-0.80372,0.83175c-0.21806,-0.21806 -0.43612,-0.39874 -0.65419,-0.54204c-0.21806,-0.1433 -0.44236,-0.25233 -0.67288,-0.32709c-0.22429,-0.07476 -0.4517,-0.11215 -0.68222,-0.11215c-0.36759,0 -0.71026,0.06853 -1.02801,0.2056c-0.31152,0.13707 -0.58565,0.33021 -0.82241,0.57942c-0.23052,0.24298 -0.41432,0.53581 -0.55139,0.87848c-0.13084,0.33644 -0.19626,0.70403 -0.19626,1.10277c0,0.42366 0.0623,0.80994 0.18691,1.15885c0.13084,0.34267 0.31463,0.63861 0.55139,0.88783c0.24298,0.24298 0.52958,0.42989 0.85979,0.56073c0.33021,0.13084 0.6978,0.19626 1.10277,0.19626c0.24298,0 0.48285,-0.03427 0.71961,-0.1028c0.23675,-0.06853 0.45793,-0.1651 0.66353,-0.28971c0.21183,-0.12461 0.40497,-0.27414 0.57942,-0.44859l0.59811,0.98128c-0.16822,0.2056 -0.40186,0.3894 -0.70091,0.55139c-0.29283,0.16199 -0.61992,0.28971 -0.98128,0.38317c-0.35513,0.09346 -0.71649,0.14018 -1.08408,0.14018zM228.08359,115.62725v-8.26145h1.1495v8.26145zM233.38948,115.73939c-0.57319,0 -1.0872,-0.13084 -1.54201,-0.39251c-0.44859,-0.2679 -0.80372,-0.62927 -1.06539,-1.08408c-0.25545,-0.46105 -0.38317,-0.9844 -0.38317,-1.57005c0,-0.58565 0.12772,-1.10589 0.38317,-1.5607c0.26167,-0.46105 0.6168,-0.82241 1.06539,-1.08408c0.45481,-0.2679 0.96882,-0.40186 1.54201,-0.40186c0.56073,0 1.06539,0.13395 1.51398,0.40186c0.45481,0.26167 0.81306,0.62303 1.07474,1.08408c0.26167,0.45481 0.39251,0.97505 0.39251,1.5607c0,0.58565 -0.13084,1.109 -0.39251,1.57005c-0.26167,0.45481 -0.61992,0.81618 -1.07474,1.08408c-0.44859,0.26167 -0.95324,0.39251 -1.51398,0.39251zM233.38948,114.69269c0.3489,0 0.66042,-0.08723 0.93455,-0.26167c0.27414,-0.17445 0.48908,-0.4112 0.64484,-0.71026c0.15576,-0.30529 0.23052,-0.64796 0.22429,-1.02801c0.00623,-0.38628 -0.06853,-0.72895 -0.22429,-1.02801c-0.15576,-0.30529 -0.3707,-0.54204 -0.64484,-0.71026c-0.27414,-0.17445 -0.58565,-0.26167 -0.93455,-0.26167c-0.3489,0 -0.66353,0.08723 -0.9439,0.26167c-0.28037,0.17445 -0.49843,0.41432 -0.65419,0.71961c-0.15576,0.29906 -0.23052,0.63861 -0.22429,1.01866c-0.00623,0.38005 0.06853,0.72272 0.22429,1.02801c0.15576,0.29906 0.37382,0.53581 0.65419,0.71026c0.28037,0.17445 0.595,0.26167 0.9439,0.26167zM240.10247,115.73939c-0.54204,0 -1.02801,-0.13395 -1.4579,-0.40186c-0.42366,-0.2679 -0.7601,-0.63238 -1.00932,-1.09343c-0.24921,-0.46105 -0.37382,-0.97816 -0.37382,-1.55136c0,-0.57319 0.12461,-1.09031 0.37382,-1.55136c0.24921,-0.46105 0.58565,-0.82552 1.00932,-1.09343c0.42989,-0.2679 0.91586,-0.40186 1.4579,-0.40186c0.52335,0 0.99686,0.10592 1.42052,0.31775c0.42989,0.21183 0.75699,0.50154 0.98128,0.86913l-0.6355,0.77568c-0.11838,-0.16822 -0.27102,-0.32398 -0.45793,-0.46728c-0.18691,-0.1433 -0.38628,-0.25545 -0.59811,-0.33644c-0.2056,-0.08099 -0.40497,-0.12149 -0.59811,-0.12149c-0.35513,0 -0.67288,0.08723 -0.95324,0.26167c-0.28037,0.17445 -0.50154,0.41432 -0.66353,0.71961c-0.16199,0.30529 -0.24298,0.64796 -0.24298,1.02801c0,0.38005 0.08411,0.72272 0.25233,1.02801c0.17445,0.29906 0.40186,0.53892 0.68222,0.71961c0.28037,0.17445 0.59188,0.26167 0.93455,0.26167c0.2056,0 0.40186,-0.03427 0.58877,-0.1028c0.18691,-0.06853 0.3707,-0.16822 0.55139,-0.29906c0.18068,-0.13707 0.3489,-0.30217 0.50466,-0.49531l0.6355,0.78502c-0.23675,0.33644 -0.57631,0.61369 -1.01866,0.83175c-0.44236,0.21183 -0.9034,0.31775 -1.38314,0.31775zM244.63309,113.79552l-0.05607,-1.2523l2.80366,-2.77562h1.55136zM243.58639,115.62725v-8.26145h1.1495v8.26145zM247.53955,115.62725l-2.21489,-2.57937l0.81306,-0.74764l2.86908,3.32701z" fill="#000000" fill-rule="nonzero" stroke-width="1" stroke-linecap="square"/></g></g></svg>