<svg version="1.1" xmlns="http://www.w3.org/2000/svg" xmlns:xlink="http://www.w3.org/1999/xlink" width="21.58322" height="27.89234" viewBox="0,0,21.58322,27.89234"><g transform="translate(-170.54784,-102.69833)"><g data-paper-data="{&quot;isPaintingLayer&quot;:true}" stroke="none" stroke-width="1" stroke-linecap="square" stroke-linejoin="miter" stroke-miterlimit="10" stroke-dasharray="" stroke-dashoffset="0" style="mix-blend-mode: normal"><path d="M170.54784,104.42237c0,-0.95215 0.41182,-1.72403 0.91982,-1.72403h19.74357c0.24395,0 0.47791,0.18164 0.65041,0.50495c0.1725,0.32331 0.26942,0.76183 0.26942,1.21908v24.44429c0,0.95215 -0.41182,1.72402 -0.91983,1.72402h-19.74357c-0.508,0 -0.91982,-0.77187 -0.91982,-1.72402z" fill-opacity="0.69355" fill="#2d2d2d" fill-rule="evenodd"/><path d="M181.19283,125.69298c-1.40643,0 -2.62984,-0.28899 -3.67022,-0.86698c-1.04038,-0.59725 -1.98442,-1.60873 -2.83213,-3.03443l3.00553,-1.96515c0.34679,0.57799 0.71285,1.04038 1.09817,1.38717c0.40459,0.34679 0.80918,0.59725 1.21377,0.75138c0.42385,0.15413 0.86698,0.23119 1.32937,0.23119c0.46239,0 0.88624,-0.09633 1.27157,-0.28899c0.38533,-0.21193 0.69358,-0.50092 0.92478,-0.86698c0.25046,-0.38533 0.37569,-0.81882 0.37569,-1.30047c0,-0.50092 -0.10596,-0.92478 -0.31789,-1.27157c-0.21193,-0.36606 -0.51055,-0.63579 -0.89588,-0.80918c-0.38533,-0.19266 -0.84772,-0.28899 -1.38717,-0.28899c-0.25046,0 -0.52019,0.0289 -0.80918,0.0867c-0.26973,0.0578 -0.55872,0.13486 -0.86698,0.23119c-0.30826,0.09633 -0.62615,0.23119 -0.95368,0.40459l-0.92478,-2.45644l4.1904,-4.5372l1.12707,0.60689l-7.19593,-0.1445v-3.52572h10.60606l0.78028,1.53166l-5.69317,6.09776l-1.01148,-1.15597c0.13486,-0.0578 0.35643,-0.1156 0.66468,-0.1734c0.30826,-0.0578 0.59725,-0.0867 0.86698,-0.0867c0.77065,0 1.49313,0.1445 2.16745,0.43349c0.67432,0.26973 1.27157,0.65505 1.79176,1.15597c0.53945,0.48165 0.95368,1.05964 1.24267,1.73396c0.30826,0.65505 0.46239,1.35827 0.46239,2.10965c0,1.15597 -0.29863,2.18671 -0.89588,3.09223c-0.57799,0.88624 -1.3679,1.5991 -2.36975,2.13855c-0.98258,0.52019 -2.08075,0.78028 -3.29452,0.78028z" fill="#ffffff" fill-rule="nonzero"/></g></g></svg>