<svg version="1.1" xmlns="http://www.w3.org/2000/svg" xmlns:xlink="http://www.w3.org/1999/xlink" width="45.87358" height="45.87358" viewBox="0,0,45.87358,45.87358"><g transform="translate(-217.06321,-157.06321)"><g data-paper-data="{&quot;isPaintingLayer&quot;:true}" fill-rule="nonzero" stroke="none" stroke-width="0" stroke-linecap="butt" stroke-linejoin="miter" stroke-miterlimit="10" stroke-dasharray="" stroke-dashoffset="0" style="mix-blend-mode: normal"><path d="M217.06321,202.93679v-45.87358h45.87358v45.87358z" fill="#ffffff"/><path d="M223.59322,168.98401c0,-2.97725 2.41353,-5.39078 5.39078,-5.39078c2.97725,0 5.39078,2.41353 5.39078,5.39078c0,2.97725 -2.41353,5.39078 -5.39078,5.39078c-2.97725,0 -5.39078,-2.41353 -5.39078,-5.39078z" fill="#000000"/><path d="M245.12223,189.91756c0,-2.97725 2.41353,-5.39078 5.39078,-5.39078c2.97725,0 5.39078,2.41353 5.39078,5.39078c0,2.97725 -2.41353,5.39078 -5.39078,5.39078c-2.97725,0 -5.39078,-2.41353 -5.39078,-5.39078z" fill="#000000"/><path d="M223.2955,189.82506c0,-2.97725 2.41353,-5.39078 5.39078,-5.39078c2.97725,0 5.39078,2.41353 5.39078,5.39078c0,2.97725 -2.41353,5.39078 -5.39078,5.39078c-2.97725,0 -5.39078,-2.41353 -5.39078,-5.39078z" fill="#000000"/><path d="M244.8245,169.07651c0,-2.97725 2.41353,-5.39078 5.39078,-5.39078c2.97725,0 5.39078,2.41353 5.39078,5.39078c0,2.97725 -2.41353,5.39078 -5.39078,5.39078c-2.97725,0 -5.39078,-2.41353 -5.39078,-5.39078z" fill="#000000"/></g></g></svg>