<svg version="1.1" xmlns="http://www.w3.org/2000/svg" xmlns:xlink="http://www.w3.org/1999/xlink" width="23.67966" height="11.22321" viewBox="0,0,23.67966,11.22321"><g transform="translate(-228.16017,-174.38839)"><g data-paper-data="{&quot;isPaintingLayer&quot;:true}" fill="#ffffff" fill-rule="nonzero" stroke="none" stroke-width="1" stroke-linecap="square" stroke-linejoin="miter" stroke-miterlimit="10" stroke-dasharray="" stroke-dashoffset="0" style="mix-blend-mode: normal"><path d="M228.16017,182.83358v-8.44518h1.28294l3.07098,5.01054l-0.61621,-0.0101l3.11138,-5.00044h1.21223v8.44518h-1.30315v-3.46495c0,-0.7206 0.01684,-1.37049 0.05051,-1.94967c0.03368,-0.57917 0.09765,-1.15498 0.19194,-1.72742l0.16163,0.44448l-2.75782,4.2731h-0.79805l-2.677,-4.2226l0.13132,-0.49499c0.08755,0.53877 0.14816,1.09437 0.18184,1.66681c0.04041,0.56571 0.06061,1.23579 0.06061,2.01028v3.46495zM240.70286,182.95481c-0.51856,0 -0.99335,-0.14479 -1.42437,-0.43438c-0.43102,-0.28959 -0.77785,-0.68357 -1.0405,-1.18193c-0.25592,-0.49836 -0.38387,-1.0607 -0.38387,-1.68702c0,-0.63978 0.13132,-1.20549 0.39397,-1.69712c0.26265,-0.49162 0.61622,-0.87886 1.0607,-1.16172c0.45122,-0.28286 0.95295,-0.42428 1.50518,-0.42428c0.32999,0 0.62968,0.05051 0.89907,0.15153c0.27612,0.09429 0.5152,0.22898 0.71724,0.40408c0.20878,0.16836 0.37714,0.36704 0.50509,0.59601c0.13469,0.22224 0.21887,0.46132 0.25254,0.71723l-0.27275,-0.09092v-1.64661h1.25263v6.33389h-1.25263v-1.50518l0.28285,-0.09092c-0.04714,0.22224 -0.1448,0.43775 -0.29296,0.64653c-0.14816,0.20204 -0.33673,0.38387 -0.5657,0.5455c-0.22898,0.1549 -0.48152,0.28286 -0.75764,0.38388c-0.27612,0.09429 -0.56907,0.14142 -0.87887,0.14142zM241.02612,181.81329c0.38387,0 0.71723,-0.09091 1.00009,-0.27275c0.28959,-0.18857 0.5152,-0.44448 0.67683,-0.76774c0.16836,-0.32999 0.25254,-0.70377 0.25254,-1.12131c0,-0.41081 -0.08418,-0.77785 -0.25254,-1.10111c-0.16163,-0.32326 -0.38724,-0.57581 -0.67683,-0.75764c-0.28285,-0.18857 -0.61622,-0.28286 -1.00009,-0.28286c-0.37041,0 -0.69703,0.09429 -0.97988,0.28286c-0.28285,0.18184 -0.50847,0.43438 -0.67683,0.75764c-0.16163,0.32326 -0.24245,0.6903 -0.24245,1.10111c0,0.41754 0.08082,0.79132 0.24245,1.12131c0.16836,0.32326 0.39397,0.57917 0.67683,0.76774c0.28285,0.18184 0.60948,0.27275 0.97988,0.27275zM246.81921,185.61161l1.28294,-2.95986l0.0101,0.98998l-3.1619,-7.14204h1.44457l1.97997,4.65698c0.04041,0.08082 0.08755,0.2054 0.14142,0.37377c0.06061,0.16163 0.11112,0.32326 0.15153,0.48489l-0.31316,0.07071c0.06061,-0.16836 0.12123,-0.33673 0.18184,-0.5051c0.06061,-0.16836 0.11785,-0.33673 0.17173,-0.50509l1.65671,-4.57616h1.47487l-2.60629,6.33389l-1.0708,2.77803z"/></g></g></svg>