<svg version="1.1" xmlns="http://www.w3.org/2000/svg" xmlns:xlink="http://www.w3.org/1999/xlink" width="221.42824" height="20.85825" viewBox="0,0,221.42824,20.85825"><g transform="translate(-88.29639,-173.09375)"><g data-paper-data="{&quot;isPaintingLayer&quot;:true}" fill="#ffffff" fill-rule="nonzero" stroke="none" stroke-width="1" stroke-linejoin="miter" stroke-miterlimit="10" stroke-dasharray="" stroke-dashoffset="0" style="mix-blend-mode: normal"><text transform="translate(146.75,192.35413) scale(0.12515,0.12783)" font-size="40" xml:space="preserve" fill="#ffffff" fill-rule="nonzero" stroke="none" stroke-width="1" stroke-linecap="butt" stroke-linejoin="miter" stroke-miterlimit="10" stroke-dasharray="" stroke-dashoffset="0" font-family="Sans Serif" font-weight="normal" text-anchor="start" style="mix-blend-mode: normal"><tspan x="0" dy="0">Nothing here yet... :( we will tell you when there has been an update</tspan></text><path d="M88.29639,177.81423v-0.60992h0.69193v-3.05985h-0.69193v-0.61505h2.04502v0.61505h-0.69193v3.05985h0.69193v0.60992zM91.2216,177.81423v-3.21362h0.63042v0.66117l-0.11276,0.07174c0.04101,-0.1401 0.12131,-0.26993 0.2409,-0.38952c0.11961,-0.12301 0.25969,-0.22209 0.42027,-0.29726c0.16401,-0.07519 0.33144,-0.11276 0.5023,-0.11276c0.24601,0 0.44934,0.04784 0.60992,0.14351c0.16401,0.09567 0.28702,0.24262 0.36902,0.44079c0.082,0.19476 0.12301,0.44079 0.12301,0.73806v1.95789h-0.63042v-1.91688c0,-0.1811 -0.02392,-0.33144 -0.07174,-0.45103c-0.04784,-0.12301 -0.12301,-0.21185 -0.22553,-0.26653c-0.10252,-0.05467 -0.22892,-0.07858 -0.37928,-0.07174c-0.12301,0 -0.23577,0.0205 -0.33827,0.06151c-0.10252,0.03758 -0.19135,0.09226 -0.26653,0.16401c-0.07519,0.06834 -0.13497,0.14864 -0.17939,0.2409c-0.04101,0.08883 -0.06151,0.18622 -0.06151,0.29215v1.94765h-0.31265c-0.05125,0 -0.10422,0 -0.15888,0c-0.05467,0 -0.10763,0 -0.15888,0zM95.93402,177.87574c-0.26993,0 -0.51253,-0.04612 -0.72781,-0.1384c-0.21527,-0.09567 -0.39465,-0.23577 -0.53818,-0.42027l0.4254,-0.36391c0.12301,0.1401 0.25627,0.24262 0.39978,0.30752c0.14692,0.06151 0.31265,0.09226 0.49717,0.09226c0.07174,0 0.1384,-0.00854 0.19989,-0.02562c0.06493,-0.01709 0.12131,-0.04442 0.16913,-0.082c0.04784,-0.03758 0.08371,-0.082 0.10763,-0.13325c0.02392,-0.05125 0.03588,-0.10763 0.03588,-0.16913c0,-0.10592 -0.03929,-0.19135 -0.11789,-0.25627c-0.04101,-0.02733 -0.10592,-0.0581 -0.19476,-0.09226c-0.08543,-0.03418 -0.19818,-0.07004 -0.33827,-0.10763c-0.23577,-0.06151 -0.42881,-0.12984 -0.57917,-0.20502c-0.15034,-0.07858 -0.26653,-0.16743 -0.34853,-0.26653c-0.06151,-0.07858 -0.10763,-0.16232 -0.1384,-0.25114c-0.02733,-0.09226 -0.04101,-0.19476 -0.04101,-0.30752c0,-0.13325 0.02903,-0.25627 0.08713,-0.36902c0.06151,-0.11276 0.14351,-0.21014 0.24601,-0.29215c0.10592,-0.08543 0.22892,-0.15034 0.36902,-0.19476c0.1401,-0.04442 0.29043,-0.06664 0.45103,-0.06664c0.15034,0 0.29898,0.0205 0.4459,0.06151c0.15034,0.04101 0.28874,0.1008 0.41516,0.17939c0.12642,0.07519 0.23235,0.16573 0.31777,0.27165l-0.35878,0.39978c-0.07858,-0.07858 -0.16401,-0.14692 -0.25627,-0.20502c-0.09226,-0.0581 -0.18622,-0.10252 -0.28189,-0.13325c-0.09226,-0.03418 -0.17596,-0.05125 -0.25114,-0.05125c-0.08543,0 -0.16401,0.00854 -0.23577,0.02562c-0.06834,0.01368 -0.12642,0.03758 -0.17426,0.07174c-0.04442,0.03075 -0.0803,0.07174 -0.10763,0.12301c-0.02392,0.04784 -0.03588,0.10252 -0.03588,0.16401c0.00341,0.05125 0.01709,0.1008 0.04101,0.14864c0.02392,0.04784 0.05638,0.08713 0.09739,0.11789c0.04442,0.03418 0.11105,0.07004 0.19989,0.10763c0.08883,0.03418 0.20331,0.06834 0.3434,0.10252c0.20161,0.05125 0.36902,0.10935 0.5023,0.17426c0.13325,0.06151 0.23918,0.13325 0.31777,0.21527c0.082,0.07858 0.1384,0.16913 0.16913,0.27165c0.03418,0.10252 0.05125,0.21696 0.05125,0.3434c0,0.1811 -0.05297,0.34512 -0.15888,0.49204c-0.10252,0.14351 -0.24262,0.25627 -0.42027,0.33827c-0.17426,0.082 -0.36902,0.12301 -0.5843,0.12301zM98.19395,177.81423v-4.03368h0.63042v4.03368zM97.52252,175.21565v-0.61505h2.04502v0.61505zM101.34875,177.87574c-0.2631,0 -0.504,-0.07347 -0.72268,-0.22038c-0.21868,-0.14692 -0.39465,-0.34682 -0.52792,-0.59966c-0.12984,-0.25286 -0.19476,-0.53818 -0.19476,-0.85593c0,-0.3246 0.06664,-0.61162 0.19989,-0.86106c0.13325,-0.24944 0.31265,-0.4459 0.53818,-0.58943c0.22892,-0.14351 0.4835,-0.21527 0.76369,-0.21527c0.16743,0 0.31948,0.02562 0.45617,0.07689c0.1401,0.04784 0.26139,0.11616 0.36391,0.20502c0.10592,0.08543 0.19135,0.18622 0.25627,0.30239c0.06834,0.11276 0.11105,0.23405 0.12814,0.36391l-0.1384,-0.04612v-0.83544h0.63555v3.21362h-0.63555v-0.76369l0.14351,-0.04612c-0.02392,0.11276 -0.07347,0.22209 -0.14864,0.32803c-0.07519,0.10252 -0.17084,0.19476 -0.28702,0.27678c-0.11616,0.07858 -0.24431,0.14351 -0.38439,0.19476c-0.1401,0.04784 -0.28874,0.07174 -0.4459,0.07174zM101.51273,177.29657c0.19476,0 0.36391,-0.04612 0.5074,-0.1384c0.14692,-0.09567 0.26139,-0.22553 0.3434,-0.38952c0.08543,-0.16743 0.12814,-0.35708 0.12814,-0.56891c0,-0.20844 -0.04271,-0.39465 -0.12814,-0.55867c-0.082,-0.16401 -0.19648,-0.29215 -0.3434,-0.38439c-0.14351,-0.09567 -0.31265,-0.14351 -0.5074,-0.14351c-0.18793,0 -0.35366,0.04784 -0.49717,0.14351c-0.14351,0.09226 -0.25799,0.22038 -0.3434,0.38439c-0.082,0.16401 -0.12301,0.35023 -0.12301,0.55867c0,0.21185 0.04101,0.40148 0.12301,0.56891c0.08543,0.16401 0.19989,0.29387 0.3434,0.38952c0.14351,0.09226 0.30924,0.1384 0.49717,0.1384zM103.99755,177.81423v-4.53085h0.63042v4.53085zM105.53362,177.81423v-4.53085h0.63042v4.53085zM107.16189,177.81423v-3.21362h0.63042v3.21362zM107.46943,173.89331c-0.13325,0 -0.23747,-0.03418 -0.31265,-0.10252c-0.07174,-0.07174 -0.10763,-0.17084 -0.10763,-0.29726c0,-0.11961 0.03758,-0.21527 0.11276,-0.28702c0.07519,-0.07519 0.17767,-0.11276 0.30752,-0.11276c0.13325,0 0.23577,0.03588 0.30752,0.10763c0.07519,0.06834 0.11276,0.16573 0.11276,0.29215c0,0.11961 -0.03758,0.21696 -0.11276,0.29215c-0.07519,0.07174 -0.17767,0.10763 -0.30752,0.10763zM108.76066,177.81423v-3.21362h0.63042v0.66117l-0.11276,0.07174c0.04101,-0.1401 0.12131,-0.26993 0.2409,-0.38952c0.11961,-0.12301 0.25969,-0.22209 0.42027,-0.29726c0.16401,-0.07519 0.33144,-0.11276 0.5023,-0.11276c0.24601,0 0.44934,0.04784 0.60992,0.14351c0.16401,0.09567 0.28702,0.24262 0.36902,0.44079c0.082,0.19476 0.12301,0.44079 0.12301,0.73806v1.95789h-0.63042v-1.91688c0,-0.1811 -0.02392,-0.33144 -0.07174,-0.45103c-0.04784,-0.12301 -0.12301,-0.21185 -0.22553,-0.26653c-0.10252,-0.05467 -0.22892,-0.07858 -0.37928,-0.07174c-0.12301,0 -0.23577,0.0205 -0.33827,0.06151c-0.10252,0.03758 -0.19135,0.09226 -0.26653,0.16401c-0.07519,0.06834 -0.13497,0.14864 -0.17939,0.2409c-0.04101,0.08883 -0.06151,0.18622 -0.06151,0.29215v1.94765h-0.31265c-0.05125,0 -0.10422,0 -0.15888,0c-0.05467,0 -0.10763,0 -0.15888,0zM113.84213,179.22371c-0.22892,0 -0.45788,-0.03588 -0.6868,-0.10763c-0.22553,-0.07174 -0.40661,-0.16573 -0.54329,-0.28189l0.23064,-0.48691c0.082,0.06151 0.17767,0.11446 0.28702,0.15888c0.10935,0.04784 0.22553,0.08543 0.34853,0.11276c0.12301,0.02733 0.24431,0.04101 0.36391,0.04101c0.22209,0 0.40831,-0.03758 0.55867,-0.11276c0.15377,-0.07174 0.26823,-0.17939 0.3434,-0.3229c0.07858,-0.14351 0.11789,-0.32118 0.11789,-0.53303v-0.61505l0.06664,0.04101c-0.0205,0.12642 -0.08713,0.24773 -0.19989,0.36391c-0.11276,0.11616 -0.25286,0.21185 -0.42027,0.28702c-0.16401,0.07174 -0.33486,0.10763 -0.51253,0.10763c-0.30411,0 -0.57574,-0.07174 -0.81494,-0.21527c-0.23918,-0.14692 -0.42881,-0.34512 -0.56891,-0.59454c-0.13668,-0.25286 -0.20502,-0.53988 -0.20502,-0.86106c0,-0.32118 0.06834,-0.6065 0.20502,-0.85593c0.13668,-0.25286 0.3229,-0.45103 0.55867,-0.59454c0.23918,-0.14692 0.50911,-0.22038 0.80981,-0.22038c0.11961,0 0.23577,0.01539 0.34853,0.04612c0.11616,0.03075 0.22381,0.07347 0.3229,0.12814c0.09909,0.05467 0.18622,0.11446 0.26139,0.17939c0.07858,0.06493 0.14179,0.13497 0.18965,0.21014c0.05125,0.07174 0.082,0.1401 0.09226,0.20502l-0.13325,0.05125v-0.75343h0.63042v3.01885c0,0.25627 -0.03758,0.4835 -0.11276,0.68167c-0.07519,0.19818 -0.18452,0.3656 -0.32803,0.5023c-0.14351,0.13668 -0.31777,0.2409 -0.52279,0.31265c-0.20161,0.07174 -0.43053,0.10763 -0.6868,0.10763zM113.86264,177.29657c0.20161,0 0.37928,-0.04612 0.53303,-0.1384c0.15717,-0.09567 0.27848,-0.22553 0.36391,-0.38952c0.08543,-0.16401 0.12814,-0.35195 0.12814,-0.5638c0,-0.21185 -0.04442,-0.39978 -0.13325,-0.5638c-0.08883,-0.16743 -0.21014,-0.29726 -0.36391,-0.38952c-0.15034,-0.09567 -0.32631,-0.14351 -0.52792,-0.14351c-0.19476,0 -0.36902,0.04784 -0.52279,0.14351c-0.15377,0.09567 -0.27506,0.22722 -0.36391,0.39465c-0.08543,0.16401 -0.12814,0.35023 -0.12814,0.55867c0,0.20844 0.04271,0.39637 0.12814,0.5638c0.08883,0.16401 0.21014,0.29387 0.36391,0.38952c0.15377,0.09226 0.32803,0.1384 0.52279,0.1384zM119.18396,177.87574c-0.30411,0 -0.56721,-0.06834 -0.78931,-0.20502c-0.22209,-0.1401 -0.43053,-0.37415 -0.62531,-0.70218l0.51253,-0.3229c0.10252,0.15034 0.20331,0.27335 0.30239,0.36902c0.10252,0.09567 0.20674,0.16743 0.31265,0.21527c0.10592,0.04442 0.21696,0.06664 0.33314,0.06664c0.14351,0 0.27678,-0.03588 0.39978,-0.10763c0.12301,-0.07174 0.22038,-0.17084 0.29215,-0.29726c0.07519,-0.12642 0.11276,-0.26993 0.11276,-0.43053c0,-0.15717 -0.02903,-0.29215 -0.08713,-0.40491c-0.0581,-0.11276 -0.14179,-0.19818 -0.25114,-0.25627c-0.10935,-0.06151 -0.23918,-0.09226 -0.38952,-0.09226c-0.07174,0 -0.14523,0.00854 -0.22038,0.02562c-0.07519,0.01368 -0.15547,0.03418 -0.2409,0.06151c-0.08543,0.02392 -0.17939,0.05638 -0.28189,0.09739l-0.18452,-0.48178l1.32236,-1.45561l0.12814,0.18965h-1.82464v-0.61505h2.45507l0.12301,0.24601l-1.39923,1.553l-0.15377,-0.15888c0.03075,-0.01709 0.08371,-0.03246 0.15888,-0.04612c0.07858,-0.01368 0.14179,-0.0205 0.18965,-0.0205c0.17767,0 0.34512,0.03418 0.5023,0.10252c0.15717,0.06493 0.29387,0.15888 0.41003,0.28189c0.11616,0.11961 0.20844,0.25969 0.27678,0.42027c0.06834,0.1606 0.10252,0.33314 0.10252,0.51766c0,0.27678 -0.06664,0.52449 -0.19989,0.74317c-0.13325,0.21868 -0.31265,0.39124 -0.53818,0.51766c-0.22209,0.12642 -0.47152,0.18965 -0.74832,0.18965zM121.32442,177.81423v-3.21362h0.63555v1.0097l-0.06151,-0.24601c0.04442,-0.15377 0.12131,-0.29387 0.23064,-0.42027c0.10935,-0.12642 0.23405,-0.22553 0.37415,-0.29726c0.1401,-0.07519 0.2853,-0.11276 0.43566,-0.11276c0.06834,0 0.13325,0.00683 0.19476,0.0205c0.06493,0.01024 0.11616,0.02392 0.15377,0.04101l-0.16401,0.6868c-0.04784,-0.0205 -0.10252,-0.03758 -0.16401,-0.05125c-0.0581,-0.01709 -0.11616,-0.02562 -0.17426,-0.02562c-0.10935,0 -0.21357,0.02222 -0.31265,0.06664c-0.09909,0.04101 -0.18793,0.1008 -0.26653,0.17939c-0.07519,0.07519 -0.13497,0.16232 -0.17939,0.26139c-0.04442,0.09909 -0.06664,0.20844 -0.06664,0.32803v1.77339zM124.99371,177.87574c-0.29387,0 -0.55525,-0.07174 -0.78418,-0.21527c-0.22892,-0.14692 -0.41174,-0.34512 -0.54842,-0.59454c-0.13325,-0.25286 -0.19989,-0.53988 -0.19989,-0.86106c0,-0.32118 0.06493,-0.6065 0.19476,-0.85593c0.13325,-0.25286 0.31435,-0.45103 0.54329,-0.59454c0.22892,-0.14692 0.48861,-0.22038 0.77906,-0.22038c0.15717,0 0.31096,0.02562 0.46128,0.07689c0.15034,0.05125 0.28361,0.12131 0.39978,0.21014c0.11961,0.08543 0.21185,0.1811 0.27678,0.28702c0.06834,0.10252 0.10252,0.20674 0.10252,0.31265l-0.18452,0.01539v-2.15265h0.63042v4.53085h-0.63042v-0.76369h0.12301c0,0.09567 -0.03246,0.19305 -0.09739,0.29215c-0.06493,0.09567 -0.15206,0.18452 -0.26139,0.26653c-0.10592,0.07858 -0.23064,0.14351 -0.37415,0.19476c-0.1401,0.04784 -0.28361,0.07174 -0.43053,0.07174zM125.08084,177.33244c0.19135,0 0.36047,-0.04955 0.5074,-0.14864c0.14692,-0.09909 0.26139,-0.23235 0.3434,-0.39978c0.08543,-0.17084 0.12814,-0.36391 0.12814,-0.57917c0,-0.21527 -0.04271,-0.40661 -0.12814,-0.57404c-0.082,-0.17084 -0.19648,-0.30581 -0.3434,-0.40491c-0.14692,-0.09909 -0.31605,-0.14864 -0.5074,-0.14864c-0.19135,0 -0.36047,0.04955 -0.5074,0.14864c-0.14692,0.09909 -0.2631,0.23405 -0.34853,0.40491c-0.082,0.16743 -0.12301,0.35878 -0.12301,0.57404c0,0.21527 0.04101,0.40831 0.12301,0.57917c0.08543,0.16743 0.20161,0.3007 0.34853,0.39978c0.14692,0.09909 0.31605,0.14864 0.5074,0.14864zM129.24942,179.1622v-4.5616h0.63555v0.73292l-0.09739,-0.05125c0.02392,-0.12301 0.09226,-0.2409 0.20502,-0.35366c0.11616,-0.11276 0.25627,-0.20502 0.42027,-0.27678c0.16743,-0.07174 0.33827,-0.10763 0.51253,-0.10763c0.29043,0 0.54671,0.07174 0.7688,0.21527c0.22553,0.14351 0.4032,0.33999 0.53303,0.58943c0.13325,0.24944 0.19989,0.53475 0.19989,0.85593c0,0.31777 -0.06493,0.60309 -0.19476,0.85593c-0.12984,0.24944 -0.30752,0.44762 -0.53303,0.59454c-0.22209,0.14351 -0.47324,0.21527 -0.75343,0.21527c-0.18793,0 -0.37073,-0.03758 -0.54842,-0.11276c-0.17426,-0.07519 -0.3229,-0.17256 -0.4459,-0.29215c-0.12301,-0.11961 -0.19818,-0.24262 -0.22553,-0.36902l0.15888,-0.082v2.14754zM130.83827,177.2863c0.18793,0 0.35536,-0.04612 0.5023,-0.1384c0.14692,-0.09567 0.2631,-0.22381 0.34853,-0.38439c0.08543,-0.16401 0.12814,-0.35023 0.12814,-0.55867c0,-0.20844 -0.04271,-0.39295 -0.12814,-0.55354c-0.082,-0.1606 -0.19648,-0.28702 -0.3434,-0.37928c-0.14351,-0.09567 -0.31265,-0.14351 -0.5074,-0.14351c-0.19135,0 -0.36047,0.04612 -0.5074,0.1384c-0.14692,0.09226 -0.2631,0.22038 -0.34853,0.38439c-0.08543,0.1606 -0.12814,0.34512 -0.12814,0.55354c0,0.20844 0.04271,0.39465 0.12814,0.55867c0.08543,0.1606 0.20161,0.28874 0.34853,0.38439c0.14692,0.09226 0.31605,0.1384 0.5074,0.1384zM134.34616,177.87574c-0.2631,0 -0.504,-0.07347 -0.72268,-0.22038c-0.21868,-0.14692 -0.39465,-0.34682 -0.52792,-0.59966c-0.12984,-0.25286 -0.19476,-0.53818 -0.19476,-0.85593c0,-0.3246 0.06664,-0.61162 0.19989,-0.86106c0.13325,-0.24944 0.31265,-0.4459 0.53818,-0.58943c0.22892,-0.14351 0.4835,-0.21527 0.76369,-0.21527c0.16743,0 0.31948,0.02562 0.45617,0.07689c0.1401,0.04784 0.26139,0.11616 0.36391,0.20502c0.10592,0.08543 0.19135,0.18622 0.25627,0.30239c0.06834,0.11276 0.11105,0.23405 0.12814,0.36391l-0.1384,-0.04612v-0.83544h0.63555v3.21362h-0.63555v-0.76369l0.14351,-0.04612c-0.02392,0.11276 -0.07347,0.22209 -0.14864,0.32803c-0.07519,0.10252 -0.17084,0.19476 -0.28702,0.27678c-0.11616,0.07858 -0.24431,0.14351 -0.38439,0.19476c-0.1401,0.04784 -0.28874,0.07174 -0.4459,0.07174zM134.51016,177.29657c0.19476,0 0.36391,-0.04612 0.5074,-0.1384c0.14692,-0.09567 0.26139,-0.22553 0.3434,-0.38952c0.08543,-0.16743 0.12814,-0.35708 0.12814,-0.56891c0,-0.20844 -0.04271,-0.39465 -0.12814,-0.55867c-0.082,-0.16401 -0.19648,-0.29215 -0.3434,-0.38439c-0.14351,-0.09567 -0.31265,-0.14351 -0.5074,-0.14351c-0.18793,0 -0.35366,0.04784 -0.49717,0.14351c-0.14351,0.09226 -0.25799,0.22038 -0.3434,0.38439c-0.082,0.16401 -0.12301,0.35023 -0.12301,0.55867c0,0.21185 0.04101,0.40148 0.12301,0.56891c0.08543,0.16401 0.19989,0.29387 0.3434,0.38952c0.14351,0.09226 0.30924,0.1384 0.49717,0.1384zM136.9847,177.81423v-3.21362h0.63555v1.0097l-0.06151,-0.24601c0.04442,-0.15377 0.12131,-0.29387 0.23064,-0.42027c0.10935,-0.12642 0.23405,-0.22553 0.37415,-0.29726c0.1401,-0.07519 0.2853,-0.11276 0.43566,-0.11276c0.06834,0 0.13325,0.00683 0.19476,0.0205c0.06493,0.01024 0.11616,0.02392 0.15377,0.04101l-0.16401,0.6868c-0.04784,-0.0205 -0.10252,-0.03758 -0.16401,-0.05125c-0.0581,-0.01709 -0.11616,-0.02562 -0.17426,-0.02562c-0.10935,0 -0.21357,0.02222 -0.31265,0.06664c-0.09909,0.04101 -0.18793,0.1008 -0.26653,0.17939c-0.07519,0.07519 -0.13497,0.16232 -0.17939,0.26139c-0.04442,0.09909 -0.06664,0.20844 -0.06664,0.32803v1.77339zM139.9732,177.81423v-4.03368h0.63042v4.03368zM139.30175,175.21565v-0.61505h2.04502v0.61505zM142.46155,179.22371l0.65093,-1.50174l0.00513,0.5023l-1.60423,-3.62363h0.73292l1.00457,2.36281c0.0205,0.04101 0.04442,0.10422 0.07174,0.18965c0.03075,0.082 0.05638,0.16401 0.07689,0.24601l-0.15888,0.03588c0.03075,-0.08543 0.06151,-0.17084 0.09226,-0.25627c0.03075,-0.08543 0.0598,-0.17084 0.08713,-0.25627l0.84057,-2.3218h0.74832l-1.32236,3.21362l-0.54329,1.40949z" stroke-linecap="square"/><path d="M148.93376,177.7609c-0.2631,0 -0.504,-0.07347 -0.72268,-0.22038c-0.21868,-0.14692 -0.39465,-0.34682 -0.52792,-0.59966c-0.12984,-0.25286 -0.19476,-0.53818 -0.19476,-0.85593c0,-0.3246 0.06664,-0.61162 0.19989,-0.86106c0.13325,-0.24944 0.31265,-0.4459 0.53818,-0.58943c0.22892,-0.14351 0.4835,-0.21527 0.76369,-0.21527c0.16743,0 0.31948,0.02562 0.45617,0.07689c0.1401,0.04784 0.26139,0.11616 0.36391,0.20502c0.10592,0.08543 0.19135,0.18622 0.25627,0.30239c0.06834,0.11276 0.11105,0.23405 0.12814,0.36391l-0.1384,-0.04612v-0.83544h0.63555v3.21362h-0.63555v-0.76369l0.14351,-0.04612c-0.02392,0.11276 -0.07347,0.22209 -0.14864,0.32803c-0.07519,0.10252 -0.17084,0.19476 -0.28702,0.27678c-0.11616,0.07858 -0.24431,0.14351 -0.38439,0.19476c-0.1401,0.04784 -0.28874,0.07174 -0.4459,0.07174zM149.09777,177.18175c0.19476,0 0.36391,-0.04612 0.5074,-0.1384c0.14692,-0.09567 0.26139,-0.22553 0.3434,-0.38952c0.08543,-0.16743 0.12814,-0.35708 0.12814,-0.56891c0,-0.20844 -0.04271,-0.39465 -0.12814,-0.55867c-0.082,-0.16401 -0.19648,-0.29215 -0.3434,-0.38439c-0.14351,-0.09567 -0.31265,-0.14351 -0.5074,-0.14351c-0.18793,0 -0.35366,0.04784 -0.49717,0.14351c-0.14351,0.09226 -0.25799,0.22038 -0.3434,0.38439c-0.082,0.16401 -0.12301,0.35023 -0.12301,0.55867c0,0.21185 0.04101,0.40148 0.12301,0.56891c0.08543,0.16401 0.19989,0.29387 0.3434,0.38952c0.14351,0.09226 0.30924,0.1384 0.49717,0.1384zM151.57229,179.04738v-4.5616h0.63555v0.73292l-0.09739,-0.05125c0.02392,-0.12301 0.09226,-0.2409 0.20502,-0.35366c0.11616,-0.11276 0.25627,-0.20502 0.42027,-0.27678c0.16743,-0.07174 0.33827,-0.10763 0.51253,-0.10763c0.29043,0 0.54671,0.07174 0.7688,0.21527c0.22553,0.14351 0.4032,0.33999 0.53303,0.58943c0.13325,0.24944 0.19989,0.53475 0.19989,0.85593c0,0.31777 -0.06493,0.60309 -0.19476,0.85593c-0.12984,0.24944 -0.30752,0.44762 -0.53303,0.59454c-0.22209,0.14351 -0.47324,0.21527 -0.75343,0.21527c-0.18793,0 -0.37073,-0.03758 -0.54842,-0.11276c-0.17426,-0.07519 -0.3229,-0.17256 -0.4459,-0.29215c-0.12301,-0.11961 -0.19818,-0.24262 -0.22553,-0.36902l0.15888,-0.082v2.14754zM153.16117,177.17149c0.18793,0 0.35536,-0.04612 0.5023,-0.1384c0.14692,-0.09567 0.2631,-0.22381 0.34853,-0.38439c0.08543,-0.16401 0.12814,-0.35023 0.12814,-0.55867c0,-0.20844 -0.04271,-0.39295 -0.12814,-0.55354c-0.082,-0.1606 -0.19648,-0.28702 -0.3434,-0.37928c-0.14351,-0.09567 -0.31265,-0.14351 -0.5074,-0.14351c-0.19135,0 -0.36047,0.04612 -0.5074,0.1384c-0.14692,0.09226 -0.2631,0.22038 -0.34853,0.38439c-0.08543,0.1606 -0.12814,0.34512 -0.12814,0.55354c0,0.20844 0.04271,0.39465 0.12814,0.55867c0.08543,0.1606 0.20161,0.28874 0.34853,0.38439c0.14692,0.09226 0.31605,0.1384 0.5074,0.1384zM155.43383,179.04738v-4.5616h0.63555v0.73292l-0.09739,-0.05125c0.02392,-0.12301 0.09226,-0.2409 0.20502,-0.35366c0.11616,-0.11276 0.25627,-0.20502 0.42027,-0.27678c0.16743,-0.07174 0.33827,-0.10763 0.51253,-0.10763c0.29043,0 0.54671,0.07174 0.7688,0.21527c0.22553,0.14351 0.4032,0.33999 0.53303,0.58943c0.13325,0.24944 0.19989,0.53475 0.19989,0.85593c0,0.31777 -0.06493,0.60309 -0.19476,0.85593c-0.12984,0.24944 -0.30752,0.44762 -0.53303,0.59454c-0.22209,0.14351 -0.47324,0.21527 -0.75343,0.21527c-0.18793,0 -0.37073,-0.03758 -0.54842,-0.11276c-0.17426,-0.07519 -0.3229,-0.17256 -0.4459,-0.29215c-0.12301,-0.11961 -0.19818,-0.24262 -0.22553,-0.36902l0.15888,-0.082v2.14754zM157.02271,177.17149c0.18793,0 0.35536,-0.04612 0.5023,-0.1384c0.14692,-0.09567 0.2631,-0.22381 0.34853,-0.38439c0.08543,-0.16401 0.12814,-0.35023 0.12814,-0.55867c0,-0.20844 -0.04271,-0.39295 -0.12814,-0.55354c-0.082,-0.1606 -0.19648,-0.28702 -0.3434,-0.37928c-0.14351,-0.09567 -0.31265,-0.14351 -0.5074,-0.14351c-0.19135,0 -0.36047,0.04612 -0.5074,0.1384c-0.14692,0.09226 -0.2631,0.22038 -0.34853,0.38439c-0.08543,0.1606 -0.12814,0.34512 -0.12814,0.55354c0,0.20844 0.04271,0.39465 0.12814,0.55867c0.08543,0.1606 0.20161,0.28874 0.34853,0.38439c0.14692,0.09226 0.31605,0.1384 0.5074,0.1384zM160.36658,177.7609c-0.26993,0 -0.51253,-0.04612 -0.72781,-0.1384c-0.21527,-0.09567 -0.39465,-0.23577 -0.53818,-0.42027l0.4254,-0.36391c0.12301,0.1401 0.25627,0.24262 0.39978,0.30752c0.14692,0.06151 0.31265,0.09226 0.49717,0.09226c0.07174,0 0.1384,-0.00854 0.19989,-0.02562c0.06493,-0.01709 0.12131,-0.04442 0.16913,-0.082c0.04784,-0.03758 0.08371,-0.082 0.10763,-0.13325c0.02392,-0.05125 0.03588,-0.10763 0.03588,-0.16913c0,-0.10592 -0.03929,-0.19135 -0.11789,-0.25627c-0.04101,-0.02733 -0.10592,-0.0581 -0.19476,-0.09226c-0.08543,-0.03418 -0.19818,-0.07004 -0.33827,-0.10763c-0.23577,-0.06151 -0.42881,-0.12984 -0.57917,-0.20502c-0.15034,-0.07858 -0.26653,-0.16743 -0.34853,-0.26653c-0.06151,-0.07858 -0.10763,-0.16232 -0.1384,-0.25114c-0.02733,-0.09226 -0.04101,-0.19476 -0.04101,-0.30752c0,-0.13325 0.02903,-0.25627 0.08713,-0.36902c0.06151,-0.11276 0.14351,-0.21014 0.24601,-0.29215c0.10592,-0.08543 0.22892,-0.15034 0.36902,-0.19476c0.1401,-0.04442 0.29043,-0.06664 0.45103,-0.06664c0.15034,0 0.29898,0.0205 0.4459,0.06151c0.15034,0.04101 0.28874,0.1008 0.41516,0.17939c0.12642,0.07519 0.23235,0.16573 0.31777,0.27165l-0.35878,0.39978c-0.07858,-0.07858 -0.16401,-0.14692 -0.25627,-0.20502c-0.09226,-0.0581 -0.18622,-0.10252 -0.28189,-0.13325c-0.09226,-0.03418 -0.17596,-0.05125 -0.25114,-0.05125c-0.08543,0 -0.16401,0.00854 -0.23577,0.02562c-0.06834,0.01368 -0.12642,0.03758 -0.17426,0.07174c-0.04442,0.03075 -0.0803,0.07174 -0.10763,0.12301c-0.02392,0.04784 -0.03588,0.10252 -0.03588,0.16401c0.00341,0.05125 0.01709,0.1008 0.04101,0.14864c0.02392,0.04784 0.05638,0.08713 0.09739,0.11789c0.04442,0.03418 0.11105,0.07004 0.19989,0.10763c0.08883,0.03418 0.20331,0.06834 0.3434,0.10252c0.20161,0.05125 0.36902,0.10935 0.5023,0.17426c0.13325,0.06151 0.23918,0.13325 0.31777,0.21527c0.082,0.07858 0.1384,0.16913 0.16913,0.27165c0.03418,0.10252 0.05125,0.21696 0.05125,0.3434c0,0.1811 -0.05297,0.34512 -0.15888,0.49204c-0.10252,0.14351 -0.24262,0.25627 -0.42027,0.33827c-0.17426,0.082 -0.36902,0.12301 -0.5843,0.12301z" stroke-linecap="square"/></g></g></svg>