<svg version="1.1" xmlns="http://www.w3.org/2000/svg" xmlns:xlink="http://www.w3.org/1999/xlink" width="40.03724" height="13.4375" viewBox="0,0,40.03724,13.4375"><g transform="translate(-219.98138,-173.28125)"><g data-paper-data="{&quot;isPaintingLayer&quot;:true}" fill="#ffffff" fill-rule="nonzero" stroke="none" stroke-width="1" stroke-linecap="square" stroke-linejoin="miter" stroke-miterlimit="10" stroke-dasharray="" stroke-dashoffset="0" style="mix-blend-mode: normal"><path d="M220.76263,186.53125l-0.60937,-1.53125l3.98438,-4.5c0.20834,-0.21875 0.42709,-0.47396 0.65625,-0.76562c0.23959,-0.29166 0.46354,-0.59375 0.67188,-0.90625c0.20834,-0.3125 0.375,-0.61979 0.5,-0.92187c0.13541,-0.30209 0.20313,-0.59375 0.20313,-0.875c0,-0.39584 -0.07812,-0.73437 -0.23437,-1.01562c-0.15625,-0.28125 -0.38021,-0.49479 -0.67187,-0.64062c-0.29166,-0.14584 -0.64062,-0.21875 -1.04687,-0.21875c-0.36459,0 -0.72396,0.10416 -1.07812,0.3125c-0.34375,0.20834 -0.65625,0.50521 -0.9375,0.89063c-0.28125,0.38541 -0.50521,0.83334 -0.67187,1.34375l-1.54687,-0.96875c0.20834,-0.71875 0.52604,-1.33334 0.95313,-1.84375c0.4375,-0.52084 0.95313,-0.91666 1.54688,-1.1875c0.60416,-0.28125 1.26041,-0.42187 1.96875,-0.42187c0.73959,0 1.39584,0.15625 1.96875,0.46875c0.57291,0.30209 1.02084,0.72396 1.34375,1.26563c0.32291,0.54166 0.48438,1.16666 0.48438,1.875c0,0.28125 -0.03125,0.57291 -0.09375,0.875c-0.0625,0.29166 -0.16146,0.59896 -0.29687,0.92188c-0.13541,0.3125 -0.3125,0.64063 -0.53125,0.98438c-0.20834,0.34375 -0.45834,0.70313 -0.75,1.07813c-0.29166,0.375 -0.625,0.76563 -1,1.17188l-2.96875,3.23438l-0.375,-0.5625h6.42188v1.9375zM234.90814,186.71875c-1,0 -1.85937,-0.27084 -2.57812,-0.8125c-0.70834,-0.55209 -1.25521,-1.32812 -1.64062,-2.32812c-0.38541,-1 -0.57812,-2.19271 -0.57812,-3.57812c0,-1.375 0.19271,-2.5625 0.57813,-3.5625c0.38541,-1.01041 0.93229,-1.78646 1.64063,-2.32812c0.71875,-0.55209 1.57813,-0.82812 2.57813,-0.82812c0.98959,0 1.84375,0.27604 2.5625,0.82813c0.72916,0.54166 1.28646,1.31771 1.67188,2.32813c0.38541,1 0.57813,2.1875 0.57813,3.5625c0,1.38541 -0.19271,2.57813 -0.57812,3.57813c-0.38541,1 -0.94271,1.77604 -1.67187,2.32813c-0.71875,0.54166 -1.57291,0.8125 -2.5625,0.8125zM234.90814,184.89063c0.90625,0 1.60416,-0.42709 2.09375,-1.28125c0.5,-0.85416 0.75,-2.05729 0.75,-3.60937c0,-1.55209 -0.25,-2.75521 -0.75,-3.60937c-0.48959,-0.85416 -1.1875,-1.28125 -2.09375,-1.28125c-0.90625,0 -1.60937,0.42709 -2.10937,1.28125c-0.5,0.85416 -0.75,2.05729 -0.75,3.60938c0,1.55209 0.25,2.75521 0.75,3.60938c0.5,0.85416 1.20313,1.28125 2.10938,1.28125zM242.31061,186.53125l-0.60937,-1.53125l3.98438,-4.5c0.20834,-0.21875 0.42709,-0.47396 0.65625,-0.76562c0.23959,-0.29166 0.46354,-0.59375 0.67188,-0.90625c0.20834,-0.3125 0.375,-0.61979 0.5,-0.92187c0.13541,-0.30209 0.20313,-0.59375 0.20313,-0.875c0,-0.39584 -0.07812,-0.73437 -0.23437,-1.01562c-0.15625,-0.28125 -0.38021,-0.49479 -0.67187,-0.64062c-0.29166,-0.14584 -0.64062,-0.21875 -1.04687,-0.21875c-0.36459,0 -0.72396,0.10416 -1.07812,0.3125c-0.34375,0.20834 -0.65625,0.50521 -0.9375,0.89063c-0.28125,0.38541 -0.50521,0.83334 -0.67187,1.34375l-1.54687,-0.96875c0.20834,-0.71875 0.52604,-1.33334 0.95313,-1.84375c0.4375,-0.52084 0.95313,-0.91666 1.54688,-1.1875c0.60416,-0.28125 1.26041,-0.42187 1.96875,-0.42187c0.73959,0 1.39584,0.15625 1.96875,0.46875c0.57292,0.30209 1.02084,0.72396 1.34375,1.26563c0.32292,0.54166 0.48438,1.16666 0.48438,1.875c0,0.28125 -0.03125,0.57291 -0.09375,0.875c-0.0625,0.29166 -0.16146,0.59896 -0.29687,0.92188c-0.13541,0.3125 -0.3125,0.64063 -0.53125,0.98438c-0.20834,0.34375 -0.45833,0.70313 -0.75,1.07813c-0.29166,0.375 -0.625,0.76563 -1,1.17188l-2.96875,3.23438l-0.375,-0.5625h6.42188v1.9375zM255.48737,186.71875c-0.92708,0 -1.72916,-0.20834 -2.40625,-0.625c-0.67709,-0.42709 -1.3125,-1.14062 -1.90625,-2.14062l1.5625,-0.98437c0.3125,0.45834 0.61979,0.83334 0.92188,1.125c0.3125,0.29166 0.63021,0.51041 0.95313,0.65625c0.32292,0.13541 0.66146,0.20313 1.01563,0.20313c0.4375,0 0.84375,-0.10937 1.21875,-0.32812c0.375,-0.21875 0.67188,-0.52084 0.89063,-0.90625c0.22917,-0.38541 0.34375,-0.82291 0.34375,-1.3125c0,-0.47916 -0.08854,-0.89062 -0.26562,-1.23437c-0.17708,-0.34375 -0.43229,-0.60416 -0.76562,-0.78125c-0.33333,-0.1875 -0.72917,-0.28125 -1.1875,-0.28125c-0.21875,0 -0.44271,0.02604 -0.67187,0.07813c-0.22917,0.04166 -0.47396,0.10416 -0.73437,0.1875c-0.26042,0.07291 -0.54687,0.17188 -0.85937,0.29688l-0.5625,-1.46875l4.03125,-4.4375l0.39063,0.57813h-5.5625v-1.875h7.48438l0.375,0.75l-4.26562,4.73438l-0.46875,-0.48437c0.09375,-0.05209 0.25521,-0.09896 0.48438,-0.14062c0.23958,-0.04166 0.43229,-0.0625 0.57813,-0.0625c0.54167,0 1.05208,0.10416 1.53125,0.3125c0.47917,0.19791 0.89583,0.48438 1.25,0.85938c0.35417,0.36459 0.63542,0.79166 0.84375,1.28125c0.20833,0.48959 0.3125,1.01563 0.3125,1.57813c0,0.84375 -0.20312,1.59896 -0.60937,2.26563c-0.40625,0.66666 -0.95312,1.19271 -1.64062,1.57813c-0.67708,0.38541 -1.4375,0.57813 -2.28125,0.57813z"/></g></g></svg>