<svg version="1.1" xmlns="http://www.w3.org/2000/svg" xmlns:xlink="http://www.w3.org/1999/xlink" width="561.33383" height="342.42093" viewBox="0,0,561.33383,342.42093"><g transform="translate(178.15223,65.71391)"><g data-paper-data="{&quot;isPaintingLayer&quot;:true}" stroke="none" stroke-width="1" stroke-linejoin="miter" stroke-miterlimit="10" stroke-dasharray="" stroke-dashoffset="0" style="mix-blend-mode: normal"><path d="M99.74221,95.24792c0,-6.60253 5.35241,-11.95493 11.95493,-11.95493h256.60572c3.17065,0 6.21144,1.25953 8.45341,3.50151c2.24199,2.24198 3.50152,5.28276 3.50152,8.45341v169.50418c0,6.60253 -5.3524,11.95493 -11.95493,11.95493h-256.60572c-6.60252,0 -11.95493,-5.3524 -11.95493,-11.95493z" fill="#323232" fill-rule="evenodd" stroke-linecap="square"/><path d="M-152.38058,-65.71391h218.11023v42.01575h-218.11023z" fill-opacity="0" fill="#000000" fill-rule="evenodd" stroke-linecap="square"/><path d="M112.44755,104.24627v-10.26339h4.37054c0.5811,0 1.11719,0.14732 1.60826,0.44196c0.49925,0.28646 0.89621,0.67522 1.19085,1.16629c0.29464,0.49107 0.44196,1.04353 0.44196,1.65737c0,0.56473 -0.14732,1.08854 -0.44196,1.57143c-0.29464,0.4747 -0.6875,0.85528 -1.17857,1.14174c-0.48289,0.28646 -1.02307,0.42969 -1.62054,0.42969h-2.78683v3.85491zM118.54911,104.24627l-2.61496,-4.62835l1.63281,-0.3683l2.89732,5.00893zM114.03126,98.86904h2.93415c0.27827,0 0.5279,-0.06957 0.74888,-0.20871c0.22917,-0.14732 0.40513,-0.34375 0.5279,-0.58929c0.13095,-0.25372 0.19643,-0.532 0.19643,-0.83482c0,-0.34375 -0.08184,-0.64249 -0.24554,-0.89621c-0.1555,-0.26191 -0.37649,-0.46652 -0.66295,-0.61384c-0.28646,-0.14732 -0.61384,-0.22098 -0.98214,-0.22098h-2.51674zM125.5461,104.39359c-0.78571,0 -1.48549,-0.16778 -2.09933,-0.50335c-0.60566,-0.33557 -1.08445,-0.79799 -1.43638,-1.38728c-0.34375,-0.58929 -0.51563,-1.26451 -0.51563,-2.02567c0,-0.60566 0.09821,-1.15811 0.29464,-1.65737c0.19643,-0.49925 0.46652,-0.92894 0.81027,-1.28906c0.34375,-0.3683 0.75707,-0.65067 1.23996,-0.8471c0.49107,-0.20461 1.01897,-0.30692 1.58371,-0.30692c0.49925,0 0.96168,0.09412 1.38728,0.28237c0.43378,0.18825 0.80617,0.45015 1.11719,0.78571c0.3192,0.33557 0.56473,0.73251 0.73661,1.19085c0.17187,0.45015 0.25372,0.94122 0.24554,1.47321l-0.01228,0.65067h-6.28571l-0.34375,-1.20312h5.31585l-0.20871,0.24554v-0.34375c-0.03274,-0.32738 -0.14323,-0.61793 -0.33147,-0.87165c-0.18006,-0.25372 -0.41332,-0.45424 -0.69978,-0.60156c-0.28646,-0.14732 -0.59338,-0.22098 -0.92076,-0.22098c-0.532,0 -0.97805,0.10231 -1.33817,0.30692c-0.36012,0.19643 -0.6343,0.49107 -0.82254,0.88393c-0.18006,0.38467 -0.27009,0.85937 -0.27009,1.42411c0,0.532 0.11049,0.99851 0.33147,1.39955c0.22098,0.39286 0.53608,0.69978 0.94531,0.92076c0.41741,0.2128 0.89211,0.3192 1.42411,0.3192c0.38467,0 0.7407,-0.06138 1.06808,-0.18415c0.32738,-0.13095 0.68341,-0.36421 1.06808,-0.69978l0.76116,1.06808c-0.23735,0.23735 -0.52381,0.44606 -0.85937,0.62612c-0.33557,0.17188 -0.69159,0.31101 -1.06808,0.41741c-0.37649,0.09821 -0.74888,0.14732 -1.11719,0.14732zM133.11701,104.39359c-0.64658,0 -1.22768,-0.11049 -1.7433,-0.33147c-0.51562,-0.22917 -0.94531,-0.56473 -1.28906,-1.0067l1.01897,-0.87165c0.29464,0.33557 0.61384,0.5811 0.95759,0.73661c0.35193,0.14732 0.74888,0.22098 1.19085,0.22098c0.17188,0 0.33147,-0.02046 0.47879,-0.06138c0.1555,-0.04092 0.29055,-0.1064 0.40513,-0.19643c0.11458,-0.09003 0.20052,-0.19643 0.25781,-0.3192c0.05729,-0.12277 0.08594,-0.25781 0.08594,-0.40513c0,-0.25372 -0.09412,-0.45833 -0.28237,-0.61384c-0.09821,-0.06548 -0.25372,-0.13914 -0.46652,-0.22098c-0.20461,-0.08184 -0.4747,-0.16778 -0.81027,-0.25781c-0.56473,-0.14732 -1.02716,-0.31101 -1.38728,-0.49107c-0.36012,-0.18825 -0.63839,-0.40104 -0.83482,-0.63839c-0.14732,-0.18825 -0.25781,-0.38876 -0.33147,-0.60156c-0.06548,-0.22098 -0.09821,-0.46652 -0.09821,-0.73661c0,-0.3192 0.06957,-0.61384 0.20871,-0.88393c0.14732,-0.27009 0.34375,-0.50335 0.58929,-0.69978c0.25372,-0.20461 0.54836,-0.36012 0.88393,-0.46652c0.33557,-0.1064 0.69568,-0.1596 1.08036,-0.1596c0.36012,0 0.71615,0.04911 1.06808,0.14732c0.36012,0.09821 0.69159,0.24144 0.99442,0.42969c0.30283,0.18006 0.55654,0.39695 0.76115,0.65067l-0.85937,0.95759c-0.18825,-0.18825 -0.39286,-0.35193 -0.61384,-0.49107c-0.22098,-0.13914 -0.44606,-0.24554 -0.67522,-0.3192c-0.22098,-0.08184 -0.4215,-0.12277 -0.60156,-0.12277c-0.20461,0 -0.39286,0.02046 -0.56473,0.06138c-0.16369,0.03274 -0.30283,0.09003 -0.41741,0.17187c-0.1064,0.07366 -0.19233,0.17188 -0.25781,0.29464c-0.05729,0.11458 -0.08594,0.24554 -0.08594,0.39286c0.00818,0.12277 0.04092,0.24144 0.09821,0.35603c0.05729,0.11458 0.13504,0.20871 0.23326,0.28237c0.1064,0.08184 0.266,0.16778 0.47879,0.25781c0.2128,0.08184 0.48698,0.16369 0.82254,0.24554c0.48289,0.12277 0.88393,0.26191 1.20313,0.41741c0.3192,0.14732 0.57292,0.3192 0.76116,0.51562c0.19642,0.18825 0.33147,0.40513 0.40513,0.65067c0.08184,0.24554 0.12277,0.51972 0.12277,0.82254c0,0.43378 -0.12686,0.82664 -0.38057,1.17857c-0.24554,0.34375 -0.5811,0.61384 -1.0067,0.81027c-0.41741,0.19643 -0.88393,0.29464 -1.39955,0.29464zM141.15738,104.39359c-0.78571,0 -1.48549,-0.16778 -2.09933,-0.50335c-0.60566,-0.33557 -1.08445,-0.79799 -1.43638,-1.38728c-0.34375,-0.58929 -0.51562,-1.26451 -0.51562,-2.02567c0,-0.60566 0.09821,-1.15811 0.29464,-1.65737c0.19643,-0.49925 0.46652,-0.92894 0.81027,-1.28906c0.34375,-0.3683 0.75707,-0.65067 1.23996,-0.8471c0.49107,-0.20461 1.01897,-0.30692 1.58371,-0.30692c0.49925,0 0.96168,0.09412 1.38728,0.28237c0.43378,0.18825 0.80617,0.45015 1.11719,0.78571c0.3192,0.33557 0.56473,0.73251 0.73661,1.19085c0.17187,0.45015 0.25372,0.94122 0.24554,1.47321l-0.01228,0.65067h-6.28571l-0.34375,-1.20312h5.31585l-0.20871,0.24554v-0.34375c-0.03274,-0.32738 -0.14323,-0.61793 -0.33147,-0.87165c-0.18006,-0.25372 -0.41332,-0.45424 -0.69978,-0.60156c-0.28646,-0.14732 -0.59338,-0.22098 -0.92076,-0.22098c-0.532,0 -0.97805,0.10231 -1.33817,0.30692c-0.36012,0.19643 -0.6343,0.49107 -0.82254,0.88393c-0.18006,0.38467 -0.27009,0.85937 -0.27009,1.42411c0,0.532 0.11049,0.99851 0.33147,1.39955c0.22098,0.39286 0.53609,0.69978 0.94531,0.92076c0.41741,0.2128 0.89211,0.3192 1.42411,0.3192c0.38467,0 0.7407,-0.06138 1.06808,-0.18415c0.32738,-0.13095 0.68341,-0.36421 1.06808,-0.69978l0.76116,1.06808c-0.23735,0.23735 -0.52381,0.44606 -0.85937,0.62612c-0.33557,0.17188 -0.69159,0.31101 -1.06808,0.41741c-0.37649,0.09821 -0.74888,0.14732 -1.11719,0.14732zM147.12003,104.24627v-9.66183h1.51004v9.66183zM145.51177,98.02194v-1.47321h4.89844v1.47321zM156.27626,104.24627v-10.26339h4.17411c0.55655,0 1.0599,0.13914 1.51004,0.41741c0.45833,0.27827 0.82254,0.65885 1.09263,1.14174c0.27827,0.4747 0.41741,1.0067 0.41741,1.59598c0,0.58929 -0.13914,1.12537 -0.41741,1.60826c-0.27009,0.4747 -0.6343,0.85528 -1.09263,1.14174c-0.45015,0.28646 -0.9535,0.42969 -1.51004,0.42969h-2.5904v3.92857zM157.85996,98.79538h2.56585c0.26191,0 0.49925,-0.07366 0.71205,-0.22098c0.22098,-0.1555 0.39695,-0.35603 0.5279,-0.60156c0.13095,-0.25372 0.19643,-0.532 0.19643,-0.83482c0,-0.30283 -0.06548,-0.57701 -0.19643,-0.82254c-0.13095,-0.24554 -0.30692,-0.44196 -0.5279,-0.58929c-0.2128,-0.14732 -0.45015,-0.22098 -0.71205,-0.22098h-2.56585zM168.0012,104.39359c-0.63021,0 -1.20722,-0.17597 -1.73103,-0.5279c-0.52381,-0.35193 -0.94531,-0.83073 -1.26451,-1.43638c-0.31101,-0.60566 -0.46652,-1.28906 -0.46652,-2.05022c0,-0.77753 0.1596,-1.46503 0.47879,-2.0625c0.3192,-0.59747 0.74888,-1.06808 1.28906,-1.41183c0.54836,-0.34375 1.15811,-0.51563 1.82924,-0.51563c0.40104,0 0.76525,0.06138 1.09263,0.18415c0.33557,0.11458 0.62612,0.27827 0.87165,0.49107c0.25372,0.20461 0.45833,0.44606 0.61384,0.72433c0.16369,0.27009 0.266,0.56064 0.30692,0.87165l-0.33147,-0.11049v-2.00112h1.52232v7.69754h-1.52232v-1.82924l0.34375,-0.11049c-0.05729,0.27009 -0.17597,0.532 -0.35603,0.78571c-0.18006,0.24554 -0.40923,0.46652 -0.6875,0.66295c-0.27827,0.18825 -0.58519,0.34375 -0.92076,0.46652c-0.33557,0.11458 -0.69159,0.17187 -1.06808,0.17187zM168.39405,103.00631c0.46652,0 0.87165,-0.11049 1.2154,-0.33147c0.35193,-0.22917 0.62612,-0.54018 0.82254,-0.93304c0.20461,-0.40104 0.30692,-0.85528 0.30692,-1.36272c0,-0.49925 -0.10231,-0.94531 -0.30692,-1.33817c-0.19643,-0.39286 -0.47061,-0.69978 -0.82254,-0.92076c-0.34375,-0.22917 -0.74888,-0.34375 -1.2154,-0.34375c-0.45015,0 -0.8471,0.11458 -1.19085,0.34375c-0.34375,0.22098 -0.61793,0.5279 -0.82254,0.92076c-0.19643,0.39286 -0.29464,0.83892 -0.29464,1.33817c0,0.50744 0.09821,0.96168 0.29464,1.36272c0.20461,0.39286 0.47879,0.70387 0.82254,0.93304c0.34375,0.22098 0.7407,0.33147 1.19085,0.33147zM176.88716,104.39359c-0.64658,0 -1.22768,-0.11049 -1.7433,-0.33147c-0.51562,-0.22917 -0.94531,-0.56473 -1.28906,-1.0067l1.01897,-0.87165c0.29464,0.33557 0.61384,0.5811 0.95759,0.73661c0.35193,0.14732 0.74888,0.22098 1.19085,0.22098c0.17187,0 0.33147,-0.02046 0.47879,-0.06138c0.1555,-0.04092 0.29055,-0.1064 0.40513,-0.19643c0.11458,-0.09003 0.20052,-0.19643 0.25781,-0.3192c0.05729,-0.12277 0.08594,-0.25781 0.08594,-0.40513c0,-0.25372 -0.09412,-0.45833 -0.28237,-0.61384c-0.09821,-0.06548 -0.25372,-0.13914 -0.46652,-0.22098c-0.20461,-0.08184 -0.4747,-0.16778 -0.81027,-0.25781c-0.56473,-0.14732 -1.02716,-0.31101 -1.38728,-0.49107c-0.36012,-0.18825 -0.63839,-0.40104 -0.83482,-0.63839c-0.14732,-0.18825 -0.25781,-0.38876 -0.33147,-0.60156c-0.06548,-0.22098 -0.09821,-0.46652 -0.09821,-0.73661c0,-0.3192 0.06957,-0.61384 0.20871,-0.88393c0.14732,-0.27009 0.34375,-0.50335 0.58929,-0.69978c0.25372,-0.20461 0.54836,-0.36012 0.88393,-0.46652c0.33557,-0.1064 0.69568,-0.1596 1.08036,-0.1596c0.36012,0 0.71615,0.04911 1.06808,0.14732c0.36012,0.09821 0.69159,0.24144 0.99442,0.42969c0.30283,0.18006 0.55655,0.39695 0.76116,0.65067l-0.85938,0.95759c-0.18825,-0.18825 -0.39286,-0.35193 -0.61384,-0.49107c-0.22098,-0.13914 -0.44606,-0.24554 -0.67522,-0.3192c-0.22098,-0.08184 -0.4215,-0.12277 -0.60156,-0.12277c-0.20461,0 -0.39286,0.02046 -0.56473,0.06138c-0.16369,0.03274 -0.30283,0.09003 -0.41741,0.17187c-0.1064,0.07366 -0.19234,0.17188 -0.25781,0.29464c-0.05729,0.11458 -0.08594,0.24554 -0.08594,0.39286c0.00818,0.12277 0.04092,0.24144 0.09821,0.35603c0.05729,0.11458 0.13504,0.20871 0.23326,0.28237c0.1064,0.08184 0.266,0.16778 0.47879,0.25781c0.2128,0.08184 0.48698,0.16369 0.82254,0.24554c0.48289,0.12277 0.88393,0.26191 1.20312,0.41741c0.3192,0.14732 0.57292,0.3192 0.76116,0.51562c0.19643,0.18825 0.33147,0.40513 0.40513,0.65067c0.08184,0.24554 0.12277,0.51972 0.12277,0.82254c0,0.43378 -0.12686,0.82664 -0.38058,1.17857c-0.24554,0.34375 -0.5811,0.61384 -1.0067,0.81027c-0.41741,0.19643 -0.88393,0.29464 -1.39955,0.29464zM183.90857,104.39359c-0.64658,0 -1.22768,-0.11049 -1.7433,-0.33147c-0.51563,-0.22917 -0.94531,-0.56473 -1.28906,-1.0067l1.01897,-0.87165c0.29464,0.33557 0.61384,0.5811 0.95759,0.73661c0.35193,0.14732 0.74888,0.22098 1.19085,0.22098c0.17188,0 0.33147,-0.02046 0.47879,-0.06138c0.1555,-0.04092 0.29055,-0.1064 0.40513,-0.19643c0.11458,-0.09003 0.20052,-0.19643 0.25781,-0.3192c0.05729,-0.12277 0.08594,-0.25781 0.08594,-0.40513c0,-0.25372 -0.09412,-0.45833 -0.28237,-0.61384c-0.09821,-0.06548 -0.25372,-0.13914 -0.46652,-0.22098c-0.20461,-0.08184 -0.4747,-0.16778 -0.81027,-0.25781c-0.56473,-0.14732 -1.02716,-0.31101 -1.38728,-0.49107c-0.36012,-0.18825 -0.63839,-0.40104 -0.83482,-0.63839c-0.14732,-0.18825 -0.25781,-0.38876 -0.33147,-0.60156c-0.06548,-0.22098 -0.09821,-0.46652 -0.09821,-0.73661c0,-0.3192 0.06957,-0.61384 0.20871,-0.88393c0.14732,-0.27009 0.34375,-0.50335 0.58929,-0.69978c0.25372,-0.20461 0.54836,-0.36012 0.88393,-0.46652c0.33557,-0.1064 0.69568,-0.1596 1.08036,-0.1596c0.36012,0 0.71615,0.04911 1.06808,0.14732c0.36012,0.09821 0.69159,0.24144 0.99442,0.42969c0.30283,0.18006 0.55655,0.39695 0.76116,0.65067l-0.85937,0.95759c-0.18825,-0.18825 -0.39286,-0.35193 -0.61384,-0.49107c-0.22098,-0.13914 -0.44606,-0.24554 -0.67522,-0.3192c-0.22098,-0.08184 -0.4215,-0.12277 -0.60156,-0.12277c-0.20461,0 -0.39286,0.02046 -0.56473,0.06138c-0.16369,0.03274 -0.30283,0.09003 -0.41741,0.17187c-0.1064,0.07366 -0.19233,0.17188 -0.25781,0.29464c-0.05729,0.11458 -0.08594,0.24554 -0.08594,0.39286c0.00818,0.12277 0.04092,0.24144 0.09821,0.35603c0.05729,0.11458 0.13504,0.20871 0.23326,0.28237c0.1064,0.08184 0.266,0.16778 0.47879,0.25781c0.2128,0.08184 0.48698,0.16369 0.82254,0.24554c0.48289,0.12277 0.88393,0.26191 1.20313,0.41741c0.3192,0.14732 0.57292,0.3192 0.76116,0.51562c0.19643,0.18825 0.33147,0.40513 0.40513,0.65067c0.08184,0.24554 0.12277,0.51972 0.12277,0.82254c0,0.43378 -0.12686,0.82664 -0.38058,1.17857c-0.24554,0.34375 -0.5811,0.61384 -1.0067,0.81027c-0.41741,0.19643 -0.88393,0.29464 -1.39955,0.29464zM190.25475,104.24627l-2.62723,-7.69754l1.52232,-0.01228l1.87835,5.75781l-0.33147,-0.02455l2.03795,-4.50558h0.90848l2.05022,4.51786l-0.39286,0.02455l1.89063,-5.75781h1.52232l-2.5904,7.69754h-1.04353l-2.14844,-4.89844l0.34375,0.04911l-1.98884,4.84933zM203.33297,104.39359c-0.75298,0 -1.4282,-0.17187 -2.02567,-0.51562c-0.58929,-0.35193 -1.0558,-0.82664 -1.39955,-1.42411c-0.33557,-0.60566 -0.50335,-1.29316 -0.50335,-2.0625c0,-0.76934 0.16778,-1.45275 0.50335,-2.05022c0.34375,-0.60566 0.81027,-1.08036 1.39955,-1.42411c0.59747,-0.35193 1.27269,-0.5279 2.02567,-0.5279c0.73661,0 1.39955,0.17597 1.98884,0.5279c0.59747,0.34375 1.06808,0.81845 1.41183,1.42411c0.34375,0.59747 0.51562,1.28088 0.51562,2.05022c0,0.76934 -0.17187,1.45684 -0.51562,2.0625c-0.34375,0.59747 -0.81436,1.07217 -1.41183,1.42411c-0.58929,0.34375 -1.25223,0.51563 -1.98884,0.51563zM203.33297,103.01859c0.45833,0 0.86756,-0.11458 1.22768,-0.34375c0.36012,-0.22917 0.64249,-0.54018 0.8471,-0.93304c0.20461,-0.40104 0.30283,-0.85119 0.29464,-1.35045c0.00818,-0.50744 -0.09003,-0.95759 -0.29464,-1.35045c-0.20461,-0.40104 -0.48698,-0.71205 -0.8471,-0.93304c-0.36012,-0.22917 -0.76934,-0.34375 -1.22768,-0.34375c-0.45833,0 -0.87165,0.11458 -1.23996,0.34375c-0.3683,0.22917 -0.65476,0.54427 -0.85937,0.94531c-0.20461,0.39286 -0.30283,0.83892 -0.29464,1.33817c-0.00818,0.49925 0.09003,0.94941 0.29464,1.35045c0.20461,0.39286 0.49107,0.70387 0.85938,0.93304c0.3683,0.22917 0.78162,0.34375 1.23996,0.34375zM208.88589,104.24627v-7.69754h1.52232v2.41853l-0.14732,-0.58929c0.1064,-0.3683 0.29055,-0.70387 0.55246,-1.0067c0.26191,-0.30283 0.56064,-0.54018 0.89621,-0.71205c0.33557,-0.18006 0.68341,-0.27009 1.04353,-0.27009c0.16369,0 0.3192,0.01637 0.46652,0.04911c0.1555,0.02455 0.27827,0.05729 0.3683,0.09821l-0.39286,1.64509c-0.11458,-0.04911 -0.24554,-0.09003 -0.39286,-0.12277c-0.13914,-0.04092 -0.27827,-0.06138 -0.41741,-0.06138c-0.26191,0 -0.51153,0.0532 -0.74888,0.1596c-0.23735,0.09821 -0.45015,0.24144 -0.63839,0.42969c-0.18006,0.18006 -0.32329,0.38876 -0.42969,0.62612c-0.1064,0.23735 -0.1596,0.49925 -0.1596,0.78571v4.24777zM217.67483,104.39359c-0.70387,0 -1.32999,-0.17187 -1.87835,-0.51562c-0.54836,-0.35193 -0.98624,-0.82664 -1.31362,-1.42411c-0.3192,-0.60566 -0.47879,-1.29316 -0.47879,-2.0625c0,-0.76934 0.1555,-1.45275 0.46652,-2.05022c0.3192,-0.60566 0.75298,-1.08036 1.30134,-1.42411c0.54836,-0.35193 1.17039,-0.5279 1.86607,-0.5279c0.37649,0 0.74479,0.06138 1.10491,0.18415c0.36012,0.12277 0.67932,0.29055 0.95759,0.50335c0.28646,0.20461 0.50744,0.43378 0.66295,0.6875c0.16369,0.24554 0.24554,0.49516 0.24554,0.74888l-0.44196,0.03683v-5.15625h1.51004v10.85268h-1.51004v-1.82924h0.29464c0,0.22917 -0.07775,0.46242 -0.23326,0.69978c-0.1555,0.22917 -0.36421,0.44196 -0.62612,0.63839c-0.25372,0.18825 -0.55246,0.34375 -0.89621,0.46652c-0.33557,0.11458 -0.67932,0.17187 -1.03125,0.17187zM217.88354,103.09225c0.45833,0 0.86347,-0.11867 1.2154,-0.35603c0.35193,-0.23735 0.62612,-0.55655 0.82254,-0.95759c0.20461,-0.40923 0.30692,-0.87165 0.30692,-1.38728c0,-0.51563 -0.10231,-0.97396 -0.30692,-1.375c-0.19643,-0.40923 -0.47061,-0.73251 -0.82254,-0.96987c-0.35193,-0.23735 -0.75707,-0.35603 -1.2154,-0.35603c-0.45833,0 -0.86347,0.11867 -1.2154,0.35603c-0.35193,0.23735 -0.63021,0.56064 -0.83482,0.96987c-0.19643,0.40104 -0.29464,0.85938 -0.29464,1.375c0,0.51562 0.09821,0.97805 0.29464,1.38728c0.20461,0.40104 0.48289,0.72024 0.83482,0.95759c0.35193,0.23735 0.75707,0.35603 1.2154,0.35603z" fill="#ffffff" fill-rule="nonzero" stroke-linecap="square"/><path d="M-178.15223,21.56168h445.88974v42.01575h-445.88974z" fill-opacity="0" fill="#000000" fill-rule="evenodd" stroke-linecap="square"/><path d="M120.52416,150.55512h238.95169v58.88977h-238.95169z" fill-opacity="0" fill="#000000" fill-rule="evenodd" stroke-linecap="square"/><path d="M130.3184,165.80738h252.8632v41.81105h-252.8632z" fill-opacity="0" fill="#000000" fill-rule="evenodd" stroke-linecap="square"/><path d="M186.12903,182.93353v-8.05404h3.27557c0.43674,0 0.83174,0.10918 1.18499,0.32756c0.35967,0.21837 0.64548,0.51702 0.85743,0.89596c0.21837,0.37252 0.32756,0.78999 0.32756,1.25242c0,0.46243 -0.10918,0.88312 -0.32756,1.26206c-0.21195,0.37252 -0.49776,0.67117 -0.85742,0.89597c-0.35325,0.22479 -0.74824,0.33719 -1.18498,0.33719h-2.03278v3.08289zM187.37182,178.65603h2.01351c0.20552,0 0.39179,-0.0578 0.55877,-0.17341c0.17341,-0.12203 0.3115,-0.27938 0.41427,-0.47206c0.10276,-0.19911 0.15414,-0.41747 0.15414,-0.65511c0,-0.23764 -0.05138,-0.4528 -0.15414,-0.64548c-0.10276,-0.19268 -0.24085,-0.34682 -0.41426,-0.46243c-0.16699,-0.11561 -0.35325,-0.17341 -0.55877,-0.17341h-2.01351zM195.33,183.04914c-0.49454,0 -0.94735,-0.13809 -1.35839,-0.41426c-0.41105,-0.27618 -0.74182,-0.6519 -0.9923,-1.12718c-0.24406,-0.47528 -0.36609,-1.01157 -0.36609,-1.60888c0,-0.61015 0.12525,-1.14966 0.37573,-1.61852c0.25048,-0.46886 0.58768,-0.83816 1.01158,-1.10791c0.43032,-0.26975 0.90881,-0.40463 1.43547,-0.40463c0.31471,0 0.60052,0.04817 0.85743,0.14451c0.26333,0.08992 0.49134,0.21837 0.68402,0.38536c0.19911,0.16057 0.35967,0.35004 0.4817,0.56841c0.12845,0.21195 0.20874,0.43995 0.24085,0.68402l-0.26012,-0.0867v-1.57034h1.19462v6.04054h-1.19462v-1.43547l0.26975,-0.0867c-0.04496,0.21195 -0.13809,0.41747 -0.27938,0.61658c-0.1413,0.19268 -0.32113,0.36609 -0.53951,0.52024c-0.21837,0.14772 -0.45922,0.26975 -0.72255,0.36609c-0.26333,0.08992 -0.54272,0.13488 -0.83816,0.13488zM195.63829,181.96049c0.36609,0 0.68402,-0.0867 0.95377,-0.26012c0.27618,-0.17984 0.49134,-0.4239 0.64548,-0.73219c0.16057,-0.31471 0.24085,-0.67117 0.24085,-1.06937c0,-0.39179 -0.08028,-0.74182 -0.24085,-1.05011c-0.15414,-0.30829 -0.36931,-0.54914 -0.64548,-0.72255c-0.26975,-0.17984 -0.58767,-0.26975 -0.95377,-0.26975c-0.35325,0 -0.66474,0.08992 -0.9345,0.26975c-0.26975,0.17341 -0.48491,0.41427 -0.64548,0.72255c-0.15414,0.30829 -0.23122,0.65833 -0.23122,1.05011c0,0.3982 0.07707,0.75467 0.23122,1.06938c0.16057,0.30829 0.37573,0.55235 0.64548,0.73219c0.26975,0.17341 0.58125,0.26012 0.9345,0.26012zM202.30313,183.04914c-0.50739,0 -0.9634,-0.0867 -1.36803,-0.26012c-0.40463,-0.17984 -0.74182,-0.44317 -1.01157,-0.78999l0.79963,-0.68401c0.23122,0.26333 0.4817,0.45601 0.75145,0.57804c0.27618,0.11561 0.58768,0.17341 0.9345,0.17341c0.13488,0 0.26012,-0.01606 0.37573,-0.04817c0.12203,-0.03211 0.228,-0.0835 0.31793,-0.15414c0.08992,-0.07065 0.15736,-0.15414 0.20232,-0.25048c0.04496,-0.09634 0.06744,-0.20231 0.06744,-0.31792c0,-0.19911 -0.07386,-0.35967 -0.22158,-0.4817c-0.07707,-0.05138 -0.19911,-0.10918 -0.36609,-0.17341c-0.16057,-0.06423 -0.37252,-0.13166 -0.63585,-0.20231c-0.44317,-0.11561 -0.80605,-0.24406 -1.08864,-0.38536c-0.2826,-0.14772 -0.50097,-0.31471 -0.65511,-0.50097c-0.11561,-0.14772 -0.20231,-0.30508 -0.26012,-0.47206c-0.05138,-0.17341 -0.07707,-0.36609 -0.07707,-0.57804c0,-0.25048 0.05459,-0.4817 0.16378,-0.69365c0.11561,-0.21195 0.26975,-0.39499 0.46243,-0.54914c0.19911,-0.16057 0.43032,-0.2826 0.69365,-0.36609c0.26333,-0.0835 0.54593,-0.12524 0.84779,-0.12524c0.2826,0 0.56199,0.03854 0.83816,0.11561c0.2826,0.07707 0.54272,0.18947 0.78036,0.33719c0.23764,0.1413 0.43674,0.3115 0.59731,0.51061l-0.67438,0.75145c-0.14772,-0.14772 -0.30829,-0.27618 -0.4817,-0.38536c-0.17341,-0.10918 -0.35004,-0.19268 -0.52987,-0.25048c-0.17341,-0.06423 -0.33077,-0.09634 -0.47206,-0.09634c-0.16057,0 -0.30829,0.01606 -0.44317,0.04817c-0.12845,0.02569 -0.23764,0.07065 -0.32756,0.13488c-0.0835,0.0578 -0.15093,0.13488 -0.20231,0.23122c-0.04496,0.08992 -0.06744,0.19268 -0.06744,0.30829c0.00642,0.09634 0.03211,0.18947 0.07707,0.27939c0.04496,0.08992 0.10598,0.16378 0.18305,0.22159c0.0835,0.06423 0.20874,0.13166 0.37573,0.20232c0.16699,0.06423 0.38215,0.12845 0.64548,0.19268c0.37894,0.09634 0.69365,0.20552 0.94413,0.32756c0.25048,0.11561 0.44959,0.25048 0.59731,0.40463c0.15414,0.14772 0.26012,0.31793 0.31793,0.51061c0.06423,0.19268 0.09634,0.40784 0.09634,0.64548c0,0.3404 -0.09955,0.64869 -0.29865,0.92487c-0.19268,0.26975 -0.45601,0.4817 -0.78999,0.63585c-0.32756,0.15414 -0.69365,0.23122 -1.09828,0.23122zM207.81307,183.04914c-0.50739,0 -0.9634,-0.0867 -1.36803,-0.26012c-0.40463,-0.17984 -0.74182,-0.44317 -1.01157,-0.78999l0.79963,-0.68401c0.23122,0.26333 0.4817,0.45601 0.75145,0.57804c0.27618,0.11561 0.58768,0.17341 0.9345,0.17341c0.13488,0 0.26012,-0.01606 0.37573,-0.04817c0.12203,-0.03211 0.228,-0.0835 0.31793,-0.15414c0.08992,-0.07065 0.15736,-0.15414 0.20232,-0.25048c0.04496,-0.09634 0.06744,-0.20231 0.06744,-0.31792c0,-0.19911 -0.07386,-0.35967 -0.22158,-0.4817c-0.07707,-0.05138 -0.19911,-0.10918 -0.36609,-0.17341c-0.16057,-0.06423 -0.37252,-0.13166 -0.63585,-0.20231c-0.44317,-0.11561 -0.80605,-0.24406 -1.08864,-0.38536c-0.2826,-0.14772 -0.50097,-0.31471 -0.65511,-0.50097c-0.11561,-0.14772 -0.20231,-0.30508 -0.26012,-0.47206c-0.05138,-0.17341 -0.07707,-0.36609 -0.07707,-0.57804c0,-0.25048 0.05459,-0.4817 0.16378,-0.69365c0.11561,-0.21195 0.26975,-0.39499 0.46243,-0.54914c0.19911,-0.16057 0.43032,-0.2826 0.69365,-0.36609c0.26333,-0.0835 0.54593,-0.12524 0.84779,-0.12524c0.2826,0 0.56199,0.03854 0.83816,0.11561c0.2826,0.07707 0.54272,0.18947 0.78036,0.33719c0.23764,0.1413 0.43674,0.3115 0.59731,0.51061l-0.67438,0.75145c-0.14772,-0.14772 -0.30829,-0.27618 -0.4817,-0.38536c-0.17341,-0.10918 -0.35004,-0.19268 -0.52987,-0.25048c-0.17341,-0.06423 -0.33077,-0.09634 -0.47206,-0.09634c-0.16057,0 -0.30829,0.01606 -0.44317,0.04817c-0.12845,0.02569 -0.23764,0.07065 -0.32756,0.13488c-0.0835,0.0578 -0.15093,0.13488 -0.20231,0.23122c-0.04496,0.08992 -0.06744,0.19268 -0.06744,0.30829c0.00642,0.09634 0.03211,0.18947 0.07707,0.27939c0.04496,0.08992 0.10598,0.16378 0.18305,0.22159c0.0835,0.06423 0.20874,0.13166 0.37573,0.20232c0.16699,0.06423 0.38215,0.12845 0.64548,0.19268c0.37894,0.09634 0.69365,0.20552 0.94413,0.32756c0.25048,0.11561 0.44959,0.25048 0.59731,0.40463c0.15414,0.14772 0.26012,0.31793 0.31793,0.51061c0.06423,0.19268 0.09634,0.40784 0.09634,0.64548c0,0.3404 -0.09955,0.64869 -0.29866,0.92487c-0.19268,0.26975 -0.45601,0.4817 -0.78999,0.63585c-0.32756,0.15414 -0.69365,0.23122 -1.09828,0.23122zM212.79314,182.93353l-2.06168,-6.04053l1.19462,-0.00963l1.47401,4.51836l-0.26012,-0.01927l1.59925,-3.53568h0.71292l1.60888,3.54532l-0.30829,0.01927l1.48364,-4.51835h1.19462l-2.03278,6.04054h-0.81889l-1.68595,-3.84397l0.26975,0.03854l-1.56071,3.80544zM223.05608,183.04914c-0.59088,0 -1.12076,-0.13488 -1.58961,-0.40463c-0.46243,-0.27618 -0.82853,-0.64869 -1.09828,-1.11755c-0.26333,-0.47528 -0.39499,-1.01478 -0.39499,-1.61852c0,-0.60373 0.13166,-1.14003 0.395,-1.60888c0.26975,-0.47528 0.63585,-0.84779 1.09828,-1.11755c0.46886,-0.27618 0.99873,-0.41426 1.58962,-0.41426c0.57804,0 1.09828,0.13809 1.56071,0.41427c0.46886,0.26975 0.83816,0.64227 1.10792,1.11755c0.26975,0.46886 0.40463,1.00515 0.40463,1.60888c0,0.60373 -0.13488,1.14324 -0.40463,1.61852c-0.26975,0.46886 -0.63906,0.84137 -1.10791,1.11755c-0.46243,0.26975 -0.98267,0.40463 -1.56071,0.40463zM223.05608,181.97013c0.35967,0 0.68081,-0.08992 0.9634,-0.26975c0.2826,-0.17984 0.50418,-0.4239 0.66475,-0.73219c0.16057,-0.31471 0.23764,-0.66796 0.23122,-1.05974c0.00642,-0.3982 -0.07065,-0.75145 -0.23122,-1.05974c-0.16057,-0.31471 -0.38215,-0.55877 -0.66474,-0.73219c-0.2826,-0.17984 -0.60373,-0.26975 -0.9634,-0.26975c-0.35967,0 -0.68401,0.08992 -0.97303,0.26975c-0.28902,0.17984 -0.51381,0.42711 -0.67438,0.74182c-0.16057,0.30829 -0.23764,0.65833 -0.23122,1.05011c-0.00642,0.39179 0.07065,0.74503 0.23122,1.05974c0.16057,0.30829 0.38536,0.55235 0.67438,0.73219c0.28902,0.17984 0.61337,0.26975 0.97304,0.26975zM227.41365,182.93353v-6.04053h1.19462v1.89791l-0.11561,-0.46243c0.0835,-0.28902 0.228,-0.55235 0.43353,-0.78999c0.20552,-0.23764 0.43995,-0.4239 0.70329,-0.55877c0.26333,-0.1413 0.53629,-0.21195 0.8189,-0.21195c0.12845,0 0.25048,0.01284 0.36609,0.03854c0.12203,0.01927 0.21837,0.04496 0.28902,0.07707l-0.30829,1.29096c-0.08992,-0.03854 -0.19268,-0.07065 -0.30829,-0.09634c-0.10918,-0.03211 -0.21837,-0.04817 -0.32756,-0.04817c-0.20552,0 -0.40142,0.04175 -0.58767,0.12525c-0.18626,0.07707 -0.35325,0.18947 -0.50097,0.33719c-0.1413,0.1413 -0.2537,0.30508 -0.33719,0.49134c-0.0835,0.18626 -0.12524,0.39179 -0.12524,0.61658v3.33337zM234.31064,183.04914c-0.55235,0 -1.04369,-0.13488 -1.474,-0.40463c-0.43032,-0.27618 -0.77393,-0.64869 -1.03084,-1.11755c-0.25048,-0.47528 -0.37572,-1.01478 -0.37572,-1.61852c0,-0.60373 0.12203,-1.14003 0.36609,-1.60888c0.25048,-0.47528 0.59088,-0.84779 1.02121,-1.11755c0.43032,-0.27618 0.91844,-0.41426 1.46437,-0.41426c0.29545,0 0.58447,0.04817 0.86706,0.14451c0.2826,0.09634 0.53308,0.228 0.75145,0.395c0.22479,0.16057 0.3982,0.3404 0.52024,0.53951c0.12845,0.19268 0.19268,0.38857 0.19268,0.58768l-0.34682,0.02891v-4.04629h1.18499v8.51648h-1.18498v-1.43547h0.23122c0,0.17984 -0.06102,0.36288 -0.18304,0.54914c-0.12203,0.17984 -0.28581,0.34682 -0.49133,0.50097c-0.19911,0.14772 -0.43353,0.26975 -0.70328,0.36609c-0.26333,0.08992 -0.53308,0.13488 -0.80926,0.13488zM234.47442,182.02794c0.35967,0 0.67759,-0.09313 0.95377,-0.27938c0.27618,-0.18626 0.49134,-0.43674 0.64548,-0.75145c0.16057,-0.32113 0.24085,-0.68401 0.24085,-1.08864c0,-0.40463 -0.08028,-0.7643 -0.24085,-1.07901c-0.15414,-0.32113 -0.36931,-0.57483 -0.64548,-0.76108c-0.27618,-0.18626 -0.5941,-0.27938 -0.95377,-0.27938c-0.35967,0 -0.67759,0.09313 -0.95377,0.27939c-0.27618,0.18626 -0.49454,0.43995 -0.65511,0.76109c-0.15414,0.31471 -0.23122,0.67438 -0.23122,1.07901c0,0.40463 0.07707,0.76751 0.23122,1.08865c0.16057,0.31471 0.37894,0.5652 0.65511,0.75145c0.27618,0.18626 0.5941,0.27939 0.95377,0.27939zM245.87452,183.04914c-0.55877,0 -1.07259,-0.09955 -1.54144,-0.29865c-0.46886,-0.19911 -0.87669,-0.48491 -1.22352,-0.85742c-0.3404,-0.37252 -0.60694,-0.81247 -0.79962,-1.31986c-0.18626,-0.50739 -0.27938,-1.06295 -0.27938,-1.66668c0,-0.57162 0.10276,-1.1047 0.30829,-1.59925c0.20552,-0.49454 0.48813,-0.92808 0.84779,-1.30059c0.35967,-0.37894 0.77715,-0.67117 1.25242,-0.87669c0.47528,-0.21195 0.9891,-0.31792 1.54144,-0.31792c0.39179,0 0.77393,0.06102 1.14645,0.18305c0.37252,0.11561 0.70971,0.27939 1.01158,0.49133c0.30186,0.21195 0.54914,0.4528 0.74182,0.72255l-0.82853,0.85743c-0.22479,-0.22479 -0.44959,-0.41105 -0.67438,-0.55877c-0.22479,-0.14772 -0.45601,-0.26012 -0.69365,-0.33719c-0.23122,-0.07707 -0.46565,-0.11561 -0.70328,-0.11561c-0.37894,0 -0.73219,0.07065 -1.05974,0.21195c-0.32113,0.1413 -0.60373,0.3404 -0.84779,0.59731c-0.23764,0.25048 -0.42711,0.55235 -0.5684,0.9056c-0.13488,0.34682 -0.20231,0.72576 -0.20231,1.13681c0,0.43674 0.06423,0.83495 0.19268,1.19462c0.13488,0.35325 0.32434,0.65833 0.56841,0.91524c0.25048,0.25048 0.54593,0.44317 0.88633,0.57804c0.3404,0.13488 0.71934,0.20232 1.13681,0.20232c0.25048,0 0.49776,-0.03532 0.74182,-0.10597c0.24406,-0.07065 0.47207,-0.1702 0.68402,-0.29865c0.21837,-0.12845 0.41747,-0.2826 0.59731,-0.46243l0.61658,1.01158c-0.17341,0.21195 -0.41426,0.40142 -0.72255,0.56841c-0.30186,0.16699 -0.63906,0.29866 -1.01157,0.395c-0.36609,0.09634 -0.73861,0.14451 -1.11755,0.14451zM250.12048,182.93353v-8.51648h1.18499v3.71873l-0.21195,0.13488c0.07707,-0.26333 0.228,-0.50739 0.4528,-0.73219c0.22479,-0.23122 0.48813,-0.41747 0.78999,-0.55877c0.30829,-0.1413 0.623,-0.21195 0.94413,-0.21195c0.46243,0 0.84458,0.08992 1.14645,0.26975c0.30829,0.17984 0.53951,0.45601 0.69365,0.82853c0.15414,0.36609 0.23122,0.82853 0.23122,1.3873v3.6802h-1.18498v-3.60312c0,-0.3404 -0.04496,-0.623 -0.13488,-0.84779c-0.08992,-0.23122 -0.23122,-0.3982 -0.4239,-0.50097c-0.19268,-0.10276 -0.43032,-0.14772 -0.71292,-0.13488c-0.23122,0 -0.44317,0.03854 -0.63585,0.11561c-0.19268,0.07065 -0.35967,0.17341 -0.50097,0.30829c-0.1413,0.12845 -0.2537,0.27939 -0.33719,0.4528c-0.07707,0.16699 -0.11561,0.35004 -0.11561,0.54914v3.66093h-0.58767c-0.09634,0 -0.19589,0 -0.29865,0c-0.10276,0 -0.20231,0 -0.29865,0zM259.28658,183.04914c-0.49454,0 -0.94735,-0.13809 -1.35839,-0.41426c-0.41105,-0.27618 -0.74182,-0.6519 -0.9923,-1.12718c-0.24406,-0.47528 -0.36609,-1.01157 -0.36609,-1.60888c0,-0.61015 0.12525,-1.14966 0.37573,-1.61852c0.25048,-0.46886 0.58768,-0.83816 1.01158,-1.10791c0.43032,-0.26975 0.90881,-0.40463 1.43547,-0.40463c0.31471,0 0.60052,0.04817 0.85743,0.14451c0.26333,0.08992 0.49134,0.21837 0.68402,0.38536c0.19911,0.16057 0.35967,0.35004 0.4817,0.56841c0.12845,0.21195 0.20874,0.43995 0.24085,0.68402l-0.26012,-0.0867v-1.57034h1.19462v6.04054h-1.19462v-1.43547l0.26975,-0.0867c-0.04496,0.21195 -0.13809,0.41747 -0.27938,0.61658c-0.1413,0.19268 -0.32113,0.36609 -0.53951,0.52024c-0.21837,0.14772 -0.45922,0.26975 -0.72255,0.36609c-0.26333,0.08992 -0.54272,0.13488 -0.83816,0.13488zM259.59487,181.96049c0.36609,0 0.68402,-0.0867 0.95377,-0.26012c0.27618,-0.17984 0.49134,-0.4239 0.64548,-0.73219c0.16057,-0.31471 0.24085,-0.67117 0.24085,-1.06937c0,-0.39179 -0.08028,-0.74182 -0.24085,-1.05011c-0.15414,-0.30829 -0.36931,-0.54914 -0.64548,-0.72255c-0.26975,-0.17984 -0.58767,-0.26975 -0.95377,-0.26975c-0.35325,0 -0.66474,0.08992 -0.9345,0.26975c-0.26975,0.17341 -0.48491,0.41427 -0.64548,0.72255c-0.15414,0.30829 -0.23122,0.65833 -0.23122,1.05011c0,0.3982 0.07707,0.75467 0.23122,1.06938c0.16057,0.30829 0.37573,0.55235 0.64548,0.73219c0.26975,0.17341 0.58125,0.26012 0.9345,0.26012zM264.24619,182.93353v-6.04053h1.18499v1.24279l-0.21195,0.13488c0.07707,-0.26333 0.228,-0.50739 0.4528,-0.73219c0.22479,-0.23122 0.48813,-0.41747 0.78999,-0.55877c0.30829,-0.1413 0.623,-0.21195 0.94413,-0.21195c0.46243,0 0.84458,0.08992 1.14645,0.26975c0.30829,0.17984 0.53951,0.45601 0.69365,0.82853c0.15414,0.36609 0.23122,0.82853 0.23122,1.3873v3.6802h-1.18498v-3.60312c0,-0.3404 -0.04496,-0.623 -0.13488,-0.84779c-0.08992,-0.23122 -0.23122,-0.3982 -0.4239,-0.50097c-0.19268,-0.10276 -0.43032,-0.14772 -0.71292,-0.13488c-0.23122,0 -0.44317,0.03854 -0.63585,0.11561c-0.19268,0.07065 -0.35967,0.17341 -0.50097,0.30829c-0.1413,0.12845 -0.2537,0.27939 -0.33719,0.4528c-0.07707,0.16699 -0.11561,0.35004 -0.11561,0.54914v3.66093h-0.58767c-0.09634,0 -0.19589,0 -0.29865,0c-0.10276,0 -0.20231,0 -0.29865,0zM273.79765,185.58289c-0.43032,0 -0.86064,-0.06744 -1.29096,-0.20231c-0.4239,-0.13488 -0.7643,-0.3115 -1.02121,-0.52987l0.43353,-0.91523c0.15414,0.11561 0.33398,0.21516 0.53951,0.29866c0.20552,0.08992 0.4239,0.16057 0.65511,0.21195c0.23122,0.05138 0.45922,0.07707 0.68402,0.07707c0.41747,0 0.76751,-0.07065 1.05011,-0.21195c0.28902,-0.13488 0.50418,-0.33719 0.64548,-0.60694c0.14772,-0.26975 0.22159,-0.60373 0.22159,-1.00194v-1.15608l0.12525,0.07707c-0.03854,0.23764 -0.16378,0.46565 -0.37572,0.68402c-0.21195,0.21837 -0.47528,0.3982 -0.78999,0.53951c-0.30829,0.13488 -0.62942,0.20232 -0.9634,0.20232c-0.57162,0 -1.08222,-0.13488 -1.53181,-0.40463c-0.44959,-0.27618 -0.80605,-0.64869 -1.06937,-1.11755c-0.25691,-0.47528 -0.38536,-1.01478 -0.38536,-1.61852c0,-0.60373 0.12845,-1.14003 0.38536,-1.60888c0.25691,-0.47528 0.60695,-0.84779 1.05011,-1.11755c0.44959,-0.27618 0.95698,-0.41426 1.52218,-0.41426c0.22479,0 0.44317,0.02891 0.65511,0.08671c0.21837,0.0578 0.42068,0.13809 0.60695,0.24085c0.18626,0.10276 0.35004,0.21516 0.49134,0.33719c0.14772,0.12203 0.26654,0.2537 0.35646,0.395c0.09634,0.13488 0.15414,0.26333 0.17341,0.38536l-0.25048,0.09634v-1.4162h1.18499v5.67444c0,0.4817 -0.07065,0.90881 -0.21195,1.28133c-0.1413,0.37252 -0.34682,0.68722 -0.61658,0.94413c-0.26975,0.25691 -0.59731,0.4528 -0.98267,0.58768c-0.37894,0.13488 -0.80926,0.20232 -1.29096,0.20232zM273.83619,181.96049c0.37894,0 0.71292,-0.0867 1.00194,-0.26012c0.29545,-0.17984 0.52345,-0.4239 0.68402,-0.73219c0.16057,-0.30829 0.24085,-0.66154 0.24085,-1.05974c0,-0.3982 -0.0835,-0.75145 -0.25048,-1.05974c-0.16699,-0.31471 -0.39499,-0.55877 -0.68401,-0.73219c-0.2826,-0.17984 -0.61337,-0.26975 -0.9923,-0.26975c-0.36609,0 -0.69365,0.08992 -0.98267,0.26975c-0.28902,0.17984 -0.51702,0.42711 -0.68401,0.74182c-0.16057,0.30829 -0.24085,0.65833 -0.24085,1.05011c0,0.39179 0.08028,0.74503 0.24085,1.05974c0.16699,0.30829 0.395,0.55235 0.68402,0.73219c0.28902,0.17341 0.61658,0.26012 0.98267,0.26012zM281.36909,183.04914c-0.61658,0 -1.16571,-0.13166 -1.64741,-0.39499c-0.47528,-0.26333 -0.85101,-0.62621 -1.12718,-1.08864c-0.26975,-0.46243 -0.40463,-0.9923 -0.40463,-1.58961c0,-0.47528 0.07707,-0.90881 0.23122,-1.30059c0.15414,-0.39179 0.36609,-0.72897 0.63585,-1.01157c0.26975,-0.28902 0.5941,-0.5106 0.97304,-0.66474c0.38536,-0.16057 0.79963,-0.24085 1.24279,-0.24085c0.39179,0 0.75467,0.07386 1.08865,0.22159c0.3404,0.14772 0.63263,0.35325 0.8767,0.61658c0.25048,0.26333 0.44317,0.57483 0.57804,0.9345c0.13488,0.35325 0.19911,0.73861 0.19268,1.15608l-0.00963,0.51061h-4.93262l-0.26975,-0.94413h4.17153l-0.16378,0.19268v-0.26975c-0.02569,-0.25691 -0.1124,-0.48491 -0.26012,-0.68401c-0.1413,-0.19911 -0.32434,-0.35646 -0.54914,-0.47206c-0.22479,-0.11561 -0.46565,-0.17341 -0.72255,-0.17341c-0.41747,0 -0.76751,0.08028 -1.05011,0.24085c-0.2826,0.15414 -0.49776,0.38536 -0.64548,0.69365c-0.1413,0.30186 -0.21195,0.67438 -0.21195,1.11755c0,0.41747 0.08671,0.78357 0.26012,1.09828c0.17341,0.30829 0.42068,0.54914 0.74182,0.72255c0.32756,0.16699 0.70007,0.25048 1.11755,0.25048c0.30186,0 0.58125,-0.04817 0.83816,-0.14451c0.25691,-0.10276 0.53629,-0.28581 0.83816,-0.54914l0.59731,0.83816c-0.18626,0.18626 -0.41105,0.35004 -0.67438,0.49134c-0.26333,0.13488 -0.54272,0.24406 -0.83816,0.32756c-0.29545,0.07707 -0.58767,0.11561 -0.87669,0.11561zM287.8112,183.04914c-0.55235,0 -1.04369,-0.13488 -1.474,-0.40463c-0.43032,-0.27618 -0.77393,-0.64869 -1.03084,-1.11755c-0.25048,-0.47528 -0.37572,-1.01478 -0.37572,-1.61852c0,-0.60373 0.12203,-1.14003 0.36609,-1.60888c0.25048,-0.47528 0.59088,-0.84779 1.02121,-1.11755c0.43032,-0.27618 0.91844,-0.41426 1.46437,-0.41426c0.29545,0 0.58447,0.04817 0.86706,0.14451c0.2826,0.09634 0.53308,0.228 0.75145,0.395c0.22479,0.16057 0.3982,0.3404 0.52024,0.53951c0.12845,0.19268 0.19268,0.38857 0.19268,0.58768l-0.34682,0.02891v-4.04629h1.18499v8.51648h-1.18498v-1.43547h0.23122c0,0.17984 -0.06102,0.36288 -0.18304,0.54914c-0.12203,0.17984 -0.28581,0.34682 -0.49133,0.50097c-0.19911,0.14772 -0.43353,0.26975 -0.70328,0.36609c-0.26333,0.08992 -0.53308,0.13488 -0.80926,0.13488zM287.97498,182.02794c0.35967,0 0.67759,-0.09313 0.95377,-0.27938c0.27618,-0.18626 0.49134,-0.43674 0.64548,-0.75145c0.16057,-0.32113 0.24085,-0.68401 0.24085,-1.08864c0,-0.40463 -0.08028,-0.7643 -0.24085,-1.07901c-0.15414,-0.32113 -0.36931,-0.57483 -0.64548,-0.76108c-0.27618,-0.18626 -0.5941,-0.27938 -0.95377,-0.27938c-0.35967,0 -0.67759,0.09313 -0.95377,0.27939c-0.27618,0.18626 -0.49454,0.43995 -0.65511,0.76109c-0.15414,0.31471 -0.23122,0.67438 -0.23122,1.07901c0,0.40463 0.07707,0.76751 0.23122,1.08865c0.16057,0.31471 0.37894,0.5652 0.65511,0.75145c0.27618,0.18626 0.5941,0.27939 0.95377,0.27939zM293.07134,183.05877c-0.25048,0 -0.44638,-0.07386 -0.58767,-0.22158c-0.13488,-0.14772 -0.20231,-0.35967 -0.20231,-0.63585c0,-0.25691 0.07065,-0.46565 0.21195,-0.62621c0.14772,-0.16057 0.3404,-0.24085 0.57804,-0.24085c0.25691,0 0.4528,0.07707 0.58768,0.23122c0.1413,0.14772 0.21195,0.35967 0.21195,0.63585c0,0.25048 -0.07386,0.45601 -0.22158,0.61658c-0.14772,0.16057 -0.3404,0.24085 -0.57804,0.24085z" fill="#ffffff" fill-rule="nonzero" stroke-linecap="square"/><path d="M237.78265,234.59148h-14.866c-8.21029,0 -14.866,-6.43189 -14.866,-14.36603c0,-7.93414 6.65575,-14.36605 14.866,-14.36605v0h14.866z" fill-opacity="0.6715" fill="#6c6c6c" fill-rule="evenodd" stroke-linecap="square"/><path d="M237.76822,205.85942h14.866v0c8.21029,0 14.866,6.43189 14.866,14.36605c0,7.9341 -6.65573,14.36603 -14.866,14.36603h-14.866z" fill-opacity="0.6715" fill="#6c6c6c" fill-rule="evenodd" stroke-linecap="square"/><text transform="translate(222.07608,224.56851) scale(0.28593,0.28593)" font-size="40" xml:space="preserve" fill="#ffffff" fill-rule="nonzero" stroke="none" stroke-width="1" stroke-linecap="butt" stroke-linejoin="miter" stroke-miterlimit="10" stroke-dasharray="" stroke-dashoffset="0" font-family="Sans Serif" font-weight="normal" text-anchor="start" style="mix-blend-mode: normal"><tspan x="0" dy="0">Close</tspan></text></g></g></svg>