<svg version="1.1" xmlns="http://www.w3.org/2000/svg" xmlns:xlink="http://www.w3.org/1999/xlink" width="21.58322" height="27.89234" viewBox="0,0,21.58322,27.89234"><g transform="translate(-219.70669,-103.91213)"><g data-paper-data="{&quot;isPaintingLayer&quot;:true}" stroke="none" stroke-width="1" stroke-linecap="square" stroke-linejoin="miter" stroke-miterlimit="10" stroke-dasharray="" stroke-dashoffset="0" style="mix-blend-mode: normal"><path d="M219.70669,105.63616c0,-0.95215 0.41182,-1.72403 0.91982,-1.72403h19.74357c0.24395,0 0.47791,0.18164 0.65041,0.50495c0.1725,0.32331 0.26942,0.76183 0.26942,1.21908v24.44429c0,0.95215 -0.41182,1.72402 -0.91983,1.72402h-19.74357c-0.508,0 -0.91982,-0.77187 -0.91982,-1.72402z" fill-opacity="0.69355" fill="#2d2d2d" fill-rule="evenodd"/><path d="M229.89815,126.78207c-1.39777,0 -2.66193,-0.2775 -3.79248,-0.8325c-1.13055,-0.57555 -2.06582,-1.38749 -2.80582,-2.43582l2.40499,-2.62082c0.71944,0.78111 1.38749,1.31555 2.00416,1.60333c0.61666,0.28778 1.29499,0.43166 2.03499,0.43166c0.57555,0 1.07916,-0.11305 1.51083,-0.33917c0.43166,-0.22611 0.77083,-0.54472 1.0175,-0.95583c0.26722,-0.41111 0.40083,-0.87361 0.40083,-1.38749c0,-0.51388 -0.13361,-0.97638 -0.40083,-1.38749c-0.24667,-0.41111 -0.58583,-0.74 -1.0175,-0.98666c-0.43166,-0.24667 -0.925,-0.37 -1.47999,-0.37c-0.39055,0 -0.77083,0.04111 -1.14083,0.12333c-0.34945,0.06167 -0.71944,0.17472 -1.10999,0.33917c-0.39055,0.16445 -0.85305,0.40083 -1.38749,0.70916l-1.91166,-2.52832l1.14083,-8.10913h10.57578v3.76165h-8.44829l1.14083,-1.47999l-0.86333,5.82747l-1.57249,-0.52416c0.32888,-0.28778 0.72972,-0.54472 1.20249,-0.77083c0.49333,-0.22611 1.0175,-0.41111 1.57249,-0.555c0.57555,-0.16445 1.14083,-0.24667 1.69583,-0.24667c1.15111,0 2.18916,0.26722 3.11415,0.80166c0.925,0.53445 1.65471,1.27444 2.18916,2.21999c0.555,0.94555 0.8325,2.03499 0.8325,3.26832c0,1.21278 -0.30833,2.31249 -0.925,3.29915c-0.61666,0.96611 -1.43888,1.73694 -2.46665,2.31249c-1.02778,0.555 -2.19944,0.8325 -3.51498,0.8325z" fill="#ffffff" fill-rule="nonzero"/></g></g></svg>