<svg version="1.1" xmlns="http://www.w3.org/2000/svg" xmlns:xlink="http://www.w3.org/1999/xlink" width="23.6279" height="11.7081" viewBox="0,0,23.6279,11.7081"><g transform="translate(-228.18605,-174.14595)"><g data-paper-data="{&quot;isPaintingLayer&quot;:true}" fill="#ffffff" fill-rule="nonzero" stroke="none" stroke-width="1" stroke-linecap="square" stroke-linejoin="miter" stroke-miterlimit="10" stroke-dasharray="" stroke-dashoffset="0" style="mix-blend-mode: normal"><path d="M230.6711,183.19725c-0.27612,0 -0.53876,-0.03704 -0.78794,-0.11112c-0.24918,-0.07408 -0.48153,-0.17847 -0.69703,-0.31316c-0.20878,-0.13469 -0.39734,-0.29632 -0.5657,-0.48489c-0.16836,-0.18857 -0.31316,-0.39734 -0.43438,-0.62631l0.81825,-0.84856c0.16836,0.23571 0.32327,0.42764 0.46469,0.57581c0.14142,0.14143 0.27612,0.25255 0.40408,0.33337c0.12796,0.08081 0.25592,0.13805 0.38387,0.17173c0.12796,0.02694 0.26601,0.04041 0.41418,0.04041c0.28959,0 0.54214,-0.06735 0.75765,-0.20204c0.2155,-0.13469 0.38387,-0.31652 0.50509,-0.5455c0.12122,-0.23571 0.18183,-0.50173 0.18183,-0.79805v-4.54585h-1.54559v-1.21223h4.15188v1.21223h-1.30314v4.66707c0,0.38387 -0.06735,0.74081 -0.20204,1.07081c-0.13469,0.32326 -0.32326,0.60611 -0.5657,0.84856c-0.24245,0.23571 -0.53204,0.42428 -0.86877,0.56571c-0.32999,0.13469 -0.7004,0.20204 -1.11121,0.20204zM237.81127,183.19725c-0.45122,0 -0.8452,-0.10438 -1.18193,-0.31315c-0.32999,-0.20878 -0.58591,-0.50173 -0.76774,-0.87887c-0.18184,-0.37714 -0.27275,-0.82835 -0.27275,-1.35365v-3.90943h1.24254v3.57607c0,0.36367 0.05724,0.6802 0.17173,0.94958c0.12123,0.26938 0.28959,0.47815 0.50509,0.62631c0.22224,0.14143 0.49163,0.21214 0.80815,0.21214c0.22897,0 0.44112,-0.03704 0.63642,-0.11112c0.1953,-0.07408 0.36367,-0.17847 0.50509,-0.31316c0.14142,-0.14143 0.24918,-0.30642 0.32326,-0.49499c0.08082,-0.19531 0.12122,-0.40745 0.12122,-0.63642v-3.80841h1.24253v6.33389h-1.24253v-1.32335l0.22224,-0.15153c-0.09429,0.30305 -0.25592,0.57581 -0.48489,0.81826c-0.22897,0.23571 -0.50173,0.42428 -0.81825,0.5657c-0.31653,0.14143 -0.65326,0.21214 -1.01019,0.21214zM242.90637,183.07603v-8.93008h1.24254v8.93008zM246.79332,185.85405l1.28294,-2.95986l0.0101,0.98999l-3.1619,-7.14204h1.44457l1.97997,4.65697c0.04041,0.08081 0.08755,0.2054 0.14142,0.37377c0.06061,0.16163 0.11112,0.32326 0.15153,0.48489l-0.31316,0.07072c0.06061,-0.16836 0.12123,-0.33673 0.18184,-0.50509c0.06061,-0.16836 0.11785,-0.33673 0.17173,-0.5051l1.65672,-4.57616h1.47487l-2.60629,6.33389l-1.0708,2.77802z"/></g></g></svg>