<svg version="1.1" xmlns="http://www.w3.org/2000/svg" xmlns:xlink="http://www.w3.org/1999/xlink" width="23.98859" height="23.62213" viewBox="0,0,23.98859,23.62213"><g transform="translate(-228.0057,-168.18894)"><g data-paper-data="{&quot;isPaintingLayer&quot;:true}" stroke="none" stroke-width="1" stroke-linejoin="miter" stroke-miterlimit="10" stroke-dasharray="" stroke-dashoffset="0" style="mix-blend-mode: normal"><path d="M228.0057,170.64849v0c0,-1.35836 1.10116,-2.45954 2.45954,-2.45954h19.06951c0.65231,0 1.27789,0.25913 1.73915,0.72039c0.46126,0.46126 0.72039,1.08685 0.72039,1.73916v18.70304c0,1.35836 -1.10116,2.45954 -2.45954,2.45954h-19.06951c-1.35836,0 -2.45954,-1.10116 -2.45954,-2.45954z" fill="#454545" fill-rule="evenodd" stroke-linecap="square"/><path d="M234,188c-0.55,0 -1.02084,-0.19584 -1.4125,-0.5875c-0.39166,-0.39166 -0.5875,-0.8625 -0.5875,-1.4125c0,-0.55 0.19584,-1.02084 0.5875,-1.4125c0.39166,-0.39166 0.8625,-0.5875 1.4125,-0.5875c0.55,0 1.02084,0.19584 1.4125,0.5875c0.39166,0.39166 0.5875,0.8625 0.5875,1.4125c0,0.55 -0.19584,1.02084 -0.5875,1.4125c-0.39166,0.39166 -0.8625,0.5875 -1.4125,0.5875zM240,188c-0.55,0 -1.02084,-0.19584 -1.4125,-0.5875c-0.39166,-0.39166 -0.5875,-0.8625 -0.5875,-1.4125c0,-0.55 0.19584,-1.02084 0.5875,-1.4125c0.39166,-0.39166 0.8625,-0.5875 1.4125,-0.5875c0.55,0 1.02084,0.19584 1.4125,0.5875c0.39166,0.39166 0.5875,0.8625 0.5875,1.4125c0,0.55 -0.19584,1.02084 -0.5875,1.4125c-0.39166,0.39166 -0.8625,0.5875 -1.4125,0.5875zM246,188c-0.55,0 -1.02084,-0.19584 -1.4125,-0.5875c-0.39166,-0.39166 -0.5875,-0.8625 -0.5875,-1.4125c0,-0.55 0.19584,-1.02084 0.5875,-1.4125c0.39166,-0.39166 0.8625,-0.5875 1.4125,-0.5875c0.55,0 1.02084,0.19584 1.4125,0.5875c0.39166,0.39166 0.5875,0.8625 0.5875,1.4125c0,0.55 -0.19584,1.02084 -0.5875,1.4125c-0.39166,0.39166 -0.8625,0.5875 -1.4125,0.5875zM234,182c-0.55,0 -1.02084,-0.19584 -1.4125,-0.5875c-0.39166,-0.39166 -0.5875,-0.8625 -0.5875,-1.4125c0,-0.55 0.19584,-1.02084 0.5875,-1.4125c0.39166,-0.39166 0.8625,-0.5875 1.4125,-0.5875c0.55,0 1.02084,0.19584 1.4125,0.5875c0.39166,0.39166 0.5875,0.8625 0.5875,1.4125c0,0.55 -0.19584,1.02084 -0.5875,1.4125c-0.39166,0.39166 -0.8625,0.5875 -1.4125,0.5875zM240,182c-0.55,0 -1.02084,-0.19584 -1.4125,-0.5875c-0.39166,-0.39166 -0.5875,-0.8625 -0.5875,-1.4125c0,-0.55 0.19584,-1.02084 0.5875,-1.4125c0.39166,-0.39166 0.8625,-0.5875 1.4125,-0.5875c0.55,0 1.02084,0.19584 1.4125,0.5875c0.39166,0.39166 0.5875,0.8625 0.5875,1.4125c0,0.55 -0.19584,1.02084 -0.5875,1.4125c-0.39166,0.39166 -0.8625,0.5875 -1.4125,0.5875zM246,182c-0.55,0 -1.02084,-0.19584 -1.4125,-0.5875c-0.39166,-0.39166 -0.5875,-0.8625 -0.5875,-1.4125c0,-0.55 0.19584,-1.02084 0.5875,-1.4125c0.39166,-0.39166 0.8625,-0.5875 1.4125,-0.5875c0.55,0 1.02084,0.19584 1.4125,0.5875c0.39166,0.39166 0.5875,0.8625 0.5875,1.4125c0,0.55 -0.19584,1.02084 -0.5875,1.4125c-0.39166,0.39166 -0.8625,0.5875 -1.4125,0.5875zM234,176c-0.55,0 -1.02084,-0.19584 -1.4125,-0.5875c-0.39166,-0.39166 -0.5875,-0.8625 -0.5875,-1.4125c0,-0.55 0.19584,-1.02084 0.5875,-1.4125c0.39166,-0.39166 0.8625,-0.5875 1.4125,-0.5875c0.55,0 1.02084,0.19584 1.4125,0.5875c0.39166,0.39166 0.5875,0.8625 0.5875,1.4125c0,0.55 -0.19584,1.02084 -0.5875,1.4125c-0.39166,0.39166 -0.8625,0.5875 -1.4125,0.5875zM240,176c-0.55,0 -1.02084,-0.19584 -1.4125,-0.5875c-0.39166,-0.39166 -0.5875,-0.8625 -0.5875,-1.4125c0,-0.55 0.19584,-1.02084 0.5875,-1.4125c0.39166,-0.39166 0.8625,-0.5875 1.4125,-0.5875c0.55,0 1.02084,0.19584 1.4125,0.5875c0.39166,0.39166 0.5875,0.8625 0.5875,1.4125c0,0.55 -0.19584,1.02084 -0.5875,1.4125c-0.39166,0.39166 -0.8625,0.5875 -1.4125,0.5875zM246,176c-0.55,0 -1.02084,-0.19584 -1.4125,-0.5875c-0.39166,-0.39166 -0.5875,-0.8625 -0.5875,-1.4125c0,-0.55 0.19584,-1.02084 0.5875,-1.4125c0.39166,-0.39166 0.8625,-0.5875 1.4125,-0.5875c0.55,0 1.02084,0.19584 1.4125,0.5875c0.39166,0.39166 0.5875,0.8625 0.5875,1.4125c0,0.55 -0.19584,1.02084 -0.5875,1.4125c-0.39166,0.39166 -0.8625,0.5875 -1.4125,0.5875z" fill-opacity="0.62903" fill="#ffffff" fill-rule="nonzero" stroke-linecap="butt"/></g></g></svg>