<svg version="1.1" xmlns="http://www.w3.org/2000/svg" xmlns:xlink="http://www.w3.org/1999/xlink" width="117.84097" height="92.70043" viewBox="0,0,117.84097,92.70043"><g transform="translate(-180.0624,-131.86982)"><g data-paper-data="{&quot;isPaintingLayer&quot;:true}" fill-rule="evenodd" stroke="none" stroke-linecap="square" stroke-linejoin="miter" stroke-miterlimit="10" stroke-dasharray="" stroke-dashoffset="0" style="mix-blend-mode: normal"><path d="M180.06241,141.00453v0c0,-5.04496 4.08975,-9.1347 9.13472,-9.1347h99.57153c2.42269,0 4.74613,0.9624 6.45921,2.67549c1.71308,1.71309 2.6755,4.03654 2.6755,6.4592v74.43104c0,5.04496 -4.08976,9.1347 -9.13473,9.1347h-99.57153c-5.04497,0 -9.13472,-4.08975 -9.13472,-9.1347z" fill-opacity="0.47404" fill="#adadad" stroke-width="0"/><path d="M189.47075,146.52222v0c0,-4.19584 3.4014,-7.59724 7.59725,-7.59724h82.81263c2.01493,0 3.94731,0.80042 5.37206,2.22518c1.42475,1.42476 2.22519,3.35715 2.22519,5.37205v61.90354c0,4.19584 -3.40141,7.59724 -7.59726,7.59724h-82.81263c-4.19585,0 -7.59725,-3.4014 -7.59725,-7.59724z" fill="#2c2c2c" stroke-width="0"/><path d="M274.06599,146.13921v0c0,-2.23937 1.8154,-4.05475 4.05478,-4.05475v0c1.0754,0 2.10672,0.4272 2.86714,1.18761c0.76042,0.76041 1.18764,1.79175 1.18764,2.86713v0c0,2.23938 -1.81539,4.05475 -4.05477,4.05475v0c-2.23939,0 -4.05477,-1.81537 -4.05477,-4.05475z" fill="#666666" stroke-width="1"/><path d="M263.79627,146.13921v0c0,-2.23937 1.8154,-4.05475 4.05478,-4.05475v0c1.07538,0 2.10672,0.4272 2.86714,1.18761c0.76042,0.76041 1.18764,1.79175 1.18764,2.86713v0c0,2.23938 -1.81539,4.05475 -4.05477,4.05475v0c-2.23939,0 -4.05477,-1.81537 -4.05477,-4.05475z" fill="#666666" stroke-width="1"/><path d="M250.68416,190.09723v0c-7.15336,4.45396 -16.01128,3.15468 -19.78481,-2.90204c-3.77349,-6.05672 -1.03359,-14.57732 6.11977,-19.03128v0c-2.46388,5.12727 -2.33183,10.68418 0.35637,14.99897c2.68824,4.3148 7.61892,6.88387 13.30867,6.93435z" fill="#3c78d8" stroke-width="1"/></g></g></svg>