<svg version="1.1" xmlns="http://www.w3.org/2000/svg" xmlns:xlink="http://www.w3.org/1999/xlink" width="21.58322" height="27.89234" viewBox="0,0,21.58322,27.89234"><g transform="translate(-338.65897,-103.70983)"><g data-paper-data="{&quot;isPaintingLayer&quot;:true}" stroke="none" stroke-width="1" stroke-linecap="square" stroke-linejoin="miter" stroke-miterlimit="10" stroke-dasharray="" stroke-dashoffset="0" style="mix-blend-mode: normal"><path d="M338.65897,105.43386c0,-0.95215 0.41182,-1.72403 0.91982,-1.72403h19.74357c0.24395,0 0.47791,0.18164 0.65041,0.50495c0.1725,0.32331 0.26942,0.76183 0.26942,1.21908v24.44429c0,0.95215 -0.41182,1.72402 -0.91983,1.72402h-19.74357c-0.508,0 -0.91982,-0.77187 -0.91982,-1.72402z" fill-opacity="0.69355" fill="#2d2d2d" fill-rule="evenodd"/><path d="M348.85053,125.34615c-1.46326,0 -2.71617,-0.33838 -3.75874,-1.01513c-1.02428,-0.67675 -1.81078,-1.63701 -2.3595,-2.88078c-0.54872,-1.26206 -0.82308,-2.78019 -0.82308,-4.55438c0,-1.75591 0.27436,-3.25574 0.82308,-4.49951c0.54872,-1.26206 1.33522,-2.23147 2.3595,-2.90822c1.04257,-0.67675 2.29548,-1.01513 3.75874,-1.01513c1.48155,0 2.7436,0.33838 3.78617,1.01513c1.04257,0.67675 1.83821,1.64616 2.38693,2.90822c0.54872,1.24377 0.82308,2.7436 0.82308,4.49951c0,1.77419 -0.27436,3.29232 -0.82308,4.55438c-0.54872,1.24377 -1.34437,2.20403 -2.38693,2.88078c-1.04257,0.67675 -2.30463,1.01513 -3.78617,1.01513zM348.85053,121.97152c1.02428,0 1.81078,-0.43898 2.3595,-1.31693c0.54872,-0.87795 0.82308,-2.13086 0.82308,-3.75874c0,-1.66445 -0.27436,-2.9448 -0.82308,-3.84104c-0.54872,-0.89624 -1.33522,-1.34437 -2.3595,-1.34437c-1.00598,0 -1.79249,0.44812 -2.3595,1.34437c-0.54872,0.89624 -0.82308,2.17659 -0.82308,3.84104c0,1.62787 0.27436,2.88078 0.82308,3.75874c0.56701,0.87795 1.35351,1.31693 2.3595,1.31693z" fill="#ffffff" fill-rule="nonzero"/></g></g></svg>