<svg version="1.1" xmlns="http://www.w3.org/2000/svg" xmlns:xlink="http://www.w3.org/1999/xlink" width="235.50205" height="231.90436" viewBox="0,0,235.50205,231.90436"><g transform="translate(-39.24898,-9.4826)"><g data-paper-data="{&quot;isPaintingLayer&quot;:true}" stroke="none" stroke-width="1" stroke-linejoin="miter" stroke-miterlimit="10" stroke-dasharray="" stroke-dashoffset="0" style="mix-blend-mode: normal"><path d="M39.24899,33.62848v0c0,-13.33539 10.81049,-24.14588 24.14588,-24.14588h187.21029c6.40388,0 12.54548,2.54394 17.07369,7.07217c4.52823,4.52823 7.07219,10.66983 7.07219,17.07371v183.6126c0,13.33541 -10.81051,24.14588 -24.14588,24.14588h-187.21029c-13.33539,0 -24.14588,-10.81049 -24.14588,-24.14588z" fill-opacity="0.94733" fill="#202020" fill-rule="evenodd" stroke-linecap="square"/><text transform="translate(60.50002,62.96146) scale(0.25666,0.25666)" font-size="40" xml:space="preserve" fill="#ffffff" fill-rule="nonzero" stroke="none" stroke-width="1" stroke-linecap="butt" stroke-linejoin="miter" stroke-miterlimit="10" stroke-dasharray="" stroke-dashoffset="0" font-family="Sans Serif" font-weight="normal" text-anchor="start" style="mix-blend-mode: normal"><tspan x="0" dy="0">PolyOS Drives are not encrypted. This</tspan><tspan x="0" dy="46.150000000000006px">means that anybody could access cont-</tspan><tspan x="0" dy="46.150000000000006px">-ent on the drive via save code or direct </tspan><tspan x="0" dy="46.150000000000006px">access. NEVER INPUT REAL PASSWORDS </tspan><tspan x="0" dy="46.150000000000006px">INTO POLYOS. It violates Scratch TOS </tspan><tspan x="0" dy="46.150000000000006px">and they could be easily ripped from the</tspan><tspan x="0" dy="46.150000000000006px">drive. Same goes for files or sensitive </tspan><tspan x="0" dy="46.150000000000006px">content. For more information, visit</tspan><tspan x="0" dy="46.150000000000006px">the PolyOS 6 Drive Warning under the </tspan><tspan x="0" dy="46.150000000000006px">support tab on the PolyOS Official web-</tspan><tspan x="0" dy="46.150000000000006px">-site.</tspan></text><text transform="translate(92.50002,38.75002) scale(0.43499,0.43499)" font-size="40" xml:space="preserve" fill="#ffffff" fill-rule="nonzero" stroke="none" stroke-width="1" stroke-linecap="butt" stroke-linejoin="miter" stroke-miterlimit="10" stroke-dasharray="" stroke-dashoffset="0" font-family="Sans Serif" font-weight="normal" text-anchor="start" style="mix-blend-mode: normal"><tspan x="0" dy="0">Drive Warning</tspan></text><path d="M157.9926,197.18495h15.33066v0c8.46691,0 15.33066,6.63294 15.33066,14.81507c0,8.18211 -6.86376,14.81506 -15.33066,14.81506h-15.33066z" fill-opacity="0.6715" fill="#6c6c6c" fill-rule="evenodd" stroke-linecap="square"/><path d="M158.00743,226.81506h-15.33066c-8.46689,0 -15.33067,-6.63294 -15.33067,-14.81506c0,-8.18213 6.86377,-14.81507 15.33067,-14.81507v0h15.33066z" fill-opacity="0.6715" fill="#6c6c6c" fill-rule="evenodd" stroke-linecap="square"/><text transform="translate(143.16411,215.64669) scale(0.30389,0.30389)" font-size="40" xml:space="preserve" fill="#ffffff" fill-rule="nonzero" stroke="none" stroke-width="1" stroke-linecap="butt" stroke-linejoin="miter" stroke-miterlimit="10" stroke-dasharray="" stroke-dashoffset="0" font-family="Sans Serif" font-weight="normal" text-anchor="start" style="mix-blend-mode: normal"><tspan x="0" dy="0">Close</tspan></text></g></g></svg>