<svg version="1.1" xmlns="http://www.w3.org/2000/svg" xmlns:xlink="http://www.w3.org/1999/xlink" width="720" height="540" viewBox="0,0,720,540"><defs><clipPath id="clip-1"><path d="M-120,450v-540h720v540z" fill="none" fill-rule="nonzero" stroke-width="1" stroke-linecap="butt"/></clipPath></defs><g transform="translate(120,90)"><g clip-path="url(#clip-1)" data-paper-data="{&quot;isPaintingLayer&quot;:true}" stroke="none" stroke-linejoin="miter" stroke-miterlimit="10" stroke-dasharray="" stroke-dashoffset="0" style="mix-blend-mode: normal"><path d="M-120.68733,82.95188v0c0,-8.96665 13.73723,-16.23556 30.68296,-16.23556h658.59223c8.13763,0 15.94198,1.71053 21.69614,4.75528c5.75421,3.04477 8.98682,7.17434 8.98682,11.48028v230.19757c0,8.96665 -13.73723,16.23556 -30.68296,16.23556h-658.59223v0c-16.94573,0 -30.68296,-7.26891 -30.68296,-16.23556z" fill-opacity="0.64516" fill="#1d1d1d" fill-rule="evenodd" stroke-width="1" stroke-linecap="square"/><path d="M-240,-180h960v720h-960z" fill-opacity="0" fill="#000000" fill-rule="evenodd" stroke-width="1" stroke-linecap="square"/><path d="M57.10782,87.7494v-13.0625h3.17188v10.26563h5.82813v2.79688zM72.4399,87.9369c-1.03125,0 -1.94791,-0.22396 -2.75,-0.67187c-0.80209,-0.44791 -1.4375,-1.05729 -1.90625,-1.82812c-0.45834,-0.77083 -0.6875,-1.65625 -0.6875,-2.65625c0,-0.98958 0.22916,-1.86979 0.6875,-2.64062c0.46875,-0.77083 1.10416,-1.38021 1.90625,-1.82812c0.80209,-0.44791 1.71875,-0.67187 2.75,-0.67187c1.03125,0 1.94791,0.22396 2.75,0.67188c0.80208,0.44792 1.43229,1.05729 1.89063,1.82813c0.46875,0.77084 0.70313,1.65104 0.70313,2.64063c0,1 -0.23437,1.88542 -0.70312,2.65625c-0.45834,0.77084 -1.08854,1.38021 -1.89062,1.82813c-0.80209,0.44792 -1.71875,0.67188 -2.75,0.67188zM72.4399,85.35877c0.44791,0 0.84375,-0.10937 1.1875,-0.32812c0.35416,-0.22916 0.63021,-0.53646 0.82813,-0.92187c0.19791,-0.38541 0.29166,-0.82812 0.28125,-1.32812c0.01041,-0.48958 -0.08334,-0.93229 -0.28125,-1.32812c-0.19792,-0.39583 -0.47396,-0.70312 -0.82812,-0.92187c-0.34375,-0.22916 -0.73959,-0.34375 -1.1875,-0.34375c-0.44792,0 -0.84896,0.11459 -1.20312,0.34375c-0.35416,0.21875 -0.63021,0.52604 -0.82812,0.92188c-0.19791,0.39584 -0.29166,0.83854 -0.28125,1.32813c-0.01041,0.5 0.08334,0.94271 0.28125,1.32813c0.19791,0.38542 0.47396,0.69271 0.82813,0.92188c0.35416,0.21875 0.75521,0.32813 1.20313,0.32813zM83.39856,87.92127c-0.83333,0 -1.57812,-0.21875 -2.23437,-0.65625c-0.65625,-0.44791 -1.17708,-1.05729 -1.5625,-1.82812c-0.38541,-0.78125 -0.57812,-1.66666 -0.57812,-2.65625c0,-1 0.19271,-1.88541 0.57813,-2.65625c0.38542,-0.77083 0.91146,-1.375 1.57813,-1.8125c0.67709,-0.44791 1.44792,-0.67187 2.3125,-0.67187c0.46875,0 0.89584,0.06771 1.28125,0.20313c0.39584,0.13542 0.74479,0.32813 1.04688,0.57813c0.30209,0.23959 0.55729,0.52084 0.76563,0.84375c0.20834,0.3125 0.36459,0.64584 0.46875,1l-0.625,-0.07812v-2.34375h2.96875v9.90625h-3.01562v-2.39062l0.67188,-0.01562c-0.10416,0.34375 -0.27083,0.67188 -0.5,0.98438c-0.21875,0.3125 -0.48958,0.58854 -0.8125,0.82813c-0.32291,0.22917 -0.68229,0.41667 -1.07812,0.5625c-0.39583,0.13542 -0.81771,0.20313 -1.26562,0.20313zM84.21106,85.40565c0.46875,0 0.86979,-0.10416 1.20313,-0.3125c0.33334,-0.21875 0.59375,-0.52083 0.78125,-0.90625c0.1875,-0.39583 0.28125,-0.86458 0.28125,-1.40625c0,-0.53125 -0.09375,-0.98958 -0.28125,-1.375c-0.1875,-0.39583 -0.44791,-0.70312 -0.78125,-0.92187c-0.33333,-0.21875 -0.73437,-0.32812 -1.20312,-0.32812c-0.44791,0 -0.83854,0.10938 -1.17187,0.32813c-0.32291,0.21875 -0.57812,0.52604 -0.76562,0.92188c-0.1875,0.38542 -0.28125,0.84375 -0.28125,1.375c0,0.54167 0.09375,1.01042 0.28125,1.40625c0.1875,0.38542 0.44271,0.6875 0.76563,0.90625c0.33334,0.20834 0.72396,0.3125 1.17188,0.3125zM95.78678,87.95252c-0.86459,0 -1.63021,-0.21875 -2.29687,-0.65625c-0.65625,-0.44791 -1.17709,-1.05729 -1.5625,-1.82812c-0.38542,-0.78125 -0.57812,-1.66666 -0.57812,-2.65625c0,-1 0.19271,-1.88541 0.57813,-2.65625c0.38541,-0.78125 0.91146,-1.39583 1.57813,-1.84375c0.67708,-0.44791 1.44791,-0.67187 2.3125,-0.67187c0.44791,0 0.875,0.06771 1.28125,0.20313c0.41666,0.13542 0.79166,0.32292 1.125,0.5625c0.33333,0.22917 0.60416,0.5 0.8125,0.8125c0.21875,0.30209 0.34896,0.61459 0.39063,0.9375l-0.71875,0.17188v-6.39062h3v13.8125h-2.76562l-0.17187,-2.25l0.59375,0.07813c-0.04167,0.3125 -0.16667,0.61459 -0.375,0.90625c-0.19792,0.28125 -0.45834,0.53125 -0.78125,0.75c-0.32292,0.21875 -0.69271,0.39063 -1.10937,0.51563c-0.41667,0.13542 -0.85417,0.20313 -1.3125,0.20313zM96.5524,85.46815c0.45833,0 0.85416,-0.10937 1.1875,-0.32812c0.33333,-0.22916 0.58854,-0.54166 0.76563,-0.9375c0.1875,-0.39583 0.28125,-0.85937 0.28125,-1.39062c0,-0.55208 -0.09375,-1.02604 -0.28125,-1.42187c-0.17709,-0.39583 -0.43229,-0.70312 -0.76562,-0.92187c-0.33334,-0.22916 -0.72917,-0.34375 -1.1875,-0.34375c-0.45834,0 -0.85417,0.11459 -1.1875,0.34375c-0.33334,0.21875 -0.59375,0.52604 -0.78125,0.92188c-0.1875,0.39584 -0.28125,0.86979 -0.28125,1.42188c0,0.53125 0.09375,0.99479 0.28125,1.39063c0.1875,0.39584 0.44791,0.70834 0.78125,0.9375c0.33333,0.21875 0.72916,0.32813 1.1875,0.32813z" fill="#ffffff" fill-rule="nonzero" stroke-width="1" stroke-linecap="square"/><path d="M110.15647,133.13553v-7.8043h-2.56489v-1.35918h6.6205v1.35918h-2.64163v7.8043zM115.61229,133.13553v-9.68961h1.34822v4.23099l-0.24115,0.15345c0.08769,-0.29961 0.25941,-0.57728 0.51517,-0.83304c0.25576,-0.26306 0.55536,-0.47499 0.89881,-0.63574c0.35076,-0.16076 0.70882,-0.24115 1.07419,-0.24115c0.52613,0 0.96092,0.10231 1.30437,0.30692c0.35076,0.20461 0.61382,0.51883 0.7892,0.94266c0.17538,0.41652 0.26306,0.94265 0.26306,1.5784v4.18714h-1.34821v-4.09945c0,-0.38729 -0.05115,-0.70881 -0.15346,-0.96457c-0.1023,-0.26307 -0.26306,-0.45307 -0.48229,-0.56998c-0.21922,-0.11692 -0.48959,-0.16807 -0.81112,-0.15345c-0.26306,0 -0.50421,0.04385 -0.72343,0.13153c-0.21922,0.08039 -0.40921,0.1973 -0.56997,0.35075c-0.16076,0.14615 -0.28865,0.31788 -0.38363,0.51517c-0.08769,0.19 -0.13153,0.39826 -0.13153,0.62479v4.16522h-0.66863c-0.10961,0 -0.22287,0 -0.33979,0c-0.11692,0 -0.23018,0 -0.33979,0zM126.60003,133.26706c-0.70151,0 -1.32629,-0.1498 -1.87435,-0.4494c-0.54075,-0.29961 -0.96823,-0.71247 -1.28244,-1.23861c-0.30691,-0.52613 -0.46036,-1.12898 -0.46036,-1.80857c0,-0.54075 0.08768,-1.034 0.26306,-1.47975c0.17538,-0.44574 0.41652,-0.82939 0.72343,-1.15091c0.30691,-0.32883 0.67593,-0.58093 1.10707,-0.75631c0.43845,-0.18268 0.90978,-0.27402 1.41399,-0.27402c0.44576,0 0.85862,0.08403 1.2386,0.25211c0.3873,0.16808 0.71978,0.4019 0.99746,0.70151c0.28499,0.29961 0.50421,0.65401 0.65767,1.06323c0.15346,0.4019 0.22653,0.84035 0.21922,1.31533l-0.01096,0.58094h-5.61208l-0.30691,-1.07419h4.74616l-0.18634,0.21922v-0.30692c-0.02922,-0.29229 -0.12787,-0.5517 -0.29595,-0.77823c-0.16076,-0.22652 -0.36902,-0.40556 -0.62479,-0.53709c-0.25575,-0.13153 -0.52979,-0.19729 -0.82208,-0.19729c-0.47498,0 -0.87324,0.09134 -1.19476,0.27403c-0.32152,0.17538 -0.56632,0.43845 -0.73439,0.7892c-0.16076,0.34345 -0.24114,0.76727 -0.24114,1.27148c0,0.47499 0.09865,0.89151 0.29595,1.24957c0.1973,0.35075 0.47863,0.62479 0.84401,0.82209c0.37268,0.18999 0.7965,0.28499 1.27148,0.28499c0.34345,0 0.66132,-0.0548 0.95362,-0.16442c0.2923,-0.11692 0.61017,-0.32518 0.95362,-0.62477l0.67959,0.95362c-0.21192,0.21192 -0.46767,0.39826 -0.76728,0.55902c-0.29961,0.15345 -0.61747,0.27769 -0.95362,0.37268c-0.33613,0.08769 -0.66862,0.13153 -0.99745,0.13153zM137.02409,133.26706c-0.57728,0 -1.09612,-0.09865 -1.55648,-0.29595c-0.46036,-0.20461 -0.844,-0.50421 -1.15091,-0.89881l0.90977,-0.77823c0.26307,0.29961 0.54806,0.51883 0.85496,0.65766c0.31421,0.13154 0.66863,0.1973 1.06323,0.1973c0.15346,0 0.29595,-0.01827 0.42748,-0.05481c0.13884,-0.03654 0.25941,-0.09499 0.36172,-0.17537c0.1023,-0.08039 0.17903,-0.17538 0.23019,-0.28499c0.05114,-0.10961 0.07673,-0.23018 0.07673,-0.36171c0,-0.22652 -0.08403,-0.40922 -0.2521,-0.54805c-0.08769,-0.05847 -0.22653,-0.12423 -0.41652,-0.1973c-0.18268,-0.07307 -0.42383,-0.1498 -0.72343,-0.23018c-0.50421,-0.13154 -0.91707,-0.27769 -1.2386,-0.43845c-0.32153,-0.16808 -0.56998,-0.35806 -0.74536,-0.56997c-0.13154,-0.16808 -0.23019,-0.34711 -0.29595,-0.5371c-0.05847,-0.1973 -0.08768,-0.41652 -0.08768,-0.65767c0,-0.28499 0.06211,-0.54805 0.18634,-0.7892c0.13154,-0.24115 0.30692,-0.44939 0.52614,-0.62477c0.22653,-0.18268 0.48958,-0.32153 0.78919,-0.41652c0.2996,-0.09499 0.62113,-0.14249 0.96458,-0.14249c0.32153,0 0.6394,0.04385 0.95362,0.13153c0.32153,0.08769 0.61747,0.21556 0.88785,0.38364c0.27037,0.16076 0.49691,0.35441 0.67959,0.58094l-0.76728,0.85497c-0.16807,-0.16807 -0.35075,-0.31421 -0.54806,-0.43844c-0.1973,-0.12423 -0.39825,-0.21922 -0.60286,-0.28499c-0.1973,-0.07307 -0.37633,-0.10961 -0.53709,-0.10961c-0.18268,0 -0.35075,0.01827 -0.50421,0.05481c-0.14615,0.02922 -0.27038,0.08038 -0.37268,0.15345c-0.095,0.06576 -0.17172,0.15345 -0.23018,0.26306c-0.05115,0.10231 -0.07672,0.21922 -0.07672,0.35076c0.00731,0.10961 0.03653,0.21556 0.08768,0.31787c0.05114,0.10231 0.12058,0.18635 0.20827,0.25211c0.09499,0.07307 0.23749,0.1498 0.42748,0.23019c0.18999,0.07307 0.43479,0.14615 0.7344,0.21922c0.43114,0.10961 0.7892,0.23384 1.07419,0.37268c0.28499,0.13153 0.51152,0.28498 0.67959,0.46036c0.17538,0.16808 0.29595,0.36173 0.36172,0.58095c0.07307,0.21922 0.10961,0.46402 0.10961,0.7344c0,0.38729 -0.11326,0.73805 -0.33979,1.05227c-0.21922,0.30691 -0.51883,0.54805 -0.89881,0.72343c-0.37267,0.17538 -0.7892,0.26306 -1.24957,0.26306zM143.64378,133.26706c-0.56267,0 -1.07784,-0.15711 -1.54551,-0.47133c-0.46767,-0.31421 -0.844,-0.7417 -1.12899,-1.28244c-0.27768,-0.54075 -0.41652,-1.15091 -0.41652,-1.8305c0,-0.69421 0.14249,-1.30803 0.42748,-1.84147c0.28499,-0.53343 0.66863,-0.95361 1.15092,-1.26052c0.4896,-0.30691 1.034,-0.46037 1.63321,-0.46037c0.35807,0 0.68324,0.05481 0.97554,0.16442c0.29961,0.10231 0.55902,0.24845 0.77824,0.43845c0.22653,0.18268 0.40922,0.39825 0.54806,0.64671c0.14615,0.24115 0.23749,0.50056 0.27403,0.77824l-0.29594,-0.09865v-1.78665h1.35917v6.87261h-1.35917v-1.6332l0.30691,-0.09865c-0.05114,0.24114 -0.1571,0.47499 -0.31786,0.70151c-0.16076,0.21922 -0.36537,0.41652 -0.61383,0.5919c-0.24845,0.16808 -0.52248,0.30691 -0.82208,0.41652c-0.2996,0.10231 -0.61747,0.15345 -0.95361,0.15345zM143.99453,132.02846c0.41652,0 0.77824,-0.09865 1.08515,-0.29595c0.31422,-0.2046 0.55902,-0.48228 0.7344,-0.83304c0.18268,-0.35806 0.27403,-0.76362 0.27403,-1.21668c0,-0.44575 -0.09134,-0.844 -0.27402,-1.19476c-0.17538,-0.35076 -0.42018,-0.62478 -0.73439,-0.82208c-0.30691,-0.20461 -0.66862,-0.30691 -1.08514,-0.30691c-0.4019,0 -0.75632,0.10231 -1.06323,0.30691c-0.30691,0.1973 -0.55171,0.47133 -0.73439,0.82209c-0.17538,0.35075 -0.26306,0.74901 -0.26306,1.19476c0,0.45307 0.08768,0.85862 0.26306,1.21669c0.18268,0.35075 0.42749,0.62844 0.7344,0.83304c0.30691,0.1973 0.66132,0.29595 1.06323,0.29595zM151.37644,133.13553l-2.90469,-6.87261h1.45783l2.09357,5.14076l-0.2521,0.12057l2.23606,-5.26133h1.39206l-3.04718,6.87261zM159.63279,133.26706c-0.70151,0 -1.32629,-0.1498 -1.87434,-0.4494c-0.54075,-0.29961 -0.96823,-0.71247 -1.28245,-1.23861c-0.30691,-0.52613 -0.46037,-1.12898 -0.46037,-1.80857c0,-0.54075 0.08769,-1.034 0.26307,-1.47975c0.17538,-0.44574 0.41653,-0.82939 0.72343,-1.15091c0.30691,-0.32883 0.67594,-0.58093 1.10708,-0.75631c0.43845,-0.18268 0.90977,-0.27402 1.41398,-0.27402c0.44574,0 0.85862,0.08403 1.23861,0.25211c0.38729,0.16808 0.71978,0.4019 0.99746,0.70151c0.28499,0.29961 0.50421,0.65401 0.65766,1.06323c0.15346,0.4019 0.22653,0.84035 0.21922,1.31533l-0.01096,0.58094h-5.61208l-0.30691,-1.07419h4.74616l-0.18634,0.21922v-0.30692c-0.02922,-0.29229 -0.12787,-0.5517 -0.29594,-0.77823c-0.16076,-0.22652 -0.36903,-0.40556 -0.62478,-0.53709c-0.25576,-0.13153 -0.52978,-0.19729 -0.82207,-0.19729c-0.47499,0 -0.87323,0.09134 -1.19476,0.27403c-0.32153,0.17538 -0.56632,0.43845 -0.73439,0.7892c-0.16076,0.34345 -0.24114,0.76727 -0.24114,1.27148c0,0.47499 0.09865,0.89151 0.29595,1.24957c0.1973,0.35075 0.47863,0.62479 0.84401,0.82209c0.37267,0.18999 0.7965,0.28499 1.27149,0.28499c0.34345,0 0.66132,-0.0548 0.95362,-0.16442c0.29229,-0.11692 0.61017,-0.32518 0.95362,-0.62477l0.67959,0.95362c-0.21192,0.21192 -0.46767,0.39826 -0.76728,0.55902c-0.29961,0.15345 -0.61747,0.27769 -0.95361,0.37268c-0.33614,0.08769 -0.66862,0.13153 -0.99746,0.13153zM170.05685,133.26706c-0.57728,0 -1.09611,-0.09865 -1.55648,-0.29595c-0.46036,-0.20461 -0.844,-0.50421 -1.15091,-0.89881l0.90977,-0.77823c0.26307,0.29961 0.54806,0.51883 0.85496,0.65766c0.31421,0.13154 0.66863,0.1973 1.06323,0.1973c0.15346,0 0.29595,-0.01827 0.42748,-0.05481c0.13884,-0.03654 0.25941,-0.09499 0.36172,-0.17537c0.1023,-0.08039 0.17903,-0.17538 0.23018,-0.28499c0.05114,-0.10961 0.07674,-0.23018 0.07674,-0.36171c0,-0.22652 -0.08404,-0.40922 -0.25211,-0.54805c-0.08769,-0.05847 -0.22653,-0.12423 -0.41652,-0.1973c-0.18268,-0.07307 -0.42384,-0.1498 -0.72344,-0.23018c-0.50421,-0.13154 -0.91707,-0.27769 -1.2386,-0.43845c-0.32153,-0.16808 -0.56997,-0.35806 -0.74535,-0.56997c-0.13154,-0.16808 -0.23018,-0.34711 -0.29595,-0.5371c-0.05847,-0.1973 -0.08769,-0.41652 -0.08769,-0.65767c0,-0.28499 0.06211,-0.54805 0.18634,-0.7892c0.13154,-0.24115 0.30691,-0.44939 0.52613,-0.62477c0.22653,-0.18268 0.48959,-0.32153 0.7892,-0.41652c0.2996,-0.09499 0.62113,-0.14249 0.96458,-0.14249c0.32153,0 0.6394,0.04385 0.95362,0.13153c0.32153,0.08769 0.61748,0.21556 0.88785,0.38364c0.27037,0.16076 0.49691,0.35441 0.67959,0.58094l-0.76728,0.85497c-0.16807,-0.16807 -0.35075,-0.31421 -0.54806,-0.43844c-0.1973,-0.12423 -0.39825,-0.21922 -0.60286,-0.28499c-0.1973,-0.07307 -0.37633,-0.10961 -0.53709,-0.10961c-0.18268,0 -0.35075,0.01827 -0.50421,0.05481c-0.14615,0.02922 -0.27038,0.08038 -0.37268,0.15345c-0.095,0.06576 -0.17172,0.15345 -0.23018,0.26306c-0.05115,0.10231 -0.07672,0.21922 -0.07672,0.35076c0.00731,0.10961 0.03653,0.21556 0.08769,0.31787c0.05114,0.10231 0.12058,0.18635 0.20827,0.25211c0.09499,0.07307 0.23749,0.1498 0.42748,0.23019c0.18999,0.07307 0.43479,0.14615 0.7344,0.21922c0.43114,0.10961 0.7892,0.23384 1.07419,0.37268c0.28499,0.13153 0.51152,0.28498 0.67959,0.46036c0.17538,0.16808 0.29595,0.36173 0.36172,0.58095c0.07307,0.21922 0.10961,0.46402 0.10961,0.7344c0,0.38729 -0.11326,0.73805 -0.33979,1.05227c-0.21922,0.30691 -0.51883,0.54805 -0.89881,0.72343c-0.37267,0.17538 -0.7892,0.26306 -1.24957,0.26306zM175.18584,136.14983l1.39206,-3.21159l0.01096,1.07419l-3.43082,-7.7495h1.56744l2.14837,5.05308c0.04385,0.08769 0.09499,0.22287 0.15346,0.40556c0.06576,0.17538 0.12058,0.35075 0.16442,0.52613l-0.33979,0.07673c0.06576,-0.18268 0.13153,-0.36538 0.1973,-0.54806c0.06576,-0.18268 0.12788,-0.36537 0.18634,-0.54805l1.79762,-4.96538h1.60032l-2.82796,6.87262l-1.16188,3.0143zM183.79871,133.26706c-0.57728,0 -1.09611,-0.09865 -1.55648,-0.29595c-0.46036,-0.20461 -0.84401,-0.50421 -1.15091,-0.89881l0.90977,-0.77823c0.26307,0.29961 0.54806,0.51883 0.85497,0.65766c0.31422,0.13154 0.66863,0.1973 1.06323,0.1973c0.15346,0 0.29595,-0.01827 0.42748,-0.05481c0.13885,-0.03654 0.25941,-0.09499 0.36172,-0.17537c0.1023,-0.08039 0.17903,-0.17538 0.23019,-0.28499c0.05115,-0.10961 0.07673,-0.23018 0.07673,-0.36171c0,-0.22652 -0.08403,-0.40922 -0.2521,-0.54805c-0.08769,-0.05847 -0.22653,-0.12423 -0.41652,-0.1973c-0.18268,-0.07307 -0.42383,-0.1498 -0.72343,-0.23018c-0.50421,-0.13154 -0.91707,-0.27769 -1.2386,-0.43845c-0.32153,-0.16808 -0.56997,-0.35806 -0.74535,-0.56997c-0.13154,-0.16808 -0.23018,-0.34711 -0.29595,-0.5371c-0.05846,-0.1973 -0.08769,-0.41652 -0.08769,-0.65767c0,-0.28499 0.06211,-0.54805 0.18634,-0.7892c0.13154,-0.24115 0.30691,-0.44939 0.52613,-0.62477c0.22653,-0.18268 0.4896,-0.32153 0.7892,-0.41652c0.2996,-0.09499 0.62113,-0.14249 0.96457,-0.14249c0.32153,0 0.6394,0.04385 0.95362,0.13153c0.32153,0.08769 0.61748,0.21556 0.88786,0.38364c0.27038,0.16076 0.4969,0.35441 0.67959,0.58094l-0.76727,0.85497c-0.16807,-0.16807 -0.35075,-0.31421 -0.54806,-0.43844c-0.1973,-0.12423 -0.39826,-0.21922 -0.60286,-0.28499c-0.1973,-0.07307 -0.37633,-0.10961 -0.53709,-0.10961c-0.18268,0 -0.35075,0.01827 -0.50421,0.05481c-0.14614,0.02922 -0.27038,0.08038 -0.37268,0.15345c-0.095,0.06576 -0.17172,0.15345 -0.23018,0.26306c-0.05115,0.10231 -0.07673,0.21922 -0.07673,0.35076c0.00731,0.10961 0.03654,0.21556 0.08769,0.31787c0.05115,0.10231 0.12058,0.18635 0.20827,0.25211c0.095,0.07307 0.23749,0.1498 0.42748,0.23019c0.18999,0.07307 0.43479,0.14615 0.7344,0.21922c0.43114,0.10961 0.7892,0.23384 1.07419,0.37268c0.28499,0.13153 0.51152,0.28498 0.67959,0.46036c0.17538,0.16808 0.29595,0.36173 0.36172,0.58095c0.07307,0.21922 0.10961,0.46402 0.10961,0.7344c0,0.38729 -0.11326,0.73805 -0.33979,1.05227c-0.21922,0.30691 -0.51883,0.54805 -0.89881,0.72343c-0.37267,0.17538 -0.7892,0.26306 -1.24956,0.26306zM188.63175,133.13553v-8.62638h1.34822v8.62639zM187.19584,127.57825v-1.31533h4.37348v1.31533zM195.93755,133.26706c-0.70151,0 -1.32629,-0.1498 -1.87434,-0.4494c-0.54075,-0.29961 -0.96823,-0.71247 -1.28245,-1.23861c-0.30691,-0.52613 -0.46037,-1.12898 -0.46037,-1.80857c0,-0.54075 0.08769,-1.034 0.26307,-1.47975c0.17538,-0.44574 0.41653,-0.82939 0.72343,-1.15091c0.30691,-0.32883 0.67594,-0.58093 1.10708,-0.75631c0.43845,-0.18268 0.90977,-0.27402 1.41398,-0.27402c0.44574,0 0.85862,0.08403 1.23861,0.25211c0.38729,0.16808 0.71978,0.4019 0.99747,0.70151c0.28499,0.29961 0.50421,0.65401 0.65766,1.06323c0.15346,0.4019 0.22653,0.84035 0.21922,1.31533l-0.01096,0.58094h-5.61209l-0.30691,-1.07419h4.74616l-0.18634,0.21922v-0.30692c-0.02923,-0.29229 -0.12787,-0.5517 -0.29594,-0.77823c-0.16076,-0.22652 -0.36903,-0.40556 -0.62478,-0.53709c-0.25576,-0.13153 -0.52979,-0.19729 -0.82208,-0.19729c-0.47499,0 -0.87323,0.09134 -1.19475,0.27403c-0.32153,0.17538 -0.56632,0.43845 -0.73439,0.7892c-0.16076,0.34345 -0.24114,0.76727 -0.24114,1.27148c0,0.47499 0.09865,0.89151 0.29595,1.24957c0.1973,0.35075 0.47863,0.62479 0.84401,0.82209c0.37267,0.18999 0.7965,0.28499 1.27149,0.28499c0.34345,0 0.66132,-0.0548 0.95362,-0.16442c0.29229,-0.11692 0.61017,-0.32518 0.95362,-0.62477l0.67959,0.95362c-0.21192,0.21192 -0.46768,0.39826 -0.76728,0.55902c-0.2996,0.15345 -0.61748,0.27769 -0.95361,0.37268c-0.33614,0.08769 -0.66862,0.13153 -0.99746,0.13153zM200.38431,133.13553v-6.87261h1.35917v1.46879l-0.2521,0.15345c0.07307,-0.22652 0.18267,-0.4421 0.32883,-0.6467c0.15346,-0.21192 0.3398,-0.39825 0.55902,-0.55901c0.22653,-0.16076 0.46767,-0.28865 0.72343,-0.38363c0.26307,-0.10231 0.52979,-0.15346 0.80017,-0.15346c0.38729,0 0.73073,0.06576 1.03034,0.1973c0.29961,0.13153 0.5444,0.32884 0.7344,0.5919c0.19,0.26306 0.32883,0.59189 0.41652,0.98649l-0.20825,-0.0548l0.08768,-0.21922c0.10231,-0.20461 0.23749,-0.3946 0.40556,-0.56998c0.16807,-0.18268 0.36173,-0.34346 0.58095,-0.48229c0.21922,-0.13884 0.4494,-0.24844 0.69054,-0.32883c0.24845,-0.08039 0.48959,-0.12057 0.72343,-0.12057c0.51152,0 0.93535,0.10595 1.27149,0.31788c0.33614,0.21192 0.58825,0.53344 0.75632,0.96458c0.17538,0.42382 0.26307,0.95361 0.26307,1.58936v4.12138h-1.35917v-4.04465c0,-0.3946 -0.05115,-0.71613 -0.15346,-0.96458c-0.10231,-0.24844 -0.25577,-0.43114 -0.46037,-0.54805c-0.1973,-0.12423 -0.45306,-0.18633 -0.76727,-0.18633c-0.24114,0 -0.47133,0.04385 -0.69055,0.13153c-0.21192,0.08039 -0.39825,0.19364 -0.55901,0.33979c-0.15346,0.14616 -0.27402,0.31788 -0.36171,0.51517c-0.08039,0.1973 -0.12057,0.41287 -0.12057,0.64671v4.11042h-1.37014v-4.06657c0,-0.35806 -0.05115,-0.66132 -0.15346,-0.90976c-0.10231,-0.24845 -0.25576,-0.43845 -0.46036,-0.56998c-0.1973,-0.13153 -0.4421,-0.1973 -0.73439,-0.1973c-0.24114,0 -0.46768,0.04385 -0.67959,0.13153c-0.20461,0.08039 -0.38729,0.19364 -0.54805,0.33979c-0.15346,0.13884 -0.27402,0.30691 -0.36171,0.50421c-0.08769,0.1973 -0.13153,0.40922 -0.13153,0.63574v4.13234z" fill="#ffffff" fill-rule="nonzero" stroke-width="1" stroke-linecap="square"/><path d="M219.3071,133.19691c-0.70151,0 -1.32629,-0.14981 -1.87435,-0.44941c-0.54075,-0.29961 -0.96823,-0.71247 -1.28244,-1.2386c-0.30691,-0.52613 -0.46036,-1.12899 -0.46036,-1.80857c0,-0.54075 0.08768,-1.034 0.26306,-1.47975c0.17538,-0.44575 0.41653,-0.82939 0.72344,-1.15091c0.30691,-0.32883 0.67593,-0.58093 1.10707,-0.75631c0.43845,-0.18268 0.90977,-0.27403 1.41398,-0.27403c0.44574,0 0.85862,0.08404 1.23861,0.25211c0.38729,0.16808 0.71978,0.4019 0.99747,0.70151c0.28499,0.29961 0.50421,0.65401 0.65767,1.06323c0.15346,0.4019 0.22653,0.84034 0.21922,1.31533l-0.01096,0.58095h-5.61208l-0.30692,-1.07419h4.74616l-0.18634,0.21922v-0.30691c-0.02922,-0.29229 -0.12787,-0.55171 -0.29594,-0.77824c-0.16076,-0.22652 -0.36902,-0.40555 -0.62478,-0.53709c-0.25576,-0.13153 -0.52979,-0.1973 -0.82208,-0.1973c-0.47499,0 -0.87323,0.09135 -1.19476,0.27403c-0.32153,0.17538 -0.56632,0.43844 -0.73439,0.78919c-0.16076,0.34345 -0.24115,0.76728 -0.24115,1.27149c0,0.47499 0.09866,0.89151 0.29596,1.24956c0.1973,0.35076 0.47863,0.62479 0.84401,0.82209c0.37267,0.19 0.7965,0.28499 1.27148,0.28499c0.34345,0 0.66132,-0.0548 0.95362,-0.16441c0.29229,-0.11692 0.61017,-0.32518 0.95362,-0.62478l0.67959,0.95362c-0.21192,0.21192 -0.46766,0.39826 -0.76727,0.55902c-0.29961,0.15345 -0.61748,0.27769 -0.95361,0.37268c-0.33614,0.08769 -0.66862,0.13153 -0.99746,0.13153zM223.77577,133.06538v-6.87261h1.34822v1.41399l-0.24115,0.15345c0.08769,-0.29961 0.25941,-0.57728 0.51517,-0.83304c0.25576,-0.26306 0.55536,-0.47498 0.89881,-0.63574c0.35075,-0.16076 0.70881,-0.24115 1.07419,-0.24115c0.52614,0 0.96093,0.10231 1.30437,0.30691c0.35075,0.20461 0.61382,0.51883 0.7892,0.94266c0.17538,0.41652 0.26307,0.94265 0.26307,1.5784v4.18714h-1.34822v-4.09945c0,-0.38729 -0.05114,-0.70881 -0.15345,-0.96458c-0.10231,-0.26306 -0.26307,-0.45306 -0.48229,-0.56998c-0.21922,-0.11692 -0.48959,-0.16808 -0.81112,-0.15346c-0.26307,0 -0.50421,0.04385 -0.72343,0.13153c-0.21922,0.08039 -0.40922,0.1973 -0.56998,0.35076c-0.16076,0.14615 -0.28865,0.31787 -0.38363,0.51517c-0.08769,0.18999 -0.13153,0.39826 -0.13153,0.62479v4.16522h-0.66862c-0.10961,0 -0.22287,0 -0.33979,0c-0.11692,0 -0.23018,0 -0.33979,0zM234.47852,133.19691c-0.63575,0 -1.20573,-0.15711 -1.70994,-0.47133c-0.49691,-0.31422 -0.8915,-0.7417 -1.18379,-1.28244c-0.2923,-0.54075 -0.43845,-1.14726 -0.43845,-1.81955c0,-0.67229 0.14614,-1.27879 0.43845,-1.81954c0.29229,-0.54075 0.68688,-0.96823 1.18379,-1.28245c0.50421,-0.31422 1.07419,-0.47132 1.70994,-0.47132c0.61382,0 1.16917,0.12423 1.66609,0.37268c0.50421,0.24845 0.88786,0.58825 1.15092,1.01938l-0.74536,0.90977c-0.13885,-0.1973 -0.31787,-0.37998 -0.53709,-0.54806c-0.21922,-0.16808 -0.45306,-0.29961 -0.70151,-0.3946c-0.24114,-0.09499 -0.47499,-0.14249 -0.70151,-0.14249c-0.41652,0 -0.7892,0.10231 -1.11803,0.30691c-0.32883,0.20461 -0.58825,0.48594 -0.77823,0.844c-0.19,0.35806 -0.28499,0.75998 -0.28499,1.20573c0,0.44574 0.09865,0.84766 0.29595,1.20572c0.2046,0.35075 0.47133,0.63208 0.80016,0.844c0.32883,0.20461 0.6942,0.30692 1.09611,0.30692c0.24114,0 0.47133,-0.04019 0.69055,-0.12057c0.21922,-0.08039 0.43479,-0.1973 0.6467,-0.35075c0.21191,-0.16076 0.40922,-0.35441 0.5919,-0.58094l0.74535,0.92073c-0.27768,0.3946 -0.67593,0.71978 -1.19475,0.97555c-0.51883,0.24845 -1.05958,0.37268 -1.62224,0.37268zM241.65573,133.19691c-0.67228,0 -1.27515,-0.15346 -1.80858,-0.46037c-0.52614,-0.31421 -0.94266,-0.73805 -1.24956,-1.27148c-0.2996,-0.54075 -0.4494,-1.15458 -0.4494,-1.84147c0,-0.68689 0.1498,-1.29706 0.44941,-1.8305c0.30691,-0.54075 0.72343,-0.96458 1.24956,-1.27149c0.53343,-0.31422 1.1363,-0.47132 1.80858,-0.47132c0.65767,0 1.24956,0.15711 1.7757,0.47133c0.53343,0.30691 0.95362,0.73073 1.26053,1.27148c0.30691,0.53343 0.46036,1.14361 0.46036,1.83051c0,0.68689 -0.15346,1.30071 -0.46036,1.84146c-0.30691,0.53343 -0.72708,0.95727 -1.26052,1.27149c-0.52614,0.30691 -1.11803,0.46036 -1.7757,0.46036zM241.65573,131.96927c0.40922,0 0.77458,-0.10231 1.09611,-0.30691c0.32153,-0.2046 0.57364,-0.48229 0.75632,-0.83304c0.18268,-0.35806 0.27037,-0.75998 0.26306,-1.20572c0.00731,-0.45306 -0.08038,-0.85496 -0.26306,-1.20572c-0.18268,-0.35806 -0.43479,-0.63574 -0.75632,-0.83304c-0.32153,-0.20461 -0.68689,-0.30691 -1.09611,-0.30691c-0.40922,0 -0.77823,0.10231 -1.10707,0.30691c-0.32883,0.20461 -0.5846,0.48595 -0.76728,0.84401c-0.18268,0.35076 -0.27037,0.74901 -0.26306,1.19476c-0.00731,0.44575 0.08038,0.84767 0.26306,1.20573c0.18268,0.35075 0.43845,0.62844 0.76728,0.83304c0.32883,0.2046 0.69786,0.30691 1.10708,0.30691zM249.02499,133.19691c-0.48959,0 -0.91707,-0.11327 -1.28244,-0.33979c-0.35806,-0.22653 -0.63574,-0.54441 -0.83304,-0.95362c-0.1973,-0.40922 -0.29595,-0.89881 -0.29595,-1.46878v-4.24195h1.34822v3.88023c0,0.3946 0.06211,0.73806 0.18634,1.03035c0.13154,0.29229 0.31422,0.51882 0.54806,0.67959c0.24114,0.15345 0.53344,0.23019 0.87689,0.23019c0.24845,0 0.47863,-0.04019 0.69055,-0.12057c0.21192,-0.08039 0.3946,-0.19365 0.54806,-0.33979c0.15346,-0.15345 0.27037,-0.33248 0.35075,-0.53709c0.08769,-0.21192 0.13154,-0.4421 0.13154,-0.69054v-4.13233h1.34822v6.87261h-1.34822v-1.4359l0.24114,-0.16441c-0.10231,0.32883 -0.27768,0.62479 -0.52613,0.88786c-0.24845,0.25576 -0.5444,0.46036 -0.88784,0.61382c-0.34345,0.15346 -0.70881,0.23019 -1.09611,0.23019zM254.53153,133.06538v-6.87261h1.34822v1.41399l-0.24114,0.15345c0.08769,-0.29961 0.25941,-0.57728 0.51517,-0.83304c0.25576,-0.26306 0.55536,-0.47498 0.89881,-0.63574c0.35075,-0.16076 0.70881,-0.24115 1.07418,-0.24115c0.52614,0 0.96093,0.10231 1.30438,0.30691c0.35075,0.20461 0.61382,0.51883 0.7892,0.94266c0.17538,0.41652 0.26306,0.94265 0.26306,1.5784v4.18714h-1.34821v-4.09945c0,-0.38729 -0.05115,-0.70881 -0.15346,-0.96458c-0.10231,-0.26306 -0.26307,-0.45306 -0.48229,-0.56998c-0.21922,-0.11692 -0.48959,-0.16808 -0.81112,-0.15346c-0.26307,0 -0.50421,0.04385 -0.72343,0.13153c-0.21922,0.08039 -0.40921,0.1973 -0.56997,0.35076c-0.16076,0.14615 -0.28865,0.31787 -0.38363,0.51517c-0.08769,0.18999 -0.13154,0.39826 -0.13154,0.62479v4.16522h-0.66862c-0.10961,0 -0.22288,0 -0.3398,0c-0.11692,0 -0.23018,0 -0.33979,0zM263.17358,133.06538v-8.62638h1.34822v8.62638zM261.73768,127.5081v-1.31533h4.37348v1.31533zM270.4794,133.19691c-0.70151,0 -1.32629,-0.14981 -1.87435,-0.44941c-0.54075,-0.29961 -0.96823,-0.71247 -1.28244,-1.2386c-0.30691,-0.52613 -0.46037,-1.12899 -0.46037,-1.80857c0,-0.54075 0.08769,-1.034 0.26307,-1.47975c0.17538,-0.44575 0.41652,-0.82939 0.72343,-1.15091c0.30691,-0.32883 0.67593,-0.58093 1.10708,-0.75631c0.43845,-0.18268 0.90978,-0.27403 1.41399,-0.27403c0.44576,0 0.85863,0.08404 1.23861,0.25211c0.38729,0.16808 0.71978,0.4019 0.99746,0.70151c0.28499,0.29961 0.50423,0.65401 0.65768,1.06323c0.15346,0.4019 0.22652,0.84034 0.21922,1.31533l-0.01096,0.58095h-5.6121l-0.30691,-1.07419h4.74616l-0.18633,0.21922v-0.30691c-0.02922,-0.29229 -0.12788,-0.55171 -0.29595,-0.77824c-0.16076,-0.22652 -0.36902,-0.40555 -0.62478,-0.53709c-0.25576,-0.13153 -0.52979,-0.1973 -0.82208,-0.1973c-0.47498,0 -0.87323,0.09135 -1.19475,0.27403c-0.32153,0.17538 -0.56632,0.43844 -0.73439,0.78919c-0.16076,0.34345 -0.24114,0.76728 -0.24114,1.27149c0,0.47499 0.09865,0.89151 0.29595,1.24956c0.1973,0.35076 0.47864,0.62479 0.84401,0.82209c0.37268,0.19 0.79651,0.28499 1.27149,0.28499c0.34345,0 0.66131,-0.0548 0.95361,-0.16441c0.2923,-0.11692 0.61017,-0.32518 0.95362,-0.62478l0.67961,0.95362c-0.21192,0.21192 -0.46767,0.39826 -0.76729,0.55902c-0.2996,0.15345 -0.61748,0.27769 -0.95362,0.37268c-0.33614,0.08769 -0.66862,0.13153 -0.99746,0.13153zM274.94807,133.06538v-6.87261h1.35918v2.15934l-0.13153,-0.52613c0.09499,-0.32883 0.25941,-0.62844 0.49325,-0.89881c0.23384,-0.27037 0.50056,-0.48229 0.80016,-0.63574c0.29961,-0.16076 0.61017,-0.24115 0.9317,-0.24115c0.14616,0 0.28499,0.01462 0.41652,0.04385c0.13883,0.02192 0.24845,0.05114 0.32884,0.08768l-0.35076,1.46879c-0.10231,-0.04385 -0.21922,-0.08039 -0.35076,-0.10961c-0.12423,-0.03654 -0.24844,-0.0548 -0.37267,-0.0548c-0.23384,0 -0.45672,0.0475 -0.66863,0.1425c-0.21192,0.08769 -0.4019,0.21556 -0.56997,0.38364c-0.16076,0.16076 -0.28864,0.3471 -0.38363,0.55902c-0.09499,0.21192 -0.14249,0.44574 -0.14249,0.70151v3.79254zM283.13489,133.19691c-0.70151,0 -1.32629,-0.14981 -1.87434,-0.44941c-0.54075,-0.29961 -0.96823,-0.71247 -1.28244,-1.2386c-0.30691,-0.52613 -0.46037,-1.12899 -0.46037,-1.80857c0,-0.54075 0.08768,-1.034 0.26306,-1.47975c0.17538,-0.44575 0.41652,-0.82939 0.72343,-1.15091c0.30691,-0.32883 0.67593,-0.58093 1.10708,-0.75631c0.43845,-0.18268 0.90978,-0.27403 1.41399,-0.27403c0.44574,0 0.85863,0.08404 1.23861,0.25211c0.38729,0.16808 0.71978,0.4019 0.99746,0.70151c0.28499,0.29961 0.50421,0.65401 0.65767,1.06323c0.15346,0.4019 0.22652,0.84034 0.21922,1.31533l-0.01096,0.58095h-5.61208l-0.30691,-1.07419h4.74616l-0.18634,0.21922v-0.30691c-0.02923,-0.29229 -0.12787,-0.55171 -0.29594,-0.77824c-0.16077,-0.22652 -0.36903,-0.40555 -0.62478,-0.53709c-0.25576,-0.13153 -0.52979,-0.1973 -0.82208,-0.1973c-0.47499,0 -0.87323,0.09135 -1.19475,0.27403c-0.32153,0.17538 -0.56632,0.43844 -0.73439,0.78919c-0.16077,0.34345 -0.24115,0.76728 -0.24115,1.27149c0,0.47499 0.09865,0.89151 0.29595,1.24956c0.1973,0.35076 0.47864,0.62479 0.84401,0.82209c0.37268,0.19 0.7965,0.28499 1.27149,0.28499c0.34344,0 0.66132,-0.0548 0.95362,-0.16441c0.29229,-0.11692 0.61017,-0.32518 0.95362,-0.62478l0.67959,0.95362c-0.21192,0.21192 -0.46768,0.39826 -0.76728,0.55902c-0.29961,0.15345 -0.61747,0.27769 -0.95361,0.37268c-0.33614,0.08769 -0.66862,0.13153 -0.99746,0.13153zM290.46443,133.19691c-0.62844,0 -1.18745,-0.15346 -1.67705,-0.46037c-0.48959,-0.31421 -0.88054,-0.73805 -1.17283,-1.27148c-0.28499,-0.54075 -0.42748,-1.15458 -0.42748,-1.84147c0,-0.68689 0.13883,-1.29706 0.41652,-1.8305c0.28499,-0.54075 0.67229,-0.96458 1.16188,-1.27149c0.48959,-0.31422 1.04496,-0.47132 1.66609,-0.47132c0.33614,0 0.66497,0.05481 0.9865,0.16442c0.32153,0.10961 0.60652,0.25941 0.85496,0.44941c0.25576,0.18268 0.45307,0.3873 0.5919,0.61382c0.14616,0.21922 0.21922,0.4421 0.21922,0.66863l-0.3946,0.03288v-4.60366h1.34822v9.68961h-1.34821v-1.6332h0.26306c0,0.20461 -0.06942,0.41287 -0.20826,0.62479c-0.13883,0.2046 -0.32518,0.3946 -0.55901,0.56998c-0.22652,0.16807 -0.49324,0.30691 -0.80015,0.41652c-0.29961,0.10231 -0.60652,0.15346 -0.92074,0.15346zM290.65076,132.03503c0.40922,0 0.77093,-0.10595 1.08515,-0.31787c0.31421,-0.21192 0.55902,-0.4969 0.7344,-0.85496c0.18268,-0.36538 0.27403,-0.77824 0.27403,-1.23861c0,-0.46036 -0.09134,-0.86958 -0.27402,-1.22764c-0.17538,-0.36538 -0.42018,-0.65402 -0.73439,-0.86593c-0.31421,-0.21192 -0.67594,-0.31787 -1.08515,-0.31787c-0.40922,0 -0.77093,0.10595 -1.08515,0.31788c-0.31421,0.21192 -0.56267,0.50056 -0.74535,0.86594c-0.17538,0.35806 -0.26307,0.76728 -0.26307,1.22764c0,0.46037 0.08769,0.87324 0.26307,1.23861c0.18268,0.35806 0.43114,0.64305 0.74535,0.85497c0.31421,0.21192 0.67593,0.31787 1.08515,0.31787zM302.20723,133.19691c-0.56266,0 -1.07784,-0.15711 -1.54551,-0.47133c-0.46767,-0.31422 -0.844,-0.7417 -1.12899,-1.28244c-0.27768,-0.54075 -0.41652,-1.15091 -0.41652,-1.8305c0,-0.69421 0.1425,-1.30803 0.42749,-1.84146c0.28499,-0.53343 0.66863,-0.95361 1.15092,-1.26053c0.4896,-0.30691 1.03399,-0.46036 1.6332,-0.46036c0.35807,0 0.68324,0.05481 0.97555,0.16442c0.29961,0.10231 0.55902,0.24845 0.77824,0.43845c0.22653,0.18268 0.40922,0.39825 0.54806,0.64671c0.14616,0.24115 0.23749,0.50056 0.27403,0.77824l-0.29595,-0.09865v-1.78666h1.35917v6.87261h-1.35917v-1.6332l0.30691,-0.09865c-0.05115,0.24114 -0.15711,0.47499 -0.31787,0.70151c-0.16076,0.21922 -0.36537,0.41652 -0.61382,0.5919c-0.24845,0.16807 -0.52248,0.30691 -0.82208,0.41652c-0.2996,0.10231 -0.61748,0.15346 -0.95361,0.15346zM302.55798,131.95831c0.41652,0 0.77824,-0.09865 1.08515,-0.29595c0.31422,-0.2046 0.55901,-0.48229 0.7344,-0.83304c0.18268,-0.35806 0.27404,-0.76362 0.27404,-1.21668c0,-0.44574 -0.09134,-0.844 -0.27402,-1.19475c-0.17538,-0.35076 -0.42018,-0.62478 -0.73439,-0.82208c-0.30691,-0.20461 -0.66863,-0.30691 -1.08515,-0.30691c-0.4019,0 -0.75631,0.10231 -1.06322,0.30691c-0.30691,0.1973 -0.55171,0.47133 -0.73439,0.82209c-0.17538,0.35075 -0.26306,0.74901 -0.26306,1.19477c0,0.45306 0.08768,0.85862 0.26306,1.21668c0.18268,0.35075 0.42749,0.62843 0.7344,0.83304c0.30691,0.1973 0.66132,0.29596 1.06323,0.29596zM307.85002,133.06538v-6.87261h1.34822v1.41399l-0.24115,0.15345c0.08769,-0.29961 0.25941,-0.57728 0.51517,-0.83304c0.25576,-0.26306 0.55536,-0.47498 0.89881,-0.63574c0.35075,-0.16076 0.70882,-0.24115 1.07419,-0.24115c0.52614,0 0.96092,0.10231 1.30437,0.30691c0.35075,0.20461 0.61381,0.51883 0.7892,0.94266c0.17538,0.41652 0.26307,0.94265 0.26307,1.5784v4.18714h-1.34822v-4.09945c0,-0.38729 -0.05115,-0.70881 -0.15346,-0.96458c-0.10231,-0.26306 -0.26307,-0.45306 -0.48229,-0.56998c-0.21922,-0.11692 -0.4896,-0.16808 -0.81112,-0.15346c-0.26306,0 -0.50421,0.04385 -0.72343,0.13153c-0.21922,0.08039 -0.40921,0.1973 -0.56997,0.35076c-0.16076,0.14615 -0.28865,0.31787 -0.38364,0.51517c-0.08769,0.18999 -0.13153,0.39826 -0.13153,0.62479v4.16522h-0.66862c-0.10961,0 -0.22288,0 -0.3398,0c-0.11692,0 -0.23018,0 -0.33979,0zM322.50227,133.19691c-0.70151,0 -1.32629,-0.14981 -1.87435,-0.44941c-0.54075,-0.29961 -0.96823,-0.71247 -1.28244,-1.2386c-0.30691,-0.52613 -0.46037,-1.12899 -0.46037,-1.80857c0,-0.54075 0.08768,-1.034 0.26306,-1.47975c0.17538,-0.44575 0.41652,-0.82939 0.72343,-1.15091c0.30691,-0.32883 0.67593,-0.58093 1.10708,-0.75631c0.43845,-0.18268 0.90978,-0.27403 1.41399,-0.27403c0.44574,0 0.85862,0.08404 1.23861,0.25211c0.38729,0.16808 0.71978,0.4019 0.99746,0.70151c0.28499,0.29961 0.50421,0.65401 0.65767,1.06323c0.15346,0.4019 0.22653,0.84034 0.21922,1.31533l-0.01096,0.58095h-5.61208l-0.30692,-1.07419h4.74616l-0.18634,0.21922v-0.30691c-0.02922,-0.29229 -0.12787,-0.55171 -0.29594,-0.77824c-0.16076,-0.22652 -0.36903,-0.40555 -0.62478,-0.53709c-0.25576,-0.13153 -0.52979,-0.1973 -0.82208,-0.1973c-0.47499,0 -0.87323,0.09135 -1.19475,0.27403c-0.32153,0.17538 -0.56632,0.43844 -0.73439,0.78919c-0.16076,0.34345 -0.24115,0.76728 -0.24115,1.27149c0,0.47499 0.09866,0.89151 0.29595,1.24956c0.1973,0.35076 0.47864,0.62479 0.84401,0.82209c0.37268,0.19 0.7965,0.28499 1.27148,0.28499c0.34345,0 0.66132,-0.0548 0.95362,-0.16441c0.29229,-0.11692 0.61017,-0.32518 0.95362,-0.62478l0.67959,0.95362c-0.21192,0.21192 -0.46767,0.39826 -0.76728,0.55902c-0.29961,0.15345 -0.61747,0.27769 -0.95361,0.37268c-0.33614,0.08769 -0.66862,0.13153 -0.99746,0.13153zM326.97094,133.06538v-6.87261h1.35918v2.15934l-0.13154,-0.52613c0.09499,-0.32883 0.25942,-0.62844 0.49326,-0.89881c0.23384,-0.27037 0.50056,-0.48229 0.80016,-0.63574c0.29961,-0.16076 0.61016,-0.24115 0.93169,-0.24115c0.14616,0 0.28499,0.01462 0.41652,0.04385c0.13883,0.02192 0.24845,0.05114 0.32884,0.08768l-0.35075,1.46879c-0.10231,-0.04385 -0.21922,-0.08039 -0.35076,-0.10961c-0.12423,-0.03654 -0.24845,-0.0548 -0.37268,-0.0548c-0.23384,0 -0.45671,0.0475 -0.66862,0.1425c-0.21192,0.08769 -0.4019,0.21556 -0.56998,0.38364c-0.16076,0.16076 -0.28865,0.3471 -0.38364,0.55902c-0.09499,0.21192 -0.14249,0.44574 -0.14249,0.70151v3.79254zM332.24522,133.06538v-6.87261h1.35917v2.15934l-0.13153,-0.52613c0.09499,-0.32883 0.25941,-0.62844 0.49325,-0.89881c0.23384,-0.27037 0.50056,-0.48229 0.80016,-0.63574c0.29961,-0.16076 0.61017,-0.24115 0.9317,-0.24115c0.14616,0 0.28499,0.01462 0.41652,0.04385c0.13883,0.02192 0.24845,0.05114 0.32883,0.08768l-0.35076,1.46879c-0.10231,-0.04385 -0.21922,-0.08039 -0.35075,-0.10961c-0.12423,-0.03654 -0.24845,-0.0548 -0.37268,-0.0548c-0.23384,0 -0.45672,0.0475 -0.66863,0.1425c-0.21192,0.08769 -0.4019,0.21556 -0.56997,0.38364c-0.16076,0.16076 -0.28864,0.3471 -0.38363,0.55902c-0.09499,0.21192 -0.14249,0.44574 -0.14249,0.70151v3.79254zM340.32244,133.19691c-0.67228,0 -1.27514,-0.15346 -1.80858,-0.46037c-0.52614,-0.31421 -0.94266,-0.73805 -1.24957,-1.27148c-0.29961,-0.54075 -0.4494,-1.15458 -0.4494,-1.84147c0,-0.68689 0.1498,-1.29706 0.44941,-1.8305c0.30691,-0.54075 0.72343,-0.96458 1.24957,-1.27149c0.53343,-0.31422 1.1363,-0.47132 1.80858,-0.47132c0.65767,0 1.24956,0.15711 1.77569,0.47133c0.53343,0.30691 0.95362,0.73073 1.26053,1.27148c0.30691,0.53343 0.46037,1.14361 0.46037,1.83051c0,0.68689 -0.15346,1.30071 -0.46037,1.84146c-0.30691,0.53343 -0.72708,0.95727 -1.26052,1.27149c-0.52614,0.30691 -1.11804,0.46036 -1.7757,0.46036zM340.32244,131.96927c0.40921,0 0.77458,-0.10231 1.09611,-0.30691c0.32153,-0.2046 0.57364,-0.48229 0.75632,-0.83304c0.18268,-0.35806 0.27037,-0.75998 0.26306,-1.20572c0.0073,-0.45306 -0.08038,-0.85496 -0.26306,-1.20572c-0.18268,-0.35806 -0.43479,-0.63574 -0.75631,-0.83304c-0.32153,-0.20461 -0.6869,-0.30691 -1.09611,-0.30691c-0.40922,0 -0.77823,0.10231 -1.10707,0.30691c-0.32884,0.20461 -0.5846,0.48595 -0.76728,0.84401c-0.18268,0.35076 -0.27038,0.74901 -0.26306,1.19476c-0.00731,0.44575 0.08038,0.84767 0.26306,1.20573c0.18268,0.35075 0.43844,0.62844 0.76728,0.83304c0.32884,0.2046 0.69786,0.30691 1.10708,0.30691zM345.28027,133.06538v-6.87261h1.35917v2.15934l-0.13153,-0.52613c0.095,-0.32883 0.25941,-0.62844 0.49325,-0.89881c0.23384,-0.27037 0.50056,-0.48229 0.80016,-0.63574c0.29961,-0.16076 0.61016,-0.24115 0.93169,-0.24115c0.14616,0 0.28499,0.01462 0.41652,0.04385c0.13885,0.02192 0.24845,0.05114 0.32883,0.08768l-0.35076,1.46879c-0.1023,-0.04385 -0.21922,-0.08039 -0.35075,-0.10961c-0.12423,-0.03654 -0.24844,-0.0548 -0.37267,-0.0548c-0.23383,0 -0.45672,0.0475 -0.66863,0.1425c-0.21191,0.08769 -0.4019,0.21556 -0.56997,0.38364c-0.16076,0.16076 -0.28865,0.3471 -0.38364,0.55902c-0.09499,0.21192 -0.14249,0.44574 -0.14249,0.70151v3.79254zM351.1026,133.19691c-0.28499,0 -0.50787,-0.08404 -0.66863,-0.25211c-0.15346,-0.16808 -0.23018,-0.40921 -0.23018,-0.72343c0,-0.29229 0.08038,-0.52979 0.24114,-0.71247c0.16807,-0.18268 0.38729,-0.27402 0.65767,-0.27402c0.2923,0 0.51517,0.08769 0.66863,0.26307c0.16077,0.16807 0.24115,0.40921 0.24115,0.72343c0,0.28499 -0.08403,0.51883 -0.2521,0.70151c-0.16807,0.18268 -0.38729,0.27403 -0.65767,0.27403zM351.1026,128.02327c-0.28499,0 -0.50787,-0.08403 -0.66863,-0.2521c-0.15346,-0.16808 -0.23018,-0.40922 -0.23018,-0.72343c0,-0.29229 0.08038,-0.52979 0.24114,-0.71247c0.16807,-0.18268 0.38729,-0.27402 0.65767,-0.27402c0.2923,0 0.51517,0.08768 0.66863,0.26306c0.16077,0.16808 0.24115,0.40922 0.24115,0.72343c0,0.28499 -0.08403,0.51883 -0.2521,0.70151c-0.16807,0.18268 -0.38729,0.27403 -0.65767,0.27403z" fill="#ffffff" fill-rule="nonzero" stroke-width="1" stroke-linecap="square"/><text transform="translate(32.39751,317.0557) scale(0.28153,0.28153)" font-size="40" xml:space="preserve" fill="#ffffff" fill-rule="nonzero" stroke="none" stroke-width="1" stroke-linecap="butt" stroke-linejoin="miter" stroke-miterlimit="10" stroke-dasharray="" stroke-dashoffset="0" font-family="Sans Serif" font-weight="normal" text-anchor="start" style="mix-blend-mode: normal"><tspan x="0" dy="0">Developers: You can see more details about the error in the System.Logs list</tspan></text><path d="M174.5,289v-35h108v35z" fill-opacity="0.72581" fill="#565656" fill-rule="nonzero" stroke-width="0" stroke-linecap="butt"/><text transform="translate(185.5,275.75764) scale(0.34766,0.34766)" font-size="40" xml:space="preserve" fill="#ffffff" fill-rule="nonzero" stroke="none" stroke-width="1" stroke-linecap="butt" stroke-linejoin="miter" stroke-miterlimit="10" stroke-dasharray="" stroke-dashoffset="0" font-family="Sans Serif" font-weight="normal" text-anchor="start" style="mix-blend-mode: normal"><tspan x="0" dy="0">Boot Anyway</tspan></text></g></g></svg>