<svg version="1.1" xmlns="http://www.w3.org/2000/svg" xmlns:xlink="http://www.w3.org/1999/xlink" width="85.50205" height="84.19585" viewBox="0,0,85.50205,84.19585"><g transform="translate(-197.24898,-137.90207)"><g data-paper-data="{&quot;isPaintingLayer&quot;:true}" stroke="none" stroke-width="1" stroke-linejoin="miter" stroke-miterlimit="10" stroke-dasharray="" stroke-dashoffset="0" style="mix-blend-mode: normal"><path d="M197.24898,146.66854v0c0,-4.84159 3.92488,-8.76647 8.76647,-8.76647h67.96911c2.32501,0 4.5548,0.92362 6.19882,2.56764c1.64403,1.64403 2.56765,3.87382 2.56765,6.19882v66.66292c0,4.8416 -3.92489,8.76647 -8.76647,8.76647h-67.96911c-4.84159,0 -8.76647,-3.92488 -8.76647,-8.76647z" fill-opacity="0.00706" fill="#202020" fill-rule="evenodd" stroke-linecap="square"/><path d="M259.50903,170.24549v29.26354c0,2.68249 -2.19477,4.87725 -4.87726,4.87725h-29.28793c-2.68249,0 -4.85287,-2.19476 -4.85287,-4.87725l0.02438,-39.01806c0,-2.68249 2.17039,-4.87725 4.85288,-4.87725h19.50902zM254.63177,172.68412h-12.19314v-12.19314h-17.0704v39.01806h29.26354zM240.02439,177.56137l9.73013,9.7789l-3.43847,3.46285l-3.87742,-3.87742v10.1447h-4.87726v-10.1447l-3.87742,3.85304l-3.43847,-3.43847z" fill="#ffffff" fill-rule="nonzero" stroke-linecap="butt"/></g></g></svg>