<svg xmlns="http://www.w3.org/2000/svg" xmlns:xlink="http://www.w3.org/1999/xlink" stroke-miterlimit="10" stroke-linecap="square" stroke="none" fill="none" viewBox="0.0 0.0 960.0 720.0" version="1.1"><clipPath id="p.0"><path clip-rule="nonzero" d="m0 0l960.0 0l0 720.0l-960.0 0l0 -720.0z"></path></clipPath><g clip-path="url(#p.0)"><path fill-rule="evenodd" d="m0 0l960.0 0l0 720.0l-960.0 0z" fill-opacity="0.0" fill="#000000"></path><path fill-rule="evenodd" d="m328.58267 66.14173l47.46457 0l0 617.3228l-47.46457 0z" fill-opacity="0.0" fill="#000000"></path><path fill-rule="nonzero" d="m340.39517 87.285484l0 -7.5625l0.5 1.125l-2.0 0.953125l-0.390625 -2.03125l2.65625 -1.296875l1.453125 0l0 8.8125l-2.21875 0zm-1.703125 0.65625l0 -2.0l5.671875 0l0 2.0l-5.671875 0z" fill="#000000"></path><path fill-rule="nonzero" d="m338.36392 103.941734l-0.4375 -1.09375l2.71875 -2.96875q0.234375 -0.25 0.5 -0.5625q0.265625 -0.328125 0.515625 -0.671875q0.25 -0.34375 0.40625 -0.65625q0.15625 -0.328125 0.15625 -0.59375q0 -0.265625 -0.125 -0.453125q-0.125 -0.203125 -0.359375 -0.3125q-0.21875 -0.125 -0.5625 -0.125q-0.296875 0 -0.578125 0.15625q-0.28125 0.15625 -0.53125 0.484375q-0.25 0.3125 -0.453125 0.765625l-1.6875 -0.90625q0.28125 -0.765625 0.796875 -1.359375q0.515625 -0.59375 1.203125 -0.921875q0.6875 -0.328125 1.484375 -0.328125q0.828125 0.015625 1.484375 0.359375q0.671875 0.34375 1.0625 0.953125q0.390625 0.59375 0.390625 1.40625q0 0.28125 -0.0625 0.59375q-0.0625 0.296875 -0.203125 0.625q-0.125 0.328125 -0.34375 0.703125q-0.21875 0.359375 -0.53125 0.765625q-0.3125 0.390625 -0.71875 0.84375l-2.125 2.3125l-0.265625 -1.015625l4.671875 0l0 2.0l-6.40625 0z" fill="#000000"></path><path fill-rule="nonzero" d="m341.4108 120.08236q-1.140625 0 -1.984375 -0.46875q-0.84375 -0.484375 -1.53125 -1.640625l1.625 -1.0625q0.28125 0.46875 0.59375 0.75q0.328125 0.28125 0.65625 0.40625q0.34375 0.125 0.71875 0.125q0.375 0 0.6875 -0.15625q0.3125 -0.171875 0.5 -0.46875q0.203125 -0.3125 0.203125 -0.703125q0 -0.40625 -0.171875 -0.6875q-0.171875 -0.296875 -0.484375 -0.4375q-0.3125 -0.15625 -0.75 -0.15625q-0.203125 0 -0.4375 0.046875q-0.21875 0.046875 -0.46875 0.125q-0.25 0.078125 -0.515625 0.21875l-0.5 -1.328125l2.265625 -2.453125l0.609375 0.328125l-3.890625 -0.078125l0 -1.90625l5.734375 0l0.421875 0.828125l-3.078125 3.296875l-0.546875 -0.625q0.109375 -0.046875 0.359375 -0.09375q0.25 -0.046875 0.46875 -0.046875q0.625 0 1.171875 0.234375q0.546875 0.21875 0.96875 0.625q0.4375 0.390625 0.671875 0.9375q0.25 0.53125 0.25 1.140625q0 0.9375 -0.484375 1.671875q-0.46875 0.71875 -1.28125 1.15625q-0.796875 0.421875 -1.78125 0.421875z" fill="#000000"></path><path fill-rule="nonzero" d="m342.23892 135.94174l0 -7.546875l1.203125 0.03125l-3.359375 4.125l-0.328125 -0.390625l6.1875 0l0 1.859375l-7.203125 0l-0.90625 -1.75l4.765625 -5.7343826l1.828125 0l0 9.406258l-2.1875 0z" fill="#000000"></path><path fill-rule="nonzero" d="m341.3483 152.03549q-1.0625 0 -1.921875 -0.421875q-0.859375 -0.4375 -1.421875 -1.234375l1.21875 -1.328125q0.546875 0.59375 1.015625 0.8125q0.46875 0.21875 1.03125 0.21875q0.4375 0 0.765625 -0.171875q0.328125 -0.171875 0.515625 -0.484375q0.203125 -0.3125 0.203125 -0.703125q0 -0.390625 -0.203125 -0.703125q-0.1875 -0.3125 -0.515625 -0.5q-0.328125 -0.1875 -0.75 -0.1875q-0.296875 0 -0.578125 0.0625q-0.265625 0.046875 -0.5625 0.171875q-0.296875 0.125 -0.703125 0.359375l-0.96875 -1.28125l0.578125 -4.109375l5.359375 0l0 1.90625l-4.28125 0l0.578125 -0.75l-0.4375 2.953125l-0.796875 -0.265625q0.25 -0.21875 0.609375 -0.390625q0.375 -0.171875 0.796875 -0.28125q0.4375 -0.125 0.859375 -0.125q0.875 0 1.578125 0.40625q0.703125 0.40625 1.109375 1.125q0.421875 0.71875 0.421875 1.65625q0 0.921875 -0.46875 1.671875q-0.46875 0.734375 -1.25 1.171875q-0.78125 0.421875 -1.78125 0.421875z" fill="#000000"></path><path fill-rule="nonzero" d="m341.50455 167.94174q-0.71875 0 -1.359375 -0.25q-0.625 -0.265625 -1.09375 -0.71875q-0.46875 -0.46875 -0.75 -1.078125q-0.265625 -0.625 -0.265625 -1.328125q0 -0.484375 0.109375 -0.9375q0.109375 -0.46875 0.296875 -0.9375q0.1875 -0.484375 0.453125 -0.984375q0.28125 -0.5 0.625 -1.0625l1.296875 -2.171875l2.09375 0l0.0625 0.125l-1.8125 2.859375q-0.359375 0.546875 -0.609375 1.046875q-0.25 0.484375 -0.453125 0.96875q-0.203125 0.46875 -0.390625 1.0l-0.4375 -0.921875q0.140625 -0.453125 0.421875 -0.84375q0.296875 -0.40625 0.6875 -0.6875q0.40625 -0.28125 0.828125 -0.4375q0.421875 -0.15625 0.84375 -0.15625q0.78125 0 1.4375 0.421875q0.671875 0.421875 1.0625 1.109375q0.40625 0.6875 0.40625 1.515625q0 0.984375 -0.453125 1.78125q-0.4375 0.78125 -1.21875 1.234375q-0.78125 0.453125 -1.78125 0.453125zm0.015625 -1.859375q0.4375 0 0.765625 -0.1875q0.328125 -0.1875 0.5 -0.53125q0.1875 -0.34375 0.1875 -0.78125q0 -0.375 -0.1875 -0.703125q-0.1875 -0.328125 -0.515625 -0.53125q-0.328125 -0.203125 -0.734375 -0.203125q-0.421875 0 -0.765625 0.203125q-0.328125 0.1875 -0.515625 0.515625q-0.1875 0.3125 -0.1875 0.71875q0 0.421875 0.1875 0.765625q0.1875 0.34375 0.515625 0.546875q0.328125 0.1875 0.75 0.1875z" fill="#000000"></path><path fill-rule="nonzero" d="m338.70767 183.94174l3.71875 -8.5l0.640625 1.0625l-4.875 0l0 -1.96875l6.078125 0l0.21875 1.078125l-3.515625 8.328125l-2.265625 0z" fill="#000000"></path><path fill-rule="nonzero" d="m341.56705 199.98862q-0.953125 0 -1.734375 -0.359375q-0.78125 -0.375 -1.25 -1.0q-0.46875 -0.640625 -0.46875 -1.421875q0 -0.515625 0.125 -0.9375q0.140625 -0.421875 0.40625 -0.75q0.28125 -0.328125 0.671875 -0.5625q0.390625 -0.234375 0.90625 -0.375l-0.15625 0.53125q-0.375 -0.140625 -0.6875 -0.34375q-0.296875 -0.21875 -0.515625 -0.484375q-0.21875 -0.28125 -0.328125 -0.59375q-0.109375 -0.328125 -0.109375 -0.6875q0 -0.734375 0.40625 -1.3125q0.421875 -0.578125 1.140625 -0.890625q0.71875 -0.328125 1.59375 -0.328125q0.859375 0 1.578125 0.328125q0.71875 0.3125 1.140625 0.890625q0.421875 0.578125 0.421875 1.3125q0 0.359375 -0.109375 0.6875q-0.09375 0.3125 -0.3125 0.578125q-0.21875 0.25 -0.53125 0.46875q-0.296875 0.21875 -0.6875 0.375l-0.125 -0.46875q0.453125 0.109375 0.828125 0.328125q0.390625 0.21875 0.671875 0.546875q0.28125 0.328125 0.4375 0.75q0.15625 0.421875 0.15625 0.9375q0 0.796875 -0.46875 1.421875q-0.46875 0.625 -1.265625 1.0q-0.78125 0.359375 -1.734375 0.359375zm0 -1.796875q0.375 0 0.65625 -0.140625q0.296875 -0.15625 0.46875 -0.40625q0.1875 -0.25 0.1875 -0.578125q0 -0.34375 -0.171875 -0.609375q-0.171875 -0.265625 -0.46875 -0.40625q-0.296875 -0.15625 -0.671875 -0.15625q-0.375 0 -0.671875 0.15625q-0.28125 0.140625 -0.46875 0.40625q-0.171875 0.265625 -0.171875 0.609375q0 0.3125 0.171875 0.578125q0.1875 0.25 0.46875 0.40625q0.296875 0.140625 0.671875 0.140625zm0 -4.09375q0.328125 0 0.578125 -0.125q0.265625 -0.140625 0.40625 -0.359375q0.15625 -0.21875 0.15625 -0.515625q0 -0.28125 -0.15625 -0.5q-0.140625 -0.234375 -0.40625 -0.359375q-0.25 -0.140625 -0.578125 -0.140625q-0.328125 0 -0.59375 0.140625q-0.265625 0.125 -0.40625 0.359375q-0.140625 0.21875 -0.140625 0.5q0 0.296875 0.140625 0.515625q0.140625 0.21875 0.40625 0.359375q0.265625 0.125 0.59375 0.125z" fill="#000000"></path><path fill-rule="nonzero" d="m340.3483 215.94174l-0.046875 -0.140625l2.921875 -5.890625l0.390625 0.8125q-0.140625 0.46875 -0.4375 0.859375q-0.296875 0.390625 -0.703125 0.671875q-0.40625 0.28125 -0.84375 0.4375q-0.4375 0.15625 -0.828125 0.15625q-0.765625 0 -1.40625 -0.40625q-0.640625 -0.421875 -1.03125 -1.109375q-0.375 -0.6875 -0.375 -1.515625q0 -0.953125 0.453125 -1.734375q0.453125 -0.78125 1.234375 -1.234375q0.796875 -0.46875 1.78125 -0.46875q0.71875 0 1.34375 0.265625q0.625 0.25 1.09375 0.703125q0.484375 0.4375 0.75 1.03125q0.265625 0.578125 0.265625 1.234375q0 0.484375 -0.078125 0.9375q-0.078125 0.453125 -0.25 0.9375q-0.171875 0.484375 -0.40625 1.0q-0.234375 0.515625 -0.546875 1.140625l-1.171875 2.3125l-2.109375 0zm1.0 -4.875q0.40625 0 0.71875 -0.1875q0.328125 -0.1875 0.5 -0.5q0.1875 -0.3125 0.1875 -0.703125q0 -0.40625 -0.1875 -0.734375q-0.171875 -0.328125 -0.484375 -0.515625q-0.3125 -0.1875 -0.734375 -0.1875q-0.390625 0 -0.703125 0.1875q-0.296875 0.171875 -0.484375 0.5q-0.171875 0.328125 -0.171875 0.75q0 0.359375 0.171875 0.671875q0.1875 0.3125 0.5 0.515625q0.3125 0.203125 0.6875 0.203125z" fill="#000000"></path><path fill-rule="nonzero" d="m342.06705 232.08237q-1.25 0 -2.140625 -0.578125q-0.875 -0.578125 -1.34375 -1.640625q-0.46875 -1.078125 -0.46875 -2.59375q0 -1.5 0.46875 -2.5625q0.46875 -1.078125 1.34375 -1.65625q0.890625 -0.578125 2.140625 -0.578125q1.265625 0 2.15625 0.578125q0.890625 0.578125 1.359375 1.65625q0.46875 1.0625 0.46875 2.5625q0 1.515625 -0.46875 2.59375q-0.46875 1.0625 -1.359375 1.640625q-0.890625 0.578125 -2.15625 0.578125zm0 -1.921875q0.875 0 1.34375 -0.75q0.46875 -0.75 0.46875 -2.140625q0 -1.421875 -0.46875 -2.1875q-0.46875 -0.765625 -1.34375 -0.765625q-0.859375 0 -1.34375 0.765625q-0.46875 0.765625 -0.46875 2.1875q0 1.390625 0.46875 2.140625q0.484375 0.75 1.34375 0.75z" fill="#000000"></path><path fill-rule="nonzero" d="m345.7858 249.41049l-3.578125 -4.84375l1.671875 -1.15625l3.53125 4.796875l-1.625 1.203125zm-2.796875 -1.328125q-1.046875 0 -1.9375 -0.359375q-0.875 -0.375 -1.53125 -1.015625q-0.640625 -0.65625 -1.0 -1.53125q-0.359375 -0.890625 -0.359375 -1.9375q0 -1.046875 0.359375 -1.921875q0.359375 -0.890625 1.0 -1.546875q0.65625 -0.65625 1.53125 -1.015625q0.890625 -0.359375 1.9375 -0.359375q1.0625 0 1.9375 0.359375q0.875 0.359375 1.53125 1.015625q0.65625 0.65625 1.0 1.546875q0.359375 0.875 0.359375 1.921875q0 1.03125 -0.359375 1.921875q-0.34375 0.890625 -1.0 1.546875q-0.65625 0.640625 -1.53125 1.015625q-0.875 0.359375 -1.9375 0.359375zm0 -2.140625q0.546875 0 1.0 -0.203125q0.46875 -0.203125 0.8125 -0.5625q0.34375 -0.359375 0.53125 -0.859375q0.1875 -0.5 0.1875 -1.078125q0 -0.59375 -0.1875 -1.078125q-0.1875 -0.5 -0.53125 -0.859375q-0.34375 -0.375 -0.8125 -0.5625q-0.453125 -0.203125 -1.0 -0.203125q-0.546875 0 -1.015625 0.203125q-0.453125 0.1875 -0.796875 0.5625q-0.34375 0.359375 -0.53125 0.859375q-0.171875 0.484375 -0.171875 1.078125q0 0.578125 0.171875 1.078125q0.1875 0.5 0.53125 0.859375q0.34375 0.359375 0.796875 0.5625q0.46875 0.203125 1.015625 0.203125z" fill="#000000"></path><path fill-rule="nonzero" d="m340.44205 263.94174l-2.8125 -9.328125l2.3125 0l1.40625 4.90625q0.09375 0.328125 0.15625 0.671875q0.078125 0.34375 0.125 0.65625q0.046875 0.296875 0.0625 0.5625q0.03125 0.25 0.0625 0.421875l-0.296875 0q0.078125 -0.484375 0.140625 -0.875q0.0625 -0.390625 0.140625 -0.71875q0.078125 -0.34375 0.203125 -0.71875l1.390625 -3.6875l1.8125 0l1.359375 3.6875q0.15625 0.4375 0.265625 0.828125q0.109375 0.375 0.15625 0.734375q0.0625 0.359375 0.109375 0.703125l-0.265625 0.03125q0.015625 -0.234375 0.03125 -0.4375q0.015625 -0.203125 0.03125 -0.390625q0.03125 -0.203125 0.046875 -0.40625q0.03125 -0.21875 0.078125 -0.484375q0.0625 -0.265625 0.15625 -0.59375l1.390625 -4.890625l2.25 0l-2.796875 9.328125l-1.734375 0l-2.21875 -5.375l0.25 0.03125l-2.03125 5.34375l-1.78125 0z" fill="#000000"></path><path fill-rule="nonzero" d="m338.75455 279.94174l0 -9.328125l6.5 0l0 1.9375l-4.296875 0l0 5.453125l4.4375 0l0 1.9375l-6.640625 0zm1.0625 -3.828125l0 -1.84375l4.84375 0l0 1.84375l-4.84375 0z" fill="#000000"></path><path fill-rule="nonzero" d="m338.75455 295.94174l0 -9.328125l4.203125 0q0.890625 0 1.609375 0.390625q0.734375 0.375 1.140625 1.0625q0.421875 0.671875 0.421875 1.515625q0 0.875 -0.421875 1.578125q-0.40625 0.703125 -1.125 1.109375q-0.71875 0.390625 -1.625 0.390625l-2.046875 0l0 3.28125l-2.15625 0zm5.171875 0l-2.375 -4.21875l2.328125 -0.328125l2.640625 4.546875l-2.59375 0zm-3.015625 -5.015625l1.84375 0q0.34375 0 0.59375 -0.140625q0.265625 -0.15625 0.40625 -0.4375q0.140625 -0.28125 0.140625 -0.640625q0 -0.359375 -0.15625 -0.625q-0.15625 -0.28125 -0.46875 -0.421875q-0.296875 -0.15625 -0.71875 -0.15625l-1.640625 0l0 2.421875z" fill="#000000"></path><path fill-rule="nonzero" d="m340.7858 311.94174l0 -7.328125l-2.78125 0l0 -2.0l7.875 0l0 2.0l-2.828125 0l0 7.328125l-2.265625 0z" fill="#000000"></path><path fill-rule="nonzero" d="m341.1608 327.9417l0 -4.65625l0.09375 0.65625l-3.765625 -5.328125l2.578125 0l2.875 4.125l-1.171875 -0.03125l2.59375 -4.09375l2.5 0l-3.609375 5.46875l0.1875 -0.90625l0 4.765625l-2.28125 0z" fill="#000000"></path><path fill-rule="nonzero" d="m342.69205 344.01984q-1.171875 0 -2.078125 -0.46875q-0.90625 -0.46875 -1.421875 -1.296875q-0.5 -0.828125 -0.5 -1.890625l0 -5.75l2.296875 0l0 5.625q0 0.5 0.21875 0.90625q0.234375 0.40625 0.609375 0.640625q0.390625 0.234375 0.875 0.234375q0.5 0 0.890625 -0.234375q0.390625 -0.234375 0.625 -0.640625q0.25 -0.40625 0.25 -0.90625l0 -5.625l2.21875 0l0 5.75q0 1.0625 -0.515625 1.890625q-0.515625 0.828125 -1.421875 1.296875q-0.90625 0.46875 -2.046875 0.46875z" fill="#000000"></path><path fill-rule="nonzero" d="m338.56705 359.9417l0 -1.90625l1.578125 0l0 -5.515625l-1.578125 0l0 -1.90625l5.421875 0l0 1.90625l-1.578125 0l0 5.515625l1.578125 0l0 1.90625l-5.421875 0z" fill="#000000"></path><path fill-rule="nonzero" d="m343.00455 376.08234q-1.0625 0 -1.953125 -0.359375q-0.875 -0.375 -1.53125 -1.015625q-0.640625 -0.65625 -1.0 -1.53125q-0.359375 -0.890625 -0.359375 -1.9375q0 -1.046875 0.359375 -1.921875q0.359375 -0.890625 1.0 -1.546875q0.65625 -0.65625 1.53125 -1.015625q0.890625 -0.359375 1.9375 -0.359375q1.0625 0 1.9375 0.359375q0.875 0.359375 1.53125 1.015625q0.65625 0.65625 1.0 1.546875q0.359375 0.875 0.359375 1.921875q0 1.03125 -0.359375 1.921875q-0.34375 0.890625 -1.0 1.546875q-0.65625 0.640625 -1.53125 1.015625q-0.875 0.359375 -1.921875 0.359375zm-0.015625 -2.140625q0.546875 0 1.0 -0.203125q0.46875 -0.203125 0.8125 -0.5625q0.34375 -0.359375 0.53125 -0.859375q0.1875 -0.5 0.1875 -1.078125q0 -0.59375 -0.1875 -1.078125q-0.1875 -0.5 -0.53125 -0.859375q-0.34375 -0.375 -0.8125 -0.5625q-0.453125 -0.203125 -1.0 -0.203125q-0.546875 0 -1.015625 0.203125q-0.453125 0.1875 -0.796875 0.5625q-0.34375 0.359375 -0.53125 0.859375q-0.171875 0.484375 -0.171875 1.078125q0 0.578125 0.171875 1.078125q0.1875 0.5 0.53125 0.859375q0.34375 0.359375 0.796875 0.5625q0.46875 0.203125 1.015625 0.203125z" fill="#000000"></path><path fill-rule="nonzero" d="m338.75455 391.9417l0 -9.328125l4.03125 0q0.875 0 1.5625 0.40625q0.6875 0.390625 1.09375 1.09375q0.40625 0.6875 0.40625 1.546875q0 0.90625 -0.40625 1.625q-0.40625 0.71875 -1.09375 1.125q-0.6875 0.40625 -1.5625 0.40625l-1.765625 0l0 3.125l-2.265625 0zm2.234375 -5.109375l1.46875 0q0.296875 0 0.53125 -0.140625q0.25 -0.140625 0.390625 -0.390625q0.140625 -0.265625 0.140625 -0.59375q0 -0.34375 -0.140625 -0.578125q-0.140625 -0.25 -0.390625 -0.375q-0.234375 -0.140625 -0.53125 -0.140625l-1.46875 0l0 2.21875z" fill="#000000"></path><path fill-rule="nonzero" d="m337.56705 407.9417l3.6875 -9.328125l1.921875 0l3.671875 9.328125l-2.296875 0l-1.75 -4.734375q-0.109375 -0.28125 -0.21875 -0.59375q-0.109375 -0.328125 -0.21875 -0.65625q-0.109375 -0.34375 -0.203125 -0.671875q-0.09375 -0.328125 -0.171875 -0.609375l0.40625 -0.015625q-0.078125 0.34375 -0.1875 0.671875q-0.09375 0.3125 -0.203125 0.625q-0.09375 0.3125 -0.21875 0.625q-0.109375 0.3125 -0.21875 0.640625l-1.765625 4.71875l-2.234375 0zm1.765625 -1.78125l0.703125 -1.703125l4.296875 0l0.6875 1.703125l-5.6875 0z" fill="#000000"></path><path fill-rule="nonzero" d="m341.8483 424.08234q-0.921875 0 -1.671875 -0.21875q-0.734375 -0.234375 -1.3125 -0.640625q-0.5625 -0.421875 -1.015625 -1.0l1.375 -1.5625q0.671875 0.890625 1.34375 1.203125q0.671875 0.3125 1.390625 0.3125q0.359375 0 0.640625 -0.09375q0.296875 -0.09375 0.453125 -0.265625q0.171875 -0.1875 0.171875 -0.453125q0 -0.203125 -0.109375 -0.359375q-0.09375 -0.171875 -0.265625 -0.28125q-0.171875 -0.125 -0.421875 -0.21875q-0.234375 -0.109375 -0.5 -0.171875q-0.265625 -0.078125 -0.546875 -0.140625q-0.765625 -0.171875 -1.34375 -0.421875q-0.578125 -0.25 -0.953125 -0.609375q-0.375 -0.375 -0.5625 -0.84375q-0.1875 -0.484375 -0.1875 -1.0625q0 -0.625 0.28125 -1.15625q0.28125 -0.53125 0.765625 -0.90625q0.5 -0.375 1.140625 -0.578125q0.640625 -0.21875 1.328125 -0.21875q0.921875 0 1.578125 0.203125q0.65625 0.1875 1.125 0.546875q0.484375 0.359375 0.8125 0.859375l-1.390625 1.359375q-0.28125 -0.359375 -0.609375 -0.578125q-0.328125 -0.234375 -0.703125 -0.34375q-0.359375 -0.125 -0.75 -0.125q-0.390625 0 -0.6875 0.109375q-0.28125 0.09375 -0.453125 0.28125q-0.15625 0.171875 -0.15625 0.421875q0 0.234375 0.140625 0.390625q0.140625 0.15625 0.359375 0.28125q0.234375 0.125 0.515625 0.21875q0.296875 0.078125 0.625 0.140625q0.71875 0.140625 1.3125 0.390625q0.59375 0.234375 1.03125 0.578125q0.4375 0.34375 0.671875 0.828125q0.234375 0.46875 0.234375 1.09375q0 0.96875 -0.484375 1.640625q-0.46875 0.671875 -1.296875 1.03125q-0.8125 0.359375 -1.875 0.359375z" fill="#000000"></path><path fill-rule="nonzero" d="m338.75455 439.9417l0 -9.328125l3.90625 0q1.03125 0 1.875 0.34375q0.859375 0.328125 1.46875 0.96875q0.625 0.625 0.953125 1.484375q0.34375 0.84375 0.34375 1.859375q0 1.03125 -0.34375 1.890625q-0.328125 0.859375 -0.953125 1.484375q-0.609375 0.609375 -1.46875 0.953125q-0.84375 0.34375 -1.875 0.34375l-3.90625 0zm2.265625 -1.546875l-0.3125 -0.453125l1.890625 0q0.5625 0 1.0 -0.1875q0.4375 -0.203125 0.75 -0.546875q0.3125 -0.34375 0.484375 -0.828125q0.171875 -0.5 0.171875 -1.109375q0 -0.59375 -0.171875 -1.078125q-0.171875 -0.5 -0.484375 -0.84375q-0.3125 -0.34375 -0.75 -0.53125q-0.4375 -0.203125 -1.0 -0.203125l-1.921875 0l0.34375 -0.421875l0 6.203125z" fill="#000000"></path><path fill-rule="nonzero" d="m338.75455 455.9417l0 -9.328125l2.265625 0l0 9.328125l-2.265625 0zm1.046875 -3.578125l0 -1.890625l4.828125 0l0 1.890625l-4.828125 0zm0 -3.75l0 -2.0l5.375 0l0 2.0l-5.375 0z" fill="#000000"></path><path fill-rule="nonzero" d="m343.08267 472.08234q-1.109375 0 -2.015625 -0.359375q-0.90625 -0.375 -1.5625 -1.015625q-0.65625 -0.65625 -1.0 -1.546875q-0.34375 -0.890625 -0.34375 -1.921875q0 -1.046875 0.359375 -1.90625q0.375 -0.875 1.046875 -1.53125q0.6875 -0.65625 1.609375 -1.015625q0.921875 -0.359375 2.015625 -0.359375q0.78125 0 1.453125 0.203125q0.6875 0.203125 1.25 0.546875q0.5625 0.34375 0.953125 0.796875l-1.375 1.453125q-0.328125 -0.328125 -0.6875 -0.53125q-0.359375 -0.21875 -0.765625 -0.34375q-0.390625 -0.125 -0.84375 -0.125q-0.578125 0 -1.078125 0.21875q-0.484375 0.203125 -0.84375 0.59375q-0.359375 0.375 -0.5625 0.890625q-0.203125 0.515625 -0.203125 1.109375q0 0.59375 0.203125 1.125q0.21875 0.515625 0.59375 0.890625q0.375 0.375 0.890625 0.609375q0.515625 0.21875 1.09375 0.21875q0.421875 0 0.78125 -0.125q0.375 -0.140625 0.640625 -0.359375q0.265625 -0.234375 0.421875 -0.546875q0.15625 -0.328125 0.15625 -0.6875l0 -0.34375l0.296875 0.453125l-2.578125 0l0 -1.765625l4.390625 0q0.03125 0.140625 0.03125 0.40625q0.015625 0.25 0.015625 0.484375q0.015625 0.234375 0.015625 0.359375q0 0.90625 -0.328125 1.65625q-0.328125 0.75 -0.921875 1.296875q-0.578125 0.546875 -1.375 0.859375q-0.796875 0.3125 -1.734375 0.3125z" fill="#000000"></path><path fill-rule="nonzero" d="m344.5358 487.9417l0 -9.328125l2.265625 0l0 9.328125l-2.265625 0zm-5.78125 0l0 -9.328125l2.265625 0l0 9.328125l-2.265625 0zm0.875 -3.640625l0.015625 -2.03125l6.09375 0l0 2.03125l-6.109375 0z" fill="#000000"></path><path fill-rule="nonzero" d="m341.06705 504.08234q-0.515625 0 -0.96875 -0.125q-0.453125 -0.109375 -0.828125 -0.328125q-0.375 -0.21875 -0.671875 -0.53125q-0.28125 -0.3125 -0.5 -0.703125l1.296875 -1.34375q0.1875 0.28125 0.359375 0.46875q0.171875 0.171875 0.328125 0.296875q0.171875 0.109375 0.34375 0.171875q0.1875 0.046875 0.390625 0.046875q0.328125 0 0.5625 -0.15625q0.25 -0.15625 0.375 -0.421875q0.140625 -0.265625 0.140625 -0.625l0 -4.25l-1.703125 0l0 -1.96875l5.359375 0l0 1.96875l-1.4375 0l0 4.515625q0 0.6875 -0.234375 1.234375q-0.234375 0.546875 -0.65625 0.9375q-0.40625 0.390625 -0.96875 0.609375q-0.546875 0.203125 -1.1875 0.203125z" fill="#000000"></path><path fill-rule="nonzero" d="m340.4108 517.20734l-0.59375 -1.90625l4.625 -4.6875l2.6875 0l-6.71875 6.59375zm-1.65625 2.734375l0 -9.328125l2.265625 0l0 9.328125l-2.265625 0zm5.984375 0l-3.46875 -4.5625l1.53125 -1.3125l4.578125 5.875l-2.640625 0z" fill="#000000"></path><path fill-rule="nonzero" d="m338.75455 535.9417l0 -9.328125l2.265625 0l0 7.328125l4.15625 0l0 2.0l-6.421875 0z" fill="#000000"></path><path fill-rule="nonzero" d="m338.37955 551.9417l0 -1.5l5.015625 -6.671875l0.78125 0.921875l-5.453125 0l0 -2.078125l7.046875 0l0 1.484375l-4.984375 6.6875l-0.796875 -0.828125l5.921875 0l0 1.984375l-7.53125 0z" fill="#000000"></path><path fill-rule="nonzero" d="m344.23892 567.9417l-2.890625 -4.1875l-3.71875 -5.140625l2.765625 0l2.828125 4.125l3.765625 5.203125l-2.75 0zm-6.671875 0l3.5625 -5.078125l1.828125 1.046875l-2.765625 4.03125l-2.625 0zm5.859375 -4.328125l-1.8125 -1.015625l2.625 -3.984375l2.625 0l-3.4375 5.0z" fill="#000000"></path><path fill-rule="nonzero" d="m342.98892 584.08234q-1.046875 0 -1.9375 -0.359375q-0.890625 -0.359375 -1.546875 -1.0q-0.640625 -0.640625 -1.0 -1.53125q-0.34375 -0.890625 -0.34375 -1.953125q0 -1.046875 0.359375 -1.921875q0.375 -0.875 1.03125 -1.515625q0.671875 -0.65625 1.5625 -1.015625q0.90625 -0.359375 1.96875 -0.359375q0.671875 0 1.3125 0.171875q0.640625 0.171875 1.1875 0.515625q0.5625 0.34375 0.953125 0.796875l-1.375 1.59375q-0.28125 -0.296875 -0.609375 -0.515625q-0.3125 -0.21875 -0.6875 -0.328125q-0.359375 -0.125 -0.796875 -0.125q-0.53125 0 -1.0 0.1875q-0.46875 0.1875 -0.828125 0.546875q-0.34375 0.359375 -0.546875 0.875q-0.203125 0.5 -0.203125 1.125q0 0.609375 0.203125 1.109375q0.203125 0.5 0.5625 0.859375q0.359375 0.359375 0.859375 0.546875q0.515625 0.1875 1.140625 0.1875q0.4375 0 0.8125 -0.125q0.390625 -0.125 0.71875 -0.328125q0.328125 -0.203125 0.578125 -0.46875l1.09375 1.734375q-0.328125 0.375 -0.890625 0.671875q-0.546875 0.28125 -1.21875 0.453125q-0.671875 0.171875 -1.359375 0.171875z" fill="#000000"></path><path fill-rule="nonzero" d="m341.36392 599.9417l-3.734375 -9.328125l2.359375 0l1.8125 4.75q0.15625 0.421875 0.265625 0.734375q0.109375 0.296875 0.1875 0.5625q0.09375 0.265625 0.171875 0.546875q0.078125 0.265625 0.171875 0.609375l-0.421875 0q0.109375 -0.453125 0.21875 -0.796875q0.109375 -0.359375 0.234375 -0.734375q0.140625 -0.375 0.34375 -0.921875l1.734375 -4.75l2.3125 0l-3.765625 9.328125l-1.890625 0z" fill="#000000"></path><path fill-rule="nonzero" d="m338.75455 615.9417l0 -9.328125l4.125 0q0.953125 0 1.609375 0.28125q0.671875 0.265625 1.015625 0.78125q0.34375 0.515625 0.34375 1.234375q0 0.796875 -0.390625 1.34375q-0.390625 0.546875 -1.140625 0.734375l-0.03125 -0.265625q0.625 0.140625 1.078125 0.484375q0.46875 0.328125 0.71875 0.8125q0.25 0.484375 0.25 1.09375q0 0.703125 -0.234375 1.234375q-0.234375 0.53125 -0.6875 0.890625q-0.453125 0.359375 -1.0625 0.53125q-0.609375 0.171875 -1.34375 0.171875l-4.25 0zm2.140625 -1.890625l2.03125 0q0.375 0 0.625 -0.109375q0.265625 -0.125 0.40625 -0.359375q0.15625 -0.234375 0.15625 -0.578125q0 -0.296875 -0.15625 -0.515625q-0.15625 -0.21875 -0.4375 -0.328125q-0.265625 -0.109375 -0.65625 -0.109375l-1.96875 0l0 2.0zm0 -3.6875l1.65625 0q0.34375 0 0.59375 -0.109375q0.25 -0.125 0.375 -0.328125q0.125 -0.203125 0.125 -0.5q0 -0.421875 -0.296875 -0.671875q-0.28125 -0.25 -0.875 -0.25l-1.578125 0l0 1.859375z" fill="#000000"></path><path fill-rule="nonzero" d="m338.75455 631.9417l0 -9.328125l2.03125 0l4.890625 6.65625l-0.4375 -0.0625q-0.078125 -0.4375 -0.125 -0.828125q-0.03125 -0.40625 -0.0625 -0.796875q-0.03125 -0.390625 -0.0625 -0.78125q-0.015625 -0.40625 -0.015625 -0.875q0 -0.46875 0 -1.015625l0 -2.296875l2.1875 0l0 9.328125l-2.046875 0l-5.109375 -6.875l0.6875 0.09375q0.0625 0.640625 0.109375 1.09375q0.046875 0.4375 0.078125 0.78125q0.03125 0.34375 0.046875 0.625q0.015625 0.28125 0.015625 0.5625q0.015625 0.265625 0.015625 0.59375l0 3.125l-2.203125 0z" fill="#000000"></path><path fill-rule="nonzero" d="m338.75455 647.9417l0 -9.328125l2.03125 0l3.390625 5.53125l-1.453125 -0.015625l3.4375 -5.515625l1.953125 0l0 9.328125l-2.203125 0l0 -2.90625q0 -1.203125 0.0625 -2.15625q0.0625 -0.96875 0.203125 -1.90625l0.25 0.6875l-2.578125 4.015625l-0.875 0l-2.53125 -3.984375l0.25 -0.71875q0.140625 0.890625 0.203125 1.828125q0.0625 0.9375 0.0625 2.234375l0 2.90625l-2.203125 0z" fill="#000000"></path><path fill-rule="nonzero" d="m340.70767 663.9417l-2.96875 -7.078125l2.359375 0l1.765625 5.296875l-0.515625 0.046875l1.8125 -5.34375l2.328125 0l-3.109375 7.078125l-1.671875 0z" fill="#000000"></path><path fill-rule="evenodd" d="m477.16534 134.17323l270.2362 0l0 42.015747l-270.2362 0z" fill-opacity="0.0" fill="#000000"></path><path fill-rule="nonzero" d="m493.46222 161.28073q-1.390625 0 -2.5625 -0.5q-1.15625 -0.515625 -2.03125 -1.40625q-0.859375 -0.90625 -1.34375 -2.125q-0.46875 -1.234375 -0.46875 -2.6875q0 -1.453125 0.46875 -2.671875q0.484375 -1.21875 1.34375 -2.125q0.875 -0.90625 2.03125 -1.40625q1.171875 -0.515625 2.5625 -0.515625q1.375 0 2.53125 0.515625q1.171875 0.5 2.046875 1.421875q0.875 0.90625 1.34375 2.125q0.46875 1.21875 0.46875 2.65625q0 1.4375 -0.46875 2.65625q-0.46875 1.21875 -1.34375 2.140625q-0.875 0.90625 -2.046875 1.421875q-1.15625 0.5 -2.53125 0.5zm0 -1.953125q0.953125 0 1.734375 -0.359375q0.796875 -0.359375 1.375 -1.0q0.578125 -0.640625 0.90625 -1.5q0.328125 -0.875 0.328125 -1.90625q0 -1.03125 -0.328125 -1.890625q-0.328125 -0.875 -0.90625 -1.515625q-0.578125 -0.640625 -1.375 -0.984375q-0.78125 -0.359375 -1.734375 -0.359375q-0.953125 0 -1.75 0.359375q-0.796875 0.34375 -1.390625 0.984375q-0.578125 0.625 -0.890625 1.5q-0.3125 0.859375 -0.3125 1.90625q0 1.03125 0.3125 1.90625q0.3125 0.875 0.890625 1.515625q0.59375 0.625 1.390625 0.984375q0.796875 0.359375 1.75 0.359375zm10.386078 -1.296875l-0.09375 -2.09375l4.6875 -4.640625l2.59375 0l-7.1875 6.734375zm-1.75 3.0625l0 -13.8125l1.921875 0l0 13.8125l-1.921875 0zm6.609375 0l-3.703125 -4.3125l1.359375 -1.25l4.796875 5.5625l-2.453125 0z" fill="#000000"></path><path fill-rule="evenodd" d="m477.16534 171.46457l270.2362 0l0 42.015747l-270.2362 0z" fill-opacity="0.0" fill="#000000"></path><path fill-rule="nonzero" d="m493.29034 198.57207q-1.359375 0 -2.5 -0.484375q-1.140625 -0.484375 -1.984375 -1.390625q-0.828125 -0.90625 -1.296875 -2.140625q-0.453125 -1.234375 -0.453125 -2.703125q0 -1.390625 0.5 -2.59375q0.5 -1.203125 1.375 -2.109375q0.875 -0.921875 2.03125 -1.421875q1.15625 -0.515625 2.5 -0.515625q0.953125 0 1.859375 0.296875q0.90625 0.28125 1.640625 0.796875q0.734375 0.515625 1.203125 1.171875l-1.34375 1.390625q-0.546875 -0.546875 -1.09375 -0.90625q-0.546875 -0.359375 -1.125 -0.546875q-0.5625 -0.1875 -1.140625 -0.1875q-0.921875 0 -1.71875 0.34375q-0.78125 0.34375 -1.375 0.96875q-0.578125 0.609375 -0.921875 1.46875q-0.328125 0.84375 -0.328125 1.84375q0 1.0625 0.3125 1.9375q0.328125 0.859375 0.921875 1.484375q0.609375 0.609375 1.4375 0.9375q0.828125 0.328125 1.84375 0.328125q0.609375 0 1.203125 -0.171875q0.59375 -0.171875 1.109375 -0.484375q0.53125 -0.3125 0.96875 -0.75l1.0 1.640625q-0.421875 0.515625 -1.171875 0.921875q-0.734375 0.40625 -1.640625 0.640625q-0.890625 0.234375 -1.8125 0.234375zm6.9176025 -0.1875l0 -13.8125l1.921875 0l0 13.8125l-1.921875 0zm8.871063 0.1875q-1.4375 0 -2.578125 -0.65625q-1.125 -0.671875 -1.78125 -1.8125q-0.640625 -1.15625 -0.640625 -2.625q0 -1.46875 0.640625 -2.609375q0.65625 -1.15625 1.78125 -1.8125q1.140625 -0.671875 2.578125 -0.671875q1.40625 0 2.53125 0.671875q1.1405945 0.65625 1.7968445 1.8125q0.65625 1.140625 0.65625 2.609375q0 1.46875 -0.65625 2.625q-0.65625 1.140625 -1.7968445 1.8125q-1.125 0.65625 -2.53125 0.65625zm0 -1.75q0.875 0 1.5625 -0.4375q0.6875 -0.4375 1.078125 -1.1875q0.39059448 -0.765625 0.37496948 -1.71875q0.015625 -0.96875 -0.37496948 -1.71875q-0.390625 -0.765625 -1.078125 -1.1875q-0.6875 -0.4375 -1.5625 -0.4375q-0.875 0 -1.578125 0.4375q-0.703125 0.4375 -1.09375 1.203125q-0.390625 0.75 -0.375 1.703125q-0.015625 0.953125 0.375 1.71875q0.390625 0.75 1.09375 1.1875q0.703125 0.4375 1.578125 0.4375zm10.332977 1.75q-1.234375 0 -2.21875 -0.421875q-0.984375 -0.4375 -1.640625 -1.28125l1.296875 -1.109375q0.5625 0.640625 1.21875 0.9375q0.671875 0.28125 1.515625 0.28125q0.328125 0 0.609375 -0.078125q0.296875 -0.078125 0.515625 -0.25q0.21875 -0.171875 0.328125 -0.40625q0.109375 -0.234375 0.109375 -0.515625q0 -0.484375 -0.359375 -0.78125q-0.1875 -0.125 -0.59375 -0.28125q-0.390625 -0.15625 -1.03125 -0.328125q-1.078125 -0.28125 -1.765625 -0.625q-0.6875 -0.359375 -1.0625 -0.8125q-0.28125 -0.359375 -0.421875 -0.765625q-0.125 -0.421875 -0.125 -0.9375q0 -0.609375 0.265625 -1.125q0.28125 -0.515625 0.75 -0.890625q0.484375 -0.390625 1.125 -0.59375q0.640625 -0.203125 1.375 -0.203125q0.6875 0 1.359375 0.1875q0.6875 0.1875 1.265625 0.546875q0.578125 0.34375 0.96875 0.828125l-1.09375 1.21875q-0.359375 -0.359375 -0.78125 -0.625q-0.421875 -0.265625 -0.859375 -0.40625q-0.421875 -0.15625 -0.765625 -0.15625q-0.390625 0 -0.71875 0.078125q-0.3125 0.0625 -0.53125 0.21875q-0.203125 0.140625 -0.328125 0.375q-0.109375 0.21875 -0.109375 0.5q0.015625 0.234375 0.125 0.453125q0.109375 0.21875 0.296875 0.359375q0.203125 0.15625 0.609375 0.328125q0.40625 0.15625 1.046875 0.3125q0.921875 0.234375 1.53125 0.53125q0.609375 0.28125 0.96875 0.65625q0.375 0.359375 0.515625 0.828125q0.15625 0.46875 0.15625 1.046875q0 0.828125 -0.484375 1.5q-0.46875 0.65625 -1.28125 1.03125q-0.796875 0.375 -1.78125 0.375zm10.233215 0q-1.5 0 -2.671875 -0.640625q-1.15625 -0.640625 -1.828125 -1.765625q-0.65625 -1.125 -0.65625 -2.578125q0 -1.15625 0.375 -2.109375q0.375 -0.953125 1.03125 -1.640625q0.65625 -0.703125 1.578125 -1.078125q0.9375 -0.390625 2.015625 -0.390625q0.953125 0 1.765625 0.359375q0.828125 0.359375 1.421875 1.0q0.609375 0.640625 0.9375 1.515625q0.328125 0.859375 0.3125 1.875l-0.015625 0.828125l-8.0 0l-0.4375 -1.53125l6.765625 0l-0.265625 0.3125l0 -0.4375q-0.0625 -0.625 -0.421875 -1.109375q-0.34375 -0.484375 -0.890625 -0.765625q-0.546875 -0.28125 -1.171875 -0.28125q-1.015625 0 -1.703125 0.390625q-0.6875 0.375 -1.046875 1.125q-0.34375 0.734375 -0.34375 1.8125q0 1.015625 0.421875 1.78125q0.421875 0.75 1.203125 1.171875q0.796875 0.40625 1.8125 0.40625q0.734375 0 1.359375 -0.234375q0.625 -0.25 1.359375 -0.890625l0.96875 1.359375q-0.453125 0.453125 -1.09375 0.796875q-0.640625 0.328125 -1.359375 0.53125q-0.71875 0.1875 -1.421875 0.1875z" fill="#000000"></path><path fill-rule="evenodd" d="m480.0 213.48032l270.2362 0l0 42.015747l-270.2362 0z" fill-opacity="0.0" fill="#000000"></path><path fill-rule="nonzero" d="m496.125 240.58781q-1.359375 0 -2.5 -0.484375q-1.140625 -0.484375 -1.984375 -1.390625q-0.828125 -0.90625 -1.296875 -2.140625q-0.453125 -1.234375 -0.453125 -2.703125q0 -1.390625 0.5 -2.59375q0.5 -1.203125 1.375 -2.109375q0.875 -0.921875 2.03125 -1.421875q1.15625 -0.515625 2.5 -0.515625q0.953125 0 1.859375 0.296875q0.90625 0.28125 1.640625 0.796875q0.734375 0.515625 1.203125 1.171875l-1.34375 1.390625q-0.546875 -0.546875 -1.09375 -0.90625q-0.546875 -0.359375 -1.125 -0.546875q-0.5625 -0.1875 -1.140625 -0.1875q-0.921875 0 -1.71875 0.34375q-0.78125 0.34375 -1.375 0.96875q-0.578125 0.609375 -0.921875 1.46875q-0.328125 0.84375 -0.328125 1.84375q0 1.0625 0.3125 1.9375q0.328125 0.859375 0.921875 1.484375q0.609375 0.609375 1.4375 0.9375q0.828125 0.328125 1.84375 0.328125q0.609375 0 1.203125 -0.171875q0.59375 -0.171875 1.109375 -0.484375q0.53125 -0.3125 0.96875 -0.75l1.0 1.640625q-0.421875 0.515625 -1.171875 0.921875q-0.734375 0.40625 -1.640625 0.640625q-0.890625 0.234375 -1.8125 0.234375zm6.9176025 -0.1875l0 -13.8125l1.921875 0l0 13.8125l-1.921875 0zm9.027283 0.1875q-1.5 0 -2.671875 -0.640625q-1.15625 -0.640625 -1.828125 -1.765625q-0.65625 -1.125 -0.65625 -2.578125q0 -1.15625 0.375 -2.109375q0.375 -0.953125 1.03125 -1.640625q0.65625 -0.703125 1.578125 -1.078125q0.9375 -0.390625 2.015625 -0.390625q0.953125 0 1.765625 0.359375q0.828125 0.359375 1.421875 1.0q0.609375 0.640625 0.9375 1.515625q0.328125 0.859375 0.3125 1.875l-0.015625 0.828125l-8.0 0l-0.4375 -1.53125l6.765625 0l-0.265625 0.3125l0 -0.4375q-0.0625 -0.625 -0.421875 -1.109375q-0.34375 -0.484375 -0.890625 -0.765625q-0.546875 -0.28125 -1.171875 -0.28125q-1.015625 0 -1.703125 0.390625q-0.6875 0.375 -1.046875 1.125q-0.34375 0.734375 -0.34375 1.8125q0 1.015625 0.421875 1.78125q0.421875 0.75 1.203125 1.171875q0.796875 0.40625 1.8125 0.40625q0.734375 0 1.359375 -0.234375q0.625 -0.25 1.359375 -0.890625l0.96875 1.359375q-0.453125 0.453125 -1.09375 0.796875q-0.640625 0.328125 -1.359375 0.53125q-0.71875 0.1875 -1.421875 0.1875zm10.135681 0q-1.203125 0 -2.203125 -0.671875q-1.0 -0.671875 -1.609375 -1.828125q-0.59375 -1.15625 -0.59375 -2.609375q0 -1.484375 0.609375 -2.625q0.609375 -1.140625 1.640625 -1.796875q1.046875 -0.65625 2.328125 -0.65625q0.765625 0 1.390625 0.234375q0.640625 0.21875 1.109375 0.625q0.484375 0.390625 0.78125 0.921875q0.3125 0.515625 0.390625 1.109375l-0.421875 -0.140625l0 -2.546875l1.9375 0l0 9.796875l-1.9375 0l0 -2.328125l0.4375 -0.140625q-0.109375 0.515625 -0.453125 1.0q-0.34375 0.46875 -0.875 0.84375q-0.53125 0.359375 -1.171875 0.59375q-0.640625 0.21875 -1.359375 0.21875zm0.5 -1.765625q0.890625 0 1.546875 -0.421875q0.671875 -0.4375 1.046875 -1.1875q0.390625 -0.765625 0.390625 -1.734375q0 -0.953125 -0.390625 -1.703125q-0.375 -0.75 -1.046875 -1.171875q-0.65625 -0.4375 -1.546875 -0.4375q-0.859375 0 -1.515625 0.4375q-0.65625 0.421875 -1.046875 1.171875q-0.375 0.75 -0.375 1.703125q0 0.96875 0.375 1.734375q0.390625 0.75 1.046875 1.1875q0.65625 0.421875 1.515625 0.421875zm7.5438232 1.578125l0 -9.796875l1.9375 0l0 3.078125l-0.1875 -0.75q0.203125 -0.703125 0.703125 -1.28125q0.5 -0.578125 1.140625 -0.90625q0.640625 -0.34375 1.328125 -0.34375q0.3125 0 0.59375 0.0625q0.296875 0.046875 0.46875 0.125l-0.5 2.09375q-0.21875 -0.09375 -0.5 -0.15625q-0.265625 -0.078125 -0.53125 -0.078125q-0.5 0 -0.953125 0.203125q-0.453125 0.1875 -0.8125 0.546875q-0.34375 0.34375 -0.546875 0.796875q-0.203125 0.453125 -0.203125 1.0l0 5.40625l-1.9375 0z" fill="#000000"></path><path fill-rule="evenodd" d="m486.55118 255.49606l270.23624 0l0 42.015747l-270.23624 0z" fill-opacity="0.0" fill="#000000"></path><path fill-rule="evenodd" d="m486.55118 255.49606l270.23624 0l0 42.015747l-270.23624 0z" fill-opacity="0.0" fill="#000000"></path><path fill-rule="nonzero" d="m502.67618 282.60355q-1.359375 0 -2.5 -0.484375q-1.140625 -0.484375 -1.984375 -1.390625q-0.828125 -0.90625 -1.296875 -2.140625q-0.453125 -1.234375 -0.453125 -2.703125q0 -1.390625 0.5 -2.59375q0.5 -1.203125 1.375 -2.109375q0.875 -0.921875 2.03125 -1.421875q1.15625 -0.515625 2.5 -0.515625q0.953125 0 1.859375 0.296875q0.90625 0.28125 1.640625 0.796875q0.734375 0.515625 1.203125 1.171875l-1.34375 1.390625q-0.546875 -0.546875 -1.09375 -0.90625q-0.546875 -0.359375 -1.125 -0.546875q-0.5625 -0.1875 -1.140625 -0.1875q-0.921875 0 -1.71875 0.34375q-0.78125 0.34375 -1.375 0.96875q-0.578125 0.609375 -0.921875 1.46875q-0.328125 0.84375 -0.328125 1.84375q0 1.0625 0.3125 1.9375q0.328125 0.859375 0.921875 1.484375q0.609375 0.609375 1.4375 0.9375q0.828125 0.328125 1.84375 0.328125q0.609375 0 1.203125 -0.171875q0.59375 -0.171875 1.109375 -0.484375q0.53125 -0.3125 0.96875 -0.75l1.0 1.640625q-0.421875 0.515625 -1.171875 0.921875q-0.734375 0.40625 -1.640625 0.640625q-0.890625 0.234375 -1.8125 0.234375zm6.9176025 -0.1875l0 -13.8125l1.921875 0l0 13.8125l-1.921875 0zm9.027313 0.1875q-1.5 0 -2.671875 -0.640625q-1.15625 -0.640625 -1.828125 -1.765625q-0.65625 -1.125 -0.65625 -2.578125q0 -1.15625 0.375 -2.109375q0.375 -0.953125 1.03125 -1.640625q0.65625 -0.703125 1.578125 -1.078125q0.9375 -0.390625 2.015625 -0.390625q0.953125 0 1.765625 0.359375q0.828125 0.359375 1.421875 1.0q0.609375 0.640625 0.9375 1.515625q0.328125 0.859375 0.3125 1.875l-0.015625 0.828125l-8.0 0l-0.4375 -1.53125l6.765625 0l-0.265625 0.3125l0 -0.4375q-0.0625 -0.625 -0.421875 -1.109375q-0.34375 -0.484375 -0.890625 -0.765625q-0.546875 -0.28125 -1.171875 -0.28125q-1.015625 0 -1.703125 0.390625q-0.6875 0.375 -1.046875 1.125q-0.34375 0.734375 -0.34375 1.8125q0 1.015625 0.421875 1.78125q0.421875 0.75 1.203125 1.171875q0.796875 0.40625 1.8125 0.40625q0.734375 0 1.359375 -0.234375q0.625 -0.25 1.359375 -0.890625l0.96875 1.359375q-0.453125 0.453125 -1.09375 0.796875q-0.640625 0.328125 -1.359375 0.53125q-0.71875 0.1875 -1.421875 0.1875zm10.135681 0q-1.203125 0 -2.203125 -0.671875q-1.0 -0.671875 -1.609375 -1.828125q-0.59375 -1.15625 -0.59375 -2.609375q0 -1.484375 0.609375 -2.625q0.609375 -1.140625 1.640625 -1.796875q1.046875 -0.65625 2.328125 -0.65625q0.765625 0 1.390625 0.234375q0.640625 0.21875 1.109375 0.625q0.484375 0.390625 0.78125 0.921875q0.3125 0.515625 0.390625 1.109375l-0.421875 -0.140625l0 -2.546875l1.9375 0l0 9.796875l-1.9375 0l0 -2.328125l0.4375 -0.140625q-0.109375 0.515625 -0.453125 1.0q-0.34375 0.46875 -0.875 0.84375q-0.53125 0.359375 -1.171875 0.59375q-0.640625 0.21875 -1.359375 0.21875zm0.5 -1.765625q0.890625 0 1.546875 -0.421875q0.671875 -0.4375 1.046875 -1.1875q0.390625 -0.765625 0.390625 -1.734375q0 -0.953125 -0.390625 -1.703125q-0.375 -0.75 -1.046875 -1.171875q-0.65625 -0.4375 -1.546875 -0.4375q-0.859375 0 -1.515625 0.4375q-0.65625 0.421875 -1.046875 1.171875q-0.375 0.75 -0.375 1.703125q0 0.96875 0.375 1.734375q0.390625 0.75 1.046875 1.1875q0.65625 0.421875 1.515625 0.421875zm7.543762 1.578125l0 -9.796875l1.9375 0l0 3.078125l-0.1875 -0.75q0.203125 -0.703125 0.703125 -1.28125q0.5 -0.578125 1.140625 -0.90625q0.640625 -0.34375 1.328125 -0.34375q0.3125 0 0.59375 0.0625q0.296875 0.046875 0.46875 0.125l-0.5 2.09375q-0.21875 -0.09375 -0.5 -0.15625q-0.265625 -0.078125 -0.53125 -0.078125q-0.5 0 -0.953125 0.203125q-0.453125 0.1875 -0.8125 0.546875q-0.34375 0.34375 -0.546875 0.796875q-0.203125 0.453125 -0.203125 1.0l0 5.40625l-1.9375 0z" fill="#000000"></path><path fill-rule="evenodd" d="m382.37796 66.14173l47.46457 0l0 617.3228l-47.46457 0z" fill-opacity="0.0" fill="#000000"></path><path fill-rule="nonzero" d="m394.19046 87.285484l0 -7.5625l0.5 1.125l-2.0 0.953125l-0.390625 -2.03125l2.65625 -1.296875l1.453125 0l0 8.8125l-2.21875 0zm-1.703125 0.65625l0 -2.0l5.671875 0l0 2.0l-5.671875 0z" fill="#ffffff"></path><path fill-rule="nonzero" d="m392.1592 103.941734l-0.4375 -1.09375l2.71875 -2.96875q0.234375 -0.25 0.5 -0.5625q0.265625 -0.328125 0.515625 -0.671875q0.25 -0.34375 0.40625 -0.65625q0.15625 -0.328125 0.15625 -0.59375q0 -0.265625 -0.125 -0.453125q-0.125 -0.203125 -0.359375 -0.3125q-0.21875 -0.125 -0.5625 -0.125q-0.296875 0 -0.578125 0.15625q-0.28125 0.15625 -0.53125 0.484375q-0.25 0.3125 -0.453125 0.765625l-1.6875 -0.90625q0.28125 -0.765625 0.796875 -1.359375q0.515625 -0.59375 1.203125 -0.921875q0.6875 -0.328125 1.484375 -0.328125q0.828125 0.015625 1.484375 0.359375q0.671875 0.34375 1.0625 0.953125q0.390625 0.59375 0.390625 1.40625q0 0.28125 -0.0625 0.59375q-0.0625 0.296875 -0.203125 0.625q-0.125 0.328125 -0.34375 0.703125q-0.21875 0.359375 -0.53125 0.765625q-0.3125 0.390625 -0.71875 0.84375l-2.125 2.3125l-0.265625 -1.015625l4.671875 0l0 2.0l-6.40625 0z" fill="#ffffff"></path><path fill-rule="nonzero" d="m395.2061 120.08236q-1.140625 0 -1.984375 -0.46875q-0.84375 -0.484375 -1.53125 -1.640625l1.625 -1.0625q0.28125 0.46875 0.59375 0.75q0.328125 0.28125 0.65625 0.40625q0.34375 0.125 0.71875 0.125q0.375 0 0.6875 -0.15625q0.3125 -0.171875 0.5 -0.46875q0.203125 -0.3125 0.203125 -0.703125q0 -0.40625 -0.171875 -0.6875q-0.171875 -0.296875 -0.484375 -0.4375q-0.3125 -0.15625 -0.75 -0.15625q-0.203125 0 -0.4375 0.046875q-0.21875 0.046875 -0.46875 0.125q-0.25 0.078125 -0.515625 0.21875l-0.5 -1.328125l2.265625 -2.453125l0.609375 0.328125l-3.890625 -0.078125l0 -1.90625l5.734375 0l0.421875 0.828125l-3.078125 3.296875l-0.546875 -0.625q0.109375 -0.046875 0.359375 -0.09375q0.25 -0.046875 0.46875 -0.046875q0.625 0 1.171875 0.234375q0.546875 0.21875 0.96875 0.625q0.4375 0.390625 0.671875 0.9375q0.25 0.53125 0.25 1.140625q0 0.9375 -0.484375 1.671875q-0.46875 0.71875 -1.28125 1.15625q-0.796875 0.421875 -1.78125 0.421875z" fill="#ffffff"></path><path fill-rule="nonzero" d="m396.0342 135.94174l0 -7.546875l1.203125 0.03125l-3.359375 4.125l-0.328125 -0.390625l6.1875 0l0 1.859375l-7.203125 0l-0.90625 -1.75l4.765625 -5.7343826l1.828125 0l0 9.406258l-2.1875 0z" fill="#ffffff"></path><path fill-rule="nonzero" d="m395.1436 152.03549q-1.0625 0 -1.921875 -0.421875q-0.859375 -0.4375 -1.421875 -1.234375l1.21875 -1.328125q0.546875 0.59375 1.015625 0.8125q0.46875 0.21875 1.03125 0.21875q0.4375 0 0.765625 -0.171875q0.328125 -0.171875 0.515625 -0.484375q0.203125 -0.3125 0.203125 -0.703125q0 -0.390625 -0.203125 -0.703125q-0.1875 -0.3125 -0.515625 -0.5q-0.328125 -0.1875 -0.75 -0.1875q-0.296875 0 -0.578125 0.0625q-0.265625 0.046875 -0.5625 0.171875q-0.296875 0.125 -0.703125 0.359375l-0.96875 -1.28125l0.578125 -4.109375l5.359375 0l0 1.90625l-4.28125 0l0.578125 -0.75l-0.4375 2.953125l-0.796875 -0.265625q0.25 -0.21875 0.609375 -0.390625q0.375 -0.171875 0.796875 -0.28125q0.4375 -0.125 0.859375 -0.125q0.875 0 1.578125 0.40625q0.703125 0.40625 1.109375 1.125q0.421875 0.71875 0.421875 1.65625q0 0.921875 -0.46875 1.671875q-0.46875 0.734375 -1.25 1.171875q-0.78125 0.421875 -1.78125 0.421875z" fill="#ffffff"></path><path fill-rule="nonzero" d="m395.29984 167.94174q-0.71875 0 -1.359375 -0.25q-0.625 -0.265625 -1.09375 -0.71875q-0.46875 -0.46875 -0.75 -1.078125q-0.265625 -0.625 -0.265625 -1.328125q0 -0.484375 0.109375 -0.9375q0.109375 -0.46875 0.296875 -0.9375q0.1875 -0.484375 0.453125 -0.984375q0.28125 -0.5 0.625 -1.0625l1.296875 -2.171875l2.09375 0l0.0625 0.125l-1.8125 2.859375q-0.359375 0.546875 -0.609375 1.046875q-0.25 0.484375 -0.453125 0.96875q-0.203125 0.46875 -0.390625 1.0l-0.4375 -0.921875q0.140625 -0.453125 0.421875 -0.84375q0.296875 -0.40625 0.6875 -0.6875q0.40625 -0.28125 0.828125 -0.4375q0.421875 -0.15625 0.84375 -0.15625q0.78125 0 1.4375 0.421875q0.671875 0.421875 1.0625 1.109375q0.40625 0.6875 0.40625 1.515625q0 0.984375 -0.453125 1.78125q-0.4375 0.78125 -1.21875 1.234375q-0.78125 0.453125 -1.78125 0.453125zm0.015625 -1.859375q0.4375 0 0.765625 -0.1875q0.328125 -0.1875 0.5 -0.53125q0.1875 -0.34375 0.1875 -0.78125q0 -0.375 -0.1875 -0.703125q-0.1875 -0.328125 -0.515625 -0.53125q-0.328125 -0.203125 -0.734375 -0.203125q-0.421875 0 -0.765625 0.203125q-0.328125 0.1875 -0.515625 0.515625q-0.1875 0.3125 -0.1875 0.71875q0 0.421875 0.1875 0.765625q0.1875 0.34375 0.515625 0.546875q0.328125 0.1875 0.75 0.1875z" fill="#ffffff"></path><path fill-rule="nonzero" d="m392.50296 183.94174l3.71875 -8.5l0.640625 1.0625l-4.875 0l0 -1.96875l6.078125 0l0.21875 1.078125l-3.515625 8.328125l-2.265625 0z" fill="#ffffff"></path><path fill-rule="nonzero" d="m395.36234 199.98862q-0.953125 0 -1.734375 -0.359375q-0.78125 -0.375 -1.25 -1.0q-0.46875 -0.640625 -0.46875 -1.421875q0 -0.515625 0.125 -0.9375q0.140625 -0.421875 0.40625 -0.75q0.28125 -0.328125 0.671875 -0.5625q0.390625 -0.234375 0.90625 -0.375l-0.15625 0.53125q-0.375 -0.140625 -0.6875 -0.34375q-0.296875 -0.21875 -0.515625 -0.484375q-0.21875 -0.28125 -0.328125 -0.59375q-0.109375 -0.328125 -0.109375 -0.6875q0 -0.734375 0.40625 -1.3125q0.421875 -0.578125 1.140625 -0.890625q0.71875 -0.328125 1.59375 -0.328125q0.859375 0 1.578125 0.328125q0.71875 0.3125 1.140625 0.890625q0.421875 0.578125 0.421875 1.3125q0 0.359375 -0.109375 0.6875q-0.09375 0.3125 -0.3125 0.578125q-0.21875 0.25 -0.53125 0.46875q-0.296875 0.21875 -0.6875 0.375l-0.125 -0.46875q0.453125 0.109375 0.828125 0.328125q0.390625 0.21875 0.671875 0.546875q0.28125 0.328125 0.4375 0.75q0.15625 0.421875 0.15625 0.9375q0 0.796875 -0.46875 1.421875q-0.46875 0.625 -1.265625 1.0q-0.78125 0.359375 -1.734375 0.359375zm0 -1.796875q0.375 0 0.65625 -0.140625q0.296875 -0.15625 0.46875 -0.40625q0.1875 -0.25 0.1875 -0.578125q0 -0.34375 -0.171875 -0.609375q-0.171875 -0.265625 -0.46875 -0.40625q-0.296875 -0.15625 -0.671875 -0.15625q-0.375 0 -0.671875 0.15625q-0.28125 0.140625 -0.46875 0.40625q-0.171875 0.265625 -0.171875 0.609375q0 0.3125 0.171875 0.578125q0.1875 0.25 0.46875 0.40625q0.296875 0.140625 0.671875 0.140625zm0 -4.09375q0.328125 0 0.578125 -0.125q0.265625 -0.140625 0.40625 -0.359375q0.15625 -0.21875 0.15625 -0.515625q0 -0.28125 -0.15625 -0.5q-0.140625 -0.234375 -0.40625 -0.359375q-0.25 -0.140625 -0.578125 -0.140625q-0.328125 0 -0.59375 0.140625q-0.265625 0.125 -0.40625 0.359375q-0.140625 0.21875 -0.140625 0.5q0 0.296875 0.140625 0.515625q0.140625 0.21875 0.40625 0.359375q0.265625 0.125 0.59375 0.125z" fill="#ffffff"></path><path fill-rule="nonzero" d="m394.1436 215.94174l-0.046875 -0.140625l2.921875 -5.890625l0.390625 0.8125q-0.140625 0.46875 -0.4375 0.859375q-0.296875 0.390625 -0.703125 0.671875q-0.40625 0.28125 -0.84375 0.4375q-0.4375 0.15625 -0.828125 0.15625q-0.765625 0 -1.40625 -0.40625q-0.640625 -0.421875 -1.03125 -1.109375q-0.375 -0.6875 -0.375 -1.515625q0 -0.953125 0.453125 -1.734375q0.453125 -0.78125 1.234375 -1.234375q0.796875 -0.46875 1.78125 -0.46875q0.71875 0 1.34375 0.265625q0.625 0.25 1.09375 0.703125q0.484375 0.4375 0.75 1.03125q0.265625 0.578125 0.265625 1.234375q0 0.484375 -0.078125 0.9375q-0.078125 0.453125 -0.25 0.9375q-0.171875 0.484375 -0.40625 1.0q-0.234375 0.515625 -0.546875 1.140625l-1.171875 2.3125l-2.109375 0zm1.0 -4.875q0.40625 0 0.71875 -0.1875q0.328125 -0.1875 0.5 -0.5q0.1875 -0.3125 0.1875 -0.703125q0 -0.40625 -0.1875 -0.734375q-0.171875 -0.328125 -0.484375 -0.515625q-0.3125 -0.1875 -0.734375 -0.1875q-0.390625 0 -0.703125 0.1875q-0.296875 0.171875 -0.484375 0.5q-0.171875 0.328125 -0.171875 0.75q0 0.359375 0.171875 0.671875q0.1875 0.3125 0.5 0.515625q0.3125 0.203125 0.6875 0.203125z" fill="#ffffff"></path><path fill-rule="nonzero" d="m395.86234 232.08237q-1.25 0 -2.140625 -0.578125q-0.875 -0.578125 -1.34375 -1.640625q-0.46875 -1.078125 -0.46875 -2.59375q0 -1.5 0.46875 -2.5625q0.46875 -1.078125 1.34375 -1.65625q0.890625 -0.578125 2.140625 -0.578125q1.265625 0 2.15625 0.578125q0.890625 0.578125 1.359375 1.65625q0.46875 1.0625 0.46875 2.5625q0 1.515625 -0.46875 2.59375q-0.46875 1.0625 -1.359375 1.640625q-0.890625 0.578125 -2.15625 0.578125zm0 -1.921875q0.875 0 1.34375 -0.75q0.46875 -0.75 0.46875 -2.140625q0 -1.421875 -0.46875 -2.1875q-0.46875 -0.765625 -1.34375 -0.765625q-0.859375 0 -1.34375 0.765625q-0.46875 0.765625 -0.46875 2.1875q0 1.390625 0.46875 2.140625q0.484375 0.75 1.34375 0.75z" fill="#ffffff"></path><path fill-rule="nonzero" d="m399.5811 249.41049l-3.578125 -4.84375l1.671875 -1.15625l3.53125 4.796875l-1.625 1.203125zm-2.796875 -1.328125q-1.046875 0 -1.9375 -0.359375q-0.875 -0.375 -1.53125 -1.015625q-0.640625 -0.65625 -1.0 -1.53125q-0.359375 -0.890625 -0.359375 -1.9375q0 -1.046875 0.359375 -1.921875q0.359375 -0.890625 1.0 -1.546875q0.65625 -0.65625 1.53125 -1.015625q0.890625 -0.359375 1.9375 -0.359375q1.0625 0 1.9375 0.359375q0.875 0.359375 1.53125 1.015625q0.65625 0.65625 1.0 1.546875q0.359375 0.875 0.359375 1.921875q0 1.03125 -0.359375 1.921875q-0.34375 0.890625 -1.0 1.546875q-0.65625 0.640625 -1.53125 1.015625q-0.875 0.359375 -1.9375 0.359375zm0 -2.140625q0.546875 0 1.0 -0.203125q0.46875 -0.203125 0.8125 -0.5625q0.34375 -0.359375 0.53125 -0.859375q0.1875 -0.5 0.1875 -1.078125q0 -0.59375 -0.1875 -1.078125q-0.1875 -0.5 -0.53125 -0.859375q-0.34375 -0.375 -0.8125 -0.5625q-0.453125 -0.203125 -1.0 -0.203125q-0.546875 0 -1.015625 0.203125q-0.453125 0.1875 -0.796875 0.5625q-0.34375 0.359375 -0.53125 0.859375q-0.171875 0.484375 -0.171875 1.078125q0 0.578125 0.171875 1.078125q0.1875 0.5 0.53125 0.859375q0.34375 0.359375 0.796875 0.5625q0.46875 0.203125 1.015625 0.203125z" fill="#ffffff"></path><path fill-rule="nonzero" d="m394.23734 263.94174l-2.8125 -9.328125l2.3125 0l1.40625 4.90625q0.09375 0.328125 0.15625 0.671875q0.078125 0.34375 0.125 0.65625q0.046875 0.296875 0.0625 0.5625q0.03125 0.25 0.0625 0.421875l-0.296875 0q0.078125 -0.484375 0.140625 -0.875q0.0625 -0.390625 0.140625 -0.71875q0.078125 -0.34375 0.203125 -0.71875l1.390625 -3.6875l1.8125 0l1.359375 3.6875q0.15625 0.4375 0.265625 0.828125q0.109375 0.375 0.15625 0.734375q0.0625 0.359375 0.109375 0.703125l-0.265625 0.03125q0.015625 -0.234375 0.03125 -0.4375q0.015625 -0.203125 0.03125 -0.390625q0.03125 -0.203125 0.046875 -0.40625q0.03125 -0.21875 0.078125 -0.484375q0.0625 -0.265625 0.15625 -0.59375l1.390625 -4.890625l2.25 0l-2.796875 9.328125l-1.734375 0l-2.21875 -5.375l0.25 0.03125l-2.03125 5.34375l-1.78125 0z" fill="#ffffff"></path><path fill-rule="nonzero" d="m392.54984 279.94174l0 -9.328125l6.5 0l0 1.9375l-4.296875 0l0 5.453125l4.4375 0l0 1.9375l-6.640625 0zm1.0625 -3.828125l0 -1.84375l4.84375 0l0 1.84375l-4.84375 0z" fill="#ffffff"></path><path fill-rule="nonzero" d="m392.54984 295.94174l0 -9.328125l4.203125 0q0.890625 0 1.609375 0.390625q0.734375 0.375 1.140625 1.0625q0.421875 0.671875 0.421875 1.515625q0 0.875 -0.421875 1.578125q-0.40625 0.703125 -1.125 1.109375q-0.71875 0.390625 -1.625 0.390625l-2.046875 0l0 3.28125l-2.15625 0zm5.171875 0l-2.375 -4.21875l2.328125 -0.328125l2.640625 4.546875l-2.59375 0zm-3.015625 -5.015625l1.84375 0q0.34375 0 0.59375 -0.140625q0.265625 -0.15625 0.40625 -0.4375q0.140625 -0.28125 0.140625 -0.640625q0 -0.359375 -0.15625 -0.625q-0.15625 -0.28125 -0.46875 -0.421875q-0.296875 -0.15625 -0.71875 -0.15625l-1.640625 0l0 2.421875z" fill="#ffffff"></path><path fill-rule="nonzero" d="m394.5811 311.94174l0 -7.328125l-2.78125 0l0 -2.0l7.875 0l0 2.0l-2.828125 0l0 7.328125l-2.265625 0z" fill="#ffffff"></path><path fill-rule="nonzero" d="m394.9561 327.9417l0 -4.65625l0.09375 0.65625l-3.765625 -5.328125l2.578125 0l2.875 4.125l-1.171875 -0.03125l2.59375 -4.09375l2.5 0l-3.609375 5.46875l0.1875 -0.90625l0 4.765625l-2.28125 0z" fill="#ffffff"></path><path fill-rule="nonzero" d="m396.48734 344.01984q-1.171875 0 -2.078125 -0.46875q-0.90625 -0.46875 -1.421875 -1.296875q-0.5 -0.828125 -0.5 -1.890625l0 -5.75l2.296875 0l0 5.625q0 0.5 0.21875 0.90625q0.234375 0.40625 0.609375 0.640625q0.390625 0.234375 0.875 0.234375q0.5 0 0.890625 -0.234375q0.390625 -0.234375 0.625 -0.640625q0.25 -0.40625 0.25 -0.90625l0 -5.625l2.21875 0l0 5.75q0 1.0625 -0.515625 1.890625q-0.515625 0.828125 -1.421875 1.296875q-0.90625 0.46875 -2.046875 0.46875z" fill="#ffffff"></path><path fill-rule="nonzero" d="m392.36234 359.9417l0 -1.90625l1.578125 0l0 -5.515625l-1.578125 0l0 -1.90625l5.421875 0l0 1.90625l-1.578125 0l0 5.515625l1.578125 0l0 1.90625l-5.421875 0z" fill="#ffffff"></path><path fill-rule="nonzero" d="m396.79984 376.08234q-1.0625 0 -1.953125 -0.359375q-0.875 -0.375 -1.53125 -1.015625q-0.640625 -0.65625 -1.0 -1.53125q-0.359375 -0.890625 -0.359375 -1.9375q0 -1.046875 0.359375 -1.921875q0.359375 -0.890625 1.0 -1.546875q0.65625 -0.65625 1.53125 -1.015625q0.890625 -0.359375 1.9375 -0.359375q1.0625 0 1.9375 0.359375q0.875 0.359375 1.53125 1.015625q0.65625 0.65625 1.0 1.546875q0.359375 0.875 0.359375 1.921875q0 1.03125 -0.359375 1.921875q-0.34375 0.890625 -1.0 1.546875q-0.65625 0.640625 -1.53125 1.015625q-0.875 0.359375 -1.921875 0.359375zm-0.015625 -2.140625q0.546875 0 1.0 -0.203125q0.46875 -0.203125 0.8125 -0.5625q0.34375 -0.359375 0.53125 -0.859375q0.1875 -0.5 0.1875 -1.078125q0 -0.59375 -0.1875 -1.078125q-0.1875 -0.5 -0.53125 -0.859375q-0.34375 -0.375 -0.8125 -0.5625q-0.453125 -0.203125 -1.0 -0.203125q-0.546875 0 -1.015625 0.203125q-0.453125 0.1875 -0.796875 0.5625q-0.34375 0.359375 -0.53125 0.859375q-0.171875 0.484375 -0.171875 1.078125q0 0.578125 0.171875 1.078125q0.1875 0.5 0.53125 0.859375q0.34375 0.359375 0.796875 0.5625q0.46875 0.203125 1.015625 0.203125z" fill="#ffffff"></path><path fill-rule="nonzero" d="m392.54984 391.9417l0 -9.328125l4.03125 0q0.875 0 1.5625 0.40625q0.6875 0.390625 1.09375 1.09375q0.40625 0.6875 0.40625 1.546875q0 0.90625 -0.40625 1.625q-0.40625 0.71875 -1.09375 1.125q-0.6875 0.40625 -1.5625 0.40625l-1.765625 0l0 3.125l-2.265625 0zm2.234375 -5.109375l1.46875 0q0.296875 0 0.53125 -0.140625q0.25 -0.140625 0.390625 -0.390625q0.140625 -0.265625 0.140625 -0.59375q0 -0.34375 -0.140625 -0.578125q-0.140625 -0.25 -0.390625 -0.375q-0.234375 -0.140625 -0.53125 -0.140625l-1.46875 0l0 2.21875z" fill="#ffffff"></path><path fill-rule="nonzero" d="m391.36234 407.9417l3.6875 -9.328125l1.921875 0l3.671875 9.328125l-2.296875 0l-1.75 -4.734375q-0.109375 -0.28125 -0.21875 -0.59375q-0.109375 -0.328125 -0.21875 -0.65625q-0.109375 -0.34375 -0.203125 -0.671875q-0.09375 -0.328125 -0.171875 -0.609375l0.40625 -0.015625q-0.078125 0.34375 -0.1875 0.671875q-0.09375 0.3125 -0.203125 0.625q-0.09375 0.3125 -0.21875 0.625q-0.109375 0.3125 -0.21875 0.640625l-1.765625 4.71875l-2.234375 0zm1.765625 -1.78125l0.703125 -1.703125l4.296875 0l0.6875 1.703125l-5.6875 0z" fill="#ffffff"></path><path fill-rule="nonzero" d="m395.6436 424.08234q-0.921875 0 -1.671875 -0.21875q-0.734375 -0.234375 -1.3125 -0.640625q-0.5625 -0.421875 -1.015625 -1.0l1.375 -1.5625q0.671875 0.890625 1.34375 1.203125q0.671875 0.3125 1.390625 0.3125q0.359375 0 0.640625 -0.09375q0.296875 -0.09375 0.453125 -0.265625q0.171875 -0.1875 0.171875 -0.453125q0 -0.203125 -0.109375 -0.359375q-0.09375 -0.171875 -0.265625 -0.28125q-0.171875 -0.125 -0.421875 -0.21875q-0.234375 -0.109375 -0.5 -0.171875q-0.265625 -0.078125 -0.546875 -0.140625q-0.765625 -0.171875 -1.34375 -0.421875q-0.578125 -0.25 -0.953125 -0.609375q-0.375 -0.375 -0.5625 -0.84375q-0.1875 -0.484375 -0.1875 -1.0625q0 -0.625 0.28125 -1.15625q0.28125 -0.53125 0.765625 -0.90625q0.5 -0.375 1.140625 -0.578125q0.640625 -0.21875 1.328125 -0.21875q0.921875 0 1.578125 0.203125q0.65625 0.1875 1.125 0.546875q0.484375 0.359375 0.8125 0.859375l-1.390625 1.359375q-0.28125 -0.359375 -0.609375 -0.578125q-0.328125 -0.234375 -0.703125 -0.34375q-0.359375 -0.125 -0.75 -0.125q-0.390625 0 -0.6875 0.109375q-0.28125 0.09375 -0.453125 0.28125q-0.15625 0.171875 -0.15625 0.421875q0 0.234375 0.140625 0.390625q0.140625 0.15625 0.359375 0.28125q0.234375 0.125 0.515625 0.21875q0.296875 0.078125 0.625 0.140625q0.71875 0.140625 1.3125 0.390625q0.59375 0.234375 1.03125 0.578125q0.4375 0.34375 0.671875 0.828125q0.234375 0.46875 0.234375 1.09375q0 0.96875 -0.484375 1.640625q-0.46875 0.671875 -1.296875 1.03125q-0.8125 0.359375 -1.875 0.359375z" fill="#ffffff"></path><path fill-rule="nonzero" d="m392.54984 439.9417l0 -9.328125l3.90625 0q1.03125 0 1.875 0.34375q0.859375 0.328125 1.46875 0.96875q0.625 0.625 0.953125 1.484375q0.34375 0.84375 0.34375 1.859375q0 1.03125 -0.34375 1.890625q-0.328125 0.859375 -0.953125 1.484375q-0.609375 0.609375 -1.46875 0.953125q-0.84375 0.34375 -1.875 0.34375l-3.90625 0zm2.265625 -1.546875l-0.3125 -0.453125l1.890625 0q0.5625 0 1.0 -0.1875q0.4375 -0.203125 0.75 -0.546875q0.3125 -0.34375 0.484375 -0.828125q0.171875 -0.5 0.171875 -1.109375q0 -0.59375 -0.171875 -1.078125q-0.171875 -0.5 -0.484375 -0.84375q-0.3125 -0.34375 -0.75 -0.53125q-0.4375 -0.203125 -1.0 -0.203125l-1.921875 0l0.34375 -0.421875l0 6.203125z" fill="#ffffff"></path><path fill-rule="nonzero" d="m392.54984 455.9417l0 -9.328125l2.265625 0l0 9.328125l-2.265625 0zm1.046875 -3.578125l0 -1.890625l4.828125 0l0 1.890625l-4.828125 0zm0 -3.75l0 -2.0l5.375 0l0 2.0l-5.375 0z" fill="#ffffff"></path><path fill-rule="nonzero" d="m396.87796 472.08234q-1.109375 0 -2.015625 -0.359375q-0.90625 -0.375 -1.5625 -1.015625q-0.65625 -0.65625 -1.0 -1.546875q-0.34375 -0.890625 -0.34375 -1.921875q0 -1.046875 0.359375 -1.90625q0.375 -0.875 1.046875 -1.53125q0.6875 -0.65625 1.609375 -1.015625q0.921875 -0.359375 2.015625 -0.359375q0.78125 0 1.453125 0.203125q0.6875 0.203125 1.25 0.546875q0.5625 0.34375 0.953125 0.796875l-1.375 1.453125q-0.328125 -0.328125 -0.6875 -0.53125q-0.359375 -0.21875 -0.765625 -0.34375q-0.390625 -0.125 -0.84375 -0.125q-0.578125 0 -1.078125 0.21875q-0.484375 0.203125 -0.84375 0.59375q-0.359375 0.375 -0.5625 0.890625q-0.203125 0.515625 -0.203125 1.109375q0 0.59375 0.203125 1.125q0.21875 0.515625 0.59375 0.890625q0.375 0.375 0.890625 0.609375q0.515625 0.21875 1.09375 0.21875q0.421875 0 0.78125 -0.125q0.375 -0.140625 0.640625 -0.359375q0.265625 -0.234375 0.421875 -0.546875q0.15625 -0.328125 0.15625 -0.6875l0 -0.34375l0.296875 0.453125l-2.578125 0l0 -1.765625l4.390625 0q0.03125 0.140625 0.03125 0.40625q0.015625 0.25 0.015625 0.484375q0.015625 0.234375 0.015625 0.359375q0 0.90625 -0.328125 1.65625q-0.328125 0.75 -0.921875 1.296875q-0.578125 0.546875 -1.375 0.859375q-0.796875 0.3125 -1.734375 0.3125z" fill="#ffffff"></path><path fill-rule="nonzero" d="m398.3311 487.9417l0 -9.328125l2.265625 0l0 9.328125l-2.265625 0zm-5.78125 0l0 -9.328125l2.265625 0l0 9.328125l-2.265625 0zm0.875 -3.640625l0.015625 -2.03125l6.09375 0l0 2.03125l-6.109375 0z" fill="#ffffff"></path><path fill-rule="nonzero" d="m394.86234 504.08234q-0.515625 0 -0.96875 -0.125q-0.453125 -0.109375 -0.828125 -0.328125q-0.375 -0.21875 -0.671875 -0.53125q-0.28125 -0.3125 -0.5 -0.703125l1.296875 -1.34375q0.1875 0.28125 0.359375 0.46875q0.171875 0.171875 0.328125 0.296875q0.171875 0.109375 0.34375 0.171875q0.1875 0.046875 0.390625 0.046875q0.328125 0 0.5625 -0.15625q0.25 -0.15625 0.375 -0.421875q0.140625 -0.265625 0.140625 -0.625l0 -4.25l-1.703125 0l0 -1.96875l5.359375 0l0 1.96875l-1.4375 0l0 4.515625q0 0.6875 -0.234375 1.234375q-0.234375 0.546875 -0.65625 0.9375q-0.40625 0.390625 -0.96875 0.609375q-0.546875 0.203125 -1.1875 0.203125z" fill="#ffffff"></path><path fill-rule="nonzero" d="m394.2061 517.20734l-0.59375 -1.90625l4.625 -4.6875l2.6875 0l-6.71875 6.59375zm-1.65625 2.734375l0 -9.328125l2.265625 0l0 9.328125l-2.265625 0zm5.984375 0l-3.46875 -4.5625l1.53125 -1.3125l4.578125 5.875l-2.640625 0z" fill="#ffffff"></path><path fill-rule="nonzero" d="m392.54984 535.9417l0 -9.328125l2.265625 0l0 7.328125l4.15625 0l0 2.0l-6.421875 0z" fill="#ffffff"></path><path fill-rule="nonzero" d="m392.17484 551.9417l0 -1.5l5.015625 -6.671875l0.78125 0.921875l-5.453125 0l0 -2.078125l7.046875 0l0 1.484375l-4.984375 6.6875l-0.796875 -0.828125l5.921875 0l0 1.984375l-7.53125 0z" fill="#ffffff"></path><path fill-rule="nonzero" d="m398.0342 567.9417l-2.890625 -4.1875l-3.71875 -5.140625l2.765625 0l2.828125 4.125l3.765625 5.203125l-2.75 0zm-6.671875 0l3.5625 -5.078125l1.828125 1.046875l-2.765625 4.03125l-2.625 0zm5.859375 -4.328125l-1.8125 -1.015625l2.625 -3.984375l2.625 0l-3.4375 5.0z" fill="#ffffff"></path><path fill-rule="nonzero" d="m396.7842 584.08234q-1.046875 0 -1.9375 -0.359375q-0.890625 -0.359375 -1.546875 -1.0q-0.640625 -0.640625 -1.0 -1.53125q-0.34375 -0.890625 -0.34375 -1.953125q0 -1.046875 0.359375 -1.921875q0.375 -0.875 1.03125 -1.515625q0.671875 -0.65625 1.5625 -1.015625q0.90625 -0.359375 1.96875 -0.359375q0.671875 0 1.3125 0.171875q0.640625 0.171875 1.1875 0.515625q0.5625 0.34375 0.953125 0.796875l-1.375 1.59375q-0.28125 -0.296875 -0.609375 -0.515625q-0.3125 -0.21875 -0.6875 -0.328125q-0.359375 -0.125 -0.796875 -0.125q-0.53125 0 -1.0 0.1875q-0.46875 0.1875 -0.828125 0.546875q-0.34375 0.359375 -0.546875 0.875q-0.203125 0.5 -0.203125 1.125q0 0.609375 0.203125 1.109375q0.203125 0.5 0.5625 0.859375q0.359375 0.359375 0.859375 0.546875q0.515625 0.1875 1.140625 0.1875q0.4375 0 0.8125 -0.125q0.390625 -0.125 0.71875 -0.328125q0.328125 -0.203125 0.578125 -0.46875l1.09375 1.734375q-0.328125 0.375 -0.890625 0.671875q-0.546875 0.28125 -1.21875 0.453125q-0.671875 0.171875 -1.359375 0.171875z" fill="#ffffff"></path><path fill-rule="nonzero" d="m395.1592 599.9417l-3.734375 -9.328125l2.359375 0l1.8125 4.75q0.15625 0.421875 0.265625 0.734375q0.109375 0.296875 0.1875 0.5625q0.09375 0.265625 0.171875 0.546875q0.078125 0.265625 0.171875 0.609375l-0.421875 0q0.109375 -0.453125 0.21875 -0.796875q0.109375 -0.359375 0.234375 -0.734375q0.140625 -0.375 0.34375 -0.921875l1.734375 -4.75l2.3125 0l-3.765625 9.328125l-1.890625 0z" fill="#ffffff"></path><path fill-rule="nonzero" d="m392.54984 615.9417l0 -9.328125l4.125 0q0.953125 0 1.609375 0.28125q0.671875 0.265625 1.015625 0.78125q0.34375 0.515625 0.34375 1.234375q0 0.796875 -0.390625 1.34375q-0.390625 0.546875 -1.140625 0.734375l-0.03125 -0.265625q0.625 0.140625 1.078125 0.484375q0.46875 0.328125 0.71875 0.8125q0.25 0.484375 0.25 1.09375q0 0.703125 -0.234375 1.234375q-0.234375 0.53125 -0.6875 0.890625q-0.453125 0.359375 -1.0625 0.53125q-0.609375 0.171875 -1.34375 0.171875l-4.25 0zm2.140625 -1.890625l2.03125 0q0.375 0 0.625 -0.109375q0.265625 -0.125 0.40625 -0.359375q0.15625 -0.234375 0.15625 -0.578125q0 -0.296875 -0.15625 -0.515625q-0.15625 -0.21875 -0.4375 -0.328125q-0.265625 -0.109375 -0.65625 -0.109375l-1.96875 0l0 2.0zm0 -3.6875l1.65625 0q0.34375 0 0.59375 -0.109375q0.25 -0.125 0.375 -0.328125q0.125 -0.203125 0.125 -0.5q0 -0.421875 -0.296875 -0.671875q-0.28125 -0.25 -0.875 -0.25l-1.578125 0l0 1.859375z" fill="#ffffff"></path><path fill-rule="nonzero" d="m392.54984 631.9417l0 -9.328125l2.03125 0l4.890625 6.65625l-0.4375 -0.0625q-0.078125 -0.4375 -0.125 -0.828125q-0.03125 -0.40625 -0.0625 -0.796875q-0.03125 -0.390625 -0.0625 -0.78125q-0.015625 -0.40625 -0.015625 -0.875q0 -0.46875 0 -1.015625l0 -2.296875l2.1875 0l0 9.328125l-2.046875 0l-5.109375 -6.875l0.6875 0.09375q0.0625 0.640625 0.109375 1.09375q0.046875 0.4375 0.078125 0.78125q0.03125 0.34375 0.046875 0.625q0.015625 0.28125 0.015625 0.5625q0.015625 0.265625 0.015625 0.59375l0 3.125l-2.203125 0z" fill="#ffffff"></path><path fill-rule="nonzero" d="m392.54984 647.9417l0 -9.328125l2.03125 0l3.390625 5.53125l-1.453125 -0.015625l3.4375 -5.515625l1.953125 0l0 9.328125l-2.203125 0l0 -2.90625q0 -1.203125 0.0625 -2.15625q0.0625 -0.96875 0.203125 -1.90625l0.25 0.6875l-2.578125 4.015625l-0.875 0l-2.53125 -3.984375l0.25 -0.71875q0.140625 0.890625 0.203125 1.828125q0.0625 0.9375 0.0625 2.234375l0 2.90625l-2.203125 0z" fill="#ffffff"></path><path fill-rule="nonzero" d="m394.50296 663.9417l-2.96875 -7.078125l2.359375 0l1.765625 5.296875l-0.515625 0.046875l1.8125 -5.34375l2.328125 0l-3.109375 7.078125l-1.671875 0z" fill="#ffffff"></path><path fill-rule="evenodd" d="m496.9449 314.58267l270.2362 0l0 42.015747l-270.2362 0z" fill-opacity="0.0" fill="#000000"></path><path fill-rule="nonzero" d="m513.24176 341.6902q-1.390625 0 -2.5625 -0.5q-1.15625 -0.515625 -2.03125 -1.40625q-0.859375 -0.90625 -1.34375 -2.125q-0.46875 -1.234375 -0.46875 -2.6875q0 -1.453125 0.46875 -2.671875q0.484375 -1.21875 1.34375 -2.125q0.875 -0.90625 2.03125 -1.40625q1.171875 -0.515625 2.5625 -0.515625q1.375 0 2.53125 0.515625q1.171875 0.5 2.046875 1.421875q0.875 0.90625 1.34375 2.125q0.46875 1.21875 0.46875 2.65625q0 1.4375 -0.46875 2.65625q-0.46875 1.21875 -1.34375 2.140625q-0.875 0.90625 -2.046875 1.421875q-1.15625 0.5 -2.53125 0.5zm0 -1.953125q0.953125 0 1.734375 -0.359375q0.796875 -0.359375 1.375 -1.0q0.578125 -0.640625 0.90625 -1.5q0.328125 -0.875 0.328125 -1.90625q0 -1.03125 -0.328125 -1.890625q-0.328125 -0.875 -0.90625 -1.515625q-0.578125 -0.640625 -1.375 -0.984375q-0.78125 -0.359375 -1.734375 -0.359375q-0.953125 0 -1.75 0.359375q-0.796875 0.34375 -1.390625 0.984375q-0.578125 0.625 -0.890625 1.5q-0.3125 0.859375 -0.3125 1.90625q0 1.03125 0.3125 1.90625q0.3125 0.875 0.890625 1.515625q0.59375 0.625 1.390625 0.984375q0.796875 0.359375 1.75 0.359375zm10.386047 -1.296875l-0.09375 -2.09375l4.6875 -4.640625l2.59375 0l-7.1875 6.734375zm-1.75 3.0625l0 -13.8125l1.921875 0l0 13.8125l-1.921875 0zm6.609375 0l-3.703125 -4.3125l1.359375 -1.25l4.796875 5.5625l-2.453125 0z" fill="#ffffff"></path><path fill-rule="evenodd" d="m496.9449 351.87402l270.2362 0l0 42.015747l-270.2362 0z" fill-opacity="0.0" fill="#000000"></path><path fill-rule="nonzero" d="m513.0699 378.9815q-1.359375 0 -2.5 -0.484375q-1.140625 -0.484375 -1.984375 -1.390625q-0.828125 -0.90625 -1.296875 -2.140625q-0.453125 -1.234375 -0.453125 -2.703125q0 -1.390625 0.5 -2.59375q0.5 -1.203125 1.375 -2.109375q0.875 -0.921875 2.03125 -1.421875q1.15625 -0.515625 2.5 -0.515625q0.953125 0 1.859375 0.296875q0.90625 0.28125 1.640625 0.796875q0.734375 0.515625 1.203125 1.171875l-1.34375 1.390625q-0.546875 -0.546875 -1.09375 -0.90625q-0.546875 -0.359375 -1.125 -0.546875q-0.5625 -0.1875 -1.140625 -0.1875q-0.921875 0 -1.71875 0.34375q-0.78125 0.34375 -1.375 0.96875q-0.578125 0.609375 -0.921875 1.46875q-0.328125 0.84375 -0.328125 1.84375q0 1.0625 0.3125 1.9375q0.328125 0.859375 0.921875 1.484375q0.609375 0.609375 1.4375 0.9375q0.828125 0.328125 1.84375 0.328125q0.609375 0 1.203125 -0.171875q0.59375 -0.171875 1.109375 -0.484375q0.53125 -0.3125 0.96875 -0.75l1.0 1.640625q-0.421875 0.515625 -1.171875 0.921875q-0.734375 0.40625 -1.640625 0.640625q-0.890625 0.234375 -1.8125 0.234375zm6.9176025 -0.1875l0 -13.8125l1.921875 0l0 13.8125l-1.921875 0zm8.871033 0.1875q-1.4375 0 -2.578125 -0.65625q-1.125 -0.671875 -1.78125 -1.8125q-0.640625 -1.15625 -0.640625 -2.625q0 -1.46875 0.640625 -2.609375q0.65625 -1.15625 1.78125 -1.8125q1.140625 -0.671875 2.578125 -0.671875q1.40625 0 2.53125 0.671875q1.140625 0.65625 1.796875 1.8125q0.65625 1.140625 0.65625 2.609375q0 1.46875 -0.65625 2.625q-0.65625 1.140625 -1.796875 1.8125q-1.125 0.65625 -2.53125 0.65625zm0 -1.75q0.875 0 1.5625 -0.4375q0.6875 -0.4375 1.078125 -1.1875q0.390625 -0.765625 0.375 -1.71875q0.015625 -0.96875 -0.375 -1.71875q-0.390625 -0.765625 -1.078125 -1.1875q-0.6875 -0.4375 -1.5625 -0.4375q-0.875 0 -1.578125 0.4375q-0.703125 0.4375 -1.09375 1.203125q-0.390625 0.75 -0.375 1.703125q-0.015625 0.953125 0.375 1.71875q0.390625 0.75 1.09375 1.1875q0.703125 0.4375 1.578125 0.4375zm10.333008 1.75q-1.234375 0 -2.21875 -0.421875q-0.984375 -0.4375 -1.640625 -1.28125l1.296875 -1.109375q0.5625 0.640625 1.21875 0.9375q0.671875 0.28125 1.515625 0.28125q0.328125 0 0.609375 -0.078125q0.296875 -0.078125 0.515625 -0.25q0.21875 -0.171875 0.328125 -0.40625q0.109375 -0.234375 0.109375 -0.515625q0 -0.484375 -0.359375 -0.78125q-0.1875 -0.125 -0.59375 -0.28125q-0.390625 -0.15625 -1.03125 -0.328125q-1.078125 -0.28125 -1.765625 -0.625q-0.6875 -0.359375 -1.0625 -0.8125q-0.28125 -0.359375 -0.421875 -0.765625q-0.125 -0.421875 -0.125 -0.9375q0 -0.609375 0.265625 -1.125q0.28125 -0.515625 0.75 -0.890625q0.484375 -0.390625 1.125 -0.59375q0.640625 -0.203125 1.375 -0.203125q0.6875 0 1.359375 0.1875q0.6875 0.1875 1.265625 0.546875q0.578125 0.34375 0.96875 0.828125l-1.09375 1.21875q-0.359375 -0.359375 -0.78125 -0.625q-0.421875 -0.265625 -0.859375 -0.40625q-0.421875 -0.15625 -0.765625 -0.15625q-0.390625 0 -0.71875 0.078125q-0.3125 0.0625 -0.53125 0.21875q-0.203125 0.140625 -0.328125 0.375q-0.109375 0.21875 -0.109375 0.5q0.015625 0.234375 0.125 0.453125q0.109375 0.21875 0.296875 0.359375q0.203125 0.15625 0.609375 0.328125q0.40625 0.15625 1.046875 0.3125q0.921875 0.234375 1.53125 0.53125q0.609375 0.28125 0.96875 0.65625q0.375 0.359375 0.515625 0.828125q0.15625 0.46875 0.15625 1.046875q0 0.828125 -0.484375 1.5q-0.46875 0.65625 -1.28125 1.03125q-0.796875 0.375 -1.78125 0.375zm10.233215 0q-1.5 0 -2.671875 -0.640625q-1.15625 -0.640625 -1.828125 -1.765625q-0.65625 -1.125 -0.65625 -2.578125q0 -1.15625 0.375 -2.109375q0.375 -0.953125 1.03125 -1.640625q0.65625 -0.703125 1.578125 -1.078125q0.9375 -0.390625 2.015625 -0.390625q0.953125 0 1.765625 0.359375q0.828125 0.359375 1.421875 1.0q0.609375 0.640625 0.9375 1.515625q0.328125 0.859375 0.3125 1.875l-0.015625 0.828125l-8.0 0l-0.4375 -1.53125l6.765625 0l-0.265625 0.3125l0 -0.4375q-0.0625 -0.625 -0.421875 -1.109375q-0.34375 -0.484375 -0.890625 -0.765625q-0.546875 -0.28125 -1.171875 -0.28125q-1.015625 0 -1.703125 0.390625q-0.6875 0.375 -1.046875 1.125q-0.34375 0.734375 -0.34375 1.8125q0 1.015625 0.421875 1.78125q0.421875 0.75 1.203125 1.171875q0.796875 0.40625 1.8125 0.40625q0.734375 0 1.359375 -0.234375q0.625 -0.25 1.359375 -0.890625l0.96875 1.359375q-0.453125 0.453125 -1.09375 0.796875q-0.640625 0.328125 -1.359375 0.53125q-0.71875 0.1875 -1.421875 0.1875z" fill="#ffffff"></path><path fill-rule="evenodd" d="m499.77954 393.88977l270.2362 0l0 42.015747l-270.2362 0z" fill-opacity="0.0" fill="#000000"></path><path fill-rule="nonzero" d="m515.90454 420.99725q-1.359375 0 -2.5 -0.484375q-1.140625 -0.484375 -1.984375 -1.390625q-0.828125 -0.90625 -1.296875 -2.140625q-0.453125 -1.234375 -0.453125 -2.703125q0 -1.390625 0.5 -2.59375q0.5 -1.203125 1.375 -2.109375q0.875 -0.921875 2.03125 -1.421875q1.15625 -0.515625 2.5 -0.515625q0.953125 0 1.859375 0.296875q0.90625 0.28125 1.640625 0.796875q0.734375 0.515625 1.203125 1.171875l-1.34375 1.390625q-0.546875 -0.546875 -1.09375 -0.90625q-0.546875 -0.359375 -1.125 -0.546875q-0.5625 -0.1875 -1.140625 -0.1875q-0.921875 0 -1.71875 0.34375q-0.78125 0.34375 -1.375 0.96875q-0.578125 0.609375 -0.921875 1.46875q-0.328125 0.84375 -0.328125 1.84375q0 1.0625 0.3125 1.9375q0.328125 0.859375 0.921875 1.484375q0.609375 0.609375 1.4375 0.9375q0.828125 0.328125 1.84375 0.328125q0.609375 0 1.203125 -0.171875q0.59375 -0.171875 1.109375 -0.484375q0.53125 -0.3125 0.96875 -0.75l1.0 1.640625q-0.421875 0.515625 -1.171875 0.921875q-0.734375 0.40625 -1.640625 0.640625q-0.890625 0.234375 -1.8125 0.234375zm6.9176025 -0.1875l0 -13.8125l1.921875 0l0 13.8125l-1.921875 0zm9.027283 0.1875q-1.5 0 -2.671875 -0.640625q-1.15625 -0.640625 -1.828125 -1.765625q-0.65625 -1.125 -0.65625 -2.578125q0 -1.15625 0.375 -2.109375q0.375 -0.953125 1.03125 -1.640625q0.65625 -0.703125 1.578125 -1.078125q0.9375 -0.390625 2.015625 -0.390625q0.953125 0 1.765625 0.359375q0.828125 0.359375 1.421875 1.0q0.609375 0.640625 0.9375 1.515625q0.328125 0.859375 0.3125 1.875l-0.015625 0.828125l-8.0 0l-0.4375 -1.53125l6.765625 0l-0.265625 0.3125l0 -0.4375q-0.0625 -0.625 -0.421875 -1.109375q-0.34375 -0.484375 -0.890625 -0.765625q-0.546875 -0.28125 -1.171875 -0.28125q-1.015625 0 -1.703125 0.390625q-0.6875 0.375 -1.046875 1.125q-0.34375 0.734375 -0.34375 1.8125q0 1.015625 0.421875 1.78125q0.421875 0.75 1.203125 1.171875q0.796875 0.40625 1.8125 0.40625q0.734375 0 1.359375 -0.234375q0.625 -0.25 1.359375 -0.890625l0.96875 1.359375q-0.453125 0.453125 -1.09375 0.796875q-0.640625 0.328125 -1.359375 0.53125q-0.71875 0.1875 -1.421875 0.1875zm10.135681 0q-1.203125 0 -2.203125 -0.671875q-1.0 -0.671875 -1.609375 -1.828125q-0.59375 -1.15625 -0.59375 -2.609375q0 -1.484375 0.609375 -2.625q0.609375 -1.140625 1.640625 -1.796875q1.046875 -0.65625 2.328125 -0.65625q0.765625 0 1.390625 0.234375q0.640625 0.21875 1.109375 0.625q0.484375 0.390625 0.78125 0.921875q0.3125 0.515625 0.390625 1.109375l-0.421875 -0.140625l0 -2.546875l1.9375 0l0 9.796875l-1.9375 0l0 -2.328125l0.4375 -0.140625q-0.109375 0.515625 -0.453125 1.0q-0.34375 0.46875 -0.875 0.84375q-0.53125 0.359375 -1.171875 0.59375q-0.640625 0.21875 -1.359375 0.21875zm0.5 -1.765625q0.890625 0 1.546875 -0.421875q0.671875 -0.4375 1.046875 -1.1875q0.390625 -0.765625 0.390625 -1.734375q0 -0.953125 -0.390625 -1.703125q-0.375 -0.75 -1.046875 -1.171875q-0.65625 -0.4375 -1.546875 -0.4375q-0.859375 0 -1.515625 0.4375q-0.65625 0.421875 -1.046875 1.171875q-0.375 0.75 -0.375 1.703125q0 0.96875 0.375 1.734375q0.390625 0.75 1.046875 1.1875q0.65625 0.421875 1.515625 0.421875zm7.5438232 1.578125l0 -9.796875l1.9375 0l0 3.078125l-0.1875 -0.75q0.203125 -0.703125 0.703125 -1.28125q0.5 -0.578125 1.140625 -0.90625q0.640625 -0.34375 1.328125 -0.34375q0.3125 0 0.59375 0.0625q0.296875 0.046875 0.46875 0.125l-0.5 2.09375q-0.21875 -0.09375 -0.5 -0.15625q-0.265625 -0.078125 -0.53125 -0.078125q-0.5 0 -0.953125 0.203125q-0.453125 0.1875 -0.8125 0.546875q-0.34375 0.34375 -0.546875 0.796875q-0.203125 0.453125 -0.203125 1.0l0 5.40625l-1.9375 0z" fill="#ffffff"></path><path fill-rule="evenodd" d="m506.33072 435.90552l270.23624 0l0 42.015747l-270.23624 0z" fill-opacity="0.0" fill="#000000"></path><path fill-rule="nonzero" d="m522.4557 463.013q-1.359375 0 -2.5 -0.484375q-1.140625 -0.484375 -1.984375 -1.390625q-0.828125 -0.90625 -1.296875 -2.140625q-0.453125 -1.234375 -0.453125 -2.703125q0 -1.390625 0.5 -2.59375q0.5 -1.203125 1.375 -2.109375q0.875 -0.921875 2.03125 -1.421875q1.15625 -0.515625 2.5 -0.515625q0.953125 0 1.859375 0.296875q0.90625 0.28125 1.640625 0.796875q0.734375 0.515625 1.203125 1.171875l-1.34375 1.390625q-0.546875 -0.546875 -1.09375 -0.90625q-0.546875 -0.359375 -1.125 -0.546875q-0.5625 -0.1875 -1.140625 -0.1875q-0.921875 0 -1.71875 0.34375q-0.78125 0.34375 -1.375 0.96875q-0.578125 0.609375 -0.921875 1.46875q-0.328125 0.84375 -0.328125 1.84375q0 1.0625 0.3125 1.9375q0.328125 0.859375 0.921875 1.484375q0.609375 0.609375 1.4375 0.9375q0.828125 0.328125 1.84375 0.328125q0.609375 0 1.203125 -0.171875q0.59375 -0.171875 1.109375 -0.484375q0.53125 -0.3125 0.96875 -0.75l1.0 1.640625q-0.421875 0.515625 -1.171875 0.921875q-0.734375 0.40625 -1.640625 0.640625q-0.890625 0.234375 -1.8125 0.234375zm6.9176025 -0.1875l0 -13.8125l1.921875 0l0 13.8125l-1.921875 0zm9.027344 0.1875q-1.5 0 -2.671875 -0.640625q-1.15625 -0.640625 -1.828125 -1.765625q-0.65625 -1.125 -0.65625 -2.578125q0 -1.15625 0.375 -2.109375q0.375 -0.953125 1.03125 -1.640625q0.65625 -0.703125 1.578125 -1.078125q0.9375 -0.390625 2.015625 -0.390625q0.953125 0 1.765625 0.359375q0.828125 0.359375 1.421875 1.0q0.609375 0.640625 0.9375 1.515625q0.328125 0.859375 0.3125 1.875l-0.015625 0.828125l-8.0 0l-0.4375 -1.53125l6.765625 0l-0.265625 0.3125l0 -0.4375q-0.0625 -0.625 -0.421875 -1.109375q-0.34375 -0.484375 -0.890625 -0.765625q-0.546875 -0.28125 -1.171875 -0.28125q-1.015625 0 -1.703125 0.390625q-0.6875 0.375 -1.046875 1.125q-0.34375 0.734375 -0.34375 1.8125q0 1.015625 0.421875 1.78125q0.421875 0.75 1.203125 1.171875q0.796875 0.40625 1.8125 0.40625q0.734375 0 1.359375 -0.234375q0.625 -0.25 1.359375 -0.890625l0.96875 1.359375q-0.453125 0.453125 -1.09375 0.796875q-0.640625 0.328125 -1.359375 0.53125q-0.71875 0.1875 -1.421875 0.1875zm10.135681 0q-1.203125 0 -2.203125 -0.671875q-1.0 -0.671875 -1.609375 -1.828125q-0.59375 -1.15625 -0.59375 -2.609375q0 -1.484375 0.609375 -2.625q0.609375 -1.140625 1.640625 -1.796875q1.046875 -0.65625 2.328125 -0.65625q0.765625 0 1.390625 0.234375q0.640625 0.21875 1.109375 0.625q0.484375 0.390625 0.78125 0.921875q0.3125 0.515625 0.390625 1.109375l-0.421875 -0.140625l0 -2.546875l1.9375 0l0 9.796875l-1.9375 0l0 -2.328125l0.4375 -0.140625q-0.109375 0.515625 -0.453125 1.0q-0.34375 0.46875 -0.875 0.84375q-0.53125 0.359375 -1.171875 0.59375q-0.640625 0.21875 -1.359375 0.21875zm0.5 -1.765625q0.890625 0 1.546875 -0.421875q0.671875 -0.4375 1.046875 -1.1875q0.390625 -0.765625 0.390625 -1.734375q0 -0.953125 -0.390625 -1.703125q-0.375 -0.75 -1.046875 -1.171875q-0.65625 -0.4375 -1.546875 -0.4375q-0.859375 0 -1.515625 0.4375q-0.65625 0.421875 -1.046875 1.171875q-0.375 0.75 -0.375 1.703125q0 0.96875 0.375 1.734375q0.390625 0.75 1.046875 1.1875q0.65625 0.421875 1.515625 0.421875zm7.543762 1.578125l0 -9.796875l1.9375 0l0 3.078125l-0.1875 -0.75q0.203125 -0.703125 0.703125 -1.28125q0.5 -0.578125 1.140625 -0.90625q0.640625 -0.34375 1.328125 -0.34375q0.3125 0 0.59375 0.0625q0.296875 0.046875 0.46875 0.125l-0.5 2.09375q-0.21875 -0.09375 -0.5 -0.15625q-0.265625 -0.078125 -0.53125 -0.078125q-0.5 0 -0.953125 0.203125q-0.453125 0.1875 -0.8125 0.546875q-0.34375 0.34375 -0.546875 0.796875q-0.203125 0.453125 -0.203125 1.0l0 5.40625l-1.9375 0z" fill="#ffffff"></path></g></svg>