<svg version="1.1" xmlns="http://www.w3.org/2000/svg" xmlns:xlink="http://www.w3.org/1999/xlink" width="492.23706" height="351.64465" viewBox="0,0,492.23706,351.64465"><g transform="translate(159.75,22.25)"><g data-paper-data="{&quot;isPaintingLayer&quot;:true}" fill-rule="nonzero" stroke-linejoin="miter" stroke-miterlimit="10" stroke-dasharray="" stroke-dashoffset="0" style="mix-blend-mode: normal"><path d="M-151.5,-22l-8,21" fill="none" stroke="#000000" stroke-width="0.5" stroke-linecap="round"/><path d="M166.06447,312.34422c-0.47571,0 -0.91643,-0.06296 -1.32218,-0.18888c-0.40574,-0.12592 -0.77302,-0.3148 -1.10182,-0.56665c-0.3288,-0.25884 -0.62261,-0.57364 -0.88145,-0.94441l0.92343,-1.07033c0.41275,0.58763 0.8045,0.99338 1.17527,1.21724c0.37777,0.22386 0.82548,0.33579 1.34316,0.33579c0.31481,0 0.60163,-0.04897 0.86047,-0.14691c0.25884,-0.10494 0.46171,-0.24485 0.60862,-0.41974c0.15391,-0.17489 0.23086,-0.37427 0.23086,-0.59813c0,-0.14691 -0.02448,-0.28683 -0.07345,-0.41974c-0.04897,-0.13991 -0.12592,-0.26233 -0.23086,-0.36727c-0.10494,-0.11193 -0.23785,-0.21337 -0.39875,-0.30431c-0.1609,-0.09094 -0.34978,-0.1714 -0.56665,-0.24135c-0.21687,-0.06995 -0.4687,-0.12942 -0.75553,-0.17839c-0.44772,-0.09794 -0.83948,-0.22036 -1.17527,-0.36727c-0.33579,-0.15391 -0.61562,-0.34279 -0.83948,-0.56665c-0.22386,-0.22386 -0.39175,-0.4792 -0.50368,-0.76602c-0.11193,-0.28683 -0.1679,-0.61212 -0.1679,-0.9759c0,-0.34978 0.07695,-0.67509 0.23086,-0.9759c0.1609,-0.30081 0.37427,-0.55965 0.6401,-0.77652c0.27283,-0.22386 0.59113,-0.39526 0.95491,-0.51418c0.37077,-0.12592 0.76952,-0.18888 1.19626,-0.18888c0.45472,0 0.86746,0.05946 1.23823,0.17839c0.37777,0.11892 0.71356,0.29382 1.00738,0.52468c0.29382,0.22386 0.53517,0.50369 0.72405,0.83948l-0.95491,0.94441c-0.1609,-0.27983 -0.34628,-0.51068 -0.55615,-0.69257c-0.20987,-0.18889 -0.44073,-0.33229 -0.69257,-0.43023c-0.25185,-0.09794 -0.51768,-0.14691 -0.79751,-0.14691c-0.3288,0 -0.61561,0.05246 -0.86047,0.1574c-0.23785,0.09794 -0.42673,0.23785 -0.56665,0.41974c-0.13992,0.17489 -0.20987,0.38476 -0.20987,0.62961c0,0.17489 0.03498,0.3358 0.10493,0.48271c0.06995,0.14691 0.1714,0.27632 0.30431,0.38825c0.13992,0.11193 0.3253,0.21337 0.55615,0.30432c0.23785,0.08395 0.51768,0.1574 0.83948,0.22036c0.46171,0.10494 0.87096,0.23435 1.22774,0.38826c0.36378,0.15391 0.66808,0.3358 0.91294,0.54567c0.25185,0.20987 0.44072,0.44422 0.56664,0.70306c0.13291,0.25884 0.19938,0.53867 0.19938,0.83948c0,0.55966 -0.12942,1.04586 -0.38826,1.4586c-0.25884,0.40575 -0.62611,0.72055 -1.10182,0.94441c-0.47571,0.21686 -1.04236,0.3253 -1.69995,0.3253zM171.6686,312.2183v-8.25838h1.2907v8.25838zM170.29395,306.89809v-1.25922h4.1869v1.25922zM178.12757,312.34422c-0.53867,0 -1.03186,-0.15041 -1.47958,-0.45122c-0.44772,-0.30081 -0.808,-0.71006 -1.08083,-1.22774c-0.26584,-0.51768 -0.39875,-1.10181 -0.39875,-1.75241c0,-0.66459 0.13641,-1.25223 0.40924,-1.76291c0.27283,-0.51068 0.64011,-0.91293 1.10182,-1.20675c0.46871,-0.29382 0.98988,-0.44073 1.56353,-0.44073c0.34278,0 0.6541,0.05247 0.93392,0.1574c0.28682,0.09794 0.53517,0.23785 0.74504,0.41974c0.21687,0.17489 0.39176,0.38126 0.52467,0.61911c0.13992,0.23086 0.22736,0.47921 0.26234,0.74504l-0.28332,-0.09445v-1.71044h1.3012v6.57943h-1.3012v-1.56353l0.29382,-0.09445c-0.04897,0.23086 -0.15041,0.45472 -0.30432,0.67158c-0.15391,0.20987 -0.34978,0.39876 -0.58764,0.56665c-0.23785,0.1609 -0.50019,0.29381 -0.78701,0.39875c-0.28682,0.09794 -0.59114,0.14691 -0.91294,0.14691zM178.46336,311.15845c0.39875,0 0.74504,-0.09444 1.03886,-0.28332c0.30081,-0.19588 0.53517,-0.46172 0.70306,-0.79751c0.17489,-0.34278 0.26234,-0.73104 0.26234,-1.16478c0,-0.42674 -0.08745,-0.80801 -0.26234,-1.1438c-0.16789,-0.33579 -0.40225,-0.59812 -0.70306,-0.78701c-0.29382,-0.19588 -0.64011,-0.29382 -1.03886,-0.29382c-0.38476,0 -0.72404,0.09794 -1.01787,0.29382c-0.29382,0.18889 -0.52817,0.45122 -0.70306,0.78701c-0.16789,0.33579 -0.25185,0.71706 -0.25185,1.1438c0,0.43373 0.08395,0.82199 0.25185,1.16478c0.17489,0.33579 0.40924,0.60163 0.70306,0.79751c0.29382,0.18889 0.63311,0.28332 1.01787,0.28332zM183.52965,312.2183v-6.57943h1.30119v2.06722l-0.12592,-0.50369c0.09095,-0.3148 0.24835,-0.60163 0.47221,-0.86047c0.22386,-0.25884 0.4792,-0.46171 0.76603,-0.60862c0.28682,-0.15391 0.58414,-0.23086 0.89195,-0.23086c0.13992,0 0.27283,0.01399 0.39875,0.04197c0.13291,0.02098 0.23785,0.04897 0.31481,0.08395l-0.33579,1.40613c-0.09794,-0.04197 -0.20987,-0.07695 -0.33579,-0.10494c-0.11892,-0.03498 -0.23785,-0.05247 -0.35678,-0.05247c-0.22386,0 -0.43723,0.04547 -0.64011,0.13642c-0.20288,0.08395 -0.38476,0.20637 -0.54566,0.36727c-0.15391,0.15391 -0.27633,0.33229 -0.36728,0.53517c-0.09095,0.20288 -0.13641,0.42674 -0.13641,0.67158v3.63075zM189.64814,312.2183v-8.25838h1.2907v8.25838zM188.27349,306.89809v-1.25922h4.1869v1.25922zM197.96755,312.2183v-8.25838h1.2907v8.25838zM196.5929,306.89809v-1.25922h4.18691v1.25922zM203.06211,315.104l1.33267,-3.07459l0.01049,1.02837l-3.28447,-7.4189h1.50057l2.05673,4.83751c0.04198,0.08395 0.09095,0.21337 0.14691,0.38826c0.06296,0.16789 0.11543,0.33579 0.15741,0.50368l-0.3253,0.07346c0.06296,-0.17489 0.12592,-0.34978 0.18888,-0.52468c0.06296,-0.17489 0.12242,-0.34978 0.17838,-0.52468l1.72093,-4.75356h1.53205l-2.70732,6.57943l-1.11231,2.88571zM209.23976,314.97809v-9.33922h1.3012v1.50057l-0.19938,-0.10493c0.04897,-0.25185 0.18888,-0.4932 0.41974,-0.72405c0.23785,-0.23086 0.52468,-0.41974 0.86047,-0.56665c0.34278,-0.14691 0.69257,-0.22036 1.04935,-0.22036c0.59463,0 1.1193,0.14691 1.57403,0.44073c0.46171,0.29382 0.82549,0.69607 1.09132,1.20675c0.27283,0.51068 0.40924,1.09482 0.40924,1.75241c0,0.6506 -0.13292,1.23474 -0.39875,1.75241c-0.26584,0.51068 -0.6296,0.91643 -1.09132,1.21724c-0.45472,0.29382 -0.9689,0.44073 -1.54254,0.44073c-0.38476,0 -0.75903,-0.07695 -1.1228,-0.23086c-0.35678,-0.15391 -0.66109,-0.35328 -0.91294,-0.59813c-0.25185,-0.24485 -0.40575,-0.49669 -0.46171,-0.75553l0.3253,-0.1679v4.39678zM212.49274,311.13747c0.38476,0 0.72755,-0.09444 1.02837,-0.28333c0.30081,-0.19588 0.53866,-0.45822 0.71355,-0.78701c0.17489,-0.33579 0.26234,-0.71705 0.26234,-1.14379c0,-0.42674 -0.08745,-0.8045 -0.26234,-1.1333c-0.16789,-0.3288 -0.40225,-0.58763 -0.70306,-0.77652c-0.29382,-0.19588 -0.6401,-0.29382 -1.03886,-0.29382c-0.39176,0 -0.73804,0.09444 -1.03885,0.28332c-0.30081,0.18889 -0.53867,0.45123 -0.71356,0.78701c-0.17489,0.3288 -0.26234,0.70656 -0.26234,1.1333c0,0.42674 0.08745,0.808 0.26234,1.14379c0.17489,0.3288 0.41275,0.59114 0.71356,0.78701c0.30081,0.18889 0.64709,0.28333 1.03885,0.28333zM217.35558,312.2183v-6.57943h1.2907v6.57943zM217.98519,304.19077c-0.27283,0 -0.4862,-0.06995 -0.64011,-0.20987c-0.14691,-0.14691 -0.22036,-0.34978 -0.22036,-0.60863c0,-0.24485 0.07695,-0.44072 0.23086,-0.58763c0.15391,-0.15391 0.36378,-0.23086 0.62961,-0.23086c0.27283,0 0.4827,0.07346 0.62961,0.22037c0.15391,0.13991 0.23086,0.33928 0.23086,0.59812c0,0.24485 -0.07695,0.44423 -0.23086,0.59813c-0.15391,0.14691 -0.36377,0.22036 -0.62961,0.22036zM220.62883,312.2183v-6.57943h1.2907v1.35366l-0.23086,0.14691c0.08395,-0.28683 0.24834,-0.55266 0.49319,-0.79751c0.24485,-0.25185 0.53168,-0.45471 0.86047,-0.60862c0.33579,-0.15391 0.67857,-0.23086 1.02836,-0.23086c0.50369,0 0.91993,0.09794 1.24873,0.29382c0.33579,0.19588 0.58764,0.49669 0.75553,0.90244c0.16789,0.39875 0.25184,0.90244 0.25184,1.51107v4.00851h-1.2907v-3.92457c0,-0.37077 -0.04896,-0.67858 -0.1469,-0.92343c-0.09794,-0.25185 -0.25185,-0.43374 -0.46172,-0.54566c-0.20987,-0.11193 -0.46871,-0.16089 -0.77652,-0.14691c-0.25185,0 -0.4827,0.04197 -0.69257,0.12592c-0.20987,0.07695 -0.39175,0.18888 -0.54566,0.33579c-0.15391,0.13991 -0.27633,0.30431 -0.36728,0.4932c-0.08395,0.18189 -0.12592,0.38127 -0.12592,0.59813v3.98753h-0.64011c-0.10494,0 -0.21337,0 -0.3253,0c-0.11193,0 -0.22036,0 -0.3253,0zM231.03239,315.104c-0.46871,0 -0.93742,-0.07345 -1.40613,-0.22036c-0.46171,-0.14691 -0.83249,-0.33929 -1.11231,-0.57714l0.47221,-0.99689c0.16789,0.12592 0.36377,0.23435 0.58763,0.3253c0.22386,0.09794 0.46171,0.17489 0.71356,0.23086c0.25185,0.05597 0.50019,0.08395 0.74504,0.08395c0.45472,0 0.83598,-0.07695 1.14379,-0.23086c0.31481,-0.14691 0.54916,-0.36727 0.70307,-0.66109c0.1609,-0.29382 0.24135,-0.65759 0.24135,-1.09132v-1.25922l0.13641,0.08395c-0.04198,0.25884 -0.17839,0.50719 -0.40924,0.74504c-0.23085,0.23785 -0.51768,0.43373 -0.86047,0.58763c-0.33579,0.14691 -0.68557,0.22037 -1.04935,0.22037c-0.62261,0 -1.17878,-0.14691 -1.66847,-0.44073c-0.4897,-0.30081 -0.87795,-0.70657 -1.16477,-1.21724c-0.27982,-0.51768 -0.41974,-1.10532 -0.41974,-1.76291c0,-0.65759 0.13992,-1.24174 0.41974,-1.75241c0.27982,-0.51768 0.66109,-0.92343 1.14379,-1.21725c0.4897,-0.30081 1.04236,-0.45122 1.65798,-0.45122c0.24485,0 0.4827,0.03149 0.71355,0.09445c0.23785,0.06296 0.45821,0.15041 0.66109,0.26234c0.20288,0.11193 0.38126,0.23436 0.53517,0.36728c0.1609,0.13292 0.29032,0.27632 0.38826,0.43023c0.10494,0.14691 0.1679,0.28682 0.18888,0.41974l-0.27283,0.10494v-1.54255h1.2907v6.18067c0,0.52468 -0.07695,0.98989 -0.23085,1.39563c-0.15391,0.40575 -0.37776,0.74854 -0.67158,1.02837c-0.29382,0.27983 -0.6506,0.49319 -1.07033,0.6401c-0.41275,0.14691 -0.88146,0.22036 -1.40613,0.22036zM231.07437,311.15845c0.41275,0 0.77651,-0.09444 1.09132,-0.28332c0.3218,-0.19588 0.57015,-0.46172 0.74504,-0.79751c0.17489,-0.33579 0.26234,-0.72055 0.26234,-1.15429c0,-0.43373 -0.09095,-0.8185 -0.27284,-1.15429c-0.18189,-0.34278 -0.43023,-0.60862 -0.74504,-0.79751c-0.30781,-0.19588 -0.66808,-0.29381 -1.08083,-0.29381c-0.39875,0 -0.75553,0.09794 -1.07034,0.29381c-0.31481,0.19588 -0.56314,0.46522 -0.74504,0.808c-0.17489,0.33579 -0.26234,0.71706 -0.26234,1.14379c0,0.42674 0.08745,0.8115 0.26234,1.15429c0.18189,0.33579 0.43023,0.60163 0.74504,0.79751c0.31481,0.18889 0.67158,0.28332 1.07034,0.28332zM242.68255,312.34422c-0.6436,0 -1.22074,-0.14691 -1.73143,-0.44073c-0.50369,-0.30081 -0.90244,-0.70657 -1.19626,-1.21724c-0.28682,-0.51768 -0.43023,-1.10532 -0.43023,-1.76291c0,-0.65759 0.14341,-1.24174 0.43023,-1.75241c0.29382,-0.51768 0.69257,-0.92343 1.19626,-1.21725c0.51068,-0.30081 1.08783,-0.45122 1.73143,-0.45122c0.62961,0 1.19626,0.15041 1.69995,0.45122c0.51068,0.29382 0.91293,0.69957 1.20675,1.21725c0.29382,0.51068 0.44072,1.09482 0.44072,1.75241c0,0.65759 -0.1469,1.24523 -0.44072,1.76291c-0.29382,0.51068 -0.69607,0.91643 -1.20675,1.21724c-0.50369,0.29382 -1.07034,0.44073 -1.69995,0.44073zM242.68255,311.16895c0.39176,0 0.74154,-0.09794 1.04935,-0.29382c0.30781,-0.19588 0.54916,-0.46172 0.72405,-0.79751c0.17489,-0.34278 0.25883,-0.72755 0.25184,-1.15429c0.00699,-0.43373 -0.07695,-0.8185 -0.25184,-1.15429c-0.17489,-0.34278 -0.41625,-0.60862 -0.72405,-0.79751c-0.30781,-0.19588 -0.65759,-0.29381 -1.04935,-0.29381c-0.39176,0 -0.74504,0.09794 -1.05984,0.29381c-0.31481,0.19588 -0.55965,0.46522 -0.73454,0.808c-0.17489,0.33579 -0.25884,0.71706 -0.25185,1.14379c-0.00699,0.42674 0.07695,0.8115 0.25185,1.15429c0.17489,0.33579 0.41974,0.60163 0.73454,0.79751c0.31481,0.19588 0.66808,0.29382 1.05984,0.29382zM247.42887,312.2183v-6.57943h1.30119v2.06722l-0.12592,-0.50369c0.09095,-0.3148 0.24835,-0.60163 0.47221,-0.86047c0.22386,-0.25884 0.4792,-0.46171 0.76602,-0.60862c0.28682,-0.15391 0.58414,-0.23086 0.89195,-0.23086c0.13992,0 0.27283,0.01399 0.39875,0.04197c0.13291,0.02098 0.23785,0.04897 0.31481,0.08395l-0.33579,1.40613c-0.09794,-0.04197 -0.20987,-0.07695 -0.33579,-0.10494c-0.11892,-0.03498 -0.23786,-0.05247 -0.35678,-0.05247c-0.22386,0 -0.43723,0.04547 -0.6401,0.13642c-0.20288,0.08395 -0.38476,0.20637 -0.54566,0.36727c-0.15391,0.15391 -0.27633,0.33229 -0.36727,0.53517c-0.09095,0.20288 -0.13641,0.42674 -0.13641,0.67158v3.63075zM258.77761,312.34422c-0.60862,0 -1.15428,-0.15041 -1.63698,-0.45122c-0.47571,-0.30081 -0.85348,-0.71006 -1.1333,-1.22774c-0.27983,-0.51768 -0.41974,-1.09832 -0.41974,-1.74192c0,-0.6436 0.13991,-1.22424 0.41974,-1.74192c0.27983,-0.51768 0.6576,-0.92693 1.1333,-1.22774c0.4827,-0.30081 1.02836,-0.45122 1.63698,-0.45122c0.58763,0 1.1193,0.11893 1.59501,0.35678c0.4827,0.23785 0.84997,0.56315 1.10182,0.97589l-0.71356,0.87096c-0.13291,-0.18889 -0.30431,-0.36377 -0.51418,-0.52468c-0.20987,-0.1609 -0.43374,-0.28682 -0.67158,-0.37777c-0.23086,-0.09094 -0.45472,-0.13641 -0.67158,-0.13641c-0.39875,0 -0.75553,0.09794 -1.07033,0.29381c-0.31481,0.19588 -0.56315,0.46522 -0.74504,0.808c-0.18189,0.34278 -0.27283,0.72755 -0.27283,1.15429c0,0.42674 0.09444,0.8115 0.28332,1.15429c0.19588,0.33579 0.45122,0.60512 0.76602,0.808c0.31481,0.19588 0.66459,0.29382 1.04935,0.29382c0.23085,0 0.45122,-0.03848 0.66109,-0.11543c0.20987,-0.07695 0.41624,-0.18889 0.61911,-0.3358c0.20288,-0.15391 0.39176,-0.33929 0.56665,-0.55615l0.71356,0.88146c-0.26583,0.37777 -0.6471,0.68907 -1.14379,0.93392c-0.4967,0.23785 -1.01437,0.35678 -1.55304,0.35678zM262.71047,312.2183v-9.27625h1.2907v9.27625zM266.04421,312.2183v-6.57943h1.2907v6.57943zM266.67382,304.19077c-0.27283,0 -0.4862,-0.06995 -0.6401,-0.20987c-0.14691,-0.14691 -0.22037,-0.34978 -0.22037,-0.60863c0,-0.24485 0.07695,-0.44072 0.23086,-0.58763c0.15391,-0.15391 0.36377,-0.23086 0.62961,-0.23086c0.27283,0 0.4827,0.07346 0.62961,0.22037c0.15391,0.13991 0.23085,0.33928 0.23085,0.59812c0,0.24485 -0.07695,0.44423 -0.23085,0.59813c-0.15391,0.14691 -0.36377,0.22036 -0.62961,0.22036zM272.10871,312.34422c-0.60862,0 -1.15428,-0.15041 -1.63698,-0.45122c-0.47571,-0.30081 -0.85348,-0.71006 -1.1333,-1.22774c-0.27983,-0.51768 -0.41974,-1.09832 -0.41974,-1.74192c0,-0.6436 0.13992,-1.22424 0.41974,-1.74192c0.27982,-0.51768 0.65759,-0.92693 1.1333,-1.22774c0.4827,-0.30081 1.02836,-0.45122 1.63698,-0.45122c0.58764,0 1.11931,0.11893 1.59501,0.35678c0.4827,0.23785 0.84998,0.56315 1.10182,0.97589l-0.71356,0.87096c-0.13292,-0.18889 -0.30431,-0.36377 -0.51418,-0.52468c-0.20987,-0.1609 -0.43374,-0.28682 -0.67159,-0.37777c-0.23085,-0.09094 -0.45472,-0.13641 -0.67158,-0.13641c-0.39876,0 -0.75553,0.09794 -1.07033,0.29381c-0.31481,0.19588 -0.56315,0.46522 -0.74504,0.808c-0.18189,0.34278 -0.27283,0.72755 -0.27283,1.15429c0,0.42674 0.09444,0.8115 0.28332,1.15429c0.19588,0.33579 0.45122,0.60512 0.76603,0.808c0.3148,0.19588 0.66459,0.29382 1.04935,0.29382c0.23085,0 0.45122,-0.03848 0.66109,-0.11543c0.20987,-0.07695 0.41624,-0.18889 0.61912,-0.3358c0.20288,-0.15391 0.39176,-0.33929 0.56665,-0.55615l0.71356,0.88146c-0.26583,0.37777 -0.6471,0.68907 -1.1438,0.93392c-0.49669,0.23785 -1.01437,0.35678 -1.55304,0.35678zM277.19584,310.16157l-0.06296,-1.40613l3.14805,-3.11657h1.74192zM276.02057,312.2183v-9.27625h1.2907v9.27625zM280.45932,312.2183l-2.48696,-2.89621l0.91294,-0.83948l3.2215,3.73568zM287.46389,312.2183v-8.25838h1.2907v8.25838zM286.08924,306.89809v-1.25922h4.1869v1.25922zM291.45662,312.2183v-9.27625h1.2907v4.05049l-0.23086,0.14691c0.08395,-0.28683 0.24835,-0.55266 0.4932,-0.79751c0.24485,-0.25185 0.53167,-0.45471 0.86046,-0.60862c0.33579,-0.15391 0.67858,-0.23086 1.02837,-0.23086c0.50369,0 0.91993,0.09794 1.24873,0.29382c0.33579,0.19588 0.58763,0.49669 0.75553,0.90244c0.16789,0.39875 0.25185,0.90244 0.25185,1.51107v4.00851h-1.2907v-3.92457c0,-0.37077 -0.04897,-0.67858 -0.14691,-0.92343c-0.09794,-0.25185 -0.25184,-0.43374 -0.46171,-0.54566c-0.20987,-0.11193 -0.46871,-0.16089 -0.77652,-0.14691c-0.25185,0 -0.4827,0.04197 -0.69257,0.12592c-0.20987,0.07695 -0.39176,0.18888 -0.54566,0.33579c-0.15391,0.13991 -0.27633,0.30431 -0.36727,0.4932c-0.08395,0.18189 -0.12592,0.38127 -0.12592,0.59813v3.98753h-0.64011c-0.10494,0 -0.21337,0 -0.3253,0c-0.11193,0 -0.22036,0 -0.3253,0zM301.97562,312.34422c-0.67158,0 -1.26972,-0.14341 -1.79439,-0.43024c-0.51768,-0.28683 -0.92692,-0.68207 -1.22773,-1.18577c-0.29382,-0.50369 -0.44073,-1.08083 -0.44073,-1.73143c0,-0.51768 0.08395,-0.98988 0.25185,-1.41662c0.16789,-0.42674 0.39875,-0.79401 0.69257,-1.10182c0.29382,-0.3148 0.6471,-0.55615 1.05984,-0.72405c0.41974,-0.17489 0.87096,-0.26234 1.35366,-0.26234c0.42674,0 0.82199,0.08045 1.18577,0.24135c0.37077,0.1609 0.68908,0.38475 0.95491,0.67158c0.27283,0.28683 0.4827,0.62611 0.62961,1.01787c0.14691,0.38476 0.21687,0.8045 0.20987,1.25922l-0.01049,0.55615h-5.37267l-0.29382,-1.02836h4.54368l-0.17839,0.20987v-0.29382c-0.02798,-0.27983 -0.12242,-0.52818 -0.28332,-0.74504c-0.15391,-0.21686 -0.35328,-0.38826 -0.59813,-0.51418c-0.24485,-0.12592 -0.50718,-0.18888 -0.78701,-0.18888c-0.45472,0 -0.83598,0.08745 -1.14379,0.26234c-0.30781,0.16789 -0.54217,0.41974 -0.70307,0.75553c-0.15391,0.3288 -0.23085,0.73455 -0.23085,1.21725c0,0.45472 0.09443,0.85347 0.28332,1.19626c0.18889,0.33579 0.45822,0.59813 0.808,0.78701c0.35678,0.18189 0.76252,0.27283 1.21724,0.27283c0.3288,0 0.63311,-0.05247 0.91294,-0.1574c0.27983,-0.11193 0.58414,-0.3113 0.91294,-0.59813l0.65059,0.91293c-0.20288,0.20288 -0.44772,0.38126 -0.73454,0.53517c-0.28683,0.14691 -0.59113,0.26584 -0.91293,0.35678c-0.3218,0.08395 -0.64011,0.12592 -0.95491,0.12592zM310.58032,312.2183v-8.25838h1.2907v8.25838zM309.20568,306.89809v-1.25922h4.18691v1.25922zM317.57449,312.34422c-0.67158,0 -1.26971,-0.14341 -1.79439,-0.43024c-0.51768,-0.28683 -0.92693,-0.68207 -1.22774,-1.18577c-0.29382,-0.50369 -0.44072,-1.08083 -0.44072,-1.73143c0,-0.51768 0.08395,-0.98988 0.25185,-1.41662c0.16789,-0.42674 0.39875,-0.79401 0.69257,-1.10182c0.29382,-0.3148 0.6471,-0.55615 1.05984,-0.72405c0.41974,-0.17489 0.87097,-0.26234 1.35367,-0.26234c0.42674,0 0.82199,0.08045 1.18576,0.24135c0.37077,0.1609 0.68907,0.38475 0.95491,0.67158c0.27283,0.28683 0.4827,0.62611 0.62961,1.01787c0.14691,0.38476 0.21687,0.8045 0.20987,1.25922l-0.01049,0.55615h-5.37267l-0.29382,-1.02836h4.54368l-0.17839,0.20987v-0.29382c-0.02798,-0.27983 -0.12242,-0.52818 -0.28332,-0.74504c-0.15391,-0.21686 -0.35328,-0.38826 -0.59813,-0.51418c-0.24485,-0.12592 -0.50718,-0.18888 -0.78701,-0.18888c-0.45472,0 -0.83598,0.08745 -1.1438,0.26234c-0.30781,0.16789 -0.54216,0.41974 -0.70306,0.75553c-0.15391,0.3288 -0.23086,0.73455 -0.23086,1.21725c0,0.45472 0.09444,0.85347 0.28332,1.19626c0.18889,0.33579 0.45821,0.59813 0.808,0.78701c0.35678,0.18189 0.76252,0.27283 1.21724,0.27283c0.3288,0 0.63311,-0.05247 0.91294,-0.1574c0.27983,-0.11193 0.58414,-0.3113 0.91294,-0.59813l0.6506,0.91293c-0.20288,0.20288 -0.44772,0.38126 -0.73455,0.53517c-0.28683,0.14691 -0.59114,0.26584 -0.91294,0.35678c-0.3218,0.08395 -0.6401,0.12592 -0.9549,0.12592zM326.19067,312.2183l-2.13018,-2.77029l-0.18889,-0.24135l-2.77029,-3.56779h1.6265l2.0987,2.72831l0.20987,0.28332l2.7283,3.56779zM321.11181,312.2183l2.5919,-3.37891l0.76603,0.91293l-1.82587,2.46598zM325.10983,309.03877l-0.71355,-0.90244l1.616,-2.49746h1.53205zM329.6748,312.2183v-8.25838h1.2907v8.25838zM328.30015,306.89809v-1.25922h4.18691v1.25922z" fill="#ffffff" stroke="none" stroke-width="1" stroke-linecap="square"/><path d="M206.55834,329.39465c-0.28104,0 -0.55866,-0.04456 -0.83284,-0.13367c-0.27419,-0.08911 -0.52438,-0.20907 -0.75059,-0.35987c-0.2262,-0.15766 -0.41471,-0.3256 -0.56551,-0.50382c-0.1508,-0.18508 -0.2502,-0.37358 -0.29818,-0.56551l0.31874,-0.16451v1.56286h-1.26469v-9.04818h1.26469v4.1128l-0.19536,-0.10282c0.04113,-0.19193 0.13024,-0.37358 0.26733,-0.54495c0.13709,-0.17822 0.31531,-0.33931 0.53466,-0.48325c0.21935,-0.14395 0.45584,-0.25705 0.70946,-0.33931c0.25362,-0.08911 0.51067,-0.13367 0.77115,-0.13367c0.58265,0 1.09675,0.14395 1.5423,0.43184c0.45241,0.2879 0.80885,0.68204 1.06933,1.18243c0.26048,0.50039 0.39072,1.07619 0.39072,1.7274c0,0.64434 -0.13024,1.22013 -0.39072,1.72738c-0.25362,0.50725 -0.60664,0.90824 -1.05905,1.20299c-0.44555,0.2879 -0.94937,0.43184 -1.51145,0.43184zM206.34242,328.24307c0.37701,0 0.71289,-0.09597 1.00764,-0.2879c0.29475,-0.19193 0.52781,-0.45241 0.69918,-0.78143c0.17137,-0.33588 0.25705,-0.71631 0.25705,-1.1413c0,-0.41813 -0.08568,-0.79172 -0.25705,-1.12076c-0.16451,-0.33588 -0.39414,-0.59636 -0.68889,-0.78143c-0.29475,-0.19193 -0.63406,-0.2879 -1.01792,-0.2879c-0.38386,0 -0.72317,0.09597 -1.01792,0.2879c-0.29475,0.18508 -0.52781,0.44555 -0.69918,0.78143c-0.17137,0.32904 -0.25705,0.70262 -0.25705,1.12076c0,0.42499 0.08568,0.80542 0.25705,1.1413c0.17137,0.32902 0.40443,0.5895 0.69918,0.78143c0.29475,0.19193 0.63406,0.2879 1.01792,0.2879zM213.79912,329.39465c-0.63063,0 -1.19614,-0.14395 -1.69653,-0.43184c-0.49354,-0.29475 -0.88425,-0.69232 -1.17215,-1.19271c-0.28104,-0.50725 -0.42156,-1.08304 -0.42156,-1.72738c0,-0.64435 0.14052,-1.21672 0.42156,-1.71711c0.2879,-0.50725 0.67861,-0.90482 1.17215,-1.19271c0.50039,-0.29475 1.0659,-0.44213 1.69653,-0.44213c0.61692,0 1.17215,0.14738 1.66568,0.44213c0.50039,0.2879 0.89453,0.68547 1.18243,1.19271c0.2879,0.50039 0.43184,1.07276 0.43184,1.71711c0,0.64434 -0.14395,1.22013 -0.43184,1.72738c-0.2879,0.50039 -0.68204,0.89796 -1.18243,1.19271c-0.49354,0.2879 -1.04876,0.43184 -1.66568,0.43184zM213.79912,328.24307c0.38386,0 0.72659,-0.09597 1.0282,-0.2879c0.30161,-0.19193 0.53809,-0.45241 0.70946,-0.78143c0.17137,-0.33588 0.25362,-0.71289 0.24677,-1.13102c0.00685,-0.42499 -0.0754,-0.802 -0.24677,-1.13104c-0.17137,-0.33588 -0.40785,-0.59636 -0.70946,-0.78143c-0.30161,-0.19193 -0.64434,-0.2879 -1.0282,-0.2879c-0.38386,0 -0.73002,0.09597 -1.03848,0.2879c-0.30846,0.19193 -0.54837,0.45584 -0.71974,0.79171c-0.17137,0.32904 -0.25362,0.70262 -0.24677,1.12076c-0.00685,0.41813 0.0754,0.79514 0.24677,1.13102c0.17137,0.32902 0.41128,0.5895 0.71974,0.78143c0.30846,0.19193 0.65462,0.2879 1.03848,0.2879zM222.49171,329.27127l-2.08725,-2.71445l-0.18508,-0.23649l-2.71445,-3.4959h1.59371l2.0564,2.67334l0.20564,0.27761l2.67332,3.49588zM217.51522,329.27127l2.53965,-3.3108l0.75059,0.89453l-1.78907,2.41627zM221.43266,326.15582l-0.69918,-0.88425l1.58343,-2.44714h1.50117zM229.24027,329.27127v-7.16657c0,-0.37015 0.08226,-0.69918 0.24677,-0.98707c0.16451,-0.2879 0.38729,-0.51067 0.66833,-0.66833c0.2879,-0.16451 0.62035,-0.24677 0.99735,-0.24677c0.26048,0 0.50382,0.04798 0.73002,0.14395c0.23306,0.09597 0.42156,0.2262 0.56551,0.39072l-0.43184,0.96651c-0.10967,-0.09597 -0.22963,-0.17479 -0.35987,-0.23649c-0.12338,-0.06169 -0.23991,-0.09254 -0.34959,-0.09254c-0.17137,0 -0.31874,0.02742 -0.44213,0.08226c-0.11653,0.05484 -0.20564,0.13709 -0.26733,0.24677c-0.05484,0.10967 -0.08226,0.24334 -0.08226,0.401v7.16657h-0.63748c-0.10282,0 -0.20907,0 -0.31874,0c-0.10282,0 -0.20907,0 -0.31874,0zM228.21207,324.0994v-1.16187h3.8249v1.16187zM236.01971,329.39465c-0.63063,0 -1.19614,-0.14395 -1.69653,-0.43184c-0.49354,-0.29475 -0.88425,-0.69232 -1.17215,-1.19271c-0.28104,-0.50725 -0.42156,-1.08304 -0.42156,-1.72738c0,-0.64435 0.14052,-1.21672 0.42156,-1.71711c0.2879,-0.50725 0.67861,-0.90482 1.17215,-1.19271c0.50039,-0.29475 1.0659,-0.44213 1.69653,-0.44213c0.61692,0 1.17215,0.14738 1.66568,0.44213c0.50039,0.2879 0.89453,0.68547 1.18243,1.19271c0.2879,0.50039 0.43184,1.07276 0.43184,1.71711c0,0.64434 -0.14395,1.22013 -0.43184,1.72738c-0.2879,0.50039 -0.68204,0.89796 -1.18243,1.19271c-0.49354,0.2879 -1.04876,0.43184 -1.66568,0.43184zM236.01971,328.24307c0.38386,0 0.72659,-0.09597 1.0282,-0.2879c0.30161,-0.19193 0.53809,-0.45241 0.70946,-0.78143c0.17137,-0.33588 0.25362,-0.71289 0.24677,-1.13102c0.00685,-0.42499 -0.0754,-0.802 -0.24677,-1.13104c-0.17137,-0.33588 -0.40785,-0.59636 -0.70946,-0.78143c-0.30161,-0.19193 -0.64434,-0.2879 -1.0282,-0.2879c-0.38386,0 -0.73002,0.09597 -1.03848,0.2879c-0.30846,0.19193 -0.54837,0.45584 -0.71974,0.79171c-0.17137,0.32904 -0.25362,0.70262 -0.24677,1.12076c-0.00685,0.41813 0.0754,0.79514 0.24677,1.13102c0.17137,0.32902 0.41128,0.5895 0.71974,0.78143c0.30846,0.19193 0.65462,0.2879 1.03848,0.2879zM240.67036,329.27127v-6.44683h1.27497v2.02555l-0.12338,-0.49354c0.08911,-0.30846 0.24334,-0.5895 0.46269,-0.84312c0.21935,-0.25362 0.46954,-0.45241 0.75059,-0.59636c0.28104,-0.1508 0.57236,-0.2262 0.87397,-0.2262c0.13709,0 0.26733,0.01371 0.39072,0.04113c0.13024,0.02056 0.23306,0.04798 0.30846,0.08226l-0.32902,1.37779c-0.09597,-0.04113 -0.20564,-0.0754 -0.32902,-0.10282c-0.11653,-0.03427 -0.23306,-0.05141 -0.34959,-0.05141c-0.21935,0 -0.42842,0.04456 -0.6272,0.13367c-0.19879,0.08226 -0.37701,0.20221 -0.53466,0.35987c-0.1508,0.1508 -0.27076,0.3256 -0.35987,0.52438c-0.08911,0.1988 -0.13367,0.41815 -0.13367,0.65807v3.55757zM249.03479,329.27127v-6.44683h1.27497v1.37779l-0.23649,0.14395c0.06855,-0.21249 0.17137,-0.41471 0.30846,-0.60664c0.14395,-0.19879 0.31874,-0.37358 0.52438,-0.52438c0.21249,-0.1508 0.4387,-0.27076 0.67861,-0.35987c0.24677,-0.09597 0.49696,-0.14395 0.75059,-0.14395c0.3633,0 0.68547,0.06169 0.96651,0.18508c0.28104,0.12338 0.51067,0.30846 0.68889,0.55523c0.17822,0.24677 0.30846,0.55523 0.39072,0.92538l-0.19536,-0.05141l0.08226,-0.20564c0.09597,-0.19193 0.22278,-0.37015 0.38043,-0.53466c0.15766,-0.17137 0.33931,-0.32217 0.54495,-0.45241c0.20564,-0.13024 0.42156,-0.23306 0.64777,-0.30846c0.23306,-0.0754 0.45926,-0.1131 0.67861,-0.1131c0.47983,0 0.8774,0.09939 1.19271,0.29818c0.31531,0.19879 0.5518,0.50039 0.70946,0.90482c0.16451,0.39757 0.24677,0.89454 0.24677,1.49091v3.86603h-1.27497v-3.79406c0,-0.37017 -0.04798,-0.67178 -0.14395,-0.90484c-0.09597,-0.23306 -0.23991,-0.40443 -0.43184,-0.5141c-0.18508,-0.11653 -0.42499,-0.17479 -0.71974,-0.17479c-0.2262,0 -0.44213,0.04113 -0.64777,0.12338c-0.19879,0.0754 -0.37358,0.18165 -0.52438,0.31874c-0.14395,0.13709 -0.25705,0.29818 -0.33931,0.48325c-0.0754,0.18508 -0.1131,0.38729 -0.1131,0.60666v3.85575h-1.28525v-3.81462c0,-0.33589 -0.04798,-0.62037 -0.14395,-0.85343c-0.09597,-0.23306 -0.23991,-0.41128 -0.43184,-0.53466c-0.18508,-0.12338 -0.41471,-0.18508 -0.68889,-0.18508c-0.2262,0 -0.4387,0.04113 -0.63748,0.12338c-0.19193,0.0754 -0.3633,0.18165 -0.5141,0.31874c-0.14395,0.13024 -0.25705,0.2879 -0.33931,0.47297c-0.08226,0.18508 -0.12338,0.38387 -0.12338,0.59638v3.87631zM263.26173,329.39465c-0.63063,0 -1.19614,-0.14395 -1.69653,-0.43184c-0.49354,-0.29475 -0.88425,-0.69232 -1.17215,-1.19271c-0.28104,-0.50725 -0.42156,-1.08304 -0.42156,-1.72738c0,-0.64435 0.14052,-1.21672 0.42156,-1.71711c0.2879,-0.50725 0.67861,-0.90482 1.17215,-1.19271c0.50039,-0.29475 1.0659,-0.44213 1.69653,-0.44213c0.61692,0 1.17215,0.14738 1.66568,0.44213c0.50039,0.2879 0.89453,0.68547 1.18243,1.19271c0.2879,0.50039 0.43184,1.07276 0.43184,1.71711c0,0.64434 -0.14395,1.22013 -0.43184,1.72738c-0.2879,0.50039 -0.68204,0.89796 -1.18243,1.19271c-0.49354,0.2879 -1.04876,0.43184 -1.66568,0.43184zM263.26173,328.24307c0.38386,0 0.72659,-0.09597 1.0282,-0.2879c0.30161,-0.19193 0.53809,-0.45241 0.70946,-0.78143c0.17137,-0.33588 0.25362,-0.71289 0.24677,-1.13102c0.00685,-0.42499 -0.0754,-0.802 -0.24677,-1.13104c-0.17137,-0.33588 -0.40785,-0.59636 -0.70946,-0.78143c-0.30161,-0.19193 -0.64434,-0.2879 -1.0282,-0.2879c-0.38386,0 -0.73002,0.09597 -1.03848,0.2879c-0.30846,0.19193 -0.54837,0.45584 -0.71974,0.79171c-0.17137,0.32904 -0.25362,0.70262 -0.24677,1.12076c-0.00685,0.41813 0.0754,0.79514 0.24677,1.13102c0.17137,0.32902 0.41128,0.5895 0.71974,0.78143c0.30846,0.19193 0.65462,0.2879 1.03848,0.2879zM271.30544,329.39465c-0.28104,0 -0.55866,-0.04456 -0.83284,-0.13367c-0.27419,-0.08911 -0.52438,-0.20907 -0.75059,-0.35987c-0.2262,-0.15766 -0.41471,-0.3256 -0.56551,-0.50382c-0.1508,-0.18508 -0.2502,-0.37358 -0.29818,-0.56551l0.31874,-0.16451v1.56286h-1.26469v-9.04818h1.26469v4.1128l-0.19536,-0.10282c0.04113,-0.19193 0.13024,-0.37358 0.26733,-0.54495c0.13709,-0.17822 0.31531,-0.33931 0.53466,-0.48325c0.21935,-0.14395 0.45584,-0.25705 0.70946,-0.33931c0.25362,-0.08911 0.51067,-0.13367 0.77115,-0.13367c0.58265,0 1.09675,0.14395 1.5423,0.43184c0.45241,0.2879 0.80885,0.68204 1.06933,1.18243c0.26048,0.50039 0.39072,1.07619 0.39072,1.7274c0,0.64434 -0.13024,1.22013 -0.39072,1.72738c-0.25362,0.50725 -0.60664,0.90824 -1.05905,1.20299c-0.44555,0.2879 -0.94937,0.43184 -1.51145,0.43184zM271.08952,328.24307c0.37701,0 0.71289,-0.09597 1.00764,-0.2879c0.29475,-0.19193 0.52781,-0.45241 0.69918,-0.78143c0.17137,-0.33588 0.25705,-0.71631 0.25705,-1.1413c0,-0.41813 -0.08568,-0.79172 -0.25705,-1.12076c-0.16451,-0.33588 -0.39414,-0.59636 -0.68889,-0.78143c-0.29475,-0.19193 -0.63406,-0.2879 -1.01792,-0.2879c-0.38386,0 -0.72317,0.09597 -1.01792,0.2879c-0.29475,0.18508 -0.52781,0.44555 -0.69918,0.78143c-0.17137,0.32904 -0.25705,0.70262 -0.25705,1.12076c0,0.42499 0.08568,0.80542 0.25705,1.1413c0.17137,0.32902 0.40443,0.5895 0.69918,0.78143c0.29475,0.19193 0.63406,0.2879 1.01792,0.2879zM275.85234,329.27127v-6.44683h1.26469v6.44683zM276.46926,321.40552c-0.26733,0 -0.4764,-0.06855 -0.6272,-0.20564c-0.14395,-0.14395 -0.21592,-0.34273 -0.21592,-0.59636c0,-0.23991 0.0754,-0.43184 0.2262,-0.57579c0.1508,-0.1508 0.35644,-0.2262 0.61692,-0.2262c0.26733,0 0.47297,0.07197 0.61692,0.21592c0.1508,0.13709 0.2262,0.33245 0.2262,0.58607c0,0.23991 -0.0754,0.43527 -0.2262,0.58607c-0.1508,0.14395 -0.35644,0.21592 -0.61692,0.21592zM279.08018,329.27127v-9.08931h1.26469v9.08931zM285.02059,329.39465c-0.65805,0 -1.24412,-0.14052 -1.75822,-0.42156c-0.50725,-0.28104 -0.90824,-0.66833 -1.20299,-1.16187c-0.2879,-0.49354 -0.43184,-1.05905 -0.43184,-1.69653c0,-0.50725 0.08226,-0.96994 0.24677,-1.38809c0.16451,-0.41813 0.39072,-0.778 0.67861,-1.07961c0.2879,-0.30846 0.63406,-0.54495 1.03848,-0.70946c0.41128,-0.17137 0.85341,-0.25705 1.32638,-0.25705c0.41813,0 0.80542,0.07883 1.16187,0.23649c0.3633,0.15766 0.67518,0.37701 0.93566,0.65805c0.26733,0.28104 0.47297,0.61349 0.61692,0.99735c0.14395,0.37701 0.21249,0.78829 0.20564,1.23386l-0.01028,0.54495h-5.26438l-0.2879,-1.00764h4.45211l-0.17479,0.20564v-0.2879c-0.02742,-0.2742 -0.11996,-0.51755 -0.27761,-0.73004c-0.1508,-0.21249 -0.34616,-0.38043 -0.58607,-0.50382c-0.23991,-0.12338 -0.49696,-0.18508 -0.77115,-0.18508c-0.44555,0 -0.81913,0.08568 -1.12074,0.25705c-0.30161,0.16451 -0.53124,0.41128 -0.68889,0.7403c-0.1508,0.32218 -0.2262,0.71976 -0.2262,1.19273c0,0.44555 0.09254,0.83627 0.27761,1.17215c0.18508,0.32902 0.44898,0.58607 0.79171,0.77115c0.34959,0.17822 0.74716,0.26733 1.19271,0.26733c0.32217,0 0.62035,-0.05141 0.89453,-0.15423c0.27419,-0.10967 0.57236,-0.30503 0.89453,-0.58607l0.63748,0.89453c-0.19879,0.19879 -0.4387,0.37358 -0.71974,0.52438c-0.28104,0.14395 -0.57922,0.26048 -0.89453,0.34959c-0.31531,0.08226 -0.6272,0.12338 -0.93566,0.12338z" fill="#ffffff" stroke="none" stroke-width="1" stroke-linecap="square"/><path d="M171.84912,79.53679v-13.0625h8.23438v1.9375h-6.21875v9.1875h6.21875v1.9375zM172.771,73.80242v-1.9375h6.28125v1.9375zM182.8197,79.53679v-9.79687h1.92188v2.01563l-0.34375,0.21875c0.125,-0.42709 0.36979,-0.82291 0.73438,-1.1875c0.36459,-0.375 0.79166,-0.67709 1.28125,-0.90625c0.5,-0.22916 1.01041,-0.34375 1.53125,-0.34375c0.75,0 1.36979,0.14584 1.85938,0.4375c0.5,0.29166 0.875,0.73959 1.125,1.34375c0.25,0.59375 0.375,1.34375 0.375,2.25v5.96875h-1.92187v-5.84375c0,-0.55209 -0.07291,-1.01041 -0.21875,-1.375c-0.14584,-0.375 -0.375,-0.64584 -0.6875,-0.8125c-0.3125,-0.16666 -0.69791,-0.23959 -1.15625,-0.21875c-0.375,0 -0.71875,0.0625 -1.03125,0.1875c-0.3125,0.11459 -0.58334,0.28125 -0.8125,0.5c-0.22916,0.20834 -0.41146,0.45313 -0.54687,0.73438c-0.125,0.27084 -0.1875,0.56771 -0.1875,0.89063v5.9375h-0.95312c-0.15625,0 -0.31771,0 -0.48437,0c-0.16666,0 -0.32812,0 -0.48437,0zM195.13892,79.53679v-12.29687h1.92188v12.29688zM193.09204,71.61492v-1.875h6.23438v1.875zM205.55332,79.72429c-1,0 -1.89062,-0.21354 -2.67187,-0.64062c-0.77084,-0.42709 -1.38021,-1.01562 -1.82812,-1.76562c-0.4375,-0.75 -0.65625,-1.60937 -0.65625,-2.57812c0,-0.77084 0.125,-1.47396 0.375,-2.10937c0.25,-0.63541 0.59375,-1.18229 1.03125,-1.64062c0.4375,-0.46875 0.96354,-0.82812 1.57813,-1.07812c0.625,-0.26041 1.29688,-0.39062 2.01563,-0.39062c0.63541,0 1.22396,0.11979 1.76563,0.35938c0.55209,0.23959 1.02604,0.57291 1.42188,1c0.40625,0.42709 0.71875,0.93229 0.9375,1.51563c0.21875,0.57291 0.32291,1.19791 0.3125,1.875l-0.01562,0.82813h-8l-0.4375,-1.53125h6.76563l-0.26562,0.3125v-0.4375c-0.04166,-0.41666 -0.18229,-0.78646 -0.42187,-1.10937c-0.22916,-0.32291 -0.52604,-0.57812 -0.89062,-0.76562c-0.36459,-0.1875 -0.75521,-0.28125 -1.17187,-0.28125c-0.67709,0 -1.24479,0.13021 -1.70312,0.39063c-0.45834,0.25 -0.80729,0.625 -1.04687,1.125c-0.22916,0.48959 -0.34375,1.09375 -0.34375,1.8125c0,0.67709 0.14063,1.27084 0.42188,1.78125c0.28125,0.5 0.68229,0.89063 1.20313,1.17188c0.53125,0.27084 1.13541,0.40625 1.8125,0.40625c0.48959,0 0.94271,-0.07812 1.35938,-0.23437c0.41666,-0.16666 0.86979,-0.46354 1.35938,-0.89062l0.96875,1.35938c-0.30209,0.30209 -0.66666,0.56771 -1.09375,0.79688c-0.42709,0.21875 -0.88021,0.39584 -1.35937,0.53125c-0.47916,0.125 -0.95312,0.1875 -1.42187,0.1875zM211.9234,79.53679v-9.79687h1.9375v3.07813l-0.1875,-0.75c0.13541,-0.46875 0.36979,-0.89584 0.70313,-1.28125c0.33334,-0.38541 0.71354,-0.6875 1.14063,-0.90625c0.42709,-0.22916 0.86979,-0.34375 1.32813,-0.34375c0.20834,0 0.40625,0.02084 0.59375,0.0625c0.19791,0.03125 0.35416,0.07291 0.46875,0.125l-0.5,2.09375c-0.14584,-0.0625 -0.3125,-0.11459 -0.5,-0.15625c-0.17709,-0.05209 -0.35416,-0.07812 -0.53125,-0.07812c-0.33334,0 -0.65104,0.06771 -0.95312,0.20313c-0.30209,0.125 -0.57291,0.30729 -0.8125,0.54688c-0.22916,0.22916 -0.41146,0.49479 -0.54687,0.79688c-0.13541,0.30209 -0.20312,0.63541 -0.20312,1v5.40625zM225.15,79.53679v-13.0625h5.3125c0.70834,0 1.34896,0.17709 1.92188,0.53125c0.58334,0.35416 1.04688,0.83854 1.39063,1.45313c0.35416,0.60416 0.53125,1.28125 0.53125,2.03125c0,0.75 -0.17709,1.43229 -0.53125,2.04688c-0.34375,0.60416 -0.80729,1.08854 -1.39062,1.45313c-0.57291,0.36459 -1.21354,0.54688 -1.92187,0.54688h-3.29687v5zM227.16562,72.59929h3.26563c0.33334,0 0.63541,-0.09375 0.90625,-0.28125c0.28125,-0.19791 0.50521,-0.45312 0.67188,-0.76562c0.16666,-0.32291 0.25,-0.67709 0.25,-1.0625c0,-0.38541 -0.08334,-0.73437 -0.25,-1.04687c-0.16666,-0.3125 -0.39062,-0.5625 -0.67187,-0.75c-0.27084,-0.1875 -0.57291,-0.28125 -0.90625,-0.28125h-3.26562zM240.07263,79.72429c-0.80209,0 -1.53646,-0.22396 -2.20312,-0.67187c-0.66666,-0.44791 -1.20312,-1.05729 -1.60937,-1.82812c-0.39584,-0.77084 -0.59375,-1.64062 -0.59375,-2.60937c0,-0.98959 0.20313,-1.86459 0.60938,-2.625c0.40625,-0.76041 0.95313,-1.35937 1.64063,-1.79687c0.69791,-0.4375 1.47396,-0.65625 2.32813,-0.65625c0.51041,0 0.97396,0.07813 1.39063,0.23438c0.42709,0.14584 0.79688,0.35416 1.10938,0.625c0.32291,0.26041 0.58334,0.56771 0.78125,0.92188c0.20834,0.34375 0.33854,0.71354 0.39063,1.10938l-0.42187,-0.14062v-2.54687h1.9375v9.79688h-1.9375v-2.32812l0.4375,-0.14062c-0.07291,0.34375 -0.22396,0.67709 -0.45312,1c-0.22916,0.3125 -0.52084,0.59375 -0.875,0.84375c-0.35416,0.23959 -0.74479,0.4375 -1.17187,0.59375c-0.42709,0.14584 -0.88021,0.21875 -1.35937,0.21875zM240.57263,77.95867c0.59375,0 1.10938,-0.14062 1.54688,-0.42187c0.44791,-0.29166 0.79688,-0.6875 1.04688,-1.1875c0.26041,-0.51041 0.39063,-1.08854 0.39063,-1.73437c0,-0.63541 -0.13021,-1.20312 -0.39062,-1.70312c-0.25,-0.5 -0.59896,-0.89062 -1.04687,-1.17187c-0.4375,-0.29166 -0.95312,-0.4375 -1.54687,-0.4375c-0.57291,0 -1.07812,0.14584 -1.51562,0.4375c-0.4375,0.28125 -0.78646,0.67188 -1.04687,1.17188c-0.25,0.5 -0.375,1.06771 -0.375,1.70313c0,0.64584 0.125,1.22396 0.375,1.73438c0.26041,0.5 0.60938,0.89584 1.04688,1.1875c0.4375,0.28125 0.94271,0.42188 1.51563,0.42188zM251.38202,79.72429c-0.82291,0 -1.5625,-0.14062 -2.21875,-0.42187c-0.65625,-0.29166 -1.20312,-0.71875 -1.64062,-1.28125l1.29688,-1.10937c0.375,0.42709 0.78125,0.73959 1.21875,0.9375c0.44791,0.1875 0.95313,0.28125 1.51563,0.28125c0.21875,0 0.42188,-0.02604 0.60938,-0.07812c0.19791,-0.05209 0.36979,-0.13541 0.51563,-0.25c0.14584,-0.11459 0.25521,-0.25 0.32813,-0.40625c0.07291,-0.15625 0.10938,-0.32812 0.10938,-0.51562c0,-0.32291 -0.11979,-0.58334 -0.35937,-0.78125c-0.125,-0.08334 -0.32291,-0.17709 -0.59375,-0.28125c-0.26041,-0.10416 -0.60416,-0.21354 -1.03125,-0.32812c-0.71875,-0.1875 -1.30729,-0.39584 -1.76562,-0.625c-0.45834,-0.23959 -0.8125,-0.51041 -1.0625,-0.8125c-0.1875,-0.23959 -0.32812,-0.49479 -0.42187,-0.76562c-0.08334,-0.28125 -0.125,-0.59375 -0.125,-0.9375c0,-0.40625 0.08854,-0.78125 0.26563,-1.125c0.1875,-0.34375 0.4375,-0.64062 0.75,-0.89062c0.32291,-0.26041 0.69791,-0.45834 1.125,-0.59375c0.42709,-0.13541 0.88541,-0.20312 1.375,-0.20312c0.45834,0 0.91146,0.0625 1.35938,0.1875c0.45834,0.125 0.88021,0.30729 1.26563,0.54688c0.38541,0.22916 0.70834,0.50521 0.96875,0.82813l-1.09375,1.21875c-0.23959,-0.23959 -0.5,-0.44791 -0.78125,-0.625c-0.28125,-0.17709 -0.56771,-0.3125 -0.85937,-0.40625c-0.28125,-0.10416 -0.53646,-0.15625 -0.76562,-0.15625c-0.26041,0 -0.5,0.02604 -0.71875,0.07813c-0.20834,0.04166 -0.38541,0.11459 -0.53125,0.21875c-0.13541,0.09375 -0.24479,0.21875 -0.32812,0.375c-0.07291,0.14584 -0.10937,0.3125 -0.10937,0.5c0.01041,0.15625 0.05209,0.30729 0.125,0.45313c0.07291,0.14584 0.17188,0.26563 0.29688,0.35938c0.13541,0.10416 0.33854,0.21354 0.60938,0.32813c0.27084,0.10416 0.61979,0.20834 1.04688,0.3125c0.61459,0.15625 1.125,0.33334 1.53125,0.53125c0.40625,0.1875 0.72916,0.40625 0.96875,0.65625c0.25,0.23959 0.42188,0.51563 0.51563,0.82813c0.10416,0.3125 0.15625,0.66146 0.15625,1.04688c0,0.55209 -0.16146,1.05209 -0.48437,1.5c-0.3125,0.4375 -0.73959,0.78125 -1.28125,1.03125c-0.53125,0.25 -1.125,0.375 -1.78125,0.375zM260.31836,79.72429c-0.82291,0 -1.5625,-0.14062 -2.21875,-0.42187c-0.65625,-0.29166 -1.20312,-0.71875 -1.64062,-1.28125l1.29688,-1.10937c0.375,0.42709 0.78125,0.73959 1.21875,0.9375c0.44792,0.1875 0.95313,0.28125 1.51563,0.28125c0.21875,0 0.42188,-0.02604 0.60938,-0.07812c0.19792,-0.05209 0.36979,-0.13541 0.51563,-0.25c0.14584,-0.11459 0.25521,-0.25 0.32813,-0.40625c0.07292,-0.15625 0.10938,-0.32812 0.10938,-0.51562c0,-0.32291 -0.11979,-0.58334 -0.35937,-0.78125c-0.125,-0.08334 -0.32291,-0.17709 -0.59375,-0.28125c-0.26041,-0.10416 -0.60416,-0.21354 -1.03125,-0.32812c-0.71875,-0.1875 -1.30729,-0.39584 -1.76562,-0.625c-0.45833,-0.23959 -0.8125,-0.51041 -1.0625,-0.8125c-0.1875,-0.23959 -0.32812,-0.49479 -0.42187,-0.76562c-0.08333,-0.28125 -0.125,-0.59375 -0.125,-0.9375c0,-0.40625 0.08854,-0.78125 0.26563,-1.125c0.1875,-0.34375 0.4375,-0.64062 0.75,-0.89062c0.32292,-0.26041 0.69792,-0.45834 1.125,-0.59375c0.42709,-0.13541 0.88542,-0.20312 1.375,-0.20312c0.45834,0 0.91146,0.0625 1.35938,0.1875c0.45834,0.125 0.88021,0.30729 1.26563,0.54688c0.38542,0.22916 0.70834,0.50521 0.96875,0.82813l-1.09375,1.21875c-0.23958,-0.23959 -0.5,-0.44791 -0.78125,-0.625c-0.28125,-0.17709 -0.56771,-0.3125 -0.85937,-0.40625c-0.28125,-0.10416 -0.53646,-0.15625 -0.76562,-0.15625c-0.26041,0 -0.5,0.02604 -0.71875,0.07813c-0.20833,0.04166 -0.38541,0.11459 -0.53125,0.21875c-0.13541,0.09375 -0.24479,0.21875 -0.32812,0.375c-0.07291,0.14584 -0.10937,0.3125 -0.10937,0.5c0.01042,0.15625 0.05209,0.30729 0.125,0.45313c0.07292,0.14584 0.17188,0.26563 0.29688,0.35938c0.13542,0.10416 0.33854,0.21354 0.60938,0.32813c0.27084,0.10416 0.61979,0.20834 1.04688,0.3125c0.61459,0.15625 1.125,0.33334 1.53125,0.53125c0.40625,0.1875 0.72917,0.40625 0.96875,0.65625c0.25,0.23959 0.42188,0.51563 0.51563,0.82813c0.10417,0.3125 0.15625,0.66146 0.15625,1.04688c0,0.55209 -0.16146,1.05209 -0.48437,1.5c-0.3125,0.4375 -0.73958,0.78125 -1.28125,1.03125c-0.53125,0.25 -1.125,0.375 -1.78125,0.375zM268.39533,79.53679l-3.34375,-9.79687l1.9375,-0.01562l2.39063,7.32813l-0.42187,-0.03125l2.59375,-5.73437h1.15625l2.60938,5.75l-0.5,0.03125l2.40625,-7.32812h1.9375l-3.29687,9.79688h-1.32812l-2.73437,-6.23437l0.4375,0.0625l-2.53125,6.17188zM285.04031,79.72429c-0.95833,0 -1.81771,-0.21875 -2.57812,-0.65625c-0.75,-0.44791 -1.34375,-1.05209 -1.78125,-1.8125c-0.42708,-0.77084 -0.64062,-1.64584 -0.64062,-2.625c0,-0.97916 0.21354,-1.84896 0.64063,-2.60937c0.4375,-0.77084 1.03125,-1.375 1.78125,-1.8125c0.76042,-0.44791 1.61979,-0.67187 2.57813,-0.67187c0.9375,0 1.78125,0.22396 2.53125,0.67188c0.76043,0.4375 1.35941,1.04166 1.79691,1.8125c0.4375,0.76041 0.65625,1.63021 0.65625,2.60938c0,0.97916 -0.21875,1.85416 -0.65625,2.625c-0.4375,0.76041 -1.03647,1.36459 -1.79691,1.8125c-0.75,0.4375 -1.59375,0.65625 -2.53125,0.65625zM285.04031,77.97429c0.58333,0 1.10417,-0.14584 1.5625,-0.4375c0.45833,-0.29166 0.81771,-0.6875 1.07813,-1.1875c0.26043,-0.51041 0.38545,-1.08334 0.37503,-1.71875c0.01042,-0.64584 -0.1146,-1.21875 -0.37503,-1.71875c-0.26042,-0.51041 -0.61979,-0.90625 -1.07812,-1.1875c-0.45833,-0.29166 -0.97917,-0.4375 -1.5625,-0.4375c-0.58333,0 -1.10937,0.14584 -1.57812,0.4375c-0.46875,0.29166 -0.83333,0.69271 -1.09375,1.20313c-0.26042,0.5 -0.38542,1.06771 -0.375,1.70313c-0.01042,0.63541 0.11458,1.20834 0.375,1.71875c0.26042,0.5 0.625,0.89584 1.09375,1.1875c0.46875,0.29166 0.99479,0.4375 1.57813,0.4375zM292.10767,79.53679v-9.79687h1.9375v3.07813l-0.1875,-0.75c0.13542,-0.46875 0.36979,-0.89584 0.70313,-1.28125c0.33333,-0.38541 0.71354,-0.6875 1.14063,-0.90625c0.42708,-0.22916 0.86979,-0.34375 1.32813,-0.34375c0.20833,0 0.40625,0.02084 0.59375,0.0625c0.19792,0.03125 0.35417,0.07291 0.46875,0.125l-0.5,2.09375c-0.14583,-0.0625 -0.3125,-0.11459 -0.5,-0.15625c-0.17708,-0.05209 -0.35417,-0.07812 -0.53125,-0.07812c-0.33333,0 -0.65104,0.06771 -0.95312,0.20313c-0.30208,0.125 -0.57292,0.30729 -0.8125,0.54688c-0.22917,0.22916 -0.41146,0.49479 -0.54687,0.79688c-0.13542,0.30209 -0.20312,0.63541 -0.20312,1v5.40625zM303.29357,79.72429c-0.89583,0 -1.69271,-0.21875 -2.39062,-0.65625c-0.69792,-0.44791 -1.25521,-1.05209 -1.67187,-1.8125c-0.40625,-0.77084 -0.60937,-1.64584 -0.60937,-2.625c0,-0.97916 0.19792,-1.84896 0.59375,-2.60937c0.40625,-0.77084 0.95833,-1.375 1.65625,-1.8125c0.69792,-0.44791 1.48958,-0.67187 2.375,-0.67187c0.47917,0 0.94792,0.07813 1.40625,0.23438c0.45833,0.15625 0.86458,0.36979 1.21875,0.64063c0.36458,0.26041 0.64583,0.55209 0.84375,0.875c0.20833,0.3125 0.3125,0.63021 0.3125,0.95313l-0.5625,0.04688v-6.5625h1.92188v13.8125h-1.92187v-2.32812h0.375c0,0.29166 -0.09896,0.58854 -0.29687,0.89063c-0.19792,0.29166 -0.46354,0.5625 -0.79687,0.8125c-0.32292,0.23959 -0.70312,0.4375 -1.14062,0.59375c-0.42708,0.14584 -0.86458,0.21875 -1.3125,0.21875zM303.5592,78.06804c0.58333,0 1.09896,-0.15104 1.54688,-0.45312c0.44792,-0.30209 0.79688,-0.70834 1.04688,-1.21875c0.26042,-0.52084 0.39063,-1.10937 0.39063,-1.76562c0,-0.65625 -0.13021,-1.23959 -0.39062,-1.75c-0.25,-0.52084 -0.59896,-0.93229 -1.04687,-1.23437c-0.44792,-0.30209 -0.96354,-0.45312 -1.54687,-0.45312c-0.58333,0 -1.09896,0.15104 -1.54687,0.45313c-0.44792,0.30209 -0.80208,0.71354 -1.0625,1.23438c-0.25,0.51041 -0.375,1.09375 -0.375,1.75c0,0.65625 0.125,1.24479 0.375,1.76563c0.26042,0.51041 0.61458,0.91666 1.0625,1.21875c0.44792,0.30209 0.96354,0.45313 1.54688,0.45313z" fill="#ffffff" stroke="none" stroke-width="1" stroke-linecap="square"/></g></g></svg>