<svg version="1.1" xmlns="http://www.w3.org/2000/svg" xmlns:xlink="http://www.w3.org/1999/xlink" width="21.58322" height="27.89234" viewBox="0,0,21.58322,27.89234"><g transform="translate(-193.40772,-134.86399)"><g data-paper-data="{&quot;isPaintingLayer&quot;:true}" stroke="none" stroke-width="1" stroke-linecap="square" stroke-linejoin="miter" stroke-miterlimit="10" stroke-dasharray="" stroke-dashoffset="0" style="mix-blend-mode: normal"><path d="M193.40772,136.58802c0,-0.95215 0.41182,-1.72403 0.91982,-1.72403h19.74357c0.24395,0 0.47791,0.18164 0.65041,0.50495c0.1725,0.32331 0.26942,0.76183 0.26942,1.21908v24.44429c0,0.95215 -0.41182,1.72402 -0.91983,1.72402h-19.74357c-0.508,0 -0.91982,-0.77187 -0.91982,-1.72402z" fill-opacity="0.69355" fill="#2d2d2d" fill-rule="evenodd"/><path d="M198.49435,156.2779v-16.68218h7.51676c1.06185,0 2.02124,0.23286 2.87817,0.69859c0.87556,0.44709 1.55551,1.08047 2.03986,1.90015c0.50298,0.80104 0.75447,1.70454 0.75447,2.7105c0,1.04322 -0.25149,1.98398 -0.75447,2.82228c-0.48436,0.8383 -1.15499,1.49962 -2.01192,1.98398c-0.85693,0.46572 -1.82563,0.69859 -2.90611,0.69859h-3.66058v5.8681zM207.74359,156.2779l-4.24739,-7.54471l4.16356,-0.58681l4.72243,8.13152zM202.35053,147.30809h3.29731c0.40983,0 0.76379,-0.08383 1.06185,-0.25149c0.31669,-0.18628 0.55887,-0.44709 0.72653,-0.78241c0.16766,-0.33532 0.25149,-0.71721 0.25149,-1.14568c0,-0.42847 -0.09315,-0.80104 -0.27943,-1.11773c-0.18628,-0.33532 -0.46572,-0.58681 -0.8383,-0.75447c-0.35395,-0.18628 -0.78241,-0.27943 -1.28539,-0.27943h-2.93405z" fill="#ffffff" fill-rule="nonzero"/></g></g></svg>