<svg version="1.1" xmlns="http://www.w3.org/2000/svg" xmlns:xlink="http://www.w3.org/1999/xlink" width="20" height="20" viewBox="0,0,20,20"><g transform="translate(-230,-170)"><g data-paper-data="{&quot;isPaintingLayer&quot;:true}" fill="#ffffff" fill-rule="nonzero" stroke="none" stroke-width="1" stroke-linecap="butt" stroke-linejoin="miter" stroke-miterlimit="10" stroke-dasharray="" stroke-dashoffset="0" style="mix-blend-mode: normal"><path d="M240.1,190c-1.4,0 -2.7125,-0.26667 -3.9375,-0.8c-1.225,-0.53333 -2.29167,-1.25417 -3.2,-2.1625c-0.90833,-0.90833 -1.62917,-1.975 -2.1625,-3.2c-0.53333,-1.225 -0.8,-2.5375 -0.8,-3.9375c0,-2.43333 0.775,-4.57917 2.325,-6.4375c1.55,-1.85833 3.525,-3.0125 5.925,-3.4625c-0.3,1.65 -0.20833,3.2625 0.275,4.8375c0.48333,1.575 1.31667,2.95417 2.5,4.1375c1.18333,1.18333 2.5625,2.01667 4.1375,2.5c1.575,0.48333 3.1875,0.575 4.8375,0.275c-0.43333,2.4 -1.58333,4.375 -3.45,5.925c-1.86667,1.55 -4.01667,2.325 -6.45,2.325zM240.1,188c1.46667,0 2.825,-0.36667 4.075,-1.1c1.25,-0.73333 2.23333,-1.74167 2.95,-3.025c-1.43333,-0.13333 -2.79167,-0.49583 -4.075,-1.0875c-1.28333,-0.59167 -2.43333,-1.39583 -3.45,-2.4125c-1.01667,-1.01667 -1.825,-2.16667 -2.425,-3.45c-0.6,-1.28333 -0.95833,-2.64167 -1.075,-4.075c-1.28333,0.71667 -2.2875,1.70417 -3.0125,2.9625c-0.725,1.25833 -1.0875,2.62083 -1.0875,4.0875c0,2.25 0.7875,4.1625 2.3625,5.7375c1.575,1.575 3.4875,2.3625 5.7375,2.3625z"/></g></g></svg>